<svg width="362" height="159" viewBox="0 0 362 159" fill="none" xmlns="http://www.w3.org/2000/svg">
<g filter="url(#filter0_d_2267_3565)">
<rect x="37" y="27" width="122" height="40" rx="4" fill="#0056CF"/>
<path d="M72.0592 41.7H75.3912C77.5192 41.7 78.9892 42.848 78.9892 44.864C78.9892 46.866 77.5192 48.028 75.3912 48.028H74.1592V51.5H72.0592V41.7ZM74.1592 43.59V46.166H75.4332C76.2732 46.166 76.8752 45.69 76.8752 44.878C76.8752 44.066 76.2732 43.59 75.4332 43.59H74.1592ZM84.9647 44.472V46.572C84.8527 46.516 84.6567 46.488 84.4467 46.488C83.3127 46.488 82.6407 47.328 82.6407 48.686V51.5H80.6107V44.584H82.6267V45.718C82.9907 44.92 83.7187 44.43 84.6147 44.43C84.7687 44.43 84.9227 44.458 84.9647 44.472ZM88.6255 51.5H86.5815V44.584H88.6255V51.5ZM88.7935 42.582C88.7935 43.226 88.2615 43.772 87.6035 43.772C86.9455 43.772 86.4135 43.226 86.4135 42.582C86.4135 41.938 86.9455 41.392 87.6035 41.392C88.2615 41.392 88.7935 41.938 88.7935 42.582ZM92.8873 47.804V51.5H90.8433V44.584H92.8873V45.452C93.2513 44.822 93.9233 44.402 94.8333 44.402C95.7713 44.402 96.4853 44.85 96.8633 45.606C97.2973 44.878 98.0813 44.402 99.0893 44.402C100.671 44.402 101.567 45.48 101.567 47.16V51.5H99.5233V47.636C99.5233 46.782 99.1313 46.264 98.4173 46.264C97.7173 46.264 97.2413 46.838 97.2273 47.762V51.5H95.1833V47.664C95.1833 46.782 94.7913 46.264 94.0913 46.264C93.3633 46.264 92.8873 46.852 92.8873 47.804ZM109.474 51.5H107.584L107.556 50.632C107.15 51.346 106.352 51.682 105.526 51.682C104.238 51.682 103.356 50.87 103.356 49.652C103.356 48.378 104.21 47.594 105.932 47.342L107.5 47.118V47.034C107.5 46.46 107.038 46.124 106.1 46.124C105.204 46.124 104.406 46.474 103.776 47.048V45.102C104.378 44.696 105.246 44.402 106.31 44.402C108.312 44.402 109.474 45.368 109.474 47.16V51.5ZM105.288 49.484C105.302 49.876 105.624 50.128 106.086 50.128C106.94 50.128 107.5 49.512 107.5 48.728V48.49L106.282 48.686C105.624 48.784 105.288 49.078 105.288 49.484ZM115.985 44.472V46.572C115.873 46.516 115.677 46.488 115.467 46.488C114.333 46.488 113.661 47.328 113.661 48.686V51.5H111.631V44.584H113.647V45.718C114.011 44.92 114.739 44.43 115.635 44.43C115.789 44.43 115.943 44.458 115.985 44.472ZM118.813 54.636C118.267 54.636 117.889 54.51 117.651 54.384V52.676C117.889 52.788 118.155 52.844 118.435 52.844C119.037 52.844 119.443 52.606 119.723 51.934L119.919 51.486L117.119 44.584H119.275L120.997 49.218L122.747 44.584H124.847L121.753 52.102C121.025 53.894 120.115 54.636 118.813 54.636Z" fill="white"/>
</g>
<rect x="183" y="27" width="142" height="40" rx="4" fill="#0056CF" fill-opacity="0.05"/>
<path d="M218.158 50.842V48.35C219.096 49.218 220.454 49.708 221.504 49.708C222.456 49.708 222.988 49.33 222.988 48.644C222.988 47.846 222.008 47.678 220.916 47.384C219.572 47.034 218.046 46.53 218.046 44.612C218.046 42.736 219.558 41.518 221.686 41.518C222.848 41.518 223.842 41.784 224.71 42.33V44.668C223.8 43.884 222.75 43.464 221.7 43.464C220.664 43.464 220.216 43.898 220.216 44.486C220.216 45.13 221.042 45.34 221.994 45.592C223.408 45.956 225.172 46.432 225.172 48.49C225.172 50.366 223.786 51.682 221.546 51.682C220.328 51.682 219.04 51.388 218.158 50.842ZM233.148 49.19V51.038C232.476 51.43 231.58 51.682 230.488 51.682C228.122 51.682 226.666 50.156 226.666 48.014C226.666 45.942 228.122 44.402 230.18 44.402C232.294 44.402 233.568 45.858 233.568 48C233.568 48.21 233.54 48.448 233.526 48.616H228.682C228.836 49.414 229.55 49.974 230.712 49.974C231.538 49.974 232.322 49.736 233.148 49.19ZM228.654 47.272H231.608C231.538 46.502 230.964 45.984 230.166 45.984C229.368 45.984 228.752 46.572 228.654 47.272ZM234.933 48.042C234.933 45.956 236.459 44.402 238.629 44.402C239.231 44.402 239.861 44.542 240.365 44.836V46.754C239.889 46.418 239.399 46.25 238.867 46.25C237.803 46.25 236.991 46.992 236.991 48.042C236.991 49.078 237.789 49.834 238.867 49.834C239.413 49.834 239.945 49.61 240.379 49.302V51.234C239.819 51.542 239.203 51.682 238.601 51.682C236.473 51.682 234.933 50.212 234.933 48.042ZM241.82 48.042C241.82 45.984 243.43 44.402 245.572 44.402C247.714 44.402 249.324 45.984 249.324 48.042C249.324 50.1 247.714 51.682 245.572 51.682C243.43 51.682 241.82 50.1 241.82 48.042ZM243.836 48.042C243.836 49.036 244.62 49.82 245.572 49.82C246.524 49.82 247.308 49.036 247.308 48.042C247.308 47.048 246.524 46.264 245.572 46.264C244.62 46.264 243.836 47.048 243.836 48.042ZM253.18 47.832V51.5H251.136V44.584H253.18V45.466C253.6 44.794 254.3 44.402 255.224 44.402C256.806 44.402 257.772 45.48 257.772 47.23V51.5H255.728V47.706C255.728 46.796 255.28 46.278 254.482 46.278C253.698 46.278 253.18 46.866 253.18 47.832ZM265.02 41.7H267.05V51.5H265.02V50.576C264.544 51.276 263.69 51.668 262.78 51.668C260.918 51.668 259.504 50.1 259.504 48.042C259.504 45.998 260.918 44.416 262.78 44.416C263.69 44.416 264.544 44.766 265.02 45.48V41.7ZM261.534 48.042C261.534 49.036 262.318 49.834 263.312 49.834C264.306 49.834 265.09 49.036 265.09 48.042C265.09 47.048 264.306 46.25 263.312 46.25C262.318 46.25 261.534 47.048 261.534 48.042ZM275.081 51.5H273.191L273.163 50.632C272.757 51.346 271.959 51.682 271.133 51.682C269.845 51.682 268.963 50.87 268.963 49.652C268.963 48.378 269.817 47.594 271.539 47.342L273.107 47.118V47.034C273.107 46.46 272.645 46.124 271.707 46.124C270.811 46.124 270.013 46.474 269.383 47.048V45.102C269.985 44.696 270.853 44.402 271.917 44.402C273.919 44.402 275.081 45.368 275.081 47.16V51.5ZM270.895 49.484C270.909 49.876 271.231 50.128 271.693 50.128C272.547 50.128 273.107 49.512 273.107 48.728V48.49L271.889 48.686C271.231 48.784 270.895 49.078 270.895 49.484ZM281.592 44.472V46.572C281.48 46.516 281.284 46.488 281.074 46.488C279.94 46.488 279.268 47.328 279.268 48.686V51.5H277.238V44.584H279.254V45.718C279.618 44.92 280.346 44.43 281.242 44.43C281.396 44.43 281.55 44.458 281.592 44.472ZM284.42 54.636C283.874 54.636 283.496 54.51 283.258 54.384V52.676C283.496 52.788 283.762 52.844 284.042 52.844C284.644 52.844 285.05 52.606 285.33 51.934L285.526 51.486L282.726 44.584H284.882L286.604 49.218L288.354 44.584H290.454L287.36 52.102C286.632 53.894 285.722 54.636 284.42 54.636Z" fill="#0056CF"/>
<path d="M85.4255 105.7H87.5255V113.526H90.9415V115.5H85.4255V105.7ZM94.5991 115.5H92.5551V108.584H94.5991V115.5ZM94.7671 106.582C94.7671 107.226 94.2351 107.772 93.5771 107.772C92.9191 107.772 92.3871 107.226 92.3871 106.582C92.3871 105.938 92.9191 105.392 93.5771 105.392C94.2351 105.392 94.7671 105.938 94.7671 106.582ZM98.8609 111.832V115.5H96.8169V108.584H98.8609V109.466C99.2809 108.794 99.9809 108.402 100.905 108.402C102.487 108.402 103.453 109.48 103.453 111.23V115.5H101.409V111.706C101.409 110.796 100.961 110.278 100.163 110.278C99.3789 110.278 98.8609 110.866 98.8609 111.832ZM109.93 108.584H112.366L109.51 111.65L112.548 115.5H110.098L107.984 112.742L107.634 113.092V115.5H105.604V105.7H107.634V111.048L109.93 108.584Z" fill="#0056CF"/>
<rect x="196" y="91" width="117" height="40" rx="4" fill="#DA0014"/>
<path d="M239.58 110.6C239.58 113.358 237.34 115.5 234.596 115.5H231.278V105.7H234.596C237.34 105.7 239.58 107.842 239.58 110.6ZM237.424 110.6C237.424 108.976 236.164 107.674 234.54 107.674H233.378V113.526H234.54C236.164 113.526 237.424 112.224 237.424 110.6ZM247.253 115.5H245.363L245.335 114.632C244.929 115.346 244.131 115.682 243.305 115.682C242.017 115.682 241.135 114.87 241.135 113.652C241.135 112.378 241.989 111.594 243.711 111.342L245.279 111.118V111.034C245.279 110.46 244.817 110.124 243.879 110.124C242.983 110.124 242.185 110.474 241.555 111.048V109.102C242.157 108.696 243.025 108.402 244.089 108.402C246.091 108.402 247.253 109.368 247.253 111.16V115.5ZM243.067 113.484C243.081 113.876 243.403 114.128 243.865 114.128C244.719 114.128 245.279 113.512 245.279 112.728V112.49L244.061 112.686C243.403 112.784 243.067 113.078 243.067 113.484ZM251.454 111.832V115.5H249.41V108.584H251.454V109.466C251.874 108.794 252.574 108.402 253.498 108.402C255.08 108.402 256.046 109.48 256.046 111.23V115.5H254.002V111.706C254.002 110.796 253.554 110.278 252.756 110.278C251.972 110.278 251.454 110.866 251.454 111.832ZM258.043 111.02C258.043 109.452 259.345 108.402 260.941 108.402C261.333 108.402 261.697 108.472 262.047 108.584H264.413V109.956H263.601C263.755 110.278 263.839 110.628 263.839 111.02C263.839 112.546 262.537 113.596 260.941 113.596C260.535 113.596 260.157 113.54 259.807 113.414C259.555 113.484 259.415 113.652 259.415 113.834C259.415 114.142 259.681 114.24 260.031 114.24H262.033C263.559 114.24 264.539 114.912 264.539 116.2C264.539 117.894 262.789 118.636 260.815 118.636C258.715 118.636 257.539 118.076 257.539 116.802C257.539 116.2 257.917 115.696 258.407 115.388C258.001 115.08 257.833 114.66 257.833 114.226C257.833 113.456 258.239 113.022 258.701 112.714C258.295 112.266 258.043 111.692 258.043 111.02ZM262.775 116.382C262.775 116.004 262.425 115.864 261.753 115.864H259.779C259.443 115.99 259.261 116.2 259.261 116.508C259.261 116.998 259.807 117.208 260.843 117.208C262.103 117.208 262.775 116.942 262.775 116.382ZM260.941 109.97C260.353 109.97 259.863 110.404 259.863 111.02C259.863 111.65 260.353 112.07 260.941 112.07C261.529 112.07 262.019 111.65 262.019 111.02C262.019 110.404 261.529 109.97 260.941 109.97ZM271.98 113.19V115.038C271.308 115.43 270.412 115.682 269.32 115.682C266.954 115.682 265.498 114.156 265.498 112.014C265.498 109.942 266.954 108.402 269.012 108.402C271.126 108.402 272.4 109.858 272.4 112C272.4 112.21 272.372 112.448 272.358 112.616H267.514C267.668 113.414 268.382 113.974 269.544 113.974C270.37 113.974 271.154 113.736 271.98 113.19ZM267.486 111.272H270.44C270.37 110.502 269.796 109.984 268.998 109.984C268.2 109.984 267.584 110.572 267.486 111.272ZM278.457 108.472V110.572C278.345 110.516 278.149 110.488 277.939 110.488C276.805 110.488 276.133 111.328 276.133 112.686V115.5H274.103V108.584H276.119V109.718C276.483 108.92 277.211 108.43 278.107 108.43C278.261 108.43 278.415 108.458 278.457 108.472Z" fill="white"/>
<defs>
<filter id="filter0_d_2267_3565" x="9" y="11" width="178" height="96" filterUnits="userSpaceOnUse" color-interpolation-filters="sRGB">
<feFlood flood-opacity="0" result="BackgroundImageFix"/>
<feColorMatrix in="SourceAlpha" type="matrix" values="0 0 0 0 0 0 0 0 0 0 0 0 0 0 0 0 0 0 127 0" result="hardAlpha"/>
<feOffset dy="12"/>
<feGaussianBlur stdDeviation="14"/>
<feColorMatrix type="matrix" values="0 0 0 0 0.235294 0 0 0 0 0.415686 0 0 0 0 0.67451 0 0 0 0.18 0"/>
<feBlend mode="normal" in2="BackgroundImageFix" result="effect1_dropShadow_2267_3565"/>
<feBlend mode="normal" in="SourceGraphic" in2="effect1_dropShadow_2267_3565" result="shape"/>
</filter>
</defs>
</svg>
