<svg width="362" height="159" viewBox="0 0 362 159" fill="none" xmlns="http://www.w3.org/2000/svg">
<g filter="url(#filter0_d_2267_3565)">
<rect x="108" y="59" width="147" height="40" rx="4" fill="#0056CF"/>
<path d="M143.048 83.5V73.7H146.632C148.438 73.7 149.74 74.68 149.74 76.346C149.74 77.214 149.306 77.9 148.592 78.264C149.712 78.656 150.328 79.496 150.328 80.63C150.328 82.422 148.984 83.5 146.842 83.5H143.048ZM145.106 81.736H146.716C147.612 81.736 148.2 81.316 148.2 80.518C148.2 79.734 147.598 79.3 146.716 79.3H145.106V81.736ZM145.106 77.606H146.422C147.15 77.606 147.682 77.228 147.682 76.528C147.682 75.814 147.15 75.45 146.422 75.45H145.106V77.606ZM156.668 80.238V76.584H158.712V83.5H156.668V82.618C156.262 83.276 155.562 83.682 154.652 83.682C153.084 83.682 152.118 82.59 152.118 80.854V76.584H154.162V80.364C154.162 81.274 154.61 81.806 155.38 81.806C156.164 81.806 156.668 81.218 156.668 80.238ZM161.312 78.264H160.052V77.998L163.286 74.624H163.342V76.584H164.896V78.264H163.342V80.798C163.342 81.54 163.664 81.834 164.308 81.834C164.574 81.834 164.868 81.736 165.064 81.582V83.374C164.742 83.542 164.252 83.668 163.622 83.668C162.152 83.668 161.312 82.828 161.312 81.288V78.264ZM166.674 78.264H165.414V77.998L168.648 74.624H168.704V76.584H170.454V78.264H168.704V80.798C168.704 81.54 169.026 81.834 169.67 81.834C169.95 81.834 170.244 81.736 170.454 81.582V83.374C170.132 83.542 169.628 83.668 168.984 83.668C167.514 83.668 166.674 82.828 166.674 81.288V78.264ZM171.639 80.042C171.639 77.984 173.249 76.402 175.391 76.402C177.533 76.402 179.143 77.984 179.143 80.042C179.143 82.1 177.533 83.682 175.391 83.682C173.249 83.682 171.639 82.1 171.639 80.042ZM173.655 80.042C173.655 81.036 174.439 81.82 175.391 81.82C176.343 81.82 177.127 81.036 177.127 80.042C177.127 79.048 176.343 78.264 175.391 78.264C174.439 78.264 173.655 79.048 173.655 80.042ZM183 79.832V83.5H180.956V76.584H183V77.466C183.42 76.794 184.12 76.402 185.044 76.402C186.626 76.402 187.592 77.48 187.592 79.23V83.5H185.548V79.706C185.548 78.796 185.1 78.278 184.302 78.278C183.518 78.278 183 78.866 183 79.832ZM192.786 75.66V73.7H200.066V75.66H197.49V83.5H195.376V75.66H192.786ZM206.626 81.19V83.038C205.954 83.43 205.058 83.682 203.966 83.682C201.6 83.682 200.144 82.156 200.144 80.014C200.144 77.942 201.6 76.402 203.658 76.402C205.772 76.402 207.046 77.858 207.046 80C207.046 80.21 207.018 80.448 207.004 80.616H202.16C202.314 81.414 203.028 81.974 204.19 81.974C205.016 81.974 205.8 81.736 206.626 81.19ZM202.132 79.272H205.086C205.016 78.502 204.442 77.984 203.644 77.984C202.846 77.984 202.23 78.572 202.132 79.272ZM212.885 83.5L211.429 81.428L209.987 83.5H207.719L210.281 80L207.831 76.584H210.169L211.485 78.516L212.843 76.584H215.111L212.661 79.944L215.209 83.5H212.885ZM216.862 78.264H215.602V77.998L218.836 74.624H218.892V76.584H220.642V78.264H218.892V80.798C218.892 81.54 219.214 81.834 219.858 81.834C220.138 81.834 220.432 81.736 220.642 81.582V83.374C220.32 83.542 219.816 83.668 219.172 83.668C217.702 83.668 216.862 82.828 216.862 81.288V78.264Z" fill="white"/>
</g>
<defs>
<filter id="filter0_d_2267_3565" x="80" y="43" width="203" height="96" filterUnits="userSpaceOnUse" color-interpolation-filters="sRGB">
<feFlood flood-opacity="0" result="BackgroundImageFix"/>
<feColorMatrix in="SourceAlpha" type="matrix" values="0 0 0 0 0 0 0 0 0 0 0 0 0 0 0 0 0 0 127 0" result="hardAlpha"/>
<feOffset dy="12"/>
<feGaussianBlur stdDeviation="14"/>
<feColorMatrix type="matrix" values="0 0 0 0 0.235294 0 0 0 0 0.415686 0 0 0 0 0.67451 0 0 0 0.18 0"/>
<feBlend mode="normal" in2="BackgroundImageFix" result="effect1_dropShadow_2267_3565"/>
<feBlend mode="normal" in="SourceGraphic" in2="effect1_dropShadow_2267_3565" result="shape"/>
</filter>
</defs>
</svg>
