<svg width="362" height="159" viewBox="0 0 362 159" fill="none" xmlns="http://www.w3.org/2000/svg">
<g filter="url(#filter0_d_2267_3566)">
<path d="M25 67.8209C25 66.2629 26.2629 65 27.8209 65H128.955V93.2086H27.8209C26.2629 93.2086 25 91.9457 25 90.3878V67.8209Z" fill="#0056CF"/>
<path d="M49.8608 82.6045V75.6934H52.3883C53.6619 75.6934 54.5801 76.3845 54.5801 77.5594C54.5801 78.1715 54.2741 78.6553 53.7706 78.912C54.5604 79.1884 54.9948 79.7808 54.9948 80.5805C54.9948 81.8443 54.047 82.6045 52.5364 82.6045H49.8608ZM51.3122 81.3605H52.4476C53.0794 81.3605 53.4941 81.0643 53.4941 80.5015C53.4941 79.9487 53.0696 79.6426 52.4476 79.6426H51.3122V81.3605ZM51.3122 78.448H52.2402C52.7536 78.448 53.1288 78.1814 53.1288 77.6877C53.1288 77.1842 52.7536 76.9275 52.2402 76.9275H51.3122V78.448ZM59.4657 80.3041V77.7272H60.9071V82.6045H59.4657V81.9825C59.1793 82.4465 58.6857 82.7328 58.0439 82.7328C56.9382 82.7328 56.2569 81.9627 56.2569 80.7385V77.7272H57.6984V80.3929C57.6984 81.0347 58.0143 81.4099 58.5573 81.4099C59.1102 81.4099 59.4657 80.9952 59.4657 80.3041ZM62.7408 78.912H61.8522V78.7244L64.1329 76.345H64.1724V77.7272H65.2683V78.912H64.1724V80.699C64.1724 81.2223 64.3995 81.4296 64.8536 81.4296C65.0412 81.4296 65.2486 81.3605 65.3868 81.2519V82.5156C65.1597 82.6341 64.8141 82.723 64.3699 82.723C63.3332 82.723 62.7408 82.1306 62.7408 81.0446V78.912ZM66.5222 78.912H65.6336V78.7244L67.9143 76.345H67.9538V77.7272H69.1879V78.912H67.9538V80.699C67.9538 81.2223 68.1808 81.4296 68.635 81.4296C68.8325 81.4296 69.0398 81.3605 69.1879 81.2519V82.5156C68.9608 82.6341 68.6054 82.723 68.1512 82.723C67.1146 82.723 66.5222 82.1306 66.5222 81.0446V78.912ZM70.0236 80.1659C70.0236 78.7145 71.159 77.5989 72.6696 77.5989C74.1802 77.5989 75.3156 78.7145 75.3156 80.1659C75.3156 81.6172 74.1802 82.7328 72.6696 82.7328C71.159 82.7328 70.0236 81.6172 70.0236 80.1659ZM71.4453 80.1659C71.4453 80.8668 71.9982 81.4197 72.6696 81.4197C73.341 81.4197 73.8938 80.8668 73.8938 80.1659C73.8938 79.4649 73.341 78.912 72.6696 78.912C71.9982 78.912 71.4453 79.4649 71.4453 80.1659ZM78.035 80.0178V82.6045H76.5936V77.7272H78.035V78.3492C78.3312 77.8753 78.8249 77.5989 79.4765 77.5989C80.5921 77.5989 81.2734 78.3591 81.2734 79.5932V82.6045H79.8319V79.9289C79.8319 79.2872 79.516 78.9219 78.9532 78.9219C78.4003 78.9219 78.035 79.3365 78.035 80.0178ZM84.9368 77.0756V75.6934H90.0708V77.0756H88.2541V82.6045H86.7633V77.0756H84.9368ZM94.6964 80.9754V82.2787C94.2225 82.5551 93.5907 82.7328 92.8206 82.7328C91.152 82.7328 90.1252 81.6567 90.1252 80.1461C90.1252 78.6849 91.152 77.5989 92.6034 77.5989C94.0942 77.5989 94.9926 78.6257 94.9926 80.1362C94.9926 80.2843 94.9729 80.4522 94.963 80.5707H91.5469C91.6556 81.1334 92.1591 81.5283 92.9785 81.5283C93.561 81.5283 94.1139 81.3605 94.6964 80.9754ZM91.5272 79.6228H93.6104C93.561 79.0798 93.1562 78.7145 92.5935 78.7145C92.0307 78.7145 91.5963 79.1292 91.5272 79.6228ZM99.111 82.6045L98.0842 81.1433L97.0673 82.6045H95.4678L97.2746 80.1362L95.5468 77.7272H97.1956L98.1237 79.0897L99.0814 77.7272H100.681L98.953 80.0967L100.75 82.6045H99.111ZM101.915 78.912H101.027V78.7244L103.307 76.345H103.347V77.7272H104.581V78.912H103.347V80.699C103.347 81.2223 103.574 81.4296 104.028 81.4296C104.225 81.4296 104.433 81.3605 104.581 81.2519V82.5156C104.354 82.6341 103.998 82.723 103.544 82.723C102.507 82.723 101.915 82.1306 101.915 81.0446V78.912Z" fill="white"/>
<rect width="103.955" height="28.2086" transform="translate(128.955 65)" fill="#0056CF"/>
<path d="M153.816 82.6045V75.6934H156.343C157.617 75.6934 158.535 76.3845 158.535 77.5594C158.535 78.1715 158.229 78.6553 157.726 78.912C158.515 79.1884 158.95 79.7808 158.95 80.5805C158.95 81.8443 158.002 82.6045 156.492 82.6045H153.816ZM155.267 81.3605H156.403C157.035 81.3605 157.449 81.0643 157.449 80.5015C157.449 79.9487 157.025 79.6426 156.403 79.6426H155.267V81.3605ZM155.267 78.448H156.195C156.709 78.448 157.084 78.1814 157.084 77.6877C157.084 77.1842 156.709 76.9275 156.195 76.9275H155.267V78.448ZM163.421 80.3041V77.7272H164.862V82.6045H163.421V81.9825C163.134 82.4465 162.641 82.7328 161.999 82.7328C160.893 82.7328 160.212 81.9627 160.212 80.7385V77.7272H161.653V80.3929C161.653 81.0347 161.969 81.4099 162.512 81.4099C163.065 81.4099 163.421 80.9952 163.421 80.3041ZM166.696 78.912H165.807V78.7244L168.088 76.345H168.127V77.7272H169.223V78.912H168.127V80.699C168.127 81.2223 168.355 81.4296 168.809 81.4296C168.996 81.4296 169.204 81.3605 169.342 81.2519V82.5156C169.115 82.6341 168.769 82.723 168.325 82.723C167.288 82.723 166.696 82.1306 166.696 81.0446V78.912ZM170.477 78.912H169.589V78.7244L171.869 76.345H171.909V77.7272H173.143V78.912H171.909V80.699C171.909 81.2223 172.136 81.4296 172.59 81.4296C172.788 81.4296 172.995 81.3605 173.143 81.2519V82.5156C172.916 82.6341 172.56 82.723 172.106 82.723C171.07 82.723 170.477 82.1306 170.477 81.0446V78.912ZM173.979 80.1659C173.979 78.7145 175.114 77.5989 176.625 77.5989C178.135 77.5989 179.271 78.7145 179.271 80.1659C179.271 81.6172 178.135 82.7328 176.625 82.7328C175.114 82.7328 173.979 81.6172 173.979 80.1659ZM175.4 80.1659C175.4 80.8668 175.953 81.4197 176.625 81.4197C177.296 81.4197 177.849 80.8668 177.849 80.1659C177.849 79.4649 177.296 78.912 176.625 78.912C175.953 78.912 175.4 79.4649 175.4 80.1659ZM181.99 80.0178V82.6045H180.549V77.7272H181.99V78.3492C182.286 77.8753 182.78 77.5989 183.432 77.5989C184.547 77.5989 185.228 78.3591 185.228 79.5932V82.6045H183.787V79.9289C183.787 79.2872 183.471 78.9219 182.908 78.9219C182.355 78.9219 181.99 79.3365 181.99 80.0178ZM188.892 77.0756V75.6934H194.026V77.0756H192.209V82.6045H190.718V77.0756H188.892ZM198.652 80.9754V82.2787C198.178 82.5551 197.546 82.7328 196.776 82.7328C195.107 82.7328 194.08 81.6567 194.08 80.1461C194.08 78.6849 195.107 77.5989 196.558 77.5989C198.049 77.5989 198.948 78.6257 198.948 80.1362C198.948 80.2843 198.928 80.4522 198.918 80.5707H195.502C195.611 81.1334 196.114 81.5283 196.934 81.5283C197.516 81.5283 198.069 81.3605 198.652 80.9754ZM195.482 79.6228H197.565C197.516 79.0798 197.111 78.7145 196.549 78.7145C195.986 78.7145 195.551 79.1292 195.482 79.6228ZM203.066 82.6045L202.039 81.1433L201.022 82.6045H199.423L201.23 80.1362L199.502 77.7272H201.151L202.079 79.0897L203.036 77.7272H204.636L202.908 80.0967L204.705 82.6045H203.066ZM205.87 78.912H204.982V78.7244L207.262 76.345H207.302V77.7272H208.536V78.912H207.302V80.699C207.302 81.2223 207.529 81.4296 207.983 81.4296C208.18 81.4296 208.388 81.3605 208.536 81.2519V82.5156C208.309 82.6341 207.953 82.723 207.499 82.723C206.463 82.723 205.87 82.1306 205.87 81.0446V78.912Z" fill="white"/>
<rect x="128.955" y="70.5376" width="1.41043" height="16.9252" fill="white" fill-opacity="0.1"/>
<path d="M232.909 65H334.043C335.601 65 336.864 66.2629 336.864 67.8209V90.3878C336.864 91.9457 335.601 93.2086 334.043 93.2086H232.909V65Z" fill="#0056CF"/>
<path d="M257.77 82.6045V75.6934H260.298C261.571 75.6934 262.489 76.3845 262.489 77.5594C262.489 78.1715 262.183 78.6553 261.68 78.912C262.47 79.1884 262.904 79.7808 262.904 80.5805C262.904 81.8443 261.956 82.6045 260.446 82.6045H257.77ZM259.221 81.3605H260.357C260.989 81.3605 261.403 81.0643 261.403 80.5015C261.403 79.9487 260.979 79.6426 260.357 79.6426H259.221V81.3605ZM259.221 78.448H260.149C260.663 78.448 261.038 78.1814 261.038 77.6877C261.038 77.1842 260.663 76.9275 260.149 76.9275H259.221V78.448ZM267.375 80.3041V77.7272H268.816V82.6045H267.375V81.9825C267.089 82.4465 266.595 82.7328 265.953 82.7328C264.847 82.7328 264.166 81.9627 264.166 80.7385V77.7272H265.608V80.3929C265.608 81.0347 265.924 81.4099 266.467 81.4099C267.019 81.4099 267.375 80.9952 267.375 80.3041ZM270.65 78.912H269.761V78.7244L272.042 76.345H272.082V77.7272H273.177V78.912H272.082V80.699C272.082 81.2223 272.309 81.4296 272.763 81.4296C272.95 81.4296 273.158 81.3605 273.296 81.2519V82.5156C273.069 82.6341 272.723 82.723 272.279 82.723C271.242 82.723 270.65 82.1306 270.65 81.0446V78.912ZM274.431 78.912H273.543V78.7244L275.823 76.345H275.863V77.7272H277.097V78.912H275.863V80.699C275.863 81.2223 276.09 81.4296 276.544 81.4296C276.742 81.4296 276.949 81.3605 277.097 81.2519V82.5156C276.87 82.6341 276.515 82.723 276.06 82.723C275.024 82.723 274.431 82.1306 274.431 81.0446V78.912ZM277.933 80.1659C277.933 78.7145 279.068 77.5989 280.579 77.5989C282.089 77.5989 283.225 78.7145 283.225 80.1659C283.225 81.6172 282.089 82.7328 280.579 82.7328C279.068 82.7328 277.933 81.6172 277.933 80.1659ZM279.355 80.1659C279.355 80.8668 279.907 81.4197 280.579 81.4197C281.25 81.4197 281.803 80.8668 281.803 80.1659C281.803 79.4649 281.25 78.912 280.579 78.912C279.907 78.912 279.355 79.4649 279.355 80.1659ZM285.944 80.0178V82.6045H284.503V77.7272H285.944V78.3492C286.24 77.8753 286.734 77.5989 287.386 77.5989C288.501 77.5989 289.183 78.3591 289.183 79.5932V82.6045H287.741V79.9289C287.741 79.2872 287.425 78.9219 286.862 78.9219C286.31 78.9219 285.944 79.3365 285.944 80.0178ZM292.846 77.0756V75.6934H297.98V77.0756H296.163V82.6045H294.672V77.0756H292.846ZM302.606 80.9754V82.2787C302.132 82.5551 301.5 82.7328 300.73 82.7328C299.061 82.7328 298.034 81.6567 298.034 80.1461C298.034 78.6849 299.061 77.5989 300.513 77.5989C302.003 77.5989 302.902 78.6257 302.902 80.1362C302.902 80.2843 302.882 80.4522 302.872 80.5707H299.456C299.565 81.1334 300.068 81.5283 300.888 81.5283C301.47 81.5283 302.023 81.3605 302.606 80.9754ZM299.436 79.6228H301.52C301.47 79.0798 301.065 78.7145 300.503 78.7145C299.94 78.7145 299.505 79.1292 299.436 79.6228ZM307.02 82.6045L305.993 81.1433L304.976 82.6045H303.377L305.184 80.1362L303.456 77.7272H305.105L306.033 79.0897L306.991 77.7272H308.59L306.862 80.0967L308.659 82.6045H307.02ZM309.824 78.912H308.936V78.7244L311.216 76.345H311.256V77.7272H312.49V78.912H311.256V80.699C311.256 81.2223 311.483 81.4296 311.937 81.4296C312.135 81.4296 312.342 81.3605 312.49 81.2519V82.5156C312.263 82.6341 311.907 82.723 311.453 82.723C310.417 82.723 309.824 82.1306 309.824 81.0446V78.912Z" fill="white"/>
<rect x="232.909" y="70.5376" width="1.41043" height="16.9252" fill="white" fill-opacity="0.1"/>
</g>
<defs>
<filter id="filter0_d_2267_3566" x="5.25397" y="53.7166" width="351.356" height="67.7006" filterUnits="userSpaceOnUse" color-interpolation-filters="sRGB">
<feFlood flood-opacity="0" result="BackgroundImageFix"/>
<feColorMatrix in="SourceAlpha" type="matrix" values="0 0 0 0 0 0 0 0 0 0 0 0 0 0 0 0 0 0 127 0" result="hardAlpha"/>
<feOffset dy="8.46258"/>
<feGaussianBlur stdDeviation="9.87302"/>
<feColorMatrix type="matrix" values="0 0 0 0 0.235294 0 0 0 0 0.415686 0 0 0 0 0.67451 0 0 0 0.18 0"/>
<feBlend mode="normal" in2="BackgroundImageFix" result="effect1_dropShadow_2267_3566"/>
<feBlend mode="normal" in="SourceGraphic" in2="effect1_dropShadow_2267_3566" result="shape"/>
</filter>
</defs>
</svg>
