<svg width="362" height="159" viewBox="0 0 362 159" fill="none" xmlns="http://www.w3.org/2000/svg">
<rect x="161" y="59" width="40" height="40" rx="20" fill="#0056CF" fill-opacity="0.05"/>
<path d="M181.656 73.7188V78.0938H186.031C186.387 78.0938 186.688 78.3945 186.688 78.75C186.688 79.1328 186.387 79.4062 186.031 79.4062H181.656V83.7812C181.656 84.1641 181.355 84.4375 181 84.4375C180.617 84.4375 180.344 84.1641 180.344 83.7812V79.4062H175.969C175.586 79.4062 175.312 79.1328 175.312 78.75C175.312 78.3945 175.586 78.0938 175.969 78.0938H180.344V73.7188C180.344 73.3633 180.617 73.0625 181 73.0625C181.355 73.0625 181.656 73.3633 181.656 73.7188Z" fill="#0056CF"/>
<g filter="url(#filter0_d_2267_3567)">
<path d="M253.656 73.7188V78.0938H258.031C258.387 78.0938 258.688 78.3945 258.688 78.75C258.688 79.1328 258.387 79.4062 258.031 79.4062H253.656V83.7812C253.656 84.1641 253.355 84.4375 253 84.4375C252.617 84.4375 252.344 84.1641 252.344 83.7812V79.4062H247.969C247.586 79.4062 247.312 79.1328 247.312 78.75C247.312 78.3945 247.586 78.0938 247.969 78.0938H252.344V73.7188C252.344 73.3633 252.617 73.0625 253 73.0625C253.355 73.0625 253.656 73.3633 253.656 73.7188Z" fill="#0056CF"/>
</g>
<g filter="url(#filter1_d_2267_3567)">
<rect x="89" y="59" width="40" height="40" rx="20" fill="#0056CF"/>
<path d="M109.656 73.7188V78.0938H114.031C114.387 78.0938 114.688 78.3945 114.688 78.75C114.688 79.1328 114.387 79.4062 114.031 79.4062H109.656V83.7812C109.656 84.1641 109.355 84.4375 109 84.4375C108.617 84.4375 108.344 84.1641 108.344 83.7812V79.4062H103.969C103.586 79.4062 103.312 79.1328 103.312 78.75C103.312 78.3945 103.586 78.0938 103.969 78.0938H108.344V73.7188C108.344 73.3633 108.617 73.0625 109 73.0625C109.355 73.0625 109.656 73.3633 109.656 73.7188Z" fill="white"/>
</g>
<defs>
<filter id="filter0_d_2267_3567" x="205" y="43" width="96" height="96" filterUnits="userSpaceOnUse" color-interpolation-filters="sRGB">
<feFlood flood-opacity="0" result="BackgroundImageFix"/>
<feColorMatrix in="SourceAlpha" type="matrix" values="0 0 0 0 0 0 0 0 0 0 0 0 0 0 0 0 0 0 127 0" result="hardAlpha"/>
<feOffset dy="12"/>
<feGaussianBlur stdDeviation="14"/>
<feColorMatrix type="matrix" values="0 0 0 0 0.235294 0 0 0 0 0.415686 0 0 0 0 0.67451 0 0 0 0.18 0"/>
<feBlend mode="normal" in2="BackgroundImageFix" result="effect1_dropShadow_2267_3567"/>
<feBlend mode="normal" in="SourceGraphic" in2="effect1_dropShadow_2267_3567" result="shape"/>
</filter>
<filter id="filter1_d_2267_3567" x="61" y="43" width="96" height="96" filterUnits="userSpaceOnUse" color-interpolation-filters="sRGB">
<feFlood flood-opacity="0" result="BackgroundImageFix"/>
<feColorMatrix in="SourceAlpha" type="matrix" values="0 0 0 0 0 0 0 0 0 0 0 0 0 0 0 0 0 0 127 0" result="hardAlpha"/>
<feOffset dy="12"/>
<feGaussianBlur stdDeviation="14"/>
<feColorMatrix type="matrix" values="0 0 0 0 0.235294 0 0 0 0 0.415686 0 0 0 0 0.67451 0 0 0 0.18 0"/>
<feBlend mode="normal" in2="BackgroundImageFix" result="effect1_dropShadow_2267_3567"/>
<feBlend mode="normal" in="SourceGraphic" in2="effect1_dropShadow_2267_3567" result="shape"/>
</filter>
</defs>
</svg>
