<svg width="362" height="159" viewBox="0 0 362 159" fill="none" xmlns="http://www.w3.org/2000/svg">
<g filter="url(#filter0_d_2267_3568)">
<rect x="126" y="59" width="157" height="40" rx="4" fill="#0056CF"/>
<path d="M170.875 80.4375C171.094 80.4375 171.312 80.2461 171.312 80V74.4219L169.453 72.5625H165.625C165.379 72.5625 165.188 72.7812 165.188 73V80C165.188 80.2461 165.379 80.4375 165.625 80.4375H170.875ZM165.625 81.75C164.641 81.75 163.875 80.9844 163.875 80V73C163.875 72.043 164.641 71.25 165.625 71.25H169.453C169.781 71.25 170.137 71.4141 170.383 71.6602L172.215 73.4922C172.461 73.7383 172.625 74.0938 172.625 74.4219V80C172.625 80.9844 171.832 81.75 170.875 81.75H165.625ZM162.125 74.75H163V76.0625H162.125C161.879 76.0625 161.688 76.2812 161.688 76.5V83.5C161.688 83.7461 161.879 83.9375 162.125 83.9375H167.375C167.594 83.9375 167.812 83.7461 167.812 83.5V82.625H169.125V83.5C169.125 84.4844 168.332 85.25 167.375 85.25H162.125C161.141 85.25 160.375 84.4844 160.375 83.5V76.5C160.375 75.543 161.141 74.75 162.125 74.75Z" fill="white"/>
<path d="M181.669 78.6C181.669 75.73 183.909 73.518 186.737 73.518C187.591 73.518 188.459 73.742 189.229 74.176V76.444C188.487 75.884 187.717 75.576 186.807 75.576C185.099 75.576 183.839 76.906 183.839 78.6C183.839 80.266 185.043 81.61 186.807 81.61C187.703 81.61 188.473 81.316 189.243 80.77V83.024C188.389 83.5 187.493 83.682 186.709 83.682C183.741 83.682 181.669 81.512 181.669 78.6ZM190.824 80.042C190.824 77.984 192.434 76.402 194.576 76.402C196.718 76.402 198.328 77.984 198.328 80.042C198.328 82.1 196.718 83.682 194.576 83.682C192.434 83.682 190.824 82.1 190.824 80.042ZM192.84 80.042C192.84 81.036 193.624 81.82 194.576 81.82C195.528 81.82 196.312 81.036 196.312 80.042C196.312 79.048 195.528 78.264 194.576 78.264C193.624 78.264 192.84 79.048 192.84 80.042ZM202.17 86.412H200.14V76.584H202.17V77.508C202.66 76.794 203.5 76.416 204.41 76.416C206.272 76.416 207.686 77.984 207.686 80.042C207.686 82.086 206.272 83.668 204.41 83.668C203.5 83.668 202.66 83.332 202.17 82.604V86.412ZM205.656 80.042C205.656 79.048 204.872 78.25 203.878 78.25C202.884 78.25 202.1 79.048 202.1 80.042C202.1 81.036 202.884 81.834 203.878 81.834C204.872 81.834 205.656 81.036 205.656 80.042ZM210.18 86.636C209.634 86.636 209.256 86.51 209.018 86.384V84.676C209.256 84.788 209.522 84.844 209.802 84.844C210.404 84.844 210.81 84.606 211.09 83.934L211.286 83.486L208.486 76.584H210.642L212.364 81.218L214.114 76.584H216.214L213.12 84.102C212.392 85.894 211.482 86.636 210.18 86.636ZM220.703 75.66V73.7H227.983V75.66H225.407V83.5H223.293V75.66H220.703ZM234.542 81.19V83.038C233.87 83.43 232.974 83.682 231.882 83.682C229.516 83.682 228.06 82.156 228.06 80.014C228.06 77.942 229.516 76.402 231.574 76.402C233.688 76.402 234.962 77.858 234.962 80C234.962 80.21 234.934 80.448 234.92 80.616H230.076C230.23 81.414 230.944 81.974 232.106 81.974C232.932 81.974 233.716 81.736 234.542 81.19ZM230.048 79.272H233.002C232.932 78.502 232.358 77.984 231.56 77.984C230.762 77.984 230.146 78.572 230.048 79.272ZM240.802 83.5L239.346 81.428L237.904 83.5H235.636L238.198 80L235.748 76.584H238.086L239.402 78.516L240.76 76.584H243.028L240.578 79.944L243.126 83.5H240.802ZM244.779 78.264H243.519V77.998L246.753 74.624H246.809V76.584H248.559V78.264H246.809V80.798C246.809 81.54 247.131 81.834 247.775 81.834C248.055 81.834 248.349 81.736 248.559 81.582V83.374C248.237 83.542 247.733 83.668 247.089 83.668C245.619 83.668 244.779 82.828 244.779 81.288V78.264Z" fill="white"/>
</g>
<g filter="url(#filter1_d_2267_3568)">
<path d="M86.875 81.9375C87.0938 81.9375 87.3125 81.7461 87.3125 81.5V75.9219L85.4531 74.0625H81.625C81.3789 74.0625 81.1875 74.2812 81.1875 74.5V81.5C81.1875 81.7461 81.3789 81.9375 81.625 81.9375H86.875ZM81.625 83.25C80.6406 83.25 79.875 82.4844 79.875 81.5V74.5C79.875 73.543 80.6406 72.75 81.625 72.75H85.4531C85.7812 72.75 86.1367 72.9141 86.3828 73.1602L88.2148 74.9922C88.4609 75.2383 88.625 75.5938 88.625 75.9219V81.5C88.625 82.4844 87.832 83.25 86.875 83.25H81.625ZM78.125 76.25H79V77.5625H78.125C77.8789 77.5625 77.6875 77.7812 77.6875 78V85C77.6875 85.2461 77.8789 85.4375 78.125 85.4375H83.375C83.5938 85.4375 83.8125 85.2461 83.8125 85V84.125H85.125V85C85.125 85.9844 84.332 86.75 83.375 86.75H78.125C77.1406 86.75 76.375 85.9844 76.375 85V78C76.375 77.043 77.1406 76.25 78.125 76.25Z" fill="#0056CF"/>
</g>
<defs>
<filter id="filter0_d_2267_3568" x="98" y="43" width="213" height="96" filterUnits="userSpaceOnUse" color-interpolation-filters="sRGB">
<feFlood flood-opacity="0" result="BackgroundImageFix"/>
<feColorMatrix in="SourceAlpha" type="matrix" values="0 0 0 0 0 0 0 0 0 0 0 0 0 0 0 0 0 0 127 0" result="hardAlpha"/>
<feOffset dy="12"/>
<feGaussianBlur stdDeviation="14"/>
<feColorMatrix type="matrix" values="0 0 0 0 0.235294 0 0 0 0 0.415686 0 0 0 0 0.67451 0 0 0 0.18 0"/>
<feBlend mode="normal" in2="BackgroundImageFix" result="effect1_dropShadow_2267_3568"/>
<feBlend mode="normal" in="SourceGraphic" in2="effect1_dropShadow_2267_3568" result="shape"/>
</filter>
<filter id="filter1_d_2267_3568" x="48.375" y="56.75" width="68.25" height="70" filterUnits="userSpaceOnUse" color-interpolation-filters="sRGB">
<feFlood flood-opacity="0" result="BackgroundImageFix"/>
<feColorMatrix in="SourceAlpha" type="matrix" values="0 0 0 0 0 0 0 0 0 0 0 0 0 0 0 0 0 0 127 0" result="hardAlpha"/>
<feOffset dy="12"/>
<feGaussianBlur stdDeviation="14"/>
<feColorMatrix type="matrix" values="0 0 0 0 0.235294 0 0 0 0 0.415686 0 0 0 0 0.67451 0 0 0 0.18 0"/>
<feBlend mode="normal" in2="BackgroundImageFix" result="effect1_dropShadow_2267_3568"/>
<feBlend mode="normal" in="SourceGraphic" in2="effect1_dropShadow_2267_3568" result="shape"/>
</filter>
</defs>
</svg>
