<svg width="100%" height="100%" viewBox="0 0 143 40" fill="none" xmlns="http://www.w3.org/2000/svg">
<path d="M53.0485 25.1428H51.5308V19.5474H44.3994V25.1428H42.8817V12.9463H44.3994V18.1943H51.5308V12.9463H53.0485V25.1428Z" fill="#242B42"/>
<path d="M60.4344 25.1428H58.9167V14.2994H55.0584V12.9463H64.3109V14.2994H60.4344V25.1428Z" fill="#242B42"/>
<path d="M78.2687 25.1428H76.7509V14.8845L72.6184 25.1428H71.9967L67.8458 14.8845V25.1428H66.3281V12.9463H68.5041L72.3075 22.3451L76.0927 12.9463H78.2687V25.1428Z" fill="#242B42"/>
<path d="M88.0989 25.1428H80.9127V12.9463H82.4304V23.7897H88.0989V25.1428Z" fill="#242B42"/>
<path d="M104.647 25.1428H102.745C102.379 24.832 101.904 24.3565 101.41 23.8628C100.514 24.7588 99.3804 25.3623 97.8992 25.3623C95.8147 25.3623 94.1141 24.2103 94.1141 21.9611C94.1141 20.0594 95.3941 19.0903 96.8021 18.3223C96.2535 17.3897 95.8695 16.4388 95.8695 15.5794C95.8695 13.9703 97.2044 12.7634 98.9415 12.7634C100.514 12.7634 101.684 13.6228 101.684 15.1588C101.684 16.9874 100.13 17.792 98.5758 18.5965C99.0695 19.2548 99.5998 19.8765 100.002 20.3337C100.496 20.9188 100.971 21.4491 101.447 21.9611C102.105 20.9554 102.544 19.84 102.763 19.1634L103.934 19.6937C103.531 20.6628 103.001 21.8148 102.27 22.8388C103.001 23.5885 103.751 24.32 104.647 25.1428ZM98.0455 24.2285C99.0512 24.2285 99.8924 23.7348 100.587 23.0217C99.8924 22.2903 99.2524 21.5954 98.9049 21.1748C98.3929 20.5897 97.8627 19.9314 97.3872 19.2365C96.3632 19.8583 95.5769 20.608 95.5769 21.8697C95.5769 23.3874 96.7472 24.2285 98.0455 24.2285ZM97.2775 15.616C97.2775 16.256 97.5884 17.0057 98.0089 17.7188C99.3072 17.0788 100.423 16.4388 100.423 15.2137C100.423 14.3177 99.8009 13.824 98.9781 13.824C98.0455 13.824 97.2775 14.5554 97.2775 15.616Z" fill="#242B42"/>
<path d="M117.106 25.3623C113.596 25.3623 110.834 22.8023 110.834 19.0537C110.834 15.3051 113.596 12.7451 117.106 12.7451C119.264 12.7451 120.764 13.7691 121.733 15.1588L120.471 15.872C119.776 14.8297 118.496 14.0983 117.106 14.0983C114.437 14.0983 112.407 16.128 112.407 19.0537C112.407 21.9428 114.437 24.0091 117.106 24.0091C118.496 24.0091 119.776 23.2594 120.471 22.2354L121.751 22.9303C120.727 24.3383 119.264 25.3623 117.106 25.3623Z" fill="#242B42"/>
<path d="M127.635 25.3623C125.532 25.3623 123.96 24.5577 122.954 23.424L123.868 22.2537C124.654 23.168 125.971 24.0091 127.69 24.0091C129.866 24.0091 130.561 22.8388 130.561 21.888C130.561 18.7428 123.338 20.4983 123.338 16.1463C123.338 14.1348 125.13 12.7451 127.544 12.7451C129.39 12.7451 130.835 13.3851 131.859 14.464L130.945 15.5794C130.03 14.5554 128.75 14.1165 127.416 14.1165C125.971 14.1165 124.91 14.9028 124.91 16.0548C124.91 18.7977 132.133 17.2251 132.133 21.7783C132.133 23.5337 130.926 25.3623 127.635 25.3623Z" fill="#242B42"/>
<path d="M138.349 25.3623C136.246 25.3623 134.674 24.5577 133.668 23.424L134.582 22.2537C135.369 23.168 136.685 24.0091 138.404 24.0091C140.58 24.0091 141.275 22.8388 141.275 21.888C141.275 18.7428 134.052 20.4983 134.052 16.1463C134.052 14.1348 135.844 12.7451 138.258 12.7451C140.105 12.7451 141.549 13.3851 142.573 14.464L141.659 15.5794C140.745 14.5554 139.465 14.1165 138.13 14.1165C136.685 14.1165 135.625 14.9028 135.625 16.0548C135.625 18.7977 142.848 17.2251 142.848 21.7783C142.848 23.5337 141.641 25.3623 138.349 25.3623Z" fill="#242B42"/>
<path d="M0 0H34.2857L31.1607 35.3571L17.0536 40L3.03571 35.3571L0 0ZM27.5 11.4286L27.8571 7.23214H6.33929L7.5 20.1786H22.4107L21.875 25.7143L17.0536 27.0536L12.3214 25.7143L11.9643 22.3214H7.67857L8.21429 29.1071L17.0536 31.5179H17.1429L25.8929 29.1071L27.1429 15.8929H11.4286L11.0714 11.4286H27.5Z" fill="#E44D26"/>
</svg>
