<svg width="100%" height="100%" viewBox="0 0 106 40" fill="none" xmlns="http://www.w3.org/2000/svg">
<path d="M43.2922 12.516L43.3982 10.7076L43.4512 10.7121C44.3787 10.7746 45.2841 10.9086 46.0482 11.0872L45.9425 12.8684C45.0936 12.6719 44.2154 12.5505 43.2922 12.516Z" fill="#CC0000"/>
<path d="M45.9425 12.8684L45.9422 12.8733L46.0393 12.8911C46.0071 12.8834 45.9748 12.8759 45.9425 12.8684Z" fill="#CC0000"/>
<path d="M33.7654 1.75037H33.496L33.5048 1.74594H33.3503C32.5729 1.74594 31.8088 1.79057 31.1508 1.86204L30.6428 0.169654L30.5413 0.183077C31.4157 0.0625472 32.3079 0 33.2133 0L33.7654 1.75037Z" fill="#CC0000"/>
<path d="M35.3952 14.2977L34.7812 12.3151L34.7768 12.3196L34.662 12.3687C35.4128 12.007 36.1946 11.6945 37.1309 11.3997L37.7228 13.293L37.6079 13.3287C36.8129 13.6056 36.04 13.945 35.3952 14.2977Z" fill="#CC0000"/>
<path d="M21.4076 2.78185L22.6133 4.76442C21.9287 5.135 21.2574 5.56813 20.5507 6.0281L19.3185 4.01869C20.0428 3.55878 20.7407 3.13908 21.4076 2.78185Z" fill="#CC0000"/>
<path d="M29.3841 19.7542L28.0988 17.6868L28.1298 17.6422C28.62 16.9724 29.1632 16.3428 29.7595 15.7579L30.9653 17.7136L30.9741 17.7047C30.4043 18.3254 29.8832 18.9907 29.3841 19.7542Z" fill="#CC0000"/>
<path d="M26.3807 28.7651L24.2122 26.9299L24.2387 26.7468C24.4551 25.6662 24.7333 24.6035 25.0116 23.773L26.9377 25.4039C26.684 26.4649 26.4984 27.5584 26.3807 28.7651Z" fill="#CC0000"/>
<path d="M26.9377 25.4039L26.9417 25.4072L26.977 25.242C26.9637 25.2959 26.9506 25.3499 26.9377 25.4039Z" fill="#CC0000"/>
<path d="M12.5168 13.2573L12.4948 13.2841C12.5025 13.2753 12.509 13.2661 12.5168 13.2573Z" fill="#CC0000"/>
<path d="M10.6 11.5158L12.4948 13.2841C11.8718 13.986 11.2814 14.7145 10.6751 15.5524L8.6169 13.6592C9.23526 12.9447 9.89332 12.2303 10.6 11.5158Z" fill="#CC0000"/>
<path d="M1.33826 24.9116L4.41667 26.1261C3.98825 27.1844 3.42734 28.5909 3.07841 29.5644L0 28.3587C0.278266 27.5818 0.830349 26.1485 1.33826 24.9116Z" fill="#CC0000"/>
<path d="M24.1724 38.0171C23.9827 36.795 23.8678 35.5461 23.8279 34.2305L26.7164 35.3468C26.8798 36.6954 27.1227 37.9635 27.3612 39.0798L24.1503 37.8429L24.1724 38.0171Z" fill="#CC0000"/>
<path d="M23.8279 34.226C23.8279 34.2275 23.8279 34.229 23.8279 34.2305V34.226Z" fill="#CC0000"/>
<path d="M1.87299 39.964L1.8774 39.9644L1.87299 39.9689H23.0288V39.964C23.0288 39.964 22.8386 39.033 22.6774 37.4931C22.56 36.3712 22.4579 34.9262 22.4561 33.2825C22.4495 26.7829 24.0097 17.181 32.3745 12.1727C32.4794 12.1179 32.5927 12.0578 32.7141 11.9933C35.9695 10.2643 45.1291 5.39936 59.7931 17.022C60.2746 16.5889 60.7295 16.245 60.7295 16.245V16.2402C60.7295 16.2402 48.8927 3.57868 34.8964 2.90742C33.7116 2.8506 32.5112 2.87969 31.3012 3.00969C23.4837 3.75542 13.8996 11.3642 8.27272 21.4155C5.1369 26.7514 2.88883 33.0072 1.90833 39.6827L1.87299 39.964Z" fill="#CC0000"/>
<path d="M45.9557 4.62168L46.0617 2.69716C45.3197 2.29973 44.4585 1.95593 43.5531 1.7148L43.4647 1.69245L43.3587 3.5857C44.2421 3.8983 45.0989 4.25103 45.9557 4.62168Z" fill="#CC0000"/>
<path d="M92.2642 34.7935V39.9687H101.018C103.787 39.875 106 37.5843 106 34.7712C106 34.7132 106 34.6596 105.996 34.6015V32.6011C106 32.5386 106 32.4672 106 32.3913C106 29.5871 103.783 27.3053 101.022 27.2428H96.6543V24.8316H105.302V19.643H97.0033C94.2075 19.768 91.9859 22.0944 91.9859 24.9432V26.8812C91.9859 26.8999 91.9852 26.921 91.9842 26.9431L91.9822 26.9976L91.9815 27.0374C91.9815 29.864 94.2075 32.1635 96.9856 32.2395H96.9944L99.4116 32.2508C99.0584 32.2486 97.8627 32.2395 101.12 32.2395V34.7668L92.2642 34.7935Z" fill="#CC0000"/>
<path d="M44.5473 26.969L44.5465 26.9749V26.9615L44.5473 26.969Z" fill="#CC0000"/>
<path fill-rule="evenodd" clip-rule="evenodd" d="M50.032 26.5864C50.032 33.0744 45.3459 33.5076 45.3459 33.5076L51.3261 39.9687H43.7206L39.2774 35.0302V39.9687H34.1364V19.4956H44.3566L44.3919 19.5001C47.5896 19.96 50.0497 22.7374 50.0497 26.0997C50.0497 26.2694 50.0453 26.4391 50.032 26.5864ZM39.273 29.3147H43.3628L43.3805 29.3102C44.0872 28.8994 44.5642 28.1314 44.5642 27.2473C44.5642 27.1475 44.5559 27.0521 44.5473 26.969C44.5601 26.8681 44.5686 26.763 44.5686 26.6579C44.5686 25.7916 44.1004 25.0415 43.3982 24.6351H39.273V29.3147Z" fill="#CC0000"/>
<path fill-rule="evenodd" clip-rule="evenodd" d="M57.5138 19.6385H62.7255L62.7299 19.643C65.4903 19.6876 67.7163 21.9649 67.7163 24.7646C67.7163 24.845 67.7163 24.9254 67.7119 24.9968V40H62.6593V36.4278H57.7568V40H52.5363V24.8897C52.5363 22.0631 54.7402 19.7591 57.5138 19.6385ZM57.7126 30.5783H62.6593L62.6151 30.5739V25.6041C62.6151 25.6041 62.5842 24.4878 61.1399 24.4878H59.3468C57.7126 24.4878 57.7126 25.6041 57.7126 25.6041V30.5783Z" fill="#CC0000"/>
<path d="M75.5117 19.6385H70.0793V39.9687H75.5117V19.6385Z" fill="#CC0000"/>
<path d="M83.1526 19.6385V34.7132H90.471V39.9687H77.751V19.6385H83.1526Z" fill="#CC0000"/>
</svg>
