<svg width="100%" height="100%" viewBox="0 0 113 35" fill="none" xmlns="http://www.w3.org/2000/svg">
<path d="M34.9978 9.69423C34.9956 9.34245 34.9915 8.99067 34.9818 8.63796C34.9615 7.87149 34.9161 7.09783 34.78 6.33951C34.6416 5.56929 34.4157 4.85322 34.0595 4.15373C33.7093 3.46614 33.253 2.83801 32.7075 2.2925C32.162 1.74699 31.5339 1.29069 30.8463 0.940474C30.1471 0.584941 29.431 0.358663 28.6614 0.220644C27.9028 0.0838764 27.1291 0.0388078 26.362 0.0181518C26.0099 0.00907569 25.6579 0.00406979 25.3058 0.00219197C24.888 1.18418e-06 24.4695 0 24.0517 0H10.9483C10.5302 0 10.1124 -1.37556e-06 9.69455 0.00250238C9.34246 0.00406723 8.99037 0.00938866 8.63828 0.0181518C8.44611 0.0231593 8.25426 0.0303602 8.0621 0.0394364C7.4853 0.0669777 6.90755 0.11799 6.33889 0.220644C5.76177 0.324237 5.21439 0.477277 4.68203 0.697295C3.78819 1.0666 2.97635 1.60866 2.29282 2.2925C1.747 2.83801 1.29069 3.46613 0.940795 4.15342C0.584323 4.85321 0.358674 5.56929 0.220341 6.33951C0.0841997 7.09783 0.0391308 7.87149 0.0184749 8.63796C0.00939874 8.99005 0.00407987 9.34214 0.00251502 9.69423C-0.000301699 10.1124 1.02581e-05 10.5305 1.02581e-05 10.9483V24.0514C1.02581e-05 24.4698 -0.000301699 24.8876 0.00251502 25.3058C0.00407987 25.6579 0.00939874 26.0096 0.0184749 26.3614C0.0391308 27.1285 0.0841997 27.9022 0.220341 28.6602C0.358674 29.4301 0.584323 30.1471 0.940795 30.8466C1.29069 31.5339 1.747 32.162 2.29282 32.7072C2.83833 33.253 3.46646 33.7096 4.15405 34.0598C4.85323 34.4157 5.5693 34.6413 6.33889 34.7793C7.09721 34.9161 7.8715 34.9615 8.63859 34.9818C8.99037 34.9906 9.34246 34.9959 9.69455 34.9975C10.1124 35.0003 10.5302 35 10.9486 35H24.0517C24.4695 35 24.8876 35.0003 25.3058 34.9975C25.6579 34.9959 26.01 34.9906 26.3617 34.9818C27.1291 34.9612 27.9025 34.9158 28.6614 34.7793C29.431 34.6413 30.1471 34.4154 30.8463 34.0598C31.5339 33.7096 32.162 33.253 32.7075 32.7072C33.253 32.162 33.7093 31.5339 34.0595 30.8466C34.4157 30.1471 34.6416 29.4301 34.7797 28.6602C34.9161 27.9022 34.9615 27.1285 34.9818 26.3614C34.9915 26.0096 34.9956 25.6579 34.9975 25.3058C35.0003 24.8876 35 24.4698 35 24.0514V10.9483C35 10.5305 35.0003 10.1124 34.9978 9.69423Z" fill="#F05138"/>
<path d="M27.7337 21.6045L27.7312 21.6017C27.7697 21.4696 27.8098 21.3388 27.8436 21.2039C29.2964 15.4161 25.7511 8.57338 19.7514 4.97079C22.3804 8.53489 23.5431 12.852 22.5103 16.627C22.4179 16.9638 22.3075 17.2871 22.1848 17.6013C22.0521 17.514 21.8846 17.4148 21.6599 17.2908C21.6599 17.2908 15.6922 13.6059 9.22378 7.08866C9.05415 6.91746 12.673 12.2611 16.7798 16.6001C14.845 15.5141 9.45256 11.5907 6.03869 8.46604C6.45807 9.16552 6.95695 9.83903 7.50527 10.4875C10.3561 14.1029 14.0739 18.5637 18.528 21.9891C15.3987 23.9042 10.9764 24.0532 6.57356 21.9913C5.48474 21.4809 4.46102 20.8649 3.51303 20.1655C5.37708 23.1465 8.24732 25.7185 11.741 27.2201C15.9069 29.0103 20.05 28.8888 23.1356 27.2492L23.1334 27.253C23.1475 27.2439 23.1653 27.2342 23.1797 27.2251C23.3065 27.1572 23.4323 27.0877 23.5553 27.0145C25.0378 26.2449 27.9663 25.4643 29.538 28.5224C29.9229 29.271 30.7407 25.3044 27.7337 21.6045Z" fill="white"/>
<path d="M48.2826 22.7138C48.5561 25.1418 50.8721 26.7339 54.0882 26.7339C57.144 26.7339 59.3473 25.1418 59.3473 22.9392C59.3473 21.0413 58.0125 19.883 54.9407 19.1112L51.9656 18.3554C47.6876 17.2938 45.7576 15.3637 45.7576 12.1799C45.7576 8.25589 49.1833 5.53775 54.0563 5.53775C58.7843 5.53775 62.1456 8.27185 62.2582 12.2121H59.1223C58.8807 9.79977 56.9187 8.31974 53.9758 8.31974C51.0646 8.31974 49.0384 9.81573 49.0384 12.0028C49.0384 13.7072 50.2931 14.7209 53.3809 15.509L55.8574 16.1521C60.6499 17.3264 62.6119 19.1917 62.6119 22.553C62.6119 26.8309 59.2184 29.5168 53.8146 29.5168C48.7974 29.5168 45.3717 26.8466 45.1144 22.7138H48.2826ZM82.5327 29.1303H79.3805L75.6974 16.297H75.6333L71.9665 29.1303H68.8146L64.1508 12.3242H67.2063L70.4546 25.8172H70.5194L74.1861 12.3242H77.1449L80.8439 25.8172H80.9084L84.157 12.3242H87.1803L82.5327 29.1303ZM89.2158 7.80521C89.2158 6.79244 90.0524 5.97184 91.0655 5.97184C92.0949 5.97184 92.9311 6.79244 92.9311 7.80521C92.9311 8.81861 92.0949 9.65486 91.0655 9.65486C90.0524 9.65486 89.2158 8.81861 89.2158 7.80521ZM89.5376 12.3242H92.6094V29.1303H89.5376V12.3242ZM112.669 14.801V12.3242H109.42V8.30377H106.364V12.3242H100.492V10.8448C100.508 9.34909 101.087 8.72159 102.471 8.72159C102.92 8.72159 103.371 8.77041 103.741 8.83426V6.42189C103.194 6.34145 102.695 6.29357 102.117 6.29357C98.8359 6.29357 97.4529 7.66093 97.4529 10.7966V12.3242H95.105V14.801H97.4529V29.1303H100.508V14.801H106.364V24.724C106.364 27.9726 107.602 29.2264 110.819 29.2264C111.511 29.2264 112.299 29.1785 112.652 29.0981V26.5896C112.443 26.6219 111.832 26.6701 111.494 26.6701C110.063 26.6701 109.42 25.9947 109.42 24.483V14.801H112.669Z" fill="black"/>
</svg>
