<svg width="20" height="22" viewBox="0 0 20 22" fill="none" xmlns="http://www.w3.org/2000/svg">
<path d="M10.427 17.3464C10.4794 17.3612 10.5336 17.3686 10.5881 17.3684C10.6517 17.3681 10.7148 17.358 10.7752 17.3383L14.3045 16.1804C14.4121 16.1452 14.5069 16.0801 14.5777 15.993C14.6485 15.9059 14.6921 15.8005 14.7034 15.6895L15.2916 9.9C15.2998 9.81944 15.2908 9.73808 15.2651 9.66118C15.2394 9.58427 15.1976 9.51353 15.1423 9.45351C15.0871 9.3935 15.0197 9.34555 14.9445 9.31276C14.8693 9.27997 14.788 9.26307 14.7057 9.26315H5.81294L5.37178 5.78947H15.8822C16.0382 5.78947 16.1878 5.72848 16.2981 5.6199C16.4084 5.51133 16.4704 5.36407 16.4704 5.21052C16.4704 5.05698 16.4084 4.90972 16.2981 4.80115C16.1878 4.69257 16.0382 4.63158 15.8822 4.63158H4.70591C4.62252 4.6316 4.54008 4.64907 4.46408 4.68284C4.38807 4.71661 4.32023 4.76589 4.26505 4.82743C4.20987 4.88897 4.16861 4.96135 4.14402 5.03977C4.11942 5.1182 4.11205 5.20087 4.12239 5.28231L4.71061 9.91389C4.72839 10.0539 4.79749 10.1827 4.90494 10.2761C5.01239 10.3695 5.15079 10.421 5.29413 10.421H14.0551L13.5704 15.2008L10.5752 16.1839L6.9588 15.1673L6.45293 13.1757C6.43572 13.1004 6.4034 13.0293 6.35786 12.9665C6.31232 12.9037 6.25449 12.8505 6.18776 12.81C6.12103 12.7695 6.04675 12.7425 5.96928 12.7307C5.89182 12.7188 5.81273 12.7224 5.73667 12.7411C5.66061 12.7597 5.58911 12.7932 5.52637 12.8394C5.46363 12.8857 5.41092 12.9438 5.37133 13.0104C5.33175 13.077 5.30609 13.1507 5.29586 13.2272C5.28563 13.3037 5.29105 13.3815 5.31178 13.4559L5.9 15.7717C5.92499 15.8704 5.97599 15.961 6.04787 16.0342C6.11975 16.1074 6.20996 16.1606 6.3094 16.1885L10.427 17.3464Z" fill="#687887"/>
<path fill-rule="evenodd" clip-rule="evenodd" d="M10.4268 21.978C10.4792 21.9928 10.5334 22.0002 10.5879 22C10.6511 21.9998 10.7139 21.9896 10.7738 21.9699L17.8325 19.6541C17.9407 19.6187 18.0361 19.5531 18.1071 19.4654C18.1781 19.3776 18.2217 19.2714 18.2325 19.1597L19.9972 0.633375C20.0052 0.553021 19.9961 0.471895 19.9703 0.395249C19.9445 0.318602 19.9026 0.248144 19.8474 0.188437C19.7921 0.12873 19.7248 0.0811044 19.6497 0.0486448C19.5745 0.0161851 19.4933 -0.000385112 19.4113 6.79275e-06H0.58814C0.506371 0.000498161 0.425593 0.0176633 0.350903 0.0504199C0.276212 0.0831764 0.209229 0.130814 0.154181 0.190325C0.0991322 0.249836 0.0572126 0.319931 0.0310664 0.396186C0.00492019 0.472442 -0.00488499 0.553203 0.00226939 0.633375L1.76694 19.1597C1.77837 19.2757 1.82499 19.3857 1.90072 19.4753C1.97645 19.5649 2.07781 19.63 2.19164 19.6622L10.4268 21.978ZM10.575 20.8143L2.90103 18.6572L1.23401 1.1579H18.7654L17.0972 18.6745L10.575 20.8143Z" fill="#687887"/>
</svg>
