<?xml version="1.0" encoding="UTF-8"?>
<svg width="428px" height="356px" viewBox="0 0 428 356" version="1.1" xmlns="http://www.w3.org/2000/svg" xmlns:xlink="http://www.w3.org/1999/xlink">
    <title>Group 180</title>
    <defs>
        <polygon id="path-1" points="0.0636053746 0.102478926 86.5562741 0.102478926 86.5562741 137.136219 0.0636053746 137.136219"></polygon>
        <polygon id="path-3" points="0 356 426.137679 356 426.137679 0.789245283 0 0.789245283"></polygon>
        <path d="M0.393813836,26.8061932 C0.393813836,41.5792711 12.4366751,53.5547386 27.2907874,53.5547386 L27.2907874,53.5547386 C42.143195,53.5547386 54.1860562,41.5792711 54.1860562,26.8061932 L54.1860562,26.8061932 C54.1860562,12.0331153 42.143195,0.0576477273 27.2907874,0.0576477273 L27.2907874,0.0576477273 C12.4366751,0.0576477273 0.393813836,12.0331153 0.393813836,26.8061932 L0.393813836,26.8061932 Z" id="path-5"></path>
        <path d="M0.479094574,36.8351526 C0.479094574,44.1684049 2.66107618,50.9899171 6.40810005,56.6815478 L6.40810005,56.6815478 L2.25930915,66.772792 C2.06767132,67.2406204 2.03236961,67.7591162 2.15844713,68.2505893 L2.15844713,68.2505893 C2.47952455,69.5020725 3.74870491,70.2570158 4.99603183,69.9344337 L4.99603183,69.9344337 L16.6237412,66.9281719 C22.2770572,70.670799 29.0465794,72.8478055 36.3237739,72.8478055 L36.3237739,72.8478055 C56.1196254,72.8478055 72.1684531,56.7237706 72.1684531,36.8351526 L72.1684531,36.8351526 C72.1684531,16.9448458 56.1196254,0.82249974 36.3237739,0.82249974 L36.3237739,0.82249974 C16.5262412,0.82249974 0.479094574,16.9448458 0.479094574,36.8351526 L0.479094574,36.8351526 Z M36.3237739,12.2125167 C36.3237739,11.7615774 36.8280839,11.4964183 37.1928682,11.7581996 L37.1928682,11.7581996 L56.9819957,25.9484312 C57.1854007,26.0936776 57.3064351,26.3301251 57.3064351,26.5902175 L57.3064351,26.5902175 L57.3064351,41.0033854 C57.3064351,41.2567221 57.1854007,41.4931696 56.9584612,41.6553051 L56.9584612,41.6553051 L36.3237739,56.4518559 L36.3237739,12.2125167 Z M35.4546795,63.0825211 L15.6874055,48.9091786 L15.665552,48.8922895 C15.4604659,48.748732 15.3394315,48.5105956 15.3394315,48.2589478 L15.3394315,48.2589478 L15.3394315,48.2521921 L15.3394315,33.842402 L15.3394315,33.8373353 C15.3394315,33.5839986 15.462147,33.3475511 15.6672331,33.2023047 L15.6672331,33.2023047 L15.6874055,33.1854156 L36.3237739,18.3888648 L36.3237739,62.628204 C36.3237739,62.9575417 36.0564895,63.1855447 35.7707138,63.1855447 L35.7707138,63.1855447 C35.6631276,63.1855447 35.5538605,63.1534554 35.4546795,63.0825211 L35.4546795,63.0825211 Z" id="path-7"></path>
        <path d="M0.275441778,3.54857754 C0.275441778,5.00608342 1.45786311,6.18792727 2.91572622,6.18792727 L2.91572622,6.18792727 C4.37054578,6.18792727 5.55296711,5.00608342 5.55296711,3.54857754 L5.55296711,3.54857754 C5.55296711,2.08954866 4.37054578,0.907704813 2.91572622,0.907704813 L2.91572622,0.907704813 C1.45786311,0.907704813 0.275441778,2.08954866 0.275441778,3.54857754 L0.275441778,3.54857754 Z" id="path-9"></path>
        <path d="M0.378922667,3.54857754 C0.378922667,5.00608342 1.55982222,6.18792727 3.01768533,6.18792727 L3.01768533,6.18792727 C4.47402667,6.18792727 5.656448,5.00608342 5.656448,3.54857754 L5.656448,3.54857754 C5.656448,2.08954866 4.47402667,0.907704813 3.01768533,0.907704813 L3.01768533,0.907704813 C1.55982222,0.907704813 0.378922667,2.08954866 0.378922667,3.54857754 L0.378922667,3.54857754 Z" id="path-11"></path>
        <path d="M0.482403556,3.54857754 C0.482403556,5.00608342 1.66330311,6.18792727 3.11964444,6.18792727 L3.11964444,6.18792727 C4.57750756,6.18792727 5.75840711,5.00608342 5.75840711,3.54857754 L5.75840711,3.54857754 C5.75840711,2.08954866 4.57750756,0.907704813 3.11964444,0.907704813 L3.11964444,0.907704813 C1.66330311,0.907704813 0.482403556,2.08954866 0.482403556,3.54857754 L0.482403556,3.54857754 Z" id="path-13"></path>
    </defs>
    <g id="Page-1" stroke="none" stroke-width="1" fill="none" fill-rule="evenodd">
        <g id="Group-180">
            <g id="Group-164">
                <g id="Group-3" transform="translate(339.581405, 179.017143)">
                    <mask id="mask-2" fill="white">
                        <use xlink:href="#path-1"></use>
                    </mask>
                    <g id="Clip-2"></g>
                    <path d="M18.8477766,87.8026741 C35.7814573,77.4635609 41.1189373,55.3697307 30.7684288,38.4530137 C28.4602839,34.6780704 25.54022,31.5160515 22.2469529,28.9400892 C26.5337478,22.8813722 31.4459105,17.0258439 37.0254683,11.4591458 C39.6109941,8.87982507 42.2368661,6.44491941 44.8896357,4.1158062 C45.9520884,5.00916469 46.9910058,5.93442884 48.0047067,6.89663639 L56.8321422,1.50793827 C61.3458851,-1.24770323 67.2448512,0.172938275 70.0052109,4.68339111 L78.7502726,18.977127 C81.5089513,23.4875798 80.086744,29.3800515 75.57132,32.1373722 L66.7438845,37.5260704 C68.7275779,44.2229005 69.6504996,51.0893345 69.5714881,57.9003534 L79.5454311,60.6811836 C84.6458765,62.1018251 87.6247787,67.3830515 86.2008904,72.4745232 L81.6955529,88.6087119 C80.2716646,93.7018628 74.9879796,96.6774854 69.8875342,95.2568439 L59.9236778,92.4793722 C57.2759515,96.9595987 54.1087665,101.171146 50.4389338,105.018297 L55.8335711,113.836014 C58.5939308,118.344787 57.1700425,124.237259 52.6529373,126.99458 L38.3451288,135.730014 C33.8297047,138.487335 27.9307386,137.065014 25.17206,132.554561 L19.7774227,123.736844 C14.6097334,125.264957 9.34285948,126.146561 4.07766661,126.442108 C1.06850466,115.676467 -0.269647808,104.415448 0.133815247,93.0318439 C6.52534248,93.0335232 12.9958812,91.3744288 18.8477766,87.8026741" id="Fill-1" fill="#00BF6F" mask="url(#mask-2)"></path>
                </g>
                <path d="M336.929476,308.464764 L21.4516263,308.464764 C15.0197528,308.464764 9.80667388,303.255745 9.80667388,296.830953 L9.80667388,79.6575189 C9.80667388,73.2327264 15.0197528,68.0253868 21.4516263,68.0253868 L336.929476,68.0253868 C343.361349,68.0253868 348.576109,73.2327264 348.576109,79.6591981 L348.576109,296.830953 C348.576109,303.255745 343.361349,308.464764 336.929476,308.464764" id="Fill-4" fill="#E3EAFF"></path>
                <path d="M334.88728,305.301402 L23.4944942,305.301402 C18.3957299,305.301402 14.2635958,301.172138 14.2635958,296.080666 L14.2635958,80.4084774 C14.2635958,75.3153264 18.3957299,71.1877415 23.4944942,71.1877415 L334.88728,71.1877415 C339.984363,71.1877415 344.118179,75.3153264 344.118179,80.4084774 L344.118179,296.080666 C344.118179,301.172138 339.984363,305.301402 334.88728,305.301402" id="Fill-6" fill="#00A3E0"></path>
                <path d="M324.166931,284.641983 L34.2148438,284.641983 C31.0745564,284.641983 28.5276959,282.097926 28.5276959,278.961096 L28.5276959,87.8864925 C28.5276959,84.747983 31.0745564,82.2056057 34.2148438,82.2056057 L324.166931,82.2056057 C327.307218,82.2056057 329.854079,84.747983 329.854079,87.8864925 L329.854079,278.961096 C329.854079,282.097926 327.307218,284.641983 324.166931,284.641983" id="Fill-8" fill="#0072CE"></path>
                <path d="M1.58039841,295.996704 C0.605362692,297.793496 0.000168109606,299.820345 0.000168109606,302.008402 C0.000168109606,309.015892 5.68731609,314.698458 12.7042111,314.698458 L345.678908,314.698458 C352.694122,314.698458 358.38127,309.015892 358.38127,302.008402 C358.38127,299.820345 357.777757,297.793496 356.802721,295.996704 L1.58039841,295.996704 Z" id="Fill-10" fill="#E3EAFF"></path>
                <path d="M1.58039841,308.018589 C3.73052027,311.97657 7.87778426,314.698626 12.7042111,314.698626 L345.678908,314.698626 C350.505335,314.698626 354.650918,311.97657 356.802721,308.018589 L1.58039841,308.018589 Z" id="Fill-12" fill="#C8D6F2"></path>
                <path d="M333.419515,68.0252189 L107.362528,68.0252189 L107.362528,218.928917 C107.362528,222.263898 110.070773,224.969162 113.411111,224.969162 L348.576277,224.969162 L348.576277,83.1636151 C348.576277,74.8026528 341.789693,68.0252189 333.419515,68.0252189" id="Fill-14" fill="#424261"></path>
                <path d="M375.660416,218.172417 L120.328822,218.172417 C117.761788,218.172417 115.680591,216.093511 115.680591,213.529304 L115.680591,55.1496057 C115.680591,52.5870774 117.761788,50.5064925 120.328822,50.5064925 L375.660416,50.5064925 C378.22745,50.5064925 380.308647,52.5870774 380.308647,55.1496057 L380.308647,213.529304 C380.308647,216.093511 378.22745,218.172417 375.660416,218.172417" id="Fill-16" fill="#E3EAFF"></path>
                <path d="M386.24611,206.84406 L130.912834,206.84406 C128.345801,206.84406 126.266285,204.765155 126.266285,202.199268 L126.266285,43.8212491 C126.266285,41.2570415 128.345801,39.1781358 130.912834,39.1781358 L386.24611,39.1781358 C388.811462,39.1781358 390.89434,41.2570415 390.89434,43.8212491 L390.89434,202.199268 C390.89434,204.765155 388.811462,206.84406 386.24611,206.84406" id="Fill-18" fill="#F9FBFC"></path>
                <path d="M78.2787252,153.598551 L49.6883244,153.598551 C48.0828777,153.598551 46.7817093,152.300494 46.7817093,150.696815 L46.7817093,120.62657 C46.7817093,119.02457 48.0828777,117.724834 49.6883244,117.724834 L78.2787252,117.724834 C79.8841719,117.724834 81.1836592,119.02457 81.1836592,120.62657 L81.1836592,150.696815 C81.1836592,152.300494 79.8841719,153.598551 78.2787252,153.598551" id="Fill-20" fill="#424261"></path>
                <path d="M76.2940232,205.710906 L47.7019413,205.710906 C46.0981757,205.710906 44.7970073,204.412849 44.7970073,202.807491 L44.7970073,172.738925 C44.7970073,171.135245 46.0981757,169.837189 47.7019413,169.837189 L76.2940232,169.837189 C77.8994699,169.837189 79.1989572,171.135245 79.1989572,172.738925 L79.1989572,202.807491 C79.1989572,204.412849 77.8994699,205.710906 76.2940232,205.710906" id="Fill-22" fill="#6DB8FF"></path>
                <path d="M76.2940232,256.690106 L47.7019413,256.690106 C46.0981757,256.690106 44.7970073,255.392049 44.7970073,253.786691 L44.7970073,223.718125 C44.7970073,222.114445 46.0981757,220.816389 47.7019413,220.816389 L76.2940232,220.816389 C77.8994699,220.816389 79.1989572,222.114445 79.1989572,223.716445 L79.1989572,253.786691 C79.1989572,255.392049 77.8994699,256.690106 76.2940232,256.690106" id="Fill-24" fill="#6DB8FF"></path>
                <path d="M69.5138265,234.802487 C69.5138265,230.290355 65.8523993,226.632958 61.3369753,226.632958 C56.8198702,226.632958 53.1584429,230.290355 53.1584429,234.802487 C53.1584429,234.802487 52.0068921,243.452279 61.3369753,250.333826 C70.6670584,243.452279 69.5138265,234.802487 69.5138265,234.802487" id="Fill-26" fill="#0072CE"></path>
                <path d="M61.8167601,240.69966 C58.1687816,240.986811 55.1444898,237.967528 55.4336383,234.321887 C55.6589052,231.453736 57.9855422,229.13134 60.8568542,228.906321 C64.5048327,228.617491 67.5274434,231.638453 67.239976,235.280736 C67.013028,238.148887 64.6880722,240.472962 61.8167601,240.69966" id="Fill-28" fill="#F9FBFC"></path>
                <path d="M72.4893666,187.299996 C72.4893666,193.541751 67.4242241,198.599638 61.1755901,198.599638 C54.9286371,198.599638 49.8634947,193.541751 49.8634947,187.299996 C49.8634947,181.058242 54.9286371,176.000355 61.1755901,176.000355 C67.4242241,176.000355 72.4893666,181.058242 72.4893666,187.299996" id="Fill-30" fill="#0072CE"></path>
                <path d="M70.2994027,187.299996 C70.2994027,192.332694 66.2143393,196.41326 61.1760944,196.41326 C56.1378495,196.41326 52.0527861,192.332694 52.0527861,187.299996 C52.0527861,182.267298 56.1378495,178.186732 61.1760944,178.186732 C66.2143393,178.186732 70.2994027,182.267298 70.2994027,187.299996" id="Fill-32" fill="#F9FBFC"></path>
                <path d="M61.1755901,178.187068 C65.3110864,178.187068 68.8027229,180.934313 69.9223329,184.70086 C69.9677225,184.858709 70.1089345,184.966181 70.2720009,184.966181 C70.5140787,184.966181 70.6922749,184.732766 70.6233499,184.502709 C69.416323,180.42886 65.6439434,177.456596 61.1755901,177.456596 C56.7072367,177.456596 52.9365383,180.42886 51.7295113,184.502709 C51.6605863,184.732766 51.8371014,184.966181 52.0791793,184.966181 C52.2422456,184.966181 52.3834577,184.858709 52.4305283,184.70086 C53.5501383,180.934313 57.0417748,178.187068 61.1755901,178.187068" id="Fill-34" fill="#00A3E0"></path>
                <path d="M71.2966289,187.591849 C70.755316,187.591849 70.2862902,187.986472 70.214003,188.525509 C69.6155328,192.978868 65.7977637,196.412925 61.1747495,196.412925 C56.5534164,196.412925 52.7356473,192.978868 52.1371771,188.525509 C52.0648899,187.986472 51.5975452,187.591849 51.0545512,187.591849 C50.3955616,187.591849 49.8794651,188.169509 49.9685632,188.821057 C50.7116076,194.344094 55.443893,198.600981 61.1747495,198.600981 C66.9072871,198.600981 71.6395725,194.344094 72.382617,188.821057 C72.4717151,188.169509 71.9556186,187.591849 71.2966289,187.591849" id="Fill-36" fill="#004976"></path>
                <path d="M70.2994027,187.299996 C70.2994027,192.332694 66.2143393,196.41326 61.1760944,196.41326 C56.1378495,196.41326 52.0527861,192.332694 52.0527861,187.299996 C52.0527861,182.267298 56.1378495,178.186732 61.1760944,178.186732 C66.2143393,178.186732 70.2994027,182.267298 70.2994027,187.299996" id="Fill-38" fill="#F9FBFC"></path>
                <path d="M70.0685882,190.240187 C69.9139274,190.240187 69.7794397,190.339262 69.7239635,190.483677 C68.4312007,193.946281 65.094225,196.413092 61.1755901,196.413092 C57.2586362,196.413092 53.9199795,193.946281 52.6272166,190.483677 C52.5734215,190.339262 52.4372527,190.240187 52.2825919,190.240187 C52.0287464,190.240187 51.8505502,190.493753 51.9379672,190.732206 C53.3332769,194.475243 56.9425902,197.141885 61.1755901,197.141885 C65.410271,197.141885 69.0179032,194.475243 70.4132129,190.732206 C70.502311,190.493753 70.3224337,190.240187 70.0685882,190.240187" id="Fill-40" fill="#0072CE"></path>
                <path d="M61.1517185,188.101836 L61.1517185,188.101836 C60.9096407,188.101836 60.7129524,187.907043 60.7129524,187.663553 L60.7129524,181.248836 C60.7129524,181.007025 60.9096407,180.810553 61.1517185,180.810553 C61.3937963,180.810553 61.5888035,181.007025 61.5888035,181.248836 L61.5888035,187.663553 C61.5888035,187.907043 61.3937963,188.101836 61.1517185,188.101836" id="Fill-42" fill="#0072CE"></path>
                <path d="M60.8358405,187.421238 L60.8358405,187.421238 C60.9921825,187.2382 61.2678822,187.214691 61.4528028,187.37086 L65.4151462,190.714238 C65.6000668,190.870408 65.6236021,191.145804 65.4672602,191.330521 C65.3109183,191.515238 65.0352185,191.538747 64.8502979,191.382577 L60.8879545,188.037521 C60.703034,187.881351 60.6794986,187.605955 60.8358405,187.421238" id="Fill-44" fill="#0072CE"></path>
                <mask id="mask-4" fill="white">
                    <use xlink:href="#path-3"></use>
                </mask>
                <g id="Clip-47"></g>
                <polygon id="Fill-46" fill="#CED6FF" mask="url(#mask-4)" points="60.9212402 179.680925 61.249054 179.680925 61.249054 178.806038 60.9212402 178.806038"></polygon>
                <polygon id="Fill-48" fill="#CED6FF" mask="url(#mask-4)" points="60.9212402 195.648868 61.249054 195.648868 61.249054 194.773981 60.9212402 194.773981"></polygon>
                <polygon id="Fill-49" fill="#CED6FF" mask="url(#mask-4)" points="52.6536098 187.392019 53.5294608 187.392019 53.5294608 187.062887 52.6536098 187.062887"></polygon>
                <polygon id="Fill-50" fill="#CED6FF" mask="url(#mask-4)" points="68.6391523 187.392019 69.5150033 187.392019 69.5150033 187.062887 68.6391523 187.062887"></polygon>
                <polygon id="Fill-51" fill="#CED6FF" mask="url(#mask-4)" points="55.8589557 181.775111 55.6269644 182.006847 55.008321 181.388885 55.2403123 181.157149"></polygon>
                <polygon id="Fill-52" fill="#CED6FF" mask="url(#mask-4)" points="67.1619731 193.065853 66.9299819 193.297589 66.3096574 192.679626 66.5416487 192.447891"></polygon>
                <polygon id="Fill-53" fill="#CED6FF" mask="url(#mask-4)" points="55.6266282 192.447555 55.8586194 192.679291 55.2399761 193.297253 55.0079848 193.065517"></polygon>
                <polygon id="Fill-54" fill="#CED6FF" mask="url(#mask-4)" points="66.9298138 181.156981 67.161805 181.388717 66.5431617 182.006679 66.3094893 181.774943"></polygon>
                <path d="M76.2940232,152.466236 L47.7019413,152.466236 C46.0981757,152.466236 44.7970073,151.1665 44.7970073,149.562821 L44.7970073,119.494255 C44.7970073,117.890575 46.0981757,116.59084 47.7019413,116.59084 L76.2940232,116.59084 C77.8994699,116.59084 79.1989572,117.890575 79.1989572,119.492575 L79.1989572,149.562821 C79.1989572,151.1665 77.8994699,152.466236 76.2940232,152.466236" id="Fill-55" fill="#6DB8FF" mask="url(#mask-4)"></path>
                <polyline id="Fill-56" fill="#F7D3A9" mask="url(#mask-4)" points="43.1439856 148.783819 45.9799946 146.80063 47.2542655 142.12897 45.8371015 141.845177 44.9864669 143.544574 45.8371015 135.472442 44.4199375 135.756234 43.0027735 143.544574 41.2998232 147.225479 42.8598803 148.217913"></polyline>
                <polygon id="Fill-57" fill="#F7D3A9" mask="url(#mask-4)" points="59.9188026 157.185923 60.2970493 153.788809 64.4560809 149.634357 65.4008569 150.955923 63.8878704 152.655319 71.8276872 150.766168 71.8276872 152.465564 64.4560809 155.298451 62.9430945 157.941583"></polygon>
                <polygon id="Fill-58" fill="#544DB8" mask="url(#mask-4)" points="8.16121706 241.209647 23.6239386 316.767289 35.3260483 315.516251 27.3862316 312.594364 30.3096577 311.759779 26.1304529 241.209647"></polygon>
                <path d="M32.817853,239.956762 C32.817853,239.956762 52.4597794,258.324347 49.5346723,280.448404 C46.1909722,297.983083 39.0866602,304.661442 39.0866602,304.661442 L36.9970578,304.243309 L40.2365299,312.802423 L30.8324786,302.782366 C30.8324786,302.782366 42.4303603,286.816102 35.2218204,270.2218 C28.0115994,253.629177 12.3404219,247.681291 12.3404219,247.681291 C12.3404219,247.681291 25.817769,235.469819 26.7591828,235.783838 C27.6989155,236.094498 32.817853,239.956762 32.817853,239.956762" id="Fill-59" fill="#544DB8" mask="url(#mask-4)"></path>
                <path d="M41.1764307,145.926415 C41.1764307,145.926415 8.89266195,185.062906 5.13205006,192.889868 C5.13205006,192.889868 3.56358743,195.707642 3.56358743,203.848623 C3.56358743,211.987925 6.38446663,242.044736 6.38446663,242.044736 L39.2952843,243.922132 C39.2952843,243.922132 28.6388163,207.291075 28.3244513,206.352377 C28.0117675,205.412 22.6843741,199.778132 17.6679834,198.525415 L45.2497265,148.744189 L41.1764307,145.926415 Z" id="Fill-60" fill="#F9423A" mask="url(#mask-4)"></path>
                <path d="M20.733294,194.745098 C20.733294,194.745098 22.1050684,198.808872 22.8632427,201.265608 C22.8632427,201.265608 16.1455828,201.124551 13.7802806,198.004513 L16.2867949,192.00457 L20.733294,194.745098 Z" id="Fill-61" fill="#F7D3A9" mask="url(#mask-4)"></path>
                <path d="M25.8421449,182.044126 C25.8421449,182.044126 27.8292004,193.602372 25.8421449,196.227032 C23.8550894,198.855051 17.0432881,194.389938 14.205598,190.186787 C11.3679078,185.983636 10.7996973,176.527806 15.624443,175.73856 C20.4491887,174.950994 24.7074051,177.840975 25.8421449,182.044126" id="Fill-62" fill="#F7D3A9" mask="url(#mask-4)"></path>
                <path d="M22.7877615,203.438047 C22.7877615,203.438047 48.6699164,187.174557 50.7578378,183.839575 C52.8457591,180.502915 58.689249,155.690387 58.689249,155.690387 L63.6989152,156.943104 C63.6989152,156.943104 60.7771703,184.672481 59.9433466,187.591009 C59.1061608,190.511217 33.6425987,217.615915 27.7974277,217.615915 C21.9522567,217.615915 19.8660165,210.111368 22.7877615,203.438047" id="Fill-63" fill="#F9423A" mask="url(#mask-4)"></path>
                <path d="M11.9083802,176.256943 C11.9083802,176.256943 15.3109186,171.534906 21.3595022,172.668396 C27.4080859,173.801887 28.9193912,172.480321 28.9193912,172.480321 C28.9193912,172.480321 27.5963686,179.08983 23.4390181,180.599472 C19.2799864,182.109113 18.1452466,181.732962 18.1452466,181.732962 C18.1452466,181.732962 20.4147263,183.996585 20.9812556,185.695981 C21.547785,187.397057 19.0900226,183.620434 18.1452466,184.942 C17.2004706,186.263566 18.1452466,189.096453 20.0364796,188.906698 C21.9260316,188.718623 20.7929729,190.228264 20.0364796,191.739585 C19.2799864,193.249226 18.1452466,195.136698 17.0121878,194.570792 C15.877448,194.003208 11.9083802,191.739585 10.3970748,187.017547 C8.88408836,182.298868 8.50584175,177.766585 11.9083802,176.256943" id="Fill-64" fill="#544DB8" mask="url(#mask-4)"></path>
                <path d="M219.730519,190.417347 L144.699839,190.417347 C143.496175,190.417347 142.521139,189.443385 142.521139,188.241045 L142.521139,58.9139698 C142.521139,57.7133094 143.496175,56.7376679 144.699839,56.7376679 L219.730519,56.7376679 C220.934184,56.7376679 221.909219,57.7133094 221.909219,58.9139698 L221.909219,188.241045 C221.909219,189.443385 220.934184,190.417347 219.730519,190.417347" id="Fill-65" fill="#E3EAFF" mask="url(#mask-4)"></path>
                <path d="M205.800789,78.8286434 L157.874421,78.8286434 C156.911153,78.8286434 156.131124,78.0494736 156.131124,77.087266 L156.131124,69.2418321 C156.131124,68.2796245 156.911153,67.5004547 157.87274,67.5004547 L205.800789,67.5004547 C206.764057,67.5004547 207.544085,68.2796245 207.544085,69.2418321 L207.544085,77.087266 C207.544085,78.0494736 206.764057,78.8286434 205.800789,78.8286434" id="Fill-66" fill="#6DB8FF" mask="url(#mask-4)"></path>
                <path d="M173.33294,141.796311 L163.121962,141.796311 C160.723038,141.796311 158.776329,139.853425 158.776329,137.455462 C158.776329,135.0575 160.723038,133.114613 163.121962,133.114613 L173.33294,133.114613 C175.733545,133.114613 177.678573,135.0575 177.678573,137.455462 C177.678573,139.853425 175.733545,141.796311 173.33294,141.796311" id="Fill-67" fill="#0072CE" mask="url(#mask-4)"></path>
                <path d="M202.820205,141.796311 L192.609228,141.796311 C190.210304,141.796311 188.263595,139.853425 188.263595,137.455462 C188.263595,135.0575 190.210304,133.114613 192.609228,133.114613 L202.820205,133.114613 C205.220811,133.114613 207.165839,135.0575 207.165839,137.455462 C207.165839,139.853425 205.220811,141.796311 202.820205,141.796311" id="Fill-68" fill="#F9423A" mask="url(#mask-4)"></path>
                <polygon id="Fill-69" fill="#F9FBFC" mask="url(#mask-4)" points="154.995376 98.8437358 210.190803 98.8437358 210.190803 90.1586792 154.995376 90.1586792"></polygon>
                <polygon id="Fill-70" fill="#F9FBFC" mask="url(#mask-4)" points="154.995376 113.570717 210.190803 113.570717 210.190803 104.88566 154.995376 104.88566"></polygon>
                <polygon id="Fill-71" fill="#CDD4FF" mask="url(#mask-4)" points="166.90426 121.028245 198.660165 121.028245 198.660165 119.045057 166.90426 119.045057"></polygon>
                <path d="M385.507268,165.682904 L286.272167,165.682904 C280.164745,165.682904 275.213918,160.737526 275.213918,154.636828 C275.213918,148.537809 280.164745,143.592432 286.272167,143.592432 L385.507268,143.592432 C391.613009,143.592432 396.563837,148.537809 396.563837,154.636828 C396.563837,160.737526 391.613009,165.682904 385.507268,165.682904" id="Fill-72" fill="#0072CE" mask="url(#mask-4)"></path>
                <path d="M299.597375,72.032234 L237.786835,72.032234 C232.777169,72.032234 228.71396,67.9734981 228.71396,62.9693472 C228.71396,57.963517 232.777169,53.9064604 237.786835,53.9064604 L299.597375,53.9064604 C304.607042,53.9064604 308.66857,57.963517 308.66857,62.9693472 C308.66857,67.9734981 304.607042,72.032234 299.597375,72.032234" id="Fill-73" fill="#E3EAFF" mask="url(#mask-4)"></path>
                <path d="M252.530048,62.9693472 C252.530048,64.5327245 251.26082,65.802234 249.69572,65.802234 C248.130619,65.802234 246.859711,64.5327245 246.859711,62.9693472 C246.859711,61.4042906 248.130619,60.1364604 249.69572,60.1364604 C251.26082,60.1364604 252.530048,61.4042906 252.530048,62.9693472" id="Fill-74" fill="#FFC240" mask="url(#mask-4)"></path>
                <path d="M272.000502,62.9693472 C272.000502,64.5327245 270.729594,65.802234 269.164493,65.802234 C267.599393,65.802234 266.330165,64.5327245 266.330165,62.9693472 C266.330165,61.4042906 267.599393,60.1364604 269.164493,60.1364604 C270.729594,60.1364604 272.000502,61.4042906 272.000502,62.9693472" id="Fill-75" fill="#90C240" mask="url(#mask-4)"></path>
                <path d="M289.957298,62.9693472 C289.957298,64.5327245 288.68639,65.802234 287.121289,65.802234 C285.556189,65.802234 284.286961,64.5327245 284.286961,62.9693472 C284.286961,61.4042906 285.556189,60.1364604 287.121289,60.1364604 C288.68639,60.1364604 289.957298,61.4042906 289.957298,62.9693472" id="Fill-76" fill="#EB4F24" mask="url(#mask-4)"></path>
                <path d="M68.5115571,136.73557 C68.5115571,140.545777 65.4183403,143.633909 61.6039333,143.633909 C57.7895264,143.633909 54.6979907,140.545777 54.6979907,136.73557 C54.6979907,132.925362 57.7895264,129.83723 61.6039333,129.83723 C65.4183403,129.83723 68.5115571,132.925362 68.5115571,136.73557" id="Fill-77" fill="#FFFFFF" mask="url(#mask-4)"></path>
                <path d="M61.7091699,141.824187 C58.9067828,141.824187 56.635622,139.555526 56.635622,136.756225 C56.635622,133.956923 58.9067828,131.688262 61.7091699,131.688262 C64.5115571,131.688262 66.7827179,133.956923 66.7827179,136.756225 C66.7827179,139.555526 64.5115571,141.824187 61.7091699,141.824187 M68.763049,128.403658 L67.5459355,128.403658 L65.7992767,125.943564 C65.6597457,125.748772 65.4361599,125.632904 65.1974443,125.632904 L58.2192145,125.632904 C57.98218,125.632904 57.7569131,125.748772 57.6190632,125.943564 L55.8707233,128.403658 L54.6536098,128.403658 C52.7606956,128.403658 51.2124061,129.951923 51.2124061,131.842753 L51.2124061,141.842658 C51.2124061,143.733489 52.7606956,145.281753 54.6536098,145.281753 L68.763049,145.281753 C70.6559632,145.281753 72.2059338,143.733489 72.2059338,141.842658 L72.2059338,131.842753 C72.2059338,129.951923 70.6559632,128.403658 68.763049,128.403658" id="Fill-78" fill="#0072CE" mask="url(#mask-4)"></path>
                <path d="M65.0622842,136.756896 C65.0622842,138.607425 63.5610654,140.106991 61.7084975,140.106991 C59.8559297,140.106991 58.3547109,138.607425 58.3547109,136.756896 C58.3547109,134.906368 59.8559297,133.406802 61.7084975,133.406802 C63.5610654,133.406802 65.0622842,134.906368 65.0622842,136.756896" id="Fill-79" fill="#6DB8FF" mask="url(#mask-4)"></path>
                <path d="M309.610152,130.502379 L255.652011,130.502379 C253.754054,130.502379 252.21417,128.964191 252.21417,127.068323 L252.21417,94.0207755 C252.21417,92.1249075 253.754054,90.5867189 255.652011,90.5867189 L309.610152,90.5867189 C311.508109,90.5867189 313.047993,92.1249075 313.047993,94.0207755 L313.047993,127.068323 C313.047993,128.964191 311.508109,130.502379 309.610152,130.502379" id="Fill-80" fill="#E3EAFF" mask="url(#mask-4)"></path>
                <path d="M282.689584,110.236743 L282.571907,110.236743 C282.30125,110.236743 282.032275,110.167894 281.795241,110.035234 L258.347313,97.0227623 C257.57569,96.5945547 257.298309,95.6222717 257.725307,94.8514981 C258.153987,94.0807245 259.127341,93.8019698 259.898964,94.2301774 L282.630745,106.844668 L305.362526,94.2301774 C306.134149,93.8019698 307.107504,94.0807245 307.536183,94.8514981 C307.964863,95.6222717 307.687482,96.5945547 306.915859,97.0227623 L283.46625,110.035234 C283.229215,110.167894 282.961921,110.236743 282.689584,110.236743" id="Fill-81" fill="#FD4940" mask="url(#mask-4)"></path>
                <path d="M399.184329,126.410058 L329.866014,126.410058 C328.181556,126.410058 326.816506,125.046511 326.816506,123.363908 L326.816506,32.0297566 C326.816506,30.3471528 328.181556,28.9819264 329.867695,28.9819264 L399.184329,28.9819264 C400.868788,28.9819264 402.233838,30.3471528 402.233838,32.0297566 L402.233838,123.363908 C402.233838,125.046511 400.868788,126.410058 399.184329,126.410058" id="Fill-82" fill="#1F2B52" mask="url(#mask-4)"></path>
                <path d="M343.665459,42.0419208 L338.640663,42.0419208 C338.37505,42.0419208 338.158189,41.6069962 338.158189,41.071317 C338.158189,40.5356377 338.37505,40.1007132 338.640663,40.1007132 L343.665459,40.1007132 C343.932754,40.1007132 344.149615,40.5356377 344.149615,41.071317 C344.149615,41.6069962 343.932754,42.0419208 343.665459,42.0419208" id="Fill-83" fill="#00CCFF" mask="url(#mask-4)"></path>
                <path d="M374.775487,42.0419208 L346.030425,42.0419208 C345.763131,42.0419208 345.54627,41.6069962 345.54627,41.071317 C345.54627,40.5356377 345.763131,40.1007132 346.030425,40.1007132 L374.775487,40.1007132 C375.042781,40.1007132 375.259643,40.5356377 375.259643,41.071317 C375.259643,41.6069962 375.042781,42.0419208 374.775487,42.0419208" id="Fill-84" fill="#00CCFF" mask="url(#mask-4)"></path>
                <path d="M355.201645,46.0539736 L346.031266,46.0539736 C345.763972,46.0539736 345.54711,45.6190491 345.54711,45.0833698 C345.54711,44.5476906 345.763972,44.112766 346.031266,44.112766 L355.201645,44.112766 C355.467258,44.112766 355.68412,44.5476906 355.68412,45.0833698 C355.68412,45.6190491 355.467258,46.0539736 355.201645,46.0539736" id="Fill-85" fill="#FF56A9" mask="url(#mask-4)"></path>
                <path d="M370.282253,46.0539736 L357.067157,46.0539736 C356.799863,46.0539736 356.584683,45.6190491 356.584683,45.0833698 C356.584683,44.5476906 356.799863,44.112766 357.067157,44.112766 L370.282253,44.112766 C370.547867,44.112766 370.764728,44.5476906 370.764728,45.0833698 C370.764728,45.6190491 370.547867,46.0539736 370.282253,46.0539736" id="Fill-86" fill="#E3EAFF" mask="url(#mask-4)"></path>
                <path d="M374.775487,65.5857792 L346.030425,65.5857792 C345.763131,65.5857792 345.54627,65.1508547 345.54627,64.6151755 C345.54627,64.0794962 345.763131,63.6445717 346.030425,63.6445717 L374.775487,63.6445717 C375.042781,63.6445717 375.259643,64.0794962 375.259643,64.6151755 C375.259643,65.1508547 375.042781,65.5857792 374.775487,65.5857792" id="Fill-87" fill="#E3EAFF" mask="url(#mask-4)"></path>
                <path d="M343.665459,69.5978321 L338.640663,69.5978321 C338.37505,69.5978321 338.158189,69.1629075 338.158189,68.6272283 C338.158189,68.0915491 338.37505,67.6566245 338.640663,67.6566245 L343.665459,67.6566245 C343.932754,67.6566245 344.149615,68.0915491 344.149615,68.6272283 C344.149615,69.1629075 343.932754,69.5978321 343.665459,69.5978321" id="Fill-88" fill="#00CCFF" mask="url(#mask-4)"></path>
                <path d="M355.201645,69.5978321 L346.031266,69.5978321 C345.763972,69.5978321 345.54711,69.1629075 345.54711,68.6272283 C345.54711,68.0915491 345.763972,67.6566245 346.031266,67.6566245 L355.201645,67.6566245 C355.467258,67.6566245 355.68412,68.0915491 355.68412,68.6272283 C355.68412,69.1629075 355.467258,69.5978321 355.201645,69.5978321" id="Fill-89" fill="#E3EAFF" mask="url(#mask-4)"></path>
                <path d="M370.282253,69.5978321 L357.067157,69.5978321 C356.799863,69.5978321 356.584683,69.1629075 356.584683,68.6272283 C356.584683,68.0915491 356.799863,67.6566245 357.067157,67.6566245 L370.282253,67.6566245 C370.547867,67.6566245 370.764728,68.0915491 370.764728,68.6272283 C370.764728,69.1629075 370.547867,69.5978321 370.282253,69.5978321" id="Fill-90" fill="#FF56A9" mask="url(#mask-4)"></path>
                <path d="M381.903839,50.0650189 L346.03093,50.0650189 C345.763635,50.0650189 345.546774,49.6300943 345.546774,49.0944151 C345.546774,48.5587358 345.763635,48.1238113 346.03093,48.1238113 L381.903839,48.1238113 C382.171133,48.1238113 382.387994,48.5587358 382.387994,49.0944151 C382.387994,49.6300943 382.171133,50.0650189 381.903839,50.0650189" id="Fill-91" fill="#FF56A9" mask="url(#mask-4)"></path>
                <path d="M374.504662,54.0770717 L365.915943,54.0770717 C365.699081,54.0770717 365.520885,53.9007509 365.520885,53.6841283 L365.520885,52.5288075 C365.520885,52.3121849 365.699081,52.1358642 365.915943,52.1358642 L374.504662,52.1358642 C374.721524,52.1358642 374.896358,52.3121849 374.896358,52.5288075 L374.896358,53.6841283 C374.896358,53.9007509 374.721524,54.0770717 374.504662,54.0770717" id="Fill-92" fill="#00CCFF" mask="url(#mask-4)"></path>
                <path d="M357.94822,54.0770717 L346.03093,54.0770717 C345.763635,54.0770717 345.546774,53.6421472 345.546774,53.1064679 C345.546774,52.5707887 345.763635,52.1358642 346.03093,52.1358642 L357.94822,52.1358642 C358.213833,52.1358642 358.430694,52.5707887 358.430694,53.1064679 C358.430694,53.6421472 358.213833,54.0770717 357.94822,54.0770717" id="Fill-93" fill="#E3EAFF" mask="url(#mask-4)"></path>
                <path d="M364.288305,54.0770717 L359.562744,54.0770717 C359.29545,54.0770717 359.08027,53.6421472 359.08027,53.1064679 C359.08027,52.5707887 359.29545,52.1358642 359.562744,52.1358642 L364.288305,52.1358642 C364.5556,52.1358642 364.772461,52.5707887 364.772461,53.1064679 C364.772461,53.6421472 364.5556,54.0770717 364.288305,54.0770717" id="Fill-94" fill="#00CCFF" mask="url(#mask-4)"></path>
                <path d="M343.665459,57.9554566 L338.640663,57.9554566 C338.37505,57.9554566 338.158189,57.5205321 338.158189,56.9848528 C338.158189,56.4491736 338.37505,56.0142491 338.640663,56.0142491 L343.665459,56.0142491 C343.932754,56.0142491 344.149615,56.4491736 344.149615,56.9848528 C344.149615,57.5205321 343.932754,57.9554566 343.665459,57.9554566" id="Fill-95" fill="#E3EAFF" mask="url(#mask-4)"></path>
                <path d="M381.903839,57.9554566 L346.03093,57.9554566 C345.763635,57.9554566 345.546774,57.5205321 345.546774,56.9848528 C345.546774,56.4491736 345.763635,56.0142491 346.03093,56.0142491 L381.903839,56.0142491 C382.171133,56.0142491 382.387994,56.4491736 382.387994,56.9848528 C382.387994,57.5205321 382.171133,57.9554566 381.903839,57.9554566" id="Fill-96" fill="#E3EAFF" mask="url(#mask-4)"></path>
                <path d="M343.665459,73.3129943 L338.640663,73.3129943 C338.37505,73.3129943 338.158189,72.8780698 338.158189,72.3423906 C338.158189,71.8067113 338.37505,71.3717868 338.640663,71.3717868 L343.665459,71.3717868 C343.932754,71.3717868 344.149615,71.8067113 344.149615,72.3423906 C344.149615,72.8780698 343.932754,73.3129943 343.665459,73.3129943" id="Fill-97" fill="#E3EAFF" mask="url(#mask-4)"></path>
                <path d="M378.03093,73.3129943 L365.984195,73.3129943 C365.73035,73.3129943 365.521894,73.1047679 365.521894,72.8512019 L365.521894,71.8335792 C365.521894,71.578334 365.73035,71.3717868 365.984195,71.3717868 L378.03093,71.3717868 C378.284775,71.3717868 378.49155,71.578334 378.49155,71.8335792 L378.49155,72.8512019 C378.49155,73.1047679 378.284775,73.3129943 378.03093,73.3129943" id="Fill-98" fill="#E3EAFF" mask="url(#mask-4)"></path>
                <path d="M357.94822,73.3129943 L346.03093,73.3129943 C345.763635,73.3129943 345.546774,72.8780698 345.546774,72.3423906 C345.546774,71.8067113 345.763635,71.3717868 346.03093,71.3717868 L357.94822,71.3717868 C358.213833,71.3717868 358.430694,71.8067113 358.430694,72.3423906 C358.430694,72.8780698 358.213833,73.3129943 357.94822,73.3129943" id="Fill-99" fill="#E3EAFF" mask="url(#mask-4)"></path>
                <path d="M364.288305,73.3129943 L359.562744,73.3129943 C359.29545,73.3129943 359.08027,72.8780698 359.08027,72.3423906 C359.08027,71.8067113 359.29545,71.3717868 359.562744,71.3717868 L364.288305,71.3717868 C364.5556,71.3717868 364.772461,71.8067113 364.772461,72.3423906 C364.772461,72.8780698 364.5556,73.3129943 364.288305,73.3129943" id="Fill-100" fill="#E3EAFF" mask="url(#mask-4)"></path>
                <path d="M343.665459,77.1905396 L338.640663,77.1905396 C338.37505,77.1905396 338.158189,76.7572943 338.158189,76.2199358 C338.158189,75.6842566 338.37505,75.2493321 338.640663,75.2493321 L343.665459,75.2493321 C343.932754,75.2493321 344.149615,75.6842566 344.149615,76.2199358 C344.149615,76.7572943 343.932754,77.1905396 343.665459,77.1905396" id="Fill-101" fill="#FFC359" mask="url(#mask-4)"></path>
                <path d="M352.241571,77.1905396 L346.031602,77.1905396 C345.762627,77.1905396 345.547447,76.7572943 345.547447,76.2199358 C345.547447,75.6842566 345.762627,75.2493321 346.031602,75.2493321 L352.241571,75.2493321 C352.508865,75.2493321 352.725727,75.6842566 352.725727,76.2199358 C352.725727,76.7572943 352.508865,77.1905396 352.241571,77.1905396" id="Fill-102" fill="#00CCFF" mask="url(#mask-4)"></path>
                <path d="M338.640159,61.9665019 C338.374546,61.9665019 338.157684,61.5315774 338.157684,60.9958981 C338.157684,60.4602189 338.374546,60.0252943 338.640159,60.0252943 L343.664955,60.0252943 C343.932249,60.0252943 344.149111,60.4602189 344.149111,60.9958981 C344.149111,61.5315774 343.932249,61.9665019 343.664955,61.9665019" id="Fill-103" fill="#00CCFF" mask="url(#mask-4)"></path>
                <path d="M379.685801,61.9665019 L366.013446,61.9665019 C365.741109,61.9665019 365.520885,61.7465208 365.520885,61.4761623 L365.520885,60.5173132 C365.520885,60.2452755 365.74279,60.0252943 366.013446,60.0252943 L379.685801,60.0252943 C379.958138,60.0252943 380.178362,60.2452755 380.178362,60.5173132 L380.178362,61.4761623 C380.178362,61.7465208 379.958138,61.9665019 379.685801,61.9665019" id="Fill-104" fill="#E3EAFF" mask="url(#mask-4)"></path>
                <path d="M357.94822,61.9665019 L346.03093,61.9665019 C345.763635,61.9665019 345.546774,61.5315774 345.546774,60.9958981 C345.546774,60.4602189 345.763635,60.0252943 346.03093,60.0252943 L357.94822,60.0252943 C358.213833,60.0252943 358.430694,60.4602189 358.430694,60.9958981 C358.430694,61.5315774 358.213833,61.9665019 357.94822,61.9665019" id="Fill-105" fill="#FFC359" mask="url(#mask-4)"></path>
                <path d="M364.288305,61.9665019 L359.562744,61.9665019 C359.29545,61.9665019 359.08027,61.5315774 359.08027,60.9958981 C359.08027,60.4602189 359.29545,60.0252943 359.562744,60.0252943 L364.288305,60.0252943 C364.5556,60.0252943 364.772461,60.4602189 364.772461,60.9958981 C364.772461,61.5315774 364.5556,61.9665019 364.288305,61.9665019" id="Fill-106" fill="#FFC359" mask="url(#mask-4)"></path>
                <path d="M374.775487,81.3156057 L346.030425,81.3156057 C345.763131,81.3156057 345.54627,80.8806811 345.54627,80.3450019 C345.54627,79.8093226 345.763131,79.3743981 346.030425,79.3743981 L374.775487,79.3743981 C375.042781,79.3743981 375.259643,79.8093226 375.259643,80.3450019 C375.259643,80.8806811 375.042781,81.3156057 374.775487,81.3156057" id="Fill-107" fill="#E3EAFF" mask="url(#mask-4)"></path>
                <path d="M355.201645,85.3268189 L346.031266,85.3268189 C345.763972,85.3268189 345.54711,84.8918943 345.54711,84.3562151 C345.54711,83.8205358 345.763972,83.3856113 346.031266,83.3856113 L355.201645,83.3856113 C355.467258,83.3856113 355.68412,83.8205358 355.68412,84.3562151 C355.68412,84.8918943 355.467258,85.3268189 355.201645,85.3268189" id="Fill-108" fill="#E3EAFF" mask="url(#mask-4)"></path>
                <path d="M370.282253,85.3268189 L357.067157,85.3268189 C356.799863,85.3268189 356.584683,84.8918943 356.584683,84.3562151 C356.584683,83.8205358 356.799863,83.3856113 357.067157,83.3856113 L370.282253,83.3856113 C370.547867,83.3856113 370.764728,83.8205358 370.764728,84.3562151 C370.764728,84.8918943 370.547867,85.3268189 370.282253,85.3268189" id="Fill-109" fill="#E3EAFF" mask="url(#mask-4)"></path>
                <path d="M374.775487,104.858625 L346.030425,104.858625 C345.763131,104.858625 345.54627,104.4237 345.54627,103.888021 C345.54627,103.352342 345.763131,102.917417 346.030425,102.917417 L374.775487,102.917417 C375.042781,102.917417 375.259643,103.352342 375.259643,103.888021 C375.259643,104.4237 375.042781,104.858625 374.775487,104.858625" id="Fill-110" fill="#E3EAFF" mask="url(#mask-4)"></path>
                <path d="M343.665459,108.870677 L338.640663,108.870677 C338.37505,108.870677 338.158189,108.435753 338.158189,107.900074 C338.158189,107.364394 338.37505,106.92947 338.640663,106.92947 L343.665459,106.92947 C343.932754,106.92947 344.149615,107.364394 344.149615,107.900074 C344.149615,108.435753 343.932754,108.870677 343.665459,108.870677" id="Fill-111" fill="#FF56A9" mask="url(#mask-4)"></path>
                <path d="M355.201645,108.870677 L346.031266,108.870677 C345.763972,108.870677 345.54711,108.435753 345.54711,107.900074 C345.54711,107.364394 345.763972,106.92947 346.031266,106.92947 L355.201645,106.92947 C355.467258,106.92947 355.68412,107.364394 355.68412,107.900074 C355.68412,108.435753 355.467258,108.870677 355.201645,108.870677" id="Fill-112" fill="#00CCFF" mask="url(#mask-4)"></path>
                <path d="M370.282253,108.870677 L357.067157,108.870677 C356.799863,108.870677 356.584683,108.435753 356.584683,107.900074 C356.584683,107.364394 356.799863,106.92947 357.067157,106.92947 L370.282253,106.92947 C370.547867,106.92947 370.764728,107.364394 370.764728,107.900074 C370.764728,108.435753 370.547867,108.870677 370.282253,108.870677" id="Fill-113" fill="#E3EAFF" mask="url(#mask-4)"></path>
                <path d="M343.665459,89.3387038 L338.640663,89.3387038 C338.37505,89.3387038 338.158189,88.9037792 338.158189,88.3681 C338.158189,87.8324208 338.37505,87.3974962 338.640663,87.3974962 L343.665459,87.3974962 C343.932754,87.3974962 344.149615,87.8324208 344.149615,88.3681 C344.149615,88.9037792 343.932754,89.3387038 343.665459,89.3387038" id="Fill-114" fill="#FF56A9" mask="url(#mask-4)"></path>
                <path d="M371.827013,89.3387038 L345.996972,89.3387038 C345.748169,89.3387038 345.546438,89.1371943 345.546438,88.8903453 L345.546438,87.8458547 C345.546438,87.5973264 345.748169,87.3974962 345.996972,87.3974962 L371.827013,87.3974962 C372.074134,87.3974962 372.275865,87.5973264 372.275865,87.8458547 L372.275865,88.8903453 C372.275865,89.1371943 372.074134,89.3387038 371.827013,89.3387038" id="Fill-115" fill="#FF56A9" mask="url(#mask-4)"></path>
                <path d="M343.665459,93.349917 L338.640663,93.349917 C338.37505,93.349917 338.158189,92.9149925 338.158189,92.3793132 C338.158189,91.843634 338.37505,91.4087094 338.640663,91.4087094 L343.665459,91.4087094 C343.932754,91.4087094 344.149615,91.843634 344.149615,92.3793132 C344.149615,92.9149925 343.932754,93.349917 343.665459,93.349917" id="Fill-116" fill="#E3EAFF" mask="url(#mask-4)"></path>
                <path d="M357.94822,93.349917 L346.03093,93.349917 C345.763635,93.349917 345.546774,92.9149925 345.546774,92.3793132 C345.546774,91.843634 345.763635,91.4087094 346.03093,91.4087094 L357.94822,91.4087094 C358.213833,91.4087094 358.430694,91.843634 358.430694,92.3793132 C358.430694,92.9149925 358.213833,93.349917 357.94822,93.349917" id="Fill-117" fill="#E3EAFF" mask="url(#mask-4)"></path>
                <path d="M364.288305,93.349917 L359.562744,93.349917 C359.29545,93.349917 359.08027,92.9149925 359.08027,92.3793132 C359.08027,91.843634 359.29545,91.4087094 359.562744,91.4087094 L364.288305,91.4087094 C364.5556,91.4087094 364.772461,91.843634 364.772461,92.3793132 C364.772461,92.9149925 364.5556,93.349917 364.288305,93.349917" id="Fill-118" fill="#E3EAFF" mask="url(#mask-4)"></path>
                <path d="M343.665459,97.2283019 L338.640663,97.2283019 C338.37505,97.2283019 338.158189,96.7933774 338.158189,96.2576981 C338.158189,95.7220189 338.37505,95.2870943 338.640663,95.2870943 L343.665459,95.2870943 C343.932754,95.2870943 344.149615,95.7220189 344.149615,96.2576981 C344.149615,96.7933774 343.932754,97.2283019 343.665459,97.2283019" id="Fill-119" fill="#E3EAFF" mask="url(#mask-4)"></path>
                <path d="M378.700846,97.2283019 L346.050599,97.2283019 C345.773218,97.2283019 345.54627,97.003283 345.54627,96.7245283 L345.54627,95.7908679 C345.54627,95.5121132 345.773218,95.2870943 346.050599,95.2870943 L378.700846,95.2870943 C378.978227,95.2870943 379.205175,95.5121132 379.205175,95.7908679 L379.205175,96.7245283 C379.205175,97.003283 378.978227,97.2283019 378.700846,97.2283019" id="Fill-120" fill="#E3EAFF" mask="url(#mask-4)"></path>
                <path d="M343.665459,112.58584 L338.640663,112.58584 C338.37505,112.58584 338.158189,112.150915 338.158189,111.615236 C338.158189,111.079557 338.37505,110.644632 338.640663,110.644632 L343.665459,110.644632 C343.932754,110.644632 344.149615,111.079557 344.149615,111.615236 C344.149615,112.150915 343.932754,112.58584 343.665459,112.58584" id="Fill-121" fill="#E3EAFF" mask="url(#mask-4)"></path>
                <path d="M381.866014,112.58584 L366.004873,112.58584 C365.737578,112.58584 365.520717,112.150915 365.520717,111.615236 C365.520717,111.079557 365.737578,110.644632 366.004873,110.644632 L381.866014,110.644632 C382.133308,110.644632 382.35017,111.079557 382.35017,111.615236 C382.35017,112.150915 382.133308,112.58584 381.866014,112.58584" id="Fill-122" fill="#E3EAFF" mask="url(#mask-4)"></path>
                <path d="M357.94822,112.58584 L346.03093,112.58584 C345.763635,112.58584 345.546774,112.150915 345.546774,111.615236 C345.546774,111.079557 345.763635,110.644632 346.03093,110.644632 L357.94822,110.644632 C358.213833,110.644632 358.430694,111.079557 358.430694,111.615236 C358.430694,112.150915 358.213833,112.58584 357.94822,112.58584" id="Fill-123" fill="#E3EAFF" mask="url(#mask-4)"></path>
                <path d="M364.288305,112.58584 L359.562744,112.58584 C359.29545,112.58584 359.08027,112.150915 359.08027,111.615236 C359.08027,111.079557 359.29545,110.644632 359.562744,110.644632 L364.288305,110.644632 C364.5556,110.644632 364.772461,111.079557 364.772461,111.615236 C364.772461,112.150915 364.5556,112.58584 364.288305,112.58584" id="Fill-124" fill="#E3EAFF" mask="url(#mask-4)"></path>
                <path d="M367.371436,116.464225 L345.957634,116.464225 C345.730686,116.464225 345.547447,116.281187 345.547447,116.054489 L345.547447,114.931074 C345.547447,114.706055 345.730686,114.523017 345.957634,114.523017 L367.371436,114.523017 C367.598384,114.523017 367.781623,114.706055 367.781623,114.931074 L367.781623,116.054489 C367.781623,116.281187 367.598384,116.464225 367.371436,116.464225" id="Fill-125" fill="#FFC359" mask="url(#mask-4)"></path>
                <path d="M380.532905,101.239515 L366.028408,101.239515 C365.747665,101.239515 365.520717,101.012817 365.520717,100.734062 L365.520717,99.8037604 C365.520717,99.5250057 365.747665,99.2983075 366.028408,99.2983075 L380.532905,99.2983075 C380.813648,99.2983075 381.040596,99.5250057 381.040596,99.8037604 L381.040596,100.734062 C381.040596,101.012817 380.813648,101.239515 380.532905,101.239515" id="Fill-126" fill="#FF56A9" mask="url(#mask-4)"></path>
                <path d="M357.94822,101.239515 L346.03093,101.239515 C345.763635,101.239515 345.546774,100.804591 345.546774,100.268911 C345.546774,99.7332321 345.763635,99.2983075 346.03093,99.2983075 L357.94822,99.2983075 C358.213833,99.2983075 358.430694,99.7332321 358.430694,100.268911 C358.430694,100.804591 358.213833,101.239515 357.94822,101.239515" id="Fill-127" fill="#FFC359" mask="url(#mask-4)"></path>
                <path d="M364.288305,101.239515 L359.562744,101.239515 C359.29545,101.239515 359.08027,100.804591 359.08027,100.268911 C359.08027,99.7332321 359.29545,99.2983075 359.562744,99.2983075 L364.288305,99.2983075 C364.5556,99.2983075 364.772461,99.7332321 364.772461,100.268911 C364.772461,100.804591 364.5556,101.239515 364.288305,101.239515" id="Fill-128" fill="#FFC359" mask="url(#mask-4)"></path>
                <path d="M412.030593,30.9948377 C412.030593,39.7537811 404.921238,46.8553094 396.154322,46.8553094 C387.385725,46.8553094 380.274688,39.7537811 380.274688,30.9948377 C380.274688,22.2358943 387.385725,15.134366 396.154322,15.134366 C404.921238,15.134366 412.030593,22.2358943 412.030593,30.9948377" id="Fill-129" fill="#00A3E0" mask="url(#mask-4)"></path>
                <polygon id="Fill-130" fill="#F9FBFC" mask="url(#mask-4)" points="395.002939 29.5066906 388.697148 31.8156528 395.002939 34.1044642 395.002939 36.4688415 385.988902 33.0448604 385.988902 30.584766 395.002939 27.1624642"></polygon>
                <polygon id="Fill-131" fill="#F9FBFC" mask="url(#mask-4)" points="397.063122 27.1616245 406.077159 30.5856057 406.077159 33.0440208 397.063122 36.4680019 397.063122 34.1036245 403.368914 31.8148132 397.063122 29.5058509"></polygon>
                <path d="M308.352524,298.423717 C308.352524,307.924887 300.641336,315.627585 291.129695,315.627585 C281.618053,315.627585 273.906865,307.924887 273.906865,298.423717 C273.906865,288.922547 281.618053,281.219849 291.129695,281.219849 C300.641336,281.219849 308.352524,288.922547 308.352524,298.423717" id="Fill-132" fill="#FFC240" mask="url(#mask-4)"></path>
                <path d="M288.818019,298.83043 C288.818019,300.395487 289.456836,301.176336 290.734469,301.176336 C291.401864,301.176336 291.911236,300.942921 292.259223,300.471053 C292.608891,299.999185 292.820709,299.233449 292.894677,298.173845 L293.039252,295.71543 C292.659324,295.633147 292.232325,295.592845 291.758256,295.592845 C290.82861,295.592845 290.109101,295.881675 289.591324,296.461015 C289.075227,297.040355 288.818019,297.827921 288.818019,298.83043 M300.222575,297.440015 C300.222575,298.508015 300.052784,299.485336 299.709841,300.370298 C299.368578,301.25694 298.886104,301.952147 298.262417,302.455921 C297.63873,302.961374 296.914178,303.21326 296.090441,303.21326 C295.540722,303.21326 295.054886,303.082279 294.63125,302.818638 C294.209294,302.556675 293.903335,302.209072 293.718414,301.779185 L293.540218,301.779185 C292.738335,302.734675 291.71791,303.21326 290.477261,303.21326 C289.162644,303.21326 288.127089,302.818638 287.370596,302.027713 C286.612421,301.240147 286.234175,300.158713 286.234175,298.78677 C286.234175,297.220034 286.731779,295.958921 287.726988,295.00343 C288.720516,294.044581 290.020003,293.567675 291.62545,293.567675 C292.262585,293.567675 292.966964,293.628128 293.735225,293.752392 C294.503486,293.873298 295.137259,294.021072 295.634864,294.190675 L295.377656,299.63143 C295.377656,300.662487 295.66008,301.176336 296.223247,301.176336 C296.698998,301.176336 297.077244,300.830411 297.359668,300.136883 C297.642093,299.443355 297.783305,298.536562 297.783305,297.416506 C297.783305,296.222562 297.536184,295.167996 297.038579,294.251128 C296.540975,293.337619 295.839958,292.637374 294.93889,292.153751 C294.036142,291.671808 293.00563,291.431675 291.847354,291.431675 C290.346136,291.431675 289.044967,291.738977 287.938806,292.35526 C286.830964,292.971543 285.98201,293.858185 285.393627,295.018543 C284.801881,296.180581 284.507689,297.520619 284.507689,299.042015 C284.507689,301.089015 285.055726,302.659109 286.15012,303.753977 C287.244513,304.847166 288.833149,305.3946 290.910984,305.3946 C291.699418,305.3946 292.565182,305.307279 293.506596,305.132638 C294.449691,304.957996 295.377656,304.70443 296.290491,304.37026 L296.290491,306.50626 C294.701856,307.182996 292.938386,307.518845 291.001763,307.518845 C288.179203,307.518845 285.980329,306.776619 284.40178,305.293845 C282.824912,303.811072 282.034797,301.748958 282.034797,299.107506 C282.034797,297.275449 282.43826,295.612996 283.243505,294.118468 C284.04875,292.62394 285.196938,291.451826 286.684708,290.603808 C288.172478,289.754109 289.887196,289.32926 291.8255,289.32926 C293.459526,289.32926 294.917036,289.66343 296.203074,290.330091 C297.485751,290.99843 298.477597,291.947204 299.175252,293.178091 C299.872907,294.408977 300.222575,295.829619 300.222575,297.440015" id="Fill-133" fill="#FFFFFF" mask="url(#mask-4)"></path>
                <path d="M204.576951,0.789749057 L96.5261824,0.789749057 C87.750861,0.789749057 80.6364624,7.89463585 80.6364624,16.6619755 C80.6364624,25.4276358 87.750861,32.5342019 96.5261824,32.5342019 L104.471042,32.5342019 L112.15197,40.2049943 L119.831217,32.5342019 L204.576951,32.5342019 C213.352272,32.5342019 220.466671,25.4276358 220.466671,16.6619755 C220.466671,7.89463585 213.352272,0.789749057 204.576951,0.789749057" id="Fill-134" fill="#DAAA00" mask="url(#mask-4)"></path>
                <path d="M173.659577,21.7212057 L102.5593,21.7212057 C101.57754,21.7212057 100.7807,20.9269226 100.7807,19.9462434 C100.7807,18.9655642 101.57754,18.1696019 102.5593,18.1696019 L173.659577,18.1696019 C174.641337,18.1696019 175.436495,18.9655642 175.436495,19.9462434 C175.436495,20.9269226 174.641337,21.7212057 173.659577,21.7212057" id="Fill-135" fill="#FFFFFF" mask="url(#mask-4)"></path>
                <path d="M151.440194,11.9557226 L102.558964,11.9557226 C101.577204,11.9557226 100.782045,11.1614396 100.782045,10.1807604 C100.782045,9.20008113 101.577204,8.40411887 102.558964,8.40411887 L151.440194,8.40411887 C152.421954,8.40411887 153.218794,9.20008113 153.218794,10.1807604 C153.218794,11.1614396 152.421954,11.9557226 151.440194,11.9557226" id="Fill-136" fill="#FFFFFF" mask="url(#mask-4)"></path>
                <path d="M352.26124,201.914636 C352.26124,201.914636 350.938217,205.833994 350.208622,208.203409 C350.208622,208.203409 356.687566,208.065711 358.967132,205.058183 L356.549716,199.271504 L352.26124,201.914636 Z" id="Fill-137" fill="#F7D3A9" mask="url(#mask-4)"></path>
                <polygon id="Fill-138" fill="#F79A74" mask="url(#mask-4)" points="351.287717 309.973398 351.842479 312.440209 355.41817 312.64004 354.663358 309.620757"></polygon>
                <path d="M351.842647,312.439706 C351.842647,312.439706 345.847858,315.558064 345.898291,315.761253 C345.947043,315.962762 356.021852,314.904838 356.021852,314.904838 L355.418338,312.639536 L351.842647,312.439706 Z" id="Fill-139" fill="#544DB8" mask="url(#mask-4)"></path>
                <polygon id="Fill-140" fill="#F79A74" mask="url(#mask-4)" points="381.514665 305.006191 382.920061 307.108606 386.329324 306.010379 384.537276 303.464643"></polygon>
                <path d="M382.920061,307.108438 C382.920061,307.108438 378.451708,312.174721 378.571066,312.342645 C378.690424,312.513928 387.711185,307.906079 387.711185,307.906079 L386.329324,306.010211 L382.920061,307.108438 Z" id="Fill-141" fill="#544DB8" mask="url(#mask-4)"></path>
                <path d="M344.638982,244.809109 C344.638982,244.809109 334.362442,278.321808 350.684204,310.627128 L355.520717,310.627128 C355.520717,310.627128 345.84769,274.095147 357.938133,244.506845 L344.638982,244.809109 Z" id="Fill-142" fill="#FFC240" mask="url(#mask-4)"></path>
                <path d="M353.561568,245.994825 C353.561568,245.994825 355.151885,281.008768 381.392113,305.957315 L385.947883,304.335164 C385.947883,304.335164 364.549212,273.173409 365.986549,241.247598 L353.561568,245.994825 Z" id="Fill-143" fill="#FFC240" mask="url(#mask-4)"></path>
                <path d="M348.854835,167.100691 L348.866603,165.035219 C348.866603,164.94454 348.854835,164.85386 348.8313,164.76654 L348.437923,163.287125 L347.259475,163.589389 L346.05581,162.479408 C345.5498,162.012577 344.732787,162.165389 344.438596,162.790068 C344.067073,163.574275 343.643437,164.58854 343.512312,165.360992 C343.460198,165.666615 343.562745,165.977275 343.772882,166.207332 L345.608638,168.217389 C345.874252,168.50454 346.279396,168.617049 346.65428,168.506219 L348.120196,168.074653 C348.553919,167.94703 348.851473,167.552408 348.854835,167.100691" id="Fill-144" fill="#F79A74" mask="url(#mask-4)"></path>
                <path d="M366.580144,212.421338 C366.580144,212.421338 353.176765,198.072187 352.294189,192.70196 C351.411614,187.331734 349.453137,167.353753 349.453137,167.353753 L345.319322,168.149715 C345.319322,168.149715 343.900477,196.725432 345.154574,200.015074 C346.408672,203.306394 354.467847,220.077017 359.71791,221.625281 C364.966291,223.173545 368.652935,218.003149 366.580144,212.421338" id="Fill-145" fill="#FF4F72" mask="url(#mask-4)"></path>
                <path d="M347.96335,188.752879 C347.96335,188.752879 344.939058,198.799804 346.855507,201.333785 C348.770276,203.866087 355.820793,201.572238 358.557617,197.51854 C361.294441,193.466521 361.842479,184.34654 357.187524,183.587521 C352.535931,182.826823 349.057743,184.70086 347.96335,188.752879" id="Fill-146" fill="#F79A74" mask="url(#mask-4)"></path>
                <path d="M366.097501,247.526464 C366.097501,247.526464 368.817514,218.542691 368.817514,210.692219 C368.817514,210.33454 368.812471,209.997011 368.805747,209.659483 C366.783388,204.556257 361.761954,204.655332 359.751363,205.056672 C357.735729,205.459691 349.878286,207.9752 349.928719,208.277464 L349.906865,208.248917 C347.201981,210.215313 345.12919,212.542747 344.940907,213.108653 C344.940907,213.108653 337.686978,228.203389 344.033115,246.319087 L366.097501,247.526464 Z" id="Fill-147" fill="#FF4F72" mask="url(#mask-4)"></path>
                <path d="M327.683447,168.582289 L327.332098,166.547043 C327.316968,166.456364 327.290071,166.370723 327.251406,166.28676 L326.604184,164.901383 L325.49466,165.405157 L324.117843,164.523553 C323.536183,164.15244 322.757836,164.446308 322.57964,165.112968 C322.351011,165.950911 322.113976,167.02227 322.117303,167.806477 C322.1207,168.117138 322.275361,168.404289 322.524164,168.594043 L324.686053,170.249779 C324.995375,170.486553 325.415649,170.526855 325.765317,170.352213 L327.133729,169.66876 C327.537192,169.467251 327.760778,169.025609 327.683447,168.582289" id="Fill-148" fill="#F79A74" mask="url(#mask-4)"></path>
                <path d="M353.101788,210.089538 C353.101788,210.089538 337.38354,198.31467 335.569637,193.182896 C333.757416,188.049443 328.317389,168.726368 328.317389,168.726368 L324.386986,170.236009 C324.386986,170.236009 328.014791,198.616934 329.827013,201.636217 C331.640916,204.6555 342.52265,219.750236 347.962677,220.353085 C353.404385,220.959292 356.124399,215.222991 353.101788,210.089538" id="Fill-149" fill="#FF4F72" mask="url(#mask-4)"></path>
                <path d="M359.146673,183.520015 C359.146673,183.520015 351.085818,180.099392 347.257962,187.142147 C345.242328,191.571996 351.691012,187.343657 352.89972,188.752543 C354.108428,190.16143 351.287549,192.980883 352.094475,193.986751 C352.89972,194.992619 354.31016,192.174845 355.117086,193.785242 C355.922331,195.395638 353.908378,195.597147 352.496257,197.409053 C351.085818,199.220958 353.706646,201.835543 351.691012,203.44594 C349.675378,205.056336 344.03362,206.265392 347.459693,214.920223 C350.885767,223.575053 341.816254,225.788298 345.645791,237.663921 C349.473646,249.539543 375.468435,256.182638 380.304948,242.092091 C385.13978,228.003223 369.01975,224.580921 370.028408,218.340845 C371.035384,212.102449 374.661509,210.492053 369.826676,204.251977 C364.990163,198.011902 361.967552,194.38977 363.377992,190.36294 C364.788432,186.337789 360.960576,183.520015 359.146673,183.520015" id="Fill-150" fill="#544DB8" mask="url(#mask-4)"></path>
                <path d="M387.769519,152.932058 C386.599476,152.932058 385.651338,151.984964 385.651338,150.816209 C385.651338,149.647455 386.599476,148.70036 387.769519,148.70036 C388.937881,148.70036 389.8877,149.647455 389.8877,150.816209 C389.8877,151.984964 388.937881,152.932058 387.769519,152.932058 M381.127508,161.608719 C378.33857,161.608719 376.03715,159.538209 375.670671,156.851417 L386.584346,156.851417 C386.216186,159.538209 383.916447,161.608719 381.127508,161.608719 M372.367317,150.816209 C372.367317,149.647455 373.315455,148.70036 374.485498,148.70036 C375.65386,148.70036 376.601998,149.647455 376.601998,150.816209 C376.601998,151.984964 375.65386,152.932058 374.485498,152.932058 C373.315455,152.932058 372.367317,151.984964 372.367317,150.816209 M381.127508,134.853304 C371.557029,134.853304 363.800451,142.603021 363.800451,152.162964 C363.800451,161.721228 371.557029,169.470945 381.127508,169.470945 C390.696307,169.470945 398.452885,161.721228 398.452885,152.162964 C398.452885,142.603021 390.696307,134.853304 381.127508,134.853304" id="Fill-151" fill="#FEC800" mask="url(#mask-4)"></path>
                <polygon id="Fill-152" fill="#F9FBFC" mask="url(#mask-4)" points="123.748003 275.263566 122.732621 273.236717 150.200049 259.517283 184.850801 260.084868 222.477094 245.927151 251.21375 245.927151 281.897115 235.712302 282.145917 235.73917 306.75212 238.533434 320.622844 231.329472 321.668486 233.337849 307.185843 240.860868 306.841218 240.822245 282.139193 238.017906 251.396989 248.194132 222.685549 248.194132 185.249221 262.358566 185.034041 262.355208 150.719508 261.79266"></polygon>
                <path d="M224.555433,220.906228 C224.555433,220.906228 251.774059,264.946115 248.371521,295.580587 L266.897199,295.963455 L258.957382,291.36736 L261.225181,290.984492 C261.225181,290.984492 254.421785,243.500474 247.993274,226.650926 C241.262165,209.002058 239.300326,215.546077 239.300326,215.546077 L224.555433,220.906228 Z" id="Fill-153" fill="#544DB8" mask="url(#mask-4)"></path>
                <path d="M214.726568,218.172417 C214.726568,218.172417 216.237874,248.75987 213.970075,260.467568 C211.702276,272.171908 204.8972,295.207794 204.8972,295.207794 L222.288138,295.585625 L217.718919,292.364832 L214.82071,290.677191 C214.82071,290.677191 227.201982,257.446606 228.336722,241.584455 C229.471462,225.725662 231.361014,216.662775 231.361014,216.662775 L214.726568,218.172417 Z" id="Fill-154" fill="#544DB8" mask="url(#mask-4)"></path>
                <polyline id="Fill-155" fill="#F7D3A9" mask="url(#mask-4)" points="250.310329 127.637587 253.146338 125.654398 254.420608 120.981058 253.003444 120.698945 252.15281 122.396662 253.003444 114.326209 251.586281 114.610002 250.167435 122.396662 248.466166 126.079247 250.026223 127.071681"></polyline>
                <polygon id="Fill-156" fill="#F7D3A9" mask="url(#mask-4)" points="267.085314 136.039523 267.46356 132.64073 271.620911 128.486277 272.567368 129.809523 271.054382 131.50724 278.994198 129.619768 278.994198 131.319164 271.620911 134.150372 270.109606 136.795183"></polygon>
                <path d="M248.341933,124.779175 C248.341933,124.779175 216.058164,163.915666 212.297553,171.742628 C212.297553,171.742628 210.72909,174.560402 210.72909,182.699704 C210.72909,190.840685 213.55165,220.897496 213.55165,220.897496 L246.462468,222.774892 C246.462468,222.774892 235.804319,186.143836 235.489954,185.205138 C235.178951,184.26644 229.849877,178.629213 224.835167,177.378175 L252.41691,127.596949 L248.341933,124.779175 Z" id="Fill-157" fill="#6DB8FF" mask="url(#mask-4)"></path>
                <path d="M227.899637,173.597858 C227.899637,173.597858 229.271411,177.661632 230.029586,180.118368 C230.029586,180.118368 223.311926,179.975632 220.946624,176.858953 L223.453138,170.85733 L227.899637,173.597858 Z" id="Fill-158" fill="#F7D3A9" mask="url(#mask-4)"></path>
                <path d="M233.008488,160.896047 C233.008488,160.896047 234.995543,172.454292 233.008488,175.080632 C231.021432,177.708651 224.209631,173.243538 221.371941,169.040387 C218.53257,164.837236 217.96604,155.379726 222.790786,154.59216 C227.615532,153.802915 231.872067,156.692896 233.008488,160.896047" id="Fill-159" fill="#F7D3A9" mask="url(#mask-4)"></path>
                <path d="M229.953432,182.291647 C229.953432,182.291647 255.835587,166.028157 257.925189,162.693175 C260.01143,159.356515 265.85492,134.543987 265.85492,134.543987 L270.866267,135.795025 C270.866267,135.795025 267.944522,163.526081 267.109017,166.444609 C266.273512,169.364817 240.808269,196.469515 234.963098,196.469515 C229.119608,196.469515 227.031687,188.964968 229.953432,182.291647" id="Fill-160" fill="#6DB8FF" mask="url(#mask-4)"></path>
                <path d="M231.171554,158.319077 C231.171554,158.319077 232.494577,153.788474 229.660249,151.521492 C226.82424,149.256191 221.910396,149.634021 221.153903,150.389681 C221.153903,151.709568 224.178195,152.466908 223.421701,153.220889 C222.665208,153.976549 218.69614,153.220889 217.751364,157.185587 C216.806588,161.151964 218.129611,161.905945 218.129611,161.905945 C218.129611,161.905945 216.050095,164.361002 218.507858,167.759794 C220.963939,171.158587 226.516599,173.959568 227.900141,173.59853 C229.282002,173.235813 228.525509,167.94787 228.525509,167.94787 C228.525509,167.94787 225.312934,167.571719 225.122971,165.492813 C224.934688,163.417266 226.635957,163.227511 227.390769,163.983172 C228.147262,164.738832 228.335545,166.438228 228.902075,166.060398 C229.470285,165.682568 228.713792,161.71787 228.713792,161.71787 C228.713792,161.71787 230.793308,160.018474 231.171554,158.319077" id="Fill-161" fill="#544DB8" mask="url(#mask-4)"></path>
                <path d="M153.862485,260.088058 C153.862485,262.071247 152.253676,263.676606 150.271664,263.676606 C148.287971,263.676606 146.679162,262.071247 146.679162,260.088058 C146.679162,258.106549 148.287971,256.501191 150.271664,256.501191 C152.253676,256.501191 153.862485,258.106549 153.862485,260.088058" id="Fill-162" fill="#DAAA00" mask="url(#mask-4)"></path>
                <path d="M285.798939,237.054187 C285.798939,239.035696 284.19013,240.641055 282.206437,240.641055 C280.224424,240.641055 278.615615,239.035696 278.615615,237.054187 C278.615615,235.072677 280.224424,233.46564 282.206437,233.46564 C284.19013,233.46564 285.798939,235.072677 285.798939,237.054187" id="Fill-163" fill="#F9423A" mask="url(#mask-4)"></path>
            </g>
            <g id="Group-167" transform="translate(200.684444, 292.224599)">
                <mask id="mask-6" fill="white">
                    <use xlink:href="#path-5"></use>
                </mask>
                <g id="Clip-166"></g>
                <polygon id="Fill-165" fill="#00BF6F" mask="url(#mask-6)" points="-1.08256184 55.0230602 55.6641367 55.0230602 55.6641367 -1.41236932 -1.08256184 -1.41236932"></polygon>
            </g>
            <g id="Group-170" transform="translate(192.124444, 281.754011)">
                <mask id="mask-8" fill="white">
                    <use xlink:href="#path-7"></use>
                </mask>
                <g id="Clip-169"></g>
                <polygon id="Fill-168" fill="#FFFFFF" mask="url(#mask-8)" points="-0.97836155 74.3120915 73.6259093 74.3120915 73.6259093 -0.641786245 -0.97836155 -0.641786245"></polygon>
            </g>
            <g id="Group-173" transform="translate(214.951111, 316.021390)">
                <mask id="mask-10" fill="white">
                    <use xlink:href="#path-9"></use>
                </mask>
                <g id="Clip-172"></g>
                <polygon id="Fill-171" fill="#FFFFFF" mask="url(#mask-10)" points="-1.04241778 7.50988663 6.87234844 7.50988663 6.87234844 -0.411208556 -1.04241778 -0.411208556"></polygon>
            </g>
            <g id="Group-176" transform="translate(225.413333, 316.021390)">
                <mask id="mask-12" fill="white">
                    <use xlink:href="#path-11"></use>
                </mask>
                <g id="Clip-175"></g>
                <polygon id="Fill-174" fill="#FFFFFF" mask="url(#mask-12)" points="-0.940458667 7.50988663 6.97278578 7.50988663 6.97278578 -0.411208556 -0.940458667 -0.411208556"></polygon>
            </g>
            <g id="Group-179" transform="translate(234.924444, 316.021390)">
                <mask id="mask-14" fill="white">
                    <use xlink:href="#path-13"></use>
                </mask>
                <g id="Clip-178"></g>
                <polygon id="Fill-177" fill="#FFFFFF" mask="url(#mask-14)" points="-0.836977778 7.50988663 7.07778844 7.50988663 7.07778844 -0.411208556 -0.836977778 -0.411208556"></polygon>
            </g>
        </g>
    </g>
</svg>