<svg width="1320" height="245" viewBox="0 0 1320 245" fill="none" xmlns="http://www.w3.org/2000/svg">
<path d="M512.575 180C194.39 180 64.0054 205 3 237V245H1320V41C1184.03 87.3334 830.76 180 512.575 180Z" fill="#0082FF" fill-opacity="0.1"/>
<rect x="953.825" y="53.5874" width="113.161" height="90.1642" rx="7.5" fill="#0082FF" fill-opacity="0.03" stroke="#0082FF"/>
<rect x="941.488" y="64.6753" width="113.161" height="90.1642" rx="7.5" fill="#0082FF" fill-opacity="0.03" stroke="#0082FF"/>
<path d="M993.855 98.6524L991.263 96.0645L984.389 102.926L977.515 96.0645L974.922 98.6524L981.795 105.514L974.922 112.376L977.515 114.964L984.389 108.102L991.263 114.964L993.855 112.376L986.981 105.514L993.855 98.6524Z" stroke="#0082FF"/>
<path d="M952.086 97.9101L951.325 98.6693L949.309 96.6566L947.293 98.6693L946.532 97.9101L948.548 95.8975L946.532 93.8846L947.293 93.1255L949.309 95.1384L951.325 93.1255L952.086 93.8846L950.07 95.8975L952.086 97.9101Z" stroke="#0082FF" stroke-width="0.5"/>
<path d="M1028.05 93.9137C1021.64 93.9137 1016.43 99.1063 1016.43 105.514H1017.43C1017.43 99.6604 1022.19 94.9137 1028.05 94.9137V93.9137ZM1039.67 105.514C1039.67 99.1064 1034.47 93.9137 1028.05 93.9137V94.9137C1033.92 94.9137 1038.67 99.6604 1038.67 105.514H1039.67ZM1028.05 117.115C1034.47 117.115 1039.67 111.923 1039.67 105.514H1038.67C1038.67 111.369 1033.92 116.115 1028.05 116.115V117.115ZM1016.43 105.514C1016.43 111.923 1021.64 117.115 1028.05 117.115V116.115C1022.19 116.115 1017.43 111.369 1017.43 105.514H1016.43ZM1028.05 98.5755C1031.88 98.5755 1035 101.69 1035 105.515H1036C1036 101.136 1032.43 97.5755 1028.05 97.5755V98.5755ZM1021.09 105.515C1021.09 101.69 1024.21 98.5755 1028.05 98.5755V97.5755C1023.66 97.5755 1020.09 101.136 1020.09 105.515H1021.09ZM1028.05 112.456C1024.21 112.456 1021.09 109.341 1021.09 105.515H1020.09C1020.09 109.895 1023.66 113.456 1028.05 113.456V112.456ZM1035 105.515C1035 109.341 1031.88 112.456 1028.05 112.456V113.456C1032.43 113.456 1036 109.895 1036 105.515H1035Z" fill="#0082FF"/>
<path d="M994.054 41.75C992.546 41.75 991.322 42.9705 991.322 44.477H991.822C991.822 43.2475 992.821 42.25 994.054 42.25V41.75ZM996.785 44.477C996.785 42.9705 995.562 41.75 994.054 41.75V42.25C995.287 42.25 996.285 43.2475 996.285 44.477H996.785ZM994.054 47.2044C995.562 47.2044 996.785 45.9839 996.785 44.477H996.285C996.285 45.707 995.287 46.7044 994.054 46.7044V47.2044ZM991.322 44.477C991.322 45.9839 992.546 47.2044 994.054 47.2044V46.7044C992.821 46.7044 991.822 45.7069 991.822 44.477H991.322ZM994.052 43.0669C994.832 43.0669 995.465 43.7001 995.465 44.4771H995.965C995.965 43.4231 995.107 42.5669 994.052 42.5669V43.0669ZM992.639 44.4771C992.639 43.7001 993.273 43.0669 994.052 43.0669V42.5669C992.997 42.5669 992.139 43.4231 992.139 44.4771H992.639ZM994.052 45.8876C993.273 45.8876 992.639 45.2543 992.639 44.4771H992.139C992.139 45.5312 992.997 46.3876 994.052 46.3876V45.8876ZM995.465 44.4771C995.465 45.2543 994.832 45.8876 994.052 45.8876V46.3876C995.107 46.3876 995.965 45.5312 995.965 44.4771H995.465Z" fill="#0082FF"/>
<path d="M1078.6 109.507C1077.09 109.507 1075.87 110.728 1075.87 112.234H1076.37C1076.37 111.005 1077.37 110.007 1078.6 110.007V109.507ZM1081.33 112.234C1081.33 110.728 1080.11 109.507 1078.6 109.507V110.007C1079.84 110.007 1080.83 111.005 1080.83 112.234H1081.33ZM1078.6 114.962C1080.11 114.962 1081.33 113.741 1081.33 112.234H1080.83C1080.83 113.464 1079.84 114.462 1078.6 114.462V114.962ZM1075.87 112.234C1075.87 113.741 1077.09 114.962 1078.6 114.962V114.462C1077.37 114.462 1076.37 113.464 1076.37 112.234H1075.87ZM1078.6 110.824C1079.38 110.824 1080.01 111.457 1080.01 112.234H1080.51C1080.51 111.18 1079.66 110.324 1078.6 110.324V110.824ZM1077.19 112.234C1077.19 111.457 1077.82 110.824 1078.6 110.824V110.324C1077.55 110.324 1076.69 111.18 1076.69 112.234H1077.19ZM1078.6 113.645C1077.82 113.645 1077.19 113.011 1077.19 112.234H1076.69C1076.69 113.288 1077.55 114.145 1078.6 114.145V113.645ZM1080.01 112.234C1080.01 113.011 1079.38 113.645 1078.6 113.645V114.145C1079.66 114.145 1080.51 113.288 1080.51 112.234H1080.01Z" fill="#0082FF"/>
<path d="M1016 100.92L1005.37 89.4301L994.762 100.92L997.359 103.335L1003.59 96.5365V116.29C1003.59 117.268 1004.39 118.061 1005.37 118.061C1006.35 118.061 1007.14 117.268 1007.14 116.29V96.5299L1013.41 103.335L1016 100.92Z" stroke="#0082FF"/>
<path d="M1078.08 67.8308L1078.99 64.4586L1075.61 63.5632L1075.46 64.3448L1077.46 64.8661L1073.77 66.9911C1073.59 67.0963 1073.53 67.3411 1073.65 67.5377C1073.76 67.7347 1074 67.8088 1074.18 67.7036L1077.87 65.5779L1077.33 67.5688L1078.08 67.8308Z" stroke="#0082FF" stroke-width="0.5"/>
<path d="M929.181 52.4922L925.988 61.9958C925.899 62.2416 925.611 62.3849 925.322 62.303C925.056 62.2211 924.901 61.9548 924.99 61.6886L928.183 52.185C928.272 51.9392 928.56 51.7958 928.848 51.8777C929.115 51.9597 929.27 52.2259 929.181 52.4922ZM931.177 54.2741L934.016 56.7319C934.126 56.8139 934.193 56.9572 934.193 57.0801C934.193 57.2235 934.126 57.3464 934.016 57.4488L931.177 59.9066C930.955 60.091 930.623 60.091 930.423 59.8862C930.223 59.6813 930.223 59.3741 930.445 59.1898L932.862 57.0801L930.445 54.991C930.223 54.8067 930.223 54.4994 930.423 54.2946C930.623 54.0898 930.955 54.0898 931.177 54.2741ZM923.726 54.991L921.308 57.0801L923.726 59.1898C923.947 59.3741 923.947 59.6813 923.748 59.8862C923.548 60.091 923.216 60.091 922.994 59.9066L920.155 57.4488C920.044 57.3464 920 57.2235 920 57.0801C920 56.9572 920.044 56.8139 920.155 56.7319L922.994 54.2741C923.216 54.0898 923.548 54.0898 923.748 54.2946C923.947 54.4994 923.947 54.8067 923.726 54.991Z" stroke="#0082FF" stroke-width="0.5"/>
<path d="M989.042 169.528L985.848 179.031C985.76 179.277 985.471 179.42 985.183 179.338C984.917 179.257 984.762 178.99 984.851 178.724L988.044 169.22C988.133 168.975 988.421 168.831 988.709 168.913C988.975 168.995 989.131 169.261 989.042 169.528ZM991.038 171.31L993.876 173.767C993.987 173.849 994.054 173.993 994.054 174.116C994.054 174.259 993.987 174.382 993.876 174.484L991.038 176.942C990.816 177.126 990.483 177.126 990.284 176.922C990.084 176.717 990.084 176.41 990.306 176.225L992.723 174.116L990.306 172.026C990.084 171.842 990.084 171.535 990.284 171.33C990.483 171.125 990.816 171.125 991.038 171.31ZM983.586 172.026L981.169 174.116L983.586 176.225C983.808 176.41 983.808 176.717 983.609 176.922C983.409 177.126 983.076 177.126 982.855 176.942L980.016 174.484C979.905 174.382 979.861 174.259 979.861 174.116C979.861 173.993 979.905 173.849 980.016 173.767L982.855 171.31C983.076 171.125 983.409 171.125 983.609 171.33C983.808 171.535 983.808 171.842 983.586 172.026Z" stroke="#0082FF" stroke-width="0.5"/>
<rect x="-0.5" y="0.5" width="113.161" height="90.1642" rx="7.5" transform="matrix(-1 0 0 1 1261.91 64.1744)" fill="#0082FF" fill-opacity="0.03" stroke="#0082FF"/>
<rect x="-0.5" y="0.5" width="113.161" height="90.1642" rx="7.5" transform="matrix(-1 0 0 1 1274.26 75.2618)" fill="#0082FF" fill-opacity="0.03" stroke="#0082FF"/>
<path d="M1201.21 98.3149L1198.73 95.8481L1201.21 93.3871L1201.73 93.9896L1200.26 95.436L1204.52 95.436C1204.73 95.436 1204.9 95.6202 1204.9 95.8473C1204.9 96.0748 1204.73 96.2588 1204.52 96.2588L1200.26 96.2588L1201.73 97.7124L1201.21 98.3149Z" stroke="#0082FF" stroke-width="0.5"/>
<rect x="1207.87" y="94.504" width="38.4934" height="2.69584" rx="1.34792" stroke="#0082FF"/>
<path d="M1253.04 98.3149L1255.51 95.8481L1253.04 93.3871L1252.52 93.9896L1253.98 95.436L1249.72 95.436C1249.51 95.436 1249.34 95.6202 1249.34 95.8473C1249.34 96.0748 1249.51 96.2588 1249.72 96.2588L1253.98 96.2588L1252.52 97.7124L1253.04 98.3149Z" stroke="#0082FF" stroke-width="0.5"/>
<path d="M1185.46 134.278C1188.3 134.278 1190.59 131.987 1190.59 129.159C1190.59 126.33 1188.3 124.039 1185.46 124.039C1182.63 124.039 1180.34 126.33 1180.34 129.159C1180.34 131.987 1182.63 134.278 1185.46 134.278Z" stroke="#0082FF"/>
<rect x="1177.25" y="135.742" width="16.4271" height="2.84792" rx="1.42396" stroke="#0082FF"/>
<rect x="1177.25" y="140.054" width="16.4271" height="2.84792" rx="1.42396" stroke="#0082FF"/>
<rect x="1172.09" y="119.495" width="26.1517" height="27.3348" rx="1.5" stroke="#0082FF"/>
<path d="M1231.77 123.808C1234.6 123.808 1236.9 121.516 1236.9 118.688C1236.9 115.859 1234.6 113.568 1231.77 113.568C1228.94 113.568 1226.64 115.859 1226.64 118.688C1226.64 121.516 1228.94 123.808 1231.77 123.808Z" stroke="#0082FF"/>
<rect x="1240.22" y="115.415" width="36.7909" height="2.23195" rx="1.11597" stroke="#0082FF"/>
<rect x="1240.22" y="119.728" width="17.6613" height="2.23195" rx="1.11597" stroke="#0082FF"/>
<rect x="1221.46" y="110.256" width="60.0913" height="16.2473" rx="1.5" stroke="#0082FF"/>
<path d="M1183.42 87.5354C1183.42 90.8304 1180.74 93.5031 1177.44 93.5031C1174.14 93.5031 1171.46 90.8304 1171.46 87.5354C1171.46 84.2403 1174.14 81.5677 1177.44 81.5677C1180.74 81.5677 1183.42 84.2403 1183.42 87.5354Z" stroke="#0082FF"/>
<path d="M1146.28 135.484L1145.52 136.243L1143.51 134.23L1141.49 136.243L1140.73 135.484L1142.75 133.471L1140.73 131.458L1141.49 130.699L1143.51 132.712L1145.52 130.699L1146.28 131.458L1144.27 133.471L1146.28 135.484Z" stroke="#0082FF" stroke-width="0.5"/>
<path d="M1228.35 61.5671L1227.59 62.3262L1225.58 60.3136L1223.56 62.3262L1222.8 61.5671L1224.82 59.5545L1222.8 57.5416L1223.56 56.7825L1225.58 58.7954L1227.59 56.7825L1228.35 57.5416L1226.34 59.5545L1228.35 61.5671Z" stroke="#0082FF" stroke-width="0.5"/>
<path d="M1182.09 60.8444C1180.59 60.8444 1179.36 62.0649 1179.36 63.5714H1179.86C1179.86 62.3419 1180.86 61.3444 1182.09 61.3444V60.8444ZM1184.83 63.5714C1184.83 62.0649 1183.6 60.8444 1182.09 60.8444V61.3444C1183.33 61.3444 1184.33 62.3419 1184.33 63.5714H1184.83ZM1182.09 66.2988C1183.6 66.2988 1184.83 65.0783 1184.83 63.5714H1184.33C1184.33 64.8014 1183.33 65.7988 1182.09 65.7988V66.2988ZM1179.36 63.5714C1179.36 65.0783 1180.59 66.2988 1182.09 66.2988V65.7988C1180.86 65.7988 1179.86 64.8013 1179.86 63.5714H1179.36ZM1182.09 62.1613C1182.87 62.1613 1183.51 62.7945 1183.51 63.5715H1184.01C1184.01 62.5175 1183.15 61.6613 1182.09 61.6613V62.1613ZM1180.68 63.5715C1180.68 62.7945 1181.31 62.1613 1182.09 62.1613V61.6613C1181.04 61.6613 1180.18 62.5175 1180.18 63.5715H1180.68ZM1182.09 64.982C1181.31 64.982 1180.68 64.3487 1180.68 63.5715H1180.18C1180.18 64.6256 1181.04 65.482 1182.09 65.482V64.982ZM1183.51 63.5715C1183.51 64.3487 1182.87 64.982 1182.09 64.982V65.482C1183.15 65.482 1184.01 64.6256 1184.01 63.5715H1183.51Z" fill="#0082FF"/>
<path d="M1285.14 75.6269C1283.64 75.6269 1282.41 76.8474 1282.41 78.3539H1282.91C1282.91 77.1245 1283.91 76.1269 1285.14 76.1269V75.6269ZM1287.88 78.3539C1287.88 76.8474 1286.65 75.6269 1285.14 75.6269V76.1269C1286.38 76.1269 1287.38 77.1244 1287.38 78.3539H1287.88ZM1285.14 81.0814C1286.65 81.0814 1287.88 79.8608 1287.88 78.3539H1287.38C1287.38 79.5839 1286.38 80.5814 1285.14 80.5814V81.0814ZM1282.41 78.3539C1282.41 79.8609 1283.64 81.0814 1285.14 81.0814V80.5814C1283.91 80.5814 1282.91 79.5839 1282.91 78.3539H1282.41ZM1285.14 76.9441C1285.92 76.9441 1286.56 77.5773 1286.56 78.3542H1287.06C1287.06 77.3003 1286.2 76.4441 1285.14 76.4441V76.9441ZM1283.73 78.3542C1283.73 77.5773 1284.36 76.9441 1285.14 76.9441V76.4441C1284.09 76.4441 1283.23 77.3003 1283.23 78.3542H1283.73ZM1285.14 79.7648C1284.36 79.7648 1283.73 79.1314 1283.73 78.3542H1283.23C1283.23 79.4084 1284.09 80.2648 1285.14 80.2648V79.7648ZM1286.56 78.3542C1286.56 79.1315 1285.92 79.7648 1285.14 79.7648V80.2648C1286.2 80.2648 1287.06 79.4083 1287.06 78.3542H1286.56Z" fill="#0082FF"/>
<path d="M1284 173.777L1284.91 170.405L1281.54 169.51L1281.39 170.291L1283.38 170.812L1279.69 172.937C1279.51 173.043 1279.45 173.287 1279.57 173.484C1279.68 173.681 1279.92 173.755 1280.1 173.65L1283.79 171.524L1283.25 173.515L1284 173.777Z" stroke="#0082FF" stroke-width="0.5"/>
<path d="M1230.84 139.689C1229.34 139.689 1228.11 140.91 1228.11 142.416H1228.61C1228.61 141.187 1229.61 140.189 1230.84 140.189V139.689ZM1233.58 142.416C1233.58 140.91 1232.35 139.689 1230.84 139.689V140.189C1232.08 140.189 1233.08 141.187 1233.08 142.416H1233.58ZM1230.84 145.144C1232.35 145.144 1233.58 143.923 1233.58 142.416H1233.08C1233.08 143.646 1232.08 144.644 1230.84 144.644V145.144ZM1228.11 142.416C1228.11 143.923 1229.34 145.144 1230.84 145.144V144.644C1229.61 144.644 1228.61 143.646 1228.61 142.416H1228.11ZM1230.84 141.006C1231.62 141.006 1232.26 141.639 1232.26 142.416H1232.76C1232.76 141.362 1231.9 140.506 1230.84 140.506V141.006ZM1229.43 142.416C1229.43 141.639 1230.06 141.006 1230.84 141.006V140.506C1229.79 140.506 1228.93 141.362 1228.93 142.416H1229.43ZM1230.84 143.826C1230.06 143.826 1229.43 143.193 1229.43 142.416H1228.93C1228.93 143.47 1229.79 144.326 1230.84 144.326V143.826ZM1232.26 142.416C1232.26 143.193 1231.62 143.826 1230.84 143.826V144.326C1231.9 144.326 1232.76 143.47 1232.76 142.416H1232.26Z" fill="#0082FF"/>
<path d="M1180.83 86.9957L1180.82 88.0702L1177.98 88.0728L1177.97 90.9218L1176.9 90.9228L1176.9 88.074L1174.05 88.0763L1174.05 87.0017L1176.9 86.9993L1176.9 84.1502L1177.98 84.1492L1177.98 86.9983L1180.83 86.9957Z" stroke="#0082FF" stroke-width="0.5"/>
<path d="M1136.98 66.2509C1137.26 66.2106 1137.44 65.9565 1137.4 65.6833L1136.75 61.2315C1136.71 60.9583 1136.45 60.7695 1136.18 60.8098C1135.91 60.8501 1135.72 61.1042 1135.76 61.3774L1136.34 65.3346L1132.38 65.9183C1132.11 65.9586 1131.92 66.2127 1131.96 66.4859C1132 66.7591 1132.26 66.9479 1132.53 66.9076L1136.98 66.2509ZM1050.99 66.4273C1070.54 48.1323 1107.68 44.6672 1136.61 66.1576L1137.21 65.3549C1107.93 43.6039 1070.24 47.0411 1050.31 65.6973L1050.99 66.4273Z" fill="#0082FF"/>
<path d="M1072.13 152.557C1071.86 152.605 1071.68 152.864 1071.72 153.135L1072.51 157.564C1072.56 157.836 1072.82 158.017 1073.09 157.969C1073.36 157.921 1073.54 157.662 1073.49 157.391L1072.8 153.454L1076.74 152.76C1077.01 152.712 1077.19 152.453 1077.14 152.181C1077.09 151.909 1076.84 151.728 1076.56 151.776L1072.13 152.557ZM1150.29 153.644C1150.08 153.818 1150.04 154.132 1150.22 154.347C1150.39 154.562 1150.71 154.596 1150.92 154.423L1150.29 153.644ZM1147.76 156.754C1147.99 156.6 1148.05 156.289 1147.89 156.06C1147.74 155.832 1147.43 155.772 1147.2 155.926L1147.76 156.754ZM1143.92 157.953C1143.68 158.089 1143.6 158.394 1143.73 158.634C1143.87 158.874 1144.17 158.958 1144.42 158.822L1143.92 157.953ZM1140.93 160.629C1141.18 160.511 1141.29 160.213 1141.17 159.964C1141.05 159.714 1140.75 159.608 1140.5 159.726L1140.93 160.629ZM1136.96 161.252C1136.7 161.353 1136.58 161.642 1136.68 161.899C1136.78 162.156 1137.07 162.283 1137.33 162.183L1136.96 161.252ZM1133.62 163.491C1133.89 163.407 1134.03 163.126 1133.95 162.863C1133.86 162.6 1133.58 162.455 1133.32 162.538L1133.62 163.491ZM1129.61 163.588C1129.34 163.655 1129.18 163.926 1129.24 164.194C1129.31 164.462 1129.58 164.624 1129.85 164.558L1129.61 163.588ZM1126.02 165.392C1126.29 165.341 1126.47 165.08 1126.42 164.809C1126.36 164.538 1126.1 164.359 1125.83 164.409L1126.02 165.392ZM1122.02 165.005C1121.74 165.039 1121.55 165.289 1121.58 165.563C1121.62 165.837 1121.87 166.031 1122.14 165.996L1122.02 165.005ZM1118.24 166.377C1118.51 166.358 1118.72 166.119 1118.7 165.844C1118.68 165.569 1118.44 165.361 1118.17 165.38L1118.24 166.377ZM1114.31 165.538C1114.03 165.541 1113.81 165.768 1113.82 166.044C1113.82 166.32 1114.05 166.541 1114.32 166.537L1114.31 165.538ZM1110.4 166.48C1110.68 166.492 1110.91 166.277 1110.92 166.002C1110.93 165.726 1110.72 165.493 1110.44 165.482L1110.4 166.48ZM1106.59 165.214C1106.31 165.187 1106.07 165.388 1106.04 165.663C1106.02 165.938 1106.22 166.182 1106.49 166.209L1106.59 165.214ZM1102.6 165.725C1102.88 165.767 1103.13 165.579 1103.17 165.306C1103.21 165.033 1103.03 164.779 1102.75 164.737L1102.6 165.725ZM1098.94 164.053C1098.67 163.997 1098.41 164.17 1098.35 164.441C1098.3 164.711 1098.47 164.975 1098.74 165.032L1098.94 164.053ZM1094.93 164.132C1095.2 164.202 1095.47 164.043 1095.54 163.777C1095.61 163.51 1095.45 163.236 1095.18 163.166L1094.93 164.132ZM1091.47 162.076C1091.21 161.991 1090.93 162.135 1090.84 162.397C1090.76 162.66 1090.9 162.941 1091.17 163.026L1091.47 162.076ZM1087.47 161.72C1087.73 161.819 1088.02 161.69 1088.12 161.433C1088.22 161.175 1088.09 160.886 1087.83 160.787L1087.47 161.72ZM1084.26 159.304C1084.01 159.191 1083.71 159.303 1083.6 159.555C1083.49 159.807 1083.6 160.103 1083.85 160.216L1084.26 159.304ZM1080.32 158.517C1080.56 158.643 1080.86 158.547 1080.99 158.302C1081.12 158.056 1081.02 157.755 1080.78 157.629L1080.32 158.517ZM1077.39 155.767C1077.15 155.628 1076.84 155.708 1076.7 155.946C1076.56 156.184 1076.64 156.49 1076.88 156.629L1077.39 155.767ZM1073.55 154.561C1073.78 154.713 1074.1 154.65 1074.25 154.42C1074.4 154.19 1074.34 153.88 1074.11 153.728L1073.55 154.561ZM1151.76 152.407C1151.28 152.829 1150.79 153.241 1150.29 153.644L1150.92 154.423C1151.43 154.01 1151.93 153.588 1152.42 153.157L1151.76 152.407ZM1147.2 155.926C1146.14 156.638 1145.05 157.314 1143.92 157.953L1144.42 158.822C1145.57 158.171 1146.68 157.481 1147.76 156.754L1147.2 155.926ZM1140.5 159.726C1139.35 160.271 1138.17 160.78 1136.96 161.252L1137.33 162.183C1138.55 161.702 1139.76 161.184 1140.93 160.629L1140.5 159.726ZM1133.32 162.538C1132.1 162.924 1130.87 163.274 1129.61 163.588L1129.85 164.558C1131.13 164.239 1132.39 163.883 1133.62 163.491L1133.32 162.538ZM1125.83 164.409C1124.58 164.643 1123.3 164.842 1122.02 165.005L1122.14 165.996C1123.45 165.831 1124.74 165.629 1126.02 165.392L1125.83 164.409ZM1118.17 165.38C1116.89 165.468 1115.61 165.521 1114.31 165.538L1114.32 166.537C1115.64 166.52 1116.94 166.466 1118.24 166.377L1118.17 165.38ZM1110.44 165.482C1109.16 165.428 1107.88 165.339 1106.59 165.214L1106.49 166.209C1107.8 166.335 1109.1 166.425 1110.4 166.48L1110.44 165.482ZM1102.75 164.737C1101.48 164.545 1100.21 164.317 1098.94 164.053L1098.74 165.032C1100.03 165.299 1101.32 165.53 1102.6 165.725L1102.75 164.737ZM1095.18 163.166C1093.94 162.838 1092.71 162.474 1091.47 162.076L1091.17 163.026C1092.42 163.431 1093.67 163.799 1094.93 164.132L1095.18 163.166ZM1087.83 160.787C1086.63 160.328 1085.44 159.833 1084.26 159.304L1083.85 160.216C1085.05 160.753 1086.26 161.254 1087.47 161.72L1087.83 160.787ZM1080.78 157.629C1079.64 157.043 1078.51 156.422 1077.39 155.767L1076.88 156.629C1078.02 157.294 1079.16 157.923 1080.32 158.517L1080.78 157.629ZM1074.11 153.728C1073.57 153.373 1073.03 153.011 1072.5 152.639L1071.93 153.458C1072.47 153.834 1073.01 154.202 1073.55 154.561L1074.11 153.728Z" fill="#0082FF" fill-opacity="0.5"/>
</svg>
