<svg width="228" height="161" viewBox="0 0 228 161" fill="none" xmlns="http://www.w3.org/2000/svg">
<path d="M18.0329 -1H1C0.447715 -1 0 -0.552285 0 0C0 0.552285 0.447715 1 1 1H18.0329C18.5852 1 19.0329 0.552285 19.0329 0C19.0329 -0.552285 18.5852 -1 18.0329 -1Z" fill="#0082FF" fill-opacity="0.3"/>
<path d="M18.0329 8.99994H1C0.447715 8.99994 0 9.44765 0 9.99994C0 10.5522 0.447715 10.9999 1 10.9999H18.0329C18.5852 10.9999 19.0329 10.5522 19.0329 9.99994C19.0329 9.44765 18.5852 8.99994 18.0329 8.99994Z" fill="#0082FF" fill-opacity="0.3"/>
<path d="M18.0329 19.0001H1C0.447715 19.0001 0 19.4478 0 20.0001C0 20.5524 0.447715 21.0001 1 21.0001H18.0329C18.5852 21.0001 19.0329 20.5524 19.0329 20.0001C19.0329 19.4478 18.5852 19.0001 18.0329 19.0001Z" fill="#0082FF" fill-opacity="0.3"/>
<path d="M18.0329 29H1C0.447715 29 0 29.4477 0 30C0 30.5523 0.447715 31 1 31H18.0329C18.5852 31 19.0329 30.5523 19.0329 30C19.0329 29.4477 18.5852 29 18.0329 29Z" fill="#0082FF" fill-opacity="0.3"/>
<path d="M18.0329 38.9999H1C0.447715 38.9999 0 39.4476 0 39.9999C0 40.5522 0.447715 40.9999 1 40.9999H18.0329C18.5852 40.9999 19.0329 40.5522 19.0329 39.9999C19.0329 39.4476 18.5852 38.9999 18.0329 38.9999Z" fill="#0082FF" fill-opacity="0.3"/>
<path d="M18.0329 49.0001H1C0.447715 49.0001 0 49.4478 0 50.0001C0 50.5524 0.447715 51.0001 1 51.0001H18.0329C18.5852 51.0001 19.0329 50.5524 19.0329 50.0001C19.0329 49.4478 18.5852 49.0001 18.0329 49.0001Z" fill="#0082FF" fill-opacity="0.3"/>
<path d="M18.0329 59H1C0.447715 59 0 59.4477 0 60C0 60.5523 0.447715 61 1 61H18.0329C18.5852 61 19.0329 60.5523 19.0329 60C19.0329 59.4477 18.5852 59 18.0329 59Z" fill="#0082FF" fill-opacity="0.3"/>
<path d="M18.0329 69H1C0.447715 69 0 69.4477 0 70C0 70.5523 0.447715 71 1 71H18.0329C18.5852 71 19.0329 70.5523 19.0329 70C19.0329 69.4477 18.5852 69 18.0329 69Z" fill="#0082FF" fill-opacity="0.3"/>
<path d="M18.0329 78.9999H1C0.447715 78.9999 0 79.4476 0 79.9999C0 80.5522 0.447715 80.9999 1 80.9999H18.0329C18.5852 80.9999 19.0329 80.5522 19.0329 79.9999C19.0329 79.4476 18.5852 78.9999 18.0329 78.9999Z" fill="#0082FF" fill-opacity="0.3"/>
<path d="M18.0329 89.0001H1C0.447715 89.0001 0 89.4478 0 90.0001C0 90.5524 0.447715 91.0001 1 91.0001H18.0329C18.5852 91.0001 19.0329 90.5524 19.0329 90.0001C19.0329 89.4478 18.5852 89.0001 18.0329 89.0001Z" fill="#0082FF" fill-opacity="0.3"/>
<path d="M18.0329 99H1C0.447715 99 0 99.4477 0 100C0 100.552 0.447715 101 1 101H18.0329C18.5852 101 19.0329 100.552 19.0329 100C19.0329 99.4477 18.5852 99 18.0329 99Z" fill="#0082FF" fill-opacity="0.3"/>
<path d="M18.0329 109H1C0.447715 109 0 109.448 0 110C0 110.552 0.447715 111 1 111H18.0329C18.5852 111 19.0329 110.552 19.0329 110C19.0329 109.448 18.5852 109 18.0329 109Z" fill="#0082FF" fill-opacity="0.3"/>
<path d="M18.0329 119H1C0.447715 119 0 119.448 0 120C0 120.552 0.447715 121 1 121H18.0329C18.5852 121 19.0329 120.552 19.0329 120C19.0329 119.448 18.5852 119 18.0329 119Z" fill="#0082FF" fill-opacity="0.3"/>
<path d="M18.0329 129H1C0.447715 129 0 129.448 0 130C0 130.552 0.447715 131 1 131H18.0329C18.5852 131 19.0329 130.552 19.0329 130C19.0329 129.448 18.5852 129 18.0329 129Z" fill="#0082FF" fill-opacity="0.3"/>
<path d="M18.0329 139H1C0.447715 139 0 139.448 0 140C0 140.552 0.447715 141 1 141H18.0329C18.5852 141 19.0329 140.552 19.0329 140C19.0329 139.448 18.5852 139 18.0329 139Z" fill="#0082FF" fill-opacity="0.3"/>
<path d="M18.0329 149H1C0.447715 149 0 149.448 0 150C0 150.552 0.447715 151 1 151H18.0329C18.5852 151 19.0329 150.552 19.0329 150C19.0329 149.448 18.5852 149 18.0329 149Z" fill="#0082FF" fill-opacity="0.3"/>
<path d="M18.0329 159H1C0.447715 159 0 159.448 0 160C0 160.552 0.447715 161 1 161H18.0329C18.5852 161 19.0329 160.552 19.0329 160C19.0329 159.448 18.5852 159 18.0329 159Z" fill="#0082FF" fill-opacity="0.3"/>
<path d="M226.635 -1H209.602C209.05 -1 208.602 -0.552285 208.602 0C208.602 0.552285 209.05 1 209.602 1H226.635C227.187 1 227.635 0.552285 227.635 0C227.635 -0.552285 227.187 -1 226.635 -1Z" fill="#0082FF" fill-opacity="0.3"/>
<path d="M226.635 8.99994H209.602C209.05 8.99994 208.602 9.44765 208.602 9.99994C208.602 10.5522 209.05 10.9999 209.602 10.9999H226.635C227.187 10.9999 227.635 10.5522 227.635 9.99994C227.635 9.44765 227.187 8.99994 226.635 8.99994Z" fill="#0082FF" fill-opacity="0.3"/>
<path d="M226.635 19.0001H209.602C209.05 19.0001 208.602 19.4478 208.602 20.0001C208.602 20.5524 209.05 21.0001 209.602 21.0001H226.635C227.187 21.0001 227.635 20.5524 227.635 20.0001C227.635 19.4478 227.187 19.0001 226.635 19.0001Z" fill="#0082FF" fill-opacity="0.3"/>
<path d="M226.635 29H209.602C209.05 29 208.602 29.4477 208.602 30C208.602 30.5523 209.05 31 209.602 31H226.635C227.187 31 227.635 30.5523 227.635 30C227.635 29.4477 227.187 29 226.635 29Z" fill="#0082FF" fill-opacity="0.3"/>
<path d="M226.635 38.9999H209.602C209.05 38.9999 208.602 39.4476 208.602 39.9999C208.602 40.5522 209.05 40.9999 209.602 40.9999H226.635C227.187 40.9999 227.635 40.5522 227.635 39.9999C227.635 39.4476 227.187 38.9999 226.635 38.9999Z" fill="#0082FF" fill-opacity="0.3"/>
<path d="M226.635 49.0001H209.602C209.05 49.0001 208.602 49.4478 208.602 50.0001C208.602 50.5524 209.05 51.0001 209.602 51.0001H226.635C227.187 51.0001 227.635 50.5524 227.635 50.0001C227.635 49.4478 227.187 49.0001 226.635 49.0001Z" fill="#0082FF" fill-opacity="0.3"/>
<path d="M226.635 59H209.602C209.05 59 208.602 59.4477 208.602 60C208.602 60.5523 209.05 61 209.602 61H226.635C227.187 61 227.635 60.5523 227.635 60C227.635 59.4477 227.187 59 226.635 59Z" fill="#0082FF" fill-opacity="0.3"/>
<path d="M226.635 69H209.602C209.05 69 208.602 69.4477 208.602 70C208.602 70.5523 209.05 71 209.602 71H226.635C227.187 71 227.635 70.5523 227.635 70C227.635 69.4477 227.187 69 226.635 69Z" fill="#0082FF" fill-opacity="0.3"/>
<path d="M226.635 78.9999H209.602C209.05 78.9999 208.602 79.4476 208.602 79.9999C208.602 80.5522 209.05 80.9999 209.602 80.9999H226.635C227.187 80.9999 227.635 80.5522 227.635 79.9999C227.635 79.4476 227.187 78.9999 226.635 78.9999Z" fill="#0082FF" fill-opacity="0.3"/>
<path d="M226.635 89.0001H209.602C209.05 89.0001 208.602 89.4478 208.602 90.0001C208.602 90.5524 209.05 91.0001 209.602 91.0001H226.635C227.187 91.0001 227.635 90.5524 227.635 90.0001C227.635 89.4478 227.187 89.0001 226.635 89.0001Z" fill="#0082FF" fill-opacity="0.3"/>
<path d="M226.635 99H209.602C209.05 99 208.602 99.4477 208.602 100C208.602 100.552 209.05 101 209.602 101H226.635C227.187 101 227.635 100.552 227.635 100C227.635 99.4477 227.187 99 226.635 99Z" fill="#0082FF" fill-opacity="0.3"/>
<path d="M226.635 109H209.602C209.05 109 208.602 109.448 208.602 110C208.602 110.552 209.05 111 209.602 111H226.635C227.187 111 227.635 110.552 227.635 110C227.635 109.448 227.187 109 226.635 109Z" fill="#0082FF" fill-opacity="0.3"/>
<path d="M226.635 119H209.602C209.05 119 208.602 119.448 208.602 120C208.602 120.552 209.05 121 209.602 121H226.635C227.187 121 227.635 120.552 227.635 120C227.635 119.448 227.187 119 226.635 119Z" fill="#0082FF" fill-opacity="0.3"/>
<path d="M226.635 129H209.602C209.05 129 208.602 129.448 208.602 130C208.602 130.552 209.05 131 209.602 131H226.635C227.187 131 227.635 130.552 227.635 130C227.635 129.448 227.187 129 226.635 129Z" fill="#0082FF" fill-opacity="0.3"/>
<path d="M226.635 139H209.602C209.05 139 208.602 139.448 208.602 140C208.602 140.552 209.05 141 209.602 141H226.635C227.187 141 227.635 140.552 227.635 140C227.635 139.448 227.187 139 226.635 139Z" fill="#0082FF" fill-opacity="0.3"/>
<path d="M226.635 149H209.602C209.05 149 208.602 149.448 208.602 150C208.602 150.552 209.05 151 209.602 151H226.635C227.187 151 227.635 150.552 227.635 150C227.635 149.448 227.187 149 226.635 149Z" fill="#0082FF" fill-opacity="0.3"/>
<path d="M226.635 159H209.602C209.05 159 208.602 159.448 208.602 160C208.602 160.552 209.05 161 209.602 161H226.635C227.187 161 227.635 160.552 227.635 160C227.635 159.448 227.187 159 226.635 159Z" fill="#0082FF" fill-opacity="0.3"/>
<path d="M87.5315 45.2535H44.292C40.1499 45.2535 36.792 48.6114 36.792 52.7535V84.0598C36.792 88.2019 40.1499 91.5598 44.292 91.5598H87.5315C91.6736 91.5598 95.0315 88.2019 95.0315 84.0598V52.7535C95.0315 48.6114 91.6736 45.2535 87.5315 45.2535Z" fill="#0082FF" fill-opacity="0.03" stroke="#0082FF"/>
<path d="M81.1315 51.007H37.892C33.7499 51.007 30.392 54.3649 30.392 58.507V89.8133C30.392 93.9554 33.7499 97.3133 37.892 97.3133H81.1315C85.2736 97.3133 88.6315 93.9554 88.6315 89.8133V58.507C88.6315 54.3649 85.2736 51.007 81.1315 51.007Z" fill="#0082FF" fill-opacity="0.03" stroke="#0082FF"/>
<path d="M57.325 68.3976L55.98 67.0547L52.413 70.6152L48.846 67.0547L47.501 68.3976L51.067 71.9581L47.501 75.5191L48.846 76.862L52.413 73.301L55.98 76.862L57.325 75.5191L53.759 71.9581L57.325 68.3976Z" stroke="#0082FF"/>
<path d="M35.651 68.0126L35.256 68.4065L34.21 67.3621L33.164 68.4065L32.769 68.0126L33.815 66.9682L32.769 65.9237L33.164 65.5298L34.21 66.5743L35.256 65.5298L35.651 65.9237L34.605 66.9682L35.651 68.0126Z" stroke="#0082FF" stroke-width="0.5"/>
<path d="M75.07 65.6984C71.608 65.6984 68.799 68.5001 68.799 71.9583H69.799C69.799 69.0542 72.158 66.6984 75.07 66.6984V65.6984ZM81.34 71.9583C81.34 68.5002 78.532 65.6984 75.07 65.6984V66.6984C77.981 66.6984 80.34 69.0542 80.34 71.9583H81.34ZM75.07 78.2191C78.532 78.2191 81.34 75.4172 81.34 71.9583H80.34C80.34 74.8634 77.981 77.2191 75.07 77.2191V78.2191ZM68.799 71.9583C68.799 75.4173 71.607 78.2191 75.07 78.2191V77.2191C72.158 77.2191 69.799 74.8633 69.799 71.9583H68.799ZM75.066 68.5986C76.924 68.5986 78.434 70.1072 78.434 71.959H79.434C79.434 69.5533 77.474 67.5986 75.066 67.5986V68.5986ZM71.699 71.959C71.699 70.1073 73.209 68.5986 75.066 68.5986V67.5986C72.658 67.5986 70.699 69.5532 70.699 71.959H71.699ZM75.066 75.3204C73.209 75.3204 71.699 73.8113 71.699 71.959H70.699C70.699 74.3651 72.658 76.3204 75.066 76.3204V75.3204ZM78.434 71.959C78.434 73.8113 76.924 75.3204 75.066 75.3204V76.3204C77.474 76.3204 79.434 74.3651 79.434 71.959H78.434Z" fill="#0082FF"/>
<path d="M57.428 38.75C56.58 38.75 55.891 39.437 55.891 40.2854H56.391C56.391 39.714 56.855 39.25 57.428 39.25V38.75ZM58.966 40.2854C58.966 39.437 58.277 38.75 57.428 38.75V39.25C58.002 39.25 58.466 39.714 58.466 40.2854H58.966ZM57.428 41.8209C58.277 41.8209 58.966 41.1339 58.966 40.2854H58.466C58.466 40.857 58.002 41.3209 57.428 41.3209V41.8209ZM55.891 40.2854C55.891 41.1339 56.58 41.8209 57.428 41.8209V41.3209C56.855 41.3209 56.391 40.857 56.391 40.2854H55.891ZM57.427 39.6739C57.766 39.6739 58.04 39.9488 58.04 40.2853H58.54C58.54 39.6718 58.041 39.1739 57.427 39.1739V39.6739ZM56.814 40.2853C56.814 39.9488 57.089 39.6739 57.427 39.6739V39.1739C56.814 39.1739 56.314 39.6718 56.314 40.2853H56.814ZM57.427 40.897C57.089 40.897 56.814 40.622 56.814 40.2853H56.314C56.314 40.8989 56.814 41.397 57.427 41.397V40.897ZM58.04 40.2853C58.04 40.622 57.766 40.897 57.427 40.897V41.397C58.041 41.397 58.54 40.8989 58.54 40.2853H58.04Z" fill="#0082FF"/>
<path d="M101.302 73.9101C100.454 73.9101 99.765 74.5971 99.765 75.4454H100.265C100.265 74.8741 100.729 74.4101 101.302 74.4101V73.9101ZM102.84 75.4454C102.84 74.5971 102.151 73.9101 101.302 73.9101V74.4101C101.876 74.4101 102.34 74.8741 102.34 75.4454H102.84ZM101.302 76.981C102.151 76.981 102.84 76.294 102.84 75.4454H102.34C102.34 76.0171 101.876 76.481 101.302 76.481V76.981ZM99.765 75.4454C99.765 76.294 100.454 76.981 101.302 76.981V76.481C100.729 76.481 100.265 76.017 100.265 75.4454H99.765ZM101.301 74.834C101.64 74.834 101.914 75.1089 101.914 75.4454H102.414C102.414 74.8319 101.915 74.334 101.301 74.334V74.834ZM100.688 75.4454C100.688 75.1089 100.963 74.834 101.301 74.834V74.334C100.688 74.334 100.188 74.8319 100.188 75.4454H100.688ZM101.301 76.0571C100.963 76.0571 100.688 75.7821 100.688 75.4454H100.188C100.188 76.059 100.688 76.5571 101.301 76.5571V76.0571ZM101.914 75.4454C101.914 75.7821 101.639 76.0571 101.301 76.0571V76.5571C101.915 76.5571 102.414 76.059 102.414 75.4454H101.914Z" fill="#0082FF"/>
<path d="M68.818 69.5744L63.3 63.6122L57.795 69.5744L59.143 70.8275L62.378 67.2999V77.5504C62.378 78.0579 62.79 78.4692 63.298 78.4692C63.807 78.4692 64.219 78.0579 64.219 77.5504V67.2964L67.47 70.8275L68.818 69.5744Z" stroke="#0082FF"/>
<path d="M101.032 52.404L101.503 50.6541L99.751 50.1895L99.674 50.595L100.708 50.8655L98.795 51.9682C98.7 52.0228 98.671 52.1498 98.73 52.2519C98.789 52.3541 98.914 52.3925 99.009 52.3379L100.923 51.2349L100.641 52.268L101.032 52.404Z" stroke="#0082FF" stroke-width="0.5"/>
<path d="M23.764 44.4444L22.107 49.376C22.061 49.5035 21.911 49.5779 21.762 49.5354C21.624 49.4929 21.543 49.3547 21.589 49.2166L23.246 44.285C23.292 44.1575 23.442 44.0831 23.592 44.1256C23.73 44.1681 23.81 44.3063 23.764 44.4444ZM24.8 45.3691L26.273 46.6445C26.33 46.687 26.365 46.7614 26.365 46.8252C26.365 46.8996 26.33 46.9634 26.273 47.0165L24.8 48.2919C24.685 48.3876 24.512 48.3876 24.409 48.2813C24.305 48.175 24.305 48.0156 24.42 47.9199L25.674 46.8252L24.42 45.7411C24.305 45.6454 24.305 45.486 24.409 45.3797C24.512 45.2735 24.685 45.2735 24.8 45.3691ZM20.933 45.7411L19.679 46.8252L20.933 47.9199C21.048 48.0156 21.048 48.175 20.945 48.2813C20.841 48.3876 20.669 48.3876 20.554 48.2919L19.081 47.0165C19.023 46.9634 19 46.8996 19 46.8252C19 46.7614 19.023 46.687 19.081 46.6445L20.554 45.3691C20.669 45.2735 20.841 45.2735 20.945 45.3797C21.048 45.486 21.048 45.6454 20.933 45.7411Z" stroke="#0082FF" stroke-width="0.5"/>
<path d="M54.827 105.176L53.17 110.107C53.124 110.235 52.974 110.309 52.825 110.267C52.687 110.224 52.606 110.086 52.652 109.948L54.309 105.016C54.355 104.889 54.505 104.815 54.655 104.857C54.793 104.9 54.873 105.038 54.827 105.176ZM55.863 106.101L57.336 107.376C57.393 107.418 57.428 107.493 57.428 107.557C57.428 107.631 57.393 107.695 57.336 107.748L55.863 109.023C55.748 109.119 55.575 109.119 55.472 109.013C55.368 108.906 55.368 108.747 55.483 108.651L56.737 107.557L55.483 106.473C55.368 106.377 55.368 106.217 55.472 106.111C55.575 106.005 55.748 106.005 55.863 106.101ZM51.996 106.473L50.742 107.557L51.996 108.651C52.111 108.747 52.111 108.906 52.008 109.013C51.904 109.119 51.732 109.119 51.617 109.023L50.144 107.748C50.086 107.695 50.063 107.631 50.063 107.557C50.063 107.493 50.086 107.418 50.144 107.376L51.617 106.101C51.732 106.005 51.904 106.005 52.008 106.111C52.111 106.217 52.111 106.377 51.996 106.473Z" stroke="#0082FF" stroke-width="0.5"/>
<path d="M145.703 51.0068H188.943C193.085 51.0068 196.443 54.3647 196.443 58.5068V89.8131C196.443 93.9552 193.085 97.3131 188.943 97.3131H145.703C141.561 97.3131 138.203 93.9552 138.203 89.8131V58.5068C138.203 54.3647 141.561 51.0068 145.703 51.0068Z" fill="#0082FF" fill-opacity="0.03" stroke="#0082FF"/>
<path d="M152.11 56.7604H195.349C199.491 56.7604 202.849 60.1183 202.849 64.2604V95.5667C202.849 99.7088 199.491 103.067 195.349 103.067H152.11C147.967 103.067 144.61 99.7088 144.61 95.5667V64.2604C144.61 60.1183 147.967 56.7604 152.11 56.7604Z" fill="#0082FF" fill-opacity="0.03" stroke="#0082FF"/>
<path d="M164.922 68.2228L163.637 66.9428L164.922 65.6657L165.192 65.9784L164.432 66.7289H166.641C166.751 66.7289 166.839 66.8245 166.839 66.9423C166.839 67.0604 166.751 67.1558 166.641 67.1558H164.431L165.192 67.9102L164.922 68.2228Z" stroke="#0082FF" stroke-width="0.5"/>
<path d="M187.656 66.4652H169.08C168.816 66.4652 168.601 66.6799 168.601 66.9447C168.601 67.2095 168.816 67.4241 169.08 67.4241H187.656C187.921 67.4241 188.136 67.2095 188.136 66.9447C188.136 66.6799 187.921 66.4652 187.656 66.4652Z" stroke="#0082FF" stroke-width="0.958912"/>
<path d="M191.817 68.2227L193.102 66.9427L191.817 65.6656L191.546 65.9782L192.307 66.7288H190.097C189.988 66.7288 189.899 66.8244 189.899 66.9422C189.899 67.0603 189.988 67.1557 190.097 67.1557H192.308L191.546 67.91L191.817 68.2227Z" stroke="#0082FF" stroke-width="0.5"/>
<path d="M156.752 87.1252C158.353 87.1252 159.653 85.8289 159.653 84.228C159.653 82.627 158.353 81.3307 156.752 81.3307C155.15 81.3307 153.85 82.627 153.85 84.228C153.85 85.8289 155.15 87.1252 156.752 87.1252Z" stroke="#0082FF"/>
<path d="M160.277 87.4035H153.23C152.69 87.4035 152.251 87.842 152.251 88.383C152.251 88.9239 152.69 89.3624 153.23 89.3624H160.277C160.818 89.3624 161.256 88.9239 161.256 88.383C161.256 87.842 160.818 87.4035 160.277 87.4035Z" stroke="#0082FF"/>
<path d="M160.277 89.6412H153.23C152.69 89.6412 152.251 90.0797 152.251 90.6207C152.251 91.1616 152.69 91.6001 153.23 91.6001H160.277C160.818 91.6001 161.256 91.1616 161.256 90.6207C161.256 90.0797 160.818 89.6412 160.277 89.6412Z" stroke="#0082FF"/>
<path d="M161.643 79.4541H151.554C150.726 79.4541 150.054 80.1257 150.054 80.9541V91.6574C150.054 92.4858 150.726 93.1574 151.554 93.1574H161.643C162.472 93.1574 163.143 92.4858 163.143 91.6574V80.9541C163.143 80.1257 162.472 79.4541 161.643 79.4541Z" stroke="#0082FF"/>
<path d="M180.78 81.6918C182.382 81.6918 183.682 80.3955 183.682 78.7945C183.682 77.1935 182.382 75.8972 180.78 75.8972C179.178 75.8972 177.878 77.1935 177.878 78.7945C177.878 80.3955 179.178 81.6918 180.78 81.6918Z" stroke="#0082FF"/>
<path d="M203.682 76.8558H185.749C185.296 76.8558 184.929 77.2228 184.929 77.6754C184.929 78.1281 185.296 78.4951 185.749 78.4951H203.682C204.134 78.4951 204.501 78.1281 204.501 77.6754C204.501 77.2228 204.134 76.8558 203.682 76.8558Z" stroke="#0082FF"/>
<path d="M193.755 79.0939H185.749C185.296 79.0939 184.929 79.4609 184.929 79.9135C184.929 80.3662 185.296 80.7332 185.749 80.7332H193.755C194.208 80.7332 194.575 80.3662 194.575 79.9135C194.575 79.4609 194.208 79.0939 193.755 79.0939Z" stroke="#0082FF"/>
<path d="M204.871 74.6597H177.17C176.342 74.6597 175.67 75.3313 175.67 76.1597V81.1096C175.67 81.938 176.342 82.6096 177.17 82.6096H204.871C205.7 82.6096 206.371 81.938 206.371 81.1096V76.1597C206.371 75.3313 205.7 74.6597 204.871 74.6597Z" stroke="#0082FF"/>
<path d="M155.451 62.629C155.451 64.2056 154.17 65.4852 152.588 65.4852C151.007 65.4852 149.726 64.2056 149.726 62.629C149.726 61.0524 151.007 59.7728 152.588 59.7728C154.17 59.7728 155.451 61.0524 155.451 62.629Z" stroke="#0082FF"/>
<path d="M136.421 87.5102L136.027 87.9041L134.981 86.8597L133.934 87.9041L133.54 87.5102L134.586 86.4658L133.54 85.4213L133.934 85.0274L134.981 86.0719L136.027 85.0274L136.421 85.4213L135.375 86.4658L136.421 87.5102Z" stroke="#0082FF" stroke-width="0.5"/>
<path d="M179.009 49.1537L178.615 49.5476L177.568 48.5032L176.522 49.5476L176.127 49.1537L177.174 48.1093L176.127 47.0648L176.522 46.6709L177.568 47.7154L178.615 46.6709L179.009 47.0648L177.963 48.1093L179.009 49.1537Z" stroke="#0082FF" stroke-width="0.5"/>
<path d="M155.003 48.6587C154.154 48.6587 153.465 49.3456 153.465 50.194H153.965C153.965 49.6227 154.43 49.1587 155.003 49.1587V48.6587ZM156.541 50.194C156.541 49.3457 155.852 48.6587 155.003 48.6587V49.1587C155.577 49.1587 156.041 49.6227 156.041 50.194H156.541ZM155.003 51.7296C155.852 51.7296 156.541 51.0426 156.541 50.194H156.041C156.041 50.7657 155.577 51.2296 155.003 51.2296V51.7296ZM153.465 50.194C153.465 51.0426 154.154 51.7296 155.003 51.7296V51.2296C154.43 51.2296 153.965 50.7656 153.965 50.194H153.465ZM155.002 49.5826C155.34 49.5826 155.615 49.8575 155.615 50.194H156.115C156.115 49.5805 155.616 49.0826 155.002 49.0826V49.5826ZM154.389 50.194C154.389 49.8575 154.664 49.5826 155.002 49.5826V49.0826C154.388 49.0826 153.889 49.5805 153.889 50.194H154.389ZM155.002 50.8057C154.664 50.8057 154.389 50.5307 154.389 50.194H153.889C153.889 50.8076 154.388 51.3057 155.002 51.3057V50.8057ZM155.615 50.194C155.615 50.5307 155.34 50.8057 155.002 50.8057V51.3057C155.616 51.3057 156.115 50.8076 156.115 50.194H155.615Z" fill="#0082FF"/>
<path d="M208.479 56.3293C207.63 56.3293 206.941 57.0162 206.941 57.8646H207.441C207.441 57.2933 207.906 56.8293 208.479 56.8293V56.3293ZM210.017 57.8646C210.017 57.0163 209.328 56.3293 208.479 56.3293V56.8293C209.053 56.8293 209.517 57.2933 209.517 57.8646H210.017ZM208.479 59.4002C209.328 59.4002 210.017 58.7132 210.017 57.8646H209.517C209.517 58.4363 209.053 58.9002 208.479 58.9002V59.4002ZM206.941 57.8646C206.941 58.7132 207.63 59.4002 208.479 59.4002V58.9002C207.906 58.9002 207.441 58.4362 207.441 57.8646H206.941ZM208.478 57.2533C208.816 57.2533 209.091 57.5282 209.091 57.8648H209.591C209.591 57.2513 209.092 56.7533 208.478 56.7533V57.2533ZM207.865 57.8648C207.865 57.5283 208.14 57.2533 208.478 57.2533V56.7533C207.864 56.7533 207.365 57.2512 207.365 57.8648H207.865ZM208.478 58.4765C208.14 58.4765 207.865 58.2015 207.865 57.8648H207.365C207.365 58.4784 207.864 58.9765 208.478 58.9765V58.4765ZM209.091 57.8648C209.091 58.2015 208.816 58.4765 208.478 58.4765V58.9765C209.092 58.9765 209.591 58.4784 209.591 57.8648H209.091Z" fill="#0082FF"/>
<path d="M207.885 107.381L208.357 105.631L206.604 105.167L206.527 105.572L207.562 105.843L205.648 106.945C205.553 107 205.525 107.127 205.584 107.229C205.643 107.331 205.767 107.37 205.862 107.315L207.776 106.212L207.495 107.245L207.885 107.381Z" stroke="#0082FF" stroke-width="0.5"/>
<path d="M180.3 89.5721C179.452 89.5721 178.763 90.2591 178.763 91.1075H179.263C179.263 90.5361 179.727 90.0721 180.3 90.0721V89.5721ZM181.838 91.1075C181.838 90.2591 181.149 89.5721 180.3 89.5721V90.0721C180.874 90.0721 181.338 90.5361 181.338 91.1075H181.838ZM180.3 92.6431C181.149 92.6431 181.838 91.9561 181.838 91.1075H181.338C181.338 91.6791 180.874 92.1431 180.3 92.1431V92.6431ZM178.763 91.1075C178.763 91.9561 179.452 92.6431 180.3 92.6431V92.1431C179.727 92.1431 179.263 91.6791 179.263 91.1075H178.763ZM180.299 90.4958C180.638 90.4958 180.912 90.7708 180.912 91.1073H181.412C181.412 90.4938 180.913 89.9958 180.299 89.9958V90.4958ZM179.686 91.1073C179.686 90.7708 179.961 90.4958 180.299 90.4958V89.9958C179.686 89.9958 179.186 90.4937 179.186 91.1073H179.686ZM180.299 91.719C179.961 91.719 179.686 91.444 179.686 91.1073H179.186C179.186 91.7209 179.686 92.219 180.299 92.219V91.719ZM180.912 91.1073C180.912 91.444 180.638 91.719 180.299 91.719V92.219C180.913 92.219 181.412 91.7209 181.412 91.1073H180.912Z" fill="#0082FF"/>
<path d="M154.345 62.3491V62.9067L152.866 62.9081L152.865 64.3864L152.307 64.3869L152.309 62.9087L150.83 62.9098L150.831 62.3523L152.309 62.351L152.311 60.8725L152.868 60.872L152.867 62.3505L154.345 62.3491Z" stroke="#0082FF" stroke-width="0.5"/>
<path d="M131.63 51.8222C131.903 51.7819 132.092 51.5278 132.052 51.2546L131.395 46.8028C131.355 46.5296 131.1 46.3408 130.827 46.3811C130.554 46.4214 130.365 46.6755 130.406 46.9487L130.989 50.9059L127.032 51.4896C126.759 51.5299 126.57 51.7841 126.61 52.0572C126.651 52.3304 126.905 52.5192 127.178 52.4789L131.63 51.8222ZM87.138 51.8514C97.188 42.4447 116.332 40.6399 131.259 51.7289L131.855 50.9262C116.578 39.5766 96.89 41.3535 86.455 51.1213L87.138 51.8514Z" fill="#0082FF"/>
<path d="M97.899 96.1326C97.627 96.1805 97.445 96.4396 97.494 96.7114L98.279 101.14C98.327 101.412 98.587 101.593 98.859 101.545C99.131 101.497 99.312 101.238 99.264 100.966L98.566 97.0299L102.508 96.336C102.78 96.2881 102.961 96.0289 102.913 95.7572C102.865 95.4854 102.605 95.3039 102.333 95.3518L97.899 96.1326ZM137.7 97.2506C137.479 97.416 137.434 97.7291 137.599 97.95C137.765 98.171 138.079 98.2161 138.3 98.0507L137.7 97.2506ZM135.121 100.078C135.364 99.9468 135.454 99.6435 135.322 99.401C135.19 99.1584 134.886 99.0684 134.643 99.2L135.121 100.078ZM131.341 100.717C131.083 100.817 130.954 101.106 131.054 101.363C131.153 101.621 131.443 101.749 131.701 101.65L131.341 100.717ZM128.118 102.788C128.385 102.72 128.547 102.448 128.478 102.181C128.41 101.913 128.137 101.752 127.87 101.82L128.118 102.788ZM124.291 102.524C124.017 102.563 123.827 102.816 123.866 103.089C123.905 103.362 124.158 103.553 124.432 103.514L124.291 102.524ZM120.692 103.843C120.969 103.833 121.184 103.602 121.174 103.326C121.164 103.05 120.932 102.835 120.655 102.845L120.692 103.843ZM117.004 102.792C116.729 102.774 116.491 102.983 116.473 103.258C116.455 103.533 116.665 103.771 116.94 103.789L117.004 102.792ZM113.211 103.36C113.484 103.405 113.741 103.221 113.786 102.949C113.831 102.676 113.647 102.419 113.374 102.374L113.211 103.36ZM109.806 101.599C109.539 101.527 109.264 101.685 109.192 101.951C109.121 102.218 109.279 102.492 109.546 102.564L109.806 101.599ZM105.974 101.409C106.233 101.507 106.521 101.377 106.619 101.119C106.717 100.861 106.587 100.573 106.329 100.475L105.974 101.409ZM102.983 99.0127C102.736 98.8897 102.435 98.9901 102.312 99.2371C102.189 99.4841 102.29 99.7841 102.537 99.9072L102.983 99.0127ZM99.264 98.0713C99.498 98.2182 99.807 98.148 99.954 97.9144C100.101 97.6808 100.031 97.3724 99.797 97.2254L99.264 98.0713ZM139.104 96.1114C138.655 96.5066 138.187 96.8865 137.7 97.2506L138.3 98.0507C138.808 97.6711 139.297 97.2744 139.766 96.8611L139.104 96.1114ZM134.643 99.2C133.596 99.7677 132.492 100.275 131.341 100.717L131.701 101.65C132.891 101.192 134.034 100.667 135.121 100.078L134.643 99.2ZM127.87 101.82C126.707 102.116 125.512 102.352 124.291 102.524L124.432 103.514C125.688 103.337 126.919 103.094 128.118 102.788L127.87 101.82ZM120.655 102.845C119.452 102.888 118.233 102.871 117.004 102.792L116.94 103.789C118.202 103.871 119.455 103.888 120.692 103.843L120.655 102.845ZM113.374 102.374C112.185 102.177 110.993 101.919 109.806 101.599L109.546 102.564C110.765 102.893 111.989 103.157 113.211 103.36L113.374 102.374ZM106.329 100.475C105.202 100.048 104.085 99.561 102.983 99.0127L102.537 99.9072C103.669 100.47 104.817 100.97 105.974 101.409L106.329 100.475ZM99.797 97.2254C99.284 96.9034 98.776 96.5668 98.273 96.2153L97.699 97.0339C98.216 97.3949 98.738 97.7406 99.264 98.0713L99.797 97.2254Z" fill="#0082FF" fill-opacity="0.5"/>
</svg>
