<svg width="86" height="104" viewBox="0 0 244 296" fill="none" xmlns="http://www.w3.org/2000/svg">
<path d="M209.723 129.593C213.684 128.893 214.005 127.06 214.005 124.919C214.005 122.841 213.684 121.176 209.723 121.876L204.112 122.862V130.58L209.723 129.593Z" fill="white"/>
<path d="M74.7751 171.504C80.8131 170.434 81.8281 166.11 81.8281 156.811C81.8281 147.505 80.8131 143.538 74.7751 144.601C68.7371 145.665 67.7151 149.996 67.7151 159.302C67.7151 168.6 68.7371 172.575 74.7751 171.504Z" fill="white"/>
<path d="M34.7459 161.912C38.1959 161.303 39.8749 159.512 39.8749 156.426C39.8749 155.292 39.8749 151.843 34.7459 152.746L30.0449 153.571V162.737L34.7459 161.912Z" fill="white"/>
<path fill-rule="evenodd" clip-rule="evenodd" d="M243.203 168.097V85.4989C243.203 84.0579 242.503 82.6999 241.328 81.8679L241.188 81.7699L126.636 0.58491C125.202 -0.42909 123.207 -0.0930901 122.193 1.34791C121.808 1.88691 121.605 2.53091 121.605 3.19491V38.4729L2.015 123.212L1.882 123.303C0.7 124.143 0 125.5 0 126.948V209.56C0 211.001 0.7 212.359 1.875 213.191L2.015 213.289L116.567 294.467C118.002 295.488 119.996 295.152 121.01 293.711C121.395 293.172 121.605 292.529 121.605 291.864V256.586L241.188 171.833L241.321 171.742C242.503 170.909 243.203 169.545 243.203 168.097ZM219.687 136.128L229.594 153.193C229.657 153.305 229.657 153.445 229.594 153.557C229.531 153.676 229.419 153.76 229.28 153.788L217.098 155.936L215.657 156.202C215.559 156.223 215.454 156.188 215.377 156.118C215.307 156.034 215.279 155.929 215.307 155.824L215.692 153.963L208.457 140.508L204.105 141.285V157.874C204.098 158.091 203.944 158.266 203.741 158.308L192.882 160.225C192.777 160.246 192.672 160.211 192.602 160.141C192.532 160.057 192.504 159.952 192.525 159.847L193.169 156.769V117.566L192.525 114.711C192.504 114.599 192.532 114.487 192.602 114.396C192.665 114.291 192.763 114.221 192.882 114.2L208.989 111.359C220.198 109.379 225.417 113.046 225.417 122.897C225.417 129.054 223.787 132.945 219.974 135.904L219.687 136.128ZM183.135 116.32C183.135 116.292 183.135 116.271 183.128 116.243C183.093 116.082 182.932 115.977 182.765 116.019L153.077 121.246C152.965 121.267 152.867 121.337 152.797 121.428C152.734 121.519 152.706 121.638 152.727 121.75L153.364 124.583V163.822L152.727 166.879C152.699 166.984 152.727 167.089 152.797 167.166C152.874 167.243 152.979 167.278 153.077 167.257L154.511 167.012L182.765 162.023C182.974 161.981 183.128 161.807 183.135 161.59V151.696L183.135 151.68L183.135 151.663C183.134 151.646 183.132 151.629 183.128 151.612C183.086 151.451 182.925 151.353 182.765 151.388L164.244 154.656V146.945L181.015 143.986C181.225 143.944 181.379 143.762 181.386 143.552V133.595C181.386 133.577 181.386 133.559 181.384 133.541C181.384 133.536 181.383 133.531 181.382 133.526C181.381 133.521 181.38 133.516 181.379 133.511C181.337 133.35 181.176 133.252 181.015 133.287L164.244 136.247V129.922L182.765 126.654C182.974 126.612 183.128 126.431 183.135 126.221V116.32ZM146.619 122.526C146.542 122.456 146.43 122.428 146.325 122.449L136.096 124.255C135.977 124.276 135.879 124.338 135.809 124.436C135.746 124.527 135.718 124.646 135.739 124.758L136.396 127.662L131.778 145.966C131.764 146.029 131.674 146.036 131.674 145.98L127.888 125.976V125.948C127.846 125.794 127.692 125.696 127.531 125.738L126.979 125.836L116.777 127.634C116.665 127.655 116.56 127.725 116.497 127.83C116.427 127.921 116.399 128.033 116.427 128.145L117.085 131.076L112.467 149.366C112.453 149.422 112.369 149.436 112.355 149.38L108.591 129.383C108.591 129.379 108.589 129.376 108.587 129.372L108.586 129.369L108.584 129.366L108.584 129.363L108.584 129.362C108.549 129.201 108.388 129.103 108.234 129.138L97.4729 131.041C97.3539 131.062 97.2489 131.132 97.1859 131.23C97.1159 131.321 97.0949 131.44 97.1159 131.552L106.24 172.134L105.603 175.206C105.575 175.31 105.603 175.415 105.673 175.499C105.75 175.569 105.855 175.604 105.953 175.583L116.196 173.806C116.406 173.757 116.56 173.582 116.595 173.379L121.507 153.228C121.528 153.137 121.661 153.109 121.682 153.2L125.558 168.747L124.922 171.819C124.894 171.924 124.922 172.036 124.992 172.113C125.062 172.19 125.166 172.218 125.271 172.197L135.536 170.385C135.816 170.336 135.907 169.993 135.907 169.958L146.689 122.827C146.717 122.722 146.689 122.61 146.619 122.526ZM74.768 133.966C90.847 131.132 93.002 142.929 93.002 154.845C93.002 160.001 92.652 166.613 89.902 171.973C87.048 177.528 82.101 180.859 74.775 182.146C58.696 184.98 56.541 173.183 56.541 161.275C56.541 156.111 56.891 149.499 59.641 144.147C62.496 138.591 67.443 135.261 74.768 133.966ZM48.6701 145.525C51.0071 148.422 51.3501 152.326 51.3501 154.39C51.3501 156.454 51.0071 160.505 48.6701 164.248C45.9201 168.649 41.2111 171.469 34.6901 172.617L30.0451 173.435V188.576C30.0301 188.793 29.8841 188.968 29.6741 189.017L18.6891 190.948C18.5911 190.969 18.4861 190.941 18.4091 190.864C18.3391 190.787 18.3111 190.676 18.3391 190.571L18.9891 187.45V148.338L18.3391 145.448C18.3181 145.336 18.3391 145.217 18.4091 145.126C18.4721 145.028 18.5771 144.958 18.6891 144.937L34.6901 142.11C41.2111 140.963 45.9201 142.11 48.6701 145.525Z" fill="white"/>
<path fill-rule="evenodd" clip-rule="evenodd" d="M239.593 61.9899H240.719L239.684 60.2329C240.314 60.0929 240.74 59.5129 240.698 58.8689C240.698 58.0149 240.118 57.3859 239.159 57.3859H237.004V61.9899H237.984V60.3519H238.697L239.593 61.9899ZM239.152 58.2529C239.495 58.2879 239.74 58.5959 239.698 58.9389C239.663 59.2819 239.355 59.5269 239.012 59.4919H237.991V58.2529H239.012C239.054 58.2459 239.103 58.2459 239.152 58.2529Z" fill="white"/>
<path fill-rule="evenodd" clip-rule="evenodd" d="M243.203 59.6809C243.203 62.1299 241.216 64.1169 238.767 64.1169C236.318 64.1169 234.331 62.1299 234.331 59.6809C234.331 57.2319 236.318 55.2449 238.767 55.2449C241.216 55.2449 243.203 57.2319 243.203 59.6809ZM242.336 59.6809C242.336 57.7079 240.74 56.1049 238.767 56.1049C236.794 56.1049 235.199 57.7079 235.199 59.6809C235.199 61.6469 236.794 63.2489 238.767 63.2489C240.74 63.2489 242.336 61.6469 242.336 59.6809Z" fill="white"/>
</svg>
