<svg width="229" height="13" viewBox="0 0 229 13" fill="none" xmlns="http://www.w3.org/2000/svg">
<path fill-rule="evenodd" clip-rule="evenodd" d="M10.2905 12.1914C7.03899 12.2077 3.63657 12.043 1.13256 11.2165C0.95634 11.1583 0.782579 11.0916 0.634544 11.0112C0.560669 10.9711 0.466443 10.9134 0.375483 10.8327C0.292016 10.7587 0.148387 10.6102 0.0751575 10.3763C-0.0117772 10.0986 0.0361063 9.81453 0.175059 9.59047C0.291669 9.40243 0.445458 9.2976 0.531929 9.24661C0.704782 9.14467 0.894345 9.09441 1.01871 9.06613C1.53359 8.94905 2.44037 8.89913 3.39189 8.86957C4.23222 8.84346 5.15381 8.8321 6.03728 8.8212C7.28105 8.80587 8.44922 8.79147 9.2087 8.73817C11.274 8.59323 13.3409 8.44477 15.4087 8.29624C18.8706 8.04759 22.3349 7.79877 25.7976 7.566C49.4385 5.9768 73.0782 4.64051 96.7303 3.66344C84.0078 3.64943 71.2856 3.57273 58.562 3.40072C58.5684 3.40081 51.8024 3.35321 47.382 3.28717C46.272 3.27059 45.301 3.25274 44.6117 3.23402C44.2685 3.2247 43.9881 3.21498 43.7934 3.20474C43.6995 3.19979 43.6096 3.19395 43.5388 3.18628C43.5126 3.18345 43.4466 3.17623 43.3761 3.15916L43.3749 3.15888C43.3597 3.15546 43.2237 3.12491 43.0849 3.0333C43.0292 2.99651 42.769 2.82094 42.6996 2.45516C42.6149 2.00902 42.8772 1.71541 42.9895 1.61744C43.1018 1.51942 43.2114 1.47435 43.2464 1.46029C43.2952 1.44071 43.3363 1.42916 43.3598 1.42305C43.4074 1.41071 43.448 1.40408 43.4695 1.40083C43.516 1.39379 43.5629 1.38936 43.6002 1.38631C43.679 1.37987 43.7825 1.37432 43.9061 1.36919C44.1565 1.3588 44.528 1.34864 45.0343 1.33861C46.0489 1.31852 47.6259 1.29856 49.9034 1.27913C109.009 0.774828 168.132 0.434646 227.243 0.61594C227.734 0.617446 228.131 1.0168 228.13 1.50793C228.128 1.99906 227.729 2.39597 227.238 2.39447C221.36 2.37644 215.482 2.36357 209.604 2.35551L209.578 3.95977L207.609 3.9284C206.536 3.91131 205.463 3.89434 204.391 3.87772C198.464 3.78764 192.537 3.72177 186.611 3.67453C185.99 3.67136 185.368 3.66875 184.747 3.66674C131.72 3.49545 78.8298 5.7836 25.9168 9.34053C22.4571 9.5731 19.0012 9.82133 15.543 10.0697C13.9632 10.1832 12.3829 10.2967 10.8015 10.4088C12.1744 10.3939 13.5369 10.3495 14.825 10.3075L15.0026 10.3017C16.496 10.2531 17.8945 10.2094 19.0564 10.2254C66.4348 10.8759 114.009 10.3127 161.322 7.87723C166.366 7.61757 171.407 7.26961 176.44 6.83827C178.157 6.69111 179.865 6.52922 181.561 6.31659C181.349 6.30745 181.135 6.29894 180.92 6.29103C179.579 6.24169 178.231 6.21616 177.21 6.20263C176.602 6.19458 176.085 6.19073 175.767 6.18837C175.569 6.1869 175.449 6.186 175.43 6.18502C174.94 6.15902 174.563 5.74037 174.589 5.24993C174.615 4.75949 175.034 4.38298 175.524 4.40897C175.51 4.40823 175.647 4.40894 175.981 4.4114C176.287 4.41365 176.719 4.41744 177.234 4.42425C178.262 4.43788 179.626 4.46365 180.985 4.5137C182.34 4.56356 183.71 4.63817 184.745 4.75155C185.255 4.8075 185.722 4.87675 186.074 4.96774C186.241 5.01096 186.444 5.07427 186.622 5.17636C186.726 5.23586 187.239 5.54584 187.172 6.17931C187.125 6.61822 186.889 6.94232 186.607 7.15059C186.354 7.33794 186.068 7.43084 185.849 7.48436C185.623 7.53999 185.389 7.57108 185.202 7.59356C185.142 7.60067 185.089 7.60682 185.04 7.61246C184.915 7.62679 184.82 7.63779 184.731 7.65268C182.024 8.1069 179.295 8.37861 176.592 8.61032C171.539 9.04333 166.478 9.39269 161.413 9.65341C114.054 12.0912 66.4402 12.6547 19.0319 12.0037C17.9193 11.9885 16.5646 12.0304 15.0604 12.0793L14.8756 12.0854C13.4305 12.1325 11.8636 12.1836 10.2905 12.1914Z" fill="#9E64E9"/>
</svg>
