<svg width="111" height="110" viewBox="0 0 111 110" fill="none" xmlns="http://www.w3.org/2000/svg">
<path d="M106.425 1.26758C108.082 1.26782 109.425 2.61097 109.425 4.26758V105.978C109.425 107.634 108.082 108.977 106.425 108.978H4.71533C3.05848 108.978 1.71533 107.634 1.71533 105.978V4.26758C1.71545 2.61082 3.05855 1.26758 4.71533 1.26758H106.425Z" fill="#F3F7FB"/>
<path fill-rule="evenodd" clip-rule="evenodd" d="M106.425 0.267578C108.634 0.267822 110.425 2.05869 110.425 4.26758V105.978C110.425 108.187 108.634 109.977 106.425 109.978H4.71533L4.50928 109.973C2.39589 109.865 0.714355 108.118 0.714355 105.978V4.26758C0.714472 2.05854 2.50626 0.267578 4.71533 0.267578H106.425ZM4.71533 1.26758C3.05855 1.26758 1.71545 2.61082 1.71533 4.26758V105.978C1.71533 107.634 3.05848 108.978 4.71533 108.978H106.425C108.082 108.977 109.425 107.634 109.425 105.978V4.26758C109.425 2.61097 108.082 1.26782 106.425 1.26758H4.71533Z" fill="#E4E8F0"/>
<path d="M16.7144 109.978H4.71436C2.50522 109.978 0.714355 108.187 0.714355 105.978V4.26757C0.714355 2.05843 2.50522 0.26757 4.71436 0.26757H16.7144V109.978Z" fill="#0056CF"/>
</svg>
