<svg width="362" height="159" viewBox="0 0 362 159" fill="none" xmlns="http://www.w3.org/2000/svg">
<rect width="114" height="22" transform="translate(124 68)" fill="#F9BB00" fill-opacity="0.2"/>
<path d="M125.395 84V73.15H126.775V77.7225H132.603V73.15H133.982V84H132.603V79.0245H126.775V84H125.395ZM138.238 74.235C138.238 74.731 137.835 75.134 137.339 75.134C136.843 75.134 136.44 74.731 136.44 74.235C136.44 73.739 136.843 73.336 137.339 73.336C137.835 73.336 138.238 73.739 138.238 74.235ZM136.673 76.467H138.006V84H136.673V76.467ZM140.243 79.071C140.243 77.428 141.591 76.2965 143.157 76.2965C143.513 76.2965 143.854 76.3585 144.18 76.467H146.768V77.614H145.652C145.916 78.0325 146.071 78.5285 146.071 79.071C146.071 80.7295 144.722 81.83 143.157 81.83C142.692 81.83 142.258 81.737 141.855 81.5665C141.343 81.7215 141.188 82.016 141.188 82.295C141.188 82.7445 141.591 82.915 142.196 82.915H144.288C145.9 82.915 146.923 83.597 146.923 84.837C146.923 86.5885 145.063 87.41 143.033 87.41C141.095 87.41 139.669 86.79 139.669 85.2865C139.669 84.5735 140.15 84 140.63 83.69C140.212 83.3955 140.026 82.9615 140.026 82.481C140.026 81.644 140.537 81.241 140.987 80.962C140.522 80.497 140.243 79.846 140.243 79.071ZM145.683 84.961C145.683 84.31 145.11 84.093 143.978 84.093H142.118C141.932 84.093 141.777 84.0775 141.622 84.062C141.157 84.31 140.894 84.682 140.894 85.1315C140.894 85.9995 141.855 86.356 143.064 86.356C144.583 86.356 145.683 85.86 145.683 84.961ZM141.467 79.071C141.467 80.063 142.211 80.7295 143.157 80.7295C144.102 80.7295 144.846 80.063 144.846 79.071C144.846 78.11 144.102 77.4125 143.157 77.4125C142.211 77.4125 141.467 78.11 141.467 79.071ZM149.822 80.063V84H148.489V73.15H149.822V77.552C150.287 76.808 151.093 76.2965 152.224 76.2965C154.146 76.2965 155.262 77.583 155.262 79.5825V84H153.929V79.7375C153.929 78.389 153.232 77.5365 151.945 77.5365C150.659 77.5365 149.822 78.5285 149.822 80.063ZM157.681 73.15H159.014V84H157.681V73.15ZM163.111 74.235C163.111 74.731 162.708 75.134 162.212 75.134C161.716 75.134 161.313 74.731 161.313 74.235C161.313 73.739 161.716 73.336 162.212 73.336C162.708 73.336 163.111 73.739 163.111 74.235ZM161.546 76.467H162.879V84H161.546V76.467ZM165.116 79.071C165.116 77.428 166.464 76.2965 168.03 76.2965C168.386 76.2965 168.727 76.3585 169.053 76.467H171.641V77.614H170.525C170.789 78.0325 170.944 78.5285 170.944 79.071C170.944 80.7295 169.595 81.83 168.03 81.83C167.565 81.83 167.131 81.737 166.728 81.5665C166.216 81.7215 166.061 82.016 166.061 82.295C166.061 82.7445 166.464 82.915 167.069 82.915H169.161C170.773 82.915 171.796 83.597 171.796 84.837C171.796 86.5885 169.936 87.41 167.906 87.41C165.968 87.41 164.542 86.79 164.542 85.2865C164.542 84.5735 165.023 84 165.503 83.69C165.085 83.3955 164.899 82.9615 164.899 82.481C164.899 81.644 165.41 81.241 165.86 80.962C165.395 80.497 165.116 79.846 165.116 79.071ZM170.556 84.961C170.556 84.31 169.983 84.093 168.851 84.093H166.991C166.805 84.093 166.65 84.0775 166.495 84.062C166.03 84.31 165.767 84.682 165.767 85.1315C165.767 85.9995 166.728 86.356 167.937 86.356C169.456 86.356 170.556 85.86 170.556 84.961ZM166.34 79.071C166.34 80.063 167.084 80.7295 168.03 80.7295C168.975 80.7295 169.719 80.063 169.719 79.071C169.719 78.11 168.975 77.4125 168.03 77.4125C167.084 77.4125 166.34 78.11 166.34 79.071ZM174.694 80.063V84H173.361V73.15H174.694V77.552C175.159 76.808 175.965 76.2965 177.097 76.2965C179.019 76.2965 180.135 77.583 180.135 79.5825V84H178.802V79.7375C178.802 78.389 178.104 77.5365 176.818 77.5365C175.531 77.5365 174.694 78.5285 174.694 80.063ZM181.471 77.49L184.059 74.7H184.106V76.467H186.214V77.6605H184.106V81.644C184.106 82.5275 184.493 82.9305 185.361 82.9305C185.656 82.9305 185.981 82.853 186.214 82.698V83.938C185.95 84.0775 185.563 84.1705 185.051 84.1705C183.625 84.1705 182.773 83.287 182.773 81.83V77.6605H181.471V77.49ZM194.286 81.768V83.2095C193.449 83.814 192.426 84.1705 191.372 84.1705C188.97 84.1705 187.42 82.45 187.42 80.2335C187.42 77.986 188.97 76.2965 191.14 76.2965C193.248 76.2965 194.689 78.0325 194.689 80.1715C194.689 80.466 194.658 80.652 194.658 80.652H188.753C188.861 81.9075 189.9 82.9615 191.465 82.9615C192.426 82.9615 193.356 82.574 194.286 81.768ZM188.784 79.5515H193.341C193.232 78.358 192.349 77.459 191.109 77.459C189.853 77.459 188.877 78.5285 188.784 79.5515ZM202.576 73.15H203.894V84H202.576V82.8065C202.034 83.628 201.011 84.1705 199.91 84.1705C197.771 84.1705 196.128 82.4655 196.128 80.2335C196.128 78.017 197.771 76.2965 199.91 76.2965C201.011 76.2965 202.018 76.777 202.576 77.5985V73.15ZM202.654 80.2335C202.654 78.7145 201.538 77.521 200.065 77.521C198.593 77.521 197.477 78.7145 197.477 80.2335C197.477 81.7525 198.593 82.946 200.065 82.946C201.538 82.946 202.654 81.7525 202.654 80.2335ZM209.343 74.421V73.15H217.062V74.421H213.9V84H212.505V74.421H209.343ZM223.746 81.768V83.2095C222.909 83.814 221.886 84.1705 220.832 84.1705C218.429 84.1705 216.879 82.45 216.879 80.2335C216.879 77.986 218.429 76.2965 220.599 76.2965C222.707 76.2965 224.149 78.0325 224.149 80.1715C224.149 80.466 224.118 80.652 224.118 80.652H218.212C218.321 81.9075 219.359 82.9615 220.925 82.9615C221.886 82.9615 222.816 82.574 223.746 81.768ZM218.243 79.5515H222.8C222.692 78.358 221.808 77.459 220.568 77.459C219.313 77.459 218.336 78.5285 218.243 79.5515ZM230.387 84L228.326 81.086L226.249 84H224.745L227.551 80.156L224.869 76.467H226.419L228.357 79.195L230.31 76.467H231.829L229.147 80.125L231.953 84H230.387ZM232.514 77.49L235.102 74.7H235.149V76.467H237.257V77.6605H235.149V81.644C235.149 82.5275 235.536 82.9305 236.404 82.9305C236.699 82.9305 237.024 82.853 237.257 82.698V83.938C236.993 84.0775 236.606 84.1705 236.094 84.1705C234.668 84.1705 233.816 83.287 233.816 81.83V77.6605H232.514V77.49Z" fill="#242B42"/>
</svg>
