<svg width="152" height="56" viewBox="0 0 152 56" fill="none" xmlns="http://www.w3.org/2000/svg">
<path d="M0 6C0 2.68629 2.68629 0 6 0H146C149.314 0 152 2.68629 152 6V50C152 53.3137 149.314 56 146 56H6C2.6863 56 0 53.3137 0 50V6Z" fill="white"/>
<path fill-rule="evenodd" clip-rule="evenodd" d="M146.309 0.0078125C149.479 0.168431 152 2.78979 152 6V50L151.992 50.3086C151.832 53.4789 149.21 56 146 56H6C2.7898 56 0.168429 53.4789 0.0078125 50.3086L0 50V6C2.49662e-07 2.78979 2.52111 0.168429 5.69141 0.0078125L6 0H146L146.309 0.0078125ZM6 1C3.23858 1 1 3.23858 1 6V50C1 52.7614 3.23858 55 6 55H146C148.761 55 151 52.7614 151 50V6C151 3.23858 148.761 1 146 1H6Z" fill="#E4E8F0"/>
<path fill-rule="evenodd" clip-rule="evenodd" d="M139.996 8C142.205 8 143.996 9.79086 143.996 12V44C143.996 46.2089 142.205 48 139.996 48H107.996C105.787 48 103.996 46.2089 103.996 44V12C103.996 9.79086 105.787 8 107.996 8H139.996ZM107.996 9C106.339 9 104.996 10.3431 104.996 12V44C104.996 45.6566 106.339 47 107.996 47H139.996C141.653 47 142.996 45.6566 142.996 44V12C142.996 10.3431 141.653 9 139.996 9H107.996Z" fill="#E4E8F0"/>
<path d="M139.996 9C141.653 9 142.996 10.3431 142.996 12V44C142.996 45.6566 141.653 47 139.996 47H107.996C106.339 47 104.996 45.6566 104.996 44V12C104.996 10.3431 106.339 9 107.996 9H139.996Z" fill="#F3F7FB"/>
<path d="M125.681 33.5001H123.387V25.3316L121.465 26.0756V23.8281L123.867 22.8516H125.681V33.5001Z" fill="#242B42"/>
<path fill-rule="evenodd" clip-rule="evenodd" d="M92 8C94.2091 8 96 9.79086 96 12V44C95.9997 46.2089 94.209 48 92 48H60C57.791 48 56.0003 46.2089 56 44V12C56 9.79086 57.7909 8 60 8H92ZM60 9C58.3431 9 57 10.3431 57 12V44C57.0003 45.6566 58.3433 47 60 47H92C93.6567 47 94.9997 45.6566 95 44V12C95 10.3431 93.6569 9 92 9H60Z" fill="#E4E8F0"/>
<path d="M92 9C93.6569 9 95 10.3431 95 12V44C94.9997 45.6566 93.6567 47 92 47H60C58.3433 47 57.0003 45.6566 57 44V12C57 10.3431 58.3431 9 60 9H92Z" fill="#F3F7FB"/>
<path d="M79.2972 33.5H72.0742V31.8725L75.5617 28.416C76.5537 27.455 76.8327 26.959 76.8327 26.246C76.8327 25.3935 76.1042 24.789 75.0812 24.789C74.0892 24.789 73.1592 25.347 72.3222 26.2615V23.828C73.1437 23.084 74.2132 22.6655 75.2672 22.6655C77.4062 22.6655 79.1267 23.9675 79.1267 25.998C79.1267 27.4085 78.5377 28.447 77.1892 29.687L75.2827 31.454H79.2972V33.5Z" fill="#242B42"/>
<path fill-rule="evenodd" clip-rule="evenodd" d="M43.9961 8C46.2052 8 47.9961 9.79086 47.9961 12V44C47.9958 46.2089 46.2051 48 43.9961 48H11.9961C9.78712 48 7.99636 46.2089 7.99609 44V12C7.99609 9.79086 9.78695 8 11.9961 8H43.9961ZM11.9961 9C10.3392 9 8.99609 10.3431 8.99609 12V44C8.99636 45.6566 10.3394 47 11.9961 47H43.9961C45.6528 47 46.9958 45.6566 46.9961 44V12C46.9961 10.3431 45.6529 9 43.9961 9H11.9961Z" fill="#E4E8F0"/>
<path d="M43.9961 9C45.6529 9 46.9961 10.3431 46.9961 12V44C46.9958 45.6566 45.6528 47 43.9961 47H11.9961C10.3394 47 8.99636 45.6566 8.99609 44V12C8.99609 10.3431 10.3392 9 11.9961 9H43.9961Z" fill="#F3F7FB"/>
<path d="M31.0398 30.3225C31.0398 32.3375 29.4433 33.7015 27.0098 33.7015C25.9713 33.7015 24.9948 33.438 24.1113 32.8955V30.5705C24.9948 31.268 25.8938 31.609 26.8238 31.609C27.9553 31.609 28.7458 31.0975 28.7458 30.1985C28.7458 29.408 28.0018 28.8655 26.9013 28.8655H25.8938V27.0675H26.8548C27.7538 27.0675 28.3738 26.5715 28.3738 25.9205C28.3738 25.1765 27.6453 24.7425 26.7773 24.7425C25.9248 24.7425 25.1498 25.068 24.3283 25.7345V23.456C25.1033 22.929 26.0178 22.6655 26.9633 22.6655C29.0713 22.6655 30.6213 23.7815 30.6213 25.6415C30.6213 26.6335 30.1098 27.3775 29.3038 27.827C30.4043 28.2765 31.0398 29.16 31.0398 30.3225Z" fill="#242B42"/>
</svg>
