<svg width="56" height="152" viewBox="0 0 56 152" fill="none" xmlns="http://www.w3.org/2000/svg">
<path d="M50 1C52.7614 1 55 3.23858 55 6V146C55 148.761 52.7614 151 50 151H6C3.23858 151 1 148.761 1 146V6C1 3.23858 3.23858 1 6 1H50Z" fill="white"/>
<path d="M54.0342 150.441C54.0096 150.464 53.9839 150.485 53.959 150.507C53.9886 150.481 54.0187 150.455 54.0479 150.429L54.0342 150.441Z" fill="white"/>
<path fill-rule="evenodd" clip-rule="evenodd" d="M50.3086 0.0078125C53.4789 0.168429 56 2.78979 56 6V146L55.9922 146.309C55.8367 149.377 53.3767 151.837 50.3086 151.992L50 152H6C2.68629 152 0 149.314 0 146V6C2.3194e-06 2.68629 2.68629 3.22128e-08 6 0H50L50.3086 0.0078125ZM6 1C3.23858 1 1 3.23858 1 6V146C1 148.761 3.23858 151 6 151H50C52.7614 151 55 148.761 55 146V6C55 3.23858 52.7614 1 50 1H6Z" fill="#E4E8F0"/>
<path fill-rule="evenodd" clip-rule="evenodd" d="M44 8C46.2091 8 48 9.79086 48 12V44C47.9997 46.2089 46.209 48 44 48H12C9.79102 48 8.00026 46.2089 8 44V12C8 9.79086 9.79086 8 12 8H44ZM12 9C10.3431 9 9 10.3431 9 12V44C9.00026 45.6566 10.3433 47 12 47H44C45.6567 47 46.9997 45.6566 47 44V12C47 10.3431 45.6569 9 44 9H12Z" fill="#E4E8F0"/>
<path d="M44 9C45.6569 9 47 10.3431 47 12V44C46.9997 45.6566 45.6567 47 44 47H12C10.3433 47 9.00026 45.6566 9 44V12C9 10.3431 10.3431 9 12 9H44Z" fill="#F3F7FB"/>
<path d="M29.6848 33.5001H27.3908V25.3316L25.4688 26.0756V23.8281L27.8713 22.8516H29.6848V33.5001Z" fill="#242B42"/>
<path fill-rule="evenodd" clip-rule="evenodd" d="M44 56C46.2091 56 48 57.7909 48 60V92C47.9997 94.2089 46.209 96 44 96H12C9.79102 96 8.00026 94.2089 8 92V60C8 57.7909 9.79086 56 12 56H44ZM12 57C10.3431 57 9 58.3431 9 60V92C9.00026 93.6566 10.3433 95 12 95H44C45.6567 95 46.9997 93.6566 47 92V60C47 58.3431 45.6569 57 44 57H12Z" fill="#E4E8F0"/>
<path d="M44 57C45.6569 57 47 58.3431 47 60V92C46.9997 93.6566 45.6567 95 44 95H12C10.3433 95 9.00026 93.6566 9 92V60C9 58.3431 10.3431 57 12 57H44Z" fill="#F3F7FB"/>
<path d="M31.2972 81.5H24.0742V79.8725L27.5617 76.416C28.5537 75.455 28.8327 74.959 28.8327 74.246C28.8327 73.3935 28.1042 72.789 27.0812 72.789C26.0892 72.789 25.1592 73.347 24.3222 74.2615V71.828C25.1437 71.084 26.2132 70.6655 27.2672 70.6655C29.4062 70.6655 31.1267 71.9675 31.1267 73.998C31.1267 75.4085 30.5377 76.447 29.1892 77.687L27.2827 79.454H31.2972V81.5Z" fill="#242B42"/>
<path fill-rule="evenodd" clip-rule="evenodd" d="M44 104C46.2091 104 48 105.791 48 108V140C47.9997 142.209 46.209 144 44 144H12C9.79102 144 8.00026 142.209 8 140V108C8 105.791 9.79086 104 12 104H44ZM12 105C10.3431 105 9 106.343 9 108V140C9.00026 141.657 10.3433 143 12 143H44C45.6567 143 46.9997 141.657 47 140V108C47 106.343 45.6569 105 44 105H12Z" fill="#E4E8F0"/>
<path d="M44 105C45.6569 105 47 106.343 47 108V140C46.9997 141.657 45.6567 143 44 143H12C10.3433 143 9.00026 141.657 9 140V108C9 106.343 10.3431 105 12 105H44Z" fill="#F3F7FB"/>
<path d="M31.0437 126.323C31.0437 128.338 29.4472 129.702 27.0137 129.702C25.9752 129.702 24.9987 129.438 24.1152 128.896V126.571C24.9987 127.268 25.8977 127.609 26.8277 127.609C27.9592 127.609 28.7497 127.098 28.7497 126.199C28.7497 125.408 28.0057 124.866 26.9052 124.866H25.8977V123.068H26.8587C27.7577 123.068 28.3777 122.572 28.3777 121.921C28.3777 121.177 27.6492 120.743 26.7812 120.743C25.9287 120.743 25.1537 121.068 24.3322 121.735V119.456C25.1072 118.929 26.0217 118.666 26.9672 118.666C29.0752 118.666 30.6252 119.782 30.6252 121.642C30.6252 122.634 30.1137 123.378 29.3077 123.827C30.4082 124.277 31.0437 125.16 31.0437 126.323Z" fill="#242B42"/>
</svg>
