<svg width="380" height="56" viewBox="0 0 380 56" fill="none" xmlns="http://www.w3.org/2000/svg">
<path fill-rule="evenodd" clip-rule="evenodd" d="M285.166 26.0361C286.822 26.0361 288.094 27.356 288.094 29.084C288.094 30.8 286.822 32.1318 285.166 32.1318C284.314 32.1318 283.534 31.76 283.102 31.124V34.4961H282.082V26.168H283.102V27.0918C283.522 26.4558 284.314 26.0361 285.166 26.0361ZM285.046 26.9844C283.906 26.9844 283.042 27.908 283.042 29.084C283.042 30.2599 283.906 31.1835 285.046 31.1836C286.186 31.1836 287.05 30.26 287.05 29.084C287.05 27.908 286.186 26.9844 285.046 26.9844Z" fill="#687887"/>
<path fill-rule="evenodd" clip-rule="evenodd" d="M292.678 26.0361C294.334 26.0361 295.605 27.356 295.605 29.084C295.605 30.8 294.334 32.1318 292.678 32.1318C291.826 32.1318 291.045 31.76 290.613 31.124V34.4961H289.594V26.168H290.613V27.0918C291.033 26.4558 291.826 26.0361 292.678 26.0361ZM292.558 26.9844C291.418 26.9844 290.554 27.908 290.554 29.084C290.554 30.2599 291.418 31.1835 292.558 31.1836C293.698 31.1836 294.562 30.26 294.562 29.084C294.562 27.908 293.698 26.9844 292.558 26.9844Z" fill="#687887"/>
<path fill-rule="evenodd" clip-rule="evenodd" d="M267.996 23.624C270.24 23.6242 271.32 25.652 271.32 27.8838C271.32 30.1037 270.24 32.1317 267.996 32.1318C265.752 32.1318 264.672 30.1038 264.672 27.8838C264.672 25.6519 265.752 23.624 267.996 23.624ZM267.996 24.6201C266.436 24.6201 265.74 26.2039 265.74 27.8838C265.74 29.5638 266.436 31.1357 267.996 31.1357C269.556 31.1356 270.252 29.5637 270.252 27.8838C270.252 26.204 269.556 24.6203 267.996 24.6201Z" fill="#687887"/>
<path fill-rule="evenodd" clip-rule="evenodd" d="M277.897 26.0361C279.397 26.0361 280.262 26.8639 280.262 28.2197V32H279.29V31.2324C278.834 31.8203 278.125 32.1318 277.357 32.1318C276.326 32.1317 275.594 31.4238 275.594 30.4639C275.594 29.42 276.254 28.7961 277.538 28.5801L279.254 28.292V28.1484C279.254 27.4165 278.738 26.9718 277.874 26.9717C277.082 26.9717 276.494 27.2957 275.894 27.8477V26.7676C276.421 26.3357 277.058 26.0362 277.897 26.0361ZM277.706 29.4561C277.01 29.5881 276.626 29.9003 276.626 30.4043C276.626 30.8961 277.01 31.2197 277.55 31.2197C278.546 31.2197 279.266 30.5719 279.266 29.6719V29.1797L277.706 29.4561Z" fill="#687887"/>
<path fill-rule="evenodd" clip-rule="evenodd" d="M305.47 26.0361C307.102 26.0361 308.218 27.3801 308.218 29.0361C308.218 29.2641 308.193 29.4082 308.193 29.4082H303.622C303.706 30.3801 304.51 31.1962 305.722 31.1963C306.466 31.1963 307.186 30.8965 307.906 30.2725V31.3877C307.258 31.8557 306.465 32.1318 305.649 32.1318C303.79 32.1316 302.59 30.7999 302.59 29.084C302.59 27.344 303.79 26.0362 305.47 26.0361ZM305.446 26.9355C304.474 26.9355 303.718 27.7638 303.646 28.5557H307.174C307.09 27.632 306.406 26.9358 305.446 26.9355Z" fill="#687887"/>
<path fill-rule="evenodd" clip-rule="evenodd" d="M315.305 32H314.285V31.0762C313.865 31.7121 313.073 32.1318 312.221 32.1318C310.565 32.1317 309.293 30.8119 309.293 29.084C309.293 27.3681 310.565 26.0363 312.221 26.0361C313.073 26.0361 313.853 26.4079 314.285 27.0439V23.5996H315.305V32ZM312.341 26.9844C311.201 26.9845 310.337 27.908 310.337 29.084C310.337 30.2599 311.201 31.1835 312.341 31.1836C313.481 31.1836 314.345 30.26 314.345 29.084C314.345 27.908 313.481 26.9844 312.341 26.9844Z" fill="#687887"/>
<path d="M321.427 26.168H323.059V27.0918H321.427V30.1758C321.427 30.8597 321.727 31.1718 322.398 31.1719C322.626 31.1719 322.879 31.1121 323.059 30.9922V31.9521C322.855 32.0601 322.555 32.1318 322.159 32.1318C321.055 32.1318 320.395 31.4482 320.395 30.3203V27.0918H319.387V26.96L321.391 24.7998H321.427V26.168Z" fill="#687887"/>
<path fill-rule="evenodd" clip-rule="evenodd" d="M327.001 26.0361C328.753 26.0361 330.049 27.392 330.049 29.084C330.049 30.776 328.753 32.1318 327.001 32.1318C325.249 32.1318 323.953 30.7759 323.953 29.084C323.953 27.392 325.249 26.0362 327.001 26.0361ZM327.001 26.9844C325.861 26.9845 324.997 27.92 324.997 29.084C324.997 30.2479 325.861 31.1835 327.001 31.1836C328.141 31.1836 329.005 30.248 329.005 29.084C329.005 27.92 328.141 26.9844 327.001 26.9844Z" fill="#687887"/>
<path fill-rule="evenodd" clip-rule="evenodd" d="M336.491 26.0361C337.991 26.0361 338.855 26.8639 338.855 28.2197V32H337.884V31.2324C337.428 31.8203 336.719 32.1318 335.951 32.1318C334.919 32.1317 334.188 31.4238 334.188 30.4639C334.188 29.42 334.848 28.7961 336.132 28.5801L337.848 28.292V28.1484C337.848 27.4165 337.332 26.9718 336.468 26.9717C335.676 26.9717 335.087 27.2957 334.487 27.8477V26.7676C335.015 26.3357 335.651 26.0362 336.491 26.0361ZM336.3 29.4561C335.604 29.5881 335.22 29.9003 335.22 30.4043C335.22 30.8961 335.604 31.2197 336.144 31.2197C337.14 31.2197 337.859 30.5719 337.859 29.6719V29.1797L336.3 29.4561Z" fill="#687887"/>
<path d="M298.138 32H297.105V23.5996H298.138V32Z" fill="#687887"/>
<path d="M301.089 32H300.057V26.168H301.089V32Z" fill="#687887"/>
<path d="M341.708 32H340.676V23.5996H341.708V32Z" fill="#687887"/>
<path d="M344.661 32H343.629V23.5996H344.661V32Z" fill="#687887"/>
<path d="M300.573 23.7441C300.957 23.7443 301.269 24.0565 301.269 24.4404C301.268 24.8241 300.957 25.1356 300.573 25.1357C300.189 25.1357 299.877 24.8242 299.877 24.4404C299.877 24.0564 300.189 23.7441 300.573 23.7441Z" fill="#687887"/>
<path d="M242 1C244.761 1 247 3.23858 247 6V50C247 52.7614 244.761 55 242 55H6C3.23858 55 1 52.7614 1 50V6C1 3.23858 3.23858 1 6 1H242Z" fill="white"/>
<path fill-rule="evenodd" clip-rule="evenodd" d="M242 0C245.314 0 248 2.68629 248 6V50L247.992 50.3086C247.832 53.4789 245.21 56 242 56H6L5.69141 55.9922C2.62332 55.8368 0.16325 53.3767 0.0078125 50.3086L0 50V6C2.49662e-07 2.78979 2.52111 0.168429 5.69141 0.0078125L6 0H242ZM6 1C3.23858 1 1 3.23858 1 6V50C1 52.7614 3.23858 55 6 55H242C244.761 55 247 52.7614 247 50V6C247 3.23858 244.761 1 242 1H6Z" fill="#E4E8F0"/>
<path d="M76 9C77.6569 9 79 10.3431 79 12V44C79 45.6569 77.6569 47 76 47H12C10.3431 47 9 45.6569 9 44V12C9 10.3431 10.3431 9 12 9H76Z" fill="#F3F7FB"/>
<path fill-rule="evenodd" clip-rule="evenodd" d="M76.2061 8.00488C78.3194 8.11212 80 9.85996 80 12V44L79.9951 44.2061C79.8913 46.2512 78.2512 47.8913 76.2061 47.9951L76 48H12C9.85996 48 8.11211 46.3194 8.00488 44.2061L8 44V12C8 9.79086 9.79086 8 12 8H76L76.2061 8.00488ZM12 9C10.3431 9 9 10.3431 9 12V44C9 45.6569 10.3431 47 12 47H76C77.6569 47 79 45.6569 79 44V12C79 10.3431 77.6569 9 76 9H12Z" fill="#E4E8F0"/>
<path d="M156 9C157.657 9 159 10.3431 159 12V44C159 45.6569 157.657 47 156 47H92C90.3431 47 89 45.6569 89 44V12C89 10.3431 90.3431 9 92 9H156Z" fill="#F3F7FB"/>
<path fill-rule="evenodd" clip-rule="evenodd" d="M156.206 8.00488C158.319 8.11212 160 9.85996 160 12V44L159.995 44.2061C159.891 46.2512 158.251 47.8913 156.206 47.9951L156 48H92C89.86 48 88.1121 46.3194 88.0049 44.2061L88 44V12C88 9.79086 89.7909 8 92 8H156L156.206 8.00488ZM92 9C90.3431 9 89 10.3431 89 12V44C89 45.6569 90.3431 47 92 47H156C157.657 47 159 45.6569 159 44V12C159 10.3431 157.657 9 156 9H92Z" fill="#E4E8F0"/>
<path d="M236 9C237.657 9 239 10.3431 239 12V44C239 45.6569 237.657 47 236 47H172C170.343 47 169 45.6569 169 44V12C169 10.3431 170.343 9 172 9H236Z" fill="#F3F7FB"/>
<path fill-rule="evenodd" clip-rule="evenodd" d="M236.206 8.00488C238.319 8.11212 240 9.85996 240 12V44L239.995 44.2061C239.891 46.2512 238.251 47.8913 236.206 47.9951L236 48H172C169.86 48 168.112 46.3194 168.005 44.2061L168 44V12C168 9.79086 169.791 8 172 8H236L236.206 8.00488ZM172 9C170.343 9 169 10.3431 169 12V44C169 45.6569 170.343 47 172 47H236C237.657 47 239 45.6569 239 44V12C239 10.3431 237.657 9 236 9H172Z" fill="#E4E8F0"/>
<path d="M45.759 32.8344H43.465V24.6659L41.543 25.4099V23.1624L43.9455 22.1859H45.759V32.8344Z" fill="#242B42"/>
<path d="M128.119 32.8345H120.896V31.207L124.384 27.7505C125.376 26.7895 125.655 26.2935 125.655 25.5805C125.655 24.728 124.926 24.1235 123.903 24.1235C122.911 24.1235 121.981 24.6815 121.144 25.596V23.1625C121.966 22.4185 123.035 22 124.089 22C126.228 22 127.949 23.302 127.949 25.3325C127.949 26.743 127.36 27.7815 126.011 29.0215L124.105 30.7885H128.119V32.8345Z" fill="#242B42"/>
<path d="M208.007 29.657C208.007 31.672 206.41 33.036 203.977 33.036C202.938 33.036 201.962 32.7725 201.078 32.23V29.905C201.962 30.6025 202.861 30.9435 203.791 30.9435C204.922 30.9435 205.713 30.432 205.713 29.533C205.713 28.7425 204.969 28.2 203.868 28.2H202.861V26.402H203.822C204.721 26.402 205.341 25.906 205.341 25.255C205.341 24.511 204.612 24.077 203.744 24.077C202.892 24.077 202.117 24.4025 201.295 25.069V22.7905C202.07 22.2635 202.985 22 203.93 22C206.038 22 207.588 23.116 207.588 24.976C207.588 25.968 207.077 26.712 206.271 27.1615C207.371 27.611 208.007 28.4945 208.007 29.657Z" fill="#242B42"/>
</svg>
