<svg width="381" height="120" viewBox="0 0 381 120" fill="none" xmlns="http://www.w3.org/2000/svg">
<path d="M243 1C245.761 1 248 3.23858 248 6V50C248 52.7614 245.761 55 243 55H7C4.23858 55 2 52.7614 2 50V6C2 3.23858 4.23858 1 7 1H243Z" fill="white"/>
<path fill-rule="evenodd" clip-rule="evenodd" d="M243 0C246.314 0 249 2.68629 249 6V50L248.992 50.3086C248.832 53.4789 246.21 56 243 56H7L6.69141 55.9922C3.62332 55.8368 1.16325 53.3767 1.00781 50.3086L1 50V6C1 2.78979 3.52111 0.168429 6.69141 0.0078125L7 0H243ZM7 1C4.23858 1 2 3.23858 2 6V50C2 52.7614 4.23858 55 7 55H243C245.761 55 248 52.7614 248 50V6C248 3.23858 245.761 1 243 1H7Z" fill="#E4E8F0"/>
<path fill-rule="evenodd" clip-rule="evenodd" d="M141 8C143.209 8 145 9.79086 145 12V44C145 46.2089 143.209 48 141 48H13C10.791 48 9.00026 46.2089 9 44V12C9 9.79086 10.7909 8 13 8H141ZM13 9C11.3431 9 10 10.3431 10 12V44C10.0003 45.6566 11.3433 47 13 47H141C142.657 47 144 45.6566 144 44V12C144 10.3431 142.657 9 141 9H13Z" fill="#0056CF"/>
<path d="M141 9C142.657 9 144 10.3431 144 12V44C144 45.6566 142.657 47 141 47H13C11.3433 47 10.0003 45.6566 10 44V12C10 10.3431 11.3431 9 13 9H141Z" fill="#F3F7FB"/>
<path fill-rule="evenodd" clip-rule="evenodd" d="M189 8C191.209 8 193 9.79086 193 12V44C193 46.2089 191.209 48 189 48H157C154.791 48 153 46.2089 153 44V12C153 9.79086 154.791 8 157 8H189ZM157 9C155.343 9 154 10.3431 154 12V44C154 45.6566 155.343 47 157 47H189C190.657 47 192 45.6566 192 44V12C192 10.3431 190.657 9 189 9H157Z" fill="#E4E8F0"/>
<path d="M189 9C190.657 9 192 10.3431 192 12V44C192 45.6566 190.657 47 189 47H157C155.343 47 154 45.6566 154 44V12C154 10.3431 155.343 9 157 9H189Z" fill="#F3F7FB"/>
<path fill-rule="evenodd" clip-rule="evenodd" d="M237 8C239.209 8 241 9.79086 241 12V44C241 46.2089 239.209 48 237 48H205C202.791 48 201 46.2089 201 44V12C201 9.79086 202.791 8 205 8H237ZM205 9C203.343 9 202 10.3431 202 12V44C202 45.6566 203.343 47 205 47H237C238.657 47 240 45.6566 240 44V12C240 10.3431 238.657 9 237 9H205Z" fill="#E4E8F0"/>
<path d="M237 9C238.657 9 240 10.3431 240 12V44C240 45.6566 238.657 47 237 47H205C203.343 47 202 45.6566 202 44V12C202 10.3431 203.343 9 205 9H237Z" fill="#F3F7FB"/>
<path d="M79.216 33.4999H76.922V25.3314L75 26.0754V23.8279L77.4025 22.8514H79.216V33.4999Z" fill="#242B42"/>
<path d="M176.612 33.4173H169.389V31.7898L172.876 28.3333C173.868 27.3723 174.147 26.8763 174.147 26.1633C174.147 25.3108 173.419 24.7063 172.396 24.7063C171.404 24.7063 170.474 25.2643 169.637 26.1788V23.7453C170.458 23.0013 171.528 22.5828 172.582 22.5828C174.721 22.5828 176.441 23.8848 176.441 25.9153C176.441 27.3258 175.852 28.3643 174.504 29.6043L172.597 31.3713H176.612V33.4173Z" fill="#242B42"/>
<path d="M224.464 30.1391C224.464 32.1541 222.867 33.5181 220.434 33.5181C219.395 33.5181 218.419 33.2546 217.535 32.7121V30.3871C218.419 31.0846 219.318 31.4256 220.248 31.4256C221.379 31.4256 222.17 30.9141 222.17 30.0151C222.17 29.2246 221.426 28.6821 220.325 28.6821H219.318V26.8841H220.279C221.178 26.8841 221.798 26.3881 221.798 25.7371C221.798 24.9931 221.069 24.5591 220.201 24.5591C219.349 24.5591 218.574 24.8846 217.752 25.5511V23.2726C218.527 22.7456 219.442 22.4821 220.387 22.4821C222.495 22.4821 224.045 23.5981 224.045 25.4581C224.045 26.4501 223.534 27.1941 222.728 27.6436C223.828 28.0931 224.464 28.9766 224.464 30.1391Z" fill="#242B42"/>
<path d="M348.357 50.188H347.661L348.225 49H348.201C347.877 49 347.601 48.724 347.601 48.364C347.601 47.956 347.937 47.656 348.345 47.656C348.741 47.656 349.077 47.968 349.077 48.364C349.077 48.604 348.993 48.808 348.885 49.048L348.357 50.188ZM349.077 44.032C349.077 44.44 348.753 44.764 348.345 44.764C347.937 44.764 347.613 44.44 347.613 44.032C347.613 43.636 347.937 43.312 348.345 43.312C348.753 43.312 349.077 43.636 349.077 44.032Z" fill="#687887"/>
<path d="M343.237 43.036C344.989 43.036 346.285 44.392 346.285 46.084C346.285 47.776 344.989 49.132 343.237 49.132C341.485 49.132 340.189 47.776 340.189 46.084C340.189 44.392 341.485 43.036 343.237 43.036ZM343.237 43.984C342.097 43.984 341.233 44.92 341.233 46.084C341.233 47.248 342.097 48.184 343.237 48.184C344.377 48.184 345.241 47.248 345.241 46.084C345.241 44.92 344.377 43.984 343.237 43.984Z" fill="#687887"/>
<path d="M335.622 43.96L337.626 41.8H337.662V43.168H339.294V44.092H337.662V47.176C337.662 47.86 337.962 48.172 338.634 48.172C338.862 48.172 339.114 48.112 339.294 47.992V48.952C339.09 49.06 338.79 49.132 338.394 49.132C337.29 49.132 336.63 48.448 336.63 47.32V44.092H335.622V43.96Z" fill="#687887"/>
<path d="M333.451 46.216V43.168H334.483V49H333.451V48.16C333.091 48.736 332.479 49.132 331.603 49.132C330.127 49.132 329.275 48.136 329.275 46.588V43.168H330.307V46.468C330.307 47.512 330.835 48.172 331.819 48.172C332.803 48.172 333.451 47.404 333.451 46.216Z" fill="#687887"/>
<path d="M326.566 45.292V45.148C326.566 44.416 326.05 43.972 325.186 43.972C324.394 43.972 323.806 44.296 323.206 44.848V43.768C323.734 43.336 324.37 43.036 325.21 43.036C326.71 43.036 327.574 43.864 327.574 45.22V49H326.602V48.232C326.146 48.82 325.438 49.132 324.67 49.132C323.638 49.132 322.906 48.424 322.906 47.464C322.906 46.42 323.566 45.796 324.85 45.58L326.566 45.292ZM323.938 47.404C323.938 47.896 324.322 48.22 324.862 48.22C325.858 48.22 326.578 47.572 326.578 46.672V46.18L325.018 46.456C324.322 46.588 323.938 46.9 323.938 47.404Z" fill="#687887"/>
<path d="M318.525 44.032C318.525 44.44 318.201 44.764 317.793 44.764C317.385 44.764 317.061 44.44 317.061 44.032C317.061 43.636 317.385 43.312 317.793 43.312C318.201 43.312 318.525 43.636 318.525 44.032ZM318.525 48.376C318.525 48.784 318.201 49.108 317.793 49.108C317.385 49.108 317.061 48.784 317.061 48.376C317.061 47.98 317.385 47.656 317.793 47.656C318.201 47.656 318.525 47.98 318.525 48.376Z" fill="#687887"/>
<path d="M311.783 48.532V47.392C312.311 47.872 312.995 48.208 313.703 48.208C314.291 48.208 314.831 48.004 314.831 47.404C314.831 46.804 314.267 46.6 313.535 46.444C312.695 46.264 311.771 45.928 311.771 44.8C311.771 43.624 312.767 43.036 313.811 43.036C314.435 43.036 315.059 43.228 315.575 43.576V44.668C315.059 44.248 314.459 43.948 313.835 43.948C313.343 43.948 312.779 44.14 312.779 44.68C312.779 45.208 313.283 45.436 313.955 45.604C315.035 45.868 315.851 46.264 315.851 47.32C315.851 48.508 314.855 49.132 313.691 49.132C313.055 49.132 312.335 48.94 311.783 48.532Z" fill="#687887"/>
<path d="M310.438 41.44C310.438 41.824 310.126 42.136 309.742 42.136C309.358 42.136 309.046 41.824 309.046 41.44C309.046 41.056 309.358 40.744 309.742 40.744C310.126 40.744 310.438 41.056 310.438 41.44ZM309.226 43.168H310.258V49H309.226V43.168Z" fill="#687887"/>
<path d="M303.767 48.532V47.392C304.295 47.872 304.979 48.208 305.687 48.208C306.275 48.208 306.815 48.004 306.815 47.404C306.815 46.804 306.251 46.6 305.519 46.444C304.679 46.264 303.755 45.928 303.755 44.8C303.755 43.624 304.751 43.036 305.795 43.036C306.419 43.036 307.043 43.228 307.559 43.576V44.668C307.043 44.248 306.443 43.948 305.819 43.948C305.327 43.948 304.763 44.14 304.763 44.68C304.763 45.208 305.267 45.436 305.939 45.604C307.019 45.868 307.835 46.264 307.835 47.32C307.835 48.508 306.839 49.132 305.675 49.132C305.039 49.132 304.319 48.94 303.767 48.532Z" fill="#687887"/>
<path d="M301.371 45.292V45.148C301.371 44.416 300.855 43.972 299.991 43.972C299.199 43.972 298.611 44.296 298.011 44.848V43.768C298.539 43.336 299.175 43.036 300.015 43.036C301.515 43.036 302.379 43.864 302.379 45.22V49H301.407V48.232C300.951 48.82 300.243 49.132 299.475 49.132C298.443 49.132 297.711 48.424 297.711 47.464C297.711 46.42 298.371 45.796 299.655 45.58L301.371 45.292ZM298.743 47.404C298.743 47.896 299.127 48.22 299.667 48.22C300.663 48.22 301.383 47.572 301.383 46.672V46.18L299.823 46.456C299.127 46.588 298.743 46.9 298.743 47.404Z" fill="#687887"/>
<path d="M291.554 49H290.534V40.6H291.554V44.092C291.974 43.456 292.766 43.036 293.618 43.036C295.274 43.036 296.546 44.356 296.546 46.084C296.546 47.8 295.274 49.132 293.618 49.132C292.766 49.132 291.986 48.76 291.554 48.124V49ZM295.502 46.084C295.502 44.908 294.638 43.984 293.498 43.984C292.358 43.984 291.494 44.908 291.494 46.084C291.494 47.26 292.358 48.184 293.498 48.184C294.638 48.184 295.502 47.26 295.502 46.084Z" fill="#687887"/>
<path d="M285.208 46.312V45.376H288.856V46.312H285.208Z" fill="#687887"/>
<path d="M283.061 49L281.465 46.744L279.857 49H278.693L280.865 46.024L278.789 43.168H279.989L281.489 45.28L283.001 43.168H284.177L282.101 46L284.273 49H283.061Z" fill="#687887"/>
<path d="M277.958 47.272V48.388C277.31 48.856 276.518 49.132 275.702 49.132C273.842 49.132 272.642 47.8 272.642 46.084C272.642 44.344 273.842 43.036 275.522 43.036C277.154 43.036 278.27 44.38 278.27 46.036C278.27 46.264 278.246 46.408 278.246 46.408H273.674C273.758 47.38 274.562 48.196 275.774 48.196C276.518 48.196 277.238 47.896 277.958 47.272ZM273.698 45.556H277.226C277.142 44.632 276.458 43.936 275.498 43.936C274.526 43.936 273.77 44.764 273.698 45.556Z" fill="#687887"/>
<path d="M270.109 40.6H271.141V49H270.109V40.6Z" fill="#687887"/>
<path d="M267.256 49H266.224V44.092H265.324V43.168H266.224V42.664C266.224 41.176 267.076 40.456 268.228 40.456C268.648 40.456 268.924 40.528 269.104 40.6V41.524C268.924 41.452 268.696 41.404 268.396 41.404C267.748 41.404 267.256 41.728 267.256 42.64V43.168H268.888V44.092H267.256V49Z" fill="#687887"/>
<path d="M333.755 32.188H333.059L333.623 31H333.599C333.275 31 332.999 30.724 332.999 30.364C332.999 29.956 333.335 29.656 333.743 29.656C334.139 29.656 334.475 29.968 334.475 30.364C334.475 30.604 334.391 30.808 334.283 31.048L333.755 32.188ZM334.475 26.032C334.475 26.44 334.151 26.764 333.743 26.764C333.335 26.764 333.011 26.44 333.011 26.032C333.011 25.636 333.335 25.312 333.743 25.312C334.151 25.312 334.475 25.636 334.475 26.032Z" fill="#687887"/>
<path d="M331.129 31H330.073V23.944L328.585 24.556V23.476L330.265 22.756H331.129V31Z" fill="#687887"/>
<path d="M324.408 26.032C324.408 26.44 324.084 26.764 323.676 26.764C323.268 26.764 322.944 26.44 322.944 26.032C322.944 25.636 323.268 25.312 323.676 25.312C324.084 25.312 324.408 25.636 324.408 26.032ZM324.408 30.376C324.408 30.784 324.084 31.108 323.676 31.108C323.268 31.108 322.944 30.784 322.944 30.376C322.944 29.98 323.268 29.656 323.676 29.656C324.084 29.656 324.408 29.98 324.408 30.376Z" fill="#687887"/>
<path d="M318.051 22.6V27.484L320.499 25.168H321.819L319.167 27.652L322.047 31H320.739L318.447 28.288L318.051 28.66V31H317.031V22.6H318.051Z" fill="#687887"/>
<path d="M310.984 27.952V31H309.952V25.168H310.984V26.008C311.344 25.432 311.968 25.036 312.844 25.036C314.332 25.036 315.196 26.032 315.196 27.58V31H314.164V27.7C314.164 26.656 313.624 25.996 312.628 25.996C311.632 25.996 310.984 26.764 310.984 27.952Z" fill="#687887"/>
<path d="M308.211 23.44C308.211 23.824 307.899 24.136 307.515 24.136C307.131 24.136 306.819 23.824 306.819 23.44C306.819 23.056 307.131 22.744 307.515 22.744C307.899 22.744 308.211 23.056 308.211 23.44ZM306.999 25.168H308.031V31H306.999V25.168Z" fill="#687887"/>
<path d="M305.723 25.096V26.128C305.723 26.128 305.615 26.104 305.435 26.104C304.355 26.104 303.695 26.968 303.695 28.228V31H302.675V25.168H303.683V26.2C303.947 25.528 304.703 25.072 305.471 25.072C305.615 25.072 305.723 25.096 305.723 25.096Z" fill="#687887"/>
<path d="M296.629 27.952V31H295.597V22.6H296.629V26.008C296.989 25.432 297.613 25.036 298.489 25.036C299.977 25.036 300.841 26.032 300.841 27.58V31H299.809V27.7C299.809 26.656 299.269 25.996 298.273 25.996C297.277 25.996 296.629 26.764 296.629 27.952Z" fill="#687887"/>
<path d="M290.138 30.532V29.392C290.666 29.872 291.35 30.208 292.058 30.208C292.646 30.208 293.186 30.004 293.186 29.404C293.186 28.804 292.622 28.6 291.89 28.444C291.05 28.264 290.126 27.928 290.126 26.8C290.126 25.624 291.122 25.036 292.166 25.036C292.79 25.036 293.414 25.228 293.93 25.576V26.668C293.414 26.248 292.814 25.948 292.19 25.948C291.698 25.948 291.134 26.14 291.134 26.68C291.134 27.208 291.638 27.436 292.31 27.604C293.39 27.868 294.206 28.264 294.206 29.32C294.206 30.508 293.21 31.132 292.046 31.132C291.41 31.132 290.69 30.94 290.138 30.532Z" fill="#687887"/>
<path d="M285.208 28.312V27.376H288.856V28.312H285.208Z" fill="#687887"/>
<path d="M283.061 31L281.465 28.744L279.857 31H278.693L280.865 28.024L278.789 25.168H279.989L281.489 27.28L283.001 25.168H284.177L282.101 28L284.273 31H283.061Z" fill="#687887"/>
<path d="M277.958 29.272V30.388C277.31 30.856 276.518 31.132 275.702 31.132C273.842 31.132 272.642 29.8 272.642 28.084C272.642 26.344 273.842 25.036 275.522 25.036C277.154 25.036 278.27 26.38 278.27 28.036C278.27 28.264 278.246 28.408 278.246 28.408H273.674C273.758 29.38 274.562 30.196 275.774 30.196C276.518 30.196 277.238 29.896 277.958 29.272ZM273.698 27.556H277.226C277.142 26.632 276.458 25.936 275.498 25.936C274.526 25.936 273.77 26.764 273.698 27.556Z" fill="#687887"/>
<path d="M270.109 22.6H271.141V31H270.109V22.6Z" fill="#687887"/>
<path d="M267.256 31H266.224V26.092H265.324V25.168H266.224V24.664C266.224 23.176 267.076 22.456 268.228 22.456C268.648 22.456 268.924 22.528 269.104 22.6V23.524C268.924 23.452 268.696 23.404 268.396 23.404C267.748 23.404 267.256 23.728 267.256 24.64V25.168H268.888V26.092H267.256V31Z" fill="#687887"/>
<path d="M328.071 14.188H327.375L327.939 13H327.915C327.591 13 327.315 12.724 327.315 12.364C327.315 11.956 327.651 11.656 328.059 11.656C328.455 11.656 328.791 11.968 328.791 12.364C328.791 12.604 328.707 12.808 328.599 13.048L328.071 14.188ZM328.791 8.03199C328.791 8.43999 328.467 8.76399 328.059 8.76399C327.651 8.76399 327.327 8.43999 327.327 8.03199C327.327 7.63599 327.651 7.31199 328.059 7.31199C328.467 7.31199 328.791 7.63599 328.791 8.03199Z" fill="#687887"/>
<path d="M325.446 13H324.39V5.94399L322.902 6.55599V5.47599L324.582 4.75599H325.446V13Z" fill="#687887"/>
<path d="M318.725 8.03199C318.725 8.43999 318.401 8.76399 317.993 8.76399C317.585 8.76399 317.261 8.43999 317.261 8.03199C317.261 7.63599 317.585 7.31199 317.993 7.31199C318.401 7.31199 318.725 7.63599 318.725 8.03199ZM318.725 12.376C318.725 12.784 318.401 13.108 317.993 13.108C317.585 13.108 317.261 12.784 317.261 12.376C317.261 11.98 317.585 11.656 317.993 11.656C318.401 11.656 318.725 11.98 318.725 12.376Z" fill="#687887"/>
<path d="M314.045 13H313.253L311.717 8.67999L310.181 13H309.389L307.217 7.16799H308.285L309.809 11.536L311.357 7.16799H312.101L313.649 11.536L315.173 7.16799H316.217L314.045 13Z" fill="#687887"/>
<path d="M303.487 7.03599C305.239 7.03599 306.535 8.39199 306.535 10.084C306.535 11.776 305.239 13.132 303.487 13.132C301.735 13.132 300.439 11.776 300.439 10.084C300.439 8.39199 301.735 7.03599 303.487 7.03599ZM303.487 7.98399C302.347 7.98399 301.483 8.91999 301.483 10.084C301.483 11.248 302.347 12.184 303.487 12.184C304.627 12.184 305.491 11.248 305.491 10.084C305.491 8.91999 304.627 7.98399 303.487 7.98399Z" fill="#687887"/>
<path d="M299.817 7.09599V8.12799C299.817 8.12799 299.709 8.10399 299.529 8.10399C298.449 8.10399 297.789 8.96799 297.789 10.228V13H296.769V7.16799H297.777V8.19999C298.041 7.52799 298.797 7.07199 299.565 7.07199C299.709 7.07199 299.817 7.09599 299.817 7.09599Z" fill="#687887"/>
<path d="M290.424 9.18399C290.424 7.91199 291.468 7.03599 292.68 7.03599C292.956 7.03599 293.22 7.08399 293.472 7.16799H295.476V8.05599H294.612C294.816 8.37999 294.936 8.76399 294.936 9.18399C294.936 10.468 293.892 11.32 292.68 11.32C292.32 11.32 291.984 11.248 291.672 11.116C291.276 11.236 291.156 11.464 291.156 11.68C291.156 12.028 291.468 12.16 291.936 12.16H293.556C294.804 12.16 295.596 12.688 295.596 13.648C295.596 15.004 294.156 15.64 292.584 15.64C291.084 15.64 289.98 15.16 289.98 13.996C289.98 13.444 290.352 13 290.724 12.76C290.4 12.532 290.256 12.196 290.256 11.824C290.256 11.176 290.652 10.864 291 10.648C290.64 10.288 290.424 9.78399 290.424 9.18399ZM294.636 13.744C294.636 13.24 294.192 13.072 293.316 13.072H291.876C291.732 13.072 291.612 13.06 291.492 13.048C291.132 13.24 290.928 13.528 290.928 13.876C290.928 14.548 291.672 14.824 292.608 14.824C293.784 14.824 294.636 14.44 294.636 13.744ZM291.372 9.18399C291.372 9.95199 291.948 10.468 292.68 10.468C293.412 10.468 293.988 9.95199 293.988 9.18399C293.988 8.43999 293.412 7.89999 292.68 7.89999C291.948 7.89999 291.372 8.43999 291.372 9.18399Z" fill="#687887"/>
<path d="M285.208 10.312V9.37599H288.856V10.312H285.208Z" fill="#687887"/>
<path d="M283.061 13L281.465 10.744L279.857 13H278.693L280.865 10.024L278.789 7.16799H279.989L281.489 9.27999L283.001 7.16799H284.177L282.101 9.99999L284.273 13H283.061Z" fill="#687887"/>
<path d="M277.958 11.272V12.388C277.31 12.856 276.518 13.132 275.702 13.132C273.842 13.132 272.642 11.8 272.642 10.084C272.642 8.34399 273.842 7.03599 275.522 7.03599C277.154 7.03599 278.27 8.37999 278.27 10.036C278.27 10.264 278.246 10.408 278.246 10.408H273.674C273.758 11.38 274.562 12.196 275.774 12.196C276.518 12.196 277.238 11.896 277.958 11.272ZM273.698 9.55599H277.226C277.142 8.63199 276.458 7.93599 275.498 7.93599C274.526 7.93599 273.77 8.76399 273.698 9.55599Z" fill="#687887"/>
<path d="M270.109 4.59999H271.141V13H270.109V4.59999Z" fill="#687887"/>
<path d="M267.256 13H266.224V8.09199H265.324V7.16799H266.224V6.66399C266.224 5.17599 267.076 4.45599 268.228 4.45599C268.648 4.45599 268.924 4.52799 269.104 4.59999V5.52399C268.924 5.45199 268.696 5.40399 268.396 5.40399C267.748 5.40399 267.256 5.72799 267.256 6.63999V7.16799H268.888V8.09199H267.256V13Z" fill="#687887"/>
<path d="M148 64.866C150.761 64.866 153 67.1046 153 69.866V113.866C153 116.627 150.761 118.866 148 118.866H6.5C3.73858 118.866 1.5 116.627 1.5 113.866V69.866C1.5 67.1046 3.73858 64.866 6.5 64.866H148Z" fill="white"/>
<path fill-rule="evenodd" clip-rule="evenodd" d="M148 63.866C151.314 63.866 154 66.5523 154 69.866V113.866L153.992 114.175C153.832 117.345 151.21 119.866 148 119.866H6.5L6.19141 119.858C3.12332 119.703 0.66325 117.243 0.507812 114.175L0.5 113.866V69.866C0.5 66.6558 3.02111 64.0345 6.19141 63.8738L6.5 63.866H148ZM6.5 64.866C3.73858 64.866 1.5 67.1046 1.5 69.866V113.866C1.5 116.627 3.73858 118.866 6.5 118.866H148C150.761 118.866 153 116.627 153 113.866V69.866C153 67.1046 150.761 64.866 148 64.866H6.5Z" fill="#E4E8F0"/>
<path fill-rule="evenodd" clip-rule="evenodd" d="M45 72C47.2091 72 49 73.7909 49 76V108C48.9997 110.209 47.209 112 45 112H13C10.791 112 9.00026 110.209 9 108V76C9 73.7909 10.7909 72 13 72H45ZM13 73C11.3431 73 10 74.3431 10 76V108C10.0003 109.657 11.3433 111 13 111H45C46.6567 111 47.9997 109.657 48 108V76C48 74.3431 46.6569 73 45 73H13Z" fill="#0056CF"/>
<path d="M45 73C46.6569 73 48 74.3431 48 76V108C47.9997 109.657 46.6567 111 45 111H13C11.3433 111 10.0003 109.657 10 108V76C10 74.3431 11.3431 73 13 73H45Z" fill="#F3F7FB"/>
<path fill-rule="evenodd" clip-rule="evenodd" d="M93 72C95.2091 72 97 73.7909 97 76V108C96.9997 110.209 95.209 112 93 112H61C58.791 112 57.0003 110.209 57 108V76C57 73.7909 58.7909 72 61 72H93ZM61 73C59.3431 73 58 74.3431 58 76V108C58.0003 109.657 59.3433 111 61 111H93C94.6567 111 95.9997 109.657 96 108V76C96 74.3431 94.6569 73 93 73H61Z" fill="#E4E8F0"/>
<path d="M93 73C94.6569 73 96 74.3431 96 76V108C95.9997 109.657 94.6567 111 93 111H61C59.3433 111 58.0003 109.657 58 108V76C58 74.3431 59.3431 73 61 73H93Z" fill="#F3F7FB"/>
<path fill-rule="evenodd" clip-rule="evenodd" d="M141 72C143.209 72 145 73.7909 145 76V108C145 110.209 143.209 112 141 112H109C106.791 112 105 110.209 105 108V76C105 73.7909 106.791 72 109 72H141ZM109 73C107.343 73 106 74.3431 106 76V108C106 109.657 107.343 111 109 111H141C142.657 111 144 109.657 144 108V76C144 74.3431 142.657 73 141 73H109Z" fill="#E4E8F0"/>
<path d="M141 73C142.657 73 144 74.3431 144 76V108C144 109.657 142.657 111 141 111H109C107.343 111 106 109.657 106 108V76C106 74.3431 107.343 73 109 73H141Z" fill="#F3F7FB"/>
<path d="M30.6808 97.4999H28.3868V89.3314L26.4648 90.0754V87.8279L28.8673 86.8514H30.6808V97.4999Z" fill="#242B42"/>
<path d="M80.6117 97.4173H73.3887V95.7898L76.8762 92.3333C77.8682 91.3723 78.1472 90.8763 78.1472 90.1633C78.1472 89.3108 77.4187 88.7063 76.3957 88.7063C75.4037 88.7063 74.4737 89.2643 73.6367 90.1788V87.7453C74.4582 87.0013 75.5277 86.5828 76.5817 86.5828C78.7207 86.5828 80.4412 87.8848 80.4412 89.9153C80.4412 91.3258 79.8522 92.3643 78.5037 93.6043L76.5972 95.3713H80.6117V97.4173Z" fill="#242B42"/>
<path d="M128.464 94.1391C128.464 96.1541 126.867 97.5181 124.434 97.5181C123.395 97.5181 122.419 97.2546 121.535 96.7121V94.3871C122.419 95.0846 123.318 95.4256 124.248 95.4256C125.379 95.4256 126.17 94.9141 126.17 94.0151C126.17 93.2246 125.426 92.6821 124.325 92.6821H123.318V90.8841H124.279C125.178 90.8841 125.798 90.3881 125.798 89.7371C125.798 88.9931 125.069 88.5591 124.201 88.5591C123.349 88.5591 122.574 88.8846 121.752 89.5511V87.2726C122.527 86.7456 123.442 86.4821 124.387 86.4821C126.495 86.4821 128.045 87.5981 128.045 89.4581C128.045 90.4501 127.534 91.1941 126.728 91.6436C127.828 92.0931 128.464 92.9766 128.464 94.1391Z" fill="#242B42"/>
</svg>
