<svg width="380" height="56" viewBox="0 0 380 56" fill="none" xmlns="http://www.w3.org/2000/svg">
<path d="M242 1C244.761 1 247 3.23858 247 6V50C247 52.7614 244.761 55 242 55H6C3.23858 55 1 52.7614 1 50V6C1 3.23858 3.23858 1 6 1H242Z" fill="white"/>
<path fill-rule="evenodd" clip-rule="evenodd" d="M242 0C245.314 0 248 2.68629 248 6V50L247.992 50.3086C247.832 53.4789 245.21 56 242 56H6L5.69141 55.9922C2.62332 55.8368 0.16325 53.3767 0.0078125 50.3086L0 50V6C2.49662e-07 2.78979 2.52111 0.168429 5.69141 0.0078125L6 0H242ZM6 1C3.23858 1 1 3.23858 1 6V50C1 52.7614 3.23858 55 6 55H242C244.761 55 247 52.7614 247 50V6C247 3.23858 244.761 1 242 1H6Z" fill="#E4E8F0"/>
<path fill-rule="evenodd" clip-rule="evenodd" d="M44 8C46.2091 8 48 9.79086 48 12V44C47.9997 46.2089 46.209 48 44 48H12C9.79102 48 8.00026 46.2089 8 44V12C8 9.79086 9.79086 8 12 8H44ZM12 9C10.3431 9 9 10.3431 9 12V44C9.00026 45.6566 10.3433 47 12 47H44C45.6567 47 46.9997 45.6566 47 44V12C47 10.3431 45.6569 9 44 9H12Z" fill="#E4E8F0"/>
<path d="M44 9C45.6569 9 47 10.3431 47 12V44C46.9997 45.6566 45.6567 47 44 47H12C10.3433 47 9.00026 45.6566 9 44V12C9 10.3431 10.3431 9 12 9H44Z" fill="#F3F7FB"/>
<path fill-rule="evenodd" clip-rule="evenodd" d="M92 8C94.2091 8 96 9.79086 96 12V44C95.9997 46.2089 94.209 48 92 48H60C57.791 48 56.0003 46.2089 56 44V12C56 9.79086 57.7909 8 60 8H92ZM60 9C58.3431 9 57 10.3431 57 12V44C57.0003 45.6566 58.3433 47 60 47H92C93.6567 47 94.9997 45.6566 95 44V12C95 10.3431 93.6569 9 92 9H60Z" fill="#E4E8F0"/>
<path d="M92 9C93.6569 9 95 10.3431 95 12V44C94.9997 45.6566 93.6567 47 92 47H60C58.3433 47 57.0003 45.6566 57 44V12C57 10.3431 58.3431 9 60 9H92Z" fill="#F3F7FB"/>
<path fill-rule="evenodd" clip-rule="evenodd" d="M140 8C142.209 8 144 9.79086 144 12V44C144 46.2089 142.209 48 140 48H108C105.791 48 104 46.2089 104 44V12C104 9.79086 105.791 8 108 8H140ZM108 9C106.343 9 105 10.3431 105 12V44C105 45.6566 106.343 47 108 47H140C141.657 47 143 45.6566 143 44V12C143 10.3431 141.657 9 140 9H108Z" fill="#E4E8F0"/>
<path d="M140 9C141.657 9 143 10.3431 143 12V44C143 45.6566 141.657 47 140 47H108C106.343 47 105 45.6566 105 44V12C105 10.3431 106.343 9 108 9H140Z" fill="#F3F7FB"/>
<path d="M29.6808 33.4999H27.3868V25.3314L25.4648 26.0754V23.8279L27.8673 22.8514H29.6808V33.4999Z" fill="#242B42"/>
<path d="M79.6117 33.4173H72.3887V31.7898L75.8762 28.3333C76.8682 27.3723 77.1472 26.8763 77.1472 26.1633C77.1472 25.3108 76.4187 24.7063 75.3957 24.7063C74.4037 24.7063 73.4737 25.2643 72.6367 26.1788V23.7453C73.4582 23.0013 74.5277 22.5828 75.5817 22.5828C77.7207 22.5828 79.4412 23.8848 79.4412 25.9153C79.4412 27.3258 78.8522 28.3643 77.5037 29.6043L75.5972 31.3713H79.6117V33.4173Z" fill="#242B42"/>
<path d="M127.464 30.1391C127.464 32.1541 125.867 33.5181 123.434 33.5181C122.395 33.5181 121.419 33.2546 120.535 32.7121V30.3871C121.419 31.0846 122.318 31.4256 123.248 31.4256C124.379 31.4256 125.17 30.9141 125.17 30.0151C125.17 29.2246 124.426 28.6821 123.325 28.6821H122.318V26.8841H123.279C124.178 26.8841 124.798 26.3881 124.798 25.7371C124.798 24.9931 124.069 24.5591 123.201 24.5591C122.349 24.5591 121.574 24.8846 120.752 25.5511V23.2726C121.527 22.7456 122.442 22.4821 123.387 22.4821C125.495 22.4821 127.045 23.5981 127.045 25.4581C127.045 26.4501 126.534 27.1941 125.728 27.6436C126.828 28.0931 127.464 28.9766 127.464 30.1391Z" fill="#242B42"/>
<path d="M347.344 47.6562C347.74 47.6563 348.075 47.9683 348.075 48.3643C348.075 48.6041 347.992 48.808 347.884 49.0479L347.355 50.1885H346.659L347.224 49H347.199C346.875 48.9998 346.6 48.724 346.6 48.3643C346.6 47.9563 346.936 47.6562 347.344 47.6562Z" fill="#687887"/>
<path fill-rule="evenodd" clip-rule="evenodd" d="M274.521 43.0361C276.153 43.0361 277.269 44.3801 277.269 46.0361C277.269 46.2641 277.244 46.4082 277.244 46.4082H272.673C272.757 47.3801 273.561 48.1962 274.772 48.1963C275.516 48.1963 276.237 47.8965 276.957 47.2725V48.3877C276.309 48.8557 275.516 49.1318 274.7 49.1318C272.84 49.1316 271.641 47.7999 271.641 46.084C271.641 44.344 272.841 43.0362 274.521 43.0361ZM274.497 43.9355C273.525 43.9355 272.768 44.7638 272.696 45.5557H276.225C276.14 44.632 275.457 43.9358 274.497 43.9355Z" fill="#687887"/>
<path fill-rule="evenodd" clip-rule="evenodd" d="M290.555 44.0918C290.975 43.4558 291.767 43.0361 292.619 43.0361C294.275 43.0361 295.547 44.356 295.547 46.084C295.547 47.8 294.275 49.1318 292.619 49.1318C291.767 49.1318 290.987 48.76 290.555 48.124V49H289.535V40.5996H290.555V44.0918ZM292.499 43.9844C291.359 43.9844 290.495 44.908 290.495 46.084C290.495 47.2599 291.359 48.1835 292.499 48.1836C293.639 48.1836 294.503 47.26 294.503 46.084C294.503 44.908 293.639 43.9844 292.499 43.9844Z" fill="#687887"/>
<path fill-rule="evenodd" clip-rule="evenodd" d="M299.015 43.0361C300.515 43.0361 301.379 43.8639 301.379 45.2197V49H300.407V48.2324C299.951 48.8203 299.243 49.1318 298.475 49.1318C297.443 49.1317 296.711 48.4238 296.711 47.4639C296.711 46.42 297.371 45.7961 298.655 45.5801L300.371 45.292V45.1484C300.371 44.4165 299.855 43.9718 298.991 43.9717C298.199 43.9717 297.611 44.2957 297.011 44.8477V43.7676C297.539 43.3357 298.175 43.0362 299.015 43.0361ZM298.823 46.4561C298.127 46.5881 297.743 46.9003 297.743 47.4043C297.743 47.8961 298.127 48.2197 298.667 48.2197C299.663 48.2197 300.383 47.5719 300.383 46.6719V46.1797L298.823 46.4561Z" fill="#687887"/>
<path d="M304.796 43.0361C305.42 43.0361 306.044 43.2282 306.56 43.5762V44.668C306.044 44.2482 305.444 43.9484 304.82 43.9482C304.328 43.9482 303.764 44.1399 303.764 44.6797C303.764 45.2076 304.268 45.4365 304.939 45.6045C306.019 45.8685 306.836 46.2643 306.836 47.3203C306.836 48.5081 305.84 49.1318 304.676 49.1318C304.04 49.1318 303.32 48.9402 302.768 48.5322V47.3916C303.295 47.8715 303.98 48.2079 304.688 48.208C305.275 48.208 305.815 48.0041 305.815 47.4043C305.815 46.8043 305.252 46.6003 304.52 46.4443C303.68 46.2643 302.756 45.9277 302.756 44.7998C302.756 43.6239 303.752 43.0361 304.796 43.0361Z" fill="#687887"/>
<path d="M312.812 43.0361C313.435 43.0361 314.059 43.2282 314.575 43.5762V44.668C314.059 44.2482 313.46 43.9484 312.836 43.9482C312.344 43.9482 311.78 44.1399 311.779 44.6797C311.779 45.2076 312.283 45.4365 312.955 45.6045C314.035 45.8685 314.852 46.2643 314.852 47.3203C314.851 48.5081 313.855 49.1318 312.691 49.1318C312.055 49.1318 311.335 48.9402 310.783 48.5322V47.3916C311.311 47.8715 311.995 48.2079 312.703 48.208C313.291 48.208 313.831 48.0041 313.831 47.4043C313.831 46.8043 313.267 46.6003 312.535 46.4443C311.695 46.2643 310.771 45.9277 310.771 44.7998C310.772 43.6239 311.768 43.0361 312.812 43.0361Z" fill="#687887"/>
<path fill-rule="evenodd" clip-rule="evenodd" d="M324.21 43.0361C325.71 43.0361 326.574 43.8639 326.574 45.2197V49H325.603V48.2324C325.147 48.8203 324.438 49.1318 323.67 49.1318C322.638 49.1317 321.906 48.4238 321.906 47.4639C321.906 46.42 322.567 45.7961 323.851 45.5801L325.566 45.292V45.1484C325.566 44.4165 325.05 43.9718 324.187 43.9717C323.395 43.9717 322.806 44.2957 322.206 44.8477V43.7676C322.734 43.3357 323.37 43.0362 324.21 43.0361ZM324.019 46.4561C323.323 46.5881 322.938 46.9003 322.938 47.4043C322.939 47.8961 323.322 48.2197 323.862 48.2197C324.858 48.2197 325.578 47.5719 325.578 46.6719V46.1797L324.019 46.4561Z" fill="#687887"/>
<path d="M329.308 46.4678C329.308 47.5118 329.835 48.1719 330.819 48.1719C331.803 48.1719 332.451 47.4038 332.451 46.2158V43.168H333.483V49H332.451V48.1602C332.091 48.736 331.479 49.1318 330.604 49.1318C329.128 49.1318 328.275 48.1359 328.275 46.5879V43.168H329.308V46.4678Z" fill="#687887"/>
<path d="M336.661 43.168H338.293V44.0918H336.661V47.1758C336.661 47.8597 336.961 48.1718 337.633 48.1719C337.861 48.1719 338.113 48.1121 338.293 47.9922V48.9521C338.089 49.0601 337.789 49.1318 337.394 49.1318C336.29 49.1318 335.629 48.4481 335.629 47.3203V44.0918H334.621V43.96L336.625 41.7998H336.661V43.168Z" fill="#687887"/>
<path fill-rule="evenodd" clip-rule="evenodd" d="M342.235 43.0361C343.987 43.0361 345.283 44.392 345.283 46.084C345.283 47.776 343.987 49.1318 342.235 49.1318C340.483 49.1318 339.188 47.7759 339.188 46.084C339.188 44.392 340.483 43.0362 342.235 43.0361ZM342.235 43.9844C341.095 43.9845 340.231 44.92 340.231 46.084C340.231 47.2479 341.095 48.1835 342.235 48.1836C343.375 48.1836 344.239 47.248 344.239 46.084C344.239 44.92 343.375 43.9844 342.235 43.9844Z" fill="#687887"/>
<path d="M316.793 47.6562C317.201 47.6565 317.524 47.9801 317.524 48.376C317.524 48.7838 317.201 49.1082 316.793 49.1084C316.385 49.1084 316.061 48.784 316.061 48.376C316.061 47.98 316.385 47.6562 316.793 47.6562Z" fill="#687887"/>
<path d="M267.229 40.4561C267.648 40.4561 267.925 40.5276 268.104 40.5996V41.5244C267.925 41.4524 267.696 41.4043 267.396 41.4043C266.749 41.4043 266.256 41.7279 266.256 42.6396V43.168H267.889V44.0918H266.256V49H265.225V44.0918H264.324V43.168H265.225V42.6641C265.225 41.1761 266.077 40.4561 267.229 40.4561Z" fill="#687887"/>
<path d="M270.142 49H269.109V40.5996H270.142V49Z" fill="#687887"/>
<path d="M280.489 45.2803L282.001 43.168H283.178L281.102 46L283.273 49H282.062L280.466 46.7441L278.857 49H277.693L279.865 46.0244L277.789 43.168H278.989L280.489 45.2803Z" fill="#687887"/>
<path d="M309.257 49H308.225V43.168H309.257V49Z" fill="#687887"/>
<path d="M287.857 46.3115H284.209V45.376H287.857V46.3115Z" fill="#687887"/>
<path d="M316.793 43.3125C317.201 43.3127 317.524 43.6364 317.524 44.0322C317.524 44.44 317.201 44.7634 316.793 44.7637C316.385 44.7637 316.061 44.4401 316.061 44.0322C316.061 43.6362 316.385 43.3125 316.793 43.3125Z" fill="#687887"/>
<path d="M347.344 43.3125C347.752 43.3126 348.075 43.6363 348.075 44.0322C348.075 44.4401 347.752 44.7636 347.344 44.7637C346.936 44.7637 346.611 44.4401 346.611 44.0322C346.611 43.6362 346.936 43.3125 347.344 43.3125Z" fill="#687887"/>
<path d="M308.741 40.7441C309.125 40.7443 309.437 41.0565 309.437 41.4404C309.436 41.8241 309.125 42.1356 308.741 42.1357C308.357 42.1357 308.045 41.8242 308.045 41.4404C308.045 41.0564 308.357 40.7441 308.741 40.7441Z" fill="#687887"/>
<path d="M336.645 29.6562C337.04 29.6563 337.376 29.9683 337.376 30.3643C337.376 30.6041 337.292 30.808 337.185 31.0479L336.656 32.1885H335.96L336.524 31H336.5C336.176 30.9998 335.901 30.724 335.9 30.3643C335.9 29.9563 336.237 29.6562 336.645 29.6562Z" fill="#687887"/>
<path fill-rule="evenodd" clip-rule="evenodd" d="M274.521 25.0361C276.153 25.0361 277.269 26.3801 277.269 28.0361C277.269 28.2641 277.244 28.4082 277.244 28.4082H272.673C272.757 29.3801 273.561 30.1962 274.772 30.1963C275.516 30.1963 276.237 29.8965 276.957 29.2725V30.3877C276.309 30.8557 275.516 31.1318 274.7 31.1318C272.84 31.1316 271.641 29.7999 271.641 28.084C271.641 26.344 272.841 25.0362 274.521 25.0361ZM274.497 25.9355C273.525 25.9355 272.768 26.7638 272.696 27.5557H276.225C276.14 26.632 275.457 25.9358 274.497 25.9355Z" fill="#687887"/>
<path d="M291.167 25.0361C291.791 25.0361 292.415 25.2282 292.931 25.5762V26.668C292.415 26.2482 291.815 25.9484 291.191 25.9482C290.7 25.9482 290.135 26.1399 290.135 26.6797C290.135 27.2076 290.639 27.4365 291.311 27.6045C292.391 27.8685 293.207 28.2643 293.207 29.3203C293.207 30.5081 292.211 31.1318 291.047 31.1318C290.411 31.1318 289.691 30.9402 289.139 30.5322V29.3916C289.667 29.8715 290.351 30.2079 291.059 30.208C291.647 30.208 292.186 30.0041 292.187 29.4043C292.187 28.8043 291.623 28.6003 290.891 28.4443C290.051 28.2643 289.127 27.9277 289.127 26.7998C289.127 25.6239 290.123 25.0361 291.167 25.0361Z" fill="#687887"/>
<path fill-rule="evenodd" clip-rule="evenodd" d="M331.125 22.624C333.369 22.6242 334.449 24.652 334.449 26.8838C334.449 29.1037 333.369 31.1317 331.125 31.1318C328.881 31.1318 327.801 29.1038 327.801 26.8838C327.801 24.6519 328.881 22.624 331.125 22.624ZM331.125 23.6201C329.565 23.6201 328.869 25.2039 328.869 26.8838C328.869 28.5638 329.565 30.1357 331.125 30.1357C332.685 30.1356 333.381 28.5637 333.381 26.8838C333.381 25.204 332.685 23.6203 331.125 23.6201Z" fill="#687887"/>
<path d="M322.676 29.6562C323.084 29.6565 323.407 29.9801 323.407 30.376C323.407 30.7838 323.084 31.1082 322.676 31.1084C322.268 31.1084 321.943 30.784 321.943 30.376C321.943 29.98 322.268 29.6562 322.676 29.6562Z" fill="#687887"/>
<path d="M267.229 22.4561C267.648 22.4561 267.925 22.5276 268.104 22.5996V23.5244C267.925 23.4524 267.696 23.4043 267.396 23.4043C266.749 23.4043 266.256 23.7279 266.256 24.6396V25.168H267.889V26.0918H266.256V31H265.225V26.0918H264.324V25.168H265.225V24.6641C265.225 23.1761 266.077 22.4561 267.229 22.4561Z" fill="#687887"/>
<path d="M270.142 31H269.109V22.5996H270.142V31Z" fill="#687887"/>
<path d="M280.489 27.2803L282.001 25.168H283.178L281.102 28L283.273 31H282.062L280.466 28.7441L278.857 31H277.693L279.865 28.0244L277.789 25.168H278.989L280.489 27.2803Z" fill="#687887"/>
<path d="M295.63 26.0078C295.99 25.432 296.614 25.0363 297.489 25.0361C298.977 25.0361 299.842 26.0321 299.842 27.5801V31H298.81V27.7002C298.81 26.6562 298.269 25.9961 297.273 25.9961C296.278 25.9962 295.63 26.7642 295.63 27.9521V31H294.598V22.5996H295.63V26.0078Z" fill="#687887"/>
<path d="M304.472 25.0723C304.612 25.0723 304.718 25.0945 304.724 25.0957V26.1279C304.719 26.1269 304.612 26.1045 304.436 26.1045C303.356 26.1046 302.695 26.9679 302.695 28.2275V31H301.676V25.168H302.684V26.2002C302.948 25.5282 303.704 25.0723 304.472 25.0723Z" fill="#687887"/>
<path d="M307.03 31H305.998V25.168H307.03V31Z" fill="#687887"/>
<path d="M311.845 25.0361C313.333 25.0361 314.197 26.0321 314.197 27.5801V31H313.165V27.7002C313.165 26.6562 312.625 25.9961 311.629 25.9961C310.633 25.9962 309.985 26.7642 309.985 27.9521V31H308.953V25.168H309.985V26.0078C310.345 25.432 310.969 25.0363 311.845 25.0361Z" fill="#687887"/>
<path d="M317.051 27.4844L319.499 25.168H320.819L318.167 27.6523L321.047 31H319.739L317.447 28.2881L317.051 28.6602V31H316.031V22.5996H317.051V27.4844Z" fill="#687887"/>
<path d="M287.857 28.3115H284.209V27.376H287.857V28.3115Z" fill="#687887"/>
<path d="M322.676 25.3125C323.084 25.3127 323.407 25.6364 323.407 26.0322C323.407 26.44 323.084 26.7634 322.676 26.7637C322.268 26.7637 321.943 26.4401 321.943 26.0322C321.943 25.6362 322.268 25.3125 322.676 25.3125Z" fill="#687887"/>
<path d="M336.645 25.3125C337.052 25.3126 337.376 25.6363 337.376 26.0322C337.376 26.4401 337.052 26.7636 336.645 26.7637C336.237 26.7637 335.912 26.4401 335.912 26.0322C335.912 25.6362 336.237 25.3125 336.645 25.3125Z" fill="#687887"/>
<path d="M306.515 22.7441C306.899 22.7443 307.21 23.0565 307.21 23.4404C307.21 23.8241 306.898 24.1356 306.515 24.1357C306.131 24.1357 305.819 23.8242 305.818 23.4404C305.818 23.0564 306.131 22.7441 306.515 22.7441Z" fill="#687887"/>
<path fill-rule="evenodd" clip-rule="evenodd" d="M291.679 7.03613C291.955 7.03616 292.219 7.08399 292.471 7.16797H294.475V8.05566H293.61C293.814 8.37956 293.934 8.76376 293.935 9.18359C293.935 10.4675 292.891 11.3202 291.679 11.3203C291.319 11.3203 290.983 11.2481 290.671 11.1162C290.275 11.2362 290.154 11.4638 290.154 11.6797C290.154 12.0277 290.467 12.1602 290.935 12.1602H292.555C293.803 12.1602 294.595 12.6885 294.595 13.6484C294.594 15.0041 293.154 15.6396 291.582 15.6396C290.082 15.6395 288.979 15.1599 288.979 13.9961C288.979 13.4441 289.351 12.9998 289.723 12.7598C289.399 12.5318 289.255 12.1961 289.255 11.8242C289.255 11.1765 289.65 10.8644 289.998 10.6484C289.638 10.2884 289.423 9.78358 289.423 9.18359C289.423 7.91182 290.467 7.03613 291.679 7.03613ZM290.49 13.0479C290.13 13.2398 289.927 13.528 289.927 13.876C289.927 14.548 290.67 14.8242 291.606 14.8242C292.782 14.8242 293.635 14.4401 293.635 13.7441C293.635 13.2401 293.19 13.0723 292.314 13.0723H290.875C290.731 13.0723 290.61 13.0599 290.49 13.0479ZM291.679 7.90039C290.947 7.90039 290.37 8.43981 290.37 9.18359C290.37 9.95159 290.947 10.4678 291.679 10.4678C292.411 10.4677 292.986 9.95153 292.986 9.18359C292.986 8.43988 292.41 7.90049 291.679 7.90039Z" fill="#687887"/>
<path d="M330.961 11.6562C331.357 11.6563 331.692 11.9683 331.692 12.3643C331.692 12.6041 331.609 12.808 331.501 13.0479L330.973 14.1885H330.276L330.841 13H330.816C330.493 12.9998 330.217 12.724 330.217 12.3643C330.217 11.9563 330.553 11.6562 330.961 11.6562Z" fill="#687887"/>
<path fill-rule="evenodd" clip-rule="evenodd" d="M274.521 7.03613C276.153 7.03613 277.269 8.38013 277.269 10.0361C277.269 10.2641 277.244 10.4082 277.244 10.4082H272.673C272.757 11.3801 273.561 12.1962 274.772 12.1963C275.516 12.1963 276.237 11.8965 276.957 11.2725V12.3877C276.309 12.8557 275.516 13.1318 274.7 13.1318C272.84 13.1316 271.641 11.7999 271.641 10.084C271.641 8.34404 272.841 7.03619 274.521 7.03613ZM274.497 7.93555C273.525 7.93555 272.768 8.76376 272.696 9.55566H276.225C276.14 8.63198 275.457 7.93576 274.497 7.93555Z" fill="#687887"/>
<path fill-rule="evenodd" clip-rule="evenodd" d="M302.485 7.03613C304.237 7.03613 305.533 8.392 305.533 10.084C305.533 11.776 304.237 13.1318 302.485 13.1318C300.733 13.1318 299.438 11.7759 299.438 10.084C299.438 8.39204 300.733 7.03621 302.485 7.03613ZM302.485 7.98438C301.345 7.98446 300.481 8.92005 300.481 10.084C300.481 11.2479 301.345 12.1835 302.485 12.1836C303.625 12.1836 304.489 11.248 304.489 10.084C304.489 8.92 303.625 7.98438 302.485 7.98438Z" fill="#687887"/>
<path fill-rule="evenodd" clip-rule="evenodd" d="M325.441 4.62402C327.685 4.62416 328.766 6.65195 328.766 8.88379C328.766 11.1037 327.685 13.1317 325.441 13.1318C323.197 13.1318 322.117 11.1038 322.117 8.88379C322.117 6.65188 323.197 4.62402 325.441 4.62402ZM325.441 5.62012C323.881 5.62012 323.186 7.20388 323.186 8.88379C323.186 10.5638 323.881 12.1357 325.441 12.1357C327.001 12.1356 327.697 10.5637 327.697 8.88379C327.697 7.20396 327.001 5.62027 325.441 5.62012Z" fill="#687887"/>
<path d="M316.992 11.6562C317.4 11.6565 317.724 11.9801 317.724 12.376C317.724 12.7838 317.4 13.1082 316.992 13.1084C316.584 13.1084 316.26 12.784 316.26 12.376C316.26 11.98 316.584 11.6562 316.992 11.6562Z" fill="#687887"/>
<path d="M267.229 4.45605C267.648 4.45609 267.925 4.52763 268.104 4.59961V5.52441C267.925 5.45244 267.696 5.40433 267.396 5.4043C266.749 5.4043 266.256 5.72791 266.256 6.63965V7.16797H267.889V8.0918H266.256V13H265.225V8.0918H264.324V7.16797H265.225V6.66406C265.225 5.17606 266.077 4.45605 267.229 4.45605Z" fill="#687887"/>
<path d="M270.142 13H269.109V4.59961H270.142V13Z" fill="#687887"/>
<path d="M280.489 9.28027L282.001 7.16797H283.178L281.102 10L283.273 13H282.062L280.466 10.7441L278.857 13H277.693L279.865 10.0244L277.789 7.16797H278.989L280.489 9.28027Z" fill="#687887"/>
<path d="M298.565 7.07227C298.706 7.07227 298.812 7.09455 298.817 7.0957V8.12793C298.813 8.12691 298.705 8.10449 298.529 8.10449C297.45 8.10462 296.789 8.96789 296.789 10.2275V13H295.77V7.16797H296.777V8.2002C297.041 7.52822 297.797 7.07231 298.565 7.07227Z" fill="#687887"/>
<path d="M308.809 11.5361L310.356 7.16797H311.101L312.648 11.5361L314.173 7.16797H315.217L313.045 13H312.253L310.717 8.67969L309.181 13H308.389L306.217 7.16797H307.285L308.809 11.5361Z" fill="#687887"/>
<path d="M287.857 10.3115H284.209V9.37598H287.857V10.3115Z" fill="#687887"/>
<path d="M316.992 7.3125C317.4 7.31272 317.724 7.63636 317.724 8.03223C317.724 8.43999 317.4 8.76345 316.992 8.76367C316.584 8.76367 316.26 8.44013 316.26 8.03223C316.26 7.63623 316.584 7.3125 316.992 7.3125Z" fill="#687887"/>
<path d="M330.961 7.3125C331.369 7.31257 331.692 7.63627 331.692 8.03223C331.692 8.44008 331.369 8.7636 330.961 8.76367C330.553 8.76367 330.229 8.44013 330.229 8.03223C330.229 7.63623 330.553 7.3125 330.961 7.3125Z" fill="#687887"/>
</svg>
