<svg width="380" height="56" viewBox="0 0 380 56" fill="none" xmlns="http://www.w3.org/2000/svg">
<path fill-rule="evenodd" clip-rule="evenodd" d="M281.264 26.0361C282.92 26.0361 284.191 27.356 284.191 29.084C284.191 30.8 282.92 32.1318 281.264 32.1318C280.412 32.1318 279.631 31.76 279.199 31.124V34.4961H278.18V26.168H279.199V27.0918C279.619 26.4558 280.412 26.0361 281.264 26.0361ZM281.144 26.9844C280.004 26.9844 279.14 27.908 279.14 29.084C279.14 30.2599 280.004 31.1835 281.144 31.1836C282.284 31.1836 283.147 30.26 283.147 29.084C283.147 27.908 282.284 26.9844 281.144 26.9844Z" fill="#687887"/>
<path fill-rule="evenodd" clip-rule="evenodd" d="M288.775 26.0361C290.431 26.0361 291.703 27.356 291.703 29.084C291.703 30.8 290.431 32.1318 288.775 32.1318C287.923 32.1318 287.143 31.76 286.711 31.124V34.4961H285.691V26.168H286.711V27.0918C287.131 26.4558 287.923 26.0361 288.775 26.0361ZM288.655 26.9844C287.515 26.9844 286.651 27.908 286.651 29.084C286.651 30.2599 287.515 31.1835 288.655 31.1836C289.795 31.1836 290.659 30.26 290.659 29.084C290.659 27.908 289.795 26.9844 288.655 26.9844Z" fill="#687887"/>
<path fill-rule="evenodd" clip-rule="evenodd" d="M273.995 26.0361C275.495 26.0361 276.359 26.8639 276.359 28.2197V32H275.388V31.2324C274.932 31.8203 274.223 32.1318 273.455 32.1318C272.423 32.1317 271.691 31.4238 271.691 30.4639C271.691 29.42 272.352 28.7961 273.636 28.5801L275.352 28.292V28.1484C275.352 27.4165 274.836 26.9718 273.972 26.9717C273.18 26.9717 272.591 27.2957 271.991 27.8477V26.7676C272.519 26.3357 273.155 26.0362 273.995 26.0361ZM273.804 29.4561C273.108 29.5881 272.724 29.9003 272.724 30.4043C272.724 30.8961 273.108 31.2197 273.647 31.2197C274.643 31.2197 275.363 30.5719 275.363 29.6719V29.1797L273.804 29.4561Z" fill="#687887"/>
<path fill-rule="evenodd" clip-rule="evenodd" d="M301.567 26.0361C303.199 26.0361 304.315 27.3801 304.315 29.0361C304.315 29.2641 304.291 29.4082 304.291 29.4082H299.72C299.804 30.3801 300.608 31.1962 301.819 31.1963C302.563 31.1963 303.284 30.8965 304.004 30.2725V31.3877C303.356 31.8557 302.563 32.1318 301.747 32.1318C299.887 32.1316 298.688 30.7999 298.688 29.084C298.688 27.344 299.887 26.0362 301.567 26.0361ZM301.544 26.9355C300.572 26.9355 299.815 27.7638 299.743 28.5557H303.271C303.187 27.632 302.504 26.9358 301.544 26.9355Z" fill="#687887"/>
<path fill-rule="evenodd" clip-rule="evenodd" d="M311.402 32H310.383V31.0762C309.963 31.7121 309.17 32.1318 308.318 32.1318C306.662 32.1317 305.391 30.8119 305.391 29.084C305.391 27.3681 306.662 26.0363 308.318 26.0361C309.17 26.0361 309.951 26.4079 310.383 27.0439V23.5996H311.402V32ZM308.438 26.9844C307.299 26.9845 306.435 27.908 306.435 29.084C306.435 30.2599 307.299 31.1835 308.438 31.1836C309.578 31.1836 310.442 30.26 310.442 29.084C310.442 27.908 309.578 26.9844 308.438 26.9844Z" fill="#687887"/>
<path d="M317.524 26.168H319.156V27.0918H317.524V30.1758C317.524 30.8597 317.824 31.1718 318.496 31.1719C318.724 31.1719 318.976 31.1121 319.156 30.9922V31.9521C318.952 32.0601 318.653 32.1318 318.257 32.1318C317.153 32.1318 316.492 31.4482 316.492 30.3203V27.0918H315.484V26.96L317.488 24.7998H317.524V26.168Z" fill="#687887"/>
<path fill-rule="evenodd" clip-rule="evenodd" d="M323.099 26.0361C324.851 26.0361 326.146 27.392 326.146 29.084C326.146 30.776 324.851 32.1318 323.099 32.1318C321.347 32.1318 320.051 30.7759 320.051 29.084C320.051 27.392 321.347 26.0362 323.099 26.0361ZM323.099 26.9844C321.959 26.9845 321.095 27.92 321.095 29.084C321.095 30.2479 321.959 31.1835 323.099 31.1836C324.239 31.1836 325.103 30.248 325.103 29.084C325.103 27.92 324.239 26.9844 323.099 26.9844Z" fill="#687887"/>
<path fill-rule="evenodd" clip-rule="evenodd" d="M332.589 26.0361C334.089 26.0361 334.953 26.8639 334.953 28.2197V32H333.981V31.2324C333.525 31.8203 332.817 32.1318 332.049 32.1318C331.017 32.1317 330.285 31.4238 330.285 30.4639C330.285 29.42 330.946 28.7961 332.229 28.5801L333.945 28.292V28.1484C333.945 27.4165 333.429 26.9718 332.565 26.9717C331.773 26.9717 331.185 27.2957 330.585 27.8477V26.7676C331.113 26.3357 331.749 26.0362 332.589 26.0361ZM332.397 29.4561C331.701 29.5881 331.317 29.9003 331.317 30.4043C331.318 30.8961 331.701 31.2197 332.241 31.2197C333.237 31.2197 333.957 30.5719 333.957 29.6719V29.1797L332.397 29.4561Z" fill="#687887"/>
<path d="M266.999 32H265.943V24.9443L264.455 25.5557V24.4756L266.135 23.7559H266.999V32Z" fill="#687887"/>
<path d="M294.235 32H293.203V23.5996H294.235V32Z" fill="#687887"/>
<path d="M297.187 32H296.154V26.168H297.187V32Z" fill="#687887"/>
<path d="M337.806 32H336.773V23.5996H337.806V32Z" fill="#687887"/>
<path d="M340.759 32H339.727V23.5996H340.759V32Z" fill="#687887"/>
<path d="M296.671 23.7441C297.055 23.7443 297.366 24.0565 297.366 24.4404C297.366 24.8241 297.055 25.1356 296.671 25.1357C296.287 25.1357 295.975 24.8242 295.975 24.4404C295.975 24.0564 296.287 23.7441 296.671 23.7441Z" fill="#687887"/>
<path d="M242 1C244.761 1 247 3.23858 247 6V50C247 52.7614 244.761 55 242 55H6C3.23858 55 1 52.7614 1 50V6C1 3.23858 3.23858 1 6 1H242Z" fill="white"/>
<path fill-rule="evenodd" clip-rule="evenodd" d="M242 0C245.314 0 248 2.68629 248 6V50L247.992 50.3086C247.832 53.4789 245.21 56 242 56H6L5.69141 55.9922C2.62332 55.8368 0.16325 53.3767 0.0078125 50.3086L0 50V6C2.49662e-07 2.78979 2.52111 0.168429 5.69141 0.0078125L6 0H242ZM6 1C3.23858 1 1 3.23858 1 6V50C1 52.7614 3.23858 55 6 55H242C244.761 55 247 52.7614 247 50V6C247 3.23858 244.761 1 242 1H6Z" fill="#E4E8F0"/>
<path fill-rule="evenodd" clip-rule="evenodd" d="M44 8C46.2091 8 48 9.79086 48 12V44C47.9997 46.2089 46.209 48 44 48H12C9.79102 48 8.00026 46.2089 8 44V12C8 9.79086 9.79086 8 12 8H44ZM12 9C10.3431 9 9 10.3431 9 12V44C9.00026 45.6566 10.3433 47 12 47H44C45.6567 47 46.9997 45.6566 47 44V12C47 10.3431 45.6569 9 44 9H12Z" fill="#E4E8F0"/>
<path d="M44 9C45.6569 9 47 10.3431 47 12V44C46.9997 45.6566 45.6567 47 44 47H12C10.3433 47 9.00026 45.6566 9 44V12C9 10.3431 10.3431 9 12 9H44Z" fill="#F3F7FB"/>
<path fill-rule="evenodd" clip-rule="evenodd" d="M92 8C94.2091 8 96 9.79086 96 12V44C95.9997 46.2089 94.209 48 92 48H60C57.791 48 56.0003 46.2089 56 44V12C56 9.79086 57.7909 8 60 8H92ZM60 9C58.3431 9 57 10.3431 57 12V44C57.0003 45.6566 58.3433 47 60 47H92C93.6567 47 94.9997 45.6566 95 44V12C95 10.3431 93.6569 9 92 9H60Z" fill="#E4E8F0"/>
<path d="M92 9C93.6569 9 95 10.3431 95 12V44C94.9997 45.6566 93.6567 47 92 47H60C58.3433 47 57.0003 45.6566 57 44V12C57 10.3431 58.3431 9 60 9H92Z" fill="#F3F7FB"/>
<path fill-rule="evenodd" clip-rule="evenodd" d="M140 8C142.209 8 144 9.79086 144 12V44C144 46.2089 142.209 48 140 48H108C105.791 48 104 46.2089 104 44V12C104 9.79086 105.791 8 108 8H140ZM108 9C106.343 9 105 10.3431 105 12V44C105 45.6566 106.343 47 108 47H140C141.657 47 143 45.6566 143 44V12C143 10.3431 141.657 9 140 9H108Z" fill="#E4E8F0"/>
<path d="M140 9C141.657 9 143 10.3431 143 12V44C143 45.6566 141.657 47 140 47H108C106.343 47 105 45.6566 105 44V12C105 10.3431 106.343 9 108 9H140Z" fill="#F3F7FB"/>
<path d="M29.6808 33.4999H27.3868V25.3314L25.4648 26.0754V23.8279L27.8673 22.8514H29.6808V33.4999Z" fill="#242B42"/>
<path d="M79.6117 33.4173H72.3887V31.7898L75.8762 28.3333C76.8682 27.3723 77.1472 26.8763 77.1472 26.1633C77.1472 25.3108 76.4187 24.7063 75.3957 24.7063C74.4037 24.7063 73.4737 25.2643 72.6367 26.1788V23.7453C73.4582 23.0013 74.5277 22.5828 75.5817 22.5828C77.7207 22.5828 79.4412 23.8848 79.4412 25.9153C79.4412 27.3258 78.8522 28.3643 77.5037 29.6043L75.5972 31.3713H79.6117V33.4173Z" fill="#242B42"/>
<path d="M127.464 30.1391C127.464 32.1541 125.867 33.5181 123.434 33.5181C122.395 33.5181 121.419 33.2546 120.535 32.7121V30.3871C121.419 31.0846 122.318 31.4256 123.248 31.4256C124.379 31.4256 125.17 30.9141 125.17 30.0151C125.17 29.2246 124.426 28.6821 123.325 28.6821H122.318V26.8841H123.279C124.178 26.8841 124.798 26.3881 124.798 25.7371C124.798 24.9931 124.069 24.5591 123.201 24.5591C122.349 24.5591 121.574 24.8846 120.752 25.5511V23.2726C121.527 22.7456 122.442 22.4821 123.387 22.4821C125.495 22.4821 127.045 23.5981 127.045 25.4581C127.045 26.4501 126.534 27.1941 125.728 27.6436C126.828 28.0931 127.464 28.9766 127.464 30.1391Z" fill="#242B42"/>
</svg>
