<svg width="296" height="56" viewBox="0 0 296 56" fill="none" xmlns="http://www.w3.org/2000/svg">
<path d="M290 1C292.761 1 295 3.23858 295 6V50C295 52.7614 292.761 55 290 55H6C3.23858 55 1 52.7614 1 50V6C1 3.23858 3.23858 1 6 1H290Z" fill="white"/>
<path fill-rule="evenodd" clip-rule="evenodd" d="M290.309 0.0078125C293.479 0.168431 296 2.78979 296 6V50L295.992 50.3086C295.832 53.4789 293.21 56 290 56H6C2.78979 56 0.168429 53.4789 0.0078125 50.3086L0 50V6C2.49662e-07 2.78979 2.52111 0.168429 5.69141 0.0078125L6 0H290L290.309 0.0078125ZM6 1C3.23858 1 1 3.23858 1 6V50C1 52.7614 3.23858 55 6 55H290C292.761 55 295 52.7614 295 50V6C295 3.23858 292.761 1 290 1H6Z" fill="#E4E8F0"/>
<path fill-rule="evenodd" clip-rule="evenodd" d="M44 8C46.2091 8 48 9.79086 48 12V44C47.9997 46.2089 46.209 48 44 48H12C9.79102 48 8.00026 46.2089 8 44V12C8 9.79086 9.79086 8 12 8H44ZM12 9C10.3431 9 9 10.3431 9 12V44C9.00026 45.6566 10.3433 47 12 47H44C45.6567 47 46.9997 45.6566 47 44V12C47 10.3431 45.6569 9 44 9H12Z" fill="#E4E8F0"/>
<path d="M44 9C45.6569 9 47 10.3431 47 12V44C46.9997 45.6566 45.6567 47 44 47H12C10.3433 47 9.00026 45.6566 9 44V12C9 10.3431 10.3431 9 12 9H44Z" fill="#F3F7FB"/>
<path fill-rule="evenodd" clip-rule="evenodd" d="M92 8C94.2091 8 96 9.79086 96 12V44C95.9997 46.2089 94.209 48 92 48H60C57.791 48 56.0003 46.2089 56 44V12C56 9.79086 57.7909 8 60 8H92ZM60 9C58.3431 9 57 10.3431 57 12V44C57.0003 45.6566 58.3433 47 60 47H92C93.6567 47 94.9997 45.6566 95 44V12C95 10.3431 93.6569 9 92 9H60Z" fill="#E4E8F0"/>
<path d="M92 9C93.6569 9 95 10.3431 95 12V44C94.9997 45.6566 93.6567 47 92 47H60C58.3433 47 57.0003 45.6566 57 44V12C57 10.3431 58.3431 9 60 9H92Z" fill="#F3F7FB"/>
<path fill-rule="evenodd" clip-rule="evenodd" d="M140 8C142.209 8 144 9.79086 144 12V44C144 46.2089 142.209 48 140 48H108C105.791 48 104 46.2089 104 44V12C104 9.79086 105.791 8 108 8H140ZM108 9C106.343 9 105 10.3431 105 12V44C105 45.6566 106.343 47 108 47H140C141.657 47 143 45.6566 143 44V12C143 10.3431 141.657 9 140 9H108Z" fill="#E4E8F0"/>
<path d="M140 9C141.657 9 143 10.3431 143 12V44C143 45.6566 141.657 47 140 47H108C106.343 47 105 45.6566 105 44V12C105 10.3431 106.343 9 108 9H140Z" fill="#F3F7FB"/>
<path fill-rule="evenodd" clip-rule="evenodd" d="M188 8C190.209 8 192 9.79086 192 12V44C192 46.2089 190.209 48 188 48H156C153.791 48 152 46.2089 152 44V12C152 9.79086 153.791 8 156 8H188ZM156 9C154.343 9 153 10.3431 153 12V44C153 45.6566 154.343 47 156 47H188C189.657 47 191 45.6566 191 44V12C191 10.3431 189.657 9 188 9H156Z" fill="#E4E8F0"/>
<path d="M188 9C189.657 9 191 10.3431 191 12V44C191 45.6566 189.657 47 188 47H156C154.343 47 153 45.6566 153 44V12C153 10.3431 154.343 9 156 9H188Z" fill="#F3F7FB"/>
<path fill-rule="evenodd" clip-rule="evenodd" d="M236 8C238.209 8 240 9.79086 240 12V44C240 46.2089 238.209 48 236 48H204C201.791 48 200 46.2089 200 44V12C200 9.79086 201.791 8 204 8H236ZM204 9C202.343 9 201 10.3431 201 12V44C201 45.6566 202.343 47 204 47H236C237.657 47 239 45.6566 239 44V12C239 10.3431 237.657 9 236 9H204Z" fill="#E4E8F0"/>
<path d="M236 9C237.657 9 239 10.3431 239 12V44C239 45.6566 237.657 47 236 47H204C202.343 47 201 45.6566 201 44V12C201 10.3431 202.343 9 204 9H236Z" fill="#F3F7FB"/>
<path fill-rule="evenodd" clip-rule="evenodd" d="M284 8C286.209 8 288 9.79086 288 12V44C288 46.2089 286.209 48 284 48H252C249.791 48 248 46.2089 248 44V12C248 9.79086 249.791 8 252 8H284ZM252 9C250.343 9 249 10.3431 249 12V44C249 45.6566 250.343 47 252 47H284C285.657 47 287 45.6566 287 44V12C287 10.3431 285.657 9 284 9H252Z" fill="#E4E8F0"/>
<path d="M284 9C285.657 9 287 10.3431 287 12V44C287 45.6566 285.657 47 284 47H252C250.343 47 249 45.6566 249 44V12C249 10.3431 250.343 9 252 9H284Z" fill="#F3F7FB"/>
<path d="M29.6808 33.4999H27.3868V25.3314L25.4648 26.0754V23.8279L27.8673 22.8514H29.6808V33.4999Z" fill="#242B42"/>
<path d="M79.6117 33.4173H72.3887V31.7898L75.8762 28.3333C76.8682 27.3723 77.1472 26.8763 77.1472 26.1633C77.1472 25.3108 76.4187 24.7063 75.3957 24.7063C74.4037 24.7063 73.4737 25.2643 72.6367 26.1788V23.7453C73.4582 23.0013 74.5277 22.5828 75.5817 22.5828C77.7207 22.5828 79.4412 23.8848 79.4412 25.9153C79.4412 27.3258 78.8522 28.3643 77.5037 29.6043L75.5972 31.3713H79.6117V33.4173Z" fill="#242B42"/>
<path d="M127.464 30.1391C127.464 32.1541 125.867 33.5181 123.434 33.5181C122.395 33.5181 121.419 33.2546 120.535 32.7121V30.3871C121.419 31.0846 122.318 31.4256 123.248 31.4256C124.379 31.4256 125.17 30.9141 125.17 30.0151C125.17 29.2246 124.426 28.6821 123.325 28.6821H122.318V26.8841H123.279C124.178 26.8841 124.798 26.3881 124.798 25.7371C124.798 24.9931 124.069 24.5591 123.201 24.5591C122.349 24.5591 121.574 24.8846 120.752 25.5511V23.2726C121.527 22.7456 122.442 22.4821 123.387 22.4821C125.495 22.4821 127.045 23.5981 127.045 25.4581C127.045 26.4501 126.534 27.1941 125.728 27.6436C126.828 28.0931 127.464 28.9766 127.464 30.1391Z" fill="#242B42"/>
<path d="M167.582 31.131V29.55L172.17 22.6835H174.929V29.2245H176.417V31.131H174.929V33.3165H172.744V31.131H167.582ZM170.047 29.2245H172.759V25.117L170.047 29.2245Z" fill="#242B42"/>
<path d="M216.428 32.6035V30.263C217.342 30.976 218.272 31.317 219.202 31.317C220.334 31.317 221.264 30.759 221.264 29.705C221.264 28.6975 220.349 28.155 219.109 28.155C218.257 28.155 217.435 28.372 216.676 28.7285L216.986 22.575H222.953V24.559H218.861L218.768 26.388C219.001 26.3105 219.404 26.2485 219.822 26.2485C221.961 26.2485 223.573 27.6125 223.573 29.6895C223.573 32.03 221.775 33.4095 219.342 33.425C218.288 33.425 217.311 33.146 216.428 32.6035Z" fill="#242B42"/>
<path d="M272.046 29.5035C272.046 31.7355 270.295 33.425 268.001 33.425C265.691 33.425 263.955 31.7665 263.955 29.5345C263.955 28.5735 264.327 27.4885 265.025 26.4035L267.489 22.575H270.124L267.737 26.0315C267.985 25.923 268.295 25.892 268.512 25.892C270.558 25.892 272.046 27.504 272.046 29.5035ZM269.799 29.581C269.799 28.589 268.993 27.814 268.001 27.814C266.993 27.814 266.203 28.589 266.203 29.5655C266.203 30.5575 266.978 31.348 267.985 31.348C268.993 31.348 269.799 30.5575 269.799 29.581Z" fill="#242B42"/>
</svg>
