<svg width="152" height="104" viewBox="0 0 152 104" fill="none" xmlns="http://www.w3.org/2000/svg">
<path d="M146 1C148.761 1 151 3.23858 151 6V98C151 100.761 148.761 103 146 103H6C3.23858 103 1 100.761 1 98V6C1 3.23858 3.23858 1 6 1H146Z" fill="white"/>
<path fill-rule="evenodd" clip-rule="evenodd" d="M146.309 0.0078125C149.479 0.168431 152 2.78979 152 6V98C152 101.314 149.314 104 146 104H6C2.78979 104 0.168429 101.479 0.0078125 98.3086L0 98V6C0 2.78979 2.52111 0.168429 5.69141 0.0078125L6 0H146L146.309 0.0078125ZM6 1C3.23858 1 1 3.23858 1 6V98C1 100.761 3.23858 103 6 103H146C148.761 103 151 100.761 151 98V6C151 3.23858 148.761 1 146 1H6Z" fill="#E4E8F0"/>
<path fill-rule="evenodd" clip-rule="evenodd" d="M44 8C46.2091 8 48 9.79086 48 12V44C47.9997 46.2089 46.209 48 44 48H12C9.79102 48 8.00026 46.2089 8 44V12C8 9.79086 9.79086 8 12 8H44ZM12 9C10.3431 9 9 10.3431 9 12V44C9.00026 45.6566 10.3433 47 12 47H44C45.6567 47 46.9997 45.6566 47 44V12C47 10.3431 45.6569 9 44 9H12Z" fill="#E4E8F0"/>
<path d="M44 9C45.6569 9 47 10.3431 47 12V44C46.9997 45.6566 45.6567 47 44 47H12C10.3433 47 9.00026 45.6566 9 44V12C9 10.3431 10.3431 9 12 9H44Z" fill="#F3F7FB"/>
<path fill-rule="evenodd" clip-rule="evenodd" d="M92 8C94.2091 8 96 9.79086 96 12V44C95.9997 46.2089 94.209 48 92 48H60C57.791 48 56.0003 46.2089 56 44V12C56 9.79086 57.7909 8 60 8H92ZM60 9C58.3431 9 57 10.3431 57 12V44C57.0003 45.6566 58.3433 47 60 47H92C93.6567 47 94.9997 45.6566 95 44V12C95 10.3431 93.6569 9 92 9H60Z" fill="#E4E8F0"/>
<path d="M92 9C93.6569 9 95 10.3431 95 12V44C94.9997 45.6566 93.6567 47 92 47H60C58.3433 47 57.0003 45.6566 57 44V12C57 10.3431 58.3431 9 60 9H92Z" fill="#F3F7FB"/>
<path fill-rule="evenodd" clip-rule="evenodd" d="M140 8C142.209 8 144 9.79086 144 12V44C144 46.2089 142.209 48 140 48H108C105.791 48 104 46.2089 104 44V12C104 9.79086 105.791 8 108 8H140ZM108 9C106.343 9 105 10.3431 105 12V44C105 45.6566 106.343 47 108 47H140C141.657 47 143 45.6566 143 44V12C143 10.3431 141.657 9 140 9H108Z" fill="#E4E8F0"/>
<path d="M140 9C141.657 9 143 10.3431 143 12V44C143 45.6566 141.657 47 140 47H108C106.343 47 105 45.6566 105 44V12C105 10.3431 106.343 9 108 9H140Z" fill="#F3F7FB"/>
<path d="M29.6808 33.4999H27.3868V25.3314L25.4648 26.0754V23.8279L27.8673 22.8514H29.6808V33.4999Z" fill="#242B42"/>
<path d="M79.6117 33.4173H72.3887V31.7898L75.8762 28.3333C76.8682 27.3723 77.1472 26.8763 77.1472 26.1633C77.1472 25.3108 76.4187 24.7063 75.3957 24.7063C74.4037 24.7063 73.4737 25.2643 72.6367 26.1788V23.7453C73.4582 23.0013 74.5277 22.5828 75.5817 22.5828C77.7207 22.5828 79.4412 23.8848 79.4412 25.9153C79.4412 27.3258 78.8522 28.3643 77.5037 29.6043L75.5972 31.3713H79.6117V33.4173Z" fill="#242B42"/>
<path d="M127.464 30.1391C127.464 32.1541 125.867 33.5181 123.434 33.5181C122.395 33.5181 121.419 33.2546 120.535 32.7121V30.3871C121.419 31.0846 122.318 31.4256 123.248 31.4256C124.379 31.4256 125.17 30.9141 125.17 30.0151C125.17 29.2246 124.426 28.6821 123.325 28.6821H122.318V26.8841H123.279C124.178 26.8841 124.798 26.3881 124.798 25.7371C124.798 24.9931 124.069 24.5591 123.201 24.5591C122.349 24.5591 121.574 24.8846 120.752 25.5511V23.2726C121.527 22.7456 122.442 22.4821 123.387 22.4821C125.495 22.4821 127.045 23.5981 127.045 25.4581C127.045 26.4501 126.534 27.1941 125.728 27.6436C126.828 28.0931 127.464 28.9766 127.464 30.1391Z" fill="#242B42"/>
<path fill-rule="evenodd" clip-rule="evenodd" d="M44 56C46.2091 56 48 57.7909 48 60V92C47.9997 94.2089 46.209 96 44 96H12C9.79102 96 8.00026 94.2089 8 92V60C8 57.7909 9.79086 56 12 56H44ZM12 57C10.3431 57 9 58.3431 9 60V92C9.00026 93.6566 10.3433 95 12 95H44C45.6567 95 46.9997 93.6566 47 92V60C47 58.3431 45.6569 57 44 57H12Z" fill="#E4E8F0"/>
<path d="M44 57C45.6569 57 47 58.3431 47 60V92C46.9997 93.6566 45.6567 95 44 95H12C10.3433 95 9.00026 93.6566 9 92V60C9 58.3431 10.3431 57 12 57H44Z" fill="#F3F7FB"/>
<path fill-rule="evenodd" clip-rule="evenodd" d="M92 56C94.2091 56 96 57.7909 96 60V92C95.9997 94.2089 94.209 96 92 96H60C57.791 96 56.0003 94.2089 56 92V60C56 57.7909 57.7909 56 60 56H92ZM60 57C58.3431 57 57 58.3431 57 60V92C57.0003 93.6566 58.3433 95 60 95H92C93.6567 95 94.9997 93.6566 95 92V60C95 58.3431 93.6569 57 92 57H60Z" fill="#E4E8F0"/>
<path d="M92 57C93.6569 57 95 58.3431 95 60V92C94.9997 93.6566 93.6567 95 92 95H60C58.3433 95 57.0003 93.6566 57 92V60C57 58.3431 58.3431 57 60 57H92Z" fill="#F3F7FB"/>
<path fill-rule="evenodd" clip-rule="evenodd" d="M140 56C142.209 56 144 57.7909 144 60V92C144 94.2089 142.209 96 140 96H108C105.791 96 104 94.2089 104 92V60C104 57.7909 105.791 56 108 56H140ZM108 57C106.343 57 105 58.3431 105 60V92C105 93.6566 106.343 95 108 95H140C141.657 95 143 93.6566 143 92V60C143 58.3431 141.657 57 140 57H108Z" fill="#E4E8F0"/>
<path d="M140 57C141.657 57 143 58.3431 143 60V92C143 93.6566 141.657 95 140 95H108C106.343 95 105 93.6566 105 92V60C105 58.3431 106.343 57 108 57H140Z" fill="#F3F7FB"/>
<path d="M23.582 79.131V77.55L28.17 70.6835H30.929V77.2245H32.417V79.131H30.929V81.3165H28.7435V79.131H23.582ZM26.0465 77.2245H28.759V73.117L26.0465 77.2245Z" fill="#242B42"/>
<path d="M72.4277 80.6035V78.263C73.3422 78.976 74.2722 79.317 75.2022 79.317C76.3337 79.317 77.2637 78.759 77.2637 77.705C77.2637 76.6975 76.3492 76.155 75.1092 76.155C74.2567 76.155 73.4352 76.372 72.6757 76.7285L72.9857 70.575H78.9532V72.559H74.8612L74.7682 74.388C75.0007 74.3105 75.4037 74.2485 75.8222 74.2485C77.9612 74.2485 79.5732 75.6125 79.5732 77.6895C79.5732 80.03 77.7752 81.4095 75.3417 81.425C74.2877 81.425 73.3112 81.146 72.4277 80.6035Z" fill="#242B42"/>
<path d="M128.046 77.5035C128.046 79.7355 126.295 81.425 124.001 81.425C121.691 81.425 119.955 79.7665 119.955 77.5345C119.955 76.5735 120.327 75.4885 121.025 74.4035L123.489 70.575H126.124L123.737 74.0315C123.985 73.923 124.295 73.892 124.512 73.892C126.558 73.892 128.046 75.504 128.046 77.5035ZM125.799 77.581C125.799 76.589 124.993 75.814 124.001 75.814C122.993 75.814 122.203 76.589 122.203 77.5655C122.203 78.5575 122.978 79.348 123.985 79.348C124.993 79.348 125.799 78.5575 125.799 77.581Z" fill="#242B42"/>
</svg>
