<svg width="281" height="224" viewBox="0 0 281 224" fill="none" xmlns="http://www.w3.org/2000/svg">
<path d="M196 167.667C197.657 167.667 199 169.01 199 170.667V202.667C199 204.324 197.657 205.667 196 205.667H20C18.3431 205.667 17 204.324 17 202.667V170.667C17.0002 169.01 18.3433 167.667 20 167.667H196Z" fill="#F3F7FB"/>
<path fill-rule="evenodd" clip-rule="evenodd" d="M196 166.667C198.209 166.667 200 168.458 200 170.667V202.667L199.995 202.873C199.891 204.918 198.251 206.558 196.206 206.662L196 206.667H20L19.7939 206.662C17.7488 206.558 16.1087 204.918 16.0049 202.873L16 202.667V170.667C16.0002 168.458 17.791 166.667 20 166.667H196ZM20 167.667C18.3433 167.667 17.0002 169.01 17 170.667V202.667C17 204.324 18.3431 205.667 20 205.667H196C197.657 205.667 199 204.324 199 202.667V170.667C199 169.01 197.657 167.667 196 167.667H20Z" fill="#E4E8F0"/>
<path d="M56 178.667C56 176.458 57.7909 174.667 60 174.667H76C78.2091 174.667 80 176.458 80 178.667V194.667C80 196.876 78.2091 198.667 76 198.667H60C57.7909 198.667 56 196.876 56 194.667V178.667Z" fill="white"/>
<path fill-rule="evenodd" clip-rule="evenodd" d="M76.2061 174.672C78.3194 174.779 80 176.527 80 178.667V194.667L79.9951 194.873C79.8913 196.918 78.2512 198.558 76.2061 198.662L76 198.667H60C57.86 198.667 56.1121 196.986 56.0049 194.873L56 194.667V178.667C56 176.458 57.7909 174.667 60 174.667H76L76.2061 174.672ZM60 175.667C58.3949 175.667 57.0842 176.927 57.0039 178.512L57 178.667V194.667C57 196.324 58.3431 197.667 60 197.667H76C77.6569 197.667 79 196.324 79 194.667V178.667C79 177.062 77.7394 175.751 76.1543 175.671L76 175.667H60Z" fill="#E4E8F0"/>
<path d="M88 178.667C88 176.458 89.7909 174.667 92 174.667H108C110.209 174.667 112 176.458 112 178.667V194.667C112 196.876 110.209 198.667 108 198.667H92C89.7909 198.667 88 196.876 88 194.667V178.667Z" fill="white"/>
<path fill-rule="evenodd" clip-rule="evenodd" d="M108.206 174.672C110.319 174.779 112 176.527 112 178.667V194.667L111.995 194.873C111.891 196.918 110.251 198.558 108.206 198.662L108 198.667H92C89.86 198.667 88.1121 196.986 88.0049 194.873L88 194.667V178.667C88 176.458 89.7909 174.667 92 174.667H108L108.206 174.672ZM92 175.667C90.3949 175.667 89.0842 176.927 89.0039 178.512L89 178.667V194.667C89 196.324 90.3431 197.667 92 197.667H108C109.657 197.667 111 196.324 111 194.667V178.667C111 177.062 109.739 175.751 108.154 175.671L108 175.667H92Z" fill="#E4E8F0"/>
<path d="M24 178.667C24 176.458 25.7909 174.667 28 174.667H44C46.2091 174.667 48 176.458 48 178.667V194.667C48 196.876 46.2091 198.667 44 198.667H28C25.7909 198.667 24 196.876 24 194.667V178.667Z" fill="white"/>
<path fill-rule="evenodd" clip-rule="evenodd" d="M44.2061 174.672C46.3194 174.779 48 176.527 48 178.667V194.667L47.9951 194.873C47.8913 196.918 46.2512 198.558 44.2061 198.662L44 198.667H28C25.86 198.667 24.1121 196.986 24.0049 194.873L24 194.667V178.667C24 176.458 25.7909 174.667 28 174.667H44L44.2061 174.672ZM28 175.667C26.3949 175.667 25.0842 176.927 25.0039 178.512L25 178.667V194.667C25 196.324 26.3431 197.667 28 197.667H44C45.6569 197.667 47 196.324 47 194.667V178.667C47 177.062 45.7394 175.751 44.1543 175.671L44 175.667H28Z" fill="#E4E8F0"/>
<path d="M196 93C197.657 93 199 94.3433 199 96V128C199 129.657 197.657 131 196 131H20C18.3431 131 17 129.657 17 128V96C17.0002 94.3433 18.3433 93 20 93H196Z" fill="#F3F7FB"/>
<path fill-rule="evenodd" clip-rule="evenodd" d="M196 92C198.209 92 200 93.791 200 96V128L199.995 128.206C199.891 130.251 198.251 131.891 196.206 131.995L196 132H20L19.7939 131.995C17.7488 131.891 16.1087 130.251 16.0049 128.206L16 128V96C16.0002 93.791 17.791 92 20 92H196ZM20 93C18.3433 93 17.0002 94.3433 17 96V128C17 129.657 18.3431 131 20 131H196C197.657 131 199 129.657 199 128V96C199 94.3433 197.657 93 196 93H20Z" fill="#E4E8F0"/>
<path d="M56 104C56 101.791 57.7909 100 60 100H76C78.2091 100 80 101.791 80 104V120C80 122.209 78.2091 124 76 124H60C57.7909 124 56 122.209 56 120V104Z" fill="white"/>
<path fill-rule="evenodd" clip-rule="evenodd" d="M76.2061 100.005C78.3194 100.112 80 101.86 80 104V120L79.9951 120.206C79.8913 122.251 78.2512 123.891 76.2061 123.995L76 124H60C57.86 124 56.1121 122.319 56.0049 120.206L56 120V104C56 101.791 57.7909 100 60 100H76L76.2061 100.005ZM60 101C58.3949 101 57.0842 102.261 57.0039 103.846L57 104V120C57 121.657 58.3431 123 60 123H76C77.6569 123 79 121.657 79 120V104C79 102.395 77.7394 101.084 76.1543 101.004L76 101H60Z" fill="#E4E8F0"/>
<path d="M88 104C88 101.791 89.7909 100 92 100H108C110.209 100 112 101.791 112 104V120C112 122.209 110.209 124 108 124H92C89.7909 124 88 122.209 88 120V104Z" fill="white"/>
<path fill-rule="evenodd" clip-rule="evenodd" d="M108.206 100.005C110.319 100.112 112 101.86 112 104V120L111.995 120.206C111.891 122.251 110.251 123.891 108.206 123.995L108 124H92C89.86 124 88.1121 122.319 88.0049 120.206L88 120V104C88 101.791 89.7909 100 92 100H108L108.206 100.005ZM92 101C90.3949 101 89.0842 102.261 89.0039 103.846L89 104V120C89 121.657 90.3431 123 92 123H108C109.657 123 111 121.657 111 120V104C111 102.395 109.739 101.084 108.154 101.004L108 101H92Z" fill="#E4E8F0"/>
<path d="M24 104C24 101.791 25.7909 100 28 100H44C46.2091 100 48 101.791 48 104V120C48 122.209 46.2091 124 44 124H28C25.7909 124 24 122.209 24 120V104Z" fill="white"/>
<path fill-rule="evenodd" clip-rule="evenodd" d="M44.2061 100.005C46.3194 100.112 48 101.86 48 104V120L47.9951 120.206C47.8913 122.251 46.2512 123.891 44.2061 123.995L44 124H28C25.86 124 24.1121 122.319 24.0049 120.206L24 120V104C24 101.791 25.7909 100 28 100H44L44.2061 100.005ZM28 101C26.3949 101 25.0842 102.261 25.0039 103.846L25 104V120C25 121.657 26.3431 123 28 123H44C45.6569 123 47 121.657 47 120V104C47 102.395 45.7394 101.084 44.1543 101.004L44 101H28Z" fill="#E4E8F0"/>
<path d="M196 18.3333C197.657 18.3333 199 19.6766 199 21.3333V53.3333C199 54.9902 197.657 56.3333 196 56.3333H20C18.3431 56.3333 17 54.9902 17 53.3333V21.3333C17.0002 19.6766 18.3433 18.3333 20 18.3333H196Z" fill="#F3F7FB"/>
<path fill-rule="evenodd" clip-rule="evenodd" d="M196 17.3333C198.209 17.3333 200 19.1243 200 21.3333V53.3333L199.995 53.5394C199.891 55.5845 198.251 57.2247 196.206 57.3284L196 57.3333H20L19.7939 57.3284C17.7488 57.2247 16.1087 55.5845 16.0049 53.5394L16 53.3333V21.3333C16.0002 19.1243 17.791 17.3333 20 17.3333H196ZM20 18.3333C18.3433 18.3333 17.0002 19.6766 17 21.3333V53.3333C17 54.9902 18.3431 56.3333 20 56.3333H196C197.657 56.3333 199 54.9902 199 53.3333V21.3333C199 19.6766 197.657 18.3333 196 18.3333H20Z" fill="#E4E8F0"/>
<path d="M56 29.3333C56 27.1242 57.7909 25.3333 60 25.3333H76C78.2091 25.3333 80 27.1242 80 29.3333V45.3333C80 47.5425 78.2091 49.3333 76 49.3333H60C57.7909 49.3333 56 47.5425 56 45.3333V29.3333Z" fill="white"/>
<path fill-rule="evenodd" clip-rule="evenodd" d="M76.2061 25.3382C78.3194 25.4454 80 27.1933 80 29.3333V45.3333L79.9951 45.5394C79.8913 47.5845 78.2512 49.2247 76.2061 49.3284L76 49.3333H60C57.86 49.3333 56.1121 47.6528 56.0049 45.5394L56 45.3333V29.3333C56 27.1242 57.7909 25.3333 60 25.3333H76L76.2061 25.3382ZM60 26.3333C58.3949 26.3333 57.0842 27.5939 57.0039 29.179L57 29.3333V45.3333C57 46.9902 58.3431 48.3333 60 48.3333H76C77.6569 48.3333 79 46.9902 79 45.3333V29.3333C79 27.7282 77.7394 26.4175 76.1543 26.3372L76 26.3333H60Z" fill="#E4E8F0"/>
<path d="M88 29.3333C88 27.1242 89.7909 25.3333 92 25.3333H108C110.209 25.3333 112 27.1242 112 29.3333V45.3333C112 47.5425 110.209 49.3333 108 49.3333H92C89.7909 49.3333 88 47.5425 88 45.3333V29.3333Z" fill="white"/>
<path fill-rule="evenodd" clip-rule="evenodd" d="M108.206 25.3382C110.319 25.4454 112 27.1933 112 29.3333V45.3333L111.995 45.5394C111.891 47.5845 110.251 49.2247 108.206 49.3284L108 49.3333H92C89.86 49.3333 88.1121 47.6528 88.0049 45.5394L88 45.3333V29.3333C88 27.1242 89.7909 25.3333 92 25.3333H108L108.206 25.3382ZM92 26.3333C90.3949 26.3333 89.0842 27.5939 89.0039 29.179L89 29.3333V45.3333C89 46.9902 90.3431 48.3333 92 48.3333H108C109.657 48.3333 111 46.9902 111 45.3333V29.3333C111 27.7282 109.739 26.4175 108.154 26.3372L108 26.3333H92Z" fill="#E4E8F0"/>
<path d="M24 29.3333C24 27.1242 25.7909 25.3333 28 25.3333H44C46.2091 25.3333 48 27.1242 48 29.3333V45.3333C48 47.5425 46.2091 49.3333 44 49.3333H28C25.7909 49.3333 24 47.5425 24 45.3333V29.3333Z" fill="white"/>
<path fill-rule="evenodd" clip-rule="evenodd" d="M44.2061 25.3382C46.3194 25.4454 48 27.1933 48 29.3333V45.3333L47.9951 45.5394C47.8913 47.5845 46.2512 49.2247 44.2061 49.3284L44 49.3333H28C25.86 49.3333 24.1121 47.6528 24.0049 45.5394L24 45.3333V29.3333C24 27.1242 25.7909 25.3333 28 25.3333H44L44.2061 25.3382ZM28 26.3333C26.3949 26.3333 25.0842 27.5939 25.0039 29.179L25 29.3333V45.3333C25 46.9902 26.3431 48.3333 28 48.3333H44C45.6569 48.3333 47 46.9902 47 45.3333V29.3333C47 27.7282 45.7394 26.4175 44.1543 26.3372L44 26.3333H28Z" fill="#E4E8F0"/>
<path fill-rule="evenodd" clip-rule="evenodd" d="M277.206 0.00488281C279.319 0.112118 281 1.85997 281 4V220C281 222.209 279.209 224 277 224H4C1.85997 224 0.112115 222.319 0.00488281 220.206L0 220V4C0 1.85996 1.68056 0.112114 3.79395 0.00488281L4 0H277L277.206 0.00488281ZM4 1C2.34315 1 1 2.34315 1 4V220C1 221.657 2.34315 223 4 223H277C278.657 223 280 221.657 280 220V4C280 2.34315 278.657 1 277 1H4Z" fill="#0056CF"/>
</svg>
