<svg width="281" height="224" viewBox="0 0 281 224" fill="none" xmlns="http://www.w3.org/2000/svg">
<path d="M196 177C197.657 177 199 178.343 199 180V212C199 213.657 197.657 215 196 215H20C18.3431 215 17 213.657 17 212V180C17.0002 178.343 18.3433 177 20 177H196Z" fill="#F3F7FB"/>
<path fill-rule="evenodd" clip-rule="evenodd" d="M196 176C198.209 176 200 177.791 200 180V212L199.995 212.206C199.891 214.251 198.251 215.891 196.206 215.995L196 216H20L19.7939 215.995C17.7488 215.891 16.1087 214.251 16.0049 212.206L16 212V180C16.0002 177.791 17.791 176 20 176H196ZM20 177C18.3433 177 17.0002 178.343 17 180V212C17 213.657 18.3431 215 20 215H196C197.657 215 199 213.657 199 212V180C199 178.343 197.657 177 196 177H20Z" fill="#E4E8F0"/>
<path d="M56 188C56 185.791 57.7909 184 60 184H76C78.2091 184 80 185.791 80 188V204C80 206.209 78.2091 208 76 208H60C57.7909 208 56 206.209 56 204V188Z" fill="white"/>
<path fill-rule="evenodd" clip-rule="evenodd" d="M76.2061 184.005C78.3194 184.112 80 185.86 80 188V204L79.9951 204.206C79.8913 206.251 78.2512 207.891 76.2061 207.995L76 208H60C57.86 208 56.1121 206.319 56.0049 204.206L56 204V188C56 185.791 57.7909 184 60 184H76L76.2061 184.005ZM60 185C58.3949 185 57.0842 186.261 57.0039 187.846L57 188V204C57 205.657 58.3431 207 60 207H76C77.6569 207 79 205.657 79 204V188C79 186.395 77.7394 185.084 76.1543 185.004L76 185H60Z" fill="#E4E8F0"/>
<path d="M88 188C88 185.791 89.7909 184 92 184H108C110.209 184 112 185.791 112 188V204C112 206.209 110.209 208 108 208H92C89.7909 208 88 206.209 88 204V188Z" fill="white"/>
<path fill-rule="evenodd" clip-rule="evenodd" d="M108.206 184.005C110.319 184.112 112 185.86 112 188V204L111.995 204.206C111.891 206.251 110.251 207.891 108.206 207.995L108 208H92C89.86 208 88.1121 206.319 88.0049 204.206L88 204V188C88 185.791 89.7909 184 92 184H108L108.206 184.005ZM92 185C90.3949 185 89.0842 186.261 89.0039 187.846L89 188V204C89 205.657 90.3431 207 92 207H108C109.657 207 111 205.657 111 204V188C111 186.395 109.739 185.084 108.154 185.004L108 185H92Z" fill="#E4E8F0"/>
<path d="M24 188C24 185.791 25.7909 184 28 184H44C46.2091 184 48 185.791 48 188V204C48 206.209 46.2091 208 44 208H28C25.7909 208 24 206.209 24 204V188Z" fill="white"/>
<path fill-rule="evenodd" clip-rule="evenodd" d="M44.2061 184.005C46.3194 184.112 48 185.86 48 188V204L47.9951 204.206C47.8913 206.251 46.2512 207.891 44.2061 207.995L44 208H28C25.86 208 24.1121 206.319 24.0049 204.206L24 204V188C24 185.791 25.7909 184 28 184H44L44.2061 184.005ZM28 185C26.3949 185 25.0842 186.261 25.0039 187.846L25 188V204C25 205.657 26.3431 207 28 207H44C45.6569 207 47 205.657 47 204V188C47 186.395 45.7394 185.084 44.1543 185.004L44 185H28Z" fill="#E4E8F0"/>
<path d="M196 93C197.657 93 199 94.3433 199 96V128C199 129.657 197.657 131 196 131H20C18.3431 131 17 129.657 17 128V96C17.0002 94.3433 18.3433 93 20 93H196Z" fill="#F3F7FB"/>
<path fill-rule="evenodd" clip-rule="evenodd" d="M196 92C198.209 92 200 93.791 200 96V128L199.995 128.206C199.891 130.251 198.251 131.891 196.206 131.995L196 132H20L19.7939 131.995C17.7488 131.891 16.1087 130.251 16.0049 128.206L16 128V96C16.0002 93.791 17.791 92 20 92H196ZM20 93C18.3433 93 17.0002 94.3433 17 96V128C17 129.657 18.3431 131 20 131H196C197.657 131 199 129.657 199 128V96C199 94.3433 197.657 93 196 93H20Z" fill="#E4E8F0"/>
<path d="M56 104C56 101.791 57.7909 100 60 100H76C78.2091 100 80 101.791 80 104V120C80 122.209 78.2091 124 76 124H60C57.7909 124 56 122.209 56 120V104Z" fill="white"/>
<path fill-rule="evenodd" clip-rule="evenodd" d="M76.2061 100.005C78.3194 100.112 80 101.86 80 104V120L79.9951 120.206C79.8913 122.251 78.2512 123.891 76.2061 123.995L76 124H60C57.86 124 56.1121 122.319 56.0049 120.206L56 120V104C56 101.791 57.7909 100 60 100H76L76.2061 100.005ZM60 101C58.3949 101 57.0842 102.261 57.0039 103.846L57 104V120C57 121.657 58.3431 123 60 123H76C77.6569 123 79 121.657 79 120V104C79 102.395 77.7394 101.084 76.1543 101.004L76 101H60Z" fill="#E4E8F0"/>
<path d="M88 104C88 101.791 89.7909 100 92 100H108C110.209 100 112 101.791 112 104V120C112 122.209 110.209 124 108 124H92C89.7909 124 88 122.209 88 120V104Z" fill="white"/>
<path fill-rule="evenodd" clip-rule="evenodd" d="M108.206 100.005C110.319 100.112 112 101.86 112 104V120L111.995 120.206C111.891 122.251 110.251 123.891 108.206 123.995L108 124H92C89.86 124 88.1121 122.319 88.0049 120.206L88 120V104C88 101.791 89.7909 100 92 100H108L108.206 100.005ZM92 101C90.3949 101 89.0842 102.261 89.0039 103.846L89 104V120C89 121.657 90.3431 123 92 123H108C109.657 123 111 121.657 111 120V104C111 102.395 109.739 101.084 108.154 101.004L108 101H92Z" fill="#E4E8F0"/>
<path d="M24 104C24 101.791 25.7909 100 28 100H44C46.2091 100 48 101.791 48 104V120C48 122.209 46.2091 124 44 124H28C25.7909 124 24 122.209 24 120V104Z" fill="white"/>
<path fill-rule="evenodd" clip-rule="evenodd" d="M44.2061 100.005C46.3194 100.112 48 101.86 48 104V120L47.9951 120.206C47.8913 122.251 46.2512 123.891 44.2061 123.995L44 124H28C25.86 124 24.1121 122.319 24.0049 120.206L24 120V104C24 101.791 25.7909 100 28 100H44L44.2061 100.005ZM28 101C26.3949 101 25.0842 102.261 25.0039 103.846L25 104V120C25 121.657 26.3431 123 28 123H44C45.6569 123 47 121.657 47 120V104C47 102.395 45.7394 101.084 44.1543 101.004L44 101H28Z" fill="#E4E8F0"/>
<path d="M196 9C197.657 9 199 10.3433 199 12V44C199 45.6569 197.657 47 196 47H20C18.3431 47 17 45.6569 17 44V12C17.0002 10.3433 18.3433 9 20 9H196Z" fill="#F3F7FB"/>
<path fill-rule="evenodd" clip-rule="evenodd" d="M196 8C198.209 8 200 9.79103 200 12V44L199.995 44.2061C199.891 46.2512 198.251 47.8913 196.206 47.9951L196 48H20L19.7939 47.9951C17.7488 47.8913 16.1087 46.2512 16.0049 44.2061L16 44V12C16.0002 9.79103 17.791 8 20 8H196ZM20 9C18.3433 9 17.0002 10.3433 17 12V44C17 45.6569 18.3431 47 20 47H196C197.657 47 199 45.6569 199 44V12C199 10.3433 197.657 9 196 9H20Z" fill="#E4E8F0"/>
<path d="M56 20C56 17.7909 57.7909 16 60 16H76C78.2091 16 80 17.7909 80 20V36C80 38.2091 78.2091 40 76 40H60C57.7909 40 56 38.2091 56 36V20Z" fill="white"/>
<path fill-rule="evenodd" clip-rule="evenodd" d="M76.2061 16.0049C78.3194 16.1121 80 17.86 80 20V36L79.9951 36.2061C79.8913 38.2512 78.2512 39.8913 76.2061 39.9951L76 40H60C57.86 40 56.1121 38.3194 56.0049 36.2061L56 36V20C56 17.7909 57.7909 16 60 16H76L76.2061 16.0049ZM60 17C58.3949 17 57.0842 18.2606 57.0039 19.8457L57 20V36C57 37.6569 58.3431 39 60 39H76C77.6569 39 79 37.6569 79 36V20C79 18.3949 77.7394 17.0842 76.1543 17.0039L76 17H60Z" fill="#E4E8F0"/>
<path d="M88 20C88 17.7909 89.7909 16 92 16H108C110.209 16 112 17.7909 112 20V36C112 38.2091 110.209 40 108 40H92C89.7909 40 88 38.2091 88 36V20Z" fill="white"/>
<path fill-rule="evenodd" clip-rule="evenodd" d="M108.206 16.0049C110.319 16.1121 112 17.86 112 20V36L111.995 36.2061C111.891 38.2512 110.251 39.8913 108.206 39.9951L108 40H92C89.86 40 88.1121 38.3194 88.0049 36.2061L88 36V20C88 17.7909 89.7909 16 92 16H108L108.206 16.0049ZM92 17C90.3949 17 89.0842 18.2606 89.0039 19.8457L89 20V36C89 37.6569 90.3431 39 92 39H108C109.657 39 111 37.6569 111 36V20C111 18.3949 109.739 17.0842 108.154 17.0039L108 17H92Z" fill="#E4E8F0"/>
<path d="M24 20C24 17.7909 25.7909 16 28 16H44C46.2091 16 48 17.7909 48 20V36C48 38.2091 46.2091 40 44 40H28C25.7909 40 24 38.2091 24 36V20Z" fill="white"/>
<path fill-rule="evenodd" clip-rule="evenodd" d="M44.2061 16.0049C46.3194 16.1121 48 17.86 48 20V36L47.9951 36.2061C47.8913 38.2512 46.2512 39.8913 44.2061 39.9951L44 40H28C25.86 40 24.1121 38.3194 24.0049 36.2061L24 36V20C24 17.7909 25.7909 16 28 16H44L44.2061 16.0049ZM28 17C26.3949 17 25.0842 18.2606 25.0039 19.8457L25 20V36C25 37.6569 26.3431 39 28 39H44C45.6569 39 47 37.6569 47 36V20C47 18.3949 45.7394 17.0842 44.1543 17.0039L44 17H28Z" fill="#E4E8F0"/>
<path fill-rule="evenodd" clip-rule="evenodd" d="M277.206 0.00488281C279.319 0.112118 281 1.85997 281 4V220C281 222.209 279.209 224 277 224H4C1.85997 224 0.112115 222.319 0.00488281 220.206L0 220V4C0 1.85996 1.68056 0.112114 3.79395 0.00488281L4 0H277L277.206 0.00488281ZM4 1C2.34315 1 1 2.34315 1 4V220C1 221.657 2.34315 223 4 223H277C278.657 223 280 221.657 280 220V4C280 2.34315 278.657 1 277 1H4Z" fill="#0056CF"/>
</svg>
