<svg width="281" height="224" viewBox="0 0 281 224" fill="none" xmlns="http://www.w3.org/2000/svg">
<path d="M196 177C197.657 177 199 178.343 199 180V212C199 213.657 197.657 215 196 215H20C18.3431 215 17 213.657 17 212V180C17.0002 178.343 18.3433 177 20 177H196Z" fill="#F3F7FB"/>
<path fill-rule="evenodd" clip-rule="evenodd" d="M196 176C198.209 176 200 177.791 200 180V212L199.995 212.206C199.891 214.251 198.251 215.891 196.206 215.995L196 216H20L19.7939 215.995C17.7488 215.891 16.1087 214.251 16.0049 212.206L16 212V180C16.0002 177.791 17.791 176 20 176H196ZM20 177C18.3433 177 17.0002 178.343 17 180V212C17 213.657 18.3431 215 20 215H196C197.657 215 199 213.657 199 212V180C199 178.343 197.657 177 196 177H20Z" fill="#E4E8F0"/>
<path d="M56 188C56 185.791 57.7909 184 60 184H76C78.2091 184 80 185.791 80 188V204C80 206.209 78.2091 208 76 208H60C57.7909 208 56 206.209 56 204V188Z" fill="white"/>
<path fill-rule="evenodd" clip-rule="evenodd" d="M76.2061 184.005C78.3194 184.112 80 185.86 80 188V204L79.9951 204.206C79.8913 206.251 78.2512 207.891 76.2061 207.995L76 208H60C57.86 208 56.1121 206.319 56.0049 204.206L56 204V188C56 185.791 57.7909 184 60 184H76L76.2061 184.005ZM60 185C58.3949 185 57.0842 186.261 57.0039 187.846L57 188V204C57 205.657 58.3431 207 60 207H76C77.6569 207 79 205.657 79 204V188C79 186.395 77.7394 185.084 76.1543 185.004L76 185H60Z" fill="#E4E8F0"/>
<path d="M88 188C88 185.791 89.7909 184 92 184H108C110.209 184 112 185.791 112 188V204C112 206.209 110.209 208 108 208H92C89.7909 208 88 206.209 88 204V188Z" fill="white"/>
<path fill-rule="evenodd" clip-rule="evenodd" d="M108.206 184.005C110.319 184.112 112 185.86 112 188V204L111.995 204.206C111.891 206.251 110.251 207.891 108.206 207.995L108 208H92C89.86 208 88.1121 206.319 88.0049 204.206L88 204V188C88 185.791 89.7909 184 92 184H108L108.206 184.005ZM92 185C90.3949 185 89.0842 186.261 89.0039 187.846L89 188V204C89 205.657 90.3431 207 92 207H108C109.657 207 111 205.657 111 204V188C111 186.395 109.739 185.084 108.154 185.004L108 185H92Z" fill="#E4E8F0"/>
<path d="M24 188C24 185.791 25.7909 184 28 184H44C46.2091 184 48 185.791 48 188V204C48 206.209 46.2091 208 44 208H28C25.7909 208 24 206.209 24 204V188Z" fill="white"/>
<path fill-rule="evenodd" clip-rule="evenodd" d="M44.2061 184.005C46.3194 184.112 48 185.86 48 188V204L47.9951 204.206C47.8913 206.251 46.2512 207.891 44.2061 207.995L44 208H28C25.86 208 24.1121 206.319 24.0049 204.206L24 204V188C24 185.791 25.7909 184 28 184H44L44.2061 184.005ZM28 185C26.3949 185 25.0842 186.261 25.0039 187.846L25 188V204C25 205.657 26.3431 207 28 207H44C45.6569 207 47 205.657 47 204V188C47 186.395 45.7394 185.084 44.1543 185.004L44 185H28Z" fill="#E4E8F0"/>
<path d="M196 129C197.657 129 199 130.343 199 132V164C199 165.657 197.657 167 196 167H20C18.3431 167 17 165.657 17 164V132C17.0002 130.343 18.3433 129 20 129H196Z" fill="#F3F7FB"/>
<path fill-rule="evenodd" clip-rule="evenodd" d="M196 128C198.209 128 200 129.791 200 132V164L199.995 164.206C199.891 166.251 198.251 167.891 196.206 167.995L196 168H20L19.7939 167.995C17.7488 167.891 16.1087 166.251 16.0049 164.206L16 164V132C16.0002 129.791 17.791 128 20 128H196ZM20 129C18.3433 129 17.0002 130.343 17 132V164C17 165.657 18.3431 167 20 167H196C197.657 167 199 165.657 199 164V132C199 130.343 197.657 129 196 129H20Z" fill="#E4E8F0"/>
<path d="M56 140C56 137.791 57.7909 136 60 136H76C78.2091 136 80 137.791 80 140V156C80 158.209 78.2091 160 76 160H60C57.7909 160 56 158.209 56 156V140Z" fill="white"/>
<path fill-rule="evenodd" clip-rule="evenodd" d="M76.2061 136.005C78.3194 136.112 80 137.86 80 140V156L79.9951 156.206C79.8913 158.251 78.2512 159.891 76.2061 159.995L76 160H60C57.86 160 56.1121 158.319 56.0049 156.206L56 156V140C56 137.791 57.7909 136 60 136H76L76.2061 136.005ZM60 137C58.3949 137 57.0842 138.261 57.0039 139.846L57 140V156C57 157.657 58.3431 159 60 159H76C77.6569 159 79 157.657 79 156V140C79 138.395 77.7394 137.084 76.1543 137.004L76 137H60Z" fill="#E4E8F0"/>
<path d="M88 140C88 137.791 89.7909 136 92 136H108C110.209 136 112 137.791 112 140V156C112 158.209 110.209 160 108 160H92C89.7909 160 88 158.209 88 156V140Z" fill="white"/>
<path fill-rule="evenodd" clip-rule="evenodd" d="M108.206 136.005C110.319 136.112 112 137.86 112 140V156L111.995 156.206C111.891 158.251 110.251 159.891 108.206 159.995L108 160H92C89.86 160 88.1121 158.319 88.0049 156.206L88 156V140C88 137.791 89.7909 136 92 136H108L108.206 136.005ZM92 137C90.3949 137 89.0842 138.261 89.0039 139.846L89 140V156C89 157.657 90.3431 159 92 159H108C109.657 159 111 157.657 111 156V140C111 138.395 109.739 137.084 108.154 137.004L108 137H92Z" fill="#E4E8F0"/>
<path d="M24 140C24 137.791 25.7909 136 28 136H44C46.2091 136 48 137.791 48 140V156C48 158.209 46.2091 160 44 160H28C25.7909 160 24 158.209 24 156V140Z" fill="white"/>
<path fill-rule="evenodd" clip-rule="evenodd" d="M44.2061 136.005C46.3194 136.112 48 137.86 48 140V156L47.9951 156.206C47.8913 158.251 46.2512 159.891 44.2061 159.995L44 160H28C25.86 160 24.1121 158.319 24.0049 156.206L24 156V140C24 137.791 25.7909 136 28 136H44L44.2061 136.005ZM28 137C26.3949 137 25.0842 138.261 25.0039 139.846L25 140V156C25 157.657 26.3431 159 28 159H44C45.6569 159 47 157.657 47 156V140C47 138.395 45.7394 137.084 44.1543 137.004L44 137H28Z" fill="#E4E8F0"/>
<path d="M196 81C197.657 81 199 82.3433 199 84V116C199 117.657 197.657 119 196 119H20C18.3431 119 17 117.657 17 116V84C17.0002 82.3433 18.3433 81 20 81H196Z" fill="#F3F7FB"/>
<path fill-rule="evenodd" clip-rule="evenodd" d="M196 80C198.209 80 200 81.791 200 84V116L199.995 116.206C199.891 118.251 198.251 119.891 196.206 119.995L196 120H20L19.7939 119.995C17.7488 119.891 16.1087 118.251 16.0049 116.206L16 116V84C16.0002 81.791 17.791 80 20 80H196ZM20 81C18.3433 81 17.0002 82.3433 17 84V116C17 117.657 18.3431 119 20 119H196C197.657 119 199 117.657 199 116V84C199 82.3433 197.657 81 196 81H20Z" fill="#E4E8F0"/>
<path d="M56 92C56 89.7909 57.7909 88 60 88H76C78.2091 88 80 89.7909 80 92V108C80 110.209 78.2091 112 76 112H60C57.7909 112 56 110.209 56 108V92Z" fill="white"/>
<path fill-rule="evenodd" clip-rule="evenodd" d="M76.2061 88.0049C78.3194 88.1121 80 89.86 80 92V108L79.9951 108.206C79.8913 110.251 78.2512 111.891 76.2061 111.995L76 112H60C57.86 112 56.1121 110.319 56.0049 108.206L56 108V92C56 89.7909 57.7909 88 60 88H76L76.2061 88.0049ZM60 89C58.3949 89 57.0842 90.2606 57.0039 91.8457L57 92V108C57 109.657 58.3431 111 60 111H76C77.6569 111 79 109.657 79 108V92C79 90.3949 77.7394 89.0842 76.1543 89.0039L76 89H60Z" fill="#E4E8F0"/>
<path d="M88 92C88 89.7909 89.7909 88 92 88H108C110.209 88 112 89.7909 112 92V108C112 110.209 110.209 112 108 112H92C89.7909 112 88 110.209 88 108V92Z" fill="white"/>
<path fill-rule="evenodd" clip-rule="evenodd" d="M108.206 88.0049C110.319 88.1121 112 89.86 112 92V108L111.995 108.206C111.891 110.251 110.251 111.891 108.206 111.995L108 112H92C89.86 112 88.1121 110.319 88.0049 108.206L88 108V92C88 89.7909 89.7909 88 92 88H108L108.206 88.0049ZM92 89C90.3949 89 89.0842 90.2606 89.0039 91.8457L89 92V108C89 109.657 90.3431 111 92 111H108C109.657 111 111 109.657 111 108V92C111 90.3949 109.739 89.0842 108.154 89.0039L108 89H92Z" fill="#E4E8F0"/>
<path d="M24 92C24 89.7909 25.7909 88 28 88H44C46.2091 88 48 89.7909 48 92V108C48 110.209 46.2091 112 44 112H28C25.7909 112 24 110.209 24 108V92Z" fill="white"/>
<path fill-rule="evenodd" clip-rule="evenodd" d="M44.2061 88.0049C46.3194 88.1121 48 89.86 48 92V108L47.9951 108.206C47.8913 110.251 46.2512 111.891 44.2061 111.995L44 112H28C25.86 112 24.1121 110.319 24.0049 108.206L24 108V92C24 89.7909 25.7909 88 28 88H44L44.2061 88.0049ZM28 89C26.3949 89 25.0842 90.2606 25.0039 91.8457L25 92V108C25 109.657 26.3431 111 28 111H44C45.6569 111 47 109.657 47 108V92C47 90.3949 45.7394 89.0842 44.1543 89.0039L44 89H28Z" fill="#E4E8F0"/>
<path fill-rule="evenodd" clip-rule="evenodd" d="M277.206 0.00488281C279.319 0.112118 281 1.85997 281 4V220C281 222.209 279.209 224 277 224H4C1.85997 224 0.112115 222.319 0.00488281 220.206L0 220V4C0 1.85996 1.68056 0.112114 3.79395 0.00488281L4 0H277L277.206 0.00488281ZM4 1C2.34315 1 1 2.34315 1 4V220C1 221.657 2.34315 223 4 223H277C278.657 223 280 221.657 280 220V4C280 2.34315 278.657 1 277 1H4Z" fill="#0056CF"/>
</svg>
