<svg width="281" height="224" viewBox="0 0 281 224" fill="none" xmlns="http://www.w3.org/2000/svg">
<path d="M196 159C197.657 159 199 160.343 199 162V194C199 195.657 197.657 197 196 197H20C18.3431 197 17 195.657 17 194V162C17.0002 160.343 18.3433 159 20 159H196Z" fill="#F3F7FB"/>
<path fill-rule="evenodd" clip-rule="evenodd" d="M196 158C198.209 158 200 159.791 200 162V194L199.995 194.206C199.891 196.251 198.251 197.891 196.206 197.995L196 198H20L19.7939 197.995C17.7488 197.891 16.1087 196.251 16.0049 194.206L16 194V162C16.0002 159.791 17.791 158 20 158H196ZM20 159C18.3433 159 17.0002 160.343 17 162V194C17 195.657 18.3431 197 20 197H196C197.657 197 199 195.657 199 194V162C199 160.343 197.657 159 196 159H20Z" fill="#E4E8F0"/>
<path d="M56 170C56 167.791 57.7909 166 60 166H76C78.2091 166 80 167.791 80 170V186C80 188.209 78.2091 190 76 190H60C57.7909 190 56 188.209 56 186V170Z" fill="white"/>
<path fill-rule="evenodd" clip-rule="evenodd" d="M76.2061 166.005C78.3194 166.112 80 167.86 80 170V186L79.9951 186.206C79.8913 188.251 78.2512 189.891 76.2061 189.995L76 190H60C57.86 190 56.1121 188.319 56.0049 186.206L56 186V170C56 167.791 57.7909 166 60 166H76L76.2061 166.005ZM60 167C58.3949 167 57.0842 168.261 57.0039 169.846L57 170V186C57 187.657 58.3431 189 60 189H76C77.6569 189 79 187.657 79 186V170C79 168.395 77.7394 167.084 76.1543 167.004L76 167H60Z" fill="#E4E8F0"/>
<path d="M88 170C88 167.791 89.7909 166 92 166H108C110.209 166 112 167.791 112 170V186C112 188.209 110.209 190 108 190H92C89.7909 190 88 188.209 88 186V170Z" fill="white"/>
<path fill-rule="evenodd" clip-rule="evenodd" d="M108.206 166.005C110.319 166.112 112 167.86 112 170V186L111.995 186.206C111.891 188.251 110.251 189.891 108.206 189.995L108 190H92C89.86 190 88.1121 188.319 88.0049 186.206L88 186V170C88 167.791 89.7909 166 92 166H108L108.206 166.005ZM92 167C90.3949 167 89.0842 168.261 89.0039 169.846L89 170V186C89 187.657 90.3431 189 92 189H108C109.657 189 111 187.657 111 186V170C111 168.395 109.739 167.084 108.154 167.004L108 167H92Z" fill="#E4E8F0"/>
<path d="M24 170C24 167.791 25.7909 166 28 166H44C46.2091 166 48 167.791 48 170V186C48 188.209 46.2091 190 44 190H28C25.7909 190 24 188.209 24 186V170Z" fill="white"/>
<path fill-rule="evenodd" clip-rule="evenodd" d="M44.2061 166.005C46.3194 166.112 48 167.86 48 170V186L47.9951 186.206C47.8913 188.251 46.2512 189.891 44.2061 189.995L44 190H28C25.86 190 24.1121 188.319 24.0049 186.206L24 186V170C24 167.791 25.7909 166 28 166H44L44.2061 166.005ZM28 167C26.3949 167 25.0842 168.261 25.0039 169.846L25 170V186C25 187.657 26.3431 189 28 189H44C45.6569 189 47 187.657 47 186V170C47 168.395 45.7394 167.084 44.1543 167.004L44 167H28Z" fill="#E4E8F0"/>
<path d="M196 93C197.657 93 199 94.3433 199 96V128C199 129.657 197.657 131 196 131H20C18.3431 131 17 129.657 17 128V96C17.0002 94.3433 18.3433 93 20 93H196Z" fill="#F3F7FB"/>
<path fill-rule="evenodd" clip-rule="evenodd" d="M196 92C198.209 92 200 93.791 200 96V128L199.995 128.206C199.891 130.251 198.251 131.891 196.206 131.995L196 132H20L19.7939 131.995C17.7488 131.891 16.1087 130.251 16.0049 128.206L16 128V96C16.0002 93.791 17.791 92 20 92H196ZM20 93C18.3433 93 17.0002 94.3433 17 96V128C17 129.657 18.3431 131 20 131H196C197.657 131 199 129.657 199 128V96C199 94.3433 197.657 93 196 93H20Z" fill="#E4E8F0"/>
<path d="M56 104C56 101.791 57.7909 100 60 100H76C78.2091 100 80 101.791 80 104V120C80 122.209 78.2091 124 76 124H60C57.7909 124 56 122.209 56 120V104Z" fill="white"/>
<path fill-rule="evenodd" clip-rule="evenodd" d="M76.2061 100.005C78.3194 100.112 80 101.86 80 104V120L79.9951 120.206C79.8913 122.251 78.2512 123.891 76.2061 123.995L76 124H60C57.86 124 56.1121 122.319 56.0049 120.206L56 120V104C56 101.791 57.7909 100 60 100H76L76.2061 100.005ZM60 101C58.3949 101 57.0842 102.261 57.0039 103.846L57 104V120C57 121.657 58.3431 123 60 123H76C77.6569 123 79 121.657 79 120V104C79 102.395 77.7394 101.084 76.1543 101.004L76 101H60Z" fill="#E4E8F0"/>
<path d="M88 104C88 101.791 89.7909 100 92 100H108C110.209 100 112 101.791 112 104V120C112 122.209 110.209 124 108 124H92C89.7909 124 88 122.209 88 120V104Z" fill="white"/>
<path fill-rule="evenodd" clip-rule="evenodd" d="M108.206 100.005C110.319 100.112 112 101.86 112 104V120L111.995 120.206C111.891 122.251 110.251 123.891 108.206 123.995L108 124H92C89.86 124 88.1121 122.319 88.0049 120.206L88 120V104C88 101.791 89.7909 100 92 100H108L108.206 100.005ZM92 101C90.3949 101 89.0842 102.261 89.0039 103.846L89 104V120C89 121.657 90.3431 123 92 123H108C109.657 123 111 121.657 111 120V104C111 102.395 109.739 101.084 108.154 101.004L108 101H92Z" fill="#E4E8F0"/>
<path d="M24 104C24 101.791 25.7909 100 28 100H44C46.2091 100 48 101.791 48 104V120C48 122.209 46.2091 124 44 124H28C25.7909 124 24 122.209 24 120V104Z" fill="white"/>
<path fill-rule="evenodd" clip-rule="evenodd" d="M44.2061 100.005C46.3194 100.112 48 101.86 48 104V120L47.9951 120.206C47.8913 122.251 46.2512 123.891 44.2061 123.995L44 124H28C25.86 124 24.1121 122.319 24.0049 120.206L24 120V104C24 101.791 25.7909 100 28 100H44L44.2061 100.005ZM28 101C26.3949 101 25.0842 102.261 25.0039 103.846L25 104V120C25 121.657 26.3431 123 28 123H44C45.6569 123 47 121.657 47 120V104C47 102.395 45.7394 101.084 44.1543 101.004L44 101H28Z" fill="#E4E8F0"/>
<path d="M196 27C197.657 27 199 28.3433 199 30V62C199 63.6569 197.657 65 196 65H20C18.3431 65 17 63.6569 17 62V30C17.0002 28.3433 18.3433 27 20 27H196Z" fill="#F3F7FB"/>
<path fill-rule="evenodd" clip-rule="evenodd" d="M196 26C198.209 26 200 27.791 200 30V62L199.995 62.2061C199.891 64.2512 198.251 65.8913 196.206 65.9951L196 66H20L19.7939 65.9951C17.7488 65.8913 16.1087 64.2512 16.0049 62.2061L16 62V30C16.0002 27.791 17.791 26 20 26H196ZM20 27C18.3433 27 17.0002 28.3433 17 30V62C17 63.6569 18.3431 65 20 65H196C197.657 65 199 63.6569 199 62V30C199 28.3433 197.657 27 196 27H20Z" fill="#E4E8F0"/>
<path d="M56 38C56 35.7909 57.7909 34 60 34H76C78.2091 34 80 35.7909 80 38V54C80 56.2091 78.2091 58 76 58H60C57.7909 58 56 56.2091 56 54V38Z" fill="white"/>
<path fill-rule="evenodd" clip-rule="evenodd" d="M76.2061 34.0049C78.3194 34.1121 80 35.86 80 38V54L79.9951 54.2061C79.8913 56.2512 78.2512 57.8913 76.2061 57.9951L76 58H60C57.86 58 56.1121 56.3194 56.0049 54.2061L56 54V38C56 35.7909 57.7909 34 60 34H76L76.2061 34.0049ZM60 35C58.3949 35 57.0842 36.2606 57.0039 37.8457L57 38V54C57 55.6569 58.3431 57 60 57H76C77.6569 57 79 55.6569 79 54V38C79 36.3949 77.7394 35.0842 76.1543 35.0039L76 35H60Z" fill="#E4E8F0"/>
<path d="M88 38C88 35.7909 89.7909 34 92 34H108C110.209 34 112 35.7909 112 38V54C112 56.2091 110.209 58 108 58H92C89.7909 58 88 56.2091 88 54V38Z" fill="white"/>
<path fill-rule="evenodd" clip-rule="evenodd" d="M108.206 34.0049C110.319 34.1121 112 35.86 112 38V54L111.995 54.2061C111.891 56.2512 110.251 57.8913 108.206 57.9951L108 58H92C89.86 58 88.1121 56.3194 88.0049 54.2061L88 54V38C88 35.7909 89.7909 34 92 34H108L108.206 34.0049ZM92 35C90.3949 35 89.0842 36.2606 89.0039 37.8457L89 38V54C89 55.6569 90.3431 57 92 57H108C109.657 57 111 55.6569 111 54V38C111 36.3949 109.739 35.0842 108.154 35.0039L108 35H92Z" fill="#E4E8F0"/>
<path d="M24 38C24 35.7909 25.7909 34 28 34H44C46.2091 34 48 35.7909 48 38V54C48 56.2091 46.2091 58 44 58H28C25.7909 58 24 56.2091 24 54V38Z" fill="white"/>
<path fill-rule="evenodd" clip-rule="evenodd" d="M44.2061 34.0049C46.3194 34.1121 48 35.86 48 38V54L47.9951 54.2061C47.8913 56.2512 46.2512 57.8913 44.2061 57.9951L44 58H28C25.86 58 24.1121 56.3194 24.0049 54.2061L24 54V38C24 35.7909 25.7909 34 28 34H44L44.2061 34.0049ZM28 35C26.3949 35 25.0842 36.2606 25.0039 37.8457L25 38V54C25 55.6569 26.3431 57 28 57H44C45.6569 57 47 55.6569 47 54V38C47 36.3949 45.7394 35.0842 44.1543 35.0039L44 35H28Z" fill="#E4E8F0"/>
<path fill-rule="evenodd" clip-rule="evenodd" d="M277.206 0.00488281C279.319 0.112118 281 1.85997 281 4V220C281 222.209 279.209 224 277 224H4C1.85997 224 0.112115 222.319 0.00488281 220.206L0 220V4C0 1.85996 1.68056 0.112114 3.79395 0.00488281L4 0H277L277.206 0.00488281ZM4 1C2.34315 1 1 2.34315 1 4V220C1 221.657 2.34315 223 4 223H277C278.657 223 280 221.657 280 220V4C280 2.34315 278.657 1 277 1H4Z" fill="#0056CF"/>
</svg>
