<svg width="281" height="224" viewBox="0 0 281 224" fill="none" xmlns="http://www.w3.org/2000/svg">
<path d="M196 141C197.657 141 199 142.343 199 144V176C199 177.657 197.657 179 196 179H20C18.3431 179 17 177.657 17 176V144C17.0002 142.343 18.3433 141 20 141H196Z" fill="#F3F7FB"/>
<path fill-rule="evenodd" clip-rule="evenodd" d="M196 140C198.209 140 200 141.791 200 144V176L199.995 176.206C199.891 178.251 198.251 179.891 196.206 179.995L196 180H20L19.7939 179.995C17.7488 179.891 16.1087 178.251 16.0049 176.206L16 176V144C16.0002 141.791 17.791 140 20 140H196ZM20 141C18.3433 141 17.0002 142.343 17 144V176C17 177.657 18.3431 179 20 179H196C197.657 179 199 177.657 199 176V144C199 142.343 197.657 141 196 141H20Z" fill="#E4E8F0"/>
<path d="M56 152C56 149.791 57.7909 148 60 148H76C78.2091 148 80 149.791 80 152V168C80 170.209 78.2091 172 76 172H60C57.7909 172 56 170.209 56 168V152Z" fill="white"/>
<path fill-rule="evenodd" clip-rule="evenodd" d="M76.2061 148.005C78.3194 148.112 80 149.86 80 152V168L79.9951 168.206C79.8913 170.251 78.2512 171.891 76.2061 171.995L76 172H60C57.86 172 56.1121 170.319 56.0049 168.206L56 168V152C56 149.791 57.7909 148 60 148H76L76.2061 148.005ZM60 149C58.3949 149 57.0842 150.261 57.0039 151.846L57 152V168C57 169.657 58.3431 171 60 171H76C77.6569 171 79 169.657 79 168V152C79 150.395 77.7394 149.084 76.1543 149.004L76 149H60Z" fill="#E4E8F0"/>
<path d="M88 152C88 149.791 89.7909 148 92 148H108C110.209 148 112 149.791 112 152V168C112 170.209 110.209 172 108 172H92C89.7909 172 88 170.209 88 168V152Z" fill="white"/>
<path fill-rule="evenodd" clip-rule="evenodd" d="M108.206 148.005C110.319 148.112 112 149.86 112 152V168L111.995 168.206C111.891 170.251 110.251 171.891 108.206 171.995L108 172H92C89.86 172 88.1121 170.319 88.0049 168.206L88 168V152C88 149.791 89.7909 148 92 148H108L108.206 148.005ZM92 149C90.3949 149 89.0842 150.261 89.0039 151.846L89 152V168C89 169.657 90.3431 171 92 171H108C109.657 171 111 169.657 111 168V152C111 150.395 109.739 149.084 108.154 149.004L108 149H92Z" fill="#E4E8F0"/>
<path d="M24 152C24 149.791 25.7909 148 28 148H44C46.2091 148 48 149.791 48 152V168C48 170.209 46.2091 172 44 172H28C25.7909 172 24 170.209 24 168V152Z" fill="white"/>
<path fill-rule="evenodd" clip-rule="evenodd" d="M44.2061 148.005C46.3194 148.112 48 149.86 48 152V168L47.9951 168.206C47.8913 170.251 46.2512 171.891 44.2061 171.995L44 172H28C25.86 172 24.1121 170.319 24.0049 168.206L24 168V152C24 149.791 25.7909 148 28 148H44L44.2061 148.005ZM28 149C26.3949 149 25.0842 150.261 25.0039 151.846L25 152V168C25 169.657 26.3431 171 28 171H44C45.6569 171 47 169.657 47 168V152C47 150.395 45.7394 149.084 44.1543 149.004L44 149H28Z" fill="#E4E8F0"/>
<path d="M196 93C197.657 93 199 94.3433 199 96V128C199 129.657 197.657 131 196 131H20C18.3431 131 17 129.657 17 128V96C17.0002 94.3433 18.3433 93 20 93H196Z" fill="#F3F7FB"/>
<path fill-rule="evenodd" clip-rule="evenodd" d="M196 92C198.209 92 200 93.791 200 96V128L199.995 128.206C199.891 130.251 198.251 131.891 196.206 131.995L196 132H20L19.7939 131.995C17.7488 131.891 16.1087 130.251 16.0049 128.206L16 128V96C16.0002 93.791 17.791 92 20 92H196ZM20 93C18.3433 93 17.0002 94.3433 17 96V128C17 129.657 18.3431 131 20 131H196C197.657 131 199 129.657 199 128V96C199 94.3433 197.657 93 196 93H20Z" fill="#E4E8F0"/>
<path d="M56 104C56 101.791 57.7909 100 60 100H76C78.2091 100 80 101.791 80 104V120C80 122.209 78.2091 124 76 124H60C57.7909 124 56 122.209 56 120V104Z" fill="white"/>
<path fill-rule="evenodd" clip-rule="evenodd" d="M76.2061 100.005C78.3194 100.112 80 101.86 80 104V120L79.9951 120.206C79.8913 122.251 78.2512 123.891 76.2061 123.995L76 124H60C57.86 124 56.1121 122.319 56.0049 120.206L56 120V104C56 101.791 57.7909 100 60 100H76L76.2061 100.005ZM60 101C58.3949 101 57.0842 102.261 57.0039 103.846L57 104V120C57 121.657 58.3431 123 60 123H76C77.6569 123 79 121.657 79 120V104C79 102.395 77.7394 101.084 76.1543 101.004L76 101H60Z" fill="#E4E8F0"/>
<path d="M88 104C88 101.791 89.7909 100 92 100H108C110.209 100 112 101.791 112 104V120C112 122.209 110.209 124 108 124H92C89.7909 124 88 122.209 88 120V104Z" fill="white"/>
<path fill-rule="evenodd" clip-rule="evenodd" d="M108.206 100.005C110.319 100.112 112 101.86 112 104V120L111.995 120.206C111.891 122.251 110.251 123.891 108.206 123.995L108 124H92C89.86 124 88.1121 122.319 88.0049 120.206L88 120V104C88 101.791 89.7909 100 92 100H108L108.206 100.005ZM92 101C90.3949 101 89.0842 102.261 89.0039 103.846L89 104V120C89 121.657 90.3431 123 92 123H108C109.657 123 111 121.657 111 120V104C111 102.395 109.739 101.084 108.154 101.004L108 101H92Z" fill="#E4E8F0"/>
<path d="M24 104C24 101.791 25.7909 100 28 100H44C46.2091 100 48 101.791 48 104V120C48 122.209 46.2091 124 44 124H28C25.7909 124 24 122.209 24 120V104Z" fill="white"/>
<path fill-rule="evenodd" clip-rule="evenodd" d="M44.2061 100.005C46.3194 100.112 48 101.86 48 104V120L47.9951 120.206C47.8913 122.251 46.2512 123.891 44.2061 123.995L44 124H28C25.86 124 24.1121 122.319 24.0049 120.206L24 120V104C24 101.791 25.7909 100 28 100H44L44.2061 100.005ZM28 101C26.3949 101 25.0842 102.261 25.0039 103.846L25 104V120C25 121.657 26.3431 123 28 123H44C45.6569 123 47 121.657 47 120V104C47 102.395 45.7394 101.084 44.1543 101.004L44 101H28Z" fill="#E4E8F0"/>
<path d="M196 45C197.657 45 199 46.3433 199 48V80C199 81.6569 197.657 83 196 83H20C18.3431 83 17 81.6569 17 80V48C17.0002 46.3433 18.3433 45 20 45H196Z" fill="#F3F7FB"/>
<path fill-rule="evenodd" clip-rule="evenodd" d="M196 44C198.209 44 200 45.791 200 48V80L199.995 80.2061C199.891 82.2512 198.251 83.8913 196.206 83.9951L196 84H20L19.7939 83.9951C17.7488 83.8913 16.1087 82.2512 16.0049 80.2061L16 80V48C16.0002 45.791 17.791 44 20 44H196ZM20 45C18.3433 45 17.0002 46.3433 17 48V80C17 81.6569 18.3431 83 20 83H196C197.657 83 199 81.6569 199 80V48C199 46.3433 197.657 45 196 45H20Z" fill="#E4E8F0"/>
<path d="M56 56C56 53.7909 57.7909 52 60 52H76C78.2091 52 80 53.7909 80 56V72C80 74.2091 78.2091 76 76 76H60C57.7909 76 56 74.2091 56 72V56Z" fill="white"/>
<path fill-rule="evenodd" clip-rule="evenodd" d="M76.2061 52.0049C78.3194 52.1121 80 53.86 80 56V72L79.9951 72.2061C79.8913 74.2512 78.2512 75.8913 76.2061 75.9951L76 76H60C57.86 76 56.1121 74.3194 56.0049 72.2061L56 72V56C56 53.7909 57.7909 52 60 52H76L76.2061 52.0049ZM60 53C58.3949 53 57.0842 54.2606 57.0039 55.8457L57 56V72C57 73.6569 58.3431 75 60 75H76C77.6569 75 79 73.6569 79 72V56C79 54.3949 77.7394 53.0842 76.1543 53.0039L76 53H60Z" fill="#E4E8F0"/>
<path d="M88 56C88 53.7909 89.7909 52 92 52H108C110.209 52 112 53.7909 112 56V72C112 74.2091 110.209 76 108 76H92C89.7909 76 88 74.2091 88 72V56Z" fill="white"/>
<path fill-rule="evenodd" clip-rule="evenodd" d="M108.206 52.0049C110.319 52.1121 112 53.86 112 56V72L111.995 72.2061C111.891 74.2512 110.251 75.8913 108.206 75.9951L108 76H92C89.86 76 88.1121 74.3194 88.0049 72.2061L88 72V56C88 53.7909 89.7909 52 92 52H108L108.206 52.0049ZM92 53C90.3949 53 89.0842 54.2606 89.0039 55.8457L89 56V72C89 73.6569 90.3431 75 92 75H108C109.657 75 111 73.6569 111 72V56C111 54.3949 109.739 53.0842 108.154 53.0039L108 53H92Z" fill="#E4E8F0"/>
<path d="M24 56C24 53.7909 25.7909 52 28 52H44C46.2091 52 48 53.7909 48 56V72C48 74.2091 46.2091 76 44 76H28C25.7909 76 24 74.2091 24 72V56Z" fill="white"/>
<path fill-rule="evenodd" clip-rule="evenodd" d="M44.2061 52.0049C46.3194 52.1121 48 53.86 48 56V72L47.9951 72.2061C47.8913 74.2512 46.2512 75.8913 44.2061 75.9951L44 76H28C25.86 76 24.1121 74.3194 24.0049 72.2061L24 72V56C24 53.7909 25.7909 52 28 52H44L44.2061 52.0049ZM28 53C26.3949 53 25.0842 54.2606 25.0039 55.8457L25 56V72C25 73.6569 26.3431 75 28 75H44C45.6569 75 47 73.6569 47 72V56C47 54.3949 45.7394 53.0842 44.1543 53.0039L44 53H28Z" fill="#E4E8F0"/>
<path fill-rule="evenodd" clip-rule="evenodd" d="M277.206 0.00488281C279.319 0.112118 281 1.85997 281 4V220C281 222.209 279.209 224 277 224H4C1.85997 224 0.112115 222.319 0.00488281 220.206L0 220V4C0 1.85996 1.68056 0.112114 3.79395 0.00488281L4 0H277L277.206 0.00488281ZM4 1C2.34315 1 1 2.34315 1 4V220C1 221.657 2.34315 223 4 223H277C278.657 223 280 221.657 280 220V4C280 2.34315 278.657 1 277 1H4Z" fill="#0056CF"/>
</svg>
