<svg width="362" height="159" viewBox="0 0 362 159" fill="none" xmlns="http://www.w3.org/2000/svg">
<path fill-rule="evenodd" clip-rule="evenodd" d="M100.637 73.3277C100.597 72.7577 100.954 72.2733 101.449 72.0958L104.244 71.0939C104.785 70.9002 105.388 71.0995 105.706 71.5772L107.956 74.9513C108.313 75.4877 108.204 76.2079 107.704 76.6149C107.425 76.8423 107.027 77.1669 106.682 77.4515C107.17 78.9877 108.255 80.1819 109.828 80.9022C110.212 80.4662 110.672 79.9739 110.948 79.6811C111.333 79.2728 111.939 79.1763 112.43 79.4318L115.967 81.2709C116.512 81.5545 116.77 82.1922 116.576 82.7752L115.458 86.1276C115.299 86.6071 114.849 86.9721 114.295 86.9661C113.011 86.9522 108.563 86.633 104.934 83.0034C101.308 79.3776 100.731 74.6638 100.637 73.3277ZM102.151 73.4379C102.283 74.8848 102.925 78.8736 105.994 81.9428C109.038 84.9867 112.749 85.4131 114.099 85.4612L115.085 82.5033L111.907 80.8507C111.546 81.2355 111.023 81.8019 110.686 82.2033C110.442 82.494 110.035 82.606 109.67 82.4637C107.347 81.558 105.71 79.804 105.124 77.4548C105.041 77.1185 105.158 76.7668 105.421 76.5477C105.758 76.2674 106.225 75.8857 106.582 75.5947L104.567 72.5719L102.151 73.4379Z" fill="#4B546B"/>
<path d="M124.853 79.443C124.853 76.7305 125.798 74.1885 127.395 72.3285H128.759C127.054 74.4365 126.186 76.839 126.186 79.443C126.186 82.047 127.054 84.434 128.759 86.5575H127.395C125.798 84.682 124.853 82.1555 124.853 79.443ZM132.323 82.884C133.656 82.884 134.849 82.047 134.849 80.652C134.849 79.288 133.702 78.4975 132.261 78.4975C131.315 78.4975 130.556 78.73 129.905 79.071L130.277 73.3515H135.733V74.607H131.455L131.253 77.459C131.501 77.335 132.075 77.2575 132.555 77.2575C134.601 77.2575 136.26 78.6215 136.26 80.59C136.26 82.8685 134.524 84.155 132.369 84.1705C131.408 84.1705 130.494 83.9225 129.61 83.3645V81.8455C130.494 82.543 131.393 82.884 132.323 82.884ZM140.335 82.884C141.668 82.884 142.861 82.047 142.861 80.652C142.861 79.288 141.714 78.4975 140.273 78.4975C139.327 78.4975 138.568 78.73 137.917 79.071L138.289 73.3515H143.745V74.607H139.467L139.265 77.459C139.513 77.335 140.087 77.2575 140.567 77.2575C142.613 77.2575 144.272 78.6215 144.272 80.59C144.272 82.8685 142.536 84.155 140.381 84.1705C139.42 84.1705 138.506 83.9225 137.622 83.3645V81.8455C138.506 82.543 139.405 82.884 140.335 82.884ZM148.347 82.884C149.68 82.884 150.873 82.047 150.873 80.652C150.873 79.288 149.726 78.4975 148.285 78.4975C147.339 78.4975 146.58 78.73 145.929 79.071L146.301 73.3515H151.757V74.607H147.479L147.277 77.459C147.525 77.335 148.099 77.2575 148.579 77.2575C150.625 77.2575 152.284 78.6215 152.284 80.59C152.284 82.8685 150.548 84.155 148.393 84.1705C147.432 84.1705 146.518 83.9225 145.634 83.3645V81.8455C146.518 82.543 147.417 82.884 148.347 82.884ZM156.521 79.443C156.521 82.1555 155.576 84.6975 153.979 86.5575H152.615C154.32 84.4495 155.188 82.047 155.188 79.443C155.188 76.839 154.32 74.452 152.615 72.3285H153.979C155.576 74.204 156.521 76.7305 156.521 79.443ZM164.86 82.884C166.193 82.884 167.386 82.047 167.386 80.652C167.386 79.288 166.239 78.4975 164.798 78.4975C163.852 78.4975 163.093 78.73 162.442 79.071L162.814 73.3515H168.27V74.607H163.992L163.79 77.459C164.038 77.335 164.612 77.2575 165.092 77.2575C167.138 77.2575 168.797 78.6215 168.797 80.59C168.797 82.8685 167.061 84.155 164.906 84.1705C163.945 84.1705 163.031 83.9225 162.147 83.3645V81.8455C163.031 82.543 163.93 82.884 164.86 82.884ZM172.871 82.884C174.204 82.884 175.398 82.047 175.398 80.652C175.398 79.288 174.251 78.4975 172.809 78.4975C171.864 78.4975 171.104 78.73 170.453 79.071L170.825 73.3515H176.281V74.607H172.003L171.802 77.459C172.05 77.335 172.623 77.2575 173.104 77.2575C175.15 77.2575 176.808 78.6215 176.808 80.59C176.808 82.8685 175.072 84.155 172.918 84.1705C171.957 84.1705 171.042 83.9225 170.159 83.3645V81.8455C171.042 82.543 171.941 82.884 172.871 82.884ZM180.883 82.884C182.216 82.884 183.41 82.047 183.41 80.652C183.41 79.288 182.263 78.4975 180.821 78.4975C179.876 78.4975 179.116 78.73 178.465 79.071L178.837 73.3515H184.293V74.607H180.015L179.814 77.459C180.062 77.335 180.635 77.2575 181.116 77.2575C183.162 77.2575 184.82 78.6215 184.82 80.59C184.82 82.8685 183.084 84.155 180.93 84.1705C179.969 84.1705 179.054 83.9225 178.171 83.3645V81.8455C179.054 82.543 179.953 82.884 180.883 82.884ZM186.472 80.528V79.319H191.184V80.528H186.472ZM195.59 82.884C196.923 82.884 198.117 82.047 198.117 80.652C198.117 79.288 196.97 78.4975 195.528 78.4975C194.583 78.4975 193.823 78.73 193.172 79.071L193.544 73.3515H199V74.607H194.722L194.521 77.459C194.769 77.335 195.342 77.2575 195.823 77.2575C197.869 77.2575 199.527 78.6215 199.527 80.59C199.527 82.8685 197.791 84.155 195.637 84.1705C194.676 84.1705 193.761 83.9225 192.878 83.3645V81.8455C193.761 82.543 194.66 82.884 195.59 82.884ZM203.602 82.884C204.935 82.884 206.129 82.047 206.129 80.652C206.129 79.288 204.982 78.4975 203.54 78.4975C202.595 78.4975 201.835 78.73 201.184 79.071L201.556 73.3515H207.012V74.607H202.734L202.533 77.459C202.781 77.335 203.354 77.2575 203.835 77.2575C205.881 77.2575 207.539 78.6215 207.539 80.59C207.539 82.8685 205.803 84.155 203.649 84.1705C202.688 84.1705 201.773 83.9225 200.89 83.3645V81.8455C201.773 82.543 202.672 82.884 203.602 82.884ZM211.614 82.884C212.947 82.884 214.141 82.047 214.141 80.652C214.141 79.288 212.994 78.4975 211.552 78.4975C210.607 78.4975 209.847 78.73 209.196 79.071L209.568 73.3515H215.024V74.607H210.746L210.545 77.459C210.793 77.335 211.366 77.2575 211.847 77.2575C213.893 77.2575 215.551 78.6215 215.551 80.59C215.551 82.8685 213.815 84.155 211.661 84.1705C210.7 84.1705 209.785 83.9225 208.902 83.3645V81.8455C209.785 82.543 210.684 82.884 211.614 82.884ZM219.626 82.884C220.959 82.884 222.153 82.047 222.153 80.652C222.153 79.288 221.006 78.4975 219.564 78.4975C218.619 78.4975 217.859 78.73 217.208 79.071L217.58 73.3515H223.036V74.607H218.758L218.557 77.459C218.805 77.335 219.378 77.2575 219.859 77.2575C221.905 77.2575 223.563 78.6215 223.563 80.59C223.563 82.8685 221.827 84.155 219.673 84.1705C218.712 84.1705 217.797 83.9225 216.914 83.3645V81.8455C217.797 82.543 218.696 82.884 219.626 82.884Z" fill="#4B546B"/>
<path d="M231.08 85V76.6H232.148V80.14H236.66V76.6H237.728V85H236.66V81.148H232.148V85H231.08ZM242.451 79.036C244.203 79.036 245.499 80.392 245.499 82.084C245.499 83.776 244.203 85.132 242.451 85.132C240.699 85.132 239.403 83.776 239.403 82.084C239.403 80.392 240.699 79.036 242.451 79.036ZM242.451 79.984C241.311 79.984 240.447 80.92 240.447 82.084C240.447 83.248 241.311 84.184 242.451 84.184C243.591 84.184 244.455 83.248 244.455 82.084C244.455 80.92 243.591 79.984 242.451 79.984ZM248.076 81.94V85H247.044V79.168H248.064V80.008C248.388 79.408 248.976 79.036 249.78 79.036C250.644 79.036 251.268 79.468 251.616 80.176C251.904 79.684 252.504 79.036 253.608 79.036C254.952 79.036 255.756 79.984 255.756 81.484V85H254.724V81.664C254.724 80.632 254.28 79.984 253.404 79.984C252.504 79.984 251.916 80.752 251.916 81.94V85H250.884V81.688C250.884 80.644 250.428 79.984 249.564 79.984C248.664 79.984 248.076 80.752 248.076 81.94ZM262.537 83.272V84.388C261.889 84.856 261.097 85.132 260.281 85.132C258.421 85.132 257.221 83.8 257.221 82.084C257.221 80.344 258.421 79.036 260.101 79.036C261.733 79.036 262.849 80.38 262.849 82.036C262.849 82.264 262.825 82.408 262.825 82.408H258.253C258.337 83.38 259.141 84.196 260.353 84.196C261.097 84.196 261.817 83.896 262.537 83.272ZM258.277 81.556H261.805C261.721 80.632 261.037 79.936 260.077 79.936C259.105 79.936 258.349 80.764 258.277 81.556Z" fill="#4B546B"/>
</svg>
