<svg width="362" height="159" viewBox="0 0 362 159" fill="none" xmlns="http://www.w3.org/2000/svg">
<path d="M141.822 83.884V82.2875C142.597 83.0625 143.651 83.636 144.751 83.729V80.133C143.341 79.761 141.868 79.2185 141.868 77.2345C141.868 75.514 143.217 74.5375 144.751 74.3825V72.972H145.79V74.398C146.673 74.5065 147.433 74.8785 148.146 75.4675V77.0175C147.479 76.351 146.704 75.824 145.79 75.6535V79.141C147.169 79.5285 148.595 80.133 148.595 81.931C148.595 83.667 147.293 84.69 145.79 84.938V86.488H144.751V84.9845C143.697 84.9225 142.643 84.5505 141.822 83.884ZM143.186 77.157C143.186 78.087 143.868 78.521 144.751 78.831V75.6225C143.961 75.762 143.186 76.2735 143.186 77.157ZM147.278 81.993C147.278 81.094 146.627 80.7065 145.79 80.4275V83.6515C146.58 83.4655 147.278 82.9385 147.278 81.993Z" fill="#4B546B"/>
<path d="M155.832 85H153.464V76.568L151.48 77.336V75.016L153.96 74.008H155.832V85ZM164.599 85H157.143V83.32L160.743 79.752C161.767 78.76 162.055 78.248 162.055 77.512C162.055 76.632 161.303 76.008 160.247 76.008C159.223 76.008 158.263 76.584 157.399 77.528V75.016C158.247 74.248 159.351 73.816 160.439 73.816C162.647 73.816 164.423 75.16 164.423 77.256C164.423 78.712 163.815 79.784 162.423 81.064L160.455 82.888H164.599V85ZM167.22 86.872H165.829L166.852 84.984H166.837C166.212 84.984 165.701 84.456 165.701 83.8C165.701 82.984 166.34 82.392 167.109 82.392C167.924 82.392 168.549 82.984 168.549 83.8C168.549 84.232 168.421 84.632 168.133 85.16L167.22 86.872ZM176.727 81.72C176.727 83.8 175.079 85.208 172.567 85.208C171.495 85.208 170.487 84.936 169.575 84.376V81.976C170.487 82.696 171.415 83.048 172.375 83.048C173.543 83.048 174.359 82.52 174.359 81.592C174.359 80.776 173.591 80.216 172.455 80.216H171.415V78.36H172.407C173.335 78.36 173.975 77.848 173.975 77.176C173.975 76.408 173.223 75.96 172.327 75.96C171.447 75.96 170.647 76.296 169.799 76.984V74.632C170.599 74.088 171.543 73.816 172.519 73.816C174.695 73.816 176.295 74.968 176.295 76.888C176.295 77.912 175.767 78.68 174.935 79.144C176.071 79.608 176.727 80.52 176.727 81.72ZM177.229 82.744V81.112L181.965 74.024H184.813V80.776H186.349V82.744H184.813V85H182.557V82.744H177.229ZM179.773 80.776H182.573V76.536L179.773 80.776ZM186.93 84.36V81.944C187.874 82.68 188.834 83.032 189.794 83.032C190.962 83.032 191.922 82.456 191.922 81.368C191.922 80.328 190.978 79.768 189.698 79.768C188.818 79.768 187.97 79.992 187.186 80.36L187.506 74.008H193.666V76.056H189.442L189.346 77.944C189.586 77.864 190.002 77.8 190.434 77.8C192.642 77.8 194.306 79.208 194.306 81.352C194.306 83.768 192.45 85.192 189.938 85.208C188.85 85.208 187.842 84.92 186.93 84.36Z" fill="#242B42"/>
<path d="M198.899 84.194C198.899 84.721 198.48 85.1395 197.953 85.1395C197.426 85.1395 197.008 84.721 197.008 84.194C197.008 83.6825 197.426 83.264 197.953 83.264C198.48 83.264 198.899 83.6825 198.899 84.194ZM204.496 85.1705C201.598 85.1705 200.203 82.551 200.203 79.6835C200.203 76.8005 201.598 74.181 204.496 74.181C207.395 74.181 208.79 76.8005 208.79 79.6835C208.79 82.551 207.395 85.1705 204.496 85.1705ZM204.496 83.884C206.511 83.884 207.41 81.8535 207.41 79.6835C207.41 77.5135 206.511 75.4675 204.496 75.4675C202.481 75.4675 201.582 77.5135 201.582 79.6835C201.582 81.8535 202.481 83.884 204.496 83.884ZM214.869 85.1705C211.971 85.1705 210.576 82.551 210.576 79.6835C210.576 76.8005 211.971 74.181 214.869 74.181C217.768 74.181 219.163 76.8005 219.163 79.6835C219.163 82.551 217.768 85.1705 214.869 85.1705ZM214.869 83.884C216.884 83.884 217.783 81.8535 217.783 79.6835C217.783 77.5135 216.884 75.4675 214.869 75.4675C212.854 75.4675 211.955 77.5135 211.955 79.6835C211.955 81.8535 212.854 83.884 214.869 83.884Z" fill="#4B546B"/>
</svg>
