<svg width="362" height="159" viewBox="0 0 362 159" fill="none" xmlns="http://www.w3.org/2000/svg">
<path d="M93.395 36.15H94.7745V47H93.395V36.15ZM98.7856 43.063V47H97.4526V39.467H98.7856V40.552C99.2506 39.808 100.057 39.2965 101.188 39.2965C103.11 39.2965 104.226 40.583 104.226 42.5825V47H102.893V42.7375C102.893 41.389 102.196 40.5365 100.909 40.5365C99.6226 40.5365 98.7856 41.5285 98.7856 43.063ZM106.103 43.2335C106.103 41.0325 107.73 39.2965 110.04 39.2965C110.83 39.2965 111.559 39.529 112.179 39.9475V41.296C111.512 40.7845 110.83 40.5365 110.102 40.5365C108.567 40.5365 107.451 41.7145 107.451 43.2335C107.451 44.737 108.567 45.9305 110.102 45.9305C110.892 45.9305 111.621 45.574 112.225 45.1865V46.535C111.574 46.938 110.83 47.1705 110.055 47.1705C107.684 47.1705 106.103 45.45 106.103 43.2335ZM118.11 39.374V40.707C118.11 40.707 117.97 40.676 117.738 40.676C116.343 40.676 115.49 41.792 115.49 43.4195V47H114.173V39.467H115.475V40.8C115.816 39.932 116.792 39.343 117.784 39.343C117.97 39.343 118.11 39.374 118.11 39.374ZM125.829 44.768V46.2095C124.992 46.814 123.969 47.1705 122.915 47.1705C120.513 47.1705 118.963 45.45 118.963 43.2335C118.963 40.986 120.513 39.2965 122.683 39.2965C124.791 39.2965 126.232 41.0325 126.232 43.1715C126.232 43.466 126.201 43.652 126.201 43.652H120.296C120.404 44.9075 121.443 45.9615 123.008 45.9615C123.969 45.9615 124.899 45.574 125.829 44.768ZM120.327 42.5515H124.884C124.775 41.358 123.892 40.459 122.652 40.459C121.396 40.459 120.42 41.5285 120.327 42.5515ZM132.433 42.2105V42.0245C132.433 41.079 131.766 40.5055 130.65 40.5055C129.627 40.5055 128.868 40.924 128.093 41.637V40.242C128.775 39.684 129.596 39.2965 130.681 39.2965C132.619 39.2965 133.735 40.366 133.735 42.1175V47H132.479V46.008C131.89 46.7675 130.976 47.1705 129.984 47.1705C128.651 47.1705 127.705 46.256 127.705 45.016C127.705 43.6675 128.558 42.8615 130.216 42.5825L132.433 42.2105ZM129.038 44.9385C129.038 45.574 129.534 45.9925 130.232 45.9925C131.518 45.9925 132.448 45.1555 132.448 43.993V43.3575L130.433 43.714C129.534 43.8845 129.038 44.2875 129.038 44.9385ZM135.578 46.3955V44.923C136.26 45.543 137.143 45.977 138.058 45.977C138.817 45.977 139.515 45.7135 139.515 44.9385C139.515 44.1635 138.786 43.9 137.841 43.6985C136.756 43.466 135.562 43.032 135.562 41.575C135.562 40.056 136.849 39.2965 138.197 39.2965C139.003 39.2965 139.809 39.5445 140.476 39.994V41.4045C139.809 40.862 139.034 40.4745 138.228 40.4745C137.593 40.4745 136.864 40.7225 136.864 41.42C136.864 42.102 137.515 42.3965 138.383 42.6135C139.778 42.9545 140.832 43.466 140.832 44.83C140.832 46.3645 139.546 47.1705 138.042 47.1705C137.221 47.1705 136.291 46.9225 135.578 46.3955ZM149.123 44.768V46.2095C148.286 46.814 147.263 47.1705 146.209 47.1705C143.807 47.1705 142.257 45.45 142.257 43.2335C142.257 40.986 143.807 39.2965 145.977 39.2965C148.085 39.2965 149.526 41.0325 149.526 43.1715C149.526 43.466 149.495 43.652 149.495 43.652H143.59C143.698 44.9075 144.737 45.9615 146.302 45.9615C147.263 45.9615 148.193 45.574 149.123 44.768ZM143.621 42.5515H148.178C148.069 41.358 147.186 40.459 145.946 40.459C144.69 40.459 143.714 41.5285 143.621 42.5515ZM157.413 36.15H158.731V47H157.413V45.8065C156.871 46.628 155.848 47.1705 154.747 47.1705C152.608 47.1705 150.965 45.4655 150.965 43.2335C150.965 41.017 152.608 39.2965 154.747 39.2965C155.848 39.2965 156.855 39.777 157.413 40.5985V36.15ZM157.491 43.2335C157.491 41.7145 156.375 40.521 154.902 40.521C153.43 40.521 152.314 41.7145 152.314 43.2335C152.314 44.7525 153.43 45.946 154.902 45.946C156.375 45.946 157.491 44.7525 157.491 43.2335ZM169.217 47H168.287L164.056 36.15H165.513L168.768 44.6905L172.007 36.15H173.433L169.217 47ZM178.415 42.2105V42.0245C178.415 41.079 177.749 40.5055 176.633 40.5055C175.61 40.5055 174.85 40.924 174.075 41.637V40.242C174.757 39.684 175.579 39.2965 176.664 39.2965C178.601 39.2965 179.717 40.366 179.717 42.1175V47H178.462V46.008C177.873 46.7675 176.958 47.1705 175.966 47.1705C174.633 47.1705 173.688 46.256 173.688 45.016C173.688 43.6675 174.54 42.8615 176.199 42.5825L178.415 42.2105ZM175.021 44.9385C175.021 45.574 175.517 45.9925 176.214 45.9925C177.501 45.9925 178.431 45.1555 178.431 43.993V43.3575L176.416 43.714C175.517 43.8845 175.021 44.2875 175.021 44.9385ZM182.117 36.15H183.45V47H182.117V36.15ZM191.267 43.404V39.467H192.6V47H191.267V45.915C190.802 46.659 190.012 47.1705 188.88 47.1705C186.974 47.1705 185.873 45.884 185.873 43.8845V39.467H187.206V43.7295C187.206 45.078 187.888 45.9305 189.159 45.9305C190.43 45.9305 191.267 44.9385 191.267 43.404ZM201.453 44.768V46.2095C200.616 46.814 199.593 47.1705 198.539 47.1705C196.136 47.1705 194.586 45.45 194.586 43.2335C194.586 40.986 196.136 39.2965 198.306 39.2965C200.414 39.2965 201.856 41.0325 201.856 43.1715C201.856 43.466 201.825 43.652 201.825 43.652H195.919C196.028 44.9075 197.066 45.9615 198.632 45.9615C199.593 45.9615 200.523 45.574 201.453 44.768ZM195.95 42.5515H200.507C200.399 41.358 199.515 40.459 198.275 40.459C197.02 40.459 196.043 41.5285 195.95 42.5515Z" fill="#4B546B"/>
<path d="M105.288 95H98.776V71.812L93.32 73.924V67.544L100.14 64.772H105.288V95ZM114.658 100.148H110.83L113.646 94.956H113.602C111.886 94.956 110.478 93.504 110.478 91.7C110.478 89.456 112.238 87.828 114.35 87.828C116.594 87.828 118.31 89.456 118.31 91.7C118.31 92.888 117.958 93.988 117.166 95.44L114.658 100.148ZM120.576 88.796V84.308L133.6 64.816H141.432V83.384H145.656V88.796H141.432V95H135.228V88.796H120.576ZM127.572 83.384H135.272V71.724L127.572 83.384ZM167.984 95H147.48V90.38L157.38 80.568C160.196 77.84 160.988 76.432 160.988 74.408C160.988 71.988 158.92 70.272 156.016 70.272C153.2 70.272 150.56 71.856 148.184 74.452V67.544C150.516 65.432 153.552 64.244 156.544 64.244C162.616 64.244 167.5 67.94 167.5 73.704C167.5 77.708 165.828 80.656 162 84.176L156.588 89.192H167.984V95ZM181.847 95.572C175.995 95.572 170.627 92.052 170.627 86.068C170.627 82.284 173.267 79.732 175.687 78.72C173.575 77.62 171.903 75.508 171.903 72.692C171.903 67.588 176.479 64.244 181.847 64.244C187.215 64.244 191.791 67.588 191.791 72.692C191.791 75.508 190.119 77.62 188.007 78.72C190.427 79.732 193.067 82.284 193.067 86.068C193.067 92.052 187.699 95.572 181.847 95.572ZM181.847 90.116C184.575 90.116 186.687 88.312 186.687 85.804C186.687 83.252 184.575 81.492 181.847 81.492C179.119 81.492 177.007 83.252 177.007 85.804C177.007 88.312 179.119 90.116 181.847 90.116ZM185.851 73.088C185.851 71.02 184.047 69.568 181.847 69.568C179.647 69.568 177.843 71.02 177.843 73.088C177.843 75.244 179.647 76.652 181.847 76.652C184.047 76.652 185.851 75.244 185.851 73.088Z" fill="#242B42"/>
<path d="M211.96 95H208.315L208.261 93.326C207.478 94.703 205.939 95.351 204.346 95.351C201.862 95.351 200.161 93.785 200.161 91.436C200.161 88.979 201.808 87.467 205.129 86.981L208.153 86.549V86.387C208.153 85.28 207.262 84.632 205.453 84.632C203.725 84.632 202.186 85.307 200.971 86.414V82.661C202.132 81.878 203.806 81.311 205.858 81.311C209.719 81.311 211.96 83.174 211.96 86.63V95ZM203.887 91.112C203.914 91.868 204.535 92.354 205.426 92.354C207.073 92.354 208.153 91.166 208.153 89.654V89.195L205.804 89.573C204.535 89.762 203.887 90.329 203.887 91.112ZM218.954 100.616H215.039V81.662H218.954V83.444C219.899 82.067 221.519 81.338 223.274 81.338C226.865 81.338 229.592 84.362 229.592 88.331C229.592 92.273 226.865 95.324 223.274 95.324C221.519 95.324 219.899 94.676 218.954 93.272V100.616ZM225.677 88.331C225.677 86.414 224.165 84.875 222.248 84.875C220.331 84.875 218.819 86.414 218.819 88.331C218.819 90.248 220.331 91.787 222.248 91.787C224.165 91.787 225.677 90.248 225.677 88.331ZM235.902 100.616H231.987V81.662H235.902V83.444C236.847 82.067 238.467 81.338 240.222 81.338C243.813 81.338 246.54 84.362 246.54 88.331C246.54 92.273 243.813 95.324 240.222 95.324C238.467 95.324 236.847 94.676 235.902 93.272V100.616ZM242.625 88.331C242.625 86.414 241.113 84.875 239.196 84.875C237.279 84.875 235.767 86.414 235.767 88.331C235.767 90.248 237.279 91.787 239.196 91.787C241.113 91.787 242.625 90.248 242.625 88.331ZM249.638 84.902H247.208V84.389L253.445 77.882H253.553V81.662H256.928V84.902H253.553V89.789C253.553 91.22 254.174 91.787 255.416 91.787C255.956 91.787 256.523 91.598 256.928 91.301V94.757C256.307 95.081 255.335 95.324 254.093 95.324C251.258 95.324 249.638 93.704 249.638 90.734V84.902ZM258.989 94.136V90.032C260.42 91.193 262.31 92.03 264.065 92.03C265.199 92.03 265.793 91.706 265.793 91.004C265.793 88.952 258.827 90.869 258.827 85.955C258.827 83.228 260.879 81.311 264.47 81.311C266.144 81.311 267.791 81.797 269.033 82.418V86.441C267.71 85.226 266.009 84.551 264.335 84.551C263.039 84.551 262.607 85.01 262.607 85.55C262.607 87.386 269.681 85.712 269.681 90.707C269.681 93.704 267.197 95.351 264.092 95.351C261.959 95.351 260.285 94.865 258.989 94.136Z" fill="#242B42"/>
<path d="M102.531 110.25L107.781 115.75C108.063 116.062 108.063 116.531 107.75 116.812C107.438 117.094 106.969 117.094 106.688 116.781L102.75 112.625V123.25C102.75 123.688 102.406 124 102 124C101.563 124 101.25 123.688 101.25 123.25V112.625L97.2814 116.781C97.0002 117.094 96.5314 117.094 96.2189 116.812C95.9064 116.531 95.9064 116.031 96.1877 115.75L101.438 110.25C101.594 110.094 101.781 110 102 110C102.188 110 102.375 110.094 102.531 110.25Z" fill="#158149"/>
<path d="M116.765 122V121.054L120.733 116.854C121.648 115.893 121.927 115.226 121.927 114.405C121.927 113.304 120.966 112.467 119.726 112.467C118.749 112.467 117.742 113.118 116.889 114.173V112.545C117.633 111.708 118.734 111.181 119.741 111.181C121.787 111.181 123.291 112.498 123.291 114.343C123.291 115.614 122.795 116.544 121.648 117.753L118.811 120.729H123.43V122H116.765ZM127.707 120.884C129.04 120.884 130.234 120.047 130.234 118.652C130.234 117.288 129.087 116.497 127.645 116.497C126.7 116.497 125.94 116.73 125.289 117.071L125.661 111.351H131.117V112.607H126.839L126.638 115.459C126.886 115.335 127.459 115.257 127.94 115.257C129.986 115.257 131.644 116.621 131.644 118.59C131.644 120.868 129.908 122.155 127.754 122.171C126.793 122.171 125.878 121.922 124.995 121.364V119.845C125.878 120.543 126.777 120.884 127.707 120.884Z" fill="#158149"/>
<path d="M144.135 111.351L136.276 122H134.711L142.569 111.351H144.135ZM139.996 119.644C139.996 118.249 141.128 117.179 142.538 117.179C143.949 117.179 145.08 118.249 145.08 119.644C145.08 121.039 143.949 122.109 142.538 122.109C141.128 122.109 139.996 121.039 139.996 119.644ZM133.75 113.707C133.75 112.312 134.881 111.243 136.292 111.243C137.702 111.243 138.834 112.312 138.834 113.707C138.834 115.102 137.702 116.172 136.292 116.172C134.881 116.172 133.75 115.102 133.75 113.707ZM135.005 113.707C135.005 114.451 135.579 115.009 136.292 115.009C137.005 115.009 137.578 114.451 137.578 113.707C137.578 112.963 137.005 112.405 136.292 112.405C135.579 112.405 135.005 112.963 135.005 113.707ZM141.252 119.644C141.252 120.388 141.825 120.946 142.538 120.946C143.251 120.946 143.825 120.388 143.825 119.644C143.825 118.9 143.251 118.342 142.538 118.342C141.825 118.342 141.252 118.9 141.252 119.644Z" fill="#158149"/>
</svg>
