<svg width="362" height="159" viewBox="0 0 362 159" fill="none" xmlns="http://www.w3.org/2000/svg">
<path d="M91.0445 47.0255L86.7665 56H84.2245L88.425 47.413H83.496V45.367H91.0445V47.0255ZM91.8604 50.6835C91.8604 47.785 93.4104 45.1655 96.4174 45.1655C99.4244 45.1655 100.974 47.785 100.974 50.6835C100.974 53.582 99.4244 56.2015 96.4174 56.2015C93.4104 56.2015 91.8604 53.582 91.8604 50.6835ZM98.6649 50.6835C98.6649 48.9785 97.9829 47.32 96.4174 47.32C94.8519 47.32 94.1699 48.9785 94.1699 50.6835C94.1699 52.3885 94.8519 54.047 96.4174 54.047C97.9829 54.047 98.6649 52.3885 98.6649 50.6835ZM106.518 45.15H110.207C112.563 45.15 114.19 46.421 114.19 48.653C114.19 50.8695 112.563 52.156 110.207 52.156H108.843V56H106.518V45.15ZM108.843 47.2425V50.0945H110.253C111.183 50.0945 111.85 49.5675 111.85 48.6685C111.85 47.7695 111.183 47.2425 110.253 47.2425H108.843ZM120.391 48.219V50.544C120.267 50.482 120.05 50.451 119.817 50.451C118.562 50.451 117.818 51.381 117.818 52.8845V56H115.57V48.343H117.802V49.5985C118.205 48.715 119.011 48.1725 120.003 48.1725C120.174 48.1725 120.344 48.2035 120.391 48.219ZM121.15 52.1715C121.15 49.893 122.932 48.1415 125.304 48.1415C127.675 48.1415 129.458 49.893 129.458 52.1715C129.458 54.45 127.675 56.2015 125.304 56.2015C122.932 56.2015 121.15 54.45 121.15 52.1715ZM123.382 52.1715C123.382 53.272 124.25 54.14 125.304 54.14C126.358 54.14 127.226 53.272 127.226 52.1715C127.226 51.071 126.358 50.203 125.304 50.203C124.25 50.203 123.382 51.071 123.382 52.1715ZM130.725 55.504V53.148C131.546 53.8145 132.631 54.295 133.639 54.295C134.29 54.295 134.631 54.109 134.631 53.706C134.631 52.528 130.632 53.6285 130.632 50.8075C130.632 49.242 131.81 48.1415 133.871 48.1415C134.832 48.1415 135.778 48.4205 136.491 48.777V51.0865C135.731 50.389 134.755 50.0015 133.794 50.0015C133.05 50.0015 132.802 50.265 132.802 50.575C132.802 51.629 136.863 50.668 136.863 53.5355C136.863 55.256 135.437 56.2015 133.654 56.2015C132.43 56.2015 131.469 55.9225 130.725 55.504ZM140.612 59.224H138.365V48.343H140.612V49.366C141.155 48.5755 142.085 48.157 143.092 48.157C145.154 48.157 146.719 49.893 146.719 52.1715C146.719 54.4345 145.154 56.186 143.092 56.186C142.085 56.186 141.155 55.814 140.612 55.008V59.224ZM144.472 52.1715C144.472 51.071 143.604 50.1875 142.503 50.1875C141.403 50.1875 140.535 51.071 140.535 52.1715C140.535 53.272 141.403 54.1555 142.503 54.1555C143.604 54.1555 144.472 53.272 144.472 52.1715ZM155.087 53.4425V55.4885C154.343 55.9225 153.351 56.2015 152.142 56.2015C149.522 56.2015 147.91 54.512 147.91 52.1405C147.91 49.8465 149.522 48.1415 151.801 48.1415C154.141 48.1415 155.552 49.7535 155.552 52.125C155.552 52.3575 155.521 52.621 155.505 52.807H150.142C150.313 53.6905 151.103 54.3105 152.39 54.3105C153.304 54.3105 154.172 54.047 155.087 53.4425ZM150.111 51.319H153.382C153.304 50.4665 152.669 49.893 151.785 49.893C150.902 49.893 150.22 50.544 150.111 51.319ZM156.649 52.1715C156.649 49.862 158.338 48.1415 160.741 48.1415C161.407 48.1415 162.105 48.2965 162.663 48.622V50.7455C162.136 50.3735 161.593 50.1875 161.004 50.1875C159.826 50.1875 158.927 51.009 158.927 52.1715C158.927 53.3185 159.811 54.1555 161.004 54.1555C161.609 54.1555 162.198 53.9075 162.678 53.5665V55.7055C162.058 56.0465 161.376 56.2015 160.71 56.2015C158.354 56.2015 156.649 54.574 156.649 52.1715ZM164.924 50.203H163.529V49.9085L167.109 46.173H167.171V48.343H169.109V50.203H167.171V53.0085C167.171 53.83 167.528 54.1555 168.241 54.1555C168.551 54.1555 168.876 54.047 169.109 53.8765V55.8605C168.752 56.0465 168.194 56.186 167.481 56.186C165.854 56.186 164.924 55.256 164.924 53.551V50.203ZM177.704 45.15H179.766L184.121 56H181.688L180.773 53.6595H176.635L175.72 56H173.333L177.704 45.15ZM178.696 48.1105L177.348 51.66H180.076L178.696 48.1105ZM186.853 56L183.738 48.343H186.125L187.923 53.179L189.721 48.343H192.046L188.93 56H186.853ZM199.692 53.4425V55.4885C198.948 55.9225 197.956 56.2015 196.747 56.2015C194.127 56.2015 192.515 54.512 192.515 52.1405C192.515 49.8465 194.127 48.1415 196.406 48.1415C198.746 48.1415 200.157 49.7535 200.157 52.125C200.157 52.3575 200.126 52.621 200.11 52.807H194.747C194.918 53.6905 195.708 54.3105 196.995 54.3105C197.909 54.3105 198.777 54.047 199.692 53.4425ZM194.716 51.319H197.987C197.909 50.4665 197.274 49.893 196.39 49.893C195.507 49.893 194.825 50.544 194.716 51.319Z" fill="#242B42"/>
<path d="M209.712 51.8615C209.712 52.931 208.798 53.8455 207.713 53.8455C206.612 53.8455 205.713 52.931 205.713 51.8615C205.713 50.792 206.612 49.8775 207.713 49.8775C208.798 49.8775 209.712 50.792 209.712 51.8615Z" fill="#242B42"/>
<path d="M215.636 50.575C215.636 47.3975 218.116 44.9485 221.247 44.9485C222.192 44.9485 223.153 45.1965 224.006 45.677V48.188C223.184 47.568 222.332 47.227 221.324 47.227C219.433 47.227 218.038 48.6995 218.038 50.575C218.038 52.4195 219.371 53.9075 221.324 53.9075C222.316 53.9075 223.169 53.582 224.021 52.9775V55.473C223.076 56 222.084 56.2015 221.216 56.2015C217.93 56.2015 215.636 53.799 215.636 50.575ZM225.356 52.1715C225.356 49.893 227.138 48.1415 229.51 48.1415C231.881 48.1415 233.664 49.893 233.664 52.1715C233.664 54.45 231.881 56.2015 229.51 56.2015C227.138 56.2015 225.356 54.45 225.356 52.1715ZM227.588 52.1715C227.588 53.272 228.456 54.14 229.51 54.14C230.564 54.14 231.432 53.272 231.432 52.1715C231.432 51.071 230.564 50.203 229.51 50.203C228.456 50.203 227.588 51.071 227.588 52.1715ZM235.255 45.15H237.518V56H235.255V45.15ZM239.109 52.1715C239.109 49.893 240.892 48.1415 243.263 48.1415C245.635 48.1415 247.417 49.893 247.417 52.1715C247.417 54.45 245.635 56.2015 243.263 56.2015C240.892 56.2015 239.109 54.45 239.109 52.1715ZM241.341 52.1715C241.341 53.272 242.209 54.14 243.263 54.14C244.317 54.14 245.185 53.272 245.185 52.1715C245.185 51.071 244.317 50.203 243.263 50.203C242.209 50.203 241.341 51.071 241.341 52.1715ZM251.271 51.939V56H249.008V48.343H251.271V49.3195C251.736 48.5755 252.511 48.1415 253.534 48.1415C255.286 48.1415 256.355 49.335 256.355 51.2725V56H254.092V51.7995C254.092 50.792 253.596 50.2185 252.713 50.2185C251.845 50.2185 251.271 50.8695 251.271 51.939ZM260.585 56H258.322V48.343H260.585V56ZM260.771 46.1265C260.771 46.8395 260.182 47.444 259.454 47.444C258.725 47.444 258.136 46.8395 258.136 46.1265C258.136 45.4135 258.725 44.809 259.454 44.809C260.182 44.809 260.771 45.4135 260.771 46.1265ZM269.073 56H266.981L266.95 55.039C266.5 55.8295 265.617 56.2015 264.702 56.2015C263.276 56.2015 262.3 55.3025 262.3 53.954C262.3 52.5435 263.245 51.6755 265.152 51.3965L266.888 51.1485V51.0555C266.888 50.42 266.376 50.048 265.338 50.048C264.346 50.048 263.462 50.4355 262.765 51.071V48.9165C263.431 48.467 264.392 48.1415 265.57 48.1415C267.787 48.1415 269.073 49.211 269.073 51.195V56ZM264.439 53.768C264.454 54.202 264.811 54.481 265.322 54.481C266.268 54.481 266.888 53.799 266.888 52.931V52.6675L265.539 52.8845C264.811 52.993 264.439 53.3185 264.439 53.768ZM271.046 45.15H273.309V56H271.046V45.15Z" fill="#242B42"/>
<path d="M87.495 64.15H89.5565L93.912 75H91.4785L90.564 72.6595H86.4255L85.511 75H83.124L87.495 64.15ZM88.487 67.1105L87.1385 70.66H89.8665L88.487 67.1105ZM97.3242 78.224H95.0767V67.343H97.3242V68.366C97.8667 67.5755 98.7967 67.157 99.8042 67.157C101.866 67.157 103.431 68.893 103.431 71.1715C103.431 73.4345 101.866 75.186 99.8042 75.186C98.7967 75.186 97.8667 74.814 97.3242 74.008V78.224ZM101.184 71.1715C101.184 70.071 100.316 69.1875 99.2152 69.1875C98.1147 69.1875 97.2467 70.071 97.2467 71.1715C97.2467 72.272 98.1147 73.1555 99.2152 73.1555C100.316 73.1555 101.184 72.272 101.184 71.1715ZM105.415 69.203H104.02V68.9085L107.6 65.173H107.662V67.343H109.6V69.203H107.662V72.0085C107.662 72.83 108.019 73.1555 108.732 73.1555C109.042 73.1555 109.367 73.047 109.6 72.8765V74.8605C109.243 75.0465 108.685 75.186 107.972 75.186C106.345 75.186 105.415 74.256 105.415 72.551V69.203ZM119.869 72.148L117.11 67.808V75H114.847V64.15H117.281L120.551 69.3115L123.806 64.15H126.178V75H123.915V67.777L121.14 72.148H119.869ZM132.055 75H129.761V66.8315L127.839 67.5755V65.328L130.241 64.3515H132.055V75ZM137.746 75.2015C135.684 75.2015 133.793 73.9615 133.793 71.8535C133.793 70.5205 134.723 69.6215 135.576 69.265C134.832 68.8775 134.243 68.1335 134.243 67.1415C134.243 65.3435 135.855 64.1655 137.746 64.1655C139.637 64.1655 141.249 65.3435 141.249 67.1415C141.249 68.1335 140.66 68.8775 139.916 69.265C140.768 69.6215 141.698 70.5205 141.698 71.8535C141.698 73.9615 139.807 75.2015 137.746 75.2015ZM137.746 73.2795C138.707 73.2795 139.451 72.644 139.451 71.7605C139.451 70.8615 138.707 70.2415 137.746 70.2415C136.785 70.2415 136.041 70.8615 136.041 71.7605C136.041 72.644 136.785 73.2795 137.746 73.2795ZM139.156 67.281C139.156 66.5525 138.521 66.041 137.746 66.041C136.971 66.041 136.335 66.5525 136.335 67.281C136.335 68.0405 136.971 68.5365 137.746 68.5365C138.521 68.5365 139.156 68.0405 139.156 67.281Z" fill="#242B42"/>
<path d="M87.774 93.5H86.8905L83.217 82.65H84.643L87.371 90.927L90.223 82.65H91.0755L93.9275 90.927L96.671 82.65H98.066L94.377 93.5H93.4935L90.626 85.2385L87.774 93.5ZM105.13 91.268V92.7095C104.293 93.314 103.27 93.6705 102.216 93.6705C99.8136 93.6705 98.2636 91.95 98.2636 89.7335C98.2636 87.486 99.8136 85.7965 101.984 85.7965C104.092 85.7965 105.533 87.5325 105.533 89.6715C105.533 89.966 105.502 90.152 105.502 90.152H99.5966C99.7051 91.4075 100.744 92.4615 102.309 92.4615C103.27 92.4615 104.2 92.074 105.13 91.268ZM99.6276 89.0515H104.185C104.076 87.858 103.193 86.959 101.953 86.959C100.697 86.959 99.7206 88.0285 99.6276 89.0515ZM107.003 92.8955V91.423C107.685 92.043 108.568 92.477 109.483 92.477C110.242 92.477 110.94 92.2135 110.94 91.4385C110.94 90.6635 110.211 90.4 109.266 90.1985C108.181 89.966 106.987 89.532 106.987 88.075C106.987 86.556 108.274 85.7965 109.622 85.7965C110.428 85.7965 111.234 86.0445 111.901 86.494V87.9045C111.234 87.362 110.459 86.9745 109.653 86.9745C109.018 86.9745 108.289 87.2225 108.289 87.92C108.289 88.602 108.94 88.8965 109.808 89.1135C111.203 89.4545 112.257 89.966 112.257 91.33C112.257 92.8645 110.971 93.6705 109.467 93.6705C108.646 93.6705 107.716 93.4225 107.003 92.8955ZM113.096 86.99L115.684 84.2H115.731V85.967H117.839V87.1605H115.731V91.144C115.731 92.0275 116.118 92.4305 116.986 92.4305C117.281 92.4305 117.606 92.353 117.839 92.198V93.438C117.575 93.5775 117.188 93.6705 116.676 93.6705C115.25 93.6705 114.398 92.787 114.398 91.33V87.1605H113.096V86.99ZM123.078 88.075C123.078 84.9285 125.512 82.464 128.627 82.464C129.774 82.464 130.844 82.805 131.805 83.4405V84.975C130.751 84.1845 129.712 83.797 128.596 83.797C126.302 83.797 124.504 85.6725 124.504 88.075C124.504 90.4465 126.302 92.3375 128.596 92.3375C129.697 92.3375 130.782 91.95 131.836 91.1905V92.725C130.813 93.3605 129.743 93.6705 128.612 93.6705C125.512 93.6705 123.078 91.206 123.078 88.075ZM135.143 89.563V93.5H133.81V82.65H135.143V87.052C135.608 86.308 136.414 85.7965 137.546 85.7965C139.468 85.7965 140.584 87.083 140.584 89.0825V93.5H139.251V89.2375C139.251 87.889 138.553 87.0365 137.267 87.0365C135.98 87.0365 135.143 88.0285 135.143 89.563ZM149.327 91.268V92.7095C148.49 93.314 147.467 93.6705 146.413 93.6705C144.01 93.6705 142.46 91.95 142.46 89.7335C142.46 87.486 144.01 85.7965 146.18 85.7965C148.288 85.7965 149.73 87.5325 149.73 89.6715C149.73 89.966 149.699 90.152 149.699 90.152H143.793C143.902 91.4075 144.94 92.4615 146.506 92.4615C147.467 92.4615 148.397 92.074 149.327 91.268ZM143.824 89.0515H148.381C148.273 87.858 147.389 86.959 146.149 86.959C144.894 86.959 143.917 88.0285 143.824 89.0515ZM151.199 92.8955V91.423C151.881 92.043 152.765 92.477 153.679 92.477C154.439 92.477 155.136 92.2135 155.136 91.4385C155.136 90.6635 154.408 90.4 153.462 90.1985C152.377 89.966 151.184 89.532 151.184 88.075C151.184 86.556 152.47 85.7965 153.819 85.7965C154.625 85.7965 155.431 86.0445 156.097 86.494V87.9045C155.431 87.362 154.656 86.9745 153.85 86.9745C153.214 86.9745 152.486 87.2225 152.486 87.92C152.486 88.602 153.137 88.8965 154.005 89.1135C155.4 89.4545 156.454 89.966 156.454 91.33C156.454 92.8645 155.167 93.6705 153.664 93.6705C152.842 93.6705 151.912 93.4225 151.199 92.8955ZM157.292 86.99L159.881 84.2H159.927V85.967H162.035V87.1605H159.927V91.144C159.927 92.0275 160.315 92.4305 161.183 92.4305C161.477 92.4305 161.803 92.353 162.035 92.198V93.438C161.772 93.5775 161.384 93.6705 160.873 93.6705C159.447 93.6705 158.594 92.787 158.594 91.33V87.1605H157.292V86.99ZM170.108 91.268V92.7095C169.271 93.314 168.248 93.6705 167.194 93.6705C164.791 93.6705 163.241 91.95 163.241 89.7335C163.241 87.486 164.791 85.7965 166.961 85.7965C169.069 85.7965 170.511 87.5325 170.511 89.6715C170.511 89.966 170.48 90.152 170.48 90.152H164.574C164.683 91.4075 165.721 92.4615 167.287 92.4615C168.248 92.4615 169.178 92.074 170.108 91.268ZM164.605 89.0515H169.162C169.054 87.858 168.17 86.959 166.93 86.959C165.675 86.959 164.698 88.0285 164.605 89.0515ZM176.353 85.874V87.207C176.353 87.207 176.214 87.176 175.981 87.176C174.586 87.176 173.734 88.292 173.734 89.9195V93.5H172.416V85.967H173.718V87.3C174.059 86.432 175.036 85.843 176.028 85.843C176.214 85.843 176.353 85.874 176.353 85.874Z" fill="#4B546B"/>
<path d="M178.984 95.0345H178.085L178.814 93.5H178.783C178.364 93.5 178.008 93.1435 178.008 92.6785C178.008 92.1515 178.442 91.764 178.969 91.764C179.48 91.764 179.914 92.167 179.914 92.6785C179.914 92.9885 179.806 93.252 179.666 93.562L178.984 95.0345Z" fill="#4B546B"/>
<path d="M188.759 82.65C190.82 82.65 192.262 83.797 192.262 85.781C192.262 87.765 190.82 88.8965 188.759 88.8965H186.775V93.5H185.395V82.65H188.759ZM186.775 83.921V87.6255H188.759C189.999 87.6255 190.867 86.9435 190.867 85.781C190.867 84.5875 189.999 83.921 188.759 83.921H186.775ZM196.284 82.65H197.369L201.833 93.5H200.376L199.105 90.3535H194.501L193.23 93.5H191.804L196.284 82.65ZM196.795 84.5875L194.997 89.098H198.609L196.795 84.5875Z" fill="#4B546B"/>
<path d="M209.875 93.5H208.511V84.386L206.589 85.1765V83.7815L208.759 82.8515H209.875V93.5ZM211.968 86.4475C211.968 84.3395 213.658 82.681 215.812 82.681C218.029 82.681 219.672 84.3085 219.672 86.463C219.672 87.362 219.346 88.354 218.478 89.656L215.936 93.5H214.293L216.835 89.7335C216.525 89.9195 216.122 90.0435 215.564 90.0435C213.503 90.0435 211.968 88.4315 211.968 86.4475ZM213.348 86.3855C213.348 87.7805 214.448 88.819 215.812 88.819C217.207 88.819 218.292 87.7805 218.292 86.401C218.292 85.0525 217.223 83.9675 215.828 83.9675C214.448 83.9675 213.348 85.0525 213.348 86.3855ZM223.485 92.384C224.803 92.384 225.826 91.5935 225.826 90.431C225.826 89.2995 224.818 88.5245 223.532 88.5245H222.524V87.2845H223.532C224.508 87.2845 225.407 86.5095 225.407 85.626C225.407 84.665 224.555 83.952 223.454 83.952C222.555 83.952 221.718 84.3705 220.866 85.1145V83.5955C221.641 83.0065 222.555 82.681 223.47 82.681C225.392 82.681 226.756 83.89 226.756 85.502C226.756 86.5095 226.213 87.3775 225.268 87.827C226.446 88.2145 227.205 89.2375 227.205 90.4465C227.205 92.3375 225.624 93.6705 223.501 93.6705C222.478 93.6705 221.517 93.407 220.587 92.8335V91.3455C221.532 92.043 222.493 92.384 223.485 92.384ZM232.165 82.681C233.901 82.681 235.42 83.7815 235.42 85.4865C235.42 86.649 234.691 87.486 233.885 87.7805C234.769 88.0905 235.838 88.974 235.838 90.4775C235.838 92.4615 234.071 93.6705 232.165 93.6705C230.258 93.6705 228.491 92.4615 228.491 90.4775C228.491 88.974 229.561 88.0905 230.444 87.7805C229.638 87.486 228.91 86.649 228.91 85.4865C228.91 83.7815 230.429 82.681 232.165 82.681ZM234.474 90.4155C234.474 89.2375 233.436 88.447 232.165 88.447C230.894 88.447 229.855 89.2375 229.855 90.4155C229.855 91.609 230.925 92.3995 232.165 92.3995C233.405 92.3995 234.474 91.609 234.474 90.4155ZM232.165 83.9365C231.157 83.9365 230.243 84.5875 230.243 85.5795C230.243 86.5715 231.157 87.2225 232.165 87.2225C233.172 87.2225 234.087 86.5715 234.087 85.5795C234.087 84.5875 233.172 83.9365 232.165 83.9365ZM237.018 93.5V92.5545L240.986 88.354C241.901 87.393 242.18 86.7265 242.18 85.905C242.18 84.8045 241.219 83.9675 239.979 83.9675C239.002 83.9675 237.995 84.6185 237.142 85.6725V84.045C237.886 83.208 238.987 82.681 239.994 82.681C242.04 82.681 243.544 83.9985 243.544 85.843C243.544 87.114 243.048 88.044 241.901 89.253L239.064 92.229H243.683V93.5H237.018Z" fill="#4B546B"/>
<rect x="83.5" y="98.5" width="61" height="18" rx="3.5" fill="#0056CF" fill-opacity="0.1"/>
<rect x="83.5" y="98.5" width="61" height="18" rx="3.5" stroke="white"/>
<path d="M89.0725 111V103.3H90.7335V106.281H93.8135V103.3H95.4745V111H93.8135V107.865H90.7335V111H89.0725ZM102.566 103.443L102.291 105.357H103.369V106.49H102.137L101.939 107.898H103.028V109.031H101.774L101.499 111H100.212L100.487 109.031H99.0681L98.7931 111H97.5061L97.7811 109.031H96.7141V107.898H97.9461L98.1441 106.49H97.0551V105.357H98.3091L98.5841 103.443H99.8601L99.5851 105.357H101.004L101.279 103.443H102.566ZM99.4311 106.49L99.2331 107.898H100.652L100.85 106.49H99.4311Z" fill="#0056CF"/>
<path d="M107.632 111H106.004V105.203L104.64 105.731V104.136L106.345 103.443H107.632V111ZM114.036 111H108.91V109.845L111.385 107.392C112.089 106.71 112.287 106.358 112.287 105.852C112.287 105.247 111.77 104.818 111.044 104.818C110.34 104.818 109.68 105.214 109.086 105.863V104.136C109.669 103.608 110.428 103.311 111.176 103.311C112.694 103.311 113.915 104.235 113.915 105.676C113.915 106.677 113.497 107.414 112.54 108.294L111.187 109.548H114.036V111ZM119.879 108.745C119.879 110.175 118.746 111.143 117.019 111.143C116.282 111.143 115.589 110.956 114.962 110.571V108.921C115.589 109.416 116.227 109.658 116.887 109.658C117.69 109.658 118.251 109.295 118.251 108.657C118.251 108.096 117.723 107.711 116.942 107.711H116.227V106.435H116.909C117.547 106.435 117.987 106.083 117.987 105.621C117.987 105.093 117.47 104.785 116.854 104.785C116.249 104.785 115.699 105.016 115.116 105.489V103.872C115.666 103.498 116.315 103.311 116.986 103.311C118.482 103.311 119.582 104.103 119.582 105.423C119.582 106.127 119.219 106.655 118.647 106.974C119.428 107.293 119.879 107.92 119.879 108.745ZM120.6 109.449V108.327L123.856 103.454H125.814V108.096H126.87V109.449H125.814V111H124.263V109.449H120.6ZM122.349 108.096H124.274V105.181L122.349 108.096ZM127.647 110.56V108.899C128.296 109.405 128.956 109.647 129.616 109.647C130.419 109.647 131.079 109.251 131.079 108.503C131.079 107.788 130.43 107.403 129.55 107.403C128.945 107.403 128.362 107.557 127.823 107.81L128.043 103.443H132.278V104.851H129.374L129.308 106.149C129.473 106.094 129.759 106.05 130.056 106.05C131.574 106.05 132.718 107.018 132.718 108.492C132.718 110.153 131.442 111.132 129.715 111.143C128.967 111.143 128.274 110.945 127.647 110.56ZM139.319 108.36C139.319 109.944 138.076 111.143 136.448 111.143C134.809 111.143 133.577 109.966 133.577 108.382C133.577 107.7 133.841 106.93 134.336 106.16L136.085 103.443H137.955L136.261 105.896C136.437 105.819 136.657 105.797 136.811 105.797C138.263 105.797 139.319 106.941 139.319 108.36ZM137.724 108.415C137.724 107.711 137.152 107.161 136.448 107.161C135.733 107.161 135.172 107.711 135.172 108.404C135.172 109.108 135.722 109.669 136.437 109.669C137.152 109.669 137.724 109.108 137.724 108.415Z" fill="#0056CF"/>
<path d="M151.684 102.6C153.28 102.6 154.396 103.488 154.396 105.024C154.396 106.56 153.28 107.436 151.684 107.436H150.148V111H149.08V102.6H151.684ZM150.148 103.584V106.452H151.684C152.644 106.452 153.316 105.924 153.316 105.024C153.316 104.1 152.644 103.584 151.684 103.584H150.148ZM155.783 111V102.6H156.851V106.14H161.363V102.6H162.431V111H161.363V107.148H156.851V111H155.783ZM164.596 102.6H165.664V110.004H168.664V111H164.596V102.6Z" fill="#4B546B"/>
</svg>
