<svg width="362" height="159" viewBox="0 0 362 159" fill="none" xmlns="http://www.w3.org/2000/svg">
<path d="M85.888 70V61.6H90.832V63.232H87.688V64.936H90.556V66.52H87.688V68.368H90.856V70H85.888ZM97.3862 67.792L95.2502 64.432V70H93.4982V61.6H95.3822L97.9142 65.596L100.434 61.6H102.27V70H100.518V64.408L98.3702 67.792H97.3862ZM107.837 61.6H109.433L112.805 70H110.921L110.213 68.188H107.009L106.301 70H104.453L107.837 61.6ZM108.605 63.892L107.561 66.64H109.673L108.605 63.892ZM114.988 61.6H116.8V70H114.988V61.6ZM119.774 61.6H121.574V68.308H124.502V70H119.774V61.6Z" fill="#4B546B"/>
<path d="M90.58 91.5406V91.3546C90.58 90.4091 89.9135 89.8356 88.7975 89.8356C87.7745 89.8356 87.015 90.2541 86.24 90.9671V89.5721C86.922 89.0141 87.7435 88.6266 88.8285 88.6266C90.766 88.6266 91.882 89.6961 91.882 91.4476V96.3301H90.6265V95.3381C90.0375 96.0976 89.123 96.5006 88.131 96.5006C86.798 96.5006 85.8525 95.5861 85.8525 94.3461C85.8525 92.9976 86.705 92.1916 88.3635 91.9126L90.58 91.5406ZM87.1855 94.2686C87.1855 94.9041 87.6815 95.3226 88.379 95.3226C89.6655 95.3226 90.5955 94.4856 90.5955 93.3231V92.6876L88.5805 93.0441C87.6815 93.2146 87.1855 93.6176 87.1855 94.2686ZM95.6152 92.3931V96.3301H94.2822V88.7971H95.6152V89.8821C96.0802 89.1381 96.8862 88.6266 98.0177 88.6266C99.9397 88.6266 101.056 89.9131 101.056 91.9126V96.3301H99.7227V92.0676C99.7227 90.7191 99.0252 89.8666 97.7387 89.8666C96.4522 89.8666 95.6152 90.8586 95.6152 92.3931ZM104.808 92.3931V96.3301H103.475V88.7971H104.808V89.8821C105.273 89.1381 106.079 88.6266 107.21 88.6266C109.132 88.6266 110.248 89.9131 110.248 91.9126V96.3301H108.915V92.0676C108.915 90.7191 108.218 89.8666 106.931 89.8666C105.645 89.8666 104.808 90.8586 104.808 92.3931ZM116.932 91.5406V91.3546C116.932 90.4091 116.265 89.8356 115.149 89.8356C114.126 89.8356 113.367 90.2541 112.592 90.9671V89.5721C113.274 89.0141 114.095 88.6266 115.18 88.6266C117.118 88.6266 118.234 89.6961 118.234 91.4476V96.3301H116.978V95.3381C116.389 96.0976 115.475 96.5006 114.483 96.5006C113.15 96.5006 112.204 95.5861 112.204 94.3461C112.204 92.9976 113.057 92.1916 114.715 91.9126L116.932 91.5406ZM113.537 94.2686C113.537 94.9041 114.033 95.3226 114.731 95.3226C116.017 95.3226 116.947 94.4856 116.947 93.3231V92.6876L114.932 93.0441C114.033 93.2146 113.537 93.6176 113.537 94.2686ZM122.292 95.5241C122.292 96.0511 121.874 96.4696 121.347 96.4696C120.82 96.4696 120.401 96.0511 120.401 95.5241C120.401 95.0126 120.82 94.5941 121.347 94.5941C121.874 94.5941 122.292 95.0126 122.292 95.5241ZM125.907 96.3301H124.589V85.4801H125.907V89.9906C126.449 89.1691 127.472 88.6266 128.573 88.6266C130.712 88.6266 132.355 90.3316 132.355 92.5636C132.355 94.7801 130.712 96.5006 128.573 96.5006C127.472 96.5006 126.465 96.0201 125.907 95.1986V96.3301ZM131.006 92.5636C131.006 91.0446 129.89 89.8511 128.418 89.8511C126.945 89.8511 125.829 91.0446 125.829 92.5636C125.829 94.0826 126.945 95.2761 128.418 95.2761C129.89 95.2761 131.006 94.0826 131.006 92.5636ZM134.342 85.4801H135.675V96.3301H134.342V85.4801ZM142.546 91.5406V91.3546C142.546 90.4091 141.88 89.8356 140.764 89.8356C139.741 89.8356 138.981 90.2541 138.206 90.9671V89.5721C138.888 89.0141 139.71 88.6266 140.795 88.6266C142.732 88.6266 143.848 89.6961 143.848 91.4476V96.3301H142.593V95.3381C142.004 96.0976 141.089 96.5006 140.097 96.5006C138.764 96.5006 137.819 95.5861 137.819 94.3461C137.819 92.9976 138.671 92.1916 140.33 91.9126L142.546 91.5406ZM139.152 94.2686C139.152 94.9041 139.648 95.3226 140.345 95.3226C141.632 95.3226 142.562 94.4856 142.562 93.3231V92.6876L140.547 93.0441C139.648 93.2146 139.152 93.6176 139.152 94.2686ZM145.706 92.5636C145.706 90.3626 147.333 88.6266 149.643 88.6266C150.433 88.6266 151.162 88.8591 151.782 89.2776V90.6261C151.115 90.1146 150.433 89.8666 149.705 89.8666C148.17 89.8666 147.054 91.0446 147.054 92.5636C147.054 94.0671 148.17 95.2606 149.705 95.2606C150.495 95.2606 151.224 94.9041 151.828 94.5166V95.8651C151.177 96.2681 150.433 96.5006 149.658 96.5006C147.287 96.5006 145.706 94.7801 145.706 92.5636ZM155.093 85.4801V91.7886L158.255 88.7971H159.96L156.535 92.0056L160.255 96.3301H158.565L155.605 92.8271L155.093 93.3076V96.3301H153.776V85.4801H155.093ZM171.152 96.4541V97.6011C170.114 98.1281 168.858 98.4071 167.494 98.4071C163.976 98.4071 161.17 96.2216 161.17 92.4241C161.17 88.7816 164.146 86.2551 167.68 86.2551C170.749 86.2551 173.291 88.4716 173.291 91.4011C173.291 93.8036 171.927 95.2916 170.532 95.2916C169.494 95.3071 169.106 94.6871 169.044 94.2221C168.595 94.8731 167.789 95.3071 166.828 95.3071C165.355 95.3071 164.255 94.1446 164.255 92.4706C164.255 90.7346 165.557 89.3396 167.153 89.3396C168.207 89.3396 168.936 89.7736 169.261 90.3936L169.37 89.4946H170.424L169.974 93.2766C169.912 93.9121 170.067 94.3151 170.625 94.3151C171.385 94.3151 172.144 93.1371 172.144 91.5251C172.144 89.0606 170.114 87.3091 167.618 87.3091C164.766 87.3091 162.348 89.3861 162.348 92.4086C162.348 95.5551 164.751 97.3531 167.51 97.3531C168.982 97.3531 170.16 96.9966 171.152 96.4541ZM167.029 94.3151C168.037 94.3151 168.982 93.3696 168.982 92.1761C168.982 91.1686 168.347 90.3471 167.277 90.3471C166.239 90.3471 165.371 91.2926 165.371 92.4706C165.371 93.5556 166.099 94.3151 167.029 94.3151ZM176.491 99.5541H175.173V88.7971H176.491V89.9906C177.033 89.1691 178.056 88.6266 179.157 88.6266C181.296 88.6266 182.939 90.3316 182.939 92.5636C182.939 94.7801 181.296 96.5006 179.157 96.5006C178.056 96.5006 177.049 96.0201 176.491 95.1986V99.5541ZM181.59 92.5636C181.59 91.0446 180.474 89.8511 179.002 89.8511C177.529 89.8511 176.413 91.0446 176.413 92.5636C176.413 94.0826 177.529 95.2761 179.002 95.2761C180.474 95.2761 181.59 94.0826 181.59 92.5636ZM188.396 88.6266C190.659 88.6266 192.333 90.3781 192.333 92.5636C192.333 94.7491 190.659 96.5006 188.396 96.5006C186.133 96.5006 184.459 94.7491 184.459 92.5636C184.459 90.3781 186.133 88.6266 188.396 88.6266ZM188.396 89.8511C186.924 89.8511 185.808 91.0601 185.808 92.5636C185.808 94.0671 186.924 95.2761 188.396 95.2761C189.869 95.2761 190.985 94.0671 190.985 92.5636C190.985 91.0601 189.869 89.8511 188.396 89.8511ZM202.084 96.3301H201.061L199.077 90.7501L197.093 96.3301H196.07L193.265 88.7971H194.644L196.613 94.4391L198.612 88.7971H199.573L201.573 94.4391L203.541 88.7971H204.89L202.084 96.3301ZM212.693 94.0981V95.5396C211.856 96.1441 210.833 96.5006 209.779 96.5006C207.376 96.5006 205.826 94.7801 205.826 92.5636C205.826 90.3161 207.376 88.6266 209.546 88.6266C211.654 88.6266 213.096 90.3626 213.096 92.5016C213.096 92.7961 213.065 92.9821 213.065 92.9821H207.159C207.268 94.2376 208.306 95.2916 209.872 95.2916C210.833 95.2916 211.763 94.9041 212.693 94.0981ZM207.19 91.8816H211.747C211.639 90.6881 210.755 89.7891 209.515 89.7891C208.26 89.7891 207.283 90.8586 207.19 91.8816ZM218.938 88.7041V90.0371C218.938 90.0371 218.799 90.0061 218.566 90.0061C217.171 90.0061 216.319 91.1221 216.319 92.7496V96.3301H215.001V88.7971H216.303V90.1301C216.644 89.2621 217.621 88.6731 218.613 88.6731C218.799 88.6731 218.938 88.7041 218.938 88.7041ZM221.97 92.3931V96.3301H220.637V85.4801H221.97V89.8821C222.435 89.1381 223.241 88.6266 224.372 88.6266C226.294 88.6266 227.41 89.9131 227.41 91.9126V96.3301H226.077V92.0676C226.077 90.7191 225.38 89.8666 224.093 89.8666C222.807 89.8666 221.97 90.8586 221.97 92.3931ZM233.766 88.7041V90.0371C233.766 90.0371 233.627 90.0061 233.394 90.0061C231.999 90.0061 231.147 91.1221 231.147 92.7496V96.3301H229.829V88.7971H231.131V90.1301C231.472 89.2621 232.449 88.6731 233.441 88.6731C233.627 88.6731 233.766 88.7041 233.766 88.7041ZM235.095 91.4011C235.095 89.7581 236.443 88.6266 238.009 88.6266C238.365 88.6266 238.706 88.6886 239.032 88.7971H241.62V89.9441H240.504C240.768 90.3626 240.923 90.8586 240.923 91.4011C240.923 93.0596 239.574 94.1601 238.009 94.1601C237.544 94.1601 237.11 94.0671 236.707 93.8966C236.195 94.0516 236.04 94.3461 236.04 94.6251C236.04 95.0746 236.443 95.2451 237.048 95.2451H239.14C240.752 95.2451 241.775 95.9271 241.775 97.1671C241.775 98.9186 239.915 99.7401 237.885 99.7401C235.947 99.7401 234.521 99.1201 234.521 97.6166C234.521 96.9036 235.002 96.3301 235.482 96.0201C235.064 95.7256 234.878 95.2916 234.878 94.8111C234.878 93.9741 235.389 93.5711 235.839 93.2921C235.374 92.8271 235.095 92.1761 235.095 91.4011ZM240.535 97.2911C240.535 96.6401 239.962 96.4231 238.83 96.4231H236.97C236.784 96.4231 236.629 96.4076 236.474 96.3921C236.009 96.6401 235.746 97.0121 235.746 97.4616C235.746 98.3296 236.707 98.6861 237.916 98.6861C239.435 98.6861 240.535 98.1901 240.535 97.2911ZM236.319 91.4011C236.319 92.3931 237.063 93.0596 238.009 93.0596C238.954 93.0596 239.698 92.3931 239.698 91.4011C239.698 90.4401 238.954 89.7426 238.009 89.7426C237.063 89.7426 236.319 90.4401 236.319 91.4011ZM245.15 95.5241C245.15 96.0511 244.732 96.4696 244.205 96.4696C243.678 96.4696 243.259 96.0511 243.259 95.5241C243.259 95.0126 243.678 94.5941 244.205 94.5941C244.732 94.5941 245.15 95.0126 245.15 95.5241ZM246.753 92.5636C246.753 90.3626 248.381 88.6266 250.69 88.6266C251.481 88.6266 252.209 88.8591 252.829 89.2776V90.6261C252.163 90.1146 251.481 89.8666 250.752 89.8666C249.218 89.8666 248.102 91.0446 248.102 92.5636C248.102 94.0671 249.218 95.2606 250.752 95.2606C251.543 95.2606 252.271 94.9041 252.876 94.5166V95.8651C252.225 96.2681 251.481 96.5006 250.706 96.5006C248.334 96.5006 246.753 94.7801 246.753 92.5636ZM258.218 88.6266C260.481 88.6266 262.155 90.3781 262.155 92.5636C262.155 94.7491 260.481 96.5006 258.218 96.5006C255.955 96.5006 254.281 94.7491 254.281 92.5636C254.281 90.3781 255.955 88.6266 258.218 88.6266ZM258.218 89.8511C256.745 89.8511 255.629 91.0601 255.629 92.5636C255.629 94.0671 256.745 95.2761 258.218 95.2761C259.69 95.2761 260.806 94.0671 260.806 92.5636C260.806 91.0601 259.69 89.8511 258.218 89.8511ZM265.47 92.3776V96.3301H264.137V88.7971H265.454V89.8821C265.873 89.1071 266.632 88.6266 267.671 88.6266C268.787 88.6266 269.593 89.1846 270.042 90.0991C270.414 89.4636 271.189 88.6266 272.615 88.6266C274.351 88.6266 275.39 89.8511 275.39 91.7886V96.3301H274.057V92.0211C274.057 90.6881 273.483 89.8511 272.352 89.8511C271.189 89.8511 270.43 90.8431 270.43 92.3776V96.3301H269.097V92.0521C269.097 90.7036 268.508 89.8511 267.392 89.8511C266.229 89.8511 265.47 90.8431 265.47 92.3776Z" fill="#242B42"/>
</svg>
