<svg width="362" height="159" viewBox="0 0 362 159" fill="none" xmlns="http://www.w3.org/2000/svg">
<path d="M104.636 82.436V80.3C105.44 81.044 106.604 81.464 107.504 81.464C108.32 81.464 108.776 81.14 108.776 80.552C108.776 79.868 107.936 79.724 107 79.472C105.848 79.172 104.54 78.74 104.54 77.096C104.54 75.488 105.836 74.444 107.66 74.444C108.656 74.444 109.508 74.672 110.252 75.14V77.144C109.472 76.472 108.572 76.112 107.672 76.112C106.784 76.112 106.4 76.484 106.4 76.988C106.4 77.54 107.108 77.72 107.924 77.936C109.136 78.248 110.648 78.656 110.648 80.42C110.648 82.028 109.46 83.156 107.54 83.156C106.496 83.156 105.392 82.904 104.636 82.436ZM113.072 83V74.6H118.016V76.232H114.872V77.936H117.74V79.52H114.872V81.368H118.04V83H113.072ZM122.471 79.928V83H120.683V74.6H123.479C125.291 74.6 126.551 75.572 126.551 77.288C126.551 78.488 125.831 79.328 124.823 79.712L127.139 83H125.015L122.951 79.928H122.471ZM122.471 76.22V78.44H123.491C124.211 78.44 124.739 78.02 124.739 77.324C124.739 76.616 124.211 76.22 123.491 76.22H122.471ZM132.966 83H131.478L128.25 74.6H130.182L132.258 80.252L134.334 74.6H136.206L132.966 83ZM138.364 74.6H140.176V83H138.364V74.6ZM142.754 78.8C142.754 76.34 144.674 74.444 147.098 74.444C147.83 74.444 148.574 74.636 149.234 75.008V76.952C148.598 76.472 147.938 76.208 147.158 76.208C145.694 76.208 144.614 77.348 144.614 78.8C144.614 80.228 145.646 81.38 147.158 81.38C147.926 81.38 148.586 81.128 149.246 80.66V82.592C148.514 83 147.746 83.156 147.074 83.156C144.53 83.156 142.754 81.296 142.754 78.8ZM151.85 83V74.6H156.794V76.232H153.65V77.936H156.518V79.52H153.65V81.368H156.818V83H151.85ZM169.209 74.6H170.961V83H169.161L165.213 77.456V83H163.461V74.6H165.297L169.209 80.168V74.6ZM173.942 83V74.6H178.886V76.232H175.742V77.936H178.61V79.52H175.742V81.368H178.91V83H173.942ZM181.552 83V74.6H186.496V76.232H183.352V77.936H186.22V79.52H183.352V81.368H186.52V83H181.552ZM196.278 78.8C196.278 81.164 194.358 83 192.006 83H189.162V74.6H192.006C194.358 74.6 196.278 76.436 196.278 78.8ZM194.43 78.8C194.43 77.408 193.35 76.292 191.958 76.292H190.962V81.308H191.958C193.35 81.308 194.43 80.192 194.43 78.8ZM198.858 83V74.6H203.802V76.232H200.658V77.936H203.526V79.52H200.658V81.368H203.826V83H198.858ZM213.584 78.8C213.584 81.164 211.664 83 209.312 83H206.468V74.6H209.312C211.664 74.6 213.584 76.436 213.584 78.8ZM211.736 78.8C211.736 77.408 210.656 76.292 209.264 76.292H208.268V81.308H209.264C210.656 81.308 211.736 80.192 211.736 78.8Z" fill="#617290"/>
<rect x="223" y="68" width="34.7778" height="22" rx="11" fill="#687887" fill-opacity="0.1"/>
<path d="M239.933 75.5255L235.655 84.5H233.113L237.314 75.913H232.385V73.867H239.933V75.5255ZM248.172 80.78C248.172 83.012 246.421 84.7015 244.127 84.7015C241.817 84.7015 240.081 83.043 240.081 80.811C240.081 79.85 240.453 78.765 241.151 77.68L243.615 73.8515H246.25L243.863 77.308C244.111 77.1995 244.421 77.1685 244.638 77.1685C246.684 77.1685 248.172 78.7805 248.172 80.78ZM245.925 80.8575C245.925 79.8655 245.119 79.0905 244.127 79.0905C243.119 79.0905 242.329 79.8655 242.329 80.842C242.329 81.834 243.104 82.6245 244.111 82.6245C245.119 82.6245 245.925 81.834 245.925 80.8575Z" fill="#687887"/>
</svg>
