<svg width="362" height="159" viewBox="0 0 362 159" fill="none" xmlns="http://www.w3.org/2000/svg">
<path d="M146.166 73.3453H147.251L151.715 84.1953H150.257L148.987 81.0488H144.383L143.112 84.1953H141.686L146.166 73.3453ZM146.677 75.2828L144.879 79.7933H148.491L146.677 75.2828ZM154.522 80.2583V84.1953H153.189V76.6623H154.522V77.7473C154.987 77.0033 155.793 76.4918 156.924 76.4918C158.846 76.4918 159.962 77.7783 159.962 79.7778V84.1953H158.629V79.9328C158.629 78.5843 157.932 77.7318 156.645 77.7318C155.359 77.7318 154.522 78.7238 154.522 80.2583ZM163.715 80.2583V84.1953H162.382V76.6623H163.715V77.7473C164.18 77.0033 164.986 76.4918 166.117 76.4918C168.039 76.4918 169.155 77.7783 169.155 79.7778V84.1953H167.822V79.9328C167.822 78.5843 167.125 77.7318 165.838 77.7318C164.552 77.7318 163.715 78.7238 163.715 80.2583ZM175.838 79.4058V79.2198C175.838 78.2743 175.172 77.7008 174.056 77.7008C173.033 77.7008 172.273 78.1193 171.498 78.8323V77.4373C172.18 76.8793 173.002 76.4918 174.087 76.4918C176.024 76.4918 177.14 77.5613 177.14 79.3128V84.1953H175.885V83.2033C175.296 83.9628 174.381 84.3658 173.389 84.3658C172.056 84.3658 171.111 83.4513 171.111 82.2113C171.111 80.8628 171.963 80.0568 173.622 79.7778L175.838 79.4058ZM172.444 82.1338C172.444 82.7693 172.94 83.1878 173.637 83.1878C174.924 83.1878 175.854 82.3508 175.854 81.1883V80.5528L173.839 80.9093C172.94 81.0798 172.444 81.4828 172.444 82.1338Z" fill="#242B42"/>
<path d="M183.647 84.6943V73.8443H187.615C189.615 73.8443 191.056 74.9293 191.056 76.7738C191.056 77.7348 190.576 78.4943 189.785 78.8973C191.025 79.3313 191.707 80.2613 191.707 81.5168C191.707 83.5008 190.219 84.6943 187.848 84.6943H183.647ZM185.926 82.7413H187.708C188.7 82.7413 189.351 82.2763 189.351 81.3928C189.351 80.5248 188.685 80.0443 187.708 80.0443H185.926V82.7413ZM185.926 78.1688H187.383C188.189 78.1688 188.778 77.7503 188.778 76.9753C188.778 76.1848 188.189 75.7818 187.383 75.7818H185.926V78.1688ZM193.335 73.8443H195.598V84.6943H193.335V73.8443ZM204.087 84.6943H201.994L201.963 83.7333C201.514 84.5238 200.63 84.8958 199.716 84.8958C198.29 84.8958 197.313 83.9968 197.313 82.6483C197.313 81.2378 198.259 80.3698 200.165 80.0908L201.901 79.8428V79.7498C201.901 79.1143 201.39 78.7423 200.351 78.7423C199.359 78.7423 198.476 79.1298 197.778 79.7653V77.6108C198.445 77.1613 199.406 76.8358 200.584 76.8358C202.8 76.8358 204.087 77.9053 204.087 79.8893V84.6943ZM199.452 82.4623C199.468 82.8963 199.824 83.1753 200.336 83.1753C201.281 83.1753 201.901 82.4933 201.901 81.6253V81.3618L200.553 81.5788C199.824 81.6873 199.452 82.0128 199.452 82.4623ZM205.595 80.8658C205.595 78.5563 207.284 76.8358 209.687 76.8358C210.353 76.8358 211.051 76.9908 211.609 77.3163V79.4398C211.082 79.0678 210.539 78.8818 209.95 78.8818C208.772 78.8818 207.873 79.7033 207.873 80.8658C207.873 82.0128 208.757 82.8498 209.95 82.8498C210.555 82.8498 211.144 82.6018 211.624 82.2608V84.3998C211.004 84.7408 210.322 84.8958 209.656 84.8958C207.3 84.8958 205.595 83.2683 205.595 80.8658ZM218.044 77.0373H220.741L217.579 80.4318L220.942 84.6943H218.23L215.889 81.6408L215.502 82.0283V84.6943H213.254V73.8443H215.502V79.7653L218.044 77.0373Z" fill="#242B42"/>
</svg>
