<svg width="362" height="159" viewBox="0 0 362 159" fill="none" xmlns="http://www.w3.org/2000/svg">
<path d="M114.808 23.2418H115.626L118.992 31.4229H117.893L116.935 29.0504H113.463L112.505 31.4229H111.43L114.808 23.2418ZM115.193 24.7027L113.837 28.1037H116.561L115.193 24.7027ZM121.108 28.4543V31.4229H120.103V25.7429H121.108V26.561C121.459 26 122.067 25.6143 122.92 25.6143C124.369 25.6143 125.211 26.5844 125.211 28.092V31.4229H124.205V28.2089C124.205 27.1921 123.68 26.5493 122.709 26.5493C121.739 26.5493 121.108 27.2973 121.108 28.4543ZM128.04 28.4543V31.4229H127.035V25.7429H128.04V26.561C128.39 26 128.998 25.6143 129.851 25.6143C131.3 25.6143 132.142 26.5844 132.142 28.092V31.4229H131.137V28.2089C131.137 27.1921 130.611 26.5493 129.641 26.5493C128.671 26.5493 128.04 27.2973 128.04 28.4543ZM137.181 27.8115V27.6713C137.181 26.9584 136.679 26.5259 135.837 26.5259C135.066 26.5259 134.493 26.8415 133.909 27.3791V26.3272C134.423 25.9065 135.042 25.6143 135.861 25.6143C137.321 25.6143 138.163 26.4207 138.163 27.7414V31.4229H137.216V30.6749C136.772 31.2475 136.083 31.5514 135.335 31.5514C134.33 31.5514 133.617 30.8619 133.617 29.9269C133.617 28.9101 134.259 28.3024 135.51 28.092L137.181 27.8115ZM134.622 29.8685C134.622 30.3476 134.996 30.6632 135.522 30.6632C136.492 30.6632 137.193 30.0321 137.193 29.1555V28.6764L135.674 28.9452C134.996 29.0737 134.622 29.3776 134.622 29.8685Z" fill="#242B42"/>
<path d="M142.88 31.4219V23.2409H145.872C147.38 23.2409 148.467 24.059 148.467 25.4497C148.467 26.1743 148.105 26.747 147.509 27.0509C148.444 27.3781 148.958 28.0793 148.958 29.026C148.958 30.522 147.836 31.4219 146.048 31.4219H142.88ZM144.598 29.9493H145.943C146.69 29.9493 147.181 29.5987 147.181 28.9325C147.181 28.278 146.679 27.9157 145.943 27.9157H144.598V29.9493ZM144.598 26.5016H145.697C146.305 26.5016 146.749 26.186 146.749 25.6017C146.749 25.0056 146.305 24.7018 145.697 24.7018H144.598V26.5016ZM150.186 23.2409H151.892V31.4219H150.186V23.2409ZM158.292 31.4219H156.715L156.691 30.6973C156.352 31.2933 155.686 31.5738 154.997 31.5738C153.921 31.5738 153.185 30.896 153.185 29.8792C153.185 28.8156 153.898 28.1612 155.336 27.9508L156.644 27.7638V27.6937C156.644 27.2145 156.259 26.934 155.476 26.934C154.728 26.934 154.062 27.2262 153.536 27.7054V26.0808C154.038 25.7419 154.763 25.4965 155.651 25.4965C157.322 25.4965 158.292 26.3029 158.292 27.7989V31.4219ZM154.798 29.7389C154.81 30.0662 155.078 30.2765 155.464 30.2765C156.177 30.2765 156.644 29.7623 156.644 29.1078V28.9091L155.628 29.0728C155.078 29.1546 154.798 29.4 154.798 29.7389ZM159.429 28.5351C159.429 26.7938 160.703 25.4965 162.515 25.4965C163.017 25.4965 163.543 25.6134 163.964 25.8588V27.4599C163.567 27.1794 163.158 27.0392 162.713 27.0392C161.825 27.0392 161.147 27.6586 161.147 28.5351C161.147 29.4 161.814 30.0311 162.713 30.0311C163.169 30.0311 163.613 29.8441 163.976 29.587V31.1998C163.508 31.4569 162.994 31.5738 162.491 31.5738C160.715 31.5738 159.429 30.3467 159.429 28.5351ZM168.816 25.6484H170.849L168.465 28.2079L171.001 31.4219H168.956L167.191 29.1195L166.899 29.4117V31.4219H165.204V23.2409H166.899V27.7054L168.816 25.6484Z" fill="#242B42"/>
<path d="M123.064 38.0596C123.793 38.0598 124.384 38.6504 124.384 39.3789V45.4111C124.384 46.1397 123.793 46.7302 123.064 46.7305H114.016C113.287 46.7303 112.696 46.1398 112.696 45.4111V39.3789C112.696 38.6503 113.287 38.0597 114.016 38.0596H123.064ZM118.948 44.3145C118.7 44.4742 118.38 44.4742 118.132 44.3145L113.827 41.5449V45.4111C113.827 45.5151 113.912 45.5995 114.016 45.5996H123.064C123.168 45.5994 123.253 45.5151 123.253 45.4111V41.5449L118.948 44.3145ZM114.016 39.1904C113.912 39.1906 113.827 39.275 113.827 39.3789V40.2012L118.54 43.2314L123.253 40.2002V39.3789C123.253 39.275 123.168 39.1907 123.064 39.1904H114.016Z" fill="#4B546B"/>
<path d="M136.308 44.4186V45.5055C135.677 45.9613 134.905 46.2301 134.111 46.2301C132.299 46.2301 131.13 44.9328 131.13 43.2616C131.13 41.5669 132.299 40.293 133.935 40.293C135.525 40.293 136.612 41.602 136.612 43.2148C136.612 43.4369 136.588 43.5771 136.588 43.5771H132.136C132.217 44.5238 133 45.3185 134.181 45.3185C134.905 45.3185 135.607 45.0263 136.308 44.4186ZM132.159 42.7473H135.595C135.513 41.8474 134.847 41.1696 133.912 41.1696C132.965 41.1696 132.229 41.976 132.159 42.7473ZM139.054 43.1213V46.1016H138.048V40.4216H139.042V41.2397C139.357 40.6553 139.93 40.293 140.713 40.293C141.555 40.293 142.162 40.7138 142.501 41.4033C142.782 40.9241 143.366 40.293 144.441 40.293C145.75 40.293 146.533 41.2163 146.533 42.6772V46.1016H145.528V42.8525C145.528 41.8474 145.096 41.2163 144.243 41.2163C143.366 41.2163 142.793 41.9643 142.793 43.1213V46.1016H141.788V42.8759C141.788 41.8591 141.344 41.2163 140.503 41.2163C139.626 41.2163 139.054 41.9643 139.054 43.1213ZM151.573 42.4902V42.35C151.573 41.6371 151.071 41.2046 150.229 41.2046C149.458 41.2046 148.885 41.5202 148.301 42.0578V41.006C148.815 40.5852 149.435 40.293 150.253 40.293C151.714 40.293 152.555 41.0995 152.555 42.4201V46.1016H151.609V45.3536C151.164 45.9263 150.475 46.2301 149.727 46.2301C148.722 46.2301 148.009 45.5406 148.009 44.6056C148.009 43.5888 148.652 42.9811 149.902 42.7707L151.573 42.4902ZM149.014 44.5472C149.014 45.0263 149.388 45.3419 149.914 45.3419C150.884 45.3419 151.585 44.7108 151.585 43.8343V43.3551L150.066 43.6239C149.388 43.7524 149.014 44.0563 149.014 44.5472ZM155.545 38.7386C155.545 39.1126 155.241 39.4165 154.867 39.4165C154.493 39.4165 154.19 39.1126 154.19 38.7386C154.19 38.3647 154.493 38.0608 154.867 38.0608C155.241 38.0608 155.545 38.3647 155.545 38.7386ZM154.365 40.4216H155.37V46.1016H154.365V40.4216ZM157.279 37.9205H158.284V46.1016H157.279V37.9205ZM167.322 46.1951V47.0599C166.539 47.4573 165.592 47.6676 164.564 47.6676C161.911 47.6676 159.795 46.0198 159.795 43.1564C159.795 40.4099 162.039 38.5049 164.704 38.5049C167.018 38.5049 168.935 40.1762 168.935 42.385C168.935 44.1966 167.906 45.3185 166.854 45.3185C166.071 45.3302 165.779 44.8627 165.732 44.5121C165.393 45.003 164.786 45.3302 164.061 45.3302C162.951 45.3302 162.121 44.4537 162.121 43.1915C162.121 41.8825 163.103 40.8307 164.306 40.8307C165.101 40.8307 165.651 41.1579 165.896 41.6254L165.978 40.9475H166.772L166.434 43.7992C166.387 44.2784 166.504 44.5822 166.924 44.5822C167.497 44.5822 168.07 43.694 168.07 42.4785C168.07 40.6203 166.539 39.2996 164.657 39.2996C162.507 39.2996 160.683 40.8657 160.683 43.1447C160.683 45.5172 162.495 46.8729 164.575 46.8729C165.686 46.8729 166.574 46.6041 167.322 46.1951ZM164.213 44.5822C164.973 44.5822 165.686 43.8693 165.686 42.9694C165.686 42.2097 165.206 41.5903 164.4 41.5903C163.617 41.5903 162.962 42.3032 162.962 43.1915C162.962 44.0096 163.512 44.5822 164.213 44.5822ZM175.179 44.4186V45.5055C174.548 45.9613 173.777 46.2301 172.982 46.2301C171.171 46.2301 170.002 44.9328 170.002 43.2616C170.002 41.5669 171.171 40.293 172.807 40.293C174.396 40.293 175.483 41.602 175.483 43.2148C175.483 43.4369 175.46 43.5771 175.46 43.5771H171.007C171.089 44.5238 171.872 45.3185 173.052 45.3185C173.777 45.3185 174.478 45.0263 175.179 44.4186ZM171.03 42.7473H174.466C174.385 41.8474 173.718 41.1696 172.783 41.1696C171.837 41.1696 171.1 41.976 171.03 42.7473ZM177.925 43.1213V46.1016H176.92V40.4216H177.913V41.2397C178.229 40.6553 178.802 40.293 179.585 40.293C180.426 40.293 181.034 40.7138 181.373 41.4033C181.653 40.9241 182.238 40.293 183.313 40.293C184.622 40.293 185.405 41.2163 185.405 42.6772V46.1016H184.4V42.8525C184.4 41.8474 183.967 41.2163 183.114 41.2163C182.238 41.2163 181.665 41.9643 181.665 43.1213V46.1016H180.66V42.8759C180.66 41.8591 180.216 41.2163 179.374 41.2163C178.498 41.2163 177.925 41.9643 177.925 43.1213ZM190.445 42.4902V42.35C190.445 41.6371 189.942 41.2046 189.101 41.2046C188.33 41.2046 187.757 41.5202 187.172 42.0578V41.006C187.687 40.5852 188.306 40.293 189.124 40.293C190.585 40.293 191.427 41.0995 191.427 42.4201V46.1016H190.48V45.3536C190.036 45.9263 189.346 46.2301 188.598 46.2301C187.593 46.2301 186.88 45.5406 186.88 44.6056C186.88 43.5888 187.523 42.9811 188.774 42.7707L190.445 42.4902ZM187.885 44.5472C187.885 45.0263 188.259 45.3419 188.785 45.3419C189.755 45.3419 190.457 44.7108 190.457 43.8343V43.3551L188.937 43.6239C188.259 43.7524 187.885 44.0563 187.885 44.5472ZM194.417 38.7386C194.417 39.1126 194.113 39.4165 193.739 39.4165C193.365 39.4165 193.061 39.1126 193.061 38.7386C193.061 38.3647 193.365 38.0608 193.739 38.0608C194.113 38.0608 194.417 38.3647 194.417 38.7386ZM193.236 40.4216H194.241V46.1016H193.236V40.4216ZM196.15 37.9205H197.155V46.1016H196.15V37.9205ZM200.315 45.4938C200.315 45.8912 199.999 46.2067 199.602 46.2067C199.204 46.2067 198.889 45.8912 198.889 45.4938C198.889 45.1082 199.204 44.7926 199.602 44.7926C199.999 44.7926 200.315 45.1082 200.315 45.4938ZM201.523 43.2616C201.523 41.602 202.75 40.293 204.492 40.293C205.088 40.293 205.637 40.4683 206.105 40.7839V41.8007C205.602 41.415 205.088 41.228 204.538 41.228C203.381 41.228 202.54 42.1162 202.54 43.2616C202.54 44.3952 203.381 45.2951 204.538 45.2951C205.135 45.2951 205.684 45.0263 206.14 44.7342V45.7509C205.649 46.0548 205.088 46.2301 204.503 46.2301C202.715 46.2301 201.523 44.9328 201.523 43.2616ZM210.168 40.293C211.874 40.293 213.136 41.6137 213.136 43.2616C213.136 44.9095 211.874 46.2301 210.168 46.2301C208.461 46.2301 207.199 44.9095 207.199 43.2616C207.199 41.6137 208.461 40.293 210.168 40.293ZM210.168 41.2163C209.057 41.2163 208.216 42.1279 208.216 43.2616C208.216 44.3952 209.057 45.3068 210.168 45.3068C211.278 45.3068 212.119 44.3952 212.119 43.2616C212.119 42.1279 211.278 41.2163 210.168 41.2163ZM215.636 43.1213V46.1016H214.631V40.4216H215.624V41.2397C215.94 40.6553 216.512 40.293 217.295 40.293C218.137 40.293 218.745 40.7138 219.084 41.4033C219.364 40.9241 219.948 40.293 221.024 40.293C222.333 40.293 223.116 41.2163 223.116 42.6772V46.1016H222.11V42.8525C222.11 41.8474 221.678 41.2163 220.825 41.2163C219.948 41.2163 219.376 41.9643 219.376 43.1213V46.1016H218.371V42.8759C218.371 41.8591 217.926 41.2163 217.085 41.2163C216.208 41.2163 215.636 41.9643 215.636 43.1213Z" fill="#4B546B"/>
<path d="M229.188 47.1172V40.7835H232.708V41.5254H229.994V43.4617H232.518V44.1946H229.994V46.3752H232.726V47.1172H229.188ZM234.765 44.8099V47.1172H233.987V42.7198H234.756V43.3532C235 42.9008 235.443 42.6203 236.05 42.6203C236.701 42.6203 237.172 42.946 237.434 43.4798C237.651 43.1089 238.103 42.6203 238.936 42.6203C239.949 42.6203 240.556 43.3351 240.556 44.4661V47.1172H239.777V44.6018C239.777 43.8237 239.443 43.3351 238.782 43.3351C238.103 43.3351 237.66 43.9142 237.66 44.8099V47.1172H236.882V44.6199C236.882 43.8327 236.538 43.3351 235.887 43.3351C235.208 43.3351 234.765 43.9142 234.765 44.8099ZM244.466 44.3213V44.2127C244.466 43.6608 244.077 43.326 243.425 43.326C242.828 43.326 242.385 43.5703 241.933 43.9865V43.1722C242.331 42.8465 242.81 42.6203 243.444 42.6203C244.575 42.6203 245.226 43.2446 245.226 44.267V47.1172H244.493V46.5381C244.149 46.9815 243.616 47.2167 243.036 47.2167C242.258 47.2167 241.706 46.6829 241.706 45.959C241.706 45.1718 242.204 44.7013 243.172 44.5385L244.466 44.3213ZM242.484 45.9138C242.484 46.2848 242.774 46.5291 243.181 46.5291C243.932 46.5291 244.475 46.0405 244.475 45.3619V44.9909L243.299 45.199C242.774 45.2985 242.484 45.5338 242.484 45.9138ZM247.55 41.4169C247.55 41.7064 247.314 41.9417 247.025 41.9417C246.735 41.9417 246.5 41.7064 246.5 41.4169C246.5 41.1273 246.735 40.8921 247.025 40.8921C247.314 40.8921 247.55 41.1273 247.55 41.4169ZM246.636 42.7198H247.414V47.1172H246.636V42.7198ZM248.9 40.7835H249.678V47.1172H248.9V40.7835Z" fill="#4B546B"/>
<g clip-path="url(#clip0_2274_4867)">
<path fill-rule="evenodd" clip-rule="evenodd" d="M121.556 52.5744H115.524L115.524 62.3765H121.556V52.5744ZM115.524 51.4434C114.899 51.4434 114.393 51.9497 114.393 52.5744V62.3765C114.393 63.0012 114.899 63.5075 115.524 63.5075H121.556C122.18 63.5075 122.687 63.0012 122.687 62.3765V52.5744C122.687 51.9497 122.18 51.4434 121.556 51.4434H115.524Z" fill="#4B546B"/>
<path fill-rule="evenodd" clip-rule="evenodd" d="M117.314 53.7054C117.314 53.4451 117.525 53.2341 117.786 53.2341H119.294C119.554 53.2341 119.765 53.4451 119.765 53.7054C119.765 53.9657 119.554 54.1766 119.294 54.1766H117.786C117.525 54.1766 117.314 53.9657 117.314 53.7054Z" fill="#4B546B"/>
</g>
<path d="M131.247 57.7456C131.247 55.7004 131.96 53.7837 133.164 52.3812H134.192C132.907 53.9707 132.252 55.7822 132.252 57.7456C132.252 59.7091 132.907 61.5089 134.192 63.11H133.164C131.96 61.6959 131.247 59.7909 131.247 57.7456ZM136.88 60.3402C137.885 60.3402 138.785 59.7091 138.785 58.6572C138.785 57.6287 137.92 57.0327 136.833 57.0327C136.12 57.0327 135.548 57.208 135.057 57.4651L135.337 53.1526H139.451V54.0992H136.226L136.074 56.2497C136.261 56.1562 136.693 56.0977 137.055 56.0977C138.598 56.0977 139.849 57.1262 139.849 58.6105C139.849 60.3285 138.54 61.2985 136.915 61.3102C136.19 61.3102 135.501 61.1232 134.835 60.7025V59.5571C135.501 60.083 136.179 60.3402 136.88 60.3402ZM142.921 60.3402C143.926 60.3402 144.826 59.7091 144.826 58.6572C144.826 57.6287 143.961 57.0327 142.874 57.0327C142.161 57.0327 141.589 57.208 141.098 57.4651L141.378 53.1526H145.492V54.0992H142.267L142.115 56.2497C142.302 56.1562 142.734 56.0977 143.096 56.0977C144.639 56.0977 145.89 57.1262 145.89 58.6105C145.89 60.3285 144.581 61.2985 142.956 61.3102C142.232 61.3102 141.542 61.1232 140.876 60.7025V59.5571C141.542 60.083 142.22 60.3402 142.921 60.3402ZM148.962 60.3402C149.967 60.3402 150.867 59.7091 150.867 58.6572C150.867 57.6287 150.002 57.0327 148.915 57.0327C148.203 57.0327 147.63 57.208 147.139 57.4651L147.419 53.1526H151.533V54.0992H148.308L148.156 56.2497C148.343 56.1562 148.775 56.0977 149.137 56.0977C150.68 56.0977 151.931 57.1262 151.931 58.6105C151.931 60.3285 150.622 61.2985 148.997 61.3102C148.273 61.3102 147.583 61.1232 146.917 60.7025V59.5571C147.583 60.083 148.261 60.3402 148.962 60.3402ZM155.126 57.7456C155.126 59.7909 154.413 61.7076 153.209 63.11H152.181C153.466 61.5206 154.121 59.7091 154.121 57.7456C154.121 55.7822 153.466 53.9823 152.181 52.3812H153.209C154.413 53.7954 155.126 55.7004 155.126 57.7456ZM161.413 60.3402C162.418 60.3402 163.318 59.7091 163.318 58.6572C163.318 57.6287 162.453 57.0327 161.366 57.0327C160.653 57.0327 160.081 57.208 159.59 57.4651L159.87 53.1526H163.984V54.0992H160.759L160.607 56.2497C160.794 56.1562 161.226 56.0977 161.588 56.0977C163.131 56.0977 164.382 57.1262 164.382 58.6105C164.382 60.3285 163.073 61.2985 161.448 61.3102C160.723 61.3102 160.034 61.1232 159.368 60.7025V59.5571C160.034 60.083 160.712 60.3402 161.413 60.3402ZM167.454 60.3402C168.459 60.3402 169.359 59.7091 169.359 58.6572C169.359 57.6287 168.494 57.0327 167.407 57.0327C166.694 57.0327 166.122 57.208 165.631 57.4651L165.911 53.1526H170.025V54.0992H166.8L166.648 56.2497C166.835 56.1562 167.267 56.0977 167.629 56.0977C169.172 56.0977 170.423 57.1262 170.423 58.6105C170.423 60.3285 169.114 61.2985 167.489 61.3102C166.765 61.3102 166.075 61.1232 165.409 60.7025V59.5571C166.075 60.083 166.753 60.3402 167.454 60.3402ZM173.495 60.3402C174.5 60.3402 175.4 59.7091 175.4 58.6572C175.4 57.6287 174.535 57.0327 173.448 57.0327C172.735 57.0327 172.163 57.208 171.672 57.4651L171.952 53.1526H176.066V54.0992H172.841L172.689 56.2497C172.876 56.1562 173.308 56.0977 173.67 56.0977C175.213 56.0977 176.464 57.1262 176.464 58.6105C176.464 60.3285 175.155 61.2985 173.53 61.3102C172.806 61.3102 172.116 61.1232 171.45 60.7025V59.5571C172.116 60.083 172.794 60.3402 173.495 60.3402ZM177.709 58.5637V57.6521H181.262V58.5637H177.709ZM184.584 60.3402C185.589 60.3402 186.489 59.7091 186.489 58.6572C186.489 57.6287 185.624 57.0327 184.538 57.0327C183.825 57.0327 183.252 57.208 182.761 57.4651L183.042 53.1526H187.155V54.0992H183.93L183.778 56.2497C183.965 56.1562 184.397 56.0977 184.76 56.0977C186.302 56.0977 187.553 57.1262 187.553 58.6105C187.553 60.3285 186.244 61.2985 184.619 61.3102C183.895 61.3102 183.205 61.1232 182.539 60.7025V59.5571C183.205 60.083 183.883 60.3402 184.584 60.3402ZM190.625 60.3402C191.63 60.3402 192.53 59.7091 192.53 58.6572C192.53 57.6287 191.666 57.0327 190.579 57.0327C189.866 57.0327 189.293 57.208 188.802 57.4651L189.083 53.1526H193.197V54.0992H189.971L189.819 56.2497C190.006 56.1562 190.438 56.0977 190.801 56.0977C192.343 56.0977 193.594 57.1262 193.594 58.6105C193.594 60.3285 192.285 61.2985 190.66 61.3102C189.936 61.3102 189.246 61.1232 188.58 60.7025V59.5571C189.246 60.083 189.924 60.3402 190.625 60.3402ZM196.666 60.3402C197.672 60.3402 198.571 59.7091 198.571 58.6572C198.571 57.6287 197.707 57.0327 196.62 57.0327C195.907 57.0327 195.334 57.208 194.843 57.4651L195.124 53.1526H199.238V54.0992H196.012L195.86 56.2497C196.047 56.1562 196.479 56.0977 196.842 56.0977C198.384 56.0977 199.635 57.1262 199.635 58.6105C199.635 60.3285 198.326 61.2985 196.702 61.3102C195.977 61.3102 195.287 61.1232 194.621 60.7025V59.5571C195.287 60.083 195.965 60.3402 196.666 60.3402ZM202.708 60.3402C203.713 60.3402 204.613 59.7091 204.613 58.6572C204.613 57.6287 203.748 57.0327 202.661 57.0327C201.948 57.0327 201.375 57.208 200.884 57.4651L201.165 53.1526H205.279V54.0992H202.053L201.901 56.2497C202.088 56.1562 202.521 56.0977 202.883 56.0977C204.426 56.0977 205.676 57.1262 205.676 58.6105C205.676 60.3285 204.367 61.2985 202.743 61.3102C202.018 61.3102 201.328 61.1232 200.662 60.7025V59.5571C201.328 60.083 202.006 60.3402 202.708 60.3402Z" fill="#4B546B"/>
<path d="M210.845 59.0314C210.845 57.1946 212.265 55.756 214.084 55.756C214.753 55.756 215.378 55.955 215.939 56.326V57.2218C215.323 56.7603 214.717 56.5341 214.066 56.5341C212.727 56.5341 211.677 57.6289 211.677 59.0314C211.677 60.4158 212.727 61.5196 214.066 61.5196C214.708 61.5196 215.341 61.2934 215.957 60.8501V61.7458C215.36 62.1168 214.735 62.2978 214.075 62.2978C212.265 62.2978 210.845 60.8591 210.845 59.0314ZM220.853 60.8953V61.7368C220.365 62.0897 219.768 62.2978 219.152 62.2978C217.75 62.2978 216.845 61.2934 216.845 59.9995C216.845 58.6876 217.75 57.7013 219.017 57.7013C220.247 57.7013 221.089 58.7147 221.089 59.9634C221.089 60.1353 221.071 60.2438 221.071 60.2438H217.623C217.687 60.9767 218.293 61.592 219.207 61.592C219.768 61.592 220.311 61.3658 220.853 60.8953ZM217.641 59.6014H220.301C220.238 58.9047 219.722 58.3799 218.999 58.3799C218.266 58.3799 217.696 59.0043 217.641 59.6014ZM222.21 55.8646H222.988V62.1982H222.21V55.8646ZM224.474 55.8646H225.252V62.1982H224.474V55.8646Z" fill="#4B546B"/>
<g clip-path="url(#clip1_2274_4867)">
<path fill-rule="evenodd" clip-rule="evenodd" d="M112.989 71.2953C112.958 70.8656 113.228 70.5003 113.601 70.3664L115.709 69.611C116.116 69.465 116.571 69.6153 116.811 69.9755L118.507 72.5195C118.777 72.924 118.695 73.467 118.318 73.7739C118.107 73.9454 117.807 74.1901 117.547 74.4047C117.915 75.563 118.733 76.4634 119.919 77.0066C120.209 76.6778 120.555 76.3066 120.763 76.0859C121.054 75.778 121.51 75.7052 121.881 75.8978L124.548 77.2846C124.959 77.4984 125.153 77.9793 125.007 78.4189L124.164 80.9466C124.044 81.3081 123.705 81.5834 123.287 81.5788C122.319 81.5683 118.965 81.3276 116.229 78.5909C113.495 75.857 113.06 72.3027 112.989 71.2953ZM114.13 71.3784C114.229 72.4694 114.714 75.4769 117.028 77.7912C119.323 80.0863 122.121 80.4079 123.14 80.4441L123.883 78.2138L121.487 76.9677C121.215 77.2579 120.82 77.685 120.566 77.9876C120.382 78.2068 120.075 78.2912 119.8 78.184C118.048 77.5011 116.814 76.1785 116.372 74.4072C116.309 74.1536 116.398 73.8884 116.596 73.7232C116.85 73.5119 117.202 73.224 117.471 73.0047L115.952 70.7254L114.13 71.3784Z" fill="#4B546B"/>
</g>
<path d="M131.247 75.8423C131.247 73.797 131.96 71.8803 133.164 70.4779H134.192C132.907 72.0673 132.252 73.8788 132.252 75.8423C132.252 77.8057 132.907 79.6056 134.192 81.2067H133.164C131.96 79.7926 131.247 77.8875 131.247 75.8423ZM136.88 78.4368C137.885 78.4368 138.785 77.8057 138.785 76.7539C138.785 75.7254 137.92 75.1294 136.833 75.1294C136.12 75.1294 135.548 75.3047 135.057 75.5618L135.337 71.2492H139.451V72.1959H136.226L136.074 74.3463C136.261 74.2528 136.693 74.1944 137.055 74.1944C138.598 74.1944 139.849 75.2229 139.849 76.7071C139.849 78.4252 138.54 79.3952 136.915 79.4069C136.19 79.4069 135.501 79.2199 134.835 78.7991V77.6538C135.501 78.1797 136.179 78.4368 136.88 78.4368ZM142.921 78.4368C143.926 78.4368 144.826 77.8057 144.826 76.7539C144.826 75.7254 143.961 75.1294 142.874 75.1294C142.161 75.1294 141.589 75.3047 141.098 75.5618L141.378 71.2492H145.492V72.1959H142.267L142.115 74.3463C142.302 74.2528 142.734 74.1944 143.096 74.1944C144.639 74.1944 145.89 75.2229 145.89 76.7071C145.89 78.4252 144.581 79.3952 142.956 79.4069C142.232 79.4069 141.542 79.2199 140.876 78.7991V77.6538C141.542 78.1797 142.22 78.4368 142.921 78.4368ZM148.962 78.4368C149.967 78.4368 150.867 77.8057 150.867 76.7539C150.867 75.7254 150.002 75.1294 148.915 75.1294C148.203 75.1294 147.63 75.3047 147.139 75.5618L147.419 71.2492H151.533V72.1959H148.308L148.156 74.3463C148.343 74.2528 148.775 74.1944 149.137 74.1944C150.68 74.1944 151.931 75.2229 151.931 76.7071C151.931 78.4252 150.622 79.3952 148.997 79.4069C148.273 79.4069 147.583 79.2199 146.917 78.7991V77.6538C147.583 78.1797 148.261 78.4368 148.962 78.4368ZM155.126 75.8423C155.126 77.8875 154.413 79.8042 153.209 81.2067H152.181C153.466 79.6172 154.121 77.8057 154.121 75.8423C154.121 73.8788 153.466 72.079 152.181 70.4779H153.209C154.413 71.892 155.126 73.797 155.126 75.8423ZM161.413 78.4368C162.418 78.4368 163.318 77.8057 163.318 76.7539C163.318 75.7254 162.453 75.1294 161.366 75.1294C160.653 75.1294 160.081 75.3047 159.59 75.5618L159.87 71.2492H163.984V72.1959H160.759L160.607 74.3463C160.794 74.2528 161.226 74.1944 161.588 74.1944C163.131 74.1944 164.382 75.2229 164.382 76.7071C164.382 78.4252 163.073 79.3952 161.448 79.4069C160.723 79.4069 160.034 79.2199 159.368 78.7991V77.6538C160.034 78.1797 160.712 78.4368 161.413 78.4368ZM167.454 78.4368C168.459 78.4368 169.359 77.8057 169.359 76.7539C169.359 75.7254 168.494 75.1294 167.407 75.1294C166.694 75.1294 166.122 75.3047 165.631 75.5618L165.911 71.2492H170.025V72.1959H166.8L166.648 74.3463C166.835 74.2528 167.267 74.1944 167.629 74.1944C169.172 74.1944 170.423 75.2229 170.423 76.7071C170.423 78.4252 169.114 79.3952 167.489 79.4069C166.765 79.4069 166.075 79.2199 165.409 78.7991V77.6538C166.075 78.1797 166.753 78.4368 167.454 78.4368ZM173.495 78.4368C174.5 78.4368 175.4 77.8057 175.4 76.7539C175.4 75.7254 174.535 75.1294 173.448 75.1294C172.735 75.1294 172.163 75.3047 171.672 75.5618L171.952 71.2492H176.066V72.1959H172.841L172.689 74.3463C172.876 74.2528 173.308 74.1944 173.67 74.1944C175.213 74.1944 176.464 75.2229 176.464 76.7071C176.464 78.4252 175.155 79.3952 173.53 79.4069C172.806 79.4069 172.116 79.2199 171.45 78.7991V77.6538C172.116 78.1797 172.794 78.4368 173.495 78.4368ZM177.709 76.6604V75.7488H181.262V76.6604H177.709ZM184.584 78.4368C185.589 78.4368 186.489 77.8057 186.489 76.7539C186.489 75.7254 185.624 75.1294 184.538 75.1294C183.825 75.1294 183.252 75.3047 182.761 75.5618L183.042 71.2492H187.155V72.1959H183.93L183.778 74.3463C183.965 74.2528 184.397 74.1944 184.76 74.1944C186.302 74.1944 187.553 75.2229 187.553 76.7071C187.553 78.4252 186.244 79.3952 184.619 79.4069C183.895 79.4069 183.205 79.2199 182.539 78.7991V77.6538C183.205 78.1797 183.883 78.4368 184.584 78.4368ZM190.625 78.4368C191.63 78.4368 192.53 77.8057 192.53 76.7539C192.53 75.7254 191.666 75.1294 190.579 75.1294C189.866 75.1294 189.293 75.3047 188.802 75.5618L189.083 71.2492H193.197V72.1959H189.971L189.819 74.3463C190.006 74.2528 190.438 74.1944 190.801 74.1944C192.343 74.1944 193.594 75.2229 193.594 76.7071C193.594 78.4252 192.285 79.3952 190.66 79.4069C189.936 79.4069 189.246 79.2199 188.58 78.7991V77.6538C189.246 78.1797 189.924 78.4368 190.625 78.4368ZM196.666 78.4368C197.672 78.4368 198.571 77.8057 198.571 76.7539C198.571 75.7254 197.707 75.1294 196.62 75.1294C195.907 75.1294 195.334 75.3047 194.843 75.5618L195.124 71.2492H199.238V72.1959H196.012L195.86 74.3463C196.047 74.2528 196.479 74.1944 196.842 74.1944C198.384 74.1944 199.635 75.2229 199.635 76.7071C199.635 78.4252 198.326 79.3952 196.702 79.4069C195.977 79.4069 195.287 79.2199 194.621 78.7991V77.6538C195.287 78.1797 195.965 78.4368 196.666 78.4368ZM202.708 78.4368C203.713 78.4368 204.613 77.8057 204.613 76.7539C204.613 75.7254 203.748 75.1294 202.661 75.1294C201.948 75.1294 201.375 75.3047 200.884 75.5618L201.165 71.2492H205.279V72.1959H202.053L201.901 74.3463C202.088 74.2528 202.521 74.1944 202.883 74.1944C204.426 74.1944 205.676 75.2229 205.676 76.7071C205.676 78.4252 204.367 79.3952 202.743 79.4069C202.018 79.4069 201.328 79.2199 200.662 78.7991V77.6538C201.328 78.1797 202.006 78.4368 202.708 78.4368Z" fill="#4B546B"/>
<path d="M211.188 80.2949V73.9612H211.994V76.6304H215.396V73.9612H216.201V80.2949H215.396V77.3905H211.994V80.2949H211.188ZM219.762 75.798C221.083 75.798 222.06 76.8204 222.06 78.0962C222.06 79.372 221.083 80.3945 219.762 80.3945C218.441 80.3945 217.464 79.372 217.464 78.0962C217.464 76.8204 218.441 75.798 219.762 75.798ZM219.762 76.5128C218.902 76.5128 218.251 77.2186 218.251 78.0962C218.251 78.9739 218.902 79.6796 219.762 79.6796C220.621 79.6796 221.273 78.9739 221.273 78.0962C221.273 77.2186 220.621 76.5128 219.762 76.5128ZM224.004 77.9876V80.2949H223.226V75.8975H223.995V76.5309C224.239 76.0785 224.682 75.798 225.289 75.798C225.94 75.798 226.411 76.1237 226.673 76.6576C226.89 76.2866 227.343 75.798 228.175 75.798C229.188 75.798 229.795 76.5128 229.795 77.6438V80.2949H229.016V77.7795C229.016 77.0014 228.682 76.5128 228.021 76.5128C227.343 76.5128 226.899 77.0919 226.899 77.9876V80.2949H226.121V77.7976C226.121 77.0105 225.777 76.5128 225.126 76.5128C224.447 76.5128 224.004 77.0919 224.004 77.9876ZM234.907 78.992V79.8335C234.419 80.1863 233.822 80.3945 233.206 80.3945C231.804 80.3945 230.899 79.3901 230.899 78.0962C230.899 76.7842 231.804 75.798 233.071 75.798C234.301 75.798 235.143 76.8114 235.143 78.06C235.143 78.2319 235.125 78.3405 235.125 78.3405H231.677C231.741 79.0734 232.347 79.6887 233.261 79.6887C233.822 79.6887 234.365 79.4625 234.907 78.992ZM231.695 77.6981H234.356C234.292 77.0014 233.776 76.4766 233.053 76.4766C232.32 76.4766 231.75 77.1009 231.695 77.6981Z" fill="#4B546B"/>
<g clip-path="url(#clip2_2274_4867)">
<path d="M119.405 93.6678C119.405 93.4076 119.616 93.1966 119.877 93.1966C120.137 93.1966 120.348 93.4076 120.348 93.6678C120.348 93.9281 120.137 94.1391 119.877 94.1391C119.616 94.1391 119.405 93.9281 119.405 93.6678Z" fill="#4B546B"/>
<path d="M122.893 93.1966C122.632 93.1966 122.421 93.4076 122.421 93.6678C122.421 93.9281 122.632 94.1391 122.893 94.1391C123.153 94.1391 123.364 93.9281 123.364 93.6678C123.364 93.4076 123.153 93.1966 122.893 93.1966Z" fill="#4B546B"/>
<path d="M120.913 93.6678C120.913 93.4076 121.124 93.1966 121.384 93.1966C121.645 93.1966 121.856 93.4076 121.856 93.6678C121.856 93.9281 121.645 94.1391 121.385 94.1391C121.124 94.1391 120.913 93.9281 120.913 93.6678Z" fill="#4B546B"/>
<path d="M119.877 94.7124C119.616 94.7124 119.405 94.9234 119.405 95.1837C119.405 95.4439 119.616 95.6549 119.877 95.6549C120.137 95.6549 120.348 95.4439 120.348 95.1837C120.348 94.9234 120.137 94.7124 119.877 94.7124Z" fill="#4B546B"/>
<path d="M122.421 95.1837C122.421 94.9234 122.632 94.7124 122.893 94.7124C123.153 94.7124 123.364 94.9234 123.364 95.1837C123.364 95.4439 123.153 95.6549 122.893 95.6549C122.632 95.6549 122.421 95.4439 122.421 95.1837Z" fill="#4B546B"/>
<path d="M121.384 94.7124C121.124 94.7124 120.913 94.9234 120.913 95.1837C120.913 95.4439 121.124 95.6549 121.385 95.6549C121.645 95.6549 121.856 95.4439 121.856 95.1837C121.856 94.9234 121.645 94.7124 121.384 94.7124Z" fill="#4B546B"/>
<path d="M119.405 96.6995C119.405 96.4392 119.616 96.2283 119.877 96.2283C120.137 96.2283 120.348 96.4392 120.348 96.6995C120.348 96.9598 120.137 97.1708 119.877 97.1708C119.616 97.1708 119.405 96.9598 119.405 96.6995Z" fill="#4B546B"/>
<path d="M122.893 96.2283C122.632 96.2283 122.421 96.4392 122.421 96.6995C122.421 96.9598 122.632 97.1708 122.893 97.1708C123.153 97.1708 123.364 96.9598 123.364 96.6995C123.364 96.4392 123.153 96.2283 122.893 96.2283Z" fill="#4B546B"/>
<path d="M120.913 96.6995C120.913 96.4392 121.124 96.2283 121.384 96.2283C121.645 96.2283 121.856 96.4392 121.856 96.6995C121.856 96.9598 121.645 97.1708 121.385 97.1708C121.124 97.1708 120.913 96.9598 120.913 96.6995Z" fill="#4B546B"/>
<path d="M119.877 91.0472C119.564 91.0472 119.311 91.3003 119.311 91.6126C119.311 91.9249 119.564 92.1782 119.876 92.1783L122.892 92.179C123.205 92.1791 123.458 91.9259 123.458 91.6136C123.458 91.3013 123.205 91.0481 122.893 91.048L119.877 91.0472Z" fill="#4B546B"/>
<path fill-rule="evenodd" clip-rule="evenodd" d="M114.225 88.7959V88.7668C114.225 88.1421 114.731 87.6357 115.356 87.6357H117.239C117.864 87.6357 118.37 88.1421 118.37 88.7668V88.7959H124.404C125.029 88.7959 125.535 89.3023 125.535 89.927V98.5689C125.535 99.1935 125.029 99.6999 124.404 99.6999H113.094C112.469 99.6999 111.963 99.1935 111.963 98.5689V89.927C111.963 89.3023 112.469 88.7959 113.094 88.7959H114.225ZM115.356 88.7668H117.239V96.3069H115.356V88.7668ZM118.37 89.927H124.404V98.5689H113.094L113.094 89.927H114.225V96.3069C114.225 96.9315 114.731 97.4379 115.356 97.4379H117.239C117.864 97.4379 118.37 96.9315 118.37 96.3069V89.927Z" fill="#4B546B"/>
</g>
<path d="M131.247 93.938C131.247 91.8927 131.96 89.976 133.164 88.5736H134.192C132.907 90.163 132.252 91.9746 132.252 93.938C132.252 95.9014 132.907 97.7013 134.192 99.3024H133.164C131.96 97.8883 131.247 95.9833 131.247 93.938ZM136.88 96.5325C137.885 96.5325 138.785 95.9014 138.785 94.8496C138.785 93.8211 137.92 93.2251 136.833 93.2251C136.12 93.2251 135.548 93.4004 135.057 93.6575L135.337 89.3449H139.451V90.2916H136.226L136.074 92.442C136.261 92.3485 136.693 92.2901 137.055 92.2901C138.598 92.2901 139.849 93.3186 139.849 94.8028C139.849 96.5209 138.54 97.4909 136.915 97.5026C136.19 97.5026 135.501 97.3156 134.835 96.8948V95.7495C135.501 96.2754 136.179 96.5325 136.88 96.5325ZM142.921 96.5325C143.926 96.5325 144.826 95.9014 144.826 94.8496C144.826 93.8211 143.961 93.2251 142.874 93.2251C142.161 93.2251 141.589 93.4004 141.098 93.6575L141.378 89.3449H145.492V90.2916H142.267L142.115 92.442C142.302 92.3485 142.734 92.2901 143.096 92.2901C144.639 92.2901 145.89 93.3186 145.89 94.8028C145.89 96.5209 144.581 97.4909 142.956 97.5026C142.232 97.5026 141.542 97.3156 140.876 96.8948V95.7495C141.542 96.2754 142.22 96.5325 142.921 96.5325ZM148.962 96.5325C149.967 96.5325 150.867 95.9014 150.867 94.8496C150.867 93.8211 150.002 93.2251 148.915 93.2251C148.203 93.2251 147.63 93.4004 147.139 93.6575L147.419 89.3449H151.533V90.2916H148.308L148.156 92.442C148.343 92.3485 148.775 92.2901 149.137 92.2901C150.68 92.2901 151.931 93.3186 151.931 94.8028C151.931 96.5209 150.622 97.4909 148.997 97.5026C148.273 97.5026 147.583 97.3156 146.917 96.8948V95.7495C147.583 96.2754 148.261 96.5325 148.962 96.5325ZM155.126 93.938C155.126 95.9833 154.413 97.8999 153.209 99.3024H152.181C153.466 97.713 154.121 95.9014 154.121 93.938C154.121 91.9746 153.466 90.1747 152.181 88.5736H153.209C154.413 89.9877 155.126 91.8927 155.126 93.938ZM161.413 96.5325C162.418 96.5325 163.318 95.9014 163.318 94.8496C163.318 93.8211 162.453 93.2251 161.366 93.2251C160.653 93.2251 160.081 93.4004 159.59 93.6575L159.87 89.3449H163.984V90.2916H160.759L160.607 92.442C160.794 92.3485 161.226 92.2901 161.588 92.2901C163.131 92.2901 164.382 93.3186 164.382 94.8028C164.382 96.5209 163.073 97.4909 161.448 97.5026C160.723 97.5026 160.034 97.3156 159.368 96.8948V95.7495C160.034 96.2754 160.712 96.5325 161.413 96.5325ZM167.454 96.5325C168.459 96.5325 169.359 95.9014 169.359 94.8496C169.359 93.8211 168.494 93.2251 167.407 93.2251C166.694 93.2251 166.122 93.4004 165.631 93.6575L165.911 89.3449H170.025V90.2916H166.8L166.648 92.442C166.835 92.3485 167.267 92.2901 167.629 92.2901C169.172 92.2901 170.423 93.3186 170.423 94.8028C170.423 96.5209 169.114 97.4909 167.489 97.5026C166.765 97.5026 166.075 97.3156 165.409 96.8948V95.7495C166.075 96.2754 166.753 96.5325 167.454 96.5325ZM173.495 96.5325C174.5 96.5325 175.4 95.9014 175.4 94.8496C175.4 93.8211 174.535 93.2251 173.448 93.2251C172.735 93.2251 172.163 93.4004 171.672 93.6575L171.952 89.3449H176.066V90.2916H172.841L172.689 92.442C172.876 92.3485 173.308 92.2901 173.67 92.2901C175.213 92.2901 176.464 93.3186 176.464 94.8028C176.464 96.5209 175.155 97.4909 173.53 97.5026C172.806 97.5026 172.116 97.3156 171.45 96.8948V95.7495C172.116 96.2754 172.794 96.5325 173.495 96.5325ZM177.709 94.7561V93.8445H181.262V94.7561H177.709ZM184.584 96.5325C185.589 96.5325 186.489 95.9014 186.489 94.8496C186.489 93.8211 185.624 93.2251 184.538 93.2251C183.825 93.2251 183.252 93.4004 182.761 93.6575L183.042 89.3449H187.155V90.2916H183.93L183.778 92.442C183.965 92.3485 184.397 92.2901 184.76 92.2901C186.302 92.2901 187.553 93.3186 187.553 94.8028C187.553 96.5209 186.244 97.4909 184.619 97.5026C183.895 97.5026 183.205 97.3156 182.539 96.8948V95.7495C183.205 96.2754 183.883 96.5325 184.584 96.5325ZM190.625 96.5325C191.63 96.5325 192.53 95.9014 192.53 94.8496C192.53 93.8211 191.666 93.2251 190.579 93.2251C189.866 93.2251 189.293 93.4004 188.802 93.6575L189.083 89.3449H193.197V90.2916H189.971L189.819 92.442C190.006 92.3485 190.438 92.2901 190.801 92.2901C192.343 92.2901 193.594 93.3186 193.594 94.8028C193.594 96.5209 192.285 97.4909 190.66 97.5026C189.936 97.5026 189.246 97.3156 188.58 96.8948V95.7495C189.246 96.2754 189.924 96.5325 190.625 96.5325ZM196.666 96.5325C197.672 96.5325 198.571 95.9014 198.571 94.8496C198.571 93.8211 197.707 93.2251 196.62 93.2251C195.907 93.2251 195.334 93.4004 194.843 93.6575L195.124 89.3449H199.238V90.2916H196.012L195.86 92.442C196.047 92.3485 196.479 92.2901 196.842 92.2901C198.384 92.2901 199.635 93.3186 199.635 94.8028C199.635 96.5209 198.326 97.4909 196.702 97.5026C195.977 97.5026 195.287 97.3156 194.621 96.8948V95.7495C195.287 96.2754 195.965 96.5325 196.666 96.5325ZM202.708 96.5325C203.713 96.5325 204.613 95.9014 204.613 94.8496C204.613 93.8211 203.748 93.2251 202.661 93.2251C201.948 93.2251 201.375 93.4004 200.884 93.6575L201.165 89.3449H205.279V90.2916H202.053L201.901 92.442C202.088 92.3485 202.521 92.2901 202.883 92.2901C204.426 92.2901 205.676 93.3186 205.676 94.8028C205.676 96.5209 204.367 97.4909 202.743 97.5026C202.018 97.5026 201.328 97.3156 200.662 96.8948V95.7495C201.328 96.2754 202.006 96.5325 202.708 96.5325Z" fill="#4B546B"/>
<path d="M213.161 98.3906H212.645L210.501 92.0569H211.333L212.926 96.8886L214.59 92.0569H215.088L216.753 96.8886L218.354 92.0569H219.169L217.015 98.3906H216.5L214.826 93.568L213.161 98.3906ZM221.591 93.8937C222.912 93.8937 223.889 94.9161 223.889 96.1919C223.889 97.4677 222.912 98.4902 221.591 98.4902C220.27 98.4902 219.293 97.4677 219.293 96.1919C219.293 94.9161 220.27 93.8937 221.591 93.8937ZM221.591 94.6085C220.731 94.6085 220.08 95.3143 220.08 96.1919C220.08 97.0696 220.731 97.7754 221.591 97.7754C222.45 97.7754 223.102 97.0696 223.102 96.1919C223.102 95.3143 222.45 94.6085 221.591 94.6085ZM227.353 93.9389V94.7171C227.353 94.7171 227.272 94.699 227.136 94.699C226.321 94.699 225.824 95.3505 225.824 96.3005V98.3906H225.055V93.9932H225.815V94.7714C226.014 94.2647 226.584 93.9208 227.163 93.9208C227.272 93.9208 227.353 93.9389 227.353 93.9389ZM229.122 92.0569V95.7395L230.968 93.9932H231.963L229.964 95.8662L232.135 98.3906H231.149L229.421 96.3457L229.122 96.6262V98.3906H228.353V92.0569H229.122Z" fill="#4B546B"/>
<g clip-path="url(#clip3_2274_4867)">
<path fill-rule="evenodd" clip-rule="evenodd" d="M112.989 107.488C112.958 107.058 113.228 106.693 113.601 106.559L115.709 105.803C116.116 105.657 116.571 105.808 116.811 106.168L118.507 108.712C118.777 109.116 118.695 109.659 118.318 109.966C118.107 110.138 117.807 110.382 117.547 110.597C117.915 111.755 118.733 112.656 119.919 113.199C120.209 112.87 120.555 112.499 120.763 112.278C121.054 111.97 121.51 111.898 121.881 112.09L124.548 113.477C124.959 113.691 125.153 114.172 125.007 114.611L124.164 117.139C124.044 117.501 123.705 117.776 123.287 117.771C122.319 117.761 118.965 117.52 116.229 114.783C113.495 112.049 113.06 108.495 112.989 107.488ZM114.13 107.571C114.229 108.662 114.714 111.669 117.028 113.984C119.323 116.279 122.121 116.6 123.14 116.636L123.883 114.406L121.487 113.16C121.215 113.45 120.82 113.877 120.566 114.18C120.382 114.399 120.075 114.484 119.8 114.376C118.048 113.693 116.814 112.371 116.372 110.6C116.309 110.346 116.398 110.081 116.596 109.916C116.85 109.704 117.202 109.416 117.471 109.197L115.952 106.918L114.13 107.571Z" fill="#4B546B"/>
<path fill-rule="evenodd" clip-rule="evenodd" d="M122.499 105.861C122.811 105.861 123.064 106.114 123.064 106.427V110.197C123.064 110.509 122.811 110.762 122.499 110.762C122.186 110.762 121.933 110.509 121.933 110.197V106.427C121.933 106.114 122.186 105.861 122.499 105.861Z" fill="#4B546B"/>
<path fill-rule="evenodd" clip-rule="evenodd" d="M120.048 108.312C120.048 107.999 120.301 107.746 120.614 107.746L124.384 107.746C124.696 107.746 124.949 107.999 124.949 108.312C124.949 108.624 124.696 108.877 124.384 108.877L120.614 108.877C120.301 108.877 120.048 108.624 120.048 108.312Z" fill="#4B546B"/>
</g>
<path d="M133.526 115.471H132.498V108.599L131.049 109.195V108.143L132.685 107.442H133.526V115.471ZM135.105 115.471V114.758L138.097 111.591C138.786 110.866 138.996 110.363 138.996 109.744C138.996 108.914 138.272 108.283 137.337 108.283C136.601 108.283 135.841 108.774 135.198 109.569V108.342C135.759 107.71 136.589 107.313 137.349 107.313C138.891 107.313 140.025 108.306 140.025 109.697C140.025 110.656 139.651 111.357 138.786 112.268L136.647 114.512H140.13V115.471H135.105ZM143.355 114.629C144.348 114.629 145.12 114.033 145.12 113.157C145.12 112.303 144.36 111.719 143.39 111.719H142.63V110.784H143.39C144.126 110.784 144.804 110.2 144.804 109.534C144.804 108.809 144.161 108.271 143.331 108.271C142.654 108.271 142.022 108.587 141.38 109.148V108.003C141.964 107.558 142.654 107.313 143.343 107.313C144.792 107.313 145.821 108.225 145.821 109.44C145.821 110.2 145.412 110.854 144.699 111.193C145.587 111.485 146.16 112.257 146.16 113.168C146.16 114.594 144.968 115.599 143.366 115.599C142.595 115.599 141.871 115.401 141.169 114.968V113.846C141.882 114.372 142.607 114.629 143.355 114.629ZM147.023 113.589V112.806L151.008 107.453H152.177V112.677H153.299V113.589H152.177V115.471H151.16V113.589H147.023ZM148.238 112.677H151.16V108.774L148.238 112.677Z" fill="#4B546B"/>
<path d="M159.188 116.487V110.154H162.708V110.896H159.994V112.832H162.518V113.565H159.994V115.745H162.726V116.487H159.188ZM166.719 116.487L165.516 114.786L164.303 116.487H163.426L165.063 114.243L163.498 112.09H164.403L165.534 113.682L166.674 112.09H167.561L165.995 114.225L167.633 116.487H166.719ZM167.969 112.687L169.48 111.058H169.507V112.09H170.738V112.787H169.507V115.112C169.507 115.628 169.733 115.863 170.24 115.863C170.412 115.863 170.602 115.818 170.738 115.727V116.451C170.584 116.533 170.358 116.587 170.059 116.587C169.227 116.587 168.729 116.071 168.729 115.221V112.787H167.969V112.687Z" fill="#4B546B"/>
<g clip-path="url(#clip4_2274_4867)">
<path d="M112.508 125.289V131.717H111.35C111.258 131.717 111.183 131.792 111.183 131.884C111.183 132.625 111.783 133.225 112.523 133.225H119.505V131.717H113.639V125.289H122.497V126.281H123.628V125.289C123.628 124.665 123.121 124.158 122.497 124.158H113.639C113.015 124.158 112.508 124.665 112.508 125.289Z" fill="#4B546B"/>
<path fill-rule="evenodd" clip-rule="evenodd" d="M124.783 127.978H121.203V134.479H124.783V127.978ZM121.203 126.847C120.578 126.847 120.072 127.354 120.072 127.978V134.479C120.072 135.103 120.578 135.61 121.203 135.61H124.783C125.407 135.61 125.914 135.103 125.914 134.479V127.978C125.914 127.354 125.407 126.847 124.783 126.847H121.203Z" fill="#4B546B"/>
</g>
<path d="M131.247 130.13C131.247 128.085 131.96 126.168 133.164 124.766H134.192C132.907 126.355 132.252 128.167 132.252 130.13C132.252 132.094 132.907 133.894 134.192 135.495H133.164C131.96 134.081 131.247 132.176 131.247 130.13ZM136.88 132.725C137.885 132.725 138.785 132.094 138.785 131.042C138.785 130.014 137.92 129.417 136.833 129.417C136.12 129.417 135.548 129.593 135.057 129.85L135.337 125.537H139.451V126.484H136.226L136.074 128.634C136.261 128.541 136.693 128.482 137.055 128.482C138.598 128.482 139.849 129.511 139.849 130.995C139.849 132.713 138.54 133.683 136.915 133.695C136.19 133.695 135.501 133.508 134.835 133.087V131.942C135.501 132.468 136.179 132.725 136.88 132.725ZM142.921 132.725C143.926 132.725 144.826 132.094 144.826 131.042C144.826 130.014 143.961 129.417 142.874 129.417C142.161 129.417 141.589 129.593 141.098 129.85L141.378 125.537H145.492V126.484H142.267L142.115 128.634C142.302 128.541 142.734 128.482 143.096 128.482C144.639 128.482 145.89 129.511 145.89 130.995C145.89 132.713 144.581 133.683 142.956 133.695C142.232 133.695 141.542 133.508 140.876 133.087V131.942C141.542 132.468 142.22 132.725 142.921 132.725ZM148.962 132.725C149.967 132.725 150.867 132.094 150.867 131.042C150.867 130.014 150.002 129.417 148.915 129.417C148.203 129.417 147.63 129.593 147.139 129.85L147.419 125.537H151.533V126.484H148.308L148.156 128.634C148.343 128.541 148.775 128.482 149.137 128.482C150.68 128.482 151.931 129.511 151.931 130.995C151.931 132.713 150.622 133.683 148.997 133.695C148.273 133.695 147.583 133.508 146.917 133.087V131.942C147.583 132.468 148.261 132.725 148.962 132.725ZM155.126 130.13C155.126 132.176 154.413 134.092 153.209 135.495H152.181C153.466 133.905 154.121 132.094 154.121 130.13C154.121 128.167 153.466 126.367 152.181 124.766H153.209C154.413 126.18 155.126 128.085 155.126 130.13ZM161.413 132.725C162.418 132.725 163.318 132.094 163.318 131.042C163.318 130.014 162.453 129.417 161.366 129.417C160.653 129.417 160.081 129.593 159.59 129.85L159.87 125.537H163.984V126.484H160.759L160.607 128.634C160.794 128.541 161.226 128.482 161.588 128.482C163.131 128.482 164.382 129.511 164.382 130.995C164.382 132.713 163.073 133.683 161.448 133.695C160.723 133.695 160.034 133.508 159.368 133.087V131.942C160.034 132.468 160.712 132.725 161.413 132.725ZM167.454 132.725C168.459 132.725 169.359 132.094 169.359 131.042C169.359 130.014 168.494 129.417 167.407 129.417C166.694 129.417 166.122 129.593 165.631 129.85L165.911 125.537H170.025V126.484H166.8L166.648 128.634C166.835 128.541 167.267 128.482 167.629 128.482C169.172 128.482 170.423 129.511 170.423 130.995C170.423 132.713 169.114 133.683 167.489 133.695C166.765 133.695 166.075 133.508 165.409 133.087V131.942C166.075 132.468 166.753 132.725 167.454 132.725ZM173.495 132.725C174.5 132.725 175.4 132.094 175.4 131.042C175.4 130.014 174.535 129.417 173.448 129.417C172.735 129.417 172.163 129.593 171.672 129.85L171.952 125.537H176.066V126.484H172.841L172.689 128.634C172.876 128.541 173.308 128.482 173.67 128.482C175.213 128.482 176.464 129.511 176.464 130.995C176.464 132.713 175.155 133.683 173.53 133.695C172.806 133.695 172.116 133.508 171.45 133.087V131.942C172.116 132.468 172.794 132.725 173.495 132.725ZM177.709 130.948V130.037H181.262V130.948H177.709ZM184.584 132.725C185.589 132.725 186.489 132.094 186.489 131.042C186.489 130.014 185.624 129.417 184.538 129.417C183.825 129.417 183.252 129.593 182.761 129.85L183.042 125.537H187.155V126.484H183.93L183.778 128.634C183.965 128.541 184.397 128.482 184.76 128.482C186.302 128.482 187.553 129.511 187.553 130.995C187.553 132.713 186.244 133.683 184.619 133.695C183.895 133.695 183.205 133.508 182.539 133.087V131.942C183.205 132.468 183.883 132.725 184.584 132.725ZM190.625 132.725C191.63 132.725 192.53 132.094 192.53 131.042C192.53 130.014 191.666 129.417 190.579 129.417C189.866 129.417 189.293 129.593 188.802 129.85L189.083 125.537H193.197V126.484H189.971L189.819 128.634C190.006 128.541 190.438 128.482 190.801 128.482C192.343 128.482 193.594 129.511 193.594 130.995C193.594 132.713 192.285 133.683 190.66 133.695C189.936 133.695 189.246 133.508 188.58 133.087V131.942C189.246 132.468 189.924 132.725 190.625 132.725ZM196.666 132.725C197.672 132.725 198.571 132.094 198.571 131.042C198.571 130.014 197.707 129.417 196.62 129.417C195.907 129.417 195.334 129.593 194.843 129.85L195.124 125.537H199.238V126.484H196.012L195.86 128.634C196.047 128.541 196.479 128.482 196.842 128.482C198.384 128.482 199.635 129.511 199.635 130.995C199.635 132.713 198.326 133.683 196.702 133.695C195.977 133.695 195.287 133.508 194.621 133.087V131.942C195.287 132.468 195.965 132.725 196.666 132.725ZM202.708 132.725C203.713 132.725 204.613 132.094 204.613 131.042C204.613 130.014 203.748 129.417 202.661 129.417C201.948 129.417 201.375 129.593 200.884 129.85L201.165 125.537H205.279V126.484H202.053L201.901 128.634C202.088 128.541 202.521 128.482 202.883 128.482C204.426 128.482 205.676 129.511 205.676 130.995C205.676 132.713 204.367 133.683 202.743 133.695C202.018 133.695 201.328 133.508 200.662 133.087V131.942C201.328 132.468 202.006 132.725 202.708 132.725Z" fill="#4B546B"/>
<path d="M213.161 134.583H212.645L210.501 128.249H211.333L212.926 133.081L214.59 128.249H215.088L216.753 133.081L218.354 128.249H219.169L217.015 134.583H216.5L214.826 129.76L213.161 134.583ZM221.591 130.086C222.912 130.086 223.889 131.109 223.889 132.384C223.889 133.66 222.912 134.683 221.591 134.683C220.27 134.683 219.293 133.66 219.293 132.384C219.293 131.109 220.27 130.086 221.591 130.086ZM221.591 130.801C220.731 130.801 220.08 131.507 220.08 132.384C220.08 133.262 220.731 133.968 221.591 133.968C222.45 133.968 223.102 133.262 223.102 132.384C223.102 131.507 222.45 130.801 221.591 130.801ZM227.353 130.131V130.909C227.353 130.909 227.272 130.891 227.136 130.891C226.321 130.891 225.824 131.543 225.824 132.493V134.583H225.055V130.186H225.815V130.964C226.014 130.457 226.584 130.113 227.163 130.113C227.272 130.113 227.353 130.131 227.353 130.131ZM229.122 128.249V131.932L230.968 130.186H231.963L229.964 132.059L232.135 134.583H231.149L229.421 132.538L229.122 132.819V134.583H228.353V128.249H229.122ZM232.804 132.556V131.85H235.555V132.556H232.804ZM236.605 131.416C236.605 129.579 238.025 128.141 239.844 128.141C240.513 128.141 241.138 128.34 241.699 128.711V129.607C241.083 129.145 240.477 128.919 239.826 128.919C238.487 128.919 237.437 130.014 237.437 131.416C237.437 132.801 238.487 133.904 239.826 133.904C240.468 133.904 241.102 133.678 241.717 133.235V134.131C241.12 134.502 240.495 134.683 239.835 134.683C238.025 134.683 236.605 133.244 236.605 131.416ZM246.613 133.28V134.122C246.125 134.474 245.528 134.683 244.912 134.683C243.51 134.683 242.605 133.678 242.605 132.384C242.605 131.072 243.51 130.086 244.777 130.086C246.007 130.086 246.849 131.099 246.849 132.348C246.849 132.52 246.831 132.629 246.831 132.629H243.383C243.447 133.362 244.053 133.977 244.967 133.977C245.528 133.977 246.071 133.751 246.613 133.28ZM243.401 131.986H246.062C245.998 131.289 245.482 130.765 244.759 130.765C244.026 130.765 243.456 131.389 243.401 131.986ZM247.97 128.249H248.748V134.583H247.97V128.249ZM250.234 128.249H251.012V134.583H250.234V128.249Z" fill="#4B546B"/>
<defs>
<clipPath id="clip0_2274_4867">
<rect width="15.0802" height="12.0642" fill="white" transform="translate(111 51.4434)"/>
</clipPath>
<clipPath id="clip1_2274_4867">
<rect width="15.0802" height="12.0642" fill="white" transform="translate(111 69.54)"/>
</clipPath>
<clipPath id="clip2_2274_4867">
<rect width="15.0802" height="12.0642" fill="white" transform="translate(111 87.6357)"/>
</clipPath>
<clipPath id="clip3_2274_4867">
<rect width="15.0802" height="12.0642" fill="white" transform="translate(111 105.732)"/>
</clipPath>
<clipPath id="clip4_2274_4867">
<rect width="15.0802" height="12.0642" fill="white" transform="translate(111 123.828)"/>
</clipPath>
</defs>
</svg>
