<svg width="362" height="159" viewBox="0 0 362 159" fill="none" xmlns="http://www.w3.org/2000/svg">
<rect x="88" y="60.5" width="38" height="38" rx="19" fill="#C1CDD6"/>
<path d="M102.082 74.392H103.093L107.251 84.5H105.894L104.71 81.5687H100.421L99.237 84.5H97.9086L102.082 74.392ZM102.558 76.197L100.883 80.399H104.248L102.558 76.197ZM108.723 84.5V74.392H111.871C113.733 74.392 115.018 75.4028 115.018 77.0634C115.018 78.0164 114.6 78.7529 113.806 79.1283C114.975 79.5182 115.625 80.4135 115.625 81.6264C115.625 83.4314 114.268 84.5 112.174 84.5H108.723ZM110.008 83.3592H112.159C113.473 83.3592 114.325 82.7094 114.325 81.5831C114.325 80.5001 113.445 79.8214 112.13 79.8214H110.008V83.3592ZM110.008 78.7096H111.856C112.982 78.7096 113.748 78.1175 113.748 77.1212C113.748 76.1104 112.982 75.5328 111.842 75.5328H110.008V78.7096Z" fill="white"/>
<path d="M143.147 74V63.15H149.533V65.258H145.472V67.459H149.177V69.505H145.472V71.892H149.564V74H143.147ZM153.585 69.908V74H151.322V66.343H153.585V67.304C153.988 66.6065 154.732 66.1415 155.739 66.1415C156.778 66.1415 157.568 66.6375 157.987 67.4745C158.467 66.6685 159.335 66.1415 160.451 66.1415C162.203 66.1415 163.195 67.335 163.195 69.195V74H160.932V69.722C160.932 68.7765 160.498 68.203 159.707 68.203C158.932 68.203 158.405 68.8385 158.39 69.8615V74H156.127V69.753C156.127 68.7765 155.693 68.203 154.918 68.203C154.112 68.203 153.585 68.854 153.585 69.908ZM167.409 77.224H165.161V66.343H167.409V67.366C167.951 66.5755 168.881 66.157 169.889 66.157C171.95 66.157 173.516 67.893 173.516 70.1715C173.516 72.4345 171.95 74.186 169.889 74.186C168.881 74.186 167.951 73.814 167.409 73.008V77.224ZM171.268 70.1715C171.268 69.071 170.4 68.1875 169.3 68.1875C168.199 68.1875 167.331 69.071 167.331 70.1715C167.331 71.272 168.199 72.1555 169.3 72.1555C170.4 72.1555 171.268 71.272 171.268 70.1715ZM175.096 63.15H177.359V74H175.096V63.15ZM178.95 70.1715C178.95 67.893 180.732 66.1415 183.104 66.1415C185.475 66.1415 187.258 67.893 187.258 70.1715C187.258 72.45 185.475 74.2015 183.104 74.2015C180.732 74.2015 178.95 72.45 178.95 70.1715ZM181.182 70.1715C181.182 71.272 182.05 72.14 183.104 72.14C184.158 72.14 185.026 71.272 185.026 70.1715C185.026 69.071 184.158 68.203 183.104 68.203C182.05 68.203 181.182 69.071 181.182 70.1715ZM189.615 77.472C189.01 77.472 188.592 77.3325 188.328 77.193V75.302C188.592 75.426 188.886 75.488 189.196 75.488C189.863 75.488 190.312 75.2245 190.622 74.4805L190.839 73.9845L187.739 66.343H190.126L192.033 71.4735L193.97 66.343H196.295L192.87 74.6665C192.064 76.6505 191.056 77.472 189.615 77.472ZM203.936 71.4425V73.4885C203.192 73.9225 202.2 74.2015 200.991 74.2015C198.371 74.2015 196.759 72.512 196.759 70.1405C196.759 67.8465 198.371 66.1415 200.65 66.1415C202.99 66.1415 204.401 67.7535 204.401 70.125C204.401 70.3575 204.37 70.621 204.354 70.807H198.991C199.162 71.6905 199.952 72.3105 201.239 72.3105C202.153 72.3105 203.021 72.047 203.936 71.4425ZM198.96 69.319H202.231C202.153 68.4665 201.518 67.893 200.634 67.893C199.751 67.893 199.069 68.544 198.96 69.319ZM212.674 71.4425V73.4885C211.93 73.9225 210.938 74.2015 209.729 74.2015C207.11 74.2015 205.498 72.512 205.498 70.1405C205.498 67.8465 207.11 66.1415 209.388 66.1415C211.729 66.1415 213.139 67.7535 213.139 70.125C213.139 70.3575 213.108 70.621 213.093 70.807H207.73C207.9 71.6905 208.691 72.3105 209.977 72.3105C210.892 72.3105 211.76 72.047 212.674 71.4425ZM207.699 69.319H210.969C210.892 68.4665 210.256 67.893 209.373 67.893C208.489 67.893 207.807 68.544 207.699 69.319ZM220.742 70.032V74H218.433V63.15H222.044C224.385 63.15 226.012 64.4055 226.012 66.622C226.012 68.172 225.082 69.257 223.78 69.753L226.772 74H224.028L221.362 70.032H220.742ZM220.742 65.2425V68.11H222.06C222.99 68.11 223.672 67.5675 223.672 66.6685C223.672 65.754 222.99 65.2425 222.06 65.2425H220.742ZM234.273 71.4425V73.4885C233.529 73.9225 232.537 74.2015 231.328 74.2015C228.709 74.2015 227.097 72.512 227.097 70.1405C227.097 67.8465 228.709 66.1415 230.987 66.1415C233.328 66.1415 234.738 67.7535 234.738 70.125C234.738 70.3575 234.707 70.621 234.692 70.807H229.329C229.499 71.6905 230.29 72.3105 231.576 72.3105C232.491 72.3105 233.359 72.047 234.273 71.4425ZM229.298 69.319H232.568C232.491 68.4665 231.855 67.893 230.972 67.893C230.088 67.893 229.406 68.544 229.298 69.319ZM238.768 66.0175V66.343H240.752V68.203H238.768V74H236.52V68.203H235.435V66.343H236.52V66.002C236.52 63.9405 237.745 62.7625 239.667 62.7625C240.178 62.7625 240.628 62.8555 240.922 63.0105V64.9325C240.69 64.8085 240.411 64.731 240.054 64.731C239.326 64.731 238.768 65.103 238.768 66.0175ZM248.526 71.4425V73.4885C247.782 73.9225 246.79 74.2015 245.581 74.2015C242.962 74.2015 241.35 72.512 241.35 70.1405C241.35 67.8465 242.962 66.1415 245.24 66.1415C247.581 66.1415 248.991 67.7535 248.991 70.125C248.991 70.3575 248.96 70.621 248.945 70.807H243.582C243.752 71.6905 244.543 72.3105 245.829 72.3105C246.744 72.3105 247.612 72.047 248.526 71.4425ZM243.551 69.319H246.821C246.744 68.4665 246.108 67.893 245.225 67.893C244.341 67.893 243.659 68.544 243.551 69.319ZM255.282 66.219V68.544C255.158 68.482 254.941 68.451 254.709 68.451C253.453 68.451 252.709 69.381 252.709 70.8845V74H250.462V66.343H252.694V67.5985C253.097 66.715 253.903 66.1725 254.895 66.1725C255.065 66.1725 255.236 66.2035 255.282 66.219ZM261.478 66.219V68.544C261.354 68.482 261.137 68.451 260.904 68.451C259.649 68.451 258.905 69.381 258.905 70.8845V74H256.657V66.343H258.889V67.5985C259.292 66.715 260.098 66.1725 261.09 66.1725C261.261 66.1725 261.431 66.2035 261.478 66.219ZM269.301 74H267.208L267.177 73.039C266.728 73.8295 265.844 74.2015 264.93 74.2015C263.504 74.2015 262.527 73.3025 262.527 71.954C262.527 70.5435 263.473 69.6755 265.379 69.3965L267.115 69.1485V69.0555C267.115 68.42 266.604 68.048 265.565 68.048C264.573 68.048 263.69 68.4355 262.992 69.071V66.9165C263.659 66.467 264.62 66.1415 265.798 66.1415C268.014 66.1415 269.301 67.211 269.301 69.195V74ZM264.666 71.768C264.682 72.202 265.038 72.481 265.55 72.481C266.495 72.481 267.115 71.799 267.115 70.931V70.6675L265.767 70.8845C265.038 70.993 264.666 71.3185 264.666 71.768ZM271.273 63.15H273.536V74H271.273V63.15Z" fill="#242B42"/>
<path d="M146.666 83.15H147.751L152.215 94H150.757L149.487 90.8535H144.883L143.612 94H142.186L146.666 83.15ZM147.177 85.0875L145.379 89.598H148.991L147.177 85.0875ZM155.022 90.063V94H153.689V86.467H155.022V87.552C155.487 86.808 156.293 86.2965 157.424 86.2965C159.346 86.2965 160.462 87.583 160.462 89.5825V94H159.129V89.7375C159.129 88.389 158.432 87.5365 157.145 87.5365C155.859 87.5365 155.022 88.5285 155.022 90.063ZM164.215 90.063V94H162.882V86.467H164.215V87.552C164.68 86.808 165.486 86.2965 166.617 86.2965C168.539 86.2965 169.655 87.583 169.655 89.5825V94H168.322V89.7375C168.322 88.389 167.625 87.5365 166.338 87.5365C165.052 87.5365 164.215 88.5285 164.215 90.063ZM176.338 89.2105V89.0245C176.338 88.079 175.672 87.5055 174.556 87.5055C173.533 87.5055 172.773 87.924 171.998 88.637V87.242C172.68 86.684 173.502 86.2965 174.587 86.2965C176.524 86.2965 177.64 87.366 177.64 89.1175V94H176.385V93.008C175.796 93.7675 174.881 94.1705 173.889 94.1705C172.556 94.1705 171.611 93.256 171.611 92.016C171.611 90.6675 172.463 89.8615 174.122 89.5825L176.338 89.2105ZM172.944 91.9385C172.944 92.574 173.44 92.9925 174.137 92.9925C175.424 92.9925 176.354 92.1555 176.354 90.993V90.3575L174.339 90.714C173.44 90.8845 172.944 91.2875 172.944 91.9385ZM184.045 94V83.15H187.424C189.423 83.15 190.803 84.235 190.803 86.0175C190.803 87.0405 190.353 87.831 189.501 88.234C190.756 88.6525 191.454 89.6135 191.454 90.9155C191.454 92.853 189.997 94 187.749 94H184.045ZM185.424 92.7755H187.734C189.144 92.7755 190.059 92.078 190.059 90.869C190.059 89.7065 189.113 88.978 187.703 88.978H185.424V92.7755ZM185.424 87.7845H187.408C188.617 87.7845 189.439 87.149 189.439 86.0795C189.439 84.9945 188.617 84.3745 187.393 84.3745H185.424V87.7845ZM193.431 83.15H194.764V94H193.431V83.15ZM201.635 89.2105V89.0245C201.635 88.079 200.969 87.5055 199.853 87.5055C198.83 87.5055 198.07 87.924 197.295 88.637V87.242C197.977 86.684 198.799 86.2965 199.884 86.2965C201.821 86.2965 202.937 87.366 202.937 89.1175V94H201.682V93.008C201.093 93.7675 200.178 94.1705 199.186 94.1705C197.853 94.1705 196.908 93.256 196.908 92.016C196.908 90.6675 197.76 89.8615 199.419 89.5825L201.635 89.2105ZM198.241 91.9385C198.241 92.574 198.737 92.9925 199.434 92.9925C200.721 92.9925 201.651 92.1555 201.651 90.993V90.3575L199.636 90.714C198.737 90.8845 198.241 91.2875 198.241 91.9385ZM204.795 90.2335C204.795 88.0325 206.422 86.2965 208.732 86.2965C209.522 86.2965 210.251 86.529 210.871 86.9475V88.296C210.204 87.7845 209.522 87.5365 208.794 87.5365C207.259 87.5365 206.143 88.7145 206.143 90.2335C206.143 91.737 207.259 92.9305 208.794 92.9305C209.584 92.9305 210.313 92.574 210.917 92.1865V93.535C210.266 93.938 209.522 94.1705 208.747 94.1705C206.376 94.1705 204.795 92.45 204.795 90.2335ZM214.182 83.15V89.4585L217.344 86.467H219.049L215.624 89.6755L219.344 94H217.654L214.694 90.497L214.182 90.9775V94H212.865V83.15H214.182Z" fill="#4B546B"/>
<path d="M228.264 92.308V91.084L231.816 85.768H233.952V90.832H235.104V92.308H233.952V94H232.26V92.308H228.264ZM230.172 90.832H232.272V87.652L230.172 90.832ZM240.039 94.156C238.443 94.156 236.979 93.196 236.979 91.564C236.979 90.532 237.699 89.836 238.359 89.56C237.783 89.26 237.327 88.684 237.327 87.916C237.327 86.524 238.575 85.612 240.039 85.612C241.503 85.612 242.751 86.524 242.751 87.916C242.751 88.684 242.295 89.26 241.719 89.56C242.379 89.836 243.099 90.532 243.099 91.564C243.099 93.196 241.635 94.156 240.039 94.156ZM240.039 92.668C240.783 92.668 241.359 92.176 241.359 91.492C241.359 90.796 240.783 90.316 240.039 90.316C239.295 90.316 238.719 90.796 238.719 91.492C238.719 92.176 239.295 92.668 240.039 92.668ZM241.131 88.024C241.131 87.46 240.639 87.064 240.039 87.064C239.439 87.064 238.947 87.46 238.947 88.024C238.947 88.612 239.439 88.996 240.039 88.996C240.639 88.996 241.131 88.612 241.131 88.024ZM245.249 93.52V91.708C245.957 92.26 246.677 92.524 247.397 92.524C248.273 92.524 248.993 92.092 248.993 91.276C248.993 90.496 248.285 90.076 247.325 90.076C246.665 90.076 246.029 90.244 245.441 90.52L245.681 85.756H250.301V87.292H247.133L247.061 88.708C247.241 88.648 247.553 88.6 247.877 88.6C249.533 88.6 250.781 89.656 250.781 91.264C250.781 93.076 249.389 94.144 247.505 94.156C246.689 94.156 245.933 93.94 245.249 93.52ZM255.927 94.156C254.331 94.156 252.867 93.196 252.867 91.564C252.867 90.532 253.587 89.836 254.247 89.56C253.671 89.26 253.215 88.684 253.215 87.916C253.215 86.524 254.463 85.612 255.927 85.612C257.391 85.612 258.639 86.524 258.639 87.916C258.639 88.684 258.183 89.26 257.607 89.56C258.267 89.836 258.987 90.532 258.987 91.564C258.987 93.196 257.523 94.156 255.927 94.156ZM255.927 92.668C256.671 92.668 257.247 92.176 257.247 91.492C257.247 90.796 256.671 90.316 255.927 90.316C255.183 90.316 254.607 90.796 254.607 91.492C254.607 92.176 255.183 92.668 255.927 92.668ZM257.019 88.024C257.019 87.46 256.527 87.064 255.927 87.064C255.327 87.064 254.835 87.46 254.835 88.024C254.835 88.612 255.327 88.996 255.927 88.996C256.527 88.996 257.019 88.612 257.019 88.024ZM266.563 94H260.971V92.74L263.671 90.064C264.439 89.32 264.655 88.936 264.655 88.384C264.655 87.724 264.091 87.256 263.299 87.256C262.531 87.256 261.811 87.688 261.163 88.396V86.512C261.799 85.936 262.627 85.612 263.443 85.612C265.099 85.612 266.431 86.62 266.431 88.192C266.431 89.284 265.975 90.088 264.931 91.048L263.455 92.416H266.563V94Z" fill="#4B546B"/>
</svg>
