<svg width="362" height="159" viewBox="0 0 362 159" fill="none" xmlns="http://www.w3.org/2000/svg">
<path d="M105.288 95H98.776V71.812L93.32 73.924V67.544L100.14 64.772H105.288V95ZM114.658 100.148H110.83L113.646 94.956H113.602C111.886 94.956 110.478 93.504 110.478 91.7C110.478 89.456 112.238 87.828 114.35 87.828C116.594 87.828 118.31 89.456 118.31 91.7C118.31 92.888 117.958 93.988 117.166 95.44L114.658 100.148ZM120.576 88.796V84.308L133.6 64.816H141.432V83.384H145.656V88.796H141.432V95H135.228V88.796H120.576ZM127.572 83.384H135.272V71.724L127.572 83.384ZM167.984 95H147.48V90.38L157.38 80.568C160.196 77.84 160.988 76.432 160.988 74.408C160.988 71.988 158.92 70.272 156.016 70.272C153.2 70.272 150.56 71.856 148.184 74.452V67.544C150.516 65.432 153.552 64.244 156.544 64.244C162.616 64.244 167.5 67.94 167.5 73.704C167.5 77.708 165.828 80.656 162 84.176L156.588 89.192H167.984V95ZM181.847 95.572C175.995 95.572 170.627 92.052 170.627 86.068C170.627 82.284 173.267 79.732 175.687 78.72C173.575 77.62 171.903 75.508 171.903 72.692C171.903 67.588 176.479 64.244 181.847 64.244C187.215 64.244 191.791 67.588 191.791 72.692C191.791 75.508 190.119 77.62 188.007 78.72C190.427 79.732 193.067 82.284 193.067 86.068C193.067 92.052 187.699 95.572 181.847 95.572ZM181.847 90.116C184.575 90.116 186.687 88.312 186.687 85.804C186.687 83.252 184.575 81.492 181.847 81.492C179.119 81.492 177.007 83.252 177.007 85.804C177.007 88.312 179.119 90.116 181.847 90.116ZM185.851 73.088C185.851 71.02 184.047 69.568 181.847 69.568C179.647 69.568 177.843 71.02 177.843 73.088C177.843 75.244 179.647 76.652 181.847 76.652C184.047 76.652 185.851 75.244 185.851 73.088Z" fill="#242B42"/>
<path d="M211.96 95H208.315L208.261 93.326C207.478 94.703 205.939 95.351 204.346 95.351C201.862 95.351 200.161 93.785 200.161 91.436C200.161 88.979 201.808 87.467 205.129 86.981L208.153 86.549V86.387C208.153 85.28 207.262 84.632 205.453 84.632C203.725 84.632 202.186 85.307 200.971 86.414V82.661C202.132 81.878 203.806 81.311 205.858 81.311C209.719 81.311 211.96 83.174 211.96 86.63V95ZM203.887 91.112C203.914 91.868 204.535 92.354 205.426 92.354C207.073 92.354 208.153 91.166 208.153 89.654V89.195L205.804 89.573C204.535 89.762 203.887 90.329 203.887 91.112ZM218.954 100.616H215.039V81.662H218.954V83.444C219.899 82.067 221.519 81.338 223.274 81.338C226.865 81.338 229.592 84.362 229.592 88.331C229.592 92.273 226.865 95.324 223.274 95.324C221.519 95.324 219.899 94.676 218.954 93.272V100.616ZM225.677 88.331C225.677 86.414 224.165 84.875 222.248 84.875C220.331 84.875 218.819 86.414 218.819 88.331C218.819 90.248 220.331 91.787 222.248 91.787C224.165 91.787 225.677 90.248 225.677 88.331ZM235.902 100.616H231.987V81.662H235.902V83.444C236.847 82.067 238.467 81.338 240.222 81.338C243.813 81.338 246.54 84.362 246.54 88.331C246.54 92.273 243.813 95.324 240.222 95.324C238.467 95.324 236.847 94.676 235.902 93.272V100.616ZM242.625 88.331C242.625 86.414 241.113 84.875 239.196 84.875C237.279 84.875 235.767 86.414 235.767 88.331C235.767 90.248 237.279 91.787 239.196 91.787C241.113 91.787 242.625 90.248 242.625 88.331ZM249.638 84.902H247.208V84.389L253.445 77.882H253.553V81.662H256.928V84.902H253.553V89.789C253.553 91.22 254.174 91.787 255.416 91.787C255.956 91.787 256.523 91.598 256.928 91.301V94.757C256.307 95.081 255.335 95.324 254.093 95.324C251.258 95.324 249.638 93.704 249.638 90.734V84.902ZM258.989 94.136V90.032C260.42 91.193 262.31 92.03 264.065 92.03C265.199 92.03 265.793 91.706 265.793 91.004C265.793 88.952 258.827 90.869 258.827 85.955C258.827 83.228 260.879 81.311 264.47 81.311C266.144 81.311 267.791 81.797 269.033 82.418V86.441C267.71 85.226 266.009 84.551 264.335 84.551C263.039 84.551 262.607 85.01 262.607 85.55C262.607 87.386 269.681 85.712 269.681 90.707C269.681 93.704 267.197 95.351 264.092 95.351C261.959 95.351 260.285 94.865 258.989 94.136Z" fill="#242B42"/>
</svg>
