<svg width="362" height="159" viewBox="0 0 362 159" fill="none" xmlns="http://www.w3.org/2000/svg">
<path d="M163.438 85.7812L158.188 80.2812C157.906 79.9688 157.906 79.5 158.219 79.2188C158.531 78.9375 159 78.9375 159.281 79.25L163.25 83.4062V72.75C163.25 72.3438 163.563 72 164 72C164.406 72 164.75 72.3438 164.75 72.75V83.4062L168.688 79.25C168.969 78.9375 169.469 78.9375 169.75 79.2188C170.063 79.5 170.063 79.9688 169.781 80.2812L164.531 85.7812C164.375 85.9375 164.188 86 164 86C163.781 86 163.594 85.9375 163.438 85.7812Z" fill="#DA0014"/>
<path d="M178.765 84V83.0545L182.733 78.854C183.648 77.893 183.927 77.2265 183.927 76.405C183.927 75.3045 182.966 74.4675 181.726 74.4675C180.749 74.4675 179.742 75.1185 178.889 76.1725V74.545C179.633 73.708 180.734 73.181 181.741 73.181C183.787 73.181 185.291 74.4985 185.291 76.343C185.291 77.614 184.795 78.544 183.648 79.753L180.811 82.729H185.43V84H178.765ZM189.707 82.884C191.04 82.884 192.234 82.047 192.234 80.652C192.234 79.288 191.087 78.4975 189.645 78.4975C188.7 78.4975 187.94 78.73 187.289 79.071L187.661 73.3515H193.117V74.607H188.839L188.638 77.459C188.886 77.335 189.459 77.2575 189.94 77.2575C191.986 77.2575 193.644 78.6215 193.644 80.59C193.644 82.8685 191.908 84.155 189.754 84.1705C188.793 84.1705 187.878 83.9225 186.995 83.3645V81.8455C187.878 82.543 188.777 82.884 189.707 82.884Z" fill="#DA0014"/>
<path d="M206.135 73.3515L198.276 84H196.711L204.569 73.3515H206.135ZM201.996 81.644C201.996 80.249 203.128 79.1795 204.538 79.1795C205.949 79.1795 207.08 80.249 207.08 81.644C207.08 83.039 205.949 84.1085 204.538 84.1085C203.128 84.1085 201.996 83.039 201.996 81.644ZM195.75 75.7075C195.75 74.3125 196.881 73.243 198.292 73.243C199.702 73.243 200.834 74.3125 200.834 75.7075C200.834 77.1025 199.702 78.172 198.292 78.172C196.881 78.172 195.75 77.1025 195.75 75.7075ZM197.005 75.7075C197.005 76.4515 197.579 77.0095 198.292 77.0095C199.005 77.0095 199.578 76.4515 199.578 75.7075C199.578 74.9635 199.005 74.4055 198.292 74.4055C197.579 74.4055 197.005 74.9635 197.005 75.7075ZM203.252 81.644C203.252 82.388 203.825 82.946 204.538 82.946C205.251 82.946 205.825 82.388 205.825 81.644C205.825 80.9 205.251 80.342 204.538 80.342C203.825 80.342 203.252 80.9 203.252 81.644Z" fill="#DA0014"/>
</svg>
