<svg width="362" height="159" viewBox="0 0 362 159" fill="none" xmlns="http://www.w3.org/2000/svg">
<path d="M91.147 74V63.15H97.533V65.258H93.472V67.459H97.1765V69.505H93.472V71.892H97.564V74H91.147ZM101.585 69.908V74H99.3218V66.343H101.585V67.304C101.988 66.6065 102.732 66.1415 103.739 66.1415C104.778 66.1415 105.568 66.6375 105.987 67.4745C106.467 66.6685 107.335 66.1415 108.451 66.1415C110.203 66.1415 111.195 67.335 111.195 69.195V74H108.932V69.722C108.932 68.7765 108.498 68.203 107.707 68.203C106.932 68.203 106.405 68.8385 106.39 69.8615V74H104.127V69.753C104.127 68.7765 103.693 68.203 102.918 68.203C102.112 68.203 101.585 68.854 101.585 69.908ZM119.534 74H117.441L117.41 73.039C116.961 73.8295 116.077 74.2015 115.163 74.2015C113.737 74.2015 112.76 73.3025 112.76 71.954C112.76 70.5435 113.706 69.6755 115.612 69.3965L117.348 69.1485V69.0555C117.348 68.42 116.837 68.048 115.798 68.048C114.806 68.048 113.923 68.4355 113.225 69.071V66.9165C113.892 66.467 114.853 66.1415 116.031 66.1415C118.247 66.1415 119.534 67.211 119.534 69.195V74ZM114.899 71.768C114.915 72.202 115.271 72.481 115.783 72.481C116.728 72.481 117.348 71.799 117.348 70.931V70.6675L116 70.8845C115.271 70.993 114.899 71.3185 114.899 71.768ZM123.769 74H121.506V66.343H123.769V74ZM123.955 64.1265C123.955 64.8395 123.366 65.444 122.638 65.444C121.909 65.444 121.32 64.8395 121.32 64.1265C121.32 63.4135 121.909 62.809 122.638 62.809C123.366 62.809 123.955 63.4135 123.955 64.1265ZM125.81 63.15H128.073V74H125.81V63.15ZM141.36 63.15H143.623V74H141.298L136.199 66.839V74H133.936V63.15H136.307L141.36 70.342V63.15ZM145.37 70.1715C145.37 67.893 147.152 66.1415 149.524 66.1415C151.895 66.1415 153.678 67.893 153.678 70.1715C153.678 72.45 151.895 74.2015 149.524 74.2015C147.152 74.2015 145.37 72.45 145.37 70.1715ZM147.602 70.1715C147.602 71.272 148.47 72.14 149.524 72.14C150.578 72.14 151.446 71.272 151.446 70.1715C151.446 69.071 150.578 68.203 149.524 68.203C148.47 68.203 147.602 69.071 147.602 70.1715ZM155.673 68.203H154.278V67.9085L157.858 64.173H157.92V66.343H159.858V68.203H157.92V71.0085C157.92 71.83 158.277 72.1555 158.99 72.1555C159.3 72.1555 159.625 72.047 159.858 71.8765V73.8605C159.501 74.0465 158.943 74.186 158.23 74.186C156.603 74.186 155.673 73.256 155.673 71.551V68.203ZM163.667 74H161.404V66.343H163.667V74ZM163.853 64.1265C163.853 64.8395 163.264 65.444 162.535 65.444C161.807 65.444 161.218 64.8395 161.218 64.1265C161.218 63.4135 161.807 62.809 162.535 62.809C163.264 62.809 163.853 63.4135 163.853 64.1265ZM168.327 66.0175V66.343H170.311V68.203H168.327V74H166.079V68.203H164.994V66.343H166.079V66.002C166.079 63.9405 167.304 62.7625 169.226 62.7625C169.737 62.7625 170.187 62.8555 170.481 63.0105V64.9325C170.249 64.8085 169.97 64.731 169.613 64.731C168.885 64.731 168.327 65.103 168.327 66.0175ZM173.909 74H171.646V66.343H173.909V74ZM174.095 64.1265C174.095 64.8395 173.506 65.444 172.777 65.444C172.049 65.444 171.46 64.8395 171.46 64.1265C171.46 63.4135 172.049 62.809 172.777 62.809C173.506 62.809 174.095 63.4135 174.095 64.1265ZM175.499 70.1715C175.499 67.862 177.189 66.1415 179.591 66.1415C180.258 66.1415 180.955 66.2965 181.513 66.622V68.7455C180.986 68.3735 180.444 68.1875 179.855 68.1875C178.677 68.1875 177.778 69.009 177.778 70.1715C177.778 71.3185 178.661 72.1555 179.855 72.1555C180.459 72.1555 181.048 71.9075 181.529 71.5665V73.7055C180.909 74.0465 180.227 74.2015 179.56 74.2015C177.204 74.2015 175.499 72.574 175.499 70.1715ZM189.713 74H187.62L187.589 73.039C187.14 73.8295 186.256 74.2015 185.342 74.2015C183.916 74.2015 182.939 73.3025 182.939 71.954C182.939 70.5435 183.885 69.6755 185.791 69.3965L187.527 69.1485V69.0555C187.527 68.42 187.016 68.048 185.977 68.048C184.985 68.048 184.102 68.4355 183.404 69.071V66.9165C184.071 66.467 185.032 66.1415 186.21 66.1415C188.426 66.1415 189.713 67.211 189.713 69.195V74ZM185.078 71.768C185.094 72.202 185.45 72.481 185.962 72.481C186.907 72.481 187.527 71.799 187.527 70.931V70.6675L186.179 70.8845C185.45 70.993 185.078 71.3185 185.078 71.768ZM192.043 68.203H190.648V67.9085L194.229 64.173H194.291V66.343H196.228V68.203H194.291V71.0085C194.291 71.83 194.647 72.1555 195.36 72.1555C195.67 72.1555 195.996 72.047 196.228 71.8765V73.8605C195.872 74.0465 195.314 74.186 194.601 74.186C192.973 74.186 192.043 73.256 192.043 71.551V68.203ZM200.038 74H197.775V66.343H200.038V74ZM200.224 64.1265C200.224 64.8395 199.635 65.444 198.906 65.444C198.178 65.444 197.589 64.8395 197.589 64.1265C197.589 63.4135 198.178 62.809 198.906 62.809C199.635 62.809 200.224 63.4135 200.224 64.1265ZM201.629 70.1715C201.629 67.893 203.411 66.1415 205.783 66.1415C208.154 66.1415 209.937 67.893 209.937 70.1715C209.937 72.45 208.154 74.2015 205.783 74.2015C203.411 74.2015 201.629 72.45 201.629 70.1715ZM203.861 70.1715C203.861 71.272 204.729 72.14 205.783 72.14C206.837 72.14 207.705 71.272 207.705 70.1715C207.705 69.071 206.837 68.203 205.783 68.203C204.729 68.203 203.861 69.071 203.861 70.1715ZM213.791 69.939V74H211.528V66.343H213.791V67.3195C214.256 66.5755 215.031 66.1415 216.054 66.1415C217.806 66.1415 218.875 67.335 218.875 69.2725V74H216.612V69.7995C216.612 68.792 216.116 68.2185 215.233 68.2185C214.365 68.2185 213.791 68.8695 213.791 69.939ZM220.532 73.504V71.148C221.354 71.8145 222.439 72.295 223.446 72.295C224.097 72.295 224.438 72.109 224.438 71.706C224.438 70.528 220.439 71.6285 220.439 68.8075C220.439 67.242 221.617 66.1415 223.679 66.1415C224.64 66.1415 225.585 66.4205 226.298 66.777V69.0865C225.539 68.389 224.562 68.0015 223.601 68.0015C222.857 68.0015 222.609 68.265 222.609 68.575C222.609 69.629 226.67 68.668 226.67 71.5355C226.67 73.256 225.244 74.2015 223.462 74.2015C222.237 74.2015 221.276 73.9225 220.532 73.504Z" fill="#242B42"/>
<path d="M90.806 88.575C90.806 85.4285 93.2395 82.964 96.355 82.964C97.502 82.964 98.5715 83.305 99.5325 83.9405V85.475C98.4785 84.6845 97.44 84.297 96.324 84.297C94.03 84.297 92.232 86.1725 92.232 88.575C92.232 90.9465 94.03 92.8375 96.324 92.8375C97.4245 92.8375 98.5095 92.45 99.5635 91.6905V93.225C98.5405 93.8605 97.471 94.1705 96.3395 94.1705C93.2395 94.1705 90.806 91.706 90.806 88.575ZM105.008 86.2965C107.271 86.2965 108.945 88.048 108.945 90.2335C108.945 92.419 107.271 94.1705 105.008 94.1705C102.745 94.1705 101.071 92.419 101.071 90.2335C101.071 88.048 102.745 86.2965 105.008 86.2965ZM105.008 87.521C103.535 87.521 102.419 88.73 102.419 90.2335C102.419 91.737 103.535 92.946 105.008 92.946C106.48 92.946 107.596 91.737 107.596 90.2335C107.596 88.73 106.48 87.521 105.008 87.521ZM112.26 90.0475V94H110.927V86.467H112.244V87.552C112.663 86.777 113.422 86.2965 114.461 86.2965C115.577 86.2965 116.383 86.8545 116.832 87.769C117.204 87.1335 117.979 86.2965 119.405 86.2965C121.141 86.2965 122.18 87.521 122.18 89.4585V94H120.847V89.691C120.847 88.358 120.273 87.521 119.142 87.521C117.979 87.521 117.22 88.513 117.22 90.0475V94H115.887V89.722C115.887 88.3735 115.298 87.521 114.182 87.521C113.019 87.521 112.26 88.513 112.26 90.0475ZM125.933 90.0475V94H124.6V86.467H125.917V87.552C126.336 86.777 127.095 86.2965 128.134 86.2965C129.25 86.2965 130.056 86.8545 130.505 87.769C130.877 87.1335 131.652 86.2965 133.078 86.2965C134.814 86.2965 135.853 87.521 135.853 89.4585V94H134.52V89.691C134.52 88.358 133.946 87.521 132.815 87.521C131.652 87.521 130.893 88.513 130.893 90.0475V94H129.56V89.722C129.56 88.3735 128.971 87.521 127.855 87.521C126.692 87.521 125.933 88.513 125.933 90.0475ZM139.839 84.235C139.839 84.731 139.436 85.134 138.94 85.134C138.444 85.134 138.041 84.731 138.041 84.235C138.041 83.739 138.444 83.336 138.94 83.336C139.436 83.336 139.839 83.739 139.839 84.235ZM138.273 86.467H139.606V94H138.273V86.467ZM141.13 87.49L143.718 84.7H143.765V86.467H145.873V87.6605H143.765V91.644C143.765 92.5275 144.152 92.9305 145.02 92.9305C145.315 92.9305 145.64 92.853 145.873 92.698V93.938C145.609 94.0775 145.222 94.1705 144.71 94.1705C143.284 94.1705 142.432 93.287 142.432 91.83V87.6605H141.13V87.49ZM147.413 93.3955V91.923C148.095 92.543 148.978 92.977 149.893 92.977C150.652 92.977 151.35 92.7135 151.35 91.9385C151.35 91.1635 150.621 90.9 149.676 90.6985C148.591 90.466 147.397 90.032 147.397 88.575C147.397 87.056 148.684 86.2965 150.032 86.2965C150.838 86.2965 151.644 86.5445 152.311 86.994V88.4045C151.644 87.862 150.869 87.4745 150.063 87.4745C149.428 87.4745 148.699 87.7225 148.699 88.42C148.699 89.102 149.35 89.3965 150.218 89.6135C151.613 89.9545 152.667 90.466 152.667 91.83C152.667 93.3645 151.381 94.1705 149.877 94.1705C149.056 94.1705 148.126 93.9225 147.413 93.3955ZM164.268 83.15H165.586V94H164.268V92.8065C163.726 93.628 162.703 94.1705 161.602 94.1705C159.463 94.1705 157.82 92.4655 157.82 90.2335C157.82 88.017 159.463 86.2965 161.602 86.2965C162.703 86.2965 163.71 86.777 164.268 87.5985V83.15ZM164.346 90.2335C164.346 88.7145 163.23 87.521 161.757 87.521C160.285 87.521 159.169 88.7145 159.169 90.2335C159.169 91.7525 160.285 92.946 161.757 92.946C163.23 92.946 164.346 91.7525 164.346 90.2335ZM172.455 89.2105V89.0245C172.455 88.079 171.789 87.5055 170.673 87.5055C169.65 87.5055 168.89 87.924 168.115 88.637V87.242C168.797 86.684 169.619 86.2965 170.704 86.2965C172.641 86.2965 173.757 87.366 173.757 89.1175V94H172.502V93.008C171.913 93.7675 170.998 94.1705 170.006 94.1705C168.673 94.1705 167.728 93.256 167.728 92.016C167.728 90.6675 168.58 89.8615 170.239 89.5825L172.455 89.2105ZM169.061 91.9385C169.061 92.574 169.557 92.9925 170.254 92.9925C171.541 92.9925 172.471 92.1555 172.471 90.993V90.3575L170.456 90.714C169.557 90.8845 169.061 91.2875 169.061 91.9385ZM175.074 87.49L177.663 84.7H177.709V86.467H179.817V87.6605H177.709V91.644C177.709 92.5275 178.097 92.9305 178.965 92.9305C179.259 92.9305 179.585 92.853 179.817 92.698V93.938C179.554 94.0775 179.166 94.1705 178.655 94.1705C177.229 94.1705 176.376 93.287 176.376 91.83V87.6605H175.074V87.49ZM185.982 89.2105V89.0245C185.982 88.079 185.315 87.5055 184.199 87.5055C183.176 87.5055 182.417 87.924 181.642 88.637V87.242C182.324 86.684 183.145 86.2965 184.23 86.2965C186.168 86.2965 187.284 87.366 187.284 89.1175V94H186.028V93.008C185.439 93.7675 184.525 94.1705 183.533 94.1705C182.2 94.1705 181.254 93.256 181.254 92.016C181.254 90.6675 182.107 89.8615 183.765 89.5825L185.982 89.2105ZM182.587 91.9385C182.587 92.574 183.083 92.9925 183.781 92.9925C185.067 92.9925 185.997 92.1555 185.997 90.993V90.3575L183.982 90.714C183.083 90.8845 182.587 91.2875 182.587 91.9385ZM197.873 89.2105V89.0245C197.873 88.079 197.207 87.5055 196.091 87.5055C195.068 87.5055 194.308 87.924 193.533 88.637V87.242C194.215 86.684 195.037 86.2965 196.122 86.2965C198.059 86.2965 199.175 87.366 199.175 89.1175V94H197.92V93.008C197.331 93.7675 196.416 94.1705 195.424 94.1705C194.091 94.1705 193.146 93.256 193.146 92.016C193.146 90.6675 193.998 89.8615 195.657 89.5825L197.873 89.2105ZM194.479 91.9385C194.479 92.574 194.975 92.9925 195.672 92.9925C196.959 92.9925 197.889 92.1555 197.889 90.993V90.3575L195.874 90.714C194.975 90.8845 194.479 91.2875 194.479 91.9385ZM202.908 90.063V94H201.575V86.467H202.908V87.552C203.373 86.808 204.179 86.2965 205.311 86.2965C207.233 86.2965 208.349 87.583 208.349 89.5825V94H207.016V89.7375C207.016 88.389 206.318 87.5365 205.032 87.5365C203.745 87.5365 202.908 88.5285 202.908 90.063ZM216.673 83.15H217.991V94H216.673V92.8065C216.131 93.628 215.108 94.1705 214.007 94.1705C211.868 94.1705 210.225 92.4655 210.225 90.2335C210.225 88.017 211.868 86.2965 214.007 86.2965C215.108 86.2965 216.115 86.777 216.673 87.5985V83.15ZM216.751 90.2335C216.751 88.7145 215.635 87.521 214.162 87.521C212.69 87.521 211.574 88.7145 211.574 90.2335C211.574 91.7525 212.69 92.946 214.162 92.946C215.635 92.946 216.751 91.7525 216.751 90.2335ZM225.703 90.063V94H224.37V83.15H225.703V87.552C226.168 86.808 226.974 86.2965 228.105 86.2965C230.027 86.2965 231.143 87.583 231.143 89.5825V94H229.81V89.7375C229.81 88.389 229.113 87.5365 227.826 87.5365C226.54 87.5365 225.703 88.5285 225.703 90.063ZM235.128 84.235C235.128 84.731 234.725 85.134 234.229 85.134C233.733 85.134 233.33 84.731 233.33 84.235C233.33 83.739 233.733 83.336 234.229 83.336C234.725 83.336 235.128 83.739 235.128 84.235ZM233.562 86.467H234.895V94H233.562V86.467ZM236.915 93.3955V91.923C237.597 92.543 238.481 92.977 239.395 92.977C240.155 92.977 240.852 92.7135 240.852 91.9385C240.852 91.1635 240.124 90.9 239.178 90.6985C238.093 90.466 236.9 90.032 236.9 88.575C236.9 87.056 238.186 86.2965 239.535 86.2965C240.341 86.2965 241.147 86.5445 241.813 86.994V88.4045C241.147 87.862 240.372 87.4745 239.566 87.4745C238.93 87.4745 238.202 87.7225 238.202 88.42C238.202 89.102 238.853 89.3965 239.721 89.6135C241.116 89.9545 242.17 90.466 242.17 91.83C242.17 93.3645 240.883 94.1705 239.38 94.1705C238.558 94.1705 237.628 93.9225 236.915 93.3955ZM243.008 87.49L245.597 84.7H245.643V86.467H247.751V87.6605H245.643V91.644C245.643 92.5275 246.031 92.9305 246.899 92.9305C247.193 92.9305 247.519 92.853 247.751 92.698V93.938C247.488 94.0775 247.1 94.1705 246.589 94.1705C245.163 94.1705 244.31 93.287 244.31 91.83V87.6605H243.008V87.49ZM252.894 86.2965C255.157 86.2965 256.831 88.048 256.831 90.2335C256.831 92.419 255.157 94.1705 252.894 94.1705C250.631 94.1705 248.957 92.419 248.957 90.2335C248.957 88.048 250.631 86.2965 252.894 86.2965ZM252.894 87.521C251.422 87.521 250.306 88.73 250.306 90.2335C250.306 91.737 251.422 92.946 252.894 92.946C254.367 92.946 255.483 91.737 255.483 90.2335C255.483 88.73 254.367 87.521 252.894 87.521ZM262.751 86.374V87.707C262.751 87.707 262.611 87.676 262.379 87.676C260.984 87.676 260.131 88.792 260.131 90.4195V94H258.814V86.467H260.116V87.8C260.457 86.932 261.433 86.343 262.425 86.343C262.611 86.343 262.751 86.374 262.751 86.374ZM271.184 86.467L267.557 95.147C266.875 96.7745 266.209 97.41 265.077 97.41C264.752 97.41 264.473 97.348 264.256 97.255V96.077C264.426 96.139 264.69 96.201 264.969 96.201C265.573 96.201 265.93 95.8445 266.333 94.8835L266.782 93.7985L263.791 86.467H265.217L267.48 92.2795L269.805 86.467H271.184Z" fill="#4B546B"/>
</svg>
