<svg width="362" height="159" viewBox="0 0 362 159" fill="none" xmlns="http://www.w3.org/2000/svg">
<path d="M110.495 73.15H112.557L116.912 84H114.479L113.564 81.6595H109.426L108.511 84H106.124L110.495 73.15ZM111.487 76.1105L110.139 79.66H112.867L111.487 76.1105ZM120.324 87.224H118.077V76.343H120.324V77.366C120.867 76.5755 121.797 76.157 122.804 76.157C124.866 76.157 126.431 77.893 126.431 80.1715C126.431 82.4345 124.866 84.186 122.804 84.186C121.797 84.186 120.867 83.814 120.324 83.008V87.224ZM124.184 80.1715C124.184 79.071 123.316 78.1875 122.215 78.1875C121.115 78.1875 120.247 79.071 120.247 80.1715C120.247 81.272 121.115 82.1555 122.215 82.1555C123.316 82.1555 124.184 81.272 124.184 80.1715ZM130.258 87.224H128.011V76.343H130.258V77.366C130.801 76.5755 131.731 76.157 132.738 76.157C134.8 76.157 136.365 77.893 136.365 80.1715C136.365 82.4345 134.8 84.186 132.738 84.186C131.731 84.186 130.801 83.814 130.258 83.008V87.224ZM134.118 80.1715C134.118 79.071 133.25 78.1875 132.149 78.1875C131.049 78.1875 130.181 79.071 130.181 80.1715C130.181 81.272 131.049 82.1555 132.149 82.1555C133.25 82.1555 134.118 81.272 134.118 80.1715ZM137.556 80.1715C137.556 77.893 139.339 76.1415 141.71 76.1415C144.082 76.1415 145.864 77.893 145.864 80.1715C145.864 82.45 144.082 84.2015 141.71 84.2015C139.339 84.2015 137.556 82.45 137.556 80.1715ZM139.788 80.1715C139.788 81.272 140.656 82.14 141.71 82.14C142.764 82.14 143.632 81.272 143.632 80.1715C143.632 79.071 142.764 78.203 141.71 78.203C140.656 78.203 139.788 79.071 139.788 80.1715ZM149.719 84H147.456V76.343H149.719V84ZM149.905 74.1265C149.905 74.8395 149.316 75.444 148.587 75.444C147.859 75.444 147.27 74.8395 147.27 74.1265C147.27 73.4135 147.859 72.809 148.587 72.809C149.316 72.809 149.905 73.4135 149.905 74.1265ZM154.022 79.939V84H151.759V76.343H154.022V77.3195C154.487 76.5755 155.262 76.1415 156.285 76.1415C158.037 76.1415 159.106 77.335 159.106 79.2725V84H156.843V79.7995C156.843 78.792 156.347 78.2185 155.464 78.2185C154.596 78.2185 154.022 78.8695 154.022 79.939ZM161.431 78.203H160.036V77.9085L163.617 74.173H163.679V76.343H165.616V78.203H163.679V81.0085C163.679 81.83 164.035 82.1555 164.748 82.1555C165.058 82.1555 165.384 82.047 165.616 81.8765V83.8605C165.26 84.0465 164.702 84.186 163.989 84.186C162.361 84.186 161.431 83.256 161.431 81.551V78.203ZM169.304 79.908V84H167.041V76.343H169.304V77.304C169.707 76.6065 170.451 76.1415 171.459 76.1415C172.497 76.1415 173.288 76.6375 173.706 77.4745C174.187 76.6685 175.055 76.1415 176.171 76.1415C177.922 76.1415 178.914 77.335 178.914 79.195V84H176.651V79.722C176.651 78.7765 176.217 78.203 175.427 78.203C174.652 78.203 174.125 78.8385 174.109 79.8615V84H171.846V79.753C171.846 78.7765 171.412 78.203 170.637 78.203C169.831 78.203 169.304 78.854 169.304 79.908ZM187.593 81.4425V83.4885C186.849 83.9225 185.857 84.2015 184.648 84.2015C182.028 84.2015 180.416 82.512 180.416 80.1405C180.416 77.8465 182.028 76.1415 184.307 76.1415C186.647 76.1415 188.058 77.7535 188.058 80.125C188.058 80.3575 188.027 80.621 188.011 80.807H182.648C182.819 81.6905 183.609 82.3105 184.896 82.3105C185.81 82.3105 186.678 82.047 187.593 81.4425ZM182.617 79.319H185.888C185.81 78.4665 185.175 77.893 184.291 77.893C183.408 77.893 182.726 78.544 182.617 79.319ZM191.791 79.939V84H189.528V76.343H191.791V77.3195C192.256 76.5755 193.031 76.1415 194.054 76.1415C195.806 76.1415 196.875 77.335 196.875 79.2725V84H194.612V79.7995C194.612 78.792 194.116 78.2185 193.233 78.2185C192.365 78.2185 191.791 78.8695 191.791 79.939ZM199.2 78.203H197.805V77.9085L201.386 74.173H201.448V76.343H203.385V78.203H201.448V81.0085C201.448 81.83 201.804 82.1555 202.517 82.1555C202.827 82.1555 203.153 82.047 203.385 81.8765V83.8605C203.029 84.0465 202.471 84.186 201.758 84.186C200.13 84.186 199.2 83.256 199.2 81.551V78.203ZM204.773 83.504V81.148C205.595 81.8145 206.68 82.295 207.687 82.295C208.338 82.295 208.679 82.109 208.679 81.706C208.679 80.528 204.68 81.6285 204.68 78.8075C204.68 77.242 205.858 76.1415 207.92 76.1415C208.881 76.1415 209.826 76.4205 210.539 76.777V79.0865C209.78 78.389 208.803 78.0015 207.842 78.0015C207.098 78.0015 206.85 78.265 206.85 78.575C206.85 79.629 210.911 78.668 210.911 81.5355C210.911 83.256 209.485 84.2015 207.703 84.2015C206.478 84.2015 205.517 83.9225 204.773 83.504Z" fill="#242B42"/>
<path d="M227.44 74.4055L222.992 84H221.488L225.844 74.638H220.543V73.367H227.44V74.4055ZM228.543 85.5345H227.644L228.372 84H228.341C227.923 84 227.566 83.6435 227.566 83.1785C227.566 82.6515 228 82.264 228.527 82.264C229.039 82.264 229.473 82.667 229.473 83.1785C229.473 83.4885 229.364 83.752 229.225 84.062L228.543 85.5345ZM234.261 82.884C235.579 82.884 236.602 82.0935 236.602 80.931C236.602 79.7995 235.594 79.0245 234.308 79.0245H233.3V77.7845H234.308C235.284 77.7845 236.183 77.0095 236.183 76.126C236.183 75.165 235.331 74.452 234.23 74.452C233.331 74.452 232.494 74.8705 231.642 75.6145V74.0955C232.417 73.5065 233.331 73.181 234.246 73.181C236.168 73.181 237.532 74.39 237.532 76.002C237.532 77.0095 236.989 77.8775 236.044 78.327C237.222 78.7145 237.981 79.7375 237.981 80.9465C237.981 82.8375 236.4 84.1705 234.277 84.1705C233.254 84.1705 232.293 83.907 231.363 83.3335V81.8455C232.308 82.543 233.269 82.884 234.261 82.884ZM239.131 76.9475C239.131 74.8395 240.821 73.181 242.975 73.181C245.192 73.181 246.835 74.8085 246.835 76.963C246.835 77.862 246.509 78.854 245.641 80.156L243.099 84H241.456L243.998 80.2335C243.688 80.4195 243.285 80.5435 242.727 80.5435C240.666 80.5435 239.131 78.9315 239.131 76.9475ZM240.511 76.8855C240.511 78.2805 241.611 79.319 242.975 79.319C244.37 79.319 245.455 78.2805 245.455 76.901C245.455 75.5525 244.386 74.4675 242.991 74.4675C241.611 74.4675 240.511 75.5525 240.511 76.8855ZM248.248 76.9475C248.248 74.8395 249.938 73.181 252.092 73.181C254.309 73.181 255.952 74.8085 255.952 76.963C255.952 77.862 255.626 78.854 254.758 80.156L252.216 84H250.573L253.115 80.2335C252.805 80.4195 252.402 80.5435 251.844 80.5435C249.783 80.5435 248.248 78.9315 248.248 76.9475ZM249.628 76.8855C249.628 78.2805 250.728 79.319 252.092 79.319C253.487 79.319 254.572 78.2805 254.572 76.901C254.572 75.5525 253.503 74.4675 252.108 74.4675C250.728 74.4675 249.628 75.5525 249.628 76.8855Z" fill="#4B546B"/>
</svg>
