<svg width="362" height="159" viewBox="0 0 362 159" fill="none" xmlns="http://www.w3.org/2000/svg">
<path d="M136.395 84V73.15H139.774C141.774 73.15 143.153 74.235 143.153 76.0175C143.153 77.0405 142.704 77.831 141.851 78.234C143.107 78.6525 143.804 79.6135 143.804 80.9155C143.804 82.853 142.347 84 140.1 84H136.395ZM137.775 82.7755H140.084C141.495 82.7755 142.409 82.078 142.409 80.869C142.409 79.7065 141.464 78.978 140.053 78.978H137.775V82.7755ZM137.775 77.7845H139.759C140.968 77.7845 141.789 77.149 141.789 76.0795C141.789 74.9945 140.968 74.3745 139.743 74.3745H137.775V77.7845ZM149.357 76.2965C151.62 76.2965 153.294 78.048 153.294 80.2335C153.294 82.419 151.62 84.1705 149.357 84.1705C147.094 84.1705 145.42 82.419 145.42 80.2335C145.42 78.048 147.094 76.2965 149.357 76.2965ZM149.357 77.521C147.884 77.521 146.768 78.73 146.768 80.2335C146.768 81.737 147.884 82.946 149.357 82.946C150.829 82.946 151.945 81.737 151.945 80.2335C151.945 78.73 150.829 77.521 149.357 77.521ZM161.257 73.15H162.575V84H161.257V82.8065C160.715 83.628 159.692 84.1705 158.591 84.1705C156.452 84.1705 154.809 82.4655 154.809 80.2335C154.809 78.017 156.452 76.2965 158.591 76.2965C159.692 76.2965 160.699 76.777 161.257 77.5985V73.15ZM161.335 80.2335C161.335 78.7145 160.219 77.521 158.746 77.521C157.274 77.521 156.158 78.7145 156.158 80.2335C156.158 81.7525 157.274 82.946 158.746 82.946C160.219 82.946 161.335 81.7525 161.335 80.2335ZM171.537 76.467L167.91 85.147C167.228 86.7745 166.561 87.41 165.43 87.41C165.104 87.41 164.825 87.348 164.608 87.255V86.077C164.779 86.139 165.042 86.201 165.321 86.201C165.926 86.201 166.282 85.8445 166.685 84.8835L167.135 83.7985L164.143 76.467H165.569L167.832 82.2795L170.157 76.467H171.537ZM185.925 78.575C185.925 81.6595 183.538 84 180.531 84H177.105V73.15H180.531C183.538 73.15 185.925 75.4905 185.925 78.575ZM184.499 78.575C184.499 76.25 182.809 74.4365 180.5 74.4365H178.485V82.7135H180.5C182.809 82.7135 184.499 80.9 184.499 78.575ZM194.344 81.768V83.2095C193.507 83.814 192.484 84.1705 191.43 84.1705C189.027 84.1705 187.477 82.45 187.477 80.2335C187.477 77.986 189.027 76.2965 191.197 76.2965C193.305 76.2965 194.747 78.0325 194.747 80.1715C194.747 80.466 194.716 80.652 194.716 80.652H188.81C188.919 81.9075 189.957 82.9615 191.523 82.9615C192.484 82.9615 193.414 82.574 194.344 81.768ZM188.841 79.5515H193.398C193.29 78.358 192.406 77.459 191.166 77.459C189.911 77.459 188.934 78.5285 188.841 79.5515ZM198.175 84H196.842V77.6605H195.68V76.467H196.842V75.816C196.842 73.894 197.943 72.964 199.431 72.964C199.973 72.964 200.33 73.057 200.562 73.15V74.3435C200.33 74.2505 200.035 74.1885 199.648 74.1885C198.811 74.1885 198.175 74.607 198.175 75.785V76.467H200.283V77.6605H198.175V84ZM206.25 79.2105V79.0245C206.25 78.079 205.583 77.5055 204.467 77.5055C203.444 77.5055 202.685 77.924 201.91 78.637V77.242C202.592 76.684 203.413 76.2965 204.498 76.2965C206.436 76.2965 207.552 77.366 207.552 79.1175V84H206.296V83.008C205.707 83.7675 204.793 84.1705 203.801 84.1705C202.468 84.1705 201.522 83.256 201.522 82.016C201.522 80.6675 202.375 79.8615 204.033 79.5825L206.25 79.2105ZM202.855 81.9385C202.855 82.574 203.351 82.9925 204.049 82.9925C205.335 82.9925 206.265 82.1555 206.265 80.993V80.3575L204.25 80.714C203.351 80.8845 202.855 81.2875 202.855 81.9385ZM215.192 80.404V76.467H216.525V84H215.192V82.915C214.727 83.659 213.936 84.1705 212.805 84.1705C210.898 84.1705 209.798 82.884 209.798 80.8845V76.467H211.131V80.7295C211.131 82.078 211.813 82.9305 213.084 82.9305C214.355 82.9305 215.192 81.9385 215.192 80.404ZM219.053 73.15H220.386V84H219.053V73.15ZM221.91 77.49L224.499 74.7H224.545V76.467H226.653V77.6605H224.545V81.644C224.545 82.5275 224.933 82.9305 225.801 82.9305C226.095 82.9305 226.421 82.853 226.653 82.698V83.938C226.39 84.0775 226.002 84.1705 225.491 84.1705C224.065 84.1705 223.212 83.287 223.212 81.83V77.6605H221.91V77.49Z" fill="#242B42"/>
</svg>
