<svg width="362" height="159" viewBox="0 0 362 159" fill="none" xmlns="http://www.w3.org/2000/svg">
<path d="M94.492 42.8C94.492 40.34 96.412 38.444 98.836 38.444C99.568 38.444 100.312 38.636 100.972 39.008V40.952C100.336 40.472 99.676 40.208 98.896 40.208C97.432 40.208 96.352 41.348 96.352 42.8C96.352 44.228 97.384 45.38 98.896 45.38C99.664 45.38 100.324 45.128 100.984 44.66V46.592C100.252 47 99.484 47.156 98.812 47.156C96.268 47.156 94.492 45.296 94.492 42.8ZM106.262 38.6H107.858L111.23 47H109.346L108.638 45.188H105.434L104.726 47H102.878L106.262 38.6ZM107.03 40.892L105.986 43.64H108.098L107.03 40.892ZM113.413 38.6H116.269C118.093 38.6 119.353 39.584 119.353 41.312C119.353 43.028 118.093 44.024 116.269 44.024H115.213V47H113.413V38.6ZM115.213 40.22V42.428H116.305C117.025 42.428 117.541 42.02 117.541 41.324C117.541 40.628 117.025 40.22 116.305 40.22H115.213ZM121.218 40.28V38.6H127.458V40.28H125.25V47H123.438V40.28H121.218ZM129.758 38.6H131.57V47H129.758V38.6ZM142.932 42.8C142.932 45.224 140.976 47.156 138.54 47.156C136.104 47.156 134.148 45.224 134.148 42.8C134.148 40.376 136.104 38.444 138.54 38.444C140.976 38.444 142.932 40.376 142.932 42.8ZM141.084 42.8C141.084 41.348 139.968 40.196 138.54 40.196C137.112 40.196 135.996 41.348 135.996 42.8C135.996 44.252 137.112 45.404 138.54 45.404C139.968 45.404 141.084 44.252 141.084 42.8ZM151.266 38.6H153.018V47H151.218L147.27 41.456V47H145.518V38.6H147.354L151.266 44.168V38.6Z" fill="#4B546B"/>
<path d="M94.66 76.268V74.996C95.356 75.62 96.304 76.112 97.288 76.112C98.152 76.112 99.112 75.704 99.112 74.696C99.112 73.748 98.236 73.484 97.276 73.232C96.04 72.92 94.648 72.524 94.648 70.82C94.648 69.296 95.98 68.456 97.384 68.456C98.344 68.456 99.16 68.744 99.892 69.272V70.508C99.208 69.908 98.368 69.464 97.384 69.464C96.616 69.464 95.728 69.896 95.728 70.76C95.728 71.768 96.7 72.032 97.744 72.308C98.92 72.62 100.192 73.112 100.192 74.636C100.192 76.268 98.776 77.132 97.3 77.132C96.352 77.132 95.404 76.844 94.66 76.268ZM105.747 74.216V71.168H106.779V77H105.747V76.16C105.387 76.736 104.775 77.132 103.899 77.132C102.423 77.132 101.571 76.136 101.571 74.588V71.168H102.603V74.468C102.603 75.512 103.131 76.172 104.115 76.172C105.099 76.172 105.747 75.404 105.747 74.216ZM109.768 77H108.748V68.6H109.768V72.092C110.188 71.456 110.98 71.036 111.832 71.036C113.488 71.036 114.76 72.356 114.76 74.084C114.76 75.8 113.488 77.132 111.832 77.132C110.98 77.132 110.2 76.76 109.768 76.124V77ZM113.716 74.084C113.716 72.908 112.852 71.984 111.712 71.984C110.572 71.984 109.708 72.908 109.708 74.084C109.708 75.26 110.572 76.184 111.712 76.184C112.852 76.184 113.716 75.26 113.716 74.084ZM115.948 74.084C115.948 72.38 117.208 71.036 118.996 71.036C119.608 71.036 120.172 71.216 120.652 71.54V72.584C120.136 72.188 119.608 71.996 119.044 71.996C117.856 71.996 116.992 72.908 116.992 74.084C116.992 75.248 117.856 76.172 119.044 76.172C119.656 76.172 120.22 75.896 120.688 75.596V76.64C120.184 76.952 119.608 77.132 119.008 77.132C117.172 77.132 115.948 75.8 115.948 74.084ZM125.661 73.292V73.148C125.661 72.416 125.145 71.972 124.281 71.972C123.489 71.972 122.901 72.296 122.301 72.848V71.768C122.829 71.336 123.465 71.036 124.305 71.036C125.805 71.036 126.669 71.864 126.669 73.22V77H125.697V76.232C125.241 76.82 124.533 77.132 123.765 77.132C122.733 77.132 122.001 76.424 122.001 75.464C122.001 74.42 122.661 73.796 123.945 73.58L125.661 73.292ZM123.033 75.404C123.033 75.896 123.417 76.22 123.957 76.22C124.953 76.22 125.673 75.572 125.673 74.672V74.18L124.113 74.456C123.417 74.588 123.033 74.9 123.033 75.404ZM129.558 79.496H128.538V71.168H129.558V72.092C129.978 71.456 130.77 71.036 131.622 71.036C133.278 71.036 134.55 72.356 134.55 74.084C134.55 75.8 133.278 77.132 131.622 77.132C130.77 77.132 129.99 76.76 129.558 76.124V79.496ZM133.506 74.084C133.506 72.908 132.642 71.984 131.502 71.984C130.362 71.984 129.498 72.908 129.498 74.084C129.498 75.26 130.362 76.184 131.502 76.184C132.642 76.184 133.506 75.26 133.506 74.084ZM135.203 71.96L137.207 69.8H137.243V71.168H138.875V72.092H137.243V75.176C137.243 75.86 137.543 76.172 138.215 76.172C138.443 76.172 138.695 76.112 138.875 75.992V76.952C138.671 77.06 138.371 77.132 137.975 77.132C136.871 77.132 136.211 76.448 136.211 75.32V72.092H135.203V71.96ZM141.569 69.44C141.569 69.824 141.257 70.136 140.873 70.136C140.489 70.136 140.177 69.824 140.177 69.44C140.177 69.056 140.489 68.744 140.873 68.744C141.257 68.744 141.569 69.056 141.569 69.44ZM140.357 71.168H141.389V77H140.357V71.168ZM145.988 71.036C147.74 71.036 149.036 72.392 149.036 74.084C149.036 75.776 147.74 77.132 145.988 77.132C144.236 77.132 142.94 75.776 142.94 74.084C142.94 72.392 144.236 71.036 145.988 71.036ZM145.988 71.984C144.848 71.984 143.984 72.92 143.984 74.084C143.984 75.248 144.848 76.184 145.988 76.184C147.128 76.184 147.992 75.248 147.992 74.084C147.992 72.92 147.128 71.984 145.988 71.984ZM151.614 73.952V77H150.582V71.168H151.614V72.008C151.974 71.432 152.598 71.036 153.474 71.036C154.962 71.036 155.826 72.032 155.826 73.58V77H154.794V73.7C154.794 72.656 154.254 71.996 153.258 71.996C152.262 71.996 151.614 72.764 151.614 73.952Z" fill="#4B546B"/>
<path d="M95.8 102H97.58V114.34H102.58V116H95.8V102ZM111.395 102H112.795L118.555 116H116.675L115.035 111.94H109.095L107.455 116H105.615L111.395 102ZM112.055 104.5L109.735 110.32H114.395L112.055 104.5ZM124.373 110.06V116H122.593V102H126.693C129.333 102 131.193 103.46 131.193 106.04C131.193 108.2 129.753 109.62 127.713 109.98L132.113 116H130.013L125.733 110.06H124.373ZM124.373 103.64V108.48H126.673C128.273 108.48 129.393 107.58 129.393 106.04C129.393 104.48 128.273 103.64 126.673 103.64H124.373ZM147.558 108.62V114.44C146.318 115.42 144.638 116.22 142.398 116.22C138.198 116.22 135.298 113.04 135.298 109C135.298 104.94 138.398 101.76 142.438 101.76C144.158 101.76 145.798 102.3 147.238 103.3V105.32C145.658 104.08 144.078 103.46 142.398 103.46C139.358 103.46 137.118 105.9 137.118 109C137.118 112.02 139.178 114.52 142.438 114.52C143.858 114.52 144.958 114.14 145.798 113.54V110.3H142.098V108.62H147.558ZM152.726 116V102H160.506V103.64H154.506V107.92H160.086V109.54H154.506V114.36H160.546V116H152.726ZM171.591 109C171.591 104.94 174.731 101.76 178.751 101.76C180.231 101.76 181.611 102.2 182.851 103.02V105C181.491 103.98 180.151 103.48 178.711 103.48C175.751 103.48 173.431 105.9 173.431 109C173.431 112.06 175.751 114.5 178.711 114.5C180.131 114.5 181.531 114 182.891 113.02V115C181.571 115.82 180.191 116.22 178.731 116.22C174.731 116.22 171.591 113.04 171.591 109ZM191.989 102H193.389L199.149 116H197.269L195.629 111.94H189.689L188.049 116H186.209L191.989 102ZM192.649 104.5L190.329 110.32H194.989L192.649 104.5ZM207.527 102C210.187 102 212.047 103.48 212.047 106.04C212.047 108.6 210.187 110.06 207.527 110.06H204.967V116H203.187V102H207.527ZM204.967 103.64V108.42H207.527C209.127 108.42 210.247 107.54 210.247 106.04C210.247 104.5 209.127 103.64 207.527 103.64H204.967ZM215.154 103.64V102H225.114V103.64H221.034V116H219.234V103.64H215.154ZM229.316 102H231.096V116H229.316V102ZM250.287 109C250.287 112.98 247.047 116.22 243.107 116.22C239.167 116.22 235.927 112.98 235.927 109C235.927 105 239.167 101.76 243.107 101.76C247.047 101.76 250.287 105 250.287 109ZM248.467 109C248.467 105.96 246.087 103.46 243.107 103.46C240.127 103.46 237.747 105.96 237.747 109C237.747 112.02 240.127 114.52 243.107 114.52C246.087 114.52 248.467 112.02 248.467 109ZM265.312 102H267.032V116H265.352L256.852 104.7V116H255.132V102H256.952L265.312 113.16V102Z" fill="#4B546B"/>
</svg>
