<svg width="362" height="159" viewBox="0 0 362 159" fill="none" xmlns="http://www.w3.org/2000/svg">
<path d="M155.226 63.1C155.226 65.886 153.07 68 150.354 68H147.26V58.2H150.354C153.07 58.2 155.226 60.314 155.226 63.1ZM153.938 63.1C153.938 61 152.412 59.362 150.326 59.362H148.506V66.838H150.326C152.412 66.838 153.938 65.2 153.938 63.1ZM162.835 65.984V67.286C162.079 67.832 161.155 68.154 160.203 68.154C158.033 68.154 156.633 66.6 156.633 64.598C156.633 62.568 158.033 61.042 159.993 61.042C161.897 61.042 163.199 62.61 163.199 64.542C163.199 64.808 163.171 64.976 163.171 64.976H157.837C157.935 66.11 158.873 67.062 160.287 67.062C161.155 67.062 161.995 66.712 162.835 65.984ZM157.865 63.982H161.981C161.883 62.904 161.085 62.092 159.965 62.092C158.831 62.092 157.949 63.058 157.865 63.982ZM163.892 62.12L166.23 59.6H166.272V61.196H168.176V62.274H166.272V65.872C166.272 66.67 166.622 67.034 167.406 67.034C167.672 67.034 167.966 66.964 168.176 66.824V67.944C167.938 68.07 167.588 68.154 167.126 68.154C165.838 68.154 165.068 67.356 165.068 66.04V62.274H163.892V62.12ZM173.749 63.674V63.506C173.749 62.652 173.147 62.134 172.139 62.134C171.215 62.134 170.529 62.512 169.829 63.156V61.896C170.445 61.392 171.187 61.042 172.167 61.042C173.917 61.042 174.925 62.008 174.925 63.59V68H173.791V67.104C173.259 67.79 172.433 68.154 171.537 68.154C170.333 68.154 169.479 67.328 169.479 66.208C169.479 64.99 170.249 64.262 171.747 64.01L173.749 63.674ZM170.683 66.138C170.683 66.712 171.131 67.09 171.761 67.09C172.923 67.09 173.763 66.334 173.763 65.284V64.71L171.943 65.032C171.131 65.186 170.683 65.55 170.683 66.138ZM178.511 59.18C178.511 59.628 178.147 59.992 177.699 59.992C177.251 59.992 176.887 59.628 176.887 59.18C176.887 58.732 177.251 58.368 177.699 58.368C178.147 58.368 178.511 58.732 178.511 59.18ZM177.097 61.196H178.301V68H177.097V61.196ZM180.593 58.2H181.797V68H180.593V58.2ZM186.73 59.348V58.2H193.702V59.348H190.846V68H189.586V59.348H186.73ZM199.744 65.984V67.286C198.988 67.832 198.064 68.154 197.112 68.154C194.942 68.154 193.542 66.6 193.542 64.598C193.542 62.568 194.942 61.042 196.902 61.042C198.806 61.042 200.108 62.61 200.108 64.542C200.108 64.808 200.08 64.976 200.08 64.976H194.746C194.844 66.11 195.782 67.062 197.196 67.062C198.064 67.062 198.904 66.712 199.744 65.984ZM194.774 63.982H198.89C198.792 62.904 197.994 62.092 196.874 62.092C195.74 62.092 194.858 63.058 194.774 63.982ZM205.747 68L203.885 65.368L202.009 68H200.651L203.185 64.528L200.763 61.196H202.163L203.913 63.66L205.677 61.196H207.049L204.627 64.5L207.161 68H205.747ZM207.673 62.12L210.011 59.6H210.053V61.196H211.957V62.274H210.053V65.872C210.053 66.67 210.403 67.034 211.187 67.034C211.453 67.034 211.747 66.964 211.957 66.824V67.944C211.719 68.07 211.369 68.154 210.907 68.154C209.619 68.154 208.849 67.356 208.849 66.04V62.274H207.673V62.12Z" fill="#242B42"/>
<path d="M155.338 95.1C155.338 97.858 153.098 100 150.354 100H147.036V90.2H150.354C153.098 90.2 155.338 92.342 155.338 95.1ZM153.182 95.1C153.182 93.476 151.922 92.174 150.298 92.174H149.136V98.026H150.298C151.922 98.026 153.182 96.724 153.182 95.1ZM162.975 97.69V99.538C162.303 99.93 161.407 100.182 160.315 100.182C157.949 100.182 156.493 98.656 156.493 96.514C156.493 94.442 157.949 92.902 160.007 92.902C162.121 92.902 163.395 94.358 163.395 96.5C163.395 96.71 163.367 96.948 163.353 97.116H158.509C158.663 97.914 159.377 98.474 160.539 98.474C161.365 98.474 162.149 98.236 162.975 97.69ZM158.481 95.772H161.435C161.365 95.002 160.791 94.484 159.993 94.484C159.195 94.484 158.579 95.072 158.481 95.772ZM165.12 94.764H163.86V94.498L167.094 91.124H167.15V93.084H168.9V94.764H167.15V97.298C167.15 98.04 167.472 98.334 168.116 98.334C168.396 98.334 168.69 98.236 168.9 98.082V99.874C168.578 100.042 168.074 100.168 167.43 100.168C165.96 100.168 165.12 99.328 165.12 97.788V94.764ZM176.126 100H174.236L174.208 99.132C173.802 99.846 173.004 100.182 172.178 100.182C170.89 100.182 170.008 99.37 170.008 98.152C170.008 96.878 170.862 96.094 172.584 95.842L174.152 95.618V95.534C174.152 94.96 173.69 94.624 172.752 94.624C171.856 94.624 171.058 94.974 170.428 95.548V93.602C171.03 93.196 171.898 92.902 172.962 92.902C174.964 92.902 176.126 93.868 176.126 95.66V100ZM171.94 97.984C171.954 98.376 172.276 98.628 172.738 98.628C173.592 98.628 174.152 98.012 174.152 97.228V96.99L172.934 97.186C172.276 97.284 171.94 97.578 171.94 97.984ZM179.956 100H177.912V93.084H179.956V100ZM180.124 91.082C180.124 91.726 179.592 92.272 178.934 92.272C178.276 92.272 177.744 91.726 177.744 91.082C177.744 90.438 178.276 89.892 178.934 89.892C179.592 89.892 180.124 90.438 180.124 91.082ZM181.804 90.2H183.848V100H181.804V90.2ZM188.37 92.16V90.2H195.65V92.16H193.074V100H190.96V92.16H188.37ZM201.839 97.69V99.538C201.167 99.93 200.271 100.182 199.179 100.182C196.813 100.182 195.357 98.656 195.357 96.514C195.357 94.442 196.813 92.902 198.871 92.902C200.985 92.902 202.259 94.358 202.259 96.5C202.259 96.71 202.231 96.948 202.217 97.116H197.373C197.527 97.914 198.241 98.474 199.403 98.474C200.229 98.474 201.013 98.236 201.839 97.69ZM197.345 95.772H200.299C200.229 95.002 199.655 94.484 198.857 94.484C198.059 94.484 197.443 95.072 197.345 95.772ZM207.729 100L206.273 97.928L204.831 100H202.563L205.125 96.5L202.675 93.084H205.013L206.329 95.016L207.687 93.084H209.955L207.505 96.444L210.053 100H207.729ZM211.335 94.764H210.075V94.498L213.309 91.124H213.365V93.084H215.115V94.764H213.365V97.298C213.365 98.04 213.687 98.334 214.331 98.334C214.611 98.334 214.905 98.236 215.115 98.082V99.874C214.793 100.042 214.289 100.168 213.645 100.168C212.175 100.168 211.335 99.328 211.335 97.788V94.764Z" fill="#242B42"/>
</svg>
