<svg width="362" height="159" viewBox="0 0 362 159" fill="none" xmlns="http://www.w3.org/2000/svg">
<path d="M152.395 73.15H153.775V82.7135H157.65V84H152.395V73.15ZM160.818 74.235C160.818 74.731 160.415 75.134 159.919 75.134C159.423 75.134 159.02 74.731 159.02 74.235C159.02 73.739 159.423 73.336 159.919 73.336C160.415 73.336 160.818 73.739 160.818 74.235ZM159.253 76.467H160.586V84H159.253V76.467ZM164.45 80.063V84H163.117V76.467H164.45V77.552C164.915 76.808 165.721 76.2965 166.853 76.2965C168.775 76.2965 169.891 77.583 169.891 79.5825V84H168.558V79.7375C168.558 78.389 167.86 77.5365 166.574 77.5365C165.287 77.5365 164.45 78.5285 164.45 80.063ZM173.627 73.15V79.4585L176.789 76.467H178.494L175.069 79.6755L178.789 84H177.099L174.139 80.497L173.627 80.9775V84H172.31V73.15H173.627ZM183.15 74.421V73.15H190.869V74.421H187.707V84H186.312V74.421H183.15ZM197.553 81.768V83.2095C196.716 83.814 195.693 84.1705 194.639 84.1705C192.237 84.1705 190.687 82.45 190.687 80.2335C190.687 77.986 192.237 76.2965 194.407 76.2965C196.515 76.2965 197.956 78.0325 197.956 80.1715C197.956 80.466 197.925 80.652 197.925 80.652H192.02C192.128 81.9075 193.167 82.9615 194.732 82.9615C195.693 82.9615 196.623 82.574 197.553 81.768ZM192.051 79.5515H196.608C196.499 78.358 195.616 77.459 194.376 77.459C193.12 77.459 192.144 78.5285 192.051 79.5515ZM204.195 84L202.133 81.086L200.056 84H198.553L201.358 80.156L198.677 76.467H200.227L202.164 79.195L204.117 76.467H205.636L202.955 80.125L205.76 84H204.195ZM206.321 77.49L208.91 74.7H208.956V76.467H211.064V77.6605H208.956V81.644C208.956 82.5275 209.344 82.9305 210.212 82.9305C210.506 82.9305 210.832 82.853 211.064 82.698V83.938C210.801 84.0775 210.413 84.1705 209.902 84.1705C208.476 84.1705 207.623 83.287 207.623 81.83V77.6605H206.321V77.49Z" fill="#0056CF"/>
</svg>
