<svg width="362" height="159" viewBox="0 0 362 159" fill="none" xmlns="http://www.w3.org/2000/svg">
<path d="M47.792 47.36V41.2H70.672V47.36H62.576V72H55.932V47.36H47.792ZM80.2492 72H73.8252V50.264H80.2492V72ZM80.7772 43.972C80.7772 45.996 79.1052 47.712 77.0372 47.712C74.9692 47.712 73.2972 45.996 73.2972 43.972C73.2972 41.948 74.9692 40.232 77.0372 40.232C79.1052 40.232 80.7772 41.948 80.7772 43.972ZM86.6914 55.544H82.7314V54.708L92.8954 44.104H93.0714V50.264H98.5714V55.544H93.0714V63.508C93.0714 65.84 94.0834 66.764 96.1074 66.764C96.9874 66.764 97.9114 66.456 98.5714 65.972V71.604C97.5594 72.132 95.9754 72.528 93.9514 72.528C89.3314 72.528 86.6914 69.888 86.6914 65.048V55.544ZM102.035 41.2H108.459V72H102.035V41.2ZM132.765 64.74V70.548C130.653 71.78 127.837 72.572 124.405 72.572C116.969 72.572 112.393 67.776 112.393 61.044C112.393 54.532 116.969 49.692 123.437 49.692C130.081 49.692 134.085 54.268 134.085 61C134.085 61.66 133.997 62.408 133.953 62.936H118.729C119.213 65.444 121.457 67.204 125.109 67.204C127.705 67.204 130.169 66.456 132.765 64.74ZM118.641 58.712H127.925C127.705 56.292 125.901 54.664 123.393 54.664C120.885 54.664 118.949 56.512 118.641 58.712ZM157.98 72H151.468V48.812L146.012 50.924V44.544L152.832 41.772H157.98V72Z" fill="#242B42"/>
<path d="M212.576 50.08V45.6H229.216V50.08H223.328V68H218.496V50.08H212.576ZM236.181 68H231.509V52.192H236.181V68ZM236.565 47.616C236.565 49.088 235.349 50.336 233.845 50.336C232.341 50.336 231.125 49.088 231.125 47.616C231.125 46.144 232.341 44.896 233.845 44.896C235.349 44.896 236.565 46.144 236.565 47.616ZM240.867 56.032H237.987V55.424L245.379 47.712H245.507V52.192H249.507V56.032H245.507V61.824C245.507 63.52 246.243 64.192 247.715 64.192C248.355 64.192 249.027 63.968 249.507 63.616V67.712C248.771 68.096 247.619 68.384 246.147 68.384C242.787 68.384 240.867 66.464 240.867 62.944V56.032ZM252.026 45.6H256.698V68H252.026V45.6ZM274.375 62.72V66.944C272.839 67.84 270.791 68.416 268.295 68.416C262.887 68.416 259.559 64.928 259.559 60.032C259.559 55.296 262.887 51.776 267.591 51.776C272.423 51.776 275.335 55.104 275.335 60C275.335 60.48 275.271 61.024 275.239 61.408H264.167C264.519 63.232 266.151 64.512 268.807 64.512C270.695 64.512 272.487 63.968 274.375 62.72ZM264.103 58.336H270.855C270.695 56.576 269.383 55.392 267.559 55.392C265.735 55.392 264.327 56.736 264.103 58.336ZM299.145 68H284.233V64.64L291.433 57.504C293.481 55.52 294.057 54.496 294.057 53.024C294.057 51.264 292.553 50.016 290.441 50.016C288.393 50.016 286.473 51.168 284.745 53.056V48.032C286.441 46.496 288.649 45.632 290.825 45.632C295.241 45.632 298.793 48.32 298.793 52.512C298.793 55.424 297.577 57.568 294.793 60.128L290.857 63.776H299.145V68Z" fill="#242B42"/>
<path d="M234.279 108.32V106.15H242.339V108.32H239.487V117H237.147V108.32H234.279ZM245.918 117H243.655V109.343H245.918V117ZM246.104 107.126C246.104 107.839 245.515 108.444 244.786 108.444C244.058 108.444 243.469 107.839 243.469 107.126C243.469 106.413 244.058 105.809 244.786 105.809C245.515 105.809 246.104 106.413 246.104 107.126ZM248.392 111.203H246.997V110.908L250.578 107.173H250.64V109.343H252.577V111.203H250.64V114.008C250.64 114.83 250.996 115.155 251.709 115.155C252.019 115.155 252.345 115.047 252.577 114.876V116.86C252.221 117.047 251.663 117.186 250.95 117.186C249.322 117.186 248.392 116.256 248.392 114.551V111.203ZM254.002 106.15H256.265V117H254.002V106.15ZM265.033 114.442V116.489C264.289 116.922 263.297 117.202 262.088 117.202C259.468 117.202 257.856 115.512 257.856 113.14C257.856 110.846 259.468 109.141 261.747 109.141C264.087 109.141 265.498 110.753 265.498 113.125C265.498 113.357 265.467 113.621 265.451 113.807H260.088C260.259 114.69 261.049 115.31 262.336 115.31C263.25 115.31 264.118 115.047 265.033 114.442ZM260.057 112.319H263.328C263.25 111.466 262.615 110.893 261.731 110.893C260.848 110.893 260.166 111.544 260.057 112.319ZM269.985 114.814V113.233L274.573 106.367H277.332V112.908H278.82V114.814H277.332V117H275.147V114.814H269.985ZM272.45 112.908H275.162V108.8L272.45 112.908Z" fill="#242B42"/>
<path d="M67.486 105.88V102.1H81.526V105.88H76.558V121H72.481V105.88H67.486ZM87.4029 121H83.4609V107.662H87.4029V121ZM87.7269 103.801C87.7269 105.043 86.7009 106.096 85.4319 106.096C84.1629 106.096 83.1369 105.043 83.1369 103.801C83.1369 102.559 84.1629 101.506 85.4319 101.506C86.7009 101.506 87.7269 102.559 87.7269 103.801ZM91.3561 110.902H88.9261V110.389L95.1631 103.882H95.2711V107.662H98.6461V110.902H95.2711V115.789C95.2711 117.22 95.8921 117.787 97.1341 117.787C97.6741 117.787 98.2411 117.598 98.6461 117.301V120.757C98.0251 121.081 97.0531 121.324 95.8111 121.324C92.9761 121.324 91.3561 119.704 91.3561 116.734V110.902ZM100.772 102.1H104.714V121H100.772V102.1ZM119.629 116.545V120.109C118.333 120.865 116.605 121.351 114.499 121.351C109.936 121.351 107.128 118.408 107.128 114.277C107.128 110.281 109.936 107.311 113.905 107.311C117.982 107.311 120.439 110.119 120.439 114.25C120.439 114.655 120.385 115.114 120.358 115.438H111.016C111.313 116.977 112.69 118.057 114.931 118.057C116.524 118.057 118.036 117.598 119.629 116.545ZM110.962 112.846H116.659C116.524 111.361 115.417 110.362 113.878 110.362C112.339 110.362 111.151 111.496 110.962 112.846ZM140.096 115.465C140.096 118.975 137.315 121.351 133.076 121.351C131.267 121.351 129.566 120.892 128.027 119.947V115.897C129.566 117.112 131.132 117.706 132.752 117.706C134.723 117.706 136.1 116.815 136.1 115.249C136.1 113.872 134.804 112.927 132.887 112.927H131.132V109.795H132.806C134.372 109.795 135.452 108.931 135.452 107.797C135.452 106.501 134.183 105.745 132.671 105.745C131.186 105.745 129.836 106.312 128.405 107.473V103.504C129.755 102.586 131.348 102.127 132.995 102.127C136.667 102.127 139.367 104.071 139.367 107.311C139.367 109.039 138.476 110.335 137.072 111.118C138.989 111.901 140.096 113.44 140.096 115.465Z" fill="#242B42"/>
</svg>
