<svg width="281" height="224" viewBox="0 0 281 224" fill="none" xmlns="http://www.w3.org/2000/svg">
<path d="M196 105C197.657 105 199 106.343 199 108V140C199 141.657 197.657 143 196 143H20C18.3431 143 17 141.657 17 140V108C17.0002 106.343 18.3433 105 20 105H196Z" fill="#F3F7FB"/>
<path fill-rule="evenodd" clip-rule="evenodd" d="M196 104C198.209 104 200 105.791 200 108V140L199.995 140.206C199.891 142.251 198.251 143.891 196.206 143.995L196 144H20L19.7939 143.995C17.7488 143.891 16.1087 142.251 16.0049 140.206L16 140V108C16.0002 105.791 17.791 104 20 104H196ZM20 105C18.3433 105 17.0002 106.343 17 108V140C17 141.657 18.3431 143 20 143H196C197.657 143 199 141.657 199 140V108C199 106.343 197.657 105 196 105H20Z" fill="#E4E8F0"/>
<path d="M56 116C56 113.791 57.7909 112 60 112H76C78.2091 112 80 113.791 80 116V132C80 134.209 78.2091 136 76 136H60C57.7909 136 56 134.209 56 132V116Z" fill="white"/>
<path fill-rule="evenodd" clip-rule="evenodd" d="M76.2061 112.005C78.3194 112.112 80 113.86 80 116V132L79.9951 132.206C79.8913 134.251 78.2512 135.891 76.2061 135.995L76 136H60C57.86 136 56.1121 134.319 56.0049 132.206L56 132V116C56 113.791 57.7909 112 60 112H76L76.2061 112.005ZM60 113C58.3949 113 57.0842 114.261 57.0039 115.846L57 116V132C57 133.657 58.3431 135 60 135H76C77.6569 135 79 133.657 79 132V116C79 114.395 77.7394 113.084 76.1543 113.004L76 113H60Z" fill="#E4E8F0"/>
<path d="M88 116C88 113.791 89.7909 112 92 112H108C110.209 112 112 113.791 112 116V132C112 134.209 110.209 136 108 136H92C89.7909 136 88 134.209 88 132V116Z" fill="white"/>
<path fill-rule="evenodd" clip-rule="evenodd" d="M108.206 112.005C110.319 112.112 112 113.86 112 116V132L111.995 132.206C111.891 134.251 110.251 135.891 108.206 135.995L108 136H92C89.86 136 88.1121 134.319 88.0049 132.206L88 132V116C88 113.791 89.7909 112 92 112H108L108.206 112.005ZM92 113C90.3949 113 89.0842 114.261 89.0039 115.846L89 116V132C89 133.657 90.3431 135 92 135H108C109.657 135 111 133.657 111 132V116C111 114.395 109.739 113.084 108.154 113.004L108 113H92Z" fill="#E4E8F0"/>
<path d="M24 116C24 113.791 25.7909 112 28 112H44C46.2091 112 48 113.791 48 116V132C48 134.209 46.2091 136 44 136H28C25.7909 136 24 134.209 24 132V116Z" fill="white"/>
<path fill-rule="evenodd" clip-rule="evenodd" d="M44.2061 112.005C46.3194 112.112 48 113.86 48 116V132L47.9951 132.206C47.8913 134.251 46.2512 135.891 44.2061 135.995L44 136H28C25.86 136 24.1121 134.319 24.0049 132.206L24 132V116C24 113.791 25.7909 112 28 112H44L44.2061 112.005ZM28 113C26.3949 113 25.0842 114.261 25.0039 115.846L25 116V132C25 133.657 26.3431 135 28 135H44C45.6569 135 47 133.657 47 132V116C47 114.395 45.7394 113.084 44.1543 113.004L44 113H28Z" fill="#E4E8F0"/>
<path d="M196 57C197.657 57 199 58.3433 199 60V92C199 93.6569 197.657 95 196 95H20C18.3431 95 17 93.6569 17 92V60C17.0002 58.3433 18.3433 57 20 57H196Z" fill="#F3F7FB"/>
<path fill-rule="evenodd" clip-rule="evenodd" d="M196 56C198.209 56 200 57.791 200 60V92L199.995 92.2061C199.891 94.2512 198.251 95.8913 196.206 95.9951L196 96H20L19.7939 95.9951C17.7488 95.8913 16.1087 94.2512 16.0049 92.2061L16 92V60C16.0002 57.791 17.791 56 20 56H196ZM20 57C18.3433 57 17.0002 58.3433 17 60V92C17 93.6569 18.3431 95 20 95H196C197.657 95 199 93.6569 199 92V60C199 58.3433 197.657 57 196 57H20Z" fill="#E4E8F0"/>
<path d="M56 68C56 65.7909 57.7909 64 60 64H76C78.2091 64 80 65.7909 80 68V84C80 86.2091 78.2091 88 76 88H60C57.7909 88 56 86.2091 56 84V68Z" fill="white"/>
<path fill-rule="evenodd" clip-rule="evenodd" d="M76.2061 64.0049C78.3194 64.1121 80 65.86 80 68V84L79.9951 84.2061C79.8913 86.2512 78.2512 87.8913 76.2061 87.9951L76 88H60C57.86 88 56.1121 86.3194 56.0049 84.2061L56 84V68C56 65.7909 57.7909 64 60 64H76L76.2061 64.0049ZM60 65C58.3949 65 57.0842 66.2606 57.0039 67.8457L57 68V84C57 85.6569 58.3431 87 60 87H76C77.6569 87 79 85.6569 79 84V68C79 66.3949 77.7394 65.0842 76.1543 65.0039L76 65H60Z" fill="#E4E8F0"/>
<path d="M88 68C88 65.7909 89.7909 64 92 64H108C110.209 64 112 65.7909 112 68V84C112 86.2091 110.209 88 108 88H92C89.7909 88 88 86.2091 88 84V68Z" fill="white"/>
<path fill-rule="evenodd" clip-rule="evenodd" d="M108.206 64.0049C110.319 64.1121 112 65.86 112 68V84L111.995 84.2061C111.891 86.2512 110.251 87.8913 108.206 87.9951L108 88H92C89.86 88 88.1121 86.3194 88.0049 84.2061L88 84V68C88 65.7909 89.7909 64 92 64H108L108.206 64.0049ZM92 65C90.3949 65 89.0842 66.2606 89.0039 67.8457L89 68V84C89 85.6569 90.3431 87 92 87H108C109.657 87 111 85.6569 111 84V68C111 66.3949 109.739 65.0842 108.154 65.0039L108 65H92Z" fill="#E4E8F0"/>
<path d="M24 68C24 65.7909 25.7909 64 28 64H44C46.2091 64 48 65.7909 48 68V84C48 86.2091 46.2091 88 44 88H28C25.7909 88 24 86.2091 24 84V68Z" fill="white"/>
<path fill-rule="evenodd" clip-rule="evenodd" d="M44.2061 64.0049C46.3194 64.1121 48 65.86 48 68V84L47.9951 84.2061C47.8913 86.2512 46.2512 87.8913 44.2061 87.9951L44 88H28C25.86 88 24.1121 86.3194 24.0049 84.2061L24 84V68C24 65.7909 25.7909 64 28 64H44L44.2061 64.0049ZM28 65C26.3949 65 25.0842 66.2606 25.0039 67.8457L25 68V84C25 85.6569 26.3431 87 28 87H44C45.6569 87 47 85.6569 47 84V68C47 66.3949 45.7394 65.0842 44.1543 65.0039L44 65H28Z" fill="#E4E8F0"/>
<path d="M196 9C197.657 9 199 10.3433 199 12V44C199 45.6569 197.657 47 196 47H20C18.3431 47 17 45.6569 17 44V12C17.0002 10.3433 18.3433 9 20 9H196Z" fill="#F3F7FB"/>
<path fill-rule="evenodd" clip-rule="evenodd" d="M196 8C198.209 8 200 9.79103 200 12V44L199.995 44.2061C199.891 46.2512 198.251 47.8913 196.206 47.9951L196 48H20L19.7939 47.9951C17.7488 47.8913 16.1087 46.2512 16.0049 44.2061L16 44V12C16.0002 9.79103 17.791 8 20 8H196ZM20 9C18.3433 9 17.0002 10.3433 17 12V44C17 45.6569 18.3431 47 20 47H196C197.657 47 199 45.6569 199 44V12C199 10.3433 197.657 9 196 9H20Z" fill="#E4E8F0"/>
<path d="M56 20C56 17.7909 57.7909 16 60 16H76C78.2091 16 80 17.7909 80 20V36C80 38.2091 78.2091 40 76 40H60C57.7909 40 56 38.2091 56 36V20Z" fill="white"/>
<path fill-rule="evenodd" clip-rule="evenodd" d="M76.2061 16.0049C78.3194 16.1121 80 17.86 80 20V36L79.9951 36.2061C79.8913 38.2512 78.2512 39.8913 76.2061 39.9951L76 40H60C57.86 40 56.1121 38.3194 56.0049 36.2061L56 36V20C56 17.7909 57.7909 16 60 16H76L76.2061 16.0049ZM60 17C58.3949 17 57.0842 18.2606 57.0039 19.8457L57 20V36C57 37.6569 58.3431 39 60 39H76C77.6569 39 79 37.6569 79 36V20C79 18.3949 77.7394 17.0842 76.1543 17.0039L76 17H60Z" fill="#E4E8F0"/>
<path d="M88 20C88 17.7909 89.7909 16 92 16H108C110.209 16 112 17.7909 112 20V36C112 38.2091 110.209 40 108 40H92C89.7909 40 88 38.2091 88 36V20Z" fill="white"/>
<path fill-rule="evenodd" clip-rule="evenodd" d="M108.206 16.0049C110.319 16.1121 112 17.86 112 20V36L111.995 36.2061C111.891 38.2512 110.251 39.8913 108.206 39.9951L108 40H92C89.86 40 88.1121 38.3194 88.0049 36.2061L88 36V20C88 17.7909 89.7909 16 92 16H108L108.206 16.0049ZM92 17C90.3949 17 89.0842 18.2606 89.0039 19.8457L89 20V36C89 37.6569 90.3431 39 92 39H108C109.657 39 111 37.6569 111 36V20C111 18.3949 109.739 17.0842 108.154 17.0039L108 17H92Z" fill="#E4E8F0"/>
<path d="M24 20C24 17.7909 25.7909 16 28 16H44C46.2091 16 48 17.7909 48 20V36C48 38.2091 46.2091 40 44 40H28C25.7909 40 24 38.2091 24 36V20Z" fill="white"/>
<path fill-rule="evenodd" clip-rule="evenodd" d="M44.2061 16.0049C46.3194 16.1121 48 17.86 48 20V36L47.9951 36.2061C47.8913 38.2512 46.2512 39.8913 44.2061 39.9951L44 40H28C25.86 40 24.1121 38.3194 24.0049 36.2061L24 36V20C24 17.7909 25.7909 16 28 16H44L44.2061 16.0049ZM28 17C26.3949 17 25.0842 18.2606 25.0039 19.8457L25 20V36C25 37.6569 26.3431 39 28 39H44C45.6569 39 47 37.6569 47 36V20C47 18.3949 45.7394 17.0842 44.1543 17.0039L44 17H28Z" fill="#E4E8F0"/>
<path fill-rule="evenodd" clip-rule="evenodd" d="M277.206 0.00488281C279.319 0.112118 281 1.85997 281 4V220C281 222.209 279.209 224 277 224H4C1.85997 224 0.112115 222.319 0.00488281 220.206L0 220V4C0 1.85996 1.68056 0.112114 3.79395 0.00488281L4 0H277L277.206 0.00488281ZM4 1C2.34315 1 1 2.34315 1 4V220C1 221.657 2.34315 223 4 223H277C278.657 223 280 221.657 280 220V4C280 2.34315 278.657 1 277 1H4Z" fill="#0056CF"/>
</svg>
