<svg width="50" height="48" viewBox="0 0 50 48" fill="none" xmlns="http://www.w3.org/2000/svg">
<path fill-rule="evenodd" clip-rule="evenodd" d="M26.7271 1.3113C26.3525 0.561986 25.6032 0 24.6665 0C23.8235 0 23.0742 0.561986 22.6996 1.3113L16.2367 14.518L1.90607 16.6723C1.06309 16.7659 0.40744 17.4216 0.126447 18.1709C-0.154546 19.0139 0.0327825 19.8568 0.688433 20.5125L11.0852 30.8156L8.55624 45.3335C8.46257 46.1765 8.83723 47.1132 9.49288 47.5815C10.2422 48.0498 11.0852 48.1435 11.8345 47.7688L24.6665 40.8377L37.4985 47.7688C38.2478 48.1435 39.1845 48.0498 39.9338 47.5815C40.5895 47.1132 40.9641 46.1765 40.7768 45.3335L38.3415 30.8156L48.7382 20.5125C49.3939 19.8568 49.5812 19.0139 49.3002 18.1709C49.0192 17.4216 48.3636 16.7659 47.5206 16.6723L33.19 14.518L26.7271 1.3113Z" fill="#0056CF"/>
</svg>
