<svg width="24" height="24" viewBox="0 0 24 24" fill="none" xmlns="http://www.w3.org/2000/svg">
<path d="M3 5.47826C3 4.94837 3.40179 4.5 3.96429 4.5H20.0357C20.558 4.5 21 4.94837 21 5.47826C21 6.04891 20.558 6.45652 20.0357 6.45652H3.96429C3.40179 6.45652 3 6.04891 3 5.47826ZM3 12C3 11.4701 3.40179 11.0217 3.96429 11.0217H20.0357C20.558 11.0217 21 11.4701 21 12C21 12.5707 20.558 12.9783 20.0357 12.9783H3.96429C3.40179 12.9783 3 12.5707 3 12ZM20.0357 19.5H3.96429C3.40179 19.5 3 19.0924 3 18.5217C3 17.9918 3.40179 17.5435 3.96429 17.5435H20.0357C20.558 17.5435 21 17.9918 21 18.5217C21 19.0924 20.558 19.5 20.0357 19.5Z" fill="#242B42"/>
</svg>
