<svg width="24" height="24" viewBox="0 0 24 24" fill="none" xmlns="http://www.w3.org/2000/svg">
<path d="M9.10714 4.5H14.8929V2.9375C14.8929 2.42969 15.2946 2 15.8571 2C16.3795 2 16.8214 2.42969 16.8214 2.9375V4.5H18.4286C19.8348 4.5 21 5.63281 21 7V19.5C21 20.9062 19.8348 22 18.4286 22H5.57143C4.125 22 3 20.9062 3 19.5V7C3 5.63281 4.125 4.5 5.57143 4.5H7.17857V2.9375C7.17857 2.42969 7.58036 2 8.14286 2C8.66518 2 9.10714 2.42969 9.10714 2.9375V4.5ZM4.92857 19.5C4.92857 19.8516 5.20982 20.125 5.57143 20.125H18.4286C18.75 20.125 19.0714 19.8516 19.0714 19.5V9.5H4.92857V19.5Z" fill="#242B42"/>
</svg>
