<svg width="24" height="25" viewBox="0 0 24 25" fill="none" xmlns="http://www.w3.org/2000/svg">
<path d="M16.685 2.86116C17.7874 1.7588 19.5591 1.7588 20.6614 2.86116L21.1732 3.37298C22.2756 4.47534 22.2756 6.24699 21.1732 7.34935L13.378 15.1446C13.063 15.4596 12.6299 15.7352 12.1575 15.8533L8.22047 16.995C7.90551 17.0738 7.55118 16.995 7.31496 16.7194C7.03937 16.4832 6.96063 16.1289 7.03937 15.8139L8.1811 11.8769C8.29921 11.4045 8.5748 10.9714 8.88976 10.6564L16.685 2.86116ZM19.3228 4.19975C18.9685 3.84542 18.378 3.84542 18.0236 4.19975L16.8425 5.34148L18.6929 7.19187L19.8346 6.01077C20.189 5.65644 20.189 5.06589 19.8346 4.71156L19.3228 4.19975ZM9.99213 12.3887L9.32283 14.7116L11.6457 14.0423C11.8031 14.0029 11.9213 13.9242 12.0394 13.806L17.3543 8.49109L15.5433 6.68006L10.2283 11.995C10.1102 12.1131 10.0315 12.2312 9.99213 12.3887ZM9.87402 4.3966C10.3858 4.3966 10.8189 4.82967 10.8189 5.34148C10.8189 5.89266 10.3858 6.28636 9.87402 6.28636H5.46457C4.55906 6.28636 3.88976 6.99502 3.88976 7.86117V18.5698C3.88976 19.4753 4.55906 20.1446 5.46457 20.1446H16.1732C17.0394 20.1446 17.748 19.4753 17.748 18.5698V14.1604C17.748 13.6486 18.1417 13.2155 18.6929 13.2155C19.2047 13.2155 19.6378 13.6486 19.6378 14.1604V18.5698C19.6378 20.499 18.063 22.0344 16.1732 22.0344H5.46457C3.53543 22.0344 2 20.499 2 18.5698V7.86117C2 5.9714 3.53543 4.3966 5.46457 4.3966H9.87402Z" fill="#242B42"/>
</svg>
