<svg width="24" height="25" viewBox="0 0 24 25" fill="none" xmlns="http://www.w3.org/2000/svg">
<path d="M0.333374 3.90939C0.333374 2.88261 1.15369 2.03439 2.20186 2.03439H21.7526C22.8008 2.03439 23.6667 2.88261 23.6667 3.90939C23.6667 4.35582 23.4844 4.75761 23.211 5.07011L15.6459 14.2219V20.6058C15.6459 21.4094 14.9623 22.0344 14.142 22.0344C13.823 22.0344 13.5039 21.9451 13.2305 21.7219L9.0378 18.463C8.58207 18.1058 8.35421 17.6148 8.35421 17.079V14.2219L0.74353 5.07011C0.470093 4.75761 0.333374 4.35582 0.333374 3.90939ZM2.79431 4.17725L10.2683 13.1505C10.4506 13.3737 10.5417 13.5969 10.5417 13.8201V16.9005L13.4584 19.1772V13.8201C13.4584 13.5969 13.5039 13.3737 13.6862 13.1505L21.1602 4.17725H2.79431Z" fill="#242B42"/>
</svg>
