<svg width="1140" height="300" viewBox="0 0 1140 300" fill="none" xmlns="http://www.w3.org/2000/svg">
<g clip-path="url(#clip0_3861_24773)">
<path d="M1140 0H0V299.47H1140V0Z" fill="#0A0527"/>
<path fill-rule="evenodd" clip-rule="evenodd" d="M368.9 250.89H668.32C670.01 250.89 671.67 250.71 673.26 250.36C674.85 250.7 676.5 250.89 678.2 250.89H849.29C862.01 250.89 872.32 240.66 872.32 228.04C872.32 215.42 862.01 205.19 849.29 205.19H829.55C816.83 205.19 806.52 194.96 806.52 182.34C806.52 169.72 816.83 159.49 829.55 159.49H892.07C904.79 159.49 915.1 149.26 915.1 136.64C915.1 124.02 904.79 113.79 892.07 113.79H819.68C832.4 113.79 842.71 103.56 842.71 90.9399C842.71 78.3199 832.4 68.0999 819.67 68.0999H609.1C621.82 68.0999 632.13 57.8699 632.13 45.2499C632.13 32.6299 621.82 22.3999 609.1 22.3999H421.55C408.83 22.3999 398.52 32.6299 398.52 45.2499C398.52 57.8699 408.83 68.0999 421.55 68.0999H289.94C277.22 68.0999 266.91 78.3299 266.91 90.9499C266.91 103.57 277.22 113.8 289.94 113.8H372.2C384.92 113.8 395.23 124.03 395.23 136.65C395.23 149.27 384.92 159.5 372.2 159.5H240.58C227.86 159.5 217.55 169.73 217.55 182.35C217.55 194.97 227.86 205.2 240.58 205.2H368.9C356.18 205.2 345.87 215.43 345.87 228.05C345.87 240.67 356.18 250.89 368.9 250.89ZM905.22 250.89C917.94 250.89 928.25 240.66 928.25 228.04C928.25 215.42 917.94 205.19 905.22 205.19C892.5 205.19 882.19 215.42 882.19 228.04C882.19 240.66 892.5 250.89 905.22 250.89Z" fill="#131335"/>
<mask id="mask0_3861_24773" style="mask-type:luminance" maskUnits="userSpaceOnUse" x="0" y="-1" width="1140" height="301">
<path d="M1140 -0.339844H0V299.13H1140V-0.339844Z" fill="white"/>
</mask>
<g mask="url(#mask0_3861_24773)">
<path d="M1025 259.083C1083.54 259.083 1131 211.625 1131 153.083C1131 94.5403 1083.54 47.0825 1025 47.0825C966.458 47.0825 919 94.5403 919 153.083C919 211.625 966.458 259.083 1025 259.083Z" fill="#131335"/>
<path d="M1092.53 213.533C1137 169.068 1137 96.976 1092.53 52.511C1048.07 8.04597 975.976 8.04597 931.511 52.511C887.046 96.976 887.046 169.068 931.511 213.533C975.976 257.998 1048.07 257.998 1092.53 213.533Z" stroke="#0082FF" stroke-width="2" stroke-miterlimit="10" stroke-linecap="round" stroke-dasharray="12.91 12.91"/>
<path d="M109.5 242.5C165.005 242.5 210 197.505 210 142C210 86.4954 165.005 41.5 109.5 41.5C53.9954 41.5 9 86.4954 9 142C9 197.505 53.9954 242.5 109.5 242.5Z" fill="#131335"/>
<path d="M178.855 230.855C218.04 191.669 218.04 128.137 178.855 88.9517C139.669 49.7662 76.1372 49.7662 36.9516 88.9517C-2.23387 128.137 -2.23387 191.669 36.9516 230.855C76.1371 270.04 139.669 270.04 178.855 230.855Z" stroke="#0082FF" stroke-width="2" stroke-miterlimit="10" stroke-linecap="round" stroke-dasharray="7.03 7.03"/>
</g>
<path d="M674.11 162.85H673.29V234.29L706.41 260.44H707.52V188.93L674.11 162.85Z" fill="#131335" stroke="#0082FF" stroke-width="2" stroke-miterlimit="10" stroke-linecap="round" stroke-linejoin="round"/>
<path d="M817.99 188.93H707.52V260.44H817.99V188.93Z" fill="#1C1C4C" stroke="#0082FF" stroke-width="2" stroke-miterlimit="10" stroke-linecap="round" stroke-linejoin="round"/>
<path d="M817.98 188.93L785.3 162.85H674.11L707.52 188.93H817.98Z" fill="#1C1C4C" stroke="#0082FF" stroke-width="2" stroke-miterlimit="10" stroke-linecap="round" stroke-linejoin="round"/>
<path d="M737.26 162.85H720.02L751.99 188.93H768.67L737.26 162.85Z" fill="#131335" stroke="#0082FF" stroke-width="2" stroke-miterlimit="10" stroke-linecap="round" stroke-linejoin="round"/>
<path d="M768.67 188.93H751.99V207.77H768.67V188.93Z" fill="#131335" stroke="#0082FF" stroke-width="2" stroke-miterlimit="10" stroke-linecap="round" stroke-linejoin="round"/>
<path d="M674.11 172.61L699.96 192.99" stroke="#0082FF" stroke-width="2" stroke-miterlimit="10" stroke-linecap="round" stroke-linejoin="round"/>
<path d="M565.35 59.2402L561.22 71.5602C561.11 71.8802 560.73 72.0602 560.36 71.9602C560.02 71.8502 559.81 71.5102 559.93 71.1602L564.06 58.8402C564.17 58.5202 564.55 58.3402 564.92 58.4402C565.27 58.5502 565.47 58.8902 565.35 59.2402ZM567.93 61.5502L571.6 64.7402C571.74 64.8502 571.83 65.0302 571.83 65.1902C571.83 65.3802 571.74 65.5402 571.6 65.6702L567.93 68.8602C567.64 69.1002 567.21 69.1002 566.95 68.8302C566.69 68.5602 566.69 68.1702 566.98 67.9302L570.11 65.1902L566.98 62.4802C566.69 62.2402 566.69 61.8402 566.95 61.5802C567.22 61.3102 567.65 61.3102 567.93 61.5502ZM558.29 62.4802L555.16 65.1902L558.29 67.9302C558.58 68.1702 558.58 68.5702 558.32 68.8302C558.06 69.1002 557.63 69.1002 557.34 68.8602L553.67 65.6702C553.53 65.5402 553.47 65.3802 553.47 65.1902C553.47 65.0302 553.53 64.8502 553.67 64.7402L557.34 61.5502C557.63 61.3102 558.06 61.3102 558.32 61.5802C558.58 61.8402 558.58 62.2402 558.29 62.4802Z" stroke="#0082FF" stroke-width="0.75"/>
<path d="M489.6 155.45L489.83 155.62H656.2V155.23L608.36 118.59H442.79L489.6 155.45Z" fill="#E8F0FE" stroke="#0082FF" stroke-width="2" stroke-miterlimit="10" stroke-linecap="round" stroke-linejoin="round"/>
<path d="M489.6 155.45V260.1H656.2V155.62H489.83L489.6 155.45Z" fill="#1C1C4C" stroke="#0082FF" stroke-width="2" stroke-miterlimit="10" stroke-linecap="round" stroke-linejoin="round"/>
<path d="M442.79 118.59H441.4L441.29 224.14L489.24 260.1H489.6V155.45L442.79 118.59Z" fill="#131335" stroke="#0082FF" stroke-width="2" stroke-miterlimit="10" stroke-linecap="round" stroke-linejoin="round"/>
<path d="M489.6 245.81H583.53" stroke="#0082FF" stroke-width="2" stroke-miterlimit="10" stroke-linecap="round" stroke-linejoin="round"/>
<path d="M590.06 245.81H611.63" stroke="#0082FF" stroke-width="2" stroke-miterlimit="10" stroke-linecap="round" stroke-linejoin="round" stroke-dasharray="4 4"/>
<path d="M692.8 113.76H692.21V165.25L716.08 184.1H716.87V132.56L692.8 113.76Z" fill="#131335" stroke="#0082FF" stroke-width="2" stroke-miterlimit="10" stroke-linecap="round" stroke-linejoin="round"/>
<path d="M796.48 132.56H716.87V184.1H796.48V132.56Z" fill="#1C1C4C" stroke="#0082FF" stroke-width="2" stroke-miterlimit="10" stroke-linecap="round" stroke-linejoin="round"/>
<path d="M796.49 132.56L772.93 113.76H692.8L716.87 132.56H796.49Z" fill="#1C1C4C" stroke="#0082FF" stroke-width="2" stroke-miterlimit="10" stroke-linecap="round" stroke-linejoin="round"/>
<path d="M738.31 113.76H725.89L748.93 132.56H760.95L738.31 113.76Z" stroke="#0082FF" stroke-width="2" stroke-miterlimit="10"/>
<path d="M760.95 132.56H748.93V157.22H760.95V132.56Z" stroke="#0082FF" stroke-width="2" stroke-miterlimit="10"/>
<path d="M692.21 158.33L710.83 173.02" stroke="#0082FF" stroke-width="2" stroke-miterlimit="10" stroke-linecap="round" stroke-linejoin="round"/>
<path d="M655.91 155.23L702.89 120.54L656.44 84.4404L608.36 118.59L656.12 155.56L655.91 155.23Z" fill="#1C1C4C" stroke="#0082FF" stroke-width="2" stroke-miterlimit="10" stroke-linecap="round" stroke-linejoin="round"/>
<path d="M394.63 152.66L441.4 190.34L489.83 155.62L441.4 118.59L394.63 152.66Z" fill="#1C1C4C" stroke="#0082FF" stroke-width="2" stroke-miterlimit="10" stroke-linecap="round" stroke-linejoin="round"/>
<path d="M656.2 155.621L656.12 155.561L656.16 155.621H656.2Z" stroke="#0082FF" stroke-width="2" stroke-miterlimit="10" stroke-linecap="round" stroke-linejoin="round"/>
<path d="M656.16 155.62L656.12 155.56L608.36 118.59V155.45L656.16 155.62Z" fill="#131335" stroke="#0082FF" stroke-width="2" stroke-miterlimit="10" stroke-linecap="round" stroke-linejoin="round"/>
<path d="M608.36 155.45V118.59H441.4L489.83 155.62L595.12 155.56L608.36 155.45Z" fill="#131335" stroke="#0082FF" stroke-width="2" stroke-miterlimit="10" stroke-linecap="round" stroke-linejoin="round"/>
<path d="M608.36 155.45L595.12 155.56L489.83 155.62L530.96 218.78H696.65L656.16 155.62L608.36 155.45Z" fill="#E8F0FE" stroke="#0082FF" stroke-width="2" stroke-miterlimit="10" stroke-linecap="round" stroke-linejoin="round"/>
<path d="M284.15 162.85H283.32V234.29L316.45 260.44H317.55V188.93L284.15 162.85Z" fill="#131335" stroke="#0082FF" stroke-width="2" stroke-miterlimit="10" stroke-linecap="round" stroke-linejoin="round"/>
<path d="M428.02 188.93H317.55V260.44H428.02V188.93Z" fill="#1C1C4C" stroke="#0082FF" stroke-width="2" stroke-miterlimit="10" stroke-linecap="round" stroke-linejoin="round"/>
<path d="M428.02 188.93L395.33 162.85H284.15L317.55 188.93H428.02Z" fill="#1C1C4C" stroke="#0082FF" stroke-width="2" stroke-miterlimit="10" stroke-linecap="round" stroke-linejoin="round"/>
<path d="M347.29 162.85H330.06L362.03 188.93H378.7L347.29 162.85Z" fill="#131335" stroke="#0082FF" stroke-width="2" stroke-miterlimit="10" stroke-linecap="round" stroke-linejoin="round"/>
<path d="M378.71 188.93H362.03V206.6H378.71V188.93Z" fill="#131335" stroke="#0082FF" stroke-width="2" stroke-miterlimit="10" stroke-linecap="round" stroke-linejoin="round"/>
<path d="M284.15 172.61L309.99 192.99" stroke="#0082FF" stroke-width="2" stroke-miterlimit="10" stroke-linecap="round" stroke-linejoin="round"/>
<path d="M319.03 137.07H318.65V170.29L334.05 182.45H334.56V149.2L319.03 137.07Z" fill="#131335" stroke="#0082FF" stroke-width="2" stroke-miterlimit="10" stroke-linecap="round" stroke-linejoin="round"/>
<path d="M385.92 149.2H334.56V182.45H385.92V149.2Z" fill="#1C1C4C" stroke="#0082FF" stroke-width="2" stroke-miterlimit="10" stroke-linecap="round" stroke-linejoin="round"/>
<path d="M385.92 149.2L370.73 137.07H319.03L334.56 149.2H385.92Z" fill="#E8F0FE" stroke="#0082FF" stroke-width="2" stroke-miterlimit="10" stroke-linecap="round" stroke-linejoin="round"/>
<path d="M348.39 137.07H340.38L355.24 149.2H363L348.39 137.07Z" fill="#0082FF"/>
<path d="M362.99 149.2H355.24V165.11H362.99V149.2Z" fill="#131335" stroke="#0082FF" stroke-width="2" stroke-miterlimit="10" stroke-linecap="round" stroke-linejoin="round"/>
<path d="M318.65 154.62L324.66 159.35" stroke="#0082FF" stroke-width="2" stroke-miterlimit="10" stroke-linecap="round" stroke-linejoin="round"/>
<path d="M319.03 103.55H318.65V136.77L334.05 148.93H334.56V115.68L319.03 103.55Z" fill="#131335" stroke="#0082FF" stroke-width="2" stroke-miterlimit="10" stroke-linecap="round" stroke-linejoin="round"/>
<path d="M385.92 115.68H334.56V148.93H385.92V115.68Z" fill="#1C1C4C" stroke="#0082FF" stroke-width="2" stroke-miterlimit="10" stroke-linecap="round" stroke-linejoin="round"/>
<path d="M385.92 115.68L370.73 103.55H319.03L334.56 115.68H385.92Z" fill="#1C1C4C" stroke="#0082FF" stroke-width="2" stroke-miterlimit="10" stroke-linecap="round" stroke-linejoin="round"/>
<path d="M348.39 103.55H340.38L355.24 115.68H363L348.39 103.55Z" fill="#131335" stroke="#0082FF" stroke-width="2" stroke-miterlimit="10" stroke-linecap="round" stroke-linejoin="round"/>
<path d="M362.99 115.68H355.24V131.59H362.99V115.68Z" fill="#131335" stroke="#0082FF" stroke-width="2" stroke-miterlimit="10" stroke-linecap="round" stroke-linejoin="round"/>
<path d="M318.65 112.92L323.92 117.07" stroke="#0082FF" stroke-width="2" stroke-miterlimit="10" stroke-linecap="round" stroke-linejoin="round"/>
<path d="M370.36 143.11L385.38 143.16" stroke="#0082FF" stroke-width="2" stroke-miterlimit="10" stroke-linecap="round" stroke-linejoin="round"/>
<path d="M335.56 175.86L350.58 175.91" stroke="#0082FF" stroke-width="2" stroke-miterlimit="10" stroke-linecap="round" stroke-linejoin="round"/>
<path d="M386.4 251.45L427.36 251.5" stroke="#0082FF" stroke-width="2" stroke-miterlimit="10" stroke-linecap="round" stroke-linejoin="round"/>
<path d="M370.53 251.45L380.68 251.5" stroke="#0082FF" stroke-width="2" stroke-miterlimit="10" stroke-linecap="round" stroke-linejoin="round"/>
<path d="M342.06 238.81L338.48 235.23L345.66 228.05L338.48 220.87L342.06 217.29L349.24 224.47L356.42 217.29L360 220.87L352.82 228.05L360 235.23L356.42 238.81L349.24 231.63L342.06 238.81ZM349.24 229.89L356.42 237.07L358.26 235.23L351.08 228.05L358.26 220.87L356.42 219.03L349.24 226.21L342.06 219.03L340.22 220.87L347.4 228.05L340.22 235.23L342.06 237.07L349.24 229.89Z" fill="#0082FF"/>
<path d="M394.83 215.8C388.06 215.8 382.57 221.29 382.57 228.06H383.86C383.86 222 388.77 217.09 394.83 217.09V215.8ZM407.08 228.05C407.08 221.28 401.59 215.79 394.83 215.79V217.08C400.89 217.08 405.8 221.99 405.8 228.05H407.08ZM394.83 240.31C401.6 240.31 407.08 234.82 407.08 228.05H405.79C405.79 234.11 400.88 239.02 394.82 239.02V240.31H394.83ZM382.57 228.05C382.57 234.82 388.06 240.31 394.83 240.31V239.02C388.77 239.02 383.86 234.11 383.86 228.05H382.57ZM394.83 220.92C398.77 220.92 401.97 224.12 401.97 228.06H403.26C403.26 223.41 399.48 219.63 394.83 219.63V220.92ZM387.69 228.05C387.69 224.12 390.89 220.91 394.83 220.91V219.62C390.18 219.62 386.4 223.4 386.4 228.05H387.69ZM394.83 235.19C390.89 235.19 387.69 231.99 387.69 228.05H386.4C386.4 232.7 390.18 236.48 394.83 236.48V235.19ZM401.97 228.05C401.97 231.99 398.77 235.19 394.83 235.19V236.48C399.48 236.48 403.26 232.7 403.26 228.05H401.97Z" fill="#0082FF"/>
<path d="M371.15 241.79C369.79 241.79 368.68 240.68 368.68 239.32V220.24L362.82 226.64L359.21 223.27L371.15 210.31L383.12 223.27L379.51 226.64L373.62 220.23V239.32C373.62 240.68 372.51 241.79 371.15 241.79ZM369.92 217.08V239.32C369.92 240 370.47 240.56 371.16 240.56C371.84 240.56 372.4 240.01 372.4 239.32V217.07L379.59 224.89L381.4 223.2L371.16 212.12L360.95 223.2L362.76 224.89L369.92 217.08Z" fill="#0082FF"/>
<path d="M731.41 244L727.83 240.42L735.01 233.24L727.83 226.06L731.41 222.48L738.59 229.66L745.77 222.48L749.35 226.06L742.17 233.24L749.35 240.42L745.77 244L738.59 236.82L731.41 244ZM738.59 235.08L745.77 242.26L747.61 240.42L740.43 233.24L747.61 226.06L745.77 224.22L738.59 231.4L731.41 224.22L729.57 226.06L736.75 233.24L729.57 240.42L731.41 242.26L738.59 235.08Z" fill="#0082FF"/>
<path d="M784.18 220.99C777.41 220.99 771.92 226.48 771.92 233.25H773.21C773.21 227.19 778.12 222.28 784.18 222.28V220.99ZM796.44 233.25C796.44 226.48 790.95 220.99 784.19 220.99V222.28C790.25 222.28 795.16 227.19 795.16 233.25H796.44ZM784.18 245.5C790.95 245.5 796.43 240.01 796.43 233.24H795.14C795.14 239.3 790.23 244.21 784.17 244.21V245.5H784.18ZM771.93 233.25C771.93 240.02 777.42 245.51 784.19 245.51V244.22C778.13 244.22 773.22 239.31 773.22 233.25H771.93ZM784.18 226.11C788.12 226.11 791.32 229.31 791.32 233.25H792.61C792.61 228.6 788.83 224.82 784.18 224.82V226.11ZM777.04 233.25C777.04 229.32 780.24 226.11 784.18 226.11V224.82C779.53 224.82 775.75 228.6 775.75 233.25H777.04ZM784.18 240.38C780.24 240.38 777.04 237.18 777.04 233.24H775.75C775.75 237.89 779.53 241.67 784.18 241.67V240.38ZM791.32 233.25C791.32 237.19 788.12 240.39 784.18 240.39V241.68C788.83 241.68 792.61 237.9 792.61 233.25H791.32Z" fill="#0082FF"/>
<path d="M760.51 246.98C759.15 246.98 758.04 245.87 758.04 244.51V225.43L752.18 231.83L748.57 228.46L760.51 215.5L772.48 228.46L768.87 231.83L762.98 225.42V244.51C762.97 245.88 761.87 246.98 760.51 246.98ZM759.27 222.27V244.51C759.27 245.19 759.82 245.75 760.51 245.75C761.19 245.75 761.75 245.2 761.75 244.51V222.26L768.94 230.08L770.75 228.39L760.51 217.31L750.3 228.39L752.11 230.08L759.27 222.27Z" fill="#0082FF"/>
<path d="M529.69 233.62L524.07 228L535.34 216.73L524.07 205.46L529.69 199.84L540.96 211.11L552.23 199.84L557.85 205.46L546.58 216.73L557.84 228L552.22 233.62L540.95 222.35L529.69 233.62ZM540.96 219.62L552.23 230.89L555.11 228.01L543.84 216.74L555.11 205.47L552.23 202.59L540.96 213.86L529.69 202.59L526.81 205.47L538.08 216.74L526.8 228L529.68 230.88L540.96 219.62Z" fill="#0082FF"/>
<path d="M612.54 197.49C601.91 197.49 593.3 206.1 593.3 216.73H595.32C595.32 207.22 603.03 199.51 612.54 199.51V197.49ZM631.78 216.73C631.78 206.1 623.17 197.49 612.54 197.49V199.51C622.05 199.51 629.76 207.22 629.76 216.73H631.78ZM612.54 235.98C623.17 235.98 631.78 227.36 631.78 216.74H629.76C629.76 226.25 622.05 233.96 612.54 233.96V235.98ZM593.3 216.73C593.3 227.36 601.92 235.97 612.54 235.97V233.95C603.03 233.95 595.32 226.24 595.32 216.73H593.3ZM612.54 205.52C618.72 205.52 623.75 210.55 623.75 216.73H625.77C625.77 209.43 619.84 203.5 612.54 203.5V205.52ZM601.33 216.73C601.33 210.55 606.36 205.52 612.54 205.52V203.5C605.24 203.5 599.31 209.43 599.31 216.73H601.33ZM612.54 227.94C606.36 227.94 601.33 222.91 601.33 216.73H599.31C599.31 224.03 605.24 229.96 612.54 229.96V227.94ZM623.75 216.73C623.75 222.91 618.72 227.94 612.54 227.94V229.96C619.84 229.96 625.77 224.02 625.77 216.73H623.75Z" fill="#0082FF"/>
<path d="M575.37 238.3C573.23 238.3 571.5 236.56 571.5 234.43V204.47L562.3 214.52L556.63 209.24L575.38 188.89L594.18 209.23L588.51 214.51L579.26 204.44V234.42C579.24 236.56 577.5 238.3 575.37 238.3ZM573.43 199.5V234.43C573.43 235.5 574.3 236.37 575.37 236.37C576.44 236.37 577.31 235.5 577.31 234.43V199.5L588.6 211.78L591.44 209.13L575.37 191.73L559.34 209.12L562.18 211.77L573.43 199.5Z" fill="#0082FF"/>
<path d="M510.7 88.2704V156.37C510.7 161.23 514.64 165.18 519.51 165.18H609.33C614.19 165.18 618.14 161.24 618.14 156.37V88.2704C618.14 83.4104 614.2 79.4604 609.33 79.4604H519.5C514.64 79.4604 510.7 83.4104 510.7 88.2704Z" fill="#0A0527" stroke="#0082FF" stroke-width="2" stroke-miterlimit="10" stroke-linecap="round" stroke-linejoin="round"/>
<path fill-rule="evenodd" clip-rule="evenodd" d="M507.76 176.22C502.57 176.22 498.37 172.01 498.37 166.83V99.9003C498.37 94.7103 502.58 90.5103 507.76 90.5103H510.11V156.41C510.11 161.6 514.32 165.8 519.5 165.8H606.98V166.83C606.98 172.02 602.77 176.22 597.59 176.22H507.76Z" fill="#003A7F"/>
<path d="M498.96 98.8403V166.94C498.96 171.8 502.9 175.75 507.77 175.75H597.59C602.45 175.75 606.4 171.81 606.4 166.94V98.8403C606.4 93.9803 602.46 90.0303 597.59 90.0303H507.77C502.9 90.0303 498.96 93.9703 498.96 98.8403Z" stroke="#2B80FC" stroke-width="2"/>
<path d="M568.32 110.84L569.72 109.45H565.67C565.47 109.45 565.31 109.27 565.31 109.06C565.31 108.84 565.47 108.67 565.67 108.67H569.72L568.33 107.29L568.83 106.72L571.19 109.07L568.83 111.42L568.32 110.84Z" fill="#0082FF"/>
<path d="M562.65 109.071C562.65 109.881 561.99 110.541 561.18 110.541H527.13C526.32 110.541 525.66 109.881 525.66 109.071C525.66 108.261 526.32 107.601 527.13 107.601H561.18C562 107.601 562.65 108.261 562.65 109.071Z" fill="#0A0527" fill-opacity="0.5" stroke="#0C69FF" stroke-width="0.5"/>
<path d="M520.01 110.84L518.62 109.45H522.67C522.87 109.45 523.03 109.27 523.03 109.06C523.03 108.84 522.87 108.67 522.67 108.67H518.62L520.01 107.29L519.52 106.72L517.16 109.07L519.52 111.42L520.01 110.84Z" fill="#0082FF"/>
<path d="M596.71 132.3V156.96C596.71 157.45 596.32 157.84 595.83 157.84H572.35C571.86 157.84 571.47 157.45 571.47 156.96V132.3C571.47 131.81 571.86 131.42 572.35 131.42H595.83C596.31 131.42 596.71 131.81 596.71 132.3Z" fill="#0A0527" fill-opacity="0.5" stroke="#0C69FF" stroke-width="0.5"/>
<path d="M583.79 145.51C586.386 145.51 588.49 143.406 588.49 140.81C588.49 138.215 586.386 136.11 583.79 136.11C581.194 136.11 579.09 138.215 579.09 140.81C579.09 143.406 581.194 145.51 583.79 145.51Z" fill="#0A0527" stroke="#0C69FF" stroke-width="0.5"/>
<path d="M591.42 148.45C591.42 149.1 590.89 149.62 590.25 149.62H577.33C576.68 149.62 576.16 149.09 576.16 148.45C576.16 147.8 576.69 147.28 577.33 147.28H590.25C590.9 147.27 591.42 147.8 591.42 148.45Z" fill="#0A0527" stroke="#0C69FF" stroke-width="0.5"/>
<path d="M591.42 152.56C591.42 153.21 590.89 153.73 590.25 153.73H577.33C576.68 153.73 576.16 153.2 576.16 152.56C576.16 151.91 576.69 151.39 577.33 151.39H590.25C590.9 151.38 591.42 151.91 591.42 152.56Z" fill="#0A0527" stroke="#0C69FF" stroke-width="0.5"/>
<path d="M539.76 135.53C542.356 135.53 544.46 133.426 544.46 130.83C544.46 128.235 542.356 126.13 539.76 126.13C537.164 126.13 535.06 128.235 535.06 130.83C535.06 133.426 537.164 135.53 539.76 135.53Z" fill="#0A0527" fill-opacity="0.5" stroke="#0C69FF" stroke-width="0.5"/>
<path d="M531.54 128.78C531.54 129.27 531.15 129.66 530.66 129.66H497.78C497.29 129.66 496.9 129.27 496.9 128.78C496.9 128.29 497.29 127.9 497.78 127.9H530.66C531.14 127.9 531.54 128.29 531.54 128.78Z" fill="#0A0527" fill-opacity="0.5" stroke="#0C69FF" stroke-width="0.5"/>
<path d="M531.54 132.89C531.54 133.38 531.15 133.77 530.66 133.77H515.98C515.49 133.77 515.1 133.38 515.1 132.89C515.1 132.4 515.49 132.01 515.98 132.01H530.66C531.14 132.01 531.54 132.4 531.54 132.89Z" fill="#0A0527" fill-opacity="0.5" stroke="#0C69FF" stroke-width="0.5"/>
<path d="M549.74 123.49V137.58C549.74 138.07 549.35 138.46 548.86 138.46H493.09C492.6 138.46 492.21 138.07 492.21 137.58V123.49C492.21 123 492.6 122.61 493.09 122.61H548.86C549.34 122.61 549.74 123.01 549.74 123.49Z" stroke="#0C69FF" stroke-width="0.5"/>
<path d="M591.42 107.011C594.662 107.011 597.29 104.382 597.29 101.141C597.29 97.8986 594.662 95.2705 591.42 95.2705C588.178 95.2705 585.55 97.8986 585.55 101.141C585.55 104.382 588.178 107.011 591.42 107.011Z" fill="#0A0527" fill-opacity="0.5" stroke="#0C69FF" stroke-width="0.5"/>
<path d="M540.63 151.381C541.77 151.381 542.7 152.311 542.7 153.451H543.29C543.29 151.981 542.1 150.801 540.64 150.801V151.381H540.63ZM538.56 153.451C538.56 152.311 539.49 151.381 540.63 151.381V150.791C539.16 150.791 537.98 151.981 537.98 153.441H538.56V153.451ZM540.63 155.521C539.49 155.521 538.56 154.591 538.56 153.451H537.97C537.97 154.921 539.16 156.101 540.62 156.101V155.521H540.63ZM542.69 153.451C542.69 154.591 541.76 155.521 540.62 155.521V156.111C542.09 156.111 543.27 154.921 543.27 153.461H542.69V153.451ZM540.63 151.571C539.6 151.571 538.75 152.411 538.75 153.451H539.34C539.34 152.741 539.92 152.161 540.63 152.161V151.571ZM542.5 153.451C542.5 152.421 541.66 151.571 540.62 151.571V152.161C541.33 152.161 541.91 152.741 541.91 153.451H542.5ZM540.63 155.321C541.67 155.321 542.51 154.481 542.51 153.441H541.92C541.92 154.151 541.34 154.731 540.63 154.731V155.321ZM538.75 153.451C538.75 154.491 539.59 155.331 540.63 155.331V154.741C539.92 154.741 539.34 154.161 539.34 153.451H538.75Z" fill="#0C69FF"/>
<path d="M590.91 100.63V97.9204H591.93V100.63H594.64V101.65H591.93V104.36H590.91V101.65H588.2V100.63H590.91Z" fill="#0082FF"/>
<path d="M608.36 155.45L595.12 155.56L489.83 155.62L530.96 218.78H696.65L656.16 155.62L608.36 155.45Z" fill="#1C1C4C" stroke="#0082FF" stroke-width="2" stroke-miterlimit="10" stroke-linecap="round" stroke-linejoin="round"/>
<path d="M665.39 82.27C667.06 82.27 668.41 80.93 668.41 79.28C668.41 77.63 667.06 76.29 665.39 76.29C663.72 76.29 662.37 77.63 662.37 79.28C662.37 80.93 663.72 82.27 665.39 82.27Z" stroke="#0082FF" stroke-width="2" stroke-linecap="round" stroke-linejoin="round"/>
<path d="M624.59 86.5903L633 94.9303M633.12 86.5903L624.71 94.9303" stroke="#0082FF" stroke-width="2" stroke-linecap="round" stroke-linejoin="round"/>
<path d="M480.59 105.79L486.44 111.59M486.53 105.79L480.68 111.59" stroke="#0082FF" stroke-width="2" stroke-linecap="round" stroke-linejoin="round"/>
<path d="M491.78 88.1504C493.45 88.1504 494.8 86.8104 494.8 85.1604C494.8 83.5104 493.45 82.1704 491.78 82.1704C490.11 82.1704 488.76 83.5104 488.76 85.1604C488.76 86.8104 490.12 88.1504 491.78 88.1504Z" stroke="#0082FF" stroke-width="2" stroke-linecap="round" stroke-linejoin="round"/>
<path d="M242.7 215.8H134.52" stroke="#0082FF" stroke-width="2" stroke-miterlimit="10" stroke-linecap="round" stroke-linejoin="round"/>
<path d="M283.32 215.8H280.82" stroke="#0082FF" stroke-width="2" stroke-linecap="round" stroke-linejoin="round"/>
<path d="M276.37 215.8H251.86" stroke="#0082FF" stroke-width="2" stroke-linecap="round" stroke-linejoin="round" stroke-dasharray="4.46 4.46"/>
<path d="M249.64 215.8H247.14" stroke="#0082FF" stroke-width="2" stroke-linecap="round" stroke-linejoin="round"/>
<path d="M697.77 40.4297H835.94" stroke="#0082FF" stroke-width="2" stroke-miterlimit="10" stroke-linecap="round" stroke-linejoin="round"/>
<path d="M675.1 31.0601H892.39" stroke="#0082FF" stroke-width="2" stroke-linecap="round" stroke-linejoin="round"/>
<path d="M885.77 39.2399L884.4 37.7799L891.63 31.0599L884.4 24.3499L885.77 22.8799L894.56 31.0599L885.77 39.2399Z" fill="#0082FF"/>
<path d="M653.11 40.4297H684.73" stroke="#0082FF" stroke-width="2" stroke-miterlimit="10" stroke-linecap="round" stroke-linejoin="round"/>
<path d="M235.24 80.5801H333.14" stroke="#0082FF" stroke-width="2" stroke-linecap="round" stroke-linejoin="round"/>
<path d="M326.51 88.7599L325.15 87.2899L332.37 80.5799L325.15 73.8699L326.51 72.3999L335.31 80.5799L326.51 88.7599Z" fill="#0082FF"/>
<path d="M619.16 31.0601H621.66" stroke="#0082FF" stroke-width="2" stroke-linecap="round" stroke-linejoin="round"/>
<path d="M626.29 31.0601H670.28" stroke="#0082FF" stroke-width="2" stroke-linecap="round" stroke-linejoin="round" stroke-dasharray="4.63 4.63"/>
<path d="M672.6 31.0601H675.1" stroke="#0082FF" stroke-width="2" stroke-linecap="round" stroke-linejoin="round"/>
<path d="M177.54 80.5801H180.04" stroke="#0082FF" stroke-width="2" stroke-linecap="round" stroke-linejoin="round"/>
<path d="M185.44 80.5801H225.93" stroke="#0082FF" stroke-width="2" stroke-linecap="round" stroke-linejoin="round" stroke-dasharray="5.4 5.4"/>
<path d="M228.63 80.5801H231.13" stroke="#0082FF" stroke-width="2" stroke-linecap="round" stroke-linejoin="round"/>
<path d="M778.83 278.4H615.93" stroke="#0082FF" stroke-width="2" stroke-miterlimit="10" stroke-linecap="round" stroke-linejoin="round"/>
<path d="M872.76 278.4H870.26" stroke="#0082FF" stroke-width="2" stroke-linecap="round" stroke-linejoin="round"/>
<path d="M865.42 278.4H790.43" stroke="#0082FF" stroke-width="2" stroke-linecap="round" stroke-linejoin="round" stroke-dasharray="4.84 4.84"/>
<path d="M788.01 278.4H785.51" stroke="#0082FF" stroke-width="2" stroke-linecap="round" stroke-linejoin="round"/>
</g>
<defs>
<clipPath id="clip0_3861_24773">
<rect width="1140" height="300" fill="white"/>
</clipPath>
</defs>
</svg>
