<svg width="46" height="58" viewBox="0 0 46 58" fill="none" xmlns="http://www.w3.org/2000/svg">
<path d="M5.33961 23.3639L7.84157 24.5567L8.48229 23.3639L7.31856 20.6582L8.94778 15.9451L14.3009 13.9959L19.2468 17.3998L25.6473 17.167L26.6655 15.9451L29.7203 14.2286L33.9679 14.4905L37.4882 18.5635L37.1973 22.6947L41.9685 23.8003L44.5287 21.8219L45.0524 18.0689L42.5213 15.276H39.7575L34.2879 11.2902L18.5194 9.83557L6.76579 11.7848L4.87473 13.5595L3.82715 20.1345L5.33961 23.3639Z" fill="white"/>
<path d="M9.16016 7.07789L6.99512 11.5913L13.2331 10.4537L20.7186 10.0868L30.427 10.8014L35.7416 12.4924L38.1849 17.609L39.5792 16.8751V14.9304L37.7812 10.6372L33.5248 5.39L26.8465 1.20691L20.315 0.509766L14.5908 2.4545L9.16016 7.07789Z" fill="#D74836"/>
<path d="M22.568 0C25.3429 3.45337e-06 28.0675 1.07653 30.4889 2.66406C32.9126 4.25322 35.063 6.3736 36.6988 8.5127C38.3284 10.6437 39.4794 12.8351 39.859 14.5771C40.0476 15.4431 40.0607 16.2656 39.776 16.9219C39.5435 17.4577 39.1321 17.8345 38.5729 18.0303C38.8033 18.9324 38.9286 19.6062 38.7604 20.2939C38.5677 21.0811 38.0052 21.8357 37.0709 23.0215L36.6774 22.7129L36.2848 22.4033C37.2622 21.1627 37.6593 20.5891 37.7897 20.0566C37.9149 19.5449 37.8057 19.0229 37.4791 17.791C37.1591 16.5843 36.8882 14.9209 36.2535 14.0182C35.6085 13.1008 34.9243 12.4918 34.3795 12.273C34.2743 12.2308 34.167 12.1891 34.0582 12.148C30.3708 10.7557 24.5079 10.6074 19.4117 10.6074C17.1113 10.6074 14.4776 10.8755 12.1441 11.248C9.8026 11.6219 7.80271 12.0949 6.75743 12.4902C6.485 12.5933 6.11627 12.9704 6.0172 13.0356C5.82838 13.1599 5.57868 13.4914 5.32286 14.0698C5.07728 14.6251 5.04725 15.0429 4.87267 15.8164C4.52182 17.3709 4.36996 19.1145 4.51524 20.3193C4.66087 21.5263 5.00875 22.2515 5.46642 22.748C5.9332 23.2543 6.56013 23.576 7.37657 23.8936L7.19591 24.3594L7.01427 24.8252C6.16548 24.4951 5.35888 24.1068 4.73106 23.4258C4.09399 22.7346 3.68636 21.7929 3.52306 20.4395C3.35951 19.0839 3.53084 17.2183 3.89708 15.5957C4.08102 14.7808 4.12914 14.2967 4.4088 13.6645C4.67823 13.0555 5.02319 12.4927 5.46642 12.2006C5.60913 12.1066 5.97988 11.7264 6.18517 11.6406C6.70136 10.2393 8.07701 7.45991 10.569 4.96777C13.21 2.32661 17.1157 0 22.568 0ZM22.568 1C17.4323 1 13.7692 3.1815 11.276 5.6748C9.30562 7.64533 8.07227 9.80602 7.43907 11.2188C8.6158 10.8836 10.2236 10.5423 11.9869 10.2607C14.3548 9.88268 17.0432 9.60745 19.4117 9.60742C24.1076 9.60742 29.5589 9.64847 33.3522 10.8492C32.7049 8.88085 30.6409 7.40721 30.7926 7.27444C31.3933 6.74864 34.0878 9.84933 34.6256 11.2955C34.668 11.3122 34.7106 11.3284 34.7525 11.3453C35.5602 11.6697 36.3813 12.4621 37.0709 13.443C37.6868 14.319 37.9468 15.9121 38.3082 17.0605C38.5857 16.9462 38.7551 16.7608 38.858 16.5234C39.0222 16.1448 39.0505 15.5659 38.8815 14.79C38.5455 13.248 37.489 11.1916 35.9049 9.12012C34.3271 7.05692 32.2569 5.0195 29.941 3.50098C27.6226 1.98084 25.0871 1 22.568 1Z" fill="#8F2E20"/>
<path d="M39.3486 14.8678C41.5449 14.2355 43.2206 14.7539 44.2734 15.9098C45.2982 17.0351 45.6564 18.6832 45.4287 20.1881C45.2005 21.6967 44.3673 23.1608 42.8867 23.8551C41.3957 24.5544 39.3923 24.4073 36.9668 22.9977L37.4688 22.1334C39.725 23.4447 41.3702 23.4609 42.4619 22.9489C43.5641 22.4319 44.2482 21.3092 44.4404 20.0387C44.6332 18.7646 44.3146 17.4406 43.5342 16.5836C42.7817 15.7573 41.523 15.2823 39.625 15.8287L39.4873 15.3483L39.3486 14.8678Z" fill="#8F2E20"/>
<path fill-rule="evenodd" clip-rule="evenodd" d="M31.3312 15.1824C29.7203 15.1824 28.6802 15.7352 27.9787 16.3455C27.2299 16.9968 26.9183 17.6303 26.5753 18.0496C26.3192 18.3626 25.9647 18.4549 25.6456 18.4646C25.3399 18.4739 24.9992 18.4106 24.6759 18.3406C23.9926 18.1926 23.2588 17.991 22.4474 17.991V17.9861L22.4455 17.991C21.6341 17.991 20.9003 18.1926 20.2169 18.3406C19.8937 18.4106 19.553 18.4739 19.2472 18.4646C18.9282 18.4549 18.5737 18.3626 18.3175 18.0496C17.9745 17.6303 17.663 16.9968 16.9142 16.3455C16.2126 15.7352 15.1726 15.1824 13.5617 15.1824C11.9795 15.1824 10.715 15.8899 9.82631 16.7791C8.91924 17.6868 8.46214 18.7228 8.42592 19.2888C8.33662 20.688 8.32405 21.8656 8.99428 22.9294C9.16403 23.1988 9.0622 23.4752 9.01674 23.5808C8.96011 23.7123 8.87174 23.847 8.78823 23.9656C8.70143 24.0888 8.59248 24.2319 8.48256 24.3796C8.36992 24.531 8.24835 24.6969 8.12319 24.8796C7.62323 25.6096 7.07382 26.6027 6.90834 27.8923C6.60486 30.2595 5.94827 34.2435 5.30385 36.4441C4.26065 40.0061 3.10728 41.762 2.24038 43.0066C1.80443 43.6325 1.48636 44.0705 1.27456 44.5398C1.07405 44.9841 0.968408 45.4641 1.00991 46.1492C1.06997 47.1377 1.58631 47.7564 2.37416 48.1531C3.08923 48.513 4.01874 48.6803 4.98745 48.7166L5.40444 48.7244C5.7059 48.7244 5.92188 48.8868 6.05385 49.073C6.16921 49.2358 6.23562 49.4338 6.28139 49.6013C6.32918 49.7763 6.37001 49.9796 6.4103 50.1765C6.45194 50.38 6.49511 50.5908 6.55092 50.8064C6.77336 51.6656 7.16776 52.5229 8.23061 52.9539C8.98489 53.2597 9.52174 53.378 9.93569 53.4021C10.3418 53.4257 10.6562 53.361 10.9748 53.2595C11.6271 53.0516 12.3928 52.6365 13.7824 52.7458C14.6021 52.8104 15.2666 53.154 15.8615 53.5886C16.4323 54.0057 17.0111 54.5671 17.5724 55.0457C18.7233 56.0269 20.0932 56.944 22.4435 56.9441C24.794 56.9441 26.1652 56.027 27.3175 55.0457C27.8795 54.5671 28.4591 54.0057 29.0304 53.5886C29.6257 53.154 30.2908 52.8103 31.1105 52.7458C32.5001 52.6365 33.2658 53.0516 33.9181 53.2595C34.2366 53.361 34.5511 53.4257 34.9572 53.4021C35.3711 53.378 35.908 53.2597 36.6623 52.9539C37.7251 52.5228 38.1195 51.6656 38.3419 50.8064C38.3977 50.5908 38.4409 50.38 38.4826 50.1765C38.5228 49.9796 38.5637 49.7763 38.6115 49.6013C38.6572 49.4338 38.7236 49.2358 38.839 49.073C38.971 48.8868 39.187 48.7244 39.4884 48.7244L39.9054 48.7166C40.8741 48.6803 41.8036 48.513 42.5187 48.1531C43.3065 47.7564 43.8229 47.1377 43.883 46.1492C43.9245 45.4641 43.8188 44.9841 43.6183 44.5398C43.4065 44.0705 43.0884 43.6325 42.6525 43.0066C41.7856 41.762 40.6322 40.0061 39.589 36.4441C38.9446 34.2435 38.288 30.2595 37.9845 27.8923C37.819 26.6027 37.2696 25.6096 36.7697 24.8796C36.6445 24.6969 36.5229 24.531 36.4103 24.3796C36.3004 24.2319 36.1914 24.0888 36.1046 23.9656C36.0211 23.847 35.9328 23.7123 35.8761 23.5808C35.8307 23.4752 35.7288 23.1989 35.8986 22.9294C36.5688 21.8656 36.5562 20.688 36.4669 19.2888C36.4307 18.7228 35.9736 17.6868 35.0665 16.7791C34.1779 15.8899 32.9134 15.1824 31.3312 15.1824Z" fill="#9CBF67"/>
<path d="M22.4993 26.3716C25.0007 26.3718 26.5019 27.3834 28.5032 27.3834C30.5041 27.3833 31.5048 26.3719 32.0051 27.3834C32.9481 29.2907 27.8054 35.4791 22.4993 35.4791C17.0318 35.4791 12.0494 29.2907 12.9924 27.3834C13.4928 26.3719 14.4934 27.3833 16.4944 27.3834C18.4957 27.3834 19.9976 26.3716 22.4993 26.3716Z" fill="black"/>
<path d="M26.6915 32.9913C26.8733 33.4909 24.2563 34.3446 22.5085 34.3446C20.5414 34.3446 18.2718 33.4909 18.4536 32.9913C18.6355 32.4918 19.5266 31.3293 22.5085 31.3293C25.431 31.3293 26.5096 32.4918 26.6915 32.9913Z" fill="#DA7759"/>
<circle cx="31.4092" cy="20.3277" r="2.63281" fill="black"/>
<circle cx="13.6016" cy="20.3277" r="2.63281" fill="black"/>
<ellipse cx="20.5278" cy="23.8318" rx="0.659668" ry="0.821625" fill="black"/>
<ellipse cx="24.3647" cy="23.8318" rx="0.659668" ry="0.821625" fill="black"/>
<path d="M5.64654 49.3782C5.57684 49.8091 5.66398 50.5585 5.99967 49.7622C8.24433 44.4374 10.2466 36.1859 9.07714 35.9521C8.20021 35.7768 8.8387 39.6664 4.79883 49.1098L4.96217 49.0551L5.64654 49.3782Z" fill="#7F9D56"/>
<path d="M14.3458 53.3416C14.333 53.7779 14.6678 53.9613 14.7461 53.6761C16.2756 48.1037 17.1823 39.6612 15.9924 39.5823C15.1 39.5231 16.2414 43.2959 13.4703 53.1863L13.6251 53.1107L14.3458 53.3416Z" fill="#7F9D56"/>
<path d="M39.6005 49.3782C39.6702 49.8091 39.5831 50.5585 39.2474 49.7622C37.0027 44.4374 35.0005 36.1859 36.1699 35.9521C37.0469 35.7768 36.4084 39.6664 40.4482 49.1098L40.2849 49.0551L39.6005 49.3782Z" fill="#7F9D56"/>
<path d="M30.9012 53.3416C30.914 53.7779 30.5792 53.9613 30.501 53.6761C28.9714 48.1037 28.0648 39.6612 29.2547 39.5823C30.147 39.5231 29.0057 43.2959 31.7768 53.1863L31.622 53.1107L30.9012 53.3416Z" fill="#7F9D56"/>
<path fill-rule="evenodd" clip-rule="evenodd" d="M31.331 14.1824C33.2323 14.1824 34.739 15.037 35.7734 16.072C36.7891 17.0883 37.4081 18.3393 37.4648 19.2244C37.5493 20.5477 37.5986 21.9638 36.8496 23.281C36.8683 23.3101 36.8915 23.3463 36.9219 23.3894C36.9988 23.4986 37.094 23.6245 37.2119 23.783C37.3271 23.9378 37.4585 24.1162 37.5947 24.3152C38.1405 25.1122 38.7831 26.2568 38.9766 27.7654C39.2789 30.1237 39.9277 34.042 40.5488 36.1628C41.5538 39.5945 42.6499 41.2527 43.4736 42.4353C43.8829 43.0229 44.2707 43.5527 44.5303 44.1277C44.8011 44.7277 44.9326 45.3713 44.8818 46.2097C44.7965 47.6143 44.0155 48.5182 42.9678 49.0457C41.9874 49.5392 40.7674 49.7092 39.6221 49.7214C39.6094 49.7547 39.5936 49.8013 39.5762 49.865C39.5388 50.0017 39.5047 50.1687 39.4619 50.3777C39.4205 50.5801 39.3725 50.8131 39.3096 51.0564C39.0565 52.0341 38.5367 53.2729 37.0381 53.8806C36.217 54.2135 35.5699 54.3689 35.0146 54.4011C34.4514 54.4338 34.0109 54.3381 33.6142 54.2117C32.8363 53.9637 32.3269 53.6534 31.1885 53.7429C30.6205 53.7877 30.1313 54.023 29.6201 54.3962C29.0849 54.787 28.6045 55.2625 27.9658 55.8064C26.7166 56.8702 25.1227 57.9441 22.4433 57.9441C19.7642 57.944 18.1717 56.8703 16.9238 55.8064C16.2858 55.2624 15.8062 54.787 15.2715 54.3962C14.7608 54.0231 14.272 53.7877 13.7041 53.7429C12.5656 53.6533 12.0562 53.9637 11.2783 54.2117C10.8817 54.3381 10.4411 54.4338 9.87792 54.4011C9.32267 54.3689 8.67555 54.2136 7.85448 53.8806C6.35578 53.2729 5.83608 52.0341 5.583 51.0564C5.52004 50.8131 5.47207 50.5801 5.43065 50.3777C5.38788 50.1687 5.35374 50.0017 5.31639 49.865C5.29899 49.8013 5.28319 49.7547 5.2705 49.7214C4.12515 49.7092 2.90515 49.5392 1.92479 49.0457C0.877042 48.5182 0.0960163 47.6143 0.0107298 46.2097C-0.0400606 45.3713 0.0914936 44.7277 0.362292 44.1277C0.621858 43.5527 1.00967 43.0229 1.41893 42.4353C2.24269 41.2527 3.33874 39.5944 4.34374 36.1628C4.96482 34.042 5.61366 30.1237 5.916 27.7654C6.10949 26.2568 6.75202 25.1122 7.29784 24.3152C7.43409 24.1163 7.56544 23.9378 7.68065 23.783C7.79854 23.6245 7.8938 23.4985 7.97069 23.3894C8.00102 23.3463 8.02429 23.3101 8.04296 23.281C7.29396 21.9638 7.34325 20.5477 7.42772 19.2244C7.48441 18.3393 8.10347 17.0883 9.11913 16.072C10.1536 15.037 11.6603 14.1824 13.5615 14.1824C15.4337 14.1824 16.7033 14.8355 17.5713 15.5906C18.3917 16.3043 18.9102 17.1959 19.0908 17.4167C19.0965 17.4237 19.1209 17.4608 19.2773 17.4656C19.447 17.4707 19.6787 17.4336 20.0049 17.363C20.6212 17.2296 21.4969 16.991 22.4453 16.991L22.4473 16.9939V16.991C23.3957 16.991 24.2714 17.2296 24.8877 17.363C25.2139 17.4336 25.4456 17.4707 25.6152 17.4656C25.7717 17.4608 25.7961 17.4237 25.8017 17.4167C25.9824 17.1958 26.5009 16.3043 27.3213 15.5906C28.1892 14.8355 29.4589 14.1824 31.331 14.1824ZM31.331 15.1824C29.7201 15.1824 28.6801 15.7352 27.9785 16.3455C27.2298 16.9968 26.9182 17.6303 26.5752 18.0496C26.319 18.3626 25.9645 18.4549 25.6455 18.4646C25.3397 18.4739 24.9991 18.4106 24.6758 18.3406C23.9924 18.1926 23.2587 17.991 22.4473 17.991V17.9861L22.4453 17.991C21.6339 17.991 20.9001 18.1926 20.2168 18.3406C19.8935 18.4106 19.5528 18.4739 19.2471 18.4646C18.928 18.4549 18.5735 18.3626 18.3174 18.0496C17.9744 17.6303 17.6628 16.9968 16.9141 16.3455C16.2125 15.7352 15.1725 15.1824 13.5615 15.1824C11.9793 15.1824 10.7148 15.8899 9.82616 16.7791C8.91908 17.6868 8.46198 18.7228 8.42577 19.2888C8.33647 20.688 8.32389 21.8656 8.99413 22.9294C9.16387 23.1988 9.06205 23.4752 9.01659 23.5808C8.95996 23.7123 8.87159 23.847 8.78807 23.9656C8.70128 24.0888 8.59232 24.2319 8.48241 24.3796C8.36977 24.531 8.24819 24.6969 8.12303 24.8796C7.62308 25.6096 7.07366 26.6027 6.90819 27.8923C6.60471 30.2595 5.94812 34.2435 5.3037 36.4441C4.2605 40.0061 3.10713 41.762 2.24022 43.0066C1.80428 43.6325 1.4862 44.0705 1.2744 44.5398C1.0739 44.9841 0.968255 45.4641 1.00975 46.1492C1.06981 47.1377 1.58616 47.7564 2.37401 48.1531C3.08907 48.513 4.01859 48.6803 4.98729 48.7166L5.40428 48.7244C5.70574 48.7244 5.92172 48.8868 6.0537 49.073C6.16905 49.2358 6.23547 49.4338 6.28124 49.6013C6.32902 49.7763 6.36986 49.9796 6.41014 50.1765C6.45178 50.38 6.49496 50.5908 6.55077 50.8064C6.77321 51.6656 7.1676 52.5229 8.23046 52.9539C8.98474 53.2597 9.52159 53.378 9.93553 53.4021C10.3416 53.4257 10.6561 53.361 10.9746 53.2595C11.6269 53.0516 12.3926 52.6365 13.7822 52.7458C14.602 52.8104 15.2665 53.154 15.8613 53.5886C16.4322 54.0057 17.011 54.5671 17.5723 55.0457C18.7232 56.0269 20.0931 56.944 22.4433 56.9441C24.7938 56.9441 26.165 56.027 27.3174 55.0457C27.8793 54.5671 28.459 54.0057 29.0303 53.5886C29.6256 53.154 30.2906 52.8103 31.1103 52.7458C32.4999 52.6365 33.2656 53.0516 33.918 53.2595C34.2365 53.361 34.5509 53.4257 34.957 53.4021C35.371 53.378 35.9078 53.2597 36.6621 52.9539C37.7249 52.5228 38.1194 51.6656 38.3418 50.8064C38.3976 50.5908 38.4408 50.38 38.4824 50.1765C38.5227 49.9796 38.5635 49.7763 38.6113 49.6013C38.6571 49.4338 38.7235 49.2358 38.8389 49.073C38.9708 48.8868 39.1868 48.7244 39.4883 48.7244L39.9053 48.7166C40.874 48.6803 41.8035 48.513 42.5185 48.1531C43.3064 47.7564 43.8227 47.1377 43.8828 46.1492C43.9243 45.4641 43.8187 44.9841 43.6182 44.5398C43.4064 44.0705 43.0883 43.6325 42.6523 43.0066C41.7854 41.762 40.6321 40.0061 39.5889 36.4441C38.9444 34.2435 38.2878 30.2595 37.9844 27.8923C37.8189 26.6027 37.2695 25.6096 36.7695 24.8796C36.6444 24.6969 36.5228 24.531 36.4101 24.3796C36.3002 24.2319 36.1913 24.0888 36.1045 23.9656C36.021 23.847 35.9326 23.7123 35.876 23.5808C35.8305 23.4752 35.7287 23.1989 35.8984 22.9294C36.5686 21.8656 36.5561 20.688 36.4668 19.2888C36.4306 18.7228 35.9735 17.6868 35.0664 16.7791C34.1777 15.8899 32.9132 15.1824 31.331 15.1824Z" fill="black"/>
<path d="M31.8027 13.4699C33.2617 13.514 34.7336 14.0072 35.9111 15.1506C37.0878 16.2933 37.9258 18.0419 38.2021 20.5149C38.2328 20.7893 38.0213 21.395 37.7469 21.4257C37.4725 21.4563 37.5119 20.7893 37.4812 20.5149C37.2238 18.2111 36.1857 16.8113 35.2148 15.8684C34.245 14.9265 33.0249 14.5078 31.7725 14.4699C30.5143 14.432 29.2368 14.7803 28.1953 15.3576C27.1452 15.9399 26.3918 16.7213 26.1016 17.5031C25.9951 17.7901 25.6778 17.9348 25.3926 17.8313C23.7304 17.2283 21.3185 17.2464 19.3359 17.8479C19.0952 17.9208 18.8526 17.8202 18.7227 17.6369C17.47 15.8676 16.0032 14.957 14.5869 14.6526C13.1664 14.3473 11.7553 14.6422 10.5957 15.3567C8.28263 16.7819 6.98211 19.866 8.71191 23.1526C8.87103 23.4549 8.824 23.7705 8.7207 24.0051C8.61778 24.2386 8.44228 24.4399 8.24609 24.5881C7.8821 24.863 7.21532 25.0939 6.67188 24.6281L6.99707 24.2492L7.32227 23.8694C7.34328 23.8874 7.36673 23.8973 7.41602 23.8918C7.4756 23.8851 7.55911 23.854 7.64355 23.7903C7.72855 23.726 7.78304 23.6531 7.80566 23.6018C7.80832 23.5958 7.80909 23.5902 7.81055 23.5862C5.84582 19.8168 7.34636 16.1841 10.0713 14.5051C11.4345 13.6652 13.1069 13.3118 14.7969 13.675C16.4154 14.0229 18.0109 15.0204 19.3506 16.8039C21.2896 16.2783 23.5688 16.2371 25.3379 16.7619C25.8075 15.847 26.6791 15.0552 27.71 14.4836C28.8948 13.8267 30.3493 13.4261 31.8027 13.4699Z" fill="#8E2E21"/>
</svg>
