<svg width="125" height="35" viewBox="0 0 125 35" fill="none" xmlns="http://www.w3.org/2000/svg">
<path d="M46.4174 22H45.0894V17.104H38.8494V22H37.5214V11.328H38.8494V15.92H45.0894V11.328H46.4174V22Z" fill="#242B42"/>
<path d="M52.8801 22H51.5521V12.512H48.1761V11.328H56.2721V12.512H52.8801V22Z" fill="#242B42"/>
<path d="M68.4851 22H67.1571V13.024L63.5411 22H62.9971L59.3651 13.024V22H58.0371V11.328H59.9411L63.2691 19.552L66.5811 11.328H68.4851V22Z" fill="#242B42"/>
<path d="M77.0866 22H70.7986V11.328H72.1266V20.816H77.0866V22Z" fill="#242B42"/>
<path d="M91.5658 22H89.9018C89.5818 21.728 89.1658 21.312 88.7338 20.88C87.9498 21.664 86.9578 22.192 85.6618 22.192C83.8378 22.192 82.3498 21.184 82.3498 19.216C82.3498 17.552 83.4698 16.704 84.7018 16.032C84.2218 15.216 83.8858 14.384 83.8858 13.632C83.8858 12.224 85.0538 11.168 86.5738 11.168C87.9498 11.168 88.9738 11.92 88.9738 13.264C88.9738 14.864 87.6138 15.568 86.2538 16.272C86.6858 16.848 87.1498 17.392 87.5018 17.792C87.9338 18.304 88.3498 18.768 88.7658 19.216C89.3418 18.336 89.7258 17.36 89.9178 16.768L90.9418 17.232C90.5898 18.08 90.1258 19.088 89.4858 19.984C90.1258 20.64 90.7818 21.28 91.5658 22ZM85.7898 21.2C86.6698 21.2 87.4058 20.768 88.0138 20.144C87.4058 19.504 86.8458 18.896 86.5418 18.528C86.0938 18.016 85.6298 17.44 85.2138 16.832C84.3178 17.376 83.6298 18.032 83.6298 19.136C83.6298 20.464 84.6538 21.2 85.7898 21.2ZM85.1178 13.664C85.1178 14.224 85.3898 14.88 85.7578 15.504C86.8938 14.944 87.8698 14.384 87.8698 13.312C87.8698 12.528 87.3258 12.096 86.6058 12.096C85.7898 12.096 85.1178 12.736 85.1178 13.664Z" fill="#242B42"/>
<path d="M102.468 22.192C99.3961 22.192 96.9801 19.952 96.9801 16.672C96.9801 13.392 99.3961 11.152 102.468 11.152C104.356 11.152 105.668 12.048 106.516 13.264L105.412 13.888C104.804 12.976 103.684 12.336 102.468 12.336C100.132 12.336 98.3561 14.112 98.3561 16.672C98.3561 19.2 100.132 21.008 102.468 21.008C103.684 21.008 104.804 20.352 105.412 19.456L106.532 20.064C105.636 21.296 104.356 22.192 102.468 22.192Z" fill="#242B42"/>
<path d="M111.681 22.192C109.841 22.192 108.465 21.488 107.585 20.496L108.385 19.472C109.073 20.272 110.225 21.008 111.729 21.008C113.633 21.008 114.241 19.984 114.241 19.152C114.241 16.4 107.921 17.936 107.921 14.128C107.921 12.368 109.489 11.152 111.601 11.152C113.217 11.152 114.481 11.712 115.377 12.656L114.577 13.632C113.777 12.736 112.657 12.352 111.489 12.352C110.225 12.352 109.297 13.04 109.297 14.048C109.297 16.448 115.617 15.072 115.617 19.056C115.617 20.592 114.561 22.192 111.681 22.192Z" fill="#242B42"/>
<path d="M121.056 22.192C119.216 22.192 117.84 21.488 116.96 20.496L117.76 19.472C118.448 20.272 119.6 21.008 121.104 21.008C123.008 21.008 123.616 19.984 123.616 19.152C123.616 16.4 117.296 17.936 117.296 14.128C117.296 12.368 118.864 11.152 120.976 11.152C122.592 11.152 123.856 11.712 124.752 12.656L123.952 13.632C123.152 12.736 122.032 12.352 120.864 12.352C119.6 12.352 118.672 13.04 118.672 14.048C118.672 16.448 124.992 15.072 124.992 19.056C124.992 20.592 123.936 22.192 121.056 22.192Z" fill="#242B42"/>
<path d="M0 0H30L27.2656 30.9375L14.9219 35L2.65625 30.9375L0 0ZM24.0625 10L24.375 6.32812H5.54688L6.5625 17.6562H19.6094L19.1406 22.5L14.9219 23.6719L10.7812 22.5L10.4688 19.5312H6.71875L7.1875 25.4688L14.9219 27.5781H15L22.6562 25.4688L23.75 13.9062H10L9.6875 10H24.0625Z" fill="#E44D26"/>
</svg>
