<svg width="113" height="38" viewBox="0 0 113 38" fill="none" xmlns="http://www.w3.org/2000/svg">
<path fill-rule="evenodd" clip-rule="evenodd" d="M22.5528 3.73053C22.1741 4.06257 21.7935 4.41581 21.412 4.78896C21.0306 4.41581 20.65 4.06257 20.2713 3.73053C18.5055 2.18208 16.746 1.07117 15.1589 0.483227C13.5999 -0.0943296 12.0478 -0.221046 10.852 0.473778C9.61744 1.19112 8.92362 2.67172 8.63496 4.41145C8.34087 6.18392 8.43292 8.4018 8.93746 10.8696C9.00495 11.2 9.08064 11.5356 9.16422 11.8757C8.61306 12.0329 8.08302 12.2007 7.57663 12.3786C5.39114 13.1464 3.60006 14.1241 2.33856 15.2116C1.09514 16.2835 0.258301 17.5615 0.258301 18.9255C0.258301 20.3248 1.14161 21.6657 2.4496 22.7944C3.78034 23.9427 5.67016 24.9811 7.97435 25.7747C8.36805 25.9102 8.77515 26.0379 9.19435 26.1577C9.05772 26.7055 8.94003 27.2407 8.84201 27.7608C8.41053 30.0506 8.3564 32.1008 8.66079 33.7435C8.96049 35.3608 9.64 36.7317 10.817 37.4153C12.026 38.1178 13.6255 38.0147 15.2491 37.4369C16.9019 36.8487 18.7386 35.7177 20.5713 34.1033C20.8518 33.8563 21.1322 33.5968 21.412 33.3255C21.6919 33.5968 21.9723 33.8563 22.2528 34.1033C24.0855 35.7177 25.9222 36.8487 27.575 37.4369C29.1986 38.0147 30.7981 38.1178 32.0071 37.4153C33.1841 36.7317 33.8636 35.3608 34.1633 33.7435C34.4677 32.1008 34.4136 30.0506 33.9821 27.7608C33.8806 27.2222 33.758 26.6675 33.6151 26.0993C33.955 26.0009 34.2868 25.8978 34.6098 25.79C36.9849 24.997 38.9394 23.9686 40.3177 22.8252C41.6719 21.7018 42.596 20.3565 42.596 18.9255C42.596 17.5418 41.7162 16.2539 40.4406 15.1814C39.1428 14.0902 37.3088 13.1092 35.0947 12.3412C34.6332 12.1811 34.1535 12.0293 33.6573 11.8864C33.7419 11.5426 33.8184 11.2035 33.8866 10.8696C34.3912 8.4018 34.4832 6.18392 34.1891 4.41145C33.9005 2.67172 33.2067 1.19112 31.9721 0.473774C30.7763 -0.221046 29.2242 -0.0943296 27.6652 0.483227C26.0781 1.07117 24.3186 2.18208 22.5528 3.73053ZM23.649 4.98068C25.313 3.52151 26.9005 2.53968 28.2428 2.0424C29.6131 1.53473 30.5729 1.58376 31.1368 1.91142C31.7361 2.25969 32.2918 3.13445 32.5488 4.68361C32.8004 6.20003 32.7344 8.20457 32.2576 10.5365C32.1953 10.8415 32.1254 11.152 32.0481 11.4672C30.2575 11.0471 28.2964 10.7326 26.2275 10.5403C25.0437 8.85433 23.8101 7.31984 22.5708 5.98144C22.9323 5.6276 23.2922 5.29361 23.649 4.98068ZM21.412 7.17749C22.3006 8.1421 23.1909 9.21757 24.0635 10.3862C23.1976 10.3431 22.3176 10.3209 21.4275 10.3209C20.5288 10.3209 19.6373 10.3435 18.7596 10.3876C19.6325 9.21842 20.5231 8.14248 21.412 7.17749ZM10.5665 10.5367C10.6284 10.8396 10.6978 11.1478 10.7744 11.4608C12.5656 11.0451 14.5299 10.7333 16.5954 10.5419C17.7796 8.85529 19.0136 7.32026 20.2533 5.98144C19.8918 5.6276 19.5319 5.29361 19.1751 4.98068C17.511 3.52151 15.9236 2.53968 14.5813 2.0424C13.211 1.53473 12.2512 1.58376 11.6873 1.91142C11.088 2.25969 10.5323 3.13445 10.2753 4.68361C10.0237 6.20003 10.0897 8.20473 10.5665 10.5367ZM8.12773 13.9473C8.59778 13.7822 9.09127 13.6258 9.60582 13.4788C10.1445 15.2518 10.8713 17.1193 11.7495 19.013C10.8837 20.913 10.1723 22.7841 9.63723 24.555C9.25084 24.4443 8.87669 24.3268 8.5158 24.2026C6.35431 23.4581 4.66642 22.5111 3.53588 21.5355C2.38258 20.5403 1.92102 19.6187 1.92102 18.9255C1.92102 18.2592 2.34608 17.4004 3.42424 16.4709C4.48431 15.557 6.07449 14.6686 8.12773 13.9473ZM11.2179 13.0648C11.6093 14.3428 12.1058 15.6812 12.694 17.0509C13.1005 16.249 13.5329 15.4465 13.9895 14.6484L14.2547 14.1849L14.2585 14.1853C14.6262 13.5572 15.0029 12.9427 15.3869 12.3436C13.9152 12.5232 12.5154 12.7665 11.2179 13.0648ZM15.2964 15.7138C14.6757 16.8119 14.1043 17.9146 13.586 19.007C14.1368 20.1493 14.7449 21.3032 15.4028 22.4529C16.0708 23.6201 16.7633 24.7458 17.4722 25.8144C18.7549 25.9008 20.0793 25.9436 21.4275 25.9436C22.7662 25.9436 24.0829 25.8963 25.3592 25.8034C26.0655 24.7381 26.7556 23.616 27.4213 22.4529C28.0792 21.3032 28.6873 20.1493 29.2381 19.007C28.7198 17.9146 28.1484 16.8119 27.5277 15.7138L27.3906 15.4743C26.7222 14.3065 26.0232 13.1884 25.3051 12.1306C24.0491 12.0342 22.7517 11.9836 21.4275 11.9836C20.0966 11.9836 18.7872 12.0348 17.5178 12.1323C16.8001 13.1896 16.1015 14.3071 15.4335 15.4743L15.2964 15.7138ZM11.2509 24.9631C11.6405 23.6839 12.1283 22.3428 12.7065 20.9706C13.1023 21.741 13.5208 22.512 13.9597 23.2788C14.4183 24.08 14.8899 24.8654 15.3723 25.6295C13.916 25.4696 12.5323 25.2479 11.2509 24.9631ZM10.8058 26.5673C12.5753 26.9655 14.5123 27.2444 16.5441 27.4122C17.7398 29.1575 18.9868 30.756 20.2531 32.1332C19.9925 32.3858 19.7321 32.6268 19.4724 32.8556C17.7519 34.371 16.0945 35.3712 14.6917 35.8704C13.2598 36.3799 12.2422 36.3204 11.6524 35.9776C11.084 35.6476 10.5568 34.8495 10.2957 33.4405C10.0393 32.0568 10.0701 30.2228 10.476 28.0687C10.5675 27.5831 10.6776 27.0818 10.8058 26.5673ZM23.3518 32.8556C23.092 32.6268 22.8316 32.3858 22.571 32.1332C23.8412 30.7518 25.0919 29.1478 26.2909 27.3963C28.3154 27.2167 30.2444 26.9226 32.0055 26.5161C32.1391 27.0486 32.2536 27.567 32.3481 28.0687C32.754 30.2228 32.7848 32.0568 32.5284 33.4405C32.2673 34.8495 31.7404 35.6474 31.172 35.9775C30.5821 36.3203 29.5643 36.3799 28.1324 35.8704C26.7296 35.3712 25.0722 34.371 23.3518 32.8556ZM34.0833 24.2128C33.7871 24.3117 33.4822 24.4066 33.1694 24.4973C32.6363 22.7435 31.931 20.8924 31.0746 19.013C31.9511 17.123 32.6767 15.2592 33.2151 13.4893C33.6769 13.6227 34.1223 13.7638 34.5498 13.912C36.6348 14.6354 38.272 15.5303 39.3706 16.454C40.4915 17.3964 40.9333 18.2623 40.9333 18.9255C40.9333 19.6276 40.4567 20.5495 39.2561 21.5455C38.0796 22.5215 36.3249 23.4645 34.0833 24.2128ZM31.5578 24.913C31.1708 23.6488 30.6882 22.3248 30.1176 20.9706C29.7218 21.741 29.3033 22.512 28.8644 23.2788C28.4109 24.0711 27.9447 24.8479 27.4679 25.604C28.9118 25.4348 30.2851 25.2035 31.5578 24.913ZM31.6043 13.071C31.2132 14.3471 30.7173 15.6834 30.1301 17.0509C29.7236 16.2491 29.2912 15.4465 28.8346 14.6484L28.5694 14.1849L28.5656 14.1853C28.1977 13.5569 27.8209 12.9421 27.4367 12.3427C28.909 12.5237 30.307 12.7692 31.6043 13.071ZM18.6723 27.5464C19.5723 28.7883 20.4908 29.9286 21.412 30.9369C22.3345 29.9273 23.2542 28.7854 24.1553 27.5415C23.2572 27.5846 22.346 27.6063 21.4275 27.6063C20.4999 27.6063 19.5795 27.5865 18.6723 27.5464Z" fill="#1ABCD9"/>
<path fill-rule="evenodd" clip-rule="evenodd" d="M58.893 21.6532L63.5435 28.7328L61.0119 28.7196L56.6213 21.8226H53.1858V28.7196H51.0417V11.3616H57.9629C61.1146 11.3616 63.3612 13.4032 63.3612 16.5932C63.3612 19.7282 61.2434 21.4442 58.893 21.6532ZM53.1869 19.9361H57.7064V19.9383C59.7467 19.9383 61.1418 18.5578 61.1418 16.6053C61.1418 14.6528 59.7478 13.2998 57.7064 13.2998H53.1869V19.9361Z" fill="#1ABCD9"/>
<path fill-rule="evenodd" clip-rule="evenodd" d="M76.4841 27.1191C75.244 28.3676 73.5661 29.0441 71.5247 29.0441L71.5236 29.0342C67.8305 29.0342 65.1701 26.3645 65.1701 22.4342C65.1701 18.791 67.7519 15.8496 71.3162 15.8496C75.0879 15.8496 77.3094 18.8174 77.3094 22.5904V23.0854H67.2115C67.3665 25.4526 69.0204 27.4304 71.7059 27.4304C73.1262 27.4304 74.5715 26.8584 75.554 25.8431L76.4841 27.1191ZM67.2126 21.6521H75.4001C75.3739 19.7777 74.1349 17.4611 71.2933 17.4611C68.6318 17.4611 67.3163 19.7271 67.2126 21.6521Z" fill="#1ABCD9"/>
<path fill-rule="evenodd" clip-rule="evenodd" d="M90.1747 20.0912V28.7317L88.2392 28.7295V27.2995C87.2065 28.4446 85.7851 29.043 84.1061 29.043C81.9861 29.043 79.7395 27.6108 79.7395 24.8784C79.7395 22.0679 81.9883 20.7402 84.1061 20.7402C85.8113 20.7402 87.2316 21.2869 88.2392 22.4584V20.1946C88.2392 18.5028 86.8954 17.5403 85.0876 17.5403C83.5898 17.5403 82.3748 18.087 81.2645 19.2838L80.3606 17.9308C81.7034 16.525 83.3038 15.8485 85.3452 15.8485C87.9805 15.8485 90.1747 17.0464 90.1747 20.0912ZM81.7296 24.9059C81.7296 26.4943 82.9959 27.6383 84.8037 27.6383C86.1727 27.6383 87.4903 27.118 88.2392 26.0774V23.7091C87.4892 22.6674 86.1727 22.1471 84.8037 22.1471C82.9959 22.1471 81.7296 23.2922 81.7296 24.9059Z" fill="#1ABCD9"/>
<path d="M104.113 26.8584C103.157 28.1069 101.814 29.0441 99.5412 29.0441V29.0353C95.8219 29.0353 93.3165 26.183 93.3165 22.4353C93.3165 18.714 95.8219 15.8507 99.5412 15.8507C101.814 15.8507 103.158 16.7868 104.113 18.0364L102.822 19.2332C102.006 18.0892 100.947 17.5942 99.6558 17.5942C96.9965 17.5942 95.3438 19.6501 95.3438 22.4342C95.3438 25.2183 96.9955 27.3006 99.6558 27.3006C100.936 27.3006 101.995 26.7803 102.822 25.6616L104.113 26.8584Z" fill="#1ABCD9"/>
<path d="M112.303 28.2378C111.812 28.7053 111.113 29.0441 109.978 29.0441V29.0463C108.144 29.0463 107.213 27.9793 107.213 26.1049V17.8802H105.147V16.162H107.213V12.7267H109.151V16.162H111.684V17.8791H109.151V25.6869C109.151 26.6241 109.566 27.3006 110.417 27.3006C110.971 27.3006 111.476 27.0663 111.735 26.7803L112.303 28.2378Z" fill="#1ABCD9"/>
</svg>
