<svg width="100%" height="100%" viewBox="0 0 119 40" fill="none" xmlns="http://www.w3.org/2000/svg">
<path fill-rule="evenodd" clip-rule="evenodd" d="M23.7839 3.93654C23.3844 4.28691 22.9827 4.65966 22.5802 5.05342C22.1777 4.65966 21.776 4.28691 21.3765 3.93654C19.5131 2.30258 17.6565 1.13032 15.9818 0.509912C14.3366 -0.0995387 12.6988 -0.233253 11.437 0.499941C10.1343 1.2569 9.40214 2.81926 9.09754 4.65506C8.78721 6.52541 8.88435 8.86577 9.41674 11.4698C9.48796 11.8185 9.56783 12.1726 9.65602 12.5315C9.07443 12.6974 8.51512 12.8744 7.98076 13.0622C5.67459 13.8723 3.7846 14.904 2.45344 16.0516C1.14135 17.1828 0.258301 18.5313 0.258301 19.9706C0.258301 21.4471 1.19038 22.8621 2.57061 24.0531C3.97484 25.2649 5.96901 26.3606 8.40045 27.198C8.81589 27.341 9.24547 27.4757 9.68782 27.6022C9.54364 28.1802 9.41945 28.745 9.31602 29.2938C8.86072 31.7101 8.8036 33.8735 9.1248 35.6069C9.44104 37.3136 10.1581 38.7601 11.4001 39.4814C12.6759 40.2228 14.3636 40.1139 16.077 39.5042C17.821 38.8836 19.7591 37.6901 21.6931 35.9866C21.989 35.7259 22.2849 35.4521 22.5802 35.1658C22.8756 35.4521 23.1714 35.7259 23.4673 35.9866C25.4013 37.6901 27.3394 38.8836 29.0834 39.5042C30.7968 40.1139 32.4846 40.2228 33.7604 39.4814C35.0023 38.7601 35.7194 37.3136 36.0356 35.6069C36.3568 33.8735 36.2997 31.7101 35.8444 29.2938C35.7373 28.7255 35.6079 28.1401 35.4572 27.5406C35.8158 27.4368 36.1659 27.328 36.5068 27.2142C39.0131 26.3774 41.0754 25.2922 42.5299 24.0857C43.9589 22.9003 44.934 21.4806 44.934 19.9706C44.934 18.5105 44.0056 17.1515 42.6596 16.0197C41.2901 14.8683 39.3548 13.8332 37.0184 13.0227C36.5315 12.8537 36.0253 12.6936 35.5016 12.5428C35.5909 12.18 35.6717 11.8222 35.7437 11.4698C36.2761 8.86577 36.3732 6.52541 36.0629 4.65506C35.7583 2.81926 35.0261 1.2569 33.7234 0.499937C32.4616 -0.233253 30.8238 -0.0995387 29.1787 0.509912C27.504 1.13032 25.6473 2.30258 23.7839 3.93654ZM24.9407 5.25573C26.6966 3.71598 28.3717 2.67992 29.7882 2.15518C31.2342 1.61948 32.2469 1.67121 32.842 2.01697C33.4744 2.38447 34.0608 3.30754 34.332 4.94225C34.5975 6.54241 34.5278 8.65765 34.0247 11.1184C33.959 11.4402 33.8852 11.7678 33.8036 12.1004C31.9141 11.6571 29.8448 11.3252 27.6616 11.1223C26.4124 9.34329 25.1107 7.72406 23.8029 6.31175C24.1844 5.93837 24.5642 5.58594 24.9407 5.25573ZM22.5802 7.57385C23.5179 8.59172 24.4573 9.72658 25.3781 10.9598C24.4644 10.9142 23.5357 10.8909 22.5965 10.8909C21.6482 10.8909 20.7075 10.9147 19.7813 10.9613C20.7024 9.72748 21.6422 8.59213 22.5802 7.57385ZM11.1358 11.1185C11.201 11.4382 11.2743 11.7634 11.3552 12.0936C13.2453 11.6551 15.3181 11.3261 17.4976 11.124C18.7472 9.3443 20.0493 7.72451 21.3575 6.31175C20.976 5.93837 20.5963 5.58594 20.2197 5.25573C18.4638 3.71598 16.7887 2.67992 15.3723 2.15518C13.9262 1.61948 12.9135 1.67121 12.3185 2.01697C11.686 2.38447 11.0997 3.30754 10.8284 4.94225C10.5629 6.54241 10.6327 8.65782 11.1358 11.1185ZM8.5623 14.7175C9.05831 14.5433 9.57905 14.3782 10.122 14.2231C10.6905 16.094 11.4574 18.0647 12.3841 20.063C11.4705 22.0678 10.7198 24.0423 10.1552 25.911C9.74743 25.7942 9.35262 25.6702 8.9718 25.5391C6.69095 24.7535 4.90984 23.7543 3.71687 22.7248C2.49989 21.6746 2.01284 20.7021 2.01284 19.9706C2.01284 19.2675 2.46137 18.3613 3.59907 17.3805C4.71769 16.4161 6.39568 15.4787 8.5623 14.7175ZM11.8231 13.7863C12.2361 15.1348 12.7601 16.5471 13.3807 17.9924C13.8097 17.1464 14.2659 16.2995 14.7478 15.4573L15.0276 14.9682L15.0316 14.9686C15.4196 14.3058 15.8171 13.6574 16.2223 13.0252C14.6694 13.2148 13.1923 13.4715 11.8231 13.7863ZM16.1268 16.5816C15.4718 17.7403 14.8689 18.9039 14.322 20.0566C14.9032 21.262 15.5448 22.4797 16.2391 23.6928C16.944 24.9244 17.6748 26.1123 18.4228 27.24C19.7763 27.3311 21.1738 27.3762 22.5965 27.3762C24.0091 27.3762 25.3985 27.3263 26.7453 27.2283C27.4907 26.1042 28.2188 24.9202 28.9213 23.6928C29.6156 22.4797 30.2573 21.262 30.8385 20.0566C30.2915 18.9039 29.6886 17.7403 29.0336 16.5816L28.8889 16.3288C28.1836 15.0966 27.446 13.9167 26.6883 12.8005C25.3629 12.6988 23.9939 12.6454 22.5965 12.6454C21.1921 12.6454 19.8104 12.6994 18.4709 12.8023C17.7136 13.918 16.9764 15.0972 16.2715 16.3288L16.1268 16.5816ZM11.858 26.3417C12.2691 24.9917 12.7838 23.5766 13.3939 22.1286C13.8116 22.9416 14.2532 23.7551 14.7164 24.5643C15.2002 25.4098 15.6979 26.2385 16.2069 27.0448C14.6702 26.876 13.2101 26.6421 11.858 26.3417ZM11.3883 28.0344C13.2555 28.4546 15.2994 28.7489 17.4434 28.926C18.7051 30.7677 20.021 32.4544 21.3573 33.9077C21.0822 34.1742 20.8075 34.4286 20.5334 34.67C18.718 36.269 16.969 37.3244 15.4887 37.8512C13.9778 38.3889 12.904 38.3261 12.2816 37.9644C11.6818 37.6161 11.1255 36.774 10.85 35.2872C10.5794 33.827 10.6119 31.8918 11.0402 29.6187C11.1368 29.1063 11.253 28.5774 11.3883 28.0344ZM24.6271 34.67C24.3529 34.4286 24.0782 34.1742 23.8031 33.9077C25.1435 32.4499 26.4633 30.7574 27.7285 28.9092C29.8648 28.7197 31.9003 28.4094 33.7586 27.9804C33.8997 28.5423 34.0204 29.0893 34.1202 29.6187C34.5485 31.8918 34.581 33.827 34.3104 35.2872C34.035 36.774 33.4789 37.616 32.8791 37.9643C32.2567 38.3259 31.1827 38.3889 29.6717 37.8512C28.1914 37.3244 26.4424 36.269 24.6271 34.67ZM35.9512 25.5499C35.6386 25.6543 35.317 25.7544 34.9868 25.8501C34.4243 23.9994 33.68 22.0461 32.7763 20.063C33.7012 18.0686 34.4669 16.1018 35.035 14.2342C35.5224 14.375 35.9923 14.5238 36.4434 14.6803C38.6436 15.4436 40.3712 16.388 41.5305 17.3627C42.7132 18.3571 43.1795 19.2708 43.1795 19.9706C43.1795 20.7115 42.6766 21.6843 41.4097 22.7353C40.1681 23.7652 38.3166 24.7602 35.9512 25.5499ZM33.2863 26.2887C32.8779 24.9548 32.3686 23.5577 31.7665 22.1286C31.3489 22.9416 30.9072 23.7551 30.4441 24.5643C29.9656 25.4004 29.4736 26.2201 28.9705 27.0179C30.4941 26.8394 31.9433 26.5953 33.2863 26.2887ZM33.3353 13.7928C32.9226 15.1394 32.3993 16.5495 31.7797 17.9924C31.3508 17.1464 30.8945 16.2995 30.4126 15.4573L30.1328 14.9682L30.1288 14.9686C29.7406 14.3055 29.3429 13.6568 28.9376 13.0243C30.4912 13.2152 31.9664 13.4744 33.3353 13.7928ZM19.6892 29.0676C20.6389 30.3781 21.608 31.5813 22.5802 32.6453C23.5537 31.5799 24.524 30.375 25.475 29.0625C24.5272 29.1079 23.5657 29.1308 22.5965 29.1308C21.6177 29.1308 20.6465 29.1099 19.6892 29.0676Z" fill="#1ABCD9"/>
<path fill-rule="evenodd" clip-rule="evenodd" d="M62.131 22.8489L67.0383 30.3195L64.3669 30.3055L59.7338 23.0277H56.1086V30.3055H53.8461V11.989H61.1495C64.4752 11.989 66.8459 14.1433 66.8459 17.5095C66.8459 20.8176 64.6111 22.6284 62.131 22.8489ZM56.1097 21.037H60.8788V21.0393C63.0318 21.0393 64.504 19.5826 64.504 17.5223C64.504 15.4619 63.0329 14.0342 60.8788 14.0342H56.1097V21.037Z" fill="#1ABCD9"/>
<path fill-rule="evenodd" clip-rule="evenodd" d="M80.6935 28.6167C79.3849 29.9341 77.6143 30.648 75.4602 30.648L75.459 30.6375C71.562 30.6375 68.7547 27.8204 68.7547 23.673C68.7547 19.8287 71.479 16.7248 75.2402 16.7248C79.2202 16.7248 81.5644 19.8565 81.5644 23.8379V24.3602H70.9088C71.0724 26.8581 72.8176 28.9451 75.6514 28.9451C77.1501 28.9451 78.6753 28.3416 79.7121 27.2702L80.6935 28.6167ZM70.91 22.8478H79.5496C79.522 20.8698 78.2145 18.4253 75.216 18.4253C72.4075 18.4253 71.0194 20.8164 70.91 22.8478Z" fill="#1ABCD9"/>
<path fill-rule="evenodd" clip-rule="evenodd" d="M95.1401 21.2007V30.3183L93.0977 30.316V28.807C92.008 30.0154 90.5081 30.6468 88.7364 30.6468C86.4993 30.6468 84.1286 29.1355 84.1286 26.2522C84.1286 23.2865 86.5016 21.8855 88.7364 21.8855C90.5358 21.8855 92.0345 22.4624 93.0977 23.6986V21.3098C93.0977 19.5245 91.6797 18.5089 89.772 18.5089C88.1916 18.5089 86.9094 19.0858 85.7379 20.3487L84.7841 18.921C86.201 17.4375 87.8898 16.7237 90.0439 16.7237C92.8247 16.7237 95.1401 17.9877 95.1401 21.2007ZM86.2286 26.2812C86.2286 27.9574 87.5649 29.1645 89.4725 29.1645C90.9171 29.1645 92.3075 28.6155 93.0977 27.5174V25.0183C92.3063 23.9191 90.9171 23.3701 89.4725 23.3701C87.5649 23.3701 86.2286 24.5784 86.2286 26.2812Z" fill="#1ABCD9"/>
<path d="M109.848 28.3416C108.839 29.659 107.422 30.648 105.024 30.648V30.6387C101.099 30.6387 98.4554 27.6289 98.4554 23.6742C98.4554 19.7474 101.099 16.726 105.024 16.726C107.422 16.726 108.84 17.7138 109.848 19.0324L108.485 20.2953C107.625 19.0881 106.508 18.5658 105.145 18.5658C102.339 18.5658 100.595 20.7352 100.595 23.673C100.595 26.6109 102.338 28.8082 105.145 28.8082C106.496 28.8082 107.613 28.2591 108.485 27.0787L109.848 28.3416Z" fill="#1ABCD9"/>
<path d="M118.49 29.7971C117.972 30.2904 117.235 30.648 116.037 30.648V30.6503C114.101 30.6503 113.12 29.5244 113.12 27.5465V18.8676H110.939V17.0545H113.12V13.4295H115.165V17.0545H117.837V18.8664H115.165V27.1054C115.165 28.0943 115.602 28.8082 116.501 28.8082C117.085 28.8082 117.618 28.5609 117.891 28.2591L118.49 29.7971Z" fill="#1ABCD9"/>
</svg>
