<svg width="1441" height="318" viewBox="0 0 1441 318" fill="none" xmlns="http://www.w3.org/2000/svg">
<g clip-path="url(#clip0_5861_5040)">
<path d="M0 26H1441" stroke="#0082FF" stroke-opacity="0.2" stroke-width="2" stroke-linecap="round"/>
<path d="M0 144H1441" stroke="#0082FF" stroke-opacity="0.2" stroke-width="2" stroke-linecap="round"/>
<path d="M0 262H1441" stroke="#0082FF" stroke-opacity="0.2" stroke-width="2" stroke-linecap="round"/>
<rect x="406" y="53.1821" width="183" height="146" rx="15" fill="#0082FF" fill-opacity="0.05" stroke="#0082FF" stroke-width="2"/>
<rect x="386" y="71.1821" width="183" height="146" rx="15" fill="#0082FF" fill-opacity="0.05" stroke="#0082FF" stroke-width="2"/>
<path d="M470.681 126.154L466.48 121.953L455.34 133.092L444.201 121.953L440 126.154L451.138 137.293L440 148.434L444.201 152.635L455.34 141.495L466.48 152.635L470.681 148.434L459.542 137.293L470.681 126.154Z" stroke="#0082FF" stroke-width="2"/>
<path d="M403 124.95L401.768 126.182L398.5 122.915L395.232 126.182L394 124.95L397.267 121.682L394 118.414L395.232 117.182L398.5 120.45L401.768 117.182L403 118.414L399.732 121.682L403 124.95Z" stroke="#0082FF"/>
<path d="M526.1 118.273C515.596 118.273 507.078 126.789 507.078 137.294H509.078C509.078 127.894 516.7 120.273 526.1 120.273V118.273ZM545.12 137.294C545.12 126.789 536.605 118.273 526.1 118.273V120.273C535.5 120.273 543.12 127.894 543.12 137.294H545.12ZM526.1 156.317C536.605 156.317 545.12 147.801 545.12 137.294H543.12C543.12 146.697 535.5 154.317 526.1 154.317V156.317ZM507.078 137.294C507.078 147.801 515.596 156.317 526.1 156.317V154.317C516.7 154.317 509.078 146.696 509.078 137.294H507.078ZM526.1 126.217C532.208 126.217 537.177 131.187 537.177 137.294H539.177C539.177 130.082 533.312 124.217 526.1 124.217V126.217ZM515.021 137.294C515.021 131.187 519.991 126.217 526.1 126.217V124.217C518.886 124.217 513.021 130.082 513.021 137.294H515.021ZM526.1 148.375C519.991 148.375 515.021 143.403 515.021 137.294H513.021C513.021 144.508 518.886 150.375 526.1 150.375V148.375ZM537.177 137.294C537.177 143.403 532.207 148.375 526.1 148.375V150.375C533.312 150.375 539.177 144.508 539.177 137.294H537.177Z" fill="#0082FF"/>
<path d="M471.022 33.6821C468.525 33.6821 466.5 35.7063 466.5 38.2034H467.5C467.5 36.2587 469.077 34.6821 471.022 34.6821V33.6821ZM475.543 38.2034C475.543 35.7064 473.519 33.6821 471.022 33.6821V34.6821C472.966 34.6821 474.543 36.2587 474.543 38.2034H475.543ZM471.022 42.7254C473.519 42.7254 475.543 40.7011 475.543 38.2034H474.543C474.543 40.1489 472.966 41.7254 471.022 41.7254V42.7254ZM466.5 38.2034C466.5 40.7011 468.525 42.7254 471.022 42.7254V41.7254C469.077 41.7254 467.5 40.1488 467.5 38.2034H466.5ZM471.022 36.0084C472.232 36.0084 473.217 36.9935 473.217 38.2036H474.217C474.217 36.4412 472.784 35.0084 471.022 35.0084V36.0084ZM468.826 38.2036C468.826 36.9936 469.811 36.0084 471.022 36.0084V35.0084C469.259 35.0084 467.826 36.4412 467.826 38.2036H468.826ZM471.022 40.3994C469.811 40.3994 468.826 39.414 468.826 38.2036H467.826C467.826 39.9661 469.259 41.3994 471.022 41.3994V40.3994ZM473.217 38.2036C473.217 39.4141 472.232 40.3994 471.022 40.3994V41.3994C472.784 41.3994 474.217 39.9661 474.217 38.2036H473.217Z" fill="#0082FF"/>
<path d="M608.022 143.682C605.525 143.682 603.5 145.706 603.5 148.203H604.5C604.5 146.259 606.077 144.682 608.022 144.682V143.682ZM612.543 148.203C612.543 145.706 610.519 143.682 608.022 143.682V144.682C609.966 144.682 611.543 146.259 611.543 148.203H612.543ZM608.022 152.725C610.519 152.725 612.543 150.701 612.543 148.203H611.543C611.543 150.149 609.966 151.725 608.022 151.725V152.725ZM603.5 148.203C603.5 150.701 605.525 152.725 608.022 152.725V151.725C606.077 151.725 604.5 150.149 604.5 148.203H603.5ZM608.022 146.008C609.232 146.008 610.217 146.994 610.217 148.204H611.217C611.217 146.441 609.784 145.008 608.022 145.008V146.008ZM605.826 148.204C605.826 146.994 606.811 146.008 608.022 146.008V145.008C606.259 145.008 604.826 146.441 604.826 148.204H605.826ZM608.022 150.399C606.811 150.399 605.826 149.414 605.826 148.204H604.826C604.826 149.966 606.259 151.399 608.022 151.399V150.399ZM610.217 148.204C610.217 149.414 609.232 150.399 608.022 150.399V151.399C609.784 151.399 611.217 149.966 611.217 148.204H610.217Z" fill="#0082FF"/>
<path d="M506.592 129.835L489.359 111.182L472.167 129.835L476.376 133.755L486.48 122.719V154.788C486.48 156.376 487.767 157.663 489.353 157.663C490.943 157.663 492.228 156.376 492.228 154.788V122.708L502.383 133.755L506.592 129.835Z" stroke="#0082FF" stroke-width="2"/>
<path d="M607.185 76.1168L608.658 70.6422L603.185 69.1886L602.944 70.4575L606.174 71.3038L600.199 74.7535C599.903 74.9243 599.813 75.3217 599.997 75.641C600.182 75.9608 600.571 76.0811 600.867 75.9103L606.844 72.4594L605.965 75.6915L607.185 76.1168Z" stroke="#0082FF"/>
<path d="M365.878 51.2172L360.703 66.6458C360.559 67.0448 360.092 67.2775 359.625 67.1445C359.194 67.0115 358.942 66.5793 359.086 66.147L364.261 50.7184C364.405 50.3194 364.872 50.0867 365.339 50.2197C365.77 50.3527 366.022 50.7849 365.878 51.2172ZM369.112 54.1101L373.712 58.1002C373.892 58.2332 374 58.466 374 58.6655C374 58.8982 373.892 59.0977 373.712 59.264L369.112 63.2541C368.753 63.5534 368.214 63.5534 367.891 63.2209C367.567 62.8884 367.567 62.3896 367.927 62.0903L371.844 58.6655L367.927 55.2739C367.567 54.9746 367.567 54.4758 367.891 54.1433C368.214 53.8108 368.753 53.8108 369.112 54.1101ZM357.037 55.2739L353.12 58.6655L357.037 62.0903C357.397 62.3896 357.397 62.8884 357.073 63.2209C356.75 63.5534 356.211 63.5534 355.852 63.2541L351.252 59.264C351.072 59.0977 351 58.8982 351 58.6655C351 58.466 351.072 58.2332 351.252 58.1002L355.852 54.1101C356.211 53.8108 356.75 53.8108 357.073 54.1433C357.397 54.4758 357.397 54.9746 357.037 55.2739Z" stroke="#0082FF"/>
<path d="M462.878 241.217L457.703 256.646C457.559 257.045 457.092 257.277 456.625 257.144C456.194 257.011 455.942 256.579 456.086 256.147L461.261 240.718C461.405 240.319 461.872 240.087 462.339 240.22C462.77 240.353 463.022 240.785 462.878 241.217ZM466.112 244.11L470.712 248.1C470.892 248.233 471 248.466 471 248.665C471 248.898 470.892 249.098 470.712 249.264L466.112 253.254C465.753 253.553 465.214 253.553 464.891 253.221C464.567 252.888 464.567 252.39 464.927 252.09L468.844 248.665L464.927 245.274C464.567 244.974 464.567 244.476 464.891 244.143C465.214 243.811 465.753 243.811 466.112 244.11ZM454.037 245.274L450.12 248.665L454.037 252.09C454.397 252.39 454.397 252.888 454.073 253.221C453.75 253.553 453.211 253.553 452.852 253.254L448.252 249.264C448.072 249.098 448 248.898 448 248.665C448 248.466 448.072 248.233 448.252 248.1L452.852 244.11C453.211 243.811 453.75 243.811 454.073 244.143C454.397 244.476 454.397 244.974 454.037 245.274Z" stroke="#0082FF"/>
<rect x="-1" y="1" width="183" height="146" rx="15" transform="matrix(-1 0 0 1 1049 70.1821)" fill="#0082FF" fill-opacity="0.05" stroke="#0082FF" stroke-width="2"/>
<rect x="-1" y="1" width="183" height="146" rx="15" transform="matrix(-1 0 0 1 1069 88.1821)" fill="#0082FF" fill-opacity="0.05" stroke="#0082FF" stroke-width="2"/>
<path d="M951.013 125.608L947 121.604L951.013 117.608L951.856 118.587L949.482 120.935L956.382 120.935C956.723 120.935 957 121.234 957 121.602C957 121.972 956.723 122.27 956.382 122.27L949.48 122.27L951.856 124.63L951.013 125.608Z" fill="#0082FF" fill-opacity="0.5"/>
<rect x="961.5" y="119.108" width="63" height="5" rx="2.5" stroke="#0082FF"/>
<path d="M1034.99 125.608L1039 121.604L1034.99 117.608L1034.14 118.587L1036.52 120.935L1029.62 120.935C1029.28 120.935 1029 121.234 1029 121.602C1029 121.972 1029.28 122.27 1029.62 122.27L1036.52 122.27L1034.14 124.63L1034.99 125.608Z" fill="#0082FF" fill-opacity="0.5"/>
<circle cx="925.5" cy="175.682" r="8" stroke="#0082FF"/>
<rect x="912.5" y="186.682" width="26" height="4" rx="2" stroke="#0082FF"/>
<rect x="912.5" y="193.682" width="26" height="4" rx="2" stroke="#0082FF"/>
<rect x="903.5" y="159.682" width="43" height="45" rx="1.5" stroke="#0082FF"/>
<circle cx="1000.5" cy="158.682" r="8" stroke="#0082FF"/>
<rect x="1014.5" y="153.682" width="59" height="3" rx="1.5" stroke="#0082FF"/>
<rect x="1014.5" y="160.682" width="28" height="3" rx="1.5" stroke="#0082FF"/>
<mask id="path-27-inside-1_5861_5040" fill="white">
<rect x="983" y="144.182" width="99" height="28" rx="1"/>
</mask>
<rect x="983" y="144.182" width="99" height="28" rx="1" stroke="#0082FF" stroke-width="4" mask="url(#path-27-inside-1_5861_5040)"/>
<circle cx="912.5" cy="108.108" r="10" stroke="#0082FF"/>
<path d="M862 185.95L860.768 187.182L857.5 183.915L854.232 187.182L853 185.95L856.267 182.682L853 179.414L854.232 178.182L857.5 181.45L860.768 178.182L862 179.414L858.732 182.682L862 185.95Z" stroke="#0082FF"/>
<path d="M995 65.9498L993.768 67.1821L990.5 63.9147L987.232 67.1821L986 65.9498L989.267 62.6824L986 59.4145L987.232 58.1821L990.5 61.45L993.768 58.1821L995 59.4145L991.732 62.6824L995 65.9498Z" stroke="#0082FF"/>
<path d="M920.022 64.6821C917.525 64.6821 915.5 66.7063 915.5 69.2034H916.5C916.5 67.2587 918.077 65.6821 920.022 65.6821V64.6821ZM924.543 69.2034C924.543 66.7064 922.519 64.6821 920.022 64.6821V65.6821C921.966 65.6821 923.543 67.2587 923.543 69.2034H924.543ZM920.022 73.7254C922.519 73.7254 924.543 71.7011 924.543 69.2034H923.543C923.543 71.1489 921.966 72.7254 920.022 72.7254V73.7254ZM915.5 69.2034C915.5 71.7011 917.525 73.7254 920.022 73.7254V72.7254C918.077 72.7254 916.5 71.1488 916.5 69.2034H915.5ZM920.022 67.0084C921.232 67.0084 922.217 67.9935 922.217 69.2036H923.217C923.217 67.4412 921.784 66.0084 920.022 66.0084V67.0084ZM917.826 69.2036C917.826 67.9936 918.811 67.0084 920.022 67.0084V66.0084C918.259 66.0084 916.826 67.4412 916.826 69.2036H917.826ZM920.022 71.3994C918.811 71.3994 917.826 70.414 917.826 69.2036H916.826C916.826 70.9661 918.259 72.3994 920.022 72.3994V71.3994ZM922.217 69.2036C922.217 70.4141 921.232 71.3994 920.022 71.3994V72.3994C921.784 72.3994 923.217 70.9661 923.217 69.2036H922.217Z" fill="#0082FF"/>
<path d="M1087.02 88.6821C1084.52 88.6821 1082.5 90.7063 1082.5 93.2034H1083.5C1083.5 91.2587 1085.08 89.6821 1087.02 89.6821V88.6821ZM1091.54 93.2034C1091.54 90.7064 1089.52 88.6821 1087.02 88.6821V89.6821C1088.97 89.6821 1090.54 91.2587 1090.54 93.2034H1091.54ZM1087.02 97.7254C1089.52 97.7254 1091.54 95.7011 1091.54 93.2034H1090.54C1090.54 95.1489 1088.97 96.7254 1087.02 96.7254V97.7254ZM1082.5 93.2034C1082.5 95.7011 1084.52 97.7254 1087.02 97.7254V96.7254C1085.08 96.7254 1083.5 95.1488 1083.5 93.2034H1082.5ZM1087.02 91.0084C1088.23 91.0084 1089.22 91.9935 1089.22 93.2036H1090.22C1090.22 91.4412 1088.78 90.0084 1087.02 90.0084V91.0084ZM1084.83 93.2036C1084.83 91.9936 1085.81 91.0084 1087.02 91.0084V90.0084C1085.26 90.0084 1083.83 91.4412 1083.83 93.2036H1084.83ZM1087.02 95.3994C1085.81 95.3994 1084.83 94.414 1084.83 93.2036H1083.83C1083.83 94.9661 1085.26 96.3994 1087.02 96.3994V95.3994ZM1089.22 93.2036C1089.22 94.4141 1088.23 95.3994 1087.02 95.3994V96.3994C1088.78 96.3994 1090.22 94.9661 1090.22 93.2036H1089.22Z" fill="#0082FF"/>
<path d="M1085.18 248.117L1086.66 242.642L1081.18 241.189L1080.94 242.457L1084.17 243.304L1078.2 246.754C1077.9 246.924 1077.81 247.322 1078 247.641C1078.18 247.961 1078.57 248.081 1078.87 247.91L1084.84 244.459L1083.97 247.691L1085.18 248.117Z" stroke="#0082FF"/>
<path d="M999.022 192.682C996.525 192.682 994.5 194.706 994.5 197.203H995.5C995.5 195.259 997.077 193.682 999.022 193.682V192.682ZM1003.54 197.203C1003.54 194.706 1001.52 192.682 999.022 192.682V193.682C1000.97 193.682 1002.54 195.259 1002.54 197.203H1003.54ZM999.022 201.725C1001.52 201.725 1003.54 199.701 1003.54 197.203H1002.54C1002.54 199.149 1000.97 200.725 999.022 200.725V201.725ZM994.5 197.203C994.5 199.701 996.525 201.725 999.022 201.725V200.725C997.077 200.725 995.5 199.149 995.5 197.203H994.5ZM999.022 195.008C1000.23 195.008 1001.22 195.994 1001.22 197.204H1002.22C1002.22 195.441 1000.78 194.008 999.022 194.008V195.008ZM996.826 197.204C996.826 195.994 997.811 195.008 999.022 195.008V194.008C997.259 194.008 995.826 195.441 995.826 197.204H996.826ZM999.022 199.399C997.811 199.399 996.826 198.414 996.826 197.204H995.826C995.826 198.966 997.259 200.399 999.022 200.399V199.399ZM1001.22 197.204C1001.22 198.414 1000.23 199.399 999.022 199.399V200.399C1000.78 200.399 1002.22 198.966 1002.22 197.204H1001.22Z" fill="#0082FF"/>
<path d="M913.371 113.6L911.628 113.6L911.628 108.979L907.007 108.979L907.007 107.236L911.628 107.236L911.629 102.615L913.371 102.615L913.371 107.237L917.992 107.236L917.992 108.979L913.371 108.98L913.371 113.6Z" fill="#0082FF" fill-opacity="0.5"/>
<path d="M856.173 78.1671C856.717 78.0712 857.08 77.5526 856.984 77.0087L855.421 68.1454C855.325 67.6015 854.807 67.2384 854.263 67.3343C853.719 67.4302 853.356 67.9489 853.452 68.4928L854.841 76.3712L846.963 77.7605C846.419 77.8564 846.056 78.3751 846.151 78.919C846.247 79.4629 846.766 79.8261 847.31 79.7301L856.173 78.1671ZM567.161 78.9003C633.026 20.7938 758.09 9.84852 855.426 78.0015L856.573 76.3632C758.558 7.73468 632.464 18.6225 565.837 77.4005L567.161 78.9003Z" fill="#0082FF"/>
<path d="M637.826 213.671C637.282 213.767 636.919 214.286 637.015 214.83L638.578 223.693C638.674 224.237 639.193 224.6 639.737 224.504C640.281 224.408 640.644 223.89 640.548 223.346L639.159 215.467L647.037 214.078C647.581 213.982 647.944 213.463 647.848 212.92C647.752 212.376 647.233 212.013 646.69 212.108L637.826 213.671ZM866.14 215.63C865.714 215.983 865.656 216.613 866.008 217.038C866.361 217.463 866.991 217.522 867.416 217.17L866.14 215.63ZM861.247 221.983C861.692 221.656 861.788 221.03 861.461 220.585C861.134 220.14 860.508 220.044 860.063 220.37L861.247 221.983ZM853.72 224.755C853.257 225.056 853.126 225.676 853.427 226.139C853.728 226.601 854.348 226.733 854.81 226.431L853.72 224.755ZM848.142 230.518C848.62 230.242 848.784 229.631 848.508 229.152C848.232 228.674 847.621 228.51 847.142 228.786L848.142 230.518ZM840.367 232.464C839.875 232.715 839.679 233.317 839.931 233.809C840.182 234.301 840.784 234.496 841.276 234.245L840.367 232.464ZM834.232 237.622C834.736 237.396 834.96 236.804 834.734 236.3C834.507 235.796 833.915 235.572 833.412 235.798L834.232 237.622ZM826.301 238.795C825.788 238.998 825.535 239.578 825.738 240.092C825.94 240.606 826.521 240.858 827.035 240.656L826.301 238.795ZM819.705 243.352C820.228 243.173 820.506 242.604 820.327 242.082C820.149 241.559 819.58 241.281 819.057 241.46L819.705 243.352ZM811.699 243.798C811.169 243.953 810.866 244.509 811.022 245.039C811.177 245.569 811.733 245.872 812.263 245.717L811.699 243.798ZM804.726 247.755C805.262 247.623 805.589 247.08 805.456 246.544C805.323 246.008 804.781 245.681 804.245 245.814L804.726 247.755ZM796.711 247.514C796.17 247.625 795.821 248.153 795.931 248.694C796.041 249.235 796.57 249.584 797.111 249.474L796.711 247.514ZM789.432 250.877C789.977 250.789 790.347 250.276 790.259 249.73C790.171 249.185 789.657 248.815 789.112 248.903L789.432 250.877ZM781.463 249.984C780.915 250.051 780.524 250.549 780.59 251.097C780.657 251.646 781.155 252.036 781.703 251.97L781.463 249.984ZM773.939 252.755C774.489 252.711 774.899 252.228 774.854 251.678C774.809 251.127 774.327 250.717 773.776 250.762L773.939 252.755ZM766.065 251.24C765.513 251.263 765.085 251.729 765.108 252.281C765.132 252.833 765.598 253.261 766.15 253.238L766.065 251.24ZM758.348 253.42C758.901 253.418 759.347 252.968 759.344 252.416C759.342 251.864 758.892 251.418 758.34 251.42L758.348 253.42ZM750.614 251.306C750.062 251.288 749.599 251.72 749.581 252.272C749.562 252.824 749.994 253.287 750.546 253.305L750.614 251.306ZM742.755 252.896C743.306 252.935 743.784 252.521 743.823 251.97C743.863 251.419 743.448 250.94 742.897 250.901L742.755 252.896ZM735.201 250.207C734.652 250.147 734.158 250.543 734.098 251.092C734.038 251.641 734.435 252.135 734.984 252.195L735.201 250.207ZM727.245 251.204C727.791 251.284 728.299 250.906 728.38 250.36C728.46 249.813 728.082 249.305 727.536 249.225L727.245 251.204ZM719.913 247.958C719.37 247.858 718.848 248.216 718.747 248.759C718.647 249.302 719.005 249.824 719.548 249.925L719.913 247.958ZM711.905 248.361C712.444 248.482 712.978 248.143 713.099 247.604C713.22 247.065 712.881 246.53 712.342 246.409L711.905 248.361ZM704.834 244.58C704.3 244.439 703.753 244.758 703.612 245.292C703.471 245.826 703.79 246.373 704.324 246.514L704.834 244.58ZM696.817 244.386C697.346 244.546 697.904 244.248 698.065 243.72C698.225 243.191 697.927 242.633 697.398 242.472L696.817 244.386ZM690.046 240.09C689.524 239.91 688.955 240.187 688.775 240.709C688.595 241.231 688.872 241.8 689.395 241.98L690.046 240.09ZM682.066 239.3C682.581 239.499 683.16 239.243 683.359 238.728C683.559 238.213 683.303 237.634 682.788 237.435L682.066 239.3ZM675.632 234.511C675.125 234.293 674.537 234.527 674.318 235.034C674.1 235.542 674.334 236.13 674.841 236.348L675.632 234.511ZM667.731 233.129C668.23 233.366 668.826 233.154 669.063 232.655C669.3 232.156 669.088 231.56 668.59 231.323L667.731 233.129ZM661.676 227.877C661.187 227.621 660.582 227.811 660.327 228.3C660.071 228.79 660.261 229.394 660.751 229.65L661.676 227.877ZM653.905 225.913C654.385 226.187 654.996 226.02 655.27 225.54C655.543 225.06 655.376 224.449 654.896 224.176L653.905 225.913ZM648.258 220.225C647.789 219.934 647.172 220.079 646.881 220.548C646.59 221.017 646.734 221.634 647.203 221.925L648.258 220.225ZM640.653 217.691C641.111 217.999 641.733 217.877 642.041 217.419C642.349 216.961 642.228 216.34 641.77 216.031L640.653 217.691ZM869.061 213.131C868.103 213.977 867.129 214.81 866.14 215.63L867.416 217.17C868.421 216.336 869.411 215.49 870.384 214.631L869.061 213.131ZM860.063 220.37C858.004 221.882 855.888 223.344 853.72 224.755L854.81 226.431C857.01 225 859.156 223.517 861.247 221.983L860.063 220.37ZM847.142 228.786C844.93 230.062 842.67 231.288 840.367 232.464L841.276 234.245C843.61 233.054 845.899 231.811 848.142 230.518L847.142 228.786ZM833.412 235.798C831.08 236.847 828.709 237.846 826.301 238.795L827.035 240.656C829.471 239.696 831.871 238.684 834.232 237.622L833.412 235.798ZM819.057 241.46C816.636 242.289 814.183 243.068 811.699 243.798L812.263 245.717C814.774 244.979 817.256 244.19 819.705 243.352L819.057 241.46ZM804.245 245.814C801.759 246.43 799.247 246.997 796.711 247.514L797.111 249.474C799.674 248.951 802.213 248.378 804.726 247.755L804.245 245.814ZM789.112 248.903C786.582 249.313 784.032 249.673 781.463 249.984L781.703 251.97C784.298 251.656 786.875 251.291 789.432 250.877L789.112 248.903ZM773.776 250.762C771.22 250.97 768.649 251.13 766.065 251.24L766.15 253.238C768.76 253.127 771.357 252.966 773.939 252.755L773.776 250.762ZM758.34 251.42C755.774 251.431 753.198 251.393 750.614 251.306L750.546 253.305C753.156 253.393 755.758 253.431 758.348 253.42L758.34 251.42ZM742.897 250.901C740.337 250.718 737.771 250.487 735.201 250.207L734.984 252.195C737.579 252.478 740.17 252.712 742.755 252.896L742.897 250.901ZM727.536 249.225C724.997 248.851 722.455 248.43 719.913 247.958L719.548 249.925C722.115 250.401 724.681 250.827 727.245 251.204L727.536 249.225ZM712.342 246.409C709.837 245.848 707.334 245.238 704.834 244.58L704.324 246.514C706.849 247.179 709.376 247.794 711.905 248.361L712.342 246.409ZM697.398 242.472C694.942 241.727 692.491 240.933 690.046 240.09L689.395 241.98C691.863 242.831 694.338 243.633 696.817 244.386L697.398 242.472ZM682.788 237.435C680.394 236.509 678.008 235.534 675.632 234.511L674.841 236.348C677.24 237.381 679.649 238.365 682.066 239.3L682.788 237.435ZM668.59 231.323C666.274 230.222 663.969 229.073 661.676 227.877L660.751 229.65C663.066 230.858 665.393 232.017 667.731 233.129L668.59 231.323ZM654.896 224.176C652.67 222.906 650.456 221.589 648.258 220.225L647.203 221.925C649.423 223.302 651.657 224.631 653.905 225.913L654.896 224.176ZM641.77 216.031C640.7 215.312 639.635 214.58 638.574 213.837L637.426 215.475C638.498 216.226 639.574 216.964 640.653 217.691L641.77 216.031Z" fill="#0082FF" fill-opacity="0.5"/>
<path d="M318 0H350" stroke="#0082FF" stroke-opacity="0.3" stroke-width="3" stroke-linecap="round"/>
<path d="M318 24H350" stroke="#0082FF" stroke-opacity="0.3" stroke-width="3" stroke-linecap="round"/>
<path d="M318 48H350" stroke="#0082FF" stroke-opacity="0.3" stroke-width="3" stroke-linecap="round"/>
<path d="M318 72H350" stroke="#0082FF" stroke-opacity="0.3" stroke-width="3" stroke-linecap="round"/>
<path d="M318 96H350" stroke="#0082FF" stroke-opacity="0.3" stroke-width="3" stroke-linecap="round"/>
<path d="M318 120H350" stroke="#0082FF" stroke-opacity="0.3" stroke-width="3" stroke-linecap="round"/>
<path d="M318 144H350" stroke="#0082FF" stroke-opacity="0.3" stroke-width="3" stroke-linecap="round"/>
<path d="M318 168H350" stroke="#0082FF" stroke-opacity="0.3" stroke-width="3" stroke-linecap="round"/>
<path d="M318 192H350" stroke="#0082FF" stroke-opacity="0.3" stroke-width="3" stroke-linecap="round"/>
<path d="M318 216H350" stroke="#0082FF" stroke-opacity="0.3" stroke-width="3" stroke-linecap="round"/>
<path d="M318 240H350" stroke="#0082FF" stroke-opacity="0.3" stroke-width="3" stroke-linecap="round"/>
<path d="M318 264H350" stroke="#0082FF" stroke-opacity="0.3" stroke-width="3" stroke-linecap="round"/>
<path d="M318 288H350" stroke="#0082FF" stroke-opacity="0.3" stroke-width="3" stroke-linecap="round"/>
<path d="M760 0H792" stroke="#0082FF" stroke-opacity="0.3" stroke-width="3" stroke-linecap="round"/>
<path d="M760 24H792" stroke="#0082FF" stroke-opacity="0.3" stroke-width="3" stroke-linecap="round"/>
<path d="M760 48H792" stroke="#0082FF" stroke-opacity="0.3" stroke-width="3" stroke-linecap="round"/>
<path d="M760 72H792" stroke="#0082FF" stroke-opacity="0.3" stroke-width="3" stroke-linecap="round"/>
<path d="M760 96H792" stroke="#0082FF" stroke-opacity="0.3" stroke-width="3" stroke-linecap="round"/>
<path d="M760 120H792" stroke="#0082FF" stroke-opacity="0.3" stroke-width="3" stroke-linecap="round"/>
<path d="M760 144H792" stroke="#0082FF" stroke-opacity="0.3" stroke-width="3" stroke-linecap="round"/>
<path d="M760 168H792" stroke="#0082FF" stroke-opacity="0.3" stroke-width="3" stroke-linecap="round"/>
<path d="M760 192H792" stroke="#0082FF" stroke-opacity="0.3" stroke-width="3" stroke-linecap="round"/>
<path d="M760 216H792" stroke="#0082FF" stroke-opacity="0.3" stroke-width="3" stroke-linecap="round"/>
<path d="M760 240H792" stroke="#0082FF" stroke-opacity="0.3" stroke-width="3" stroke-linecap="round"/>
<path d="M760 264H792" stroke="#0082FF" stroke-opacity="0.3" stroke-width="3" stroke-linecap="round"/>
<path d="M760 288H792" stroke="#0082FF" stroke-opacity="0.3" stroke-width="3" stroke-linecap="round"/>
<path d="M1202 0H1234" stroke="#0082FF" stroke-opacity="0.3" stroke-width="3" stroke-linecap="round"/>
<path d="M1202 24H1234" stroke="#0082FF" stroke-opacity="0.3" stroke-width="3" stroke-linecap="round"/>
<path d="M1202 48H1234" stroke="#0082FF" stroke-opacity="0.3" stroke-width="3" stroke-linecap="round"/>
<path d="M1202 72H1234" stroke="#0082FF" stroke-opacity="0.3" stroke-width="3" stroke-linecap="round"/>
<path d="M1202 96H1234" stroke="#0082FF" stroke-opacity="0.3" stroke-width="3" stroke-linecap="round"/>
<path d="M1202 120H1234" stroke="#0082FF" stroke-opacity="0.3" stroke-width="3" stroke-linecap="round"/>
<path d="M1202 144H1234" stroke="#0082FF" stroke-opacity="0.3" stroke-width="3" stroke-linecap="round"/>
<path d="M1202 168H1234" stroke="#0082FF" stroke-opacity="0.3" stroke-width="3" stroke-linecap="round"/>
<path d="M1202 192H1234" stroke="#0082FF" stroke-opacity="0.3" stroke-width="3" stroke-linecap="round"/>
<path d="M1202 216H1234" stroke="#0082FF" stroke-opacity="0.3" stroke-width="3" stroke-linecap="round"/>
<path d="M1202 240H1234" stroke="#0082FF" stroke-opacity="0.3" stroke-width="3" stroke-linecap="round"/>
<path d="M1202 264H1234" stroke="#0082FF" stroke-opacity="0.3" stroke-width="3" stroke-linecap="round"/>
<path d="M1202 288H1234" stroke="#0082FF" stroke-opacity="0.3" stroke-width="3" stroke-linecap="round"/>
</g>
<defs>
<clipPath id="clip0_5861_5040">
<rect width="1441" height="317.57" fill="white"/>
</clipPath>
</defs>
</svg>
