<svg width="259" height="31" viewBox="0 0 259 31" fill="none" xmlns="http://www.w3.org/2000/svg">
  <defs>
    <mask id="loading-mask">
      <!-- Increased wave segments and amplitude for more dramatic effect -->
      <path fill="white">
        <animate 
          attributeName="d"
          dur="1.5s"
          repeatCount="indefinite"
          values="
            M0,31 C32,31 65,31 97,31 C130,31 162,31 194,31 C226,31 259,31 259,31 L259,31 L0,31 Z;
            M0,20 C32,28 65,12 97,20 C130,28 162,12 194,20 C226,28 259,12 259,20 L259,31 L0,31 Z;
            M0,10 C32,18 65,2 97,10 C130,18 162,2 194,10 C226,18 259,2 259,10 L259,31 L0,31 Z;
            M0,0 C32,8 65,-8 97,0 C130,8 162,-8 194,0 C226,8 259,-8 259,0 L259,31 L0,31 Z;
            M0,-10 C32,-2 65,-18 97,-10 C130,-2 162,-18 194,-10 C226,-2 259,-18 259,-10 L259,31 L0,31 Z
          "
        />
      </path>
    </mask>
  </defs>
  
  <!-- Gray base logo -->
  <path d="M15.408 17.848C16.368 17.848 17.168 17.448 17.808 16.648C18.48 15.848 19.024 14.872 19.44 13.72C19.888 12.568 20.208 11.368 20.4 10.12C20.592 8.872 20.688 7.784 20.688 6.856C20.688 5.992 20.544 5.272 20.256 4.696C19.968 4.088 19.344 3.784 18.384 3.784H16.224L13.2 17.848H15.408ZM12.528 20.92L10.368 31H0L6.48 0.519998H17.568C19.392 0.519998 21.056 0.615998 22.56 0.808C24.064 0.999999 25.36 1.384 26.448 1.96C27.536 2.536 28.384 3.368 28.992 4.456C29.6 5.512 29.904 6.936 29.904 8.728C29.904 10.392 29.632 11.976 29.088 13.48C28.576 14.952 27.728 16.248 26.544 17.368C25.392 18.456 23.888 19.32 22.032 19.96C20.176 20.6 17.92 20.92 15.264 20.92H12.528ZM35.2613 0.519998H45.6773L40.0133 26.968H49.7573L48.9413 31H28.7812L35.2613 0.519998ZM78.5295 31H67.2975L66.6255 23.368H57.7455L54.3375 31H49.6815L63.8415 0.519998H75.2175L78.5295 31ZM59.3295 19.864H66.2895L65.1855 6.808L59.3295 19.864ZM97.422 19.48L94.974 31H84.558L87.198 18.664L82.494 0.519998H94.014L97.278 12.568L104.478 0.519998H109.662L97.422 19.48ZM141.357 31H130.701L135.117 10.264L123.741 31H117.213L115.053 9.544L110.445 31H106.125L112.605 0.519998H124.845L126.333 17.704L135.549 0.519998H147.885L141.357 31ZM173.217 31H161.985L161.313 23.368H152.433L149.025 31H144.369L158.529 0.519998H169.905L173.217 31ZM154.017 19.864H160.977L159.873 6.808L154.017 19.864ZM189.564 13.768L201.42 0.471998H206.844L196.092 12.136L203.388 31H192.924L188.7 17.608L185.868 31H175.5L181.98 0.519998H192.396L189.564 13.768ZM211.183 0.519998H231.391L230.623 4.168H220.831L218.815 13.432H227.023L226.255 17.032H218.047L215.839 27.304H225.631L224.911 31H204.703L211.183 0.519998ZM258.748 7.768C258.748 9.656 258.22 11.4 257.164 13C256.108 14.6 254.364 15.816 251.932 16.648L257.5 31H246.796L242.572 17.704H242.044L239.212 31H228.844L235.324 0.519998H247.948C249.42 0.519998 250.812 0.615998 252.124 0.808C253.436 0.967999 254.572 1.32 255.532 1.864C256.524 2.376 257.308 3.112 257.884 4.072C258.46 5 258.748 6.232 258.748 7.768ZM244.924 14.632C245.756 14.632 246.46 14.36 247.036 13.816C247.644 13.24 248.124 12.552 248.476 11.752C248.86 10.952 249.132 10.104 249.292 9.208C249.452 8.28 249.532 7.48 249.532 6.808C249.532 5.976 249.388 5.272 249.1 4.696C248.812 4.088 248.188 3.784 247.228 3.784H245.068L242.668 14.632H244.924Z" fill="#C1CDD6"/>
  
  <!-- Blue logo that will be revealed -->
  <path d="M15.408 17.848C16.368 17.848 17.168 17.448 17.808 16.648C18.48 15.848 19.024 14.872 19.44 13.72C19.888 12.568 20.208 11.368 20.4 10.12C20.592 8.872 20.688 7.784 20.688 6.856C20.688 5.992 20.544 5.272 20.256 4.696C19.968 4.088 19.344 3.784 18.384 3.784H16.224L13.2 17.848H15.408ZM12.528 20.92L10.368 31H0L6.48 0.519998H17.568C19.392 0.519998 21.056 0.615998 22.56 0.808C24.064 0.999999 25.36 1.384 26.448 1.96C27.536 2.536 28.384 3.368 28.992 4.456C29.6 5.512 29.904 6.936 29.904 8.728C29.904 10.392 29.632 11.976 29.088 13.48C28.576 14.952 27.728 16.248 26.544 17.368C25.392 18.456 23.888 19.32 22.032 19.96C20.176 20.6 17.92 20.92 15.264 20.92H12.528ZM35.2613 0.519998H45.6773L40.0133 26.968H49.7573L48.9413 31H28.7812L35.2613 0.519998ZM78.5295 31H67.2975L66.6255 23.368H57.7455L54.3375 31H49.6815L63.8415 0.519998H75.2175L78.5295 31ZM59.3295 19.864H66.2895L65.1855 6.808L59.3295 19.864ZM97.422 19.48L94.974 31H84.558L87.198 18.664L82.494 0.519998H94.014L97.278 12.568L104.478 0.519998H109.662L97.422 19.48ZM141.357 31H130.701L135.117 10.264L123.741 31H117.213L115.053 9.544L110.445 31H106.125L112.605 0.519998H124.845L126.333 17.704L135.549 0.519998H147.885L141.357 31ZM173.217 31H161.985L161.313 23.368H152.433L149.025 31H144.369L158.529 0.519998H169.905L173.217 31ZM154.017 19.864H160.977L159.873 6.808L154.017 19.864ZM189.564 13.768L201.42 0.471998H206.844L196.092 12.136L203.388 31H192.924L188.7 17.608L185.868 31H175.5L181.98 0.519998H192.396L189.564 13.768ZM211.183 0.519998H231.391L230.623 4.168H220.831L218.815 13.432H227.023L226.255 17.032H218.047L215.839 27.304H225.631L224.911 31H204.703L211.183 0.519998ZM258.748 7.768C258.748 9.656 258.22 11.4 257.164 13C256.108 14.6 254.364 15.816 251.932 16.648L257.5 31H246.796L242.572 17.704H242.044L239.212 31H228.844L235.324 0.519998H247.948C249.42 0.519998 250.812 0.615998 252.124 0.808C253.436 0.967999 254.572 1.32 255.532 1.864C256.524 2.376 257.308 3.112 257.884 4.072C258.46 5 258.748 6.232 258.748 7.768ZM244.924 14.632C245.756 14.632 246.46 14.36 247.036 13.816C247.644 13.24 248.124 12.552 248.476 11.752C248.86 10.952 249.132 10.104 249.292 9.208C249.452 8.28 249.532 7.48 249.532 6.808C249.532 5.976 249.388 5.272 249.1 4.696C248.812 4.088 248.188 3.784 247.228 3.784H245.068L242.668 14.632H244.924Z" fill="#0056CF" mask="url(#loading-mask)"/>
</svg>