<svg width="370" height="105" viewBox="0 0 370 105" fill="none" xmlns="http://www.w3.org/2000/svg">
<path d="M42.75 4.35881V13.4636C42.75 14.1922 42.3972 14.8757 41.8032 15.2977L0.946784 44.3273C0.352827 44.7493 0 45.4328 0 46.1614V73.0886C0 73.8172 0.352827 74.5007 0.946784 74.9227L39.1968 102.1C40.6865 103.159 42.75 102.094 42.75 100.266V92.2864C42.75 91.5578 43.1028 90.8743 43.6968 90.4523L84.5532 61.4227C85.1472 61.0007 85.5 60.3172 85.5 59.5886V31.5364C85.5 30.8078 85.1472 30.1243 84.5532 29.7023L46.3032 2.52465C44.8135 1.46614 42.75 2.53129 42.75 4.35881Z" fill="#0056CF"/>
<path d="M44 35L53.9 44.9" stroke="white" stroke-width="2.475" stroke-linecap="round"/>
<path d="M53.9 35L44 44.9" stroke="white" stroke-width="2.475" stroke-linecap="round"/>
<circle cx="21.665" cy="51.665" r="6.30375" stroke="white" stroke-width="2.7225"/>
<path d="M58.7675 51.5669L68.3669 51.3498C69.1648 51.3318 69.7709 52.0626 69.6055 52.8434L67.8632 61.0702" stroke="white" stroke-width="2.475" stroke-linecap="round"/>
<path d="M68.6287 52.4411C62.2203 59.3269 47.6145 71.1908 22.5 63.0001" stroke="white" stroke-width="2.475" stroke-linecap="round"/>
<path d="M124.908 44.6605C125.868 44.6605 126.668 44.2605 127.308 43.4605C127.98 42.6605 128.524 41.6845 128.94 40.5325C129.388 39.3805 129.708 38.1805 129.9 36.9325C130.092 35.6845 130.188 34.5965 130.188 33.6685C130.188 32.8045 130.044 32.0845 129.756 31.5085C129.468 30.9005 128.844 30.5965 127.884 30.5965H125.724L122.7 44.6605H124.908ZM122.028 47.7325L119.868 57.8125H109.5L115.98 27.3325H127.068C128.892 27.3325 130.556 27.4285 132.06 27.6205C133.564 27.8125 134.86 28.1965 135.948 28.7725C137.036 29.3485 137.884 30.1805 138.492 31.2685C139.1 32.3245 139.404 33.7485 139.404 35.5405C139.404 37.2045 139.132 38.7885 138.588 40.2925C138.076 41.7645 137.228 43.0605 136.044 44.1805C134.892 45.2685 133.388 46.1325 131.532 46.7725C129.676 47.4125 127.42 47.7325 124.764 47.7325H122.028ZM144.761 27.3325H155.177L149.513 53.7805H159.257L158.441 57.8125H138.281L144.761 27.3325ZM188.03 57.8125H176.798L176.126 50.1805H167.246L163.838 57.8125H159.181L173.342 27.3325H184.718L188.03 57.8125ZM168.83 46.6765H175.79L174.686 33.6205L168.83 46.6765ZM206.922 46.2925L204.474 57.8125H194.058L196.698 45.4765L191.994 27.3325H203.514L206.778 39.3805L213.978 27.3325H219.162L206.922 46.2925ZM250.857 57.8125H240.201L244.617 37.0765L233.241 57.8125H226.713L224.553 36.3565L219.945 57.8125H215.625L222.105 27.3325H234.345L235.833 44.5165L245.049 27.3325H257.385L250.857 57.8125ZM282.717 57.8125H271.485L270.813 50.1805H261.933L258.525 57.8125H253.869L268.029 27.3325H279.405L282.717 57.8125ZM263.517 46.6765H270.477L269.373 33.6205L263.517 46.6765ZM299.064 40.5805L310.92 27.2845H316.344L305.592 38.9485L312.888 57.8125H302.424L298.2 44.4205L295.368 57.8125H285L291.48 27.3325H301.896L299.064 40.5805ZM320.683 27.3325H340.891L340.123 30.9805H330.331L328.315 40.2445H336.523L335.755 43.8445H327.547L325.339 54.1165H335.131L334.411 57.8125H314.203L320.683 27.3325ZM368.248 34.5805C368.248 36.4685 367.72 38.2125 366.664 39.8125C365.608 41.4125 363.864 42.6285 361.432 43.4605L367 57.8125H356.296L352.072 44.5165H351.544L348.712 57.8125H338.344L344.824 27.3325H357.448C358.92 27.3325 360.312 27.4285 361.624 27.6205C362.936 27.7805 364.072 28.1325 365.032 28.6765C366.024 29.1885 366.808 29.9245 367.384 30.8845C367.96 31.8125 368.248 33.0445 368.248 34.5805ZM354.424 41.4445C355.256 41.4445 355.96 41.1725 356.536 40.6285C357.144 40.0525 357.624 39.3645 357.976 38.5645C358.36 37.7645 358.632 36.9165 358.792 36.0205C358.952 35.0925 359.032 34.2925 359.032 33.6205C359.032 32.7885 358.888 32.0845 358.6 31.5085C358.312 30.9005 357.688 30.5965 356.728 30.5965H354.568L352.168 41.4445H354.424Z" fill="#0056CF"/>
<path d="M119.808 85.093V89.6035C118.847 90.363 117.545 90.983 115.809 90.983C112.554 90.983 110.306 88.5185 110.306 85.3875C110.306 82.241 112.709 79.7765 115.84 79.7765C117.173 79.7765 118.444 80.195 119.56 80.97V82.5355C118.335 81.5745 117.111 81.094 115.809 81.094C113.453 81.094 111.717 82.985 111.717 85.3875C111.717 87.728 113.313 89.6655 115.84 89.6655C116.94 89.6655 117.793 89.371 118.444 88.906V86.395H115.576V85.093H119.808ZM128.477 88.5805V90.022C127.64 90.6265 126.617 90.983 125.563 90.983C123.161 90.983 121.611 89.2625 121.611 87.046C121.611 84.7985 123.161 83.109 125.331 83.109C127.439 83.109 128.88 84.845 128.88 86.984C128.88 87.2785 128.849 87.4645 128.849 87.4645H122.944C123.052 88.72 124.091 89.774 125.656 89.774C126.617 89.774 127.547 89.3865 128.477 88.5805ZM122.975 86.364H127.532C127.423 85.1705 126.54 84.2715 125.3 84.2715C124.044 84.2715 123.068 85.341 122.975 86.364ZM132.069 86.8755V90.8125H130.736V83.2795H132.069V84.3645C132.534 83.6205 133.34 83.109 134.471 83.109C136.393 83.109 137.509 84.3955 137.509 86.395V90.8125H136.176V86.55C136.176 85.2015 135.479 84.349 134.192 84.349C132.906 84.349 132.069 85.341 132.069 86.8755ZM146.202 88.5805V90.022C145.365 90.6265 144.342 90.983 143.288 90.983C140.886 90.983 139.336 89.2625 139.336 87.046C139.336 84.7985 140.886 83.109 143.056 83.109C145.164 83.109 146.605 84.845 146.605 86.984C146.605 87.2785 146.574 87.4645 146.574 87.4645H140.669C140.777 88.72 141.816 89.774 143.381 89.774C144.342 89.774 145.272 89.3865 146.202 88.5805ZM140.7 86.364H145.257C145.148 85.1705 144.265 84.2715 143.025 84.2715C141.769 84.2715 140.793 85.341 140.7 86.364ZM152.398 83.1865V84.5195C152.398 84.5195 152.258 84.4885 152.026 84.4885C150.631 84.4885 149.778 85.6045 149.778 87.232V90.8125H148.461V83.2795H149.763V84.6125C150.104 83.7445 151.08 83.1555 152.072 83.1555C152.258 83.1555 152.398 83.1865 152.398 83.1865ZM158.386 86.023V85.837C158.386 84.8915 157.72 84.318 156.604 84.318C155.581 84.318 154.821 84.7365 154.046 85.4495V84.0545C154.728 83.4965 155.55 83.109 156.635 83.109C158.572 83.109 159.688 84.1785 159.688 85.93V90.8125H158.433V89.8205C157.844 90.58 156.929 90.983 155.937 90.983C154.604 90.983 153.659 90.0685 153.659 88.8285C153.659 87.48 154.511 86.674 156.17 86.395L158.386 86.023ZM154.992 88.751C154.992 89.3865 155.488 89.805 156.185 89.805C157.472 89.805 158.402 88.968 158.402 87.8055V87.17L156.387 87.5265C155.488 87.697 154.992 88.1 154.992 88.751ZM160.955 84.3025L163.544 81.5125H163.59V83.2795H165.698V84.473H163.59V88.4565C163.59 89.34 163.978 89.743 164.846 89.743C165.14 89.743 165.466 89.6655 165.698 89.5105V90.7505C165.435 90.89 165.047 90.983 164.536 90.983C163.11 90.983 162.257 90.0995 162.257 88.6425V84.473H160.955V84.3025ZM173.721 88.5805V90.022C172.884 90.6265 171.861 90.983 170.807 90.983C168.404 90.983 166.854 89.2625 166.854 87.046C166.854 84.7985 168.404 83.109 170.574 83.109C172.682 83.109 174.124 84.845 174.124 86.984C174.124 87.2785 174.093 87.4645 174.093 87.4645H168.187C168.296 88.72 169.334 89.774 170.9 89.774C171.861 89.774 172.791 89.3865 173.721 88.5805ZM168.218 86.364H172.775C172.667 85.1705 171.783 84.2715 170.543 84.2715C169.288 84.2715 168.311 85.341 168.218 86.364ZM183.933 90.983C181.251 90.983 179.779 89.1695 179.779 86.488V79.9625H181.158V86.4725C181.158 88.379 182.119 89.681 183.933 89.681C185.731 89.681 186.692 88.379 186.692 86.4725V79.9625H188.071V86.488C188.071 89.1695 186.614 90.983 183.933 90.983ZM190.711 79.9625H192.09V90.8125H190.711V79.9625ZM200.192 90.8125H198.859V84.473H197.696V83.2795H198.859V82.6285C198.859 80.7065 199.959 79.7765 201.447 79.7765C201.99 79.7765 202.346 79.8695 202.579 79.9625V81.156C202.346 81.063 202.052 81.001 201.664 81.001C200.827 81.001 200.192 81.4195 200.192 82.5975V83.2795H202.3V84.473H200.192V90.8125ZM207.813 83.1865V84.5195C207.813 84.5195 207.674 84.4885 207.441 84.4885C206.046 84.4885 205.194 85.6045 205.194 87.232V90.8125H203.876V83.2795H205.178V84.6125C205.519 83.7445 206.496 83.1555 207.488 83.1555C207.674 83.1555 207.813 83.1865 207.813 83.1865ZM212.553 83.109C214.816 83.109 216.49 84.8605 216.49 87.046C216.49 89.2315 214.816 90.983 212.553 90.983C210.29 90.983 208.616 89.2315 208.616 87.046C208.616 84.8605 210.29 83.109 212.553 83.109ZM212.553 84.3335C211.081 84.3335 209.965 85.5425 209.965 87.046C209.965 88.5495 211.081 89.7585 212.553 89.7585C214.026 89.7585 215.142 88.5495 215.142 87.046C215.142 85.5425 214.026 84.3335 212.553 84.3335ZM219.756 86.86V90.8125H218.423V83.2795H219.74V84.3645C220.159 83.5895 220.918 83.109 221.957 83.109C223.073 83.109 223.879 83.667 224.328 84.5815C224.7 83.946 225.475 83.109 226.901 83.109C228.637 83.109 229.676 84.3335 229.676 86.271V90.8125H228.343V86.5035C228.343 85.1705 227.769 84.3335 226.638 84.3335C225.475 84.3335 224.716 85.3255 224.716 86.86V90.8125H223.383V86.5345C223.383 85.186 222.794 84.3335 221.678 84.3335C220.515 84.3335 219.756 85.3255 219.756 86.86ZM235.333 90.208V88.7355C236.015 89.3555 236.899 89.7895 237.813 89.7895C238.573 89.7895 239.27 89.526 239.27 88.751C239.27 87.976 238.542 87.7125 237.596 87.511C236.511 87.2785 235.318 86.8445 235.318 85.3875C235.318 83.8685 236.604 83.109 237.953 83.109C238.759 83.109 239.565 83.357 240.231 83.8065V85.217C239.565 84.6745 238.79 84.287 237.984 84.287C237.348 84.287 236.62 84.535 236.62 85.2325C236.62 85.9145 237.271 86.209 238.139 86.426C239.534 86.767 240.588 87.2785 240.588 88.6425C240.588 90.177 239.301 90.983 237.798 90.983C236.976 90.983 236.046 90.735 235.333 90.208ZM243.95 81.0475C243.95 81.5435 243.547 81.9465 243.051 81.9465C242.555 81.9465 242.152 81.5435 242.152 81.0475C242.152 80.5515 242.555 80.1485 243.051 80.1485C243.547 80.1485 243.95 80.5515 243.95 81.0475ZM242.384 83.2795H243.717V90.8125H242.384V83.2795ZM247.531 86.86V90.8125H246.198V83.2795H247.516V84.3645C247.934 83.5895 248.694 83.109 249.732 83.109C250.848 83.109 251.654 83.667 252.104 84.5815C252.476 83.946 253.251 83.109 254.677 83.109C256.413 83.109 257.451 84.3335 257.451 86.271V90.8125H256.118V86.5035C256.118 85.1705 255.545 84.3335 254.413 84.3335C253.251 84.3335 252.491 85.3255 252.491 86.86V90.8125H251.158V86.5345C251.158 85.186 250.569 84.3335 249.453 84.3335C248.291 84.3335 247.531 85.3255 247.531 86.86ZM261.139 94.0365H259.822V83.2795H261.139V84.473C261.682 83.6515 262.705 83.109 263.805 83.109C265.944 83.109 267.587 84.814 267.587 87.046C267.587 89.2625 265.944 90.983 263.805 90.983C262.705 90.983 261.697 90.5025 261.139 89.681V94.0365ZM266.239 87.046C266.239 85.527 265.123 84.3335 263.65 84.3335C262.178 84.3335 261.062 85.527 261.062 87.046C261.062 88.565 262.178 89.7585 263.65 89.7585C265.123 89.7585 266.239 88.565 266.239 87.046ZM269.524 79.9625H270.857V90.8125H269.524V79.9625ZM279.663 88.5805V90.022C278.826 90.6265 277.803 90.983 276.749 90.983C274.346 90.983 272.796 89.2625 272.796 87.046C272.796 84.7985 274.346 83.109 276.516 83.109C278.624 83.109 280.066 84.845 280.066 86.984C280.066 87.2785 280.035 87.4645 280.035 87.4645H274.129C274.238 88.72 275.276 89.774 276.842 89.774C277.803 89.774 278.733 89.3865 279.663 88.5805ZM274.16 86.364H278.717C278.609 85.1705 277.725 84.2715 276.485 84.2715C275.23 84.2715 274.253 85.341 274.16 86.364ZM284.713 84.3025L287.301 81.5125H287.348V83.2795H289.456V84.473H287.348V88.4565C287.348 89.34 287.735 89.743 288.603 89.743C288.898 89.743 289.223 89.6655 289.456 89.5105V90.7505C289.192 90.89 288.805 90.983 288.293 90.983C286.867 90.983 286.015 90.0995 286.015 88.6425V84.473H284.713V84.3025ZM297.479 88.5805V90.022C296.642 90.6265 295.619 90.983 294.565 90.983C292.162 90.983 290.612 89.2625 290.612 87.046C290.612 84.7985 292.162 83.109 294.332 83.109C296.44 83.109 297.882 84.845 297.882 86.984C297.882 87.2785 297.851 87.4645 297.851 87.4645H291.945C292.054 88.72 293.092 89.774 294.658 89.774C295.619 89.774 296.549 89.3865 297.479 88.5805ZM291.976 86.364H296.533C296.425 85.1705 295.541 84.2715 294.301 84.2715C293.046 84.2715 292.069 85.341 291.976 86.364ZM304.07 90.8125L302.008 87.8985L299.931 90.8125H298.428L301.233 86.9685L298.552 83.2795H300.102L302.039 86.0075L303.992 83.2795H305.511L302.83 86.9375L305.635 90.8125H304.07ZM306.147 84.3025L308.735 81.5125H308.782V83.2795H310.89V84.473H308.782V88.4565C308.782 89.34 309.169 89.743 310.037 89.743C310.332 89.743 310.657 89.6655 310.89 89.5105V90.7505C310.626 90.89 310.239 90.983 309.727 90.983C308.301 90.983 307.449 90.0995 307.449 88.6425V84.473H306.147V84.3025Z" fill="#242B42"/>
</svg>
