<svg width="24" height="25" viewBox="0 0 24 25" fill="none" xmlns="http://www.w3.org/2000/svg">
<path fill-rule="evenodd" clip-rule="evenodd" d="M18.0061 3.26517L14.3952 11.154L14.0061 3.26517H8.02437L4.25537 11.5131C5.86023 12.3124 7.53805 13.0191 9.26449 13.6098H9.27665L9.62923 12.8337L9.64139 13.7373C12.3891 14.6524 15.2706 15.3127 18.2614 15.7761H18.2736L24.0001 3.27675H18.0061V3.26517ZM8.91185 14.2701C7.12462 13.5635 5.47112 12.7758 4.06079 11.9417L0 20.8036H5.98176L8.96049 14.2933C8.93617 14.2817 8.92401 14.2701 8.91185 14.2701ZM17.7751 16.8071C15.0152 16.2974 12.2067 15.5096 9.64138 14.5482L9.69001 20.792H15.9514L17.7751 16.8071Z" fill="#242B42"/>
</svg>
