<svg width="42" height="52" viewBox="0 0 42 52" fill="none" xmlns="http://www.w3.org/2000/svg">
<path d="M14.225 21.5951L15.3804 22.7505L12.317 25.8139L15.3804 28.8777L14.225 30.0332L11.1616 26.9693L8.09815 30.0332L6.94272 28.8777L10.0057 25.8139L6.94272 22.7505L8.09815 21.5951L11.1616 24.6585L14.225 21.5951Z" fill="#0056CF"/>
<path fill-rule="evenodd" clip-rule="evenodd" d="M25.6652 25.8137C25.6652 23.0768 27.8844 20.858 30.6214 20.858C33.3583 20.858 35.5771 23.0768 35.5771 25.8137C35.5771 28.5516 33.3583 30.7704 30.6214 30.7704C27.8844 30.7704 25.6652 28.5516 25.6652 25.8137ZM33.9428 25.8137C33.9428 23.9822 32.4529 22.4923 30.6214 22.4923C28.7894 22.4923 27.2995 23.9822 27.2995 25.8137C27.2995 27.6457 28.7894 29.136 30.6214 29.136C32.4529 29.136 33.9428 27.6457 33.9428 25.8137Z" fill="#0056CF"/>
<path d="M20.5172 18.6328L25.2563 23.7626L24.0988 24.8407L21.306 21.8026V30.625C21.306 31.0617 20.9526 31.4156 20.5155 31.4156C20.0792 31.4156 19.7254 31.0617 19.7254 30.625V21.8056L16.9466 24.8407L15.789 23.7626L20.5172 18.6328Z" fill="#0056CF"/>
<path fill-rule="evenodd" clip-rule="evenodd" d="M21.4861 0C19.8209 0 18.4666 1.36194 18.4666 3.03553V7.28984L1.34209 19.8387L1.32562 19.8509L1.30957 19.8627L1.30028 19.8699C0.485229 20.4772 0 21.4468 0 22.4692V35.4344C0 36.4661 0.488608 37.4387 1.30873 38.046L1.32393 38.0569L1.3328 38.0637L1.34209 38.0704L18.7377 50.8177C19.2576 51.1991 19.872 51.4014 20.5139 51.4014C22.1795 51.4014 23.5343 50.039 23.5343 48.365V44.1115L40.6579 31.5623L40.6748 31.5505L40.6909 31.5382L40.6989 31.5319C41.5143 30.9246 42 29.9546 42 28.9317V15.967C42 14.9332 41.5105 13.9602 40.6892 13.3537L40.6748 13.3432L40.6668 13.3368L40.6579 13.3305L23.2623 0.583204C22.7429 0.202284 22.1284 0 21.4861 0ZM21.4861 2.53383C21.5807 2.53383 21.677 2.56255 21.7644 2.62716L39.1604 15.3745L39.1811 15.3897C39.3602 15.5206 39.4662 15.7338 39.4662 15.9602V28.9317C39.4662 29.1598 39.3593 29.3726 39.1798 29.504L39.1604 29.5183L21.0004 42.8269V48.365C21.0004 48.6615 20.7656 48.8675 20.5139 48.8675C20.4198 48.8675 20.323 48.838 20.2352 48.7738L2.84001 36.0269L2.81931 36.0113C2.63983 35.8799 2.53383 35.6675 2.53383 35.4412V22.4692C2.53383 22.2416 2.64068 22.0283 2.82016 21.8974L2.84001 21.8822L21.0004 8.57407V3.03553C21.0004 2.73992 21.2344 2.53383 21.4861 2.53383Z" fill="#0056CF"/>
</svg>
