<svg width="86" height="105" viewBox="0 0 86 105" fill="none" xmlns="http://www.w3.org/2000/svg">
<path d="M42.75 4.35881V13.4636C42.75 14.1922 42.3972 14.8757 41.8032 15.2977L0.946784 44.3273C0.352827 44.7493 0 45.4328 0 46.1614V73.0886C0 73.8172 0.352827 74.5007 0.946784 74.9227L39.1968 102.1C40.6865 103.159 42.75 102.094 42.75 100.266V92.2864C42.75 91.5578 43.1028 90.8743 43.6968 90.4523L84.5532 61.4227C85.1472 61.0007 85.5 60.3172 85.5 59.5886V31.5364C85.5 30.8078 85.1472 30.1243 84.5532 29.7023L46.3032 2.52465C44.8135 1.46614 42.75 2.53129 42.75 4.35881Z" fill="#0056CF"/>
<path d="M44 35L53.9 44.9" stroke="white" stroke-width="2.475" stroke-linecap="round"/>
<path d="M53.9 35L44 44.9" stroke="white" stroke-width="2.475" stroke-linecap="round"/>
<circle cx="21.665" cy="51.665" r="6.30375" stroke="white" stroke-width="2.7225"/>
<path d="M58.7674 51.567L68.3669 51.3499C69.1648 51.3318 69.7708 52.0626 69.6055 52.8434L67.8632 61.0702" stroke="white" stroke-width="2.475" stroke-linecap="round"/>
<path d="M68.6287 52.4411C62.2203 59.3269 47.6145 71.1908 22.4999 63" stroke="white" stroke-width="2.475" stroke-linecap="round"/>
</svg>
