<svg width="144" height="39" viewBox="0 0 144 39" fill="none" xmlns="http://www.w3.org/2000/svg">
<mask id="mask0_5808_476" style="mask-type:luminance" maskUnits="userSpaceOnUse" x="0" y="0" width="32" height="39">
<path fill-rule="evenodd" clip-rule="evenodd" d="M31.2799 38.2815H0V0H31.2799V38.2815Z" fill="white"/>
</mask>
<g mask="url(#mask0_5808_476)">
<path fill-rule="evenodd" clip-rule="evenodd" d="M13.7532 2.26074C13.7532 1.01431 14.7618 0 16.002 0C16.4803 0 16.938 0.150653 17.3248 0.434347L30.2804 9.92802L30.287 9.93273L30.2929 9.93745L30.3036 9.94531C30.9154 10.397 31.2799 11.1216 31.2799 11.8915V21.5472C31.2799 22.3089 30.9182 23.0314 30.3109 23.4837L30.3049 23.4884L30.2929 23.4975L30.2804 23.5063L17.5274 32.8525V36.0203C17.5274 37.267 16.5184 38.2816 15.2779 38.2816C14.7999 38.2816 14.3423 38.131 13.9551 37.847L0.999532 28.3533L0.992613 28.3483L0.986008 28.3433L0.974685 28.3351C0.363895 27.8828 0 27.1585 0 26.3901V16.7341C0 15.9727 0.361379 15.2506 0.968395 14.7983L0.975314 14.793L0.987266 14.7841L0.999532 14.775L13.7532 5.42918V2.26074ZM16.2092 1.9566C16.1441 1.90848 16.0724 1.8871 16.002 1.8871C15.8145 1.8871 15.6403 2.04058 15.6403 2.26074V6.38562L2.11512 16.297L2.10034 16.3083C1.96667 16.4058 1.8871 16.5646 1.8871 16.7341V16.7379V26.3901V26.3951C1.8871 26.5637 1.96604 26.7219 2.09971 26.8197L2.11512 26.8314L15.0704 36.3247C15.1358 36.3725 15.2078 36.3945 15.2779 36.3945C15.4654 36.3945 15.6403 36.2411 15.6403 36.0203V31.8957L29.1651 21.984L29.1795 21.9734C29.3132 21.8755 29.3928 21.717 29.3928 21.5472V21.5437V11.8915V11.8865C29.3928 11.7179 29.3138 11.5591 29.1805 11.4616L29.1651 11.4503L16.2092 1.9566Z" fill="#0056CF"/>
</g>
<path d="M11.4549 16.9436L10.5944 16.0831L8.31291 18.3646L6.03141 16.0831L5.1709 16.9436L7.45208 19.2251L5.1709 21.507L6.03141 22.3675L8.31291 20.0857L10.5944 22.3675L11.4549 21.507L9.17343 19.2251L11.4549 16.9436Z" fill="#0056CF"/>
<path fill-rule="evenodd" clip-rule="evenodd" d="M19.1143 19.225C19.1143 17.1866 20.767 15.5341 22.8054 15.5341C24.8438 15.5341 26.4963 17.1866 26.4963 19.225C26.4963 21.264 24.8438 22.9164 22.8054 22.9164C20.767 22.9164 19.1143 21.264 19.1143 19.225ZM25.2791 19.225C25.2791 17.8609 24.1695 16.7513 22.8054 16.7513C21.441 16.7513 20.3314 17.8609 20.3314 19.225C20.3314 20.5893 21.441 21.6993 22.8054 21.6993C24.1695 21.6993 25.2791 20.5893 25.2791 19.225Z" fill="#0056CF"/>
<path d="M18.8096 17.6974L15.2801 13.877L11.7588 17.6974L12.6209 18.5003L14.6904 16.2399V22.8083C14.6904 23.1335 14.954 23.397 15.2789 23.397C15.6044 23.397 15.8676 23.1335 15.8676 22.8083V16.2377L17.9475 18.5003L18.8096 17.6974Z" fill="#0056CF"/>
<path fill-rule="evenodd" clip-rule="evenodd" d="M41.5996 18.5548V12.9296H45.6679C49.4348 12.9296 51.494 10.3932 51.494 7.37969C51.494 4.34106 49.4348 1.80469 45.6679 1.80469H37.2803V18.5548H41.5996ZM45.015 9.16268H41.5996V5.57158H45.015C46.1701 5.57158 47.0993 6.22451 47.0993 7.37969C47.0993 8.50975 46.1701 9.16268 45.015 9.16268ZM57.1883 1.80469V18.5548H53.3209V1.80469H57.1883ZM71.019 18.5548V10.9708C71.019 7.2039 68.2818 6.12406 65.3687 6.12406C63.5104 6.12406 61.426 6.67653 59.869 8.0075L61.3005 10.6945C62.2798 9.86583 63.4853 9.38869 64.6907 9.38869C66.2476 9.38869 67.1517 10.117 67.1517 11.1717V12.3771C66.4234 11.473 64.992 10.9457 63.3848 10.9457L63.2372 10.9477C61.4065 10.9986 59.2161 12.0024 59.2161 14.8632C59.2161 17.5754 61.5265 18.8561 63.3848 18.8561C64.9418 18.8561 66.3983 18.2534 67.1517 17.3494V18.5548H71.019ZM63.0583 14.9135C63.0583 15.8677 63.9875 16.3198 64.992 16.3198C65.8458 16.3198 66.7499 16.0184 67.1517 15.4408V14.361C66.7499 13.7834 65.8458 13.5072 64.992 13.5072C63.9875 13.5072 63.0583 13.9592 63.0583 14.9135ZM73.5742 23.276C73.976 23.4015 74.8801 23.4769 75.2317 23.4769L75.4491 23.4706C77.6434 23.3899 79.35 22.7889 80.3081 20.4062L85.8292 6.42541H81.7358L78.9985 14.1099L76.2362 6.42541H72.1679L77.0147 18.7306L76.7384 19.3835C76.5124 19.8858 75.9599 20.0616 75.081 20.0616C74.7796 20.0616 74.4029 19.9862 74.1267 19.8355L73.5742 23.276ZM90.8454 10.6443V14.361C91.3225 15.0139 92.327 15.4408 93.1558 15.4408C94.6876 15.4408 95.8428 14.3108 95.8428 12.4775C95.8428 10.6694 94.6876 9.53937 93.1558 9.53937C92.327 9.53937 91.3225 9.9914 90.8454 10.6443ZM90.8454 18.5548V17.1485C91.8499 18.3037 93.0804 18.8561 94.4365 18.8561C97.4249 18.8561 99.7855 16.596 99.7855 12.4775C99.7855 8.50975 97.4751 6.12406 94.4365 6.12406C93.1055 6.12406 91.7997 6.65142 90.8454 7.85682V1.80469H86.9781V18.5548H90.8454ZM114.244 12.4775C114.244 15.8929 111.783 18.8561 107.614 18.8561C103.496 18.8561 101.035 15.8929 101.035 12.4775C101.035 9.06223 103.496 6.12406 107.614 6.12406C111.783 6.12406 114.244 9.06223 114.244 12.4775ZM107.614 15.4408C105.957 15.4408 105.003 14.1099 105.003 12.4775C105.003 10.8703 105.957 9.53937 107.614 9.53937C109.322 9.53937 110.276 10.8703 110.276 12.4775C110.276 14.1099 109.322 15.4408 107.614 15.4408ZM128.703 12.4775C128.703 15.8929 126.242 18.8561 122.073 18.8561C117.954 18.8561 115.493 15.8929 115.493 12.4775C115.493 9.06223 117.954 6.12406 122.073 6.12406C126.242 6.12406 128.703 9.06223 128.703 12.4775ZM122.073 15.4408C120.415 15.4408 119.461 14.1099 119.461 12.4775C119.461 10.8703 120.415 9.53937 122.073 9.53937C123.781 9.53937 124.735 10.8703 124.735 12.4775C124.735 14.1099 123.781 15.4408 122.073 15.4408ZM138.415 18.5548H143.186L138.49 11.9502L142.96 6.42541H138.289L134.598 11.2721V1.80469H130.73V18.5548H134.598V15.6417L135.753 14.2605L138.415 18.5548Z" fill="#0056CF"/>
<path d="M40.9643 26.0769C42.5603 26.0769 43.6763 26.9649 43.6763 28.5009C43.6763 30.0369 42.5603 30.9129 40.9643 30.9129H39.4283V34.4769H38.3603V26.0769H40.9643ZM39.4283 27.0609V29.9289H40.9643C41.9243 29.9289 42.5963 29.4009 42.5963 28.5009C42.5963 27.5769 41.9243 27.0609 40.9643 27.0609H39.4283ZM48.0634 26.0769H49.1314V33.4809H52.1314V34.4769H48.0634V26.0769ZM59.2204 26.0769H60.0604L63.5164 34.4769H62.3884L61.4044 32.0409H57.8404L56.8564 34.4769H55.7524L59.2204 26.0769ZM59.6164 27.5769L58.2244 31.0689H61.0204L59.6164 27.5769ZM68.7971 30.7329L65.7251 26.0769H66.9731L69.3371 29.7489L71.7011 26.0769H72.9251L69.8651 30.7329V34.4769H68.7971V30.7329ZM83.3931 30.0489V33.5409C82.6491 34.1289 81.6411 34.6089 80.2971 34.6089C77.7771 34.6089 76.0371 32.7009 76.0371 30.2769C76.0371 27.8409 77.8971 25.9329 80.3211 25.9329C81.3531 25.9329 82.3371 26.2569 83.2011 26.8569V28.0689C82.2531 27.3249 81.3051 26.9529 80.2971 26.9529C78.4731 26.9529 77.1291 28.4169 77.1291 30.2769C77.1291 32.0889 78.3651 33.5889 80.3211 33.5889C81.1731 33.5889 81.8331 33.3609 82.3371 33.0009V31.0569H80.1171V30.0489H83.3931ZM89.3619 30.9129V34.4769H88.2939V26.0769H90.7539C92.3379 26.0769 93.4539 26.9529 93.4539 28.5009C93.4539 29.7969 92.5899 30.6489 91.3659 30.8649L94.0059 34.4769H92.7459L90.1779 30.9129H89.3619ZM89.3619 27.0609V29.9649H90.7419C91.7019 29.9649 92.3739 29.4249 92.3739 28.5009C92.3739 27.5649 91.7019 27.0609 90.7419 27.0609H89.3619ZM106.333 30.2769C106.333 32.6649 104.389 34.6089 102.025 34.6089C99.6608 34.6089 97.7168 32.6649 97.7168 30.2769C97.7168 27.8769 99.6608 25.9329 102.025 25.9329C104.389 25.9329 106.333 27.8769 106.333 30.2769ZM105.241 30.2769C105.241 28.4529 103.813 26.9529 102.025 26.9529C100.237 26.9529 98.8088 28.4529 98.8088 30.2769C98.8088 32.0889 100.237 33.5889 102.025 33.5889C103.813 33.5889 105.241 32.0889 105.241 30.2769ZM114.136 34.6089C112.06 34.6089 110.92 33.2049 110.92 31.1289V26.0769H111.988V31.1169C111.988 32.5929 112.732 33.6009 114.136 33.6009C115.528 33.6009 116.272 32.5929 116.272 31.1169V26.0769H117.34V31.1289C117.34 33.2049 116.212 34.6089 114.136 34.6089ZM128.492 26.0769H129.524V34.4769H128.516L123.416 27.6969V34.4769H122.384V26.0769H123.476L128.492 32.7729V26.0769ZM141.516 30.2769C141.516 32.6649 139.668 34.4769 137.34 34.4769H134.688V26.0769H137.34C139.668 26.0769 141.516 27.8889 141.516 30.2769ZM140.412 30.2769C140.412 28.4769 139.104 27.0729 137.316 27.0729H135.756V33.4809H137.316C139.104 33.4809 140.412 32.0769 140.412 30.2769Z" fill="black"/>
</svg>
