<svg width="24" height="25" viewBox="0 0 24 25" fill="none" xmlns="http://www.w3.org/2000/svg">
<path d="M22 11.9863C22 12.6594 21.4712 13.1402 20.8462 13.1402H13.1538V20.8325C13.1538 21.5055 12.625 22.0344 12 22.0344C11.3269 22.0344 10.8462 21.5055 10.8462 20.8325V13.1402H3.15385C2.48077 13.1402 2 12.6594 2 12.0344C2 11.3613 2.48077 10.8325 3.15385 10.8325H10.8462V3.14016C10.8462 2.51516 11.3269 2.03439 12 2.03439C12.625 2.03439 13.1538 2.51516 13.1538 3.14016V10.8325H20.8462C21.4712 10.8325 22 11.3613 22 11.9863Z" fill="#242B42"/>
</svg>
