<svg width="25" height="25" viewBox="0 0 25 25" fill="none" xmlns="http://www.w3.org/2000/svg">
<path d="M21.5325 6.69554L21.5215 6.68805L12.3935 0.0823155C12.2794 -2.23108e-05 12.1212 0.0261763 12.0403 0.142198C12.0109 0.187109 11.9925 0.239506 11.9925 0.291903V3.1625L2.45973 10.0564L2.4487 10.0639C2.35304 10.1313 2.29785 10.2435 2.29785 10.3596V17.0776C2.29785 17.1936 2.35304 17.3059 2.4487 17.3733L2.45973 17.3807L11.5877 23.9865C11.7018 24.0688 11.86 24.0426 11.9409 23.9266C11.9704 23.8817 11.9888 23.8293 11.9888 23.7769V20.9063L21.5178 14.0124L21.5289 14.0049C21.6245 13.9375 21.6797 13.8252 21.6797 13.7092V6.9912C21.6797 6.87144 21.6245 6.7629 21.5325 6.69554ZM15.8335 12.1635C15.2669 13.0879 14.2956 13.6793 12.9527 13.9226L11.9961 14.0947V17.2759C11.9961 17.3209 11.963 17.3583 11.9189 17.3658L9.65619 17.7737C9.63411 17.7775 9.61203 17.77 9.59732 17.755C9.5826 17.7363 9.57892 17.7138 9.5826 17.6951L9.71505 17.0402V8.82135L9.5826 8.2113C9.57892 8.18885 9.5826 8.16265 9.59732 8.14393C9.61203 8.12522 9.63043 8.11025 9.65619 8.10651L12.949 7.51517C14.2919 7.2719 15.2596 7.51517 15.8298 8.23376C16.3118 8.84381 16.3817 9.66344 16.3817 10.0976C16.3891 10.528 16.3155 11.3776 15.8335 12.1635Z" fill="#242B42"/>
<path d="M12.9674 9.74578L11.9998 9.92168V11.8454L12.9674 11.6695C13.6775 11.5422 14.0233 11.1642 14.0233 10.5168C14.0233 10.281 14.0233 9.55865 12.9674 9.74578Z" fill="#242B42"/>
</svg>
