<svg id="Logos" xmlns="http://www.w3.org/2000/svg" viewBox="0 0 902.1 1000"><defs><style>.cls-1{fill:#2d2926;}</style></defs><path class="cls-1" d="M673,377.9l-.25-.18-212.32-151a5.91,5.91,0,0,0-9.33,4.84v169l22.49-4c31.25-5.53,53.78,0,67,16.41,11.19,13.92,12.86,32.66,12.86,42.59S551.7,485,540.51,503c-13.19,21.16-35.73,34.68-67,40.21l-22.23,3.94V619.9a2,2,0,0,1-.26,1v81.95L672.7,545.21l.24-.17a8.31,8.31,0,0,0,3.49-6.78V384.66A8.27,8.27,0,0,0,673,377.9Z"/><path class="cls-1" d="M498.38,465.38c0-5.44,0-22-24.55-17.67l-22.52,4v44l22.52-4C490.35,488.81,498.38,480.19,498.38,465.38Z"/><path class="cls-1" d="M664.9,318.82h-1.81V323h-2.48V311.33h5.44a3.61,3.61,0,0,1,3.9,3.74,3.33,3.33,0,0,1-2.54,3.45L670,323h-2.84Zm.78-5.31h-2.59v3.13h2.59a1.57,1.57,0,1,0,0-3.13Z"/><path class="cls-1" d="M665.08,328.33a11.19,11.19,0,1,1,11.19-11.19A11.21,11.21,0,0,1,665.08,328.33Zm0-20.21a9,9,0,1,0,9,9A9,9,0,0,0,665.08,308.12Z"/><path class="cls-1" d="M449.55,622l-52.63,9.3a1.5,1.5,0,0,1-1.36-.4,1.58,1.58,0,0,1-.34-1.41l3.12-15V426.53l-3.12-13.91a2,2,0,0,1,.34-1.53,2.15,2.15,0,0,1,1.36-.88l54.13-9.58V297.19L229.4,454.79l-.24.17a8.32,8.32,0,0,0-3.5,6.78v153.6a8.29,8.29,0,0,0,3.49,6.76l.25.18,212.32,151a5.91,5.91,0,0,0,9.33-4.84V620.86A2.23,2.23,0,0,1,449.55,622Z"/></svg>