<svg width="24" height="24" viewBox="0 0 24 24" fill="none" xmlns="http://www.w3.org/2000/svg">
<path fill-rule="evenodd" clip-rule="evenodd" d="M18.6629 4C19.1163 4 19.4839 4.40934 19.4839 4.91428C19.4839 5.24624 19.325 5.53687 19.0874 5.69705L19.0871 9.62468L23.8197 16.2043L23.8597 16.2647C24.0836 16.6336 24.0351 17.1306 23.7458 17.4374L23.6989 17.4837C23.6623 17.5547 23.6167 17.621 23.5622 17.6806L23.5122 17.7309L21.2956 19.7881C21.1084 19.9618 20.8722 20.0271 20.6487 19.9899L20.585 19.9975L20.5238 20H14.7771C14.7014 20 14.628 19.9885 14.5583 19.9671C14.3595 19.9635 14.1624 19.8798 14.0093 19.719L13.9541 19.6551L11.8726 17.0062L10.0747 19.4383C10.0188 19.5139 9.95431 19.5769 9.88411 19.627C9.74641 19.8361 9.53039 19.9772 9.28415 19.9975L9.22289 20L2.6605 19.9999C2.47601 19.998 2.29198 19.9273 2.14214 19.7878L2.08762 19.7322L0.445724 17.9036L0.397768 17.8455C0.381278 17.8237 0.365848 17.8012 0.351477 17.7782C0.339702 17.7694 0.327704 17.7596 0.31588 17.7493C-0.0236697 17.4542 -0.0980488 16.9209 0.134538 16.527L0.173819 16.466L6.74398 7.0909C6.76411 7.06251 6.78572 7.03549 6.80868 7.00997C6.8546 6.95868 6.90506 6.91462 6.95874 6.8779L6.99774 6.85287L7.05061 6.82372L7.11579 6.79468L7.15965 6.77887L7.22762 6.76056L7.31195 6.74679L7.37221 6.74301L12.109 6.74285L12.109 5.82857C12.109 5.78565 12.1117 5.74343 12.1168 5.70208C11.8747 5.54338 11.7122 5.24996 11.7122 4.91428C11.7122 4.43229 12.0471 4.03741 12.4719 4.00251L12.5332 4H18.6629ZM15.2065 12.4974L12.9304 15.5753L14.9701 18.1714H19.6683L15.2065 12.4974ZM2.02205 16.8L6.86069 16.8003C6.87845 16.8394 6.89894 16.8776 6.92219 16.9143L6.9632 16.9738L7.859 18.1714H3.00842L1.91451 16.9531L2.02205 16.8ZM16.2252 8.57142H14.5492L8.66303 16.3895L9.43718 17.424L14.5441 10.5177C14.5653 10.488 14.5883 10.4595 14.6133 10.4323C14.6432 10.3996 14.6748 10.37 14.7078 10.3435L14.7679 10.2997L14.8375 10.2585L14.8864 10.2349L14.952 10.2096L15.0109 10.1927L15.0937 10.1773L15.1616 10.1719L15.2235 10.1723L15.2827 10.1776L15.3517 10.1898L15.4111 10.2059L15.4618 10.2238L15.5235 10.2512L15.5797 10.2822L15.6343 10.3184L15.6666 10.3432L15.7125 10.3826L15.7623 10.4328L15.7898 10.4642L21.2691 17.4318L22.0667 16.6916L16.2252 8.57142ZM13.7509 5.82856H17.4451V7.34216L17.2778 7.10957L17.2298 7.04858C17.0637 6.855 16.8356 6.75871 16.6085 6.76733C16.5477 6.75132 16.4842 6.74285 16.419 6.74285H13.7509L13.7509 5.82856Z" fill="#242B42"/>
</svg>
