<svg width="24" height="25" viewBox="0 0 24 25" fill="none" xmlns="http://www.w3.org/2000/svg">
<path fill-rule="evenodd" clip-rule="evenodd" d="M3.60744 3.62248C4.01442 3.1717 4.68559 3.1717 5.09256 3.62248L12.0281 10.5369L18.8986 3.68833L18.9074 3.67856C19.3144 3.22777 19.9856 3.22777 20.3926 3.67856L20.4014 3.68832L20.4112 3.69711C20.8573 4.09739 20.8711 4.77202 20.4016 5.24052L13.5295 12.0336L20.3968 18.8795C20.8176 19.3503 20.8037 20.0359 20.4016 20.4368C19.9312 20.9057 19.2535 20.8915 18.8514 20.4461L12.0289 13.5872L5.15788 20.4368C4.68748 20.9057 4.0095 20.8916 3.60744 20.4463L3.59862 20.4365L3.58883 20.4277C3.14254 20.0273 3.12839 19.3529 3.59838 18.8843L10.4697 12.0344L3.59838 5.18444C3.12839 4.71592 3.14254 4.04144 3.58883 3.64104L3.59862 3.63225L3.60744 3.62248Z" fill="#242B42"/>
</svg>
