<svg width="24" height="25" viewBox="0 0 24 25" fill="none" xmlns="http://www.w3.org/2000/svg">
<path d="M9.42857 17.6594C9.42857 18.011 9.10714 18.2844 8.78571 18.2844C8.42411 18.2844 8.14286 18.011 8.14286 17.6594V9.53439C8.14286 9.22189 8.42411 8.90939 8.78571 8.90939C9.10714 8.90939 9.42857 9.22189 9.42857 9.53439V17.6594ZM12.6429 17.6594C12.6429 18.011 12.3214 18.2844 12 18.2844C11.6384 18.2844 11.3571 18.011 11.3571 17.6594V9.53439C11.3571 9.22189 11.6384 8.90939 12 8.90939C12.3214 8.90939 12.6429 9.22189 12.6429 9.53439V17.6594ZM15.8571 17.6594C15.8571 18.011 15.5357 18.2844 15.2143 18.2844C14.8527 18.2844 14.5714 18.011 14.5714 17.6594V9.53439C14.5714 9.22189 14.8527 8.90939 15.2143 8.90939C15.5357 8.90939 15.8571 9.22189 15.8571 9.53439V17.6594ZM15.7366 3.01096L17.2232 5.15939H20.0357C20.558 5.15939 21 5.58908 21 6.09689C21 6.64377 20.558 7.03439 20.0357 7.03439H19.7143V18.9094C19.7143 20.6672 18.2679 22.0344 16.5 22.0344H7.5C5.69196 22.0344 4.28571 20.6672 4.28571 18.9094V7.03439H3.96429C3.40179 7.03439 3 6.64377 3 6.09689C3 5.58908 3.40179 5.15939 3.96429 5.15939H6.73661L8.22321 3.01096C8.625 2.42502 9.34821 2.03439 10.1116 2.03439H13.8482C14.6116 2.03439 15.3348 2.42502 15.7366 3.01096ZM9.06696 5.15939H14.8929L14.1295 4.06564C14.0893 3.98752 13.9688 3.90939 13.8482 3.90939H10.1116C9.99107 3.90939 9.87054 3.98752 9.83036 4.06564L9.06696 5.15939ZM6.21429 18.9094C6.21429 19.6125 6.77679 20.1594 7.5 20.1594H16.5C17.183 20.1594 17.7857 19.6125 17.7857 18.9094V7.03439H6.21429V18.9094Z" fill="#242B42"/>
</svg>
