<svg width="120" height="40" viewBox="0 0 120 40" fill="none" xmlns="http://www.w3.org/2000/svg">
<path d="M34 1C36.7614 1 39 3.23858 39 6V34C39 36.7614 36.7614 39 34 39H6C3.23858 39 1 36.7614 1 34V6C1 3.23858 3.23858 1 6 1H34Z" fill="#F3F7FB"/>
<path fill-rule="evenodd" clip-rule="evenodd" d="M34 0C37.3137 0 40 2.68629 40 6V34C40 37.2102 37.4789 39.8316 34.3086 39.9922L34 40H6L5.69141 39.9922C2.62332 39.8367 0.163251 37.3767 0.0078125 34.3086L0 34V6C0 2.68629 2.68629 1.28851e-07 6 0H34ZM6 1C3.23858 1 1 3.23858 1 6V34C1 36.7614 3.23858 39 6 39H34C36.7614 39 39 36.7614 39 34V6C39 3.23858 36.7614 1 34 1H6Z" fill="#E4E8F0"/>
<rect x="40" width="32" height="40" fill="#0056CF"/>
<path d="M106 1C108.761 1 111 3.23858 111 6V34C111 36.7614 108.761 39 106 39H78C75.2386 39 73 36.7614 73 34V6C73 3.23858 75.2386 1 78 1H106Z" fill="#F3F7FB"/>
<path fill-rule="evenodd" clip-rule="evenodd" d="M106 0C109.314 0 112 2.68629 112 6V34C112 37.2102 109.479 39.8316 106.309 39.9922L106 40H78L77.6914 39.9922C74.6233 39.8367 72.1633 37.3767 72.0078 34.3086L72 34V6C72 2.68629 74.6863 1.28851e-07 78 0H106ZM78 1C75.2386 1 73 3.23858 73 6V34C73 36.7614 75.2386 39 78 39H106C108.761 39 111 36.7614 111 34V6C111 3.23858 108.761 1 106 1H78Z" fill="#E4E8F0"/>
</svg>
