<svg width="120" height="40" viewBox="0 0 120 40" fill="none" xmlns="http://www.w3.org/2000/svg">
<path d="M34 1C36.7614 1 39 3.23858 39 6V34C39 36.7614 36.7614 39 34 39H6C3.23858 39 1 36.7614 1 34V6C1 3.23858 3.23858 1 6 1H34Z" fill="#F3F7FB"/>
<path fill-rule="evenodd" clip-rule="evenodd" d="M34 0C37.3137 0 40 2.68629 40 6V34C40 37.2102 37.4789 39.8316 34.3086 39.9922L34 40H6L5.69141 39.9922C2.62332 39.8367 0.163251 37.3767 0.0078125 34.3086L0 34V6C0 2.68629 2.68629 1.28851e-07 6 0H34ZM6 1C3.23858 1 1 3.23858 1 6V34C1 36.7614 3.23858 39 6 39H34C36.7614 39 39 36.7614 39 34V6C39 3.23858 36.7614 1 34 1H6Z" fill="#E4E8F0"/>
<path d="M41 1.5L40 1.5L40 -4.37114e-08L41 0L41 1.5ZM41 6.5L40 6.5L40 3.5L41 3.5L41 6.5ZM41 11.5L40 11.5L40 8.5L41 8.5L41 11.5ZM41 16.5L40 16.5L40 13.5L41 13.5L41 16.5ZM41 21.5L40 21.5L40 18.5L41 18.5L41 21.5ZM41 26.5L40 26.5L40 23.5L41 23.5L41 26.5ZM41 31.5L40 31.5L40 28.5L41 28.5L41 31.5ZM41 36.5L40 36.5L40 33.5L41 33.5L41 36.5ZM41 40L40 40L40 38.5L41 38.5L41 40Z" fill="#0056CF"/>
<path d="M75 1C77.7614 1 80 3.23858 80 6V34C80 36.7614 77.7614 39 75 39H47C44.2386 39 42 36.7614 42 34V6C42 3.23858 44.2386 1 47 1H75Z" fill="#F3F7FB"/>
<path fill-rule="evenodd" clip-rule="evenodd" d="M75 0C78.3137 0 81 2.68629 81 6V34C81 37.2102 78.4789 39.8316 75.3086 39.9922L75 40H47L46.6914 39.9922C43.6233 39.8367 41.1633 37.3767 41.0078 34.3086L41 34V6C41 2.68629 43.6863 1.28851e-07 47 0H75ZM47 1C44.2386 1 42 3.23858 42 6V34C42 36.7614 44.2386 39 47 39H75C77.7614 39 80 36.7614 80 34V6C80 3.23858 77.7614 1 75 1H47Z" fill="#E4E8F0"/>
</svg>
