<svg width="120" height="40" viewBox="0 0 120 40" fill="none" xmlns="http://www.w3.org/2000/svg">
<path d="M34 1C36.7614 1 39 3.23858 39 6V34C39 36.7614 36.7614 39 34 39H6C3.23858 39 1 36.7614 1 34V6C1 3.23858 3.23858 1 6 1H34Z" fill="#F3F7FB"/>
<path fill-rule="evenodd" clip-rule="evenodd" d="M34 0C37.3137 0 40 2.68629 40 6V34C40 37.2102 37.4789 39.8316 34.3086 39.9922L34 40H6L5.69141 39.9922C2.62332 39.8367 0.163251 37.3767 0.0078125 34.3086L0 34V6C0 2.68629 2.68629 1.28851e-07 6 0H34ZM6 1C3.23858 1 1 3.23858 1 6V34C1 36.7614 3.23858 39 6 39H34C36.7614 39 39 36.7614 39 34V6C39 3.23858 36.7614 1 34 1H6Z" fill="#E4E8F0"/>
<rect x="40" width="24" height="40" fill="#0056CF"/>
<path d="M98 1C100.761 1 103 3.23858 103 6V34C103 36.7614 100.761 39 98 39H70C67.2386 39 65 36.7614 65 34V6C65 3.23858 67.2386 1 70 1H98Z" fill="#F3F7FB"/>
<path fill-rule="evenodd" clip-rule="evenodd" d="M98 0C101.314 0 104 2.68629 104 6V34C104 37.2102 101.479 39.8316 98.3086 39.9922L98 40H70L69.6914 39.9922C66.6233 39.8367 64.1633 37.3767 64.0078 34.3086L64 34V6C64 2.68629 66.6863 1.28851e-07 70 0H98ZM70 1C67.2386 1 65 3.23858 65 6V34C65 36.7614 67.2386 39 70 39H98C100.761 39 103 36.7614 103 34V6C103 3.23858 100.761 1 98 1H70Z" fill="#E4E8F0"/>
</svg>
