<svg width="159" height="158" viewBox="0 0 159 158" fill="none" xmlns="http://www.w3.org/2000/svg">
<path d="M89.7845 111.397C91.2572 111.397 92.4512 112.591 92.4512 114.064C92.4512 115.536 91.2572 116.73 89.7845 116.73C88.4828 116.73 87.3998 115.797 87.1656 114.564H44.9769V113.564H87.1651C87.3991 112.33 88.4826 111.397 89.7845 111.397Z" fill="#E4E8F0"/>
<path d="M69.3636 41.0338C70.6654 41.0338 71.7484 41.9667 71.9825 43.2004H114.977V44.2005H71.9825C71.7484 45.4342 70.6654 46.3671 69.3636 46.3671C67.8908 46.3671 66.6969 45.1732 66.6969 43.7005C66.6969 42.2277 67.8908 41.0338 69.3636 41.0338Z" fill="#E4E8F0"/>
<path d="M114.976 41.0375C116.449 41.0375 117.643 42.2314 117.643 43.7041C117.643 45.1769 116.449 46.3708 114.976 46.3708C113.703 46.3707 112.639 45.4783 112.374 44.285C102.634 44.9057 96.2357 49.0427 91.5493 55.0073C86.4271 61.5267 83.3408 70.2376 80.2406 79.0523C77.1545 87.8271 74.0536 96.707 68.8805 103.38C64.0886 109.562 57.5243 113.845 47.61 114.485C47.4101 115.76 46.3075 116.735 44.9764 116.735C43.5037 116.735 42.3098 115.541 42.3098 114.069C42.3098 112.596 43.5037 111.402 44.9764 111.402C46.2486 111.402 47.3116 112.293 47.5779 113.485C57.1755 112.857 63.4716 108.726 68.0902 102.768C73.1446 96.2476 76.1966 87.5367 79.2974 78.7203C82.3841 69.9441 85.5195 61.0636 90.7631 54.3896C95.6247 48.202 102.291 43.9178 112.343 43.2853C112.544 42.0116 113.646 41.0376 114.976 41.0375Z" fill="#0056CF"/>
</svg>
