<svg width="158" height="158" viewBox="0 0 158 158" fill="none" xmlns="http://www.w3.org/2000/svg">
<path d="M89.8887 150.951C90.3516 150.564 90.9486 150.331 91.5996 150.331C93.0722 150.331 94.2664 151.525 94.2666 152.997C94.2666 154.47 93.0724 155.664 91.5996 155.664C90.127 155.664 88.9336 154.47 88.9336 152.997C88.9337 152.537 89.0495 152.103 89.2549 151.726L43.6836 114.449L44.3164 113.676L89.8887 150.951Z" fill="#E4E8F0"/>
<path d="M62.4326 2.33203C63.9054 2.33203 65.0996 3.52626 65.0996 4.99902C65.0996 5.41939 64.9985 5.81529 64.8252 6.16895L114.3 43.2998L113.999 43.6992L113.699 44.0996L64.2246 6.96875C63.7509 7.4 63.1237 7.66602 62.4326 7.66602C60.9599 7.66602 59.7656 6.47178 59.7656 4.99902C59.7656 3.52626 60.9599 2.33203 62.4326 2.33203Z" fill="#E4E8F0"/>
<path d="M98.1064 36.7128C102.018 36.4659 106.636 38.0169 112.161 41.7733C112.64 41.3174 113.286 41.036 113.999 41.036C115.472 41.036 116.666 42.2303 116.666 43.703C116.666 45.1756 115.472 46.3691 113.999 46.3691C112.526 46.3691 111.332 45.1756 111.332 43.703C111.332 43.3043 111.422 42.9265 111.579 42.5868C106.16 38.9058 101.768 37.4837 98.1699 37.7108C94.1455 37.9649 90.992 40.2922 88.415 44.1249C85.8313 47.9679 83.8639 53.2737 82.2227 59.3554C80.583 65.4312 79.2794 72.2382 78.0029 79.0644C76.728 85.8822 75.4802 92.7217 73.9541 98.83C72.4295 104.932 70.6159 110.353 68.1924 114.317C65.7653 118.287 62.6753 120.874 58.5898 121.134C55.0188 121.36 50.8057 119.797 45.7568 116.068C45.2873 116.481 44.6734 116.733 43.999 116.733C42.5263 116.733 41.3322 115.54 41.332 114.067C41.332 112.595 42.5263 111.4 43.999 111.4C45.4718 111.4 46.666 112.595 46.666 114.067C46.666 114.504 46.5575 114.915 46.3711 115.279C51.3191 118.929 55.2941 120.341 58.5264 120.136C62.1581 119.905 65.0019 117.619 67.3398 113.795C69.6813 109.964 71.4647 104.666 72.9834 98.5878C74.5006 92.5153 75.7434 85.7105 77.0205 78.8808C78.2961 72.0593 79.6063 65.2143 81.2578 59.0946C82.9077 52.9812 84.909 47.5475 87.5859 43.5663C90.2698 39.5748 93.6701 36.993 98.1064 36.7128Z" fill="#0056CF"/>
</svg>
