<svg width="158" height="158" viewBox="0 0 158 158" fill="none" xmlns="http://www.w3.org/2000/svg">
<path d="M75.7993 109.294C77.272 109.294 78.466 110.488 78.466 111.96C78.466 113.433 77.272 114.627 75.7993 114.627C74.5585 114.627 73.5157 113.779 73.218 112.632L44.0334 114.562L43.9673 113.564L73.1528 111.635C73.3134 110.316 74.4369 109.294 75.7993 109.294Z" fill="#E4E8F0"/>
<path d="M114.045 44.1978L82.6833 46.9866C82.55 48.3347 81.4131 49.3878 80.03 49.3879C78.5572 49.3879 77.3634 48.1939 77.3633 46.7212C77.3633 45.2484 78.5572 44.0545 80.03 44.0545C81.2493 44.0545 82.2765 44.8731 82.5942 45.9906L113.956 43.2013L114.045 44.1978Z" fill="#E4E8F0"/>
<path d="M114 41.0375C115.472 41.0375 116.666 42.2314 116.666 43.7041C116.666 45.1769 115.472 46.3708 114 46.3708C112.827 46.3707 111.831 45.613 111.474 44.5606C104.363 45.9206 98.6111 50.1716 93.5816 56.002C87.9518 62.5282 83.2691 70.9832 78.6244 79.4679C73.9926 87.9292 69.3965 96.4246 63.9593 102.93C59.1147 108.726 53.5598 112.994 46.6597 114.244C46.5694 115.635 45.4137 116.735 43.9999 116.735C42.5272 116.735 41.3333 115.541 41.3333 114.069C41.3333 112.596 42.5272 111.402 43.9999 111.402C45.1868 111.402 46.1923 112.177 46.538 113.249C53.0992 112.042 58.4439 107.969 63.192 102.289C68.5531 95.8746 73.1003 87.4767 77.7473 78.9876C82.3814 70.5221 87.1131 61.9696 92.8243 55.349C97.9542 49.4022 103.909 44.9744 111.336 43.5691C111.407 42.1591 112.572 41.0376 114 41.0375Z" fill="#0056CF"/>
</svg>
