<svg width="159" height="159" viewBox="0 0 159 159" fill="none" xmlns="http://www.w3.org/2000/svg">
<path d="M49.2256 54.2927C50.6983 54.2927 51.8923 55.4866 51.8923 56.9594C51.8922 58.3399 50.8433 59.4751 49.4988 59.6118L44.7638 114.575L43.7673 114.49L48.5028 59.526C47.3814 59.2107 46.5589 58.1815 46.5589 56.9594C46.5589 55.4867 47.7529 54.2928 49.2256 54.2927Z" fill="#E4E8F0"/>
<path d="M55.6596 41.5024C56.9614 41.5024 58.0444 42.4354 58.2785 43.669H114.265V44.6692H58.2785C58.0444 45.9028 56.9614 46.8358 55.6596 46.8358C54.1868 46.8358 52.9929 45.6419 52.9929 44.1691C52.9929 42.6964 54.1868 41.5024 55.6596 41.5024Z" fill="#E4E8F0"/>
<path d="M114.265 41.5061C115.738 41.5061 116.932 42.7 116.932 44.1728C116.932 45.6455 115.738 46.8394 114.265 46.8394C112.967 46.8394 111.885 45.9109 111.648 44.6816C83.9818 44.8752 68.6223 48.2345 59.5166 58.1587C54.8199 63.2776 51.7469 70.1867 49.5406 79.4328C47.469 88.1146 46.17 98.8178 44.9929 111.972C46.1121 112.288 46.9322 113.317 46.9322 114.537C46.9322 116.01 45.7383 117.204 44.2655 117.204C42.7928 117.204 41.5989 116.01 41.5989 114.537C41.5989 113.155 42.6503 112.019 43.9969 111.884C45.1746 98.7223 46.4786 87.9565 48.568 79.2005C50.7944 69.8697 53.9226 62.7768 58.78 57.4827C68.2056 47.2099 83.9909 43.8742 111.644 43.6819C111.875 42.4437 112.96 41.5062 114.265 41.5061Z" fill="#0056CF"/>
</svg>
