<svg width="159" height="159" viewBox="0 0 159 159" fill="none" xmlns="http://www.w3.org/2000/svg">
<path d="M56.3012 50.269C57.7738 50.2692 58.9678 51.463 58.9678 52.9357C58.9678 54.4084 57.7738 55.6023 56.3012 55.6024C56.2974 55.6024 56.2934 55.6019 56.2897 55.6019L44.7565 114.705L43.7747 114.513L55.3083 55.4109C54.3273 55.0171 53.6345 54.0576 53.6345 52.9357C53.6345 51.463 54.8284 50.269 56.3012 50.269Z" fill="#E4E8F0"/>
<path d="M66.6615 22.6978C68.1343 22.6978 69.3282 23.8917 69.3282 25.3644C69.3282 25.5357 69.3113 25.7031 69.2805 25.8654L114.45 43.7818L114.082 44.7112L68.9112 26.7944C68.4379 27.5375 67.6078 28.0311 66.6615 28.0311C65.1888 28.0311 63.9949 26.8372 63.9949 25.3644C63.9949 23.8917 65.1888 22.6978 66.6615 22.6978Z" fill="#E4E8F0"/>
<path d="M84.881 38.1058C92.2986 37.2627 101.182 38.8068 112 42.8426C112.471 42.0864 113.309 41.5831 114.265 41.583C115.738 41.583 116.932 42.7769 116.932 44.2497C116.932 45.7224 115.738 46.9164 114.265 46.9164C112.793 46.9162 111.599 45.7223 111.599 44.2497C111.599 44.0879 111.614 43.9296 111.641 43.7758C100.906 39.7719 92.1936 38.2808 84.994 39.0991C77.281 39.9758 71.2615 43.5069 66.3139 49.5366C61.3519 55.5841 57.4638 64.1512 54.0634 75.0916C50.8548 85.4148 48.0914 97.814 45.2611 112.14C46.2407 112.534 46.9322 113.493 46.9322 114.614C46.9322 116.087 45.7383 117.281 44.2655 117.281C42.7928 117.281 41.5989 116.087 41.5989 114.614C41.5989 113.141 42.7928 111.947 44.2655 111.947C44.2703 111.947 44.275 111.947 44.2798 111.947C47.1117 97.6131 49.8838 85.1702 53.1087 74.7945C56.5234 63.8081 60.4576 55.0973 65.5406 48.9025C70.638 42.6901 76.8867 39.0145 84.881 38.1058Z" fill="#0056CF"/>
</svg>
