<svg width="158" height="159" viewBox="0 0 158 159" fill="none" xmlns="http://www.w3.org/2000/svg">
<path d="M104.459 111.631C105.932 111.631 107.126 112.825 107.126 114.298C107.126 115.771 105.932 116.965 104.459 116.965C103.158 116.965 102.075 116.032 101.84 114.798H44.0002V113.798H101.84C102.075 112.564 103.158 111.631 104.459 111.631Z" fill="#E4E8F0"/>
<path d="M48.728 41.2682C50.0297 41.2682 51.1127 42.2011 51.3469 43.4348L114.001 43.4343V44.4345H51.3469C51.1129 45.6683 50.0299 46.6015 48.728 46.6015C47.2552 46.6015 46.0613 45.4076 46.0613 43.9349C46.0613 42.4621 47.2552 41.2682 48.728 41.2682Z" fill="#E4E8F0"/>
<path d="M114 41.2719C115.472 41.2719 116.666 42.4658 116.666 43.9385C116.666 45.4113 115.472 46.6052 114 46.6052C112.712 46.6051 111.637 45.6924 111.388 44.4786C96.8354 44.9267 88.9246 49.163 84.4069 55.2316C79.5919 61.6995 78.5384 70.3502 77.6343 79.1715C76.7374 87.9239 75.9887 96.861 71.6186 103.581C67.4668 109.966 60.1174 114.268 46.6271 114.756C46.4121 116.013 45.3183 116.97 43.9999 116.97C42.5272 116.97 41.3333 115.776 41.3333 114.303C41.3333 112.83 42.5272 111.636 43.9999 111.636C45.2852 111.636 46.3577 112.546 46.6101 113.756C59.8764 113.273 66.8634 109.059 70.7801 103.036C74.9896 96.5628 75.7334 87.9083 76.6392 79.0695C77.538 70.2998 78.598 61.3595 83.6046 54.6341C88.3695 48.2337 96.6268 43.9307 111.373 43.4788C111.591 42.2252 112.684 41.2719 114 41.2719Z" fill="#0056CF"/>
</svg>
