<svg width="159" height="159" viewBox="0 0 159 159" fill="none" xmlns="http://www.w3.org/2000/svg">
<path d="M83.5124 108.658C84.9851 108.658 86.1791 109.851 86.1791 111.324C86.1791 112.797 84.9851 113.991 83.5124 113.991C82.2889 113.991 81.2584 113.167 80.9445 112.043L44.777 115.107L44.6925 114.11L80.86 111.047C80.9985 109.705 82.1332 108.658 83.5124 108.658Z" fill="#E4E8F0"/>
<path d="M115.2 44.4287L93.786 99.4939C94.5374 99.9655 95.0373 100.801 95.0373 101.754C95.0373 103.226 93.8434 104.42 92.3707 104.42C90.8979 104.42 89.704 103.226 89.704 101.754C89.704 100.281 90.8979 99.087 92.3707 99.087C92.5355 99.087 92.6967 99.1025 92.8533 99.1311L114.268 44.0659L115.2 44.4287Z" fill="#E4E8F0"/>
<path d="M114.734 41.5843C116.207 41.5843 117.401 42.7782 117.401 44.251C117.401 45.7238 116.207 46.9177 114.734 46.9177C114.568 46.9177 114.406 46.9016 114.249 46.8727C103.584 74.1404 95.9123 90.3574 86.2521 100.152C76.7175 109.819 65.2903 113.192 47.3872 114.882C47.2533 116.23 46.117 117.282 44.7343 117.282C43.2615 117.282 42.0676 116.088 42.0676 114.615C42.0677 113.143 43.2616 111.949 44.7343 111.949C45.9541 111.949 46.9817 112.768 47.299 113.886C65.1223 112.203 76.2558 108.863 85.5403 99.4493C95.035 89.8225 102.641 73.8052 113.317 46.509C112.567 46.0371 112.067 45.2027 112.067 44.251C112.067 42.7783 113.261 41.5844 114.734 41.5843Z" fill="#0056CF"/>
</svg>
