<svg width="158" height="159" viewBox="0 0 158 159" fill="none" xmlns="http://www.w3.org/2000/svg">
<path d="M83.7795 132.798C84.2644 132.133 85.0496 131.7 85.936 131.7C87.4087 131.7 88.6027 132.894 88.6027 134.367C88.6026 135.84 87.4087 137.034 85.936 137.034C84.4633 137.034 83.2694 135.84 83.2693 134.367C83.2693 134.138 83.298 133.915 83.3524 133.702L43.7872 115.062L44.2134 114.157L83.7795 132.798Z" fill="#E4E8F0"/>
<path d="M114.001 44.2464C114.451 44.3688 114.481 44.3773 114.483 44.3782C114.483 44.3785 114.483 44.379 114.483 44.3795C114.482 44.3808 114.482 44.3826 114.481 44.3851C114.48 44.39 114.478 44.3977 114.475 44.4076C114.47 44.4272 114.462 44.4565 114.451 44.4953C114.43 44.5732 114.398 44.6895 114.357 44.842C114.273 45.1471 114.151 45.5982 113.992 46.1815C113.674 47.3481 113.211 49.0443 112.633 51.1617C111.477 55.3966 109.857 61.3177 108.006 68.0623C104.534 80.7048 100.245 96.2415 96.6592 108.991C97.5344 109.429 98.1356 110.333 98.1356 111.378C98.1355 112.851 96.9416 114.045 95.4689 114.045C93.9962 114.045 92.8023 112.851 92.8022 111.378C92.8022 109.905 93.9962 108.711 95.4689 108.711C95.5455 108.711 95.6213 108.715 95.6962 108.721C99.2813 95.9745 103.57 80.4397 107.041 67.7973C108.893 61.0533 110.512 55.1327 111.668 50.8981C112.246 48.7808 112.709 47.0848 113.027 45.9184C113.186 45.3353 113.309 44.8843 113.392 44.5793C113.433 44.4269 113.465 44.311 113.486 44.2331C113.497 44.1942 113.505 44.1646 113.51 44.1449C113.513 44.135 113.515 44.1273 113.516 44.1224C113.517 44.12 113.517 44.1181 113.518 44.1169C113.518 44.1163 113.518 44.1158 113.518 44.1155C113.518 44.1152 113.524 44.1167 114.001 44.2464Z" fill="#E4E8F0"/>
<path d="M114 41.5842C115.472 41.5842 116.666 42.7781 116.666 44.2509C116.666 45.7237 115.472 46.9176 114 46.9176C113.926 46.9176 113.853 46.9133 113.781 46.9075C109.415 62.6023 105.526 75.8184 101.562 86.5631C97.3893 97.8728 93.1183 106.49 88.088 112.389C83.0408 118.307 77.2222 121.496 69.998 121.922C63.358 122.313 55.5776 120.367 46.1702 116.163C45.6866 116.84 44.8954 117.282 43.9999 117.282C42.5272 117.282 41.3333 116.088 41.3333 114.615C41.3333 113.143 42.5272 111.949 43.9999 111.949C45.4727 111.949 46.6666 113.143 46.6666 114.615C46.6666 114.836 46.6389 115.05 46.5885 115.255C55.9224 119.424 63.5287 121.302 69.9392 120.924C76.8536 120.516 82.4302 117.482 87.327 111.74C92.2406 105.978 96.4628 97.4951 100.624 86.2169C104.572 75.5137 108.452 62.3331 112.817 46.6407C111.938 46.2047 111.333 45.2988 111.333 44.2509C111.333 42.7782 112.527 41.5843 114 41.5842Z" fill="#0056CF"/>
</svg>
