<svg width="159" height="159" viewBox="0 0 159 159" fill="none" xmlns="http://www.w3.org/2000/svg">
<path d="M73.8425 111.583C75.3152 111.583 76.5092 112.777 76.5092 114.249C76.5092 115.722 75.3152 116.916 73.8425 116.916C72.5407 116.916 71.4572 115.983 71.2231 114.749L44.5784 114.75V113.75H71.2231C71.4571 112.516 72.5405 111.583 73.8425 111.583Z" fill="#E4E8F0"/>
<path d="M85.2334 41.2213C86.5351 41.2213 87.6182 42.1543 87.8523 43.3879H114.579V44.3881H87.8523C87.6182 45.6217 86.5351 46.5546 85.2334 46.5547C83.7606 46.5547 82.5667 45.3607 82.5667 43.888C82.5667 42.4152 83.7606 41.2213 85.2334 41.2213Z" fill="#E4E8F0"/>
<path d="M114.578 41.225C116.051 41.225 117.244 42.4189 117.244 43.8916C117.244 45.3644 116.051 46.5583 114.578 46.5583C113.344 46.5582 112.307 45.7204 112.002 44.5828C106.014 45.4794 100.751 49.4636 95.8376 55.2109C90.2344 61.7657 85.1689 70.5174 80.0681 79.3244C74.9805 88.1087 69.8577 96.9484 64.1636 103.587C59.1495 109.433 53.6298 113.646 47.2258 114.567C47.072 115.893 45.9457 116.923 44.578 116.923C43.1052 116.923 41.9113 115.729 41.9113 114.256C41.9114 112.783 43.1053 111.589 44.578 111.589C45.8121 111.589 46.8497 112.428 47.1537 113.566C53.1793 112.674 58.4715 108.688 63.4045 102.936C69.0265 96.3818 74.1018 87.6301 79.2025 78.8234C84.29 70.0393 89.4029 61.1996 95.0776 54.5611C100.071 48.72 105.562 44.5088 111.929 43.5835C112.082 42.256 113.209 41.2251 114.578 41.225Z" fill="#0056CF"/>
</svg>
