<svg width="159" height="159" viewBox="0 0 159 159" fill="none" xmlns="http://www.w3.org/2000/svg">
<path d="M73.8714 111.491C75.3442 111.491 76.5381 112.685 76.5381 114.157C76.5381 115.63 75.3442 116.824 73.8714 116.824C72.5697 116.824 71.4866 115.891 71.2525 114.657H44.5784V113.658H71.252C71.486 112.424 72.5695 111.491 73.8714 111.491Z" fill="#E4E8F0"/>
<path d="M114.578 41.1312C116.051 41.1312 117.244 42.3251 117.244 43.7979C117.244 45.2707 116.051 46.4646 114.578 46.4646C114.259 46.4645 113.953 46.4084 113.669 46.3057C113.524 46.5465 113.369 46.8056 113.202 47.0808C112.031 49.0084 110.327 51.761 108.19 55.0639C103.917 61.6687 97.911 70.4776 90.9842 79.2889C84.0596 88.0973 76.2026 96.9238 68.2249 103.553C61.1892 109.399 53.9959 113.588 47.2245 114.483C47.0661 115.804 45.9422 116.829 44.578 116.829C43.1052 116.829 41.9113 115.635 41.9113 114.162C41.9114 112.69 43.1053 111.496 44.578 111.496C45.816 111.496 46.8565 112.339 47.157 113.483C53.6188 112.609 60.6074 108.582 67.5861 102.783C75.4867 96.2188 83.2941 87.454 90.1984 78.6713C97.1005 69.8915 103.088 61.1091 107.351 54.5206C109.482 51.2269 111.181 48.4824 112.347 46.5619C112.513 46.2892 112.667 46.0324 112.811 45.7937C112.259 45.3051 111.911 44.5924 111.911 43.7979C111.911 42.3252 113.105 41.1313 114.578 41.1312Z" fill="#0056CF"/>
</svg>
