<svg width="159" height="159" viewBox="0 0 159 159" fill="none" xmlns="http://www.w3.org/2000/svg">
<path d="M71.4498 71.4984C72.9226 71.4984 74.1165 72.6923 74.1165 74.1651C74.1165 75.6378 72.9226 76.8318 71.4498 76.8318C71.0757 76.8317 70.7199 76.7541 70.3968 76.615L44.6802 114.655L43.8518 114.095L69.5684 76.0548C69.0834 75.5719 68.7832 74.9035 68.7832 74.1651C68.7832 72.6924 69.9771 71.4985 71.4498 71.4984Z" fill="#E4E8F0"/>
<path d="M83.7939 41.3463C85.0956 41.3463 86.1786 42.2793 86.4128 43.5129H114.266V44.5131H86.4128C86.1786 45.7467 85.0956 46.6797 83.7939 46.6797C82.3211 46.6797 81.1272 45.4857 81.1272 44.013C81.1272 42.5402 82.3211 41.3463 83.7939 41.3463Z" fill="#E4E8F0"/>
<path d="M114.265 41.35C115.738 41.35 116.932 42.5439 116.932 44.0166C116.932 45.4894 115.738 46.6833 114.265 46.6833C112.991 46.6832 111.926 45.789 111.662 44.5939C97.9936 45.4062 88.0573 52.6651 78.4161 64.4348C73.29 70.6927 68.2604 78.2102 62.8055 86.6912C57.7495 94.552 52.3272 103.239 46.141 112.486C46.6294 112.969 46.9322 113.64 46.9322 114.381C46.9322 115.854 45.7383 117.048 44.2655 117.048C42.7928 117.048 41.5989 115.854 41.5989 114.381C41.5989 112.908 42.7928 111.714 44.2655 111.714C44.6369 111.714 44.9904 111.791 45.3116 111.928C51.489 102.694 56.8993 94.0249 61.9642 86.1503C67.4201 77.6677 72.4766 70.1074 77.6424 63.8011C87.3856 51.9067 97.5649 44.42 111.632 43.5942C111.835 42.3222 112.936 41.3501 114.265 41.35Z" fill="#0056CF"/>
</svg>
