<svg width="158" height="159" viewBox="0 0 158 159" fill="none" xmlns="http://www.w3.org/2000/svg">
<path d="M114.311 111.787C115.784 111.787 116.978 112.981 116.978 114.454C116.978 115.927 115.784 117.121 114.311 117.121C113.01 117.121 111.927 116.188 111.692 114.954H44.0002V113.954H111.692C111.927 112.72 113.01 111.787 114.311 111.787Z" fill="#E4E8F0"/>
<path d="M43.7592 41.4243C45.061 41.4243 46.144 42.3572 46.3781 43.5909L114.001 43.59V44.5902L46.3781 44.5906C46.1441 45.8244 45.0611 46.7577 43.7592 46.7577C42.2865 46.7577 41.0926 45.5637 41.0925 44.091C41.0925 42.6182 42.2864 41.4243 43.7592 41.4243Z" fill="#E4E8F0"/>
<path d="M114 41.428C115.472 41.428 116.666 42.6219 116.666 44.0947C116.666 45.5674 115.472 46.7613 114 46.7613C112.71 46.7612 111.634 45.8457 111.387 44.6292C95.7024 45.0496 87.8121 49.3031 83.7915 55.3652C79.5161 61.8118 79.5001 70.438 79.5001 79.2766C79.5001 88.0291 79.5161 96.9942 75.0416 103.741C70.76 110.197 62.4709 114.501 46.6253 114.924C46.4053 116.175 45.3141 117.126 43.9999 117.126C42.5272 117.126 41.3333 115.932 41.3333 114.459C41.3333 112.986 42.5272 111.792 43.9999 111.792C45.2894 111.792 46.3646 112.708 46.6124 113.924C62.2971 113.504 70.1875 109.251 74.2081 103.189C78.4836 96.7419 78.5 88.1153 78.5 79.2766C78.5 70.5243 78.4837 61.5594 82.958 54.8128C87.2396 48.3571 95.5287 44.053 111.374 43.6299C111.594 42.3788 112.686 41.4281 114 41.428Z" fill="#0056CF"/>
</svg>
