<svg width="159" height="159" viewBox="0 0 159 159" fill="none" xmlns="http://www.w3.org/2000/svg">
<path d="M55.6679 52.7017C57.1407 52.7017 58.3346 53.8956 58.3346 55.3683C58.3346 56.8411 57.1407 58.035 55.6679 58.035C55.6655 58.035 55.663 58.0346 55.6606 58.0345L44.7565 114.314L43.7747 114.124L54.6788 57.8444C53.696 57.4514 53.0012 56.4914 53.0012 55.3683C53.0012 53.8956 54.1952 52.7017 55.6679 52.7017Z" fill="#E4E8F0"/>
<path d="M75.0275 41.1901C76.3294 41.1901 77.4125 42.1233 77.6464 43.3571H114.266V44.3568H77.6464C77.4123 45.5904 76.3293 46.5234 75.0275 46.5234C73.5548 46.5234 72.3608 45.3295 72.3608 43.8567C72.3608 42.384 73.5548 41.1901 75.0275 41.1901Z" fill="#E4E8F0"/>
<path d="M114.265 41.1937C115.738 41.1937 116.932 42.3876 116.932 43.8604C116.932 45.3332 115.738 46.5271 114.265 46.5271C112.97 46.527 111.89 45.6029 111.649 44.3779C93.3486 44.6287 79.6614 47.6324 69.1386 57.2539C58.426 67.0489 50.9056 83.7807 45.2634 111.752C46.2417 112.147 46.9322 113.105 46.9322 114.225C46.9322 115.698 45.7383 116.891 44.2655 116.891C42.7928 116.891 41.5989 115.698 41.5989 114.225C41.5989 112.752 42.7928 111.558 44.2655 111.558C44.2711 111.558 44.2766 111.558 44.2821 111.558C49.935 83.5304 57.509 66.5326 68.464 56.516C79.2605 46.6443 93.256 43.6291 111.643 43.3782C111.87 42.1357 112.957 41.1938 114.265 41.1937Z" fill="#0056CF"/>
</svg>
