<svg width="158" height="159" viewBox="0 0 158 159" fill="none" xmlns="http://www.w3.org/2000/svg">
<path d="M97.9895 111.553C99.4622 111.553 100.656 112.747 100.656 114.22C100.656 115.693 99.4622 116.886 97.9895 116.886C96.6877 116.886 95.6047 115.953 95.3705 114.72H44.0002V113.72H95.3705C95.6047 112.486 96.6877 111.553 97.9895 111.553Z" fill="#E4E8F0"/>
<path d="M56.1518 41.1901C57.4536 41.1901 58.5366 42.123 58.7707 43.3566L114 43.3562V44.3564H58.7707C58.5367 45.5902 57.4537 46.5234 56.1518 46.5234C54.679 46.5234 53.4851 45.3295 53.4851 43.8567C53.4851 42.384 54.679 41.1901 56.1518 41.1901Z" fill="#E4E8F0"/>
<path d="M114 41.1937C115.472 41.1937 116.666 42.3876 116.666 43.8604C116.666 45.3332 115.472 46.5271 114 46.5271C112.716 46.527 111.644 45.6193 111.39 44.4105C98.6979 44.9125 91.3461 49.1181 86.7342 55.1581C81.7793 61.6472 79.9233 70.323 78.1588 79.1407C76.4054 87.9024 74.7417 96.8157 70.0766 103.516C65.6813 109.828 58.667 114.127 46.6289 114.667C46.4184 115.929 45.3221 116.891 43.9999 116.891C42.5272 116.891 41.3333 115.698 41.3333 114.225C41.3333 112.752 42.5272 111.558 43.9999 111.558C45.2811 111.558 46.3506 112.462 46.6074 113.666C58.3805 113.134 65.0745 108.949 69.2555 102.945C73.7765 96.4515 75.4114 87.7739 77.1783 78.9446C78.9341 70.1711 80.8203 61.2556 85.9393 54.5514C90.7748 48.2185 98.4393 43.9192 111.371 43.4113C111.585 42.1525 112.68 41.1938 114 41.1937Z" fill="#0056CF"/>
</svg>
