<svg width="159" height="159" viewBox="0 0 159 159" fill="none" xmlns="http://www.w3.org/2000/svg">
<path d="M85.6467 41.6744C86.9484 41.6744 88.0314 42.6074 88.2656 43.841H114.578V44.8412H88.2656C88.0314 46.0748 86.9484 47.0078 85.6467 47.0078C84.1739 47.0078 82.98 45.8139 82.98 44.3411C82.98 42.8684 84.1739 41.6744 85.6467 41.6744Z" fill="#E4E8F0"/>
<path d="M114.578 41.6781C116.051 41.6781 117.244 42.872 117.244 44.3448C117.244 45.8175 116.051 47.0114 114.578 47.0114C113.341 47.0114 112.302 46.1697 112 45.0281C105.634 45.9121 98.704 49.9346 91.7552 55.7232C83.8746 62.2882 76.0532 71.0537 69.1213 79.8367C62.1917 88.6168 56.1628 97.3992 51.8658 103.988C49.7176 107.282 48.0028 110.026 46.8254 111.947C46.6569 112.222 46.5 112.48 46.3538 112.721C46.9002 113.209 47.2446 113.919 47.2447 114.709C47.2447 116.182 46.0507 117.376 44.578 117.376C43.1052 117.376 41.9113 116.182 41.9113 114.709C41.9114 113.236 43.1053 112.043 44.578 112.043C44.9009 112.043 45.2104 112.1 45.4969 112.205C45.6444 111.963 45.803 111.702 45.9731 111.424C47.1546 109.497 48.8743 106.744 51.0281 103.442C55.3356 96.8372 61.3821 88.0283 68.336 79.2172C75.2877 70.4092 83.1583 61.5833 91.115 54.955C98.1184 49.1208 105.254 44.9342 111.93 44.0288C112.087 42.7051 113.212 41.6782 114.578 41.6781Z" fill="#0056CF"/>
</svg>
