<svg width="159" height="159" viewBox="0 0 159 159" fill="none" xmlns="http://www.w3.org/2000/svg">
<path d="M57.2678 41.4006C58.7405 41.4007 59.9344 42.5946 59.9344 44.0673C59.9344 45.5348 58.7489 46.7251 57.2834 46.7335L44.7573 114.545L43.7737 114.363L56.2997 46.5521C55.3056 46.1646 54.6011 45.1985 54.6011 44.0673C54.6011 42.5945 55.795 41.4006 57.2678 41.4006Z" fill="#E4E8F0"/>
<path d="M59.4941 41.4243C60.7958 41.4243 61.8788 42.3573 62.113 43.5909H114.266V44.5911H62.113C61.8788 45.8247 60.7958 46.7577 59.4941 46.7577C58.0213 46.7577 56.8274 45.5637 56.8274 44.091C56.8274 42.6182 58.0213 41.4243 59.4941 41.4243Z" fill="#E4E8F0"/>
<path d="M114.265 41.428C115.738 41.428 116.932 42.6219 116.932 44.0947C116.932 45.5674 115.738 46.7613 114.265 46.7613C112.964 46.7612 111.881 45.8288 111.646 44.5957C99.2564 44.6001 89.7124 44.6666 82.1679 45.6895C74.1145 46.7814 68.4097 48.9546 63.994 53.2487C59.5652 57.5555 56.3748 64.0514 53.4802 73.9203C50.7294 83.2989 48.2625 95.6607 45.234 111.975C46.2278 112.362 46.9322 113.328 46.9322 114.459C46.9322 115.932 45.7383 117.126 44.2655 117.126C42.7928 117.126 41.5989 115.932 41.5989 114.459C41.5989 112.991 42.7851 111.8 44.2513 111.792C47.2787 95.4838 49.7535 83.0724 52.5204 73.6388C55.4303 63.718 58.681 57.0206 63.2969 52.5318C67.9259 48.0304 73.8694 45.8055 82.0338 44.6985C89.6545 43.6653 99.2715 43.6002 111.646 43.5959C111.88 42.3616 112.963 41.4281 114.265 41.428Z" fill="#0056CF"/>
</svg>
