<svg width="158" height="158" viewBox="0 0 158 158" fill="none" xmlns="http://www.w3.org/2000/svg">
<path d="M96.3877 105.19C96.7714 106.192 97.7402 106.904 98.877 106.904C100.35 106.904 101.544 105.71 101.544 104.237C101.544 102.765 100.35 101.57 98.877 101.57C97.4147 101.57 96.2278 102.748 96.2109 104.206L43.8652 113.555L44.041 114.539L96.3877 105.19Z" fill="#E4E8F0"/>
<path d="M54.4736 55.9727C55.9238 55.9727 57.1009 54.8146 57.1367 53.373L114.127 43.9805L113.965 42.9941L56.9736 52.3877C56.5991 51.3679 55.6233 50.6387 54.4736 50.6387C53.0009 50.6387 51.8066 51.8329 51.8066 53.3057C51.8066 54.7784 53.0009 55.9727 54.4736 55.9727Z" fill="#E4E8F0"/>
<path d="M113.999 41.0371C115.472 41.0371 116.666 42.2313 116.666 43.7041C116.666 45.1769 115.472 46.3711 113.999 46.3711C112.861 46.3711 111.891 45.6564 111.509 44.6523C98.2898 47.1918 90.7017 51.9142 86.0312 57.7051C81.0506 63.8806 79.3275 71.3365 77.7324 78.9238C76.1455 86.4724 74.6836 94.1687 70.1309 100.573C65.8476 106.599 58.8731 111.43 46.665 114.053C46.6651 114.058 46.666 114.063 46.666 114.068C46.666 115.541 45.4718 116.735 43.999 116.735C42.5263 116.735 41.332 115.541 41.332 114.068C41.3322 112.596 42.5263 111.402 43.999 111.402C45.1189 111.402 46.0756 112.093 46.4707 113.071C58.4874 110.487 65.2129 105.765 69.3154 99.9941C73.7238 93.7928 75.1549 86.3235 76.7539 78.7178C78.3447 71.1509 80.1012 63.4638 85.252 57.0771C90.1134 51.0493 97.9462 46.2388 111.333 43.6689C111.352 42.2124 112.538 41.0371 113.999 41.0371Z" fill="#0056CF"/>
</svg>
