<svg width="158" height="159" viewBox="0 0 158 159" fill="none" xmlns="http://www.w3.org/2000/svg">
<path d="M72.5752 111.522C72.9157 112.603 73.926 113.386 75.1193 113.386C76.592 113.386 77.7859 112.192 77.7859 110.72C77.7859 109.247 76.592 108.053 75.1193 108.053C73.7106 108.053 72.5577 109.145 72.4599 110.529L43.9417 113.88L44.0583 114.872L72.5752 111.522Z" fill="#E4E8F0"/>
<path d="M82.53 49.9354C83.926 49.9354 85.0705 48.8626 85.1861 47.4965L114.052 44.5107L113.949 43.516L85.0841 46.5023C84.7548 45.4032 83.7362 44.6021 82.53 44.6021C81.0572 44.6021 79.8633 45.796 79.8633 47.2688C79.8633 48.7415 81.0572 49.9354 82.53 49.9354Z" fill="#E4E8F0"/>
<path d="M114 41.35C115.472 41.35 116.666 42.5439 116.666 44.0166C116.666 45.4894 115.472 46.6833 114 46.6833C112.841 46.6832 111.856 45.944 111.488 44.9117C104.95 46.3041 99.4725 50.4394 94.539 56.1097C88.9701 62.5104 84.1451 70.8069 79.3013 79.1803C74.4696 87.5326 69.6188 95.962 64.0209 102.537C59.0439 108.383 53.4351 112.812 46.6657 114.411C46.6495 115.87 45.4626 117.048 43.9999 117.048C42.5272 117.048 41.3333 115.854 41.3333 114.381C41.3333 112.908 42.5272 111.714 43.9999 111.714C45.1356 111.714 46.1049 112.425 46.4893 113.425C52.9478 111.882 58.3667 107.635 63.2595 101.889C68.7867 95.3966 73.5911 87.0544 78.4357 78.6797C83.2681 70.3261 88.1411 61.9403 93.785 55.4534C98.8082 49.68 104.482 45.3636 111.335 43.9216C111.385 42.4929 112.559 41.3501 114 41.35Z" fill="#0056CF"/>
</svg>
