<svg width="159" height="159" viewBox="0 0 159 159" fill="none" xmlns="http://www.w3.org/2000/svg">
<path d="M61.913 105.3C63.3857 105.3 64.5796 106.494 64.5796 107.966C64.5796 109.439 63.3857 110.633 61.913 110.633C60.9557 110.633 60.1166 110.128 59.6463 109.371L44.7575 115.076L44.3994 114.143L59.2881 108.437C59.2609 108.284 59.2468 108.127 59.2468 107.966C59.2468 106.494 60.4403 105.3 61.913 105.3Z" fill="#E4E8F0"/>
<path d="M61.9961 41.5807C63.2978 41.5807 64.3809 42.5136 64.615 43.7472H114.578V44.7474H64.615C64.3809 45.9811 63.2978 46.914 61.9961 46.914C60.5233 46.914 59.3294 45.7201 59.3294 44.2473C59.3294 42.7746 60.5233 41.5807 61.9961 41.5807Z" fill="#E4E8F0"/>
<path d="M114.578 41.5843C116.051 41.5843 117.244 42.7782 117.244 44.251C117.244 45.7238 116.051 46.9177 114.578 46.9177C113.295 46.9176 112.224 46.012 111.969 44.8053C100.231 45.2963 91.2801 49.1035 84.2171 54.7023C76.6291 60.7174 71.1944 68.82 66.8344 77.1713C62.4583 85.5534 59.2212 94.06 55.9211 101.03C54.2814 104.493 52.6305 107.563 50.8311 109.981C49.6782 111.531 48.4523 112.829 47.1147 113.793C47.1987 114.052 47.2447 114.328 47.2447 114.615C47.2447 116.088 46.0507 117.282 44.578 117.282C43.1052 117.282 41.9113 116.088 41.9113 114.615C41.9114 113.143 43.1053 111.949 44.578 111.949C45.402 111.949 46.1388 112.323 46.6279 112.91C47.8182 112.033 48.9422 110.845 50.0289 109.384C51.7686 107.046 53.3862 104.047 55.0174 100.602C58.2592 93.7557 61.5742 85.0864 65.9481 76.7084C70.3381 68.2998 75.8514 60.0582 83.5963 53.9189C90.8307 48.1841 99.9906 44.3021 111.949 43.806C112.161 42.5452 113.257 41.5844 114.578 41.5843Z" fill="#0056CF"/>
</svg>
