<svg width="159" height="158" viewBox="0 0 159 158" fill="none" xmlns="http://www.w3.org/2000/svg">
<path d="M83.0146 50.8574C84.4873 50.8574 85.6812 52.0513 85.6813 53.524C85.6813 54.9968 84.4874 56.1907 83.0146 56.1907C82.6694 56.1907 82.3397 56.1246 82.0369 56.0052L45.1572 114.33L44.3123 113.796L81.1924 55.4702C80.673 54.9836 80.3479 54.2919 80.3479 53.524C80.348 52.0513 81.5419 50.8574 83.0146 50.8574Z" fill="#E4E8F0"/>
<path d="M115.147 43.9838L94.28 74.428C94.7582 74.91 95.0538 75.5733 95.0538 76.3058C95.0538 77.7785 93.8599 78.9724 92.3871 78.9724C90.9144 78.9724 89.7205 77.7785 89.7205 76.3058C89.7205 74.8331 90.9144 73.6391 92.3871 73.6391C92.7671 73.6391 93.1281 73.7195 93.4553 73.8627L114.323 43.418L115.147 43.9838Z" fill="#E4E8F0"/>
<path d="M114.734 41.0375C116.207 41.0375 117.401 42.2314 117.401 43.7041C117.401 45.1769 116.207 46.3708 114.734 46.3708C114.343 46.3708 113.971 46.2855 113.636 46.1338C108.659 53.0262 104.295 57.2297 100.048 60.3608C95.4061 63.7837 90.8743 65.9392 85.9665 68.8903C76.373 74.659 64.8549 83.7195 46.5657 112.131C47.0797 112.617 47.4009 113.305 47.401 114.069C47.401 115.541 46.2071 116.735 44.7343 116.735C43.2615 116.735 42.0676 115.541 42.0676 114.069C42.0677 112.596 43.2616 111.402 44.7343 111.402C45.0839 111.402 45.4175 111.47 45.7235 111.592C64.0731 83.0866 75.6934 73.9009 85.4512 68.0334C90.4648 65.0187 94.8584 62.9451 99.455 59.5558C103.606 56.4951 107.898 52.3716 112.819 45.558C112.354 45.0781 112.067 44.4248 112.067 43.7041C112.067 42.2314 113.261 41.0376 114.734 41.0375Z" fill="#0056CF"/>
</svg>
