<svg width="158" height="159" viewBox="0 0 158 159" fill="none" xmlns="http://www.w3.org/2000/svg">
<path d="M86.1458 109.069C87.6186 109.069 88.8125 110.263 88.8125 111.736C88.8125 113.209 87.6186 114.402 86.1458 114.402C84.907 114.402 83.8655 113.558 83.566 112.413L44.0343 115.108L43.9663 114.111L83.4989 111.415C83.6573 110.094 84.7816 109.069 86.1458 109.069Z" fill="#E4E8F0"/>
<path d="M114.5 44.2579L113.573 88.295C114.779 88.5505 115.684 89.621 115.684 90.9034C115.684 92.3761 114.49 93.57 113.017 93.57C111.545 93.57 110.351 92.3761 110.351 90.9034C110.351 89.5821 111.312 88.486 112.573 88.2743L113.5 44.2368L114.5 44.2579Z" fill="#E4E8F0"/>
<path d="M114 41.5842C115.472 41.5842 116.666 42.7781 116.666 44.2509C116.666 45.5833 115.689 46.6871 114.413 46.8854C113.449 69.0348 106.556 85.2337 94.8058 96.3096C83.11 107.334 66.6649 113.222 46.6487 114.917C46.4988 116.248 45.3707 117.282 43.9999 117.282C42.5272 117.282 41.3333 116.088 41.3333 114.615C41.3333 113.143 42.5272 111.949 43.9999 111.949C45.2319 111.949 46.2682 112.784 46.5743 113.92C66.4472 112.236 82.6442 106.398 94.1198 95.5817C105.633 84.7294 112.456 68.8057 113.413 46.8519C112.223 46.5846 111.333 45.522 111.333 44.2509C111.333 42.7782 112.527 41.5843 114 41.5842Z" fill="#0056CF"/>
</svg>
