<svg width="159" height="158" viewBox="0 0 159 158" fill="none" xmlns="http://www.w3.org/2000/svg">
<path d="M61.6621 78.9963C63.1348 78.9964 64.3288 80.1903 64.3288 81.663C64.3288 83.1357 63.1348 84.3296 61.6621 84.3297C61.3837 84.3297 61.1153 84.2866 60.8631 84.2075L44.706 114.3L43.8252 113.827L59.9823 83.7341C59.3802 83.2451 58.9954 82.4991 58.9954 81.663C58.9954 80.1902 60.1893 78.9963 61.6621 78.9963Z" fill="#E4E8F0"/>
<path d="M114.319 44.1978L78.3684 48.0038C78.2559 49.373 77.1101 50.4491 75.7118 50.4491C74.2391 50.4491 73.0452 49.2552 73.0452 47.7824C73.0452 46.3097 74.2391 45.1158 75.7118 45.1158C76.9157 45.1158 77.9328 45.9138 78.2642 47.0096L114.213 43.2031L114.319 44.1978Z" fill="#E4E8F0"/>
<path d="M114.265 41.0375C115.738 41.0375 116.932 42.2314 116.932 43.7041C116.932 45.1769 115.738 46.3708 114.265 46.3708C113.077 46.3707 112.071 45.5934 111.726 44.5197C94.0119 47.0446 81.6637 56.128 71.6872 68.478C61.7045 80.8356 54.1242 96.4229 45.9311 111.986C46.5412 112.475 46.9322 113.226 46.9322 114.069C46.9322 115.541 45.7383 116.735 44.2655 116.735C42.7928 116.735 41.5989 115.541 41.5989 114.069C41.5989 112.596 42.7928 111.402 44.2655 111.402C44.5375 111.402 44.7999 111.443 45.0471 111.519C53.2139 96.0033 60.8533 80.2976 70.9093 67.8493C81.0082 55.3479 93.5735 46.0918 111.605 43.5273C111.696 42.1371 112.852 41.0376 114.265 41.0375Z" fill="#0056CF"/>
</svg>
