<svg width="159" height="159" viewBox="0 0 159 159" fill="none" xmlns="http://www.w3.org/2000/svg">
<path d="M107.69 109.112C109.162 109.112 110.356 110.306 110.356 111.778C110.356 113.251 109.162 114.445 107.69 114.445C106.423 114.445 105.363 113.561 105.091 112.377L44.7531 114.655L44.7155 113.656L105.053 111.378C105.246 110.095 106.353 109.112 107.69 109.112Z" fill="#E4E8F0"/>
<path d="M115.199 43.9793L94.2783 96.1922C95.017 96.6664 95.5067 97.4948 95.5067 98.4378C95.5066 99.9105 94.3127 101.104 92.84 101.104C91.3673 101.104 90.1734 99.9105 90.1733 98.4378C90.1733 96.965 91.3673 95.7711 92.84 95.7711C93.0144 95.7711 93.1847 95.7883 93.3497 95.8203L114.271 43.6073L115.199 43.9793Z" fill="#E4E8F0"/>
<path d="M114.734 41.1312C116.207 41.1312 117.401 42.3251 117.401 43.7979C117.401 45.2707 116.207 46.4646 114.734 46.4646C114.565 46.4646 114.399 46.4479 114.239 46.4177C109.355 58.9729 106.397 69.2613 103.879 77.7005C101.206 86.6592 99.0148 93.5933 95.5136 98.8883C91.9885 104.219 87.1532 107.868 79.261 110.328C71.8397 112.642 61.6991 113.91 47.372 114.553C47.1832 115.84 46.0745 116.829 44.7343 116.829C43.2615 116.829 42.0676 115.635 42.0676 114.162C42.0677 112.69 43.2616 111.496 44.7343 111.496C45.9974 111.496 47.0542 112.374 47.3298 113.553C61.6347 112.911 71.6685 111.648 78.9634 109.374C86.6681 106.972 91.2988 103.449 94.6792 98.3368C98.0835 93.1883 100.238 86.4062 102.92 77.4144C105.437 68.98 108.406 58.6526 113.308 46.0504C112.563 45.5775 112.067 44.7459 112.067 43.7979C112.067 42.3252 113.261 41.1313 114.734 41.1312Z" fill="#0056CF"/>
</svg>
