<svg width="159" height="159" viewBox="0 0 159 159" fill="none" xmlns="http://www.w3.org/2000/svg">
<path d="M97.7439 108.439C99.2166 108.439 100.411 109.633 100.411 111.106C100.411 112.579 99.2167 113.772 97.7439 113.772C96.5049 113.772 95.4634 112.927 95.164 111.782L44.7686 115.202L44.7007 114.205L95.097 110.785C95.2556 109.463 96.3799 108.439 97.7439 108.439Z" fill="#E4E8F0"/>
<path d="M115.229 44.415L105.667 107.859C106.705 108.224 107.449 109.212 107.449 110.375C107.449 111.847 106.255 113.041 104.782 113.041C103.31 113.041 102.116 111.847 102.116 110.375C102.116 108.937 103.254 107.765 104.678 107.71L114.24 44.2662L115.229 44.415Z" fill="#E4E8F0"/>
<path d="M114.734 41.6781C116.207 41.6781 117.401 42.872 117.401 44.3448C117.401 45.7835 116.262 46.9552 114.836 47.0087C112.511 62.2314 110.302 73.8816 107.559 82.8363C104.662 92.2949 101.156 98.7955 96.2456 103.333C91.3314 107.873 85.0628 110.399 76.7403 112.012C68.9823 113.517 59.3897 114.235 47.3803 115.034C47.2199 116.354 46.097 117.376 44.7343 117.376C43.2615 117.376 42.0676 116.182 42.0676 114.709C42.0677 113.236 43.2616 112.043 44.7343 112.043C45.9744 112.043 47.0163 112.889 47.3146 114.036C59.3343 113.236 68.8613 112.521 76.5498 111.03C84.7775 109.435 90.8427 106.962 95.5669 102.598C100.294 98.23 103.731 91.9192 106.603 82.5434C109.324 73.6621 111.523 62.0741 113.847 46.8599C112.811 46.4943 112.067 45.5065 112.067 44.3448C112.067 42.8721 113.261 41.6782 114.734 41.6781Z" fill="#0056CF"/>
</svg>
