<svg width="158" height="159" viewBox="0 0 158 159" fill="none" xmlns="http://www.w3.org/2000/svg">
<path d="M89.213 108.174C90.6857 108.174 91.8797 109.368 91.8797 110.841C91.8797 112.313 90.6857 113.507 89.213 113.507C87.9786 113.507 86.9402 112.669 86.6364 111.53L44.0362 114.64L43.9636 113.643L86.5643 110.533C86.7168 109.205 87.8443 108.174 89.213 108.174Z" fill="#E4E8F0"/>
<path d="M68.7802 41.1119C70.082 41.1119 71.165 42.0448 71.3991 43.2785L114 43.278V44.2782H71.3991C71.1651 45.512 70.0821 46.4453 68.7802 46.4453C67.3074 46.4453 66.1135 45.2513 66.1135 43.7786C66.1135 42.3058 67.3074 41.1119 68.7802 41.1119Z" fill="#E4E8F0"/>
<path d="M114 41.1156C115.472 41.1156 116.666 42.3095 116.666 43.7822C116.666 45.255 115.472 46.4489 114 46.4489C112.726 46.4488 111.661 45.5553 111.396 44.3609C101.733 44.9569 95.3896 48.9039 90.7404 54.6271C85.6549 60.8875 82.5818 69.2868 79.4758 77.8943C76.3834 86.4642 73.2597 95.2363 68.0532 102.061C63.2316 108.381 56.628 113.028 46.656 114.374C46.5407 115.74 45.3961 116.813 43.9999 116.813C42.5272 116.813 41.3333 115.619 41.3333 114.147C41.3333 112.674 42.5272 111.48 43.9999 111.48C45.2057 111.48 46.2238 112.281 46.5536 113.379C56.2299 112.065 62.5925 107.57 67.2579 101.454C72.3529 94.7758 75.4287 86.1629 78.5349 77.5549C81.6274 68.9846 84.7521 60.4129 89.9643 53.9966C94.7942 48.051 101.404 43.9682 111.366 43.3611C111.568 42.0885 112.67 41.1157 114 41.1156Z" fill="#0056CF"/>
</svg>
