<svg width="159" height="159" viewBox="0 0 159 159" fill="none" xmlns="http://www.w3.org/2000/svg">
<path d="M60.2082 41.2719C61.6809 41.2719 62.8749 42.4658 62.8749 43.9385C62.8749 45.4113 61.6809 46.6052 60.2082 46.6052C60.1777 46.6052 60.1475 46.6035 60.1173 46.6024L44.7537 114.407L43.7783 114.186L59.1414 46.3825C58.1998 45.9709 57.5415 45.0319 57.5415 43.9385C57.5415 42.4658 58.7354 41.2719 60.2082 41.2719Z" fill="#E4E8F0"/>
<path d="M66.4853 41.2682C67.787 41.2682 68.8701 42.2011 69.1042 43.4348H114.266V44.4349H69.1042C68.8701 45.6686 67.787 46.6015 66.4853 46.6015C65.0125 46.6015 63.8186 45.4076 63.8186 43.9349C63.8186 42.4621 65.0125 41.2682 66.4853 41.2682Z" fill="#E4E8F0"/>
<path d="M114.265 41.2719C115.738 41.2719 116.932 42.4658 116.932 43.9385C116.932 45.4113 115.738 46.6052 114.265 46.6052C112.964 46.6051 111.881 45.6729 111.646 44.44C100.987 44.4458 92.5275 44.5214 85.5951 45.5329C78.1218 46.6234 72.4742 48.7944 67.8013 53.1017C63.1164 57.4203 59.3631 63.9297 55.7735 73.7945C52.3603 83.1747 49.1112 95.5429 45.3401 111.863C46.2775 112.276 46.9322 113.213 46.9322 114.303C46.9322 115.776 45.7383 116.97 44.2655 116.97C42.7928 116.97 41.5989 115.776 41.5989 114.303C41.5989 112.83 42.7928 111.636 44.2655 111.636C44.2991 111.636 44.3324 111.637 44.3657 111.639C48.1381 95.3129 51.3987 82.8932 54.834 73.4524C58.4455 63.5274 62.2667 56.8435 67.1235 52.3665C71.9926 47.8784 77.8544 45.6517 85.4509 44.5433C92.4638 43.52 100.999 43.4458 111.646 43.4403C111.879 42.2058 112.963 41.2719 114.265 41.2719Z" fill="#0056CF"/>
</svg>
