<svg width="159" height="159" viewBox="0 0 159 159" fill="none" xmlns="http://www.w3.org/2000/svg">
<path d="M77.3235 111.584C78.7963 111.584 79.9902 112.778 79.9902 114.251C79.9902 115.724 78.7963 116.918 77.3235 116.918C76.0218 116.918 74.9388 115.985 74.7046 114.751H44.7347V113.751H74.7042C74.9381 112.518 76.0216 111.584 77.3235 111.584Z" fill="#E4E8F0"/>
<path d="M115.104 44.2245L99.0173 61.8511C99.3513 62.2965 99.5495 62.8496 99.5495 63.4492C99.5495 64.9219 98.3556 66.1159 96.8829 66.1159C95.4101 66.1159 94.2162 64.9219 94.2162 63.4492C94.2162 61.9764 95.4101 60.7825 96.8829 60.7825C97.3947 60.7825 97.8728 60.927 98.2789 61.177L114.365 43.5504L115.104 44.2245Z" fill="#E4E8F0"/>
<path d="M114.734 41.225C116.207 41.225 117.401 42.4189 117.401 43.8916C117.401 45.3644 116.207 46.5583 114.734 46.5583C114.24 46.5583 113.777 46.4231 113.38 46.1887C109.466 50.8304 105.454 56.8244 101.216 63.3569C96.3622 70.837 91.218 79.0117 85.6165 86.5832C75.0365 100.884 62.703 113.21 47.3753 114.622C47.1969 115.922 46.0829 116.923 44.7343 116.923C43.2615 116.923 42.0676 115.729 42.0676 114.256C42.0677 112.783 43.2616 111.589 44.7343 111.589C45.9887 111.589 47.0399 112.456 47.3243 113.623C62.1578 112.234 74.2431 100.275 84.8125 85.9885C90.3904 78.4488 95.5121 70.31 100.377 62.8128C104.613 56.2839 108.66 50.2324 112.63 45.5278C112.278 45.076 112.067 44.5086 112.067 43.8916C112.067 42.419 113.261 41.2251 114.734 41.225Z" fill="#0056CF"/>
</svg>
