<svg width="159" height="159" viewBox="0 0 159 159" fill="none" xmlns="http://www.w3.org/2000/svg">
<path d="M59.0611 68.9166C60.5338 68.9166 61.7277 70.1105 61.7277 71.5832C61.7277 73.056 60.5338 74.2499 59.0611 74.2499C58.9294 74.2499 58.8 74.2399 58.6735 74.2214L44.7381 114.305L43.7939 113.976L57.7289 73.8926C56.9315 73.4316 56.3944 72.5705 56.3944 71.5832C56.3944 70.1105 57.5883 68.9166 59.0611 68.9166Z" fill="#E4E8F0"/>
<path d="M69.0422 41.1119C70.3439 41.1119 71.4269 42.0449 71.6611 43.2785H114.266V44.2787H71.6611C71.4269 45.5123 70.3439 46.4453 69.0422 46.4453C67.5694 46.4453 66.3755 45.2513 66.3755 43.7786C66.3755 42.3058 67.5694 41.1119 69.0422 41.1119Z" fill="#E4E8F0"/>
<path d="M114.265 41.1156C115.738 41.1156 116.932 42.3095 116.932 43.7822C116.932 45.255 115.738 46.4489 114.265 46.4489C112.975 46.4488 111.899 45.5326 111.652 44.3154C90.7665 44.8359 77.7982 51.6621 68.2863 63.3196C58.729 75.0328 52.6334 91.6481 45.5987 111.838C46.3956 112.299 46.9322 113.16 46.9322 114.147C46.9322 115.619 45.7383 116.813 44.2655 116.813C42.7928 116.813 41.5989 115.619 41.5989 114.147C41.5989 112.674 42.7928 111.48 44.2655 111.48C44.3977 111.48 44.5275 111.49 44.6545 111.508C51.6761 91.3544 57.8255 74.5588 67.5116 62.6877C77.2371 50.7684 90.4999 43.8403 111.64 43.3157C111.861 42.0655 112.952 41.1157 114.265 41.1156Z" fill="#0056CF"/>
</svg>
