<svg width="159" height="159" viewBox="0 0 159 159" fill="none" xmlns="http://www.w3.org/2000/svg">
<path d="M111.2 108.454C112.673 108.454 113.867 109.648 113.867 111.121C113.867 112.593 112.673 113.787 111.2 113.787C109.95 113.787 108.9 112.926 108.612 111.764L44.7623 115.297L44.7072 114.298L108.558 110.766C108.731 109.461 109.848 108.454 111.2 108.454Z" fill="#E4E8F0"/>
<path d="M115.224 44.5391L101.317 109.766C102.276 110.17 102.949 111.118 102.949 112.224C102.949 113.697 101.755 114.891 100.282 114.891C98.8093 114.891 97.6154 113.697 97.6154 112.224C97.6154 110.751 98.8093 109.557 100.282 109.557C100.301 109.557 100.32 109.558 100.339 109.559L114.246 44.3306L115.224 44.5391Z" fill="#E4E8F0"/>
<path d="M114.734 41.7717C116.207 41.7717 117.401 42.9656 117.401 44.4384C117.401 45.9112 116.207 47.1051 114.734 47.1051C114.717 47.1051 114.701 47.104 114.684 47.1037C113.14 54.5053 111.899 61.0532 110.816 66.8532C109.609 73.3107 108.596 78.8497 107.577 83.6C105.544 93.0817 103.469 99.5295 99.692 103.966C95.893 108.427 90.4356 110.786 81.8308 112.271C73.6925 113.675 62.6484 114.31 47.3766 115.157C47.2034 116.462 46.087 117.469 44.7343 117.469C43.2615 117.469 42.0676 116.276 42.0676 114.803C42.0677 113.33 43.2616 112.136 44.7343 112.136C45.9846 112.136 47.0331 112.997 47.3215 114.158C62.6133 113.31 73.5894 112.678 81.6604 111.285C90.1748 109.816 95.355 107.517 98.9306 103.317C102.528 99.0926 104.565 92.876 106.6 83.3901C107.615 78.6565 108.625 73.1355 109.833 66.67C110.917 60.8678 112.159 54.3114 113.705 46.8989C112.744 46.4962 112.067 45.5464 112.067 44.4384C112.067 42.9657 113.261 41.7718 114.734 41.7717Z" fill="#0056CF"/>
</svg>
