<svg width="159" height="158" viewBox="0 0 159 158" fill="none" xmlns="http://www.w3.org/2000/svg">
<path d="M61.9493 93.9999C63.422 93.9999 64.6159 95.1938 64.6159 96.6665C64.6159 98.1393 63.422 99.3332 61.9493 99.3332C60.4765 99.3332 59.2826 98.1393 59.2826 96.6665C59.2826 95.1938 60.4765 93.9999 61.9493 93.9999Z" fill="#E4E8F0"/>
<path d="M97.2107 58.642C98.6834 58.642 99.8772 59.836 99.8774 61.3087C99.8774 62.7814 98.6834 63.9753 97.2107 63.9753C95.7379 63.9753 94.544 62.7814 94.544 61.3087C94.5441 59.836 95.738 58.642 97.2107 58.642Z" fill="#E4E8F0"/>
<path d="M114.578 41.0375C116.051 41.0375 117.244 42.2314 117.244 43.7041C117.244 45.1769 116.051 46.3708 114.578 46.3708C114.025 46.3708 113.511 46.2019 113.085 45.9134L46.7795 112.564C47.0727 112.992 47.2446 113.51 47.2447 114.069C47.2447 115.541 46.0507 116.735 44.578 116.735C43.1052 116.735 41.9113 115.541 41.9113 114.069C41.9114 112.596 43.1053 111.402 44.578 111.402C45.131 111.402 45.6449 111.57 46.0709 111.858L112.376 45.2085C112.083 44.7803 111.911 44.2622 111.911 43.7041C111.911 42.2314 113.105 41.0376 114.578 41.0375Z" fill="#0056CF"/>
</svg>
