<svg width="512" height="512" viewBox="0 0 512 512" fill="none" xmlns="http://www.w3.org/2000/svg">
<g clip-path="url(#clip0_166_875)">
<rect width="512" height="512" fill="white"/>
<mask id="mask0_166_875" style="mask-type:luminance" maskUnits="userSpaceOnUse" x="61" y="16" width="390" height="478">
<path fill-rule="evenodd" clip-rule="evenodd" d="M450.927 493.117H61.0742L61.0742 16H450.927V493.117V493.117Z" fill="white"/>
</mask>
<g mask="url(#mask0_166_875)">
<path fill-rule="evenodd" clip-rule="evenodd" d="M260.512 16C245.056 16 232.485 28.6418 232.485 44.1765V83.6658L73.5318 200.147L73.3789 200.26L73.2299 200.37L73.1437 200.437C65.5782 206.074 61.0742 215.074 61.0742 224.564V344.91C61.0742 354.486 65.6096 363.514 73.2221 369.15L73.3632 369.252L73.4455 369.315L73.5318 369.378L235.002 487.701C239.827 491.241 245.53 493.118 251.489 493.118C266.949 493.118 279.524 480.473 279.524 464.934V425.452L438.469 308.968L438.626 308.858L438.775 308.744L438.85 308.686C446.419 303.049 450.927 294.045 450.927 284.551V164.209C450.927 154.613 446.384 145.581 438.76 139.952L438.626 139.854L438.552 139.795L438.469 139.737L277 21.4134C272.178 17.8776 266.475 16 260.512 16M260.512 39.5202C261.39 39.5202 262.284 39.7867 263.096 40.3865L424.569 158.71L424.761 158.851C426.423 160.066 427.407 162.045 427.407 164.147V164.209V284.508V284.551C427.407 286.668 426.416 288.643 424.75 289.863L424.569 289.996L256.004 413.529V464.935C256.004 467.686 253.825 469.599 251.489 469.599C250.615 469.599 249.717 469.325 248.902 468.729L87.4357 350.41L87.2437 350.265C85.5777 349.046 84.5938 347.074 84.5938 344.973V344.91V224.611V224.564C84.5938 222.452 85.5855 220.472 87.2515 219.257L87.4357 219.116L256.004 95.5869V44.177C256.004 41.4331 258.176 39.5202 260.512 39.5202Z" fill="#0056CF"/>
</g>
<path fill-rule="evenodd" clip-rule="evenodd" d="M203.838 227.175L193.113 216.45L164.678 244.885L136.243 216.45L125.518 227.175L153.949 255.61L125.518 284.049L136.243 294.774L164.678 266.335L193.113 294.774L203.838 284.049L175.403 255.61L203.838 227.175Z" fill="#0056CF"/>
<path fill-rule="evenodd" clip-rule="evenodd" d="M345.308 209.607C319.903 209.607 299.303 230.203 299.303 255.608C299.303 281.021 319.903 301.616 345.308 301.616C370.713 301.616 391.308 281.021 391.308 255.608C391.308 230.203 370.713 209.607 345.308 209.607M345.309 224.778C362.31 224.778 376.14 238.607 376.14 255.608C376.14 272.613 362.31 286.446 345.309 286.446C328.305 286.446 314.475 272.613 314.475 255.608C314.475 238.607 328.305 224.778 345.309 224.778" fill="#0056CF"/>
<path fill-rule="evenodd" clip-rule="evenodd" d="M295.508 236.569L251.519 188.954L207.631 236.569L218.376 246.577L244.169 218.404V300.268C244.169 304.321 247.454 307.606 251.503 307.606C255.56 307.606 258.841 304.321 258.841 300.268V218.377L284.764 246.577L295.508 236.569Z" fill="#0056CF"/>
</g>
<defs>
<clipPath id="clip0_166_875">
<rect width="512" height="512" rx="56" fill="white"/>
</clipPath>
</defs>
</svg>
