<svg width="156" height="156" viewBox="0 0 156 156" fill="none" xmlns="http://www.w3.org/2000/svg">
<path fill-rule="evenodd" clip-rule="evenodd" d="M24 0H132C145.255 0 156 10.7452 156 24V132C156 145.255 145.255 156 132 156H24C10.7452 156 0 145.255 0 132V24C0 10.7452 10.7452 0 24 0Z" fill="white"/>
<mask id="mask0_1947_1721" style="mask-type:luminance" maskUnits="userSpaceOnUse" x="0" y="0" width="156" height="156">
<path fill-rule="evenodd" clip-rule="evenodd" d="M24 0H132C145.255 0 156 10.7452 156 24V132C156 145.255 145.255 156 132 156H24C10.7452 156 0 145.255 0 132V24C0 10.7452 10.7452 0 24 0Z" fill="white"/>
</mask>
<g mask="url(#mask0_1947_1721)">
<rect y="-1" width="156" height="157" fill="#F3F7FB"/>
</g>
<mask id="mask1_1947_1721" style="mask-type:luminance" maskUnits="userSpaceOnUse" x="27" y="16" width="101" height="124">
<path fill-rule="evenodd" clip-rule="evenodd" d="M128 139.608H27V16H128V139.608Z" fill="white"/>
</mask>
<g mask="url(#mask1_1947_1721)">
<path fill-rule="evenodd" clip-rule="evenodd" d="M71.4077 23.2997C71.4077 19.2751 74.6646 16 78.6689 16C80.2135 16 81.6912 16.4864 82.9403 17.4025L124.773 48.0567L124.794 48.0719L124.813 48.0872L124.848 48.1125C126.823 49.5709 128 51.9107 128 54.3967V85.574C128 88.0336 126.832 90.3663 124.871 91.8267L124.852 91.8419L124.813 91.8714L124.773 91.8998L83.5943 122.078V132.306C83.5943 136.332 80.3364 139.608 76.3311 139.608C74.7875 139.608 73.3099 139.122 72.0597 138.205L30.2274 107.55L30.2051 107.534L30.1837 107.518L30.1472 107.491C28.175 106.031 27 103.692 27 101.211V70.0331C27 67.5744 28.1669 65.2428 30.1269 63.7824L30.1492 63.7651L30.1878 63.7367L30.2274 63.7073L71.4077 33.5303V23.2997ZM79.3386 22.3176C79.1284 22.1623 78.8969 22.0932 78.6694 22.0932C78.0641 22.0932 77.5015 22.5888 77.5015 23.2997V36.6185L33.8301 68.6214L33.7823 68.658C33.3507 68.9728 33.0938 69.4856 33.0938 70.033V70.0452V101.211V101.228C33.0938 101.772 33.3487 102.283 33.7803 102.598L33.8301 102.636L75.6614 133.289C75.8726 133.444 76.1052 133.515 76.3316 133.515C76.9369 133.515 77.5015 133.019 77.5015 132.306V118.988L121.172 86.9845L121.219 86.95C121.65 86.6341 121.907 86.1223 121.907 85.5739V85.5627V54.3967V54.3804C121.907 53.8361 121.652 53.3232 121.222 53.0084L121.172 52.9719L79.3386 22.3176Z" fill="#0A0527"/>
</g>
<path d="M63.9864 70.7094L61.2079 67.9309L53.8411 75.2977L46.4743 67.9309L43.6958 70.7094L51.0615 78.0762L43.6958 85.444L46.4743 88.2225L53.8411 80.8547L61.2079 88.2225L63.9864 85.444L56.6196 78.0762L63.9864 70.7094Z" fill="#0A0527"/>
<path fill-rule="evenodd" clip-rule="evenodd" d="M88.7183 78.0759C88.7183 71.4941 94.0549 66.1584 100.637 66.1584C107.218 66.1584 112.554 71.4941 112.554 78.0759C112.554 84.6596 107.218 89.9953 100.637 89.9953C94.0549 89.9953 88.7183 84.6596 88.7183 78.0759ZM108.624 78.0757C108.624 73.6713 105.041 70.0884 100.637 70.0884C96.2316 70.0884 92.6488 73.6713 92.6488 78.0757C92.6488 82.4811 96.2316 86.065 100.637 86.065C105.041 86.065 108.624 82.4811 108.624 78.0757Z" fill="#0A0527"/>
<path d="M87.7355 73.1433L76.339 60.8075L64.969 73.1433L67.7526 75.736L74.4349 68.4373V89.6459C74.4349 90.696 75.2859 91.547 76.335 91.547C77.3861 91.547 78.2361 90.696 78.2361 89.6459V68.4302L84.9519 75.736L87.7355 73.1433Z" fill="#0A0527"/>
</svg>
