<svg width="362" height="159" viewBox="0 0 362 159" fill="none" xmlns="http://www.w3.org/2000/svg">
<g clip-path="url(#clip0_2274_15069)">
<path d="M48.1183 107.977C48.3709 107.929 48.6141 108.096 48.6616 108.348C48.7091 108.601 48.543 108.844 48.2904 108.891C48.0474 108.937 47.807 108.986 47.5698 109.041C47.3193 109.098 47.0695 108.942 47.0119 108.692C46.9544 108.441 47.1108 108.191 47.3613 108.134C47.6124 108.076 47.8652 108.024 48.1183 107.977ZM52.2907 107.319C52.5432 107.271 52.787 107.436 52.8353 107.689C52.8834 107.941 52.7177 108.185 52.4653 108.233C51.9642 108.329 51.4585 108.408 50.9562 108.481C50.7018 108.518 50.4655 108.342 50.4283 108.088C50.3911 107.834 50.5673 107.597 50.8216 107.56C51.319 107.488 51.8093 107.411 52.2907 107.319ZM55.1653 107.457C54.9285 107.557 54.6556 107.446 54.5556 107.21C54.4556 106.973 54.5663 106.7 54.8032 106.6L55.1653 107.457ZM56.0156 105.949C56.2273 105.803 56.5171 105.857 56.6629 106.068C56.8086 106.28 56.7552 106.57 56.5435 106.715C56.3312 106.861 56.1115 106.995 55.8844 107.116C55.6486 107.242 55.4085 107.355 55.1653 107.457L54.8032 106.6C55.0226 106.508 55.2374 106.406 55.4471 106.295C55.6419 106.191 55.8314 106.076 56.0156 105.949ZM58.5089 103.047C58.6434 102.853 58.9056 102.789 59.1165 102.906C59.3414 103.03 59.4228 103.313 59.2983 103.538C59.0521 103.983 58.7825 104.406 58.4889 104.801C58.3356 105.007 58.0441 105.05 57.8377 104.897C57.6314 104.744 57.5884 104.452 57.7416 104.246C58.0084 103.887 58.2559 103.499 58.4838 103.088L58.5089 103.047ZM59.8717 99.4034C59.9495 99.1808 60.1851 99.049 60.4195 99.1051C60.6694 99.165 60.8236 99.4159 60.7638 99.6657L60.6735 100.026C60.5797 100.384 60.475 100.739 60.3595 101.087C60.2786 101.331 60.0153 101.463 59.7714 101.382C59.5274 101.301 59.3951 101.038 59.4759 100.794C59.6212 100.356 59.7488 99.9063 59.8583 99.4492L59.8717 99.4034ZM58.7565 94.5422L59.1186 94.5671C59.4792 94.5879 59.8345 94.5969 60.185 94.5949C60.442 94.5935 60.6517 94.8008 60.6532 95.0577C60.6533 95.0846 60.6504 95.1108 60.6462 95.1365C60.7011 95.1151 60.7609 95.1036 60.8235 95.1047C61.0805 95.1091 61.2851 95.3209 61.2808 95.5778C61.2724 96.065 61.2447 96.5573 61.1977 97.0498C61.1733 97.3054 60.9462 97.4929 60.6904 97.4687C60.4345 97.4443 60.2467 97.2171 60.271 96.9613C60.3157 96.4926 60.3422 96.0248 60.3501 95.562L60.3535 95.5145C60.3543 95.5072 60.3556 95.5001 60.3568 95.493C60.3051 95.5132 60.249 95.5251 60.1901 95.5254C59.8199 95.5274 59.445 95.5179 59.065 95.496L58.6835 95.47L58.6362 95.4639C58.4041 95.4218 58.237 95.2097 58.2559 94.9696C58.2748 94.7295 58.473 94.5463 58.7089 94.541L58.7565 94.5422ZM64.1332 94.0855C64.3822 94.0218 64.6357 94.1719 64.6996 94.4208C64.7633 94.6697 64.6131 94.9231 64.3641 94.9869C63.8811 95.1106 63.3897 95.2146 62.8892 95.2973L62.8417 95.3028C62.6062 95.3175 62.3934 95.1518 62.3541 94.9142C62.3122 94.6607 62.4838 94.4212 62.7374 94.3793L63.0908 94.3169C63.4426 94.2507 63.79 94.1734 64.1332 94.0855ZM54.0641 94.0261C54.1486 93.7835 54.414 93.6554 54.6568 93.7399C54.9508 93.8422 55.2388 93.9278 55.5107 93.9968C55.6291 94.0268 55.7471 94.0557 55.8644 94.0834L56.2147 94.1627L56.2604 94.1751C56.4848 94.2483 56.6214 94.481 56.5701 94.7164C56.5188 94.9517 56.2978 95.1065 56.0635 95.0798L56.0165 95.072L55.6504 94.989C55.528 94.9601 55.4051 94.93 55.2816 94.8987C54.984 94.8232 54.67 94.7298 54.3504 94.6186C54.1077 94.534 53.9795 94.2687 54.0641 94.0261ZM67.9156 92.6492C68.1362 92.5655 68.3889 92.661 68.4968 92.8764C68.6118 93.1061 68.5187 93.3856 68.289 93.5006L67.9523 93.6654C67.6144 93.8275 67.2726 93.9812 66.9268 94.1252L66.882 94.1412C66.6562 94.2094 66.4111 94.0969 66.3183 93.8747C66.2195 93.6375 66.3317 93.365 66.569 93.2662L66.8977 93.1257C67.2255 92.9821 67.5502 92.8296 67.872 92.6686L67.9156 92.6492ZM60.2695 91.1285C60.5029 91.0685 60.7407 91.1962 60.8223 91.4174L60.8365 91.4629L60.8804 91.6394C60.9804 92.0533 61.0613 92.4823 61.1238 92.9224C61.1599 93.1768 60.9828 93.4124 60.7283 93.4485C60.4897 93.4823 60.2679 93.3288 60.2114 93.0999L60.2023 93.0533L60.1477 92.7026C60.0989 92.4133 60.0416 92.1312 59.9756 91.8578L59.9347 91.6949L59.9253 91.6482C59.8899 91.4151 60.0362 91.1886 60.2695 91.1285ZM138.533 92.1816C138.852 92.214 139.18 92.2354 139.514 92.2446L139.849 92.2497L139.896 92.2522C140.131 92.2768 140.314 92.4756 140.313 92.7165C140.312 92.9734 140.103 93.1811 139.846 93.1802L139.488 93.1747C139.251 93.1682 139.015 93.1559 138.783 93.1381L138.439 93.1072L138.392 93.0999C138.161 93.0524 137.998 92.8367 138.023 92.5971C138.049 92.3416 138.277 92.1556 138.533 92.1816ZM51.0777 90.9019C51.1619 91.1231 51.2718 91.3434 51.4098 91.5601C51.5499 91.7801 51.7267 91.9908 51.9344 92.191C52.1192 92.3694 52.1245 92.6636 51.9462 92.8485C51.7677 93.0335 51.473 93.0387 51.288 92.8604C51.0363 92.6177 50.8102 92.3512 50.6247 92.0598C50.4532 91.7907 50.3147 91.5139 50.2077 91.233L51.0777 90.9019ZM142.376 92.9582C142.123 93.0062 141.88 92.8407 141.832 92.5884C141.784 92.336 141.949 92.0922 142.202 92.0441L142.376 92.9582ZM143.445 91.7109C143.687 91.6235 143.954 91.7483 144.041 91.9899C144.129 92.2314 144.004 92.4981 143.762 92.5856C143.328 92.7429 142.86 92.866 142.376 92.9582L142.202 92.0441C142.646 91.9595 143.065 91.8487 143.445 91.7109ZM134.522 91.0416C134.691 90.8485 134.985 90.8294 135.179 90.9989C135.347 91.1462 135.533 91.2861 135.74 91.4171C135.884 91.5085 136.061 91.5975 136.27 91.6812C136.509 91.7768 136.625 92.0476 136.529 92.2861C136.434 92.5246 136.163 92.6403 135.924 92.5448C135.675 92.4449 135.444 92.3314 135.241 92.2028C134.995 92.047 134.77 91.8785 134.565 91.6982C134.371 91.5287 134.352 91.2347 134.522 91.0416ZM71.3259 90.5833C71.5365 90.436 71.8267 90.4873 71.9741 90.6978C72.1215 90.9083 72.0704 91.1983 71.8599 91.3457C71.4518 91.6311 71.0396 91.9071 70.6229 92.1719C70.406 92.3098 70.1184 92.2458 69.9805 92.0289C69.8426 91.8121 69.9066 91.5247 70.1235 91.3868C70.5275 91.1301 70.928 90.8616 71.3259 90.5833ZM50.4771 90.6327C50.7173 90.5413 50.9862 90.6619 51.0777 90.9019L50.2077 91.233C50.1163 90.9929 50.2369 90.7241 50.4771 90.6327ZM145.516 89.4366C145.564 89.1843 145.808 89.0189 146.061 89.0671C146.313 89.1153 146.479 89.359 146.431 89.6114L146.361 89.956C146.338 90.0628 146.316 90.1611 146.294 90.2492C146.226 90.5236 146.114 90.7771 145.967 91.0092C145.83 91.2262 145.542 91.2908 145.325 91.1533C145.108 91.0159 145.043 90.7283 145.181 90.5112C145.277 90.3594 145.347 90.1978 145.39 90.0248C145.429 89.8707 145.471 89.6718 145.516 89.4366ZM74.5493 88.1027C74.7473 87.9389 75.0405 87.9667 75.2044 88.1645C75.3684 88.3624 75.3409 88.6555 75.1429 88.8193C74.7621 89.1346 74.3797 89.4452 73.995 89.7495C73.7935 89.9089 73.5006 89.8749 73.3411 89.6735C73.1816 89.472 73.2156 89.1793 73.4172 89.0198C73.7956 88.7205 74.1729 88.4143 74.5493 88.1027ZM58.7932 87.6527C58.9842 87.8571 59.1741 88.0766 59.3626 88.3114C59.4819 88.4601 59.595 88.6165 59.7023 88.7797L59.8077 88.945L59.8304 88.9868C59.9332 89.1991 59.8605 89.4587 59.6553 89.585C59.4501 89.7113 59.1853 89.6593 59.042 89.472L59.015 89.4327L58.9244 89.2903C58.8324 89.1504 58.7364 89.018 58.6365 88.8935C58.462 88.6761 58.2872 88.4742 58.1129 88.2875L58.7932 87.6527ZM133.329 87.0181C133.587 87.0216 133.792 87.2328 133.789 87.4897V87.6751C133.793 88.0433 133.828 88.3974 133.896 88.7342L133.933 88.9014L133.942 88.9481C133.973 89.1818 133.822 89.4059 133.588 89.4617C133.338 89.5213 133.087 89.367 133.027 89.1171C132.901 88.5893 132.85 88.0384 132.858 87.477L132.861 87.4294C132.888 87.1952 133.089 87.0149 133.329 87.0181ZM52.0089 87.1547C51.6441 87.4838 51.3512 87.8884 51.1522 88.3366C51.048 88.5714 50.773 88.6773 50.538 88.5731C50.303 88.4689 50.1971 88.194 50.3013 87.9592C50.553 87.3924 50.9228 86.8808 51.385 86.4639L52.0089 87.1547ZM58.1353 87.6299C58.3232 87.4546 58.6177 87.4649 58.7932 87.6527L58.1129 88.2875C57.9375 88.0997 57.9474 87.8053 58.1353 87.6299ZM146.775 87.3467C146.744 87.6017 146.512 87.7831 146.257 87.752C146.002 87.7208 145.82 87.4888 145.851 87.2338L146.775 87.3467ZM146.487 85.5779C146.743 85.6008 146.932 85.8269 146.91 86.0828L146.88 86.3981C146.849 86.7148 146.814 87.0338 146.775 87.3467L145.851 87.2338C145.901 86.8254 145.946 86.4079 145.982 86.0001L145.989 85.9529C146.034 85.7213 146.247 85.5565 146.487 85.5779ZM77.6932 85.4083C77.8856 85.2719 78.154 85.3006 78.3126 85.4819C78.4818 85.6753 78.4621 85.9691 78.2687 86.1383L77.1614 87.1032C76.9672 87.2716 76.6732 87.2507 76.5047 87.0566C76.3364 86.8625 76.3574 86.5689 76.5514 86.4006C76.9188 86.082 77.2866 85.7607 77.6557 85.438L77.6932 85.4083ZM51.385 86.4639C51.5758 86.2917 51.8703 86.3071 52.0425 86.4978C52.2146 86.6885 52.1996 86.9826 52.0089 87.1547L51.385 86.4639ZM54.5756 85.3632C55.0792 85.3968 55.6001 85.5153 56.128 85.7291L56.2413 85.7763L56.2841 85.7972C56.4903 85.9118 56.5802 86.1662 56.485 86.3875C56.3897 86.6088 56.143 86.7186 55.918 86.6477L55.8735 86.631L55.6847 86.5544C55.3089 86.4116 54.9456 86.3298 54.5995 86.2985L54.428 86.287L54.3804 86.2824C54.147 86.2485 53.9725 86.0427 53.9828 85.8021C53.9939 85.5454 54.2112 85.3464 54.468 85.3574L54.5756 85.3632ZM133.821 83.1313C133.914 82.8916 134.183 82.7722 134.423 82.8647C134.663 82.9573 134.782 83.2266 134.69 83.4663C134.508 83.938 134.346 84.4127 134.211 84.8843C134.141 85.1314 133.883 85.2746 133.636 85.2042C133.389 85.1338 133.246 84.8764 133.316 84.6293C133.459 84.1272 133.63 83.6257 133.821 83.1313ZM81.3693 83.4608C80.9965 83.774 80.6259 84.0902 80.2569 84.4079C80.0621 84.5756 79.7683 84.5537 79.6005 84.3592C79.4327 84.1645 79.4545 83.8705 79.6493 83.7028C80.0204 83.3833 80.3939 83.0649 80.7702 82.7487L81.3693 83.4608ZM146.167 81.917C146.4 81.8563 146.638 81.9837 146.72 82.2048L146.734 82.2502L146.786 82.454C146.836 82.6581 146.883 82.8632 146.924 83.0692C146.965 83.2704 146.988 83.5084 147 83.7646C147.011 84.0213 146.812 84.2386 146.555 84.2498C146.298 84.2609 146.081 84.0618 146.07 83.8052C146.059 83.5735 146.04 83.389 146.012 83.2546C145.973 83.0614 145.93 82.8685 145.882 82.6764L145.833 82.4846L145.824 82.438C145.788 82.205 145.933 81.9778 146.167 81.917ZM80.7702 82.7487C80.967 82.5835 81.2606 82.6088 81.426 82.8054C81.5913 83.002 81.566 83.2955 81.3693 83.4608L80.7702 82.7487ZM84.1178 80.0973C84.3238 79.9437 84.6153 79.986 84.769 80.1918C84.9227 80.3978 84.8805 80.6894 84.6745 80.843C84.4426 81.0159 84.2114 81.1899 83.9811 81.3646C83.7882 81.5109 83.5962 81.6586 83.4051 81.8077C83.2024 81.9657 82.9099 81.9296 82.7517 81.7271C82.5936 81.5246 82.6297 81.2322 82.8323 81.0741C83.0266 80.9226 83.222 80.7721 83.4184 80.6231C83.6507 80.447 83.8839 80.2718 84.1178 80.0973ZM135.764 79.2036C135.896 78.9828 136.181 78.9104 136.402 79.0418C136.623 79.1732 136.695 79.4586 136.564 79.6794C136.315 80.0971 136.065 80.5396 135.823 80.9993L135.798 81.0402C135.668 81.2366 135.407 81.3061 135.194 81.1938C134.967 81.0739 134.879 80.7926 134.999 80.5653C135.25 80.0902 135.508 79.6339 135.764 79.2036ZM144.378 77.7949C144.602 77.6691 144.886 77.7487 145.012 77.9727C145.138 78.1982 145.259 78.427 145.374 78.659C145.496 78.9078 145.615 79.1594 145.728 79.4134C145.833 79.6481 145.727 79.9233 145.493 80.028C145.258 80.1326 144.982 80.027 144.878 79.7923C144.769 79.5496 144.656 79.3088 144.539 79.0703C144.432 78.854 144.319 78.64 144.2 78.4282C144.074 78.2041 144.154 77.9206 144.378 77.7949ZM88.119 77.2645C88.3326 77.1216 88.6217 77.1787 88.7648 77.392C88.9078 77.6055 88.8507 77.8945 88.6372 78.0375C88.1568 78.3591 87.6796 78.6856 87.2057 79.0161C86.9949 79.163 86.7049 79.1113 86.5578 78.9007C86.4107 78.69 86.4622 78.3999 86.673 78.2528C87.1515 77.919 87.6336 77.5895 88.119 77.2645ZM138.235 75.682C138.398 75.4834 138.692 75.4547 138.89 75.6178C139.089 75.7808 139.118 76.074 138.955 76.2726C138.809 76.4495 138.663 76.629 138.517 76.8111C138.384 76.9774 138.231 77.1762 138.064 77.4038C137.912 77.611 137.621 77.6558 137.413 77.5038C137.206 77.3518 137.161 77.0606 137.313 76.8535C137.487 76.6167 137.648 76.4071 137.791 76.229C137.94 76.0438 138.088 75.8615 138.235 75.682ZM141.762 74.3726C141.955 74.2026 142.249 74.2207 142.419 74.4132C142.612 74.6316 142.801 74.8527 142.986 75.0762C143.068 75.1743 143.148 75.273 143.228 75.3724L143.466 75.6726L143.493 75.7117C143.619 75.9114 143.575 76.1777 143.384 76.3256C143.194 76.4734 142.925 76.4506 142.763 76.2802L142.731 76.2441L142.503 75.9555C142.426 75.8598 142.348 75.7645 142.27 75.6699C142.18 75.5618 142.089 75.4544 141.998 75.3476L141.721 75.0293L141.692 74.992C141.554 74.8004 141.581 74.5321 141.762 74.3726ZM92.1615 74.7216C92.3834 74.5919 92.6684 74.6667 92.7981 74.8884C92.9279 75.1103 92.8531 75.3951 92.6312 75.5248C92.5255 75.5865 92.4203 75.6487 92.3151 75.7111L92.0003 75.8991C91.7529 76.0481 91.5062 76.1982 91.2606 76.3498C91.0418 76.4848 90.755 76.417 90.6199 76.1984C90.485 75.9798 90.5528 75.6931 90.7715 75.5581C91.02 75.4047 91.2696 75.2527 91.52 75.102C91.7329 74.9738 91.9467 74.847 92.1615 74.7216ZM140.786 72.6971C140.955 72.5027 141.248 72.4812 141.443 72.6493C141.637 72.8172 141.659 73.1109 141.491 73.3053C141.193 73.6492 140.884 74.0041 140.575 74.3611L140.542 74.3957C140.37 74.5574 140.101 74.5663 139.918 74.4087C139.724 74.2405 139.703 73.9466 139.871 73.7523C140.185 73.3902 140.487 73.0431 140.786 72.6971ZM95.8778 72.7216C96.0985 72.6382 96.3509 72.7338 96.4585 72.9494C96.5732 73.1793 96.4799 73.4586 96.25 73.5733L95.5939 73.9047C95.376 74.0163 95.1588 74.1293 94.9424 74.2433C94.715 74.3631 94.4334 74.2759 94.3136 74.0486C94.1938 73.8213 94.281 73.5399 94.5084 73.4201C94.9476 73.1888 95.3897 72.9624 95.8342 72.7407L95.8778 72.7216ZM138.241 71.1885C138.387 70.9972 138.653 70.9513 138.854 71.0749L138.893 71.1018L139.219 71.3557C139.326 71.4413 139.433 71.5279 139.539 71.6155C139.651 71.7086 139.763 71.8025 139.873 71.8975L140.203 72.1852L140.236 72.2186C140.396 72.3923 140.401 72.662 140.241 72.8419C140.07 73.0338 139.775 73.0509 139.583 72.88C139.374 72.6937 139.161 72.511 138.945 72.3321C138.743 72.1647 138.537 72.0008 138.327 71.8406C138.123 71.6844 138.085 71.3925 138.241 71.1885ZM99.6345 70.9722C99.869 70.8669 100.145 70.9717 100.25 71.206C100.355 71.4404 100.25 71.7156 100.016 71.8209L99.3106 72.1359C99.0864 72.2351 98.8626 72.3353 98.6394 72.4366C98.4053 72.5428 98.1296 72.4394 98.0233 72.2055C97.917 71.9716 98.0205 71.6957 98.2545 71.5895C98.4804 71.4869 98.7068 71.3855 98.9336 71.2851C99.1669 71.1818 99.4004 71.0773 99.6345 70.9722ZM143.22 69.6877C143.369 69.4786 143.66 69.4302 143.869 69.5796C144.078 69.7289 144.127 70.0193 143.977 70.2283C143.705 70.6089 143.418 70.986 143.119 71.3626C142.959 71.5637 142.666 71.5971 142.464 71.4371C142.263 71.2772 142.23 70.9846 142.39 70.7835C142.682 70.4167 142.959 70.0526 143.22 69.6877ZM102.542 70.7024C102.306 70.8028 102.032 70.6925 101.932 70.4561C101.831 70.2197 101.942 69.9466 102.178 69.8461L102.542 70.7024ZM103.622 69.2619C103.862 69.1704 104.131 69.2908 104.223 69.5308C104.314 69.7709 104.194 70.0396 103.954 70.1311C103.481 70.3112 103.011 70.5032 102.542 70.7024L102.178 69.8461C102.655 69.6436 103.136 69.4471 103.622 69.2619ZM134.37 68.8914C134.477 68.6758 134.73 68.5798 134.95 68.6631L134.994 68.6822L135.355 68.8654C135.474 68.9275 135.593 68.9907 135.712 69.0547C135.953 69.1849 136.192 69.319 136.429 69.4569C136.651 69.5863 136.726 69.871 136.596 70.093C136.467 70.315 136.182 70.3901 135.96 70.2608C135.732 70.1279 135.501 69.9987 135.269 69.8731C135.155 69.8116 135.041 69.751 134.926 69.6913L134.579 69.5151L134.538 69.4917C134.338 69.3659 134.263 69.1071 134.37 68.8914ZM107.77 68.0746C108.022 68.0221 108.268 68.1836 108.321 68.435C108.373 68.6865 108.212 68.9332 107.96 68.9856L107.271 69.1292C107.026 69.1802 106.782 69.237 106.54 69.2985C106.291 69.3617 106.038 69.211 105.974 68.962C105.911 68.713 106.062 68.4598 106.311 68.3965C106.566 68.3319 106.822 68.2723 107.081 68.2184C107.314 68.1698 107.544 68.1218 107.77 68.0746ZM111.633 67.2889C111.885 67.2401 112.13 67.405 112.179 67.6572C112.227 67.9094 112.062 68.1535 111.81 68.2024C111.361 68.2892 110.904 68.3801 110.435 68.475L110.388 68.4823C110.153 68.5054 109.935 68.3475 109.887 68.1115C109.836 67.8597 109.998 67.614 110.25 67.563C110.721 67.4677 111.181 67.3763 111.633 67.2889ZM130.201 67.4122C130.261 67.1789 130.487 67.0324 130.721 67.0675L130.768 67.0772L130.976 67.1314C131.179 67.1859 131.37 67.2405 131.544 67.2947C131.802 67.3748 132.059 67.4595 132.313 67.5488C132.556 67.6338 132.683 67.8994 132.598 68.1418C132.513 68.3843 132.248 68.5119 132.005 68.4268C131.883 68.384 131.76 68.3423 131.638 68.3017L131.268 68.1833C131.161 68.15 131.046 68.1164 130.924 68.0821L130.536 67.9783L130.491 67.9643C130.27 67.883 130.141 67.6455 130.201 67.4122ZM145.327 68.0243C145.212 68.2538 144.932 68.3464 144.703 68.2312C144.473 68.1158 144.38 67.8362 144.496 67.6066L145.327 68.0243ZM145.029 66.3748C145.117 66.1334 145.384 66.0086 145.626 66.0965C145.867 66.1843 145.992 66.4514 145.904 66.6928C145.737 67.1513 145.544 67.5938 145.327 68.0243L144.496 67.6066C144.697 67.206 144.876 66.7968 145.029 66.3748ZM115.533 66.6174C115.788 66.5804 116.024 66.7566 116.061 67.0109C116.098 67.2651 115.922 67.5011 115.668 67.5382C115.207 67.6053 114.748 67.6773 114.288 67.7538C114.035 67.796 113.795 67.6244 113.753 67.371C113.711 67.1176 113.882 66.878 114.135 66.8358C114.601 66.7583 115.066 66.6855 115.533 66.6174ZM126.398 66.2497C126.919 66.3212 127.448 66.4034 127.965 66.4926C128.219 66.5363 128.389 66.7771 128.345 67.0302C128.301 67.2834 128.06 67.4531 127.807 67.4095C127.3 67.322 126.781 67.2414 126.272 67.1714C126.017 67.1364 125.839 66.9019 125.874 66.6474C125.909 66.3929 126.144 66.2148 126.398 66.2497ZM119.473 66.1701C119.729 66.1491 119.954 66.3398 119.975 66.5959C119.996 66.852 119.805 67.0765 119.549 67.0975L118.846 67.159C118.615 67.1805 118.386 67.2029 118.16 67.2265C117.904 67.2531 117.675 67.0674 117.649 66.8119C117.622 66.5564 117.808 66.3279 118.063 66.3012C118.523 66.2533 118.992 66.2095 119.473 66.1701ZM122.721 65.9784C122.97 65.9688 123.245 65.9698 123.539 65.9799C123.795 65.9887 123.996 66.2041 123.988 66.4608C123.979 66.7176 123.763 66.9188 123.506 66.91C123.229 66.9005 122.978 66.8994 122.757 66.9079L122.058 66.9379L122.01 66.9376C121.774 66.9247 121.582 66.7356 121.571 66.4951C121.559 66.2384 121.757 66.0204 122.014 66.0083L122.721 65.9784ZM146.151 62.2354C146.408 62.2382 146.614 62.4489 146.611 62.7057C146.606 63.2059 146.573 63.6864 146.515 64.1502C146.484 64.4051 146.251 64.5862 145.996 64.5545C145.741 64.5228 145.56 64.2903 145.592 64.0354L145.61 63.874C145.652 63.4956 145.676 63.1034 145.68 62.6954C145.683 62.4386 145.894 62.2326 146.151 62.2354ZM145.516 58.2347C145.749 58.1724 145.987 58.298 146.071 58.5184L146.086 58.5639L146.168 58.8743C146.241 59.1569 146.287 59.3519 146.3 59.4168L146.363 59.773L146.42 60.1231L146.424 60.1707C146.436 60.4061 146.267 60.6165 146.029 60.6525C145.774 60.6909 145.537 60.5161 145.499 60.2621C145.482 60.152 145.464 60.0409 145.445 59.9287L145.385 59.5882C145.385 59.5882 145.384 59.5864 145.383 59.5825C145.383 59.5787 145.382 59.5737 145.38 59.5673C145.377 59.5545 145.374 59.5376 145.369 59.5167C145.359 59.4749 145.345 59.4192 145.328 59.3508C145.294 59.214 145.247 59.0284 145.187 58.8044C145.12 58.5562 145.268 58.3011 145.516 58.2347ZM144.615 54.0143C144.772 54.413 144.922 54.8206 145.062 55.2237L145.2 55.6247L145.213 55.6708C145.265 55.9006 145.136 56.1372 144.907 56.2141C144.679 56.2911 144.432 56.1809 144.335 55.9661L144.318 55.9219L144.183 55.5299C144.046 55.1366 143.9 54.7407 143.749 54.3551L144.615 54.0143ZM144.011 53.752C144.251 53.658 144.521 53.7753 144.615 54.0143L143.749 54.3551C143.655 54.1161 143.772 53.8461 144.011 53.752ZM141.187 49.9185C141.349 49.7402 141.618 49.7164 141.808 49.8564L141.844 49.8867L142.033 50.0563C142.217 50.2197 142.386 50.3638 142.541 50.4855L142.629 50.5582C142.831 50.7341 143.021 50.9553 143.197 51.2003C143.347 51.4089 143.299 51.6997 143.091 51.8497C142.895 51.9903 142.627 51.9573 142.471 51.7806L142.441 51.7437L142.377 51.6567C142.25 51.4891 142.13 51.3579 142.02 51.2618L141.965 51.2166C141.791 51.0797 141.607 50.9222 141.414 50.7511L141.219 50.5758L141.185 50.5421C141.027 50.3669 141.025 50.0969 141.187 49.9185ZM139.268 47.5903C139.468 47.7518 139.499 48.0447 139.337 48.2445C139.175 48.4442 138.882 48.4753 138.683 48.3139L139.268 47.5903ZM137.041 46.5875C137.178 46.3704 137.466 46.3056 137.683 46.443C138.243 46.7977 138.773 47.1905 139.268 47.5903L138.683 48.3139C138.267 47.9782 137.832 47.6527 137.38 47.3549L137.185 47.2293L137.146 47.2017C136.96 47.0561 136.912 46.7909 137.041 46.5875ZM133.486 44.9683C133.701 44.979 133.913 45.0001 134.123 45.0307L134.373 45.0718L134.419 45.0827C134.646 45.1484 134.79 45.3761 134.747 45.6131C134.704 45.85 134.488 46.0119 134.253 45.9932L134.206 45.9871L133.989 45.9514C133.843 45.9303 133.697 45.9144 133.55 45.9042L133.329 45.893L133.282 45.8893C133.048 45.8583 132.871 45.6546 132.878 45.4138C132.886 45.157 133.101 44.9553 133.358 44.9631L133.486 44.9683Z" fill="#DFE3E8"/>
<path d="M121.805 108.033H47.125V113.299H121.805V108.033Z" fill="white"/>
<path opacity="0.397871" fill-rule="evenodd" clip-rule="evenodd" d="M50.8506 108.043C51.3439 111.14 66.5705 113.626 85.2821 113.626C103.993 113.626 119.22 111.14 119.713 108.043H50.8506Z" fill="#EFEFEF"/>
<path d="M47.123 108.601H121.821V107.59H47.123V108.601Z" fill="#DFE3E8"/>
<path fill-rule="evenodd" clip-rule="evenodd" d="M77.9746 81.1543H116.495C117.426 81.1543 118.18 81.9086 118.18 82.8394V108.658C118.18 109.589 117.426 110.343 116.495 110.343H77.9746C77.0437 110.343 76.2891 109.589 76.2891 108.658V82.8394C76.2891 81.9086 77.0437 81.1543 77.9746 81.1543Z" fill="#E6EBEF"/>
<mask id="mask0_2274_15069" style="mask-type:luminance" maskUnits="userSpaceOnUse" x="76" y="81" width="43" height="30">
<path fill-rule="evenodd" clip-rule="evenodd" d="M77.9746 81.1543H116.495C117.426 81.1543 118.18 81.9086 118.18 82.8394V108.658C118.18 109.589 117.426 110.343 116.495 110.343H77.9746C77.0437 110.343 76.2891 109.589 76.2891 108.658V82.8394C76.2891 81.9086 77.0437 81.1543 77.9746 81.1543Z" fill="white"/>
</mask>
<g mask="url(#mask0_2274_15069)">
<path fill-rule="evenodd" clip-rule="evenodd" d="M115.943 76.4691L85.3821 115.627H71.5502L68.5117 67.3242L115.943 76.4691Z" fill="#EFF3F6"/>
</g>
<path fill-rule="evenodd" clip-rule="evenodd" d="M102.365 96.7457L97.4396 100.258V101.717C97.4396 101.825 97.3192 101.887 97.232 101.825L92.5135 98.4605L92.5079 98.4565C92.4592 98.4217 92.4307 98.3656 92.4307 98.3057V98.3042V94.8832V94.8819C92.4307 94.8221 92.4595 94.7656 92.5082 94.7312L92.5135 94.7272L97.4396 91.2144V89.7557C97.4396 89.6481 97.5597 89.5854 97.6469 89.6478L102.365 93.0123L102.371 93.0164C102.42 93.0508 102.449 93.1072 102.449 93.1668V93.1687V96.5893V96.5909C102.449 96.6508 102.419 96.7072 102.371 96.7416L102.365 96.7457Z" fill="#F9F9F9"/>
<path d="M97.4392 100.258L97.1686 99.8792C97.0464 99.9667 96.9738 100.108 96.9738 100.258H97.4392ZM102.365 96.7454L102.635 97.1241C102.637 97.1226 102.639 97.1213 102.641 97.1198L102.365 96.7454ZM97.2316 101.825L97.5022 101.446L97.5019 101.446L97.2316 101.825ZM92.5132 98.4603L92.2401 98.8371L92.2429 98.839L92.5132 98.4603ZM92.5076 98.4562L92.7806 98.0794L92.7782 98.0775L92.5076 98.4562ZM92.5079 94.731L92.7778 95.11C92.78 95.1084 92.7822 95.1069 92.7844 95.105L92.5079 94.731ZM92.5132 94.7269L92.2429 94.3482C92.2407 94.3495 92.2388 94.351 92.2367 94.3526L92.5132 94.7269ZM97.4392 91.2141L97.7095 91.5928C97.8318 91.5057 97.9047 91.3646 97.9047 91.2141H97.4392ZM97.6465 89.6475L97.3759 90.0259L97.3762 90.0262L97.6465 89.6475ZM102.365 93.0121L102.638 92.6353L102.635 92.6334L102.365 93.0121ZM102.371 93.0161L102.098 93.393L102.101 93.3954L102.371 93.0161ZM102.37 96.7414L102.1 96.3624C102.098 96.3639 102.096 96.3655 102.094 96.367L102.37 96.7414ZM97.7095 100.637L102.635 97.1241L102.095 96.3667L97.1686 99.8792L97.7095 100.637ZM97.9047 101.717V100.258H96.9738V101.717H97.9047ZM96.9611 102.204C97.3613 102.489 97.9047 102.196 97.9047 101.717H96.9738C96.9738 101.452 97.276 101.285 97.5022 101.446L96.9611 102.204ZM92.2429 98.839L96.9611 102.204L97.5019 101.446L92.7834 98.0816L92.2429 98.839ZM92.2345 98.8327L92.2401 98.8371L92.7862 98.0834L92.7806 98.0794L92.2345 98.8327ZM91.9648 98.3055C91.9648 98.5152 92.0657 98.7124 92.237 98.8349L92.7782 98.0775C92.8523 98.1306 92.8958 98.2159 92.8958 98.3055H91.9648ZM91.9648 98.3039V98.3055H92.8958V98.3039H91.9648ZM91.9648 94.8829V98.3039H92.8958V94.8829H91.9648ZM91.9648 94.8817V94.8829H92.8958V94.8817H91.9648ZM92.2379 94.3516C92.066 94.4742 91.9648 94.6717 91.9648 94.8817H92.8958C92.8958 94.9716 92.8523 95.0569 92.7778 95.11L92.2379 94.3516ZM92.2367 94.3526L92.2314 94.3566L92.7844 95.105L92.7896 95.1013L92.2367 94.3526ZM97.1686 90.8354L92.2429 94.3482L92.7834 95.1056L97.7095 91.5928L97.1686 90.8354ZM96.9738 89.7555V91.2141H97.9047V89.7555H96.9738ZM97.9171 89.2688C97.5168 88.9832 96.9738 89.276 96.9738 89.7555H97.9047C97.9047 90.02 97.6021 90.1875 97.3759 90.0259L97.9171 89.2688ZM102.635 92.6334L97.9168 89.2688L97.3762 90.0262L102.095 93.3908L102.635 92.6334ZM102.644 92.6396L102.638 92.6353L102.092 93.3889L102.098 93.393L102.644 92.6396ZM102.914 93.1665C102.914 92.9578 102.813 92.7596 102.64 92.6368L102.101 93.3954C102.026 93.3418 101.983 93.2559 101.983 93.1665H102.914ZM102.914 93.1684V93.1665H101.983V93.1684H102.914ZM102.914 96.5891V93.1684H101.983V96.5891H102.914ZM102.914 96.5906V96.5891H101.983V96.5906H102.914ZM102.64 97.1207C102.812 96.9982 102.914 96.8003 102.914 96.5906H101.983C101.983 96.5007 102.026 96.4154 102.1 96.3624L102.64 97.1207ZM102.641 97.1198L102.647 97.1157L102.094 96.367L102.089 96.3711L102.641 97.1198Z" fill="#DFE3E8"/>
<path fill-rule="evenodd" clip-rule="evenodd" d="M116.916 81.1543H77.9746C77.0437 81.1543 76.2891 81.9086 76.2891 82.8394V108.658C76.2891 109.589 77.0437 110.343 77.9746 110.343H116.916C117.847 110.343 118.602 109.589 118.602 108.658V82.8394C118.602 81.9086 117.847 81.1543 116.916 81.1543ZM77.3003 82.8394C77.3003 82.4672 77.6023 82.1654 77.9746 82.1654H116.916C117.289 82.1654 117.591 82.4672 117.591 82.8394V108.658C117.591 109.03 117.289 109.332 116.916 109.332H77.9746C77.6023 109.332 77.3003 109.03 77.3003 108.658V82.8394Z" fill="#DFE3E8"/>
<path d="M128.869 44.4111C128.142 43.9573 127.185 44.1782 126.731 44.9045C126.277 45.6308 126.498 46.5875 127.225 47.0414C127.951 47.4952 128.908 47.2744 129.362 46.548C129.817 45.8217 129.596 44.865 128.869 44.4111ZM129.362 43.6221C130.525 44.3482 130.878 45.879 130.152 47.0411C129.425 48.2032 127.894 48.5566 126.731 47.8305C125.569 47.1043 125.215 45.5735 125.941 44.4114C126.668 43.2493 128.2 42.8959 129.362 43.6221Z" fill="#DFE3E8"/>
<path d="M126.927 40.7881C127.193 40.3618 127.741 40.2333 128.147 40.487H128.148L132.977 43.5034H132.977C133.384 43.7572 133.509 44.3062 133.242 44.7328L133.242 44.7325L132.883 45.3065C132.617 45.7328 132.069 45.8615 131.662 45.6079L131.662 45.6076L126.832 42.5911C126.425 42.337 126.301 41.7882 126.568 41.362L126.927 40.7881ZM127.372 41.8312L132.109 44.7895L132.437 44.2634L127.701 41.3051L127.372 41.8312Z" fill="#DFE3E8"/>
<path d="M127.227 38.0186C127.545 37.9783 127.838 38.1873 127.909 38.4936L127.92 38.5563L128.184 40.6413C128.227 40.9812 127.987 41.2915 127.647 41.3346C127.307 41.3777 126.996 41.1372 126.953 40.7973L126.689 38.7119L126.684 38.6486C126.676 38.3344 126.908 38.059 127.227 38.0186Z" fill="#DFE3E8"/>
<path d="M126.476 41.1797C126.799 41.0663 127.153 41.2363 127.267 41.5595C127.38 41.8828 127.21 42.2366 126.887 42.3501L125.012 43.0079C124.688 43.1213 124.334 42.9512 124.221 42.6281C124.107 42.3048 124.277 41.9507 124.601 41.8373L126.476 41.1797Z" fill="#DFE3E8"/>
<path d="M132.303 39.1026C131.577 38.6487 130.62 38.8696 130.166 39.5959C129.711 40.3222 129.932 41.2789 130.659 41.7328C131.386 42.1867 132.343 41.9658 132.797 41.2394C133.251 40.5131 133.03 39.5564 132.303 39.1026ZM132.797 38.3135C133.959 39.0396 134.313 40.5704 133.587 41.7325C132.86 42.8946 131.328 43.248 130.166 42.5219C129.003 41.7957 128.65 40.265 129.376 39.1028C130.103 37.9407 131.634 37.5873 132.797 38.3135Z" fill="#DFE3E8"/>
</g>
<path d="M147.279 43.32V41.15H155.339V43.32H152.487V52H150.147V43.32H147.279ZM158.918 52H156.655V44.343H158.918V52ZM159.104 42.1265C159.104 42.8395 158.515 43.444 157.786 43.444C157.058 43.444 156.469 42.8395 156.469 42.1265C156.469 41.4135 157.058 40.809 157.786 40.809C158.515 40.809 159.104 41.4135 159.104 42.1265ZM161.392 46.203H159.997V45.9085L163.578 42.173H163.64V44.343H165.577V46.203H163.64V49.0085C163.64 49.83 163.996 50.1555 164.709 50.1555C165.019 50.1555 165.345 50.047 165.577 49.8765V51.8605C165.221 52.0465 164.663 52.186 163.95 52.186C162.322 52.186 161.392 51.256 161.392 49.551V46.203ZM167.002 41.15H169.265V52H167.002V41.15ZM178.033 49.4425V51.4885C177.289 51.9225 176.297 52.2015 175.088 52.2015C172.468 52.2015 170.856 50.512 170.856 48.1405C170.856 45.8465 172.468 44.1415 174.747 44.1415C177.087 44.1415 178.498 45.7535 178.498 48.125C178.498 48.3575 178.467 48.621 178.451 48.807H173.088C173.259 49.6905 174.049 50.3105 175.336 50.3105C176.25 50.3105 177.118 50.047 178.033 49.4425ZM173.057 47.319H176.328C176.25 46.4665 175.615 45.893 174.731 45.893C173.848 45.893 173.166 46.544 173.057 47.319ZM183.791 52V41.15H190.177V43.258H186.116V45.459H189.821V47.505H186.116V49.892H190.208V52H183.791ZM196.849 52L195.237 49.706L193.64 52H191.129L193.966 48.125L191.253 44.343H193.842L195.299 46.482L196.802 44.343H199.313L196.601 48.063L199.422 52H196.849ZM202.876 55.224H200.629V44.343H202.876V45.366C203.419 44.5755 204.349 44.157 205.356 44.157C207.418 44.157 208.983 45.893 208.983 48.1715C208.983 50.4345 207.418 52.186 205.356 52.186C204.349 52.186 203.419 51.814 202.876 51.008V55.224ZM206.736 48.1715C206.736 47.071 205.868 46.1875 204.767 46.1875C203.667 46.1875 202.799 47.071 202.799 48.1715C202.799 49.272 203.667 50.1555 204.767 50.1555C205.868 50.1555 206.736 49.272 206.736 48.1715ZM210.563 41.15H212.826V52H210.563V41.15ZM221.315 52H219.222L219.191 51.039C218.742 51.8295 217.858 52.2015 216.944 52.2015C215.518 52.2015 214.541 51.3025 214.541 49.954C214.541 48.5435 215.487 47.6755 217.393 47.3965L219.129 47.1485V47.0555C219.129 46.42 218.618 46.048 217.579 46.048C216.587 46.048 215.704 46.4355 215.006 47.071V44.9165C215.673 44.467 216.634 44.1415 217.812 44.1415C220.028 44.1415 221.315 45.211 221.315 47.195V52ZM216.68 49.768C216.696 50.202 217.052 50.481 217.564 50.481C218.509 50.481 219.129 49.799 219.129 48.931V48.6675L217.781 48.8845C217.052 48.993 216.68 49.3185 216.68 49.768ZM225.55 52H223.287V44.343H225.55V52ZM225.736 42.1265C225.736 42.8395 225.147 43.444 224.419 43.444C223.69 43.444 223.101 42.8395 223.101 42.1265C223.101 41.4135 223.69 40.809 224.419 40.809C225.147 40.809 225.736 41.4135 225.736 42.1265ZM229.854 47.939V52H227.591V44.343H229.854V45.3195C230.319 44.5755 231.094 44.1415 232.117 44.1415C233.868 44.1415 234.938 45.335 234.938 47.2725V52H232.675V47.7995C232.675 46.792 232.179 46.2185 231.295 46.2185C230.427 46.2185 229.854 46.8695 229.854 47.939ZM236.595 51.504V49.148C237.416 49.8145 238.501 50.295 239.509 50.295C240.16 50.295 240.501 50.109 240.501 49.706C240.501 48.528 236.502 49.6285 236.502 46.8075C236.502 45.242 237.68 44.1415 239.741 44.1415C240.702 44.1415 241.648 44.4205 242.361 44.777V47.0865C241.601 46.389 240.625 46.0015 239.664 46.0015C238.92 46.0015 238.672 46.265 238.672 46.575C238.672 47.629 242.733 46.668 242.733 49.5355C242.733 51.256 241.307 52.2015 239.524 52.2015C238.3 52.2015 237.339 51.9225 236.595 51.504Z" fill="#242B42"/>
<path d="M148.26 75V65.2H151.312C153.118 65.2 154.364 66.18 154.364 67.79C154.364 68.714 153.958 69.428 153.188 69.792C154.322 70.17 154.952 71.038 154.952 72.214C154.952 73.964 153.636 75 151.606 75H148.26ZM149.506 73.894H151.592C152.866 73.894 153.692 73.264 153.692 72.172C153.692 71.122 152.838 70.464 151.564 70.464H149.506V73.894ZM149.506 69.386H151.298C152.39 69.386 153.132 68.812 153.132 67.846C153.132 66.866 152.39 66.306 151.284 66.306H149.506V69.386ZM159.972 68.042C162.016 68.042 163.528 69.624 163.528 71.598C163.528 73.572 162.016 75.154 159.972 75.154C157.928 75.154 156.416 73.572 156.416 71.598C156.416 69.624 157.928 68.042 159.972 68.042ZM159.972 69.148C158.642 69.148 157.634 70.24 157.634 71.598C157.634 72.956 158.642 74.048 159.972 74.048C161.302 74.048 162.31 72.956 162.31 71.598C162.31 70.24 161.302 69.148 159.972 69.148ZM170.726 65.2H171.916V75H170.726V73.922C170.236 74.664 169.312 75.154 168.318 75.154C166.386 75.154 164.902 73.614 164.902 71.598C164.902 69.596 166.386 68.042 168.318 68.042C169.312 68.042 170.222 68.476 170.726 69.218V65.2ZM170.796 71.598C170.796 70.226 169.788 69.148 168.458 69.148C167.128 69.148 166.12 70.226 166.12 71.598C166.12 72.97 167.128 74.048 168.458 74.048C169.788 74.048 170.796 72.97 170.796 71.598ZM180.016 68.196L176.74 76.036C176.124 77.506 175.522 78.08 174.5 78.08C174.206 78.08 173.954 78.024 173.758 77.94V76.876C173.912 76.932 174.15 76.988 174.402 76.988C174.948 76.988 175.27 76.666 175.634 75.798L176.04 74.818L173.338 68.196H174.626L176.67 73.446L178.77 68.196H180.016ZM184.005 69.12L186.343 66.6H186.385V68.196H188.289V69.274H186.385V72.872C186.385 73.67 186.735 74.034 187.519 74.034C187.785 74.034 188.079 73.964 188.289 73.824V74.944C188.051 75.07 187.701 75.154 187.239 75.154C185.951 75.154 185.181 74.356 185.181 73.04V69.274H184.005V69.12ZM195.585 72.984V74.286C194.829 74.832 193.905 75.154 192.953 75.154C190.783 75.154 189.383 73.6 189.383 71.598C189.383 69.568 190.783 68.042 192.743 68.042C194.647 68.042 195.949 69.61 195.949 71.542C195.949 71.808 195.921 71.976 195.921 71.976H190.587C190.685 73.11 191.623 74.062 193.037 74.062C193.905 74.062 194.745 73.712 195.585 72.984ZM190.615 70.982H194.731C194.633 69.904 193.835 69.092 192.715 69.092C191.581 69.092 190.699 70.058 190.615 70.982ZM201.589 75L199.727 72.368L197.851 75H196.493L199.027 71.528L196.605 68.196H198.005L199.755 70.66L201.519 68.196H202.891L200.469 71.5L203.003 75H201.589ZM203.514 69.12L205.852 66.6H205.894V68.196H207.798V69.274H205.894V72.872C205.894 73.67 206.244 74.034 207.028 74.034C207.294 74.034 207.588 73.964 207.798 73.824V74.944C207.56 75.07 207.21 75.154 206.748 75.154C205.46 75.154 204.69 74.356 204.69 73.04V69.274H203.514V69.12ZM212.667 70.548C212.667 69.064 213.885 68.042 215.299 68.042C215.621 68.042 215.928 68.098 216.223 68.196H218.561V69.232H217.553C217.791 69.61 217.931 70.058 217.931 70.548C217.931 72.046 216.713 73.04 215.299 73.04C214.879 73.04 214.487 72.956 214.123 72.802C213.66 72.942 213.521 73.208 213.521 73.46C213.521 73.866 213.885 74.02 214.431 74.02H216.321C217.777 74.02 218.701 74.636 218.701 75.756C218.701 77.338 217.021 78.08 215.187 78.08C213.437 78.08 212.149 77.52 212.149 76.162C212.149 75.518 212.583 75 213.017 74.72C212.639 74.454 212.471 74.062 212.471 73.628C212.471 72.872 212.933 72.508 213.339 72.256C212.919 71.836 212.667 71.248 212.667 70.548ZM217.581 75.868C217.581 75.28 217.063 75.084 216.041 75.084H214.361C214.193 75.084 214.053 75.07 213.913 75.056C213.493 75.28 213.255 75.616 213.255 76.022C213.255 76.806 214.123 77.128 215.215 77.128C216.587 77.128 217.581 76.68 217.581 75.868ZM213.773 70.548C213.773 71.444 214.445 72.046 215.299 72.046C216.153 72.046 216.825 71.444 216.825 70.548C216.825 69.68 216.153 69.05 215.299 69.05C214.445 69.05 213.773 69.68 213.773 70.548ZM223.076 68.042C225.12 68.042 226.632 69.624 226.632 71.598C226.632 73.572 225.12 75.154 223.076 75.154C221.032 75.154 219.52 73.572 219.52 71.598C219.52 69.624 221.032 68.042 223.076 68.042ZM223.076 69.148C221.746 69.148 220.738 70.24 220.738 71.598C220.738 72.956 221.746 74.048 223.076 74.048C224.406 74.048 225.414 72.956 225.414 71.598C225.414 70.24 224.406 69.148 223.076 69.148ZM234.207 72.984V74.286C233.451 74.832 232.527 75.154 231.575 75.154C229.405 75.154 228.005 73.6 228.005 71.598C228.005 69.568 229.405 68.042 231.365 68.042C233.269 68.042 234.571 69.61 234.571 71.542C234.571 71.808 234.543 71.976 234.543 71.976H229.209C229.307 73.11 230.245 74.062 231.659 74.062C232.527 74.062 233.367 73.712 234.207 72.984ZM229.237 70.982H233.353C233.255 69.904 232.457 69.092 231.337 69.092C230.203 69.092 229.321 70.058 229.237 70.982ZM235.904 74.454V73.124C236.52 73.684 237.318 74.076 238.144 74.076C238.83 74.076 239.46 73.838 239.46 73.138C239.46 72.438 238.802 72.2 237.948 72.018C236.968 71.808 235.89 71.416 235.89 70.1C235.89 68.728 237.052 68.042 238.27 68.042C238.998 68.042 239.726 68.266 240.328 68.672V69.946C239.726 69.456 239.026 69.106 238.298 69.106C237.724 69.106 237.066 69.33 237.066 69.96C237.066 70.576 237.654 70.842 238.438 71.038C239.698 71.346 240.65 71.808 240.65 73.04C240.65 74.426 239.488 75.154 238.13 75.154C237.388 75.154 236.548 74.93 235.904 74.454ZM247.218 66.18C247.218 66.628 246.854 66.992 246.406 66.992C245.958 66.992 245.594 66.628 245.594 66.18C245.594 65.732 245.958 65.368 246.406 65.368C246.854 65.368 247.218 65.732 247.218 66.18ZM245.804 68.196H247.008V75H245.804V68.196ZM250.503 71.444V75H249.299V68.196H250.503V69.176C250.923 68.504 251.651 68.042 252.673 68.042C254.409 68.042 255.417 69.204 255.417 71.01V75H254.213V71.15C254.213 69.932 253.583 69.162 252.421 69.162C251.259 69.162 250.503 70.058 250.503 71.444ZM256.628 69.12L258.966 66.6H259.008V68.196H260.912V69.274H259.008V72.872C259.008 73.67 259.358 74.034 260.142 74.034C260.408 74.034 260.702 73.964 260.912 73.824V74.944C260.674 75.07 260.324 75.154 259.862 75.154C258.574 75.154 257.804 74.356 257.804 73.04V69.274H256.628V69.12ZM265.563 68.042C267.607 68.042 269.119 69.624 269.119 71.598C269.119 73.572 267.607 75.154 265.563 75.154C263.519 75.154 262.007 73.572 262.007 71.598C262.007 69.624 263.519 68.042 265.563 68.042ZM265.563 69.148C264.233 69.148 263.225 70.24 263.225 71.598C263.225 72.956 264.233 74.048 265.563 74.048C266.893 74.048 267.901 72.956 267.901 71.598C267.901 70.24 266.893 69.148 265.563 69.148ZM279.729 65.2H280.919V75H279.729V73.922C279.239 74.664 278.315 75.154 277.321 75.154C275.389 75.154 273.905 73.614 273.905 71.598C273.905 69.596 275.389 68.042 277.321 68.042C278.315 68.042 279.225 68.476 279.729 69.218V65.2ZM279.799 71.598C279.799 70.226 278.791 69.148 277.461 69.148C276.131 69.148 275.123 70.226 275.123 71.598C275.123 72.97 276.131 74.048 277.461 74.048C278.791 74.048 279.799 72.97 279.799 71.598ZM288.921 72.984V74.286C288.165 74.832 287.241 75.154 286.289 75.154C284.119 75.154 282.719 73.6 282.719 71.598C282.719 69.568 284.119 68.042 286.079 68.042C287.983 68.042 289.285 69.61 289.285 71.542C289.285 71.808 289.257 71.976 289.257 71.976H283.923C284.021 73.11 284.959 74.062 286.373 74.062C287.241 74.062 288.081 73.712 288.921 72.984ZM283.951 70.982H288.067C287.969 69.904 287.171 69.092 286.051 69.092C284.917 69.092 284.035 70.058 283.951 70.982ZM289.978 69.12L292.316 66.6H292.358V68.196H294.262V69.274H292.358V72.872C292.358 73.67 292.708 74.034 293.492 74.034C293.758 74.034 294.052 73.964 294.262 73.824V74.944C294.024 75.07 293.674 75.154 293.212 75.154C291.924 75.154 291.154 74.356 291.154 73.04V69.274H289.978V69.12ZM299.835 70.674V70.506C299.835 69.652 299.233 69.134 298.225 69.134C297.301 69.134 296.615 69.512 295.915 70.156V68.896C296.531 68.392 297.273 68.042 298.253 68.042C300.003 68.042 301.011 69.008 301.011 70.59V75H299.877V74.104C299.345 74.79 298.519 75.154 297.623 75.154C296.419 75.154 295.565 74.328 295.565 73.208C295.565 71.99 296.335 71.262 297.833 71.01L299.835 70.674ZM296.769 73.138C296.769 73.712 297.217 74.09 297.847 74.09C299.009 74.09 299.849 73.334 299.849 72.284V71.71L298.029 72.032C297.217 72.186 296.769 72.55 296.769 73.138ZM304.597 66.18C304.597 66.628 304.233 66.992 303.785 66.992C303.337 66.992 302.973 66.628 302.973 66.18C302.973 65.732 303.337 65.368 303.785 65.368C304.233 65.368 304.597 65.732 304.597 66.18ZM303.183 68.196H304.387V75H303.183V68.196ZM306.679 65.2H307.883V75H306.679V65.2ZM155.274 94H154.35L152.558 88.96L150.766 94H149.842L147.308 87.196H148.554L150.332 92.292L152.138 87.196H153.006L154.812 92.292L156.59 87.196H157.808L155.274 94ZM160.699 85.18C160.699 85.628 160.335 85.992 159.887 85.992C159.439 85.992 159.075 85.628 159.075 85.18C159.075 84.732 159.439 84.368 159.887 84.368C160.335 84.368 160.699 84.732 160.699 85.18ZM159.285 87.196H160.489V94H159.285V87.196ZM161.871 88.12L164.209 85.6H164.251V87.196H166.155V88.274H164.251V91.872C164.251 92.67 164.601 93.034 165.385 93.034C165.651 93.034 165.945 92.964 166.155 92.824V93.944C165.917 94.07 165.567 94.154 165.105 94.154C163.817 94.154 163.047 93.356 163.047 92.04V88.274H161.871V88.12ZM169.011 90.444V94H167.807V84.2H169.011V88.176C169.431 87.504 170.159 87.042 171.181 87.042C172.917 87.042 173.925 88.204 173.925 90.01V94H172.721V90.15C172.721 88.932 172.091 88.162 170.929 88.162C169.767 88.162 169.011 89.058 169.011 90.444ZM180.787 96.912H179.597V87.196H180.787V88.274C181.277 87.532 182.201 87.042 183.195 87.042C185.127 87.042 186.611 88.582 186.611 90.598C186.611 92.6 185.127 94.154 183.195 94.154C182.201 94.154 181.291 93.72 180.787 92.978V96.912ZM185.393 90.598C185.393 89.226 184.385 88.148 183.055 88.148C181.725 88.148 180.717 89.226 180.717 90.598C180.717 91.97 181.725 93.048 183.055 93.048C184.385 93.048 185.393 91.97 185.393 90.598ZM191.545 87.042C193.589 87.042 195.101 88.624 195.101 90.598C195.101 92.572 193.589 94.154 191.545 94.154C189.501 94.154 187.989 92.572 187.989 90.598C187.989 88.624 189.501 87.042 191.545 87.042ZM191.545 88.148C190.215 88.148 189.207 89.24 189.207 90.598C189.207 91.956 190.215 93.048 191.545 93.048C192.875 93.048 193.883 91.956 193.883 90.598C193.883 89.24 192.875 88.148 191.545 88.148ZM196.434 93.454V92.124C197.05 92.684 197.848 93.076 198.674 93.076C199.36 93.076 199.99 92.838 199.99 92.138C199.99 91.438 199.332 91.2 198.478 91.018C197.498 90.808 196.42 90.416 196.42 89.1C196.42 87.728 197.582 87.042 198.8 87.042C199.528 87.042 200.256 87.266 200.858 87.672V88.946C200.256 88.456 199.556 88.106 198.828 88.106C198.254 88.106 197.596 88.33 197.596 88.96C197.596 89.576 198.184 89.842 198.968 90.038C200.228 90.346 201.18 90.808 201.18 92.04C201.18 93.426 200.018 94.154 198.66 94.154C197.918 94.154 197.078 93.93 196.434 93.454ZM202.458 93.454V92.124C203.074 92.684 203.872 93.076 204.698 93.076C205.384 93.076 206.014 92.838 206.014 92.138C206.014 91.438 205.356 91.2 204.502 91.018C203.522 90.808 202.444 90.416 202.444 89.1C202.444 87.728 203.606 87.042 204.824 87.042C205.552 87.042 206.28 87.266 206.882 87.672V88.946C206.28 88.456 205.58 88.106 204.852 88.106C204.278 88.106 203.62 88.33 203.62 88.96C203.62 89.576 204.208 89.842 204.992 90.038C206.252 90.346 207.204 90.808 207.204 92.04C207.204 93.426 206.042 94.154 204.684 94.154C203.942 94.154 203.102 93.93 202.458 93.454ZM210.291 85.18C210.291 85.628 209.927 85.992 209.479 85.992C209.031 85.992 208.667 85.628 208.667 85.18C208.667 84.732 209.031 84.368 209.479 84.368C209.927 84.368 210.291 84.732 210.291 85.18ZM208.877 87.196H210.081V94H208.877V87.196ZM213.562 94H212.372V84.2H213.562V88.274C214.052 87.532 214.976 87.042 215.97 87.042C217.902 87.042 219.386 88.582 219.386 90.598C219.386 92.6 217.902 94.154 215.97 94.154C214.976 94.154 214.066 93.72 213.562 92.978V94ZM218.168 90.598C218.168 89.226 217.16 88.148 215.83 88.148C214.5 88.148 213.492 89.226 213.492 90.598C213.492 91.97 214.5 93.048 215.83 93.048C217.16 93.048 218.168 91.97 218.168 90.598ZM221.186 84.2H222.39V94H221.186V84.2ZM230.393 91.984V93.286C229.637 93.832 228.713 94.154 227.761 94.154C225.591 94.154 224.191 92.6 224.191 90.598C224.191 88.568 225.591 87.042 227.551 87.042C229.455 87.042 230.757 88.61 230.757 90.542C230.757 90.808 230.729 90.976 230.729 90.976H225.395C225.493 92.11 226.431 93.062 227.845 93.062C228.713 93.062 229.553 92.712 230.393 91.984ZM225.423 89.982H229.539C229.441 88.904 228.643 88.092 227.523 88.092C226.389 88.092 225.507 89.058 225.423 89.982ZM235.503 93.454V92.124C236.119 92.684 236.917 93.076 237.743 93.076C238.429 93.076 239.059 92.838 239.059 92.138C239.059 91.438 238.401 91.2 237.547 91.018C236.567 90.808 235.489 90.416 235.489 89.1C235.489 87.728 236.651 87.042 237.869 87.042C238.597 87.042 239.325 87.266 239.927 87.672V88.946C239.325 88.456 238.625 88.106 237.897 88.106C237.323 88.106 236.665 88.33 236.665 88.96C236.665 89.576 237.253 89.842 238.037 90.038C239.297 90.346 240.249 90.808 240.249 92.04C240.249 93.426 239.087 94.154 237.729 94.154C236.987 94.154 236.147 93.93 235.503 93.454ZM241.011 88.12L243.349 85.6H243.391V87.196H245.295V88.274H243.391V91.872C243.391 92.67 243.741 93.034 244.525 93.034C244.791 93.034 245.085 92.964 245.295 92.824V93.944C245.057 94.07 244.707 94.154 244.245 94.154C242.957 94.154 242.187 93.356 242.187 92.04V88.274H241.011V88.12ZM252.591 91.984V93.286C251.835 93.832 250.911 94.154 249.959 94.154C247.789 94.154 246.389 92.6 246.389 90.598C246.389 88.568 247.789 87.042 249.749 87.042C251.653 87.042 252.955 88.61 252.955 90.542C252.955 90.808 252.927 90.976 252.927 90.976H247.593C247.691 92.11 248.629 93.062 250.043 93.062C250.911 93.062 251.751 92.712 252.591 91.984ZM247.621 89.982H251.737C251.639 88.904 250.841 88.092 249.721 88.092C248.587 88.092 247.705 89.058 247.621 89.982ZM255.871 96.912H254.681V87.196H255.871V88.274C256.361 87.532 257.285 87.042 258.279 87.042C260.211 87.042 261.695 88.582 261.695 90.598C261.695 92.6 260.211 94.154 258.279 94.154C257.285 94.154 256.375 93.72 255.871 92.978V96.912ZM260.477 90.598C260.477 89.226 259.469 88.148 258.139 88.148C256.809 88.148 255.801 89.226 255.801 90.598C255.801 91.97 256.809 93.048 258.139 93.048C259.469 93.048 260.477 91.97 260.477 90.598ZM263.033 93.454V92.124C263.649 92.684 264.447 93.076 265.273 93.076C265.959 93.076 266.589 92.838 266.589 92.138C266.589 91.438 265.931 91.2 265.077 91.018C264.097 90.808 263.019 90.416 263.019 89.1C263.019 87.728 264.181 87.042 265.399 87.042C266.127 87.042 266.855 87.266 267.457 87.672V88.946C266.855 88.456 266.155 88.106 265.427 88.106C264.853 88.106 264.195 88.33 264.195 88.96C264.195 89.576 264.783 89.842 265.567 90.038C266.827 90.346 267.779 90.808 267.779 92.04C267.779 93.426 266.617 94.154 265.259 94.154C264.517 94.154 263.677 93.93 263.033 93.454ZM274.445 94H273.241V88.274H272.191V87.196H273.241V86.608C273.241 84.872 274.235 84.032 275.579 84.032C276.069 84.032 276.391 84.116 276.601 84.2V85.278C276.391 85.194 276.125 85.138 275.775 85.138C275.019 85.138 274.445 85.516 274.445 86.58V87.196H276.349V88.274H274.445V94ZM280.56 87.042C282.604 87.042 284.116 88.624 284.116 90.598C284.116 92.572 282.604 94.154 280.56 94.154C278.516 94.154 277.004 92.572 277.004 90.598C277.004 88.624 278.516 87.042 280.56 87.042ZM280.56 88.148C279.23 88.148 278.222 89.24 278.222 90.598C278.222 91.956 279.23 93.048 280.56 93.048C281.89 93.048 282.898 91.956 282.898 90.598C282.898 89.24 281.89 88.148 280.56 88.148ZM289.467 87.112V88.316C289.467 88.316 289.341 88.288 289.131 88.288C287.871 88.288 287.101 89.296 287.101 90.766V94H285.911V87.196H287.087V88.4C287.395 87.616 288.277 87.084 289.173 87.084C289.341 87.084 289.467 87.112 289.467 87.112ZM152.894 110.752V107.196H154.098V114H152.894V113.02C152.474 113.692 151.76 114.154 150.738 114.154C149.016 114.154 148.022 112.992 148.022 111.186V107.196H149.226V111.046C149.226 112.264 149.842 113.034 150.99 113.034C152.138 113.034 152.894 112.138 152.894 110.752ZM155.925 113.454V112.124C156.541 112.684 157.339 113.076 158.165 113.076C158.851 113.076 159.481 112.838 159.481 112.138C159.481 111.438 158.823 111.2 157.969 111.018C156.989 110.808 155.911 110.416 155.911 109.1C155.911 107.728 157.073 107.042 158.291 107.042C159.019 107.042 159.747 107.266 160.349 107.672V108.946C159.747 108.456 159.047 108.106 158.319 108.106C157.745 108.106 157.087 108.33 157.087 108.96C157.087 109.576 157.675 109.842 158.459 110.038C159.719 110.346 160.671 110.808 160.671 112.04C160.671 113.426 159.509 114.154 158.151 114.154C157.409 114.154 156.569 113.93 155.925 113.454ZM168.164 111.984V113.286C167.408 113.832 166.484 114.154 165.532 114.154C163.362 114.154 161.962 112.6 161.962 110.598C161.962 108.568 163.362 107.042 165.322 107.042C167.226 107.042 168.528 108.61 168.528 110.542C168.528 110.808 168.5 110.976 168.5 110.976H163.166C163.264 112.11 164.202 113.062 165.616 113.062C166.484 113.062 167.324 112.712 168.164 111.984ZM163.194 109.982H167.31C167.212 108.904 166.414 108.092 165.294 108.092C164.16 108.092 163.278 109.058 163.194 109.982ZM173.81 107.112V108.316C173.81 108.316 173.684 108.288 173.474 108.288C172.214 108.288 171.444 109.296 171.444 110.766V114H170.254V107.196H171.43V108.4C171.738 107.616 172.62 107.084 173.516 107.084C173.684 107.084 173.81 107.112 173.81 107.112ZM177.921 108.12L180.259 105.6H180.301V107.196H182.205V108.274H180.301V111.872C180.301 112.67 180.651 113.034 181.435 113.034C181.701 113.034 181.995 112.964 182.205 112.824V113.944C181.967 114.07 181.617 114.154 181.155 114.154C179.867 114.154 179.097 113.356 179.097 112.04V108.274H177.921V108.12ZM186.855 107.042C188.899 107.042 190.411 108.624 190.411 110.598C190.411 112.572 188.899 114.154 186.855 114.154C184.811 114.154 183.299 112.572 183.299 110.598C183.299 108.624 184.811 107.042 186.855 107.042ZM186.855 108.148C185.525 108.148 184.517 109.24 184.517 110.598C184.517 111.956 185.525 113.048 186.855 113.048C188.185 113.048 189.193 111.956 189.193 110.598C189.193 109.24 188.185 108.148 186.855 108.148ZM194.778 108.12L197.116 105.6H197.158V107.196H199.062V108.274H197.158V111.872C197.158 112.67 197.508 113.034 198.292 113.034C198.558 113.034 198.852 112.964 199.062 112.824V113.944C198.824 114.07 198.474 114.154 198.012 114.154C196.724 114.154 195.954 113.356 195.954 112.04V108.274H194.778V108.12ZM204.635 109.674V109.506C204.635 108.652 204.033 108.134 203.025 108.134C202.101 108.134 201.415 108.512 200.715 109.156V107.896C201.331 107.392 202.073 107.042 203.053 107.042C204.803 107.042 205.811 108.008 205.811 109.59V114H204.677V113.104C204.145 113.79 203.319 114.154 202.423 114.154C201.219 114.154 200.365 113.328 200.365 112.208C200.365 110.99 201.135 110.262 202.633 110.01L204.635 109.674ZM201.569 112.138C201.569 112.712 202.017 113.09 202.647 113.09C203.809 113.09 204.649 112.334 204.649 111.284V110.71L202.829 111.032C202.017 111.186 201.569 111.55 201.569 112.138ZM209.173 104.2V109.898L212.029 107.196H213.569L210.475 110.094L213.835 114H212.309L209.635 110.836L209.173 111.27V114H207.983V104.2H209.173ZM220.362 111.984V113.286C219.606 113.832 218.682 114.154 217.73 114.154C215.56 114.154 214.16 112.6 214.16 110.598C214.16 108.568 215.56 107.042 217.52 107.042C219.424 107.042 220.726 108.61 220.726 110.542C220.726 110.808 220.698 110.976 220.698 110.976H215.364C215.462 112.11 216.4 113.062 217.814 113.062C218.682 113.062 219.522 112.712 220.362 111.984ZM215.392 109.982H219.508C219.41 108.904 218.612 108.092 217.492 108.092C216.358 108.092 215.476 109.058 215.392 109.982Z" fill="#4B546B"/>
<defs>
<clipPath id="clip0_2274_15069">
<rect width="100" height="76.6252" fill="white" transform="translate(47 37)"/>
</clipPath>
</defs>
</svg>
