<svg width="362" height="159" viewBox="0 0 362 159" fill="none" xmlns="http://www.w3.org/2000/svg">
<path d="M152 71C152.594 71 153.075 71.4813 153.075 72.075C153.075 72.6687 152.594 73.15 152 73.15C151.406 73.15 150.925 72.6687 150.925 72.075C150.925 71.4813 151.406 71 152 71Z" fill="#687887"/>
<path d="M152 84.8499C152.594 84.8499 153.075 85.3312 153.075 85.9249C153.075 86.5187 152.594 86.9999 152 86.9999C151.406 86.9999 150.925 86.5187 150.925 85.9249C150.925 85.3312 151.406 84.8499 152 84.8499Z" fill="#687887"/>
<path d="M146.343 73.3431C146.763 72.9233 147.444 72.9233 147.863 73.3431C148.283 73.7629 148.283 74.4436 147.863 74.8634C147.444 75.2832 146.763 75.2832 146.343 74.8634C145.923 74.4436 145.923 73.7629 146.343 73.3431Z" fill="#687887"/>
<path d="M144 78.9999C144 78.4062 144.481 77.9249 145.075 77.9249C145.669 77.9249 146.15 78.4062 146.15 78.9999C146.15 79.5936 145.669 80.0749 145.075 80.0749C144.481 80.0749 144 79.5936 144 78.9999Z" fill="#687887"/>
<path d="M156.137 83.1365C156.556 82.7167 157.237 82.7167 157.657 83.1365C158.077 83.5563 158.077 84.237 157.657 84.6568C157.237 85.0766 156.556 85.0766 156.137 84.6568C155.717 84.237 155.717 83.5563 156.137 83.1365Z" fill="#687887"/>
<path d="M157.85 79C157.85 78.4063 158.331 77.925 158.925 77.925C159.519 77.925 160 78.4063 160 79C160 79.5937 159.519 80.075 158.925 80.075C158.331 80.075 157.85 79.5937 157.85 79Z" fill="#687887"/>
<path d="M146.343 84.6568C145.923 84.2369 145.923 83.5563 146.343 83.1365C146.763 82.7167 147.444 82.7167 147.863 83.1365C148.283 83.5563 148.283 84.2369 147.863 84.6568C147.444 85.0766 146.763 85.0766 146.343 84.6568Z" fill="#687887"/>
<path d="M165.395 73.15H166.775V82.7135H170.65V84H165.395V73.15ZM175.572 76.2965C177.835 76.2965 179.509 78.048 179.509 80.2335C179.509 82.419 177.835 84.1705 175.572 84.1705C173.309 84.1705 171.635 82.419 171.635 80.2335C171.635 78.048 173.309 76.2965 175.572 76.2965ZM175.572 77.521C174.099 77.521 172.983 78.73 172.983 80.2335C172.983 81.737 174.099 82.946 175.572 82.946C177.044 82.946 178.16 81.737 178.16 80.2335C178.16 78.73 177.044 77.521 175.572 77.521ZM185.785 79.2105V79.0245C185.785 78.079 185.119 77.5055 184.003 77.5055C182.98 77.5055 182.22 77.924 181.445 78.637V77.242C182.127 76.684 182.949 76.2965 184.034 76.2965C185.971 76.2965 187.087 77.366 187.087 79.1175V84H185.832V83.008C185.243 83.7675 184.328 84.1705 183.336 84.1705C182.003 84.1705 181.058 83.256 181.058 82.016C181.058 80.6675 181.91 79.8615 183.569 79.5825L185.785 79.2105ZM182.391 81.9385C182.391 82.574 182.887 82.9925 183.584 82.9925C184.871 82.9925 185.801 82.1555 185.801 80.993V80.3575L183.786 80.714C182.887 80.8845 182.391 81.2875 182.391 81.9385ZM195.393 73.15H196.711V84H195.393V82.8065C194.851 83.628 193.828 84.1705 192.727 84.1705C190.588 84.1705 188.945 82.4655 188.945 80.2335C188.945 78.017 190.588 76.2965 192.727 76.2965C193.828 76.2965 194.835 76.777 195.393 77.5985V73.15ZM195.471 80.2335C195.471 78.7145 194.355 77.521 192.882 77.521C191.41 77.521 190.294 78.7145 190.294 80.2335C190.294 81.7525 191.41 82.946 192.882 82.946C194.355 82.946 195.471 81.7525 195.471 80.2335ZM200.806 74.235C200.806 74.731 200.403 75.134 199.907 75.134C199.411 75.134 199.008 74.731 199.008 74.235C199.008 73.739 199.411 73.336 199.907 73.336C200.403 73.336 200.806 73.739 200.806 74.235ZM199.24 76.467H200.573V84H199.24V76.467ZM204.438 80.063V84H203.105V76.467H204.438V77.552C204.903 76.808 205.709 76.2965 206.84 76.2965C208.762 76.2965 209.878 77.583 209.878 79.5825V84H208.545V79.7375C208.545 78.389 207.848 77.5365 206.561 77.5365C205.275 77.5365 204.438 78.5285 204.438 80.063ZM212.003 79.071C212.003 77.428 213.351 76.2965 214.917 76.2965C215.273 76.2965 215.614 76.3585 215.94 76.467H218.528V77.614H217.412C217.676 78.0325 217.831 78.5285 217.831 79.071C217.831 80.7295 216.482 81.83 214.917 81.83C214.452 81.83 214.018 81.737 213.615 81.5665C213.103 81.7215 212.948 82.016 212.948 82.295C212.948 82.7445 213.351 82.915 213.956 82.915H216.048C217.66 82.915 218.683 83.597 218.683 84.837C218.683 86.5885 216.823 87.41 214.793 87.41C212.855 87.41 211.429 86.79 211.429 85.2865C211.429 84.5735 211.91 84 212.39 83.69C211.972 83.3955 211.786 82.9615 211.786 82.481C211.786 81.644 212.297 81.241 212.747 80.962C212.282 80.497 212.003 79.846 212.003 79.071ZM217.443 84.961C217.443 84.31 216.87 84.093 215.738 84.093H213.878C213.692 84.093 213.537 84.0775 213.382 84.062C212.917 84.31 212.654 84.682 212.654 85.1315C212.654 85.9995 213.615 86.356 214.824 86.356C216.343 86.356 217.443 85.86 217.443 84.961ZM213.227 79.071C213.227 80.063 213.971 80.7295 214.917 80.7295C215.862 80.7295 216.606 80.063 216.606 79.071C216.606 78.11 215.862 77.4125 214.917 77.4125C213.971 77.4125 213.227 78.11 213.227 79.071Z" fill="#687887"/>
</svg>
