<svg width="362" height="159" viewBox="0 0 362 159" fill="none" xmlns="http://www.w3.org/2000/svg">
<rect x="61" y="49" width="74.6667" height="4" rx="2" fill="#0056CF"/>
<rect x="143.667" y="49" width="74.6667" height="4" rx="2" fill="#0056CF"/>
<rect x="226.333" y="49" width="74.6667" height="4" rx="2" fill="#0056CF"/>
<rect x="61" y="77" width="57" height="4" rx="2" fill="#0056CF"/>
<rect x="126" y="77" width="57" height="4" rx="2" fill="#0056CF"/>
<rect x="191" y="77" width="57" height="4" rx="2" fill="#0056CF"/>
<rect x="256" y="77" width="45" height="4" rx="2" fill="#E4E8F0"/>
<rect x="61" y="105" width="39.3333" height="4" rx="2" fill="#0056CF"/>
<rect x="108.333" y="105" width="39.3333" height="4" rx="2" fill="#0056CF"/>
<rect x="155.667" y="105" width="39.3333" height="4" rx="2" fill="#E4E8F0"/>
<rect x="203" y="105" width="45" height="4" rx="2" fill="#E4E8F0"/>
<rect x="256" y="105" width="45" height="4" rx="2" fill="#E4E8F0"/>
</svg>
