<svg width="362" height="159" viewBox="0 0 362 159" fill="none" xmlns="http://www.w3.org/2000/svg">
<path d="M48.8142 36.6648H50.0179L52.561 43H51.1402L50.6062 41.6334H48.1898L47.6558 43H46.2621L48.8142 36.6648ZM49.3934 38.3934L48.6061 40.4659H50.1989L49.3934 38.3934ZM54.2074 36.6648H56.3614C57.737 36.6648 58.6873 37.4069 58.6873 38.7102C58.6873 40.0044 57.737 40.7555 56.3614 40.7555H55.565V43H54.2074V36.6648ZM55.565 37.8866V39.5518H56.3885C56.9316 39.5518 57.3207 39.2441 57.3207 38.7192C57.3207 38.1943 56.9316 37.8866 56.3885 37.8866H55.565ZM61.808 40.6831V43H60.4595V36.6648H62.5683C63.9348 36.6648 64.8851 37.3979 64.8851 38.6921C64.8851 39.5971 64.3421 40.2306 63.5819 40.5202L65.3286 43H63.7267L62.17 40.6831H61.808ZM61.808 37.8866V39.5609H62.5773C63.1203 39.5609 63.5185 39.2441 63.5185 38.7192C63.5185 38.1853 63.1203 37.8866 62.5773 37.8866H61.808Z" fill="#4B546B"/>
<path d="M55.3357 58H49.8882V56.7726L52.5184 54.1657C53.2666 53.4409 53.477 53.0668 53.477 52.5291C53.477 51.8862 52.9276 51.4303 52.1561 51.4303C51.4079 51.4303 50.7065 51.8511 50.0752 52.5408V50.7055C50.6948 50.1444 51.5014 49.8287 52.2963 49.8287C53.9096 49.8287 55.2071 50.8107 55.2071 52.3421C55.2071 53.4059 54.7629 54.1891 53.7459 55.1243L52.308 56.4569H55.3357V58ZM61.7321 58H56.2846V56.7726L58.9148 54.1657C59.663 53.4409 59.8734 53.0668 59.8734 52.5291C59.8734 51.8862 59.324 51.4303 58.5525 51.4303C57.8043 51.4303 57.1029 51.8511 56.4716 52.5408V50.7055C57.0912 50.1444 57.8978 49.8287 58.6927 49.8287C60.306 49.8287 61.6035 50.8107 61.6035 52.3421C61.6035 53.4059 61.1593 54.1891 60.1423 55.1243L58.7044 56.4569H61.7321V58Z" fill="#242B42"/>
<path d="M46.6757 72V71.4479L48.9926 68.9953C49.5266 68.4342 49.6895 68.045 49.6895 67.5654C49.6895 66.9228 49.1284 66.4341 48.4044 66.4341C47.8342 66.4341 47.2459 66.8142 46.7482 67.4296V66.4793C47.1826 65.9906 47.8251 65.6829 48.4134 65.6829C49.608 65.6829 50.4859 66.4522 50.4859 67.5292C50.4859 68.2713 50.1963 68.8143 49.5266 69.5202L47.8704 71.2579H50.5674V72H46.6757ZM53.9962 72.0996C52.3038 72.0996 51.4892 70.5701 51.4892 68.8958C51.4892 67.2124 52.3038 65.6829 53.9962 65.6829C55.6886 65.6829 56.5031 67.2124 56.5031 68.8958C56.5031 70.5701 55.6886 72.0996 53.9962 72.0996ZM53.9962 71.3484C55.1727 71.3484 55.6976 70.1628 55.6976 68.8958C55.6976 67.6287 55.1727 66.4341 53.9962 66.4341C52.8196 66.4341 52.2947 67.6287 52.2947 68.8958C52.2947 70.1628 52.8196 71.3484 53.9962 71.3484ZM59.0805 72H58.2841V66.6784L57.1619 67.14V66.3255L58.4289 65.7825H59.0805V72ZM62.4471 65.6829C63.4608 65.6829 64.3477 66.3255 64.3477 67.321C64.3477 67.9998 63.9223 68.4885 63.4517 68.6604C63.9676 68.8415 64.5921 69.3573 64.5921 70.2352C64.5921 71.3936 63.5603 72.0996 62.4471 72.0996C61.3339 72.0996 60.3022 71.3936 60.3022 70.2352C60.3022 69.3573 60.9267 68.8415 61.4426 68.6604C60.9719 68.4885 60.5466 67.9998 60.5466 67.321C60.5466 66.3255 61.4335 65.6829 62.4471 65.6829ZM63.7956 70.199C63.7956 69.5112 63.1893 69.0496 62.4471 69.0496C61.705 69.0496 61.0986 69.5112 61.0986 70.199C61.0986 70.8959 61.7231 71.3574 62.4471 71.3574C63.1712 71.3574 63.7956 70.8959 63.7956 70.199ZM62.4471 66.416C61.8589 66.416 61.3249 66.7961 61.3249 67.3753C61.3249 67.9545 61.8589 68.3346 62.4471 68.3346C63.0354 68.3346 63.5694 67.9545 63.5694 67.3753C63.5694 66.7961 63.0354 66.416 62.4471 66.416Z" fill="#4B546B"/>
<circle cx="56.5587" cy="91.0723" r="10.5587" fill="#8598AA" fill-opacity="0.1"/>
<g clip-path="url(#clip0_2274_15071)">
<path fill-rule="evenodd" clip-rule="evenodd" d="M56.3928 90.1838C57.0853 90.1838 57.6466 89.6225 57.6466 88.93C57.6466 88.2375 57.0853 87.6761 56.3928 87.6761C55.7003 87.6761 55.1389 88.2375 55.1389 88.93C55.1389 89.6225 55.7003 90.1838 56.3928 90.1838ZM56.3928 90.9361C57.5008 90.9361 58.3989 90.0379 58.3989 88.93C58.3989 87.822 57.5008 86.9238 56.3928 86.9238C55.2848 86.9238 54.3866 87.822 54.3866 88.93C54.3866 90.0379 55.2848 90.9361 56.3928 90.9361Z" fill="#687887"/>
<path fill-rule="evenodd" clip-rule="evenodd" d="M55.8895 92.4407H56.8943C58.331 92.4407 59.0348 93.3457 59.1126 93.8747C59.1218 93.9376 59.1302 93.9923 59.1376 94.0406C59.1468 94.1007 59.1544 94.1508 59.1604 94.1942C57.2496 94.1942 55.4733 94.1942 53.6252 94.1942C53.6311 94.1508 53.6388 94.1007 53.648 94.0406C53.6554 93.9924 53.6637 93.9376 53.673 93.8747C53.7507 93.3459 54.4542 92.4415 55.8895 92.4407ZM56.8943 91.6884C58.6512 91.6884 59.7175 92.8169 59.8569 93.7652C59.8635 93.8104 59.8704 93.8551 59.877 93.8986C59.8957 94.0206 59.9129 94.1334 59.9207 94.2223C59.9297 94.3267 59.9427 94.525 59.8243 94.694C59.6927 94.8819 59.4855 94.9202 59.3692 94.934C59.2479 94.9485 59.0912 94.9484 58.922 94.9484L53.8851 94.9484C53.8779 94.9484 53.8708 94.9484 53.8636 94.9484C53.6944 94.9484 53.5377 94.9485 53.4164 94.934C53.3001 94.9202 53.0929 94.8819 52.9613 94.694C52.8429 94.525 52.8559 94.3267 52.8649 94.2224C52.8727 94.1334 52.8899 94.0207 52.9086 93.8986C52.9152 93.8551 52.922 93.8104 52.9287 93.7652C53.0681 92.8173 54.1338 91.6893 55.8894 91.6884H56.8943Z" fill="#687887"/>
</g>
<path d="M70.1338 91.0723H149.701" stroke="#E4E8F0" stroke-width="1.50838"/>
<path d="M47.0521 119.664V111.481H49.6005C51.1085 111.481 52.1489 112.299 52.1489 113.644C52.1489 114.415 51.8099 115.011 51.167 115.315C52.1138 115.631 52.6399 116.356 52.6399 117.338C52.6399 118.799 51.541 119.664 49.846 119.664H47.0521ZM48.0925 118.741H49.8343C50.8981 118.741 51.5878 118.215 51.5878 117.303C51.5878 116.426 50.8747 115.877 49.8109 115.877H48.0925V118.741ZM48.0925 114.976H49.5888C50.5006 114.976 51.1202 114.497 51.1202 113.691C51.1202 112.872 50.5006 112.405 49.5771 112.405H48.0925V114.976ZM56.8278 113.854C58.5345 113.854 59.797 115.175 59.797 116.823C59.797 118.472 58.5345 119.793 56.8278 119.793C55.1211 119.793 53.8586 118.472 53.8586 116.823C53.8586 115.175 55.1211 113.854 56.8278 113.854ZM56.8278 114.778C55.7173 114.778 54.8756 115.689 54.8756 116.823C54.8756 117.957 55.7173 118.869 56.8278 118.869C57.9383 118.869 58.78 117.957 58.78 116.823C58.78 115.689 57.9383 114.778 56.8278 114.778ZM65.8029 111.481H66.7966V119.664H65.8029V118.764C65.3938 119.384 64.6222 119.793 63.7923 119.793C62.179 119.793 60.9399 118.507 60.9399 116.823C60.9399 115.152 62.179 113.854 63.7923 113.854C64.6222 113.854 65.3821 114.217 65.8029 114.836V111.481ZM65.8614 116.823C65.8614 115.678 65.0197 114.778 63.9092 114.778C62.7986 114.778 61.9569 115.678 61.9569 116.823C61.9569 117.969 62.7986 118.869 63.9092 118.869C65.0197 118.869 65.8614 117.969 65.8614 116.823ZM73.5557 113.983L70.8203 120.529C70.3059 121.757 69.8033 122.236 68.9499 122.236C68.7044 122.236 68.494 122.189 68.3303 122.119V121.231C68.4589 121.277 68.6576 121.324 68.8681 121.324C69.324 121.324 69.5928 121.055 69.8968 120.33L70.2358 119.512L67.9796 113.983H69.0551L70.7618 118.366L72.5153 113.983H73.5557ZM77.7555 111.481H78.7959V118.694H81.7184V119.664H77.7555V111.481ZM84.1083 112.299C84.1083 112.673 83.8044 112.977 83.4303 112.977C83.0562 112.977 82.7523 112.673 82.7523 112.299C82.7523 111.925 83.0562 111.621 83.4303 111.621C83.8044 111.621 84.1083 111.925 84.1083 112.299ZM82.9277 113.983H83.933V119.664H82.9277V113.983ZM85.6201 115.947C85.6201 114.708 86.6371 113.854 87.8178 113.854C88.0867 113.854 88.3438 113.901 88.5893 113.983H90.5415V114.848H89.6999C89.8986 115.163 90.0155 115.538 90.0155 115.947C90.0155 117.197 88.9985 118.027 87.8178 118.027C87.4671 118.027 87.1398 117.957 86.8358 117.829C86.4501 117.946 86.3332 118.168 86.3332 118.378C86.3332 118.717 86.6371 118.846 87.093 118.846H88.6712C89.8869 118.846 90.6584 119.36 90.6584 120.295C90.6584 121.616 89.2557 122.236 87.7243 122.236C86.263 122.236 85.1876 121.768 85.1876 120.634C85.1876 120.097 85.5499 119.664 85.9123 119.43C85.5967 119.208 85.4564 118.881 85.4564 118.518C85.4564 117.887 85.8422 117.583 86.1812 117.373C85.8305 117.022 85.6201 116.531 85.6201 115.947ZM89.7233 120.389C89.7233 119.898 89.2907 119.734 88.4374 119.734H87.0346C86.8943 119.734 86.7774 119.723 86.6605 119.711C86.3098 119.898 86.1111 120.178 86.1111 120.517C86.1111 121.172 86.8358 121.441 87.7477 121.441C88.8933 121.441 89.7233 121.067 89.7233 120.389ZM86.5436 115.947C86.5436 116.695 87.1047 117.197 87.8178 117.197C88.5309 117.197 89.092 116.695 89.092 115.947C89.092 115.222 88.5309 114.696 87.8178 114.696C87.1047 114.696 86.5436 115.222 86.5436 115.947ZM92.8444 116.695V119.664H91.839V111.481H92.8444V114.801C93.1951 114.24 93.8029 113.854 94.6563 113.854C96.1059 113.854 96.9475 114.824 96.9475 116.332V119.664H95.9422V116.449C95.9422 115.432 95.4162 114.789 94.4459 114.789C93.4756 114.789 92.8444 115.538 92.8444 116.695ZM97.9551 114.754L99.9073 112.65H99.9423V113.983H101.532V114.883H99.9423V117.887C99.9423 118.554 100.235 118.857 100.889 118.857C101.111 118.857 101.357 118.799 101.532 118.682V119.617C101.333 119.723 101.041 119.793 100.655 119.793C99.58 119.793 98.937 119.126 98.937 118.027V114.883H97.9551V114.754Z" fill="#4B546B"/>
<path d="M155.532 36.6648H156.736L159.279 43H157.858L157.324 41.6334H154.908L154.374 43H152.98L155.532 36.6648ZM156.111 38.3934L155.324 40.4659H156.917L156.111 38.3934ZM160.925 36.6648H163.079C164.455 36.6648 165.405 37.4069 165.405 38.7102C165.405 40.0044 164.455 40.7555 163.079 40.7555H162.283V43H160.925V36.6648ZM162.283 37.8866V39.5518H163.106C163.649 39.5518 164.038 39.2441 164.038 38.7192C164.038 38.1943 163.649 37.8866 163.106 37.8866H162.283ZM168.526 40.6831V43H167.177V36.6648H169.286C170.653 36.6648 171.603 37.3979 171.603 38.6921C171.603 39.5971 171.06 40.2306 170.3 40.5202L172.046 43H170.444L168.888 40.6831H168.526ZM168.526 37.8866V39.5609H169.295C169.838 39.5609 170.236 39.2441 170.236 38.7192C170.236 38.1853 169.838 37.8866 169.295 37.8866H168.526Z" fill="#4B546B"/>
<path d="M162.053 58H156.606V56.7726L159.236 54.1657C159.984 53.4409 160.195 53.0668 160.195 52.5291C160.195 51.8862 159.645 51.4303 158.874 51.4303C158.126 51.4303 157.424 51.8511 156.793 52.5408V50.7055C157.413 50.1444 158.219 49.8287 159.014 49.8287C160.627 49.8287 161.925 50.8107 161.925 52.3421C161.925 53.4059 161.481 54.1891 160.464 55.1243L159.026 56.4569H162.053V58ZM168.45 58H163.002V56.7726L165.633 54.1657C166.381 53.4409 166.591 53.0668 166.591 52.5291C166.591 51.8862 166.042 51.4303 165.27 51.4303C164.522 51.4303 163.821 51.8511 163.189 52.5408V50.7055C163.809 50.1444 164.616 49.8287 165.411 49.8287C167.024 49.8287 168.321 50.8107 168.321 52.3421C168.321 53.4059 167.877 54.1891 166.86 55.1243L165.422 56.4569H168.45V58Z" fill="#242B42"/>
<path d="M153.394 72V71.4479L155.71 68.9953C156.244 68.4342 156.407 68.045 156.407 67.5654C156.407 66.9228 155.846 66.4341 155.122 66.4341C154.552 66.4341 153.964 66.8142 153.466 67.4296V66.4793C153.9 65.9906 154.543 65.6829 155.131 65.6829C156.326 65.6829 157.204 66.4522 157.204 67.5292C157.204 68.2713 156.914 68.8143 156.244 69.5202L154.588 71.2579H157.285V72H153.394ZM160.714 72.0996C159.022 72.0996 158.207 70.5701 158.207 68.8958C158.207 67.2124 159.022 65.6829 160.714 65.6829C162.406 65.6829 163.221 67.2124 163.221 68.8958C163.221 70.5701 162.406 72.0996 160.714 72.0996ZM160.714 71.3484C161.89 71.3484 162.415 70.1628 162.415 68.8958C162.415 67.6287 161.89 66.4341 160.714 66.4341C159.537 66.4341 159.012 67.6287 159.012 68.8958C159.012 70.1628 159.537 71.3484 160.714 71.3484ZM165.798 72H165.002V66.6784L163.88 67.14V66.3255L165.147 65.7825H165.798V72ZM169.165 65.6829C170.179 65.6829 171.065 66.3255 171.065 67.321C171.065 67.9998 170.64 68.4885 170.169 68.6604C170.685 68.8415 171.31 69.3573 171.31 70.2352C171.31 71.3936 170.278 72.0996 169.165 72.0996C168.052 72.0996 167.02 71.3936 167.02 70.2352C167.02 69.3573 167.644 68.8415 168.16 68.6604C167.69 68.4885 167.264 67.9998 167.264 67.321C167.264 66.3255 168.151 65.6829 169.165 65.6829ZM170.513 70.199C170.513 69.5112 169.907 69.0496 169.165 69.0496C168.423 69.0496 167.816 69.5112 167.816 70.199C167.816 70.8959 168.441 71.3574 169.165 71.3574C169.889 71.3574 170.513 70.8959 170.513 70.199ZM169.165 66.416C168.577 66.416 168.043 66.7961 168.043 67.3753C168.043 67.9545 168.577 68.3346 169.165 68.3346C169.753 68.3346 170.287 67.9545 170.287 67.3753C170.287 66.7961 169.753 66.416 169.165 66.416Z" fill="#4B546B"/>
<circle cx="163.276" cy="91.0723" r="10.5587" fill="#8598AA" fill-opacity="0.1"/>
<g clip-path="url(#clip1_2274_15071)">
<path fill-rule="evenodd" clip-rule="evenodd" d="M163.111 90.1838C163.803 90.1838 164.364 89.6225 164.364 88.93C164.364 88.2375 163.803 87.6761 163.111 87.6761C162.418 87.6761 161.857 88.2375 161.857 88.93C161.857 89.6225 162.418 90.1838 163.111 90.1838ZM163.111 90.9361C164.219 90.9361 165.117 90.0379 165.117 88.93C165.117 87.822 164.219 86.9238 163.111 86.9238C162.003 86.9238 161.104 87.822 161.104 88.93C161.104 90.0379 162.003 90.9361 163.111 90.9361Z" fill="#687887"/>
<path fill-rule="evenodd" clip-rule="evenodd" d="M162.607 92.4407H163.612C165.049 92.4407 165.753 93.3457 165.83 93.8747C165.84 93.9376 165.848 93.9923 165.855 94.0406C165.865 94.1007 165.872 94.1508 165.878 94.1942C163.967 94.1942 162.191 94.1942 160.343 94.1942C160.349 94.1508 160.357 94.1007 160.366 94.0406C160.373 93.9924 160.382 93.9376 160.391 93.8747C160.469 93.3459 161.172 92.4415 162.607 92.4407ZM163.612 91.6884C165.369 91.6884 166.435 92.8169 166.575 93.7652C166.581 93.8104 166.588 93.8551 166.595 93.8986C166.613 94.0206 166.631 94.1334 166.638 94.2223C166.647 94.3267 166.66 94.525 166.542 94.694C166.41 94.8819 166.203 94.9202 166.087 94.934C165.966 94.9485 165.809 94.9484 165.64 94.9484L160.603 94.9484C160.596 94.9484 160.589 94.9484 160.581 94.9484C160.412 94.9484 160.255 94.9485 160.134 94.934C160.018 94.9202 159.811 94.8819 159.679 94.694C159.561 94.525 159.574 94.3267 159.583 94.2224C159.59 94.1334 159.608 94.0207 159.626 93.8986C159.633 93.8551 159.64 93.8104 159.646 93.7652C159.786 92.8173 160.852 91.6893 162.607 91.6884H163.612Z" fill="#687887"/>
</g>
<path d="M176.852 91.0723H256.419" stroke="#E4E8F0" stroke-width="1.50838"/>
<path d="M153.77 119.664V111.481H156.318C157.826 111.481 158.867 112.299 158.867 113.644C158.867 114.415 158.528 115.011 157.885 115.315C158.832 115.631 159.358 116.356 159.358 117.338C159.358 118.799 158.259 119.664 156.564 119.664H153.77ZM154.81 118.741H156.552C157.616 118.741 158.306 118.215 158.306 117.303C158.306 116.426 157.592 115.877 156.529 115.877H154.81V118.741ZM154.81 114.976H156.307C157.218 114.976 157.838 114.497 157.838 113.691C157.838 112.872 157.218 112.405 156.295 112.405H154.81V114.976ZM163.546 113.854C165.252 113.854 166.515 115.175 166.515 116.823C166.515 118.472 165.252 119.793 163.546 119.793C161.839 119.793 160.576 118.472 160.576 116.823C160.576 115.175 161.839 113.854 163.546 113.854ZM163.546 114.778C162.435 114.778 161.593 115.689 161.593 116.823C161.593 117.957 162.435 118.869 163.546 118.869C164.656 118.869 165.498 117.957 165.498 116.823C165.498 115.689 164.656 114.778 163.546 114.778ZM172.521 111.481H173.514V119.664H172.521V118.764C172.112 119.384 171.34 119.793 170.51 119.793C168.897 119.793 167.658 118.507 167.658 116.823C167.658 115.152 168.897 113.854 170.51 113.854C171.34 113.854 172.1 114.217 172.521 114.836V111.481ZM172.579 116.823C172.579 115.678 171.737 114.778 170.627 114.778C169.516 114.778 168.675 115.678 168.675 116.823C168.675 117.969 169.516 118.869 170.627 118.869C171.737 118.869 172.579 117.969 172.579 116.823ZM180.274 113.983L177.538 120.529C177.024 121.757 176.521 122.236 175.668 122.236C175.422 122.236 175.212 122.189 175.048 122.119V121.231C175.177 121.277 175.375 121.324 175.586 121.324C176.042 121.324 176.311 121.055 176.615 120.33L176.954 119.512L174.697 113.983H175.773L177.48 118.366L179.233 113.983H180.274ZM184.473 111.481H185.514V118.694H188.436V119.664H184.473V111.481ZM190.826 112.299C190.826 112.673 190.522 112.977 190.148 112.977C189.774 112.977 189.47 112.673 189.47 112.299C189.47 111.925 189.774 111.621 190.148 111.621C190.522 111.621 190.826 111.925 190.826 112.299ZM189.645 113.983H190.651V119.664H189.645V113.983ZM192.338 115.947C192.338 114.708 193.355 113.854 194.536 113.854C194.804 113.854 195.062 113.901 195.307 113.983H197.259V114.848H196.418C196.616 115.163 196.733 115.538 196.733 115.947C196.733 117.197 195.716 118.027 194.536 118.027C194.185 118.027 193.858 117.957 193.554 117.829C193.168 117.946 193.051 118.168 193.051 118.378C193.051 118.717 193.355 118.846 193.811 118.846H195.389C196.605 118.846 197.376 119.36 197.376 120.295C197.376 121.616 195.973 122.236 194.442 122.236C192.981 122.236 191.905 121.768 191.905 120.634C191.905 120.097 192.268 119.664 192.63 119.43C192.314 119.208 192.174 118.881 192.174 118.518C192.174 117.887 192.56 117.583 192.899 117.373C192.548 117.022 192.338 116.531 192.338 115.947ZM196.441 120.389C196.441 119.898 196.008 119.734 195.155 119.734H193.752C193.612 119.734 193.495 119.723 193.378 119.711C193.028 119.898 192.829 120.178 192.829 120.517C192.829 121.172 193.554 121.441 194.465 121.441C195.611 121.441 196.441 121.067 196.441 120.389ZM193.261 115.947C193.261 116.695 193.822 117.197 194.536 117.197C195.249 117.197 195.81 116.695 195.81 115.947C195.81 115.222 195.249 114.696 194.536 114.696C193.822 114.696 193.261 115.222 193.261 115.947ZM199.562 116.695V119.664H198.557V111.481H199.562V114.801C199.913 114.24 200.521 113.854 201.374 113.854C202.824 113.854 203.665 114.824 203.665 116.332V119.664H202.66V116.449C202.66 115.432 202.134 114.789 201.164 114.789C200.193 114.789 199.562 115.538 199.562 116.695ZM204.673 114.754L206.625 112.65H206.66V113.983H208.25V114.883H206.66V117.887C206.66 118.554 206.952 118.857 207.607 118.857C207.829 118.857 208.075 118.799 208.25 118.682V119.617C208.051 119.723 207.759 119.793 207.373 119.793C206.298 119.793 205.655 119.126 205.655 118.027V114.883H204.673V114.754Z" fill="#4B546B"/>
<path d="M262.25 36.6648H263.453L265.997 43H264.576L264.042 41.6334H261.625L261.091 43H259.698L262.25 36.6648ZM262.829 38.3934L262.042 40.4659H263.634L262.829 38.3934ZM267.643 36.6648H269.797C271.173 36.6648 272.123 37.4069 272.123 38.7102C272.123 40.0044 271.173 40.7555 269.797 40.7555H269.001V43H267.643V36.6648ZM269.001 37.8866V39.5518H269.824C270.367 39.5518 270.756 39.2441 270.756 38.7192C270.756 38.1943 270.367 37.8866 269.824 37.8866H269.001ZM275.244 40.6831V43H273.895V36.6648H276.004C277.37 36.6648 278.321 37.3979 278.321 38.6921C278.321 39.5971 277.778 40.2306 277.017 40.5202L278.764 43H277.162L275.606 40.6831H275.244ZM275.244 37.8866V39.5609H276.013C276.556 39.5609 276.954 39.2441 276.954 38.7192C276.954 38.1853 276.556 37.8866 276.013 37.8866H275.244Z" fill="#4B546B"/>
<path d="M268.771 58H263.324V56.7726L265.954 54.1657C266.702 53.4409 266.913 53.0668 266.913 52.5291C266.913 51.8862 266.363 51.4303 265.592 51.4303C264.843 51.4303 264.142 51.8511 263.511 52.5408V50.7055C264.13 50.1444 264.937 49.8287 265.732 49.8287C267.345 49.8287 268.643 50.8107 268.643 52.3421C268.643 53.4059 268.198 54.1891 267.181 55.1243L265.744 56.4569H268.771V58ZM275.168 58H269.72V56.7726L272.35 54.1657C273.099 53.4409 273.309 53.0668 273.309 52.5291C273.309 51.8862 272.76 51.4303 271.988 51.4303C271.24 51.4303 270.538 51.8511 269.907 52.5408V50.7055C270.527 50.1444 271.333 49.8287 272.128 49.8287C273.741 49.8287 275.039 50.8107 275.039 52.3421C275.039 53.4059 274.595 54.1891 273.578 55.1243L272.14 56.4569H275.168V58Z" fill="#242B42"/>
<path d="M260.111 72V71.4479L262.428 68.9953C262.962 68.4342 263.125 68.045 263.125 67.5654C263.125 66.9228 262.564 66.4341 261.84 66.4341C261.27 66.4341 260.681 66.8142 260.184 67.4296V66.4793C260.618 65.9906 261.261 65.6829 261.849 65.6829C263.044 65.6829 263.921 66.4522 263.921 67.5292C263.921 68.2713 263.632 68.8143 262.962 69.5202L261.306 71.2579H264.003V72H260.111ZM267.432 72.0996C265.739 72.0996 264.925 70.5701 264.925 68.8958C264.925 67.2124 265.739 65.6829 267.432 65.6829C269.124 65.6829 269.939 67.2124 269.939 68.8958C269.939 70.5701 269.124 72.0996 267.432 72.0996ZM267.432 71.3484C268.608 71.3484 269.133 70.1628 269.133 68.8958C269.133 67.6287 268.608 66.4341 267.432 66.4341C266.255 66.4341 265.73 67.6287 265.73 68.8958C265.73 70.1628 266.255 71.3484 267.432 71.3484ZM272.516 72H271.72V66.6784L270.597 67.14V66.3255L271.864 65.7825H272.516V72ZM275.883 65.6829C276.896 65.6829 277.783 66.3255 277.783 67.321C277.783 67.9998 277.358 68.4885 276.887 68.6604C277.403 68.8415 278.028 69.3573 278.028 70.2352C278.028 71.3936 276.996 72.0996 275.883 72.0996C274.769 72.0996 273.738 71.3936 273.738 70.2352C273.738 69.3573 274.362 68.8415 274.878 68.6604C274.407 68.4885 273.982 67.9998 273.982 67.321C273.982 66.3255 274.869 65.6829 275.883 65.6829ZM277.231 70.199C277.231 69.5112 276.625 69.0496 275.883 69.0496C275.141 69.0496 274.534 69.5112 274.534 70.199C274.534 70.8959 275.159 71.3574 275.883 71.3574C276.607 71.3574 277.231 70.8959 277.231 70.199ZM275.883 66.416C275.294 66.416 274.76 66.7961 274.76 67.3753C274.76 67.9545 275.294 68.3346 275.883 68.3346C276.471 68.3346 277.005 67.9545 277.005 67.3753C277.005 66.7961 276.471 66.416 275.883 66.416Z" fill="#4B546B"/>
<circle cx="269.994" cy="91.0723" r="10.5587" fill="#8598AA" fill-opacity="0.1"/>
<g clip-path="url(#clip2_2274_15071)">
<path fill-rule="evenodd" clip-rule="evenodd" d="M269.828 90.1838C270.521 90.1838 271.082 89.6225 271.082 88.93C271.082 88.2375 270.521 87.6761 269.828 87.6761C269.136 87.6761 268.574 88.2375 268.574 88.93C268.574 89.6225 269.136 90.1838 269.828 90.1838ZM269.828 90.9361C270.936 90.9361 271.834 90.0379 271.834 88.93C271.834 87.822 270.936 86.9238 269.828 86.9238C268.72 86.9238 267.822 87.822 267.822 88.93C267.822 90.0379 268.72 90.9361 269.828 90.9361Z" fill="#687887"/>
<path fill-rule="evenodd" clip-rule="evenodd" d="M269.325 92.4407H270.33C271.767 92.4407 272.47 93.3457 272.548 93.8747C272.557 93.9376 272.566 93.9923 272.573 94.0406C272.582 94.1007 272.59 94.1508 272.596 94.1942C270.685 94.1942 268.909 94.1942 267.061 94.1942C267.067 94.1508 267.074 94.1007 267.084 94.0406C267.091 93.9924 267.099 93.9376 267.109 93.8747C267.186 93.3459 267.89 92.4415 269.325 92.4407ZM270.33 91.6884C272.087 91.6884 273.153 92.8169 273.292 93.7652C273.299 93.8104 273.306 93.8551 273.313 93.8986C273.331 94.0206 273.348 94.1334 273.356 94.2223C273.365 94.3267 273.378 94.525 273.26 94.694C273.128 94.8819 272.921 94.9202 272.805 94.934C272.683 94.9485 272.527 94.9484 272.357 94.9484L267.321 94.9484C267.313 94.9484 267.306 94.9484 267.299 94.9484C267.13 94.9484 266.973 94.9485 266.852 94.934C266.736 94.9202 266.528 94.8819 266.397 94.694C266.278 94.525 266.291 94.3267 266.3 94.2224C266.308 94.1334 266.325 94.0207 266.344 93.8986C266.351 93.8551 266.358 93.8104 266.364 93.7652C266.504 92.8173 267.569 91.6893 269.325 91.6884H270.33Z" fill="#687887"/>
</g>
<path d="M260.488 119.664V111.481H263.036C264.544 111.481 265.584 112.299 265.584 113.644C265.584 114.415 265.245 115.011 264.603 115.315C265.549 115.631 266.075 116.356 266.075 117.338C266.075 118.799 264.977 119.664 263.282 119.664H260.488ZM261.528 118.741H263.27C264.334 118.741 265.023 118.215 265.023 117.303C265.023 116.426 264.31 115.877 263.246 115.877H261.528V118.741ZM261.528 114.976H263.024C263.936 114.976 264.556 114.497 264.556 113.691C264.556 112.872 263.936 112.405 263.013 112.405H261.528V114.976ZM270.263 113.854C271.97 113.854 273.233 115.175 273.233 116.823C273.233 118.472 271.97 119.793 270.263 119.793C268.557 119.793 267.294 118.472 267.294 116.823C267.294 115.175 268.557 113.854 270.263 113.854ZM270.263 114.778C269.153 114.778 268.311 115.689 268.311 116.823C268.311 117.957 269.153 118.869 270.263 118.869C271.374 118.869 272.216 117.957 272.216 116.823C272.216 115.689 271.374 114.778 270.263 114.778ZM279.238 111.481H280.232V119.664H279.238V118.764C278.829 119.384 278.058 119.793 277.228 119.793C275.615 119.793 274.375 118.507 274.375 116.823C274.375 115.152 275.615 113.854 277.228 113.854C278.058 113.854 278.818 114.217 279.238 114.836V111.481ZM279.297 116.823C279.297 115.678 278.455 114.778 277.345 114.778C276.234 114.778 275.392 115.678 275.392 116.823C275.392 117.969 276.234 118.869 277.345 118.869C278.455 118.869 279.297 117.969 279.297 116.823ZM286.991 113.983L284.256 120.529C283.741 121.757 283.239 122.236 282.385 122.236C282.14 122.236 281.93 122.189 281.766 122.119V121.231C281.894 121.277 282.093 121.324 282.304 121.324C282.76 121.324 283.028 121.055 283.332 120.33L283.671 119.512L281.415 113.983H282.491L284.197 118.366L285.951 113.983H286.991ZM291.191 111.481H292.231V118.694H295.154V119.664H291.191V111.481ZM297.544 112.299C297.544 112.673 297.24 112.977 296.866 112.977C296.492 112.977 296.188 112.673 296.188 112.299C296.188 111.925 296.492 111.621 296.866 111.621C297.24 111.621 297.544 111.925 297.544 112.299ZM296.363 113.983H297.369V119.664H296.363V113.983ZM299.056 115.947C299.056 114.708 300.073 113.854 301.253 113.854C301.522 113.854 301.779 113.901 302.025 113.983H303.977V114.848H303.135C303.334 115.163 303.451 115.538 303.451 115.947C303.451 117.197 302.434 118.027 301.253 118.027C300.903 118.027 300.575 117.957 300.271 117.829C299.886 117.946 299.769 118.168 299.769 118.378C299.769 118.717 300.073 118.846 300.529 118.846H302.107C303.322 118.846 304.094 119.36 304.094 120.295C304.094 121.616 302.691 122.236 301.16 122.236C299.699 122.236 298.623 121.768 298.623 120.634C298.623 120.097 298.985 119.664 299.348 119.43C299.032 119.208 298.892 118.881 298.892 118.518C298.892 117.887 299.278 117.583 299.617 117.373C299.266 117.022 299.056 116.531 299.056 115.947ZM303.159 120.389C303.159 119.898 302.726 119.734 301.873 119.734H300.47C300.33 119.734 300.213 119.723 300.096 119.711C299.745 119.898 299.547 120.178 299.547 120.517C299.547 121.172 300.271 121.441 301.183 121.441C302.329 121.441 303.159 121.067 303.159 120.389ZM299.979 115.947C299.979 116.695 300.54 117.197 301.253 117.197C301.966 117.197 302.528 116.695 302.528 115.947C302.528 115.222 301.966 114.696 301.253 114.696C300.54 114.696 299.979 115.222 299.979 115.947ZM306.28 116.695V119.664H305.275V111.481H306.28V114.801C306.631 114.24 307.238 113.854 308.092 113.854C309.541 113.854 310.383 114.824 310.383 116.332V119.664H309.378V116.449C309.378 115.432 308.852 114.789 307.881 114.789C306.911 114.789 306.28 115.538 306.28 116.695ZM311.391 114.754L313.343 112.65H313.378V113.983H314.968V114.883H313.378V117.887C313.378 118.554 313.67 118.857 314.325 118.857C314.547 118.857 314.792 118.799 314.968 118.682V119.617C314.769 119.723 314.477 119.793 314.091 119.793C313.016 119.793 312.373 119.126 312.373 118.027V114.883H311.391V114.754Z" fill="#4B546B"/>
<defs>
<clipPath id="clip0_2274_15071">
<rect width="10.0307" height="8.02458" fill="white" transform="translate(51.377 86.9238)"/>
</clipPath>
<clipPath id="clip1_2274_15071">
<rect width="10.0307" height="8.02458" fill="white" transform="translate(158.095 86.9238)"/>
</clipPath>
<clipPath id="clip2_2274_15071">
<rect width="10.0307" height="8.02458" fill="white" transform="translate(264.812 86.9238)"/>
</clipPath>
</defs>
</svg>
