<?xml version="1.0" encoding="UTF-8"?>
<svg width="83px" height="43px" viewBox="0 0 83 43" version="1.1" xmlns="http://www.w3.org/2000/svg" xmlns:xlink="http://www.w3.org/1999/xlink">
    <!-- Generator: Sketch 47.1 (45422) - http://www.bohemiancoding.com/sketch -->
    <title>huddle</title>
    <desc>Created with Sketch.</desc>
    <defs></defs>
    <g id="Page-1" stroke="none" stroke-width="1" fill="none" fill-rule="evenodd">
        <g id="huddle">
            <text id="UIX" font-family="Helvetica-Bold, Helvetica" font-size="22" font-weight="bold" fill="#273142">
                <tspan x="46" y="29">UIX</tspan>
            </text>
            <path d="M18.5011979,17.0056442 L16.8175303,17.3167697 L16.8175303,20.7535099 L18.5011979,20.4423844 C19.7361269,20.2150235 20.3368384,19.5413171 20.3368384,18.3853662 C20.3368384,17.9605602 20.3368384,16.6669961 18.5011979,17.0056442 Z M34.4152676,11.7799323 L18.0704088,0.085203159 C17.7688564,-0.130191423 17.3512302,0.0875964322 17.3512302,0.460947041 L17.3512302,5.62563046 L0.287192776,17.8337167 L0.268046591,17.8468797 C0.100517472,17.96774 0,18.1639884 0,18.3733998 L0,18.3769897 L0,30.2667706 L0,30.2727538 C0,30.4809686 0.099320835,30.6760203 0.268046591,30.795684 L0.287192776,30.8100436 L16.6320516,42.5047728 C16.933604,42.7201674 17.3512302,42.5023795 17.3512302,42.1302255 L17.3512302,36.9667388 L34.4152676,24.7574559 L34.4344138,24.7430962 C34.6031396,24.6234326 34.7036571,24.4271842 34.7036571,24.2189694 L34.7036571,24.2141829 L34.7036571,12.324402 L34.7036571,12.3184188 C34.7036571,12.1114006 34.6031396,11.9151523 34.4344138,11.7954886 L34.4152676,11.7799323 Z M23.4875825,21.3207157 C22.5003574,22.9720741 20.8154931,24.0287042 18.4784619,24.46069 L17.3512302,24.6689048 L16.8175303,24.767029 L16.8175303,30.4474628 C16.8175303,30.5228509 16.7576985,30.5970423 16.6859003,30.611402 L12.748966,31.3365637 C12.709477,31.3437435 12.6735779,31.3317772 12.6484485,31.3054512 C12.6233191,31.2779285 12.6149427,31.2372429 12.6233191,31.1953606 L12.8566633,30.0238534 L12.8566633,15.3530891 L12.6233191,14.2665431 C12.6149427,14.2282507 12.6245158,14.1851718 12.6484485,14.1468794 C12.6735779,14.1109804 12.7106736,14.0846543 12.748966,14.0774745 L17.3512302,13.2278626 L18.4796585,13.0196478 C20.8166897,12.5888586 22.501554,13.0196478 23.4887792,14.3012456 C24.3252281,15.3877916 24.4496783,16.8512781 24.4496783,17.6266986 C24.4496783,18.4045123 24.3252281,19.9194542 23.4875825,21.3207157 Z" id="Shape" fill="#02A2DF" fill-rule="nonzero"></path>
        </g>
    </g>
</svg>