<?xml version="1.0" encoding="UTF-8"?>
<svg width="170px" height="47px" viewBox="0 0 170 47" version="1.1" xmlns="http://www.w3.org/2000/svg" xmlns:xlink="http://www.w3.org/1999/xlink">
    <!-- Generator: Sketch 49.1 (51147) - http://www.bohemiancoding.com/sketch -->
    <title>Page 1</title>
    <desc>Created with Sketch.</desc>
    <defs>
        <polygon id="path-1" points="37.792596 46.6178862 7.6e-05 46.6178862 7.6e-05 0.108673171 37.792596 0.108673171 37.792596 46.6178862"></polygon>
    </defs>
    <g id="Page-1" stroke="none" stroke-width="1" fill="none" fill-rule="evenodd">
        <g id="Artboard-3" transform="translate(-188.000000, -179.000000)">
            <g id="Page-1" transform="translate(188.000000, 179.000000)">
                <path d="M47.2204678,31.0950174 L42,31.0950174 L42,11 L52.13742,11 C56.6901535,11 59.1789812,14.0428737 59.1789812,17.6882966 C59.1789812,21.3035921 56.6901535,24.3464658 52.13742,24.3464658 L47.2204678,24.3464658 L47.2204678,31.0950174 Z M51.3482795,19.8273465 C52.7444511,19.8273465 53.8674587,19.0440324 53.8674587,17.6882966 C53.8674587,16.3024334 52.7444511,15.5191194 51.3482795,15.5191194 L47.2204678,15.5191194 L47.2204678,19.8273465 L51.3482795,19.8273465 Z M66.061182,31.0950174 L61.3870422,31.0950174 L61.3870422,11 L66.061182,11 L66.061182,31.0950174 Z M82.7772872,31.0950174 L78.1031474,31.0950174 L78.1031474,29.6488992 C77.1926007,30.7334878 75.4322104,31.4565469 73.5504139,31.4565469 C71.3043987,31.4565469 68.5120555,29.9200463 68.5120555,26.6662804 C68.5120555,23.1413673 71.3043987,21.9663963 73.5504139,21.9663963 C75.4929135,21.9663963 77.2229523,22.599073 78.1031474,23.6836616 L78.1031474,22.2375435 C78.1031474,20.97219 77.0104914,20.0984936 75.1286948,20.0984936 C73.6718201,20.0984936 72.2149454,20.6709154 71.0312347,21.6651217 L69.3011959,18.4414832 C71.1829925,16.8447277 73.7021717,16.1819235 75.9481869,16.1819235 C79.4689675,16.1819235 82.7772872,17.4774044 82.7772872,21.9965238 L82.7772872,31.0950174 Z M75.4929135,28.4136732 C76.5248665,28.4136732 77.6175225,28.0521437 78.1031474,27.3592121 L78.1031474,26.0637312 C77.6175225,25.3707995 76.5248665,25.0393975 75.4929135,25.0393975 C74.2788513,25.0393975 73.1558436,25.5816918 73.1558436,26.7265353 C73.1558436,27.8713789 74.2788513,28.4136732 75.4929135,28.4136732 Z M85.8655434,36.7589803 L86.5332776,32.631518 C86.8671447,32.8122827 87.3224181,32.9026651 87.6866368,32.9026651 C88.7489413,32.9026651 89.4166755,32.6917729 89.6898395,32.0892236 L90.0237066,31.3059096 L84.1658562,16.5434531 L89.0828084,16.5434531 L92.4214796,25.7624565 L95.7297993,16.5434531 L100.677103,16.5434531 L94.0604637,33.1738123 C92.876753,36.2468134 90.6914409,36.9397451 87.8687461,37 C87.4438243,37 86.3511683,36.9096176 85.8655434,36.7589803 Z M106.739812,26.0637312 C107.316491,26.8470452 108.530554,27.3592121 109.532155,27.3592121 C111.3836,27.3592121 112.779772,26.0034762 112.779772,23.8041715 C112.779772,21.6349942 111.3836,20.2792584 109.532155,20.2792584 C108.530554,20.2792584 107.316491,20.8215527 106.739812,21.6048667 L106.739812,26.0637312 Z M106.739812,31.0950174 L102.065672,31.0950174 L102.065672,11 L106.739812,11 L106.739812,18.2607184 C107.893171,16.8146002 109.471452,16.1819235 111.080084,16.1819235 C114.752623,16.1819235 117.544966,19.0440324 117.544966,23.8041715 C117.544966,28.7450753 114.69192,31.4565469 111.080084,31.4565469 C109.4411,31.4565469 107.953874,30.7937428 106.739812,29.4078795 L106.739812,31.0950174 Z M127.007049,31.4565469 C122.029394,31.4565469 119.054941,27.9015064 119.054941,23.8041715 C119.054941,19.7068366 122.029394,16.1819235 127.007049,16.1819235 C132.045408,16.1819235 135.01986,19.7068366 135.01986,23.8041715 C135.01986,27.9015064 132.045408,31.4565469 127.007049,31.4565469 Z M127.007049,27.3592121 C129.070955,27.3592121 130.224314,25.7624565 130.224314,23.8041715 C130.224314,21.8760139 129.070955,20.2792584 127.007049,20.2792584 C125.003846,20.2792584 123.850487,21.8760139 123.850487,23.8041715 C123.850487,25.7624565 125.003846,27.3592121 127.007049,27.3592121 Z M144.481943,31.4565469 C139.504288,31.4565469 136.529835,27.9015064 136.529835,23.8041715 C136.529835,19.7068366 139.504288,16.1819235 144.481943,16.1819235 C149.520302,16.1819235 152.494754,19.7068366 152.494754,23.8041715 C152.494754,27.9015064 149.520302,31.4565469 144.481943,31.4565469 Z M144.481943,27.3592121 C146.545849,27.3592121 147.699208,25.7624565 147.699208,23.8041715 C147.699208,21.8760139 146.545849,20.2792584 144.481943,20.2792584 C142.478741,20.2792584 141.325381,21.8760139 141.325381,23.8041715 C141.325381,25.7624565 142.478741,27.3592121 144.481943,27.3592121 Z M170,31.0950174 L164.233204,31.0950174 L161.015939,25.9432213 L159.619768,27.6002317 L159.619768,31.0950174 L154.945628,31.0950174 L154.945628,11 L159.619768,11 L159.619768,22.3580533 L164.081446,16.5434531 L169.726836,16.5434531 L164.324259,23.1714948 L170,31.0950174 Z" id="Playbook" fill="#084975"></path>
                <g id="Group-10">
                    <g id="Group-3">
                        <mask id="mask-2" fill="white">
                            <use xlink:href="#path-1"></use>
                        </mask>
                        <g id="Clip-2"></g>
                        <path d="M19.333716,0.108673171 C17.835376,0.108673171 16.616716,1.34099024 16.616716,2.85530732 L16.616716,6.70472195 L1.207716,18.0592341 L1.192896,18.0703154 L1.178456,18.0810146 L1.170096,18.0875106 C0.436696,18.6369902 7.6e-05,19.5143236 7.6e-05,20.4394211 L7.6e-05,32.1706976 C7.6e-05,33.1042016 0.439736,33.9842098 1.177696,34.5336894 L1.191376,34.5436244 L1.199356,34.5497382 L1.207716,34.555852 L16.860676,46.0899577 C17.328456,46.4350065 17.881356,46.618039 18.458956,46.618039 C19.957676,46.618039 21.176716,45.3853398 21.176716,43.8706407 L21.176716,40.0219902 L36.584956,28.6670959 L36.600156,28.6563967 L36.614596,28.6453154 L36.621816,28.6395837 C37.355596,28.0901041 37.792596,27.2123886 37.792596,26.2869089 L37.792596,14.5560146 C37.792596,13.6206 37.352176,12.7402098 36.613076,12.1914943 L36.600156,12.1819415 L36.592936,12.1762098 L36.584956,12.170478 L20.931996,0.636372358 C20.464596,0.291705691 19.911696,0.108673171 19.333716,0.108673171 M19.333716,2.4013561 C19.418836,2.4013561 19.505476,2.42733984 19.584136,2.48580325 L35.237476,14.0199089 L35.256096,14.033665 C35.417216,14.1521203 35.512596,14.3450878 35.512596,14.5499008 L35.512596,14.5560146 L35.512596,26.2827057 L35.512596,26.2869089 C35.512596,26.4932504 35.416456,26.6858358 35.254956,26.8046732 L35.237476,26.817665 L18.896716,38.8596 L18.896716,43.8706407 C18.896716,44.1388846 18.685436,44.3253561 18.458956,44.3253561 C18.374216,44.3253561 18.287196,44.2986081 18.208156,44.2405268 L2.555576,32.7068033 L2.536956,32.692665 C2.375456,32.5738276 2.280076,32.3816244 2.280076,32.1768114 L2.280076,32.1706976 L2.280076,20.4440065 L2.280076,20.4394211 C2.280076,20.2334618 2.376216,20.0404943 2.537716,19.922039 L2.555576,19.9082829 L18.896716,7.86673008 L18.896716,2.85530732 C18.896716,2.58782764 19.107236,2.4013561 19.333716,2.4013561" id="Fill-1" fill="#00A9DE" mask="url(#mask-2)"></path>
                    </g>
                    <polygon id="Fill-4" fill="#00A9DE" points="13.839676 20.6939472 12.799996 19.6484837 10.043476 22.4203374 7.286956 19.6484837 6.247276 20.6939472 9.003416 23.4658008 6.247276 26.2380366 7.286956 27.2835 10.043476 24.5112642 12.799996 27.2835 13.839676 26.2380366 11.083156 23.4658008"></polygon>
                    <path d="M27.553838,18.9815041 C25.091058,18.9815041 23.094158,20.9891301 23.094158,23.4656098 C23.094158,25.9428537 25.091058,27.9504797 27.553838,27.9504797 C30.016618,27.9504797 32.013138,25.9428537 32.013138,23.4656098 C32.013138,20.9891301 30.016618,18.9815041 27.553838,18.9815041 M27.553838,20.4602846 C29.201898,20.4602846 30.542538,21.8083821 30.542538,23.4656098 C30.542538,25.1232195 29.201898,26.4716992 27.553838,26.4716992 C25.905398,26.4716992 24.564758,25.1232195 24.564758,23.4656098 C24.564758,21.8083821 25.905398,20.4602846 27.553838,20.4602846" id="Fill-6" fill="#00A9DE"></path>
                    <path d="M22.72628,21.6096829 L18.46192,16.9681463 L14.20744,21.6096829 L15.24902,22.5852195 L17.74942,19.8389675 L17.74942,27.8190325 C17.74942,28.2141382 18.06786,28.5343496 18.4604,28.5343496 C18.8537,28.5343496 19.17176,28.2141382 19.17176,27.8190325 L19.17176,19.8362927 L21.6847,22.5852195 L22.72628,21.6096829 Z" id="Fill-8" fill="#00A9DE"></path>
                </g>
            </g>
        </g>
    </g>
</svg>