<?xml version="1.0" encoding="UTF-8"?>
<svg width="1335px" height="443px" viewBox="0 0 1335 443" version="1.1" xmlns="http://www.w3.org/2000/svg" xmlns:xlink="http://www.w3.org/1999/xlink">
    <title>Artboard</title>
    <g id="Artboard" stroke="none" stroke-width="1" fill="none" fill-rule="evenodd">
        <rect id="Rectangle" fill="#0A0527" x="0" y="0" width="1335" height="443"></rect>
        <g id="Group-2" opacity="0.047712" transform="translate(65.000000, -21.000000)" fill="#FFFFFF">
            <polygon id="Line" fill-rule="nonzero" points="58.9870402 16.3226222 48.6124754 36.1491923 47.3804686 38.5036495 43 35.8548852 44.2320068 33.5004279 59.3097657 4.68570174 61.5 0.5 63.6902343 4.68570174 78.7679932 33.5004279 80 35.8548852 75.6195314 38.5036495 74.3875246 36.1491923 64.0129598 16.3226222 64.0129598 34.8248101 64.0129598 348.798619 64.0129598 351.5 58.9870402 351.5 58.9870402 348.798619 58.9870402 34.8248101 58.9870402 16.3226222"></polygon>
            <polygon id="Line-Copy" fill-rule="nonzero" points="452.659064 427.431062 430.257596 429.750643 427.597363 430.026099 427.053538 424.636294 429.713771 424.360838 462.270697 420.9897 467 420.5 464.957244 424.848628 450.894738 454.784953 449.745687 457.231056 444.916418 454.903005 446.065468 452.456902 455.741468 431.858593 440.943488 442.431076 293.267689 547.938713 291.082403 549.5 288 545.072469 290.185286 543.511182 437.861085 438.003545 452.659064 427.431062"></polygon>
            <path d="M202.095652,393.79899 L202.095652,373.90202 L188.321739,391.768687 C187.904348,392.174747 187.904348,392.174747 187.904348,393.79899 C187.904348,397.724242 191.104348,400.837374 195,400.837374 C198.895652,400.837374 202.095652,397.724242 202.095652,393.79899 Z M201.817391,360.231313 C202.095652,359.689899 202.095652,359.689899 202.095652,358.065657 C202.095652,354.275758 198.895652,351.162626 195,351.162626 C191.104348,351.162626 187.904348,354.275758 187.904348,358.065657 L187.904348,378.09798 L201.817391,360.231313 Z M211,357.930303 L211,393.79899 C211,402.461616 203.904348,409.5 195,409.5 C186.234783,409.5 179,402.461616 179,393.934343 L179,358.065657 C179,349.538384 186.095652,342.5 195,342.5 C203.765217,342.5 211,349.40303 211,357.930303 Z" id="0"></path>
            <path d="M256.095652,393.79899 L256.095652,373.90202 L242.321739,391.768687 C241.904348,392.174747 241.904348,392.174747 241.904348,393.79899 C241.904348,397.724242 245.104348,400.837374 249,400.837374 C252.895652,400.837374 256.095652,397.724242 256.095652,393.79899 Z M255.817391,360.231313 C256.095652,359.689899 256.095652,359.689899 256.095652,358.065657 C256.095652,354.275758 252.895652,351.162626 249,351.162626 C245.104348,351.162626 241.904348,354.275758 241.904348,358.065657 L241.904348,378.09798 L255.817391,360.231313 Z M265,357.930303 L265,393.79899 C265,402.461616 257.904348,409.5 249,409.5 C240.234783,409.5 233,402.461616 233,393.934343 L233,358.065657 C233,349.538384 240.095652,342.5 249,342.5 C257.765217,342.5 265,349.40303 265,357.930303 Z" id="0-copy"></path>
            <path d="M314.095652,393.79899 L314.095652,373.90202 L300.321739,391.768687 C299.904348,392.174747 299.904348,392.174747 299.904348,393.79899 C299.904348,397.724242 303.104348,400.837374 307,400.837374 C310.895652,400.837374 314.095652,397.724242 314.095652,393.79899 Z M313.817391,360.231313 C314.095652,359.689899 314.095652,359.689899 314.095652,358.065657 C314.095652,354.275758 310.895652,351.162626 307,351.162626 C303.104348,351.162626 299.904348,354.275758 299.904348,358.065657 L299.904348,378.09798 L313.817391,360.231313 Z M323,357.930303 L323,393.79899 C323,402.461616 315.904348,409.5 307,409.5 C298.234783,409.5 291,402.461616 291,393.934343 L291,358.065657 C291,349.538384 298.095652,342.5 307,342.5 C315.765217,342.5 323,349.40303 323,357.930303 Z" id="0-copy-2"></path>
            <path d="M371.095652,393.79899 L371.095652,373.90202 L357.321739,391.768687 C356.904348,392.174747 356.904348,392.174747 356.904348,393.79899 C356.904348,397.724242 360.104348,400.837374 364,400.837374 C367.895652,400.837374 371.095652,397.724242 371.095652,393.79899 Z M370.817391,360.231313 C371.095652,359.689899 371.095652,359.689899 371.095652,358.065657 C371.095652,354.275758 367.895652,351.162626 364,351.162626 C360.104348,351.162626 356.904348,354.275758 356.904348,358.065657 L356.904348,378.09798 L370.817391,360.231313 Z M380,357.930303 L380,393.79899 C380,402.461616 372.904348,409.5 364,409.5 C355.234783,409.5 348,402.461616 348,393.934343 L348,358.065657 C348,349.538384 355.095652,342.5 364,342.5 C372.765217,342.5 380,349.40303 380,357.930303 Z" id="0-copy-3"></path>
            <path d="M429.095652,393.79899 L429.095652,373.90202 L415.321739,391.768687 C414.904348,392.174747 414.904348,392.174747 414.904348,393.79899 C414.904348,397.724242 418.104348,400.837374 422,400.837374 C425.895652,400.837374 429.095652,397.724242 429.095652,393.79899 Z M428.817391,360.231313 C429.095652,359.689899 429.095652,359.689899 429.095652,358.065657 C429.095652,354.275758 425.895652,351.162626 422,351.162626 C418.104348,351.162626 414.904348,354.275758 414.904348,358.065657 L414.904348,378.09798 L428.817391,360.231313 Z M438,357.930303 L438,393.79899 C438,402.461616 430.904348,409.5 422,409.5 C413.234783,409.5 406,402.461616 406,393.934343 L406,358.065657 C406,349.538384 413.095652,342.5 422,342.5 C430.765217,342.5 438,349.40303 438,357.930303 Z" id="0-copy-4"></path>
            <path d="M519.095652,480.79899 L519.095652,460.90202 L505.321739,478.768687 C504.904348,479.174747 504.904348,479.174747 504.904348,480.79899 C504.904348,484.724242 508.104348,487.837374 512,487.837374 C515.895652,487.837374 519.095652,484.724242 519.095652,480.79899 Z M518.817391,447.231313 C519.095652,446.689899 519.095652,446.689899 519.095652,445.065657 C519.095652,441.275758 515.895652,438.162626 512,438.162626 C508.104348,438.162626 504.904348,441.275758 504.904348,445.065657 L504.904348,465.09798 L518.817391,447.231313 Z M528,444.930303 L528,480.79899 C528,489.461616 520.904348,496.5 512,496.5 C503.234783,496.5 496,489.461616 496,480.934343 L496,445.065657 C496,436.538384 503.095652,429.5 512,429.5 C520.765217,429.5 528,436.40303 528,444.930303 Z" id="0-copy-5"></path>
            <path d="M314.095652,480.79899 L314.095652,460.90202 L300.321739,478.768687 C299.904348,479.174747 299.904348,479.174747 299.904348,480.79899 C299.904348,484.724242 303.104348,487.837374 307,487.837374 C310.895652,487.837374 314.095652,484.724242 314.095652,480.79899 Z M313.817391,447.231313 C314.095652,446.689899 314.095652,446.689899 314.095652,445.065657 C314.095652,441.275758 310.895652,438.162626 307,438.162626 C303.104348,438.162626 299.904348,441.275758 299.904348,445.065657 L299.904348,465.09798 L313.817391,447.231313 Z M323,444.930303 L323,480.79899 C323,489.461616 315.904348,496.5 307,496.5 C298.234783,496.5 291,489.461616 291,480.934343 L291,445.065657 C291,436.538384 298.095652,429.5 307,429.5 C315.765217,429.5 323,436.40303 323,444.930303 Z" id="0-copy-6"></path>
            <path d="M202.095652,480.79899 L202.095652,460.90202 L188.321739,478.768687 C187.904348,479.174747 187.904348,479.174747 187.904348,480.79899 C187.904348,484.724242 191.104348,487.837374 195,487.837374 C198.895652,487.837374 202.095652,484.724242 202.095652,480.79899 Z M201.817391,447.231313 C202.095652,446.689899 202.095652,446.689899 202.095652,445.065657 C202.095652,441.275758 198.895652,438.162626 195,438.162626 C191.104348,438.162626 187.904348,441.275758 187.904348,445.065657 L187.904348,465.09798 L201.817391,447.231313 Z M211,444.930303 L211,480.79899 C211,489.461616 203.904348,496.5 195,496.5 C186.234783,496.5 179,489.461616 179,480.934343 L179,445.065657 C179,436.538384 186.095652,429.5 195,429.5 C203.765217,429.5 211,436.40303 211,444.930303 Z" id="0-copy-7"></path>
            <path d="M71.0956522,393.79899 L71.0956522,373.90202 L57.3217391,391.768687 C56.9043478,392.174747 56.9043478,392.174747 56.9043478,393.79899 C56.9043478,397.724242 60.1043478,400.837374 64,400.837374 C67.8956522,400.837374 71.0956522,397.724242 71.0956522,393.79899 Z M70.8173913,360.231313 C71.0956522,359.689899 71.0956522,359.689899 71.0956522,358.065657 C71.0956522,354.275758 67.8956522,351.162626 64,351.162626 C60.1043478,351.162626 56.9043478,354.275758 56.9043478,358.065657 L56.9043478,378.09798 L70.8173913,360.231313 Z M80,357.930303 L80,393.79899 C80,402.461616 72.9043478,409.5 64,409.5 C55.2347826,409.5 48,402.461616 48,393.934343 L48,358.065657 C48,349.538384 55.0956522,342.5 64,342.5 C72.7652174,342.5 80,349.40303 80,357.930303 Z" id="0-copy-9"></path>
            <path d="M194.151515,242.5 C196.727273,242.5 199,244.394949 199,246.831313 L199,307.334343 C199,308.417172 197.787879,309.5 196.575758,309.5 L191.727273,309.5 C190.363636,309.5 189.30303,308.417172 189.30303,307.334343 L189.30303,251.162626 L181.424242,251.162626 C180.060606,251.162626 179,250.215152 179,248.99697 L179,244.665657 C179,243.447475 180.060606,242.5 181.424242,242.5 L194.151515,242.5 Z" id="1"></path>
            <path d="M276.151515,242.5 C278.727273,242.5 281,244.394949 281,246.831313 L281,307.334343 C281,308.417172 279.787879,309.5 278.575758,309.5 L273.727273,309.5 C272.363636,309.5 271.30303,308.417172 271.30303,307.334343 L271.30303,251.162626 L263.424242,251.162626 C262.060606,251.162626 261,250.215152 261,248.99697 L261,244.665657 C261,243.447475 262.060606,242.5 263.424242,242.5 L276.151515,242.5 Z" id="1-copy"></path>
            <path d="M346.151515,242.5 C348.727273,242.5 351,244.394949 351,246.831313 L351,307.334343 C351,308.417172 349.787879,309.5 348.575758,309.5 L343.727273,309.5 C342.363636,309.5 341.30303,308.417172 341.30303,307.334343 L341.30303,251.162626 L333.424242,251.162626 C332.060606,251.162626 331,250.215152 331,248.99697 L331,244.665657 C331,243.447475 332.060606,242.5 333.424242,242.5 L346.151515,242.5 Z" id="1-copy-2"></path>
            <path d="M420.151515,242.5 C422.727273,242.5 425,244.394949 425,246.831313 L425,307.334343 C425,308.417172 423.787879,309.5 422.575758,309.5 L417.727273,309.5 C416.363636,309.5 415.30303,308.417172 415.30303,307.334343 L415.30303,251.162626 L407.424242,251.162626 C406.060606,251.162626 405,250.215152 405,248.99697 L405,244.665657 C405,243.447475 406.060606,242.5 407.424242,242.5 L420.151515,242.5 Z" id="1-copy-3"></path>
            <path d="M271.151515,127.5 C273.727273,127.5 276,129.394949 276,131.831313 L276,192.334343 C276,193.417172 274.787879,194.5 273.575758,194.5 L268.727273,194.5 C267.363636,194.5 266.30303,193.417172 266.30303,192.334343 L266.30303,136.162626 L258.424242,136.162626 C257.060606,136.162626 256,135.215152 256,133.99697 L256,129.665657 C256,128.447475 257.060606,127.5 258.424242,127.5 L271.151515,127.5 Z" id="1-copy-4"></path>
            <path d="M330.151515,127.5 C332.727273,127.5 335,129.394949 335,131.831313 L335,192.334343 C335,193.417172 333.787879,194.5 332.575758,194.5 L327.727273,194.5 C326.363636,194.5 325.30303,193.417172 325.30303,192.334343 L325.30303,136.162626 L317.424242,136.162626 C316.060606,136.162626 315,135.215152 315,133.99697 L315,129.665657 C315,128.447475 316.060606,127.5 317.424242,127.5 L330.151515,127.5 Z" id="1-copy-5"></path>
            <path d="M405.151515,27.5 C407.727273,27.5 410,29.3949495 410,31.8313131 L410,92.3343434 C410,93.4171717 408.787879,94.5 407.575758,94.5 L402.727273,94.5 C401.363636,94.5 400.30303,93.4171717 400.30303,92.3343434 L400.30303,36.1626263 L392.424242,36.1626263 C391.060606,36.1626263 390,35.2151515 390,33.9969697 L390,29.6656566 C390,28.4474747 391.060606,27.5 392.424242,27.5 L405.151515,27.5 Z" id="1-copy-8"></path>
            <path d="M206.151515,27.5 C208.727273,27.5 211,29.3949495 211,31.8313131 L211,92.3343434 C211,93.4171717 209.787879,94.5 208.575758,94.5 L203.727273,94.5 C202.363636,94.5 201.30303,93.4171717 201.30303,92.3343434 L201.30303,36.1626263 L193.424242,36.1626263 C192.060606,36.1626263 191,35.2151515 191,33.9969697 L191,29.6656566 C191,28.4474747 192.060606,27.5 193.424242,27.5 L206.151515,27.5 Z" id="1-copy-9"></path>
            <path d="M516.151515,185.5 C518.727273,185.5 521,187.394949 521,189.831313 L521,250.334343 C521,251.417172 519.787879,252.5 518.575758,252.5 L513.727273,252.5 C512.363636,252.5 511.30303,251.417172 511.30303,250.334343 L511.30303,194.162626 L503.424242,194.162626 C502.060606,194.162626 501,193.215152 501,191.99697 L501,187.665657 C501,186.447475 502.060606,185.5 503.424242,185.5 L516.151515,185.5 Z" id="1-copy-6"></path>
            <path d="M140.151515,204.5 C142.727273,204.5 145,206.394949 145,208.831313 L145,269.334343 C145,270.417172 143.787879,271.5 142.575758,271.5 L137.727273,271.5 C136.363636,271.5 135.30303,270.417172 135.30303,269.334343 L135.30303,213.162626 L127.424242,213.162626 C126.060606,213.162626 125,212.215152 125,210.99697 L125,206.665657 C125,205.447475 126.060606,204.5 127.424242,204.5 L140.151515,204.5 Z" id="1-copy-7"></path>
            <path d="M11.4626432,466.514269 L21.3886632,486.561438 L16.5214107,488.867605 L2.09553942,459.732274 L0,455.5 L4.78556687,455.945903 L37.7298155,459.015533 L37.2170131,464.282109 L14.5472529,462.169819 L29.4900844,472.331064 C111.06422,522.602483 199.844958,520.079481 296.258998,464.627842 L299,469.188421 C200.916148,525.600437 109.976387,528.184794 26.5055518,476.741313 L11.4626432,466.514269 L11.4626432,466.514269 Z" id="Path-2" fill-rule="nonzero"></path>
            <path d="M570.598516,144.328287 L550.60699,154.830528 L548.165075,149.980505 L577.219538,134.717189 L581.440064,132.5 L581.103382,137.33565 L578.785633,170.624674 L573.459859,170.237775 L575.054719,147.331364 L565.12418,162.697779 C505.633462,262.618416 514.546324,361.544256 592,460.085557 L587.836612,463.5 C509.010508,363.212612 499.87334,261.797154 560.6152,159.77869 L570.598516,144.328287 L570.598516,144.328287 Z" id="Path-2-Copy" fill-rule="nonzero" transform="translate(556.500000, 298.000000) scale(-1, 1) translate(-556.500000, -298.000000) "></path>
            <polygon id="Line-2" fill-rule="nonzero" points="506.973423 280.470275 436.7176 353.594721 434.887064 355.5 431 351.910986 432.830536 350.005707 503.086358 276.881261 494.664386 269.105065 492.720854 267.310558 496.381926 263.5 498.325458 265.294507 519.056468 284.435914 521 286.230421 517.338928 290.040979 515.395396 288.246472 506.973423 280.470275"></polygon>
            <polygon id="Line-2-Copy" fill-rule="nonzero" points="154.934169 285.737657 189.658546 346.325727 191 348.666334 186.567838 351.5 185.226384 349.159393 150.502007 288.571323 140.898989 294.710933 138.682908 296.127767 136 291.446553 138.216081 290.02972 161.854278 274.916833 164.070359 273.5 166.753268 278.181214 164.537187 279.598047 154.934169 285.737657"></polygon>
        </g>
    </g>
</svg>