<?xml version="1.0" encoding="UTF-8"?>
<svg width="1335px" height="576px" viewBox="0 0 1335 576" version="1.1" xmlns="http://www.w3.org/2000/svg" xmlns:xlink="http://www.w3.org/1999/xlink">
    <title>Page 1</title>
    <defs>
        <rect id="path-1" x="0" y="0" width="1454" height="84"></rect>
        <path d="M1454,0 L1454,84 L0,84 L0,0 L1454,0 Z M1453,1 L1,1 L1,83 L1453,83 L1453,1 Z" id="path-3"></path>
        <polygon id="path-5" points="38.4053049 47.2258065 7.72321429e-05 47.2258065 7.72321429e-05 0.110090323 38.4053049 0.110090323 38.4053049 47.2258065"></polygon>
    </defs>
    <g id="Page-1" stroke="none" stroke-width="1" fill="none" fill-rule="evenodd">
        <g id="Desktop-HD" transform="translate(730.000000, 538.000000)">
            <g id="Group-2" opacity="0.0709635417" transform="translate(174.000000, -22.000000)" fill="#FFFFFF">
                <polygon id="Line" fill-rule="nonzero" points="58.9870402 16.3226222 48.6124754 36.1491923 47.3804686 38.5036495 43 35.8548852 44.2320068 33.5004279 59.3097657 4.68570174 61.5 0.5 63.6902343 4.68570174 78.7679932 33.5004279 80 35.8548852 75.6195314 38.5036495 74.3875246 36.1491923 64.0129598 16.3226222 64.0129598 34.8248101 64.0129598 348.798619 64.0129598 351.5 58.9870402 351.5 58.9870402 348.798619 58.9870402 34.8248101 58.9870402 16.3226222"></polygon>
                <path d="M405.151515,27.5 C407.727273,27.5 410,29.3949495 410,31.8313131 L410,92.3343434 C410,93.4171717 408.787879,94.5 407.575758,94.5 L402.727273,94.5 C401.363636,94.5 400.30303,93.4171717 400.30303,92.3343434 L400.30303,36.1626263 L392.424242,36.1626263 C391.060606,36.1626263 390,35.2151515 390,33.9969697 L390,29.6656566 C390,28.4474747 391.060606,27.5 392.424242,27.5 L405.151515,27.5 Z" id="1-copy-8"></path>
                <path d="M206.151515,27.5 C208.727273,27.5 211,29.3949495 211,31.8313131 L211,92.3343434 C211,93.4171717 209.787879,94.5 208.575758,94.5 L203.727273,94.5 C202.363636,94.5 201.30303,93.4171717 201.30303,92.3343434 L201.30303,36.1626263 L193.424242,36.1626263 C192.060606,36.1626263 191,35.2151515 191,33.9969697 L191,29.6656566 C191,28.4474747 192.060606,27.5 193.424242,27.5 L206.151515,27.5 Z" id="1-copy-9"></path>
            </g>
            <g id="Group" transform="translate(-4.000000, -1.000000)">
                <g id="Elements/Cards/Card">
                    <g id="Mixins/Shadows/off"></g>
                    <g id="Mixins/Border-Radius/0">
                        <mask id="mask-2" fill="white">
                            <use xlink:href="#path-1"></use>
                        </mask>
                        <g id="Mask"></g>
                        <g id="Mixins/Fill/Interface/White" mask="url(#mask-2)" fill="#FFFFFF" fill-rule="evenodd">
                            <rect id="Box" x="0" y="0" width="1454" height="84"></rect>
                        </g>
                        <g id="Mixins/Hightlight_Side/None" mask="url(#mask-2)" fill="#00A3E0" fill-rule="evenodd" opacity="0">
                            <g id="Mixins/Fill/Main/Power-Blue">
                                <rect id="Box" x="0" y="0" width="4" height="84"></rect>
                            </g>
                        </g>
                        <mask id="mask-4" fill="white">
                            <use xlink:href="#path-3"></use>
                        </mask>
                        <use id="Combined-Shape" fill="#D8D8D8" fill-rule="evenodd" xlink:href="#path-3"></use>
                        <g id="Mixins/Fill/Interface/Sky" mask="url(#mask-4)" fill="#DFE3E8" fill-rule="evenodd">
                            <rect id="Rectangle" x="0" y="0" width="1454" height="84"></rect>
                        </g>
                    </g>
                </g>
                <g id="Tab-Navigation/Component/Tab/Link/Inactive" transform="translate(480.000000, 29.000000)">
                    <g id="Tab-Navigation/Component/Tab">
                        <g id="Group">
                            <g id="Tab-Navigation/Component/Tab-Text" fill="#273142" font-family="ProximaNova-Semibold, Proxima Nova" font-size="16" font-weight="500">
                                <g id="Group" transform="translate(27.000000, 0.000000)">
                                    <text id="Link-Title">
                                        <tspan x="0.152" y="16">Visual Guidelines</tspan>
                                    </text>
                                </g>
                            </g>
                            <g id="Mixins/Fill/Main/Power-Royal" transform="translate(0.000000, 51.000000)" fill="#0072CE">
                                <rect id="Box" x="0" y="0" width="178" height="3"></rect>
                            </g>
                        </g>
                    </g>
                </g>
                <g id="Tab-Navigation/Component/Tab/Link/Active" transform="translate(339.000000, 29.000000)" fill="#273142" font-family="ProximaNova-Semibold, Proxima Nova" font-size="16" font-weight="500">
                    <g id="Tab-Navigation/Component/Tab">
                        <g id="Group">
                            <g id="Tab-Navigation/Component/Tab-Text">
                                <g id="Group" transform="translate(23.000000, 0.000000)">
                                    <text id="Link-Title">
                                        <tspan x="0.68" y="16">Introduction</tspan>
                                    </text>
                                </g>
                            </g>
                        </g>
                    </g>
                </g>
            </g>
            <g id="Logo" transform="translate(133.000000, 17.000000)">
                <g id="Page-1">
                    <path d="M42.4590703,31.6616277 L42.4590703,11.0461122 L52.7573188,11.0461122 C57.3822807,11.0461122 59.9105932,14.1678019 59.9105932,17.9076481 C59.9105932,21.6165864 57.3822807,24.7382762 52.7573188,24.7382762 L47.7623599,24.7382762 L47.7623599,31.6616277 L42.4590703,31.6616277 Z M54.5148043,17.9076481 C54.5148043,16.4858884 53.4664796,15.6822851 52.048158,15.6822851 L47.7623599,15.6822851 L47.7623599,20.1021032 L52.048158,20.1021032 C53.4664796,20.1021032 54.5148043,19.2984999 54.5148043,17.9076481 Z M62.1536848,31.6616277 L62.1536848,11.0461122 L66.9019791,11.0461122 L66.9019791,31.6616277 L62.1536848,31.6616277 Z M79.1349884,31.6616277 L79.1349884,30.1780524 C78.209996,31.2907339 76.4216774,32.0325215 74.5100265,32.0325215 C72.2283786,32.0325215 69.3917353,30.4871306 69.3917353,27.1181782 C69.3917353,23.5019634 72.2283786,22.4201897 74.5100265,22.4201897 C76.4833436,22.4201897 78.2408291,23.0383461 79.1349884,24.1510276 L79.1349884,22.2656506 C79.1349884,20.9675222 78.0249975,20.1021032 76.1133466,20.1021032 C74.6333588,20.1021032 73.0917048,20.658444 71.8892147,21.678402 L70.1933953,18.6803436 C72.1050463,17.0422291 74.6641919,16.3622571 76.9458398,16.3622571 C80.522477,16.3622571 83.8832826,17.6912933 83.8832826,22.3274662 L83.8832826,31.6616277 L79.1349884,31.6616277 Z M79.1349884,27.8290581 L79.1349884,26.5000219 C78.6416591,25.8200498 77.5316683,25.449156 76.4833436,25.449156 C75.2191873,25.449156 74.1091964,26.0054967 74.1091964,27.1799939 C74.1091964,28.354491 75.2191873,28.9108318 76.4833436,28.9108318 C77.5316683,28.9108318 78.6416591,28.5399379 79.1349884,27.8290581 Z M87.6988613,33.2379265 C88.0380251,33.4233734 88.5005213,33.5160968 88.8705183,33.5160968 C89.9496761,33.5160968 90.6280038,33.2997421 90.8746685,32.6815857 L91.2138323,31.8779824 L85.2938811,16.7331509 L90.2888399,16.7331509 L93.6496456,26.1909437 L97.0412843,16.7331509 L102.067076,16.7331509 L95.345465,33.7942672 C94.1429749,36.9468648 91.8921601,37.6577446 89.0555168,37.7195603 C88.6238537,37.7195603 87.5138628,37.6268368 87.0205335,37.4722977 L87.6988613,33.2379265 Z M103.477675,31.6616277 L103.477675,11.0461122 L108.225969,11.0461122 L108.225969,18.4948966 C109.397626,17.0113213 111.000946,16.3622571 112.635099,16.3622571 C116.335069,16.3622571 119.202545,19.2984999 119.202545,24.1819354 C119.202545,29.2508178 116.304236,32.0325215 112.635099,32.0325215 C110.970113,32.0325215 109.459292,31.3525495 108.225969,29.9307898 L108.225969,31.6616277 L103.477675,31.6616277 Z M108.225969,26.5000219 C108.811797,27.3036252 110.045121,27.8290581 111.062612,27.8290581 C112.94343,27.8290581 114.361752,26.4382062 114.361752,24.1819354 C114.361752,21.9565724 112.94343,20.5657205 111.062612,20.5657205 C110.045121,20.5657205 108.811797,21.1220613 108.225969,21.9256646 L108.225969,26.5000219 Z M128.814743,32.0325215 C123.758118,32.0325215 120.705643,28.3853988 120.705643,24.1819354 C120.705643,19.978472 123.758118,16.3622571 128.814743,16.3622571 C133.933034,16.3622571 136.954676,19.978472 136.954676,24.1819354 C136.954676,28.3853988 133.933034,32.0325215 128.814743,32.0325215 Z M128.814743,27.8290581 C130.911392,27.8290581 132.083049,26.1909437 132.083049,24.1819354 C132.083049,22.203835 130.911392,20.5657205 128.814743,20.5657205 C126.748927,20.5657205 125.608103,22.203835 125.608103,24.1819354 C125.608103,26.1909437 126.748927,27.8290581 128.814743,27.8290581 Z M146.566873,32.0325215 C141.510248,32.0325215 138.457774,28.3853988 138.457774,24.1819354 C138.457774,19.978472 141.510248,16.3622571 146.566873,16.3622571 C151.685165,16.3622571 154.706806,19.978472 154.706806,24.1819354 C154.706806,28.3853988 151.685165,32.0325215 146.566873,32.0325215 Z M146.566873,27.8290581 C148.663523,27.8290581 149.83518,26.1909437 149.83518,24.1819354 C149.83518,22.203835 148.663523,20.5657205 146.566873,20.5657205 C144.501057,20.5657205 143.360233,22.203835 143.360233,24.1819354 C143.360233,26.1909437 144.501057,27.8290581 146.566873,27.8290581 Z M166.631485,31.6616277 L163.363178,26.3763906 L161.944857,28.0763206 L161.944857,31.6616277 L157.196563,31.6616277 L157.196563,11.0461122 L161.944857,11.0461122 L161.944857,22.6983601 L166.47732,16.7331509 L172.212272,16.7331509 L166.723984,23.5328712 L172.48977,31.6616277 L166.631485,31.6616277 Z" id="Playbook" fill="#084975"></path>
                    <g id="Group-10" transform="translate(0.000000, 0.277161)">
                        <g id="Group-3">
                            <mask id="mask-6" fill="white">
                                <use xlink:href="#path-5"></use>
                            </mask>
                            <g id="Clip-2"></g>
                            <path d="M19.6471621,0.110090323 C18.1245304,0.110090323 16.8861129,1.35847742 16.8861129,2.89254194 L16.8861129,6.79215484 L1.22729598,18.2947355 L1.21223571,18.3059613 L1.19756161,18.3168 L1.18906607,18.3233806 C0.443775893,18.8800258 7.72321429e-05,19.7688 7.72321429e-05,20.7059613 L7.72321429e-05,32.5902194 C7.72321429e-05,33.5358968 0.446865179,34.4273806 1.19678929,34.9840258 L1.21069107,34.9940903 L1.21880045,35.0002839 L1.22729598,35.0064774 L17.1340281,46.6909935 C17.609392,47.0405419 18.1712558,47.2259613 18.7582201,47.2259613 C20.2812379,47.2259613 21.5200415,45.9771871 21.5200415,44.4427355 L21.5200415,40.5438968 L37.1780862,29.040929 L37.1935326,29.0300903 L37.2082067,29.0188645 L37.2155438,29.0130581 C37.9612201,28.4564129 38.4053049,27.5672516 38.4053049,26.6297032 L38.4053049,14.7458323 C38.4053049,13.7982194 37.9577446,12.9063484 37.2066621,12.3504774 L37.1935326,12.3408 L37.1861955,12.3349935 L37.1780862,12.3291871 L21.271354,0.644670968 C20.7963763,0.295509677 20.2345125,0.110090323 19.6471621,0.110090323 M19.6471621,2.43267097 C19.7336621,2.43267097 19.8217067,2.45899355 19.901642,2.51821935 L35.8087603,14.2027355 L35.8276821,14.216671 C35.9914143,14.336671 36.0883406,14.5321548 36.0883406,14.7396387 L36.0883406,14.7458323 L36.0883406,26.6254452 L36.0883406,26.6297032 C36.0883406,26.8387355 35.990642,27.0338323 35.8265237,27.1542194 L35.8087603,27.1673806 L19.2030772,39.3663484 L19.2030772,44.4427355 C19.2030772,44.7144774 18.9883719,44.9033806 18.7582201,44.9033806 C18.6721063,44.9033806 18.5836754,44.8762839 18.503354,44.8174452 L2.59700804,33.1333161 L2.57808616,33.1189935 C2.41396786,32.9986065 2.31704152,32.8038968 2.31704152,32.5964129 L2.31704152,32.5902194 L2.31704152,20.7106065 L2.31704152,20.7059613 C2.31704152,20.4973161 2.41474018,20.3018323 2.57885848,20.1818323 L2.59700804,20.1678968 L19.2030772,7.96931613 L19.2030772,2.89254194 C19.2030772,2.62157419 19.4170103,2.43267097 19.6471621,2.43267097" id="Fill-1" fill="#00A9DE" mask="url(#mask-6)"></path>
                        </g>
                        <polygon id="Fill-4" fill="#00A9DE" points="14.0640504 20.9638065 13.0075147 19.9047097 10.2063049 22.7127097 7.40509509 19.9047097 6.34855938 20.9638065 9.14938304 23.7718065 6.34855938 26.5801935 7.40509509 27.6392903 10.2063049 24.8309032 13.0075147 27.6392903 14.0640504 26.5801935 11.2628406 23.7718065"></polygon>
                        <path d="M28.000552,19.2290323 C25.4978444,19.2290323 23.4685699,21.2628387 23.4685699,23.7716129 C23.4685699,26.2811613 25.4978444,28.3149677 28.000552,28.3149677 C30.5032596,28.3149677 32.532148,26.2811613 32.532148,23.7716129 C32.532148,21.2628387 30.5032596,19.2290323 28.000552,19.2290323 M28.000552,20.7270968 C29.675331,20.7270968 31.037706,22.0927742 31.037706,23.7716129 C31.037706,25.4508387 29.675331,26.8169032 28.000552,26.8169032 C26.3253868,26.8169032 24.9630118,25.4508387 24.9630118,23.7716129 C24.9630118,22.0927742 26.3253868,20.7270968 28.000552,20.7270968" id="Fill-6" fill="#00A9DE"></path>
                        <path d="M23.0947277,21.8914839 L18.7612321,17.1894194 L14.4377768,21.8914839 L15.4962433,22.8797419 L18.0371808,20.0976774 L18.0371808,28.1818065 C18.0371808,28.5820645 18.3607835,28.9064516 18.7596875,28.9064516 C19.1593638,28.9064516 19.4825804,28.5820645 19.4825804,28.1818065 L19.4825804,20.0949677 L22.0362612,22.8797419 L23.0947277,21.8914839 Z" id="Fill-8" fill="#00A9DE"></path>
                    </g>
                </g>
            </g>
        </g>
        <g id="Artboard" transform="translate(0.000000, 21.000000)">
            <rect id="Rectangle" fill="#0A0527" x="0" y="0" width="1335" height="443"></rect>
            <g id="Group-2" opacity="0.047712" transform="translate(65.000000, -21.000000)" fill="#FFFFFF">
                <polygon id="Line" fill-rule="nonzero" points="58.9870402 16.3226222 48.6124754 36.1491923 47.3804686 38.5036495 43 35.8548852 44.2320068 33.5004279 59.3097657 4.68570174 61.5 0.5 63.6902343 4.68570174 78.7679932 33.5004279 80 35.8548852 75.6195314 38.5036495 74.3875246 36.1491923 64.0129598 16.3226222 64.0129598 34.8248101 64.0129598 348.798619 64.0129598 351.5 58.9870402 351.5 58.9870402 348.798619 58.9870402 34.8248101 58.9870402 16.3226222"></polygon>
                <polygon id="Line-Copy" fill-rule="nonzero" points="452.659064 427.431062 430.257596 429.750643 427.597363 430.026099 427.053538 424.636294 429.713771 424.360838 462.270697 420.9897 467 420.5 464.957244 424.848628 450.894738 454.784953 449.745687 457.231056 444.916418 454.903005 446.065468 452.456902 455.741468 431.858593 440.943488 442.431076 293.267689 547.938713 291.082403 549.5 288 545.072469 290.185286 543.511182 437.861085 438.003545 452.659064 427.431062"></polygon>
                <path d="M202.095652,393.79899 L202.095652,373.90202 L188.321739,391.768687 C187.904348,392.174747 187.904348,392.174747 187.904348,393.79899 C187.904348,397.724242 191.104348,400.837374 195,400.837374 C198.895652,400.837374 202.095652,397.724242 202.095652,393.79899 Z M201.817391,360.231313 C202.095652,359.689899 202.095652,359.689899 202.095652,358.065657 C202.095652,354.275758 198.895652,351.162626 195,351.162626 C191.104348,351.162626 187.904348,354.275758 187.904348,358.065657 L187.904348,378.09798 L201.817391,360.231313 Z M211,357.930303 L211,393.79899 C211,402.461616 203.904348,409.5 195,409.5 C186.234783,409.5 179,402.461616 179,393.934343 L179,358.065657 C179,349.538384 186.095652,342.5 195,342.5 C203.765217,342.5 211,349.40303 211,357.930303 Z" id="0"></path>
                <path d="M256.095652,393.79899 L256.095652,373.90202 L242.321739,391.768687 C241.904348,392.174747 241.904348,392.174747 241.904348,393.79899 C241.904348,397.724242 245.104348,400.837374 249,400.837374 C252.895652,400.837374 256.095652,397.724242 256.095652,393.79899 Z M255.817391,360.231313 C256.095652,359.689899 256.095652,359.689899 256.095652,358.065657 C256.095652,354.275758 252.895652,351.162626 249,351.162626 C245.104348,351.162626 241.904348,354.275758 241.904348,358.065657 L241.904348,378.09798 L255.817391,360.231313 Z M265,357.930303 L265,393.79899 C265,402.461616 257.904348,409.5 249,409.5 C240.234783,409.5 233,402.461616 233,393.934343 L233,358.065657 C233,349.538384 240.095652,342.5 249,342.5 C257.765217,342.5 265,349.40303 265,357.930303 Z" id="0-copy"></path>
                <path d="M314.095652,393.79899 L314.095652,373.90202 L300.321739,391.768687 C299.904348,392.174747 299.904348,392.174747 299.904348,393.79899 C299.904348,397.724242 303.104348,400.837374 307,400.837374 C310.895652,400.837374 314.095652,397.724242 314.095652,393.79899 Z M313.817391,360.231313 C314.095652,359.689899 314.095652,359.689899 314.095652,358.065657 C314.095652,354.275758 310.895652,351.162626 307,351.162626 C303.104348,351.162626 299.904348,354.275758 299.904348,358.065657 L299.904348,378.09798 L313.817391,360.231313 Z M323,357.930303 L323,393.79899 C323,402.461616 315.904348,409.5 307,409.5 C298.234783,409.5 291,402.461616 291,393.934343 L291,358.065657 C291,349.538384 298.095652,342.5 307,342.5 C315.765217,342.5 323,349.40303 323,357.930303 Z" id="0-copy-2"></path>
                <path d="M371.095652,393.79899 L371.095652,373.90202 L357.321739,391.768687 C356.904348,392.174747 356.904348,392.174747 356.904348,393.79899 C356.904348,397.724242 360.104348,400.837374 364,400.837374 C367.895652,400.837374 371.095652,397.724242 371.095652,393.79899 Z M370.817391,360.231313 C371.095652,359.689899 371.095652,359.689899 371.095652,358.065657 C371.095652,354.275758 367.895652,351.162626 364,351.162626 C360.104348,351.162626 356.904348,354.275758 356.904348,358.065657 L356.904348,378.09798 L370.817391,360.231313 Z M380,357.930303 L380,393.79899 C380,402.461616 372.904348,409.5 364,409.5 C355.234783,409.5 348,402.461616 348,393.934343 L348,358.065657 C348,349.538384 355.095652,342.5 364,342.5 C372.765217,342.5 380,349.40303 380,357.930303 Z" id="0-copy-3"></path>
                <path d="M429.095652,393.79899 L429.095652,373.90202 L415.321739,391.768687 C414.904348,392.174747 414.904348,392.174747 414.904348,393.79899 C414.904348,397.724242 418.104348,400.837374 422,400.837374 C425.895652,400.837374 429.095652,397.724242 429.095652,393.79899 Z M428.817391,360.231313 C429.095652,359.689899 429.095652,359.689899 429.095652,358.065657 C429.095652,354.275758 425.895652,351.162626 422,351.162626 C418.104348,351.162626 414.904348,354.275758 414.904348,358.065657 L414.904348,378.09798 L428.817391,360.231313 Z M438,357.930303 L438,393.79899 C438,402.461616 430.904348,409.5 422,409.5 C413.234783,409.5 406,402.461616 406,393.934343 L406,358.065657 C406,349.538384 413.095652,342.5 422,342.5 C430.765217,342.5 438,349.40303 438,357.930303 Z" id="0-copy-4"></path>
                <path d="M519.095652,480.79899 L519.095652,460.90202 L505.321739,478.768687 C504.904348,479.174747 504.904348,479.174747 504.904348,480.79899 C504.904348,484.724242 508.104348,487.837374 512,487.837374 C515.895652,487.837374 519.095652,484.724242 519.095652,480.79899 Z M518.817391,447.231313 C519.095652,446.689899 519.095652,446.689899 519.095652,445.065657 C519.095652,441.275758 515.895652,438.162626 512,438.162626 C508.104348,438.162626 504.904348,441.275758 504.904348,445.065657 L504.904348,465.09798 L518.817391,447.231313 Z M528,444.930303 L528,480.79899 C528,489.461616 520.904348,496.5 512,496.5 C503.234783,496.5 496,489.461616 496,480.934343 L496,445.065657 C496,436.538384 503.095652,429.5 512,429.5 C520.765217,429.5 528,436.40303 528,444.930303 Z" id="0-copy-5"></path>
                <path d="M314.095652,480.79899 L314.095652,460.90202 L300.321739,478.768687 C299.904348,479.174747 299.904348,479.174747 299.904348,480.79899 C299.904348,484.724242 303.104348,487.837374 307,487.837374 C310.895652,487.837374 314.095652,484.724242 314.095652,480.79899 Z M313.817391,447.231313 C314.095652,446.689899 314.095652,446.689899 314.095652,445.065657 C314.095652,441.275758 310.895652,438.162626 307,438.162626 C303.104348,438.162626 299.904348,441.275758 299.904348,445.065657 L299.904348,465.09798 L313.817391,447.231313 Z M323,444.930303 L323,480.79899 C323,489.461616 315.904348,496.5 307,496.5 C298.234783,496.5 291,489.461616 291,480.934343 L291,445.065657 C291,436.538384 298.095652,429.5 307,429.5 C315.765217,429.5 323,436.40303 323,444.930303 Z" id="0-copy-6"></path>
                <path d="M202.095652,480.79899 L202.095652,460.90202 L188.321739,478.768687 C187.904348,479.174747 187.904348,479.174747 187.904348,480.79899 C187.904348,484.724242 191.104348,487.837374 195,487.837374 C198.895652,487.837374 202.095652,484.724242 202.095652,480.79899 Z M201.817391,447.231313 C202.095652,446.689899 202.095652,446.689899 202.095652,445.065657 C202.095652,441.275758 198.895652,438.162626 195,438.162626 C191.104348,438.162626 187.904348,441.275758 187.904348,445.065657 L187.904348,465.09798 L201.817391,447.231313 Z M211,444.930303 L211,480.79899 C211,489.461616 203.904348,496.5 195,496.5 C186.234783,496.5 179,489.461616 179,480.934343 L179,445.065657 C179,436.538384 186.095652,429.5 195,429.5 C203.765217,429.5 211,436.40303 211,444.930303 Z" id="0-copy-7"></path>
                <path d="M71.0956522,393.79899 L71.0956522,373.90202 L57.3217391,391.768687 C56.9043478,392.174747 56.9043478,392.174747 56.9043478,393.79899 C56.9043478,397.724242 60.1043478,400.837374 64,400.837374 C67.8956522,400.837374 71.0956522,397.724242 71.0956522,393.79899 Z M70.8173913,360.231313 C71.0956522,359.689899 71.0956522,359.689899 71.0956522,358.065657 C71.0956522,354.275758 67.8956522,351.162626 64,351.162626 C60.1043478,351.162626 56.9043478,354.275758 56.9043478,358.065657 L56.9043478,378.09798 L70.8173913,360.231313 Z M80,357.930303 L80,393.79899 C80,402.461616 72.9043478,409.5 64,409.5 C55.2347826,409.5 48,402.461616 48,393.934343 L48,358.065657 C48,349.538384 55.0956522,342.5 64,342.5 C72.7652174,342.5 80,349.40303 80,357.930303 Z" id="0-copy-9"></path>
                <path d="M282.095652,559.79899 L282.095652,539.90202 L268.321739,557.768687 C267.904348,558.174747 267.904348,558.174747 267.904348,559.79899 C267.904348,563.724242 271.104348,566.837374 275,566.837374 C278.895652,566.837374 282.095652,563.724242 282.095652,559.79899 Z M281.817391,526.231313 C282.095652,525.689899 282.095652,525.689899 282.095652,524.065657 C282.095652,520.275758 278.895652,517.162626 275,517.162626 C271.104348,517.162626 267.904348,520.275758 267.904348,524.065657 L267.904348,544.09798 L281.817391,526.231313 Z M291,523.930303 L291,559.79899 C291,568.461616 283.904348,575.5 275,575.5 C266.234783,575.5 259,568.461616 259,559.934343 L259,524.065657 C259,515.538384 266.095652,508.5 275,508.5 C283.765217,508.5 291,515.40303 291,523.930303 Z" id="0-copy-8"></path>
                <path d="M194.151515,242.5 C196.727273,242.5 199,244.394949 199,246.831313 L199,307.334343 C199,308.417172 197.787879,309.5 196.575758,309.5 L191.727273,309.5 C190.363636,309.5 189.30303,308.417172 189.30303,307.334343 L189.30303,251.162626 L181.424242,251.162626 C180.060606,251.162626 179,250.215152 179,248.99697 L179,244.665657 C179,243.447475 180.060606,242.5 181.424242,242.5 L194.151515,242.5 Z" id="1"></path>
                <path d="M276.151515,242.5 C278.727273,242.5 281,244.394949 281,246.831313 L281,307.334343 C281,308.417172 279.787879,309.5 278.575758,309.5 L273.727273,309.5 C272.363636,309.5 271.30303,308.417172 271.30303,307.334343 L271.30303,251.162626 L263.424242,251.162626 C262.060606,251.162626 261,250.215152 261,248.99697 L261,244.665657 C261,243.447475 262.060606,242.5 263.424242,242.5 L276.151515,242.5 Z" id="1-copy"></path>
                <path d="M346.151515,242.5 C348.727273,242.5 351,244.394949 351,246.831313 L351,307.334343 C351,308.417172 349.787879,309.5 348.575758,309.5 L343.727273,309.5 C342.363636,309.5 341.30303,308.417172 341.30303,307.334343 L341.30303,251.162626 L333.424242,251.162626 C332.060606,251.162626 331,250.215152 331,248.99697 L331,244.665657 C331,243.447475 332.060606,242.5 333.424242,242.5 L346.151515,242.5 Z" id="1-copy-2"></path>
                <path d="M420.151515,242.5 C422.727273,242.5 425,244.394949 425,246.831313 L425,307.334343 C425,308.417172 423.787879,309.5 422.575758,309.5 L417.727273,309.5 C416.363636,309.5 415.30303,308.417172 415.30303,307.334343 L415.30303,251.162626 L407.424242,251.162626 C406.060606,251.162626 405,250.215152 405,248.99697 L405,244.665657 C405,243.447475 406.060606,242.5 407.424242,242.5 L420.151515,242.5 Z" id="1-copy-3"></path>
                <path d="M271.151515,127.5 C273.727273,127.5 276,129.394949 276,131.831313 L276,192.334343 C276,193.417172 274.787879,194.5 273.575758,194.5 L268.727273,194.5 C267.363636,194.5 266.30303,193.417172 266.30303,192.334343 L266.30303,136.162626 L258.424242,136.162626 C257.060606,136.162626 256,135.215152 256,133.99697 L256,129.665657 C256,128.447475 257.060606,127.5 258.424242,127.5 L271.151515,127.5 Z" id="1-copy-4"></path>
                <path d="M330.151515,127.5 C332.727273,127.5 335,129.394949 335,131.831313 L335,192.334343 C335,193.417172 333.787879,194.5 332.575758,194.5 L327.727273,194.5 C326.363636,194.5 325.30303,193.417172 325.30303,192.334343 L325.30303,136.162626 L317.424242,136.162626 C316.060606,136.162626 315,135.215152 315,133.99697 L315,129.665657 C315,128.447475 316.060606,127.5 317.424242,127.5 L330.151515,127.5 Z" id="1-copy-5"></path>
                <path d="M405.151515,27.5 C407.727273,27.5 410,29.3949495 410,31.8313131 L410,92.3343434 C410,93.4171717 408.787879,94.5 407.575758,94.5 L402.727273,94.5 C401.363636,94.5 400.30303,93.4171717 400.30303,92.3343434 L400.30303,36.1626263 L392.424242,36.1626263 C391.060606,36.1626263 390,35.2151515 390,33.9969697 L390,29.6656566 C390,28.4474747 391.060606,27.5 392.424242,27.5 L405.151515,27.5 Z" id="1-copy-8"></path>
                <path d="M206.151515,27.5 C208.727273,27.5 211,29.3949495 211,31.8313131 L211,92.3343434 C211,93.4171717 209.787879,94.5 208.575758,94.5 L203.727273,94.5 C202.363636,94.5 201.30303,93.4171717 201.30303,92.3343434 L201.30303,36.1626263 L193.424242,36.1626263 C192.060606,36.1626263 191,35.2151515 191,33.9969697 L191,29.6656566 C191,28.4474747 192.060606,27.5 193.424242,27.5 L206.151515,27.5 Z" id="1-copy-9"></path>
                <path d="M516.151515,185.5 C518.727273,185.5 521,187.394949 521,189.831313 L521,250.334343 C521,251.417172 519.787879,252.5 518.575758,252.5 L513.727273,252.5 C512.363636,252.5 511.30303,251.417172 511.30303,250.334343 L511.30303,194.162626 L503.424242,194.162626 C502.060606,194.162626 501,193.215152 501,191.99697 L501,187.665657 C501,186.447475 502.060606,185.5 503.424242,185.5 L516.151515,185.5 Z" id="1-copy-6"></path>
                <path d="M140.151515,204.5 C142.727273,204.5 145,206.394949 145,208.831313 L145,269.334343 C145,270.417172 143.787879,271.5 142.575758,271.5 L137.727273,271.5 C136.363636,271.5 135.30303,270.417172 135.30303,269.334343 L135.30303,213.162626 L127.424242,213.162626 C126.060606,213.162626 125,212.215152 125,210.99697 L125,206.665657 C125,205.447475 126.060606,204.5 127.424242,204.5 L140.151515,204.5 Z" id="1-copy-7"></path>
                <path d="M11.4626432,466.514269 L21.3886632,486.561438 L16.5214107,488.867605 L2.09553942,459.732274 L0,455.5 L4.78556687,455.945903 L37.7298155,459.015533 L37.2170131,464.282109 L14.5472529,462.169819 L29.4900844,472.331064 C111.06422,522.602483 199.844958,520.079481 296.258998,464.627842 L299,469.188421 C200.916148,525.600437 109.976387,528.184794 26.5055518,476.741313 L11.4626432,466.514269 L11.4626432,466.514269 Z" id="Path-2" fill-rule="nonzero"></path>
                <path d="M570.598516,144.328287 L550.60699,154.830528 L548.165075,149.980505 L577.219538,134.717189 L581.440064,132.5 L581.103382,137.33565 L578.785633,170.624674 L573.459859,170.237775 L575.054719,147.331364 L565.12418,162.697779 C505.633462,262.618416 514.546324,361.544256 592,460.085557 L587.836612,463.5 C509.010508,363.212612 499.87334,261.797154 560.6152,159.77869 L570.598516,144.328287 L570.598516,144.328287 Z" id="Path-2-Copy" fill-rule="nonzero" transform="translate(556.500000, 298.000000) scale(-1, 1) translate(-556.500000, -298.000000) "></path>
                <polygon id="Line-2" fill-rule="nonzero" points="506.973423 280.470275 436.7176 353.594721 434.887064 355.5 431 351.910986 432.830536 350.005707 503.086358 276.881261 494.664386 269.105065 492.720854 267.310558 496.381926 263.5 498.325458 265.294507 519.056468 284.435914 521 286.230421 517.338928 290.040979 515.395396 288.246472 506.973423 280.470275"></polygon>
                <polygon id="Line-2-Copy" fill-rule="nonzero" points="154.934169 285.737657 189.658546 346.325727 191 348.666334 186.567838 351.5 185.226384 349.159393 150.502007 288.571323 140.898989 294.710933 138.682908 296.127767 136 291.446553 138.216081 290.02972 161.854278 274.916833 164.070359 273.5 166.753268 278.181214 164.537187 279.598047 154.934169 285.737657"></polygon>
            </g>
        </g>
    </g>
</svg>