<?xml version="1.0" encoding="UTF-8"?>
<svg width="15px" height="12px" viewBox="0 0 15 12" version="1.1" xmlns="http://www.w3.org/2000/svg" xmlns:xlink="http://www.w3.org/1999/xlink">
    <!-- Generator: Sketch 52.5 (67469) - http://www.bohemiancoding.com/sketch -->
    <title>check</title>
    <desc>Created with Sketch.</desc>
    <g id="Icons" stroke="none" stroke-width="1" fill="none" fill-rule="evenodd">
        <g id="Branding" transform="translate(-432.000000, -324.000000)" fill="#FFFFFF">
            <path d="M445.124968,324.593777 C445.187467,324.531277 445.270801,324.500027 445.374967,324.500027 C445.479133,324.500027 445.572883,324.531277 445.656216,324.593777 L446.531214,325.500025 C446.614547,325.562525 446.656214,325.645858 446.656214,325.750024 C446.656214,325.854191 446.614547,325.94794 446.531214,326.031274 L437.156237,335.406251 C437.093737,335.468751 437.010403,335.500001 436.906237,335.500001 C436.802071,335.500001 436.708321,335.468751 436.624988,335.406251 L432.468748,331.218761 C432.385414,331.156262 432.343748,331.072928 432.343748,330.968762 C432.343748,330.864596 432.385414,330.770846 432.468748,330.687513 L433.343746,329.812515 C433.427079,329.729181 433.520829,329.687515 433.624995,329.687515 C433.729161,329.687515 433.812494,329.729181 433.874994,329.812515 L436.906237,332.843758 L445.124968,324.593777 Z" id="check"></path>
        </g>
    </g>
</svg>