<?xml version="1.0" encoding="UTF-8"?>
<svg width="173px" height="48px" viewBox="0 0 173 48" version="1.1" xmlns="http://www.w3.org/2000/svg" xmlns:xlink="http://www.w3.org/1999/xlink">
    <title>Logo</title>
    <defs>
        <rect id="path-1" x="0" y="0" width="1454" height="84"></rect>
        <path d="M1454,0 L1454,84 L0,84 L0,0 L1454,0 Z M1453,1 L1,1 L1,83 L1453,83 L1453,1 Z" id="path-3"></path>
        <polygon id="path-5" points="38.4053049 47.2258065 7.72321429e-05 47.2258065 7.72321429e-05 0.110090323 38.4053049 0.110090323 38.4053049 47.2258065"></polygon>
    </defs>
    <g id="Page-1" stroke="none" stroke-width="1" fill="none" fill-rule="evenodd">
        <g id="Desktop-HD" transform="translate(-133.000000, -17.000000)">
            <rect fill="#F9FAFB" x="0" y="0" width="1440" height="2471"></rect>
            <g id="Group-2" opacity="0.0709635417" transform="translate(174.000000, -22.000000)" fill="#FFFFFF" fill-rule="nonzero">
                <polygon id="Line" points="58.9870402 16.3226222 48.6124754 36.1491923 47.3804686 38.5036495 43 35.8548852 44.2320068 33.5004279 59.3097657 4.68570174 61.5 0.5 63.6902343 4.68570174 78.7679932 33.5004279 80 35.8548852 75.6195314 38.5036495 74.3875246 36.1491923 64.0129598 16.3226222 64.0129598 34.8248101 64.0129598 348.798619 64.0129598 351.5 58.9870402 351.5 58.9870402 348.798619 58.9870402 34.8248101 58.9870402 16.3226222"></polygon>
            </g>
            <g id="Group" transform="translate(-4.000000, -1.000000)">
                <g id="Elements/Cards/Card">
                    <g id="Mixins/Shadows/off"></g>
                    <g id="Mixins/Border-Radius/0">
                        <mask id="mask-2" fill="white">
                            <use xlink:href="#path-1"></use>
                        </mask>
                        <g id="Mask"></g>
                        <g id="Mixins/Fill/Interface/White" mask="url(#mask-2)" fill="#FFFFFF" fill-rule="evenodd">
                            <rect id="Box" x="0" y="0" width="1454" height="84"></rect>
                        </g>
                        <g id="Mixins/Hightlight_Side/None" mask="url(#mask-2)" fill="#00A3E0" fill-rule="evenodd" opacity="0">
                            <g id="Mixins/Fill/Main/Power-Blue">
                                <rect id="Box" x="0" y="0" width="4" height="84"></rect>
                            </g>
                        </g>
                        <mask id="mask-4" fill="white">
                            <use xlink:href="#path-3"></use>
                        </mask>
                        <use id="Combined-Shape" fill="#D8D8D8" fill-rule="evenodd" xlink:href="#path-3"></use>
                        <g id="Mixins/Fill/Interface/Sky" mask="url(#mask-4)" fill="#DFE3E8" fill-rule="evenodd">
                            <rect id="Rectangle" x="0" y="0" width="1454" height="84"></rect>
                        </g>
                    </g>
                </g>
            </g>
            <g id="Logo" transform="translate(133.000000, 17.000000)">
                <g id="Page-1">
                    <path d="M42.4590703,31.6616277 L42.4590703,11.0461122 L52.7573188,11.0461122 C57.3822807,11.0461122 59.9105932,14.1678019 59.9105932,17.9076481 C59.9105932,21.6165864 57.3822807,24.7382762 52.7573188,24.7382762 L47.7623599,24.7382762 L47.7623599,31.6616277 L42.4590703,31.6616277 Z M54.5148043,17.9076481 C54.5148043,16.4858884 53.4664796,15.6822851 52.048158,15.6822851 L47.7623599,15.6822851 L47.7623599,20.1021032 L52.048158,20.1021032 C53.4664796,20.1021032 54.5148043,19.2984999 54.5148043,17.9076481 Z M62.1536848,31.6616277 L62.1536848,11.0461122 L66.9019791,11.0461122 L66.9019791,31.6616277 L62.1536848,31.6616277 Z M79.1349884,31.6616277 L79.1349884,30.1780524 C78.209996,31.2907339 76.4216774,32.0325215 74.5100265,32.0325215 C72.2283786,32.0325215 69.3917353,30.4871306 69.3917353,27.1181782 C69.3917353,23.5019634 72.2283786,22.4201897 74.5100265,22.4201897 C76.4833436,22.4201897 78.2408291,23.0383461 79.1349884,24.1510276 L79.1349884,22.2656506 C79.1349884,20.9675222 78.0249975,20.1021032 76.1133466,20.1021032 C74.6333588,20.1021032 73.0917048,20.658444 71.8892147,21.678402 L70.1933953,18.6803436 C72.1050463,17.0422291 74.6641919,16.3622571 76.9458398,16.3622571 C80.522477,16.3622571 83.8832826,17.6912933 83.8832826,22.3274662 L83.8832826,31.6616277 L79.1349884,31.6616277 Z M79.1349884,27.8290581 L79.1349884,26.5000219 C78.6416591,25.8200498 77.5316683,25.449156 76.4833436,25.449156 C75.2191873,25.449156 74.1091964,26.0054967 74.1091964,27.1799939 C74.1091964,28.354491 75.2191873,28.9108318 76.4833436,28.9108318 C77.5316683,28.9108318 78.6416591,28.5399379 79.1349884,27.8290581 Z M87.6988613,33.2379265 C88.0380251,33.4233734 88.5005213,33.5160968 88.8705183,33.5160968 C89.9496761,33.5160968 90.6280038,33.2997421 90.8746685,32.6815857 L91.2138323,31.8779824 L85.2938811,16.7331509 L90.2888399,16.7331509 L93.6496456,26.1909437 L97.0412843,16.7331509 L102.067076,16.7331509 L95.345465,33.7942672 C94.1429749,36.9468648 91.8921601,37.6577446 89.0555168,37.7195603 C88.6238537,37.7195603 87.5138628,37.6268368 87.0205335,37.4722977 L87.6988613,33.2379265 Z M103.477675,31.6616277 L103.477675,11.0461122 L108.225969,11.0461122 L108.225969,18.4948966 C109.397626,17.0113213 111.000946,16.3622571 112.635099,16.3622571 C116.335069,16.3622571 119.202545,19.2984999 119.202545,24.1819354 C119.202545,29.2508178 116.304236,32.0325215 112.635099,32.0325215 C110.970113,32.0325215 109.459292,31.3525495 108.225969,29.9307898 L108.225969,31.6616277 L103.477675,31.6616277 Z M108.225969,26.5000219 C108.811797,27.3036252 110.045121,27.8290581 111.062612,27.8290581 C112.94343,27.8290581 114.361752,26.4382062 114.361752,24.1819354 C114.361752,21.9565724 112.94343,20.5657205 111.062612,20.5657205 C110.045121,20.5657205 108.811797,21.1220613 108.225969,21.9256646 L108.225969,26.5000219 Z M128.814743,32.0325215 C123.758118,32.0325215 120.705643,28.3853988 120.705643,24.1819354 C120.705643,19.978472 123.758118,16.3622571 128.814743,16.3622571 C133.933034,16.3622571 136.954676,19.978472 136.954676,24.1819354 C136.954676,28.3853988 133.933034,32.0325215 128.814743,32.0325215 Z M128.814743,27.8290581 C130.911392,27.8290581 132.083049,26.1909437 132.083049,24.1819354 C132.083049,22.203835 130.911392,20.5657205 128.814743,20.5657205 C126.748927,20.5657205 125.608103,22.203835 125.608103,24.1819354 C125.608103,26.1909437 126.748927,27.8290581 128.814743,27.8290581 Z M146.566873,32.0325215 C141.510248,32.0325215 138.457774,28.3853988 138.457774,24.1819354 C138.457774,19.978472 141.510248,16.3622571 146.566873,16.3622571 C151.685165,16.3622571 154.706806,19.978472 154.706806,24.1819354 C154.706806,28.3853988 151.685165,32.0325215 146.566873,32.0325215 Z M146.566873,27.8290581 C148.663523,27.8290581 149.83518,26.1909437 149.83518,24.1819354 C149.83518,22.203835 148.663523,20.5657205 146.566873,20.5657205 C144.501057,20.5657205 143.360233,22.203835 143.360233,24.1819354 C143.360233,26.1909437 144.501057,27.8290581 146.566873,27.8290581 Z M166.631485,31.6616277 L163.363178,26.3763906 L161.944857,28.0763206 L161.944857,31.6616277 L157.196563,31.6616277 L157.196563,11.0461122 L161.944857,11.0461122 L161.944857,22.6983601 L166.47732,16.7331509 L172.212272,16.7331509 L166.723984,23.5328712 L172.48977,31.6616277 L166.631485,31.6616277 Z" id="Playbook" fill="#084975"></path>
                    <g id="Group-10" transform="translate(0.000000, 0.277161)">
                        <g id="Group-3">
                            <mask id="mask-6" fill="white">
                                <use xlink:href="#path-5"></use>
                            </mask>
                            <g id="Clip-2"></g>
                            <path d="M19.6471621,0.110090323 C18.1245304,0.110090323 16.8861129,1.35847742 16.8861129,2.89254194 L16.8861129,6.79215484 L1.22729598,18.2947355 L1.21223571,18.3059613 L1.19756161,18.3168 L1.18906607,18.3233806 C0.443775893,18.8800258 7.72321429e-05,19.7688 7.72321429e-05,20.7059613 L7.72321429e-05,32.5902194 C7.72321429e-05,33.5358968 0.446865179,34.4273806 1.19678929,34.9840258 L1.21069107,34.9940903 L1.21880045,35.0002839 L1.22729598,35.0064774 L17.1340281,46.6909935 C17.609392,47.0405419 18.1712558,47.2259613 18.7582201,47.2259613 C20.2812379,47.2259613 21.5200415,45.9771871 21.5200415,44.4427355 L21.5200415,40.5438968 L37.1780862,29.040929 L37.1935326,29.0300903 L37.2082067,29.0188645 L37.2155438,29.0130581 C37.9612201,28.4564129 38.4053049,27.5672516 38.4053049,26.6297032 L38.4053049,14.7458323 C38.4053049,13.7982194 37.9577446,12.9063484 37.2066621,12.3504774 L37.1935326,12.3408 L37.1861955,12.3349935 L37.1780862,12.3291871 L21.271354,0.644670968 C20.7963763,0.295509677 20.2345125,0.110090323 19.6471621,0.110090323 M19.6471621,2.43267097 C19.7336621,2.43267097 19.8217067,2.45899355 19.901642,2.51821935 L35.8087603,14.2027355 L35.8276821,14.216671 C35.9914143,14.336671 36.0883406,14.5321548 36.0883406,14.7396387 L36.0883406,14.7458323 L36.0883406,26.6254452 L36.0883406,26.6297032 C36.0883406,26.8387355 35.990642,27.0338323 35.8265237,27.1542194 L35.8087603,27.1673806 L19.2030772,39.3663484 L19.2030772,44.4427355 C19.2030772,44.7144774 18.9883719,44.9033806 18.7582201,44.9033806 C18.6721063,44.9033806 18.5836754,44.8762839 18.503354,44.8174452 L2.59700804,33.1333161 L2.57808616,33.1189935 C2.41396786,32.9986065 2.31704152,32.8038968 2.31704152,32.5964129 L2.31704152,32.5902194 L2.31704152,20.7106065 L2.31704152,20.7059613 C2.31704152,20.4973161 2.41474018,20.3018323 2.57885848,20.1818323 L2.59700804,20.1678968 L19.2030772,7.96931613 L19.2030772,2.89254194 C19.2030772,2.62157419 19.4170103,2.43267097 19.6471621,2.43267097" id="Fill-1" fill="#00A9DE" mask="url(#mask-6)"></path>
                        </g>
                        <polygon id="Fill-4" fill="#00A9DE" points="14.0640504 20.9638065 13.0075147 19.9047097 10.2063049 22.7127097 7.40509509 19.9047097 6.34855938 20.9638065 9.14938304 23.7718065 6.34855938 26.5801935 7.40509509 27.6392903 10.2063049 24.8309032 13.0075147 27.6392903 14.0640504 26.5801935 11.2628406 23.7718065"></polygon>
                        <path d="M28.000552,19.2290323 C25.4978444,19.2290323 23.4685699,21.2628387 23.4685699,23.7716129 C23.4685699,26.2811613 25.4978444,28.3149677 28.000552,28.3149677 C30.5032596,28.3149677 32.532148,26.2811613 32.532148,23.7716129 C32.532148,21.2628387 30.5032596,19.2290323 28.000552,19.2290323 M28.000552,20.7270968 C29.675331,20.7270968 31.037706,22.0927742 31.037706,23.7716129 C31.037706,25.4508387 29.675331,26.8169032 28.000552,26.8169032 C26.3253868,26.8169032 24.9630118,25.4508387 24.9630118,23.7716129 C24.9630118,22.0927742 26.3253868,20.7270968 28.000552,20.7270968" id="Fill-6" fill="#00A9DE"></path>
                        <path d="M23.0947277,21.8914839 L18.7612321,17.1894194 L14.4377768,21.8914839 L15.4962433,22.8797419 L18.0371808,20.0976774 L18.0371808,28.1818065 C18.0371808,28.5820645 18.3607835,28.9064516 18.7596875,28.9064516 C19.1593638,28.9064516 19.4825804,28.5820645 19.4825804,28.1818065 L19.4825804,20.0949677 L22.0362612,22.8797419 L23.0947277,21.8914839 Z" id="Fill-8" fill="#00A9DE"></path>
                    </g>
                </g>
            </g>
        </g>
    </g>
</svg>