<?xml version="1.0" encoding="UTF-8"?>
<svg width="55px" height="67px" viewBox="0 0 55 67" version="1.1" xmlns="http://www.w3.org/2000/svg" xmlns:xlink="http://www.w3.org/1999/xlink">
    <title>Power Logo Copy</title>
    <g id="MVP" stroke="none" stroke-width="1" fill="none" fill-rule="evenodd">
        <g id="Power-Logo" fill="#FFFFFF">
            <g id="Power-Logo_BW_NoTag-01">
                <path d="M16.9726562,32.4811944 C15.6865751,32.7331882 15.46875,33.7570944 15.46875,35.956972 C15.46875,38.1568496 15.6865751,39.0967578 16.9726562,38.8476604 C18.2587374,38.598563 18.4765625,37.5717604 18.4765625,35.3718828 C18.4765625,33.1720052 18.2587374,32.2292005 16.9726562,32.4811944 Z" id="Path"></path>
                <path d="M7.8981917,34.203951 L6.4453125,34.4536668 L6.4453125,37.1679688 L7.90004723,36.9236816 C8.94471006,36.7427281 9.453125,36.214344 9.453125,35.2951004 C9.453125,34.9567174 9.453125,33.9379494 7.8981917,34.203951 Z" id="Path"></path>
                <path d="M27.4599387,34.5547675 L26.3547998,39.0738089 C26.3447973,39.1207256 26.3089463,39.1579689 26.2622444,39.1699587 L23.9497413,39.5820293 C23.9266466,39.5868318 23.9026841,39.5795803 23.8861958,39.5627994 C23.8710002,39.5463166 23.8792887,39.5229659 23.8861958,39.4968681 L24.0450595,38.8100837 L24.0450595,38.8100837 L21.9729241,29.7033225 C21.9653574,29.6792643 21.9688984,29.6531091 21.9825941,29.6318969 C21.9959428,29.6107083 22.0173874,29.595832 22.0419953,29.5906898 L24.4691566,29.1648835 C24.4870147,29.1604179 24.50594,29.1637023 24.5212209,29.173919 C24.5365018,29.1841356 24.5467009,29.2003235 24.5492791,29.2184527 L25.3988547,33.705902 C25.3988547,33.7182641 25.3850404,33.715517 25.3891847,33.705902 L26.3962425,29.6016784 L26.3962425,29.6016784 L26.2815844,28.9451125 C26.2815844,28.9217618 26.2995429,28.895664 26.3147385,28.8736869 C26.3360563,28.8514236 26.3642686,28.836914 26.3948611,28.8324798 L27.5,28.6415538 L27.5,8.80859375 L0.493168232,27.8256539 L0.444818406,27.8462574 C0.171392745,28.033425 0.00571884682,28.3403788 0,28.6703987 L0,47.2135777 C0.00595827534,47.5395868 0.169479582,47.8427841 0.439292711,48.028104 L0.476591149,48.0500811 L26.3409856,66.2553621 C26.5622668,66.4095778 26.8511625,66.429514 27.0917474,66.3071708 C27.3323323,66.1848276 27.4851767,65.9402559 27.4889486,65.6715953 L27.4889486,34.5369111 C27.4889486,34.5369111 27.4627016,34.543779 27.4599387,34.5547675 Z M11.0140905,37.0340592 C10.3924499,38.0216552 9.30941377,38.6534968 7.8368162,38.9117278 L6.76759431,39.095786 L6.76759431,42.4939952 C6.76759431,42.539323 6.75101723,42.5832772 6.70543025,42.5915186 L4.23820767,43.0214456 C4.21677986,43.026188 4.19446846,43.0187931 4.18018787,43.0022157 C4.1603537,42.9860901 4.14913433,42.9617507 4.1497688,42.9362844 L4.28793892,42.2357643 L4.28793892,33.4641539 L4.1580851,32.8144558 C4.15653573,32.7883128 4.16547813,32.7626261 4.18295072,32.7430302 C4.1995129,32.7213341 4.22367554,32.7066248 4.25064048,32.7018232 L7.86306324,32.068608 C9.33566082,31.810377 10.3979756,32.068608 11.0196162,32.8350594 C11.54732,33.4847574 11.6260932,34.3597207 11.6260932,34.823987 C11.6290867,35.6024501 11.417426,36.3668418 11.0140905,37.0340592 Z M20.3207414,38.7633823 C19.6756166,40.0105828 18.5594263,40.7578042 16.9058623,41.0476273 C13.2796253,41.6835896 12.7906013,39.0367225 12.7906013,36.3637576 C12.7906013,35.2058391 12.8707239,33.7223848 13.4909831,32.517765 C14.1347265,31.2705645 15.2522982,30.5233431 16.9058623,30.23352 C20.5320993,29.5975577 21.0211232,32.2444248 21.0211232,34.9173897 C21.0211232,36.082176 20.9410007,37.5642568 20.3207414,38.7633823 Z" id="Shape" fill-rule="nonzero"></path>
                <path d="M47.4536133,26.9152434 L45.7617188,27.2492575 L45.7617188,29.8632812 L47.4536133,29.5292671 C48.6698975,29.2927602 48.7695312,28.6724482 48.7695312,27.9463305 C48.7695312,27.2202128 48.6680176,26.6683634 47.4536133,26.9152434 Z" id="Path"></path>
                <path d="M54.5439928,18.5898966 L54.498392,18.5679226 L28.6372547,0.347317963 C28.4176153,0.192033517 28.129099,0.171694632 27.8896053,0.294612601 C27.6501117,0.417530571 27.5,0.663112472 27.5,0.93100357 L27.5,28.6677436 L28.6966738,28.4974448 L28.6966738,28.4974448 L28.8224212,28.4534967 C28.8624946,28.4466298 28.8970406,28.4534967 28.902568,28.4960714 L29.7648362,32.9787769 C29.7648362,32.9911373 29.7828001,32.9856437 29.7855638,32.9787769 L30.8233257,28.8696302 L30.8233257,28.8696302 L30.6851417,28.2145289 C30.6808706,28.1892765 30.6873803,28.1633973 30.7031056,28.1431133 C30.7184164,28.1213796 30.7417708,28.1065638 30.7680521,28.1019119 L33.0784887,27.6898986 C33.1024095,27.6855975 33.1269735,27.6927181 33.1448171,27.7091259 C33.160709,27.7277091 33.1663922,27.7528701 33.1600173,27.7764214 L30.7265969,38.3514312 C30.7265969,38.3596715 30.7058693,38.4365806 30.6436865,38.4475677 L28.3249588,38.859581 C28.3018456,38.864655 28.2777444,38.8573648 28.2613942,38.8403537 C28.2452528,38.8224495 28.2390472,38.7977789 28.2448121,38.7744316 L28.3829961,38.0877426 L27.5165824,34.5993628 C27.5159258,34.5937738 27.5121983,34.5890106 27.5069095,34.5870024 L27.5069095,57.7929688 L54.490101,38.7771784 L54.5467564,38.7565777 C54.8225386,38.5704712 54.9912507,38.2637415 55,37.9325509 L55,19.3919493 C54.9836792,19.0681113 54.8146864,18.7708767 54.5439928,18.5898966 Z M41.3197831,28.5400195 C41.3197831,28.585341 41.3418925,28.6292891 41.2962918,28.6375293 L37.1742628,29.3709131 L37.1742628,30.7896125 L40.9605046,30.126271 C40.9811507,30.1215202 41.0028438,30.1266506 41.0191241,30.1401344 C41.0354044,30.1536182 41.0443937,30.1739 41.043415,30.1949399 L41.043415,32.4294257 C41.0418201,32.4770846 41.0075198,32.5174248 40.9605046,32.5269355 L37.1742628,33.1902771 L37.1742628,34.9207332 L41.2962918,34.1873494 C41.3418925,34.1791091 41.3197831,34.2093235 41.3197831,34.2560183 L41.3197831,36.4767704 C41.3197831,36.5220918 41.3349833,36.5660399 41.2893826,36.5742802 L34.9633186,37.6922098 L34.9633186,37.6922098 L34.6164768,37.7485183 C34.5899815,37.753011 34.5628189,37.746012 34.5418574,37.729291 C34.528813,37.7097739 34.526231,37.6851389 34.5349482,37.6633689 L34.6883325,36.9766799 L34.6883325,28.1733276 L34.528039,27.5402004 C34.5204335,27.5163089 34.5234499,27.490327 34.53633,27.4687847 C34.5497986,27.447709 34.5711976,27.4328709 34.5957492,27.4275834 L41.2658913,26.2533453 C41.311492,26.245105 41.3184012,26.2753193 41.3184012,26.3220142 L41.3197831,28.5400195 Z M51.863223,34.6817655 C51.8514278,34.7080956 51.827901,34.7274118 51.7996583,34.7339538 L49.0580876,35.2160095 L49.0580876,35.2160095 L48.726446,35.272318 C48.7020698,35.2773146 48.6767766,35.2701323 48.6587358,35.2530907 C48.642318,35.2353274 48.6356174,35.2107385 48.6407719,35.1871685 L48.7278278,34.7751552 L47.1166023,31.7537238 L46.1562234,31.925396 L46.1562234,35.64313 C46.1546285,35.6907889 46.1203281,35.7311291 46.073313,35.7406398 L43.9452792,36.1128252 L43.9452792,36.1128252 L43.5998192,36.1691337 C43.5733165,36.1738101 43.5460781,36.1667916 43.5251999,36.1499064 C43.5114596,36.1307156 43.5083443,36.1059461 43.5169088,36.0839843 L43.6702931,35.3972953 L43.6702931,26.6076768 L43.5113815,25.9676827 C43.5038124,25.9436278 43.5073545,25.9174763 43.5210543,25.896267 C43.5348425,25.874889 43.5567952,25.8600129 43.5818553,25.8550657 L47.2160947,25.2178183 C49.746244,24.7742173 50.9235717,25.5968706 50.9235717,27.8066357 C50.9235717,29.1882539 50.5560023,30.0617222 49.6951159,30.7264371 L49.6301694,30.7758787 L51.8673685,34.6034829 C51.8788729,34.6286953 51.8773268,34.6578926 51.863223,34.6817655 L51.863223,34.6817655 Z" id="Shape" fill-rule="nonzero"></path>
            </g>
        </g>
    </g>
</svg>