<svg width="272" height="30" viewBox="0 0 272 30" fill="none" xmlns="http://www.w3.org/2000/svg">
<path d="M0 6C0 2.68629 2.68629 0 6 0H266C269.314 0 272 2.68629 272 6V24C272 27.3137 269.314 30 266 30H6.00001C2.6863 30 0 27.3137 0 24V6Z" fill="white"/>
<path fill-rule="evenodd" clip-rule="evenodd" d="M266.309 0.0078125C269.479 0.168432 272 2.78979 272 6V24C272 27.2102 269.479 29.8316 266.309 29.9922L266 30H6C2.78979 30 0.168429 27.4789 0.0078125 24.3086L0 24V6C0 2.68629 2.68629 8.0532e-08 6 0H266L266.309 0.0078125ZM6 1C3.23858 1 1 3.23858 1 6V24C1 26.7614 3.23858 29 6 29H266C268.761 29 271 26.7614 271 24V6C271 3.23858 268.761 1 266 1H6Z" fill="#E4E8F0"/>
<rect x="8" y="8" width="14" height="14" rx="4" fill="#E4E8F0"/>
<rect x="30" y="8" width="14" height="14" rx="4" fill="#E4E8F0"/>
<rect x="52" y="8" width="14" height="14" rx="4" fill="#E4E8F0"/>
<rect x="250" y="8" width="14" height="14" rx="4" fill="#E4E8F0"/>
<rect x="96" y="8" width="14" height="14" rx="4" fill="#E4E8F0"/>
<rect x="118" y="8" width="14" height="14" rx="4" fill="#E4E8F0"/>
<rect x="140" y="8" width="14" height="14" rx="4" fill="#E4E8F0"/>
<rect x="162" y="8" width="14" height="14" rx="4" fill="#E4E8F0"/>
<rect x="184" y="8" width="14" height="14" rx="4" fill="#E4E8F0"/>
<rect x="206" y="8" width="14" height="14" rx="4" fill="#E4E8F0"/>
<rect x="228" y="8" width="14" height="14" rx="4" fill="#E4E8F0"/>
<rect x="74" y="8" width="14" height="14" rx="4" fill="#0056CF"/>
</svg>
