<svg width="281" height="56" viewBox="0 0 281 56" fill="none" xmlns="http://www.w3.org/2000/svg">
<path d="M275 1C277.761 1 280 3.23857 280 6V50C280 52.7614 277.761 55 275 55H6C3.23858 55 1 52.7614 1 50V6C1 3.23858 3.23858 1 6 1H275Z" fill="white"/>
<path fill-rule="evenodd" clip-rule="evenodd" d="M275 0C278.314 0 281 2.68629 281 6V50L280.992 50.3086C280.837 53.3767 278.377 55.8367 275.309 55.9922L275 56H6L5.69141 55.9922C2.62332 55.8368 0.16325 53.3767 0.0078125 50.3086L0 50V6C2.57711e-07 2.68629 2.68629 4.42926e-08 6 0H275ZM6 1C3.23858 1 1 3.23858 1 6V50C1 52.7614 3.23858 55 6 55H275C277.761 55 280 52.7614 280 50V6C280 3.23857 277.761 1 275 1H6Z" fill="#E4E8F0"/>
<path d="M87 9L87.1543 9.00391C88.7394 9.08423 90 10.3949 90 12V44C89.9998 45.6567 88.6567 47 87 47H12C10.3433 47 9.00023 45.6567 9 44V12C9 10.3431 10.3431 9 12 9H87Z" fill="#F3F7FB"/>
<path fill-rule="evenodd" clip-rule="evenodd" d="M87.2061 8.00488C89.3194 8.11213 91 9.85997 91 12V44L90.9951 44.2061C90.8877 46.3192 89.1399 48 87 48H12C9.86011 48 8.11233 46.3192 8.00488 44.2061L8 44V12C8 9.85997 9.68057 8.11213 11.7939 8.00488L12 8H87L87.2061 8.00488ZM12 9C10.3431 9 9 10.3431 9 12V44C9.00023 45.6567 10.3433 47 12 47H87C88.6567 47 89.9998 45.6567 90 44V12C90 10.3949 88.7394 9.08423 87.1543 9.00391L87 9H12Z" fill="#E4E8F0"/>
<path d="M51.1808 33.5H48.8868V25.3315L46.9648 26.0755V23.828L49.3673 22.8515H51.1808V33.5Z" fill="#242B42"/>
<path d="M269 9L269.154 9.00391C270.739 9.08423 272 10.3949 272 12V44C272 45.6567 270.657 47 269 47H194C192.343 47 191 45.6567 191 44V12C191 10.3431 192.343 9 194 9H269Z" fill="#F3F7FB"/>
<path fill-rule="evenodd" clip-rule="evenodd" d="M269.206 8.00488C271.319 8.11213 273 9.85997 273 12V44L272.995 44.2061C272.888 46.3192 271.14 48 269 48H194C191.86 48 190.112 46.3192 190.005 44.2061L190 44V12C190 9.85997 191.681 8.11213 193.794 8.00488L194 8H269L269.206 8.00488ZM194 9C192.343 9 191 10.3431 191 12V44C191 45.6567 192.343 47 194 47H269C270.657 47 272 45.6567 272 44V12C272 10.3949 270.739 9.08423 269.154 9.00391L269 9H194Z" fill="#E4E8F0"/>
<path d="M234.55 30.3225C234.55 32.3375 232.953 33.7015 230.52 33.7015C229.481 33.7015 228.505 33.438 227.621 32.8955V30.5705C228.505 31.268 229.404 31.609 230.334 31.609C231.465 31.609 232.256 31.0975 232.256 30.1985C232.256 29.408 231.512 28.8655 230.411 28.8655H229.404V27.0675H230.365C231.264 27.0675 231.884 26.5715 231.884 25.9205C231.884 25.1765 231.155 24.7425 230.287 24.7425C229.435 24.7425 228.66 25.068 227.838 25.7345V23.456C228.613 22.929 229.528 22.6655 230.473 22.6655C232.581 22.6655 234.131 23.7815 234.131 25.6415C234.131 26.6335 233.62 27.3775 232.814 27.827C233.914 28.2765 234.55 29.16 234.55 30.3225Z" fill="#242B42"/>
<path d="M178 9L178.154 9.00391C179.739 9.08423 181 10.3949 181 12V44C181 45.6567 179.657 47 178 47H103C101.343 47 100 45.6567 100 44V12C100 10.3431 101.343 9 103 9H178Z" fill="#F3F7FB"/>
<path fill-rule="evenodd" clip-rule="evenodd" d="M178.206 8.00488C180.319 8.11213 182 9.85997 182 12V44L181.995 44.2061C181.888 46.3192 180.14 48 178 48H103C100.86 48 99.1123 46.3192 99.0049 44.2061L99 44V12C99 9.85997 100.681 8.11213 102.794 8.00488L103 8H178L178.206 8.00488ZM103 9C101.343 9 100 10.3431 100 12V44C100 45.6567 101.343 47 103 47H178C179.657 47 181 45.6567 181 44V12C181 10.3949 179.739 9.08423 178.154 9.00391L178 9H103Z" fill="#0056CF"/>
<path d="M143.797 33.5H136.574V31.8725L140.062 28.416C141.054 27.455 141.333 26.959 141.333 26.246C141.333 25.3935 140.604 24.789 139.581 24.789C138.589 24.789 137.659 25.347 136.822 26.2615V23.828C137.644 23.084 138.713 22.6655 139.767 22.6655C141.906 22.6655 143.627 23.9675 143.627 25.998C143.627 27.4085 143.038 28.447 141.689 29.687L139.783 31.454H143.797V33.5Z" fill="#242B42"/>
</svg>
