<svg width="281" height="56" viewBox="0 0 281 56" fill="none" xmlns="http://www.w3.org/2000/svg">
<path d="M275 1C277.761 1 280 3.23857 280 6V50C280 52.7614 277.761 55 275 55H6C3.23858 55 1 52.7614 1 50V6C1 3.23858 3.23858 1 6 1H275Z" fill="white"/>
<path fill-rule="evenodd" clip-rule="evenodd" d="M275 0C278.314 0 281 2.68629 281 6V50L280.992 50.3086C280.837 53.3767 278.377 55.8367 275.309 55.9922L275 56H6L5.69141 55.9922C2.62332 55.8368 0.16325 53.3767 0.0078125 50.3086L0 50V6C2.57711e-07 2.68629 2.68629 4.42926e-08 6 0H275ZM6 1C3.23858 1 1 3.23858 1 6V50C1 52.7614 3.23858 55 6 55H275C277.761 55 280 52.7614 280 50V6C280 3.23857 277.761 1 275 1H6Z" fill="#E4E8F0"/>
<path d="M178 9L178.154 9.00391C179.739 9.08423 181 10.3949 181 12V44C181 45.6567 179.657 47 178 47H103C101.343 47 100 45.6567 100 44V12C100 10.3431 101.343 9 103 9H178Z" fill="#F3F7FB"/>
<path fill-rule="evenodd" clip-rule="evenodd" d="M178.206 8.00488C180.319 8.11213 182 9.85997 182 12V44L181.995 44.2061C181.888 46.3192 180.14 48 178 48H103C100.86 48 99.1123 46.3192 99.0049 44.2061L99 44V12C99 9.85997 100.681 8.11213 102.794 8.00488L103 8H178L178.206 8.00488ZM103 9C101.343 9 100 10.3431 100 12V44C100 45.6567 101.343 47 103 47H178C179.657 47 181 45.6567 181 44V12C181 10.3949 179.739 9.08423 178.154 9.00391L178 9H103Z" fill="#0056CF"/>
<path d="M143.797 33.5H136.574V31.8725L140.062 28.416C141.054 27.455 141.333 26.959 141.333 26.246C141.333 25.3935 140.604 24.789 139.581 24.789C138.589 24.789 137.659 25.347 136.822 26.2615V23.828C137.644 23.084 138.713 22.6655 139.767 22.6655C141.906 22.6655 143.627 23.9675 143.627 25.998C143.627 27.4085 143.038 28.447 141.689 29.687L139.783 31.454H143.797V33.5Z" fill="#242B42"/>
<path d="M44 9C45.6569 9 47 10.3431 47 12V44C47 45.6569 45.6569 47 44 47H12C10.3431 47 9 45.6569 9 44V12C9 10.3431 10.3431 9 12 9H44Z" fill="#F3F7FB"/>
<path fill-rule="evenodd" clip-rule="evenodd" d="M44.2061 8.00488C46.3194 8.11212 48 9.85996 48 12V44L47.9951 44.2061C47.8913 46.2512 46.2512 47.8913 44.2061 47.9951L44 48H12C9.85996 48 8.11211 46.3194 8.00488 44.2061L8 44V12C8 9.79086 9.79086 8 12 8H44L44.2061 8.00488ZM12 9C10.3431 9 9 10.3431 9 12V44C9 45.6569 10.3431 47 12 47H44C45.6569 47 47 45.6569 47 44V12C47 10.3431 45.6569 9 44 9H12Z" fill="#E4E8F0"/>
<path d="M29.6808 32.9999H27.3868V24.8314L25.4648 25.5754V23.3279L27.8673 22.3514H29.6808V32.9999Z" fill="#242B42"/>
<path d="M226 9C227.657 9 229 10.3431 229 12V44C229 45.6569 227.657 47 226 47H194C192.343 47 191 45.6569 191 44V12C191 10.3431 192.343 9 194 9H226Z" fill="#F3F7FB"/>
<path fill-rule="evenodd" clip-rule="evenodd" d="M226.206 8.00488C228.319 8.11212 230 9.85996 230 12V44L229.995 44.2061C229.891 46.2512 228.251 47.8913 226.206 47.9951L226 48H194C191.86 48 190.112 46.3194 190.005 44.2061L190 44V12C190 9.79086 191.791 8 194 8H226L226.206 8.00488ZM194 9C192.343 9 191 10.3431 191 12V44C191 45.6569 192.343 47 194 47H226C227.657 47 229 45.6569 229 44V12C229 10.3431 227.657 9 226 9H194Z" fill="#E4E8F0"/>
<path d="M213.55 29.8225C213.55 31.8375 211.953 33.2015 209.52 33.2015C208.481 33.2015 207.505 32.938 206.621 32.3955V30.0705C207.505 30.768 208.404 31.109 209.334 31.109C210.465 31.109 211.256 30.5975 211.256 29.6985C211.256 28.908 210.512 28.3655 209.411 28.3655H208.404V26.5675H209.365C210.264 26.5675 210.884 26.0715 210.884 25.4205C210.884 24.6765 210.155 24.2425 209.287 24.2425C208.435 24.2425 207.66 24.568 206.838 25.2345V22.956C207.613 22.429 208.528 22.1655 209.473 22.1655C211.581 22.1655 213.131 23.2815 213.131 25.1415C213.131 26.1335 212.62 26.8775 211.814 27.327C212.914 27.7765 213.55 28.66 213.55 29.8225Z" fill="#242B42"/>
</svg>
