<svg width="362" height="159" viewBox="0 0 362 159" fill="none" xmlns="http://www.w3.org/2000/svg">
<rect width="362" height="158.375" fill="#F3F7FB"/>
<path d="M63.256 47H61.852V38.996H65.38C67.06 38.996 67.984 40.136 67.984 41.504C67.984 42.86 67.048 44 65.38 44H63.256V47ZM65.188 42.764C65.98 42.764 66.544 42.26 66.544 41.504C66.544 40.736 65.98 40.232 65.188 40.232H63.256V42.764H65.188ZM76.3142 47H74.7182L74.1302 45.452H70.4582L69.8702 47H68.2742L71.4182 38.996H73.1702L76.3142 47ZM73.7342 44.216L72.2942 40.4L70.8542 44.216H73.7342ZM80.6472 47.144C79.1712 47.144 78.1032 46.616 77.3832 45.872L78.1752 44.78C78.7152 45.368 79.5912 45.896 80.7072 45.896C81.8592 45.896 82.3032 45.332 82.3032 44.792C82.3032 43.112 77.6472 44.156 77.6472 41.216C77.6472 39.884 78.7992 38.864 80.5632 38.864C81.7992 38.864 82.8192 39.272 83.5512 39.992L82.7592 41.036C82.1232 40.4 81.2712 40.112 80.4312 40.112C79.6152 40.112 79.0872 40.52 79.0872 41.108C79.0872 42.608 83.7432 41.684 83.7432 44.66C83.7432 45.992 82.7952 47.144 80.6472 47.144ZM88.6122 47.144C87.1362 47.144 86.0682 46.616 85.3482 45.872L86.1402 44.78C86.6802 45.368 87.5562 45.896 88.6722 45.896C89.8242 45.896 90.2682 45.332 90.2682 44.792C90.2682 43.112 85.6122 44.156 85.6122 41.216C85.6122 39.884 86.7642 38.864 88.5282 38.864C89.7642 38.864 90.7842 39.272 91.5162 39.992L90.7242 41.036C90.0882 40.4 89.2362 40.112 88.3962 40.112C87.5802 40.112 87.0522 40.52 87.0522 41.108C87.0522 42.608 91.7082 41.684 91.7082 44.66C91.7082 45.992 90.7602 47.144 88.6122 47.144ZM95.2332 47H93.8292V38.996H97.3572C99.0372 38.996 99.9612 40.136 99.9612 41.504C99.9612 42.86 99.0252 44 97.3572 44H95.2332V47ZM97.1652 42.764C97.9572 42.764 98.5212 42.26 98.5212 41.504C98.5212 40.736 97.9572 40.232 97.1652 40.232H95.2332V42.764H97.1652ZM108.954 47H107.55V43.496H103.386V47H101.982V38.996H103.386V42.26H107.55V38.996H108.954V47ZM117.698 47H116.066L114.302 44.012H112.898V47H111.494V38.996H115.01C116.594 38.996 117.638 40.016 117.638 41.504C117.638 42.92 116.702 43.7 115.73 43.856L117.698 47ZM114.83 42.776C115.622 42.776 116.198 42.272 116.198 41.492C116.198 40.724 115.622 40.232 114.83 40.232H112.898V42.776H114.83ZM127.092 47H125.496L124.908 45.452H121.236L120.648 47H119.052L122.196 38.996H123.948L127.092 47ZM124.512 44.216L123.072 40.4L121.632 44.216H124.512ZM131.425 47.144C129.949 47.144 128.881 46.616 128.161 45.872L128.953 44.78C129.493 45.368 130.369 45.896 131.485 45.896C132.637 45.896 133.081 45.332 133.081 44.792C133.081 43.112 128.425 44.156 128.425 41.216C128.425 39.884 129.577 38.864 131.341 38.864C132.577 38.864 133.597 39.272 134.329 39.992L133.537 41.036C132.901 40.4 132.049 40.112 131.209 40.112C130.393 40.112 129.865 40.52 129.865 41.108C129.865 42.608 134.521 41.684 134.521 44.66C134.521 45.992 133.573 47.144 131.425 47.144ZM142.126 47H136.642V38.996H142.126V40.232H138.046V42.296H142.042V43.532H138.046V45.764H142.126V47Z" fill="#687887"/>
<g filter="url(#filter0_d_2274_7607)">
<rect x="61" y="61" width="240" height="45" rx="6" fill="white"/>
<rect x="61.5" y="61.5" width="239" height="44" rx="5.5" stroke="#828EA7"/>
<path opacity="0.8" d="M85.24 88H78.248V77.328H85.24V78.512H79.576V81.952H85.128V83.136H79.576V86.816H85.24V88ZM93.7254 88H92.5414V82.944C92.5414 81.568 91.8374 81.152 90.7974 81.152C89.8534 81.152 88.9734 81.728 88.5094 82.352V88H87.3094V80.272H88.5094V81.392C89.0534 80.736 90.1094 80.08 91.2774 80.08C92.8774 80.08 93.7254 80.896 93.7254 82.576V88ZM98.1055 88.192C96.9535 88.192 96.3775 87.536 96.3775 86.384V81.328H95.0975V80.272H96.3775V78.16H97.5935V80.272H99.1615V81.328H97.5935V86.128C97.5935 86.704 97.8495 87.12 98.3615 87.12C98.7135 87.12 99.0175 86.96 99.1775 86.784L99.5295 87.696C99.2255 87.984 98.7935 88.192 98.1055 88.192ZM104.345 88.192C102.041 88.192 100.393 86.544 100.393 84.128C100.393 81.888 101.993 80.08 104.201 80.08C106.537 80.08 107.913 81.904 107.913 84.224V84.528H101.673C101.769 85.984 102.777 87.2 104.441 87.2C105.337 87.2 106.217 86.848 106.841 86.208L107.417 86.992C106.633 87.76 105.593 88.192 104.345 88.192ZM106.729 83.632C106.713 82.496 105.945 81.072 104.185 81.072C102.537 81.072 101.721 82.464 101.657 83.632H106.729ZM111.056 88H109.856V80.272H111.056V81.504C111.68 80.704 112.576 80.096 113.632 80.096V81.328C113.488 81.312 113.344 81.296 113.168 81.296C112.416 81.296 111.408 81.904 111.056 82.528V88ZM125.31 88H124.11V87.12C123.486 87.824 122.59 88.192 121.55 88.192C120.254 88.192 118.862 87.312 118.862 85.632C118.862 83.888 120.238 83.088 121.55 83.088C122.606 83.088 123.486 83.424 124.11 84.128V82.736C124.11 81.712 123.278 81.12 122.158 81.12C121.23 81.12 120.478 81.44 119.79 82.192L119.23 81.36C120.062 80.496 121.054 80.08 122.318 80.08C123.966 80.08 125.31 80.816 125.31 82.688V88ZM121.998 87.328C122.83 87.328 123.646 87.008 124.11 86.368V84.896C123.646 84.272 122.83 83.952 121.998 83.952C120.862 83.952 120.078 84.656 120.078 85.632C120.078 86.624 120.862 87.328 121.998 87.328ZM135.68 88.192C134.624 88.192 133.712 87.68 133.072 86.832V90.944H131.872V80.272H133.072V81.424C133.632 80.64 134.592 80.08 135.68 80.08C137.712 80.08 139.12 81.616 139.12 84.128C139.12 86.624 137.712 88.192 135.68 88.192ZM135.376 87.12C136.928 87.12 137.856 85.84 137.856 84.128C137.856 82.416 136.928 81.152 135.376 81.152C134.432 81.152 133.488 81.712 133.072 82.384V85.872C133.488 86.544 134.432 87.12 135.376 87.12ZM147.06 88H145.86V87.12C145.236 87.824 144.34 88.192 143.3 88.192C142.004 88.192 140.612 87.312 140.612 85.632C140.612 83.888 141.988 83.088 143.3 83.088C144.356 83.088 145.236 83.424 145.86 84.128V82.736C145.86 81.712 145.028 81.12 143.908 81.12C142.98 81.12 142.228 81.44 141.54 82.192L140.98 81.36C141.812 80.496 142.804 80.08 144.068 80.08C145.716 80.08 147.06 80.816 147.06 82.688V88ZM143.748 87.328C144.58 87.328 145.396 87.008 145.86 86.368V84.896C145.396 84.272 144.58 83.952 143.748 83.952C142.612 83.952 141.828 84.656 141.828 85.632C141.828 86.624 142.612 87.328 143.748 87.328ZM151.945 88.192C150.665 88.192 149.609 87.792 148.825 86.976L149.433 86.112C149.945 86.704 150.921 87.216 151.977 87.216C153.161 87.216 153.817 86.656 153.817 85.888C153.817 84.016 149.033 85.168 149.033 82.304C149.033 81.088 150.057 80.08 151.897 80.08C153.225 80.08 154.153 80.576 154.761 81.2L154.201 82.032C153.737 81.472 152.905 81.056 151.897 81.056C150.841 81.056 150.185 81.584 150.185 82.272C150.185 83.952 154.969 82.848 154.969 85.856C154.969 87.152 153.929 88.192 151.945 88.192ZM159.383 88.192C158.103 88.192 157.047 87.792 156.263 86.976L156.871 86.112C157.383 86.704 158.359 87.216 159.415 87.216C160.599 87.216 161.255 86.656 161.255 85.888C161.255 84.016 156.471 85.168 156.471 82.304C156.471 81.088 157.495 80.08 159.335 80.08C160.663 80.08 161.591 80.576 162.199 81.2L161.639 82.032C161.175 81.472 160.343 81.056 159.335 81.056C158.279 81.056 157.623 81.584 157.623 82.272C157.623 83.952 162.407 82.848 162.407 85.856C162.407 87.152 161.367 88.192 159.383 88.192ZM168.164 88.192C167.108 88.192 166.196 87.68 165.556 86.832V90.944H164.356V80.272H165.556V81.424C166.116 80.64 167.076 80.08 168.164 80.08C170.196 80.08 171.604 81.616 171.604 84.128C171.604 86.624 170.196 88.192 168.164 88.192ZM167.86 87.12C169.412 87.12 170.34 85.84 170.34 84.128C170.34 82.416 169.412 81.152 167.86 81.152C166.916 81.152 165.972 81.712 165.556 82.384V85.872C165.972 86.544 166.916 87.12 167.86 87.12ZM179.945 88H178.745V82.912C178.745 81.536 178.057 81.152 177.001 81.152C176.073 81.152 175.177 81.728 174.729 82.352V88H173.529V77.328H174.729V81.392C175.257 80.736 176.312 80.08 177.481 80.08C179.097 80.08 179.945 80.864 179.945 82.544V88ZM183.541 88H182.341V80.272H183.541V81.504C184.165 80.704 185.061 80.096 186.117 80.096V81.328C185.973 81.312 185.829 81.296 185.653 81.296C184.901 81.296 183.893 81.904 183.541 82.528V88ZM193.654 88H192.454V87.12C191.83 87.824 190.934 88.192 189.894 88.192C188.598 88.192 187.206 87.312 187.206 85.632C187.206 83.888 188.582 83.088 189.894 83.088C190.95 83.088 191.83 83.424 192.454 84.128V82.736C192.454 81.712 191.622 81.12 190.502 81.12C189.574 81.12 188.822 81.44 188.134 82.192L187.574 81.36C188.406 80.496 189.398 80.08 190.662 80.08C192.31 80.08 193.654 80.816 193.654 82.688V88ZM190.342 87.328C191.174 87.328 191.99 87.008 192.454 86.368V84.896C191.99 84.272 191.174 83.952 190.342 83.952C189.206 83.952 188.422 84.656 188.422 85.632C188.422 86.624 189.206 87.328 190.342 87.328ZM198.539 88.192C197.259 88.192 196.203 87.792 195.419 86.976L196.027 86.112C196.539 86.704 197.515 87.216 198.571 87.216C199.755 87.216 200.411 86.656 200.411 85.888C200.411 84.016 195.627 85.168 195.627 82.304C195.627 81.088 196.651 80.08 198.491 80.08C199.819 80.08 200.747 80.576 201.355 81.2L200.795 82.032C200.331 81.472 199.499 81.056 198.491 81.056C197.435 81.056 196.779 81.584 196.779 82.272C196.779 83.952 201.563 82.848 201.563 85.856C201.563 87.152 200.523 88.192 198.539 88.192ZM207.016 88.192C204.713 88.192 203.065 86.544 203.065 84.128C203.065 81.888 204.664 80.08 206.873 80.08C209.209 80.08 210.585 81.904 210.585 84.224V84.528H204.345C204.441 85.984 205.449 87.2 207.113 87.2C208.009 87.2 208.889 86.848 209.513 86.208L210.089 86.992C209.305 87.76 208.265 88.192 207.016 88.192ZM209.401 83.632C209.385 82.496 208.617 81.072 206.857 81.072C205.209 81.072 204.393 82.464 204.329 83.632H209.401ZM213.059 88.16C212.579 88.16 212.179 87.76 212.179 87.28C212.179 86.8 212.579 86.4 213.059 86.4C213.539 86.4 213.939 86.8 213.939 87.28C213.939 87.76 213.539 88.16 213.059 88.16ZM216.762 88.16C216.282 88.16 215.882 87.76 215.882 87.28C215.882 86.8 216.282 86.4 216.762 86.4C217.242 86.4 217.642 86.8 217.642 87.28C217.642 87.76 217.242 88.16 216.762 88.16ZM220.465 88.16C219.985 88.16 219.585 87.76 219.585 87.28C219.585 86.8 219.985 86.4 220.465 86.4C220.945 86.4 221.345 86.8 221.345 87.28C221.345 87.76 220.945 88.16 220.465 88.16Z" fill="#687887"/>
<path d="M277 80.5V80.5312C278.937 80.5312 280.5 82.0938 280.5 84C280.5 85.9375 278.937 87.5 277 87.5C275.062 87.5 273.5 85.9375 273.5 84C273.5 83.6562 273.562 83.3438 273.656 83.0312C273.875 83.1875 274.187 83.25 274.5 83.25C275.437 83.25 276.25 82.4688 276.25 81.5C276.218 81.2188 276.156 80.9062 276 80.6562C276.312 80.5625 276.656 80.5312 277 80.5ZM285.875 83.5625C285.937 83.6875 285.968 83.8438 285.968 84.0312C285.968 84.1875 285.937 84.3438 285.875 84.4688C284.187 87.7812 280.812 90 277 90C273.156 90 269.781 87.7812 268.093 84.4688C268.031 84.3438 268 84.1875 268 84C268 83.8438 268.031 83.6875 268.093 83.5625C269.781 80.25 273.156 78 277 78C280.812 78 284.187 80.25 285.875 83.5625ZM277 88.5C280.062 88.5 282.906 86.7812 284.406 84C282.906 81.2188 280.062 79.5 277 79.5C273.906 79.5 271.062 81.2188 269.562 84C271.062 86.7812 273.906 88.5 277 88.5Z" fill="#687887"/>
</g>
<defs>
<filter id="filter0_d_2274_7607" x="33" y="45" width="296" height="101" filterUnits="userSpaceOnUse" color-interpolation-filters="sRGB">
<feFlood flood-opacity="0" result="BackgroundImageFix"/>
<feColorMatrix in="SourceAlpha" type="matrix" values="0 0 0 0 0 0 0 0 0 0 0 0 0 0 0 0 0 0 127 0" result="hardAlpha"/>
<feOffset dy="12"/>
<feGaussianBlur stdDeviation="14"/>
<feColorMatrix type="matrix" values="0 0 0 0 0.235294 0 0 0 0 0.415686 0 0 0 0 0.67451 0 0 0 0.18 0"/>
<feBlend mode="normal" in2="BackgroundImageFix" result="effect1_dropShadow_2274_7607"/>
<feBlend mode="normal" in="SourceGraphic" in2="effect1_dropShadow_2274_7607" result="shape"/>
</filter>
</defs>
</svg>
