<svg width="362" height="159" viewBox="0 0 362 159" fill="none" xmlns="http://www.w3.org/2000/svg">
<rect width="362" height="158.375" fill="#F3F7FB"/>
<path d="M61.888 40.6H64.744C66.568 40.6 67.828 41.584 67.828 43.312C67.828 45.028 66.568 46.024 64.744 46.024H63.688V49H61.888V40.6ZM63.688 42.22V44.428H64.78C65.5 44.428 66.016 44.02 66.016 43.324C66.016 42.628 65.5 42.22 64.78 42.22H63.688ZM70.1778 49V40.6H71.9898V43.852H75.3498V40.6H77.1618V49H75.3498V45.58H71.9898V49H70.1778ZM88.5315 44.8C88.5315 47.224 86.5755 49.156 84.1395 49.156C81.7035 49.156 79.7475 47.224 79.7475 44.8C79.7475 42.376 81.7035 40.444 84.1395 40.444C86.5755 40.444 88.5315 42.376 88.5315 44.8ZM86.6835 44.8C86.6835 43.348 85.5675 42.196 84.1395 42.196C82.7115 42.196 81.5955 43.348 81.5955 44.8C81.5955 46.252 82.7115 47.404 84.1395 47.404C85.5675 47.404 86.6835 46.252 86.6835 44.8ZM96.8649 40.6H98.6169V49H96.8169L92.8689 43.456V49H91.1169V40.6H92.9529L96.8649 46.168V40.6ZM101.598 49V40.6H106.542V42.232H103.398V43.936H106.266V45.52H103.398V47.368H106.566V49H101.598ZM118.957 40.6H120.709V49H118.909L114.961 43.456V49H113.209V40.6H115.045L118.957 46.168V40.6ZM126.954 49.156C124.854 49.156 123.582 47.788 123.582 45.664V40.6H125.406V45.568C125.406 46.696 125.958 47.404 126.954 47.404C127.95 47.404 128.502 46.696 128.502 45.568V40.6H130.326V45.664C130.326 47.788 129.054 49.156 126.954 49.156ZM137.087 46.792L134.951 43.432V49H133.199V40.6H135.083L137.615 44.596L140.135 40.6H141.971V49H140.219V43.408L138.071 46.792H137.087ZM144.946 49V40.6H148.018C149.566 40.6 150.682 41.44 150.682 42.868C150.682 43.612 150.31 44.2 149.698 44.512C150.658 44.848 151.186 45.568 151.186 46.54C151.186 48.076 150.034 49 148.198 49H144.946ZM146.71 47.488H148.09C148.858 47.488 149.362 47.128 149.362 46.444C149.362 45.772 148.846 45.4 148.09 45.4H146.71V47.488ZM146.71 43.948H147.838C148.462 43.948 148.918 43.624 148.918 43.024C148.918 42.412 148.462 42.1 147.838 42.1H146.71V43.948ZM153.728 49V40.6H158.672V42.232H155.528V43.936H158.396V45.52H155.528V47.368H158.696V49H153.728ZM163.126 45.928V49H161.338V40.6H164.134C165.946 40.6 167.206 41.572 167.206 43.288C167.206 44.488 166.486 45.328 165.478 45.712L167.794 49H165.67L163.606 45.928H163.126ZM163.126 42.22V44.44H164.146C164.866 44.44 165.394 44.02 165.394 43.324C165.394 42.616 164.866 42.22 164.146 42.22H163.126ZM174.004 40.6H175.816V49H174.004V40.6ZM184.538 40.6H186.29V49H184.49L180.542 43.456V49H178.79V40.6H180.626L184.538 46.168V40.6ZM189.271 40.6H192.127C193.951 40.6 195.211 41.584 195.211 43.312C195.211 45.028 193.951 46.024 192.127 46.024H191.071V49H189.271V40.6ZM191.071 42.22V44.428H192.163C192.883 44.428 193.399 44.02 193.399 43.324C193.399 42.628 192.883 42.22 192.163 42.22H191.071ZM200.883 49.156C198.783 49.156 197.511 47.788 197.511 45.664V40.6H199.335V45.568C199.335 46.696 199.887 47.404 200.883 47.404C201.879 47.404 202.431 46.696 202.431 45.568V40.6H204.255V45.664C204.255 47.788 202.983 49.156 200.883 49.156ZM206.573 42.28V40.6H212.813V42.28H210.605V49H208.793V42.28H206.573Z" fill="#617290"/>
<g filter="url(#filter0_d_2274_7608)">
<g clip-path="url(#clip0_2274_7608)">
<path d="M61 68C61 64.6863 63.6863 62 67 62H295C298.314 62 301 64.6863 301 68V101C301 104.314 298.314 107 295 107H67C63.6863 107 61 104.314 61 101V68Z" fill="white"/>
<g clip-path="url(#clip1_2274_7608)">
<path fill-rule="evenodd" clip-rule="evenodd" d="M77 75H101V76.3875H77V75ZM77 77.7713H101V79.1588H77V77.7713ZM77 80.5388H101V81.9263H77V80.5388ZM77 83.3063H101V84.6938H77V83.3063ZM77 86.0813H101V87.4613H77V86.0813ZM77 88.845H101V90.2325H77V88.845ZM77 91.6125H101V93H77V91.6125Z" fill="#BD3D44"/>
<path fill-rule="evenodd" clip-rule="evenodd" d="M77 76.3877H101V77.7714H77V76.3877ZM77 79.1552H101V80.5389H77V79.1552ZM77 81.9227H101V83.3102H77V81.9227ZM77 84.6939H101V86.0814H77V84.6939ZM77 87.4614H101V88.8489H77V87.4614ZM77 90.2289H101V91.6164H77V90.2289Z" fill="white"/>
<path fill-rule="evenodd" clip-rule="evenodd" d="M77 75H90.68V84.6937H77V75Z" fill="#192F5D"/>
<path fill-rule="evenodd" clip-rule="evenodd" d="M78.1401 75.4121L78.2676 75.7984H78.6651L78.3426 76.0346L78.4663 76.4209L78.1401 76.1809L77.8176 76.4171L77.9376 76.0346L77.6113 75.7984H78.0201L78.1401 75.4121ZM80.4201 75.4121L80.5438 75.7984H80.9488L80.6226 76.0346L80.7426 76.4209L80.4201 76.1809L80.0938 76.4171L80.2176 76.0346L79.8951 75.7984H80.2926L80.4201 75.4121ZM82.7001 75.4121L82.8238 75.7984H83.2251L82.9026 76.0346L83.0263 76.4209L82.7001 76.1809L82.3738 76.4171L82.4976 76.0346L82.1713 75.7984H82.5763L82.7001 75.4121ZM84.9801 75.4121L85.1038 75.7984H85.5088L85.1826 76.0346L85.3063 76.4209L84.9801 76.1809L84.6538 76.4171L84.7813 76.0346L84.4513 75.7984H84.8526L84.9801 75.4121ZM87.2601 75.4121L87.3838 75.7984H87.7851L87.4626 76.0346L87.5863 76.4209L87.2601 76.1809L86.9338 76.4171L87.0576 76.0346L86.7351 75.7984H87.1363L87.2601 75.4121ZM89.5401 75.4121L89.6638 75.7984H90.0688L89.7388 76.0346L89.8663 76.4209L89.5401 76.1809L89.2138 76.4171L89.3413 76.0346L89.0113 75.7984H89.4163L89.5401 75.4121ZM79.2801 76.3871L79.4038 76.7696H79.8126L79.4863 77.0021L79.6063 77.3884L79.2876 77.1521L78.9613 77.3884L79.0776 77.0021L78.7626 76.7696H79.1638L79.2801 76.3871ZM81.5601 76.3871L81.6876 76.7696H82.0888L81.7588 77.0021L81.8863 77.3884L81.5601 77.1521L81.2338 77.3884L81.3576 77.0021L81.0313 76.7696H81.4363L81.5601 76.3871ZM83.8401 76.3871L83.9638 76.7696H84.3688L84.0426 77.0021L84.1663 77.3884L83.8401 77.1521L83.5138 77.3884L83.6376 77.0021L83.3151 76.7696H83.7126L83.8401 76.3871ZM86.1201 76.3871L86.2476 76.7696H86.6488L86.3188 77.0021L86.4463 77.3884L86.1201 77.1521L85.7976 77.3884L85.9176 77.0021L85.5913 76.7696H86.0001L86.1201 76.3871ZM88.4001 76.3871L88.5238 76.7696H88.9288L88.6026 77.0021L88.7263 77.3884L88.4001 77.1521L88.0738 77.3884L88.1976 77.0021L87.8751 76.7696H88.2763L88.4001 76.3871ZM78.1401 77.3471L78.2676 77.7371H78.6651L78.3426 77.9734L78.4663 78.3559L78.1401 78.1196L77.8176 78.3559L77.9376 77.9734L77.6113 77.7371H78.0201L78.1401 77.3471ZM80.4201 77.3471L80.5438 77.7371H80.9488L80.6226 77.9734L80.7426 78.3559L80.4201 78.1196L80.0938 78.3559L80.2176 77.9696L79.8951 77.7334H80.2926L80.4201 77.3471ZM82.7001 77.3471L82.8238 77.7334H83.2251L82.9026 77.9696L83.0263 78.3521L82.7001 78.1159L82.3738 78.3521L82.4976 77.9659L82.1713 77.7296H82.5763L82.7001 77.3471ZM84.9801 77.3471L85.1038 77.7334H85.5088L85.1826 77.9696L85.3063 78.3521L84.9801 78.1159L84.6538 78.3521L84.7813 77.9659L84.4513 77.7296H84.8526L84.9801 77.3471ZM87.2601 77.3471L87.3838 77.7334H87.7851L87.4626 77.9696L87.5863 78.3521L87.2601 78.1159L86.9338 78.3521L87.0576 77.9659L86.7351 77.7296H87.1363L87.2601 77.3471ZM89.5401 77.3471L89.6638 77.7334H90.0688L89.7388 77.9696L89.8663 78.3521L89.5401 78.1159L89.2138 78.3521L89.3413 77.9659L89.0113 77.7296H89.4163L89.5401 77.3471ZM79.2801 78.3221L79.4038 78.7046H79.8126L79.4863 78.9409L79.6101 79.3271L79.2838 79.0871L78.9576 79.3234L79.0813 78.9409L78.7588 78.7046H79.1601L79.2801 78.3221ZM81.5601 78.3221L81.6876 78.7046H82.0888L81.7588 78.9409L81.8863 79.3271L81.5601 79.0871L81.2338 79.3234L81.3576 78.9409L81.0313 78.7046H81.4363L81.5601 78.3221ZM83.8401 78.3221L83.9638 78.7046H84.3688L84.0426 78.9409L84.1663 79.3271L83.8401 79.0871L83.5138 79.3234L83.6376 78.9409L83.3151 78.7046H83.7126L83.8401 78.3221ZM86.1201 78.3221L86.2476 78.7046H86.6488L86.3226 78.9409L86.4463 79.3271L86.1201 79.0871L85.7976 79.3234L85.9176 78.9409L85.5913 78.7046H86.0001L86.1201 78.3221ZM88.4001 78.3221L88.5238 78.7046H88.9288L88.6026 78.9409L88.7263 79.3271L88.4001 79.0871L88.0738 79.3234L88.1976 78.9409L87.8751 78.7046H88.2763L88.4001 78.3221ZM78.1401 79.2934L78.2676 79.6759H78.6651L78.3426 79.9121L78.4663 80.2984L78.1401 80.0584L77.8176 80.2946L77.9376 79.9121L77.6113 79.6759H78.0201L78.1401 79.2934ZM80.4201 79.2934L80.5438 79.6759H80.9488L80.6226 79.9121L80.7426 80.2946L80.4201 80.0584L80.0938 80.2946L80.2176 79.9121L79.8951 79.6759H80.2926L80.4201 79.2934ZM82.7001 79.2934L82.8238 79.6759H83.2251L82.9026 79.9121L83.0263 80.2984L82.7001 80.0584L82.3738 80.2946L82.4976 79.9121L82.1713 79.6759H82.5763L82.7001 79.2934ZM84.9801 79.2934L85.1038 79.6759H85.5088L85.1826 79.9121L85.3063 80.2984L84.9801 80.0584L84.6538 80.2946L84.7813 79.9121L84.4513 79.6759H84.8526L84.9801 79.2934ZM87.2601 79.2934L87.3838 79.6759H87.7851L87.4626 79.9121L87.5863 80.2984L87.2601 80.0584L86.9338 80.2946L87.0576 79.9121L86.7351 79.6759H87.1363L87.2601 79.2934ZM89.5401 79.2934L89.6638 79.6759H90.0688L89.7388 79.9121L89.8663 80.2984L89.5401 80.0584L89.2138 80.2946L89.3376 79.9121L89.0076 79.6759H89.4126L89.5401 79.2934ZM79.2801 80.2609L79.4038 80.6471H79.8126L79.4863 80.8796L79.6101 81.2659L79.2838 81.0259L78.9576 81.2659L79.0813 80.8796L78.7588 80.6434H79.1601L79.2801 80.2609ZM81.5601 80.2609L81.6876 80.6471H82.0888L81.7588 80.8796L81.8863 81.2659L81.5601 81.0259L81.2338 81.2659L81.3576 80.8796L81.0313 80.6434H81.4363L81.5601 80.2609ZM83.8401 80.2609L83.9638 80.6471H84.3688L84.0426 80.8796L84.1663 81.2659L83.8401 81.0259L83.5138 81.2659L83.6376 80.8796L83.3151 80.6434H83.7126L83.8401 80.2609ZM86.1201 80.2609L86.2476 80.6471H86.6488L86.3226 80.8796L86.4463 81.2659L86.1201 81.0259L85.7976 81.2659L85.9176 80.8796L85.5913 80.6434H86.0001L86.1201 80.2609ZM88.4001 80.2609L88.5238 80.6471H88.9288L88.6026 80.8796L88.7263 81.2659L88.4001 81.0259L88.0738 81.2659L88.1976 80.8796L87.8751 80.6434H88.2763L88.4001 80.2609ZM78.1401 81.2284L78.2676 81.6146H78.6651L78.3426 81.8509L78.4663 82.2296L78.1401 81.9971L77.8176 82.2296L77.9376 81.8471L77.6113 81.6109H78.0201L78.1401 81.2284ZM80.4201 81.2284L80.5438 81.6146H80.9488L80.6226 81.8509L80.7463 82.2296L80.4201 81.9971L80.0938 82.2296L80.2213 81.8471L79.8951 81.6109H80.2926L80.4201 81.2284ZM82.7001 81.2284L82.8238 81.6146H83.2251L82.9026 81.8509L83.0263 82.2296L82.7001 81.9971L82.3738 82.2296L82.4976 81.8471L82.1713 81.6109H82.5763L82.7001 81.2284ZM84.9801 81.2284L85.1038 81.6146H85.5088L85.1826 81.8509L85.3063 82.2296L84.9801 81.9971L84.6538 82.2296L84.7813 81.8471L84.4513 81.6109H84.8526L84.9801 81.2284ZM87.2601 81.2284L87.3838 81.6146H87.7851L87.4626 81.8509L87.5863 82.2296L87.2601 81.9971L86.9338 82.2296L87.0576 81.8471L86.7351 81.6109H87.1363L87.2601 81.2284ZM89.5401 81.2284L89.6638 81.6146H90.0688L89.7388 81.8509L89.8663 82.2296L89.5401 81.9971L89.2138 82.2296L89.3413 81.8471L89.0113 81.6109H89.4163L89.5401 81.2284ZM79.2801 82.1996L79.4038 82.5821H79.8126L79.4863 82.8184L79.6101 83.2046L79.2838 82.9646L78.9576 83.2009L79.0813 82.8184L78.7588 82.5821H79.1601L79.2801 82.1996ZM81.5601 82.1996L81.6876 82.5821H82.0888L81.7588 82.8184L81.8863 83.2046L81.5601 82.9646L81.2338 83.2009L81.3576 82.8184L81.0313 82.5821H81.4363L81.5601 82.1996ZM83.8401 82.1996L83.9638 82.5821H84.3688L84.0426 82.8184L84.1663 83.2046L83.8401 82.9646L83.5138 83.2009L83.6376 82.8184L83.3151 82.5821H83.7126L83.8401 82.1996ZM86.1201 82.1996L86.2476 82.5821H86.6488L86.3226 82.8184L86.4463 83.2046L86.1201 82.9646L85.7976 83.2009L85.9176 82.8184L85.5913 82.5821H86.0001L86.1201 82.1996ZM88.4001 82.1996L88.5238 82.5821H88.9288L88.6026 82.8184L88.7263 83.2046L88.4001 82.9646L88.0738 83.2009L88.1976 82.8184L87.8751 82.5821H88.2763L88.4001 82.1996ZM78.1401 83.1709L78.2676 83.5534H78.6651L78.3426 83.7896L78.4663 84.1721L78.1401 83.9359L77.8176 84.1721L77.9376 83.7859L77.6113 83.5496H78.0201L78.1401 83.1709ZM80.4201 83.1709L80.5438 83.5534H80.9488L80.6226 83.7896L80.7463 84.1721L80.4201 83.9359L80.0938 84.1721L80.2213 83.7859L79.8951 83.5496H80.2926L80.4201 83.1709ZM82.7001 83.1709L82.8238 83.5534H83.2251L82.9101 83.7896L83.0338 84.1721L82.7076 83.9359L82.3813 84.1721L82.5051 83.7859L82.1788 83.5496H82.5838L82.7001 83.1709ZM84.9801 83.1709L85.1038 83.5534H85.5088L85.1826 83.7896L85.3063 84.1721L84.9801 83.9359L84.6538 84.1721L84.7813 83.7859L84.4513 83.5496H84.8526L84.9801 83.1709ZM87.2601 83.1709L87.3838 83.5534H87.7851L87.4626 83.7896L87.5863 84.1721L87.2601 83.9359L86.9338 84.1721L87.0576 83.7859L86.7351 83.5496H87.1363L87.2601 83.1709ZM89.5401 83.1709L89.6638 83.5534H90.0688L89.7388 83.7896L89.8663 84.1721L89.5401 83.9359L89.2138 84.1721L89.3413 83.7859L89.0113 83.5496H89.4163L89.5401 83.1709Z" fill="white"/>
</g>
<path d="M106.147 84.3965V83.265H109.092V80.289H110.208V83.265H113.153V84.3965H110.208V87.4035H109.092V84.3965H106.147ZM117.447 89H116.083V79.886L114.161 80.6765V79.2815L116.331 78.3515H117.447V89Z" fill="#242B42"/>
<path d="M127.984 86.2656L124.984 83.2656C124.828 83.125 124.828 82.8906 124.984 82.7344C125.125 82.5938 125.359 82.5938 125.516 82.7344L128.25 85.4844L130.984 82.75C131.125 82.5938 131.359 82.5938 131.516 82.75C131.656 82.8906 131.656 83.125 131.516 83.2656L128.5 86.2656C128.359 86.4219 128.125 86.4219 127.984 86.2656Z" fill="#242B42"/>
<path opacity="0.8" d="M142.353 85.443C142.353 82.7305 143.298 80.1885 144.895 78.3285H146.259C144.554 80.4365 143.686 82.839 143.686 85.443C143.686 88.047 144.554 90.434 146.259 92.5575H144.895C143.298 90.682 142.353 88.1555 142.353 85.443ZM146.954 90V89.0545L150.922 84.854C151.836 83.893 152.115 83.2265 152.115 82.405C152.115 81.3045 151.154 80.4675 149.914 80.4675C148.938 80.4675 147.93 81.1185 147.078 82.1725V80.545C147.822 79.708 148.922 79.181 149.93 79.181C151.976 79.181 153.479 80.4985 153.479 82.343C153.479 83.614 152.983 84.544 151.836 85.753L149 88.729H153.619V90H146.954ZM158.19 90H156.826V80.886L154.904 81.6765V80.2815L157.074 79.3515H158.19V90ZM163.228 88.884C164.561 88.884 165.755 88.047 165.755 86.652C165.755 85.288 164.608 84.4975 163.166 84.4975C162.221 84.4975 161.461 84.73 160.81 85.071L161.182 79.3515H166.638V80.607H162.36L162.159 83.459C162.407 83.335 162.98 83.2575 163.461 83.2575C165.507 83.2575 167.165 84.6215 167.165 86.59C167.165 88.8685 165.429 90.155 163.275 90.1705C162.314 90.1705 161.399 89.9225 160.516 89.3645V87.8455C161.399 88.543 162.298 88.884 163.228 88.884ZM171.403 85.443C171.403 88.1555 170.457 90.6975 168.861 92.5575H167.497C169.202 90.4495 170.07 88.047 170.07 85.443C170.07 82.839 169.202 80.452 167.497 78.3285H168.861C170.457 80.204 171.403 82.7305 171.403 85.443ZM179.741 88.884C181.074 88.884 182.267 88.047 182.267 86.652C182.267 85.288 181.12 84.4975 179.679 84.4975C178.733 84.4975 177.974 84.73 177.323 85.071L177.695 79.3515H183.151V80.607H178.873L178.671 83.459C178.919 83.335 179.493 83.2575 179.973 83.2575C182.019 83.2575 183.678 84.6215 183.678 86.59C183.678 88.8685 181.942 90.155 179.787 90.1705C178.826 90.1705 177.912 89.9225 177.028 89.3645V87.8455C177.912 88.543 178.811 88.884 179.741 88.884ZM187.753 88.884C189.086 88.884 190.279 88.047 190.279 86.652C190.279 85.288 189.132 84.4975 187.691 84.4975C186.745 84.4975 185.986 84.73 185.335 85.071L185.707 79.3515H191.163V80.607H186.885L186.683 83.459C186.931 83.335 187.505 83.2575 187.985 83.2575C190.031 83.2575 191.69 84.6215 191.69 86.59C191.69 88.8685 189.954 90.155 187.799 90.1705C186.838 90.1705 185.924 89.9225 185.04 89.3645V87.8455C185.924 88.543 186.823 88.884 187.753 88.884ZM195.765 88.884C197.098 88.884 198.291 88.047 198.291 86.652C198.291 85.288 197.144 84.4975 195.703 84.4975C194.757 84.4975 193.998 84.73 193.347 85.071L193.719 79.3515H199.175V80.607H194.897L194.695 83.459C194.943 83.335 195.517 83.2575 195.997 83.2575C198.043 83.2575 199.702 84.6215 199.702 86.59C199.702 88.8685 197.966 90.155 195.811 90.1705C194.85 90.1705 193.936 89.9225 193.052 89.3645V87.8455C193.936 88.543 194.835 88.884 195.765 88.884ZM201.353 86.528V85.319H206.065V86.528H201.353ZM210.472 88.884C211.805 88.884 212.998 88.047 212.998 86.652C212.998 85.288 211.851 84.4975 210.41 84.4975C209.464 84.4975 208.705 84.73 208.054 85.071L208.426 79.3515H213.882V80.607H209.604L209.402 83.459C209.65 83.335 210.224 83.2575 210.704 83.2575C212.75 83.2575 214.409 84.6215 214.409 86.59C214.409 88.8685 212.673 90.155 210.518 90.1705C209.557 90.1705 208.643 89.9225 207.759 89.3645V87.8455C208.643 88.543 209.542 88.884 210.472 88.884ZM218.484 88.884C219.817 88.884 221.01 88.047 221.01 86.652C221.01 85.288 219.863 84.4975 218.422 84.4975C217.476 84.4975 216.717 84.73 216.066 85.071L216.438 79.3515H221.894V80.607H217.616L217.414 83.459C217.662 83.335 218.236 83.2575 218.716 83.2575C220.762 83.2575 222.421 84.6215 222.421 86.59C222.421 88.8685 220.685 90.155 218.53 90.1705C217.569 90.1705 216.655 89.9225 215.771 89.3645V87.8455C216.655 88.543 217.554 88.884 218.484 88.884ZM226.495 88.884C227.828 88.884 229.022 88.047 229.022 86.652C229.022 85.288 227.875 84.4975 226.433 84.4975C225.488 84.4975 224.728 84.73 224.077 85.071L224.449 79.3515H229.905V80.607H225.627L225.426 83.459C225.674 83.335 226.247 83.2575 226.728 83.2575C228.774 83.2575 230.432 84.6215 230.432 86.59C230.432 88.8685 228.696 90.155 226.542 90.1705C225.581 90.1705 224.666 89.9225 223.783 89.3645V87.8455C224.666 88.543 225.565 88.884 226.495 88.884ZM234.507 88.884C235.84 88.884 237.034 88.047 237.034 86.652C237.034 85.288 235.887 84.4975 234.445 84.4975C233.5 84.4975 232.74 84.73 232.089 85.071L232.461 79.3515H237.917V80.607H233.639L233.438 83.459C233.686 83.335 234.259 83.2575 234.74 83.2575C236.786 83.2575 238.444 84.6215 238.444 86.59C238.444 88.8685 236.708 90.155 234.554 90.1705C233.593 90.1705 232.678 89.9225 231.795 89.3645V87.8455C232.678 88.543 233.577 88.884 234.507 88.884Z" fill="#617290"/>
</g>
<path d="M67 62.5H295C298.038 62.5 300.5 64.9624 300.5 68V101C300.5 104.038 298.038 106.5 295 106.5H67C63.9624 106.5 61.5 104.038 61.5 101V68C61.5 64.9624 63.9624 62.5 67 62.5Z" stroke="#828EA7"/>
</g>
<defs>
<filter id="filter0_d_2274_7608" x="33" y="46" width="296" height="101" filterUnits="userSpaceOnUse" color-interpolation-filters="sRGB">
<feFlood flood-opacity="0" result="BackgroundImageFix"/>
<feColorMatrix in="SourceAlpha" type="matrix" values="0 0 0 0 0 0 0 0 0 0 0 0 0 0 0 0 0 0 127 0" result="hardAlpha"/>
<feOffset dy="12"/>
<feGaussianBlur stdDeviation="14"/>
<feColorMatrix type="matrix" values="0 0 0 0 0.235294 0 0 0 0 0.415686 0 0 0 0 0.67451 0 0 0 0.18 0"/>
<feBlend mode="normal" in2="BackgroundImageFix" result="effect1_dropShadow_2274_7608"/>
<feBlend mode="normal" in="SourceGraphic" in2="effect1_dropShadow_2274_7608" result="shape"/>
</filter>
<clipPath id="clip0_2274_7608">
<path d="M61 68C61 64.6863 63.6863 62 67 62H295C298.314 62 301 64.6863 301 68V101C301 104.314 298.314 107 295 107H67C63.6863 107 61 104.314 61 101V68Z" fill="white"/>
</clipPath>
<clipPath id="clip1_2274_7608">
<rect x="77" y="75" width="24" height="18" rx="1" fill="white"/>
</clipPath>
</defs>
</svg>
