<svg width="362" height="159" viewBox="0 0 362 159" fill="none" xmlns="http://www.w3.org/2000/svg">
<rect width="362" height="158.375" fill="#F3F7FB"/>
<g filter="url(#filter0_d_2274_7609)">
<g clip-path="url(#clip0_2274_7609)">
<path d="M46.2832 38.1904H315.717C316.873 38.1905 317.809 39.1273 317.81 40.2832V118.717C317.809 119.873 316.873 120.81 315.717 120.81H46.2832C45.1273 120.81 44.1905 119.873 44.1904 118.717V40.2832C44.1905 39.1273 45.1273 38.1905 46.2832 38.1904Z" fill="white"/>
<path d="M46.2832 38.1904H315.717C316.873 38.1905 317.809 39.1273 317.81 40.2832V118.717C317.809 119.873 316.873 120.81 315.717 120.81H46.2832C45.1273 120.81 44.1905 119.873 44.1904 118.717V40.2832C44.1905 39.1273 45.1273 38.1905 46.2832 38.1904Z" stroke="#828EA7" stroke-width="0.380556"/>
<path d="M54.3704 47.0575C54.751 46.7911 54.9793 46.3725 54.9793 45.9919C54.9793 45.5882 54.8189 45.201 54.5335 44.9156C54.248 44.6301 53.8608 44.4697 53.4571 44.4697H51.0977V49.7975H53.7615C54.5607 49.7975 55.1696 49.1506 55.1696 48.3514C55.1696 47.7806 54.8652 47.2858 54.3704 47.0575ZM52.2393 45.4211H53.381C53.5324 45.4211 53.6776 45.4813 53.7846 45.5883C53.8917 45.6954 53.9518 45.8406 53.9518 45.9919C53.9518 46.1433 53.8917 46.2885 53.7846 46.3956C53.6776 46.5026 53.5324 46.5628 53.381 46.5628H52.2393V45.4211ZM53.5713 48.8461H52.2393V47.7044H53.5713C53.7227 47.7044 53.8679 47.7646 53.9749 47.8716C54.082 47.9787 54.1421 48.1239 54.1421 48.2753C54.1421 48.4267 54.082 48.5719 53.9749 48.6789C53.8679 48.786 53.7227 48.8461 53.5713 48.8461Z" fill="black" fill-opacity="0.6"/>
<path d="M67.5945 44.4697V45.6114H68.4317L67.1378 48.6558H66.0723V49.7975H69.1167V48.6558H68.2795L69.5734 45.6114H70.6389V44.4697H67.5945Z" fill="black" fill-opacity="0.6"/>
<path d="M83.8561 47.8917L83.9627 47.945C84.0616 48.0021 84.1339 48.0592 84.1796 48.1125C84.2253 48.1657 84.2481 48.2266 84.2481 48.3027C84.2481 48.4169 84.191 48.5158 84.0807 48.5882C83.9665 48.6643 83.7914 48.7023 83.5517 48.7023C82.9036 48.6723 82.267 48.5199 81.6755 48.2533V49.5357C82.2549 49.7897 82.8857 49.9044 83.5174 49.8706C83.9969 49.8706 84.4117 49.7983 84.7657 49.6575C85.1196 49.5167 85.3898 49.315 85.58 49.06C85.7703 48.8051 85.8617 48.5082 85.8617 48.1772C85.8617 48.0782 85.854 47.9831 85.8388 47.8917H83.8561ZM81.7631 46.3695C81.7326 46.2401 81.7174 46.1031 81.7174 45.9509C81.7174 45.46 81.9153 45.0756 82.3187 44.8016C82.7183 44.5276 83.2701 44.3906 83.9703 44.3906C84.5868 44.3906 85.2185 44.52 85.8617 44.7712L85.3669 45.8862C84.8075 45.6579 84.328 45.5437 83.9208 45.5437C83.7115 45.5437 83.5555 45.5742 83.4642 45.6427C83.3652 45.7073 83.3195 45.7873 83.3195 45.8862C83.3195 45.989 83.3804 46.0841 83.5022 46.1678C83.5669 46.2135 83.7039 46.282 83.9018 46.3695H81.7631ZM80.1533 47.5112H87.0033V46.7501H80.1533V47.5112Z" fill="black" fill-opacity="0.6"/>
<path d="M98.0758 47.8338C97.7702 47.5271 97.5986 47.1118 97.5986 46.6788C97.5986 46.2459 97.7702 45.8305 98.0758 45.5238L99.3582 44.2414C99.5091 44.0882 99.6889 43.9666 99.8872 43.8836C100.085 43.8006 100.298 43.7578 100.513 43.7578C100.728 43.7578 100.941 43.8006 101.139 43.8836C101.338 43.9666 101.517 44.0882 101.668 44.2414C101.973 44.5479 102.143 44.9624 102.143 45.3944C102.143 45.8265 101.973 46.241 101.668 46.5475L100.922 47.2021C100.857 47.2677 100.768 47.3045 100.675 47.3045C100.582 47.3045 100.493 47.2677 100.428 47.2021C100.362 47.1365 100.325 47.0475 100.325 46.9547C100.325 46.8619 100.362 46.773 100.428 46.7074L101.177 46.0566C101.264 45.9696 101.333 45.8664 101.38 45.7528C101.427 45.6392 101.452 45.5174 101.452 45.3944C101.452 45.2715 101.427 45.1497 101.38 45.0361C101.333 44.9225 101.264 44.8192 101.177 44.7323C101.09 44.6453 100.987 44.5763 100.873 44.5293C100.76 44.4822 100.638 44.458 100.515 44.458C100.392 44.458 100.27 44.4822 100.157 44.5293C100.043 44.5763 99.9399 44.6453 99.853 44.7323L98.5667 46.0147C98.4797 46.1017 98.4107 46.2049 98.3636 46.3185C98.3165 46.4321 98.2923 46.5539 98.2923 46.6769C98.2923 46.7999 98.3165 46.9217 98.3636 47.0353C98.4107 47.1489 98.4797 47.2521 98.5667 47.3391C98.6323 47.4047 98.6691 47.4937 98.6691 47.5864C98.6691 47.6792 98.6323 47.7682 98.5667 47.8338C98.5011 47.8994 98.4121 47.9363 98.3193 47.9363C98.2265 47.9363 98.1376 47.8994 98.072 47.8338H98.0758Z" fill="black" fill-opacity="0.6"/>
<path d="M95.9332 50.0258C95.6276 49.7191 95.4561 49.3038 95.4561 48.8708C95.4561 48.4379 95.6276 48.0225 95.9332 47.7158L96.6677 46.9928C96.7333 46.9272 96.8223 46.8903 96.9151 46.8903C97.0078 46.8903 97.0968 46.9272 97.1624 46.9928C97.228 47.0584 97.2649 47.1474 97.2649 47.2401C97.2649 47.3329 97.228 47.4219 97.1624 47.4875L96.428 48.2105C96.2523 48.3862 96.1537 48.6244 96.1537 48.8727C96.1537 49.1211 96.2523 49.3593 96.428 49.5349C96.6036 49.7105 96.8418 49.8092 97.0901 49.8092C97.3385 49.8092 97.5767 49.7105 97.7523 49.5349L99.0348 48.2486C99.4001 47.8833 99.4001 47.2896 99.0348 46.9243C98.9692 46.8587 98.9323 46.7697 98.9323 46.6769C98.9323 46.5841 98.9692 46.4952 99.0348 46.4295C99.1004 46.3639 99.1893 46.3271 99.2821 46.3271C99.3749 46.3271 99.4639 46.3639 99.5295 46.4295C99.8351 46.7363 100.007 47.1516 100.007 47.5845C100.007 48.0175 99.8351 48.4328 99.5295 48.7395L98.2432 50.0258C98.0924 50.1789 97.9126 50.3006 97.7143 50.3836C97.516 50.4666 97.3032 50.5093 97.0882 50.5093C96.8733 50.5093 96.6604 50.4666 96.4622 50.3836C96.2639 50.3006 96.0841 50.1789 95.9332 50.0258Z" fill="black" fill-opacity="0.6"/>
<path d="M118.17 46.1821V47.3237H117.028V49.9876H115.887V47.3237H114.745V46.1821H118.17ZM116.648 44.2793H121.976V45.421H119.692V49.9876H118.551V45.421H116.648V44.2793Z" fill="black" fill-opacity="0.6"/>
<path d="M131.299 49.037H132.44L133.201 47.5148V45.2314H130.918V47.5148H132.06L131.299 49.037ZM134.343 49.037H135.485L136.246 47.5148V45.2314H133.962V47.5148H135.104L134.343 49.037Z" fill="black" fill-opacity="0.6"/>
<path d="M151.164 47.1334L149.947 48.3511L150.479 48.8839L152.23 47.1334L150.479 45.3828L149.947 45.9156L151.164 47.1334ZM146.445 47.1334L147.663 45.9156L147.13 45.3828L145.38 47.1334L147.13 48.8839L147.663 48.3511L146.445 47.1334Z" fill="black" fill-opacity="0.6"/>
<path d="M160.982 44.0898C160.78 44.0898 160.586 44.17 160.444 44.3128C160.301 44.4555 160.221 44.6491 160.221 44.851C160.221 45.0528 160.301 45.2464 160.444 45.3891C160.586 45.5319 160.78 45.6121 160.982 45.6121C161.184 45.6121 161.377 45.5319 161.52 45.3891C161.663 45.2464 161.743 45.0528 161.743 44.851C161.743 44.6491 161.663 44.4555 161.52 44.3128C161.377 44.17 161.184 44.0898 160.982 44.0898ZM160.982 46.3732C160.78 46.3732 160.586 46.4534 160.444 46.5961C160.301 46.7388 160.221 46.9324 160.221 47.1343C160.221 47.3361 160.301 47.5297 160.444 47.6725C160.586 47.8152 160.78 47.8954 160.982 47.8954C161.184 47.8954 161.377 47.8152 161.52 47.6725C161.663 47.5297 161.743 47.3361 161.743 47.1343C161.743 46.9324 161.663 46.7388 161.52 46.5961C161.377 46.4534 161.184 46.3732 160.982 46.3732ZM160.982 48.6565C160.78 48.6565 160.586 48.7367 160.444 48.8794C160.301 49.0222 160.221 49.2158 160.221 49.4176C160.221 49.6195 160.301 49.8131 160.444 49.9558C160.586 50.0985 160.78 50.1787 160.982 50.1787C161.184 50.1787 161.377 50.0985 161.52 49.9558C161.663 49.8131 161.743 49.6195 161.743 49.4176C161.743 49.2158 161.663 49.0222 161.52 48.8794C161.377 48.7367 161.184 48.6565 160.982 48.6565ZM162.504 49.7982H167.832V49.0371H162.504V49.7982ZM162.504 47.5148H167.832V46.7537H162.504V47.5148ZM162.504 44.4704V45.2315H167.832V44.4704H162.504Z" fill="black" fill-opacity="0.6"/>
<path d="M175.634 49.0371H176.395V49.2273H176.014V49.6079H176.395V49.7982H175.634V50.1787H176.775V48.6565H175.634V49.0371ZM176.014 45.6121H176.395V44.0898H175.634V44.4704H176.014V45.6121ZM175.634 46.7537H176.319L175.634 47.5529V47.8954H176.775V47.5148H176.09L176.775 46.7157V46.3732H175.634V46.7537ZM177.537 44.4704V45.2315H182.864V44.4704H177.537ZM177.537 49.7982H182.864V49.0371H177.537V49.7982ZM177.537 47.5148H182.864V46.7537H177.537V47.5148Z" fill="black" fill-opacity="0.6"/>
<path d="M191.237 49.7975H198.467V49.0364H191.237V49.7975ZM193.901 47.5142H198.467V46.7531H193.901V47.5142ZM190.742 47.4L191.808 48.5036L192.378 47.9708L191.617 47.1336L192.378 46.3725L191.846 45.8017L190.476 47.1336L190.742 47.4ZM191.237 44.4697V45.2308H198.467V44.4697H191.237Z" fill="black" fill-opacity="0.125"/>
<path d="M206.458 49.7975H213.689V49.0364H206.458V49.7975ZM209.122 47.5142H213.689V46.7531H209.122V47.5142ZM206.496 47.1336L205.697 47.9708L206.23 48.5036L207.6 47.1336L207.334 46.8672L206.268 45.8017L205.697 46.3344L206.496 47.1336ZM206.458 44.4697V45.2308H213.689V44.4697H206.458Z" fill="black" fill-opacity="0.125"/>
<path d="M293.759 45.8015C292.769 45.8015 291.856 46.182 291.133 46.7909L289.763 45.4209V48.8459H293.188L291.818 47.4759C292.198 47.1677 292.646 46.9556 293.126 46.8577C293.605 46.7597 294.101 46.7788 294.572 46.9132C295.042 47.0476 295.473 47.2935 295.829 47.6299C296.184 47.9663 296.453 48.3834 296.613 48.8459L297.526 48.5415C297.261 47.742 296.751 47.0466 296.067 46.5545C295.384 46.0624 294.563 45.7989 293.72 45.8015H293.759Z" fill="black" fill-opacity="0.125"/>
<path d="M311.397 46.7909C310.901 46.3552 310.305 46.0493 309.662 45.9004C309.018 45.7515 308.348 45.7643 307.711 45.9377C307.074 46.1111 306.49 46.4397 306.011 46.8941C305.532 47.3484 305.173 47.9144 304.966 48.5415L305.917 48.8459C306.075 48.377 306.344 47.9535 306.703 47.6122C307.061 47.2709 307.497 47.022 307.973 46.8871C308.449 46.7521 308.95 46.7352 309.434 46.8378C309.918 46.9404 310.37 47.1594 310.75 47.4759L309.342 48.8459H312.767V45.4209L311.397 46.7909Z" fill="black" fill-opacity="0.125"/>
<mask id="path-28-inside-1_2274_7609" fill="white">
<path d="M44 56.2666H318V87.0916H44V56.2666Z"/>
</mask>
<path d="M44 56.2666V56.6472H318V56.2666V55.886H44V56.2666Z" fill="#828EA7" mask="url(#path-28-inside-1_2274_7609)"/>
<path d="M50.6197 66.833V62.704H51.9056C52.6666 62.704 53.1915 63.1169 53.1915 63.7952C53.1915 64.1845 53.0205 64.4854 52.6961 64.6387C53.1738 64.798 53.4393 65.1637 53.4393 65.6592C53.4393 66.3965 52.8848 66.833 52.0295 66.833H50.6197ZM51.1447 66.367H52.0236C52.5604 66.367 52.9084 66.1016 52.9084 65.6415C52.9084 65.1991 52.5486 64.9219 52.0118 64.9219H51.1447V66.367ZM51.1447 64.4677H51.8997C52.3598 64.4677 52.6725 64.2258 52.6725 63.8188C52.6725 63.4059 52.3598 63.17 51.8938 63.17H51.1447V64.4677ZM55.5525 63.9014C56.4136 63.9014 57.0507 64.5679 57.0507 65.3996C57.0507 66.2313 56.4136 66.8979 55.5525 66.8979C54.6913 66.8979 54.0542 66.2313 54.0542 65.3996C54.0542 64.5679 54.6913 63.9014 55.5525 63.9014ZM55.5525 64.3674C54.9921 64.3674 54.5674 64.8275 54.5674 65.3996C54.5674 65.9718 54.9921 66.4319 55.5525 66.4319C56.1128 66.4319 56.5375 65.9718 56.5375 65.3996C56.5375 64.8275 56.1128 64.3674 55.5525 64.3674ZM60.0812 62.704H60.5826V66.833H60.0812V66.3788C59.8747 66.6914 59.4854 66.8979 59.0666 66.8979C58.2526 66.8979 57.6274 66.249 57.6274 65.3996C57.6274 64.5561 58.2526 63.9014 59.0666 63.9014C59.4854 63.9014 59.8688 64.0843 60.0812 64.3969V62.704ZM60.1107 65.3996C60.1107 64.8216 59.686 64.3674 59.1256 64.3674C58.5653 64.3674 58.1406 64.8216 58.1406 65.3996C58.1406 65.9777 58.5653 66.4319 59.1256 66.4319C59.686 66.4319 60.1107 65.9777 60.1107 65.3996ZM63.9932 63.9663L62.6129 67.2695C62.3534 67.8889 62.0997 68.1307 61.6691 68.1307C61.5452 68.1307 61.4391 68.1071 61.3565 68.0717V67.6234C61.4214 67.647 61.5217 67.6706 61.6278 67.6706C61.8579 67.6706 61.9935 67.5349 62.1469 67.1692L62.318 66.7563L61.1795 63.9663H61.7222L62.5834 66.1783L63.4682 63.9663H63.9932ZM69.4686 64.7685C69.4686 65.9423 68.5603 66.833 67.4159 66.833H66.1123V62.704H67.4159C68.5603 62.704 69.4686 63.5947 69.4686 64.7685ZM68.926 64.7685C68.926 63.8837 68.283 63.1936 67.4041 63.1936H66.6373V66.3434H67.4041C68.283 66.3434 68.926 65.6533 68.926 64.7685ZM72.6725 65.9836V66.5322C72.354 66.7622 71.9647 66.8979 71.5636 66.8979C70.6493 66.8979 70.0595 66.2431 70.0595 65.3996C70.0595 64.5443 70.6493 63.9014 71.4751 63.9014C72.2773 63.9014 72.8259 64.562 72.8259 65.3761C72.8259 65.4881 72.8141 65.5589 72.8141 65.5589H70.5667C70.608 66.0367 71.0032 66.4378 71.599 66.4378C71.9647 66.4378 72.3186 66.2903 72.6725 65.9836ZM70.5785 65.1401H72.3127C72.2714 64.6859 71.9352 64.3438 71.4633 64.3438C70.9855 64.3438 70.6139 64.7508 70.5785 65.1401ZM74.1305 66.833H73.6232V64.4205H73.1808V63.9663H73.6232V63.7185C73.6232 62.9871 74.042 62.6332 74.6083 62.6332C74.8148 62.6332 74.9504 62.6686 75.0389 62.704V63.1582C74.9504 63.1228 74.8383 63.0992 74.6909 63.0992C74.3724 63.0992 74.1305 63.2584 74.1305 63.7067V63.9663H74.9327V64.4205H74.1305V66.833ZM77.2033 65.0103V64.9396C77.2033 64.5797 76.9496 64.3615 76.5249 64.3615C76.1356 64.3615 75.8466 64.5208 75.5517 64.7921V64.2612C75.8112 64.0489 76.1238 63.9014 76.5367 63.9014C77.2741 63.9014 77.6988 64.3084 77.6988 64.9749V66.833H77.221V66.4555C76.9968 66.7445 76.6488 66.8979 76.2713 66.8979C75.764 66.8979 75.4042 66.5499 75.4042 66.078C75.4042 65.5648 75.7286 65.2581 76.3598 65.1519L77.2033 65.0103ZM75.9115 66.0485C75.9115 66.2903 76.1002 66.4496 76.3657 66.4496C76.8553 66.4496 77.2092 66.1311 77.2092 65.6887V65.4468L76.4424 65.5825C76.1002 65.6474 75.9115 65.8008 75.9115 66.0485ZM80.6063 65.4645V63.9663H81.1136V66.833H80.6063V66.4201C80.4293 66.7032 80.1285 66.8979 79.6979 66.8979C78.9724 66.8979 78.5536 66.4083 78.5536 65.6474V63.9663H79.0609V65.5884C79.0609 66.1016 79.3204 66.426 79.8041 66.426C80.2878 66.426 80.6063 66.0485 80.6063 65.4645ZM82.0759 62.704H82.5832V66.833H82.0759V62.704ZM83.1631 64.3556L84.1482 63.2938H84.1659V63.9663H84.9681V64.4205H84.1659V65.9364C84.1659 66.2726 84.3133 66.426 84.6437 66.426C84.7557 66.426 84.8796 66.3965 84.9681 66.3375V66.8094C84.8678 66.8625 84.7203 66.8979 84.5257 66.8979C83.983 66.8979 83.6586 66.5617 83.6586 66.0072V64.4205H83.1631V64.3556Z" fill="#242B42"/>
</g>
</g>
<defs>
<filter id="filter0_d_2274_7609" x="33.3444" y="31.9111" width="295.311" height="104.311" filterUnits="userSpaceOnUse" color-interpolation-filters="sRGB">
<feFlood flood-opacity="0" result="BackgroundImageFix"/>
<feColorMatrix in="SourceAlpha" type="matrix" values="0 0 0 0 0 0 0 0 0 0 0 0 0 0 0 0 0 0 127 0" result="hardAlpha"/>
<feOffset dy="4.56667"/>
<feGaussianBlur stdDeviation="5.32778"/>
<feColorMatrix type="matrix" values="0 0 0 0 0.235294 0 0 0 0 0.415686 0 0 0 0 0.67451 0 0 0 0.18 0"/>
<feBlend mode="normal" in2="BackgroundImageFix" result="effect1_dropShadow_2274_7609"/>
<feBlend mode="normal" in="SourceGraphic" in2="effect1_dropShadow_2274_7609" result="shape"/>
</filter>
<clipPath id="clip0_2274_7609">
<rect width="274" height="83" fill="white" transform="translate(44 38)"/>
</clipPath>
</defs>
</svg>
