<svg width="362" height="159" viewBox="0 0 362 159" fill="none" xmlns="http://www.w3.org/2000/svg">
<g clip-path="url(#clip0_2274_7611)">
<rect width="362" height="158.375" fill="#F3F7FB"/>
<path d="M53.216 21.28V19.6H59.456V21.28H57.248V28H55.436V21.28H53.216ZM61.756 28V19.6H66.7V21.232H63.556V22.936H66.424V24.52H63.556V26.368H66.724V28H61.756ZM68.8473 19.6H70.9233L72.5913 22.252L74.2713 19.6H76.3113L73.6353 23.668L76.5033 28H74.4153L72.5673 25.096L70.6953 28H68.6553L71.5113 23.68L68.8473 19.6ZM78.0269 21.28V19.6H84.2669V21.28H82.0589V28H80.2469V21.28H78.0269ZM93.1597 19.6H94.7557L98.1277 28H96.2437L95.5357 26.188H92.3317L91.6237 28H89.7757L93.1597 19.6ZM93.9277 21.892L92.8837 24.64H94.9957L93.9277 21.892ZM102.099 24.928V28H100.311V19.6H103.107C104.919 19.6 106.179 20.572 106.179 22.288C106.179 23.488 105.459 24.328 104.451 24.712L106.767 28H104.643L102.579 24.928H102.099ZM102.099 21.22V23.44H103.119C103.839 23.44 104.367 23.02 104.367 22.324C104.367 21.616 103.839 21.22 103.119 21.22H102.099ZM108.976 28V19.6H113.92V21.232H110.776V22.936H113.644V24.52H110.776V26.368H113.944V28H108.976ZM119.236 19.6H120.832L124.204 28H122.32L121.612 26.188H118.408L117.7 28H115.852L119.236 19.6ZM120.004 21.892L118.96 24.64H121.072L120.004 21.892Z" fill="#617290"/>
<g filter="url(#filter0_d_2274_7611)">
<path d="M59 41.5H287C290.038 41.5 292.5 43.9624 292.5 47V121C292.5 124.038 290.038 126.5 287 126.5H59C55.9624 126.5 53.5 124.038 53.5 121V47C53.5 43.9624 55.9624 41.5 59 41.5Z" fill="white"/>
<path d="M59 41.5H287C290.038 41.5 292.5 43.9624 292.5 47V121C292.5 124.038 290.038 126.5 287 126.5H59C55.9624 126.5 53.5 124.038 53.5 121V47C53.5 43.9624 55.9624 41.5 59 41.5Z" stroke="#828EA7"/>
<g clip-path="url(#clip1_2274_7611)">
<path d="M74.154 65.164L70.186 59.15H71.798L74.8515 63.893L77.905 59.15H79.486L75.5335 65.164V70H74.154V65.164ZM82.9643 62.2965C85.2273 62.2965 86.9013 64.048 86.9013 66.2335C86.9013 68.419 85.2273 70.1705 82.9643 70.1705C80.7013 70.1705 79.0273 68.419 79.0273 66.2335C79.0273 64.048 80.7013 62.2965 82.9643 62.2965ZM82.9643 63.521C81.4918 63.521 80.3758 64.73 80.3758 66.2335C80.3758 67.737 81.4918 68.946 82.9643 68.946C84.4368 68.946 85.5528 67.737 85.5528 66.2335C85.5528 64.73 84.4368 63.521 82.9643 63.521ZM94.1235 66.404V62.467H95.4565V70H94.1235V68.915C93.6585 69.659 92.868 70.1705 91.7365 70.1705C89.83 70.1705 88.7295 68.884 88.7295 66.8845V62.467H90.0625V66.7295C90.0625 68.078 90.7445 68.9305 92.0155 68.9305C93.2865 68.9305 94.1235 67.9385 94.1235 66.404ZM102.149 62.374V63.707C102.149 63.707 102.01 63.676 101.777 63.676C100.382 63.676 99.5298 64.792 99.5298 66.4195V70H98.2123V62.467H99.5143V63.8C99.8553 62.932 100.832 62.343 101.824 62.343C102.01 62.343 102.149 62.374 102.149 62.374ZM106.69 63.49L109.278 60.7H109.325V62.467H111.433V63.6605H109.325V67.644C109.325 68.5275 109.712 68.9305 110.58 68.9305C110.875 68.9305 111.2 68.853 111.433 68.698V69.938C111.169 70.0775 110.782 70.1705 110.27 70.1705C108.844 70.1705 107.992 69.287 107.992 67.83V63.6605H106.69V63.49ZM119.505 67.768V69.2095C118.668 69.814 117.645 70.1705 116.591 70.1705C114.189 70.1705 112.639 68.45 112.639 66.2335C112.639 63.986 114.189 62.2965 116.359 62.2965C118.467 62.2965 119.908 64.0325 119.908 66.1715C119.908 66.466 119.877 66.652 119.877 66.652H113.972C114.08 67.9075 115.119 68.9615 116.684 68.9615C117.645 68.9615 118.575 68.574 119.505 67.768ZM114.003 65.5515H118.56C118.451 64.358 117.568 63.459 116.328 63.459C115.072 63.459 114.096 64.5285 114.003 65.5515ZM126.146 70L124.085 67.086L122.008 70H120.504L123.31 66.156L120.628 62.467H122.178L124.116 65.195L126.069 62.467H127.588L124.906 66.125L127.712 70H126.146ZM128.273 63.49L130.862 60.7H130.908V62.467H133.016V63.6605H130.908V67.644C130.908 68.5275 131.296 68.9305 132.164 68.9305C132.458 68.9305 132.784 68.853 133.016 68.698V69.938C132.753 70.0775 132.365 70.1705 131.854 70.1705C130.428 70.1705 129.575 69.287 129.575 67.83V63.6605H128.273V63.49ZM140.023 66.063V70H138.69V59.15H140.023V63.552C140.488 62.808 141.294 62.2965 142.425 62.2965C144.347 62.2965 145.463 63.583 145.463 65.5825V70H144.13V65.7375C144.13 64.389 143.433 63.5365 142.146 63.5365C140.86 63.5365 140.023 64.5285 140.023 66.063ZM154.206 67.768V69.2095C153.369 69.814 152.346 70.1705 151.292 70.1705C148.89 70.1705 147.34 68.45 147.34 66.2335C147.34 63.986 148.89 62.2965 151.06 62.2965C153.168 62.2965 154.609 64.0325 154.609 66.1715C154.609 66.466 154.578 66.652 154.578 66.652H148.673C148.781 67.9075 149.82 68.9615 151.385 68.9615C152.346 68.9615 153.276 68.574 154.206 67.768ZM148.704 65.5515H153.261C153.152 64.358 152.269 63.459 151.029 63.459C149.773 63.459 148.797 64.5285 148.704 65.5515ZM160.452 62.374V63.707C160.452 63.707 160.312 63.676 160.08 63.676C158.685 63.676 157.832 64.792 157.832 66.4195V70H156.515V62.467H157.817V63.8C158.158 62.932 159.134 62.343 160.126 62.343C160.312 62.343 160.452 62.374 160.452 62.374ZM168.172 67.768V69.2095C167.335 69.814 166.312 70.1705 165.258 70.1705C162.855 70.1705 161.305 68.45 161.305 66.2335C161.305 63.986 162.855 62.2965 165.025 62.2965C167.133 62.2965 168.575 64.0325 168.575 66.1715C168.575 66.466 168.544 66.652 168.544 66.652H162.638C162.747 67.9075 163.785 68.9615 165.351 68.9615C166.312 68.9615 167.242 68.574 168.172 67.768ZM162.669 65.5515H167.226C167.118 64.358 166.234 63.459 164.994 63.459C163.739 63.459 162.762 64.5285 162.669 65.5515Z" fill="#617290"/>
</g>
</g>
</g>
<defs>
<filter id="filter0_d_2274_7611" x="25" y="25" width="296" height="142" filterUnits="userSpaceOnUse" color-interpolation-filters="sRGB">
<feFlood flood-opacity="0" result="BackgroundImageFix"/>
<feColorMatrix in="SourceAlpha" type="matrix" values="0 0 0 0 0 0 0 0 0 0 0 0 0 0 0 0 0 0 127 0" result="hardAlpha"/>
<feOffset dy="12"/>
<feGaussianBlur stdDeviation="14"/>
<feColorMatrix type="matrix" values="0 0 0 0 0.235294 0 0 0 0 0.415686 0 0 0 0 0.67451 0 0 0 0.18 0"/>
<feBlend mode="normal" in2="BackgroundImageFix" result="effect1_dropShadow_2274_7611"/>
<feBlend mode="normal" in="SourceGraphic" in2="effect1_dropShadow_2274_7611" result="shape"/>
</filter>
<clipPath id="clip0_2274_7611">
<rect width="362" height="158.375" fill="white"/>
</clipPath>
<clipPath id="clip1_2274_7611">
<rect width="206" height="60" fill="white" transform="translate(70 54)"/>
</clipPath>
</defs>
</svg>
