<svg width="362" height="159" viewBox="0 0 362 159" fill="none" xmlns="http://www.w3.org/2000/svg">
<rect width="362" height="158.375" fill="#F3F7FB"/>
<path d="M61.216 42.28V40.6H67.456V42.28H65.248V49H63.436V42.28H61.216ZM69.756 49V40.6H74.7V42.232H71.556V43.936H74.424V45.52H71.556V47.368H74.724V49H69.756ZM76.8473 40.6H78.9233L80.5913 43.252L82.2713 40.6H84.3113L81.6353 44.668L84.5033 49H82.4153L80.5673 46.096L78.6953 49H76.6553L79.5113 44.68L76.8473 40.6ZM86.0269 42.28V40.6H92.2669V42.28H90.0589V49H88.2469V42.28H86.0269ZM98.5677 40.6H100.38V49H98.5677V40.6ZM109.102 40.6H110.854V49H109.054L105.106 43.456V49H103.354V40.6H105.19L109.102 46.168V40.6ZM113.835 40.6H116.691C118.515 40.6 119.775 41.584 119.775 43.312C119.775 45.028 118.515 46.024 116.691 46.024H115.635V49H113.835V40.6ZM115.635 42.22V44.428H116.727C117.447 44.428 117.963 44.02 117.963 43.324C117.963 42.628 117.447 42.22 116.727 42.22H115.635ZM125.447 49.156C123.347 49.156 122.075 47.788 122.075 45.664V40.6H123.899V45.568C123.899 46.696 124.451 47.404 125.447 47.404C126.443 47.404 126.995 46.696 126.995 45.568V40.6H128.819V45.664C128.819 47.788 127.547 49.156 125.447 49.156ZM131.137 42.28V40.6H137.377V42.28H135.169V49H133.357V42.28H131.137Z" fill="#617290"/>
<g filter="url(#filter0_d_2274_7610)">
<g clip-path="url(#clip0_2274_7610)">
<path d="M61 68C61 64.6863 63.6863 62 67 62H295C298.314 62 301 64.6863 301 68V101C301 104.314 298.314 107 295 107H67C63.6863 107 61 104.314 61 101V68Z" fill="white"/>
<path d="M78.395 78.65H79.7745V89.5H78.395V78.65ZM83.7856 85.563V89.5H82.4526V81.967H83.7856V83.052C84.2506 82.308 85.0566 81.7965 86.1881 81.7965C88.1101 81.7965 89.2261 83.083 89.2261 85.0825V89.5H87.8931V85.2375C87.8931 83.889 87.1956 83.0365 85.9091 83.0365C84.6226 83.0365 83.7856 84.0285 83.7856 85.563ZM92.9627 92.724H91.6452V81.967H92.9627V83.1605C93.5052 82.339 94.5282 81.7965 95.6287 81.7965C97.7677 81.7965 99.4107 83.5015 99.4107 85.7335C99.4107 87.95 97.7677 89.6705 95.6287 89.6705C94.5282 89.6705 93.5207 89.19 92.9627 88.3685V92.724ZM98.0622 85.7335C98.0622 84.2145 96.9462 83.021 95.4737 83.021C94.0012 83.021 92.8852 84.2145 92.8852 85.7335C92.8852 87.2525 94.0012 88.446 95.4737 88.446C96.9462 88.446 98.0622 87.2525 98.0622 85.7335ZM106.638 85.904V81.967H107.971V89.5H106.638V88.415C106.173 89.159 105.382 89.6705 104.251 89.6705C102.344 89.6705 101.244 88.384 101.244 86.3845V81.967H102.577V86.2295C102.577 87.578 103.259 88.4305 104.53 88.4305C105.801 88.4305 106.638 87.4385 106.638 85.904ZM109.492 82.99L112.081 80.2H112.127V81.967H114.235V83.1605H112.127V87.144C112.127 88.0275 112.515 88.4305 113.383 88.4305C113.677 88.4305 114.003 88.353 114.235 88.198V89.438C113.972 89.5775 113.584 89.6705 113.073 89.6705C111.647 89.6705 110.794 88.787 110.794 87.33V83.1605H109.492V82.99Z" fill="#617290"/>
</g>
<path d="M67 62.5H295C298.038 62.5 300.5 64.9624 300.5 68V101C300.5 104.038 298.038 106.5 295 106.5H67C63.9624 106.5 61.5 104.038 61.5 101V68C61.5 64.9624 63.9624 62.5 67 62.5Z" stroke="#828EA7"/>
</g>
<defs>
<filter id="filter0_d_2274_7610" x="33" y="46" width="296" height="101" filterUnits="userSpaceOnUse" color-interpolation-filters="sRGB">
<feFlood flood-opacity="0" result="BackgroundImageFix"/>
<feColorMatrix in="SourceAlpha" type="matrix" values="0 0 0 0 0 0 0 0 0 0 0 0 0 0 0 0 0 0 127 0" result="hardAlpha"/>
<feOffset dy="12"/>
<feGaussianBlur stdDeviation="14"/>
<feColorMatrix type="matrix" values="0 0 0 0 0.235294 0 0 0 0 0.415686 0 0 0 0 0.67451 0 0 0 0.18 0"/>
<feBlend mode="normal" in2="BackgroundImageFix" result="effect1_dropShadow_2274_7610"/>
<feBlend mode="normal" in="SourceGraphic" in2="effect1_dropShadow_2274_7610" result="shape"/>
</filter>
<clipPath id="clip0_2274_7610">
<path d="M61 68C61 64.6863 63.6863 62 67 62H295C298.314 62 301 64.6863 301 68V101C301 104.314 298.314 107 295 107H67C63.6863 107 61 104.314 61 101V68Z" fill="white"/>
</clipPath>
</defs>
</svg>
