<svg width="362" height="159" viewBox="0 0 362 159" fill="none" xmlns="http://www.w3.org/2000/svg">
<rect width="362" height="158.375" fill="#F3F7FB"/>
<path d="M61.216 42.28V40.6H67.456V42.28H65.248V49H63.436V42.28H61.216ZM73.9623 45.352V49H72.1503V45.352L69.1503 40.6H71.2143L73.0743 43.672L74.9343 40.6H76.9623L73.9623 45.352ZM79.1005 40.6H81.9565C83.7805 40.6 85.0405 41.584 85.0405 43.312C85.0405 45.028 83.7805 46.024 81.9565 46.024H80.9005V49H79.1005V40.6ZM80.9005 42.22V44.428H81.9925C82.7125 44.428 83.2285 44.02 83.2285 43.324C83.2285 42.628 82.7125 42.22 81.9925 42.22H80.9005ZM87.3903 49V40.6H92.3343V42.232H89.1903V43.936H92.0583V45.52H89.1903V47.368H92.3583V49H87.3903ZM97.6511 40.6H99.2471L102.619 49H100.735L100.027 47.188H96.8231L96.1151 49H94.2671L97.6511 40.6ZM98.4191 42.892L97.3751 45.64H99.4871L98.4191 42.892ZM104.802 49V40.6H106.614V43.852H109.974V40.6H111.786V49H109.974V45.58H106.614V49H104.802ZM114.768 49V40.6H119.712V42.232H116.568V43.936H119.436V45.52H116.568V47.368H119.736V49H114.768ZM125.028 40.6H126.624L129.996 49H128.112L127.404 47.188H124.2L123.492 49H121.644L125.028 40.6ZM125.796 42.892L124.752 45.64H126.864L125.796 42.892ZM139.295 44.8C139.295 47.164 137.375 49 135.023 49H132.179V40.6H135.023C137.375 40.6 139.295 42.436 139.295 44.8ZM137.447 44.8C137.447 43.408 136.367 42.292 134.975 42.292H133.979V47.308H134.975C136.367 47.308 137.447 46.192 137.447 44.8Z" fill="#617290"/>
<g filter="url(#filter0_d_2274_7612)">
<path d="M62 69C62 65.6863 64.6863 63 68 63H294C297.314 63 300 65.6863 300 69V99C300 102.314 297.314 105 294 105H68C64.6863 105 62 102.314 62 99V69Z" fill="white"/>
<path d="M294 62.5L294.335 62.5088C297.769 62.6831 300.5 65.5225 300.5 69V99C300.5 102.59 297.59 105.5 294 105.5H68C64.4101 105.5 61.5 102.59 61.5 99V69L61.5088 68.665C61.6831 65.2309 64.5225 62.5 68 62.5H294Z" stroke="#828EA7"/>
<path d="M76.8525 88.0545V86.4115C77.7515 87.2175 78.976 87.853 80.247 87.853C81.363 87.853 82.603 87.326 82.603 86.024C82.603 84.7995 81.4715 84.4585 80.2315 84.133C78.635 83.73 76.837 83.2185 76.837 81.0175C76.837 79.049 78.5575 77.964 80.371 77.964C81.611 77.964 82.665 78.336 83.6105 79.018V80.6145C82.727 79.8395 81.642 79.266 80.371 79.266C79.379 79.266 78.232 79.824 78.232 80.94C78.232 82.242 79.4875 82.583 80.836 82.9395C82.355 83.3425 83.998 83.978 83.998 85.9465C83.998 88.0545 82.169 89.1705 80.2625 89.1705C79.038 89.1705 77.8135 88.7985 76.8525 88.0545ZM92.3479 86.768V88.2095C91.5109 88.814 90.4879 89.1705 89.4339 89.1705C87.0314 89.1705 85.4814 87.45 85.4814 85.2335C85.4814 82.986 87.0314 81.2965 89.2014 81.2965C91.3094 81.2965 92.7509 83.0325 92.7509 85.1715C92.7509 85.466 92.7199 85.652 92.7199 85.652H86.8144C86.9229 86.9075 87.9614 87.9615 89.5269 87.9615C90.4879 87.9615 91.4179 87.574 92.3479 86.768ZM86.8454 84.5515H91.4024C91.2939 83.358 90.4104 82.459 89.1704 82.459C87.9149 82.459 86.9384 83.5285 86.8454 84.5515ZM94.6564 78.15H95.9894V89H94.6564V78.15ZM104.845 86.768V88.2095C104.008 88.814 102.985 89.1705 101.931 89.1705C99.5284 89.1705 97.9784 87.45 97.9784 85.2335C97.9784 82.986 99.5284 81.2965 101.698 81.2965C103.806 81.2965 105.248 83.0325 105.248 85.1715C105.248 85.466 105.217 85.652 105.217 85.652H99.3114C99.4199 86.9075 100.458 87.9615 102.024 87.9615C102.985 87.9615 103.915 87.574 104.845 86.768ZM99.3424 84.5515H103.899C103.791 83.358 102.907 82.459 101.667 82.459C100.412 82.459 99.4354 83.5285 99.3424 84.5515ZM106.687 85.2335C106.687 83.0325 108.314 81.2965 110.624 81.2965C111.414 81.2965 112.143 81.529 112.763 81.9475V83.296C112.096 82.7845 111.414 82.5365 110.686 82.5365C109.151 82.5365 108.035 83.7145 108.035 85.2335C108.035 86.737 109.151 87.9305 110.686 87.9305C111.476 87.9305 112.205 87.574 112.809 87.1865V88.535C112.158 88.938 111.414 89.1705 110.639 89.1705C108.268 89.1705 106.687 87.45 106.687 85.2335ZM113.931 82.49L116.519 79.7H116.566V81.467H118.674V82.6605H116.566V86.644C116.566 87.5275 116.953 87.9305 117.821 87.9305C118.116 87.9305 118.441 87.853 118.674 87.698V88.938C118.41 89.0775 118.023 89.1705 117.511 89.1705C116.085 89.1705 115.233 88.287 115.233 86.83V82.6605H113.931V82.49ZM122.459 88.194C122.459 88.721 122.041 89.1395 121.514 89.1395C120.987 89.1395 120.568 88.721 120.568 88.194C120.568 87.6825 120.987 87.264 121.514 87.264C122.041 87.264 122.459 87.6825 122.459 88.194ZM126.415 88.194C126.415 88.721 125.996 89.1395 125.469 89.1395C124.942 89.1395 124.524 88.721 124.524 88.194C124.524 87.6825 124.942 87.264 125.469 87.264C125.996 87.264 126.415 87.6825 126.415 88.194ZM130.37 88.194C130.37 88.721 129.951 89.1395 129.424 89.1395C128.897 89.1395 128.479 88.721 128.479 88.194C128.479 87.6825 128.897 87.264 129.424 87.264C129.951 87.264 130.37 87.6825 130.37 88.194Z" fill="#617290"/>
<rect x="259" y="66" width="1" height="36" fill="white" fill-opacity="0.01"/>
<path fill-rule="evenodd" clip-rule="evenodd" d="M273.266 82.0784C273.49 81.8634 273.846 81.8708 274.061 82.0951L278 86.2024L281.938 82.0951C282.153 81.8708 282.509 81.8634 282.734 82.0784C282.958 82.2934 282.965 82.6495 282.75 82.8737L278.541 87.2633C278.246 87.5712 277.754 87.5712 277.458 87.2633L273.249 82.8737C273.034 82.6495 273.042 82.2934 273.266 82.0784Z" fill="#4B546B"/>
</g>
<defs>
<filter id="filter0_d_2274_7612" x="33" y="46" width="296" height="100" filterUnits="userSpaceOnUse" color-interpolation-filters="sRGB">
<feFlood flood-opacity="0" result="BackgroundImageFix"/>
<feColorMatrix in="SourceAlpha" type="matrix" values="0 0 0 0 0 0 0 0 0 0 0 0 0 0 0 0 0 0 127 0" result="hardAlpha"/>
<feOffset dy="12"/>
<feGaussianBlur stdDeviation="14"/>
<feColorMatrix type="matrix" values="0 0 0 0 0.235294 0 0 0 0 0.415686 0 0 0 0 0.67451 0 0 0 0.18 0"/>
<feBlend mode="normal" in2="BackgroundImageFix" result="effect1_dropShadow_2274_7612"/>
<feBlend mode="normal" in="SourceGraphic" in2="effect1_dropShadow_2274_7612" result="shape"/>
</filter>
</defs>
</svg>
