<svg width="120" height="40" viewBox="0 0 120 40" fill="none" xmlns="http://www.w3.org/2000/svg">
<path d="M34 1C36.7614 1 39 3.23858 39 6V34C39 36.7614 36.7614 39 34 39H6C3.23858 39 1 36.7614 1 34V6C1 3.23858 3.23858 1 6 1H34Z" fill="#F3F7FB"/>
<path fill-rule="evenodd" clip-rule="evenodd" d="M34 0C37.3137 0 40 2.68629 40 6V34C40 37.2102 37.4789 39.8316 34.3086 39.9922L34 40H6L5.69141 39.9922C2.62332 39.8367 0.163251 37.3767 0.0078125 34.3086L0 34V6C0 2.68629 2.68629 1.28851e-07 6 0H34ZM6 1C3.23858 1 1 3.23858 1 6V34C1 36.7614 3.23858 39 6 39H34C36.7614 39 39 36.7614 39 34V6C39 3.23858 36.7614 1 34 1H6Z" fill="#E4E8F0"/>
<rect x="40" width="8" height="40" fill="#0056CF"/>
<path d="M82 1C84.7614 1 87 3.23858 87 6V34C87 36.7614 84.7614 39 82 39H54C51.2386 39 49 36.7614 49 34V6C49 3.23858 51.2386 1 54 1H82Z" fill="#F3F7FB"/>
<path fill-rule="evenodd" clip-rule="evenodd" d="M82 0C85.3137 0 88 2.68629 88 6V34C88 37.2102 85.4789 39.8316 82.3086 39.9922L82 40H54L53.6914 39.9922C50.6233 39.8367 48.1633 37.3767 48.0078 34.3086L48 34V6C48 2.68629 50.6863 1.28851e-07 54 0H82ZM54 1C51.2386 1 49 3.23858 49 6V34C49 36.7614 51.2386 39 54 39H82C84.7614 39 87 36.7614 87 34V6C87 3.23858 84.7614 1 82 1H54Z" fill="#E4E8F0"/>
</svg>
