<svg width="120" height="40" viewBox="0 0 120 40" fill="none" xmlns="http://www.w3.org/2000/svg">
<path d="M34 1C36.7614 1 39 3.23858 39 6V34C39 36.7614 36.7614 39 34 39H6C3.23858 39 1 36.7614 1 34V6C1 3.23858 3.23858 1 6 1H34Z" fill="#F3F7FB"/>
<path fill-rule="evenodd" clip-rule="evenodd" d="M34 0C37.3137 0 40 2.68629 40 6V34C40 37.2102 37.4789 39.8316 34.3086 39.9922L34 40H6L5.69141 39.9922C2.62332 39.8367 0.163251 37.3767 0.0078125 34.3086L0 34V6C0 2.68629 2.68629 1.28851e-07 6 0H34ZM6 1C3.23858 1 1 3.23858 1 6V34C1 36.7614 3.23858 39 6 39H34C36.7614 39 39 36.7614 39 34V6C39 3.23858 36.7614 1 34 1H6Z" fill="#E4E8F0"/>
<rect x="40" width="16" height="40" fill="#0056CF"/>
<path d="M90 1C92.7614 1 95 3.23858 95 6V34C95 36.7614 92.7614 39 90 39H62C59.2386 39 57 36.7614 57 34V6C57 3.23858 59.2386 1 62 1H90Z" fill="#F3F7FB"/>
<path fill-rule="evenodd" clip-rule="evenodd" d="M90 0C93.3137 0 96 2.68629 96 6V34C96 37.2102 93.4789 39.8316 90.3086 39.9922L90 40H62L61.6914 39.9922C58.6233 39.8367 56.1633 37.3767 56.0078 34.3086L56 34V6C56 2.68629 58.6863 1.28851e-07 62 0H90ZM62 1C59.2386 1 57 3.23858 57 6V34C57 36.7614 59.2386 39 62 39H90C92.7614 39 95 36.7614 95 34V6C95 3.23858 92.7614 1 90 1H62Z" fill="#E4E8F0"/>
</svg>
