<svg width="120" height="40" viewBox="0 0 120 40" fill="none" xmlns="http://www.w3.org/2000/svg">
<path d="M34 1C36.7614 1 39 3.23858 39 6V34C39 36.7614 36.7614 39 34 39H6C3.23858 39 1 36.7614 1 34V6C1 3.23858 3.23858 1 6 1H34Z" fill="#F3F7FB"/>
<path fill-rule="evenodd" clip-rule="evenodd" d="M34 0C37.3137 0 40 2.68629 40 6V34C40 37.2102 37.4789 39.8316 34.3086 39.9922L34 40H6L5.69141 39.9922C2.62332 39.8367 0.163251 37.3767 0.0078125 34.3086L0 34V6C0 2.68629 2.68629 1.28851e-07 6 0H34ZM6 1C3.23858 1 1 3.23858 1 6V34C1 36.7614 3.23858 39 6 39H34C36.7614 39 39 36.7614 39 34V6C39 3.23858 36.7614 1 34 1H6Z" fill="#E4E8F0"/>
<rect x="40" width="40" height="40" fill="#0056CF"/>
<path d="M114 1C116.761 1 119 3.23858 119 6V34C119 36.7614 116.761 39 114 39H86C83.2386 39 81 36.7614 81 34V6C81 3.23858 83.2386 1 86 1H114Z" fill="#F3F7FB"/>
<path fill-rule="evenodd" clip-rule="evenodd" d="M114 0C117.314 0 120 2.68629 120 6V34C120 37.2102 117.479 39.8316 114.309 39.9922L114 40H86L85.6914 39.9922C82.6233 39.8367 80.1633 37.3767 80.0078 34.3086L80 34V6C80 2.68629 82.6863 1.28851e-07 86 0H114ZM86 1C83.2386 1 81 3.23858 81 6V34C81 36.7614 83.2386 39 86 39H114C116.761 39 119 36.7614 119 34V6C119 3.23858 116.761 1 114 1H86Z" fill="#E4E8F0"/>
</svg>
