<svg width="364" height="163" viewBox="0 0 364 163" fill="none" xmlns="http://www.w3.org/2000/svg">
<g clip-path="url(#clip0_2264_10877)">
<g filter="url(#filter0_d_2264_10877)">
<rect width="467" height="181.285" transform="translate(-66 17.0771)" fill="white"/>
<g filter="url(#filter1_d_2264_10877)">
<mask id="path-1-inside-1_2264_10877" fill="white">
<path d="M-66 18.8855C-66 17.8868 -65.1904 17.0771 -64.1917 17.0771H15.3746V33.3521H-66V18.8855Z"/>
</mask>
<path d="M-66 18.8855C-66 17.8868 -65.1904 17.0771 -64.1917 17.0771H15.3746V33.3521H-66V18.8855Z" fill="white" fill-opacity="0.01" shape-rendering="crispEdges"/>
<path d="M-66.4521 18.8855C-66.4521 17.6371 -65.4401 16.6251 -64.1917 16.6251H15.3746V17.5292H-64.1917C-64.9407 17.5292 -65.5479 18.1364 -65.5479 18.8855H-66.4521ZM15.3746 33.8042H-66.4521L-65.5479 32.9H15.3746V33.8042ZM-66.4521 33.8042V18.8855C-66.4521 17.6371 -65.4401 16.6251 -64.1917 16.6251V17.5292C-64.9407 17.5292 -65.5479 18.1364 -65.5479 18.8855V32.9L-66.4521 33.8042ZM-65.5479 32.9M15.3746 17.0771V33.3521V17.0771" fill="#E4E8F0" mask="url(#path-1-inside-1_2264_10877)"/>
</g>
<g filter="url(#filter2_d_2264_10877)">
<mask id="path-3-inside-2_2264_10877" fill="white">
<path d="M15.375 17.0771H141.852V33.3521H15.375V17.0771Z"/>
</mask>
<path d="M15.375 17.0771H141.852V33.3521H15.375V17.0771Z" fill="white" fill-opacity="0.01" shape-rendering="crispEdges"/>
<path d="M15.375 17.0771V17.5292H141.852V17.0771V16.6251H15.375V17.0771ZM141.852 33.3521V32.9H15.375V33.3521V33.8042H141.852V33.3521Z" fill="#E4E8F0" mask="url(#path-3-inside-2_2264_10877)"/>
<path d="M51.638 27.146V23.3485H53.8731V24.0863H52.4517V24.8567H53.7483V25.5728H52.4517V26.4082H53.8839V27.146H51.638ZM57.677 23.3485H58.469V27.146H57.6553L55.8705 24.6397V27.146H55.0784V23.3485H55.9084L57.677 25.8657V23.3485ZM60.6251 25.7572V27.146H59.8168V23.3485H61.0808C61.9 23.3485 62.4696 23.7879 62.4696 24.5637C62.4696 25.1062 62.1441 25.486 61.6884 25.6596L62.7354 27.146H61.7752L60.8421 25.7572H60.6251ZM60.6251 24.0809V25.0845H61.0862C61.4117 25.0845 61.6504 24.8946 61.6504 24.58C61.6504 24.2599 61.4117 24.0809 61.0862 24.0809H60.6251ZM67.4466 25.2473C67.4466 26.3431 66.5623 27.2165 65.461 27.2165C64.3598 27.2165 63.4755 26.3431 63.4755 25.2473C63.4755 24.1514 64.3598 23.278 65.461 23.278C66.5623 23.278 67.4466 24.1514 67.4466 25.2473ZM66.6111 25.2473C66.6111 24.5908 66.1066 24.07 65.461 24.07C64.8155 24.07 64.311 24.5908 64.311 25.2473C64.311 25.9037 64.8155 26.4245 65.461 26.4245C66.1066 26.4245 66.6111 25.9037 66.6111 25.2473ZM68.6154 23.3485H69.4292V26.3811H70.7529V27.146H68.6154V23.3485ZM71.8121 23.3485H72.6259V26.3811H73.9496V27.146H71.8121V23.3485ZM76.7665 26.1478L75.8009 24.6288V27.146H75.0088V23.3485H75.8606L77.0052 25.155L78.1445 23.3485H78.9745V27.146H78.1824V24.618L77.2114 26.1478H76.7665ZM80.3194 27.146V23.3485H82.5545V24.0863H81.1331V24.8567H82.4297V25.5728H81.1331V26.4082H82.5653V27.146H80.3194ZM86.3584 23.3485H87.1504V27.146H86.3367L84.5518 24.6397V27.146H83.7598V23.3485H84.5898L86.3584 25.8657V23.3485ZM88.1944 24.108V23.3485H91.0154V24.108H90.0172V27.146H89.198V24.108H88.1944ZM97.0808 25.2473C97.0808 26.316 96.2128 27.146 95.1495 27.146H93.8638V23.3485H95.1495C96.2128 23.3485 97.0808 24.1785 97.0808 25.2473ZM96.2454 25.2473C96.2454 24.618 95.7571 24.1134 95.1278 24.1134H94.6776V26.3811H95.1278C95.7571 26.3811 96.2454 25.8766 96.2454 25.2473ZM99.2389 23.3485H99.9604L101.485 27.146H100.633L100.313 26.3268H98.8646L98.5445 27.146H97.7091L99.2389 23.3485ZM99.5861 24.3847L99.1141 25.627H100.069L99.5861 24.3847ZM101.712 24.108V23.3485H104.533V24.108H103.535V27.146H102.716V24.108H101.712ZM106.289 23.3485H107.011L108.535 27.146H107.683L107.363 26.3268H105.915L105.595 27.146H104.759L106.289 23.3485ZM106.636 24.3847L106.164 25.627H107.119L106.636 24.3847Z" fill="#4B546B"/>
</g>
<mask id="path-6-inside-3_2264_10877" fill="white">
<path d="M141.853 17.0771H399.192C400.191 17.0771 401.001 17.8868 401.001 18.8855V33.3521H141.853V17.0771Z"/>
</mask>
<path d="M141.853 16.6251H399.192C400.441 16.6251 401.453 17.6371 401.453 18.8855H400.549C400.549 18.1364 399.941 17.5292 399.192 17.5292H141.853V16.6251ZM401.453 33.8042H141.853V32.9H400.549L401.453 33.8042ZM400.549 32.9M141.853 33.3521V17.0771V33.3521M399.192 16.6251C400.441 16.6251 401.453 17.6371 401.453 18.8855V33.8042L400.549 32.9V18.8855C400.549 18.1364 399.941 17.5292 399.192 17.5292V16.6251Z" fill="#E4E8F0" mask="url(#path-6-inside-3_2264_10877)"/>
<path d="M241.772 23.3485H243.063C243.887 23.3485 244.457 23.7934 244.457 24.5746C244.457 25.3503 243.887 25.8006 243.063 25.8006H242.585V27.146H241.772V23.3485ZM242.585 24.0809V25.0791H243.079C243.405 25.0791 243.638 24.8946 243.638 24.58C243.638 24.2653 243.405 24.0809 243.079 24.0809H242.585ZM245.519 27.146V23.3485H247.754V24.0863H246.333V24.8567H247.63V25.5728H246.333V26.4082H247.765V27.146H245.519ZM249.768 25.7572V27.146H248.96V23.3485H250.224C251.043 23.3485 251.613 23.7879 251.613 24.5637C251.613 25.1062 251.287 25.486 250.831 25.6596L251.878 27.146H250.918L249.985 25.7572H249.768ZM249.768 24.0809V25.0845H250.229C250.555 25.0845 250.793 24.8946 250.793 24.58C250.793 24.2599 250.555 24.0809 250.229 24.0809H249.768ZM253.691 25.5999V27.146H252.877V23.3485H255.052V24.0863H253.691V24.8567H254.944V25.5999H253.691ZM259.94 25.2473C259.94 26.3431 259.056 27.2165 257.954 27.2165C256.853 27.2165 255.969 26.3431 255.969 25.2473C255.969 24.1514 256.853 23.278 257.954 23.278C259.056 23.278 259.94 24.1514 259.94 25.2473ZM259.104 25.2473C259.104 24.5908 258.6 24.07 257.954 24.07C257.309 24.07 256.804 24.5908 256.804 25.2473C256.804 25.9037 257.309 26.4245 257.954 26.4245C258.6 26.4245 259.104 25.9037 259.104 25.2473ZM261.917 25.7572V27.146H261.109V23.3485H262.373C263.192 23.3485 263.762 23.7879 263.762 24.5637C263.762 25.1062 263.436 25.486 262.98 25.6596L264.027 27.146H263.067L262.134 25.7572H261.917ZM261.917 24.0809V25.0845H262.378C262.704 25.0845 262.942 24.8946 262.942 24.58C262.942 24.2599 262.704 24.0809 262.378 24.0809H261.917ZM266.784 26.1478L265.818 24.6288V27.146H265.026V23.3485H265.878L267.022 25.155L268.162 23.3485H268.992V27.146H268.2V24.618L267.228 26.1478H266.784ZM271.508 23.3485H272.23L273.754 27.146H272.902L272.582 26.3268H271.134L270.814 27.146H269.978L271.508 23.3485ZM271.855 24.3847L271.383 25.627H272.338L271.855 24.3847ZM277.34 23.3485H278.132V27.146H277.318L275.533 24.6397V27.146H274.741V23.3485H275.571L277.34 25.8657V23.3485ZM279.3 25.2473C279.3 24.1351 280.168 23.278 281.264 23.278C281.595 23.278 281.932 23.3648 282.23 23.533V24.4118C281.942 24.1948 281.644 24.0755 281.291 24.0755C280.63 24.0755 280.141 24.5908 280.141 25.2473C280.141 25.8928 280.608 26.4136 281.291 26.4136C281.639 26.4136 281.937 26.2997 282.235 26.0881V26.9615C281.904 27.146 281.557 27.2165 281.253 27.2165C280.103 27.2165 279.3 26.3756 279.3 25.2473ZM283.413 27.146V23.3485H285.648V24.0863H284.226V24.8567H285.523V25.5728H284.226V26.4082H285.659V27.146H283.413ZM291.879 25.2473C291.879 26.316 291.011 27.146 289.947 27.146H288.662V23.3485H289.947C291.011 23.3485 291.879 24.1785 291.879 25.2473ZM291.043 25.2473C291.043 24.618 290.555 24.1134 289.926 24.1134H289.475V26.3811H289.926C290.555 26.3811 291.043 25.8766 291.043 25.2473ZM294.037 23.3485H294.758L296.283 27.146H295.431L295.111 26.3268H293.662L293.342 27.146H292.507L294.037 23.3485ZM294.384 24.3847L293.912 25.627H294.867L294.384 24.3847ZM296.51 24.108V23.3485H299.331V24.108H298.333V27.146H297.514V24.108H296.51ZM301.087 23.3485H301.809L303.333 27.146H302.481L302.161 26.3268H300.713L300.393 27.146H299.557L301.087 23.3485ZM301.434 24.3847L300.962 25.627H301.917L301.434 24.3847Z" fill="#4B546B"/>
<g filter="url(#filter3_d_2264_10877)">
<mask id="path-9-inside-4_2264_10877" fill="white">
<path d="M-66 33.3525H15.3746V57.3129H-66V33.3525Z"/>
</mask>
<path d="M-66 33.3525H15.3746V57.3129H-66V33.3525Z" fill="white" fill-opacity="0.01" shape-rendering="crispEdges"/>
<path d="M-66 57.3129H-66.4521V57.7649H-66V57.3129ZM15.3746 57.3129V56.8608H-66V57.3129V57.7649H15.3746V57.3129ZM-66 57.3129H-65.5479V33.3525H-66H-66.4521V57.3129H-66Z" fill="#E4E8F0" mask="url(#path-9-inside-4_2264_10877)"/>
</g>
<mask id="path-11-inside-5_2264_10877" fill="white">
<path d="M15.375 33.3525H77.5513V57.3129H15.375V33.3525Z"/>
</mask>
<path d="M77.5513 57.3129V56.8608H15.375V57.3129V57.7649H77.5513V57.3129Z" fill="#E4E8F0" mask="url(#path-11-inside-5_2264_10877)"/>
<path d="M62.6816 39.1718H63.4737V42.9692H62.6599L60.8751 40.4629V42.9692H60.0831V39.1718H60.9131L62.6816 41.6889V39.1718ZM64.8215 42.9692V39.1718H67.0566V39.9096H65.6352V40.6799H66.9318V41.396H65.6352V42.2314H67.0674V42.9692H64.8215ZM69.9736 42.9692H69.3118L68.0098 39.1718H68.8615L69.6535 41.6835L70.4619 39.1718H71.1237L71.9266 41.6835L72.7241 39.1718H73.5595L72.2575 42.9692H71.5903L70.7819 40.4358L69.9736 42.9692ZM30.9832 50.9692V47.1718H33.2183V47.9096H31.7969V48.6799H33.0935V49.396H31.7969V50.2314H33.2291V50.9692H30.9832ZM37.0221 47.1718H37.8142V50.9692H37.0004L35.2156 48.4629V50.9692H34.4236V47.1718H35.2536L37.0221 49.6889V47.1718ZM39.9703 49.5804V50.9692H39.162V47.1718H40.426C41.2452 47.1718 41.8148 47.6112 41.8148 48.3869C41.8148 48.9294 41.4893 49.3092 41.0336 49.4828L42.0806 50.9692H41.1204L40.1873 49.5804H39.9703ZM39.9703 47.9041V48.9077H40.4314C40.7569 48.9077 40.9956 48.7179 40.9956 48.4032C40.9956 48.0832 40.7569 47.9041 40.4314 47.9041H39.9703ZM46.7918 49.0705C46.7918 50.1663 45.9075 51.0398 44.8062 51.0398C43.705 51.0398 42.8207 50.1663 42.8207 49.0705C42.8207 47.9747 43.705 47.1012 44.8062 47.1012C45.9075 47.1012 46.7918 47.9747 46.7918 49.0705ZM45.9563 49.0705C45.9563 48.4141 45.4518 47.8933 44.8062 47.8933C44.1607 47.8933 43.6561 48.4141 43.6561 49.0705C43.6561 49.7269 44.1607 50.2477 44.8062 50.2477C45.4518 50.2477 45.9563 49.7269 45.9563 49.0705ZM47.9606 47.1718H48.7743V50.2043H50.098V50.9692H47.9606V47.1718ZM51.1573 47.1718H51.9711V50.2043H53.2947V50.9692H51.1573V47.1718ZM56.1117 49.971L55.1461 48.452V50.9692H54.354V47.1718H55.2057L56.3504 48.9783L57.4897 47.1718H58.3197V50.9692H57.5276V48.4412L56.5566 49.971H56.1117ZM59.6646 50.9692V47.1718H61.8996V47.9096H60.4783V48.6799H61.7749V49.396H60.4783V50.2314H61.9105V50.9692H59.6646ZM65.7035 47.1718H66.4956V50.9692H65.6818L63.897 48.4629V50.9692H63.105V47.1718H63.935L65.7035 49.6889V47.1718ZM67.5395 47.9313V47.1718H70.3605V47.9313H69.3623V50.9692H68.5432V47.9313H67.5395ZM71.2758 50.7143V49.7486C71.6393 50.085 72.1655 50.2748 72.5724 50.2748C72.9413 50.2748 73.1474 50.1284 73.1474 49.8625C73.1474 49.5533 72.7677 49.4882 72.3445 49.3743C71.8237 49.2387 71.2324 49.0434 71.2324 48.3001C71.2324 47.5732 71.8183 47.1012 72.6429 47.1012C73.0932 47.1012 73.4783 47.2043 73.8147 47.4159V48.3218C73.4621 48.0181 73.0552 47.8553 72.6483 47.8553C72.2469 47.8553 72.0733 48.0235 72.0733 48.2513C72.0733 48.5009 72.3933 48.5822 72.7622 48.6799C73.3102 48.8209 73.9937 49.0054 73.9937 49.8029C73.9937 50.5298 73.4566 51.0398 72.5886 51.0398C72.1167 51.0398 71.6176 50.9258 71.2758 50.7143Z" fill="#4B546B"/>
<g filter="url(#filter4_d_2264_10877)">
<mask id="path-14-inside-6_2264_10877" fill="white">
<path d="M77.5508 33.3525H141.852V57.3129H77.5508V33.3525Z"/>
</mask>
<path d="M77.5508 33.3525H141.852V57.3129H77.5508V33.3525Z" fill="white" fill-opacity="0.01" shape-rendering="crispEdges"/>
<path d="M141.852 57.3129V56.8608H77.5508V57.3129V57.7649H141.852V57.3129Z" fill="#E4E8F0" mask="url(#path-14-inside-6_2264_10877)"/>
<path d="M103.685 42.7143V41.7486C104.049 42.085 104.575 42.2748 104.982 42.2748C105.351 42.2748 105.557 42.1284 105.557 41.8625C105.557 41.5533 105.177 41.4882 104.754 41.3743C104.233 41.2387 103.642 41.0434 103.642 40.3001C103.642 39.5732 104.228 39.1012 105.052 39.1012C105.503 39.1012 105.888 39.2043 106.224 39.4159V40.3218C105.872 40.0181 105.465 39.8553 105.058 39.8553C104.656 39.8553 104.483 40.0235 104.483 40.2513C104.483 40.5009 104.803 40.5822 105.172 40.6799C105.72 40.8209 106.403 41.0054 106.403 41.8029C106.403 42.5298 105.866 43.0398 104.998 43.0398C104.526 43.0398 104.027 42.9258 103.685 42.7143ZM107.32 41.0705C107.32 39.9584 108.188 39.1012 109.284 39.1012C109.615 39.1012 109.951 39.188 110.25 39.3562V40.2351C109.962 40.0181 109.664 39.8987 109.311 39.8987C108.649 39.8987 108.161 40.4141 108.161 41.0705C108.161 41.7161 108.628 42.2369 109.311 42.2369C109.658 42.2369 109.957 42.1229 110.255 41.9114V42.7848C109.924 42.9692 109.577 43.0398 109.273 43.0398C108.123 43.0398 107.32 42.1989 107.32 41.0705ZM111.432 42.9692V39.1718H112.252V40.6419H113.771V39.1718H114.59V42.9692H113.771V41.4231H112.252V42.9692H111.432ZM115.938 42.9692V39.1718H118.173V39.9096H116.751V40.6799H118.048V41.396H116.751V42.2314H118.184V42.9692H115.938ZM122.595 41.0705C122.595 42.1392 121.727 42.9692 120.664 42.9692H119.378V39.1718H120.664C121.727 39.1718 122.595 40.0018 122.595 41.0705ZM121.76 41.0705C121.76 40.4412 121.271 39.9367 120.642 39.9367H120.192V42.2043H120.642C121.271 42.2043 121.76 41.6998 121.76 41.0705ZM125.237 43.0398C124.288 43.0398 123.713 42.4213 123.713 41.4611V39.1718H124.537V41.4177C124.537 41.9276 124.787 42.2477 125.237 42.2477C125.687 42.2477 125.937 41.9276 125.937 41.4177V39.1718H126.762V41.4611C126.762 42.4213 126.186 43.0398 125.237 43.0398ZM128.06 39.1718H128.874V42.2043H130.198V42.9692H128.06V39.1718ZM131.257 42.9692V39.1718H133.492V39.9096H132.071V40.6799H133.367V41.396H132.071V42.2314H133.503V42.9692H131.257ZM137.914 41.0705C137.914 42.1392 137.046 42.9692 135.983 42.9692H134.697V39.1718H135.983C137.046 39.1718 137.914 40.0018 137.914 41.0705ZM137.079 41.0705C137.079 40.4412 136.591 39.9367 135.961 39.9367H135.511V42.2043H135.961C136.591 42.2043 137.079 41.6998 137.079 41.0705ZM110.488 49.971L109.523 48.452V50.9692H108.731V47.1718H109.582L110.727 48.9783L111.866 47.1718H112.696V50.9692H111.904V48.4412L110.933 49.971H110.488ZM114.041 50.9692V47.1718H116.276V47.9096H114.855V48.6799H116.151V49.396H114.855V50.2314H116.287V50.9692H114.041ZM117.481 50.9692V47.1718H119.717V47.9096H118.295V48.6799H119.592V49.396H118.295V50.2314H119.727V50.9692H117.481ZM120.698 47.9313V47.1718H123.519V47.9313H122.52V50.9692H121.701V47.9313H120.698ZM124.558 47.1718H125.377V50.9692H124.558V47.1718ZM129.321 47.1718H130.113V50.9692H129.299L127.514 48.4629V50.9692H126.722V47.1718H127.552L129.321 49.6889V47.1718ZM133.912 50.1609V49.537H133.066V48.8372H134.677V50.6329C134.319 50.8824 133.864 51.0398 133.321 51.0398C132.138 51.0398 131.281 50.2911 131.281 49.0922C131.281 47.9692 132.133 47.1012 133.375 47.1012C133.782 47.1012 134.27 47.2097 134.601 47.4159V48.311C134.27 48.056 133.874 47.8716 133.381 47.8716C132.6 47.8716 132.106 48.3924 132.106 49.0922C132.106 49.8191 132.632 50.2803 133.332 50.2803C133.571 50.2803 133.777 50.226 133.912 50.1609ZM135.809 50.7143V49.7486C136.173 50.085 136.699 50.2748 137.106 50.2748C137.475 50.2748 137.681 50.1284 137.681 49.8625C137.681 49.5533 137.301 49.4882 136.878 49.3743C136.357 49.2387 135.766 49.0434 135.766 48.3001C135.766 47.5732 136.352 47.1012 137.176 47.1012C137.627 47.1012 138.012 47.2043 138.348 47.4159V48.3218C137.996 48.0181 137.589 47.8553 137.182 47.8553C136.78 47.8553 136.607 48.0235 136.607 48.2513C136.607 48.5009 136.927 48.5822 137.296 48.6799C137.844 48.8209 138.527 49.0054 138.527 49.8029C138.527 50.5298 137.99 51.0398 137.122 51.0398C136.65 51.0398 136.151 50.9258 135.809 50.7143Z" fill="#4B546B"/>
</g>
<mask id="path-17-inside-7_2264_10877" fill="white">
<path d="M141.853 33.3525H200.322V57.3129H141.853V33.3525Z"/>
</mask>
<path d="M200.322 57.3129V56.8608H141.853V57.3129V57.7649H200.322V57.3129Z" fill="#E4E8F0" mask="url(#path-17-inside-7_2264_10877)"/>
<path d="M158.376 39.1718H159.097L160.622 42.9692H159.77L159.45 42.1501H158.001L157.681 42.9692H156.846L158.376 39.1718ZM158.723 40.2079L158.251 41.4502H159.206L158.723 40.2079ZM160.849 39.9313V39.1718H163.67V39.9313H162.672V42.9692H161.853V39.9313H160.849ZM164.512 39.9313V39.1718H167.333V39.9313H166.335V42.9692H165.516V39.9313H164.512ZM168.373 42.9692V39.1718H170.608V39.9096H169.187V40.6799H170.483V41.396H169.187V42.2314H170.619V42.9692H168.373ZM174.412 39.1718H175.204V42.9692H174.39L172.605 40.4629V42.9692H171.813V39.1718H172.643L174.412 41.6889V39.1718ZM179.769 41.0705C179.769 42.1392 178.901 42.9692 177.837 42.9692H176.552V39.1718H177.837C178.901 39.1718 179.769 40.0018 179.769 41.0705ZM178.933 41.0705C178.933 40.4412 178.445 39.9367 177.816 39.9367H177.365V42.2043H177.816C178.445 42.2043 178.933 41.6998 178.933 41.0705ZM181.927 39.1718H182.648L184.173 42.9692H183.321L183.001 42.1501H181.552L181.232 42.9692H180.397L181.927 39.1718ZM182.274 40.2079L181.802 41.4502H182.757L182.274 40.2079ZM187.758 39.1718H188.55V42.9692H187.736L185.952 40.4629V42.9692H185.16V39.1718H185.99L187.758 41.6889V39.1718ZM189.719 41.0705C189.719 39.9584 190.587 39.1012 191.683 39.1012C192.014 39.1012 192.35 39.188 192.648 39.3562V40.2351C192.361 40.0181 192.062 39.8987 191.71 39.8987C191.048 39.8987 190.56 40.4141 190.56 41.0705C190.56 41.7161 191.026 42.2369 191.71 42.2369C192.057 42.2369 192.355 42.1229 192.654 41.9114V42.7848C192.323 42.9692 191.976 43.0398 191.672 43.0398C190.522 43.0398 189.719 42.1989 189.719 41.0705ZM193.831 42.9692V39.1718H196.066V39.9096H194.645V40.6799H195.941V41.396H194.645V42.2314H196.077V42.9692H193.831ZM183.679 49.5804V50.9692H182.871V47.1718H184.135C184.954 47.1718 185.524 47.6112 185.524 48.3869C185.524 48.9294 185.198 49.3092 184.743 49.4828L185.79 50.9692H184.829L183.896 49.5804H183.679ZM183.679 47.9041V48.9077H184.14C184.466 48.9077 184.705 48.7179 184.705 48.4032C184.705 48.0832 184.466 47.9041 184.14 47.9041H183.679ZM188.039 47.1718H188.761L190.285 50.9692H189.434L189.114 50.1501H187.665L187.345 50.9692H186.51L188.039 47.1718ZM188.387 48.2079L187.915 49.4502H188.869L188.387 48.2079ZM190.513 47.9313V47.1718H193.334V47.9313H192.336V50.9692H191.516V47.9313H190.513ZM194.374 50.9692V47.1718H196.609V47.9096H195.187V48.6799H196.484V49.396H195.187V50.2314H196.619V50.9692H194.374Z" fill="#4B546B"/>
<mask id="path-20-inside-8_2264_10877" fill="white">
<path d="M200.32 33.3525H262.18V57.3129H200.32V33.3525Z"/>
</mask>
<path d="M262.18 57.3129V56.8608H200.32V57.3129V57.7649H262.18V57.3129Z" fill="#E4E8F0" mask="url(#path-20-inside-8_2264_10877)"/>
<path d="M223.007 41.0705C223.007 39.9584 223.875 39.1012 224.971 39.1012C225.302 39.1012 225.638 39.188 225.937 39.3562V40.2351C225.649 40.0181 225.351 39.8987 224.998 39.8987C224.336 39.8987 223.848 40.4141 223.848 41.0705C223.848 41.7161 224.315 42.2369 224.998 42.2369C225.345 42.2369 225.644 42.1229 225.942 41.9114V42.7848C225.611 42.9692 225.264 43.0398 224.96 43.0398C223.81 43.0398 223.007 42.1989 223.007 41.0705ZM230.837 41.0705C230.837 42.1663 229.953 43.0398 228.852 43.0398C227.75 43.0398 226.866 42.1663 226.866 41.0705C226.866 39.9747 227.75 39.1012 228.852 39.1012C229.953 39.1012 230.837 39.9747 230.837 41.0705ZM230.002 41.0705C230.002 40.4141 229.497 39.8933 228.852 39.8933C228.206 39.8933 227.702 40.4141 227.702 41.0705C227.702 41.7269 228.206 42.2477 228.852 42.2477C229.497 42.2477 230.002 41.7269 230.002 41.0705ZM233.764 41.971L232.798 40.452V42.9692H232.006V39.1718H232.858L234.002 40.9783L235.142 39.1718H235.972V42.9692H235.18V40.4412L234.209 41.971H233.764ZM237.317 39.1718H238.608C239.432 39.1718 240.002 39.6166 240.002 40.3978C240.002 41.1736 239.432 41.6238 238.608 41.6238H238.13V42.9692H237.317V39.1718ZM238.13 39.9041V40.9023H238.624C238.95 40.9023 239.183 40.7179 239.183 40.4032C239.183 40.0886 238.95 39.9041 238.624 39.9041H238.13ZM241.064 39.1718H241.878V42.2043H243.202V42.9692H241.064V39.1718ZM244.261 42.9692V39.1718H246.496V39.9096H245.075V40.6799H246.371V41.396H245.075V42.2314H246.507V42.9692H244.261ZM247.477 39.9313V39.1718H250.298V39.9313H249.3V42.9692H248.481V39.9313H247.477ZM251.338 42.9692V39.1718H253.573V39.9096H252.152V40.6799H253.448V41.396H252.152V42.2314H253.584V42.9692H251.338ZM257.995 41.0705C257.995 42.1392 257.127 42.9692 256.064 42.9692H254.778V39.1718H256.064C257.127 39.1718 257.995 40.0018 257.995 41.0705ZM257.16 41.0705C257.16 40.4412 256.672 39.9367 256.042 39.9367H255.592V42.2043H256.042C256.672 42.2043 257.16 41.6998 257.16 41.0705ZM233.35 49.0705C233.35 47.9584 234.218 47.1012 235.314 47.1012C235.644 47.1012 235.981 47.188 236.279 47.3562V48.2351C235.992 48.0181 235.693 47.8987 235.341 47.8987C234.679 47.8987 234.191 48.4141 234.191 49.0705C234.191 49.7161 234.657 50.2369 235.341 50.2369C235.688 50.2369 235.986 50.1229 236.285 49.9114V50.7848C235.954 50.9692 235.606 51.0398 235.303 51.0398C234.153 51.0398 233.35 50.1989 233.35 49.0705ZM237.462 47.1718H238.276V50.2043H239.599V50.9692H237.462V47.1718ZM241.92 47.1718H242.642L244.166 50.9692H243.315L242.995 50.1501H241.546L241.226 50.9692H240.391L241.92 47.1718ZM242.268 48.2079L241.796 49.4502H242.75L242.268 48.2079ZM245.023 50.7143V49.7486C245.387 50.085 245.913 50.2748 246.32 50.2748C246.689 50.2748 246.895 50.1284 246.895 49.8625C246.895 49.5533 246.515 49.4882 246.092 49.3743C245.571 49.2387 244.98 49.0434 244.98 48.3001C244.98 47.5732 245.566 47.1012 246.39 47.1012C246.841 47.1012 247.226 47.2043 247.562 47.4159V48.3218C247.21 48.0181 246.803 47.8553 246.396 47.8553C245.994 47.8553 245.821 48.0235 245.821 48.2513C245.821 48.5009 246.141 48.5822 246.51 48.6799C247.058 48.8209 247.741 49.0054 247.741 49.8029C247.741 50.5298 247.204 51.0398 246.336 51.0398C245.864 51.0398 245.365 50.9258 245.023 50.7143ZM248.75 50.7143V49.7486C249.113 50.085 249.64 50.2748 250.046 50.2748C250.415 50.2748 250.621 50.1284 250.621 49.8625C250.621 49.5533 250.242 49.4882 249.819 49.3743C249.298 49.2387 248.706 49.0434 248.706 48.3001C248.706 47.5732 249.292 47.1012 250.117 47.1012C250.567 47.1012 250.952 47.2043 251.289 47.4159V48.3218C250.936 48.0181 250.529 47.8553 250.122 47.8553C249.721 47.8553 249.547 48.0235 249.547 48.2513C249.547 48.5009 249.867 48.5822 250.236 48.6799C250.784 48.8209 251.468 49.0054 251.468 49.8029C251.468 50.5298 250.931 51.0398 250.063 51.0398C249.591 51.0398 249.092 50.9258 248.75 50.7143ZM252.564 50.9692V47.1718H254.799V47.9096H253.378V48.6799H254.674V49.396H253.378V50.2314H254.81V50.9692H252.564ZM255.89 50.7143V49.7486C256.254 50.085 256.78 50.2748 257.187 50.2748C257.556 50.2748 257.762 50.1284 257.762 49.8625C257.762 49.5533 257.382 49.4882 256.959 49.3743C256.438 49.2387 255.847 49.0434 255.847 48.3001C255.847 47.5732 256.433 47.1012 257.257 47.1012C257.708 47.1012 258.093 47.2043 258.429 47.4159V48.3218C258.077 48.0181 257.67 47.8553 257.263 47.8553C256.861 47.8553 256.688 48.0235 256.688 48.2513C256.688 48.5009 257.008 48.5822 257.377 48.6799C257.925 48.8209 258.608 49.0054 258.608 49.8029C258.608 50.5298 258.071 51.0398 257.203 51.0398C256.731 51.0398 256.232 50.9258 255.89 50.7143Z" fill="#4B546B"/>
<mask id="path-23-inside-9_2264_10877" fill="white">
<path d="M262.182 33.3525H334.485V57.3129H262.182V33.3525Z"/>
</mask>
<path d="M334.485 57.3129V56.8608H262.182V57.3129V57.7649H334.485V57.3129Z" fill="#E4E8F0" mask="url(#path-23-inside-9_2264_10877)"/>
<path d="M270.412 41.0705C270.412 39.9584 271.28 39.1012 272.376 39.1012C272.706 39.1012 273.043 39.188 273.341 39.3562V40.2351C273.054 40.0181 272.755 39.8987 272.403 39.8987C271.741 39.8987 271.253 40.4141 271.253 41.0705C271.253 41.7161 271.719 42.2369 272.403 42.2369C272.75 42.2369 273.048 42.1229 273.347 41.9114V42.7848C273.016 42.9692 272.669 43.0398 272.365 43.0398C271.215 43.0398 270.412 42.1989 270.412 41.0705ZM274.524 39.1718H275.338V42.2043H276.661V42.9692H274.524V39.1718ZM278.982 39.1718H279.704L281.228 42.9692H280.377L280.057 42.1501H278.608L278.288 42.9692H277.453L278.982 39.1718ZM279.33 40.2079L278.858 41.4502H279.812L279.33 40.2079ZM282.085 42.7143V41.7486C282.449 42.085 282.975 42.2748 283.382 42.2748C283.751 42.2748 283.957 42.1284 283.957 41.8625C283.957 41.5533 283.577 41.4882 283.154 41.3743C282.633 41.2387 282.042 41.0434 282.042 40.3001C282.042 39.5732 282.628 39.1012 283.453 39.1012C283.903 39.1012 284.288 39.2043 284.624 39.4159V40.3218C284.272 40.0181 283.865 39.8553 283.458 39.8553C283.057 39.8553 282.883 40.0235 282.883 40.2513C282.883 40.5009 283.203 40.5822 283.572 40.6799C284.12 40.8209 284.803 41.0054 284.803 41.8029C284.803 42.5298 284.266 43.0398 283.398 43.0398C282.926 43.0398 282.427 42.9258 282.085 42.7143ZM285.812 42.7143V41.7486C286.175 42.085 286.702 42.2748 287.108 42.2748C287.477 42.2748 287.684 42.1284 287.684 41.8625C287.684 41.5533 287.304 41.4882 286.881 41.3743C286.36 41.2387 285.769 41.0434 285.769 40.3001C285.769 39.5732 286.354 39.1012 287.179 39.1012C287.629 39.1012 288.014 39.2043 288.351 39.4159V40.3218C287.998 40.0181 287.591 39.8553 287.184 39.8553C286.783 39.8553 286.609 40.0235 286.609 40.2513C286.609 40.5009 286.929 40.5822 287.298 40.6799C287.846 40.8209 288.53 41.0054 288.53 41.8029C288.53 42.5298 287.993 43.0398 287.125 43.0398C286.653 43.0398 286.154 42.9258 285.812 42.7143ZM291.256 41.0705C291.256 39.9584 292.124 39.1012 293.219 39.1012C293.55 39.1012 293.887 39.188 294.185 39.3562V40.2351C293.897 40.0181 293.599 39.8987 293.246 39.8987C292.585 39.8987 292.096 40.4141 292.096 41.0705C292.096 41.7161 292.563 42.2369 293.246 42.2369C293.594 42.2369 293.892 42.1229 294.19 41.9114V42.7848C293.859 42.9692 293.512 43.0398 293.209 43.0398C292.058 43.0398 291.256 42.1989 291.256 41.0705ZM299.086 41.0705C299.086 42.1663 298.201 43.0398 297.1 43.0398C295.999 43.0398 295.114 42.1663 295.114 41.0705C295.114 39.9747 295.999 39.1012 297.1 39.1012C298.201 39.1012 299.086 39.9747 299.086 41.0705ZM298.25 41.0705C298.25 40.4141 297.746 39.8933 297.1 39.8933C296.454 39.8933 295.95 40.4141 295.95 41.0705C295.95 41.7269 296.454 42.2477 297.1 42.2477C297.746 42.2477 298.25 41.7269 298.25 41.0705ZM302.012 41.971L301.046 40.452V42.9692H300.254V39.1718H301.106L302.251 40.9783L303.39 39.1718H304.22V42.9692H303.428V40.4412L302.457 41.971H302.012ZM305.565 39.1718H306.856C307.681 39.1718 308.25 39.6166 308.25 40.3978C308.25 41.1736 307.681 41.6238 306.856 41.6238H306.379V42.9692H305.565V39.1718ZM306.379 39.9041V40.9023H306.872C307.198 40.9023 307.431 40.7179 307.431 40.4032C307.431 40.0886 307.198 39.9041 306.872 39.9041H306.379ZM309.313 39.1718H310.126V42.2043H311.45V42.9692H309.313V39.1718ZM312.509 42.9692V39.1718H314.744V39.9096H313.323V40.6799H314.62V41.396H313.323V42.2314H314.755V42.9692H312.509ZM315.725 39.9313V39.1718H318.546V39.9313H317.548V42.9692H316.729V39.9313H315.725ZM319.586 39.1718H320.405V42.9692H319.586V39.1718ZM325.542 41.0705C325.542 42.1663 324.658 43.0398 323.556 43.0398C322.455 43.0398 321.571 42.1663 321.571 41.0705C321.571 39.9747 322.455 39.1012 323.556 39.1012C324.658 39.1012 325.542 39.9747 325.542 41.0705ZM324.706 41.0705C324.706 40.4141 324.202 39.8933 323.556 39.8933C322.911 39.8933 322.406 40.4141 322.406 41.0705C322.406 41.7269 322.911 42.2477 323.556 42.2477C324.202 42.2477 324.706 41.7269 324.706 41.0705ZM329.309 39.1718H330.101V42.9692H329.288L327.503 40.4629V42.9692H326.711V39.1718H327.541L329.309 41.6889V39.1718ZM317.857 49.5804V50.9692H317.048V47.1718H318.312C319.132 47.1718 319.701 47.6112 319.701 48.3869C319.701 48.9294 319.376 49.3092 318.92 49.4828L319.967 50.9692H319.007L318.074 49.5804H317.857ZM317.857 47.9041V48.9077H318.318C318.643 48.9077 318.882 48.7179 318.882 48.4032C318.882 48.0832 318.643 47.9041 318.318 47.9041H317.857ZM322.217 47.1718H322.938L324.463 50.9692H323.611L323.291 50.1501H321.843L321.523 50.9692H320.687L322.217 47.1718ZM322.564 48.2079L322.092 49.4502H323.047L322.564 48.2079ZM324.69 47.9313V47.1718H327.511V47.9313H326.513V50.9692H325.694V47.9313H324.69ZM328.551 50.9692V47.1718H330.786V47.9096H329.365V48.6799H330.661V49.396H329.365V50.2314H330.797V50.9692H328.551Z" fill="#4B546B"/>
<mask id="path-26-inside-10_2264_10877" fill="white">
<path d="M334.484 33.3525H401.001V57.3129H334.484V33.3525Z"/>
</mask>
<path d="M401.001 57.3129V57.7649H401.453V57.3129H401.001ZM401.001 33.3525H400.549V57.3129H401.001H401.453V33.3525H401.001ZM401.001 57.3129V56.8608H334.484V57.3129V57.7649H401.001V57.3129Z" fill="#E4E8F0" mask="url(#path-26-inside-10_2264_10877)"/>
<path d="M363.384 42.1609V41.537H362.537V40.8372H364.148V42.6329C363.79 42.8824 363.335 43.0398 362.792 43.0398C361.61 43.0398 360.752 42.2911 360.752 41.0922C360.752 39.9692 361.604 39.1012 362.846 39.1012C363.253 39.1012 363.742 39.2097 364.073 39.4159V40.311C363.742 40.056 363.346 39.8716 362.852 39.8716C362.071 39.8716 361.577 40.3924 361.577 41.0922C361.577 41.8191 362.103 42.2803 362.803 42.2803C363.042 42.2803 363.248 42.226 363.384 42.1609ZM366.213 41.5804V42.9692H365.405V39.1718H366.669C367.488 39.1718 368.058 39.6112 368.058 40.3869C368.058 40.9294 367.732 41.3092 367.277 41.4828L368.324 42.9692H367.363L366.43 41.5804H366.213ZM366.213 39.9041V40.9077H366.674C367 40.9077 367.239 40.7179 367.239 40.4032C367.239 40.0832 367 39.9041 366.674 39.9041H366.213ZM370.573 39.1718H371.295L372.819 42.9692H371.968L371.648 42.1501H370.199L369.879 42.9692H369.044L370.573 39.1718ZM370.921 40.2079L370.449 41.4502H371.403L370.921 40.2079ZM377.023 41.0705C377.023 42.1392 376.155 42.9692 375.092 42.9692H373.806V39.1718H375.092C376.155 39.1718 377.023 40.0018 377.023 41.0705ZM376.188 41.0705C376.188 40.4412 375.7 39.9367 375.07 39.9367H374.62V42.2043H375.07C375.7 42.2043 376.188 41.6998 376.188 41.0705ZM379.665 43.0398C378.716 43.0398 378.141 42.4213 378.141 41.4611V39.1718H378.965V41.4177C378.965 41.9276 379.215 42.2477 379.665 42.2477C380.116 42.2477 380.365 41.9276 380.365 41.4177V39.1718H381.19V41.4611C381.19 42.4213 380.615 43.0398 379.665 43.0398ZM383.506 39.1718H384.228L385.752 42.9692H384.901L384.581 42.1501H383.132L382.812 42.9692H381.977L383.506 39.1718ZM383.854 40.2079L383.382 41.4502H384.337L383.854 40.2079ZM385.98 39.9313V39.1718H388.801V39.9313H387.803V42.9692H386.984V39.9313H385.98ZM389.841 42.9692V39.1718H392.076V39.9096H390.654V40.6799H391.951V41.396H390.654V42.2314H392.087V42.9692H389.841ZM396.498 41.0705C396.498 42.1392 395.63 42.9692 394.567 42.9692H393.281V39.1718H394.567C395.63 39.1718 396.498 40.0018 396.498 41.0705ZM395.663 41.0705C395.663 40.4412 395.174 39.9367 394.545 39.9367H394.095V42.2043H394.545C395.174 42.2043 395.663 41.6998 395.663 41.0705ZM366.755 50.7143V49.7486C367.119 50.085 367.645 50.2748 368.052 50.2748C368.421 50.2748 368.627 50.1284 368.627 49.8625C368.627 49.5533 368.247 49.4882 367.824 49.3743C367.303 49.2387 366.712 49.0434 366.712 48.3001C366.712 47.5732 367.298 47.1012 368.122 47.1012C368.573 47.1012 368.958 47.2043 369.294 47.4159V48.3218C368.942 48.0181 368.535 47.8553 368.128 47.8553C367.726 47.8553 367.553 48.0235 367.553 48.2513C367.553 48.5009 367.873 48.5822 368.242 48.6799C368.79 48.8209 369.473 49.0054 369.473 49.8029C369.473 50.5298 368.936 51.0398 368.068 51.0398C367.596 51.0398 367.097 50.9258 366.755 50.7143ZM370.239 47.9313V47.1718H373.06V47.9313H372.062V50.9692H371.243V47.9313H370.239ZM375.575 51.0398C374.626 51.0398 374.051 50.4213 374.051 49.4611V47.1718H374.876V49.4177C374.876 49.9276 375.125 50.2477 375.575 50.2477C376.026 50.2477 376.275 49.9276 376.275 49.4177V47.1718H377.1V49.4611C377.1 50.4213 376.525 51.0398 375.575 51.0398ZM381.615 49.0705C381.615 50.1392 380.747 50.9692 379.684 50.9692H378.398V47.1718H379.684C380.747 47.1718 381.615 48.0018 381.615 49.0705ZM380.78 49.0705C380.78 48.4412 380.292 47.9367 379.662 47.9367H379.212V50.2043H379.662C380.292 50.2043 380.78 49.6998 380.78 49.0705ZM382.782 50.9692V47.1718H385.017V47.9096H383.596V48.6799H384.892V49.396H383.596V50.2314H385.028V50.9692H382.782ZM388.821 47.1718H389.613V50.9692H388.799L387.014 48.4629V50.9692H386.222V47.1718H387.052L388.821 49.6889V47.1718ZM390.657 47.9313V47.1718H393.478V47.9313H392.48V50.9692H391.66V47.9313H390.657ZM394.393 50.7143V49.7486C394.757 50.085 395.283 50.2748 395.69 50.2748C396.059 50.2748 396.265 50.1284 396.265 49.8625C396.265 49.5533 395.885 49.4882 395.462 49.3743C394.941 49.2387 394.35 49.0434 394.35 48.3001C394.35 47.5732 394.936 47.1012 395.76 47.1012C396.21 47.1012 396.596 47.2043 396.932 47.4159V48.3218C396.579 48.0181 396.172 47.8553 395.766 47.8553C395.364 47.8553 395.191 48.0235 395.191 48.2513C395.191 48.5009 395.511 48.5822 395.88 48.6799C396.427 48.8209 397.111 49.0054 397.111 49.8029C397.111 50.5298 396.574 51.0398 395.706 51.0398C395.234 51.0398 394.735 50.9258 394.393 50.7143Z" fill="#4B546B"/>
<rect width="467" height="17.6312" transform="translate(-66 57.313)" fill="#F6F9FC"/>
<g filter="url(#filter5_d_2264_10877)">
<mask id="path-29-inside-11_2264_10877" fill="white">
<path d="M-66 57.313H15.3746V74.9442H-66V57.313Z"/>
</mask>
<path d="M-66 57.313H15.3746V74.9442H-66V57.313Z" fill="white" fill-opacity="0.01" shape-rendering="crispEdges"/>
<path d="M-66 74.9442H-66.4521V75.3962H-66V74.9442ZM15.3746 74.9442V74.4921H-66V74.9442V75.3962H15.3746V74.9442ZM-66 74.9442H-65.5479V57.313H-66H-66.4521V74.9442H-66Z" fill="#E4E8F0" mask="url(#path-29-inside-11_2264_10877)"/>
</g>
<mask id="path-31-inside-12_2264_10877" fill="white">
<path d="M15.375 57.313H77.5513V74.9442H15.375V57.313Z"/>
</mask>
<path d="M77.5513 74.9442V74.4921H15.375V74.9442V75.3962H77.5513V74.9442Z" fill="#E4E8F0" mask="url(#path-31-inside-12_2264_10877)"/>
<path d="M57.4482 65.9021C57.4482 63.1556 59.6747 60.9292 62.4211 60.9292H68.9613C71.7077 60.9292 73.9341 63.1556 73.9341 65.9021C73.9341 68.6485 71.7077 70.875 68.9613 70.875H62.4211C59.6747 70.875 57.4482 68.6485 57.4482 65.9021Z" fill="#1CA05C" fill-opacity="0.1"/>
<path d="M65.4548 68.2686H62.1894V67.5328L63.766 65.9702C64.2145 65.5357 64.3406 65.3115 64.3406 64.9892C64.3406 64.6038 64.0113 64.3305 63.5488 64.3305C63.1003 64.3305 62.6799 64.5827 62.3015 64.9962V63.896C62.6729 63.5597 63.1564 63.3705 63.6329 63.3705C64.5999 63.3705 65.3777 63.9591 65.3777 64.877C65.3777 65.5147 65.1114 65.9842 64.5018 66.5448L63.6399 67.3436H65.4548V68.2686ZM66.0368 65.8651C66.0368 64.5547 66.7375 63.3705 68.0969 63.3705C69.4564 63.3705 70.1571 64.5547 70.1571 65.8651C70.1571 67.1754 69.4564 68.3596 68.0969 68.3596C66.7375 68.3596 66.0368 67.1754 66.0368 65.8651ZM69.113 65.8651C69.113 65.0943 68.8047 64.3445 68.0969 64.3445C67.3892 64.3445 67.0809 65.0943 67.0809 65.8651C67.0809 66.6359 67.3892 67.3856 68.0969 67.3856C68.8047 67.3856 69.113 66.6359 69.113 65.8651Z" fill="#1CA05C"/>
<g filter="url(#filter6_d_2264_10877)">
<mask id="path-35-inside-13_2264_10877" fill="white">
<path d="M77.5508 57.313H141.852V74.9442H77.5508V57.313Z"/>
</mask>
<path d="M77.5508 57.313H141.852V74.9442H77.5508V57.313Z" fill="white" fill-opacity="0.01" shape-rendering="crispEdges"/>
<path d="M141.852 74.9442V74.4921H77.5508V74.9442V75.3962H141.852V74.9442Z" fill="#E4E8F0" mask="url(#path-35-inside-13_2264_10877)"/>
<path d="M121.75 65.9021C121.75 63.1556 123.976 60.9292 126.723 60.9292H133.263C136.009 60.9292 138.236 63.1556 138.236 65.9021C138.236 68.6485 136.009 70.875 133.263 70.875H126.723C123.976 70.875 121.75 68.6485 121.75 65.9021Z" fill="#00C4D7" fill-opacity="0.1"/>
<path d="M129.388 68.2686H128.351V64.5757L127.482 64.9121V63.896L128.568 63.4546H129.388V68.2686ZM130.243 65.8651C130.243 64.5547 130.944 63.3705 132.303 63.3705C133.662 63.3705 134.363 64.5547 134.363 65.8651C134.363 67.1754 133.662 68.3596 132.303 68.3596C130.944 68.3596 130.243 67.1754 130.243 65.8651ZM133.319 65.8651C133.319 65.0943 133.011 64.3445 132.303 64.3445C131.595 64.3445 131.287 65.0943 131.287 65.8651C131.287 66.6359 131.595 67.3856 132.303 67.3856C133.011 67.3856 133.319 66.6359 133.319 65.8651Z" fill="#00C4D7"/>
</g>
<mask id="path-39-inside-14_2264_10877" fill="white">
<path d="M141.853 57.313H200.322V74.9442H141.853V57.313Z"/>
</mask>
<path d="M200.322 74.9442V74.4921H141.853V74.9442V75.3962H200.322V74.9442Z" fill="#E4E8F0" mask="url(#path-39-inside-14_2264_10877)"/>
<path d="M187.992 67.5863C188.536 67.5863 189.023 67.2445 189.023 66.6749C189.023 66.1179 188.555 65.7951 187.966 65.7951C187.58 65.7951 187.27 65.8901 187.004 66.0293L187.156 63.6939H189.384V64.2065H187.637L187.555 65.3711C187.656 65.3205 187.891 65.2888 188.087 65.2888C188.922 65.2888 189.599 65.8458 189.599 66.6496C189.599 67.58 188.891 68.1053 188.011 68.1116C187.618 68.1116 187.245 68.0103 186.884 67.7825V67.1622C187.245 67.4471 187.612 67.5863 187.992 67.5863ZM191.446 68.042H190.889V64.3205L190.104 64.6432V64.0736L190.99 63.6939H191.446V68.042ZM196.536 63.6939L193.327 68.042H192.687L195.896 63.6939H196.536ZM194.846 67.08C194.846 66.5103 195.308 66.0736 195.884 66.0736C196.46 66.0736 196.922 66.5103 196.922 67.08C196.922 67.6496 196.46 68.0863 195.884 68.0863C195.308 68.0863 194.846 67.6496 194.846 67.08ZM192.295 64.6559C192.295 64.0863 192.757 63.6496 193.333 63.6496C193.909 63.6496 194.371 64.0863 194.371 64.6559C194.371 65.2255 193.909 65.6622 193.333 65.6622C192.757 65.6622 192.295 65.2255 192.295 64.6559ZM192.808 64.6559C192.808 64.9597 193.042 65.1876 193.333 65.1876C193.624 65.1876 193.858 64.9597 193.858 64.6559C193.858 64.3521 193.624 64.1243 193.333 64.1243C193.042 64.1243 192.808 64.3521 192.808 64.6559ZM195.358 67.08C195.358 67.3838 195.592 67.6116 195.884 67.6116C196.175 67.6116 196.409 67.3838 196.409 67.08C196.409 66.7762 196.175 66.5483 195.884 66.5483C195.592 66.5483 195.358 66.7762 195.358 67.08Z" fill="#242B42"/>
<mask id="path-42-inside-15_2264_10877" fill="white">
<path d="M200.32 57.313H262.18V74.9442H200.32V57.313Z"/>
</mask>
<path d="M262.18 74.9442V74.4921H200.32V74.9442V75.3962H262.18V74.9442Z" fill="#E4E8F0" mask="url(#path-42-inside-15_2264_10877)"/>
<path d="M246.306 65.9021C246.306 63.1556 248.532 60.9292 251.279 60.9292H253.592C256.338 60.9292 258.565 63.1556 258.565 65.9021C258.565 68.6485 256.338 70.875 253.592 70.875H251.279C248.532 70.875 246.306 68.6485 246.306 65.9021Z" fill="#DA0014" fill-opacity="0.1"/>
<path d="M254.532 66.8321C254.532 67.743 253.81 68.3596 252.71 68.3596C252.24 68.3596 251.799 68.2405 251.4 67.9953V66.9442C251.799 67.2595 252.205 67.4137 252.626 67.4137C253.137 67.4137 253.495 67.1824 253.495 66.776C253.495 66.4186 253.158 66.1734 252.661 66.1734H252.205V65.3605H252.64C253.046 65.3605 253.327 65.1363 253.327 64.842C253.327 64.5057 252.997 64.3095 252.605 64.3095C252.219 64.3095 251.869 64.4566 251.498 64.7579V63.7278C251.848 63.4896 252.261 63.3705 252.689 63.3705C253.642 63.3705 254.343 63.875 254.343 64.7159C254.343 65.1643 254.111 65.5007 253.747 65.7039C254.244 65.9071 254.532 66.3065 254.532 66.8321Z" fill="#DA0014"/>
<mask id="path-46-inside-16_2264_10877" fill="white">
<path d="M262.182 57.313H334.485V74.9442H262.182V57.313Z"/>
</mask>
<path d="M334.485 74.9442V74.4921H262.182V74.9442V75.3962H334.485V74.9442Z" fill="#E4E8F0" mask="url(#path-46-inside-16_2264_10877)"/>
<path d="M321.298 67.5863C321.836 67.5863 322.253 67.2635 322.253 66.7888C322.253 66.3268 321.842 66.0103 321.317 66.0103H320.905V65.504H321.317C321.715 65.504 322.083 65.1876 322.083 64.8268C322.083 64.4344 321.734 64.1432 321.285 64.1432C320.918 64.1432 320.576 64.3141 320.228 64.6179V63.9977C320.545 63.7572 320.918 63.6243 321.291 63.6243C322.076 63.6243 322.633 64.1179 322.633 64.7762C322.633 65.1876 322.412 65.542 322.026 65.7255C322.507 65.8838 322.817 66.3015 322.817 66.7952C322.817 67.5673 322.171 68.1116 321.304 68.1116C320.886 68.1116 320.494 68.004 320.114 67.7698V67.1622C320.5 67.4471 320.893 67.5863 321.298 67.5863ZM324.508 67.5863C325.046 67.5863 325.464 67.2635 325.464 66.7888C325.464 66.3268 325.052 66.0103 324.527 66.0103H324.116V65.504H324.527C324.926 65.504 325.293 65.1876 325.293 64.8268C325.293 64.4344 324.945 64.1432 324.495 64.1432C324.128 64.1432 323.787 64.3141 323.438 64.6179V63.9977C323.755 63.7572 324.128 63.6243 324.502 63.6243C325.287 63.6243 325.844 64.1179 325.844 64.7762C325.844 65.1876 325.622 65.542 325.236 65.7255C325.717 65.8838 326.027 66.3015 326.027 66.7952C326.027 67.5673 325.381 68.1116 324.514 68.1116C324.097 68.1116 323.704 68.004 323.325 67.7698V67.1622C323.711 67.4471 324.103 67.5863 324.508 67.5863ZM330.793 63.6939L327.584 68.042H326.945L330.154 63.6939H330.793ZM329.103 67.08C329.103 66.5103 329.565 66.0736 330.141 66.0736C330.717 66.0736 331.179 66.5103 331.179 67.08C331.179 67.6496 330.717 68.0863 330.141 68.0863C329.565 68.0863 329.103 67.6496 329.103 67.08ZM326.553 64.6559C326.553 64.0863 327.015 63.6496 327.591 63.6496C328.167 63.6496 328.629 64.0863 328.629 64.6559C328.629 65.2255 328.167 65.6622 327.591 65.6622C327.015 65.6622 326.553 65.2255 326.553 64.6559ZM327.065 64.6559C327.065 64.9597 327.3 65.1876 327.591 65.1876C327.882 65.1876 328.116 64.9597 328.116 64.6559C328.116 64.3521 327.882 64.1243 327.591 64.1243C327.3 64.1243 327.065 64.3521 327.065 64.6559ZM329.616 67.08C329.616 67.3838 329.85 67.6116 330.141 67.6116C330.433 67.6116 330.667 67.3838 330.667 67.08C330.667 66.7762 330.433 66.5483 330.141 66.5483C329.85 66.5483 329.616 66.7762 329.616 67.08Z" fill="#242B42"/>
<mask id="path-49-inside-17_2264_10877" fill="white">
<path d="M334.484 57.313H401.001V74.9442H334.484V57.313Z"/>
</mask>
<path d="M401.001 74.9442V75.3962H401.453V74.9442H401.001ZM401.001 57.313H400.549V74.9442H401.001H401.453V57.313H401.001ZM401.001 74.9442V74.4921H334.484V74.9442V75.3962H401.001V74.9442Z" fill="#E4E8F0" mask="url(#path-49-inside-17_2264_10877)"/>
<rect width="467" height="17.6312" transform="translate(-66 74.9438)" fill="white"/>
<g filter="url(#filter7_d_2264_10877)">
<mask id="path-51-inside-18_2264_10877" fill="white">
<path d="M-66 74.9438H15.3746V92.575H-66V74.9438Z"/>
</mask>
<path d="M-66 74.9438H15.3746V92.575H-66V74.9438Z" fill="white" fill-opacity="0.01" shape-rendering="crispEdges"/>
<path d="M-66 92.575H-66.4521V93.0271H-66V92.575ZM15.3746 92.575V92.1229H-66V92.575V93.0271H15.3746V92.575ZM-66 92.575H-65.5479V74.9438H-66H-66.4521V92.575H-66Z" fill="#E4E8F0" mask="url(#path-51-inside-18_2264_10877)"/>
</g>
<mask id="path-53-inside-19_2264_10877" fill="white">
<path d="M15.375 74.9438H77.5513V92.575H15.375V74.9438Z"/>
</mask>
<path d="M77.5513 92.575V92.1229H15.375V92.575V93.0271H77.5513V92.575Z" fill="#E4E8F0" mask="url(#path-53-inside-19_2264_10877)"/>
<path d="M61.6758 83.5334C61.6758 80.787 63.9022 78.5605 66.6487 78.5605H68.9618C71.7083 78.5605 73.9347 80.787 73.9347 83.5334C73.9347 86.2799 71.7083 88.5063 68.9618 88.5063H66.6487C63.9022 88.5063 61.6758 86.2799 61.6758 83.5334Z" fill="#1CA05C" fill-opacity="0.1"/>
<path d="M69.8918 85.8999H66.6264V85.1641L68.2031 83.6015C68.6515 83.1671 68.7777 82.9428 68.7777 82.6205C68.7777 82.2351 68.4483 81.9618 67.9859 81.9618C67.5374 81.9618 67.117 82.2141 66.7386 82.6275V81.5274C67.1099 81.191 67.5935 81.0018 68.0699 81.0018C69.0369 81.0018 69.8148 81.5904 69.8148 82.5084C69.8148 83.146 69.5485 83.6155 68.9388 84.1761L68.077 84.9749H69.8918V85.8999Z" fill="#1CA05C"/>
<g filter="url(#filter8_d_2264_10877)">
<mask id="path-57-inside-20_2264_10877" fill="white">
<path d="M77.5508 74.9438H141.852V92.575H77.5508V74.9438Z"/>
</mask>
<path d="M77.5508 74.9438H141.852V92.575H77.5508V74.9438Z" fill="white" fill-opacity="0.01" shape-rendering="crispEdges"/>
<path d="M141.852 92.575V92.1229H77.5508V92.575V93.0271H141.852V92.575Z" fill="#E4E8F0" mask="url(#path-57-inside-20_2264_10877)"/>
<path d="M121.75 83.5334C121.75 80.787 123.976 78.5605 126.723 78.5605H133.263C136.009 78.5605 138.236 80.787 138.236 83.5334C138.236 86.2799 136.009 88.5063 133.263 88.5063H126.723C123.976 88.5063 121.75 86.2799 121.75 83.5334Z" fill="#00C4D7" fill-opacity="0.1"/>
<path d="M130.65 84.4634C130.65 85.3744 129.929 85.991 128.829 85.991C128.359 85.991 127.918 85.8719 127.518 85.6266V84.5755C127.918 84.8909 128.324 85.045 128.744 85.045C129.256 85.045 129.613 84.8138 129.613 84.4074C129.613 84.05 129.277 83.8047 128.779 83.8047H128.324V82.9919H128.758C129.165 82.9919 129.445 82.7677 129.445 82.4734C129.445 82.137 129.116 81.9408 128.723 81.9408C128.338 81.9408 127.988 82.088 127.616 82.3893V81.3592C127.967 81.1209 128.38 81.0018 128.808 81.0018C129.761 81.0018 130.461 81.5063 130.461 82.3472C130.461 82.7957 130.23 83.132 129.866 83.3352C130.363 83.5385 130.65 83.9379 130.65 84.4634ZM131.229 85.6196V84.5615C131.642 84.8838 132.063 85.038 132.483 85.038C132.995 85.038 133.415 84.7857 133.415 84.3093C133.415 83.8538 133.002 83.6085 132.441 83.6085C132.056 83.6085 131.684 83.7066 131.341 83.8678L131.481 81.0859H134.179V81.9828H132.329L132.287 82.8097C132.392 82.7747 132.574 82.7466 132.764 82.7466C133.731 82.7466 134.459 83.3633 134.459 84.3022C134.459 85.3603 133.646 85.984 132.546 85.991C132.07 85.991 131.628 85.8649 131.229 85.6196Z" fill="#00C4D7"/>
</g>
<mask id="path-61-inside-21_2264_10877" fill="white">
<path d="M141.853 74.9438H200.322V92.575H141.853V74.9438Z"/>
</mask>
<path d="M200.322 92.575V92.1229H141.853V92.575V93.0271H200.322V92.575Z" fill="#E4E8F0" mask="url(#path-61-inside-21_2264_10877)"/>
<path d="M187.098 85.2176C187.636 85.2176 188.053 84.8949 188.053 84.4202C188.053 83.9581 187.642 83.6417 187.117 83.6417H186.705V83.1354H187.117C187.515 83.1354 187.882 82.8189 187.882 82.4581C187.882 82.0657 187.534 81.7746 187.085 81.7746C186.718 81.7746 186.376 81.9455 186.028 82.2493V81.629C186.344 81.3885 186.718 81.2556 187.091 81.2556C187.876 81.2556 188.433 81.7493 188.433 82.4075C188.433 82.8189 188.212 83.1733 187.825 83.3569C188.306 83.5151 188.617 83.9328 188.617 84.4265C188.617 85.1987 187.971 85.743 187.104 85.743C186.686 85.743 186.294 85.6354 185.914 85.4012V84.7936C186.3 85.0784 186.693 85.2176 187.098 85.2176ZM189.099 85.6733V85.2873L190.719 83.5721C191.093 83.1797 191.207 82.9075 191.207 82.5721C191.207 82.1227 190.814 81.7809 190.308 81.7809C189.909 81.7809 189.498 82.0467 189.15 82.4771V81.8126C189.454 81.4708 189.903 81.2556 190.314 81.2556C191.15 81.2556 191.764 81.7936 191.764 82.5467C191.764 83.0657 191.561 83.4455 191.093 83.9392L189.935 85.1544H191.821V85.6733H189.099ZM196.63 81.3252L193.421 85.6733H192.782L195.991 81.3252H196.63ZM194.94 84.7113C194.94 84.1417 195.402 83.705 195.978 83.705C196.554 83.705 197.016 84.1417 197.016 84.7113C197.016 85.2809 196.554 85.7176 195.978 85.7176C195.402 85.7176 194.94 85.2809 194.94 84.7113ZM192.39 82.2873C192.39 81.7176 192.852 81.2809 193.428 81.2809C194.004 81.2809 194.466 81.7176 194.466 82.2873C194.466 82.8569 194.004 83.2936 193.428 83.2936C192.852 83.2936 192.39 82.8569 192.39 82.2873ZM192.902 82.2873C192.902 82.591 193.137 82.8189 193.428 82.8189C193.719 82.8189 193.953 82.591 193.953 82.2873C193.953 81.9835 193.719 81.7556 193.428 81.7556C193.137 81.7556 192.902 81.9835 192.902 82.2873ZM195.453 84.7113C195.453 85.0151 195.687 85.243 195.978 85.243C196.269 85.243 196.504 85.0151 196.504 84.7113C196.504 84.4075 196.269 84.1797 195.978 84.1797C195.687 84.1797 195.453 84.4075 195.453 84.7113Z" fill="#242B42"/>
<mask id="path-64-inside-22_2264_10877" fill="white">
<path d="M200.32 74.9438H262.18V92.575H200.32V74.9438Z"/>
</mask>
<path d="M262.18 92.575V92.1229H200.32V92.575V93.0271H262.18V92.575Z" fill="#E4E8F0" mask="url(#path-64-inside-22_2264_10877)"/>
<path d="M242.079 83.5334C242.079 80.787 244.306 78.5605 247.052 78.5605H253.592C256.339 78.5605 258.565 80.787 258.565 83.5334C258.565 86.2799 256.339 88.5063 253.592 88.5063H247.052C244.306 88.5063 242.079 86.2799 242.079 83.5334Z" fill="#DA0014" fill-opacity="0.1"/>
<path d="M250.58 85.8999H249.543V82.2071L248.674 82.5434V81.5274L249.76 81.0859H250.58V85.8999ZM251.462 85.6196V84.5615C251.876 84.8838 252.296 85.038 252.717 85.038C253.228 85.038 253.649 84.7857 253.649 84.3093C253.649 83.8538 253.235 83.6085 252.675 83.6085C252.289 83.6085 251.918 83.7066 251.574 83.8678L251.715 81.0859H254.412V81.9828H252.562L252.52 82.8097C252.626 82.7747 252.808 82.7466 252.997 82.7466C253.964 82.7466 254.693 83.3633 254.693 84.3022C254.693 85.3603 253.88 85.984 252.78 85.991C252.303 85.991 251.862 85.8649 251.462 85.6196Z" fill="#DA0014"/>
<mask id="path-68-inside-23_2264_10877" fill="white">
<path d="M262.182 74.9438H334.485V92.575H262.182V74.9438Z"/>
</mask>
<path d="M334.485 92.575V92.1229H262.182V92.575V93.0271H334.485V92.575Z" fill="#E4E8F0" mask="url(#path-68-inside-23_2264_10877)"/>
<path d="M321.211 85.2176C321.756 85.2176 322.243 84.8759 322.243 84.3062C322.243 83.7493 321.775 83.4265 321.186 83.4265C320.8 83.4265 320.49 83.5214 320.224 83.6607L320.376 81.3252H322.604V81.8379H320.857L320.775 83.0024C320.876 82.9518 321.11 82.9202 321.306 82.9202C322.142 82.9202 322.819 83.4771 322.819 84.2809C322.819 85.2113 322.11 85.7366 321.23 85.743C320.838 85.743 320.464 85.6417 320.104 85.4138V84.7936C320.464 85.0784 320.831 85.2176 321.211 85.2176ZM323.262 85.6733V85.2873L324.883 83.5721C325.256 83.1797 325.37 82.9075 325.37 82.5721C325.37 82.1227 324.977 81.7809 324.471 81.7809C324.072 81.7809 323.661 82.0467 323.313 82.4771V81.8126C323.617 81.4708 324.066 81.2556 324.477 81.2556C325.313 81.2556 325.927 81.7936 325.927 82.5467C325.927 83.0657 325.724 83.4455 325.256 83.9392L324.098 85.1544H325.984V85.6733H323.262ZM330.793 81.3252L327.584 85.6733H326.945L330.154 81.3252H330.793ZM329.103 84.7113C329.103 84.1417 329.565 83.705 330.141 83.705C330.717 83.705 331.179 84.1417 331.179 84.7113C331.179 85.2809 330.717 85.7176 330.141 85.7176C329.565 85.7176 329.103 85.2809 329.103 84.7113ZM326.553 82.2873C326.553 81.7176 327.015 81.2809 327.591 81.2809C328.167 81.2809 328.629 81.7176 328.629 82.2873C328.629 82.8569 328.167 83.2936 327.591 83.2936C327.015 83.2936 326.553 82.8569 326.553 82.2873ZM327.065 82.2873C327.065 82.591 327.3 82.8189 327.591 82.8189C327.882 82.8189 328.116 82.591 328.116 82.2873C328.116 81.9835 327.882 81.7556 327.591 81.7556C327.3 81.7556 327.065 81.9835 327.065 82.2873ZM329.616 84.7113C329.616 85.0151 329.85 85.243 330.141 85.243C330.433 85.243 330.667 85.0151 330.667 84.7113C330.667 84.4075 330.433 84.1797 330.141 84.1797C329.85 84.1797 329.616 84.4075 329.616 84.7113Z" fill="#242B42"/>
<mask id="path-71-inside-24_2264_10877" fill="white">
<path d="M334.484 74.9438H401.001V92.575H334.484V74.9438Z"/>
</mask>
<path d="M401.001 92.575V93.0271H401.453V92.575H401.001ZM401.001 74.9438H400.549V92.575H401.001H401.453V74.9438H401.001ZM401.001 92.575V92.1229H334.484V92.575V93.0271H401.001V92.575Z" fill="#E4E8F0" mask="url(#path-71-inside-24_2264_10877)"/>
<rect width="467" height="17.6312" transform="translate(-66 92.5752)" fill="#F6F9FC"/>
<g filter="url(#filter9_d_2264_10877)">
<mask id="path-73-inside-25_2264_10877" fill="white">
<path d="M-66 92.5752H15.3746V110.206H-66V92.5752Z"/>
</mask>
<path d="M-66 92.5752H15.3746V110.206H-66V92.5752Z" fill="white" fill-opacity="0.01" shape-rendering="crispEdges"/>
<path d="M-66 110.206H-66.4521V110.658H-66V110.206ZM15.3746 110.206V109.754H-66V110.206V110.658H15.3746V110.206ZM-66 110.206H-65.5479V92.5752H-66H-66.4521V110.206H-66Z" fill="#E4E8F0" mask="url(#path-73-inside-25_2264_10877)"/>
</g>
<mask id="path-75-inside-26_2264_10877" fill="white">
<path d="M15.375 92.5752H77.5513V110.206H15.375V92.5752Z"/>
</mask>
<path d="M77.5513 110.206V109.754H15.375V110.206V110.658H77.5513V110.206Z" fill="#E4E8F0" mask="url(#path-75-inside-26_2264_10877)"/>
<path d="M57.4482 101.165C57.4482 98.4183 59.6747 96.1919 62.4211 96.1919H68.9613C71.7077 96.1919 73.9341 98.4183 73.9341 101.165C73.9341 103.911 71.7077 106.138 68.9613 106.138H62.4211C59.6747 106.138 57.4482 103.911 57.4482 101.165Z" fill="#1CA05C" fill-opacity="0.1"/>
<path d="M66.3181 103.531H63.0527V102.795L64.6293 101.232C65.0778 100.798 65.2039 100.574 65.2039 100.251C65.2039 99.866 64.8746 99.5927 64.4121 99.5927C63.9636 99.5927 63.5432 99.8449 63.1648 100.258V99.1582C63.5362 98.8219 64.0197 98.6327 64.4962 98.6327C65.4632 98.6327 66.241 99.2213 66.241 100.139C66.241 100.777 65.9747 101.246 65.3651 101.807L64.5032 102.606H66.3181V103.531ZM66.9281 103.25V102.192C67.3416 102.515 67.762 102.669 68.1824 102.669C68.694 102.669 69.1144 102.417 69.1144 101.94C69.1144 101.485 68.701 101.239 68.1404 101.239C67.755 101.239 67.3836 101.337 67.0403 101.499L67.1804 98.7168H69.8782V99.6137H68.0283L67.9862 100.441C68.0913 100.406 68.2735 100.377 68.4627 100.377C69.4297 100.377 70.1585 100.994 70.1585 101.933C70.1585 102.991 69.3456 103.615 68.2455 103.622C67.769 103.622 67.3276 103.496 66.9281 103.25Z" fill="#1CA05C"/>
<g filter="url(#filter10_d_2264_10877)">
<mask id="path-79-inside-27_2264_10877" fill="white">
<path d="M77.5508 92.5752H141.852V110.206H77.5508V92.5752Z"/>
</mask>
<path d="M77.5508 92.5752H141.852V110.206H77.5508V92.5752Z" fill="white" fill-opacity="0.01" shape-rendering="crispEdges"/>
<path d="M141.852 110.206V109.754H77.5508V110.206V110.658H141.852V110.206Z" fill="#E4E8F0" mask="url(#path-79-inside-27_2264_10877)"/>
<path d="M121.75 101.165C121.75 98.4183 123.976 96.1919 126.723 96.1919H133.263C136.009 96.1919 138.236 98.4183 138.236 101.165C138.236 103.911 136.009 106.138 133.263 106.138H126.723C123.976 106.138 121.75 103.911 121.75 101.165Z" fill="#00C4D7" fill-opacity="0.1"/>
<path d="M130.216 103.531H129.179V99.8379L128.31 100.174V99.1582L129.397 98.7168H130.216V103.531ZM134.399 99.4736L132.465 103.531H131.316L133.215 99.6487H130.987V98.7238H134.399V99.4736Z" fill="#00C4D7"/>
</g>
<mask id="path-83-inside-28_2264_10877" fill="white">
<path d="M141.853 92.5752H200.322V110.206H141.853V92.5752Z"/>
</mask>
<path d="M200.322 110.206V109.754H141.853V110.206V110.658H200.322V110.206Z" fill="#E4E8F0" mask="url(#path-83-inside-28_2264_10877)"/>
<path d="M188.717 99.387L186.9 103.305H186.286L188.065 99.4819H185.9V98.9629H188.717V99.387ZM190.326 102.849C190.871 102.849 191.358 102.507 191.358 101.938C191.358 101.381 190.89 101.058 190.301 101.058C189.915 101.058 189.605 101.153 189.339 101.292L189.491 98.9566H191.719V99.4692H189.972L189.89 100.634C189.991 100.583 190.225 100.552 190.421 100.552C191.257 100.552 191.934 101.108 191.934 101.912C191.934 102.843 191.225 103.368 190.345 103.374C189.953 103.374 189.58 103.273 189.219 103.045V102.425C189.58 102.71 189.947 102.849 190.326 102.849ZM196.63 98.9566L193.421 103.305H192.782L195.991 98.9566H196.63ZM194.94 102.343C194.94 101.773 195.402 101.336 195.978 101.336C196.554 101.336 197.016 101.773 197.016 102.343C197.016 102.912 196.554 103.349 195.978 103.349C195.402 103.349 194.94 102.912 194.94 102.343ZM192.39 99.9186C192.39 99.349 192.852 98.9123 193.428 98.9123C194.004 98.9123 194.466 99.349 194.466 99.9186C194.466 100.488 194.004 100.925 193.428 100.925C192.852 100.925 192.39 100.488 192.39 99.9186ZM192.902 99.9186C192.902 100.222 193.137 100.45 193.428 100.45C193.719 100.45 193.953 100.222 193.953 99.9186C193.953 99.6148 193.719 99.387 193.428 99.387C193.137 99.387 192.902 99.6148 192.902 99.9186ZM195.453 102.343C195.453 102.646 195.687 102.874 195.978 102.874C196.269 102.874 196.504 102.646 196.504 102.343C196.504 102.039 196.269 101.811 195.978 101.811C195.687 101.811 195.453 102.039 195.453 102.343Z" fill="#242B42"/>
<mask id="path-86-inside-29_2264_10877" fill="white">
<path d="M200.32 92.5752H262.18V110.206H200.32V92.5752Z"/>
</mask>
<path d="M262.18 110.206V109.754H200.32V110.206V110.658H262.18V110.206Z" fill="#E4E8F0" mask="url(#path-86-inside-29_2264_10877)"/>
<path d="M246.306 101.165C246.306 98.4183 248.532 96.1919 251.279 96.1919H253.592C256.338 96.1919 258.565 98.4183 258.565 101.165C258.565 103.911 256.338 106.138 253.592 106.138H251.279C248.532 106.138 246.306 103.911 246.306 101.165Z" fill="#DA0014" fill-opacity="0.1"/>
<path d="M251.332 103.25V102.192C251.746 102.515 252.166 102.669 252.587 102.669C253.098 102.669 253.519 102.417 253.519 101.94C253.519 101.485 253.105 101.239 252.545 101.239C252.159 101.239 251.788 101.337 251.445 101.499L251.585 98.7168H254.282V99.6137H252.433L252.391 100.441C252.496 100.406 252.678 100.377 252.867 100.377C253.834 100.377 254.563 100.994 254.563 101.933C254.563 102.991 253.75 103.615 252.65 103.622C252.173 103.622 251.732 103.496 251.332 103.25Z" fill="#DA0014"/>
<mask id="path-90-inside-30_2264_10877" fill="white">
<path d="M262.182 92.5752H334.485V110.206H262.182V92.5752Z"/>
</mask>
<path d="M334.485 110.206V109.754H262.182V110.206V110.658H334.485V110.206Z" fill="#E4E8F0" mask="url(#path-90-inside-30_2264_10877)"/>
<path d="M320.041 102.286V101.862L322.2 98.9629H322.832V101.792H323.44V102.286H322.832V103.305H322.282V102.286H320.041ZM320.7 101.792H322.282V99.6781L320.7 101.792ZM325.037 102.849C325.582 102.849 326.069 102.507 326.069 101.938C326.069 101.381 325.601 101.058 325.012 101.058C324.626 101.058 324.316 101.153 324.05 101.292L324.202 98.9566H326.43V99.4692H324.683L324.601 100.634C324.702 100.583 324.936 100.552 325.132 100.552C325.968 100.552 326.645 101.108 326.645 101.912C326.645 102.843 325.936 103.368 325.056 103.374C324.664 103.374 324.291 103.273 323.93 103.045V102.425C324.291 102.71 324.658 102.849 325.037 102.849ZM331.341 98.9566L328.132 103.305H327.493L330.702 98.9566H331.341ZM329.651 102.343C329.651 101.773 330.113 101.336 330.689 101.336C331.265 101.336 331.727 101.773 331.727 102.343C331.727 102.912 331.265 103.349 330.689 103.349C330.113 103.349 329.651 102.912 329.651 102.343ZM327.101 99.9186C327.101 99.349 327.563 98.9123 328.139 98.9123C328.715 98.9123 329.177 99.349 329.177 99.9186C329.177 100.488 328.715 100.925 328.139 100.925C327.563 100.925 327.101 100.488 327.101 99.9186ZM327.613 99.9186C327.613 100.222 327.847 100.45 328.139 100.45C328.43 100.45 328.664 100.222 328.664 99.9186C328.664 99.6148 328.43 99.387 328.139 99.387C327.847 99.387 327.613 99.6148 327.613 99.9186ZM330.164 102.343C330.164 102.646 330.398 102.874 330.689 102.874C330.98 102.874 331.215 102.646 331.215 102.343C331.215 102.039 330.98 101.811 330.689 101.811C330.398 101.811 330.164 102.039 330.164 102.343Z" fill="#242B42"/>
<mask id="path-93-inside-31_2264_10877" fill="white">
<path d="M334.484 92.5752H401.001V110.206H334.484V92.5752Z"/>
</mask>
<path d="M401.001 110.206V110.658H401.453V110.206H401.001ZM401.001 92.5752H400.549V110.206H401.001H401.453V92.5752H401.001ZM401.001 110.206V109.754H334.484V110.206V110.658H401.001V110.206Z" fill="#E4E8F0" mask="url(#path-93-inside-31_2264_10877)"/>
<rect width="467" height="17.6312" transform="translate(-66 110.207)" fill="#F6F9FC"/>
<g filter="url(#filter11_d_2264_10877)">
<mask id="path-95-inside-32_2264_10877" fill="white">
<path d="M-66 110.207H15.3746V127.838H-66V110.207Z"/>
</mask>
<path d="M-66 110.207H15.3746V127.838H-66V110.207Z" fill="white" fill-opacity="0.01" shape-rendering="crispEdges"/>
<path d="M-66 127.838H-66.4521V128.29H-66V127.838ZM15.3746 127.838V127.386H-66V127.838V128.29H15.3746V127.838ZM-66 127.838H-65.5479V110.207H-66H-66.4521V127.838H-66Z" fill="#E4E8F0" mask="url(#path-95-inside-32_2264_10877)"/>
</g>
<mask id="path-97-inside-33_2264_10877" fill="white">
<path d="M15.375 110.207H77.5513V127.838H15.375V110.207Z"/>
</mask>
<path d="M77.5513 127.838V127.386H15.375V127.838V128.29H77.5513V127.838Z" fill="#E4E8F0" mask="url(#path-97-inside-33_2264_10877)"/>
<path d="M61.6758 118.796C61.6758 116.049 63.9022 113.823 66.6487 113.823H68.9618C71.7083 113.823 73.9347 116.049 73.9347 118.796C73.9347 121.542 71.7083 123.769 68.9618 123.769H66.6487C63.9022 123.769 61.6758 121.542 61.6758 118.796Z" fill="#1CA05C" fill-opacity="0.1"/>
<path d="M69.8918 121.162H66.6264V120.426L68.2031 118.864C68.6515 118.429 68.7777 118.205 68.7777 117.883C68.7777 117.497 68.4483 117.224 67.9859 117.224C67.5374 117.224 67.117 117.476 66.7386 117.89V116.79C67.1099 116.453 67.5935 116.264 68.0699 116.264C69.0369 116.264 69.8148 116.853 69.8148 117.771C69.8148 118.408 69.5485 118.878 68.9388 119.438L68.077 120.237H69.8918V121.162Z" fill="#1CA05C"/>
<g filter="url(#filter12_d_2264_10877)">
<mask id="path-101-inside-34_2264_10877" fill="white">
<path d="M77.5508 110.207H141.852V127.838H77.5508V110.207Z"/>
</mask>
<path d="M77.5508 110.207H141.852V127.838H77.5508V110.207Z" fill="white" fill-opacity="0.01" shape-rendering="crispEdges"/>
<path d="M141.852 127.838V127.386H77.5508V127.838V128.29H141.852V127.838Z" fill="#E4E8F0" mask="url(#path-101-inside-34_2264_10877)"/>
<path d="M121.75 118.796C121.75 116.049 123.976 113.823 126.723 113.823H133.263C136.009 113.823 138.236 116.049 138.236 118.796C138.236 121.542 136.009 123.769 133.263 123.769H126.723C123.976 123.769 121.75 121.542 121.75 118.796Z" fill="#00C4D7" fill-opacity="0.1"/>
<path d="M130.65 119.726C130.65 120.637 129.929 121.253 128.829 121.253C128.359 121.253 127.918 121.134 127.518 120.889V119.838C127.918 120.153 128.324 120.307 128.744 120.307C129.256 120.307 129.613 120.076 129.613 119.67C129.613 119.312 129.277 119.067 128.779 119.067H128.324V118.254H128.758C129.165 118.254 129.445 118.03 129.445 117.736C129.445 117.399 129.116 117.203 128.723 117.203C128.338 117.203 127.988 117.35 127.616 117.651V116.621C127.967 116.383 128.38 116.264 128.808 116.264C129.761 116.264 130.461 116.769 130.461 117.609C130.461 118.058 130.23 118.394 129.866 118.597C130.363 118.801 130.65 119.2 130.65 119.726ZM131.229 120.882V119.824C131.642 120.146 132.063 120.3 132.483 120.3C132.995 120.3 133.415 120.048 133.415 119.571C133.415 119.116 133.002 118.871 132.441 118.871C132.056 118.871 131.684 118.969 131.341 119.13L131.481 116.348H134.179V117.245H132.329L132.287 118.072C132.392 118.037 132.574 118.009 132.764 118.009C133.731 118.009 134.459 118.625 134.459 119.564C134.459 120.623 133.646 121.246 132.546 121.253C132.07 121.253 131.628 121.127 131.229 120.882Z" fill="#00C4D7"/>
</g>
<mask id="path-105-inside-35_2264_10877" fill="white">
<path d="M141.853 110.207H200.322V127.838H141.853V110.207Z"/>
</mask>
<path d="M200.322 127.838V127.386H141.853V127.838V128.29H200.322V127.838Z" fill="#E4E8F0" mask="url(#path-105-inside-35_2264_10877)"/>
<path d="M187.098 120.48C187.636 120.48 188.053 120.157 188.053 119.682C188.053 119.22 187.642 118.904 187.117 118.904H186.705V118.398H187.117C187.515 118.398 187.882 118.081 187.882 117.72C187.882 117.328 187.534 117.037 187.085 117.037C186.718 117.037 186.376 117.208 186.028 117.511V116.891C186.344 116.651 186.718 116.518 187.091 116.518C187.876 116.518 188.433 117.011 188.433 117.67C188.433 118.081 188.212 118.436 187.825 118.619C188.306 118.777 188.617 119.195 188.617 119.689C188.617 120.461 187.971 121.005 187.104 121.005C186.686 121.005 186.294 120.898 185.914 120.663V120.056C186.3 120.341 186.693 120.48 187.098 120.48ZM189.099 120.936V120.549L190.719 118.834C191.093 118.442 191.207 118.17 191.207 117.834C191.207 117.385 190.814 117.043 190.308 117.043C189.909 117.043 189.498 117.309 189.15 117.739V117.075C189.454 116.733 189.903 116.518 190.314 116.518C191.15 116.518 191.764 117.056 191.764 117.809C191.764 118.328 191.561 118.708 191.093 119.201L189.935 120.417H191.821V120.936H189.099ZM196.63 116.587L193.421 120.936H192.782L195.991 116.587H196.63ZM194.94 119.974C194.94 119.404 195.402 118.967 195.978 118.967C196.554 118.967 197.016 119.404 197.016 119.974C197.016 120.543 196.554 120.98 195.978 120.98C195.402 120.98 194.94 120.543 194.94 119.974ZM192.39 117.549C192.39 116.98 192.852 116.543 193.428 116.543C194.004 116.543 194.466 116.98 194.466 117.549C194.466 118.119 194.004 118.556 193.428 118.556C192.852 118.556 192.39 118.119 192.39 117.549ZM192.902 117.549C192.902 117.853 193.137 118.081 193.428 118.081C193.719 118.081 193.953 117.853 193.953 117.549C193.953 117.246 193.719 117.018 193.428 117.018C193.137 117.018 192.902 117.246 192.902 117.549ZM195.453 119.974C195.453 120.277 195.687 120.505 195.978 120.505C196.269 120.505 196.504 120.277 196.504 119.974C196.504 119.67 196.269 119.442 195.978 119.442C195.687 119.442 195.453 119.67 195.453 119.974Z" fill="#242B42"/>
<mask id="path-108-inside-36_2264_10877" fill="white">
<path d="M200.32 110.207H262.18V127.838H200.32V110.207Z"/>
</mask>
<path d="M262.18 127.838V127.386H200.32V127.838V128.29H262.18V127.838Z" fill="#E4E8F0" mask="url(#path-108-inside-36_2264_10877)"/>
<path d="M242.079 118.796C242.079 116.049 244.306 113.823 247.052 113.823H253.592C256.339 113.823 258.565 116.049 258.565 118.796C258.565 121.542 256.339 123.769 253.592 123.769H247.052C244.306 123.769 242.079 121.542 242.079 118.796Z" fill="#DA0014" fill-opacity="0.1"/>
<path d="M250.58 121.162H249.543V117.469L248.674 117.806V116.79L249.76 116.348H250.58V121.162ZM251.462 120.882V119.824C251.876 120.146 252.296 120.3 252.717 120.3C253.228 120.3 253.649 120.048 253.649 119.571C253.649 119.116 253.235 118.871 252.675 118.871C252.289 118.871 251.918 118.969 251.574 119.13L251.715 116.348H254.412V117.245H252.562L252.52 118.072C252.626 118.037 252.808 118.009 252.997 118.009C253.964 118.009 254.693 118.625 254.693 119.564C254.693 120.623 253.88 121.246 252.78 121.253C252.303 121.253 251.862 121.127 251.462 120.882Z" fill="#DA0014"/>
<mask id="path-112-inside-37_2264_10877" fill="white">
<path d="M262.182 110.207H334.485V127.838H262.182V110.207Z"/>
</mask>
<path d="M334.485 127.838V127.386H262.182V127.838V128.29H334.485V127.838Z" fill="#E4E8F0" mask="url(#path-112-inside-37_2264_10877)"/>
<path d="M321.211 120.48C321.756 120.48 322.243 120.138 322.243 119.568C322.243 119.011 321.775 118.689 321.186 118.689C320.8 118.689 320.49 118.784 320.224 118.923L320.376 116.587H322.604V117.1H320.857L320.775 118.265C320.876 118.214 321.11 118.182 321.306 118.182C322.142 118.182 322.819 118.739 322.819 119.543C322.819 120.474 322.11 120.999 321.23 121.005C320.838 121.005 320.464 120.904 320.104 120.676V120.056C320.464 120.341 320.831 120.48 321.211 120.48ZM323.262 120.936V120.549L324.883 118.834C325.256 118.442 325.37 118.17 325.37 117.834C325.37 117.385 324.977 117.043 324.471 117.043C324.072 117.043 323.661 117.309 323.313 117.739V117.075C323.617 116.733 324.066 116.518 324.477 116.518C325.313 116.518 325.927 117.056 325.927 117.809C325.927 118.328 325.724 118.708 325.256 119.201L324.098 120.417H325.984V120.936H323.262ZM330.793 116.587L327.584 120.936H326.945L330.154 116.587H330.793ZM329.103 119.974C329.103 119.404 329.565 118.967 330.141 118.967C330.717 118.967 331.179 119.404 331.179 119.974C331.179 120.543 330.717 120.98 330.141 120.98C329.565 120.98 329.103 120.543 329.103 119.974ZM326.553 117.549C326.553 116.98 327.015 116.543 327.591 116.543C328.167 116.543 328.629 116.98 328.629 117.549C328.629 118.119 328.167 118.556 327.591 118.556C327.015 118.556 326.553 118.119 326.553 117.549ZM327.065 117.549C327.065 117.853 327.3 118.081 327.591 118.081C327.882 118.081 328.116 117.853 328.116 117.549C328.116 117.246 327.882 117.018 327.591 117.018C327.3 117.018 327.065 117.246 327.065 117.549ZM329.616 119.974C329.616 120.277 329.85 120.505 330.141 120.505C330.433 120.505 330.667 120.277 330.667 119.974C330.667 119.67 330.433 119.442 330.141 119.442C329.85 119.442 329.616 119.67 329.616 119.974Z" fill="#242B42"/>
<mask id="path-115-inside-38_2264_10877" fill="white">
<path d="M334.484 110.207H401.001V127.838H334.484V110.207Z"/>
</mask>
<path d="M401.001 127.838V128.29H401.453V127.838H401.001ZM401.001 110.207H400.549V127.838H401.001H401.453V110.207H401.001ZM401.001 127.838V127.386H334.484V127.838V128.29H401.001V127.838Z" fill="#E4E8F0" mask="url(#path-115-inside-38_2264_10877)"/>
<rect width="467" height="17.6312" transform="translate(-66 127.837)" fill="white"/>
<g filter="url(#filter13_d_2264_10877)">
<mask id="path-117-inside-39_2264_10877" fill="white">
<path d="M-66 127.837H15.3746V145.469H-66V127.837Z"/>
</mask>
<path d="M-66 127.837H15.3746V145.469H-66V127.837Z" fill="white" fill-opacity="0.01" shape-rendering="crispEdges"/>
<path d="M-66 145.469H-66.4521V145.921H-66V145.469ZM15.3746 145.469V145.016H-66V145.469V145.921H15.3746V145.469ZM-66 145.469H-65.5479V127.837H-66H-66.4521V145.469H-66Z" fill="#E4E8F0" mask="url(#path-117-inside-39_2264_10877)"/>
</g>
<mask id="path-119-inside-40_2264_10877" fill="white">
<path d="M15.375 127.837H77.5513V145.469H15.375V127.837Z"/>
</mask>
<path d="M77.5513 145.469V145.016H15.375V145.469V145.921H77.5513V145.469Z" fill="#E4E8F0" mask="url(#path-119-inside-40_2264_10877)"/>
<path d="M57.4482 136.427C57.4482 133.681 59.6747 131.454 62.4211 131.454H68.9613C71.7077 131.454 73.9341 133.681 73.9341 136.427C73.9341 139.173 71.7077 141.4 68.9613 141.4H62.4211C59.6747 141.4 57.4482 139.173 57.4482 136.427Z" fill="#1CA05C" fill-opacity="0.1"/>
<path d="M65.1076 138.793H64.0706V135.101L63.2017 135.437V134.421L64.2878 133.979H65.1076V138.793ZM69.585 137.112C69.585 138.121 68.7931 138.885 67.7561 138.885C66.712 138.885 65.9272 138.135 65.9272 137.126C65.9272 136.691 66.0953 136.201 66.4107 135.71L67.5248 133.979H68.7161L67.6369 135.542C67.7491 135.493 67.8892 135.479 67.9873 135.479C68.9123 135.479 69.585 136.208 69.585 137.112ZM68.5689 137.147C68.5689 136.698 68.2045 136.348 67.7561 136.348C67.3006 136.348 66.9432 136.698 66.9432 137.14C66.9432 137.588 67.2936 137.946 67.7491 137.946C68.2045 137.946 68.5689 137.588 68.5689 137.147Z" fill="#1CA05C"/>
<g filter="url(#filter14_d_2264_10877)">
<mask id="path-123-inside-41_2264_10877" fill="white">
<path d="M77.5508 127.837H141.852V145.469H77.5508V127.837Z"/>
</mask>
<path d="M77.5508 127.837H141.852V145.469H77.5508V127.837Z" fill="white" fill-opacity="0.01" shape-rendering="crispEdges"/>
<path d="M141.852 145.469V145.016H77.5508V145.469V145.921H141.852V145.469Z" fill="#E4E8F0" mask="url(#path-123-inside-41_2264_10877)"/>
<path d="M121.75 136.427C121.75 133.681 123.976 131.454 126.723 131.454H133.263C136.009 131.454 138.236 133.681 138.236 136.427C138.236 139.173 136.009 141.4 133.263 141.4H126.723C123.976 141.4 121.75 139.173 121.75 136.427Z" fill="#00C4D7" fill-opacity="0.1"/>
<path d="M129.757 138.793H126.491V138.058L128.068 136.495C128.516 136.061 128.642 135.836 128.642 135.514C128.642 135.129 128.313 134.855 127.851 134.855C127.402 134.855 126.982 135.108 126.603 135.521V134.421C126.975 134.085 127.458 133.895 127.935 133.895C128.902 133.895 129.679 134.484 129.679 135.402C129.679 136.04 129.413 136.509 128.804 137.07L127.942 137.868H129.757V138.793ZM130.339 136.39C130.339 135.08 131.039 133.895 132.399 133.895C133.758 133.895 134.459 135.08 134.459 136.39C134.459 137.7 133.758 138.885 132.399 138.885C131.039 138.885 130.339 137.7 130.339 136.39ZM133.415 136.39C133.415 135.619 133.106 134.869 132.399 134.869C131.691 134.869 131.383 135.619 131.383 136.39C131.383 137.161 131.691 137.911 132.399 137.911C133.106 137.911 133.415 137.161 133.415 136.39Z" fill="#00C4D7"/>
</g>
<mask id="path-127-inside-42_2264_10877" fill="white">
<path d="M141.853 127.837H200.322V145.469H141.853V127.837Z"/>
</mask>
<path d="M200.322 145.469V145.016H141.853V145.469V145.921H200.322V145.469Z" fill="#E4E8F0" mask="url(#path-127-inside-42_2264_10877)"/>
<path d="M189.623 138.567H189.066V134.845L188.282 135.168V134.599L189.168 134.219H189.623V138.567ZM191.801 138.567H191.244V134.845L190.46 135.168V134.599L191.346 134.219H191.801V138.567ZM196.891 134.219L193.682 138.567H193.043L196.252 134.219H196.891ZM195.201 137.605C195.201 137.035 195.663 136.599 196.239 136.599C196.815 136.599 197.277 137.035 197.277 137.605C197.277 138.174 196.815 138.611 196.239 138.611C195.663 138.611 195.201 138.174 195.201 137.605ZM192.65 135.181C192.65 134.611 193.112 134.174 193.688 134.174C194.264 134.174 194.726 134.611 194.726 135.181C194.726 135.75 194.264 136.187 193.688 136.187C193.112 136.187 192.65 135.75 192.65 135.181ZM193.163 135.181C193.163 135.485 193.397 135.712 193.688 135.712C193.98 135.712 194.214 135.485 194.214 135.181C194.214 134.877 193.98 134.649 193.688 134.649C193.397 134.649 193.163 134.877 193.163 135.181ZM195.714 137.605C195.714 137.909 195.948 138.137 196.239 138.137C196.53 138.137 196.764 137.909 196.764 137.605C196.764 137.301 196.53 137.073 196.239 137.073C195.948 137.073 195.714 137.301 195.714 137.605Z" fill="#242B42"/>
<mask id="path-130-inside-43_2264_10877" fill="white">
<path d="M200.32 127.837H262.18V145.469H200.32V127.837Z"/>
</mask>
<path d="M262.18 145.469V145.016H200.32V145.469V145.921H262.18V145.469Z" fill="#E4E8F0" mask="url(#path-130-inside-43_2264_10877)"/>
<path d="M242.079 136.427C242.079 133.681 244.306 131.454 247.052 131.454H253.592C256.339 131.454 258.565 133.681 258.565 136.427C258.565 139.173 256.339 141.4 253.592 141.4H247.052C244.306 141.4 242.079 139.173 242.079 136.427Z" fill="#DA0014" fill-opacity="0.1"/>
<path d="M251.155 138.793H250.118V135.101L249.249 135.437V134.421L250.335 133.979H251.155V138.793ZM255.114 137.357C255.114 138.268 254.392 138.885 253.292 138.885C252.822 138.885 252.381 138.765 251.982 138.52V137.469C252.381 137.784 252.787 137.939 253.208 137.939C253.719 137.939 254.077 137.707 254.077 137.301C254.077 136.944 253.74 136.698 253.243 136.698H252.787V135.885H253.222C253.628 135.885 253.909 135.661 253.909 135.367C253.909 135.031 253.579 134.834 253.187 134.834C252.801 134.834 252.451 134.982 252.08 135.283V134.253C252.43 134.015 252.843 133.895 253.271 133.895C254.224 133.895 254.925 134.4 254.925 135.241C254.925 135.689 254.693 136.026 254.329 136.229C254.827 136.432 255.114 136.831 255.114 137.357Z" fill="#DA0014"/>
<mask id="path-134-inside-44_2264_10877" fill="white">
<path d="M262.182 127.837H334.485V145.469H262.182V127.837Z"/>
</mask>
<path d="M334.485 145.469V145.016H262.182V145.469V145.921H334.485V145.469Z" fill="#E4E8F0" mask="url(#path-134-inside-44_2264_10877)"/>
<path d="M320.066 137.548V137.124L322.224 134.225H322.857V137.054H323.465V137.548H322.857V138.567H322.307V137.548H320.066ZM320.724 137.054H322.307V134.94L320.724 137.054ZM326.638 134.649L324.822 138.567H324.208L325.986 134.744H323.822V134.225H326.638V134.649ZM331.341 134.219L328.132 138.567H327.493L330.702 134.219H331.341ZM329.651 137.605C329.651 137.035 330.113 136.599 330.689 136.599C331.265 136.599 331.727 137.035 331.727 137.605C331.727 138.174 331.265 138.611 330.689 138.611C330.113 138.611 329.651 138.174 329.651 137.605ZM327.101 135.181C327.101 134.611 327.563 134.174 328.139 134.174C328.715 134.174 329.177 134.611 329.177 135.181C329.177 135.75 328.715 136.187 328.139 136.187C327.563 136.187 327.101 135.75 327.101 135.181ZM327.613 135.181C327.613 135.485 327.847 135.712 328.139 135.712C328.43 135.712 328.664 135.485 328.664 135.181C328.664 134.877 328.43 134.649 328.139 134.649C327.847 134.649 327.613 134.877 327.613 135.181ZM330.164 137.605C330.164 137.909 330.398 138.137 330.689 138.137C330.98 138.137 331.215 137.909 331.215 137.605C331.215 137.301 330.98 137.073 330.689 137.073C330.398 137.073 330.164 137.301 330.164 137.605Z" fill="#242B42"/>
<mask id="path-137-inside-45_2264_10877" fill="white">
<path d="M334.484 127.837H401.001V145.469H334.484V127.837Z"/>
</mask>
<path d="M401.001 145.469V145.921H401.453V145.469H401.001ZM401.001 127.837H400.549V145.469H401.001H401.453V127.837H401.001ZM401.001 145.469V145.016H334.484V145.469V145.921H401.001V145.469Z" fill="#E4E8F0" mask="url(#path-137-inside-45_2264_10877)"/>
<rect width="467" height="17.6312" transform="translate(-66 145.469)" fill="white"/>
<g filter="url(#filter15_d_2264_10877)">
<mask id="path-139-inside-46_2264_10877" fill="white">
<path d="M-66 145.469H15.3746V163.1H-66V145.469Z"/>
</mask>
<path d="M-66 145.469H15.3746V163.1H-66V145.469Z" fill="white" fill-opacity="0.01" shape-rendering="crispEdges"/>
<path d="M-66 163.1H-66.4521V163.552H-66V163.1ZM15.3746 163.1V162.648H-66V163.1V163.552H15.3746V163.1ZM-66 163.1H-65.5479V145.469H-66H-66.4521V163.1H-66Z" fill="#E4E8F0" mask="url(#path-139-inside-46_2264_10877)"/>
</g>
<mask id="path-141-inside-47_2264_10877" fill="white">
<path d="M15.375 145.469H77.5513V163.1H15.375V145.469Z"/>
</mask>
<path d="M77.5513 163.1V162.648H15.375V163.1V163.552H77.5513V163.1Z" fill="#E4E8F0" mask="url(#path-141-inside-47_2264_10877)"/>
<path d="M57.4482 154.058C57.4482 151.312 59.6747 149.085 62.4211 149.085H68.9613C71.7077 149.085 73.9341 151.312 73.9341 154.058C73.9341 156.805 71.7077 159.031 68.9613 159.031H62.4211C59.6747 159.031 57.4482 156.805 57.4482 154.058Z" fill="#1CA05C" fill-opacity="0.1"/>
<path d="M65.4548 156.424H62.1894V155.688L63.766 154.125C64.2145 153.691 64.3406 153.467 64.3406 153.144C64.3406 152.759 64.0113 152.486 63.5488 152.486C63.1003 152.486 62.6799 152.738 62.3015 153.151V152.051C62.6729 151.715 63.1564 151.526 63.6329 151.526C64.5999 151.526 65.3777 152.114 65.3777 153.032C65.3777 153.67 65.1114 154.139 64.5018 154.7L63.6399 155.499H65.4548V156.424ZM66.0368 154.02C66.0368 152.71 66.7375 151.526 68.0969 151.526C69.4564 151.526 70.1571 152.71 70.1571 154.02C70.1571 155.331 69.4564 156.515 68.0969 156.515C66.7375 156.515 66.0368 155.331 66.0368 154.02ZM69.113 154.02C69.113 153.25 68.8047 152.5 68.0969 152.5C67.3892 152.5 67.0809 153.25 67.0809 154.02C67.0809 154.791 67.3892 155.541 68.0969 155.541C68.8047 155.541 69.113 154.791 69.113 154.02Z" fill="#1CA05C"/>
<g filter="url(#filter16_d_2264_10877)">
<mask id="path-145-inside-48_2264_10877" fill="white">
<path d="M77.5508 145.469H141.852V163.1H77.5508V145.469Z"/>
</mask>
<path d="M77.5508 145.469H141.852V163.1H77.5508V145.469Z" fill="white" fill-opacity="0.01" shape-rendering="crispEdges"/>
<path d="M141.852 163.1V162.648H77.5508V163.1V163.552H141.852V163.1Z" fill="#E4E8F0" mask="url(#path-145-inside-48_2264_10877)"/>
<path d="M121.75 154.058C121.75 151.312 123.976 149.085 126.723 149.085H133.263C136.009 149.085 138.236 151.312 138.236 154.058C138.236 156.805 136.009 159.031 133.263 159.031H126.723C123.976 159.031 121.75 156.805 121.75 154.058Z" fill="#00C4D7" fill-opacity="0.1"/>
<path d="M127.378 155.436V154.721L129.452 151.617H130.699V154.574H131.372V155.436H130.699V156.424H129.711V155.436H127.378ZM128.492 154.574H129.718V152.717L128.492 154.574ZM133.597 156.424H132.56V152.731L131.691 153.067V152.051L132.777 151.61H133.597V156.424Z" fill="#00C4D7"/>
</g>
<mask id="path-149-inside-49_2264_10877" fill="white">
<path d="M141.853 145.469H200.322V163.1H141.853V145.469Z"/>
</mask>
<path d="M200.322 163.1V162.648H141.853V163.1V163.552H200.322V163.1Z" fill="#E4E8F0" mask="url(#path-149-inside-49_2264_10877)"/>
<path d="M186.01 153.318C186.01 152.458 186.7 151.781 187.58 151.781C188.485 151.781 189.156 152.445 189.156 153.325C189.156 153.692 189.023 154.097 188.668 154.629L187.631 156.198H186.96L187.998 154.66C187.871 154.736 187.706 154.787 187.479 154.787C186.637 154.787 186.01 154.129 186.01 153.318ZM186.574 153.293C186.574 153.863 187.023 154.287 187.58 154.287C188.149 154.287 188.593 153.863 188.593 153.299C188.593 152.749 188.156 152.306 187.586 152.306C187.023 152.306 186.574 152.749 186.574 153.293ZM190.874 155.743C191.419 155.743 191.906 155.401 191.906 154.831C191.906 154.274 191.438 153.951 190.849 153.951C190.463 153.951 190.153 154.046 189.887 154.186L190.039 151.85H192.267V152.363H190.52L190.438 153.527C190.539 153.477 190.773 153.445 190.969 153.445C191.805 153.445 192.482 154.002 192.482 154.806C192.482 155.736 191.773 156.262 190.893 156.268C190.501 156.268 190.127 156.167 189.767 155.939V155.318C190.127 155.603 190.495 155.743 190.874 155.743ZM197.178 151.85L193.969 156.198H193.33L196.539 151.85H197.178ZM195.488 155.236C195.488 154.667 195.95 154.23 196.526 154.23C197.102 154.23 197.564 154.667 197.564 155.236C197.564 155.806 197.102 156.243 196.526 156.243C195.95 156.243 195.488 155.806 195.488 155.236ZM192.938 152.812C192.938 152.243 193.4 151.806 193.976 151.806C194.551 151.806 195.014 152.243 195.014 152.812C195.014 153.382 194.551 153.818 193.976 153.818C193.4 153.818 192.938 153.382 192.938 152.812ZM193.45 152.812C193.45 153.116 193.684 153.344 193.976 153.344C194.267 153.344 194.501 153.116 194.501 152.812C194.501 152.508 194.267 152.281 193.976 152.281C193.684 152.281 193.45 152.508 193.45 152.812ZM196.001 155.236C196.001 155.54 196.235 155.768 196.526 155.768C196.817 155.768 197.051 155.54 197.051 155.236C197.051 154.932 196.817 154.705 196.526 154.705C196.235 154.705 196.001 154.932 196.001 155.236Z" fill="#242B42"/>
<mask id="path-152-inside-50_2264_10877" fill="white">
<path d="M200.32 145.469H262.18V163.1H200.32V145.469Z"/>
</mask>
<path d="M262.18 163.1V162.648H200.32V163.1V163.552H262.18V163.1Z" fill="#E4E8F0" mask="url(#path-152-inside-50_2264_10877)"/>
<path d="M242.079 154.058C242.079 151.312 244.306 149.085 247.052 149.085H253.592C256.339 149.085 258.565 151.312 258.565 154.058C258.565 156.805 256.339 159.031 253.592 159.031H247.052C244.306 159.031 242.079 156.805 242.079 154.058Z" fill="#DA0014" fill-opacity="0.1"/>
<path d="M250.173 156.424H246.908V155.688L248.484 154.125C248.933 153.691 249.059 153.467 249.059 153.144C249.059 152.759 248.73 152.486 248.267 152.486C247.819 152.486 247.398 152.738 247.02 153.151V152.051C247.391 151.715 247.875 151.526 248.351 151.526C249.318 151.526 250.096 152.114 250.096 153.032C250.096 153.67 249.83 154.139 249.22 154.7L248.358 155.499H250.173V156.424ZM254.31 154.742C254.31 155.751 253.518 156.515 252.481 156.515C251.437 156.515 250.652 155.765 250.652 154.756C250.652 154.322 250.82 153.831 251.135 153.341L252.249 151.61H253.441L252.362 153.172C252.474 153.123 252.614 153.109 252.712 153.109C253.637 153.109 254.31 153.838 254.31 154.742ZM253.294 154.777C253.294 154.329 252.929 153.978 252.481 153.978C252.025 153.978 251.668 154.329 251.668 154.77C251.668 155.219 252.018 155.576 252.474 155.576C252.929 155.576 253.294 155.219 253.294 154.777Z" fill="#DA0014"/>
<mask id="path-156-inside-51_2264_10877" fill="white">
<path d="M262.182 145.469H334.485V163.1H262.182V145.469Z"/>
</mask>
<path d="M334.485 163.1V162.648H262.182V163.1V163.552H334.485V163.1Z" fill="#E4E8F0" mask="url(#path-156-inside-51_2264_10877)"/>
<path d="M320.865 151.781C321.574 151.781 322.194 152.23 322.194 152.926C322.194 153.401 321.896 153.743 321.567 153.863C321.928 153.989 322.365 154.35 322.365 154.964C322.365 155.774 321.643 156.268 320.865 156.268C320.086 156.268 319.365 155.774 319.365 154.964C319.365 154.35 319.802 153.989 320.162 153.863C319.833 153.743 319.536 153.401 319.536 152.926C319.536 152.23 320.156 151.781 320.865 151.781ZM321.808 154.939C321.808 154.458 321.384 154.135 320.865 154.135C320.346 154.135 319.922 154.458 319.922 154.939C319.922 155.426 320.358 155.749 320.865 155.749C321.371 155.749 321.808 155.426 321.808 154.939ZM320.865 152.293C320.453 152.293 320.08 152.559 320.08 152.964C320.08 153.369 320.453 153.635 320.865 153.635C321.276 153.635 321.65 153.369 321.65 152.964C321.65 152.559 321.276 152.293 320.865 152.293ZM324.056 155.743C324.594 155.743 325.012 155.42 325.012 154.945C325.012 154.483 324.6 154.167 324.075 154.167H323.664V153.66H324.075C324.474 153.66 324.841 153.344 324.841 152.983C324.841 152.591 324.493 152.299 324.043 152.299C323.676 152.299 323.334 152.47 322.986 152.774V152.154C323.303 151.913 323.676 151.781 324.05 151.781C324.834 151.781 325.391 152.274 325.391 152.932C325.391 153.344 325.17 153.698 324.784 153.882C325.265 154.04 325.575 154.458 325.575 154.951C325.575 155.724 324.929 156.268 324.062 156.268C323.645 156.268 323.252 156.16 322.872 155.926V155.318C323.258 155.603 323.651 155.743 324.056 155.743ZM330.341 151.85L327.132 156.198H326.493L329.702 151.85H330.341ZM328.651 155.236C328.651 154.667 329.113 154.23 329.689 154.23C330.265 154.23 330.727 154.667 330.727 155.236C330.727 155.806 330.265 156.243 329.689 156.243C329.113 156.243 328.651 155.806 328.651 155.236ZM326.101 152.812C326.101 152.243 326.563 151.806 327.139 151.806C327.715 151.806 328.177 152.243 328.177 152.812C328.177 153.382 327.715 153.818 327.139 153.818C326.563 153.818 326.101 153.382 326.101 152.812ZM326.613 152.812C326.613 153.116 326.847 153.344 327.139 153.344C327.43 153.344 327.664 153.116 327.664 152.812C327.664 152.508 327.43 152.281 327.139 152.281C326.847 152.281 326.613 152.508 326.613 152.812ZM329.164 155.236C329.164 155.54 329.398 155.768 329.689 155.768C329.98 155.768 330.215 155.54 330.215 155.236C330.215 154.932 329.98 154.705 329.689 154.705C329.398 154.705 329.164 154.932 329.164 155.236Z" fill="#242B42"/>
<mask id="path-159-inside-52_2264_10877" fill="white">
<path d="M334.484 145.469H401.001V163.1H334.484V145.469Z"/>
</mask>
<path d="M401.001 163.1V163.552H401.453V163.1H401.001ZM401.001 145.469H400.549V163.1H401.001H401.453V145.469H401.001ZM401.001 163.1V162.648H334.484V163.1V163.552H401.001V163.1Z" fill="#E4E8F0" mask="url(#path-159-inside-52_2264_10877)"/>
</g>
</g>
<defs>
<filter id="filter0_d_2264_10877" x="-76" y="11.0771" width="487.001" height="201.285" filterUnits="userSpaceOnUse" color-interpolation-filters="sRGB">
<feFlood flood-opacity="0" result="BackgroundImageFix"/>
<feColorMatrix in="SourceAlpha" type="matrix" values="0 0 0 0 0 0 0 0 0 0 0 0 0 0 0 0 0 0 127 0" result="hardAlpha"/>
<feOffset dy="4"/>
<feGaussianBlur stdDeviation="5"/>
<feColorMatrix type="matrix" values="0 0 0 0 0.235294 0 0 0 0 0.415686 0 0 0 0 0.67451 0 0 0 0.16 0"/>
<feBlend mode="normal" in2="BackgroundImageFix" result="effect1_dropShadow_2264_10877"/>
<feBlend mode="normal" in="SourceGraphic" in2="effect1_dropShadow_2264_10877" result="shape"/>
</filter>
<filter id="filter1_d_2264_10877" x="-66" y="17.0771" width="81.8271" height="16.2749" filterUnits="userSpaceOnUse" color-interpolation-filters="sRGB">
<feFlood flood-opacity="0" result="BackgroundImageFix"/>
<feColorMatrix in="SourceAlpha" type="matrix" values="0 0 0 0 0 0 0 0 0 0 0 0 0 0 0 0 0 0 127 0" result="hardAlpha"/>
<feOffset dx="0.452081"/>
<feComposite in2="hardAlpha" operator="out"/>
<feColorMatrix type="matrix" values="0 0 0 0 0.894118 0 0 0 0 0.909804 0 0 0 0 0.941176 0 0 0 1 0"/>
<feBlend mode="normal" in2="BackgroundImageFix" result="effect1_dropShadow_2264_10877"/>
<feBlend mode="normal" in="SourceGraphic" in2="effect1_dropShadow_2264_10877" result="shape"/>
</filter>
<filter id="filter2_d_2264_10877" x="15.375" y="17.0771" width="126.93" height="16.2749" filterUnits="userSpaceOnUse" color-interpolation-filters="sRGB">
<feFlood flood-opacity="0" result="BackgroundImageFix"/>
<feColorMatrix in="SourceAlpha" type="matrix" values="0 0 0 0 0 0 0 0 0 0 0 0 0 0 0 0 0 0 127 0" result="hardAlpha"/>
<feOffset dx="0.452081"/>
<feComposite in2="hardAlpha" operator="out"/>
<feColorMatrix type="matrix" values="0 0 0 0 0.894118 0 0 0 0 0.909804 0 0 0 0 0.941176 0 0 0 1 0"/>
<feBlend mode="normal" in2="BackgroundImageFix" result="effect1_dropShadow_2264_10877"/>
<feBlend mode="normal" in="SourceGraphic" in2="effect1_dropShadow_2264_10877" result="shape"/>
</filter>
<filter id="filter3_d_2264_10877" x="-66" y="33.3525" width="81.8271" height="23.9604" filterUnits="userSpaceOnUse" color-interpolation-filters="sRGB">
<feFlood flood-opacity="0" result="BackgroundImageFix"/>
<feColorMatrix in="SourceAlpha" type="matrix" values="0 0 0 0 0 0 0 0 0 0 0 0 0 0 0 0 0 0 127 0" result="hardAlpha"/>
<feOffset dx="0.452081"/>
<feComposite in2="hardAlpha" operator="out"/>
<feColorMatrix type="matrix" values="0 0 0 0 0.894118 0 0 0 0 0.909804 0 0 0 0 0.941176 0 0 0 1 0"/>
<feBlend mode="normal" in2="BackgroundImageFix" result="effect1_dropShadow_2264_10877"/>
<feBlend mode="normal" in="SourceGraphic" in2="effect1_dropShadow_2264_10877" result="shape"/>
</filter>
<filter id="filter4_d_2264_10877" x="77.5508" y="33.3525" width="64.7529" height="23.9604" filterUnits="userSpaceOnUse" color-interpolation-filters="sRGB">
<feFlood flood-opacity="0" result="BackgroundImageFix"/>
<feColorMatrix in="SourceAlpha" type="matrix" values="0 0 0 0 0 0 0 0 0 0 0 0 0 0 0 0 0 0 127 0" result="hardAlpha"/>
<feOffset dx="0.452081"/>
<feComposite in2="hardAlpha" operator="out"/>
<feColorMatrix type="matrix" values="0 0 0 0 0.894118 0 0 0 0 0.909804 0 0 0 0 0.941176 0 0 0 1 0"/>
<feBlend mode="normal" in2="BackgroundImageFix" result="effect1_dropShadow_2264_10877"/>
<feBlend mode="normal" in="SourceGraphic" in2="effect1_dropShadow_2264_10877" result="shape"/>
</filter>
<filter id="filter5_d_2264_10877" x="-66" y="57.313" width="81.8271" height="17.6313" filterUnits="userSpaceOnUse" color-interpolation-filters="sRGB">
<feFlood flood-opacity="0" result="BackgroundImageFix"/>
<feColorMatrix in="SourceAlpha" type="matrix" values="0 0 0 0 0 0 0 0 0 0 0 0 0 0 0 0 0 0 127 0" result="hardAlpha"/>
<feOffset dx="0.452081"/>
<feComposite in2="hardAlpha" operator="out"/>
<feColorMatrix type="matrix" values="0 0 0 0 0.894118 0 0 0 0 0.909804 0 0 0 0 0.941176 0 0 0 1 0"/>
<feBlend mode="normal" in2="BackgroundImageFix" result="effect1_dropShadow_2264_10877"/>
<feBlend mode="normal" in="SourceGraphic" in2="effect1_dropShadow_2264_10877" result="shape"/>
</filter>
<filter id="filter6_d_2264_10877" x="77.5508" y="57.313" width="64.7529" height="17.6313" filterUnits="userSpaceOnUse" color-interpolation-filters="sRGB">
<feFlood flood-opacity="0" result="BackgroundImageFix"/>
<feColorMatrix in="SourceAlpha" type="matrix" values="0 0 0 0 0 0 0 0 0 0 0 0 0 0 0 0 0 0 127 0" result="hardAlpha"/>
<feOffset dx="0.452081"/>
<feComposite in2="hardAlpha" operator="out"/>
<feColorMatrix type="matrix" values="0 0 0 0 0.894118 0 0 0 0 0.909804 0 0 0 0 0.941176 0 0 0 1 0"/>
<feBlend mode="normal" in2="BackgroundImageFix" result="effect1_dropShadow_2264_10877"/>
<feBlend mode="normal" in="SourceGraphic" in2="effect1_dropShadow_2264_10877" result="shape"/>
</filter>
<filter id="filter7_d_2264_10877" x="-66" y="74.9438" width="81.8271" height="17.6313" filterUnits="userSpaceOnUse" color-interpolation-filters="sRGB">
<feFlood flood-opacity="0" result="BackgroundImageFix"/>
<feColorMatrix in="SourceAlpha" type="matrix" values="0 0 0 0 0 0 0 0 0 0 0 0 0 0 0 0 0 0 127 0" result="hardAlpha"/>
<feOffset dx="0.452081"/>
<feComposite in2="hardAlpha" operator="out"/>
<feColorMatrix type="matrix" values="0 0 0 0 0.894118 0 0 0 0 0.909804 0 0 0 0 0.941176 0 0 0 1 0"/>
<feBlend mode="normal" in2="BackgroundImageFix" result="effect1_dropShadow_2264_10877"/>
<feBlend mode="normal" in="SourceGraphic" in2="effect1_dropShadow_2264_10877" result="shape"/>
</filter>
<filter id="filter8_d_2264_10877" x="77.5508" y="74.9438" width="64.7529" height="17.6313" filterUnits="userSpaceOnUse" color-interpolation-filters="sRGB">
<feFlood flood-opacity="0" result="BackgroundImageFix"/>
<feColorMatrix in="SourceAlpha" type="matrix" values="0 0 0 0 0 0 0 0 0 0 0 0 0 0 0 0 0 0 127 0" result="hardAlpha"/>
<feOffset dx="0.452081"/>
<feComposite in2="hardAlpha" operator="out"/>
<feColorMatrix type="matrix" values="0 0 0 0 0.894118 0 0 0 0 0.909804 0 0 0 0 0.941176 0 0 0 1 0"/>
<feBlend mode="normal" in2="BackgroundImageFix" result="effect1_dropShadow_2264_10877"/>
<feBlend mode="normal" in="SourceGraphic" in2="effect1_dropShadow_2264_10877" result="shape"/>
</filter>
<filter id="filter9_d_2264_10877" x="-66" y="92.5752" width="81.8271" height="17.6313" filterUnits="userSpaceOnUse" color-interpolation-filters="sRGB">
<feFlood flood-opacity="0" result="BackgroundImageFix"/>
<feColorMatrix in="SourceAlpha" type="matrix" values="0 0 0 0 0 0 0 0 0 0 0 0 0 0 0 0 0 0 127 0" result="hardAlpha"/>
<feOffset dx="0.452081"/>
<feComposite in2="hardAlpha" operator="out"/>
<feColorMatrix type="matrix" values="0 0 0 0 0.894118 0 0 0 0 0.909804 0 0 0 0 0.941176 0 0 0 1 0"/>
<feBlend mode="normal" in2="BackgroundImageFix" result="effect1_dropShadow_2264_10877"/>
<feBlend mode="normal" in="SourceGraphic" in2="effect1_dropShadow_2264_10877" result="shape"/>
</filter>
<filter id="filter10_d_2264_10877" x="77.5508" y="92.5752" width="64.7529" height="17.6313" filterUnits="userSpaceOnUse" color-interpolation-filters="sRGB">
<feFlood flood-opacity="0" result="BackgroundImageFix"/>
<feColorMatrix in="SourceAlpha" type="matrix" values="0 0 0 0 0 0 0 0 0 0 0 0 0 0 0 0 0 0 127 0" result="hardAlpha"/>
<feOffset dx="0.452081"/>
<feComposite in2="hardAlpha" operator="out"/>
<feColorMatrix type="matrix" values="0 0 0 0 0.894118 0 0 0 0 0.909804 0 0 0 0 0.941176 0 0 0 1 0"/>
<feBlend mode="normal" in2="BackgroundImageFix" result="effect1_dropShadow_2264_10877"/>
<feBlend mode="normal" in="SourceGraphic" in2="effect1_dropShadow_2264_10877" result="shape"/>
</filter>
<filter id="filter11_d_2264_10877" x="-66" y="110.207" width="81.8271" height="17.6313" filterUnits="userSpaceOnUse" color-interpolation-filters="sRGB">
<feFlood flood-opacity="0" result="BackgroundImageFix"/>
<feColorMatrix in="SourceAlpha" type="matrix" values="0 0 0 0 0 0 0 0 0 0 0 0 0 0 0 0 0 0 127 0" result="hardAlpha"/>
<feOffset dx="0.452081"/>
<feComposite in2="hardAlpha" operator="out"/>
<feColorMatrix type="matrix" values="0 0 0 0 0.894118 0 0 0 0 0.909804 0 0 0 0 0.941176 0 0 0 1 0"/>
<feBlend mode="normal" in2="BackgroundImageFix" result="effect1_dropShadow_2264_10877"/>
<feBlend mode="normal" in="SourceGraphic" in2="effect1_dropShadow_2264_10877" result="shape"/>
</filter>
<filter id="filter12_d_2264_10877" x="77.5508" y="110.207" width="64.7529" height="17.6313" filterUnits="userSpaceOnUse" color-interpolation-filters="sRGB">
<feFlood flood-opacity="0" result="BackgroundImageFix"/>
<feColorMatrix in="SourceAlpha" type="matrix" values="0 0 0 0 0 0 0 0 0 0 0 0 0 0 0 0 0 0 127 0" result="hardAlpha"/>
<feOffset dx="0.452081"/>
<feComposite in2="hardAlpha" operator="out"/>
<feColorMatrix type="matrix" values="0 0 0 0 0.894118 0 0 0 0 0.909804 0 0 0 0 0.941176 0 0 0 1 0"/>
<feBlend mode="normal" in2="BackgroundImageFix" result="effect1_dropShadow_2264_10877"/>
<feBlend mode="normal" in="SourceGraphic" in2="effect1_dropShadow_2264_10877" result="shape"/>
</filter>
<filter id="filter13_d_2264_10877" x="-66" y="127.837" width="81.8271" height="17.6313" filterUnits="userSpaceOnUse" color-interpolation-filters="sRGB">
<feFlood flood-opacity="0" result="BackgroundImageFix"/>
<feColorMatrix in="SourceAlpha" type="matrix" values="0 0 0 0 0 0 0 0 0 0 0 0 0 0 0 0 0 0 127 0" result="hardAlpha"/>
<feOffset dx="0.452081"/>
<feComposite in2="hardAlpha" operator="out"/>
<feColorMatrix type="matrix" values="0 0 0 0 0.894118 0 0 0 0 0.909804 0 0 0 0 0.941176 0 0 0 1 0"/>
<feBlend mode="normal" in2="BackgroundImageFix" result="effect1_dropShadow_2264_10877"/>
<feBlend mode="normal" in="SourceGraphic" in2="effect1_dropShadow_2264_10877" result="shape"/>
</filter>
<filter id="filter14_d_2264_10877" x="77.5508" y="127.837" width="64.7529" height="17.6313" filterUnits="userSpaceOnUse" color-interpolation-filters="sRGB">
<feFlood flood-opacity="0" result="BackgroundImageFix"/>
<feColorMatrix in="SourceAlpha" type="matrix" values="0 0 0 0 0 0 0 0 0 0 0 0 0 0 0 0 0 0 127 0" result="hardAlpha"/>
<feOffset dx="0.452081"/>
<feComposite in2="hardAlpha" operator="out"/>
<feColorMatrix type="matrix" values="0 0 0 0 0.894118 0 0 0 0 0.909804 0 0 0 0 0.941176 0 0 0 1 0"/>
<feBlend mode="normal" in2="BackgroundImageFix" result="effect1_dropShadow_2264_10877"/>
<feBlend mode="normal" in="SourceGraphic" in2="effect1_dropShadow_2264_10877" result="shape"/>
</filter>
<filter id="filter15_d_2264_10877" x="-66" y="145.469" width="81.8271" height="17.6313" filterUnits="userSpaceOnUse" color-interpolation-filters="sRGB">
<feFlood flood-opacity="0" result="BackgroundImageFix"/>
<feColorMatrix in="SourceAlpha" type="matrix" values="0 0 0 0 0 0 0 0 0 0 0 0 0 0 0 0 0 0 127 0" result="hardAlpha"/>
<feOffset dx="0.452081"/>
<feComposite in2="hardAlpha" operator="out"/>
<feColorMatrix type="matrix" values="0 0 0 0 0.894118 0 0 0 0 0.909804 0 0 0 0 0.941176 0 0 0 1 0"/>
<feBlend mode="normal" in2="BackgroundImageFix" result="effect1_dropShadow_2264_10877"/>
<feBlend mode="normal" in="SourceGraphic" in2="effect1_dropShadow_2264_10877" result="shape"/>
</filter>
<filter id="filter16_d_2264_10877" x="77.5508" y="145.469" width="64.7529" height="17.6313" filterUnits="userSpaceOnUse" color-interpolation-filters="sRGB">
<feFlood flood-opacity="0" result="BackgroundImageFix"/>
<feColorMatrix in="SourceAlpha" type="matrix" values="0 0 0 0 0 0 0 0 0 0 0 0 0 0 0 0 0 0 127 0" result="hardAlpha"/>
<feOffset dx="0.452081"/>
<feComposite in2="hardAlpha" operator="out"/>
<feColorMatrix type="matrix" values="0 0 0 0 0.894118 0 0 0 0 0.909804 0 0 0 0 0.941176 0 0 0 1 0"/>
<feBlend mode="normal" in2="BackgroundImageFix" result="effect1_dropShadow_2264_10877"/>
<feBlend mode="normal" in="SourceGraphic" in2="effect1_dropShadow_2264_10877" result="shape"/>
</filter>
<clipPath id="clip0_2264_10877">
<rect width="364" height="162.463" fill="white"/>
</clipPath>
</defs>
</svg>
