<svg width="364" height="163" viewBox="0 0 364 163" fill="none" xmlns="http://www.w3.org/2000/svg">
<g clip-path="url(#clip0_2264_11425)">
<g clip-path="url(#clip1_2264_11425)">
<rect width="639.548" height="319.148" transform="translate(31 -81.0698)" fill="white"/>
<rect width="639.548" height="23.7797" transform="translate(31 24.0615)" fill="white"/>
<g filter="url(#filter0_d_2264_11425)">
<mask id="path-1-inside-1_2264_11425" fill="white">
<path d="M31 24.0615H143.641V47.8412H31V24.0615Z"/>
</mask>
<path d="M31 24.0615H143.641V47.8412H31V24.0615Z" fill="white" fill-opacity="0.01" shape-rendering="crispEdges"/>
<path d="M31 47.8412H30.3742V48.467H31V47.8412ZM143.641 47.8412V47.2154H31V47.8412V48.467H143.641V47.8412ZM31 47.8412H31.6258V24.0615H31H30.3742V47.8412H31Z" fill="#E4E8F0" mask="url(#path-1-inside-1_2264_11425)"/>
<path d="M76.8089 36.3943V39.2241H76.0292V33.0915H79.3671V33.8099H76.8089V35.6847H79.2269V36.3943H76.8089ZM83.9341 37.9625V38.7773C83.4611 39.119 82.8828 39.3205 82.2871 39.3205C80.9291 39.3205 80.0531 38.348 80.0531 37.0952C80.0531 35.8249 80.9291 34.8699 82.1557 34.8699C83.3472 34.8699 84.1619 35.8512 84.1619 37.0602C84.1619 37.2266 84.1444 37.3318 84.1444 37.3318H80.8065C80.8678 38.0414 81.4548 38.6371 82.3397 38.6371C82.8828 38.6371 83.4085 38.4181 83.9341 37.9625ZM80.824 36.7097H83.3997C83.3384 36.0351 82.839 35.527 82.1382 35.527C81.4285 35.527 80.8766 36.1315 80.824 36.7097ZM85.9845 39.2241H85.2398V33.0915H85.9845V35.6409C86.2911 35.1766 86.8693 34.8699 87.4914 34.8699C88.7004 34.8699 89.629 35.8336 89.629 37.0952C89.629 38.348 88.7004 39.3205 87.4914 39.3205C86.8693 39.3205 86.2999 39.0489 85.9845 38.5846V39.2241ZM88.8668 37.0952C88.8668 36.2366 88.2361 35.562 87.4038 35.562C86.5715 35.562 85.9407 36.2366 85.9407 37.0952C85.9407 37.9538 86.5715 38.6284 87.4038 38.6284C88.2361 38.6284 88.8668 37.9538 88.8668 37.0952ZM92.9783 34.9137V35.6672C92.9783 35.6672 92.8995 35.6497 92.7681 35.6497C91.9796 35.6497 91.4977 36.2804 91.4977 37.2003V39.2241H90.7531V34.9663H91.489V35.7197C91.6817 35.2291 92.2337 34.8962 92.7944 34.8962C92.8995 34.8962 92.9783 34.9137 92.9783 34.9137ZM96.9266 37.1916V34.9663H97.6801V39.2241H96.9266V38.6109C96.6638 39.0314 96.217 39.3205 95.5775 39.3205C94.4999 39.3205 93.8778 38.5933 93.8778 37.4632V34.9663H94.6313V37.3756C94.6313 38.1378 95.0168 38.6196 95.7352 38.6196C96.4536 38.6196 96.9266 38.0589 96.9266 37.1916ZM101.563 36.517V36.4119C101.563 35.8774 101.187 35.5533 100.556 35.5533C99.9775 35.5533 99.5482 35.7898 99.1102 36.1928V35.4044C99.4957 35.089 99.96 34.8699 100.573 34.8699C101.668 34.8699 102.299 35.4744 102.299 36.4644V39.2241H101.59V38.6634C101.257 39.0927 100.74 39.3205 100.179 39.3205C99.4256 39.3205 98.8912 38.8036 98.8912 38.1027C98.8912 37.3405 99.373 36.885 100.31 36.7273L101.563 36.517ZM99.6446 38.0589C99.6446 38.4181 99.925 38.6547 100.319 38.6547C101.046 38.6547 101.572 38.1816 101.572 37.5245V37.1653L100.433 37.3668C99.925 37.4632 99.6446 37.691 99.6446 38.0589ZM105.882 34.9137V35.6672C105.882 35.6672 105.803 35.6497 105.672 35.6497C104.883 35.6497 104.401 36.2804 104.401 37.2003V39.2241H103.657V34.9663H104.393V35.7197C104.585 35.2291 105.137 34.8962 105.698 34.8962C105.803 34.8962 105.882 34.9137 105.882 34.9137ZM110.65 34.9663L108.6 39.8724C108.214 40.7923 107.837 41.1515 107.198 41.1515C107.014 41.1515 106.856 41.1165 106.734 41.0639V40.3981C106.83 40.4331 106.979 40.4682 107.137 40.4682C107.478 40.4682 107.68 40.2667 107.907 39.7235L108.162 39.1102L106.471 34.9663H107.277L108.556 38.2517L109.87 34.9663H110.65Z" fill="#242B42"/>
<path d="M67.3782 34.8455C67.3782 33.6877 66.7524 32.624 65.7512 32.0293C64.7342 31.4506 63.4984 31.4506 62.4971 32.0293C61.4802 32.6244 60.8701 33.688 60.8701 34.8455C60.8701 36.0189 61.4802 37.0826 62.4971 37.677C63.4984 38.2561 64.7342 38.2561 65.7512 37.677C66.7524 37.0829 67.3782 36.0189 67.3782 34.8455ZM60.1191 34.8455C60.118 34.1437 60.3026 33.4541 60.6544 32.8467C61.0061 32.2394 61.5123 31.7361 62.1216 31.3878C63.3575 30.6683 64.8751 30.6683 66.1266 31.3878C67.3625 32.1077 68.1291 33.4217 68.1291 34.8455C68.1291 36.2849 67.3625 37.5989 66.1266 38.3185C64.8751 39.0384 63.3575 39.0384 62.1216 38.3185C60.8701 37.5989 60.1191 36.2849 60.1191 34.8455ZM63.0605 33.1557C63.1156 33.1175 63.1811 33.097 63.2482 33.097C63.3153 33.097 63.3808 33.1175 63.436 33.1557L65.6888 34.5324C65.7982 34.5952 65.8763 34.7203 65.8763 34.8612C65.8763 34.9863 65.7982 35.1115 65.6888 35.1739L63.436 36.5506C63.3261 36.629 63.17 36.629 63.0605 36.5663C63.0036 36.5323 62.9564 36.4842 62.9235 36.4267C62.8906 36.3692 62.8731 36.3041 62.8726 36.2379V33.4687C62.8726 33.3436 62.9353 33.2184 63.0605 33.1557Z" fill="#687887"/>
<rect width="1.25156" height="23.1539" transform="translate(40.3867 24.0615)" fill="#E4E8F0"/>
<rect width="1.25156" height="23.1539" transform="translate(51.3379 24.0615)" fill="#E4E8F0"/>
</g>
<mask id="path-6-inside-2_2264_11425" fill="white">
<path d="M143.641 24.0615H229.028V47.8412H143.641V24.0615Z"/>
</mask>
<path d="M229.028 47.8412V47.2154H143.641V47.8412V48.467H229.028V47.8412Z" fill="#E4E8F0" mask="url(#path-6-inside-2_2264_11425)"/>
<path d="M214.45 39.2241V38.6897L216.693 36.3155C217.209 35.7723 217.367 35.3956 217.367 34.9313C217.367 34.3092 216.824 33.8361 216.123 33.8361C215.571 33.8361 215.002 34.2041 214.52 34.7998V33.8799C214.94 33.4069 215.562 33.109 216.132 33.109C217.288 33.109 218.138 33.8537 218.138 34.8962C218.138 35.6146 217.858 36.1403 217.209 36.8236L215.606 38.5057H218.217V39.2241H214.45ZM221.529 39.3205C219.89 39.3205 219.102 37.8399 219.102 36.2191C219.102 34.5896 219.89 33.109 221.529 33.109C223.167 33.109 223.956 34.5896 223.956 36.2191C223.956 37.8399 223.167 39.3205 221.529 39.3205ZM221.529 38.5933C222.668 38.5933 223.176 37.4457 223.176 36.2191C223.176 34.9926 222.668 33.8361 221.529 33.8361C220.39 33.8361 219.882 34.9926 219.882 36.2191C219.882 37.4457 220.39 38.5933 221.529 38.5933Z" fill="#242B42"/>
<mask id="path-9-inside-3_2264_11425" fill="white">
<path d="M229.028 24.0615H316.669V47.8412H229.028V24.0615Z"/>
</mask>
<path d="M316.669 47.8412V47.2154H229.028V47.8412V48.467H316.669V47.8412Z" fill="#E4E8F0" mask="url(#path-9-inside-3_2264_11425)"/>
<path d="M304.713 37.8136V37.2266L307.7 33.2141H308.577V37.1303H309.418V37.8136H308.577V39.2241H307.814V37.8136H304.713ZM305.624 37.1303H307.814V34.2041L305.624 37.1303ZM311.795 39.2241H311.024V34.0727L309.938 34.5195V33.731L311.164 33.2054H311.795V39.2241Z" fill="#242B42"/>
<mask id="path-12-inside-4_2264_11425" fill="white">
<path d="M316.669 24.0615H396.905V47.8412H316.669V24.0615Z"/>
</mask>
<path d="M396.905 47.8412V47.2154H316.669V47.8412V48.467H396.905V47.8412Z" fill="#E4E8F0" mask="url(#path-12-inside-4_2264_11425)"/>
<rect width="639.548" height="23.7797" transform="translate(31 47.8408)" fill="#F6F9FC"/>
<g filter="url(#filter1_d_2264_11425)">
<mask id="path-14-inside-5_2264_11425" fill="white">
<path d="M31 47.8408H143.641V71.6205H31V47.8408Z"/>
</mask>
<path d="M31 47.8408H143.641V71.6205H31V47.8408Z" fill="white" fill-opacity="0.01" shape-rendering="crispEdges"/>
<path d="M31 71.6205H30.3742V72.2463H31V71.6205ZM143.641 71.6205V70.9947H31V71.6205V72.2463H143.641V71.6205ZM31 71.6205H31.6258V47.8408H31H30.3742V71.6205H31Z" fill="#E4E8F0" mask="url(#path-14-inside-5_2264_11425)"/>
<path d="M55.8695 63.0039V62.4695L58.1123 60.0953C58.6292 59.5521 58.7869 59.1754 58.7869 58.711C58.7869 58.089 58.2438 57.6159 57.5429 57.6159C56.9909 57.6159 56.4215 57.9839 55.9396 58.5796V57.6597C56.3601 57.1866 56.9822 56.8888 57.5516 56.8888C58.7081 56.8888 59.5579 57.6335 59.5579 58.676C59.5579 59.3944 59.2775 59.9201 58.6292 60.6034L57.026 62.2855H59.6367V63.0039H55.8695ZM62.9485 63.1003C61.3102 63.1003 60.5217 61.6197 60.5217 59.9989C60.5217 58.3694 61.3102 56.8888 62.9485 56.8888C64.5868 56.8888 65.3753 58.3694 65.3753 59.9989C65.3753 61.6197 64.5868 63.1003 62.9485 63.1003ZM62.9485 62.3731C64.0874 62.3731 64.5956 61.2254 64.5956 59.9989C64.5956 58.7724 64.0874 57.6159 62.9485 57.6159C61.8096 57.6159 61.3015 58.7724 61.3015 59.9989C61.3015 61.2254 61.8096 62.3731 62.9485 62.3731ZM66.0832 63.0039V62.4695L68.326 60.0953C68.8429 59.5521 69.0006 59.1754 69.0006 58.711C69.0006 58.089 68.4574 57.6159 67.7566 57.6159C67.2046 57.6159 66.6352 57.9839 66.1533 58.5796V57.6597C66.5738 57.1866 67.1959 56.8888 67.7653 56.8888C68.9218 56.8888 69.7716 57.6335 69.7716 58.676C69.7716 59.3944 69.4912 59.9201 68.8429 60.6034L67.2397 62.2855H69.8504V63.0039H66.0832ZM70.6468 63.0039V62.4695L72.8896 60.0953C73.4065 59.5521 73.5642 59.1754 73.5642 58.711C73.5642 58.089 73.021 57.6159 72.3201 57.6159C71.7682 57.6159 71.1987 57.9839 70.7169 58.5796V57.6597C71.1374 57.1866 71.7594 56.8888 72.3289 56.8888C73.4853 56.8888 74.3352 57.6335 74.3352 58.676C74.3352 59.3944 74.0548 59.9201 73.4065 60.6034L71.8032 62.2855H74.414V63.0039H70.6468Z" fill="#242B42"/>
<path d="M42.4304 62.0037C43.5882 62.0037 44.6519 61.3779 45.2466 60.3767C45.8253 59.3597 45.8253 58.1238 45.2466 57.1226C44.6515 56.1057 43.5879 55.4956 42.4304 55.4956C41.257 55.4956 40.1933 56.1057 39.5989 57.1226C39.0198 58.1238 39.0198 59.3597 39.5989 60.3767C40.193 61.3779 41.257 62.0037 42.4304 62.0037ZM42.4304 54.7446C43.1322 54.7435 43.8218 54.9281 44.4291 55.2799C45.0364 55.6316 45.5398 56.1378 45.8881 56.7471C46.6076 57.983 46.6076 59.5006 45.8881 60.7521C45.1682 61.988 43.8542 62.7546 42.4304 62.7546C40.991 62.7546 39.677 61.988 38.9574 60.7521C38.2375 59.5006 38.2375 57.983 38.9574 56.7471C39.677 55.4956 40.991 54.7446 42.4304 54.7446ZM44.1202 57.686C44.1584 57.7411 44.1789 57.8066 44.1789 57.8737C44.1789 57.9408 44.1584 58.0063 44.1202 58.0614L42.7435 60.3142C42.6807 60.4237 42.5556 60.5018 42.4147 60.5018C42.2896 60.5018 42.1644 60.4237 42.102 60.3142L40.7253 58.0614C40.6469 57.9516 40.6469 57.7954 40.7096 57.686C40.7436 57.6291 40.7917 57.5819 40.8492 57.549C40.9067 57.5161 40.9717 57.4985 41.038 57.4981H43.8071C43.9323 57.4981 44.0574 57.5608 44.1202 57.686Z" fill="#687887"/>
</g>
<mask id="path-19-inside-6_2264_11425" fill="white">
<path d="M143.641 47.8408H229.028V71.6205H143.641V47.8408Z"/>
</mask>
<path d="M229.028 71.6205V70.9947H143.641V71.6205V72.2463H229.028V71.6205Z" fill="#E4E8F0" mask="url(#path-19-inside-6_2264_11425)"/>
<path d="M215.994 63.0039V62.4695L218.236 60.0953C218.753 59.5521 218.911 59.1754 218.911 58.711C218.911 58.089 218.368 57.6159 217.667 57.6159C217.115 57.6159 216.546 57.9839 216.064 58.5796V57.6597C216.484 57.1866 217.106 56.8888 217.676 56.8888C218.832 56.8888 219.682 57.6335 219.682 58.676C219.682 59.3944 219.402 59.9201 218.753 60.6034L217.15 62.2855H219.761V63.0039H215.994ZM222.179 62.3731C222.932 62.3731 223.607 61.9 223.607 61.1115C223.607 60.3406 222.959 59.8938 222.144 59.8938C221.61 59.8938 221.18 60.0252 220.812 60.2179L221.023 56.9851H224.106V57.6948H221.688L221.574 59.3068C221.715 59.2367 222.039 59.1929 222.31 59.1929C223.467 59.1929 224.404 59.9639 224.404 61.0765C224.404 62.3644 223.423 63.0915 222.205 63.1003C221.662 63.1003 221.145 62.9601 220.646 62.6447V61.7861C221.145 62.1804 221.653 62.3731 222.179 62.3731Z" fill="#242B42"/>
<mask id="path-22-inside-7_2264_11425" fill="white">
<path d="M229.028 47.8408H316.669V71.6205H229.028V47.8408Z"/>
</mask>
<path d="M316.669 71.6205V70.9947H229.028V71.6205V72.2463H316.669V71.6205Z" fill="#E4E8F0" mask="url(#path-22-inside-7_2264_11425)"/>
<path d="M306.925 63.0039H306.154V57.8525L305.068 58.2993V57.5108L306.294 56.9851H306.925V63.0039ZM311.955 57.5809L309.441 63.0039H308.591L311.053 57.7123H308.056V56.9939H311.955V57.5809Z" fill="#242B42"/>
<mask id="path-25-inside-8_2264_11425" fill="white">
<path d="M316.669 47.8408H396.905V71.6205H316.669V47.8408Z"/>
</mask>
<path d="M396.905 71.6205V70.9947H316.669V71.6205V72.2463H396.905V71.6205Z" fill="#E4E8F0" mask="url(#path-25-inside-8_2264_11425)"/>
<rect width="639.548" height="23.7797" transform="translate(31 71.6206)" fill="#F6F9FC"/>
<g filter="url(#filter2_d_2264_11425)">
<mask id="path-27-inside-9_2264_11425" fill="white">
<path d="M31 71.6206H143.641V95.4003H31V71.6206Z"/>
</mask>
<path d="M31 71.6206H143.641V95.4003H31V71.6206Z" fill="white" fill-opacity="0.01" shape-rendering="crispEdges"/>
<path d="M31 95.4003H30.3742V96.0261H31V95.4003ZM143.641 95.4003V94.7745H31V95.4003V96.0261H143.641V95.4003ZM31 95.4003H31.6258V71.6206H31H30.3742V95.4003H31Z" fill="#E4E8F0" mask="url(#path-27-inside-9_2264_11425)"/>
<path d="M73.1612 86.3101L72.6706 86.8883L71.9434 86.2838C71.4265 86.6605 70.7957 86.8796 70.1124 86.8796C68.3865 86.8796 66.9672 85.4603 66.9672 83.7169C66.9672 81.9647 68.3865 80.5454 70.1124 80.5454C71.8383 80.5454 73.2576 81.9647 73.2576 83.7169C73.2576 84.4966 72.9685 85.2062 72.5041 85.7582L73.1612 86.3101ZM72.4603 83.7169C72.4603 82.3852 71.4178 81.2901 70.1124 81.2901C68.807 81.2901 67.7645 82.3852 67.7645 83.7169C67.7645 85.0398 68.807 86.1349 70.1124 86.1349C70.568 86.1349 70.9885 86.0035 71.3477 85.7757L70.7432 85.2588L71.2338 84.6893L71.9171 85.2676C72.2588 84.847 72.4603 84.3039 72.4603 83.7169ZM75.9348 86.7832H75.1638V81.6318L74.0775 82.0786V81.2901L75.304 80.7644H75.9348V86.7832Z" fill="#242B42"/>
<path d="M53.3816 85.783C54.5394 85.783 55.603 85.1572 56.1978 84.1559C56.7765 83.139 56.7765 81.9031 56.1978 80.9019C55.6027 79.885 54.539 79.2749 53.3816 79.2749C52.2081 79.2749 51.1445 79.885 50.5501 80.9019C49.971 81.9031 49.971 83.139 50.5501 84.1559C51.1441 85.1572 52.2081 85.783 53.3816 85.783ZM53.3816 78.5239C54.0834 78.5228 54.773 78.7074 55.3803 79.0592C55.9876 79.4109 56.491 79.9171 56.8392 80.5264C57.5588 81.7623 57.5588 83.2799 56.8392 84.5314C56.1193 85.7673 54.8054 86.5339 53.3816 86.5339C51.9421 86.5339 50.6282 85.7673 49.9086 84.5314C49.1887 83.2799 49.1887 81.7623 49.9086 80.5264C50.6282 79.2749 51.9421 78.5239 53.3816 78.5239ZM55.0714 81.4653C55.1096 81.5204 55.13 81.5859 55.13 81.653C55.13 81.7201 55.1096 81.7856 55.0714 81.8407L53.6946 84.0935C53.6319 84.203 53.5067 84.2811 53.3659 84.2811C53.2408 84.2811 53.1156 84.203 53.0532 84.0935L51.6765 81.8407C51.598 81.7309 51.598 81.5747 51.6608 81.4653C51.6948 81.4084 51.7429 81.3612 51.8004 81.3283C51.8579 81.2954 51.9229 81.2778 51.9892 81.2774H54.7583C54.8835 81.2774 55.0086 81.3401 55.0714 81.4653Z" fill="#687887"/>
<rect width="1.25156" height="23.1539" transform="translate(40.3867 71.6206)" fill="#E4E8F0"/>
</g>
<mask id="path-32-inside-10_2264_11425" fill="white">
<path d="M143.641 71.6206H229.028V95.4003H143.641V71.6206Z"/>
</mask>
<path d="M229.028 95.4003V94.7745H143.641V95.4003V96.0261H229.028V95.4003Z" fill="#E4E8F0" mask="url(#path-32-inside-10_2264_11425)"/>
<path d="M220.228 86.7832V86.2488L222.471 83.8746C222.988 83.3314 223.145 82.9547 223.145 82.4903C223.145 81.8683 222.602 81.3952 221.901 81.3952C221.349 81.3952 220.78 81.7632 220.298 82.3589V81.439C220.718 80.9659 221.34 80.6681 221.91 80.6681C223.066 80.6681 223.916 81.4127 223.916 82.4553C223.916 83.1737 223.636 83.6994 222.988 84.3827L221.384 86.0648H223.995V86.7832H220.228Z" fill="#242B42"/>
<mask id="path-35-inside-11_2264_11425" fill="white">
<path d="M229.028 71.6206H316.669V95.4003H229.028V71.6206Z"/>
</mask>
<path d="M316.669 95.4003V94.7745H229.028V95.4003V96.0261H316.669V95.4003Z" fill="#E4E8F0" mask="url(#path-35-inside-11_2264_11425)"/>
<path d="M304.384 86.1524C305.129 86.1524 305.707 85.7056 305.707 85.0485C305.707 84.409 305.138 83.9709 304.411 83.9709H303.841V83.2701H304.411C304.963 83.2701 305.471 82.832 305.471 82.3326C305.471 81.7895 304.989 81.3865 304.367 81.3865C303.859 81.3865 303.386 81.623 302.904 82.0435V81.185C303.342 80.852 303.859 80.6681 304.376 80.6681C305.462 80.6681 306.233 81.3514 306.233 82.2626C306.233 82.832 305.926 83.3226 305.392 83.5767C306.058 83.7957 306.487 84.3739 306.487 85.0573C306.487 86.1261 305.593 86.8796 304.393 86.8796C303.815 86.8796 303.272 86.7306 302.746 86.4065V85.5654C303.281 85.9597 303.824 86.1524 304.384 86.1524ZM308.82 86.1524C309.573 86.1524 310.248 85.6793 310.248 84.8908C310.248 84.1199 309.599 83.6731 308.785 83.6731C308.25 83.6731 307.821 83.8045 307.453 83.9972L307.663 80.7644H310.747V81.4741H308.329L308.215 83.0861C308.355 83.016 308.679 82.9722 308.951 82.9722C310.107 82.9722 311.045 83.7432 311.045 84.8558C311.045 86.1437 310.064 86.8708 308.846 86.8796C308.303 86.8796 307.786 86.7394 307.286 86.424V85.5654C307.786 85.9597 308.294 86.1524 308.82 86.1524Z" fill="#242B42"/>
<mask id="path-38-inside-12_2264_11425" fill="white">
<path d="M316.669 71.6206H396.905V95.4003H316.669V71.6206Z"/>
</mask>
<path d="M396.905 95.4003V94.7745H316.669V95.4003V96.0261H396.905V95.4003Z" fill="#E4E8F0" mask="url(#path-38-inside-12_2264_11425)"/>
<rect width="639.548" height="23.7797" transform="translate(31 95.4004)" fill="#F6F9FC"/>
<g filter="url(#filter3_d_2264_11425)">
<mask id="path-40-inside-13_2264_11425" fill="white">
<path d="M31 95.4004H143.641V119.18H31V95.4004Z"/>
</mask>
<path d="M31 95.4004H143.641V119.18H31V95.4004Z" fill="white" fill-opacity="0.01" shape-rendering="crispEdges"/>
<path d="M31 119.18H30.3742V119.806H31V119.18ZM143.641 119.18V118.554H31V119.18V119.806H143.641V119.18ZM31 119.18H31.6258V95.4004H31H30.3742V119.18H31Z" fill="#E4E8F0" mask="url(#path-40-inside-13_2264_11425)"/>
<path d="M77.6629 110.659C77.2336 110.659 76.8219 110.545 76.4627 110.318V109.442C76.8044 109.696 77.2249 109.923 77.6629 109.923C78.3463 109.923 78.6617 109.415 78.6617 108.714V104.43H79.4414V108.732C79.4414 109.871 78.8018 110.659 77.6629 110.659ZM83.3007 107.856V107.751C83.3007 107.216 82.924 106.892 82.2932 106.892C81.715 106.892 81.2857 107.129 80.8477 107.532V106.743C81.2332 106.428 81.6975 106.209 82.3107 106.209C83.4059 106.209 84.0367 106.813 84.0367 107.803V110.563H83.327V110.002C82.9941 110.432 82.4772 110.659 81.9165 110.659C81.1631 110.659 80.6286 110.142 80.6286 109.442C80.6286 108.679 81.1105 108.224 82.0479 108.066L83.3007 107.856ZM81.3821 109.398C81.3821 109.757 81.6624 109.994 82.0567 109.994C82.7838 109.994 83.3095 109.52 83.3095 108.863V108.504L82.1706 108.706C81.6624 108.802 81.3821 109.03 81.3821 109.398ZM86.1476 108.338V110.563H85.3941V106.305H86.1476V106.918C86.4104 106.498 86.866 106.209 87.5055 106.209C88.5919 106.209 89.2227 106.936 89.2227 108.066V110.563H88.4692V108.154C88.4692 107.392 88.075 106.91 87.3478 106.91C86.6207 106.91 86.1476 107.47 86.1476 108.338ZM93.5526 108.53V106.305H94.3061V110.563H93.5526V109.95C93.2898 110.37 92.843 110.659 92.2034 110.659C91.1258 110.659 90.5038 109.932 90.5038 108.802V106.305H91.2573V108.714C91.2573 109.477 91.6427 109.958 92.3611 109.958C93.0795 109.958 93.5526 109.398 93.5526 108.53ZM98.1892 107.856V107.751C98.1892 107.216 97.8125 106.892 97.1817 106.892C96.6035 106.892 96.1742 107.129 95.7362 107.532V106.743C96.1216 106.428 96.586 106.209 97.1992 106.209C98.2944 106.209 98.9251 106.813 98.9251 107.803V110.563H98.2155V110.002C97.8826 110.432 97.3657 110.659 96.805 110.659C96.0516 110.659 95.5171 110.142 95.5171 109.442C95.5171 108.679 95.999 108.224 96.9364 108.066L98.1892 107.856ZM96.2706 109.398C96.2706 109.757 96.5509 109.994 96.9452 109.994C97.6723 109.994 98.198 109.52 98.198 108.863V108.504L97.0591 108.706C96.5509 108.802 96.2706 109.03 96.2706 109.398ZM102.508 106.253V107.006C102.508 107.006 102.429 106.989 102.298 106.989C101.509 106.989 101.027 107.619 101.027 108.539V110.563H100.283V106.305H101.019V107.059C101.211 106.568 101.763 106.235 102.324 106.235C102.429 106.235 102.508 106.253 102.508 106.253ZM107.276 106.305L105.226 111.211C104.84 112.131 104.463 112.49 103.824 112.49C103.64 112.49 103.482 112.455 103.359 112.403V111.737C103.456 111.772 103.605 111.807 103.763 111.807C104.104 111.807 104.306 111.606 104.533 111.062L104.788 110.449L103.097 106.305H103.903L105.182 109.591L106.496 106.305H107.276Z" fill="#242B42"/>
<path d="M64.3328 109.563C65.4905 109.563 66.5542 108.937 67.1489 107.936C67.7277 106.919 67.7277 105.683 67.1489 104.682C66.5539 103.665 65.4902 103.055 64.3328 103.055C63.1593 103.055 62.0956 103.665 61.5012 104.682C60.9222 105.683 60.9222 106.919 61.5012 107.936C62.0953 108.937 63.1593 109.563 64.3328 109.563ZM64.3328 102.304C65.0346 102.303 65.7242 102.487 66.3315 102.839C66.9388 103.191 67.4422 103.697 67.7904 104.306C68.51 105.542 68.51 107.06 67.7904 108.311C67.0705 109.547 65.7565 110.314 64.3328 110.314C62.8933 110.314 61.5793 109.547 60.8598 108.311C60.1399 107.06 60.1399 105.542 60.8598 104.306C61.5793 103.055 62.8933 102.304 64.3328 102.304ZM66.0225 105.245C66.0607 105.3 66.0812 105.366 66.0812 105.433C66.0812 105.5 66.0607 105.565 66.0225 105.621L64.6458 107.873C64.5831 107.983 64.4579 108.061 64.3171 108.061C64.1919 108.061 64.0668 107.983 64.0044 107.873L62.6276 105.621C62.5492 105.511 62.5492 105.355 62.612 105.245C62.6459 105.188 62.694 105.141 62.7515 105.108C62.8091 105.075 62.8741 105.058 62.9404 105.057H65.7095C65.8346 105.057 65.9598 105.12 66.0225 105.245Z" fill="#687887"/>
<rect width="1.25156" height="23.1539" transform="translate(40.3867 95.4004)" fill="#E4E8F0"/>
<rect width="1.25156" height="23.1539" transform="translate(51.3379 95.4004)" fill="#E4E8F0"/>
</g>
<mask id="path-45-inside-14_2264_11425" fill="white">
<path d="M143.641 95.4004H229.028V119.18H143.641V95.4004Z"/>
</mask>
<path d="M229.028 119.18V118.554H143.641V119.18V119.806H229.028V119.18Z" fill="#E4E8F0" mask="url(#path-45-inside-14_2264_11425)"/>
<path d="M218.374 110.563H217.603V105.412L216.516 105.858V105.07L217.743 104.544H218.374V110.563ZM223.964 108.53C223.964 109.722 223.009 110.659 221.792 110.659C220.539 110.659 219.61 109.739 219.61 108.522C219.61 108.014 219.794 107.453 220.285 106.717L221.722 104.544H222.65L221.17 106.708C221.345 106.586 221.608 106.489 221.932 106.489C223.097 106.489 223.964 107.4 223.964 108.53ZM223.185 108.565C223.185 107.777 222.563 107.19 221.792 107.19C221.003 107.19 220.39 107.777 220.39 108.557C220.39 109.319 220.994 109.932 221.783 109.932C222.563 109.932 223.185 109.319 223.185 108.565Z" fill="#242B42"/>
<mask id="path-48-inside-15_2264_11425" fill="white">
<path d="M229.028 95.4004H316.669V119.18H229.028V95.4004Z"/>
</mask>
<path d="M316.669 119.18V118.554H229.028V119.18V119.806H316.669V119.18Z" fill="#E4E8F0" mask="url(#path-48-inside-15_2264_11425)"/>
<path d="M302.09 110.563V110.029L304.333 107.654C304.85 107.111 305.008 106.734 305.008 106.27C305.008 105.648 304.465 105.175 303.764 105.175C303.212 105.175 302.642 105.543 302.16 106.139V105.219C302.581 104.746 303.203 104.448 303.773 104.448C304.929 104.448 305.779 105.193 305.779 106.235C305.779 106.953 305.498 107.479 304.85 108.162L303.247 109.845H305.858V110.563H302.09ZM309.169 110.659C307.531 110.659 306.743 109.179 306.743 107.558C306.743 105.928 307.531 104.448 309.169 104.448C310.808 104.448 311.596 105.928 311.596 107.558C311.596 109.179 310.808 110.659 309.169 110.659ZM309.169 109.932C310.308 109.932 310.816 108.785 310.816 107.558C310.816 106.331 310.308 105.175 309.169 105.175C308.03 105.175 307.522 106.331 307.522 107.558C307.522 108.785 308.03 109.932 309.169 109.932Z" fill="#242B42"/>
<mask id="path-51-inside-16_2264_11425" fill="white">
<path d="M316.669 95.4004H396.905V119.18H316.669V95.4004Z"/>
</mask>
<path d="M396.905 119.18V118.554H316.669V119.18V119.806H396.905V119.18Z" fill="#E4E8F0" mask="url(#path-51-inside-16_2264_11425)"/>
<rect width="639.548" height="23.7797" transform="translate(31 119.18)" fill="white"/>
<g filter="url(#filter4_d_2264_11425)">
<mask id="path-53-inside-17_2264_11425" fill="white">
<path d="M31 119.18H143.641V142.959H31V119.18Z"/>
</mask>
<path d="M31 119.18H143.641V142.959H31V119.18Z" fill="white" fill-opacity="0.01" shape-rendering="crispEdges"/>
<path d="M31 142.959H30.3742V143.585H31V142.959ZM143.641 142.959V142.334H31V142.959V143.585H143.641V142.959ZM31 142.959H31.6258V119.18H31H30.3742V142.959H31Z" fill="#E4E8F0" mask="url(#path-53-inside-17_2264_11425)"/>
<path d="M79.6273 134.342H78.8564V129.19L77.77 129.637V128.849L78.9965 128.323H79.6273V134.342ZM82.4759 133.711C83.2293 133.711 83.9039 133.238 83.9039 132.449C83.9039 131.678 83.2556 131.232 82.4408 131.232C81.9064 131.232 81.4771 131.363 81.1092 131.556L81.3194 128.323H84.4033V129.033H81.9853L81.8714 130.645C82.0115 130.575 82.3357 130.531 82.6073 130.531C83.7637 130.531 84.7011 131.302 84.7011 132.414C84.7011 133.702 83.7199 134.429 82.5022 134.438C81.959 134.438 81.4421 134.298 80.9427 133.983V133.124C81.4421 133.518 81.9502 133.711 82.4759 133.711Z" fill="#242B42"/>
<rect width="1.25156" height="23.1539" transform="translate(40.3867 119.18)" fill="#E4E8F0"/>
<rect width="1.25156" height="23.1539" transform="translate(51.3379 119.18)" fill="#E4E8F0"/>
<rect width="1.25156" height="23.1539" transform="translate(62.2891 119.18)" fill="#E4E8F0"/>
</g>
<mask id="path-56-inside-18_2264_11425" fill="white">
<path d="M143.641 119.18H229.028V142.959H143.641V119.18Z"/>
</mask>
<path d="M229.028 142.959V142.334H143.641V142.959V143.585H229.028V142.959Z" fill="#E4E8F0" mask="url(#path-56-inside-18_2264_11425)"/>
<path d="M216.373 133.712C217.118 133.712 217.696 133.265 217.696 132.608C217.696 131.969 217.127 131.531 216.4 131.531H215.83V130.83H216.4C216.952 130.83 217.46 130.392 217.46 129.892C217.46 129.349 216.978 128.946 216.356 128.946C215.848 128.946 215.375 129.183 214.893 129.603V128.745C215.331 128.412 215.848 128.228 216.365 128.228C217.451 128.228 218.222 128.911 218.222 129.822C218.222 130.392 217.915 130.882 217.381 131.136C218.047 131.355 218.476 131.934 218.476 132.617C218.476 133.686 217.582 134.439 216.382 134.439C215.804 134.439 215.261 134.29 214.735 133.966V133.125C215.27 133.519 215.813 133.712 216.373 133.712ZM219.124 132.932V132.345L222.111 128.333H222.987V132.249H223.829V132.932H222.987V134.343H222.225V132.932H219.124ZM220.035 132.249H222.225V129.323L220.035 132.249Z" fill="#242B42"/>
<mask id="path-59-inside-19_2264_11425" fill="white">
<path d="M229.028 119.18H316.669V142.959H229.028V119.18Z"/>
</mask>
<path d="M316.669 142.959V142.334H229.028V142.959V143.585H316.669V142.959Z" fill="#E4E8F0" mask="url(#path-59-inside-19_2264_11425)"/>
<path d="M303.326 134.343V133.808L305.569 131.434C306.086 130.891 306.244 130.514 306.244 130.05C306.244 129.428 305.7 128.955 305 128.955C304.448 128.955 303.878 129.323 303.396 129.918V128.999C303.817 128.526 304.439 128.228 305.008 128.228C306.165 128.228 307.015 128.972 307.015 130.015C307.015 130.733 306.734 131.259 306.086 131.942L304.483 133.624H307.093V134.343H303.326ZM309.915 128.228C310.896 128.228 311.754 128.85 311.754 129.813C311.754 130.47 311.343 130.944 310.887 131.11C311.386 131.285 311.991 131.785 311.991 132.634C311.991 133.756 310.992 134.439 309.915 134.439C308.837 134.439 307.838 133.756 307.838 132.634C307.838 131.785 308.443 131.285 308.942 131.11C308.487 130.944 308.075 130.47 308.075 129.813C308.075 128.85 308.933 128.228 309.915 128.228ZM311.22 132.599C311.22 131.934 310.633 131.487 309.915 131.487C309.196 131.487 308.609 131.934 308.609 132.599C308.609 133.274 309.214 133.721 309.915 133.721C310.615 133.721 311.22 133.274 311.22 132.599ZM309.915 128.937C309.345 128.937 308.828 129.305 308.828 129.866C308.828 130.427 309.345 130.795 309.915 130.795C310.484 130.795 311.001 130.427 311.001 129.866C311.001 129.305 310.484 128.937 309.915 128.937Z" fill="#242B42"/>
<mask id="path-62-inside-20_2264_11425" fill="white">
<path d="M316.669 119.18H396.905V142.959H316.669V119.18Z"/>
</mask>
<path d="M396.905 142.959V142.334H316.669V142.959V143.585H396.905V142.959Z" fill="#E4E8F0" mask="url(#path-62-inside-20_2264_11425)"/>
<rect width="639.548" height="23.7797" transform="translate(31 142.96)" fill="white"/>
<g filter="url(#filter5_d_2264_11425)">
<mask id="path-64-inside-21_2264_11425" fill="white">
<path d="M31 142.96H143.641V166.74H31V142.96Z"/>
</mask>
<path d="M31 142.96H143.641V166.74H31V142.96Z" fill="white" fill-opacity="0.01" shape-rendering="crispEdges"/>
<path d="M31 166.74H30.3742V167.365H31V166.74ZM143.641 166.74V166.114H31V166.74V167.365H143.641V166.74ZM31 166.74H31.6258V142.96H31H30.3742V166.74H31Z" fill="#E4E8F0" mask="url(#path-64-inside-21_2264_11425)"/>
<path d="M77.0385 158.122V157.588L79.2813 155.213C79.7982 154.67 79.9559 154.294 79.9559 153.829C79.9559 153.207 79.4128 152.734 78.7119 152.734C78.1599 152.734 77.5905 153.102 77.1086 153.698V152.778C77.5292 152.305 78.1512 152.007 78.7206 152.007C79.8771 152.007 80.7269 152.752 80.7269 153.794C80.7269 154.513 80.4466 155.038 79.7982 155.722L78.195 157.404H80.8057V158.122H77.0385ZM83.2239 157.491C83.9774 157.491 84.6519 157.018 84.6519 156.23C84.6519 155.459 84.0036 155.012 83.1889 155.012C82.6545 155.012 82.2252 155.143 81.8572 155.336L82.0675 152.103H85.1513V152.813H82.7333L82.6194 154.425C82.7596 154.355 83.0837 154.311 83.3553 154.311C84.5118 154.311 85.4492 155.082 85.4492 156.195C85.4492 157.483 84.468 158.21 83.2502 158.218C82.707 158.218 82.1901 158.078 81.6908 157.763V156.904C82.1901 157.299 82.6983 157.491 83.2239 157.491Z" fill="#242B42"/>
<rect width="1.25156" height="23.1539" transform="translate(40.3867 142.96)" fill="#E4E8F0"/>
<rect width="1.25156" height="23.1539" transform="translate(51.3379 142.96)" fill="#E4E8F0"/>
<rect width="1.25156" height="23.1539" transform="translate(62.2891 142.96)" fill="#E4E8F0"/>
</g>
<mask id="path-67-inside-22_2264_11425" fill="white">
<path d="M143.641 142.96H229.028V166.74H143.641V142.96Z"/>
</mask>
<path d="M229.028 166.74V166.114H143.641V166.74V167.365H229.028V166.74Z" fill="#E4E8F0" mask="url(#path-67-inside-22_2264_11425)"/>
<path d="M214.706 156.712V156.125L217.693 152.112H218.569V156.028H219.41V156.712H218.569V158.122H217.807V156.712H214.706ZM215.617 156.028H217.807V153.102L215.617 156.028ZM221.621 157.491C222.366 157.491 222.944 157.044 222.944 156.387C222.944 155.748 222.375 155.31 221.648 155.31H221.078V154.609H221.648C222.2 154.609 222.708 154.171 222.708 153.672C222.708 153.128 222.226 152.725 221.604 152.725C221.096 152.725 220.623 152.962 220.141 153.382V152.524C220.579 152.191 221.096 152.007 221.613 152.007C222.699 152.007 223.47 152.69 223.47 153.601C223.47 154.171 223.163 154.661 222.629 154.916C223.295 155.135 223.724 155.713 223.724 156.396C223.724 157.465 222.83 158.218 221.63 158.218C221.052 158.218 220.509 158.07 219.983 157.745V156.904C220.518 157.299 221.061 157.491 221.621 157.491Z" fill="#242B42"/>
<mask id="path-70-inside-23_2264_11425" fill="white">
<path d="M229.028 142.96H316.669V166.74H229.028V142.96Z"/>
</mask>
<path d="M316.669 166.74V166.114H229.028V166.74V167.365H316.669V166.74Z" fill="#E4E8F0" mask="url(#path-70-inside-23_2264_11425)"/>
<path d="M302.703 158.122V157.588L304.945 155.213C305.462 154.67 305.62 154.294 305.62 153.829C305.62 153.207 305.077 152.734 304.376 152.734C303.824 152.734 303.255 153.102 302.773 153.698V152.778C303.193 152.305 303.815 152.007 304.385 152.007C305.541 152.007 306.391 152.752 306.391 153.794C306.391 154.513 306.111 155.038 305.462 155.722L303.859 157.404H306.47V158.122H302.703ZM308.888 157.491C309.633 157.491 310.211 157.044 310.211 156.387C310.211 155.748 309.642 155.31 308.914 155.31H308.345V154.609H308.914C309.466 154.609 309.974 154.171 309.974 153.672C309.974 153.128 309.493 152.725 308.871 152.725C308.362 152.725 307.889 152.962 307.407 153.382V152.524C307.846 152.191 308.362 152.007 308.879 152.007C309.966 152.007 310.737 152.69 310.737 153.601C310.737 154.171 310.43 154.661 309.896 154.916C310.561 155.135 310.991 155.713 310.991 156.396C310.991 157.465 310.097 158.218 308.897 158.218C308.319 158.218 307.775 158.07 307.25 157.745V156.904C307.784 157.299 308.327 157.491 308.888 157.491Z" fill="#242B42"/>
<mask id="path-73-inside-24_2264_11425" fill="white">
<path d="M316.669 142.96H396.905V166.74H316.669V142.96Z"/>
</mask>
<path d="M396.905 166.74V166.114H316.669V166.74V167.365H396.905V166.74Z" fill="#E4E8F0" mask="url(#path-73-inside-24_2264_11425)"/>
<rect width="639.548" height="33.7922" transform="translate(31 25)" fill="white"/>
<g filter="url(#filter6_d_2264_11425)">
<mask id="path-75-inside-25_2264_11425" fill="white">
<path d="M31 27.5031C31 26.1207 32.1207 25 33.5031 25H143.641V58.7922H31V27.5031Z"/>
</mask>
<path d="M31 27.5031C31 26.1207 32.1207 25 33.5031 25H143.641V58.7922H31V27.5031Z" fill="white" fill-opacity="0.01" shape-rendering="crispEdges"/>
<path d="M30.3742 27.5031C30.3742 25.7751 31.7751 24.3742 33.5031 24.3742H143.641V25.6258H33.5031C32.4663 25.6258 31.6258 26.4663 31.6258 27.5031H30.3742ZM143.641 59.418H30.3742L31.6258 58.1664H143.641V59.418ZM30.3742 59.418V27.5031C30.3742 25.7751 31.7751 24.3742 33.5031 24.3742V25.6258C32.4663 25.6258 31.6258 26.4663 31.6258 27.5031V58.1664L30.3742 59.418ZM31.6258 58.1664M143.641 25V58.7922V25" fill="#E4E8F0" mask="url(#path-75-inside-25_2264_11425)"/>
<path d="M42.2476 32.2365L43.3583 33.3629C43.5148 33.5191 43.5148 33.7537 43.3583 33.8946C43.2175 34.0514 42.9828 34.0514 42.8266 33.8946L42.3414 33.41V34.755C42.3414 34.9742 42.1852 35.1304 41.9659 35.1304C41.9164 35.1311 41.8673 35.1219 41.8214 35.1032C41.7756 35.0846 41.7339 35.057 41.6989 35.022C41.6639 34.987 41.6363 34.9453 41.6176 34.8994C41.599 34.8536 41.5898 34.8045 41.5904 34.755V33.41L41.1058 33.8942C41.0736 33.9311 41.034 33.9606 40.9894 33.9808C40.9449 34.001 40.8966 34.0115 40.8477 34.0115C40.7988 34.0115 40.7504 34.001 40.7059 33.9808C40.6614 33.9606 40.6217 33.9311 40.5895 33.8942C40.4333 33.7534 40.4333 33.5188 40.5895 33.3626L41.7156 32.2365C41.8564 32.0956 42.091 32.0956 42.2476 32.2365ZM42.357 37.5084V38.8698L42.842 38.3845C42.9828 38.2283 43.2175 38.2283 43.374 38.3845C43.4416 38.4534 43.4795 38.5461 43.4795 38.6427C43.4795 38.7392 43.4416 38.8319 43.374 38.9008L42.2476 40.0272C42.091 40.1841 41.8564 40.1841 41.7156 40.0272L40.5892 38.9008C40.5523 38.8686 40.5228 38.829 40.5026 38.7844C40.4824 38.7399 40.4719 38.6916 40.4719 38.6427C40.4719 38.5937 40.4824 38.5454 40.5026 38.5009C40.5228 38.4564 40.5523 38.4167 40.5892 38.3845C40.73 38.2283 40.9646 38.2283 41.1212 38.3845L41.6061 38.8698V37.5084C41.6061 37.3052 41.7626 37.1329 41.9816 37.1329C42.1852 37.1329 42.357 37.3052 42.357 37.5084ZM38.8527 35.7562H45.1105C45.3141 35.7562 45.486 35.9284 45.486 36.1317C45.4866 36.1812 45.4774 36.2303 45.4587 36.2762C45.4401 36.322 45.4125 36.3637 45.3775 36.3987C45.3425 36.4337 45.3008 36.4613 45.255 36.4799C45.2091 36.4986 45.16 36.5078 45.1105 36.5072H38.853C38.6341 36.5072 38.4775 36.351 38.4775 36.1317C38.4775 35.9284 38.6344 35.7562 38.853 35.7562H38.8527Z" fill="#687887"/>
<path d="M57.0924 36.349V38.6318H55.9585V36.349L54.0811 33.3753H55.3727L56.5367 35.2977L57.7006 33.3753H58.9697L57.0924 36.349ZM60.3077 38.6318V33.3753H63.4016V34.3965H61.4342V35.4629H63.2289V36.4541H61.4342V37.6106H63.4166V38.6318H60.3077ZM66.7287 33.3753H67.7275L69.8376 38.6318H68.6586L68.2156 37.4979H66.2106L65.7675 38.6318H64.6111L66.7287 33.3753ZM67.2093 34.8096L66.556 36.5292H67.8777L67.2093 34.8096ZM72.3226 36.7094V38.6318H71.2037V33.3753H72.9534C74.0873 33.3753 74.8758 33.9835 74.8758 35.0574C74.8758 35.8083 74.4252 36.334 73.7944 36.5743L75.2437 38.6318H73.9146L72.6229 36.7094H72.3226ZM72.3226 34.389V35.7783H72.9609C73.4114 35.7783 73.7418 35.5154 73.7418 35.0799C73.7418 34.6368 73.4114 34.389 72.9609 34.389H72.3226Z" fill="#4B546B"/>
</g>
<mask id="path-79-inside-26_2264_11425" fill="white">
<path d="M143.641 25H229.028V58.7922H143.641V25Z"/>
</mask>
<path d="M143.641 25V25.6258H229.028V25V24.3742H143.641V25ZM229.028 58.7922V58.1664H143.641V58.7922V59.418H229.028V58.7922Z" fill="#E4E8F0" mask="url(#path-79-inside-26_2264_11425)"/>
<path d="M208.445 33.3753H209.541V38.6318H208.415L205.944 35.1625V38.6318H204.848V33.3753H205.997L208.445 36.8596V33.3753ZM211.407 38.6318V33.3753H214.501V34.3965H212.533V35.4629H214.328V36.4541H212.533V37.6106H214.516V38.6318H211.407ZM218.539 38.6318H217.623L215.82 33.3753H216.999L218.096 36.8521L219.215 33.3753H220.131L221.242 36.8521L222.346 33.3753H223.502L221.7 38.6318H220.776L219.658 35.125L218.539 38.6318ZM164.567 50.6318V45.3753H167.661V46.3965H165.694V47.4629H167.488V48.4541H165.694V49.6106H167.676V50.6318H164.567ZM172.927 45.3753H174.023V50.6318H172.896L170.426 47.1625V50.6318H169.33V45.3753H170.478L172.927 48.8596V45.3753ZM177.007 48.7094V50.6318H175.888V45.3753H177.638C178.772 45.3753 179.561 45.9835 179.561 47.0574C179.561 47.8083 179.11 48.334 178.479 48.5743L179.929 50.6318H178.599L177.308 48.7094H177.007ZM177.007 46.389V47.7783H177.646C178.096 47.7783 178.427 47.5154 178.427 47.0799C178.427 46.6368 178.096 46.389 177.646 46.389H177.007ZM186.45 48.0036C186.45 49.5204 185.226 50.7295 183.701 50.7295C182.177 50.7295 180.953 49.5204 180.953 48.0036C180.953 46.4867 182.177 45.2777 183.701 45.2777C185.226 45.2777 186.45 46.4867 186.45 48.0036ZM185.293 48.0036C185.293 47.0949 184.595 46.374 183.701 46.374C182.808 46.374 182.109 47.0949 182.109 48.0036C182.109 48.9122 182.808 49.6331 183.701 49.6331C184.595 49.6331 185.293 48.9122 185.293 48.0036ZM188.068 45.3753H189.194V49.573H191.026V50.6318H188.068V45.3753ZM192.493 45.3753H193.619V49.573H195.451V50.6318H192.493V45.3753ZM199.351 49.2501L198.014 47.1475V50.6318H196.918V45.3753H198.097L199.681 47.8759L201.258 45.3753H202.407V50.6318H201.311V47.1325L199.966 49.2501H199.351ZM204.269 50.6318V45.3753H207.363V46.3965H205.395V47.4629H207.19V48.4541H205.395V49.6106H207.378V50.6318H204.269ZM212.628 45.3753H213.724V50.6318H212.598L210.127 47.1625V50.6318H209.031V45.3753H210.18L212.628 48.8596V45.3753ZM215.169 46.4266V45.3753H219.074V46.4266H217.693V50.6318H216.559V46.4266H215.169ZM220.341 50.2789V48.9422C220.844 49.4078 221.573 49.6706 222.136 49.6706C222.647 49.6706 222.932 49.4679 222.932 49.0999C222.932 48.6719 222.406 48.5818 221.821 48.4241C221.1 48.2363 220.281 47.966 220.281 46.9372C220.281 45.931 221.092 45.2777 222.234 45.2777C222.857 45.2777 223.39 45.4203 223.856 45.7132V46.9673C223.367 46.5467 222.804 46.3215 222.241 46.3215C221.685 46.3215 221.445 46.5542 221.445 46.8696C221.445 47.2151 221.888 47.3277 222.399 47.4629C223.157 47.6581 224.103 47.9134 224.103 49.0173C224.103 50.0236 223.36 50.7295 222.158 50.7295C221.505 50.7295 220.814 50.5718 220.341 50.2789Z" fill="#4B546B"/>
<mask id="path-82-inside-27_2264_11425" fill="white">
<path d="M229.028 25H316.669V58.7922H229.028V25Z"/>
</mask>
<path d="M229.028 25V25.6258H316.669V25V24.3742H229.028V25ZM316.669 58.7922V58.1664H229.028V58.7922V59.418H316.669V58.7922Z" fill="#E4E8F0" mask="url(#path-82-inside-27_2264_11425)"/>
<path d="M263.839 38.2789V36.9422C264.342 37.4078 265.071 37.6706 265.634 37.6706C266.145 37.6706 266.43 37.4679 266.43 37.0999C266.43 36.6719 265.904 36.5818 265.319 36.4241C264.598 36.2363 263.779 35.966 263.779 34.9372C263.779 33.931 264.59 33.2777 265.732 33.2777C266.355 33.2777 266.888 33.4203 267.354 33.7132V34.9673C266.865 34.5467 266.302 34.3215 265.739 34.3215C265.183 34.3215 264.943 34.5542 264.943 34.8696C264.943 35.2151 265.386 35.3277 265.897 35.4629C266.655 35.6581 267.601 35.9134 267.601 37.0173C267.601 38.0236 266.858 38.7295 265.656 38.7295C265.003 38.7295 264.312 38.5718 263.839 38.2789ZM268.871 36.0036C268.871 34.4641 270.072 33.2777 271.589 33.2777C272.047 33.2777 272.513 33.3978 272.926 33.6306V34.8471C272.528 34.5467 272.115 34.3815 271.627 34.3815C270.71 34.3815 270.035 35.0949 270.035 36.0036C270.035 36.8972 270.68 37.6181 271.627 37.6181C272.107 37.6181 272.52 37.4604 272.933 37.1675V38.3765C272.475 38.6318 271.995 38.7295 271.574 38.7295C269.982 38.7295 268.871 37.5655 268.871 36.0036ZM274.563 38.6318V33.3753H275.697V35.4103H277.799V33.3753H278.933V38.6318H277.799V36.4917H275.697V38.6318H274.563ZM280.799 38.6318V33.3753H283.893V34.3965H281.926V35.4629H283.72V36.4541H281.926V37.6106H283.908V38.6318H280.799ZM290.014 36.0036C290.014 37.4829 288.813 38.6318 287.341 38.6318H285.561V33.3753H287.341C288.813 33.3753 290.014 34.5242 290.014 36.0036ZM288.858 36.0036C288.858 35.1325 288.182 34.4341 287.311 34.4341H286.688V37.573H287.311C288.182 37.573 288.858 36.8746 288.858 36.0036ZM293.672 38.7295C292.357 38.7295 291.561 37.8734 291.561 36.5442V33.3753H292.703V36.4842C292.703 37.19 293.048 37.6331 293.672 37.6331C294.295 37.6331 294.64 37.19 294.64 36.4842V33.3753H295.782V36.5442C295.782 37.8734 294.986 38.7295 293.672 38.7295ZM297.579 33.3753H298.706V37.573H300.538V38.6318H297.579V33.3753ZM302.004 38.6318V33.3753H305.098V34.3965H303.131V35.4629H304.925V36.4541H303.131V37.6106H305.113V38.6318H302.004ZM311.22 36.0036C311.22 37.4829 310.018 38.6318 308.546 38.6318H306.767V33.3753H308.546C310.018 33.3753 311.22 34.5242 311.22 36.0036ZM310.063 36.0036C310.063 35.1325 309.387 34.4341 308.516 34.4341H307.893V37.573H308.516C309.387 37.573 310.063 36.8746 310.063 36.0036ZM273.256 49.2501L271.919 47.1475V50.6318H270.823V45.3753H272.002L273.586 47.8759L275.163 45.3753H276.312V50.6318H275.216V47.1325L273.872 49.2501H273.256ZM278.174 50.6318V45.3753H281.268V46.3965H279.3V47.4629H281.095V48.4541H279.3V49.6106H281.283V50.6318H278.174ZM282.936 50.6318V45.3753H286.03V46.3965H284.062V47.4629H285.857V48.4541H284.062V49.6106H286.045V50.6318H282.936ZM287.388 46.4266V45.3753H291.293V46.4266H289.911V50.6318H288.777V46.4266H287.388ZM292.732 45.3753H293.866V50.6318H292.732V45.3753ZM299.324 45.3753H300.42V50.6318H299.294L296.823 47.1625V50.6318H295.727V45.3753H296.876L299.324 48.8596V45.3753ZM305.68 49.5129V48.6494H304.509V47.6807H306.739V50.1663C306.243 50.5117 305.613 50.7295 304.862 50.7295C303.225 50.7295 302.038 49.6932 302.038 48.0336C302.038 46.4792 303.217 45.2777 304.937 45.2777C305.5 45.2777 306.176 45.4278 306.634 45.7132V46.9522C306.176 46.5993 305.628 46.344 304.944 46.344C303.863 46.344 303.179 47.0649 303.179 48.0336C303.179 49.0398 303.908 49.6781 304.877 49.6781C305.207 49.6781 305.492 49.6031 305.68 49.5129ZM308.306 50.2789V48.9422C308.809 49.4078 309.537 49.6706 310.101 49.6706C310.611 49.6706 310.897 49.4679 310.897 49.0999C310.897 48.6719 310.371 48.5818 309.785 48.4241C309.064 48.2363 308.246 47.966 308.246 46.9372C308.246 45.931 309.057 45.2777 310.198 45.2777C310.821 45.2777 311.355 45.4203 311.82 45.7132V46.9673C311.332 46.5467 310.769 46.3215 310.206 46.3215C309.65 46.3215 309.41 46.5542 309.41 46.8696C309.41 47.2151 309.853 47.3277 310.363 47.4629C311.122 47.6581 312.068 47.9134 312.068 49.0173C312.068 50.0236 311.325 50.7295 310.123 50.7295C309.47 50.7295 308.779 50.5718 308.306 50.2789Z" fill="#4B546B"/>
<mask id="path-85-inside-28_2264_11425" fill="white">
<path d="M316.669 25H396.905V58.7922H316.669V25Z"/>
</mask>
<path d="M316.669 25V25.6258H396.905V25V24.3742H316.669V25ZM396.905 58.7922V58.1664H316.669V58.7922V59.418H396.905V58.7922Z" fill="#E4E8F0" mask="url(#path-85-inside-28_2264_11425)"/>
<path d="M338.843 33.3753H339.841L341.951 38.6318H340.772L340.329 37.4979H338.324L337.881 38.6318H336.725L338.843 33.3753ZM339.323 34.8096L338.67 36.5292H339.991L339.323 34.8096ZM342.266 34.4266V33.3753H346.171V34.4266H344.789V38.6318H343.656V34.4266H342.266ZM347.337 34.4266V33.3753H351.241V34.4266H349.86V38.6318H348.726V34.4266H347.337ZM352.681 38.6318V33.3753H355.775V34.3965H353.807V35.4629H355.602V36.4541H353.807V37.6106H355.79V38.6318H352.681ZM361.04 33.3753H362.136V38.6318H361.01L358.539 35.1625V38.6318H357.443V33.3753H358.592L361.04 36.8596V33.3753ZM368.455 36.0036C368.455 37.4829 367.254 38.6318 365.782 38.6318H364.002V33.3753H365.782C367.254 33.3753 368.455 34.5242 368.455 36.0036ZM367.299 36.0036C367.299 35.1325 366.623 34.4341 365.752 34.4341H365.128V37.573H365.752C366.623 37.573 367.299 36.8746 367.299 36.0036ZM371.442 33.3753H372.441L374.551 38.6318H373.372L372.929 37.4979H370.924L370.481 38.6318H369.325L371.442 33.3753ZM371.923 34.8096L371.27 36.5292H372.591L371.923 34.8096ZM379.514 33.3753H380.611V38.6318H379.484L377.014 35.1625V38.6318H375.917V33.3753H377.066L379.514 36.8596V33.3753ZM382.228 36.0036C382.228 34.4641 383.43 33.2777 384.947 33.2777C385.405 33.2777 385.87 33.3978 386.284 33.6306V34.8471C385.886 34.5467 385.472 34.3815 384.984 34.3815C384.068 34.3815 383.392 35.0949 383.392 36.0036C383.392 36.8972 384.038 37.6181 384.984 37.6181C385.465 37.6181 385.878 37.4604 386.291 37.1675V38.3765C385.833 38.6318 385.352 38.7295 384.932 38.7295C383.34 38.7295 382.228 37.5655 382.228 36.0036ZM387.921 38.6318V33.3753H391.014V34.3965H389.047V35.4629H390.842V36.4541H389.047V37.6106H391.029V38.6318H387.921ZM373.868 48.7094V50.6318H372.749V45.3753H374.499C375.633 45.3753 376.421 45.9835 376.421 47.0574C376.421 47.8083 375.971 48.334 375.34 48.5743L376.789 50.6318H375.46L374.169 48.7094H373.868ZM373.868 46.389V47.7783H374.506C374.957 47.7783 375.287 47.5154 375.287 47.0799C375.287 46.6368 374.957 46.389 374.506 46.389H373.868ZM379.904 45.3753H380.902L383.012 50.6318H381.833L381.39 49.4979H379.385L378.942 50.6318H377.786L379.904 45.3753ZM380.384 46.8096L379.731 48.5292H381.053L380.384 46.8096ZM383.327 46.4266V45.3753H387.232V46.4266H385.85V50.6318H384.717V46.4266H383.327ZM388.671 50.6318V45.3753H391.765V46.3965H389.798V47.4629H391.593V48.4541H389.798V49.6106H391.78V50.6318H388.671Z" fill="#4B546B"/>
</g>
</g>
<defs>
<filter id="filter0_d_2264_11425" x="31" y="24.0615" width="113.266" height="23.7798" filterUnits="userSpaceOnUse" color-interpolation-filters="sRGB">
<feFlood flood-opacity="0" result="BackgroundImageFix"/>
<feColorMatrix in="SourceAlpha" type="matrix" values="0 0 0 0 0 0 0 0 0 0 0 0 0 0 0 0 0 0 127 0" result="hardAlpha"/>
<feOffset dx="0.625781"/>
<feComposite in2="hardAlpha" operator="out"/>
<feColorMatrix type="matrix" values="0 0 0 0 0.894118 0 0 0 0 0.909804 0 0 0 0 0.941176 0 0 0 1 0"/>
<feBlend mode="normal" in2="BackgroundImageFix" result="effect1_dropShadow_2264_11425"/>
<feBlend mode="normal" in="SourceGraphic" in2="effect1_dropShadow_2264_11425" result="shape"/>
</filter>
<filter id="filter1_d_2264_11425" x="31" y="47.8408" width="113.266" height="23.7798" filterUnits="userSpaceOnUse" color-interpolation-filters="sRGB">
<feFlood flood-opacity="0" result="BackgroundImageFix"/>
<feColorMatrix in="SourceAlpha" type="matrix" values="0 0 0 0 0 0 0 0 0 0 0 0 0 0 0 0 0 0 127 0" result="hardAlpha"/>
<feOffset dx="0.625781"/>
<feComposite in2="hardAlpha" operator="out"/>
<feColorMatrix type="matrix" values="0 0 0 0 0.894118 0 0 0 0 0.909804 0 0 0 0 0.941176 0 0 0 1 0"/>
<feBlend mode="normal" in2="BackgroundImageFix" result="effect1_dropShadow_2264_11425"/>
<feBlend mode="normal" in="SourceGraphic" in2="effect1_dropShadow_2264_11425" result="shape"/>
</filter>
<filter id="filter2_d_2264_11425" x="31" y="71.6206" width="113.266" height="23.7798" filterUnits="userSpaceOnUse" color-interpolation-filters="sRGB">
<feFlood flood-opacity="0" result="BackgroundImageFix"/>
<feColorMatrix in="SourceAlpha" type="matrix" values="0 0 0 0 0 0 0 0 0 0 0 0 0 0 0 0 0 0 127 0" result="hardAlpha"/>
<feOffset dx="0.625781"/>
<feComposite in2="hardAlpha" operator="out"/>
<feColorMatrix type="matrix" values="0 0 0 0 0.894118 0 0 0 0 0.909804 0 0 0 0 0.941176 0 0 0 1 0"/>
<feBlend mode="normal" in2="BackgroundImageFix" result="effect1_dropShadow_2264_11425"/>
<feBlend mode="normal" in="SourceGraphic" in2="effect1_dropShadow_2264_11425" result="shape"/>
</filter>
<filter id="filter3_d_2264_11425" x="31" y="95.4004" width="113.266" height="23.7803" filterUnits="userSpaceOnUse" color-interpolation-filters="sRGB">
<feFlood flood-opacity="0" result="BackgroundImageFix"/>
<feColorMatrix in="SourceAlpha" type="matrix" values="0 0 0 0 0 0 0 0 0 0 0 0 0 0 0 0 0 0 127 0" result="hardAlpha"/>
<feOffset dx="0.625781"/>
<feComposite in2="hardAlpha" operator="out"/>
<feColorMatrix type="matrix" values="0 0 0 0 0.894118 0 0 0 0 0.909804 0 0 0 0 0.941176 0 0 0 1 0"/>
<feBlend mode="normal" in2="BackgroundImageFix" result="effect1_dropShadow_2264_11425"/>
<feBlend mode="normal" in="SourceGraphic" in2="effect1_dropShadow_2264_11425" result="shape"/>
</filter>
<filter id="filter4_d_2264_11425" x="31" y="119.18" width="113.266" height="23.7803" filterUnits="userSpaceOnUse" color-interpolation-filters="sRGB">
<feFlood flood-opacity="0" result="BackgroundImageFix"/>
<feColorMatrix in="SourceAlpha" type="matrix" values="0 0 0 0 0 0 0 0 0 0 0 0 0 0 0 0 0 0 127 0" result="hardAlpha"/>
<feOffset dx="0.625781"/>
<feComposite in2="hardAlpha" operator="out"/>
<feColorMatrix type="matrix" values="0 0 0 0 0.894118 0 0 0 0 0.909804 0 0 0 0 0.941176 0 0 0 1 0"/>
<feBlend mode="normal" in2="BackgroundImageFix" result="effect1_dropShadow_2264_11425"/>
<feBlend mode="normal" in="SourceGraphic" in2="effect1_dropShadow_2264_11425" result="shape"/>
</filter>
<filter id="filter5_d_2264_11425" x="31" y="142.96" width="113.266" height="23.7793" filterUnits="userSpaceOnUse" color-interpolation-filters="sRGB">
<feFlood flood-opacity="0" result="BackgroundImageFix"/>
<feColorMatrix in="SourceAlpha" type="matrix" values="0 0 0 0 0 0 0 0 0 0 0 0 0 0 0 0 0 0 127 0" result="hardAlpha"/>
<feOffset dx="0.625781"/>
<feComposite in2="hardAlpha" operator="out"/>
<feColorMatrix type="matrix" values="0 0 0 0 0.894118 0 0 0 0 0.909804 0 0 0 0 0.941176 0 0 0 1 0"/>
<feBlend mode="normal" in2="BackgroundImageFix" result="effect1_dropShadow_2264_11425"/>
<feBlend mode="normal" in="SourceGraphic" in2="effect1_dropShadow_2264_11425" result="shape"/>
</filter>
<filter id="filter6_d_2264_11425" x="31" y="25" width="113.266" height="33.792" filterUnits="userSpaceOnUse" color-interpolation-filters="sRGB">
<feFlood flood-opacity="0" result="BackgroundImageFix"/>
<feColorMatrix in="SourceAlpha" type="matrix" values="0 0 0 0 0 0 0 0 0 0 0 0 0 0 0 0 0 0 127 0" result="hardAlpha"/>
<feOffset dx="0.625781"/>
<feComposite in2="hardAlpha" operator="out"/>
<feColorMatrix type="matrix" values="0 0 0 0 0.894118 0 0 0 0 0.909804 0 0 0 0 0.941176 0 0 0 1 0"/>
<feBlend mode="normal" in2="BackgroundImageFix" result="effect1_dropShadow_2264_11425"/>
<feBlend mode="normal" in="SourceGraphic" in2="effect1_dropShadow_2264_11425" result="shape"/>
</filter>
<clipPath id="clip0_2264_11425">
<rect width="364" height="162.463" fill="white"/>
</clipPath>
<clipPath id="clip1_2264_11425">
<rect width="646.432" height="200.25" fill="white" transform="translate(31 25)"/>
</clipPath>
</defs>
</svg>
