<svg width="364" height="163" viewBox="0 0 364 163" fill="none" xmlns="http://www.w3.org/2000/svg">
<g clip-path="url(#clip0_2264_11720)">
<g filter="url(#filter0_d_2264_11720)">
<mask id="path-1-inside-1_2264_11720" fill="white">
<path d="M50 34C50 31.7909 51.7909 30 54 30H269.083C271.292 30 273.083 31.7909 273.083 34V67.25C273.083 69.4591 271.292 71.25 269.083 71.25H54C51.7909 71.25 50 69.4591 50 67.25V34Z"/>
</mask>
<path d="M50 34C50 31.7909 51.7909 30 54 30H269.083C271.292 30 273.083 31.7909 273.083 34V67.25C273.083 69.4591 271.292 71.25 269.083 71.25H54C51.7909 71.25 50 69.4591 50 67.25V34Z" fill="white"/>
<path d="M54 30V31H269.083V30V29H54V30ZM273.083 34H272.083V67.25H273.083H274.083V34H273.083ZM269.083 71.25V70.25H54V71.25V72.25H269.083V71.25ZM50 67.25H51V34H50H49V67.25H50ZM54 71.25V70.25C52.3431 70.25 51 68.9069 51 67.25H50H49C49 70.0114 51.2386 72.25 54 72.25V71.25ZM273.083 67.25H272.083C272.083 68.9069 270.74 70.25 269.083 70.25V71.25V72.25C271.845 72.25 274.083 70.0114 274.083 67.25H273.083ZM269.083 30V31C270.74 31 272.083 32.3431 272.083 34H273.083H274.083C274.083 31.2386 271.845 29 269.083 29V30ZM54 30V29C51.2386 29 49 31.2386 49 34H50H51C51 32.3431 52.3431 31 54 31V30Z" fill="#E4E8F0" mask="url(#path-1-inside-1_2264_11720)"/>
<path d="M95.5 38.8667C95.5 36.6576 97.2909 34.8667 99.5 34.8667H122.833C125.042 34.8667 126.833 36.6576 126.833 38.8667V62.3667C126.833 64.5758 125.042 66.3667 122.833 66.3667H99.5C97.2909 66.3667 95.5 64.5758 95.5 62.3667V38.8667Z" fill="#0056CF"/>
<path d="M112.728 56.8667H110.656V49.4887L108.92 50.1607V48.1307L111.09 47.2487H112.728V56.8667Z" fill="white"/>
<rect width="33.2333" height="31.5" transform="translate(126.833 34.8667)" fill="white"/>
<path d="M140.407 56.8667V56.0127L143.991 52.2187C144.817 51.3507 145.069 50.7487 145.069 50.0067C145.069 49.0127 144.201 48.2567 143.081 48.2567C142.199 48.2567 141.289 48.8447 140.519 49.7967V48.3267C141.191 47.5707 142.185 47.0947 143.095 47.0947C144.943 47.0947 146.301 48.2847 146.301 49.9507C146.301 51.0987 145.853 51.9387 144.817 53.0307L142.255 55.7187H146.427V56.8667H140.407Z" fill="#242B42"/>
<rect width="33.2" height="31.5" transform="translate(160.066 34.8667)" fill="white"/>
<path d="M176.3 55.8587C177.49 55.8587 178.414 55.1447 178.414 54.0947C178.414 53.0727 177.504 52.3727 176.342 52.3727H175.432V51.2527H176.342C177.224 51.2527 178.036 50.5527 178.036 49.7547C178.036 48.8867 177.266 48.2427 176.272 48.2427C175.46 48.2427 174.704 48.6207 173.934 49.2927V47.9207C174.634 47.3887 175.46 47.0947 176.286 47.0947C178.022 47.0947 179.254 48.1867 179.254 49.6427C179.254 50.5527 178.764 51.3367 177.91 51.7427C178.974 52.0927 179.66 53.0167 179.66 54.1087C179.66 55.8167 178.232 57.0207 176.314 57.0207C175.39 57.0207 174.522 56.7827 173.682 56.2647V54.9207C174.536 55.5507 175.404 55.8587 176.3 55.8587Z" fill="#242B42"/>
<rect width="34.3167" height="31.5" transform="translate(193.267 34.8667)" fill="white"/>
<path d="M206.631 54.6127V53.6747L211.405 47.2627H212.805V53.5207H214.149V54.6127H212.805V56.8667H211.587V54.6127H206.631ZM208.087 53.5207H211.587V48.8447L208.087 53.5207Z" fill="#242B42"/>
<mask id="path-8-inside-2_2264_11720" fill="white">
<path d="M231.583 34.8667H272.083V66.3667H231.583V34.8667Z"/>
</mask>
<path d="M231.583 34.8667H272.083V66.3667H231.583V34.8667Z" fill="white"/>
<path d="M231.583 66.3667H232.583V34.8667H231.583H230.583V66.3667H231.583Z" fill="#E4E8F0" mask="url(#path-8-inside-2_2264_11720)"/>
<path d="M256.298 50.1517C256.544 50.4253 256.544 50.8354 256.298 51.0815L251.048 56.3315C250.774 56.6051 250.364 56.6051 250.118 56.3315C250.054 56.2753 250.002 56.2059 249.967 56.1281C249.931 56.0503 249.913 55.9658 249.913 55.8803C249.913 55.7948 249.931 55.7103 249.967 55.6325C250.002 55.5547 250.054 55.4853 250.118 55.4291L254.903 50.644L250.118 45.8315C250.054 45.7753 250.002 45.7059 249.967 45.6281C249.931 45.5503 249.913 45.4658 249.913 45.3803C249.913 45.2948 249.931 45.2103 249.967 45.1325C250.002 45.0547 250.054 44.9853 250.118 44.9291C250.174 44.8647 250.244 44.8131 250.321 44.7778C250.399 44.7424 250.484 44.7241 250.569 44.7241C250.655 44.7241 250.739 44.7424 250.817 44.7778C250.895 44.8131 250.964 44.8647 251.02 44.9291L256.298 50.1517Z" fill="#242B42"/>
<g opacity="0.5">
<mask id="path-11-inside-3_2264_11720" fill="white">
<path d="M51 34.8667H91.5V66.3667H51V34.8667Z"/>
</mask>
<path d="M51 34.8667H91.5V66.3667H51V34.8667Z" fill="white"/>
<path d="M91.5 34.8667H90.5V66.3667H91.5H92.5V34.8667H91.5Z" fill="#E4E8F0" mask="url(#path-11-inside-3_2264_11720)"/>
<path d="M66.7853 50.1519L72.0353 44.9293C72.2814 44.6557 72.6915 44.6557 72.9651 44.9293C73.0835 45.0497 73.1498 45.2117 73.1498 45.3805C73.1498 45.5493 73.0835 45.7114 72.9651 45.8317L68.1526 50.6168L72.9377 55.4293C73.0021 55.4855 73.0537 55.5549 73.089 55.6327C73.1244 55.7105 73.1427 55.795 73.1427 55.8805C73.1427 55.966 73.1244 56.0505 73.089 56.1283C73.0537 56.2061 73.0021 56.2755 72.9377 56.3317C72.8815 56.3961 72.8121 56.4477 72.7343 56.4831C72.6564 56.5184 72.572 56.5367 72.4865 56.5367C72.401 56.5367 72.3165 56.5184 72.2387 56.4831C72.1609 56.4477 72.0915 56.3961 72.0353 56.3317L66.7853 51.0817C66.5117 50.8356 66.5117 50.4255 66.7853 50.1519Z" fill="#B0BDC7"/>
</g>
<rect width="1033" height="814" transform="translate(50 79.25)" fill="white"/>
<g filter="url(#filter1_d_2264_11720)">
<mask id="path-14-inside-4_2264_11720" fill="white">
<path d="M50 83.25C50 81.0409 51.7909 79.25 54 79.25H230V133.25H50V83.25Z"/>
</mask>
<path d="M50 83.25C50 81.0409 51.7909 79.25 54 79.25H230V133.25H50V83.25Z" fill="white" fill-opacity="0.01" shape-rendering="crispEdges"/>
<path d="M49 83.25C49 80.4886 51.2386 78.25 54 78.25H230V80.25H54C52.3431 80.25 51 81.5931 51 83.25H49ZM230 134.25H49L51 132.25H230V134.25ZM49 134.25V83.25C49 80.4886 51.2386 78.25 54 78.25V80.25C52.3431 80.25 51 81.5931 51 83.25V132.25L49 134.25ZM51 132.25M230 79.25V133.25V79.25" fill="#E4E8F0" mask="url(#path-14-inside-4_2264_11720)"/>
<path d="M67.9737 90.8148L69.7487 92.6148C69.9988 92.8644 69.9988 93.2393 69.7487 93.4644C69.5236 93.7151 69.1487 93.7151 68.8991 93.4644L68.1236 92.69V94.8393C68.1236 95.1897 67.874 95.4393 67.5236 95.4393C67.4445 95.4404 67.366 95.4256 67.2927 95.3958C67.2195 95.3661 67.1529 95.3219 67.097 95.266C67.041 95.2101 66.9969 95.1435 66.9671 95.0702C66.9373 94.9969 66.9225 94.9184 66.9236 94.8393V92.69L66.1492 93.4639C66.0978 93.5227 66.0344 93.5699 65.9632 93.6022C65.8921 93.6346 65.8148 93.6513 65.7367 93.6513C65.6585 93.6513 65.5813 93.6346 65.5101 93.6022C65.439 93.5699 65.3756 93.5227 65.3242 93.4639C65.0746 93.2388 65.0746 92.8639 65.3242 92.6143L67.1236 90.8148C67.3487 90.5897 67.7236 90.5897 67.9737 90.8148ZM68.1487 99.2393V101.415L68.9236 100.639C69.1487 100.39 69.5236 100.39 69.7737 100.639C69.8819 100.749 69.9424 100.898 69.9424 101.052C69.9424 101.206 69.8819 101.354 69.7737 101.464L67.9737 103.264C67.7236 103.515 67.3487 103.515 67.1236 103.264L65.3236 101.464C65.2648 101.413 65.2176 101.35 65.1853 101.278C65.1529 101.207 65.1362 101.13 65.1362 101.052C65.1362 100.974 65.1529 100.896 65.1853 100.825C65.2176 100.754 65.2648 100.691 65.3236 100.639C65.5487 100.39 65.9236 100.39 66.1738 100.639L66.9487 101.415V99.2393C66.9487 98.9145 67.1988 98.6393 67.5487 98.6393C67.874 98.6393 68.1487 98.9145 68.1487 99.2393ZM62.5487 96.4393H72.5487C72.874 96.4393 73.1487 96.7145 73.1487 97.0393C73.1498 97.1184 73.135 97.1969 73.1052 97.2702C73.0754 97.3435 73.0313 97.4101 72.9753 97.466C72.9194 97.5219 72.8528 97.5661 72.7796 97.5958C72.7063 97.6256 72.6278 97.6404 72.5487 97.6393H62.5492C62.1994 97.6393 61.9492 97.3897 61.9492 97.0393C61.9492 96.7145 62.1999 96.4393 62.5492 96.4393H62.5487Z" fill="#687887"/>
<path d="M90.5403 97.602V101.25H88.7283V97.602L85.7283 92.85H87.7923L89.6523 95.922L91.5123 92.85H93.5403L90.5403 97.602ZM95.6784 101.25V92.85H100.622V94.482H97.4784V96.186H100.346V97.77H97.4784V99.618H100.646V101.25H95.6784ZM105.939 92.85H107.535L110.907 101.25H109.023L108.315 99.438H105.111L104.403 101.25H102.555L105.939 92.85ZM106.707 95.142L105.663 97.89H107.775L106.707 95.142ZM114.878 98.178V101.25H113.09V92.85H115.886C117.698 92.85 118.958 93.822 118.958 95.538C118.958 96.738 118.238 97.578 117.23 97.962L119.546 101.25H117.422L115.358 98.178H114.878ZM114.878 94.47V96.69H115.898C116.618 96.69 117.146 96.27 117.146 95.574C117.146 94.866 116.618 94.47 115.898 94.47H114.878Z" fill="#4B546B"/>
</g>
<mask id="path-18-inside-5_2264_11720" fill="white">
<path d="M230 79.25H367.533V133.25H230V79.25Z"/>
</mask>
<path d="M230 79.25V80.25H367.533V79.25V78.25H230V79.25ZM367.533 133.25V132.25H230V133.25V134.25H367.533V133.25Z" fill="#E4E8F0" mask="url(#path-18-inside-5_2264_11720)"/>
<path d="M334.641 92.85H336.393V101.25H334.593L330.645 95.706V101.25H328.893V92.85H330.729L334.641 98.418V92.85ZM339.375 101.25V92.85H344.319V94.482H341.175V96.186H344.043V97.77H341.175V99.618H344.343V101.25H339.375ZM350.771 101.25H349.307L346.427 92.85H348.311L350.063 98.406L351.851 92.85H353.315L355.091 98.406L356.855 92.85H358.703L355.823 101.25H354.347L352.559 95.646L350.771 101.25ZM264.525 119.25V110.85H269.469V112.482H266.325V114.186H269.193V115.77H266.325V117.618H269.493V119.25H264.525ZM277.883 110.85H279.635V119.25H277.835L273.887 113.706V119.25H272.135V110.85H273.971L277.883 116.418V110.85ZM284.404 116.178V119.25H282.616V110.85H285.412C287.224 110.85 288.484 111.822 288.484 113.538C288.484 114.738 287.764 115.578 286.756 115.962L289.072 119.25H286.948L284.884 116.178H284.404ZM284.404 112.47V114.69H285.424C286.144 114.69 286.672 114.27 286.672 113.574C286.672 112.866 286.144 112.47 285.424 112.47H284.404ZM299.493 115.05C299.493 117.474 297.537 119.406 295.101 119.406C292.665 119.406 290.709 117.474 290.709 115.05C290.709 112.626 292.665 110.694 295.101 110.694C297.537 110.694 299.493 112.626 299.493 115.05ZM297.645 115.05C297.645 113.598 296.529 112.446 295.101 112.446C293.673 112.446 292.557 113.598 292.557 115.05C292.557 116.502 293.673 117.654 295.101 117.654C296.529 117.654 297.645 116.502 297.645 115.05ZM302.079 110.85H303.879V117.558H306.807V119.25H302.079V110.85ZM309.15 110.85H310.95V117.558H313.878V119.25H309.15V110.85ZM320.109 117.042L317.973 113.682V119.25H316.221V110.85H318.105L320.637 114.846L323.157 110.85H324.993V119.25H323.241V113.658L321.093 117.042H320.109ZM327.968 119.25V110.85H332.912V112.482H329.768V114.186H332.636V115.77H329.768V117.618H332.936V119.25H327.968ZM341.326 110.85H343.078V119.25H341.278L337.33 113.706V119.25H335.578V110.85H337.414L341.326 116.418V110.85ZM345.387 112.53V110.85H351.627V112.53H349.419V119.25H347.607V112.53H345.387ZM353.652 118.686V116.55C354.456 117.294 355.62 117.714 356.52 117.714C357.336 117.714 357.792 117.39 357.792 116.802C357.792 116.118 356.952 115.974 356.016 115.722C354.864 115.422 353.556 114.99 353.556 113.346C353.556 111.738 354.852 110.694 356.676 110.694C357.672 110.694 358.524 110.922 359.268 111.39V113.394C358.488 112.722 357.588 112.362 356.688 112.362C355.8 112.362 355.416 112.734 355.416 113.238C355.416 113.79 356.124 113.97 356.94 114.186C358.152 114.498 359.664 114.906 359.664 116.67C359.664 118.278 358.476 119.406 356.556 119.406C355.512 119.406 354.408 119.154 353.652 118.686Z" fill="#4B546B"/>
<rect width="1033" height="38" transform="translate(50 133.25)" fill="white"/>
<g filter="url(#filter2_d_2264_11720)">
<mask id="path-21-inside-6_2264_11720" fill="white">
<path d="M50 133.25H230V171.25H50V133.25Z"/>
</mask>
<path d="M50 133.25H230V171.25H50V133.25Z" fill="white" fill-opacity="0.01" shape-rendering="crispEdges"/>
<path d="M50 171.25H49V172.25H50V171.25ZM230 171.25V170.25H50V171.25V172.25H230V171.25ZM50 171.25H51V133.25H50H49V171.25H50Z" fill="#E4E8F0" mask="url(#path-21-inside-6_2264_11720)"/>
<path d="M84.2841 156.5V155.646L87.8681 151.852C88.6941 150.984 88.9461 150.382 88.9461 149.64C88.9461 148.646 88.0781 147.89 86.9581 147.89C86.0761 147.89 85.1661 148.478 84.3961 149.43V147.96C85.0681 147.204 86.0621 146.728 86.9721 146.728C88.8201 146.728 90.1781 147.918 90.1781 149.584C90.1781 150.732 89.7301 151.572 88.6941 152.664L86.1321 155.352H90.3041V156.5H84.2841ZM95.5963 156.654C92.9783 156.654 91.7183 154.288 91.7183 151.698C91.7183 149.094 92.9783 146.728 95.5963 146.728C98.2143 146.728 99.4743 149.094 99.4743 151.698C99.4743 154.288 98.2143 156.654 95.5963 156.654ZM95.5963 155.492C97.4163 155.492 98.2283 153.658 98.2283 151.698C98.2283 149.738 97.4163 147.89 95.5963 147.89C93.7763 147.89 92.9643 149.738 92.9643 151.698C92.9643 153.658 93.7763 155.492 95.5963 155.492ZM104.967 156.654C102.349 156.654 101.089 154.288 101.089 151.698C101.089 149.094 102.349 146.728 104.967 146.728C107.585 146.728 108.845 149.094 108.845 151.698C108.845 154.288 107.585 156.654 104.967 156.654ZM104.967 155.492C106.787 155.492 107.599 153.658 107.599 151.698C107.599 149.738 106.787 147.89 104.967 147.89C103.147 147.89 102.335 149.738 102.335 151.698C102.335 153.658 103.147 155.492 104.967 155.492ZM114.338 156.654C111.72 156.654 110.46 154.288 110.46 151.698C110.46 149.094 111.72 146.728 114.338 146.728C116.956 146.728 118.216 149.094 118.216 151.698C118.216 154.288 116.956 156.654 114.338 156.654ZM114.338 155.492C116.158 155.492 116.97 153.658 116.97 151.698C116.97 149.738 116.158 147.89 114.338 147.89C112.518 147.89 111.706 149.738 111.706 151.698C111.706 153.658 112.518 155.492 114.338 155.492Z" fill="#242B42"/>
<path d="M73.1322 150.483C73.1322 148.633 72.1322 146.934 70.5322 145.983C68.9072 145.058 66.9322 145.058 65.3322 145.983C63.7072 146.934 62.7322 148.634 62.7322 150.483C62.7322 152.359 63.7072 154.058 65.3322 155.008C66.9322 155.934 68.9072 155.934 70.5322 155.008C72.1322 154.059 73.1322 152.359 73.1322 150.483ZM61.5322 150.483C61.5304 149.362 61.8255 148.26 62.3875 147.289C62.9496 146.319 63.7586 145.515 64.7322 144.958C66.7072 143.808 69.1322 143.808 71.1322 144.958C73.1072 146.109 74.3322 148.208 74.3322 150.483C74.3322 152.784 73.1072 154.883 71.1322 156.033C69.1322 157.184 66.7072 157.184 64.7322 156.033C62.7322 154.883 61.5322 152.784 61.5322 150.483ZM66.2325 147.783C66.3206 147.722 66.4253 147.689 66.5325 147.689C66.6397 147.689 66.7444 147.722 66.8325 147.783L70.4325 149.983C70.6074 150.083 70.7322 150.283 70.7322 150.509C70.7322 150.709 70.6074 150.909 70.4325 151.008L66.8325 153.208C66.657 153.334 66.4074 153.334 66.2325 153.233C66.1416 153.179 66.0662 153.102 66.0136 153.01C65.961 152.918 65.933 152.814 65.9322 152.708V148.283C65.9322 148.083 66.0325 147.883 66.2325 147.783Z" fill="#687887"/>
</g>
<mask id="path-26-inside-7_2264_11720" fill="white">
<path d="M230 133.25H367.533V171.25H230V133.25Z"/>
</mask>
<path d="M367.533 171.25V170.25H230V171.25V172.25H367.533V171.25Z" fill="#E4E8F0" mask="url(#path-26-inside-7_2264_11720)"/>
<path d="M343.658 156.5V155.646L347.242 151.852C348.068 150.984 348.32 150.382 348.32 149.64C348.32 148.646 347.452 147.89 346.332 147.89C345.45 147.89 344.54 148.478 343.77 149.43V147.96C344.442 147.204 345.436 146.728 346.346 146.728C348.194 146.728 349.552 147.918 349.552 149.584C349.552 150.732 349.104 151.572 348.068 152.664L345.506 155.352H349.678V156.5H343.658ZM354.971 156.654C352.353 156.654 351.093 154.288 351.093 151.698C351.093 149.094 352.353 146.728 354.971 146.728C357.589 146.728 358.849 149.094 358.849 151.698C358.849 154.288 357.589 156.654 354.971 156.654ZM354.971 155.492C356.791 155.492 357.603 153.658 357.603 151.698C357.603 149.738 356.791 147.89 354.971 147.89C353.151 147.89 352.339 149.738 352.339 151.698C352.339 153.658 353.151 155.492 354.971 155.492Z" fill="#242B42"/>
</g>
</g>
<defs>
<filter id="filter0_d_2264_11720" x="40" y="24" width="1053" height="932.5" filterUnits="userSpaceOnUse" color-interpolation-filters="sRGB">
<feFlood flood-opacity="0" result="BackgroundImageFix"/>
<feColorMatrix in="SourceAlpha" type="matrix" values="0 0 0 0 0 0 0 0 0 0 0 0 0 0 0 0 0 0 127 0" result="hardAlpha"/>
<feOffset dy="4"/>
<feGaussianBlur stdDeviation="5"/>
<feColorMatrix type="matrix" values="0 0 0 0 0.235294 0 0 0 0 0.415686 0 0 0 0 0.67451 0 0 0 0.16 0"/>
<feBlend mode="normal" in2="BackgroundImageFix" result="effect1_dropShadow_2264_11720"/>
<feBlend mode="normal" in="SourceGraphic" in2="effect1_dropShadow_2264_11720" result="shape"/>
</filter>
<filter id="filter1_d_2264_11720" x="50" y="79.25" width="181" height="54" filterUnits="userSpaceOnUse" color-interpolation-filters="sRGB">
<feFlood flood-opacity="0" result="BackgroundImageFix"/>
<feColorMatrix in="SourceAlpha" type="matrix" values="0 0 0 0 0 0 0 0 0 0 0 0 0 0 0 0 0 0 127 0" result="hardAlpha"/>
<feOffset dx="1"/>
<feComposite in2="hardAlpha" operator="out"/>
<feColorMatrix type="matrix" values="0 0 0 0 0.894118 0 0 0 0 0.909804 0 0 0 0 0.941176 0 0 0 1 0"/>
<feBlend mode="normal" in2="BackgroundImageFix" result="effect1_dropShadow_2264_11720"/>
<feBlend mode="normal" in="SourceGraphic" in2="effect1_dropShadow_2264_11720" result="shape"/>
</filter>
<filter id="filter2_d_2264_11720" x="50" y="133.25" width="181" height="38" filterUnits="userSpaceOnUse" color-interpolation-filters="sRGB">
<feFlood flood-opacity="0" result="BackgroundImageFix"/>
<feColorMatrix in="SourceAlpha" type="matrix" values="0 0 0 0 0 0 0 0 0 0 0 0 0 0 0 0 0 0 127 0" result="hardAlpha"/>
<feOffset dx="1"/>
<feComposite in2="hardAlpha" operator="out"/>
<feColorMatrix type="matrix" values="0 0 0 0 0.894118 0 0 0 0 0.909804 0 0 0 0 0.941176 0 0 0 1 0"/>
<feBlend mode="normal" in2="BackgroundImageFix" result="effect1_dropShadow_2264_11720"/>
<feBlend mode="normal" in="SourceGraphic" in2="effect1_dropShadow_2264_11720" result="shape"/>
</filter>
<clipPath id="clip0_2264_11720">
<rect width="364" height="162.463" fill="white"/>
</clipPath>
</defs>
</svg>
