<svg width="364" height="163" viewBox="0 0 364 163" fill="none" xmlns="http://www.w3.org/2000/svg">
<g clip-path="url(#clip0_2264_12194)">
<g filter="url(#filter0_d_2264_12194)">
<rect width="590.747" height="183" transform="translate(27 22)" fill="white"/>
<g filter="url(#filter1_d_2264_12194)">
<mask id="path-1-inside-1_2264_12194" fill="white">
<path d="M27 24.2875C27 23.0242 28.0241 22 29.2875 22H129.938V52.8813H27V24.2875Z"/>
</mask>
<path d="M27 24.2875C27 23.0242 28.0241 22 29.2875 22H129.938V52.8813H27V24.2875Z" fill="white" fill-opacity="0.01" shape-rendering="crispEdges"/>
<path d="M26.4281 24.2875C26.4281 22.7083 27.7083 21.4281 29.2875 21.4281H129.938V22.5719H29.2875C28.34 22.5719 27.5719 23.34 27.5719 24.2875H26.4281ZM129.938 53.4531H26.4281L27.5719 52.3094H129.938V53.4531ZM26.4281 53.4531V24.2875C26.4281 22.7083 27.7083 21.4281 29.2875 21.4281V22.5719C28.34 22.5719 27.5719 23.34 27.5719 24.2875V52.3094L26.4281 53.4531ZM27.5719 52.3094M129.938 22V52.8813V22" fill="#E4E8F0" mask="url(#path-1-inside-1_2264_12194)"/>
<path d="M37.2783 28.6136L38.2933 29.643C38.4364 29.7857 38.4364 30.0002 38.2933 30.1289C38.1646 30.2722 37.9502 30.2722 37.8075 30.1289L37.364 29.686V30.9152C37.364 31.1155 37.2213 31.2583 37.0209 31.2583C36.9756 31.2589 36.9307 31.2504 36.8888 31.2334C36.8469 31.2164 36.8089 31.1911 36.7769 31.1591C36.7449 31.1272 36.7196 31.0891 36.7026 31.0472C36.6856 31.0053 36.6771 30.9604 36.6777 30.9152V29.686L36.2349 30.1286C36.2055 30.1622 36.1692 30.1892 36.1285 30.2077C36.0878 30.2262 36.0437 30.2357 35.999 30.2357C35.9543 30.2357 35.9101 30.2262 35.8694 30.2077C35.8287 30.1892 35.7924 30.1622 35.763 30.1286C35.6203 29.9998 35.6203 29.7854 35.763 29.6427L36.7921 28.6136C36.9208 28.4849 37.1352 28.4849 37.2783 28.6136ZM37.3783 33.4314V34.6755L37.8215 34.232C37.9502 34.0893 38.1646 34.0893 38.3077 34.232C38.3695 34.295 38.4041 34.3797 38.4041 34.4679C38.4041 34.5562 38.3695 34.6409 38.3077 34.7039L37.2783 35.7332C37.1352 35.8766 36.9208 35.8766 36.7921 35.7332L35.7627 34.7039C35.7291 34.6745 35.7021 34.6382 35.6836 34.5975C35.6651 34.5568 35.6556 34.5126 35.6556 34.4679C35.6556 34.4232 35.6651 34.3791 35.6836 34.3384C35.7021 34.2977 35.7291 34.2614 35.7627 34.232C35.8915 34.0893 36.1059 34.0893 36.2489 34.232L36.6921 34.6755V33.4314C36.6921 33.2457 36.8351 33.0883 37.0352 33.0883C37.2213 33.0883 37.3783 33.2457 37.3783 33.4314ZM34.1758 31.8302H39.8946C40.0806 31.8302 40.2377 31.9875 40.2377 32.1733C40.2383 32.2185 40.2299 32.2634 40.2128 32.3053C40.1958 32.3472 40.1706 32.3853 40.1386 32.4173C40.1066 32.4493 40.0685 32.4745 40.0266 32.4915C39.9847 32.5086 39.9398 32.517 39.8946 32.5164H34.1761C33.9761 32.5164 33.833 32.3737 33.833 32.1733C33.833 31.9875 33.9764 31.8302 34.1761 31.8302H34.1758Z" fill="#687887"/>
<path d="M50.7396 33.0608V35.147H49.7034V33.0608L47.9878 30.3432H49.1681L50.2318 32.1L51.2955 30.3432H52.4553L50.7396 33.0608ZM53.678 35.147V30.3432H56.5054V31.2765H54.7074V32.251H56.3475V33.1568H54.7074V34.2137H56.5191V35.147H53.678ZM59.5459 30.3432H60.4586L62.387 35.147H61.3096L60.9047 34.1107H59.0724L58.6675 35.147H57.6107L59.5459 30.3432ZM59.9851 31.654L59.3881 33.2255H60.5959L59.9851 31.654ZM64.6579 33.3902V35.147H63.6354V30.3432H65.2343C66.2706 30.3432 66.9911 30.8991 66.9911 31.8804C66.9911 32.5667 66.5794 33.047 66.0029 33.2666L67.3274 35.147H66.1127L64.9324 33.3902H64.6579ZM64.6579 31.2697V32.5392H65.2412C65.6529 32.5392 65.9549 32.299 65.9549 31.901C65.9549 31.4961 65.6529 31.2697 65.2412 31.2697H64.6579Z" fill="#4B546B"/>
</g>
<mask id="path-5-inside-2_2264_12194" fill="white">
<path d="M129.938 22H208.589V52.8813H129.938V22Z"/>
</mask>
<path d="M129.938 22V22.5719H208.589V22V21.4281H129.938V22ZM208.589 52.8813V52.3094H129.938V52.8813V53.4531H208.589V52.8813Z" fill="#E4E8F0" mask="url(#path-5-inside-2_2264_12194)"/>
<path d="M189.779 30.3432H190.781V35.147H189.752L187.494 31.9765V35.147H186.492V30.3432H187.542L189.779 33.5274V30.3432ZM192.486 35.147V30.3432H195.313V31.2765H193.515V32.251H195.155V33.1568H193.515V34.2137H195.327V35.147H192.486ZM199.003 35.147H198.166L196.519 30.3432H197.597L198.598 33.5206L199.621 30.3432H200.458L201.474 33.5206L202.483 30.3432H203.539L201.892 35.147H201.048L200.026 31.9422L199.003 35.147ZM149.681 45.147V40.3432H152.508V41.2765H150.711V42.251H152.351V43.1568H150.711V44.2137H152.522V45.147H149.681ZM157.32 40.3432H158.322V45.147H157.293L155.035 41.9765V45.147H154.033V40.3432H155.083L157.32 43.5274V40.3432ZM161.05 43.3902V45.147H160.027V40.3432H161.626C162.662 40.3432 163.383 40.8991 163.383 41.8804C163.383 42.5667 162.971 43.047 162.395 43.2666L163.719 45.147H162.505L161.324 43.3902H161.05ZM161.05 41.2697V42.5392H161.633C162.045 42.5392 162.347 42.299 162.347 41.901C162.347 41.4961 162.045 41.2697 161.633 41.2697H161.05ZM169.679 42.7451C169.679 44.1313 168.56 45.2362 167.167 45.2362C165.774 45.2362 164.655 44.1313 164.655 42.7451C164.655 41.3589 165.774 40.254 167.167 40.254C168.56 40.254 169.679 41.3589 169.679 42.7451ZM168.622 42.7451C168.622 41.9147 167.984 41.2559 167.167 41.2559C166.35 41.2559 165.712 41.9147 165.712 42.7451C165.712 43.5755 166.35 44.2343 167.167 44.2343C167.984 44.2343 168.622 43.5755 168.622 42.7451ZM171.157 40.3432H172.187V44.1794H173.861V45.147H171.157V40.3432ZM175.201 40.3432H176.23V44.1794H177.905V45.147H175.201V40.3432ZM181.468 43.8843L180.247 41.9628V45.147H179.245V40.3432H180.322L181.77 42.6284L183.211 40.3432H184.261V45.147H183.259V41.949L182.031 43.8843H181.468ZM185.963 45.147V40.3432H188.79V41.2765H186.992V42.251H188.632V43.1568H186.992V44.2137H188.804V45.147H185.963ZM193.602 40.3432H194.604V45.147H193.574L191.317 41.9765V45.147H190.315V40.3432H191.365L193.602 43.5274V40.3432ZM195.924 41.304V40.3432H199.493V41.304H198.23V45.147H197.194V41.304H195.924ZM200.651 44.8244V43.6029C201.11 44.0284 201.776 44.2686 202.291 44.2686C202.757 44.2686 203.018 44.0833 203.018 43.747C203.018 43.3559 202.538 43.2735 202.002 43.1294C201.344 42.9578 200.596 42.7108 200.596 41.7706C200.596 40.851 201.337 40.254 202.38 40.254C202.95 40.254 203.437 40.3844 203.862 40.652V41.7981C203.416 41.4138 202.901 41.2079 202.387 41.2079C201.879 41.2079 201.659 41.4206 201.659 41.7089C201.659 42.0245 202.064 42.1275 202.531 42.251C203.224 42.4294 204.089 42.6627 204.089 43.6715C204.089 44.5911 203.409 45.2362 202.311 45.2362C201.714 45.2362 201.083 45.0921 200.651 44.8244Z" fill="#4B546B"/>
<mask id="path-8-inside-3_2264_12194" fill="white">
<path d="M208.589 22H289.929V52.8813H208.589V22Z"/>
</mask>
<path d="M208.589 22V22.5719H289.929V22V21.4281H208.589V22ZM289.929 52.8813V52.3094H208.589V52.8813V53.4531H289.929V52.8813Z" fill="#E4E8F0" mask="url(#path-8-inside-3_2264_12194)"/>
<path d="M241.65 34.8244V33.6029C242.11 34.0284 242.775 34.2686 243.29 34.2686C243.757 34.2686 244.017 34.0833 244.017 33.747C244.017 33.3559 243.537 33.2735 243.002 33.1294C242.343 32.9578 241.595 32.7108 241.595 31.7706C241.595 30.851 242.336 30.254 243.379 30.254C243.949 30.254 244.436 30.3844 244.861 30.652V31.7981C244.415 31.4138 243.901 31.2079 243.386 31.2079C242.878 31.2079 242.659 31.4206 242.659 31.7089C242.659 32.0245 243.063 32.1275 243.53 32.251C244.223 32.4294 245.088 32.6627 245.088 33.6715C245.088 34.5911 244.408 35.2362 243.31 35.2362C242.713 35.2362 242.082 35.0921 241.65 34.8244ZM246.248 32.7451C246.248 31.3383 247.346 30.254 248.732 30.254C249.151 30.254 249.576 30.3638 249.954 30.5765V31.6883C249.59 31.4138 249.212 31.2628 248.766 31.2628C247.929 31.2628 247.312 31.9147 247.312 32.7451C247.312 33.5617 247.902 34.2205 248.766 34.2205C249.206 34.2205 249.583 34.0764 249.96 33.8088V34.9136C249.542 35.147 249.103 35.2362 248.718 35.2362C247.263 35.2362 246.248 34.1725 246.248 32.7451ZM251.45 35.147V30.3432H252.486V32.203H254.407V30.3432H255.444V35.147H254.407V33.1912H252.486V35.147H251.45ZM257.149 35.147V30.3432H259.976V31.2765H258.178V32.251H259.818V33.1568H258.178V34.2137H259.99V35.147H257.149ZM265.57 32.7451C265.57 34.097 264.472 35.147 263.127 35.147H261.501V30.3432H263.127C264.472 30.3432 265.57 31.3932 265.57 32.7451ZM264.513 32.7451C264.513 31.949 263.896 31.3108 263.1 31.3108H262.53V34.1794H263.1C263.896 34.1794 264.513 33.5411 264.513 32.7451ZM268.912 35.2362C267.711 35.2362 266.984 34.4539 266.984 33.2392V30.3432H268.027V33.1843C268.027 33.8294 268.343 34.2343 268.912 34.2343C269.482 34.2343 269.798 33.8294 269.798 33.1843V30.3432H270.841V33.2392C270.841 34.4539 270.113 35.2362 268.912 35.2362ZM272.483 30.3432H273.513V34.1794H275.187V35.147H272.483V30.3432ZM276.527 35.147V30.3432H279.355V31.2765H277.557V32.251H279.197V33.1568H277.557V34.2137H279.368V35.147H276.527ZM284.949 32.7451C284.949 34.097 283.851 35.147 282.506 35.147H280.879V30.3432H282.506C283.851 30.3432 284.949 31.3932 284.949 32.7451ZM283.892 32.7451C283.892 31.949 283.274 31.3108 282.478 31.3108H281.909V34.1794H282.478C283.274 34.1794 283.892 33.5411 283.892 32.7451ZM250.255 43.8843L249.034 41.9628V45.147H248.032V40.3432H249.109L250.557 42.6284L251.998 40.3432H253.048V45.147H252.046V41.949L250.818 43.8843H250.255ZM254.75 45.147V40.3432H257.577V41.2765H255.779V42.251H257.419V43.1568H255.779V44.2137H257.591V45.147H254.75ZM259.102 45.147V40.3432H261.929V41.2765H260.131V42.251H261.771V43.1568H260.131V44.2137H261.943V45.147H259.102ZM263.17 41.304V40.3432H266.738V41.304H265.476V45.147H264.439V41.304H263.17ZM268.054 40.3432H269.09V45.147H268.054V40.3432ZM274.078 40.3432H275.08V45.147H274.05L271.793 41.9765V45.147H270.791V40.3432H271.841L274.078 43.5274V40.3432ZM279.886 44.1245V43.3353H278.816V42.45H280.854V44.7215C280.401 45.0372 279.825 45.2362 279.138 45.2362C277.642 45.2362 276.558 44.2892 276.558 42.7725C276.558 41.352 277.636 40.254 279.207 40.254C279.722 40.254 280.339 40.3913 280.758 40.652V41.7843C280.339 41.4618 279.838 41.2285 279.214 41.2285C278.226 41.2285 277.601 41.8873 277.601 42.7725C277.601 43.6921 278.267 44.2754 279.152 44.2754C279.454 44.2754 279.715 44.2068 279.886 44.1245ZM282.286 44.8244V43.6029C282.746 44.0284 283.411 44.2686 283.926 44.2686C284.393 44.2686 284.653 44.0833 284.653 43.747C284.653 43.3559 284.173 43.2735 283.638 43.1294C282.979 42.9578 282.231 42.7108 282.231 41.7706C282.231 40.851 282.972 40.254 284.015 40.254C284.585 40.254 285.072 40.3844 285.498 40.652V41.7981C285.052 41.4138 284.537 41.2079 284.022 41.2079C283.514 41.2079 283.295 41.4206 283.295 41.7089C283.295 42.0245 283.7 42.1275 284.166 42.251C284.859 42.4294 285.724 42.6627 285.724 43.6715C285.724 44.5911 285.045 45.2362 283.947 45.2362C283.35 45.2362 282.718 45.0921 282.286 44.8244Z" fill="#4B546B"/>
<mask id="path-11-inside-4_2264_12194" fill="white">
<path d="M289.929 22H363.891V52.8813H289.929V22Z"/>
</mask>
<path d="M289.929 22V22.5719H363.891V22V21.4281H289.929V22ZM363.891 52.8813V52.3094H289.929V52.8813V53.4531H363.891V52.8813Z" fill="#E4E8F0" mask="url(#path-11-inside-4_2264_12194)"/>
<path d="M310.831 30.3432H311.744L313.672 35.147H312.595L312.19 34.1107H310.358L309.953 35.147H308.896L310.831 30.3432ZM311.27 31.654L310.673 33.2255H311.881L311.27 31.654ZM313.96 31.304V30.3432H317.529V31.304H316.266V35.147H315.23V31.304H313.96ZM318.594 31.304V30.3432H322.162V31.304H320.899V35.147H319.863V31.304H318.594ZM323.477 35.147V30.3432H326.305V31.2765H324.507V32.251H326.147V33.1568H324.507V34.2137H326.318V35.147H323.477ZM331.117 30.3432H332.119V35.147H331.089L328.831 31.9765V35.147H327.829V30.3432H328.879L331.117 33.5274V30.3432ZM337.893 32.7451C337.893 34.097 336.795 35.147 335.45 35.147H333.823V30.3432H335.45C336.795 30.3432 337.893 31.3932 337.893 32.7451ZM336.836 32.7451C336.836 31.949 336.218 31.3108 335.422 31.3108H334.853V34.1794H335.422C336.218 34.1794 336.836 33.5411 336.836 32.7451ZM340.623 30.3432H341.536L343.464 35.147H342.386L341.982 34.1107H340.149L339.744 35.147H338.688L340.623 30.3432ZM341.062 31.654L340.465 33.2255H341.673L341.062 31.654ZM347.999 30.3432H349.001V35.147H347.972L345.714 31.9765V35.147H344.712V30.3432H345.762L347.999 33.5274V30.3432ZM350.48 32.7451C350.48 31.3383 351.578 30.254 352.964 30.254C353.383 30.254 353.808 30.3638 354.186 30.5765V31.6883C353.822 31.4138 353.444 31.2628 352.998 31.2628C352.161 31.2628 351.543 31.9147 351.543 32.7451C351.543 33.5617 352.134 34.2205 352.998 34.2205C353.438 34.2205 353.815 34.0764 354.192 33.8088V34.9136C353.774 35.147 353.335 35.2362 352.95 35.2362C351.495 35.2362 350.48 34.1725 350.48 32.7451ZM355.682 35.147V30.3432H358.509V31.2765H356.711V32.251H358.351V33.1568H356.711V34.2137H358.523V35.147H355.682ZM342.84 43.3902V45.147H341.817V40.3432H343.416C344.452 40.3432 345.173 40.8991 345.173 41.8804C345.173 42.5667 344.761 43.047 344.185 43.2666L345.509 45.147H344.295L343.114 43.3902H342.84ZM342.84 41.2697V42.5392H343.423C343.835 42.5392 344.137 42.299 344.137 41.901C344.137 41.4961 343.835 41.2697 343.423 41.2697H342.84ZM348.355 40.3432H349.268L351.196 45.147H350.119L349.714 44.1107H347.882L347.477 45.147H346.42L348.355 40.3432ZM348.794 41.654L348.197 43.2255H349.405L348.794 41.654ZM351.484 41.304V40.3432H355.053V41.304H353.79V45.147H352.754V41.304H351.484ZM356.368 45.147V40.3432H359.195V41.2765H357.397V42.251H359.037V43.1568H357.397V44.2137H359.209V45.147H356.368Z" fill="#4B546B"/>
<mask id="path-14-inside-5_2264_12194" fill="white">
<path d="M363.891 22H442.142V52.8813H363.891V22Z"/>
</mask>
<path d="M363.891 22V22.5719H442.142V22V21.4281H363.891V22ZM442.142 52.8813V52.3094H363.891V52.8813V53.4531H442.142V52.8813Z" fill="#E4E8F0" mask="url(#path-14-inside-5_2264_12194)"/>
<rect width="590.747" height="21.7313" transform="translate(27 52.8813)" fill="#F6F9FC"/>
<g filter="url(#filter2_d_2264_12194)">
<mask id="path-16-inside-6_2264_12194" fill="white">
<path d="M27 52.8813H129.938V74.6126H27V52.8813Z"/>
</mask>
<path d="M27 52.8813H129.938V74.6126H27V52.8813Z" fill="white" fill-opacity="0.01" shape-rendering="crispEdges"/>
<path d="M27 74.6126H26.4281V75.1845H27V74.6126ZM129.938 74.6126V74.0407H27V74.6126V75.1845H129.938V74.6126ZM27 74.6126H27.5719V52.8813H27H26.4281V74.6126H27Z" fill="#E4E8F0" mask="url(#path-16-inside-6_2264_12194)"/>
<path d="M51.0093 66.5991V66.1107L53.0589 63.941C53.5313 63.4447 53.6754 63.1004 53.6754 62.6761C53.6754 62.1076 53.179 61.6753 52.5385 61.6753C52.0341 61.6753 51.5137 62.0115 51.0734 62.556V61.7153C51.4577 61.283 52.0261 61.0108 52.5465 61.0108C53.6034 61.0108 54.38 61.6913 54.38 62.644C54.38 63.3005 54.1238 63.7809 53.5313 64.4054L52.0662 65.9426H54.452V66.5991H51.0093ZM57.4785 66.6872C55.9814 66.6872 55.2608 65.3341 55.2608 63.853C55.2608 62.3638 55.9814 61.0108 57.4785 61.0108C58.9757 61.0108 59.6963 62.3638 59.6963 63.853C59.6963 65.3341 58.9757 66.6872 57.4785 66.6872ZM57.4785 66.0227C58.5193 66.0227 58.9837 64.9739 58.9837 63.853C58.9837 62.7321 58.5193 61.6753 57.4785 61.6753C56.4377 61.6753 55.9733 62.7321 55.9733 63.853C55.9733 64.9739 56.4377 66.0227 57.4785 66.0227ZM60.3432 66.5991V66.1107L62.3928 63.941C62.8652 63.4447 63.0093 63.1004 63.0093 62.6761C63.0093 62.1076 62.5129 61.6753 61.8724 61.6753C61.368 61.6753 60.8476 62.0115 60.4073 62.556V61.7153C60.7916 61.283 61.36 61.0108 61.8804 61.0108C62.9372 61.0108 63.7138 61.6913 63.7138 62.644C63.7138 63.3005 63.4576 63.7809 62.8652 64.4054L61.4 65.9426H63.7859V66.5991H60.3432ZM66.1479 66.5991H65.4433V61.8914L64.4505 62.2998V61.5792L65.5714 61.0988H66.1479V66.5991Z" fill="#242B42"/>
<path d="M37.4457 65.8237C38.5037 65.8237 39.4757 65.2518 40.0192 64.3368C40.5481 63.4075 40.5481 62.2781 40.0192 61.3631C39.4754 60.4337 38.5034 59.8762 37.4457 59.8762C36.3733 59.8762 35.4012 60.4337 34.858 61.3631C34.3289 62.2781 34.3289 63.4075 34.858 64.3368C35.4009 65.2518 36.3733 65.8237 37.4457 65.8237ZM37.4457 59.1899C38.087 59.1889 38.7172 59.3576 39.2722 59.6791C39.8272 60.0005 40.2872 60.4631 40.6054 61.0199C41.263 62.1494 41.263 63.5362 40.6054 64.6799C39.9476 65.8093 38.7468 66.5099 37.4457 66.5099C36.1302 66.5099 34.9294 65.8093 34.2718 64.6799C33.614 63.5362 33.614 62.1494 34.2718 61.0199C34.9294 59.8762 36.1302 59.1899 37.4457 59.1899ZM38.9899 61.8779C39.0248 61.9283 39.0435 61.9882 39.0435 62.0495C39.0435 62.1108 39.0248 62.1706 38.9899 62.221L37.7317 64.2798C37.6744 64.3798 37.56 64.4512 37.4313 64.4512C37.3169 64.4512 37.2026 64.3798 37.1455 64.2798L35.8874 62.221C35.8157 62.1207 35.8157 61.9779 35.8731 61.8779C35.9041 61.8259 35.9481 61.7828 36.0006 61.7527C36.0532 61.7227 36.1126 61.7066 36.1732 61.7062H38.7038C38.8182 61.7062 38.9325 61.7635 38.9899 61.8779Z" fill="#687887"/>
</g>
<mask id="path-21-inside-7_2264_12194" fill="white">
<path d="M129.938 52.8813H208.589V74.6126H129.938V52.8813Z"/>
</mask>
<path d="M208.589 74.6126V74.0407H129.938V74.6126V75.1845H208.589V74.6126Z" fill="#E4E8F0" mask="url(#path-21-inside-7_2264_12194)"/>
<path d="M195.213 66.5991V66.1107L197.263 63.941C197.735 63.4447 197.879 63.1004 197.879 62.6761C197.879 62.1076 197.383 61.6753 196.742 61.6753C196.238 61.6753 195.718 62.0115 195.277 62.556V61.7153C195.662 61.283 196.23 61.0108 196.75 61.0108C197.807 61.0108 198.584 61.6913 198.584 62.644C198.584 63.3005 198.328 63.7809 197.735 64.4054L196.27 65.9426H198.656V66.5991H195.213ZM201.682 66.6872C200.185 66.6872 199.465 65.3341 199.465 63.853C199.465 62.3638 200.185 61.0108 201.682 61.0108C203.18 61.0108 203.9 62.3638 203.9 63.853C203.9 65.3341 203.18 66.6872 201.682 66.6872ZM201.682 66.0227C202.723 66.0227 203.188 64.9739 203.188 63.853C203.188 62.7321 202.723 61.6753 201.682 61.6753C200.642 61.6753 200.177 62.7321 200.177 63.853C200.177 64.9739 200.642 66.0227 201.682 66.0227Z" fill="#242B42"/>
<mask id="path-24-inside-8_2264_12194" fill="white">
<path d="M208.589 52.8813H289.929V74.6126H208.589V52.8813Z"/>
</mask>
<path d="M289.929 74.6126V74.0407H208.589V74.6126V75.1845H289.929V74.6126Z" fill="#E4E8F0" mask="url(#path-24-inside-8_2264_12194)"/>
<path d="M279.746 66.5991H279.041V61.8914L278.049 62.2998V61.5792L279.17 61.0988H279.746V66.5991ZM283.166 66.6872C281.669 66.6872 280.948 65.3341 280.948 63.853C280.948 62.3638 281.669 61.0108 283.166 61.0108C284.663 61.0108 285.384 62.3638 285.384 63.853C285.384 65.3341 284.663 66.6872 283.166 66.6872ZM283.166 66.0227C284.207 66.0227 284.671 64.9739 284.671 63.853C284.671 62.7321 284.207 61.6753 283.166 61.6753C282.125 61.6753 281.661 62.7321 281.661 63.853C281.661 64.9739 282.125 66.0227 283.166 66.0227Z" fill="#242B42"/>
<mask id="path-27-inside-9_2264_12194" fill="white">
<path d="M289.929 52.8813H363.891V74.6126H289.929V52.8813Z"/>
</mask>
<path d="M363.891 74.6126V74.0407H289.929V74.6126V75.1845H363.891V74.6126Z" fill="#E4E8F0" mask="url(#path-27-inside-9_2264_12194)"/>
<path d="M348.379 66.0227C349.067 66.0227 349.684 65.5903 349.684 64.8698C349.684 64.1652 349.091 63.7569 348.347 63.7569C347.858 63.7569 347.466 63.877 347.13 64.0531L347.322 61.0988H350.14V61.7473H347.93L347.826 63.2205C347.954 63.1564 348.25 63.1164 348.499 63.1164C349.555 63.1164 350.412 63.821 350.412 64.8377C350.412 66.0147 349.515 66.6792 348.403 66.6872C347.906 66.6872 347.434 66.5591 346.977 66.2709V65.4863C347.434 65.8465 347.898 66.0227 348.379 66.0227ZM352.748 66.5991H352.043V61.8914L351.051 62.2998V61.5792L352.172 61.0988H352.748V66.5991ZM359.186 61.0988L355.127 66.5991H354.318L358.378 61.0988H359.186ZM357.049 65.3822C357.049 64.6616 357.633 64.1092 358.362 64.1092C359.09 64.1092 359.675 64.6616 359.675 65.3822C359.675 66.1027 359.09 66.6552 358.362 66.6552C357.633 66.6552 357.049 66.1027 357.049 65.3822ZM353.822 62.3158C353.822 61.5952 354.406 61.0428 355.135 61.0428C355.864 61.0428 356.448 61.5952 356.448 62.3158C356.448 63.0363 355.864 63.5888 355.135 63.5888C354.406 63.5888 353.822 63.0363 353.822 62.3158ZM354.471 62.3158C354.471 62.7001 354.767 62.9883 355.135 62.9883C355.503 62.9883 355.8 62.7001 355.8 62.3158C355.8 61.9315 355.503 61.6433 355.135 61.6433C354.767 61.6433 354.471 61.9315 354.471 62.3158ZM357.697 65.3822C357.697 65.7665 357.993 66.0547 358.362 66.0547C358.73 66.0547 359.026 65.7665 359.026 65.3822C359.026 64.9979 358.73 64.7096 358.362 64.7096C357.993 64.7096 357.697 64.9979 357.697 65.3822Z" fill="#242B42"/>
<mask id="path-30-inside-10_2264_12194" fill="white">
<path d="M363.891 52.8813H442.142V74.6126H363.891V52.8813Z"/>
</mask>
<path d="M442.142 74.6126V74.0407H363.891V74.6126V75.1845H442.142V74.6126Z" fill="#E4E8F0" mask="url(#path-30-inside-10_2264_12194)"/>
<rect width="590.747" height="21.7313" transform="translate(27 74.6123)" fill="#F6F9FC"/>
<g filter="url(#filter3_d_2264_12194)">
<mask id="path-32-inside-11_2264_12194" fill="white">
<path d="M27 74.6123H129.938V96.3436H27V74.6123Z"/>
</mask>
<path d="M27 74.6123H129.938V96.3436H27V74.6123Z" fill="white" fill-opacity="0.01" shape-rendering="crispEdges"/>
<path d="M27 96.3436H26.4281V96.9154H27V96.3436ZM129.938 96.3436V95.7717H27V96.3436V96.9154H129.938V96.3436ZM27 96.3436H27.5719V74.6123H27H26.4281V96.3436H27Z" fill="#E4E8F0" mask="url(#path-32-inside-11_2264_12194)"/>
<path d="M65.4765 87.8982L65.0281 88.4266L64.3636 87.8742C63.8912 88.2185 63.3148 88.4186 62.6903 88.4186C61.1131 88.4186 59.8161 87.1216 59.8161 85.5284C59.8161 83.9271 61.1131 82.6301 62.6903 82.6301C64.2675 82.6301 65.5645 83.9271 65.5645 85.5284C65.5645 86.2409 65.3003 86.8894 64.876 87.3938L65.4765 87.8982ZM64.836 85.5284C64.836 84.3114 63.8832 83.3106 62.6903 83.3106C61.4974 83.3106 60.5446 84.3114 60.5446 85.5284C60.5446 86.7373 61.4974 87.7381 62.6903 87.7381C63.1066 87.7381 63.4909 87.618 63.8192 87.4098L63.2668 86.9375L63.7151 86.4171L64.3396 86.9455C64.6518 86.5612 64.836 86.0648 64.836 85.5284ZM68.0112 88.3306H67.3066V83.6229L66.3138 84.0312V83.3106L67.4347 82.8303H68.0112V88.3306Z" fill="#242B42"/>
<path d="M47.4525 87.5556C48.5105 87.5556 49.4826 86.9837 50.0261 86.0687C50.5549 85.1394 50.5549 84.01 50.0261 83.095C49.4823 82.1657 48.5102 81.6081 47.4525 81.6081C46.3801 81.6081 45.4081 82.1657 44.8649 83.095C44.3357 84.01 44.3357 85.1394 44.8649 86.0687C45.4078 86.9837 46.3801 87.5556 47.4525 87.5556ZM47.4525 80.9219C48.0938 80.9208 48.724 81.0896 49.279 81.411C49.834 81.7324 50.294 82.1951 50.6123 82.7519C51.2699 83.8813 51.2699 85.2681 50.6123 86.4119C49.9544 87.5413 48.7536 88.2419 47.4525 88.2419C46.137 88.2419 44.9362 87.5413 44.2787 86.4119C43.6208 85.2681 43.6208 83.8813 44.2787 82.7519C44.9362 81.6081 46.137 80.9219 47.4525 80.9219ZM48.9967 83.6098C49.0316 83.6602 49.0503 83.7201 49.0503 83.7814C49.0503 83.8427 49.0316 83.9026 48.9967 83.953L47.7386 86.0117C47.6812 86.1117 47.5669 86.1831 47.4382 86.1831C47.3238 86.1831 47.2094 86.1117 47.1524 86.0117L45.8943 83.953C45.8226 83.8526 45.8226 83.7099 45.8799 83.6098C45.911 83.5579 45.9549 83.5147 46.0075 83.4847C46.06 83.4546 46.1195 83.4386 46.18 83.4381H48.7106C48.825 83.4381 48.9394 83.4955 48.9967 83.6098Z" fill="#687887"/>
<rect width="1.14375" height="21.1594" transform="translate(35.5781 74.6123)" fill="#E4E8F0"/>
</g>
<mask id="path-37-inside-12_2264_12194" fill="white">
<path d="M129.938 74.6123H208.589V96.3436H129.938V74.6123Z"/>
</mask>
<path d="M208.589 96.3436V95.7717H129.938V96.3436V96.9154H208.589V96.3436Z" fill="#E4E8F0" mask="url(#path-37-inside-12_2264_12194)"/>
<path d="M200.976 88.3306V87.8422L203.026 85.6725C203.498 85.1761 203.643 84.8318 203.643 84.4075C203.643 83.8391 203.146 83.4067 202.506 83.4067C202.001 83.4067 201.481 83.743 201.04 84.2874V83.4468C201.425 83.0144 201.993 82.7422 202.514 82.7422C203.57 82.7422 204.347 83.4227 204.347 84.3755C204.347 85.032 204.091 85.5124 203.498 86.1369L202.033 87.6741H204.419V88.3306H200.976Z" fill="#242B42"/>
<mask id="path-40-inside-13_2264_12194" fill="white">
<path d="M208.589 74.6123H289.929V96.3436H208.589V74.6123Z"/>
</mask>
<path d="M289.929 96.3436V95.7717H208.589V96.3436V96.9154H289.929V96.3436Z" fill="#E4E8F0" mask="url(#path-40-inside-13_2264_12194)"/>
<path d="M279.477 87.7541C280.157 87.7541 280.686 87.3458 280.686 86.7453C280.686 86.1609 280.165 85.7606 279.501 85.7606H278.98V85.1201H279.501C280.005 85.1201 280.469 84.7197 280.469 84.2634C280.469 83.767 280.029 83.3987 279.461 83.3987C278.996 83.3987 278.564 83.6149 278.124 83.9992V83.2146C278.524 82.9103 278.996 82.7422 279.469 82.7422C280.461 82.7422 281.166 83.3667 281.166 84.1993C281.166 84.7197 280.886 85.1681 280.397 85.4003C281.006 85.6004 281.398 86.1288 281.398 86.7533C281.398 87.7301 280.581 88.4186 279.485 88.4186C278.956 88.4186 278.46 88.2825 277.979 87.9863V87.2177C278.468 87.578 278.964 87.7541 279.477 87.7541ZM283.53 87.7541C284.218 87.7541 284.835 87.3218 284.835 86.6012C284.835 85.8967 284.242 85.4883 283.498 85.4883C283.009 85.4883 282.617 85.6084 282.281 85.7846L282.473 82.8303H285.291V83.4788H283.081L282.977 84.9519C283.105 84.8879 283.402 84.8478 283.65 84.8478C284.707 84.8478 285.563 85.5524 285.563 86.5692C285.563 87.7461 284.667 88.4106 283.554 88.4186C283.057 88.4186 282.585 88.2905 282.129 88.0023V87.2177C282.585 87.578 283.049 87.7541 283.53 87.7541Z" fill="#242B42"/>
<mask id="path-43-inside-14_2264_12194" fill="white">
<path d="M289.929 74.6123H363.891V96.3436H289.929V74.6123Z"/>
</mask>
<path d="M363.891 96.3436V95.7717H289.929V96.3436V96.9154H363.891V96.3436Z" fill="#E4E8F0" mask="url(#path-43-inside-14_2264_12194)"/>
<path d="M346.984 87.7541C347.665 87.7541 348.193 87.3458 348.193 86.7453C348.193 86.1609 347.673 85.7606 347.008 85.7606H346.488V85.1201H347.008C347.512 85.1201 347.977 84.7197 347.977 84.2634C347.977 83.767 347.536 83.3987 346.968 83.3987C346.504 83.3987 346.071 83.6149 345.631 83.9992V83.2146C346.031 82.9103 346.504 82.7422 346.976 82.7422C347.969 82.7422 348.673 83.3667 348.673 84.1993C348.673 84.7197 348.393 85.1681 347.905 85.4003C348.513 85.6004 348.906 86.1288 348.906 86.7533C348.906 87.7301 348.089 88.4186 346.992 88.4186C346.464 88.4186 345.967 88.2825 345.487 87.9863V87.2177C345.975 87.578 346.472 87.7541 346.984 87.7541ZM349.516 88.3306V87.8422L351.566 85.6725C352.038 85.1761 352.182 84.8318 352.182 84.4075C352.182 83.8391 351.686 83.4067 351.045 83.4067C350.541 83.4067 350.02 83.743 349.58 84.2874V83.4468C349.964 83.0144 350.533 82.7422 351.053 82.7422C352.11 82.7422 352.887 83.4227 352.887 84.3755C352.887 85.032 352.63 85.5124 352.038 86.1369L350.573 87.6741H352.959V88.3306H349.516ZM359.043 82.8303L354.983 88.3306H354.175L358.234 82.8303H359.043ZM356.905 87.1136C356.905 86.3931 357.489 85.8406 358.218 85.8406C358.947 85.8406 359.531 86.3931 359.531 87.1136C359.531 87.8342 358.947 88.3866 358.218 88.3866C357.489 88.3866 356.905 87.8342 356.905 87.1136ZM353.678 84.0472C353.678 83.3267 354.263 82.7742 354.991 82.7742C355.72 82.7742 356.305 83.3267 356.305 84.0472C356.305 84.7678 355.72 85.3202 354.991 85.3202C354.263 85.3202 353.678 84.7678 353.678 84.0472ZM354.327 84.0472C354.327 84.4315 354.623 84.7197 354.991 84.7197C355.36 84.7197 355.656 84.4315 355.656 84.0472C355.656 83.6629 355.36 83.3747 354.991 83.3747C354.623 83.3747 354.327 83.6629 354.327 84.0472ZM357.553 87.1136C357.553 87.4979 357.85 87.7861 358.218 87.7861C358.586 87.7861 358.883 87.4979 358.883 87.1136C358.883 86.7293 358.586 86.4411 358.218 86.4411C357.85 86.4411 357.553 86.7293 357.553 87.1136Z" fill="#242B42"/>
<mask id="path-46-inside-15_2264_12194" fill="white">
<path d="M363.891 74.6123H442.142V96.3436H363.891V74.6123Z"/>
</mask>
<path d="M442.142 96.3436V95.7717H363.891V96.3436V96.9154H442.142V96.3436Z" fill="#E4E8F0" mask="url(#path-46-inside-15_2264_12194)"/>
<rect width="590.747" height="21.7313" transform="translate(27 96.3438)" fill="white"/>
<g filter="url(#filter4_d_2264_12194)">
<mask id="path-48-inside-16_2264_12194" fill="white">
<path d="M27 96.3438H129.938V118.075H27V96.3438Z"/>
</mask>
<path d="M27 96.3438H129.938V118.075H27V96.3438Z" fill="white" fill-opacity="0.01" shape-rendering="crispEdges"/>
<path d="M27 118.075H26.4281V118.647H27V118.075ZM129.938 118.075V117.503H27V118.075V118.647H129.938V118.075ZM27 118.075H27.5719V96.3438H27H26.4281V118.075H27Z" fill="#E4E8F0" mask="url(#path-48-inside-16_2264_12194)"/>
<path d="M69.3991 110.15C69.0068 110.15 68.6305 110.046 68.3022 109.837V109.037C68.6144 109.269 68.9987 109.477 69.3991 109.477C70.0235 109.477 70.3118 109.013 70.3118 108.372V104.457H71.0243V108.388C71.0243 109.429 70.4399 110.15 69.3991 110.15ZM74.5512 107.588V107.492C74.5512 107.003 74.2069 106.707 73.6305 106.707C73.1021 106.707 72.7098 106.923 72.3095 107.291V106.571C72.6617 106.283 73.0861 106.082 73.6465 106.082C74.6473 106.082 75.2237 106.635 75.2237 107.54V110.062H74.5752V109.549C74.271 109.941 73.7986 110.15 73.2862 110.15C72.5977 110.15 72.1093 109.677 72.1093 109.037C72.1093 108.34 72.5497 107.924 73.4063 107.78L74.5512 107.588ZM72.7978 108.997C72.7978 109.325 73.054 109.541 73.4143 109.541C74.0788 109.541 74.5592 109.109 74.5592 108.508V108.18L73.5184 108.364C73.054 108.452 72.7978 108.66 72.7978 108.997ZM77.1528 108.028V110.062H76.4643V106.17H77.1528V106.731C77.393 106.347 77.8093 106.082 78.3938 106.082C79.3866 106.082 79.963 106.747 79.963 107.78V110.062H79.2745V107.86C79.2745 107.163 78.9142 106.723 78.2497 106.723C77.5852 106.723 77.1528 107.235 77.1528 108.028ZM83.92 108.204V106.17H84.6085V110.062H83.92V109.501C83.6798 109.885 83.2715 110.15 82.687 110.15C81.7023 110.15 81.1338 109.485 81.1338 108.452V106.17H81.8223V108.372C81.8223 109.069 82.1746 109.509 82.8311 109.509C83.4876 109.509 83.92 108.997 83.92 108.204ZM88.1572 107.588V107.492C88.1572 107.003 87.8129 106.707 87.2365 106.707C86.708 106.707 86.3157 106.923 85.9154 107.291V106.571C86.2677 106.283 86.692 106.082 87.2525 106.082C88.2533 106.082 88.8297 106.635 88.8297 107.54V110.062H88.1812V109.549C87.877 109.941 87.4046 110.15 86.8922 110.15C86.2037 110.15 85.7153 109.677 85.7153 109.037C85.7153 108.34 86.1556 107.924 87.0123 107.78L88.1572 107.588ZM86.4038 108.997C86.4038 109.325 86.66 109.541 87.0203 109.541C87.6848 109.541 88.1652 109.109 88.1652 108.508V108.18L87.1244 108.364C86.66 108.452 86.4038 108.66 86.4038 108.997ZM92.1038 106.122V106.811C92.1038 106.811 92.0318 106.795 91.9117 106.795C91.1911 106.795 90.7508 107.371 90.7508 108.212V110.062H90.0702V106.17H90.7428V106.859C90.9189 106.411 91.4233 106.106 91.9357 106.106C92.0318 106.106 92.1038 106.122 92.1038 106.122ZM96.4609 106.17L94.5874 110.654C94.2351 111.495 93.8909 111.823 93.3064 111.823C93.1383 111.823 92.9942 111.791 92.8821 111.743V111.134C92.9701 111.166 93.1062 111.198 93.2504 111.198C93.5626 111.198 93.7467 111.014 93.9549 110.518L94.1871 109.957L92.6419 106.17H93.3785L94.5474 109.173L95.7483 106.17H96.4609Z" fill="#242B42"/>
<path d="M60.2441 106.199C60.2441 105.141 59.6722 104.169 58.7572 103.625C57.8279 103.096 56.6985 103.096 55.7835 103.625C54.8541 104.169 54.2966 105.141 54.2966 106.199C54.2966 107.271 54.8541 108.243 55.7835 108.787C56.6985 109.316 57.8279 109.316 58.7572 108.787C59.6722 108.244 60.2441 107.271 60.2441 106.199ZM53.6104 106.199C53.6093 105.558 53.778 104.927 54.0995 104.372C54.4209 103.817 54.8835 103.357 55.4404 103.039C56.5698 102.382 57.9566 102.382 59.1004 103.039C60.2298 103.697 60.9304 104.898 60.9304 106.199C60.9304 107.514 60.2298 108.715 59.1004 109.373C57.9566 110.031 56.5698 110.031 55.4404 109.373C54.2966 108.715 53.6104 107.514 53.6104 106.199ZM56.2983 104.655C56.3487 104.62 56.4086 104.601 56.4699 104.601C56.5312 104.601 56.591 104.62 56.6414 104.655L58.7002 105.913C58.8002 105.97 58.8716 106.085 58.8716 106.213C58.8716 106.328 58.8002 106.442 58.7002 106.499L56.6414 107.757C56.5411 107.829 56.3984 107.829 56.2983 107.771C56.2463 107.74 56.2032 107.696 56.1731 107.644C56.1431 107.591 56.127 107.532 56.1266 107.471V104.941C56.1266 104.826 56.1839 104.712 56.2983 104.655Z" fill="#687887"/>
<rect width="1.14375" height="21.1594" transform="translate(35.5781 96.3438)" fill="#E4E8F0"/>
<rect width="1.14375" height="21.1594" transform="translate(45.5859 96.3438)" fill="#E4E8F0"/>
</g>
<mask id="path-53-inside-17_2264_12194" fill="white">
<path d="M129.938 96.3438H208.589V118.075H129.938V96.3438Z"/>
</mask>
<path d="M208.589 118.075V117.503H129.938V118.075V118.647H208.589V118.075Z" fill="#E4E8F0" mask="url(#path-53-inside-17_2264_12194)"/>
<path d="M198.627 110.062H197.923V105.354L196.93 105.762V105.042L198.051 104.561H198.627V110.062ZM203.737 108.204C203.737 109.293 202.864 110.15 201.751 110.15C200.606 110.15 199.757 109.309 199.757 108.196C199.757 107.732 199.926 107.219 200.374 106.547L201.687 104.561H202.536L201.183 106.539C201.343 106.427 201.583 106.339 201.879 106.339C202.944 106.339 203.737 107.171 203.737 108.204ZM203.024 108.236C203.024 107.516 202.456 106.979 201.751 106.979C201.03 106.979 200.47 107.516 200.47 108.228C200.47 108.925 201.022 109.485 201.743 109.485C202.456 109.485 203.024 108.925 203.024 108.236Z" fill="#242B42"/>
<mask id="path-56-inside-18_2264_12194" fill="white">
<path d="M208.589 96.3438H289.929V118.075H208.589V96.3438Z"/>
</mask>
<path d="M289.929 118.075V117.503H208.589V118.075V118.647H289.929V118.075Z" fill="#E4E8F0" mask="url(#path-56-inside-18_2264_12194)"/>
<path d="M276.553 110.062V109.573L278.603 107.403C279.075 106.907 279.219 106.563 279.219 106.138C279.219 105.57 278.723 105.138 278.082 105.138C277.578 105.138 277.057 105.474 276.617 106.018V105.178C277.001 104.745 277.57 104.473 278.09 104.473C279.147 104.473 279.924 105.154 279.924 106.106C279.924 106.763 279.668 107.243 279.075 107.868L277.61 109.405H279.996V110.062H276.553ZM283.022 110.15C281.525 110.15 280.805 108.797 280.805 107.315C280.805 105.826 281.525 104.473 283.022 104.473C284.519 104.473 285.24 105.826 285.24 107.315C285.24 108.797 284.519 110.15 283.022 110.15ZM283.022 109.485C284.063 109.485 284.527 108.436 284.527 107.315C284.527 106.195 284.063 105.138 283.022 105.138C281.981 105.138 281.517 106.195 281.517 107.315C281.517 108.436 281.981 109.485 283.022 109.485Z" fill="#242B42"/>
<mask id="path-59-inside-19_2264_12194" fill="white">
<path d="M289.929 96.3438H363.891V118.075H289.929V96.3438Z"/>
</mask>
<path d="M363.891 118.075V117.503H289.929V118.075V118.647H363.891V118.075Z" fill="#E4E8F0" mask="url(#path-59-inside-19_2264_12194)"/>
<path d="M350.709 110.062H350.004V105.354L349.011 105.762V105.042L350.132 104.561H350.709V110.062ZM353.464 110.062H352.759V105.354L351.767 105.762V105.042L352.887 104.561H353.464V110.062ZM359.902 104.561L355.843 110.062H355.034L359.093 104.561H359.902ZM357.764 108.845C357.764 108.124 358.349 107.572 359.077 107.572C359.806 107.572 360.39 108.124 360.39 108.845C360.39 109.565 359.806 110.118 359.077 110.118C358.349 110.118 357.764 109.565 357.764 108.845ZM354.538 105.778C354.538 105.058 355.122 104.505 355.851 104.505C356.579 104.505 357.164 105.058 357.164 105.778C357.164 106.499 356.579 107.051 355.851 107.051C355.122 107.051 354.538 106.499 354.538 105.778ZM355.186 105.778C355.186 106.162 355.483 106.451 355.851 106.451C356.219 106.451 356.515 106.162 356.515 105.778C356.515 105.394 356.219 105.106 355.851 105.106C355.483 105.106 355.186 105.394 355.186 105.778ZM358.413 108.845C358.413 109.229 358.709 109.517 359.077 109.517C359.446 109.517 359.742 109.229 359.742 108.845C359.742 108.46 359.446 108.172 359.077 108.172C358.709 108.172 358.413 108.46 358.413 108.845Z" fill="#242B42"/>
<mask id="path-62-inside-20_2264_12194" fill="white">
<path d="M363.891 96.3438H442.142V118.075H363.891V96.3438Z"/>
</mask>
<path d="M442.142 118.075V117.503H363.891V118.075V118.647H442.142V118.075Z" fill="#E4E8F0" mask="url(#path-62-inside-20_2264_12194)"/>
<rect width="590.747" height="21.7313" transform="translate(27 118.075)" fill="#F6F9FC"/>
<g filter="url(#filter5_d_2264_12194)">
<mask id="path-64-inside-21_2264_12194" fill="white">
<path d="M27 118.075H129.938V139.806H27V118.075Z"/>
</mask>
<path d="M27 118.075H129.938V139.806H27V118.075Z" fill="white" fill-opacity="0.01" shape-rendering="crispEdges"/>
<path d="M27 139.806H26.4281V140.378H27V139.806ZM129.938 139.806V139.235H27V139.806V140.378H129.938V139.806ZM27 139.806H27.5719V118.075H27H26.4281V139.806H27Z" fill="#E4E8F0" mask="url(#path-64-inside-21_2264_12194)"/>
<path d="M68.9639 129.208V131.794H68.2514V126.19H71.3018V126.846H68.9639V128.559H71.1737V129.208H68.9639ZM75.4754 130.641V131.386C75.0431 131.698 74.5147 131.882 73.9702 131.882C72.7293 131.882 71.9286 130.993 71.9286 129.848C71.9286 128.688 72.7293 127.815 73.8501 127.815C74.939 127.815 75.6836 128.712 75.6836 129.816C75.6836 129.969 75.6676 130.065 75.6676 130.065H72.6172C72.6732 130.713 73.2096 131.258 74.0183 131.258C74.5147 131.258 74.995 131.057 75.4754 130.641ZM72.6332 129.496H74.987C74.931 128.88 74.4746 128.415 73.8341 128.415C73.1856 128.415 72.6812 128.968 72.6332 129.496ZM77.3491 131.794H76.6686V126.19H77.3491V128.519C77.6293 128.095 78.1578 127.815 78.7262 127.815C79.8311 127.815 80.6797 128.696 80.6797 129.848C80.6797 130.993 79.8311 131.882 78.7262 131.882C78.1578 131.882 77.6373 131.634 77.3491 131.209V131.794ZM79.9832 129.848C79.9832 129.064 79.4067 128.447 78.6461 128.447C77.8855 128.447 77.3091 129.064 77.3091 129.848C77.3091 130.633 77.8855 131.25 78.6461 131.25C79.4067 131.25 79.9832 130.633 79.9832 129.848ZM83.7405 127.855V128.543C83.7405 128.543 83.6684 128.527 83.5483 128.527C82.8278 128.527 82.3874 129.104 82.3874 129.945V131.794H81.7069V127.903H82.3794V128.591C82.5556 128.143 83.06 127.839 83.5724 127.839C83.6684 127.839 83.7405 127.855 83.7405 127.855ZM87.3487 129.936V127.903H88.0372V131.794H87.3487V131.234C87.1085 131.618 86.7002 131.882 86.1157 131.882C85.131 131.882 84.5625 131.217 84.5625 130.185V127.903H85.2511V130.105C85.2511 130.801 85.6033 131.242 86.2598 131.242C86.9164 131.242 87.3487 130.729 87.3487 129.936ZM91.5859 129.32V129.224C91.5859 128.736 91.2416 128.439 90.6652 128.439C90.1368 128.439 89.7445 128.655 89.3441 129.024V128.303C89.6964 128.015 90.1207 127.815 90.6812 127.815C91.682 127.815 92.2584 128.367 92.2584 129.272V131.794H91.6099V131.282C91.3057 131.674 90.8333 131.882 90.3209 131.882C89.6324 131.882 89.144 131.41 89.144 130.769C89.144 130.073 89.5843 129.656 90.441 129.512L91.5859 129.32ZM89.8325 130.729C89.8325 131.057 90.0887 131.274 90.449 131.274C91.1135 131.274 91.5939 130.841 91.5939 130.241V129.912L90.5531 130.097C90.0887 130.185 89.8325 130.393 89.8325 130.729ZM95.5325 127.855V128.543C95.5325 128.543 95.4605 128.527 95.3404 128.527C94.6198 128.527 94.1795 129.104 94.1795 129.945V131.794H93.499V127.903H94.1715V128.591C94.3476 128.143 94.852 127.839 95.3644 127.839C95.4605 127.839 95.5325 127.855 95.5325 127.855ZM99.8896 127.903L98.0161 132.386C97.6638 133.227 97.3196 133.555 96.7351 133.555C96.567 133.555 96.4229 133.523 96.3108 133.475V132.867C96.3989 132.899 96.535 132.931 96.6791 132.931C96.9913 132.931 97.1755 132.747 97.3836 132.25L97.6158 131.69L96.0706 127.903H96.8072L97.9761 130.905L99.177 127.903H99.8896Z" fill="#242B42"/>
<path d="M57.4613 131.018C58.5193 131.018 59.4914 130.446 60.0349 129.531C60.5637 128.601 60.5637 127.472 60.0349 126.557C59.4911 125.628 58.519 125.07 57.4613 125.07C56.3889 125.07 55.4169 125.628 54.8737 126.557C54.3445 127.472 54.3445 128.601 54.8737 129.531C55.4166 130.446 56.3889 131.018 57.4613 131.018ZM57.4613 124.384C58.1026 124.383 58.7328 124.551 59.2878 124.873C59.8428 125.194 60.3028 125.657 60.6211 126.214C61.2787 127.343 61.2787 128.73 60.6211 129.874C59.9632 131.003 58.7624 131.704 57.4613 131.704C56.1458 131.704 54.945 131.003 54.2875 129.874C53.6296 128.73 53.6296 127.343 54.2875 126.214C54.945 125.07 56.1458 124.384 57.4613 124.384ZM59.0055 127.072C59.0404 127.122 59.0591 127.182 59.0591 127.243C59.0591 127.305 59.0404 127.364 59.0055 127.415L57.7474 129.474C57.69 129.574 57.5757 129.645 57.4469 129.645C57.3326 129.645 57.2182 129.574 57.1612 129.474L55.903 127.415C55.8314 127.315 55.8314 127.172 55.8887 127.072C55.9198 127.02 55.9637 126.977 56.0163 126.947C56.0688 126.917 56.1283 126.9 56.1888 126.9H58.7194C58.8338 126.9 58.9482 126.957 59.0055 127.072Z" fill="#687887"/>
<rect width="1.14375" height="21.1594" transform="translate(35.5781 118.075)" fill="#E4E8F0"/>
<rect width="1.14375" height="21.1594" transform="translate(45.5859 118.075)" fill="#E4E8F0"/>
</g>
<mask id="path-69-inside-22_2264_12194" fill="white">
<path d="M129.938 118.075H208.589V139.806H129.938V118.075Z"/>
</mask>
<path d="M208.589 139.806V139.235H129.938V139.806V140.378H208.589V139.806Z" fill="#E4E8F0" mask="url(#path-69-inside-22_2264_12194)"/>
<path d="M195.213 131.793V131.305L197.263 129.135C197.735 128.639 197.879 128.294 197.879 127.87C197.879 127.301 197.383 126.869 196.742 126.869C196.238 126.869 195.718 127.205 195.277 127.75V126.909C195.662 126.477 196.23 126.205 196.75 126.205C197.807 126.205 198.584 126.885 198.584 127.838C198.584 128.494 198.328 128.975 197.735 129.599L196.27 131.136H198.656V131.793H195.213ZM201.682 131.881C200.185 131.881 199.465 130.528 199.465 129.047C199.465 127.558 200.185 126.205 201.682 126.205C203.18 126.205 203.9 127.558 203.9 129.047C203.9 130.528 203.18 131.881 201.682 131.881ZM201.682 131.217C202.723 131.217 203.188 130.168 203.188 129.047C203.188 127.926 202.723 126.869 201.682 126.869C200.642 126.869 200.177 127.926 200.177 129.047C200.177 130.168 200.642 131.217 201.682 131.217Z" fill="#242B42"/>
<mask id="path-72-inside-23_2264_12194" fill="white">
<path d="M208.589 118.075H289.929V139.806H208.589V118.075Z"/>
</mask>
<path d="M289.929 139.806V139.235H208.589V139.806V140.378H289.929V139.806Z" fill="#E4E8F0" mask="url(#path-72-inside-23_2264_12194)"/>
<path d="M278.777 130.504V129.968L281.508 126.301H282.308V129.879H283.077V130.504H282.308V131.793H281.612V130.504H278.777ZM279.61 129.879H281.612V127.205L279.61 129.879ZM285.249 131.793H284.545V127.085L283.552 127.494V126.773L284.673 126.293H285.249V131.793Z" fill="#242B42"/>
<mask id="path-75-inside-24_2264_12194" fill="white">
<path d="M289.929 118.075H363.891V139.806H289.929V118.075Z"/>
</mask>
<path d="M363.891 139.806V139.235H289.929V139.806V140.378H363.891V139.806Z" fill="#E4E8F0" mask="url(#path-75-inside-24_2264_12194)"/>
<path d="M345.343 128.15C345.343 127.061 346.216 126.205 347.329 126.205C348.474 126.205 349.322 127.045 349.322 128.158C349.322 128.622 349.154 129.135 348.706 129.807L347.393 131.793H346.544L347.857 129.847C347.697 129.944 347.489 130.008 347.201 130.008C346.136 130.008 345.343 129.175 345.343 128.15ZM346.056 128.118C346.056 128.839 346.624 129.375 347.329 129.375C348.049 129.375 348.61 128.839 348.61 128.126C348.61 127.43 348.057 126.869 347.337 126.869C346.624 126.869 346.056 127.43 346.056 128.118ZM351.496 131.217C352.185 131.217 352.801 130.784 352.801 130.064C352.801 129.359 352.209 128.951 351.464 128.951C350.976 128.951 350.584 129.071 350.247 129.247L350.439 126.293H353.258V126.941H351.048L350.944 128.414C351.072 128.35 351.368 128.31 351.616 128.31C352.673 128.31 353.53 129.015 353.53 130.032C353.53 131.209 352.633 131.873 351.52 131.881C351.024 131.881 350.551 131.753 350.095 131.465V130.68C350.551 131.04 351.016 131.217 351.496 131.217ZM359.47 126.293L355.411 131.793H354.603L358.662 126.293H359.47ZM357.333 130.576C357.333 129.855 357.917 129.303 358.646 129.303C359.374 129.303 359.959 129.855 359.959 130.576C359.959 131.297 359.374 131.849 358.646 131.849C357.917 131.849 357.333 131.297 357.333 130.576ZM354.106 127.51C354.106 126.789 354.691 126.237 355.419 126.237C356.148 126.237 356.732 126.789 356.732 127.51C356.732 128.23 356.148 128.783 355.419 128.783C354.691 128.783 354.106 128.23 354.106 127.51ZM354.755 127.51C354.755 127.894 355.051 128.182 355.419 128.182C355.788 128.182 356.084 127.894 356.084 127.51C356.084 127.125 355.788 126.837 355.419 126.837C355.051 126.837 354.755 127.125 354.755 127.51ZM357.981 130.576C357.981 130.96 358.277 131.249 358.646 131.249C359.014 131.249 359.31 130.96 359.31 130.576C359.31 130.192 359.014 129.903 358.646 129.903C358.277 129.903 357.981 130.192 357.981 130.576Z" fill="#242B42"/>
<mask id="path-78-inside-25_2264_12194" fill="white">
<path d="M363.891 118.075H442.142V139.806H363.891V118.075Z"/>
</mask>
<path d="M442.142 139.806V139.235H363.891V139.806V140.378H442.142V139.806Z" fill="#E4E8F0" mask="url(#path-78-inside-25_2264_12194)"/>
<rect width="590.747" height="21.7313" transform="translate(27 139.806)" fill="white"/>
<g filter="url(#filter6_d_2264_12194)">
<mask id="path-80-inside-26_2264_12194" fill="white">
<path d="M27 139.806H129.938V161.537H27V139.806Z"/>
</mask>
<path d="M27 139.806H129.938V161.537H27V139.806Z" fill="white" fill-opacity="0.01" shape-rendering="crispEdges"/>
<path d="M27 161.537H26.4281V162.109H27V161.537ZM129.938 161.537V160.965H27V161.537V162.109H129.938V161.537ZM27 161.537H27.5719V139.806H27H26.4281V161.537H27Z" fill="#E4E8F0" mask="url(#path-80-inside-26_2264_12194)"/>
<path d="M71.1268 153.523H70.4223V148.816L69.4295 149.224V148.504L70.5504 148.023H71.1268V153.523ZM73.73 152.947C74.4185 152.947 75.035 152.515 75.035 151.794C75.035 151.09 74.4425 150.681 73.698 150.681C73.2096 150.681 72.8173 150.801 72.481 150.977L72.6732 148.023H75.4914V148.672H73.2816L73.1776 150.145C73.3057 150.081 73.6019 150.041 73.8501 150.041C74.9069 150.041 75.7636 150.745 75.7636 151.762C75.7636 152.939 74.8669 153.604 73.754 153.612C73.2576 153.612 72.7853 153.483 72.3289 153.195V152.411C72.7853 152.771 73.2496 152.947 73.73 152.947Z" fill="#242B42"/>
<rect width="1.14375" height="21.1594" transform="translate(35.5781 139.806)" fill="#E4E8F0"/>
<rect width="1.14375" height="21.1594" transform="translate(45.5859 139.806)" fill="#E4E8F0"/>
<rect width="1.14375" height="21.1594" transform="translate(55.5938 139.806)" fill="#E4E8F0"/>
</g>
<mask id="path-83-inside-27_2264_12194" fill="white">
<path d="M129.938 139.806H208.589V161.537H129.938V139.806Z"/>
</mask>
<path d="M208.589 161.537V160.965H129.938V161.537V162.109H208.589V161.537Z" fill="#E4E8F0" mask="url(#path-83-inside-27_2264_12194)"/>
<path d="M198.627 153.523H197.923V148.816L196.93 149.224V148.504L198.051 148.023H198.627V153.523ZM199.709 149.881C199.709 148.792 200.582 147.935 201.695 147.935C202.84 147.935 203.688 148.776 203.688 149.889C203.688 150.353 203.52 150.865 203.072 151.538L201.759 153.523H200.91L202.223 151.578C202.063 151.674 201.855 151.738 201.567 151.738C200.502 151.738 199.709 150.905 199.709 149.881ZM200.422 149.849C200.422 150.569 200.99 151.106 201.695 151.106C202.415 151.106 202.976 150.569 202.976 149.857C202.976 149.16 202.423 148.6 201.703 148.6C200.99 148.6 200.422 149.16 200.422 149.849Z" fill="#242B42"/>
<mask id="path-86-inside-28_2264_12194" fill="white">
<path d="M208.589 139.806H289.929V161.537H208.589V139.806Z"/>
</mask>
<path d="M289.929 161.537V160.965H208.589V161.537V162.109H289.929V161.537Z" fill="#E4E8F0" mask="url(#path-86-inside-28_2264_12194)"/>
<path d="M279.477 152.948C280.157 152.948 280.686 152.54 280.686 151.939C280.686 151.355 280.165 150.954 279.501 150.954H278.98V150.314H279.501C280.005 150.314 280.469 149.914 280.469 149.457C280.469 148.961 280.029 148.593 279.461 148.593C278.996 148.593 278.564 148.809 278.124 149.193V148.408C278.524 148.104 278.996 147.936 279.469 147.936C280.461 147.936 281.166 148.561 281.166 149.393C281.166 149.914 280.886 150.362 280.397 150.594C281.006 150.794 281.398 151.323 281.398 151.947C281.398 152.924 280.581 153.612 279.485 153.612C278.956 153.612 278.46 153.476 277.979 153.18V152.412C278.468 152.772 278.964 152.948 279.477 152.948ZM283.53 152.948C284.218 152.948 284.835 152.516 284.835 151.795C284.835 151.091 284.242 150.682 283.498 150.682C283.009 150.682 282.617 150.802 282.281 150.978L282.473 148.024H285.291V148.673H283.081L282.977 150.146C283.105 150.082 283.402 150.042 283.65 150.042C284.707 150.042 285.563 150.746 285.563 151.763C285.563 152.94 284.667 153.604 283.554 153.612C283.057 153.612 282.585 153.484 282.129 153.196V152.412C282.585 152.772 283.049 152.948 283.53 152.948Z" fill="#242B42"/>
<mask id="path-89-inside-29_2264_12194" fill="white">
<path d="M289.929 139.806H363.891V161.537H289.929V139.806Z"/>
</mask>
<path d="M363.891 161.537V160.965H289.929V161.537V162.109H363.891V161.537Z" fill="#E4E8F0" mask="url(#path-89-inside-29_2264_12194)"/>
<path d="M348.353 151.666C348.353 152.755 347.481 153.612 346.368 153.612C345.223 153.612 344.374 152.771 344.374 151.658C344.374 151.194 344.542 150.681 344.991 150.009L346.304 148.023H347.153L345.799 150.001C345.96 149.889 346.2 149.801 346.496 149.801C347.561 149.801 348.353 150.633 348.353 151.666ZM347.641 151.698C347.641 150.977 347.072 150.441 346.368 150.441C345.647 150.441 345.087 150.977 345.087 151.69C345.087 152.387 345.639 152.947 346.36 152.947C347.072 152.947 347.641 152.387 347.641 151.698ZM348.833 149.881C348.833 148.792 349.706 147.935 350.819 147.935C351.963 147.935 352.812 148.776 352.812 149.889C352.812 150.353 352.644 150.865 352.196 151.538L350.883 153.523H350.034L351.347 151.578C351.187 151.674 350.979 151.738 350.69 151.738C349.626 151.738 348.833 150.905 348.833 149.881ZM349.546 149.849C349.546 150.569 350.114 151.106 350.819 151.106C351.539 151.106 352.1 150.569 352.1 149.857C352.1 149.16 351.547 148.6 350.827 148.6C350.114 148.6 349.546 149.16 349.546 149.849ZM358.899 148.023L354.84 153.523H354.031L358.09 148.023H358.899ZM356.761 152.306C356.761 151.586 357.346 151.033 358.074 151.033C358.803 151.033 359.387 151.586 359.387 152.306C359.387 153.027 358.803 153.579 358.074 153.579C357.346 153.579 356.761 153.027 356.761 152.306ZM353.535 149.24C353.535 148.52 354.119 147.967 354.848 147.967C355.577 147.967 356.161 148.52 356.161 149.24C356.161 149.961 355.577 150.513 354.848 150.513C354.119 150.513 353.535 149.961 353.535 149.24ZM354.183 149.24C354.183 149.624 354.48 149.913 354.848 149.913C355.216 149.913 355.512 149.624 355.512 149.24C355.512 148.856 355.216 148.568 354.848 148.568C354.48 148.568 354.183 148.856 354.183 149.24ZM357.41 152.306C357.41 152.691 357.706 152.979 358.074 152.979C358.443 152.979 358.739 152.691 358.739 152.306C358.739 151.922 358.443 151.634 358.074 151.634C357.706 151.634 357.41 151.922 357.41 152.306Z" fill="#242B42"/>
<mask id="path-92-inside-30_2264_12194" fill="white">
<path d="M363.891 139.806H442.142V161.537H363.891V139.806Z"/>
</mask>
<path d="M442.142 161.537V160.965H363.891V161.537V162.109H442.142V161.537Z" fill="#E4E8F0" mask="url(#path-92-inside-30_2264_12194)"/>
<rect width="590.747" height="21.7313" transform="translate(27 161.538)" fill="white"/>
<g filter="url(#filter7_d_2264_12194)">
<mask id="path-94-inside-31_2264_12194" fill="white">
<path d="M27 161.538H129.938V183.269H27V161.538Z"/>
</mask>
<path d="M27 161.538H129.938V183.269H27V161.538Z" fill="white" fill-opacity="0.01" shape-rendering="crispEdges"/>
<path d="M27 183.269H26.4281V183.841H27V183.269ZM129.938 183.269V182.697H27V183.269V183.841H129.938V183.269ZM27 183.269H27.5719V161.538H27H26.4281V183.269H27Z" fill="#E4E8F0" mask="url(#path-94-inside-31_2264_12194)"/>
</g>
<mask id="path-96-inside-32_2264_12194" fill="white">
<path d="M129.938 161.538H208.589V183.269H129.938V161.538Z"/>
</mask>
<path d="M208.589 183.269V182.697H129.938V183.269V183.841H208.589V183.269Z" fill="#E4E8F0" mask="url(#path-96-inside-32_2264_12194)"/>
<mask id="path-98-inside-33_2264_12194" fill="white">
<path d="M208.589 161.538H289.929V183.269H208.589V161.538Z"/>
</mask>
<path d="M289.929 183.269V182.697H208.589V183.269V183.841H289.929V183.269Z" fill="#E4E8F0" mask="url(#path-98-inside-33_2264_12194)"/>
<mask id="path-100-inside-34_2264_12194" fill="white">
<path d="M289.929 161.538H363.891V183.269H289.929V161.538Z"/>
</mask>
<path d="M363.891 183.269V182.697H289.929V183.269V183.841H363.891V183.269Z" fill="#E4E8F0" mask="url(#path-100-inside-34_2264_12194)"/>
<mask id="path-102-inside-35_2264_12194" fill="white">
<path d="M363.891 161.538H442.142V183.269H363.891V161.538Z"/>
</mask>
<path d="M442.142 183.269V182.697H363.891V183.269V183.841H442.142V183.269Z" fill="#E4E8F0" mask="url(#path-102-inside-35_2264_12194)"/>
</g>
</g>
<defs>
<filter id="filter0_d_2264_12194" x="17" y="16" width="610.747" height="203" filterUnits="userSpaceOnUse" color-interpolation-filters="sRGB">
<feFlood flood-opacity="0" result="BackgroundImageFix"/>
<feColorMatrix in="SourceAlpha" type="matrix" values="0 0 0 0 0 0 0 0 0 0 0 0 0 0 0 0 0 0 127 0" result="hardAlpha"/>
<feOffset dy="4"/>
<feGaussianBlur stdDeviation="5"/>
<feColorMatrix type="matrix" values="0 0 0 0 0.235294 0 0 0 0 0.415686 0 0 0 0 0.67451 0 0 0 0.16 0"/>
<feBlend mode="normal" in2="BackgroundImageFix" result="effect1_dropShadow_2264_12194"/>
<feBlend mode="normal" in="SourceGraphic" in2="effect1_dropShadow_2264_12194" result="shape"/>
</filter>
<filter id="filter1_d_2264_12194" x="27" y="22" width="103.509" height="30.8813" filterUnits="userSpaceOnUse" color-interpolation-filters="sRGB">
<feFlood flood-opacity="0" result="BackgroundImageFix"/>
<feColorMatrix in="SourceAlpha" type="matrix" values="0 0 0 0 0 0 0 0 0 0 0 0 0 0 0 0 0 0 127 0" result="hardAlpha"/>
<feOffset dx="0.571875"/>
<feComposite in2="hardAlpha" operator="out"/>
<feColorMatrix type="matrix" values="0 0 0 0 0.894118 0 0 0 0 0.909804 0 0 0 0 0.941176 0 0 0 1 0"/>
<feBlend mode="normal" in2="BackgroundImageFix" result="effect1_dropShadow_2264_12194"/>
<feBlend mode="normal" in="SourceGraphic" in2="effect1_dropShadow_2264_12194" result="shape"/>
</filter>
<filter id="filter2_d_2264_12194" x="27" y="52.8813" width="103.509" height="21.7314" filterUnits="userSpaceOnUse" color-interpolation-filters="sRGB">
<feFlood flood-opacity="0" result="BackgroundImageFix"/>
<feColorMatrix in="SourceAlpha" type="matrix" values="0 0 0 0 0 0 0 0 0 0 0 0 0 0 0 0 0 0 127 0" result="hardAlpha"/>
<feOffset dx="0.571875"/>
<feComposite in2="hardAlpha" operator="out"/>
<feColorMatrix type="matrix" values="0 0 0 0 0.894118 0 0 0 0 0.909804 0 0 0 0 0.941176 0 0 0 1 0"/>
<feBlend mode="normal" in2="BackgroundImageFix" result="effect1_dropShadow_2264_12194"/>
<feBlend mode="normal" in="SourceGraphic" in2="effect1_dropShadow_2264_12194" result="shape"/>
</filter>
<filter id="filter3_d_2264_12194" x="27" y="74.6123" width="103.509" height="21.7314" filterUnits="userSpaceOnUse" color-interpolation-filters="sRGB">
<feFlood flood-opacity="0" result="BackgroundImageFix"/>
<feColorMatrix in="SourceAlpha" type="matrix" values="0 0 0 0 0 0 0 0 0 0 0 0 0 0 0 0 0 0 127 0" result="hardAlpha"/>
<feOffset dx="0.571875"/>
<feComposite in2="hardAlpha" operator="out"/>
<feColorMatrix type="matrix" values="0 0 0 0 0.894118 0 0 0 0 0.909804 0 0 0 0 0.941176 0 0 0 1 0"/>
<feBlend mode="normal" in2="BackgroundImageFix" result="effect1_dropShadow_2264_12194"/>
<feBlend mode="normal" in="SourceGraphic" in2="effect1_dropShadow_2264_12194" result="shape"/>
</filter>
<filter id="filter4_d_2264_12194" x="27" y="96.3438" width="103.509" height="21.7314" filterUnits="userSpaceOnUse" color-interpolation-filters="sRGB">
<feFlood flood-opacity="0" result="BackgroundImageFix"/>
<feColorMatrix in="SourceAlpha" type="matrix" values="0 0 0 0 0 0 0 0 0 0 0 0 0 0 0 0 0 0 127 0" result="hardAlpha"/>
<feOffset dx="0.571875"/>
<feComposite in2="hardAlpha" operator="out"/>
<feColorMatrix type="matrix" values="0 0 0 0 0.894118 0 0 0 0 0.909804 0 0 0 0 0.941176 0 0 0 1 0"/>
<feBlend mode="normal" in2="BackgroundImageFix" result="effect1_dropShadow_2264_12194"/>
<feBlend mode="normal" in="SourceGraphic" in2="effect1_dropShadow_2264_12194" result="shape"/>
</filter>
<filter id="filter5_d_2264_12194" x="27" y="118.075" width="103.509" height="21.7314" filterUnits="userSpaceOnUse" color-interpolation-filters="sRGB">
<feFlood flood-opacity="0" result="BackgroundImageFix"/>
<feColorMatrix in="SourceAlpha" type="matrix" values="0 0 0 0 0 0 0 0 0 0 0 0 0 0 0 0 0 0 127 0" result="hardAlpha"/>
<feOffset dx="0.571875"/>
<feComposite in2="hardAlpha" operator="out"/>
<feColorMatrix type="matrix" values="0 0 0 0 0.894118 0 0 0 0 0.909804 0 0 0 0 0.941176 0 0 0 1 0"/>
<feBlend mode="normal" in2="BackgroundImageFix" result="effect1_dropShadow_2264_12194"/>
<feBlend mode="normal" in="SourceGraphic" in2="effect1_dropShadow_2264_12194" result="shape"/>
</filter>
<filter id="filter6_d_2264_12194" x="27" y="139.806" width="103.509" height="21.7314" filterUnits="userSpaceOnUse" color-interpolation-filters="sRGB">
<feFlood flood-opacity="0" result="BackgroundImageFix"/>
<feColorMatrix in="SourceAlpha" type="matrix" values="0 0 0 0 0 0 0 0 0 0 0 0 0 0 0 0 0 0 127 0" result="hardAlpha"/>
<feOffset dx="0.571875"/>
<feComposite in2="hardAlpha" operator="out"/>
<feColorMatrix type="matrix" values="0 0 0 0 0.894118 0 0 0 0 0.909804 0 0 0 0 0.941176 0 0 0 1 0"/>
<feBlend mode="normal" in2="BackgroundImageFix" result="effect1_dropShadow_2264_12194"/>
<feBlend mode="normal" in="SourceGraphic" in2="effect1_dropShadow_2264_12194" result="shape"/>
</filter>
<filter id="filter7_d_2264_12194" x="27" y="161.538" width="103.509" height="21.7314" filterUnits="userSpaceOnUse" color-interpolation-filters="sRGB">
<feFlood flood-opacity="0" result="BackgroundImageFix"/>
<feColorMatrix in="SourceAlpha" type="matrix" values="0 0 0 0 0 0 0 0 0 0 0 0 0 0 0 0 0 0 127 0" result="hardAlpha"/>
<feOffset dx="0.571875"/>
<feComposite in2="hardAlpha" operator="out"/>
<feColorMatrix type="matrix" values="0 0 0 0 0.894118 0 0 0 0 0.909804 0 0 0 0 0.941176 0 0 0 1 0"/>
<feBlend mode="normal" in2="BackgroundImageFix" result="effect1_dropShadow_2264_12194"/>
<feBlend mode="normal" in="SourceGraphic" in2="effect1_dropShadow_2264_12194" result="shape"/>
</filter>
<clipPath id="clip0_2264_12194">
<rect width="364" height="162.463" fill="white"/>
</clipPath>
</defs>
</svg>
