<svg width="364" height="163" viewBox="0 0 364 163" fill="none" xmlns="http://www.w3.org/2000/svg">
<g clip-path="url(#clip0_2264_12660)">
<rect width="242" height="114.847" transform="translate(61 23.8076)" fill="white"/>
<g filter="url(#filter0_d_2264_12660)">
<mask id="path-1-inside-1_2264_12660" fill="white">
<path d="M61 26.5421C61 25.0319 62.2243 23.8076 63.7345 23.8076H184.051V60.7229H61V26.5421Z"/>
</mask>
<path d="M61 26.5421C61 25.0319 62.2243 23.8076 63.7345 23.8076H184.051V60.7229H61V26.5421Z" fill="white" fill-opacity="0.01" shape-rendering="crispEdges"/>
<path d="M60.3164 26.5421C60.3164 24.6543 61.8467 23.124 63.7345 23.124H184.051V24.4912H63.7345C62.6018 24.4912 61.6836 25.4094 61.6836 26.5421H60.3164ZM184.051 61.4065H60.3164L61.6836 60.0393H184.051V61.4065ZM60.3164 61.4065V26.5421C60.3164 24.6543 61.8467 23.124 63.7345 23.124V24.4912C62.6018 24.4912 61.6836 25.4094 61.6836 26.5421V60.0393L60.3164 61.4065ZM61.6836 60.0393M184.051 23.8076V60.7229V23.8076" fill="#E4E8F0" mask="url(#path-1-inside-1_2264_12660)"/>
<path d="M73.2874 34.4474L74.5008 35.6779C74.6718 35.8486 74.6718 36.1049 74.5008 36.2587C74.3469 36.4301 74.0906 36.4301 73.92 36.2587L73.3899 35.7293V37.1987C73.3899 37.4382 73.2192 37.6088 72.9797 37.6088C72.9256 37.6096 72.872 37.5995 72.8219 37.5791C72.7718 37.5588 72.7263 37.5286 72.688 37.4903C72.6498 37.4521 72.6196 37.4066 72.5992 37.3565C72.5789 37.3064 72.5688 37.2527 72.5695 37.1987V35.7293L72.0401 36.2584C72.005 36.2986 71.9616 36.3309 71.913 36.353C71.8644 36.3751 71.8115 36.3865 71.7581 36.3865C71.7047 36.3865 71.6519 36.3751 71.6032 36.353C71.5546 36.3309 71.5112 36.2986 71.4761 36.2584C71.3055 36.1045 71.3055 35.8482 71.4761 35.6776L72.7062 34.4474C72.8601 34.2936 73.1164 34.2936 73.2874 34.4474ZM73.407 40.2066V41.6938L73.9368 41.1636C74.0906 40.993 74.3469 40.993 74.5179 41.1636C74.5918 41.2389 74.6332 41.3402 74.6332 41.4456C74.6332 41.5511 74.5918 41.6524 74.5179 41.7277L73.2874 42.9582C73.1164 43.1295 72.8601 43.1295 72.7062 42.9582L71.4757 41.7277C71.4355 41.6925 71.4032 41.6492 71.3811 41.6005C71.359 41.5519 71.3476 41.4991 71.3476 41.4456C71.3476 41.3922 71.359 41.3394 71.3811 41.2908C71.4032 41.2421 71.4355 41.1988 71.4757 41.1636C71.6296 40.993 71.8859 40.993 72.0569 41.1636L72.5867 41.6938V40.2066C72.5867 39.9845 72.7577 39.7964 72.9968 39.7964C73.2192 39.7964 73.407 39.9845 73.407 40.2066ZM69.5787 38.2924H76.4149C76.6373 38.2924 76.8251 38.4806 76.8251 38.7026C76.8258 38.7567 76.8157 38.8103 76.7954 38.8604C76.775 38.9105 76.7448 38.9561 76.7066 38.9943C76.6683 39.0325 76.6228 39.0627 76.5727 39.0831C76.5226 39.1034 76.469 39.1135 76.4149 39.1128H69.5791C69.3399 39.1128 69.1689 38.9422 69.1689 38.7026C69.1689 38.4806 69.3403 38.2924 69.5791 38.2924H69.5787Z" fill="#687887"/>
<path d="M86.737 39.2005V41.6943H85.4982V39.2005L83.4474 35.952H84.8584L86.1299 38.052L87.4014 35.952H88.7878L86.737 39.2005ZM90.2495 41.6943V35.952H93.6293V37.0676H91.48V38.2325H93.4406V39.3154H91.48V40.5787H93.6457V41.6943H90.2495ZM97.2639 35.952H98.3549L100.66 41.6943H99.3722L98.8882 40.4556H96.6979L96.2139 41.6943H94.9505L97.2639 35.952ZM97.7889 37.5188L97.0752 39.3974H98.519L97.7889 37.5188ZM103.375 39.5943V41.6943H102.152V35.952H104.064C105.303 35.952 106.164 36.6164 106.164 37.7895C106.164 38.6099 105.672 39.1841 104.983 39.4466L106.566 41.6943H105.114L103.703 39.5943H103.375ZM103.375 37.0594V38.577H104.072C104.564 38.577 104.925 38.2899 104.925 37.8141C104.925 37.3301 104.564 37.0594 104.072 37.0594H103.375Z" fill="#0056CF"/>
<path fill-rule="evenodd" clip-rule="evenodd" d="M167.144 35.3272C167.144 35.2293 167.105 35.1354 167.036 35.0661C166.966 34.9969 166.872 34.958 166.774 34.958C166.677 34.958 166.583 34.9969 166.513 35.0661C166.444 35.1354 166.405 35.2293 166.405 35.3272V40.3424L165.559 39.4958C165.489 39.4266 165.396 39.3878 165.298 39.3878C165.2 39.3879 165.106 39.4268 165.037 39.4961C164.967 39.5654 164.929 39.6593 164.929 39.7572C164.929 39.8551 164.968 39.949 165.037 40.0182L166.427 41.4078C166.519 41.5 166.644 41.5518 166.774 41.5518C166.905 41.5518 167.03 41.5 167.122 41.4078L168.512 40.0182C168.547 39.9839 168.574 39.9432 168.592 39.8984C168.611 39.8536 168.62 39.8056 168.62 39.7572C168.62 39.7087 168.611 39.6607 168.592 39.6159C168.574 39.5711 168.547 39.5304 168.512 39.4961C168.478 39.4618 168.437 39.4347 168.393 39.4161C168.348 39.3975 168.3 39.388 168.251 39.388C168.203 39.388 168.155 39.3975 168.11 39.4161C168.065 39.4347 168.024 39.4618 167.99 39.4961L167.144 40.3427V35.3268V35.3272ZM169.106 40.9875C169.106 40.7837 169.271 40.6183 169.475 40.6183H173.413C173.511 40.6183 173.604 40.6572 173.674 40.7265C173.743 40.7957 173.782 40.8896 173.782 40.9875C173.782 41.0854 173.743 41.1793 173.674 41.2485C173.604 41.3178 173.511 41.3567 173.413 41.3567H169.475C169.377 41.3567 169.283 41.3178 169.214 41.2485C169.145 41.1793 169.106 41.0854 169.106 40.9875ZM169.475 38.812C169.377 38.812 169.283 38.8509 169.214 38.9201C169.145 38.9893 169.106 39.0832 169.106 39.1811C169.106 39.279 169.145 39.3729 169.214 39.4421C169.283 39.5114 169.377 39.5503 169.475 39.5503H172.182C172.28 39.5503 172.374 39.5114 172.443 39.4421C172.512 39.3729 172.551 39.279 172.551 39.1811C172.551 39.0832 172.512 38.9893 172.443 38.9201C172.374 38.8509 172.28 38.812 172.182 38.812H169.475ZM169.106 37.378C169.106 37.1742 169.271 37.0089 169.475 37.0089H171.198C171.246 37.0089 171.294 37.0184 171.339 37.037C171.384 37.0555 171.424 37.0827 171.459 37.117C171.493 37.1513 171.52 37.192 171.539 37.2367C171.557 37.2815 171.567 37.3295 171.567 37.378C171.567 37.4265 171.557 37.4745 171.539 37.5193C171.52 37.5641 171.493 37.6048 171.459 37.639C171.424 37.6733 171.384 37.7005 171.339 37.7191C171.294 37.7376 171.246 37.7472 171.198 37.7472H169.475C169.377 37.7472 169.283 37.7083 169.214 37.639C169.145 37.5698 169.106 37.4759 169.106 37.378ZM169.475 35.2041C169.377 35.2041 169.283 35.243 169.214 35.3122C169.145 35.3815 169.106 35.4754 169.106 35.5733C169.106 35.6712 169.145 35.7651 169.214 35.8343C169.283 35.9035 169.377 35.9424 169.475 35.9424H169.967C170.016 35.9424 170.064 35.9329 170.109 35.9143C170.153 35.8958 170.194 35.8686 170.228 35.8343C170.263 35.8 170.29 35.7593 170.308 35.7145C170.327 35.6697 170.336 35.6217 170.336 35.5733C170.336 35.5248 170.327 35.4768 170.308 35.432C170.29 35.3872 170.263 35.3465 170.228 35.3122C170.194 35.278 170.153 35.2508 170.109 35.2322C170.064 35.2137 170.016 35.2041 169.967 35.2041H169.475Z" fill="#0056CF"/>
</g>
<mask id="path-6-inside-2_2264_12660" fill="white">
<path d="M184.051 23.8076H278.071V60.7229H184.051V23.8076Z"/>
</mask>
<path d="M184.051 23.8076V24.4912H278.071V23.8076V23.124H184.051V23.8076ZM278.071 60.7229V60.0393H184.051V60.7229V61.4065H278.071V60.7229Z" fill="#E4E8F0" mask="url(#path-6-inside-2_2264_12660)"/>
<path d="M255.585 33.2186H256.782V38.9609H255.552L252.853 35.171V38.9609H251.655V33.2186H252.91L255.585 37.0249V33.2186ZM258.82 38.9609V33.2186H262.2V34.3342H260.051V35.4991H262.011V36.582H260.051V37.8453H262.217V38.9609H258.82ZM266.611 38.9609H265.61L263.642 33.2186H264.93L266.127 37.0167L267.35 33.2186H268.35L269.564 37.0167L270.77 33.2186H272.034L270.065 38.9609H269.056L267.834 35.13L266.611 38.9609ZM207.652 50.9609V45.2186H211.032V46.3342H208.882V47.4991H210.843V48.582H208.882V49.8453H211.048V50.9609H207.652ZM216.784 45.2186H217.981V50.9609H216.751L214.052 47.171V50.9609H212.854V45.2186H214.109L216.784 49.0249V45.2186ZM221.242 48.8609V50.9609H220.019V45.2186H221.931C223.169 45.2186 224.031 45.883 224.031 47.0561C224.031 47.8765 223.539 48.4507 222.849 48.7132L224.433 50.9609H222.981L221.57 48.8609H221.242ZM221.242 46.326V47.8436H221.939C222.431 47.8436 222.792 47.5565 222.792 47.0807C222.792 46.5967 222.431 46.326 221.939 46.326H221.242ZM231.557 48.0898C231.557 49.7468 230.22 51.0676 228.554 51.0676C226.889 51.0676 225.552 49.7468 225.552 48.0898C225.552 46.4327 226.889 45.1119 228.554 45.1119C230.22 45.1119 231.557 46.4327 231.557 48.0898ZM230.293 48.0898C230.293 47.0971 229.53 46.3096 228.554 46.3096C227.578 46.3096 226.815 47.0971 226.815 48.0898C226.815 49.0824 227.578 49.8699 228.554 49.8699C229.53 49.8699 230.293 49.0824 230.293 48.0898ZM233.324 45.2186H234.555V49.8043H236.556V50.9609H233.324V45.2186ZM238.158 45.2186H239.389V49.8043H241.39V50.9609H238.158V45.2186ZM245.65 49.4515L244.19 47.1546V50.9609H242.992V45.2186H244.28L246.011 47.9503L247.734 45.2186H248.989V50.9609H247.791V47.1382L246.323 49.4515H245.65ZM251.022 50.9609V45.2186H254.402V46.3342H252.253V47.4991H254.213V48.582H252.253V49.8453H254.419V50.9609H251.022ZM260.154 45.2186H261.352V50.9609H260.121L257.422 47.171V50.9609H256.225V45.2186H257.48L260.154 49.0249V45.2186ZM262.931 46.367V45.2186H267.196V46.367H265.687V50.9609H264.448V46.367H262.931ZM268.58 50.5754V49.1152C269.13 49.6238 269.926 49.9109 270.541 49.9109C271.099 49.9109 271.41 49.6894 271.41 49.2874C271.41 48.8199 270.836 48.7214 270.196 48.5491C269.409 48.3441 268.515 48.0487 268.515 46.9249C268.515 45.8256 269.401 45.1119 270.648 45.1119C271.328 45.1119 271.911 45.2678 272.419 45.5877V46.9577C271.886 46.4983 271.271 46.2522 270.656 46.2522C270.049 46.2522 269.786 46.5065 269.786 46.851C269.786 47.2284 270.27 47.3514 270.828 47.4991C271.657 47.7124 272.69 47.9913 272.69 49.1972C272.69 50.2965 271.878 51.0676 270.566 51.0676C269.852 51.0676 269.097 50.8953 268.58 50.5754Z" fill="#4B546B"/>
<mask id="path-9-inside-3_2264_12660" fill="white">
<path d="M278.07 23.8076H375.303V60.7229H278.07V23.8076Z"/>
</mask>
<path d="M278.07 23.8076H375.303V60.7229H278.07V23.8076Z" fill="white"/>
<path d="M278.07 23.8076V24.4912H375.303V23.8076V23.124H278.07V23.8076ZM375.303 60.7229V60.0393H278.07V60.7229V61.4065H375.303V60.7229Z" fill="#E4E8F0" mask="url(#path-9-inside-3_2264_12660)"/>
<path d="M317.591 38.5744V37.1142C318.14 37.6228 318.936 37.9099 319.551 37.9099C320.109 37.9099 320.421 37.6884 320.421 37.2865C320.421 36.8189 319.846 36.7204 319.207 36.5482C318.419 36.3431 317.525 36.0478 317.525 34.9239C317.525 33.8246 318.411 33.1109 319.658 33.1109C320.339 33.1109 320.921 33.2668 321.43 33.5867V34.9567C320.896 34.4973 320.281 34.2512 319.666 34.2512C319.059 34.2512 318.796 34.5055 318.796 34.8501C318.796 35.2274 319.28 35.3505 319.838 35.4981C320.667 35.7114 321.7 35.9903 321.7 37.1962C321.7 38.2955 320.888 39.0666 319.576 39.0666C318.862 39.0666 318.107 38.8943 317.591 38.5744ZM323.087 36.0888C323.087 34.4071 324.4 33.1109 326.057 33.1109C326.557 33.1109 327.066 33.2422 327.517 33.4965V34.8255C327.082 34.4973 326.631 34.3168 326.098 34.3168C325.097 34.3168 324.359 35.0962 324.359 36.0888C324.359 37.065 325.064 37.8525 326.098 37.8525C326.623 37.8525 327.074 37.6802 327.525 37.3603V38.681C327.025 38.96 326.5 39.0666 326.04 39.0666C324.301 39.0666 323.087 37.7951 323.087 36.0888ZM329.305 38.96V33.2176H330.544V35.4407H332.841V33.2176H334.08V38.96H332.841V36.622H330.544V38.96H329.305ZM336.118 38.96V33.2176H339.498V34.3332H337.348V35.4981H339.309V36.581H337.348V37.8443H339.514V38.96H336.118ZM346.185 36.0888C346.185 37.7048 344.872 38.96 343.265 38.96H341.32V33.2176H343.265C344.872 33.2176 346.185 34.4727 346.185 36.0888ZM344.922 36.0888C344.922 35.1372 344.183 34.3743 343.232 34.3743H342.551V37.8033H343.232C344.183 37.8033 344.922 37.0404 344.922 36.0888ZM350.18 39.0666C348.744 39.0666 347.875 38.1314 347.875 36.6794V33.2176H349.122V36.6138C349.122 37.3849 349.499 37.8689 350.18 37.8689C350.861 37.8689 351.238 37.3849 351.238 36.6138V33.2176H352.485V36.6794C352.485 38.1314 351.616 39.0666 350.18 39.0666ZM354.449 33.2176H355.679V37.8033H357.681V38.96H354.449V33.2176ZM359.283 38.96V33.2176H362.663V34.3332H360.513V35.4981H362.474V36.581H360.513V37.8443H362.679V38.96H359.283ZM369.35 36.0888C369.35 37.7048 368.037 38.96 366.429 38.96H364.485V33.2176H366.429C368.037 33.2176 369.35 34.4727 369.35 36.0888ZM368.087 36.0888C368.087 35.1372 367.348 34.3743 366.397 34.3743H365.716V37.8033H366.397C367.348 37.8033 368.087 37.0404 368.087 36.0888ZM327.877 49.4505L326.417 47.1536V50.96H325.22V45.2176H326.507L328.238 47.9493L329.961 45.2176H331.216V50.96H330.019V47.1372L328.55 49.4505H327.877ZM333.25 50.96V45.2176H336.63V46.3332H334.48V47.4981H336.441V48.581H334.48V49.8443H336.646V50.96H333.25ZM338.452 50.96V45.2176H341.832V46.3332H339.683V47.4981H341.643V48.581H339.683V49.8443H341.849V50.96H338.452ZM343.316 46.3661V45.2176H347.581V46.3661H346.072V50.96H344.833V46.3661H343.316ZM349.154 45.2176H350.392V50.96H349.154V45.2176ZM356.355 45.2176H357.552V50.96H356.322L353.623 47.17V50.96H352.425V45.2176H353.68L356.355 49.024V45.2176ZM363.298 49.7377V48.7943H362.019V47.736H364.455V50.4514C363.914 50.8287 363.225 51.0666 362.404 51.0666C360.616 51.0666 359.32 49.9345 359.32 48.1216C359.32 46.4235 360.608 45.1109 362.486 45.1109C363.102 45.1109 363.84 45.275 364.34 45.5867V46.9403C363.84 46.5547 363.241 46.2758 362.494 46.2758C361.313 46.2758 360.567 47.0634 360.567 48.1216C360.567 49.2208 361.362 49.9181 362.421 49.9181C362.782 49.9181 363.093 49.8361 363.298 49.7377ZM366.167 50.5744V49.1142C366.716 49.6228 367.512 49.9099 368.127 49.9099C368.685 49.9099 368.997 49.6884 368.997 49.2865C368.997 48.8189 368.423 48.7204 367.783 48.5482C366.995 48.3431 366.101 48.0478 366.101 46.9239C366.101 45.8246 366.987 45.1109 368.234 45.1109C368.915 45.1109 369.497 45.2668 370.006 45.5867V46.9567C369.473 46.4973 368.857 46.2512 368.242 46.2512C367.635 46.2512 367.373 46.5055 367.373 46.8501C367.373 47.2274 367.857 47.3505 368.415 47.4981C369.243 47.7114 370.277 47.9903 370.277 49.1962C370.277 50.2955 369.465 51.0666 368.152 51.0666C367.438 51.0666 366.684 50.8943 366.167 50.5744Z" fill="#4B546B"/>
<rect width="706.175" height="25.9774" transform="translate(61 60.7227)" fill="white"/>
<g filter="url(#filter1_d_2264_12660)">
<mask id="path-12-inside-4_2264_12660" fill="white">
<path d="M61 60.7227H184.051V86.7001H61V60.7227Z"/>
</mask>
<path d="M61 60.7227H184.051V86.7001H61V60.7227Z" fill="white" fill-opacity="0.01" shape-rendering="crispEdges"/>
<path d="M61 86.7001H60.3164V87.3837H61V86.7001ZM184.051 86.7001V86.0164H61V86.7001V87.3837H184.051V86.7001ZM61 86.7001H61.6836V60.7227H61H60.3164V86.7001H61Z" fill="#E4E8F0" mask="url(#path-12-inside-4_2264_12660)"/>
<path d="M89.379 77.3633V76.7795L91.8291 74.1858C92.3938 73.5925 92.566 73.1809 92.566 72.6737C92.566 71.9942 91.9727 71.4773 91.207 71.4773C90.6041 71.4773 89.982 71.8793 89.4556 72.5301V71.5252C89.915 71.0084 90.5945 70.683 91.2166 70.683C92.4799 70.683 93.4082 71.4965 93.4082 72.6354C93.4082 73.4202 93.102 73.9944 92.3938 74.7409L90.6423 76.5785H93.4944V77.3633H89.379ZM97.1122 77.4686C95.3225 77.4686 94.4612 75.8511 94.4612 74.0806C94.4612 72.3004 95.3225 70.683 97.1122 70.683C98.9019 70.683 99.7633 72.3004 99.7633 74.0806C99.7633 75.8511 98.9019 77.4686 97.1122 77.4686ZM97.1122 76.6742C98.3564 76.6742 98.9115 75.4204 98.9115 74.0806C98.9115 72.7407 98.3564 71.4773 97.1122 71.4773C95.8681 71.4773 95.313 72.7407 95.313 74.0806C95.313 75.4204 95.8681 76.6742 97.1122 76.6742ZM100.537 77.3633V76.7795L102.987 74.1858C103.551 73.5925 103.724 73.1809 103.724 72.6737C103.724 71.9942 103.13 71.4773 102.365 71.4773C101.762 71.4773 101.14 71.8793 100.613 72.5301V71.5252C101.073 71.0084 101.752 70.683 102.374 70.683C103.638 70.683 104.566 71.4965 104.566 72.6354C104.566 73.4202 104.26 73.9944 103.551 74.7409L101.8 76.5785H104.652V77.3633H100.537ZM107.476 77.3633H106.633V71.7358L105.447 72.2239V71.3625L106.786 70.7883H107.476V77.3633Z" fill="#242B42"/>
<path d="M76.8137 72.5044C76.8137 71.2397 76.1301 70.0777 75.0363 69.428C73.9254 68.7958 72.5753 68.7958 71.4815 69.428C70.3706 70.0781 69.7041 71.24 69.7041 72.5044C69.7041 73.7864 70.3706 74.9483 71.4815 75.5977C72.5753 76.2302 73.9254 76.2302 75.0363 75.5977C76.1301 74.9487 76.8137 73.7864 76.8137 72.5044ZM68.8838 72.5044C68.8825 71.7378 69.0843 70.9844 69.4685 70.321C69.8527 69.6576 70.4057 69.1077 71.0714 68.7272C72.4215 67.9412 74.0793 67.9412 75.4465 68.7272C76.7966 69.5137 77.6341 70.9491 77.6341 72.5044C77.6341 74.0769 76.7966 75.5124 75.4465 76.2984C74.0793 77.0849 72.4215 77.0849 71.0714 76.2984C69.7041 75.5124 68.8838 74.0769 68.8838 72.5044ZM72.097 70.6585C72.1572 70.6168 72.2288 70.5944 72.3021 70.5944C72.3753 70.5944 72.4469 70.6168 72.5071 70.6585L74.9682 72.1625C75.0877 72.231 75.1731 72.3677 75.1731 72.5216C75.1731 72.6583 75.0877 72.795 74.9682 72.8632L72.5071 74.3672C72.3872 74.4528 72.2166 74.4528 72.097 74.3843C72.0348 74.3472 71.9833 74.2946 71.9473 74.2318C71.9114 74.169 71.8922 74.0979 71.8917 74.0255V71.0005C71.8917 70.8638 71.9602 70.727 72.097 70.6585Z" fill="#687887"/>
</g>
<mask id="path-17-inside-5_2264_12660" fill="white">
<path d="M184.051 60.7227H278.071V86.7001H184.051V60.7227Z"/>
</mask>
<path d="M278.071 86.7001V86.0164H184.051V86.7001V87.3837H278.071V86.7001Z" fill="#E4E8F0" mask="url(#path-17-inside-5_2264_12660)"/>
<path d="M262.128 77.3623V76.7785L264.579 74.1849C265.143 73.5915 265.315 73.1799 265.315 72.6727C265.315 71.9932 264.722 71.4764 263.956 71.4764C263.353 71.4764 262.731 71.8783 262.205 72.5291V71.5242C262.664 71.0074 263.344 70.682 263.966 70.682C265.229 70.682 266.158 71.4955 266.158 72.6344C266.158 73.4192 265.851 73.9934 265.143 74.74L263.392 76.5775H266.244V77.3623H262.128ZM269.862 77.4676C268.072 77.4676 267.211 75.8501 267.211 74.0796C267.211 72.2994 268.072 70.682 269.862 70.682C271.651 70.682 272.513 72.2994 272.513 74.0796C272.513 75.8501 271.651 77.4676 269.862 77.4676ZM269.862 76.6732C271.106 76.6732 271.661 75.4195 271.661 74.0796C271.661 72.7397 271.106 71.4764 269.862 71.4764C268.617 71.4764 268.062 72.7397 268.062 74.0796C268.062 75.4195 268.617 76.6732 269.862 76.6732Z" fill="#242B42"/>
<mask id="path-20-inside-6_2264_12660" fill="white">
<path d="M278.07 60.7227H375.303V86.7001H278.07V60.7227Z"/>
</mask>
<path d="M375.303 86.7001V86.0164H278.07V86.7001V87.3837H375.303V86.7001Z" fill="#E4E8F0" mask="url(#path-20-inside-6_2264_12660)"/>
<path d="M362.373 77.3623H361.531V71.7348L360.344 72.2229V71.3615L361.684 70.7873H362.373V77.3623ZM366.461 77.4676C364.672 77.4676 363.81 75.8501 363.81 74.0796C363.81 72.2994 364.672 70.682 366.461 70.682C368.251 70.682 369.112 72.2994 369.112 74.0796C369.112 75.8501 368.251 77.4676 366.461 77.4676ZM366.461 76.6732C367.705 76.6732 368.261 75.4195 368.261 74.0796C368.261 72.7397 367.705 71.4764 366.461 71.4764C365.217 71.4764 364.662 72.7397 364.662 74.0796C364.662 75.4195 365.217 76.6732 366.461 76.6732Z" fill="#242B42"/>
<rect width="706.175" height="25.9774" transform="translate(61 86.7002)" fill="white"/>
<g filter="url(#filter2_d_2264_12660)">
<mask id="path-23-inside-7_2264_12660" fill="white">
<path d="M61 86.7002H184.051V112.678H61V86.7002Z"/>
</mask>
<path d="M61 86.7002H184.051V112.678H61V86.7002Z" fill="white" fill-opacity="0.01" shape-rendering="crispEdges"/>
<path d="M61 112.678H60.3164V113.361H61V112.678ZM184.051 112.678V111.994H61V112.678V113.361H184.051V112.678ZM61 112.678H61.6836V86.7002H61H60.3164V112.678H61Z" fill="#E4E8F0" mask="url(#path-23-inside-7_2264_12660)"/>
<path d="M88.3201 103.34V102.756L90.7702 100.162C91.3349 99.569 91.5072 99.1575 91.5072 98.6502C91.5072 97.9707 90.9138 97.4539 90.1481 97.4539C89.5452 97.4539 88.9231 97.8559 88.3967 98.5067V97.5018C88.8561 96.985 89.5356 96.6595 90.1577 96.6595C91.421 96.6595 92.3494 97.4731 92.3494 98.612C92.3494 99.3967 92.0431 99.971 91.3349 100.717L89.5835 102.555H92.4355V103.34H88.3201ZM96.0534 103.445C94.2637 103.445 93.4023 101.828 93.4023 100.057C93.4023 98.277 94.2637 96.6595 96.0534 96.6595C97.8431 96.6595 98.7044 98.277 98.7044 100.057C98.7044 101.828 97.8431 103.445 96.0534 103.445ZM96.0534 102.651C97.2975 102.651 97.8526 101.397 97.8526 100.057C97.8526 98.7172 97.2975 97.4539 96.0534 97.4539C94.8092 97.4539 94.2541 98.7172 94.2541 100.057C94.2541 101.397 94.8092 102.651 96.0534 102.651ZM99.4778 103.34V102.756L101.928 100.162C102.493 99.569 102.665 99.1575 102.665 98.6502C102.665 97.9707 102.071 97.4539 101.306 97.4539C100.703 97.4539 100.081 97.8559 99.5544 98.5067V97.5018C100.014 96.985 100.693 96.6595 101.315 96.6595C102.579 96.6595 103.507 97.4731 103.507 98.612C103.507 99.3967 103.201 99.971 102.493 100.717L100.741 102.555H103.593V103.34H99.4778ZM104.463 103.34V102.756L106.913 100.162C107.478 99.569 107.65 99.1575 107.65 98.6502C107.65 97.9707 107.057 97.4539 106.291 97.4539C105.688 97.4539 105.066 97.8559 104.54 98.5067V97.5018C104.999 96.985 105.679 96.6595 106.301 96.6595C107.564 96.6595 108.492 97.4731 108.492 98.612C108.492 99.3967 108.186 99.971 107.478 100.717L105.726 102.555H108.578V103.34H104.463Z" fill="#242B42"/>
<path d="M76.8137 98.481C76.8137 97.2162 76.1301 96.0543 75.0363 95.4046C73.9254 94.7724 72.5753 94.7724 71.4815 95.4046C70.3706 96.0546 69.7041 97.2166 69.7041 98.481C69.7041 99.7629 70.3706 100.925 71.4815 101.574C72.5753 102.207 73.9254 102.207 75.0363 101.574C76.1301 100.925 76.8137 99.7629 76.8137 98.481ZM68.8838 98.481C68.8825 97.7143 69.0843 96.961 69.4685 96.2976C69.8527 95.6341 70.4057 95.0842 71.0714 94.7038C72.4215 93.9177 74.0793 93.9177 75.4465 94.7038C76.7966 95.4902 77.6341 96.9256 77.6341 98.481C77.6341 100.054 76.7966 101.489 75.4465 102.275C74.0793 103.061 72.4215 103.061 71.0714 102.275C69.7041 101.489 68.8838 100.054 68.8838 98.481ZM72.097 96.6351C72.1572 96.5933 72.2288 96.571 72.3021 96.571C72.3753 96.571 72.4469 96.5933 72.5071 96.6351L74.9682 98.139C75.0877 98.2076 75.1731 98.3443 75.1731 98.4981C75.1731 98.6349 75.0877 98.7716 74.9682 98.8398L72.5071 100.344C72.3872 100.429 72.2166 100.429 72.097 100.361C72.0348 100.324 71.9833 100.271 71.9473 100.208C71.9114 100.146 71.8922 100.074 71.8917 100.002V96.9771C71.8917 96.8403 71.9602 96.7036 72.097 96.6351Z" fill="#687887"/>
</g>
<mask id="path-28-inside-8_2264_12660" fill="white">
<path d="M184.051 86.7002H278.071V112.678H184.051V86.7002Z"/>
</mask>
<path d="M278.071 112.678V111.994H184.051V112.678V113.361H278.071V112.678Z" fill="#E4E8F0" mask="url(#path-28-inside-8_2264_12660)"/>
<path d="M262.907 103.34V102.756L265.357 100.162C265.922 99.569 266.094 99.1575 266.094 98.6502C266.094 97.9707 265.501 97.4539 264.735 97.4539C264.132 97.4539 263.51 97.8559 262.983 98.5067V97.5018C263.443 96.985 264.122 96.6595 264.744 96.6595C266.008 96.6595 266.936 97.4731 266.936 98.612C266.936 99.3967 266.63 99.971 265.922 100.717L264.17 102.555H267.022V103.34H262.907ZM269.664 102.651C270.487 102.651 271.224 102.134 271.224 101.273C271.224 100.43 270.516 99.9423 269.626 99.9423C269.042 99.9423 268.573 100.086 268.171 100.296L268.401 96.7648H271.769V97.54H269.128L269.004 99.301C269.157 99.2245 269.511 99.1766 269.807 99.1766C271.071 99.1766 272.095 100.019 272.095 101.234C272.095 102.641 271.023 103.436 269.693 103.445C269.099 103.445 268.535 103.292 267.989 102.947V102.01C268.535 102.44 269.09 102.651 269.664 102.651Z" fill="#242B42"/>
<mask id="path-31-inside-9_2264_12660" fill="white">
<path d="M278.07 86.7002H375.303V112.678H278.07V86.7002Z"/>
</mask>
<path d="M375.303 112.678V111.994H278.07V112.678V113.361H375.303V112.678Z" fill="#E4E8F0" mask="url(#path-31-inside-9_2264_12660)"/>
<path d="M364.919 103.34H364.077V97.7123L362.89 98.2004V97.3391L364.23 96.7648H364.919V103.34ZM370.414 97.4156L367.668 103.34H366.739L369.429 97.5592H366.155V96.7744H370.414V97.4156Z" fill="#242B42"/>
<rect width="706.175" height="25.9774" transform="translate(61 112.678)" fill="white"/>
<g filter="url(#filter3_d_2264_12660)">
<mask id="path-34-inside-10_2264_12660" fill="white">
<path d="M61 112.678H184.051V138.655H63.7345C62.2243 138.655 61 137.431 61 135.921V112.678Z"/>
</mask>
<path d="M61 112.678H184.051V138.655H63.7345C62.2243 138.655 61 137.431 61 135.921V112.678Z" fill="white" fill-opacity="0.01" shape-rendering="crispEdges"/>
<path d="M61 112.678H184.051H61M184.051 139.339H63.7345C61.8467 139.339 60.3164 137.808 60.3164 135.921H61.6836C61.6836 137.053 62.6018 137.972 63.7345 137.972H184.051V139.339ZM63.7345 139.339C61.8467 139.339 60.3164 137.808 60.3164 135.921V112.678H61.6836V135.921C61.6836 137.053 62.6018 137.972 63.7345 137.972V139.339ZM63.7345 137.972M184.051 112.678V138.655V112.678" fill="#E4E8F0" mask="url(#path-34-inside-10_2264_12660)"/>
<path d="M87.3856 129.317V128.734L89.8356 126.14C90.4003 125.547 90.5726 125.135 90.5726 124.628C90.5726 123.948 89.9792 123.431 89.2136 123.431C88.6106 123.431 87.9885 123.833 87.4621 124.484V123.479C87.9215 122.962 88.601 122.637 89.2231 122.637C90.4864 122.637 91.4148 123.451 91.4148 124.589C91.4148 125.374 91.1085 125.949 90.4003 126.695L88.6489 128.533H91.5009V129.317H87.3856ZM95.1188 129.423C93.3291 129.423 92.4677 127.805 92.4677 126.035C92.4677 124.255 93.3291 122.637 95.1188 122.637C96.9085 122.637 97.7699 124.255 97.7699 126.035C97.7699 127.805 96.9085 129.423 95.1188 129.423ZM95.1188 128.628C96.363 128.628 96.9181 127.375 96.9181 126.035C96.9181 124.695 96.363 123.431 95.1188 123.431C93.8746 123.431 93.3195 124.695 93.3195 126.035C93.3195 127.375 93.8746 128.628 95.1188 128.628ZM98.5432 129.317V128.734L100.993 126.14C101.558 125.547 101.73 125.135 101.73 124.628C101.73 123.948 101.137 123.431 100.371 123.431C99.7683 123.431 99.1462 123.833 98.6198 124.484V123.479C99.0792 122.962 99.7587 122.637 100.381 122.637C101.644 122.637 102.572 123.451 102.572 124.589C102.572 125.374 102.266 125.949 101.558 126.695L99.8065 128.533H102.659V129.317H98.5432ZM105.3 128.628C106.114 128.628 106.745 128.14 106.745 127.422C106.745 126.724 106.123 126.245 105.329 126.245H104.707V125.48H105.329C105.932 125.48 106.487 125.001 106.487 124.456C106.487 123.862 105.961 123.422 105.281 123.422C104.726 123.422 104.209 123.68 103.683 124.14V123.202C104.161 122.838 104.726 122.637 105.291 122.637C106.477 122.637 107.32 123.384 107.32 124.379C107.32 125.001 106.985 125.537 106.401 125.815C107.128 126.054 107.597 126.685 107.597 127.432C107.597 128.6 106.621 129.423 105.31 129.423C104.678 129.423 104.085 129.26 103.511 128.906V127.987C104.094 128.418 104.688 128.628 105.3 128.628Z" fill="#242B42"/>
<path d="M76.8137 124.459C76.8137 123.194 76.1301 122.032 75.0363 121.382C73.9254 120.75 72.5753 120.75 71.4815 121.382C70.3706 122.032 69.7041 123.194 69.7041 124.459C69.7041 125.74 70.3706 126.902 71.4815 127.552C72.5753 128.184 73.9254 128.184 75.0363 127.552C76.1301 126.903 76.8137 125.74 76.8137 124.459ZM68.8838 124.459C68.8825 123.692 69.0843 122.939 69.4685 122.275C69.8527 121.612 70.4057 121.062 71.0714 120.681C72.4215 119.895 74.0793 119.895 75.4465 120.681C76.7966 121.468 77.6341 122.903 77.6341 124.459C77.6341 126.031 76.7966 127.466 75.4465 128.253C74.0793 129.039 72.4215 129.039 71.0714 128.253C69.7041 127.466 68.8838 126.031 68.8838 124.459ZM72.097 122.613C72.1572 122.571 72.2288 122.549 72.3021 122.549C72.3753 122.549 72.4469 122.571 72.5071 122.613L74.9682 124.117C75.0877 124.185 75.1731 124.322 75.1731 124.476C75.1731 124.612 75.0877 124.749 74.9682 124.817L72.5071 126.321C72.3872 126.407 72.2166 126.407 72.097 126.338C72.0348 126.301 71.9833 126.249 71.9473 126.186C71.9114 126.123 71.8922 126.052 71.8917 125.98V122.955C71.8917 122.818 71.9602 122.681 72.097 122.613Z" fill="#687887"/>
</g>
<mask id="path-39-inside-11_2264_12660" fill="white">
<path d="M184.051 112.678H278.071V138.655H184.051V112.678Z"/>
</mask>
<path d="M278.071 138.655V137.972H184.051V138.655V139.339H278.071V138.655Z" fill="#E4E8F0" mask="url(#path-39-inside-11_2264_12660)"/>
<path d="M265.141 129.317H264.299V123.69L263.112 124.178V123.317L264.452 122.742H265.141V129.317ZM269.229 129.423C267.439 129.423 266.578 127.805 266.578 126.035C266.578 124.255 267.439 122.637 269.229 122.637C271.019 122.637 271.88 124.255 271.88 126.035C271.88 127.805 271.019 129.423 269.229 129.423ZM269.229 128.628C270.473 128.628 271.028 127.375 271.028 126.035C271.028 124.695 270.473 123.431 269.229 123.431C267.985 123.431 267.43 124.695 267.43 126.035C267.43 127.375 267.985 128.628 269.229 128.628Z" fill="#242B42"/>
<mask id="path-42-inside-12_2264_12660" fill="white">
<path d="M278.07 112.678H375.303V138.655H278.07V112.678Z"/>
</mask>
<path d="M375.303 138.655V137.972H278.07V138.655V139.339H375.303V138.655Z" fill="#E4E8F0" mask="url(#path-42-inside-12_2264_12660)"/>
<path d="M364.152 129.317H363.31V123.69L362.123 124.178V123.317L363.463 122.742H364.152V129.317ZM367.264 128.628C368.087 128.628 368.824 128.111 368.824 127.25C368.824 126.408 368.115 125.92 367.225 125.92C366.641 125.92 366.172 126.063 365.771 126.274L366 122.742H369.369V123.518H366.728L366.603 125.279C366.756 125.202 367.11 125.154 367.407 125.154C368.67 125.154 369.694 125.996 369.694 127.212C369.694 128.619 368.623 129.413 367.292 129.423C366.699 129.423 366.134 129.27 365.589 128.925V127.987C366.134 128.418 366.689 128.628 367.264 128.628Z" fill="#242B42"/>
</g>
<defs>
<filter id="filter0_d_2264_12660" x="61" y="23.8076" width="123.734" height="36.915" filterUnits="userSpaceOnUse" color-interpolation-filters="sRGB">
<feFlood flood-opacity="0" result="BackgroundImageFix"/>
<feColorMatrix in="SourceAlpha" type="matrix" values="0 0 0 0 0 0 0 0 0 0 0 0 0 0 0 0 0 0 127 0" result="hardAlpha"/>
<feOffset dx="0.683616"/>
<feComposite in2="hardAlpha" operator="out"/>
<feColorMatrix type="matrix" values="0 0 0 0 0.894118 0 0 0 0 0.909804 0 0 0 0 0.941176 0 0 0 1 0"/>
<feBlend mode="normal" in2="BackgroundImageFix" result="effect1_dropShadow_2264_12660"/>
<feBlend mode="normal" in="SourceGraphic" in2="effect1_dropShadow_2264_12660" result="shape"/>
</filter>
<filter id="filter1_d_2264_12660" x="61" y="60.7227" width="123.734" height="25.9775" filterUnits="userSpaceOnUse" color-interpolation-filters="sRGB">
<feFlood flood-opacity="0" result="BackgroundImageFix"/>
<feColorMatrix in="SourceAlpha" type="matrix" values="0 0 0 0 0 0 0 0 0 0 0 0 0 0 0 0 0 0 127 0" result="hardAlpha"/>
<feOffset dx="0.683616"/>
<feComposite in2="hardAlpha" operator="out"/>
<feColorMatrix type="matrix" values="0 0 0 0 0.894118 0 0 0 0 0.909804 0 0 0 0 0.941176 0 0 0 1 0"/>
<feBlend mode="normal" in2="BackgroundImageFix" result="effect1_dropShadow_2264_12660"/>
<feBlend mode="normal" in="SourceGraphic" in2="effect1_dropShadow_2264_12660" result="shape"/>
</filter>
<filter id="filter2_d_2264_12660" x="61" y="86.7002" width="123.734" height="25.9775" filterUnits="userSpaceOnUse" color-interpolation-filters="sRGB">
<feFlood flood-opacity="0" result="BackgroundImageFix"/>
<feColorMatrix in="SourceAlpha" type="matrix" values="0 0 0 0 0 0 0 0 0 0 0 0 0 0 0 0 0 0 127 0" result="hardAlpha"/>
<feOffset dx="0.683616"/>
<feComposite in2="hardAlpha" operator="out"/>
<feColorMatrix type="matrix" values="0 0 0 0 0.894118 0 0 0 0 0.909804 0 0 0 0 0.941176 0 0 0 1 0"/>
<feBlend mode="normal" in2="BackgroundImageFix" result="effect1_dropShadow_2264_12660"/>
<feBlend mode="normal" in="SourceGraphic" in2="effect1_dropShadow_2264_12660" result="shape"/>
</filter>
<filter id="filter3_d_2264_12660" x="61" y="112.678" width="123.734" height="25.9775" filterUnits="userSpaceOnUse" color-interpolation-filters="sRGB">
<feFlood flood-opacity="0" result="BackgroundImageFix"/>
<feColorMatrix in="SourceAlpha" type="matrix" values="0 0 0 0 0 0 0 0 0 0 0 0 0 0 0 0 0 0 127 0" result="hardAlpha"/>
<feOffset dx="0.683616"/>
<feComposite in2="hardAlpha" operator="out"/>
<feColorMatrix type="matrix" values="0 0 0 0 0.894118 0 0 0 0 0.909804 0 0 0 0 0.941176 0 0 0 1 0"/>
<feBlend mode="normal" in2="BackgroundImageFix" result="effect1_dropShadow_2264_12660"/>
<feBlend mode="normal" in="SourceGraphic" in2="effect1_dropShadow_2264_12660" result="shape"/>
</filter>
<clipPath id="clip0_2264_12660">
<rect width="364" height="162.463" fill="white"/>
</clipPath>
</defs>
</svg>
