<svg width="110" height="110" viewBox="0 0 110 110" fill="none" xmlns="http://www.w3.org/2000/svg">
<path d="M105.978 1.26758C107.634 1.26782 108.977 2.61097 108.978 4.26758V105.978C108.978 107.634 107.634 108.977 105.978 108.978H4.26758C2.61072 108.978 1.26758 107.634 1.26758 105.978V4.26758C1.26769 2.61082 2.61079 1.26758 4.26758 1.26758H105.978Z" fill="#F3F7FB"/>
<path fill-rule="evenodd" clip-rule="evenodd" d="M105.978 0.267578C108.186 0.267822 109.977 2.05869 109.978 4.26758V105.978C109.978 108.187 108.186 109.977 105.978 109.978H4.26758L4.06152 109.973C1.94814 109.865 0.266602 108.118 0.266602 105.978V4.26758C0.266718 2.05854 2.05851 0.267578 4.26758 0.267578H105.978ZM4.26758 1.26758C2.61079 1.26758 1.26769 2.61082 1.26758 4.26758V105.978C1.26758 107.634 2.61072 108.978 4.26758 108.978H105.978C107.634 108.977 108.978 107.634 108.978 105.978V4.26758C108.977 2.61097 107.634 1.26782 105.978 1.26758H4.26758Z" fill="#E4E8F0"/>
<path d="M0.266602 4.26758C0.266602 2.05844 2.05746 0.267578 4.2666 0.267578H105.977C108.186 0.267578 109.977 2.05844 109.977 4.26758V16.2676H0.266602V4.26758Z" fill="#0056CF"/>
<path d="M0.266602 93.9775H109.977V105.978C109.977 108.187 108.186 109.978 105.977 109.978H4.2666C2.05746 109.978 0.266602 108.187 0.266602 105.978V93.9775Z" fill="#0056CF"/>
</svg>
