<svg width="111" height="110" viewBox="0 0 111 110" fill="none" xmlns="http://www.w3.org/2000/svg">
<path d="M106.557 1.26758C108.213 1.26782 109.557 2.61097 109.557 4.26758V105.978C109.557 107.634 108.213 108.977 106.557 108.978H4.84668C3.18983 108.978 1.84668 107.634 1.84668 105.978V4.26758C1.8468 2.61082 3.1899 1.26758 4.84668 1.26758H106.557Z" fill="#F3F7FB"/>
<path fill-rule="evenodd" clip-rule="evenodd" d="M106.557 0.267578C108.766 0.267822 110.557 2.05869 110.557 4.26758V105.978C110.557 108.187 108.766 109.977 106.557 109.978H4.84668L4.64062 109.973C2.52724 109.865 0.845703 108.118 0.845703 105.978V4.26758C0.845819 2.05854 2.63761 0.267578 4.84668 0.267578H106.557ZM4.84668 1.26758C3.1899 1.26758 1.8468 2.61082 1.84668 4.26758V105.978C1.84668 107.634 3.18983 108.978 4.84668 108.978H106.557C108.213 108.977 109.557 107.634 109.557 105.978V4.26758C109.557 2.61097 108.213 1.26782 106.557 1.26758H4.84668Z" fill="#E4E8F0"/>
<path d="M0.845703 93.9775H110.556V105.978C110.556 108.187 108.765 109.978 106.556 109.978H4.8457C2.63656 109.978 0.845703 108.187 0.845703 105.978V93.9775Z" fill="#0056CF"/>
</svg>
