<svg width="111" height="110" viewBox="0 0 111 110" fill="none" xmlns="http://www.w3.org/2000/svg">
<path d="M106.136 1.26758C107.792 1.26782 109.136 2.61097 109.136 4.26758V105.978C109.136 107.634 107.792 108.977 106.136 108.978H4.42578C2.76893 108.978 1.42578 107.634 1.42578 105.978V4.26758C1.4259 2.61082 2.769 1.26758 4.42578 1.26758H106.136Z" fill="#F3F7FB"/>
<path fill-rule="evenodd" clip-rule="evenodd" d="M106.136 0.267578C108.345 0.267822 110.136 2.05869 110.136 4.26758V105.978C110.136 108.187 108.345 109.977 106.136 109.978H4.42578L4.21973 109.973C2.10634 109.865 0.424805 108.118 0.424805 105.978V4.26758C0.424921 2.05854 2.21671 0.267578 4.42578 0.267578H106.136ZM4.42578 1.26758C2.769 1.26758 1.4259 2.61082 1.42578 4.26758V105.978C1.42578 107.634 2.76893 108.978 4.42578 108.978H106.136C107.792 108.977 109.136 107.634 109.136 105.978V4.26758C109.136 2.61097 107.792 1.26782 106.136 1.26758H4.42578Z" fill="#E4E8F0"/>
<path d="M110.136 105.978C110.136 108.187 108.345 109.978 106.136 109.978H94.1357V0.26757H106.136C108.345 0.26757 110.136 2.05843 110.136 4.26757V105.978Z" fill="#0056CF"/>
</svg>
