<svg width="111" height="110" viewBox="0 0 111 110" fill="none" xmlns="http://www.w3.org/2000/svg">
<path d="M106.267 1.26758C107.924 1.26782 109.267 2.61097 109.267 4.26758V105.978C109.267 107.634 107.924 108.977 106.267 108.978H4.55713C2.90027 108.978 1.55713 107.634 1.55713 105.978V4.26758C1.55725 2.61082 2.90035 1.26758 4.55713 1.26758H106.267Z" fill="#F3F7FB"/>
<path fill-rule="evenodd" clip-rule="evenodd" d="M106.267 0.267578C108.476 0.267822 110.267 2.05869 110.267 4.26758V105.978C110.267 108.187 108.476 109.977 106.267 109.978H4.55713L4.35107 109.973C2.23769 109.865 0.556152 108.118 0.556152 105.978V4.26758C0.556269 2.05854 2.34806 0.267578 4.55713 0.267578H106.267ZM4.55713 1.26758C2.90035 1.26758 1.55725 2.61082 1.55713 4.26758V105.978C1.55713 107.634 2.90027 108.978 4.55713 108.978H106.267C107.924 108.977 109.267 107.634 109.267 105.978V4.26758C109.267 2.61097 107.924 1.26782 106.267 1.26758H4.55713Z" fill="#E4E8F0"/>
<path d="M16.5713 109.978H4.57129C2.36215 109.978 0.571289 108.187 0.571289 105.978V4.26757C0.571289 2.05843 2.36215 0.26757 4.57129 0.26757H16.5713V109.978Z" fill="#0056CF"/>
<path d="M110.267 105.978C110.267 108.187 108.476 109.978 106.267 109.978H94.2671V0.26757H106.267C108.476 0.26757 110.267 2.05843 110.267 4.26757V105.978Z" fill="#0056CF"/>
</svg>
