<svg width="110" height="110" viewBox="0 0 110 110" fill="none" xmlns="http://www.w3.org/2000/svg">
<path d="M105.846 1.26758C107.503 1.26782 108.846 2.61097 108.846 4.26758V105.978C108.846 107.634 107.503 108.977 105.846 108.978H4.13623C2.47938 108.978 1.13623 107.634 1.13623 105.978V4.26758C1.13635 2.61082 2.47945 1.26758 4.13623 1.26758H105.846Z" fill="#F3F7FB"/>
<path fill-rule="evenodd" clip-rule="evenodd" d="M105.846 0.267578C108.055 0.267822 109.846 2.05869 109.846 4.26758V105.978C109.846 108.187 108.055 109.977 105.846 109.978H4.13623L3.93018 109.973C1.81679 109.865 0.135254 108.118 0.135254 105.978V4.26758C0.13537 2.05854 1.92716 0.267578 4.13623 0.267578H105.846ZM4.13623 1.26758C2.47945 1.26758 1.13635 2.61082 1.13623 4.26758V105.978C1.13623 107.634 2.47938 108.978 4.13623 108.978H105.846C107.503 108.977 108.846 107.634 108.846 105.978V4.26758C108.846 2.61097 107.503 1.26782 105.846 1.26758H4.13623Z" fill="#E4E8F0"/>
<path d="M0.135254 4.26758C0.135254 2.05844 1.92612 0.267578 4.13525 0.267578H105.845C108.054 0.267578 109.845 2.05844 109.845 4.26758V16.2676H0.135254V4.26758Z" fill="#0056CF"/>
</svg>
