<svg width="152" height="56" viewBox="0 0 152 56" fill="none" xmlns="http://www.w3.org/2000/svg">
<path d="M0 6C0 2.68629 2.68629 0 6 0H146C149.314 0 152 2.68629 152 6V50C152 53.3137 149.314 56 146 56H6C2.6863 56 0 53.3137 0 50V6Z" fill="white"/>
<path fill-rule="evenodd" clip-rule="evenodd" d="M146.309 0.0078125C149.479 0.168431 152 2.78979 152 6V50L151.992 50.3086C151.832 53.4789 149.21 56 146 56H6C2.7898 56 0.168429 53.4789 0.0078125 50.3086L0 50V6C2.49662e-07 2.78979 2.52111 0.168429 5.69141 0.0078125L6 0H146L146.309 0.0078125ZM6 1C3.23858 1 1 3.23858 1 6V50C1 52.7614 3.23858 55 6 55H146C148.761 55 151 52.7614 151 50V6C151 3.23858 148.761 1 146 1H6Z" fill="#E4E8F0"/>
<path fill-rule="evenodd" clip-rule="evenodd" d="M43.9961 8C46.2052 8 47.9961 9.79086 47.9961 12V44C47.9958 46.2089 46.2051 48 43.9961 48H11.9961C9.78712 48 7.99636 46.2089 7.99609 44V12C7.99609 9.79086 9.78695 8 11.9961 8H43.9961ZM11.9961 9C10.3392 9 8.99609 10.3431 8.99609 12V44C8.99636 45.6566 10.3394 47 11.9961 47H43.9961C45.6528 47 46.9958 45.6566 46.9961 44V12C46.9961 10.3431 45.6529 9 43.9961 9H11.9961Z" fill="#E4E8F0"/>
<path d="M43.9961 9C45.6529 9 46.9961 10.3431 46.9961 12V44C46.9958 45.6566 45.6528 47 43.9961 47H11.9961C10.3394 47 8.99636 45.6566 8.99609 44V12C8.99609 10.3431 10.3392 9 11.9961 9H43.9961Z" fill="#F3F7FB"/>
<path fill-rule="evenodd" clip-rule="evenodd" d="M92 8C94.2091 8 96 9.79086 96 12V44C95.9997 46.2089 94.209 48 92 48H60C57.791 48 56.0003 46.2089 56 44V12C56 9.79086 57.7909 8 60 8H92ZM60 9C58.3431 9 57 10.3431 57 12V44C57.0003 45.6566 58.3433 47 60 47H92C93.6567 47 94.9997 45.6566 95 44V12C95 10.3431 93.6569 9 92 9H60Z" fill="#E4E8F0"/>
<path d="M92 9C93.6569 9 95 10.3431 95 12V44C94.9997 45.6566 93.6567 47 92 47H60C58.3433 47 57.0003 45.6566 57 44V12C57 10.3431 58.3431 9 60 9H92Z" fill="#F3F7FB"/>
<path fill-rule="evenodd" clip-rule="evenodd" d="M140.004 8C142.213 8 144.004 9.79086 144.004 12V44C144.004 46.2089 142.213 48 140.004 48H108.004C105.795 48 104.004 46.2089 104.004 44V12C104.004 9.79086 105.795 8 108.004 8H140.004ZM108.004 9C106.347 9 105.004 10.3431 105.004 12V44C105.004 45.6566 106.347 47 108.004 47H140.004C141.661 47 143.004 45.6566 143.004 44V12C143.004 10.3431 141.661 9 140.004 9H108.004Z" fill="#E4E8F0"/>
<path d="M140.004 9C141.661 9 143.004 10.3431 143.004 12V44C143.004 45.6566 141.661 47 140.004 47H108.004C106.347 47 105.004 45.6566 105.004 44V12C105.004 10.3431 106.347 9 108.004 9H140.004Z" fill="#F3F7FB"/>
<path d="M29.6808 33.5001H27.3868V25.3316L25.4648 26.0756V23.8281L27.8673 22.8516H29.6808V33.5001Z" fill="#242B42"/>
<path d="M79.2972 33.5H72.0742V31.8725L75.5617 28.416C76.5537 27.455 76.8327 26.959 76.8327 26.246C76.8327 25.3935 76.1042 24.789 75.0812 24.789C74.0892 24.789 73.1592 25.347 72.3222 26.2615V23.828C73.1437 23.084 74.2132 22.6655 75.2672 22.6655C77.4062 22.6655 79.1267 23.9675 79.1267 25.998C79.1267 27.4085 78.5377 28.447 77.1892 29.687L75.2827 31.454H79.2972V33.5Z" fill="#242B42"/>
<path d="M127.048 30.3225C127.048 32.3375 125.451 33.7015 123.018 33.7015C121.979 33.7015 121.003 33.438 120.119 32.8955V30.5705C121.003 31.268 121.902 31.609 122.832 31.609C123.963 31.609 124.754 31.0975 124.754 30.1985C124.754 29.408 124.01 28.8655 122.909 28.8655H121.902V27.0675H122.863C123.762 27.0675 124.382 26.5715 124.382 25.9205C124.382 25.1765 123.653 24.7425 122.785 24.7425C121.933 24.7425 121.158 25.068 120.336 25.7345V23.456C121.111 22.929 122.026 22.6655 122.971 22.6655C125.079 22.6655 126.629 23.7815 126.629 25.6415C126.629 26.6335 126.118 27.3775 125.312 27.827C126.412 28.2765 127.048 29.16 127.048 30.3225Z" fill="#242B42"/>
</svg>
