<svg width="380" height="56" viewBox="0 0 380 56" fill="none" xmlns="http://www.w3.org/2000/svg">
<path d="M242 1C244.761 1 247 3.23858 247 6V50C247 52.7614 244.761 55 242 55H6C3.23858 55 1 52.7614 1 50V6C1 3.23858 3.23858 1 6 1H242Z" fill="white"/>
<path fill-rule="evenodd" clip-rule="evenodd" d="M242 0C245.314 0 248 2.68629 248 6V50L247.992 50.3086C247.832 53.4789 245.21 56 242 56H6L5.69141 55.9922C2.62332 55.8368 0.16325 53.3767 0.0078125 50.3086L0 50V6C2.49662e-07 2.78979 2.52111 0.168429 5.69141 0.0078125L6 0H242ZM6 1C3.23858 1 1 3.23858 1 6V50C1 52.7614 3.23858 55 6 55H242C244.761 55 247 52.7614 247 50V6C247 3.23858 244.761 1 242 1H6Z" fill="#E4E8F0"/>
<path fill-rule="evenodd" clip-rule="evenodd" d="M44 8C46.2091 8 48 9.79086 48 12V44C47.9997 46.2089 46.209 48 44 48H12C9.79102 48 8.00026 46.2089 8 44V12C8 9.79086 9.79086 8 12 8H44ZM12 9C10.3431 9 9 10.3431 9 12V44C9.00026 45.6566 10.3433 47 12 47H44C45.6567 47 46.9997 45.6566 47 44V12C47 10.3431 45.6569 9 44 9H12Z" fill="#0056CF"/>
<path d="M44 9C45.6569 9 47 10.3431 47 12V44C46.9997 45.6566 45.6567 47 44 47H12C10.3433 47 9.00026 45.6566 9 44V12C9 10.3431 10.3431 9 12 9H44Z" fill="#F3F7FB"/>
<path fill-rule="evenodd" clip-rule="evenodd" d="M140 8C142.209 8 144 9.79086 144 12V44C144 46.2089 142.209 48 140 48H60C57.791 48 56.0003 46.2089 56 44V12C56 9.79086 57.7909 8 60 8H140ZM60 9C58.3431 9 57 10.3431 57 12V44C57.0003 45.6566 58.3433 47 60 47H140C141.657 47 143 45.6566 143 44V12C143 10.3431 141.657 9 140 9H60Z" fill="#E4E8F0"/>
<path d="M140 9C141.657 9 143 10.3431 143 12V44C143 45.6566 141.657 47 140 47H60C58.3433 47 57.0003 45.6566 57 44V12C57 10.3431 58.3431 9 60 9H140Z" fill="#F3F7FB"/>
<path fill-rule="evenodd" clip-rule="evenodd" d="M236 8C238.209 8 240 9.79086 240 12V44C240 46.2089 238.209 48 236 48H156C153.791 48 152 46.2089 152 44V12C152 9.79086 153.791 8 156 8H236ZM156 9C154.343 9 153 10.3431 153 12V44C153 45.6566 154.343 47 156 47H236C237.657 47 239 45.6566 239 44V12C239 10.3431 237.657 9 236 9H156Z" fill="#E4E8F0"/>
<path d="M236 9C237.657 9 239 10.3431 239 12V44C239 45.6566 237.657 47 236 47H156C154.343 47 153 45.6566 153 44V12C153 10.3431 154.343 9 156 9H236Z" fill="#F3F7FB"/>
<path d="M29.6808 33.5001H27.3868V25.3316L25.4648 26.0756V23.8281L27.8673 22.8516H29.6808V33.5001Z" fill="#242B42"/>
<path d="M103.223 33.4173H96V31.7898L99.4875 28.3333C100.479 27.3723 100.759 26.8763 100.759 26.1633C100.759 25.3108 100.03 24.7063 99.007 24.7063C98.015 24.7063 97.085 25.2643 96.248 26.1788V23.7453C97.0695 23.0013 98.139 22.5828 99.193 22.5828C101.332 22.5828 103.053 23.8848 103.053 25.9153C103.053 27.3258 102.464 28.3643 101.115 29.6043L99.2085 31.3713H103.223V33.4173Z" fill="#242B42"/>
<path d="M199.929 30.1389C199.929 32.1539 198.332 33.5179 195.898 33.5179C194.86 33.5179 193.883 33.2544 193 32.7119V30.3869C193.883 31.0844 194.782 31.4254 195.712 31.4254C196.844 31.4254 197.635 30.9139 197.635 30.0149C197.635 29.2244 196.891 28.6819 195.79 28.6819H194.782V26.8839H195.743C196.642 26.8839 197.263 26.3879 197.263 25.7369C197.263 24.9929 196.534 24.5589 195.666 24.5589C194.814 24.5589 194.039 24.8844 193.217 25.5509V23.2724C193.992 22.7454 194.906 22.4819 195.852 22.4819C197.96 22.4819 199.51 23.5979 199.51 25.4579C199.51 26.4499 198.999 27.1939 198.193 27.6434C199.293 28.0929 199.929 28.9764 199.929 30.1389Z" fill="#242B42"/>
<path d="M330.774 50.188H330.078L330.642 49H330.618C330.294 49 330.018 48.724 330.018 48.364C330.018 47.956 330.354 47.656 330.762 47.656C331.158 47.656 331.494 47.968 331.494 48.364C331.494 48.604 331.41 48.808 331.302 49.048L330.774 50.188ZM331.494 44.032C331.494 44.44 331.17 44.764 330.762 44.764C330.354 44.764 330.03 44.44 330.03 44.032C330.03 43.636 330.354 43.312 330.762 43.312C331.17 43.312 331.494 43.636 331.494 44.032Z" fill="#687887"/>
<path d="M325.242 49.132C322.998 49.132 321.918 47.104 321.918 44.884C321.918 42.652 322.998 40.624 325.242 40.624C327.486 40.624 328.566 42.652 328.566 44.884C328.566 47.104 327.486 49.132 325.242 49.132ZM325.242 48.136C326.802 48.136 327.498 46.564 327.498 44.884C327.498 43.204 326.802 41.62 325.242 41.62C323.682 41.62 322.986 43.204 322.986 44.884C322.986 46.564 323.682 48.136 325.242 48.136Z" fill="#687887"/>
<path d="M317.525 44.032C317.525 44.44 317.201 44.764 316.793 44.764C316.385 44.764 316.061 44.44 316.061 44.032C316.061 43.636 316.385 43.312 316.793 43.312C317.201 43.312 317.525 43.636 317.525 44.032ZM317.525 48.376C317.525 48.784 317.201 49.108 316.793 49.108C316.385 49.108 316.061 48.784 316.061 48.376C316.061 47.98 316.385 47.656 316.793 47.656C317.201 47.656 317.525 47.98 317.525 48.376Z" fill="#687887"/>
<path d="M310.783 48.532V47.392C311.311 47.872 311.995 48.208 312.703 48.208C313.291 48.208 313.831 48.004 313.831 47.404C313.831 46.804 313.267 46.6 312.535 46.444C311.695 46.264 310.771 45.928 310.771 44.8C310.771 43.624 311.767 43.036 312.811 43.036C313.435 43.036 314.059 43.228 314.575 43.576V44.668C314.059 44.248 313.459 43.948 312.835 43.948C312.343 43.948 311.779 44.14 311.779 44.68C311.779 45.208 312.283 45.436 312.955 45.604C314.035 45.868 314.851 46.264 314.851 47.32C314.851 48.508 313.855 49.132 312.691 49.132C312.055 49.132 311.335 48.94 310.783 48.532Z" fill="#687887"/>
<path d="M309.438 41.44C309.438 41.824 309.126 42.136 308.742 42.136C308.358 42.136 308.046 41.824 308.046 41.44C308.046 41.056 308.358 40.744 308.742 40.744C309.126 40.744 309.438 41.056 309.438 41.44ZM308.226 43.168H309.258V49H308.226V43.168Z" fill="#687887"/>
<path d="M302.767 48.532V47.392C303.295 47.872 303.979 48.208 304.687 48.208C305.275 48.208 305.815 48.004 305.815 47.404C305.815 46.804 305.251 46.6 304.519 46.444C303.679 46.264 302.755 45.928 302.755 44.8C302.755 43.624 303.751 43.036 304.795 43.036C305.419 43.036 306.043 43.228 306.559 43.576V44.668C306.043 44.248 305.443 43.948 304.819 43.948C304.327 43.948 303.763 44.14 303.763 44.68C303.763 45.208 304.267 45.436 304.939 45.604C306.019 45.868 306.835 46.264 306.835 47.32C306.835 48.508 305.839 49.132 304.675 49.132C304.039 49.132 303.319 48.94 302.767 48.532Z" fill="#687887"/>
<path d="M300.371 45.292V45.148C300.371 44.416 299.855 43.972 298.991 43.972C298.199 43.972 297.611 44.296 297.011 44.848V43.768C297.539 43.336 298.175 43.036 299.015 43.036C300.515 43.036 301.379 43.864 301.379 45.22V49H300.407V48.232C299.951 48.82 299.243 49.132 298.475 49.132C297.443 49.132 296.711 48.424 296.711 47.464C296.711 46.42 297.371 45.796 298.655 45.58L300.371 45.292ZM297.743 47.404C297.743 47.896 298.127 48.22 298.667 48.22C299.663 48.22 300.383 47.572 300.383 46.672V46.18L298.823 46.456C298.127 46.588 297.743 46.9 297.743 47.404Z" fill="#687887"/>
<path d="M290.554 49H289.534V40.6H290.554V44.092C290.974 43.456 291.766 43.036 292.618 43.036C294.274 43.036 295.546 44.356 295.546 46.084C295.546 47.8 294.274 49.132 292.618 49.132C291.766 49.132 290.986 48.76 290.554 48.124V49ZM294.502 46.084C294.502 44.908 293.638 43.984 292.498 43.984C291.358 43.984 290.494 44.908 290.494 46.084C290.494 47.26 291.358 48.184 292.498 48.184C293.638 48.184 294.502 47.26 294.502 46.084Z" fill="#687887"/>
<path d="M284.208 46.312V45.376H287.856V46.312H284.208Z" fill="#687887"/>
<path d="M282.061 49L280.465 46.744L278.857 49H277.693L279.865 46.024L277.789 43.168H278.989L280.489 45.28L282.001 43.168H283.177L281.101 46L283.273 49H282.061Z" fill="#687887"/>
<path d="M276.958 47.272V48.388C276.31 48.856 275.518 49.132 274.702 49.132C272.842 49.132 271.642 47.8 271.642 46.084C271.642 44.344 272.842 43.036 274.522 43.036C276.154 43.036 277.27 44.38 277.27 46.036C277.27 46.264 277.246 46.408 277.246 46.408H272.674C272.758 47.38 273.562 48.196 274.774 48.196C275.518 48.196 276.238 47.896 276.958 47.272ZM272.698 45.556H276.226C276.142 44.632 275.458 43.936 274.498 43.936C273.526 43.936 272.77 44.764 272.698 45.556Z" fill="#687887"/>
<path d="M269.109 40.6H270.141V49H269.109V40.6Z" fill="#687887"/>
<path d="M266.256 49H265.224V44.092H264.324V43.168H265.224V42.664C265.224 41.176 266.076 40.456 267.228 40.456C267.648 40.456 267.924 40.528 268.104 40.6V41.524C267.924 41.452 267.696 41.404 267.396 41.404C266.748 41.404 266.256 41.728 266.256 42.64V43.168H267.888V44.092H266.256V49Z" fill="#687887"/>
<path d="M332.755 32.188H332.059L332.623 31H332.599C332.275 31 331.999 30.724 331.999 30.364C331.999 29.956 332.335 29.656 332.743 29.656C333.139 29.656 333.475 29.968 333.475 30.364C333.475 30.604 333.391 30.808 333.283 31.048L332.755 32.188ZM333.475 26.032C333.475 26.44 333.151 26.764 332.743 26.764C332.335 26.764 332.011 26.44 332.011 26.032C332.011 25.636 332.335 25.312 332.743 25.312C333.151 25.312 333.475 25.636 333.475 26.032Z" fill="#687887"/>
<path d="M330.129 31H329.073V23.944L327.585 24.556V23.476L329.265 22.756H330.129V31Z" fill="#687887"/>
<path d="M323.408 26.032C323.408 26.44 323.084 26.764 322.676 26.764C322.268 26.764 321.944 26.44 321.944 26.032C321.944 25.636 322.268 25.312 322.676 25.312C323.084 25.312 323.408 25.636 323.408 26.032ZM323.408 30.376C323.408 30.784 323.084 31.108 322.676 31.108C322.268 31.108 321.944 30.784 321.944 30.376C321.944 29.98 322.268 29.656 322.676 29.656C323.084 29.656 323.408 29.98 323.408 30.376Z" fill="#687887"/>
<path d="M317.051 22.6V27.484L319.499 25.168H320.819L318.167 27.652L321.047 31H319.739L317.447 28.288L317.051 28.66V31H316.031V22.6H317.051Z" fill="#687887"/>
<path d="M309.984 27.952V31H308.952V25.168H309.984V26.008C310.344 25.432 310.968 25.036 311.844 25.036C313.332 25.036 314.196 26.032 314.196 27.58V31H313.164V27.7C313.164 26.656 312.624 25.996 311.628 25.996C310.632 25.996 309.984 26.764 309.984 27.952Z" fill="#687887"/>
<path d="M307.211 23.44C307.211 23.824 306.899 24.136 306.515 24.136C306.131 24.136 305.819 23.824 305.819 23.44C305.819 23.056 306.131 22.744 306.515 22.744C306.899 22.744 307.211 23.056 307.211 23.44ZM305.999 25.168H307.031V31H305.999V25.168Z" fill="#687887"/>
<path d="M304.723 25.096V26.128C304.723 26.128 304.615 26.104 304.435 26.104C303.355 26.104 302.695 26.968 302.695 28.228V31H301.675V25.168H302.683V26.2C302.947 25.528 303.703 25.072 304.471 25.072C304.615 25.072 304.723 25.096 304.723 25.096Z" fill="#687887"/>
<path d="M295.629 27.952V31H294.597V22.6H295.629V26.008C295.989 25.432 296.613 25.036 297.489 25.036C298.977 25.036 299.841 26.032 299.841 27.58V31H298.809V27.7C298.809 26.656 298.269 25.996 297.273 25.996C296.277 25.996 295.629 26.764 295.629 27.952Z" fill="#687887"/>
<path d="M289.138 30.532V29.392C289.666 29.872 290.35 30.208 291.058 30.208C291.646 30.208 292.186 30.004 292.186 29.404C292.186 28.804 291.622 28.6 290.89 28.444C290.05 28.264 289.126 27.928 289.126 26.8C289.126 25.624 290.122 25.036 291.166 25.036C291.79 25.036 292.414 25.228 292.93 25.576V26.668C292.414 26.248 291.814 25.948 291.19 25.948C290.698 25.948 290.134 26.14 290.134 26.68C290.134 27.208 290.638 27.436 291.31 27.604C292.39 27.868 293.206 28.264 293.206 29.32C293.206 30.508 292.21 31.132 291.046 31.132C290.41 31.132 289.69 30.94 289.138 30.532Z" fill="#687887"/>
<path d="M284.208 28.312V27.376H287.856V28.312H284.208Z" fill="#687887"/>
<path d="M282.061 31L280.465 28.744L278.857 31H277.693L279.865 28.024L277.789 25.168H278.989L280.489 27.28L282.001 25.168H283.177L281.101 28L283.273 31H282.061Z" fill="#687887"/>
<path d="M276.958 29.272V30.388C276.31 30.856 275.518 31.132 274.702 31.132C272.842 31.132 271.642 29.8 271.642 28.084C271.642 26.344 272.842 25.036 274.522 25.036C276.154 25.036 277.27 26.38 277.27 28.036C277.27 28.264 277.246 28.408 277.246 28.408H272.674C272.758 29.38 273.562 30.196 274.774 30.196C275.518 30.196 276.238 29.896 276.958 29.272ZM272.698 27.556H276.226C276.142 26.632 275.458 25.936 274.498 25.936C273.526 25.936 272.77 26.764 272.698 27.556Z" fill="#687887"/>
<path d="M269.109 22.6H270.141V31H269.109V22.6Z" fill="#687887"/>
<path d="M266.256 31H265.224V26.092H264.324V25.168H265.224V24.664C265.224 23.176 266.076 22.456 267.228 22.456C267.648 22.456 267.924 22.528 268.104 22.6V23.524C267.924 23.452 267.696 23.404 267.396 23.404C266.748 23.404 266.256 23.728 266.256 24.64V25.168H267.888V26.092H266.256V31Z" fill="#687887"/>
<path d="M330.974 14.188H330.278L330.842 13H330.818C330.494 13 330.218 12.724 330.218 12.364C330.218 11.956 330.554 11.656 330.962 11.656C331.358 11.656 331.694 11.968 331.694 12.364C331.694 12.604 331.61 12.808 331.502 13.048L330.974 14.188ZM331.694 8.03199C331.694 8.43999 331.37 8.76399 330.962 8.76399C330.554 8.76399 330.23 8.43999 330.23 8.03199C330.23 7.63599 330.554 7.31199 330.962 7.31199C331.37 7.31199 331.694 7.63599 331.694 8.03199Z" fill="#687887"/>
<path d="M325.442 13.132C323.198 13.132 322.118 11.104 322.118 8.88399C322.118 6.65199 323.198 4.62399 325.442 4.62399C327.686 4.62399 328.766 6.65199 328.766 8.88399C328.766 11.104 327.686 13.132 325.442 13.132ZM325.442 12.136C327.002 12.136 327.698 10.564 327.698 8.88399C327.698 7.20399 327.002 5.61999 325.442 5.61999C323.882 5.61999 323.186 7.20399 323.186 8.88399C323.186 10.564 323.882 12.136 325.442 12.136Z" fill="#687887"/>
<path d="M317.725 8.03199C317.725 8.43999 317.401 8.76399 316.993 8.76399C316.585 8.76399 316.261 8.43999 316.261 8.03199C316.261 7.63599 316.585 7.31199 316.993 7.31199C317.401 7.31199 317.725 7.63599 317.725 8.03199ZM317.725 12.376C317.725 12.784 317.401 13.108 316.993 13.108C316.585 13.108 316.261 12.784 316.261 12.376C316.261 11.98 316.585 11.656 316.993 11.656C317.401 11.656 317.725 11.98 317.725 12.376Z" fill="#687887"/>
<path d="M313.045 13H312.253L310.717 8.67999L309.181 13H308.389L306.217 7.16799H307.285L308.809 11.536L310.357 7.16799H311.101L312.649 11.536L314.173 7.16799H315.217L313.045 13Z" fill="#687887"/>
<path d="M302.487 7.03599C304.239 7.03599 305.535 8.39199 305.535 10.084C305.535 11.776 304.239 13.132 302.487 13.132C300.735 13.132 299.439 11.776 299.439 10.084C299.439 8.39199 300.735 7.03599 302.487 7.03599ZM302.487 7.98399C301.347 7.98399 300.483 8.91999 300.483 10.084C300.483 11.248 301.347 12.184 302.487 12.184C303.627 12.184 304.491 11.248 304.491 10.084C304.491 8.91999 303.627 7.98399 302.487 7.98399Z" fill="#687887"/>
<path d="M298.817 7.09599V8.12799C298.817 8.12799 298.709 8.10399 298.529 8.10399C297.449 8.10399 296.789 8.96799 296.789 10.228V13H295.769V7.16799H296.777V8.19999C297.041 7.52799 297.797 7.07199 298.565 7.07199C298.709 7.07199 298.817 7.09599 298.817 7.09599Z" fill="#687887"/>
<path d="M289.424 9.18399C289.424 7.91199 290.468 7.03599 291.68 7.03599C291.956 7.03599 292.22 7.08399 292.472 7.16799H294.476V8.05599H293.612C293.816 8.37999 293.936 8.76399 293.936 9.18399C293.936 10.468 292.892 11.32 291.68 11.32C291.32 11.32 290.984 11.248 290.672 11.116C290.276 11.236 290.156 11.464 290.156 11.68C290.156 12.028 290.468 12.16 290.936 12.16H292.556C293.804 12.16 294.596 12.688 294.596 13.648C294.596 15.004 293.156 15.64 291.584 15.64C290.084 15.64 288.98 15.16 288.98 13.996C288.98 13.444 289.352 13 289.724 12.76C289.4 12.532 289.256 12.196 289.256 11.824C289.256 11.176 289.652 10.864 290 10.648C289.64 10.288 289.424 9.78399 289.424 9.18399ZM293.636 13.744C293.636 13.24 293.192 13.072 292.316 13.072H290.876C290.732 13.072 290.612 13.06 290.492 13.048C290.132 13.24 289.928 13.528 289.928 13.876C289.928 14.548 290.672 14.824 291.608 14.824C292.784 14.824 293.636 14.44 293.636 13.744ZM290.372 9.18399C290.372 9.95199 290.948 10.468 291.68 10.468C292.412 10.468 292.988 9.95199 292.988 9.18399C292.988 8.43999 292.412 7.89999 291.68 7.89999C290.948 7.89999 290.372 8.43999 290.372 9.18399Z" fill="#687887"/>
<path d="M284.208 10.312V9.37599H287.856V10.312H284.208Z" fill="#687887"/>
<path d="M282.061 13L280.465 10.744L278.857 13H277.693L279.865 10.024L277.789 7.16799H278.989L280.489 9.27999L282.001 7.16799H283.177L281.101 9.99999L283.273 13H282.061Z" fill="#687887"/>
<path d="M276.958 11.272V12.388C276.31 12.856 275.518 13.132 274.702 13.132C272.842 13.132 271.642 11.8 271.642 10.084C271.642 8.34399 272.842 7.03599 274.522 7.03599C276.154 7.03599 277.27 8.37999 277.27 10.036C277.27 10.264 277.246 10.408 277.246 10.408H272.674C272.758 11.38 273.562 12.196 274.774 12.196C275.518 12.196 276.238 11.896 276.958 11.272ZM272.698 9.55599H276.226C276.142 8.63199 275.458 7.93599 274.498 7.93599C273.526 7.93599 272.77 8.76399 272.698 9.55599Z" fill="#687887"/>
<path d="M269.109 4.59999H270.141V13H269.109V4.59999Z" fill="#687887"/>
<path d="M266.256 13H265.224V8.09199H264.324V7.16799H265.224V6.66399C265.224 5.17599 266.076 4.45599 267.228 4.45599C267.648 4.45599 267.924 4.52799 268.104 4.59999V5.52399C267.924 5.45199 267.696 5.40399 267.396 5.40399C266.748 5.40399 266.256 5.72799 266.256 6.63999V7.16799H267.888V8.09199H266.256V13Z" fill="#687887"/>
</svg>
