<svg width="380" height="56" viewBox="0 0 380 56" fill="none" xmlns="http://www.w3.org/2000/svg">
<path fill-rule="evenodd" clip-rule="evenodd" d="M285.166 26.0361C286.822 26.0361 288.094 27.356 288.094 29.084C288.094 30.8 286.822 32.1318 285.166 32.1318C284.314 32.1318 283.534 31.76 283.102 31.124V34.4961H282.082V26.168H283.102V27.0918C283.522 26.4558 284.314 26.0361 285.166 26.0361ZM285.046 26.9844C283.906 26.9844 283.042 27.908 283.042 29.084C283.042 30.2599 283.906 31.1835 285.046 31.1836C286.186 31.1836 287.05 30.26 287.05 29.084C287.05 27.908 286.186 26.9844 285.046 26.9844Z" fill="#687887"/>
<path fill-rule="evenodd" clip-rule="evenodd" d="M292.678 26.0361C294.334 26.0361 295.605 27.356 295.605 29.084C295.605 30.8 294.334 32.1318 292.678 32.1318C291.826 32.1318 291.045 31.76 290.613 31.124V34.4961H289.594V26.168H290.613V27.0918C291.033 26.4558 291.826 26.0361 292.678 26.0361ZM292.558 26.9844C291.418 26.9844 290.554 27.908 290.554 29.084C290.554 30.2599 291.418 31.1835 292.558 31.1836C293.698 31.1836 294.562 30.26 294.562 29.084C294.562 27.908 293.698 26.9844 292.558 26.9844Z" fill="#687887"/>
<path fill-rule="evenodd" clip-rule="evenodd" d="M267.996 23.624C270.24 23.6242 271.32 25.652 271.32 27.8838C271.32 30.1037 270.24 32.1317 267.996 32.1318C265.752 32.1318 264.672 30.1038 264.672 27.8838C264.672 25.6519 265.752 23.624 267.996 23.624ZM267.996 24.6201C266.436 24.6201 265.74 26.2039 265.74 27.8838C265.74 29.5638 266.436 31.1357 267.996 31.1357C269.556 31.1356 270.252 29.5637 270.252 27.8838C270.252 26.204 269.556 24.6203 267.996 24.6201Z" fill="#687887"/>
<path fill-rule="evenodd" clip-rule="evenodd" d="M277.897 26.0361C279.397 26.0361 280.262 26.8639 280.262 28.2197V32H279.29V31.2324C278.834 31.8203 278.125 32.1318 277.357 32.1318C276.326 32.1317 275.594 31.4238 275.594 30.4639C275.594 29.42 276.254 28.7961 277.538 28.5801L279.254 28.292V28.1484C279.254 27.4165 278.738 26.9718 277.874 26.9717C277.082 26.9717 276.494 27.2957 275.894 27.8477V26.7676C276.421 26.3357 277.058 26.0362 277.897 26.0361ZM277.706 29.4561C277.01 29.5881 276.626 29.9003 276.626 30.4043C276.626 30.8961 277.01 31.2197 277.55 31.2197C278.546 31.2197 279.266 30.5719 279.266 29.6719V29.1797L277.706 29.4561Z" fill="#687887"/>
<path fill-rule="evenodd" clip-rule="evenodd" d="M305.47 26.0361C307.102 26.0361 308.218 27.3801 308.218 29.0361C308.218 29.2641 308.193 29.4082 308.193 29.4082H303.622C303.706 30.3801 304.51 31.1962 305.722 31.1963C306.466 31.1963 307.186 30.8965 307.906 30.2725V31.3877C307.258 31.8557 306.465 32.1318 305.649 32.1318C303.79 32.1316 302.59 30.7999 302.59 29.084C302.59 27.344 303.79 26.0362 305.47 26.0361ZM305.446 26.9355C304.474 26.9355 303.718 27.7638 303.646 28.5557H307.174C307.09 27.632 306.406 26.9358 305.446 26.9355Z" fill="#687887"/>
<path fill-rule="evenodd" clip-rule="evenodd" d="M315.305 32H314.285V31.0762C313.865 31.7121 313.073 32.1318 312.221 32.1318C310.565 32.1317 309.293 30.8119 309.293 29.084C309.293 27.3681 310.565 26.0363 312.221 26.0361C313.073 26.0361 313.853 26.4079 314.285 27.0439V23.5996H315.305V32ZM312.341 26.9844C311.201 26.9845 310.337 27.908 310.337 29.084C310.337 30.2599 311.201 31.1835 312.341 31.1836C313.481 31.1836 314.345 30.26 314.345 29.084C314.345 27.908 313.481 26.9844 312.341 26.9844Z" fill="#687887"/>
<path d="M321.427 26.168H323.059V27.0918H321.427V30.1758C321.427 30.8597 321.727 31.1718 322.398 31.1719C322.626 31.1719 322.879 31.1121 323.059 30.9922V31.9521C322.855 32.0601 322.555 32.1318 322.159 32.1318C321.055 32.1318 320.395 31.4482 320.395 30.3203V27.0918H319.387V26.96L321.391 24.7998H321.427V26.168Z" fill="#687887"/>
<path fill-rule="evenodd" clip-rule="evenodd" d="M327.001 26.0361C328.753 26.0361 330.049 27.392 330.049 29.084C330.049 30.776 328.753 32.1318 327.001 32.1318C325.249 32.1318 323.953 30.7759 323.953 29.084C323.953 27.392 325.249 26.0362 327.001 26.0361ZM327.001 26.9844C325.861 26.9845 324.997 27.92 324.997 29.084C324.997 30.2479 325.861 31.1835 327.001 31.1836C328.141 31.1836 329.005 30.248 329.005 29.084C329.005 27.92 328.141 26.9844 327.001 26.9844Z" fill="#687887"/>
<path fill-rule="evenodd" clip-rule="evenodd" d="M336.491 26.0361C337.991 26.0361 338.855 26.8639 338.855 28.2197V32H337.884V31.2324C337.428 31.8203 336.719 32.1318 335.951 32.1318C334.919 32.1317 334.188 31.4238 334.188 30.4639C334.188 29.42 334.848 28.7961 336.132 28.5801L337.848 28.292V28.1484C337.848 27.4165 337.332 26.9718 336.468 26.9717C335.676 26.9717 335.087 27.2957 334.487 27.8477V26.7676C335.015 26.3357 335.651 26.0362 336.491 26.0361ZM336.3 29.4561C335.604 29.5881 335.22 29.9003 335.22 30.4043C335.22 30.8961 335.604 31.2197 336.144 31.2197C337.14 31.2197 337.859 30.5719 337.859 29.6719V29.1797L336.3 29.4561Z" fill="#687887"/>
<path d="M298.138 32H297.105V23.5996H298.138V32Z" fill="#687887"/>
<path d="M301.089 32H300.057V26.168H301.089V32Z" fill="#687887"/>
<path d="M341.708 32H340.676V23.5996H341.708V32Z" fill="#687887"/>
<path d="M344.661 32H343.629V23.5996H344.661V32Z" fill="#687887"/>
<path d="M300.573 23.7441C300.957 23.7443 301.269 24.0565 301.269 24.4404C301.268 24.8241 300.957 25.1356 300.573 25.1357C300.189 25.1357 299.877 24.8242 299.877 24.4404C299.877 24.0564 300.189 23.7441 300.573 23.7441Z" fill="#687887"/>
<path d="M242 1C244.761 1 247 3.23858 247 6V50C247 52.7614 244.761 55 242 55H6C3.23858 55 1 52.7614 1 50V6C1 3.23858 3.23858 1 6 1H242Z" fill="white"/>
<path fill-rule="evenodd" clip-rule="evenodd" d="M242 0C245.314 0 248 2.68629 248 6V50L247.992 50.3086C247.832 53.4789 245.21 56 242 56H6L5.69141 55.9922C2.62332 55.8368 0.16325 53.3767 0.0078125 50.3086L0 50V6C2.49662e-07 2.78979 2.52111 0.168429 5.69141 0.0078125L6 0H242ZM6 1C3.23858 1 1 3.23858 1 6V50C1 52.7614 3.23858 55 6 55H242C244.761 55 247 52.7614 247 50V6C247 3.23858 244.761 1 242 1H6Z" fill="#E4E8F0"/>
<path fill-rule="evenodd" clip-rule="evenodd" d="M44 8C46.2091 8 48 9.79086 48 12V44C47.9997 46.2089 46.209 48 44 48H12C9.79102 48 8.00026 46.2089 8 44V12C8 9.79086 9.79086 8 12 8H44ZM12 9C10.3431 9 9 10.3431 9 12V44C9.00026 45.6566 10.3433 47 12 47H44C45.6567 47 46.9997 45.6566 47 44V12C47 10.3431 45.6569 9 44 9H12Z" fill="#E4E8F0"/>
<path d="M44 9C45.6569 9 47 10.3431 47 12V44C46.9997 45.6566 45.6567 47 44 47H12C10.3433 47 9.00026 45.6566 9 44V12C9 10.3431 10.3431 9 12 9H44Z" fill="#F3F7FB"/>
<path fill-rule="evenodd" clip-rule="evenodd" d="M92 8C94.2091 8 96 9.79086 96 12V44C95.9997 46.2089 94.209 48 92 48H60C57.791 48 56.0003 46.2089 56 44V12C56 9.79086 57.7909 8 60 8H92ZM60 9C58.3431 9 57 10.3431 57 12V44C57.0003 45.6566 58.3433 47 60 47H92C93.6567 47 94.9997 45.6566 95 44V12C95 10.3431 93.6569 9 92 9H60Z" fill="#E4E8F0"/>
<path d="M92 9C93.6569 9 95 10.3431 95 12V44C94.9997 45.6566 93.6567 47 92 47H60C58.3433 47 57.0003 45.6566 57 44V12C57 10.3431 58.3431 9 60 9H92Z" fill="#F3F7FB"/>
<path fill-rule="evenodd" clip-rule="evenodd" d="M140 8C142.209 8 144 9.79086 144 12V44C144 46.2089 142.209 48 140 48H108C105.791 48 104 46.2089 104 44V12C104 9.79086 105.791 8 108 8H140ZM108 9C106.343 9 105 10.3431 105 12V44C105 45.6566 106.343 47 108 47H140C141.657 47 143 45.6566 143 44V12C143 10.3431 141.657 9 140 9H108Z" fill="#E4E8F0"/>
<path d="M140 9C141.657 9 143 10.3431 143 12V44C143 45.6566 141.657 47 140 47H108C106.343 47 105 45.6566 105 44V12C105 10.3431 106.343 9 108 9H140Z" fill="#F3F7FB"/>
<path d="M29.6808 33.4999H27.3868V25.3314L25.4648 26.0754V23.8279L27.8673 22.8514H29.6808V33.4999Z" fill="#242B42"/>
<path d="M79.6117 33.4173H72.3887V31.7898L75.8762 28.3333C76.8682 27.3723 77.1472 26.8763 77.1472 26.1633C77.1472 25.3108 76.4187 24.7063 75.3957 24.7063C74.4037 24.7063 73.4737 25.2643 72.6367 26.1788V23.7453C73.4582 23.0013 74.5277 22.5828 75.5817 22.5828C77.7207 22.5828 79.4412 23.8848 79.4412 25.9153C79.4412 27.3258 78.8522 28.3643 77.5037 29.6043L75.5972 31.3713H79.6117V33.4173Z" fill="#242B42"/>
<path d="M127.464 30.1391C127.464 32.1541 125.867 33.5181 123.434 33.5181C122.395 33.5181 121.419 33.2546 120.535 32.7121V30.3871C121.419 31.0846 122.318 31.4256 123.248 31.4256C124.379 31.4256 125.17 30.9141 125.17 30.0151C125.17 29.2246 124.426 28.6821 123.325 28.6821H122.318V26.8841H123.279C124.178 26.8841 124.798 26.3881 124.798 25.7371C124.798 24.9931 124.069 24.5591 123.201 24.5591C122.349 24.5591 121.574 24.8846 120.752 25.5511V23.2726C121.527 22.7456 122.442 22.4821 123.387 22.4821C125.495 22.4821 127.045 23.5981 127.045 25.4581C127.045 26.4501 126.534 27.1941 125.728 27.6436C126.828 28.0931 127.464 28.9766 127.464 30.1391Z" fill="#242B42"/>
</svg>
