<svg width="380" height="56" viewBox="0 0 380 56" fill="none" xmlns="http://www.w3.org/2000/svg">
<path d="M242 1C244.761 1 247 3.23858 247 6V50C247 52.7614 244.761 55 242 55H6C3.23858 55 1 52.7614 1 50V6C1 3.23858 3.23858 1 6 1H242Z" fill="white"/>
<path fill-rule="evenodd" clip-rule="evenodd" d="M242 0C245.314 0 248 2.68629 248 6V50L247.992 50.3086C247.832 53.4789 245.21 56 242 56H6L5.69141 55.9922C2.62332 55.8368 0.16325 53.3767 0.0078125 50.3086L0 50V6C2.49662e-07 2.78979 2.52111 0.168429 5.69141 0.0078125L6 0H242ZM6 1C3.23858 1 1 3.23858 1 6V50C1 52.7614 3.23858 55 6 55H242C244.761 55 247 52.7614 247 50V6C247 3.23858 244.761 1 242 1H6Z" fill="#E4E8F0"/>
<path fill-rule="evenodd" clip-rule="evenodd" d="M281.264 26.0361C282.92 26.0361 284.191 27.356 284.191 29.084C284.191 30.8 282.92 32.1318 281.264 32.1318C280.412 32.1318 279.631 31.76 279.199 31.124V34.4961H278.18V26.168H279.199V27.0918C279.619 26.4558 280.412 26.0361 281.264 26.0361ZM281.144 26.9844C280.004 26.9844 279.14 27.908 279.14 29.084C279.14 30.2599 280.004 31.1835 281.144 31.1836C282.284 31.1836 283.147 30.26 283.147 29.084C283.147 27.908 282.284 26.9844 281.144 26.9844Z" fill="#687887"/>
<path fill-rule="evenodd" clip-rule="evenodd" d="M288.775 26.0361C290.431 26.0361 291.703 27.356 291.703 29.084C291.703 30.8 290.431 32.1318 288.775 32.1318C287.923 32.1318 287.143 31.76 286.711 31.124V34.4961H285.691V26.168H286.711V27.0918C287.131 26.4558 287.923 26.0361 288.775 26.0361ZM288.655 26.9844C287.515 26.9844 286.651 27.908 286.651 29.084C286.651 30.2599 287.515 31.1835 288.655 31.1836C289.795 31.1836 290.659 30.26 290.659 29.084C290.659 27.908 289.795 26.9844 288.655 26.9844Z" fill="#687887"/>
<path fill-rule="evenodd" clip-rule="evenodd" d="M273.995 26.0361C275.495 26.0361 276.359 26.8639 276.359 28.2197V32H275.388V31.2324C274.932 31.8203 274.223 32.1318 273.455 32.1318C272.423 32.1317 271.691 31.4238 271.691 30.4639C271.691 29.42 272.352 28.7961 273.636 28.5801L275.352 28.292V28.1484C275.352 27.4165 274.836 26.9718 273.972 26.9717C273.18 26.9717 272.591 27.2957 271.991 27.8477V26.7676C272.519 26.3357 273.155 26.0362 273.995 26.0361ZM273.804 29.4561C273.108 29.5881 272.724 29.9003 272.724 30.4043C272.724 30.8961 273.108 31.2197 273.647 31.2197C274.643 31.2197 275.363 30.5719 275.363 29.6719V29.1797L273.804 29.4561Z" fill="#687887"/>
<path fill-rule="evenodd" clip-rule="evenodd" d="M301.567 26.0361C303.199 26.0361 304.315 27.3801 304.315 29.0361C304.315 29.2641 304.291 29.4082 304.291 29.4082H299.72C299.804 30.3801 300.608 31.1962 301.819 31.1963C302.563 31.1963 303.284 30.8965 304.004 30.2725V31.3877C303.356 31.8557 302.563 32.1318 301.747 32.1318C299.887 32.1316 298.688 30.7999 298.688 29.084C298.688 27.344 299.887 26.0362 301.567 26.0361ZM301.544 26.9355C300.572 26.9355 299.815 27.7638 299.743 28.5557H303.271C303.187 27.632 302.504 26.9358 301.544 26.9355Z" fill="#687887"/>
<path fill-rule="evenodd" clip-rule="evenodd" d="M311.402 32H310.383V31.0762C309.963 31.7121 309.17 32.1318 308.318 32.1318C306.662 32.1317 305.391 30.8119 305.391 29.084C305.391 27.3681 306.662 26.0363 308.318 26.0361C309.17 26.0361 309.951 26.4079 310.383 27.0439V23.5996H311.402V32ZM308.438 26.9844C307.299 26.9845 306.435 27.908 306.435 29.084C306.435 30.2599 307.299 31.1835 308.438 31.1836C309.578 31.1836 310.442 30.26 310.442 29.084C310.442 27.908 309.578 26.9844 308.438 26.9844Z" fill="#687887"/>
<path d="M317.524 26.168H319.156V27.0918H317.524V30.1758C317.524 30.8597 317.824 31.1718 318.496 31.1719C318.724 31.1719 318.976 31.1121 319.156 30.9922V31.9521C318.952 32.0601 318.653 32.1318 318.257 32.1318C317.153 32.1318 316.492 31.4482 316.492 30.3203V27.0918H315.484V26.96L317.488 24.7998H317.524V26.168Z" fill="#687887"/>
<path fill-rule="evenodd" clip-rule="evenodd" d="M323.099 26.0361C324.851 26.0361 326.146 27.392 326.146 29.084C326.146 30.776 324.851 32.1318 323.099 32.1318C321.347 32.1318 320.051 30.7759 320.051 29.084C320.051 27.392 321.347 26.0362 323.099 26.0361ZM323.099 26.9844C321.959 26.9845 321.095 27.92 321.095 29.084C321.095 30.2479 321.959 31.1835 323.099 31.1836C324.239 31.1836 325.103 30.248 325.103 29.084C325.103 27.92 324.239 26.9844 323.099 26.9844Z" fill="#687887"/>
<path fill-rule="evenodd" clip-rule="evenodd" d="M332.589 26.0361C334.089 26.0361 334.953 26.8639 334.953 28.2197V32H333.981V31.2324C333.525 31.8203 332.817 32.1318 332.049 32.1318C331.017 32.1317 330.285 31.4238 330.285 30.4639C330.285 29.42 330.946 28.7961 332.229 28.5801L333.945 28.292V28.1484C333.945 27.4165 333.429 26.9718 332.565 26.9717C331.773 26.9717 331.185 27.2957 330.585 27.8477V26.7676C331.113 26.3357 331.749 26.0362 332.589 26.0361ZM332.397 29.4561C331.701 29.5881 331.317 29.9003 331.317 30.4043C331.318 30.8961 331.701 31.2197 332.241 31.2197C333.237 31.2197 333.957 30.5719 333.957 29.6719V29.1797L332.397 29.4561Z" fill="#687887"/>
<path d="M266.999 32H265.943V24.9443L264.455 25.5557V24.4756L266.135 23.7559H266.999V32Z" fill="#687887"/>
<path d="M294.235 32H293.203V23.5996H294.235V32Z" fill="#687887"/>
<path d="M297.187 32H296.154V26.168H297.187V32Z" fill="#687887"/>
<path d="M337.806 32H336.773V23.5996H337.806V32Z" fill="#687887"/>
<path d="M340.759 32H339.727V23.5996H340.759V32Z" fill="#687887"/>
<path d="M296.671 23.7441C297.055 23.7443 297.366 24.0565 297.366 24.4404C297.366 24.8241 297.055 25.1356 296.671 25.1357C296.287 25.1357 295.975 24.8242 295.975 24.4404C295.975 24.0564 296.287 23.7441 296.671 23.7441Z" fill="#687887"/>
<path d="M76 9C77.6569 9 79 10.3431 79 12V44C79 45.6569 77.6569 47 76 47H12C10.3431 47 9 45.6569 9 44V12C9 10.3431 10.3431 9 12 9H76Z" fill="#F3F7FB"/>
<path fill-rule="evenodd" clip-rule="evenodd" d="M76.2061 8.00488C78.3194 8.11212 80 9.85996 80 12V44L79.9951 44.2061C79.8913 46.2512 78.2512 47.8913 76.2061 47.9951L76 48H12C9.85996 48 8.11211 46.3194 8.00488 44.2061L8 44V12C8 9.79086 9.79086 8 12 8H76L76.2061 8.00488ZM12 9C10.3431 9 9 10.3431 9 12V44C9 45.6569 10.3431 47 12 47H76C77.6569 47 79 45.6569 79 44V12C79 10.3431 77.6569 9 76 9H12Z" fill="#E4E8F0"/>
<path d="M156 9C157.657 9 159 10.3431 159 12V44C159 45.6569 157.657 47 156 47H92C90.3431 47 89 45.6569 89 44V12C89 10.3431 90.3431 9 92 9H156Z" fill="#F3F7FB"/>
<path fill-rule="evenodd" clip-rule="evenodd" d="M156.206 8.00488C158.319 8.11212 160 9.85996 160 12V44L159.995 44.2061C159.891 46.2512 158.251 47.8913 156.206 47.9951L156 48H92C89.86 48 88.1121 46.3194 88.0049 44.2061L88 44V12C88 9.79086 89.7909 8 92 8H156L156.206 8.00488ZM92 9C90.3431 9 89 10.3431 89 12V44C89 45.6569 90.3431 47 92 47H156C157.657 47 159 45.6569 159 44V12C159 10.3431 157.657 9 156 9H92Z" fill="#E4E8F0"/>
<path d="M236 9C237.657 9 239 10.3431 239 12V44C239 45.6569 237.657 47 236 47H172C170.343 47 169 45.6569 169 44V12C169 10.3431 170.343 9 172 9H236Z" fill="#F3F7FB"/>
<path fill-rule="evenodd" clip-rule="evenodd" d="M236.206 8.00488C238.319 8.11212 240 9.85996 240 12V44L239.995 44.2061C239.891 46.2512 238.251 47.8913 236.206 47.9951L236 48H172C169.86 48 168.112 46.3194 168.005 44.2061L168 44V12C168 9.79086 169.791 8 172 8H236L236.206 8.00488ZM172 9C170.343 9 169 10.3431 169 12V44C169 45.6569 170.343 47 172 47H236C237.657 47 239 45.6569 239 44V12C239 10.3431 237.657 9 236 9H172Z" fill="#E4E8F0"/>
<path d="M45.759 32.8344H43.465V24.6659L41.543 25.4099V23.1624L43.9455 22.1859H45.759V32.8344Z" fill="#242B42"/>
<path d="M128.119 32.8345H120.896V31.207L124.384 27.7505C125.376 26.7895 125.655 26.2935 125.655 25.5805C125.655 24.728 124.926 24.1235 123.903 24.1235C122.911 24.1235 121.981 24.6815 121.144 25.596V23.1625C121.966 22.4185 123.035 22 124.089 22C126.228 22 127.949 23.302 127.949 25.3325C127.949 26.743 127.36 27.7815 126.011 29.0215L124.105 30.7885H128.119V32.8345Z" fill="#242B42"/>
<path d="M208.007 29.657C208.007 31.672 206.41 33.036 203.977 33.036C202.938 33.036 201.962 32.7725 201.078 32.23V29.905C201.962 30.6025 202.861 30.9435 203.791 30.9435C204.922 30.9435 205.713 30.432 205.713 29.533C205.713 28.7425 204.969 28.2 203.868 28.2H202.861V26.402H203.822C204.721 26.402 205.341 25.906 205.341 25.255C205.341 24.511 204.612 24.077 203.744 24.077C202.892 24.077 202.117 24.4025 201.295 25.069V22.7905C202.07 22.2635 202.985 22 203.93 22C206.038 22 207.588 23.116 207.588 24.976C207.588 25.968 207.077 26.712 206.271 27.1615C207.371 27.611 208.007 28.4945 208.007 29.657Z" fill="#242B42"/>
</svg>
