<svg width="152" height="104" viewBox="0 0 152 104" fill="none" xmlns="http://www.w3.org/2000/svg">
<path d="M146 1C148.761 1 151 3.23858 151 6V98C151 100.761 148.761 103 146 103H6C3.23858 103 1 100.761 1 98V6C1 3.23858 3.23858 1 6 1H146Z" fill="white"/>
<path fill-rule="evenodd" clip-rule="evenodd" d="M146.309 0.0078125C149.479 0.168431 152 2.78979 152 6V98C152 101.314 149.314 104 146 104H6C2.78979 104 0.168429 101.479 0.0078125 98.3086L0 98V6C0 2.78979 2.52111 0.168429 5.69141 0.0078125L6 0H146L146.309 0.0078125ZM6 1C3.23858 1 1 3.23858 1 6V98C1 100.761 3.23858 103 6 103H146C148.761 103 151 100.761 151 98V6C151 3.23858 148.761 1 146 1H6Z" fill="#E4E8F0"/>
<path fill-rule="evenodd" clip-rule="evenodd" d="M44 8C46.2091 8 48 9.79086 48 12V44C47.9997 46.2089 46.209 48 44 48H12C9.79102 48 8.00026 46.2089 8 44V12C8 9.79086 9.79086 8 12 8H44ZM12 9C10.3431 9 9 10.3431 9 12V44C9.00026 45.6566 10.3433 47 12 47H44C45.6567 47 46.9997 45.6566 47 44V12C47 10.3431 45.6569 9 44 9H12Z" fill="#E4E8F0"/>
<path d="M44 9C45.6569 9 47 10.3431 47 12V44C46.9997 45.6566 45.6567 47 44 47H12C10.3433 47 9.00026 45.6566 9 44V12C9 10.3431 10.3431 9 12 9H44Z" fill="#F3F7FB"/>
<path fill-rule="evenodd" clip-rule="evenodd" d="M92 8C94.2091 8 96 9.79086 96 12V44C95.9997 46.2089 94.209 48 92 48H60C57.791 48 56.0003 46.2089 56 44V12C56 9.79086 57.7909 8 60 8H92ZM60 9C58.3431 9 57 10.3431 57 12V44C57.0003 45.6566 58.3433 47 60 47H92C93.6567 47 94.9997 45.6566 95 44V12C95 10.3431 93.6569 9 92 9H60Z" fill="#E4E8F0"/>
<path d="M92 9C93.6569 9 95 10.3431 95 12V44C94.9997 45.6566 93.6567 47 92 47H60C58.3433 47 57.0003 45.6566 57 44V12C57 10.3431 58.3431 9 60 9H92Z" fill="#F3F7FB"/>
<path fill-rule="evenodd" clip-rule="evenodd" d="M140 8C142.209 8 144 9.79086 144 12V44C144 46.2089 142.209 48 140 48H108C105.791 48 104 46.2089 104 44V12C104 9.79086 105.791 8 108 8H140ZM108 9C106.343 9 105 10.3431 105 12V44C105 45.6566 106.343 47 108 47H140C141.657 47 143 45.6566 143 44V12C143 10.3431 141.657 9 140 9H108Z" fill="#E4E8F0"/>
<path d="M140 9C141.657 9 143 10.3431 143 12V44C143 45.6566 141.657 47 140 47H108C106.343 47 105 45.6566 105 44V12C105 10.3431 106.343 9 108 9H140Z" fill="#F3F7FB"/>
<path d="M23.582 31.131V29.55L28.17 22.6835H30.929V29.2245H32.417V31.131H30.929V33.3165H28.7435V31.131H23.582ZM26.0465 29.2245H28.759V25.117L26.0465 29.2245Z" fill="#242B42"/>
<path d="M72.4277 32.6035V30.263C73.3422 30.976 74.2722 31.317 75.2022 31.317C76.3337 31.317 77.2637 30.759 77.2637 29.705C77.2637 28.6975 76.3492 28.155 75.1092 28.155C74.2567 28.155 73.4352 28.372 72.6757 28.7285L72.9857 22.575H78.9532V24.559H74.8612L74.7682 26.388C75.0007 26.3105 75.4037 26.2485 75.8222 26.2485C77.9612 26.2485 79.5732 27.6125 79.5732 29.6895C79.5732 32.03 77.7752 33.4095 75.3417 33.425C74.2877 33.425 73.3112 33.146 72.4277 32.6035Z" fill="#242B42"/>
<path d="M128.046 29.5035C128.046 31.7355 126.295 33.425 124.001 33.425C121.691 33.425 119.955 31.7665 119.955 29.5345C119.955 28.5735 120.327 27.4885 121.025 26.4035L123.489 22.575H126.124L123.737 26.0315C123.985 25.923 124.295 25.892 124.512 25.892C126.558 25.892 128.046 27.504 128.046 29.5035ZM125.799 29.581C125.799 28.589 124.993 27.814 124.001 27.814C122.993 27.814 122.203 28.589 122.203 29.5655C122.203 30.5575 122.978 31.348 123.985 31.348C124.993 31.348 125.799 30.5575 125.799 29.581Z" fill="#242B42"/>
<path fill-rule="evenodd" clip-rule="evenodd" d="M44 56C46.2091 56 48 57.7909 48 60V92C47.9997 94.2089 46.209 96 44 96H12C9.79102 96 8.00026 94.2089 8 92V60C8 57.7909 9.79086 56 12 56H44ZM12 57C10.3431 57 9 58.3431 9 60V92C9.00026 93.6566 10.3433 95 12 95H44C45.6567 95 46.9997 93.6566 47 92V60C47 58.3431 45.6569 57 44 57H12Z" fill="#E4E8F0"/>
<path d="M44 57C45.6569 57 47 58.3431 47 60V92C46.9997 93.6566 45.6567 95 44 95H12C10.3433 95 9.00026 93.6566 9 92V60C9 58.3431 10.3431 57 12 57H44Z" fill="#F3F7FB"/>
<path fill-rule="evenodd" clip-rule="evenodd" d="M92 56C94.2091 56 96 57.7909 96 60V92C95.9997 94.2089 94.209 96 92 96H60C57.791 96 56.0003 94.2089 56 92V60C56 57.7909 57.7909 56 60 56H92ZM60 57C58.3431 57 57 58.3431 57 60V92C57.0003 93.6566 58.3433 95 60 95H92C93.6567 95 94.9997 93.6566 95 92V60C95 58.3431 93.6569 57 92 57H60Z" fill="#E4E8F0"/>
<path d="M92 57C93.6569 57 95 58.3431 95 60V92C94.9997 93.6566 93.6567 95 92 95H60C58.3433 95 57.0003 93.6566 57 92V60C57 58.3431 58.3431 57 60 57H92Z" fill="#F3F7FB"/>
<path fill-rule="evenodd" clip-rule="evenodd" d="M140 56C142.209 56 144 57.7909 144 60V92C144 94.2089 142.209 96 140 96H108C105.791 96 104 94.2089 104 92V60C104 57.7909 105.791 56 108 56H140ZM108 57C106.343 57 105 58.3431 105 60V92C105 93.6566 106.343 95 108 95H140C141.657 95 143 93.6566 143 92V60C143 58.3431 141.657 57 140 57H108Z" fill="#E4E8F0"/>
<path d="M140 57C141.657 57 143 58.3431 143 60V92C143 93.6566 141.657 95 140 95H108C106.343 95 105 93.6566 105 92V60C105 58.3431 106.343 57 108 57H140Z" fill="#F3F7FB"/>
<path d="M29.6808 81.4999H27.3868V73.3314L25.4648 74.0754V71.8279L27.8673 70.8514H29.6808V81.4999Z" fill="#242B42"/>
<path d="M79.6117 81.4173H72.3887V79.7898L75.8762 76.3333C76.8682 75.3723 77.1472 74.8763 77.1472 74.1633C77.1472 73.3108 76.4187 72.7063 75.3957 72.7063C74.4037 72.7063 73.4737 73.2643 72.6367 74.1788V71.7453C73.4582 71.0013 74.5277 70.5828 75.5817 70.5828C77.7207 70.5828 79.4412 71.8848 79.4412 73.9153C79.4412 75.3258 78.8522 76.3643 77.5037 77.6043L75.5972 79.3713H79.6117V81.4173Z" fill="#242B42"/>
<path d="M127.464 78.1391C127.464 80.1541 125.867 81.5181 123.434 81.5181C122.395 81.5181 121.419 81.2546 120.535 80.7121V78.3871C121.419 79.0846 122.318 79.4256 123.248 79.4256C124.379 79.4256 125.17 78.9141 125.17 78.0151C125.17 77.2246 124.426 76.6821 123.325 76.6821H122.318V74.8841H123.279C124.178 74.8841 124.798 74.3881 124.798 73.7371C124.798 72.9931 124.069 72.5591 123.201 72.5591C122.349 72.5591 121.574 72.8846 120.752 73.5511V71.2726C121.527 70.7456 122.442 70.4821 123.387 70.4821C125.495 70.4821 127.045 71.5981 127.045 73.4581C127.045 74.4501 126.534 75.1941 125.728 75.6436C126.828 76.0931 127.464 76.9766 127.464 78.1391Z" fill="#242B42"/>
</svg>
