<svg width="362" height="159" viewBox="0 0 362 159" fill="none" xmlns="http://www.w3.org/2000/svg">
<path d="M172.48 56.6H174.076L177.448 65H175.564L174.856 63.188H171.652L170.944 65H169.096L172.48 56.6ZM173.248 58.892L172.204 61.64H174.316L173.248 58.892ZM179.631 56.6H182.487C184.311 56.6 185.571 57.584 185.571 59.312C185.571 61.028 184.311 62.024 182.487 62.024H181.431V65H179.631V56.6ZM181.431 58.22V60.428H182.523C183.243 60.428 183.759 60.02 183.759 59.324C183.759 58.628 183.243 58.22 182.523 58.22H181.431ZM189.709 61.928V65H187.921V56.6H190.717C192.529 56.6 193.789 57.572 193.789 59.288C193.789 60.488 193.069 61.328 192.061 61.712L194.377 65H192.253L190.189 61.928H189.709ZM189.709 58.22V60.44H190.729C191.449 60.44 191.977 60.02 191.977 59.324C191.977 58.616 191.449 58.22 190.729 58.22H189.709Z" fill="#4B546B"/>
<path d="M176.797 85H169.574V83.3725L173.061 79.916C174.053 78.955 174.332 78.459 174.332 77.746C174.332 76.8935 173.604 76.289 172.581 76.289C171.589 76.289 170.659 76.847 169.822 77.7615V75.328C170.643 74.584 171.713 74.1655 172.767 74.1655C174.906 74.1655 176.626 75.4675 176.626 77.498C176.626 78.9085 176.037 79.947 174.689 81.187L172.782 82.954H176.797V85ZM185.278 85H178.055V83.3725L181.542 79.916C182.534 78.955 182.813 78.459 182.813 77.746C182.813 76.8935 182.085 76.289 181.062 76.289C180.07 76.289 179.14 76.847 178.303 77.7615V75.328C179.124 74.584 180.194 74.1655 181.248 74.1655C183.387 74.1655 185.107 75.4675 185.107 77.498C185.107 78.9085 184.518 79.947 183.17 81.187L181.263 82.954H185.278V85Z" fill="#242B42"/>
<path d="M169.492 102V101.268L172.564 98.016C173.272 97.272 173.488 96.756 173.488 96.12C173.488 95.268 172.744 94.62 171.784 94.62C171.028 94.62 170.248 95.124 169.588 95.94V94.68C170.164 94.032 171.016 93.624 171.796 93.624C173.38 93.624 174.544 94.644 174.544 96.072C174.544 97.056 174.16 97.776 173.272 98.712L171.076 101.016H174.652V102H169.492ZM179.198 102.132C176.954 102.132 175.874 100.104 175.874 97.884C175.874 95.652 176.954 93.624 179.198 93.624C181.442 93.624 182.522 95.652 182.522 97.884C182.522 100.104 181.442 102.132 179.198 102.132ZM179.198 101.136C180.758 101.136 181.454 99.564 181.454 97.884C181.454 96.204 180.758 94.62 179.198 94.62C177.638 94.62 176.942 96.204 176.942 97.884C176.942 99.564 177.638 101.136 179.198 101.136ZM185.94 102H184.884V94.944L183.396 95.556V94.476L185.076 93.756H185.94V102ZM190.404 93.624C191.748 93.624 192.924 94.476 192.924 95.796C192.924 96.696 192.36 97.344 191.736 97.572C192.42 97.812 193.248 98.496 193.248 99.66C193.248 101.196 191.88 102.132 190.404 102.132C188.928 102.132 187.56 101.196 187.56 99.66C187.56 98.496 188.388 97.812 189.072 97.572C188.448 97.344 187.884 96.696 187.884 95.796C187.884 94.476 189.06 93.624 190.404 93.624ZM192.192 99.612C192.192 98.7 191.388 98.088 190.404 98.088C189.42 98.088 188.616 98.7 188.616 99.612C188.616 100.536 189.444 101.148 190.404 101.148C191.364 101.148 192.192 100.536 192.192 99.612ZM190.404 94.596C189.624 94.596 188.916 95.1 188.916 95.868C188.916 96.636 189.624 97.14 190.404 97.14C191.184 97.14 191.892 96.636 191.892 95.868C191.892 95.1 191.184 94.596 190.404 94.596Z" fill="#4B546B"/>
</svg>
