<svg width="362" height="159" viewBox="0 0 362 159" fill="none" xmlns="http://www.w3.org/2000/svg">
<path fill-rule="evenodd" clip-rule="evenodd" d="M73.7498 71.0166C74.164 71.0166 74.4998 71.3524 74.4998 71.7666V73.0107H78.9998V71.7666C78.9998 71.3524 79.3355 71.0166 79.7498 71.0166C80.164 71.0166 80.4998 71.3524 80.4998 71.7666V73.0107H82.2739C83.2404 73.0107 84.0239 73.7942 84.0239 74.7607V85.2474C84.0239 86.2139 83.2404 86.9974 82.2739 86.9974H71.7256C70.7591 86.9974 69.9756 86.2139 69.9756 85.2474V74.7607C69.9756 73.7942 70.7591 73.0107 71.7256 73.0107H72.9998V71.7666C72.9998 71.3524 73.3355 71.0166 73.7498 71.0166ZM71.4756 76.972V78.8138H74.1483V76.972H71.4756ZM71.4756 80.3138H74.1483V82.1556H71.4756V80.3138ZM75.6483 80.3138V82.1556H78.3512V80.3138H75.6483ZM79.8512 80.3138V82.1556H82.5239V80.3138H79.8512ZM78.3512 83.6556H75.6483V85.4974H78.3512V83.6556ZM79.8512 85.4974V83.6556H82.5239V85.2474C82.5239 85.3854 82.4119 85.4974 82.2739 85.4974H79.8512ZM79.8512 78.8138V76.972H82.5239V78.8138H79.8512ZM78.3512 76.972V78.8138H75.6483V76.972H78.3512ZM71.4756 83.6556H74.1483V85.4974H71.7256C71.5875 85.4974 71.4756 85.3854 71.4756 85.2474V83.6556Z" fill="#4B546B"/>
<path d="M93.635 84.1705C92.8755 84.1705 92.147 83.969 91.5115 83.566V82.016C92.116 82.4655 92.86 82.8685 93.635 82.8685C94.844 82.8685 95.402 81.9695 95.402 80.7295V73.15H96.7815V80.7605C96.7815 82.7755 95.65 84.1705 93.635 84.1705ZM104.629 80.404V76.467H105.962V84H104.629V82.915C104.164 83.659 103.374 84.1705 102.242 84.1705C100.336 84.1705 99.2352 82.884 99.2352 80.8845V76.467H100.568V80.7295C100.568 82.078 101.25 82.9305 102.521 82.9305C103.792 82.9305 104.629 81.9385 104.629 80.404ZM110.051 80.063V84H108.718V76.467H110.051V77.552C110.516 76.808 111.322 76.2965 112.453 76.2965C114.375 76.2965 115.491 77.583 115.491 79.5825V84H114.158V79.7375C114.158 78.389 113.461 77.5365 112.174 77.5365C110.888 77.5365 110.051 78.5285 110.051 80.063ZM124.395 84H123.031V74.886L121.109 75.6765V74.2815L123.279 73.3515H124.395V84ZM130.146 73.181C131.882 73.181 133.401 74.2815 133.401 75.9865C133.401 77.149 132.673 77.986 131.867 78.2805C132.75 78.5905 133.82 79.474 133.82 80.9775C133.82 82.9615 132.053 84.1705 130.146 84.1705C128.24 84.1705 126.473 82.9615 126.473 80.9775C126.473 79.474 127.542 78.5905 128.426 78.2805C127.62 77.986 126.891 77.149 126.891 75.9865C126.891 74.2815 128.41 73.181 130.146 73.181ZM132.456 80.9155C132.456 79.7375 131.417 78.947 130.146 78.947C128.875 78.947 127.837 79.7375 127.837 80.9155C127.837 82.109 128.906 82.8995 130.146 82.8995C131.386 82.8995 132.456 82.109 132.456 80.9155ZM130.146 74.4365C129.139 74.4365 128.224 75.0875 128.224 76.0795C128.224 77.0715 129.139 77.7225 130.146 77.7225C131.154 77.7225 132.068 77.0715 132.068 76.0795C132.068 75.0875 131.154 74.4365 130.146 74.4365Z" fill="#242B42"/>
<path d="M136.984 85.5345H136.085L136.814 84H136.783C136.364 84 136.008 83.6435 136.008 83.1785C136.008 82.6515 136.442 82.264 136.969 82.264C137.48 82.264 137.914 82.667 137.914 83.1785C137.914 83.4885 137.806 83.752 137.666 84.062L136.984 85.5345Z" fill="#242B42"/>
<path d="M142.636 84V83.0545L146.604 78.854C147.518 77.893 147.797 77.2265 147.797 76.405C147.797 75.3045 146.836 74.4675 145.596 74.4675C144.62 74.4675 143.612 75.1185 142.76 76.1725V74.545C143.504 73.708 144.604 73.181 145.612 73.181C147.658 73.181 149.161 74.4985 149.161 76.343C149.161 77.614 148.665 78.544 147.518 79.753L144.682 82.729H149.301V84H142.636ZM155.158 84.1705C152.26 84.1705 150.865 81.551 150.865 78.6835C150.865 75.8005 152.26 73.181 155.158 73.181C158.057 73.181 159.452 75.8005 159.452 78.6835C159.452 81.551 158.057 84.1705 155.158 84.1705ZM155.158 82.884C157.173 82.884 158.072 80.8535 158.072 78.6835C158.072 76.5135 157.173 74.4675 155.158 74.4675C153.143 74.4675 152.244 76.5135 152.244 78.6835C152.244 80.8535 153.143 82.884 155.158 82.884ZM160.703 84V83.0545L164.671 78.854C165.585 77.893 165.864 77.2265 165.864 76.405C165.864 75.3045 164.903 74.4675 163.663 74.4675C162.687 74.4675 161.679 75.1185 160.827 76.1725V74.545C161.571 73.708 162.671 73.181 163.679 73.181C165.725 73.181 167.228 74.4985 167.228 76.343C167.228 77.614 166.732 78.544 165.585 79.753L162.749 82.729H167.368V84H160.703ZM168.775 84V83.0545L172.743 78.854C173.658 77.893 173.937 77.2265 173.937 76.405C173.937 75.3045 172.976 74.4675 171.736 74.4675C170.759 74.4675 169.752 75.1185 168.899 76.1725V74.545C169.643 73.708 170.744 73.181 171.751 73.181C173.797 73.181 175.301 74.4985 175.301 76.343C175.301 77.614 174.805 78.544 173.658 79.753L170.821 82.729H175.44V84H168.775Z" fill="#242B42"/>
<path d="M198.781 79.5312L194.531 83.7812C194.219 84.0938 193.75 84.0938 193.469 83.7812C193.156 83.5 193.156 83.0312 193.469 82.7188L196.438 79.75H183.75C183.312 79.75 183 79.4375 183 79C183 78.5938 183.312 78.25 183.75 78.25H196.438L193.469 75.2812C193.156 75 193.156 74.5312 193.469 74.2188C193.75 73.9375 194.219 73.9375 194.531 74.2188L198.781 78.5C199.062 78.7812 199.062 79.25 198.781 79.5312Z" fill="#4B546B"/>
<path d="M211.51 80.838L207.744 75.3355V84H206.395V73.15H207.806L211.805 79.04L215.773 73.15H217.152V84H215.804V75.32L212.037 80.838H211.51ZM224.177 79.2105V79.0245C224.177 78.079 223.511 77.5055 222.395 77.5055C221.372 77.5055 220.612 77.924 219.837 78.637V77.242C220.519 76.684 221.341 76.2965 222.426 76.2965C224.363 76.2965 225.479 77.366 225.479 79.1175V84H224.224V83.008C223.635 83.7675 222.72 84.1705 221.728 84.1705C220.395 84.1705 219.45 83.256 219.45 82.016C219.45 80.6675 220.302 79.8615 221.961 79.5825L224.177 79.2105ZM220.783 81.9385C220.783 82.574 221.279 82.9925 221.976 82.9925C223.263 82.9925 224.193 82.1555 224.193 80.993V80.3575L222.178 80.714C221.279 80.8845 220.783 81.2875 220.783 81.9385ZM231.817 76.374V77.707C231.817 77.707 231.677 77.676 231.445 77.676C230.05 77.676 229.197 78.792 229.197 80.4195V84H227.88V76.467H229.182V77.8C229.523 76.932 230.499 76.343 231.491 76.343C231.677 76.343 231.817 76.374 231.817 76.374ZM236.76 84V83.0545L240.728 78.854C241.642 77.893 241.921 77.2265 241.921 76.405C241.921 75.3045 240.96 74.4675 239.72 74.4675C238.744 74.4675 237.736 75.1185 236.884 76.1725V74.545C237.628 73.708 238.728 73.181 239.736 73.181C241.782 73.181 243.285 74.4985 243.285 76.343C243.285 77.614 242.789 78.544 241.642 79.753L238.806 82.729H243.425V84H236.76ZM249.283 84.1705C246.384 84.1705 244.989 81.551 244.989 78.6835C244.989 75.8005 246.384 73.181 249.283 73.181C252.181 73.181 253.576 75.8005 253.576 78.6835C253.576 81.551 252.181 84.1705 249.283 84.1705ZM249.283 82.884C251.298 82.884 252.197 80.8535 252.197 78.6835C252.197 76.5135 251.298 74.4675 249.283 74.4675C247.268 74.4675 246.369 76.5135 246.369 78.6835C246.369 80.8535 247.268 82.884 249.283 82.884Z" fill="#242B42"/>
<path d="M256.984 85.5345H256.085L256.814 84H256.783C256.364 84 256.008 83.6435 256.008 83.1785C256.008 82.6515 256.442 82.264 256.969 82.264C257.48 82.264 257.914 82.667 257.914 83.1785C257.914 83.4885 257.806 83.752 257.666 84.062L256.984 85.5345Z" fill="#242B42"/>
<path d="M262.636 84V83.0545L266.604 78.854C267.518 77.893 267.797 77.2265 267.797 76.405C267.797 75.3045 266.836 74.4675 265.596 74.4675C264.62 74.4675 263.612 75.1185 262.76 76.1725V74.545C263.504 73.708 264.604 73.181 265.612 73.181C267.658 73.181 269.161 74.4985 269.161 76.343C269.161 77.614 268.665 78.544 267.518 79.753L264.682 82.729H269.301V84H262.636ZM275.158 84.1705C272.26 84.1705 270.865 81.551 270.865 78.6835C270.865 75.8005 272.26 73.181 275.158 73.181C278.057 73.181 279.452 75.8005 279.452 78.6835C279.452 81.551 278.057 84.1705 275.158 84.1705ZM275.158 82.884C277.173 82.884 278.072 80.8535 278.072 78.6835C278.072 76.5135 277.173 74.4675 275.158 74.4675C273.143 74.4675 272.244 76.5135 272.244 78.6835C272.244 80.8535 273.143 82.884 275.158 82.884ZM280.703 84V83.0545L284.671 78.854C285.585 77.893 285.864 77.2265 285.864 76.405C285.864 75.3045 284.903 74.4675 283.663 74.4675C282.687 74.4675 281.679 75.1185 280.827 76.1725V74.545C281.571 73.708 282.671 73.181 283.679 73.181C285.725 73.181 287.228 74.4985 287.228 76.343C287.228 77.614 286.732 78.544 285.585 79.753L282.749 82.729H287.368V84H280.703ZM291.645 82.884C292.962 82.884 293.985 82.0935 293.985 80.931C293.985 79.7995 292.978 79.0245 291.691 79.0245H290.684V77.7845H291.691C292.668 77.7845 293.567 77.0095 293.567 76.126C293.567 75.165 292.714 74.452 291.614 74.452C290.715 74.452 289.878 74.8705 289.025 75.6145V74.0955C289.8 73.5065 290.715 73.181 291.629 73.181C293.551 73.181 294.915 74.39 294.915 76.002C294.915 77.0095 294.373 77.8775 293.427 78.327C294.605 78.7145 295.365 79.7375 295.365 80.9465C295.365 82.8375 293.784 84.1705 291.66 84.1705C290.637 84.1705 289.676 83.907 288.746 83.3335V81.8455C289.692 82.543 290.653 82.884 291.645 82.884Z" fill="#242B42"/>
</svg>
