<svg width="362" height="159" viewBox="0 0 362 159" fill="none" xmlns="http://www.w3.org/2000/svg">
<path d="M112.681 74H110.387V65.8315L108.465 66.5755V64.328L110.868 63.3515H112.681V74ZM118.372 74.2015C116.311 74.2015 114.42 72.9615 114.42 70.8535C114.42 69.5205 115.35 68.6215 116.202 68.265C115.458 67.8775 114.869 67.1335 114.869 66.1415C114.869 64.3435 116.481 63.1655 118.372 63.1655C120.263 63.1655 121.875 64.3435 121.875 66.1415C121.875 67.1335 121.286 67.8775 120.542 68.265C121.395 68.6215 122.325 69.5205 122.325 70.8535C122.325 72.9615 120.434 74.2015 118.372 74.2015ZM118.372 72.2795C119.333 72.2795 120.077 71.644 120.077 70.7605C120.077 69.8615 119.333 69.2415 118.372 69.2415C117.411 69.2415 116.667 69.8615 116.667 70.7605C116.667 71.644 117.411 72.2795 118.372 72.2795ZM119.783 66.281C119.783 65.5525 119.147 65.041 118.372 65.041C117.597 65.041 116.962 65.5525 116.962 66.281C116.962 67.0405 117.597 67.5365 118.372 67.5365C119.147 67.5365 119.783 67.0405 119.783 66.281Z" fill="#242B42"/>
<path d="M128.197 74.2015C127.438 74.2015 126.585 74.062 125.934 73.6745V71.21C126.554 71.675 127.345 71.9695 128.027 71.9695C129.034 71.9695 129.515 71.365 129.515 70.342V63.15H131.871V70.528C131.871 72.791 130.491 74.2015 128.197 74.2015ZM138.296 74.2015C135.584 74.2015 133.941 72.4345 133.941 69.691V63.15H136.297V69.567C136.297 71.024 137.01 71.9385 138.296 71.9385C139.583 71.9385 140.296 71.024 140.296 69.567V63.15H142.652V69.691C142.652 72.4345 141.009 74.2015 138.296 74.2015ZM152.283 63.15H154.546V74H152.221L147.122 66.839V74H144.859V63.15H147.23L152.283 70.342V63.15Z" fill="#242B42"/>
<path d="M124.136 94V93.0545L128.104 88.854C129.018 87.893 129.297 87.2265 129.297 86.405C129.297 85.3045 128.336 84.4675 127.096 84.4675C126.12 84.4675 125.112 85.1185 124.26 86.1725V84.545C125.004 83.708 126.104 83.181 127.112 83.181C129.158 83.181 130.661 84.4985 130.661 86.343C130.661 87.614 130.165 88.544 129.018 89.753L126.182 92.729H130.801V94H124.136ZM136.658 94.1705C133.76 94.1705 132.365 91.551 132.365 88.6835C132.365 85.8005 133.76 83.181 136.658 83.181C139.557 83.181 140.952 85.8005 140.952 88.6835C140.952 91.551 139.557 94.1705 136.658 94.1705ZM136.658 92.884C138.673 92.884 139.572 90.8535 139.572 88.6835C139.572 86.5135 138.673 84.4675 136.658 84.4675C134.643 84.4675 133.744 86.5135 133.744 88.6835C133.744 90.8535 134.643 92.884 136.658 92.884ZM145.351 94H143.987V84.886L142.065 85.6765V84.2815L144.235 83.3515H145.351V94ZM147.445 86.9475C147.445 84.8395 149.134 83.181 151.289 83.181C153.505 83.181 155.148 84.8085 155.148 86.963C155.148 87.862 154.823 88.854 153.955 90.156L151.413 94H149.77L152.312 90.2335C152.002 90.4195 151.599 90.5435 151.041 90.5435C148.979 90.5435 147.445 88.9315 147.445 86.9475ZM148.824 86.8855C148.824 88.2805 149.925 89.319 151.289 89.319C152.684 89.319 153.769 88.2805 153.769 86.901C153.769 85.5525 152.699 84.4675 151.304 84.4675C149.925 84.4675 148.824 85.5525 148.824 86.8855Z" fill="#4B546B"/>
<path d="M185.281 80.0312L181.031 84.2812C180.719 84.5938 180.25 84.5938 179.969 84.2812C179.656 84 179.656 83.5312 179.969 83.2188L182.938 80.25H170.25C169.812 80.25 169.5 79.9375 169.5 79.5C169.5 79.0938 169.812 78.75 170.25 78.75H182.938L179.969 75.7812C179.656 75.5 179.656 75.0312 179.969 74.7188C180.25 74.4375 180.719 74.4375 181.031 74.7188L185.281 79C185.562 79.2812 185.562 79.75 185.281 80.0312Z" fill="#4B546B"/>
<path d="M206.297 74H199.074V72.3725L202.561 68.916C203.553 67.955 203.832 67.459 203.832 66.746C203.832 65.8935 203.104 65.289 202.081 65.289C201.089 65.289 200.159 65.847 199.322 66.7615V64.328C200.143 63.584 201.213 63.1655 202.267 63.1655C204.406 63.1655 206.126 64.4675 206.126 66.498C206.126 67.9085 205.537 68.947 204.189 70.187L202.282 71.954H206.297V74ZM207.587 68.6835C207.587 65.785 209.137 63.1655 212.144 63.1655C215.151 63.1655 216.701 65.785 216.701 68.6835C216.701 71.582 215.151 74.2015 212.144 74.2015C209.137 74.2015 207.587 71.582 207.587 68.6835ZM214.392 68.6835C214.392 66.9785 213.71 65.32 212.144 65.32C210.579 65.32 209.897 66.9785 209.897 68.6835C209.897 70.3885 210.579 72.047 212.144 72.047C213.71 72.047 214.392 70.3885 214.392 68.6835Z" fill="#242B42"/>
<path d="M226.169 71.148L223.41 66.808V74H221.147V63.15H223.581L226.851 68.3115L230.106 63.15H232.478V74H230.215V66.777L227.44 71.148H226.169ZM238.165 63.15H240.226L244.582 74H242.148L241.234 71.6595H237.095L236.181 74H233.794L238.165 63.15ZM239.157 66.1105L237.808 69.66H240.536L239.157 66.1105ZM248.207 70.032V74H245.898V63.15H249.509C251.85 63.15 253.477 64.4055 253.477 66.622C253.477 68.172 252.547 69.257 251.245 69.753L254.237 74H251.493L248.827 70.032H248.207ZM248.207 65.2425V68.11H249.525C250.455 68.11 251.137 67.5675 251.137 66.6685C251.137 65.754 250.455 65.2425 249.525 65.2425H248.207Z" fill="#242B42"/>
<path d="M199.136 94V93.0545L203.104 88.854C204.018 87.893 204.297 87.2265 204.297 86.405C204.297 85.3045 203.336 84.4675 202.096 84.4675C201.12 84.4675 200.112 85.1185 199.26 86.1725V84.545C200.004 83.708 201.104 83.181 202.112 83.181C204.158 83.181 205.661 84.4985 205.661 86.343C205.661 87.614 205.165 88.544 204.018 89.753L201.182 92.729H205.801V94H199.136ZM211.658 94.1705C208.76 94.1705 207.365 91.551 207.365 88.6835C207.365 85.8005 208.76 83.181 211.658 83.181C214.557 83.181 215.952 85.8005 215.952 88.6835C215.952 91.551 214.557 94.1705 211.658 94.1705ZM211.658 92.884C213.673 92.884 214.572 90.8535 214.572 88.6835C214.572 86.5135 213.673 84.4675 211.658 84.4675C209.643 84.4675 208.744 86.5135 208.744 88.6835C208.744 90.8535 209.643 92.884 211.658 92.884ZM217.203 94V93.0545L221.171 88.854C222.085 87.893 222.364 87.2265 222.364 86.405C222.364 85.3045 221.403 84.4675 220.163 84.4675C219.187 84.4675 218.179 85.1185 217.327 86.1725V84.545C218.071 83.708 219.171 83.181 220.179 83.181C222.225 83.181 223.728 84.4985 223.728 86.343C223.728 87.614 223.232 88.544 222.085 89.753L219.249 92.729H223.868V94H217.203ZM229.726 94.1705C226.827 94.1705 225.432 91.551 225.432 88.6835C225.432 85.8005 226.827 83.181 229.726 83.181C232.624 83.181 234.019 85.8005 234.019 88.6835C234.019 91.551 232.624 94.1705 229.726 94.1705ZM229.726 92.884C231.741 92.884 232.64 90.8535 232.64 88.6835C232.64 86.5135 231.741 84.4675 229.726 84.4675C227.711 84.4675 226.812 86.5135 226.812 88.6835C226.812 90.8535 227.711 92.884 229.726 92.884Z" fill="#4B546B"/>
</svg>
