<svg width="362" height="159" viewBox="0 0 362 159" fill="none" xmlns="http://www.w3.org/2000/svg">
<path d="M140.495 63.15H142.557L146.912 74H144.479L143.564 71.6595H139.426L138.511 74H136.124L140.495 63.15ZM141.487 66.1105L140.139 69.66H142.867L141.487 66.1105ZM150.324 77.224H148.077V66.343H150.324V67.366C150.867 66.5755 151.797 66.157 152.804 66.157C154.866 66.157 156.431 67.893 156.431 70.1715C156.431 72.4345 154.866 74.186 152.804 74.186C151.797 74.186 150.867 73.814 150.324 73.008V77.224ZM154.184 70.1715C154.184 69.071 153.316 68.1875 152.215 68.1875C151.115 68.1875 150.247 69.071 150.247 70.1715C150.247 71.272 151.115 72.1555 152.215 72.1555C153.316 72.1555 154.184 71.272 154.184 70.1715ZM162.831 66.219V68.544C162.707 68.482 162.49 68.451 162.258 68.451C161.002 68.451 160.258 69.381 160.258 70.8845V74H158.011V66.343H160.243V67.5985C160.646 66.715 161.452 66.1725 162.444 66.1725C162.614 66.1725 162.785 66.2035 162.831 66.219Z" fill="#242B42"/>
<path d="M154.797 93H147.574V91.3725L151.061 87.916C152.053 86.955 152.332 86.459 152.332 85.746C152.332 84.8935 151.604 84.289 150.581 84.289C149.589 84.289 148.659 84.847 147.822 85.7615V83.328C148.643 82.584 149.713 82.1655 150.767 82.1655C152.906 82.1655 154.626 83.4675 154.626 85.498C154.626 86.9085 154.037 87.947 152.689 89.187L150.782 90.954H154.797V93ZM163.278 93H156.055V91.3725L159.542 87.916C160.534 86.955 160.813 86.459 160.813 85.746C160.813 84.8935 160.085 84.289 159.062 84.289C158.07 84.289 157.14 84.847 156.303 85.7615V83.328C157.124 82.584 158.194 82.1655 159.248 82.1655C161.387 82.1655 163.107 83.4675 163.107 85.498C163.107 86.9085 162.518 87.947 161.17 89.187L159.263 90.954H163.278V93Z" fill="#242B42"/>
<rect width="1.9" height="40" transform="translate(175 59)" fill="#E4E8F0"/>
<path d="M191.775 75H190.411V65.886L188.489 66.6765V65.2815L190.659 64.3515H191.775V75ZM197.108 75H195.744V65.886L193.822 66.6765V65.2815L195.992 64.3515H197.108V75Z" fill="#4B546B"/>
<path d="M200.846 68.583C200.846 69.11 200.428 69.5285 199.901 69.5285C199.374 69.5285 198.955 69.11 198.955 68.583C198.955 68.0715 199.374 67.653 199.901 67.653C200.428 67.653 200.846 68.0715 200.846 68.583ZM200.846 74.194C200.846 74.721 200.428 75.1395 199.901 75.1395C199.374 75.1395 198.955 74.721 198.955 74.194C198.955 73.6825 199.374 73.264 199.901 73.264C200.428 73.264 200.846 73.6825 200.846 74.194Z" fill="#4B546B"/>
<path d="M204.481 73.884C205.798 73.884 206.821 73.0935 206.821 71.931C206.821 70.7995 205.814 70.0245 204.527 70.0245H203.52V68.7845H204.527C205.504 68.7845 206.403 68.0095 206.403 67.126C206.403 66.165 205.55 65.452 204.45 65.452C203.551 65.452 202.714 65.8705 201.861 66.6145V65.0955C202.636 64.5065 203.551 64.181 204.465 64.181C206.387 64.181 207.751 65.39 207.751 67.002C207.751 68.0095 207.209 68.8775 206.263 69.327C207.441 69.7145 208.201 70.7375 208.201 71.9465C208.201 73.8375 206.62 75.1705 204.496 75.1705C203.473 75.1705 202.512 74.907 201.582 74.3335V72.8455C202.528 73.543 203.489 73.884 204.481 73.884ZM213.16 64.181C214.896 64.181 216.415 65.2815 216.415 66.9865C216.415 68.149 215.687 68.986 214.881 69.2805C215.764 69.5905 216.834 70.474 216.834 71.9775C216.834 73.9615 215.067 75.1705 213.16 75.1705C211.254 75.1705 209.487 73.9615 209.487 71.9775C209.487 70.474 210.556 69.5905 211.44 69.2805C210.634 68.986 209.905 68.149 209.905 66.9865C209.905 65.2815 211.424 64.181 213.16 64.181ZM215.47 71.9155C215.47 70.7375 214.431 69.947 213.16 69.947C211.889 69.947 210.851 70.7375 210.851 71.9155C210.851 73.109 211.92 73.8995 213.16 73.8995C214.4 73.8995 215.47 73.109 215.47 71.9155ZM213.16 65.4365C212.153 65.4365 211.238 66.0875 211.238 67.0795C211.238 68.0715 212.153 68.7225 213.16 68.7225C214.168 68.7225 215.082 68.0715 215.082 67.0795C215.082 66.0875 214.168 65.4365 213.16 65.4365Z" fill="#4B546B"/>
<path d="M223.48 70.2105V70.0245C223.48 69.079 222.814 68.5055 221.698 68.5055C220.675 68.5055 219.915 68.924 219.14 69.637V68.242C219.822 67.684 220.644 67.2965 221.729 67.2965C223.666 67.2965 224.782 68.366 224.782 70.1175V75H223.527V74.008C222.938 74.7675 222.023 75.1705 221.031 75.1705C219.698 75.1705 218.753 74.256 218.753 73.016C218.753 71.6675 219.605 70.8615 221.264 70.5825L223.48 70.2105ZM220.086 72.9385C220.086 73.574 220.582 73.9925 221.279 73.9925C222.566 73.9925 223.496 73.1555 223.496 71.993V71.3575L221.481 71.714C220.582 71.8845 220.086 72.2875 220.086 72.9385Z" fill="#4B546B"/>
<path d="M188.788 94V85.6H193.732V87.232H190.588V88.936H193.456V90.52H190.588V92.368H193.756V94H188.788ZM203.515 89.8C203.515 92.164 201.595 94 199.243 94H196.399V85.6H199.243C201.595 85.6 203.515 87.436 203.515 89.8ZM201.667 89.8C201.667 88.408 200.587 87.292 199.195 87.292H198.199V92.308H199.195C200.587 92.308 201.667 91.192 201.667 89.8ZM204.942 87.28V85.6H211.182V87.28H208.974V94H207.162V87.28H204.942Z" fill="#4B546B"/>
</svg>
