<svg width="362" height="159" viewBox="0 0 362 159" fill="none" xmlns="http://www.w3.org/2000/svg">
<path d="M163.797 74H156.574V72.3725L160.061 68.916C161.053 67.955 161.332 67.459 161.332 66.746C161.332 65.8935 160.604 65.289 159.581 65.289C158.589 65.289 157.659 65.847 156.822 66.7615V64.328C157.643 63.584 158.713 63.1655 159.767 63.1655C161.906 63.1655 163.626 64.4675 163.626 66.498C163.626 67.9085 163.037 68.947 161.689 70.187L159.782 71.954H163.797V74ZM172.278 74H165.055V72.3725L168.542 68.916C169.534 67.955 169.813 67.459 169.813 66.746C169.813 65.8935 169.085 65.289 168.062 65.289C167.07 65.289 166.14 65.847 165.303 66.7615V64.328C166.124 63.584 167.194 63.1655 168.248 63.1655C170.387 63.1655 172.107 64.4675 172.107 66.498C172.107 67.9085 171.518 68.947 170.17 70.187L168.263 71.954H172.278V74Z" fill="#242B42"/>
<path d="M181.495 63.15H183.557L187.912 74H185.479L184.564 71.6595H180.426L179.511 74H177.124L181.495 63.15ZM182.487 66.1105L181.139 69.66H183.867L182.487 66.1105ZM189.232 63.15H192.921C195.277 63.15 196.904 64.421 196.904 66.653C196.904 68.8695 195.277 70.156 192.921 70.156H191.557V74H189.232V63.15ZM191.557 65.2425V68.0945H192.967C193.897 68.0945 194.564 67.5675 194.564 66.6685C194.564 65.7695 193.897 65.2425 192.967 65.2425H191.557ZM200.749 70.032V74H198.439V63.15H202.051C204.391 63.15 206.019 64.4055 206.019 66.622C206.019 68.172 205.089 69.257 203.787 69.753L206.778 74H204.035L201.369 70.032H200.749ZM200.749 65.2425V68.11H202.066C202.996 68.11 203.678 67.5675 203.678 66.6685C203.678 65.754 202.996 65.2425 202.066 65.2425H200.749Z" fill="#242B42"/>
<path d="M156.636 94V93.0545L160.604 88.854C161.518 87.893 161.797 87.2265 161.797 86.405C161.797 85.3045 160.836 84.4675 159.596 84.4675C158.62 84.4675 157.612 85.1185 156.76 86.1725V84.545C157.504 83.708 158.604 83.181 159.612 83.181C161.658 83.181 163.161 84.4985 163.161 86.343C163.161 87.614 162.665 88.544 161.518 89.753L158.682 92.729H163.301V94H156.636ZM169.158 94.1705C166.26 94.1705 164.865 91.551 164.865 88.6835C164.865 85.8005 166.26 83.181 169.158 83.181C172.057 83.181 173.452 85.8005 173.452 88.6835C173.452 91.551 172.057 94.1705 169.158 94.1705ZM169.158 92.884C171.173 92.884 172.072 90.8535 172.072 88.6835C172.072 86.5135 171.173 84.4675 169.158 84.4675C167.143 84.4675 166.244 86.5135 166.244 88.6835C166.244 90.8535 167.143 92.884 169.158 92.884ZM174.703 94V93.0545L178.671 88.854C179.585 87.893 179.864 87.2265 179.864 86.405C179.864 85.3045 178.903 84.4675 177.663 84.4675C176.687 84.4675 175.679 85.1185 174.827 86.1725V84.545C175.571 83.708 176.671 83.181 177.679 83.181C179.725 83.181 181.228 84.4985 181.228 86.343C181.228 87.614 180.732 88.544 179.585 89.753L176.749 92.729H181.368V94H174.703ZM185.939 94H184.575V84.886L182.653 85.6765V84.2815L184.823 83.3515H185.939V94Z" fill="#4B546B"/>
</svg>
