<svg width="362" height="159" viewBox="0 0 362 159" fill="none" xmlns="http://www.w3.org/2000/svg">
<path d="M59.8215 83.2715V80.5125C60.86 81.4735 62.3635 82.016 63.526 82.016C64.58 82.016 65.169 81.5975 65.169 80.838C65.169 79.9545 64.084 79.7685 62.875 79.443C61.387 79.0555 59.6975 78.4975 59.6975 76.374C59.6975 74.297 61.3715 72.9485 63.7275 72.9485C65.014 72.9485 66.1145 73.243 67.0755 73.8475V76.436C66.068 75.568 64.9055 75.103 63.743 75.103C62.596 75.103 62.1 75.5835 62.1 76.2345C62.1 76.9475 63.0145 77.18 64.0685 77.459C65.634 77.862 67.587 78.389 67.587 80.6675C67.587 82.7445 66.0525 84.2015 63.5725 84.2015C62.224 84.2015 60.798 83.876 59.8215 83.2715ZM74.039 80.3885V76.343H76.302V84H74.039V83.0235C73.5895 83.752 72.8145 84.2015 71.807 84.2015C70.071 84.2015 69.0015 82.9925 69.0015 81.0705V76.343H71.2645V80.528C71.2645 81.5355 71.7605 82.1245 72.613 82.1245C73.481 82.1245 74.039 81.4735 74.039 80.3885ZM80.6856 79.939V84H78.4226V76.343H80.6856V77.3195C81.1506 76.5755 81.9256 76.1415 82.9486 76.1415C84.7001 76.1415 85.7696 77.335 85.7696 79.2725V84H83.5066V79.7995C83.5066 78.792 83.0106 78.2185 82.1271 78.2185C81.2591 78.2185 80.6856 78.8695 80.6856 79.939Z" fill="#242B42"/>
<path d="M91.3525 79.9235C91.3525 79.195 91.988 78.575 92.7165 78.575C93.4605 78.575 94.0805 79.195 94.0805 79.9235C94.0805 80.6365 93.4605 81.2565 92.7165 81.2565C91.988 81.2565 91.3525 80.6365 91.3525 79.9235Z" fill="#4B546B"/>
<path d="M103.495 73.65H105.557L109.912 84.5H107.479L106.564 82.1595H102.426L101.511 84.5H99.124L103.495 73.65ZM104.487 76.6105L103.139 80.16H105.867L104.487 76.6105ZM113.324 87.724H111.077V76.843H113.324V77.866C113.867 77.0755 114.797 76.657 115.804 76.657C117.866 76.657 119.431 78.393 119.431 80.6715C119.431 82.9345 117.866 84.686 115.804 84.686C114.797 84.686 113.867 84.314 113.324 83.508V87.724ZM117.184 80.6715C117.184 79.571 116.316 78.6875 115.215 78.6875C114.115 78.6875 113.247 79.571 113.247 80.6715C113.247 81.772 114.115 82.6555 115.215 82.6555C116.316 82.6555 117.184 81.772 117.184 80.6715ZM125.831 76.719V79.044C125.707 78.982 125.49 78.951 125.258 78.951C124.002 78.951 123.258 79.881 123.258 81.3845V84.5H121.011V76.843H123.243V78.0985C123.646 77.215 124.452 76.6725 125.444 76.6725C125.614 76.6725 125.785 76.7035 125.831 76.719Z" fill="#242B42"/>
<path d="M138.426 84.5H131.203V82.8725L134.691 79.416C135.683 78.455 135.962 77.959 135.962 77.246C135.962 76.3935 135.233 75.789 134.21 75.789C133.218 75.789 132.288 76.347 131.451 77.2615V74.828C132.273 74.084 133.342 73.6655 134.396 73.6655C136.535 73.6655 138.256 74.9675 138.256 76.998C138.256 78.4085 137.667 79.447 136.318 80.687L134.412 82.454H138.426V84.5ZM146.908 84.5H139.685V82.8725L143.172 79.416C144.164 78.455 144.443 77.959 144.443 77.246C144.443 76.3935 143.715 75.789 142.692 75.789C141.7 75.789 140.77 76.347 139.933 77.2615V74.828C140.754 74.084 141.824 73.6655 142.878 73.6655C145.017 73.6655 146.737 74.9675 146.737 76.998C146.737 78.4085 146.148 79.447 144.8 80.687L142.893 82.454H146.908V84.5Z" fill="#242B42"/>
<path d="M149.924 86.3135H148.575L149.567 84.4845H149.552C148.947 84.4845 148.451 83.973 148.451 83.3375C148.451 82.547 149.071 81.9735 149.815 81.9735C150.606 81.9735 151.21 82.547 151.21 83.3375C151.21 83.756 151.086 84.1435 150.807 84.655L149.924 86.3135ZM163.549 84.5H156.326V82.8725L159.813 79.416C160.805 78.455 161.084 77.959 161.084 77.246C161.084 76.3935 160.356 75.789 159.333 75.789C158.341 75.789 157.411 76.347 156.574 77.2615V74.828C157.395 74.084 158.465 73.6655 159.519 73.6655C161.658 73.6655 163.378 74.9675 163.378 76.998C163.378 78.4085 162.789 79.447 161.441 80.687L159.534 82.454H163.549V84.5ZM164.84 79.1835C164.84 76.285 166.39 73.6655 169.397 73.6655C172.404 73.6655 173.954 76.285 173.954 79.1835C173.954 82.082 172.404 84.7015 169.397 84.7015C166.39 84.7015 164.84 82.082 164.84 79.1835ZM171.644 79.1835C171.644 77.4785 170.962 75.82 169.397 75.82C167.831 75.82 167.149 77.4785 167.149 79.1835C167.149 80.8885 167.831 82.547 169.397 82.547C170.962 82.547 171.644 80.8885 171.644 79.1835ZM182.222 84.5H174.999V82.8725L178.486 79.416C179.478 78.455 179.757 77.959 179.757 77.246C179.757 76.3935 179.029 75.789 178.006 75.789C177.014 75.789 176.084 76.347 175.247 77.2615V74.828C176.068 74.084 177.138 73.6655 178.192 73.6655C180.331 73.6655 182.051 74.9675 182.051 76.998C182.051 78.4085 181.462 79.447 180.114 80.687L178.207 82.454H182.222V84.5ZM183.513 79.1835C183.513 76.285 185.063 73.6655 188.07 73.6655C191.077 73.6655 192.627 76.285 192.627 79.1835C192.627 82.082 191.077 84.7015 188.07 84.7015C185.063 84.7015 183.513 82.082 183.513 79.1835ZM190.317 79.1835C190.317 77.4785 189.635 75.82 188.07 75.82C186.504 75.82 185.822 77.4785 185.822 79.1835C185.822 80.8885 186.504 82.547 188.07 82.547C189.635 82.547 190.317 80.8885 190.317 79.1835Z" fill="#242B42"/>
<path d="M220.38 74.6626C220.38 74.2484 220.044 73.9126 219.63 73.9126C219.216 73.9126 218.88 74.2484 218.88 74.6626V79.1937C218.88 79.5292 219.048 79.8424 219.327 80.0285L222.214 81.9533C222.559 82.1831 223.024 82.0899 223.254 81.7453C223.484 81.4006 223.391 80.935 223.046 80.7052L220.38 78.9279V74.6626Z" fill="#4B546B"/>
<path fill-rule="evenodd" clip-rule="evenodd" d="M227.63 79C227.63 83.4183 224.048 87 219.63 87C215.212 87 211.63 83.4183 211.63 79C211.63 74.5817 215.212 71 219.63 71C224.048 71 227.63 74.5817 227.63 79ZM226.13 79C226.13 82.5899 223.22 85.5 219.63 85.5C216.04 85.5 213.13 82.5899 213.13 79C213.13 75.4101 216.04 72.5 219.63 72.5C223.22 72.5 226.13 75.4101 226.13 79Z" fill="#4B546B"/>
<path d="M237.505 84H236.141V74.886L234.219 75.6765V74.2815L236.389 73.3515H237.505V84ZM242.838 84H241.474V74.886L239.552 75.6765V74.2815L241.722 73.3515H242.838V84ZM247.194 77.583C247.194 78.11 246.775 78.5285 246.248 78.5285C245.721 78.5285 245.303 78.11 245.303 77.583C245.303 77.0715 245.721 76.653 246.248 76.653C246.775 76.653 247.194 77.0715 247.194 77.583ZM247.194 83.194C247.194 83.721 246.775 84.1395 246.248 84.1395C245.721 84.1395 245.303 83.721 245.303 83.194C245.303 82.6825 245.721 82.264 246.248 82.264C246.775 82.264 247.194 82.6825 247.194 83.194ZM248.502 81.5045V80.466L253.788 73.367H255.338V80.2955H256.826V81.5045H255.338V84H253.989V81.5045H248.502ZM250.114 80.2955H253.989V75.1185L250.114 80.2955ZM260.736 82.884C262.069 82.884 263.263 82.047 263.263 80.652C263.263 79.288 262.116 78.4975 260.674 78.4975C259.729 78.4975 258.969 78.73 258.318 79.071L258.69 73.3515H264.146V74.607H259.868L259.667 77.459C259.915 77.335 260.488 77.2575 260.969 77.2575C263.015 77.2575 264.673 78.6215 264.673 80.59C264.673 82.8685 262.937 84.155 260.783 84.1705C259.822 84.1705 258.907 83.9225 258.024 83.3645V81.8455C258.907 82.543 259.806 82.884 260.736 82.884ZM270.823 79.2105V79.0245C270.823 78.079 270.157 77.5055 269.041 77.5055C268.018 77.5055 267.258 77.924 266.483 78.637V77.242C267.165 76.684 267.987 76.2965 269.072 76.2965C271.009 76.2965 272.125 77.366 272.125 79.1175V84H270.87V83.008C270.281 83.7675 269.366 84.1705 268.374 84.1705C267.041 84.1705 266.096 83.256 266.096 82.016C266.096 80.6675 266.948 79.8615 268.607 79.5825L270.823 79.2105ZM267.429 81.9385C267.429 82.574 267.925 82.9925 268.622 82.9925C269.909 82.9925 270.839 82.1555 270.839 80.993V80.3575L268.824 80.714C267.925 80.8845 267.429 81.2875 267.429 81.9385Z" fill="#242B42"/>
<path d="M279.025 84V73.15H285.054V74.421H280.404V77.738H284.729V78.9935H280.404V82.729H285.085V84H279.025ZM286.842 83.0545V81.4115C287.741 82.2175 288.966 82.853 290.237 82.853C291.353 82.853 292.593 82.326 292.593 81.024C292.593 79.7995 291.461 79.4585 290.221 79.133C288.625 78.73 286.827 78.2185 286.827 76.0175C286.827 74.049 288.547 72.964 290.361 72.964C291.601 72.964 292.655 73.336 293.6 74.018V75.6145C292.717 74.8395 291.632 74.266 290.361 74.266C289.369 74.266 288.222 74.824 288.222 75.94C288.222 77.242 289.477 77.583 290.826 77.9395C292.345 78.3425 293.988 78.978 293.988 80.9465C293.988 83.0545 292.159 84.1705 290.252 84.1705C289.028 84.1705 287.803 83.7985 286.842 83.0545ZM294.857 74.421V73.15H302.576V74.421H299.414V84H298.019V74.421H294.857Z" fill="#4B546B"/>
</svg>
