<svg width="362" height="159" viewBox="0 0 362 159" fill="none" xmlns="http://www.w3.org/2000/svg">
<path fill-rule="evenodd" clip-rule="evenodd" d="M108.75 71.0166C109.164 71.0166 109.5 71.3524 109.5 71.7666V73.0107H114V71.7666C114 71.3524 114.336 71.0166 114.75 71.0166C115.164 71.0166 115.5 71.3524 115.5 71.7666V73.0107H117.274C118.24 73.0107 119.024 73.7942 119.024 74.7607V85.2474C119.024 86.2139 118.24 86.9974 117.274 86.9974H106.726C105.759 86.9974 104.976 86.2139 104.976 85.2474V74.7607C104.976 73.7942 105.759 73.0107 106.726 73.0107H108V71.7666C108 71.3524 108.336 71.0166 108.75 71.0166ZM106.476 76.972V78.8138H109.148V76.972H106.476ZM106.476 80.3138H109.148V82.1556H106.476V80.3138ZM110.648 80.3138V82.1556H113.351V80.3138H110.648ZM114.851 80.3138V82.1556H117.524V80.3138H114.851ZM113.351 83.6556H110.648V85.4974H113.351V83.6556ZM114.851 85.4974V83.6556H117.524V85.2474C117.524 85.3854 117.412 85.4974 117.274 85.4974H114.851ZM114.851 78.8138V76.972H117.524V78.8138H114.851ZM113.351 76.972V78.8138H110.648V76.972H113.351ZM106.476 83.6556H109.148V85.4974H106.726C106.588 85.4974 106.476 85.3854 106.476 85.2474V83.6556Z" fill="#687887"/>
<path d="M126.822 83.2715V80.5125C127.86 81.4735 129.364 82.016 130.526 82.016C131.58 82.016 132.169 81.5975 132.169 80.838C132.169 79.9545 131.084 79.7685 129.875 79.443C128.387 79.0555 126.698 78.4975 126.698 76.374C126.698 74.297 128.372 72.9485 130.728 72.9485C132.014 72.9485 133.115 73.243 134.076 73.8475V76.436C133.068 75.568 131.906 75.103 130.743 75.103C129.596 75.103 129.1 75.5835 129.1 76.2345C129.1 76.9475 130.015 77.18 131.069 77.459C132.634 77.862 134.587 78.389 134.587 80.6675C134.587 82.7445 133.053 84.2015 130.573 84.2015C129.224 84.2015 127.798 83.876 126.822 83.2715ZM141.039 80.3885V76.343H143.302V84H141.039V83.0235C140.589 83.752 139.814 84.2015 138.807 84.2015C137.071 84.2015 136.001 82.9925 136.001 81.0705V76.343H138.264V80.528C138.264 81.5355 138.76 82.1245 139.613 82.1245C140.481 82.1245 141.039 81.4735 141.039 80.3885ZM147.686 79.939V84H145.423V76.343H147.686V77.3195C148.151 76.5755 148.926 76.1415 149.949 76.1415C151.7 76.1415 152.77 77.335 152.77 79.2725V84H150.507V79.7995C150.507 78.792 150.011 78.2185 149.127 78.2185C148.259 78.2185 147.686 78.8695 147.686 79.939Z" fill="#242B42"/>
<path d="M158.353 79.9235C158.353 79.195 158.988 78.575 159.717 78.575C160.461 78.575 161.081 79.195 161.081 79.9235C161.081 80.6365 160.461 81.2565 159.717 81.2565C158.988 81.2565 158.353 80.6365 158.353 79.9235Z" fill="#4B546B"/>
<path d="M170.495 73.65H172.557L176.912 84.5H174.479L173.564 82.1595H169.426L168.511 84.5H166.124L170.495 73.65ZM171.487 76.6105L170.139 80.16H172.867L171.487 76.6105ZM180.324 87.724H178.077V76.843H180.324V77.866C180.867 77.0755 181.797 76.657 182.804 76.657C184.866 76.657 186.431 78.393 186.431 80.6715C186.431 82.9345 184.866 84.686 182.804 84.686C181.797 84.686 180.867 84.314 180.324 83.508V87.724ZM184.184 80.6715C184.184 79.571 183.316 78.6875 182.215 78.6875C181.115 78.6875 180.247 79.571 180.247 80.6715C180.247 81.772 181.115 82.6555 182.215 82.6555C183.316 82.6555 184.184 81.772 184.184 80.6715ZM192.831 76.719V79.044C192.707 78.982 192.49 78.951 192.258 78.951C191.002 78.951 190.258 79.881 190.258 81.3845V84.5H188.011V76.843H190.243V78.0985C190.646 77.215 191.452 76.6725 192.444 76.6725C192.614 76.6725 192.785 76.7035 192.831 76.719Z" fill="#242B42"/>
<path d="M205.426 84.5H198.203V82.8725L201.691 79.416C202.683 78.455 202.962 77.959 202.962 77.246C202.962 76.3935 202.233 75.789 201.21 75.789C200.218 75.789 199.288 76.347 198.451 77.2615V74.828C199.273 74.084 200.342 73.6655 201.396 73.6655C203.535 73.6655 205.256 74.9675 205.256 76.998C205.256 78.4085 204.667 79.447 203.318 80.687L201.412 82.454H205.426V84.5ZM213.908 84.5H206.685V82.8725L210.172 79.416C211.164 78.455 211.443 77.959 211.443 77.246C211.443 76.3935 210.715 75.789 209.692 75.789C208.7 75.789 207.77 76.347 206.933 77.2615V74.828C207.754 74.084 208.824 73.6655 209.878 73.6655C212.017 73.6655 213.737 74.9675 213.737 76.998C213.737 78.4085 213.148 79.447 211.8 80.687L209.893 82.454H213.908V84.5Z" fill="#242B42"/>
<path d="M216.924 86.3135H215.575L216.567 84.4845H216.552C215.947 84.4845 215.451 83.973 215.451 83.3375C215.451 82.547 216.071 81.9735 216.815 81.9735C217.606 81.9735 218.21 82.547 218.21 83.3375C218.21 83.756 218.086 84.1435 217.807 84.655L216.924 86.3135ZM230.549 84.5H223.326V82.8725L226.813 79.416C227.805 78.455 228.084 77.959 228.084 77.246C228.084 76.3935 227.356 75.789 226.333 75.789C225.341 75.789 224.411 76.347 223.574 77.2615V74.828C224.395 74.084 225.465 73.6655 226.519 73.6655C228.658 73.6655 230.378 74.9675 230.378 76.998C230.378 78.4085 229.789 79.447 228.441 80.687L226.534 82.454H230.549V84.5ZM231.84 79.1835C231.84 76.285 233.39 73.6655 236.397 73.6655C239.404 73.6655 240.954 76.285 240.954 79.1835C240.954 82.082 239.404 84.7015 236.397 84.7015C233.39 84.7015 231.84 82.082 231.84 79.1835ZM238.644 79.1835C238.644 77.4785 237.962 75.82 236.397 75.82C234.831 75.82 234.149 77.4785 234.149 79.1835C234.149 80.8885 234.831 82.547 236.397 82.547C237.962 82.547 238.644 80.8885 238.644 79.1835ZM249.222 84.5H241.999V82.8725L245.486 79.416C246.478 78.455 246.757 77.959 246.757 77.246C246.757 76.3935 246.029 75.789 245.006 75.789C244.014 75.789 243.084 76.347 242.247 77.2615V74.828C243.068 74.084 244.138 73.6655 245.192 73.6655C247.331 73.6655 249.051 74.9675 249.051 76.998C249.051 78.4085 248.462 79.447 247.114 80.687L245.207 82.454H249.222V84.5ZM250.513 79.1835C250.513 76.285 252.063 73.6655 255.07 73.6655C258.077 73.6655 259.627 76.285 259.627 79.1835C259.627 82.082 258.077 84.7015 255.07 84.7015C252.063 84.7015 250.513 82.082 250.513 79.1835ZM257.317 79.1835C257.317 77.4785 256.635 75.82 255.07 75.82C253.504 75.82 252.822 77.4785 252.822 79.1835C252.822 80.8885 253.504 82.547 255.07 82.547C256.635 82.547 257.317 80.8885 257.317 79.1835Z" fill="#242B42"/>
</svg>
