<svg width="362" height="159" viewBox="0 0 362 159" fill="none" xmlns="http://www.w3.org/2000/svg">
<path d="M145.406 75.2048C145.406 74.8423 145.112 74.5485 144.75 74.5485C144.388 74.5485 144.094 74.8423 144.094 75.2048V79.1695C144.094 79.463 144.24 79.7371 144.485 79.8999L147.011 81.5841C147.313 81.7852 147.72 81.7037 147.921 81.4021C148.122 81.1006 148.041 80.6931 147.739 80.4921L145.406 78.9369V75.2048Z" fill="#4B546B"/>
<path fill-rule="evenodd" clip-rule="evenodd" d="M151.75 79C151.75 82.866 148.616 86 144.75 86C140.884 86 137.75 82.866 137.75 79C137.75 75.134 140.884 72 144.75 72C148.616 72 151.75 75.134 151.75 79ZM150.437 79C150.437 82.1411 147.891 84.6875 144.75 84.6875C141.609 84.6875 139.062 82.1411 139.062 79C139.062 75.8589 141.609 73.3125 144.75 73.3125C147.891 73.3125 150.437 75.8589 150.437 79Z" fill="#4B546B"/>
<path d="M161.124 83H159.348V76.676L157.86 77.252V75.512L159.72 74.756H161.124V83ZM169.259 83H163.667V81.74L166.367 79.064C167.135 78.32 167.351 77.936 167.351 77.384C167.351 76.724 166.787 76.256 165.995 76.256C165.227 76.256 164.507 76.688 163.859 77.396V75.512C164.495 74.936 165.323 74.612 166.139 74.612C167.795 74.612 169.127 75.62 169.127 77.192C169.127 78.284 168.671 79.088 167.627 80.048L166.151 81.416H169.259V83ZM171.528 78.068C171.528 77.492 171.996 77.012 172.596 77.012C173.184 77.012 173.664 77.492 173.664 78.068C173.664 78.644 173.196 79.124 172.596 79.124C171.996 79.124 171.528 78.656 171.528 78.068ZM171.528 82.088C171.528 81.512 171.996 81.032 172.596 81.032C173.184 81.032 173.664 81.512 173.664 82.088C173.664 82.664 173.196 83.144 172.596 83.144C171.996 83.144 171.528 82.676 171.528 82.088ZM181.288 80.54C181.288 82.1 180.052 83.156 178.168 83.156C177.364 83.156 176.608 82.952 175.924 82.532V80.732C176.608 81.272 177.304 81.536 178.024 81.536C178.9 81.536 179.512 81.14 179.512 80.444C179.512 79.832 178.936 79.412 178.084 79.412H177.304V78.02H178.048C178.744 78.02 179.224 77.636 179.224 77.132C179.224 76.556 178.66 76.22 177.988 76.22C177.328 76.22 176.728 76.472 176.092 76.988V75.224C176.692 74.816 177.4 74.612 178.132 74.612C179.764 74.612 180.964 75.476 180.964 76.916C180.964 77.684 180.568 78.26 179.944 78.608C180.796 78.956 181.288 79.64 181.288 80.54ZM188.867 83H183.275V81.74L185.975 79.064C186.743 78.32 186.959 77.936 186.959 77.384C186.959 76.724 186.395 76.256 185.603 76.256C184.835 76.256 184.115 76.688 183.467 77.396V75.512C184.103 74.936 184.931 74.612 185.747 74.612C187.403 74.612 188.735 75.62 188.735 77.192C188.735 78.284 188.279 79.088 187.235 80.048L185.759 81.416H188.867V83ZM191.388 74.6H194.244C196.068 74.6 197.328 75.584 197.328 77.312C197.328 79.028 196.068 80.024 194.244 80.024H193.188V83H191.388V74.6ZM193.188 76.22V78.428H194.28C195 78.428 195.516 78.02 195.516 77.324C195.516 76.628 195 76.22 194.28 76.22H193.188Z" fill="#4B546B"/>
<path d="M203.388 83V74.6H208.332V76.232H205.188V77.936H208.056V79.52H205.188V81.368H208.356V83H203.388ZM210.746 82.436V80.3C211.55 81.044 212.714 81.464 213.614 81.464C214.43 81.464 214.886 81.14 214.886 80.552C214.886 79.868 214.046 79.724 213.11 79.472C211.958 79.172 210.65 78.74 210.65 77.096C210.65 75.488 211.946 74.444 213.77 74.444C214.766 74.444 215.618 74.672 216.362 75.14V77.144C215.582 76.472 214.682 76.112 213.782 76.112C212.894 76.112 212.51 76.484 212.51 76.988C212.51 77.54 213.218 77.72 214.034 77.936C215.246 78.248 216.758 78.656 216.758 80.42C216.758 82.028 215.57 83.156 213.65 83.156C212.606 83.156 211.502 82.904 210.746 82.436ZM218.452 76.28V74.6H224.692V76.28H222.484V83H220.672V76.28H218.452Z" fill="#4B546B"/>
</svg>
