<svg width="362" height="159" viewBox="0 0 362 159" fill="none" xmlns="http://www.w3.org/2000/svg">
<path d="M52.58 74.6H53.648V82.004H56.648V83H52.58V74.6ZM61.2606 79.292V79.148C61.2606 78.416 60.7446 77.972 59.8806 77.972C59.0886 77.972 58.5006 78.296 57.9006 78.848V77.768C58.4286 77.336 59.0646 77.036 59.9046 77.036C61.4046 77.036 62.2686 77.864 62.2686 79.22V83H61.2966V82.232C60.8406 82.82 60.1326 83.132 59.3646 83.132C58.3326 83.132 57.6006 82.424 57.6006 81.464C57.6006 80.42 58.2606 79.796 59.5446 79.58L61.2606 79.292ZM58.6326 81.404C58.6326 81.896 59.0166 82.22 59.5566 82.22C60.5526 82.22 61.2726 81.572 61.2726 80.672V80.18L59.7126 80.456C59.0166 80.588 58.6326 80.9 58.6326 81.404ZM63.707 82.532V81.392C64.235 81.872 64.919 82.208 65.627 82.208C66.215 82.208 66.755 82.004 66.755 81.404C66.755 80.804 66.191 80.6 65.459 80.444C64.619 80.264 63.695 79.928 63.695 78.8C63.695 77.624 64.691 77.036 65.735 77.036C66.359 77.036 66.983 77.228 67.499 77.576V78.668C66.983 78.248 66.383 77.948 65.759 77.948C65.267 77.948 64.703 78.14 64.703 78.68C64.703 79.208 65.207 79.436 65.879 79.604C66.959 79.868 67.775 80.264 67.775 81.32C67.775 82.508 66.779 83.132 65.615 83.132C64.979 83.132 64.259 82.94 63.707 82.532ZM68.4355 77.96L70.4395 75.8H70.4755V77.168H72.1075V78.092H70.4755V81.176C70.4755 81.86 70.7755 82.172 71.4475 82.172C71.6755 82.172 71.9275 82.112 72.1075 81.992V82.952C71.9035 83.06 71.6035 83.132 71.2075 83.132C70.1035 83.132 69.4435 82.448 69.4435 81.32V78.092H68.4355V77.96ZM80.6145 80.216V77.168H81.6465V83H80.6145V82.16C80.2545 82.736 79.6425 83.132 78.7665 83.132C77.2905 83.132 76.4385 82.136 76.4385 80.588V77.168H77.4705V80.468C77.4705 81.512 77.9985 82.172 78.9825 82.172C79.9665 82.172 80.6145 81.404 80.6145 80.216ZM84.8112 85.496H83.7912V77.168H84.8112V78.092C85.2312 77.456 86.0232 77.036 86.8752 77.036C88.5312 77.036 89.8032 78.356 89.8032 80.084C89.8032 81.8 88.5312 83.132 86.8752 83.132C86.0232 83.132 85.2432 82.76 84.8112 82.124V85.496ZM88.7592 80.084C88.7592 78.908 87.8952 77.984 86.7552 77.984C85.6152 77.984 84.7512 78.908 84.7512 80.084C84.7512 81.26 85.6152 82.184 86.7552 82.184C87.8952 82.184 88.7592 81.26 88.7592 80.084ZM95.9836 74.6H97.0036V83H95.9836V82.076C95.5636 82.712 94.7716 83.132 93.9196 83.132C92.2636 83.132 90.9916 81.812 90.9916 80.084C90.9916 78.368 92.2636 77.036 93.9196 77.036C94.7716 77.036 95.5516 77.408 95.9836 78.044V74.6ZM96.0436 80.084C96.0436 78.908 95.1796 77.984 94.0396 77.984C92.8996 77.984 92.0356 78.908 92.0356 80.084C92.0356 81.26 92.8996 82.184 94.0396 82.184C95.1796 82.184 96.0436 81.26 96.0436 80.084ZM102.333 79.292V79.148C102.333 78.416 101.817 77.972 100.953 77.972C100.161 77.972 99.5733 78.296 98.9733 78.848V77.768C99.5013 77.336 100.137 77.036 100.977 77.036C102.477 77.036 103.341 77.864 103.341 79.22V83H102.369V82.232C101.913 82.82 101.205 83.132 100.437 83.132C99.4053 83.132 98.6733 82.424 98.6733 81.464C98.6733 80.42 99.3333 79.796 100.617 79.58L102.333 79.292ZM99.7053 81.404C99.7053 81.896 100.089 82.22 100.629 82.22C101.625 82.22 102.345 81.572 102.345 80.672V80.18L100.785 80.456C100.089 80.588 99.7053 80.9 99.7053 81.404ZM104.372 77.96L106.376 75.8H106.412V77.168H108.044V78.092H106.412V81.176C106.412 81.86 106.712 82.172 107.384 82.172C107.612 82.172 107.864 82.112 108.044 81.992V82.952C107.84 83.06 107.54 83.132 107.144 83.132C106.04 83.132 105.38 82.448 105.38 81.32V78.092H104.372V77.96ZM114.305 81.272V82.388C113.657 82.856 112.865 83.132 112.049 83.132C110.189 83.132 108.989 81.8 108.989 80.084C108.989 78.344 110.189 77.036 111.869 77.036C113.501 77.036 114.617 78.38 114.617 80.036C114.617 80.264 114.593 80.408 114.593 80.408H110.021C110.105 81.38 110.909 82.196 112.121 82.196C112.865 82.196 113.585 81.896 114.305 81.272ZM110.045 79.556H113.573C113.489 78.632 112.805 77.936 111.845 77.936C110.873 77.936 110.117 78.764 110.045 79.556ZM120.734 74.6H121.754V83H120.734V82.076C120.314 82.712 119.522 83.132 118.67 83.132C117.014 83.132 115.742 81.812 115.742 80.084C115.742 78.368 117.014 77.036 118.67 77.036C119.522 77.036 120.302 77.408 120.734 78.044V74.6ZM120.794 80.084C120.794 78.908 119.93 77.984 118.79 77.984C117.65 77.984 116.786 78.908 116.786 80.084C116.786 81.26 117.65 82.184 118.79 82.184C119.93 82.184 120.794 81.26 120.794 80.084Z" fill="#4B546B"/>
<path d="M129.48 83H128.46V74.6H129.48V78.092C129.9 77.456 130.692 77.036 131.544 77.036C133.2 77.036 134.472 78.356 134.472 80.084C134.472 81.8 133.2 83.132 131.544 83.132C130.692 83.132 129.912 82.76 129.48 82.124V83ZM133.428 80.084C133.428 78.908 132.564 77.984 131.424 77.984C130.284 77.984 129.42 78.908 129.42 80.084C129.42 81.26 130.284 82.184 131.424 82.184C132.564 82.184 133.428 81.26 133.428 80.084ZM140.826 77.168L138.018 83.888C137.49 85.148 136.974 85.64 136.098 85.64C135.846 85.64 135.63 85.592 135.462 85.52V84.608C135.594 84.656 135.798 84.704 136.014 84.704C136.482 84.704 136.758 84.428 137.07 83.684L137.418 82.844L135.102 77.168H136.206L137.958 81.668L139.758 77.168H140.826ZM147.692 74.6H148.532L151.988 83H150.86L149.876 80.564H146.312L145.328 83H144.224L147.692 74.6ZM148.088 76.1L146.696 79.592H149.492L148.088 76.1ZM154.172 79.952V83H153.14V77.168H154.172V78.008C154.532 77.432 155.156 77.036 156.032 77.036C157.52 77.036 158.384 78.032 158.384 79.58V83H157.352V79.7C157.352 78.656 156.812 77.996 155.816 77.996C154.82 77.996 154.172 78.764 154.172 79.952ZM161.301 79.952V83H160.269V77.168H161.301V78.008C161.661 77.432 162.285 77.036 163.161 77.036C164.649 77.036 165.513 78.032 165.513 79.58V83H164.481V79.7C164.481 78.656 163.941 77.996 162.945 77.996C161.949 77.996 161.301 78.764 161.301 79.952ZM170.698 79.292V79.148C170.698 78.416 170.182 77.972 169.318 77.972C168.526 77.972 167.938 78.296 167.338 78.848V77.768C167.866 77.336 168.502 77.036 169.342 77.036C170.842 77.036 171.706 77.864 171.706 79.22V83H170.734V82.232C170.278 82.82 169.57 83.132 168.802 83.132C167.77 83.132 167.038 82.424 167.038 81.464C167.038 80.42 167.698 79.796 168.982 79.58L170.698 79.292ZM168.07 81.404C168.07 81.896 168.454 82.22 168.994 82.22C169.99 82.22 170.71 81.572 170.71 80.672V80.18L169.15 80.456C168.454 80.588 168.07 80.9 168.07 81.404ZM176.687 83V74.6H179.303C180.851 74.6 181.919 75.44 181.919 76.82C181.919 77.612 181.571 78.224 180.911 78.536C181.883 78.86 182.423 79.604 182.423 80.612C182.423 82.112 181.295 83 179.555 83H176.687ZM177.755 82.052H179.543C180.635 82.052 181.343 81.512 181.343 80.576C181.343 79.676 180.611 79.112 179.519 79.112H177.755V82.052ZM177.755 78.188H179.291C180.227 78.188 180.863 77.696 180.863 76.868C180.863 76.028 180.227 75.548 179.279 75.548H177.755V78.188ZM183.965 74.6H184.997V83H183.965V74.6ZM190.328 79.292V79.148C190.328 78.416 189.812 77.972 188.948 77.972C188.156 77.972 187.568 78.296 186.968 78.848V77.768C187.496 77.336 188.132 77.036 188.972 77.036C190.472 77.036 191.336 77.864 191.336 79.22V83H190.364V82.232C189.908 82.82 189.2 83.132 188.432 83.132C187.4 83.132 186.668 82.424 186.668 81.464C186.668 80.42 187.328 79.796 188.612 79.58L190.328 79.292ZM187.7 81.404C187.7 81.896 188.084 82.22 188.624 82.22C189.62 82.22 190.34 81.572 190.34 80.672V80.18L188.78 80.456C188.084 80.588 187.7 80.9 187.7 81.404ZM192.785 80.084C192.785 78.38 194.045 77.036 195.833 77.036C196.445 77.036 197.009 77.216 197.489 77.54V78.584C196.973 78.188 196.445 77.996 195.881 77.996C194.693 77.996 193.829 78.908 193.829 80.084C193.829 81.248 194.693 82.172 195.881 82.172C196.493 82.172 197.057 81.896 197.525 81.596V82.64C197.021 82.952 196.445 83.132 195.845 83.132C194.009 83.132 192.785 81.8 192.785 80.084ZM200.064 74.6V79.484L202.512 77.168H203.832L201.18 79.652L204.06 83H202.752L200.46 80.288L200.064 80.66V83H199.044V74.6H200.064Z" fill="#4B546B"/>
<path d="M212.088 77.036C213.84 77.036 215.136 78.392 215.136 80.084C215.136 81.776 213.84 83.132 212.088 83.132C210.336 83.132 209.04 81.776 209.04 80.084C209.04 78.392 210.336 77.036 212.088 77.036ZM212.088 77.984C210.948 77.984 210.084 78.92 210.084 80.084C210.084 81.248 210.948 82.184 212.088 82.184C213.228 82.184 214.092 81.248 214.092 80.084C214.092 78.92 213.228 77.984 212.088 77.984ZM217.714 79.952V83H216.682V77.168H217.714V78.008C218.074 77.432 218.698 77.036 219.574 77.036C221.062 77.036 221.926 78.032 221.926 79.58V83H220.894V79.7C220.894 78.656 220.354 77.996 219.358 77.996C218.362 77.996 217.714 78.764 217.714 79.952Z" fill="#4B546B"/>
<path d="M235.408 78.8C235.408 81.188 233.56 83 231.232 83H228.58V74.6H231.232C233.56 74.6 235.408 76.412 235.408 78.8ZM234.304 78.8C234.304 77 232.996 75.596 231.208 75.596H229.648V82.004H231.208C232.996 82.004 234.304 80.6 234.304 78.8ZM241.937 81.272V82.388C241.289 82.856 240.497 83.132 239.681 83.132C237.821 83.132 236.621 81.8 236.621 80.084C236.621 78.344 237.821 77.036 239.501 77.036C241.133 77.036 242.249 78.38 242.249 80.036C242.249 80.264 242.225 80.408 242.225 80.408H237.653C237.737 81.38 238.541 82.196 239.753 82.196C240.497 82.196 241.217 81.896 241.937 81.272ZM237.677 79.556H241.205C241.121 78.632 240.437 77.936 239.477 77.936C238.505 77.936 237.749 78.764 237.677 79.556ZM243.374 80.084C243.374 78.38 244.634 77.036 246.422 77.036C247.034 77.036 247.598 77.216 248.078 77.54V78.584C247.562 78.188 247.034 77.996 246.47 77.996C245.282 77.996 244.418 78.908 244.418 80.084C244.418 81.248 245.282 82.172 246.47 82.172C247.082 82.172 247.646 81.896 248.114 81.596V82.64C247.61 82.952 247.034 83.132 246.434 83.132C244.598 83.132 243.374 81.8 243.374 80.084ZM252.157 83V82.268L255.229 79.016C255.937 78.272 256.153 77.756 256.153 77.12C256.153 76.268 255.409 75.62 254.449 75.62C253.693 75.62 252.913 76.124 252.253 76.94V75.68C252.829 75.032 253.681 74.624 254.461 74.624C256.045 74.624 257.209 75.644 257.209 77.072C257.209 78.056 256.825 78.776 255.937 79.712L253.741 82.016H257.317V83H252.157ZM261.863 83.132C259.619 83.132 258.539 81.104 258.539 78.884C258.539 76.652 259.619 74.624 261.863 74.624C264.107 74.624 265.187 76.652 265.187 78.884C265.187 81.104 264.107 83.132 261.863 83.132ZM261.863 82.136C263.423 82.136 264.119 80.564 264.119 78.884C264.119 77.204 263.423 75.62 261.863 75.62C260.303 75.62 259.607 77.204 259.607 78.884C259.607 80.564 260.303 82.136 261.863 82.136Z" fill="#4B546B"/>
<path d="M274.82 79.292V79.148C274.82 78.416 274.304 77.972 273.44 77.972C272.648 77.972 272.06 78.296 271.46 78.848V77.768C271.988 77.336 272.624 77.036 273.464 77.036C274.964 77.036 275.828 77.864 275.828 79.22V83H274.856V82.232C274.4 82.82 273.692 83.132 272.924 83.132C271.892 83.132 271.16 82.424 271.16 81.464C271.16 80.42 271.82 79.796 273.104 79.58L274.82 79.292ZM272.192 81.404C272.192 81.896 272.576 82.22 273.116 82.22C274.112 82.22 274.832 81.572 274.832 80.672V80.18L273.272 80.456C272.576 80.588 272.192 80.9 272.192 81.404ZM276.859 77.96L278.863 75.8H278.899V77.168H280.531V78.092H278.899V81.176C278.899 81.86 279.199 82.172 279.871 82.172C280.099 82.172 280.351 82.112 280.531 81.992V82.952C280.327 83.06 280.027 83.132 279.631 83.132C278.527 83.132 277.867 82.448 277.867 81.32V78.092H276.859V77.96Z" fill="#4B546B"/>
<path d="M288.5 83H287.444V75.944L285.956 76.556V75.476L287.636 74.756H288.5V83ZM291.884 78.032C291.884 78.44 291.56 78.764 291.152 78.764C290.744 78.764 290.42 78.44 290.42 78.032C290.42 77.636 290.744 77.312 291.152 77.312C291.56 77.312 291.884 77.636 291.884 78.032ZM291.884 82.376C291.884 82.784 291.56 83.108 291.152 83.108C290.744 83.108 290.42 82.784 290.42 82.376C290.42 81.98 290.744 81.656 291.152 81.656C291.56 81.656 291.884 81.98 291.884 82.376ZM295.291 83H294.235V75.944L292.747 76.556V75.476L294.427 74.756H295.291V83ZM302.959 80.216C302.959 81.848 301.651 83.132 299.983 83.132C298.267 83.132 296.995 81.872 296.995 80.204C296.995 79.508 297.247 78.74 297.919 77.732L299.887 74.756H301.159L299.131 77.72C299.371 77.552 299.731 77.42 300.175 77.42C301.771 77.42 302.959 78.668 302.959 80.216ZM301.891 80.264C301.891 79.184 301.039 78.38 299.983 78.38C298.903 78.38 298.063 79.184 298.063 80.252C298.063 81.296 298.891 82.136 299.971 82.136C301.039 82.136 301.891 81.296 301.891 80.264ZM305.481 85.496H304.461V77.168H305.481V78.092C305.901 77.456 306.693 77.036 307.545 77.036C309.201 77.036 310.473 78.356 310.473 80.084C310.473 81.8 309.201 83.132 307.545 83.132C306.693 83.132 305.913 82.76 305.481 82.124V85.496ZM309.429 80.084C309.429 78.908 308.565 77.984 307.425 77.984C306.285 77.984 305.421 78.908 305.421 80.084C305.421 81.26 306.285 82.184 307.425 82.184C308.565 82.184 309.429 81.26 309.429 80.084Z" fill="#4B546B"/>
</svg>
