<svg width="362" height="159" viewBox="0 0 362 159" fill="none" xmlns="http://www.w3.org/2000/svg">
<path d="M107.062 75.7469C107.062 75.4363 106.811 75.1844 106.5 75.1844C106.189 75.1844 105.938 75.4363 105.938 75.7469V79.1453C105.938 79.3969 106.063 79.6318 106.273 79.7714L108.438 81.215C108.696 81.3873 109.046 81.3175 109.218 81.059C109.39 80.8005 109.321 80.4512 109.062 80.2789L107.062 78.9459V75.7469Z" fill="#4B546B"/>
<path fill-rule="evenodd" clip-rule="evenodd" d="M112.5 79C112.5 82.3137 109.814 85 106.5 85C103.186 85 100.5 82.3137 100.5 79C100.5 75.6863 103.186 73 106.5 73C109.814 73 112.5 75.6863 112.5 79ZM111.375 79C111.375 81.6924 109.192 83.875 106.5 83.875C103.808 83.875 101.625 81.6924 101.625 79C101.625 76.3076 103.808 74.125 106.5 74.125C109.192 74.125 111.375 76.3076 111.375 79Z" fill="#4B546B"/>
<path d="M121.624 83H119.848V76.676L118.36 77.252V75.512L120.22 74.756H121.624V83ZM129.759 83H124.167V81.74L126.867 79.064C127.635 78.32 127.851 77.936 127.851 77.384C127.851 76.724 127.287 76.256 126.495 76.256C125.727 76.256 125.007 76.688 124.359 77.396V75.512C124.995 74.936 125.823 74.612 126.639 74.612C128.295 74.612 129.627 75.62 129.627 77.192C129.627 78.284 129.171 79.088 128.127 80.048L126.651 81.416H129.759V83ZM132.028 78.068C132.028 77.492 132.496 77.012 133.096 77.012C133.684 77.012 134.164 77.492 134.164 78.068C134.164 78.644 133.696 79.124 133.096 79.124C132.496 79.124 132.028 78.656 132.028 78.068ZM132.028 82.088C132.028 81.512 132.496 81.032 133.096 81.032C133.684 81.032 134.164 81.512 134.164 82.088C134.164 82.664 133.696 83.144 133.096 83.144C132.496 83.144 132.028 82.676 132.028 82.088ZM136.149 81.308V80.084L139.701 74.768H141.837V79.832H142.989V81.308H141.837V83H140.145V81.308H136.149ZM138.057 79.832H140.157V76.652L138.057 79.832ZM144.665 77.648C144.665 75.92 146.021 74.612 147.797 74.612C149.585 74.612 150.929 75.896 150.929 77.624C150.929 78.368 150.605 79.064 150.101 79.928L148.301 83H146.309L147.905 80.372C147.725 80.432 147.545 80.444 147.401 80.444C145.817 80.444 144.665 79.196 144.665 77.648ZM146.405 77.588C146.405 78.356 147.029 78.956 147.797 78.956C148.577 78.956 149.189 78.356 149.189 77.6C149.189 76.832 148.589 76.22 147.809 76.22C147.029 76.22 146.405 76.832 146.405 77.588ZM153.482 74.6H156.338C158.162 74.6 159.422 75.584 159.422 77.312C159.422 79.028 158.162 80.024 156.338 80.024H155.282V83H153.482V74.6ZM155.282 76.22V78.428H156.374C157.094 78.428 157.61 78.02 157.61 77.324C157.61 76.628 157.094 76.22 156.374 76.22H155.282Z" fill="#4B546B"/>
<path fill-rule="evenodd" clip-rule="evenodd" d="M172.949 74.9909C172.729 75.2106 172.729 75.5667 172.949 75.7864L176.163 78.9999L172.949 82.2134C172.729 82.4331 172.729 82.7893 172.949 83.0089C173.169 83.2286 173.525 83.2286 173.745 83.0089L177.223 79.5303C177.516 79.2374 177.516 78.7625 177.223 78.4696L173.745 74.9909C173.525 74.7713 173.169 74.7713 172.949 74.9909Z" fill="#4B546B"/>
<path fill-rule="evenodd" clip-rule="evenodd" d="M165.896 78.9999C165.896 79.3105 166.147 79.5624 166.458 79.5624L176.958 79.5624C177.269 79.5624 177.521 79.3105 177.521 78.9999C177.521 78.6892 177.269 78.4374 176.958 78.4374L166.458 78.4374C166.147 78.4374 165.896 78.6892 165.896 78.9999Z" fill="#4B546B"/>
<path d="M189.036 83H183.444V81.74L186.144 79.064C186.912 78.32 187.128 77.936 187.128 77.384C187.128 76.724 186.564 76.256 185.772 76.256C185.004 76.256 184.284 76.688 183.636 77.396V75.512C184.272 74.936 185.1 74.612 185.916 74.612C187.572 74.612 188.904 75.62 188.904 77.192C188.904 78.284 188.448 79.088 187.404 80.048L185.928 81.416H189.036V83ZM191.305 78.068C191.305 77.492 191.773 77.012 192.373 77.012C192.961 77.012 193.441 77.492 193.441 78.068C193.441 78.644 192.973 79.124 192.373 79.124C191.773 79.124 191.305 78.656 191.305 78.068ZM191.305 82.088C191.305 81.512 191.773 81.032 192.373 81.032C192.961 81.032 193.441 81.512 193.441 82.088C193.441 82.664 192.973 83.144 192.373 83.144C191.773 83.144 191.305 82.676 191.305 82.088ZM195.426 81.308V80.084L198.978 74.768H201.114V79.832H202.266V81.308H201.114V83H199.422V81.308H195.426ZM197.334 79.832H199.434V76.652L197.334 79.832ZM203.942 77.648C203.942 75.92 205.298 74.612 207.074 74.612C208.862 74.612 210.206 75.896 210.206 77.624C210.206 78.368 209.882 79.064 209.378 79.928L207.578 83H205.586L207.182 80.372C207.002 80.432 206.822 80.444 206.678 80.444C205.094 80.444 203.942 79.196 203.942 77.648ZM205.682 77.588C205.682 78.356 206.306 78.956 207.074 78.956C207.854 78.956 208.466 78.356 208.466 77.6C208.466 76.832 207.866 76.22 207.086 76.22C206.306 76.22 205.682 76.832 205.682 77.588ZM212.758 74.6H215.614C217.438 74.6 218.698 75.584 218.698 77.312C218.698 79.028 217.438 80.024 215.614 80.024H214.558V83H212.758V74.6ZM214.558 76.22V78.428H215.65C216.37 78.428 216.886 78.02 216.886 77.324C216.886 76.628 216.37 76.22 215.65 76.22H214.558Z" fill="#4B546B"/>
<path d="M229.312 81.212V79.832H227.44V78.284H231.004V82.256C230.212 82.808 229.204 83.156 228.004 83.156C225.388 83.156 223.492 81.5 223.492 78.848C223.492 76.364 225.376 74.444 228.124 74.444C229.024 74.444 230.104 74.684 230.836 75.14V77.12C230.104 76.556 229.228 76.148 228.136 76.148C226.408 76.148 225.316 77.3 225.316 78.848C225.316 80.456 226.48 81.476 228.028 81.476C228.556 81.476 229.012 81.356 229.312 81.212ZM237.671 80.792L235.535 77.432V83H233.783V74.6H235.667L238.199 78.596L240.719 74.6H242.555V83H240.803V77.408L238.655 80.792H237.671ZM244.858 76.28V74.6H251.098V76.28H248.89V83H247.078V76.28H244.858ZM252.197 80.588V79.016H256.001V80.588H252.197ZM263.539 80.54C263.539 82.1 262.303 83.156 260.419 83.156C259.615 83.156 258.859 82.952 258.175 82.532V80.732C258.859 81.272 259.555 81.536 260.275 81.536C261.151 81.536 261.763 81.14 261.763 80.444C261.763 79.832 261.187 79.412 260.335 79.412H259.555V78.02H260.299C260.995 78.02 261.475 77.636 261.475 77.132C261.475 76.556 260.911 76.22 260.239 76.22C259.579 76.22 258.979 76.472 258.343 76.988V75.224C258.943 74.816 259.651 74.612 260.383 74.612C262.015 74.612 263.215 75.476 263.215 76.916C263.215 77.684 262.819 78.26 262.195 78.608C263.047 78.956 263.539 79.64 263.539 80.54Z" fill="#4B546B"/>
</svg>
