<svg width="362" height="159" viewBox="0 0 362 159" fill="none" xmlns="http://www.w3.org/2000/svg">
<path d="M164.581 73.884C165.898 73.884 166.921 73.0935 166.921 71.931C166.921 70.7995 165.914 70.0245 164.627 70.0245H163.62V68.7845H164.627C165.604 68.7845 166.503 68.0095 166.503 67.126C166.503 66.165 165.65 65.452 164.55 65.452C163.651 65.452 162.814 65.8705 161.961 66.6145V65.0955C162.736 64.5065 163.651 64.181 164.565 64.181C166.487 64.181 167.851 65.39 167.851 67.002C167.851 68.0095 167.309 68.8775 166.363 69.327C167.541 69.7145 168.301 70.7375 168.301 71.9465C168.301 73.8375 166.72 75.1705 164.596 75.1705C163.573 75.1705 162.612 74.907 161.682 74.3335V72.8455C162.628 73.543 163.589 73.884 164.581 73.884Z" fill="#4B546B"/>
<path d="M171.946 68.583C171.946 69.11 171.527 69.5285 171 69.5285C170.473 69.5285 170.055 69.11 170.055 68.583C170.055 68.0715 170.473 67.653 171 67.653C171.527 67.653 171.946 68.0715 171.946 68.583ZM171.946 74.194C171.946 74.721 171.527 75.1395 171 75.1395C170.473 75.1395 170.055 74.721 170.055 74.194C170.055 73.6825 170.473 73.264 171 73.264C171.527 73.264 171.946 73.6825 171.946 74.194Z" fill="#4B546B"/>
<path d="M172.403 72.5045V71.466L177.689 64.367H179.239V71.2955H180.727V72.5045H179.239V75H177.89V72.5045H172.403ZM174.015 71.2955H177.89V66.1185L174.015 71.2955ZM181.762 72.5045V71.466L187.048 64.367H188.598V71.2955H190.086V72.5045H188.598V75H187.249V72.5045H181.762ZM183.374 71.2955H187.249V66.1185L183.374 71.2955Z" fill="#4B546B"/>
<path d="M193.558 78.224H192.24V67.467H193.558V68.6605C194.1 67.839 195.123 67.2965 196.224 67.2965C198.363 67.2965 200.006 69.0015 200.006 71.2335C200.006 73.45 198.363 75.1705 196.224 75.1705C195.123 75.1705 194.116 74.69 193.558 73.8685V78.224ZM198.657 71.2335C198.657 69.7145 197.541 68.521 196.069 68.521C194.596 68.521 193.48 69.7145 193.48 71.2335C193.48 72.7525 194.596 73.946 196.069 73.946C197.541 73.946 198.657 72.7525 198.657 71.2335Z" fill="#4B546B"/>
<path d="M161.888 94V85.6H166.832V87.232H163.688V88.936H166.556V90.52H163.688V92.368H166.856V94H161.888ZM176.614 89.8C176.614 92.164 174.694 94 172.342 94H169.498V85.6H172.342C174.694 85.6 176.614 87.436 176.614 89.8ZM174.766 89.8C174.766 88.408 173.686 87.292 172.294 87.292H171.298V92.308H172.294C173.686 92.308 174.766 91.192 174.766 89.8ZM178.042 87.28V85.6H184.282V87.28H182.074V94H180.262V87.28H178.042Z" fill="#4B546B"/>
</svg>
