<svg width="362" height="159" viewBox="0 0 362 159" fill="none" xmlns="http://www.w3.org/2000/svg">
<path d="M166.216 67.28V65.6H172.456V67.28H170.248V74H168.436V67.28H166.216ZM178.02 74.156C175.92 74.156 174.648 72.788 174.648 70.664V65.6H176.472V70.568C176.472 71.696 177.024 72.404 178.02 72.404C179.016 72.404 179.568 71.696 179.568 70.568V65.6H181.392V70.664C181.392 72.788 180.12 74.156 178.02 74.156ZM184.265 74V65.6H189.209V67.232H186.065V68.936H188.933V70.52H186.065V72.368H189.233V74H184.265Z" fill="#4B546B"/>
<path d="M173.549 90.8225C173.549 92.8375 171.952 94.2015 169.519 94.2015C168.48 94.2015 167.504 93.938 166.62 93.3955V91.0705C167.504 91.768 168.403 92.109 169.333 92.109C170.464 92.109 171.255 91.5975 171.255 90.6985C171.255 89.908 170.511 89.3655 169.41 89.3655H168.403V87.5675H169.364C170.263 87.5675 170.883 87.0715 170.883 86.4205C170.883 85.6765 170.154 85.2425 169.286 85.2425C168.434 85.2425 167.659 85.568 166.837 86.2345V83.956C167.612 83.429 168.527 83.1655 169.472 83.1655C171.58 83.1655 173.13 84.2815 173.13 86.1415C173.13 87.1335 172.619 87.8775 171.813 88.327C172.913 88.7765 173.549 89.66 173.549 90.8225ZM181.548 82.1425L175.844 95.55H173.597L179.301 82.1425H181.548ZM186.342 94H184.048V85.8315L182.126 86.5755V84.328L184.528 83.3515H186.342V94ZM188.08 87.087C188.08 84.855 189.832 83.1655 192.126 83.1655C194.435 83.1655 196.171 84.824 196.171 87.056C196.171 88.017 195.753 88.916 195.102 90.032L192.777 94H190.204L192.265 90.6055C192.033 90.683 191.8 90.6985 191.614 90.6985C189.568 90.6985 188.08 89.0865 188.08 87.087ZM190.328 87.0095C190.328 88.0015 191.134 88.7765 192.126 88.7765C193.133 88.7765 193.924 88.0015 193.924 87.025C193.924 86.033 193.149 85.2425 192.141 85.2425C191.134 85.2425 190.328 86.033 190.328 87.0095Z" fill="#242B42"/>
</svg>
