<svg width="362" height="159" viewBox="0 0 362 159" fill="none" xmlns="http://www.w3.org/2000/svg">
<rect width="362" height="158.375" fill="#F3F7FB"/>
<circle cx="129" cy="79.5" r="19" fill="#8598AA" fill-opacity="0.1"/>
<path d="M121.995 71.566L123.382 72.491C123.7 72.7223 123.787 73.1559 123.585 73.4738C123.354 73.7918 122.92 73.8785 122.602 73.6473L121.214 72.7223C120.896 72.5199 120.81 72.0863 121.041 71.7684C121.243 71.4504 121.677 71.3637 121.995 71.566ZM137.257 72.7223L135.87 73.6473C135.552 73.8785 135.118 73.7918 134.916 73.4738C134.685 73.1559 134.771 72.7223 135.089 72.491L136.477 71.566C136.795 71.3637 137.229 71.4504 137.46 71.7684C137.662 72.0863 137.575 72.5199 137.257 72.7223ZM120.694 76.0754H122.544C122.92 76.0754 123.238 76.3934 123.238 76.7691C123.238 77.1738 122.92 77.4629 122.544 77.4629H120.694C120.289 77.4629 120 77.1738 120 76.7691C120 76.3934 120.289 76.0754 120.694 76.0754ZM135.957 76.0754H137.807C138.182 76.0754 138.5 76.3934 138.5 76.7691C138.5 77.1738 138.182 77.4629 137.807 77.4629H135.957C135.552 77.4629 135.263 77.1738 135.263 76.7691C135.263 76.3934 135.552 76.0754 135.957 76.0754ZM123.382 81.0473L121.995 81.9723C121.677 82.2035 121.243 82.1168 121.041 81.7988C120.81 81.4809 120.896 81.0473 121.214 80.816L122.602 79.891C122.92 79.6887 123.354 79.7754 123.585 80.0934C123.787 80.4113 123.7 80.8449 123.382 81.0473ZM135.87 79.9199L137.257 80.8449C137.575 81.0473 137.662 81.4809 137.46 81.7988C137.229 82.1168 136.795 82.2035 136.477 82.0012L135.089 81.0762C134.771 80.8449 134.685 80.4113 134.916 80.0934C135.118 79.7754 135.552 79.6887 135.87 79.9199ZM132.95 76.5379C132.95 74.5145 131.274 72.8379 129.25 72.8379C127.198 72.8379 125.55 74.5145 125.55 76.5379C125.55 77.3473 125.782 78.0699 126.186 78.648C126.302 78.8215 126.418 78.9949 126.562 79.1684C126.938 79.6887 127.371 80.2957 127.718 80.9027C128.007 81.452 128.181 82.0301 128.239 82.5504H126.851C126.764 82.2035 126.678 81.8855 126.504 81.5676C126.215 81.0473 125.868 80.5559 125.493 80.0645C125.348 79.8621 125.204 79.6598 125.059 79.4574C124.481 78.6191 124.163 77.6363 124.163 76.5379C124.163 73.734 126.418 71.4504 129.25 71.4504C132.054 71.4504 134.338 73.734 134.338 76.5379C134.338 77.6363 133.991 78.6191 133.413 79.4574C133.268 79.6598 133.124 79.8621 132.979 80.0645C132.632 80.5559 132.257 81.0473 131.968 81.5676C131.794 81.8855 131.707 82.2035 131.65 82.5504H130.233C130.32 82.0301 130.464 81.452 130.754 80.9027C131.1 80.2957 131.534 79.6887 131.91 79.1684C132.054 78.9949 132.17 78.8215 132.286 78.648C132.69 78.0699 132.95 77.3473 132.95 76.5379ZM127.863 76.5379C127.863 76.798 127.632 77.0004 127.4 77.0004C127.14 77.0004 126.938 76.798 126.938 76.5379C126.938 75.266 127.95 74.2254 129.25 74.2254C129.482 74.2254 129.713 74.4566 129.713 74.6879C129.713 74.948 129.482 75.1504 129.25 75.1504C128.47 75.1504 127.863 75.7863 127.863 76.5379ZM131.563 83.9379C131.563 85.2387 130.522 86.2504 129.25 86.2504C127.95 86.2504 126.938 85.2387 126.938 83.9379V83.4754H131.563V83.9379Z" fill="#93A8B8"/>
<path d="M179.147 73.52C179.147 77.408 176.096 80.351 172.1 80.351C168.077 80.351 165.053 77.462 165.053 73.574C165.053 71.9 165.701 70.01 166.916 68.12L171.209 61.451H175.799L171.641 67.472C172.073 67.283 172.613 67.229 172.991 67.229C176.555 67.229 179.147 70.037 179.147 73.52ZM175.232 73.655C175.232 71.927 173.828 70.577 172.1 70.577C170.345 70.577 168.968 71.927 168.968 73.628C168.968 75.356 170.318 76.733 172.073 76.733C173.828 76.733 175.232 75.356 175.232 73.655ZM180.382 76.193V73.439L188.374 61.478H193.18V72.872H195.772V76.193H193.18V80H189.373V76.193H180.382ZM184.675 72.872H189.4V65.717L184.675 72.872ZM197.534 77.948C197.534 76.652 198.587 75.572 199.937 75.572C201.26 75.572 202.34 76.652 202.34 77.948C202.34 79.244 201.287 80.324 199.937 80.324C198.587 80.324 197.534 79.271 197.534 77.948ZM210.077 80H206.081V65.771L202.733 67.067V63.152L206.918 61.451H210.077V80ZM219.634 80.351C216.043 80.351 212.749 78.191 212.749 74.519C212.749 72.197 214.369 70.631 215.854 70.01C214.558 69.335 213.532 68.039 213.532 66.311C213.532 63.179 216.34 61.127 219.634 61.127C222.928 61.127 225.736 63.179 225.736 66.311C225.736 68.039 224.71 69.335 223.414 70.01C224.899 70.631 226.519 72.197 226.519 74.519C226.519 78.191 223.225 80.351 219.634 80.351ZM219.634 77.003C221.308 77.003 222.604 75.896 222.604 74.357C222.604 72.791 221.308 71.711 219.634 71.711C217.96 71.711 216.664 72.791 216.664 74.357C216.664 75.896 217.96 77.003 219.634 77.003ZM222.091 66.554C222.091 65.285 220.984 64.394 219.634 64.394C218.284 64.394 217.177 65.285 217.177 66.554C217.177 67.877 218.284 68.741 219.634 68.741C220.984 68.741 222.091 67.877 222.091 66.554Z" fill="#242B42"/>
<path d="M234.558 69.15V75.4585L237.72 72.467H239.425L235.999 75.6755L239.719 80H238.03L235.069 76.497L234.558 76.9775V80H233.24V69.15H234.558ZM249.082 80H248.059L246.075 74.42L244.091 80H243.068L240.262 72.467H241.642L243.61 78.109L245.61 72.467H246.571L248.57 78.109L250.539 72.467H251.887L249.082 80Z" fill="#242B42"/>
<path d="M164.888 100V91.6H169.832V93.232H166.688V94.936H169.556V96.52H166.688V98.368H169.856V100H164.888ZM172.498 91.6H174.298V98.308H177.226V100H172.498V91.6ZM179.569 100V91.6H184.513V93.232H181.369V94.936H184.237V96.52H181.369V98.368H184.537V100H179.569ZM186.666 95.8C186.666 93.34 188.586 91.444 191.01 91.444C191.742 91.444 192.486 91.636 193.146 92.008V93.952C192.51 93.472 191.85 93.208 191.07 93.208C189.606 93.208 188.526 94.348 188.526 95.8C188.526 97.228 189.558 98.38 191.07 98.38C191.838 98.38 192.498 98.128 193.158 97.66V99.592C192.426 100 191.658 100.156 190.986 100.156C188.442 100.156 186.666 98.296 186.666 95.8ZM195.266 93.28V91.6H201.506V93.28H199.298V100H197.486V93.28H195.266ZM205.594 96.928V100H203.806V91.6H206.602C208.414 91.6 209.674 92.572 209.674 94.288C209.674 95.488 208.954 96.328 207.946 96.712L210.262 100H208.138L206.074 96.928H205.594ZM205.594 93.22V95.44H206.614C207.334 95.44 207.862 95.02 207.862 94.324C207.862 93.616 207.334 93.22 206.614 93.22H205.594ZM212.471 91.6H214.283V100H212.471V91.6ZM216.861 95.8C216.861 93.34 218.781 91.444 221.205 91.444C221.937 91.444 222.681 91.636 223.341 92.008V93.952C222.705 93.472 222.045 93.208 221.265 93.208C219.801 93.208 218.721 94.348 218.721 95.8C218.721 97.228 219.753 98.38 221.265 98.38C222.033 98.38 222.693 98.128 223.353 97.66V99.592C222.621 100 221.853 100.156 221.181 100.156C218.637 100.156 216.861 98.296 216.861 95.8Z" fill="#4B546B"/>
</svg>
