<svg width="362" height="159" viewBox="0 0 362 159" fill="none" xmlns="http://www.w3.org/2000/svg">
<rect width="362" height="158.375" fill="#F3F7FB"/>
<path d="M148.938 72H150.5C151.867 72 153 73.1328 153 74.5V87C153 88.4062 151.867 89.5 150.5 89.5H140.5C139.094 89.5 138 88.4062 138 87V74.5C138 73.1328 139.094 72 140.5 72H142.062H142.414C142.727 70.5938 143.977 69.5 145.5 69.5C146.984 69.5 148.273 70.5938 148.547 72H148.938ZM140.5 73.875C140.148 73.875 139.875 74.1875 139.875 74.5V87C139.875 87.3516 140.148 87.625 140.5 87.625H150.5C150.812 87.625 151.125 87.3516 151.125 87V74.5C151.125 74.1875 150.812 73.875 150.5 73.875H149.875V74.8125C149.875 75.3594 149.445 75.75 148.938 75.75H145.5H142.062C141.516 75.75 141.125 75.3594 141.125 74.8125V73.875H140.5ZM145.5 73.5625C146.008 73.5625 146.438 73.1719 146.438 72.625C146.438 72.1172 146.008 71.6875 145.5 71.6875C144.953 71.6875 144.562 72.1172 144.562 72.625C144.562 73.1719 144.953 73.5625 145.5 73.5625Z" fill="#4B546B"/>
<path d="M169.234 82.992C170.424 82.992 171.348 82.278 171.348 81.228C171.348 80.206 170.438 79.506 169.276 79.506H168.366V78.386H169.276C170.158 78.386 170.97 77.686 170.97 76.888C170.97 76.02 170.2 75.376 169.206 75.376C168.394 75.376 167.638 75.754 166.868 76.426V75.054C167.568 74.522 168.394 74.228 169.22 74.228C170.956 74.228 172.188 75.32 172.188 76.776C172.188 77.686 171.698 78.47 170.844 78.876C171.908 79.226 172.594 80.15 172.594 81.242C172.594 82.95 171.166 84.154 169.248 84.154C168.324 84.154 167.456 83.916 166.616 83.398V82.054C167.47 82.684 168.338 82.992 169.234 82.992ZM176.289 82.992C177.479 82.992 178.403 82.278 178.403 81.228C178.403 80.206 177.493 79.506 176.331 79.506H175.421V78.386H176.331C177.213 78.386 178.025 77.686 178.025 76.888C178.025 76.02 177.255 75.376 176.261 75.376C175.449 75.376 174.693 75.754 173.923 76.426V75.054C174.623 74.522 175.449 74.228 176.275 74.228C178.011 74.228 179.243 75.32 179.243 76.776C179.243 77.686 178.753 78.47 177.899 78.876C178.963 79.226 179.649 80.15 179.649 81.242C179.649 82.95 178.221 84.154 176.303 84.154C175.379 84.154 174.511 83.916 173.671 83.398V82.054C174.525 82.684 175.393 82.992 176.289 82.992ZM181.182 80.864V79.772H185.438V80.864H181.182ZM188.941 84H187.709V75.768L185.973 76.482V75.222L187.933 74.382H188.941V84ZM190.787 84V83.146L194.371 79.352C195.197 78.484 195.449 77.882 195.449 77.14C195.449 76.146 194.581 75.39 193.461 75.39C192.579 75.39 191.669 75.978 190.899 76.93V75.46C191.571 74.704 192.565 74.228 193.475 74.228C195.323 74.228 196.681 75.418 196.681 77.084C196.681 78.232 196.233 79.072 195.197 80.164L192.635 82.852H196.807V84H190.787ZM200.625 82.992C201.815 82.992 202.739 82.278 202.739 81.228C202.739 80.206 201.829 79.506 200.667 79.506H199.757V78.386H200.667C201.549 78.386 202.361 77.686 202.361 76.888C202.361 76.02 201.591 75.376 200.597 75.376C199.785 75.376 199.029 75.754 198.259 76.426V75.054C198.959 74.522 199.785 74.228 200.611 74.228C202.347 74.228 203.579 75.32 203.579 76.776C203.579 77.686 203.089 78.47 202.235 78.876C203.299 79.226 203.985 80.15 203.985 81.242C203.985 82.95 202.557 84.154 200.639 84.154C199.715 84.154 198.847 83.916 198.007 83.398V82.054C198.861 82.684 199.729 82.992 200.625 82.992ZM204.973 81.746V80.808L209.747 74.396H211.147V80.654H212.491V81.746H211.147V84H209.929V81.746H204.973ZM206.429 80.654H209.929V75.978L206.429 80.654ZM215.978 82.992C217.182 82.992 218.26 82.236 218.26 80.976C218.26 79.744 217.224 79.03 215.922 79.03C215.068 79.03 214.382 79.24 213.794 79.548L214.13 74.382H219.058V75.516H215.194L215.012 78.092C215.236 77.98 215.754 77.91 216.188 77.91C218.036 77.91 219.534 79.142 219.534 80.92C219.534 82.978 217.966 84.14 216.02 84.154C215.152 84.154 214.326 83.93 213.528 83.426V82.054C214.326 82.684 215.138 82.992 215.978 82.992ZM227.688 80.752C227.688 82.656 226.162 84.154 224.216 84.154C222.214 84.154 220.73 82.684 220.73 80.738C220.73 79.926 221.024 79.03 221.808 77.854L224.104 74.382H225.588L223.222 77.84C223.502 77.644 223.922 77.49 224.44 77.49C226.302 77.49 227.688 78.946 227.688 80.752ZM226.442 80.808C226.442 79.548 225.448 78.61 224.216 78.61C222.956 78.61 221.976 79.548 221.976 80.794C221.976 82.012 222.942 82.992 224.202 82.992C225.448 82.992 226.442 82.012 226.442 80.808Z" fill="#687887"/>
</svg>
