<svg width="362" height="159" viewBox="0 0 362 159" fill="none" xmlns="http://www.w3.org/2000/svg">
<rect width="362" height="158.375" fill="#F3F7FB"/>
<circle cx="181" cy="79" r="30" fill="#0056CF" fill-opacity="0.1"/>
<g clip-path="url(#clip0_2274_14190)">
<path fill-rule="evenodd" clip-rule="evenodd" d="M181.25 76.2625C183.218 76.2625 184.813 74.6675 184.813 72.7C184.813 70.7325 183.218 69.1375 181.25 69.1375C179.283 69.1375 177.688 70.7325 177.688 72.7C177.688 74.6675 179.283 76.2625 181.25 76.2625ZM181.25 78.4C184.398 78.4 186.95 75.848 186.95 72.7C186.95 69.552 184.398 67 181.25 67C178.102 67 175.55 69.552 175.55 72.7C175.55 75.848 178.102 78.4 181.25 78.4Z" fill="#0056CF"/>
<path fill-rule="evenodd" clip-rule="evenodd" d="M179.82 82.675H182.675C186.757 82.675 188.757 85.2463 188.978 86.7492C189.004 86.9281 189.028 87.0836 189.049 87.2206C189.075 87.3915 189.097 87.5338 189.114 87.6571C183.685 87.6571 178.638 87.6571 173.387 87.6571C173.404 87.5338 173.425 87.3915 173.452 87.2207C173.473 87.0836 173.496 86.9281 173.523 86.7492C173.744 85.2469 175.742 82.6773 179.82 82.675ZM182.675 80.5375C187.667 80.5375 190.697 83.7438 191.093 86.4383C191.112 86.5667 191.131 86.6936 191.15 86.8172C191.203 87.1639 191.252 87.4844 191.274 87.7371C191.3 88.0334 191.336 88.597 191 89.0771C190.626 89.6111 190.038 89.7197 189.707 89.7591C189.363 89.8001 188.917 89.8001 188.436 89.8L174.125 89.8C174.105 89.8 174.085 89.8 174.064 89.8C173.583 89.8001 173.138 89.8001 172.794 89.7591C172.463 89.7197 171.874 89.6111 171.5 89.0771C171.164 88.597 171.201 88.0334 171.227 87.7371C171.249 87.4844 171.298 87.164 171.351 86.8173C171.37 86.6937 171.389 86.5667 171.408 86.4383C171.804 83.7449 174.832 80.54 179.82 80.5375H182.675Z" fill="#0056CF"/>
</g>
<defs>
<clipPath id="clip0_2274_14190">
<rect width="28.5" height="22.8" fill="white" transform="translate(167 67)"/>
</clipPath>
</defs>
</svg>
