<svg width="362" height="159" viewBox="0 0 362 159" fill="none" xmlns="http://www.w3.org/2000/svg">
<rect width="362" height="158.375" fill="#F3F7FB"/>
<path d="M191 63C191 59.5 189 56.25 186 54.375C182.875 52.625 179 52.625 176 54.375C172.875 56.25 171 59.5 171 63C171 66.625 172.875 69.875 176 71.75C179 73.5 182.875 73.5 186 71.75C189 69.875 191 66.625 191 63ZM165 63C165 57.375 168 52.125 173 49.25C177.875 46.375 184 46.375 189 49.25C193.875 52.125 197 57.375 197 63C197 68.75 193.875 74 189 76.875C184 79.75 177.875 79.75 173 76.875C168 74 165 68.75 165 63ZM159.125 105H202.75C201.625 97.125 194.875 91 186.625 91H175.25C167 91 160.25 97.125 159.125 105ZM153 107.375C153 95 162.875 85 175.25 85H186.625C199 85 209 95 209 107.375C209 109.375 207.25 111 205.25 111H156.625C154.625 111 153 109.375 153 107.375Z" fill="#242B42"/>
</svg>
