<svg width="362" height="159" viewBox="0 0 362 159" fill="none" xmlns="http://www.w3.org/2000/svg">
<rect width="362" height="158.375" fill="#F3F7FB"/>
<path d="M119.173 69.7492L121.877 75.2853L127.826 76.1594C128.325 76.2426 128.741 76.5756 128.907 77.0751C129.074 77.533 128.949 78.0741 128.574 78.4071L124.248 82.6944L125.288 88.7716C125.371 89.2711 125.163 89.7705 124.747 90.0619C124.331 90.3949 123.79 90.3949 123.333 90.1868L118.008 87.3147L112.641 90.1868C112.225 90.3949 111.685 90.3949 111.269 90.0619C110.853 89.7705 110.645 89.2711 110.728 88.7716L111.726 82.6944L107.4 78.4071C107.067 78.0741 106.942 77.533 107.067 77.0751C107.233 76.5756 107.649 76.2426 108.149 76.1594L114.139 75.2853L116.801 69.7492C117.01 69.2914 117.467 69 118.008 69C118.507 69 118.965 69.2914 119.173 69.7492Z" fill="#F9BB00"/>
<path d="M149.173 69.7492L151.877 75.2853L157.826 76.1594C158.325 76.2426 158.741 76.5756 158.907 77.0751C159.074 77.533 158.949 78.0741 158.574 78.4071L154.248 82.6944L155.288 88.7716C155.371 89.2711 155.163 89.7705 154.747 90.0619C154.331 90.3949 153.79 90.3949 153.333 90.1868L148.008 87.3147L142.641 90.1868C142.225 90.3949 141.685 90.3949 141.269 90.0619C140.853 89.7705 140.645 89.2711 140.728 88.7716L141.726 82.6944L137.4 78.4071C137.067 78.0741 136.942 77.533 137.067 77.0751C137.233 76.5756 137.649 76.2426 138.149 76.1594L144.139 75.2853L146.801 69.7492C147.01 69.2914 147.467 69 148.008 69C148.507 69 148.965 69.2914 149.173 69.7492Z" fill="#F9BB00"/>
<path d="M179.173 69.7492L181.877 75.2853L187.826 76.1594C188.325 76.2426 188.741 76.5756 188.907 77.0751C189.074 77.533 188.949 78.0741 188.574 78.4071L184.248 82.6944L185.288 88.7716C185.371 89.2711 185.163 89.7705 184.747 90.0619C184.331 90.3949 183.79 90.3949 183.333 90.1868L178.008 87.3147L172.641 90.1868C172.225 90.3949 171.685 90.3949 171.269 90.0619C170.853 89.7705 170.645 89.2711 170.728 88.7716L171.726 82.6944L167.4 78.4071C167.067 78.0741 166.942 77.533 167.067 77.0751C167.233 76.5756 167.649 76.2426 168.149 76.1594L174.139 75.2853L176.801 69.7492C177.01 69.2914 177.467 69 178.008 69C178.507 69 178.965 69.2914 179.173 69.7492Z" fill="#F9BB00"/>
<path d="M209.173 69.7492L211.877 75.2853L217.826 76.1594C218.325 76.2426 218.741 76.5756 218.907 77.0751C219.074 77.533 218.949 78.0741 218.574 78.4071L214.248 82.6944L215.288 88.7716C215.371 89.2711 215.163 89.7705 214.747 90.0619C214.331 90.3949 213.79 90.3949 213.333 90.1868L208.008 87.3147L202.641 90.1868C202.225 90.3949 201.685 90.3949 201.269 90.0619C200.853 89.7705 200.645 89.2711 200.728 88.7716L201.726 82.6944L197.4 78.4071C197.067 78.0741 196.942 77.533 197.067 77.0751C197.233 76.5756 197.649 76.2426 198.149 76.1594L204.139 75.2853L206.801 69.7492C207.01 69.2914 207.467 69 208.008 69C208.507 69 208.965 69.2914 209.173 69.7492Z" fill="#E4E8F0"/>
<path d="M239.173 69.7492L241.877 75.2853L247.826 76.1594C248.325 76.2426 248.741 76.5756 248.907 77.0751C249.074 77.533 248.949 78.0741 248.574 78.4071L244.248 82.6944L245.288 88.7716C245.371 89.2711 245.163 89.7705 244.747 90.0619C244.331 90.3949 243.79 90.3949 243.333 90.1868L238.008 87.3147L232.641 90.1868C232.225 90.3949 231.685 90.3949 231.269 90.0619C230.853 89.7705 230.645 89.2711 230.728 88.7716L231.726 82.6944L227.4 78.4071C227.067 78.0741 226.942 77.533 227.067 77.0751C227.233 76.5756 227.649 76.2426 228.149 76.1594L234.139 75.2853L236.801 69.7492C237.01 69.2914 237.467 69 238.008 69C238.507 69 238.965 69.2914 239.173 69.7492Z" fill="#E4E8F0"/>
</svg>
