<svg xmlns="http://www.w3.org/2000/svg" fill="none" viewBox="0 0 48 48" id="This-Is-Fine--Streamline-Memes" height="48" width="48">
  <desc>
    This Is Fine Streamline Element: https://streamlinehq.com
  </desc>
  <path stroke="#000000" stroke-linecap="round" stroke-linejoin="round" d="M26.114 37.139c1.314 -0.422 1.896 -0.882 2.638 -2.15" stroke-width="1"></path>
  <path stroke="#000000" stroke-linecap="round" stroke-linejoin="round" d="M11.726 44.394c0 -2.35 0.052 -5.692 0.305 -9.019m11.61 -16.063c1.866 0.475 3.82 1.753 4.843 4.157" stroke-width="1"></path>
  <path stroke="#000000" stroke-linecap="round" stroke-linejoin="round" d="M26.578 32.669c2.365 -1.31 6.05 -2.796 8.844 -2.614m-5.034 13.948c-0.078 -1.642 -0.558 -5.164 -0.789 -6.72 4.062 1.425 9.68 1.069 9.68 -2.758 0 -0.116 0.005 -0.337 0 -0.449" stroke-width="1"></path>
  <path stroke="#000000" stroke-linecap="round" stroke-linejoin="round" d="M27.653 36.382c0.576 0.348 1.237 0.651 1.946 0.9" stroke-width="1"></path>
  <path stroke="#000000" stroke-linecap="round" stroke-linejoin="round" d="M34.17 32.74a3.224 2.638 -11.758 1 0 6.312 -1.314 3.224 2.638 -11.758 1 0 -6.312 1.314" stroke-width="1"></path>
  <path stroke="#000000" stroke-linecap="round" stroke-linejoin="round" d="M23.04 15.784a2.442 2.442 0 0 1 0.7 3.383c-1.22 1.856 -2.515 3.357 -4.302 4.265 -1.793 0.91 -3.746 1.053 -5.9 0.932a2.442 2.442 0 0 1 -2.303 -2.575c0.076 -1.347 1.223 -1.64 2.57 -1.565 1.836 0.103 3.096 0.07 3.75 -0.261 0.66 -0.335 1.83 -1.544 2.879 -3.14 0.74 -1.128 1.479 -1.78 2.606 -1.039Z" clip-rule="evenodd" stroke-width="1"></path>
  <path stroke="#000000" stroke-linecap="round" stroke-linejoin="round" d="m13.938 20.219 -0.234 -3.244a2.712 2.712 0 0 1 1.276 -2.5v0a2.712 2.712 0 0 1 3.212 0.263l2.275 1.986" stroke-width="1"></path>
  <path stroke="#000000" stroke-linecap="round" stroke-linejoin="round" d="M20.388 16.662c-1.114 -0.27 -2.606 -0.078 -4.06 0.617 -1.035 0.494 -1.883 1.163 -2.463 1.881l0.07 0.977c2.046 0.297 3.364 0.077 4.565 -0.914 0.591 -0.575 1.285 -1.414 1.934 -2.4l0.05 -0.076 -0.096 -0.085Z" stroke-width="1"></path>
  <path stroke="#000000" stroke-linecap="round" stroke-linejoin="round" d="M16.563 30.91a3.615 4.69 0 1 0 7.23 0 3.615 4.69 0 1 0 -7.23 0" stroke-width="1"></path>
  <path stroke="#000000" stroke-linecap="round" stroke-linejoin="round" d="M25.161 27.393a3.615 3.908 0 1 0 7.23 0 3.615 3.908 0 1 0 -7.23 0" stroke-width="1"></path>
  <path stroke="#000000" stroke-linecap="round" stroke-linejoin="round" d="M12.744 24.327c-0.696 1.224 -1.644 2.243 -2.558 3.225 -1.676 1.802 -3.237 3.478 -2.908 6.065 0.456 3.596 4.147 3.122 5.753 0.66 1.838 -2.817 2.145 -7.709 0.577 -9.891a27.982 27.982 0 0 1 -0.57 -0.027 2.769 2.769 0 0 1 -0.294 -0.032Z" stroke-width="1"></path>
  <path stroke="#000000" stroke-linecap="round" stroke-linejoin="round" d="M15.732 40.583s-0.488 2.834 0 4.006" stroke-width="1"></path>
  <path stroke="#000000" stroke-linecap="round" stroke-linejoin="round" d="M17.98 40.779c-0.257 1.792 -0.088 2.584 0.488 3.81" stroke-width="1"></path>
  <path stroke="#000000" stroke-linecap="round" stroke-linejoin="round" d="M3.54 44.274C2.694 43.428 1 39.054 1 35.46c1.407 1.407 2.931 1.563 3.517 1.466 -0.977 -1.433 -2.93 -5.16 -2.93 -8.599 1.563 1.563 3.32 1.953 4.004 1.953C4.29 28 2.172 22.405 4.127 18.262c0 0 1.27 2.639 3.029 3.616C6.765 20.118 14.19 7.71 9.89 3.41c8.109 0 19.835 3.615 21.692 13.874 1.042 -0.488 3.185 -2.052 3.42 -4.397 2.188 3.518 1.888 8.696 1.465 10.846 1.798 -1.173 3.094 -3.55 3.517 -4.592 2.614 3.02 3.953 6.401 2.741 11.567 2.033 -1.172 3.655 -3.91 4.274 -4.528 0.032 3.387 -2.56 14.81 -5.842 18.093" stroke-width="1"></path>
  <path fill="#000000" fill-rule="evenodd" d="M29.376 26.341a1.432 1.432 0 1 0 0 2.864 1.432 1.432 0 0 0 0 -2.864Z" clip-rule="evenodd" stroke-width="1"></path>
  <path fill="#000000" fill-rule="evenodd" d="M20.598 29.478a1.432 1.432 0 1 0 0 2.864 1.432 1.432 0 0 0 0 -2.864Z" clip-rule="evenodd" stroke-width="1"></path>
</svg>