<svg width="31" height="25" viewBox="0 0 31 25" fill="none" xmlns="http://www.w3.org/2000/svg">
  <path d="M25.1221 12C25.1221 8.53125 23.2471 5.34375 20.2471 3.5625C17.2002 1.82812 13.4971 1.82812 10.4971 3.5625C7.4502 5.34375 5.62207 8.53125 5.62207 12C5.62207 15.5156 7.4502 18.7031 10.4971 20.4844C13.4971 22.2188 17.2002 22.2188 20.2471 20.4844C23.2471 18.7031 25.1221 15.5156 25.1221 12ZM3.37207 12C3.37207 7.73438 5.62207 3.79688 9.37207 1.64062C13.0752 -0.515625 17.6221 -0.515625 21.3721 1.64062C25.0752 3.79688 27.3721 7.73438 27.3721 12C27.3721 16.3125 25.0752 20.25 21.3721 22.4062C17.6221 24.5625 13.0752 24.5625 9.37207 22.4062C5.62207 20.25 3.37207 16.3125 3.37207 12ZM14.2471 5.625C14.2471 5.01562 14.7158 4.5 15.3721 4.5C15.9814 4.5 16.4971 5.01562 16.4971 5.625V11.4375L20.4814 14.0625C20.9971 14.4375 21.1377 15.1406 20.8096 15.6562C20.4346 16.1719 19.7314 16.3125 19.2158 15.9375L14.7158 12.9375C14.4346 12.75 14.2471 12.375 14.2471 12V5.625Z" fill="#242B42"/>
</svg>
