<svg width="362" height="159" viewBox="0 0 362 159" fill="none" xmlns="http://www.w3.org/2000/svg">
<rect x="154.5" y="70.5" width="53" height="18" rx="3.5" fill="#0056CF" fill-opacity="0.1"/>
<rect x="154.5" y="70.5" width="53" height="18" rx="3.5" stroke="white"/>
<path d="M165.525 75.443L165.25 77.357H166.328V78.49H165.096L164.898 79.898H165.987V81.031H164.733L164.458 83H163.171L163.446 81.031H162.027L161.752 83H160.465L160.74 81.031H159.673V79.898H160.905L161.103 78.49H160.014V77.357H161.268L161.543 75.443H162.819L162.544 77.357H163.963L164.238 75.443H165.525ZM162.39 78.49L162.192 79.898H163.611L163.809 78.49H162.39Z" fill="#0056CF"/>
<path d="M170.632 83H169.004V77.203L167.64 77.731V76.136L169.345 75.443H170.632V83ZM177.036 83H171.91V81.845L174.385 79.392C175.089 78.71 175.287 78.358 175.287 77.852C175.287 77.247 174.77 76.818 174.044 76.818C173.34 76.818 172.68 77.214 172.086 77.863V76.136C172.669 75.608 173.428 75.311 174.176 75.311C175.694 75.311 176.915 76.235 176.915 77.676C176.915 78.677 176.497 79.414 175.54 80.294L174.187 81.548H177.036V83ZM182.879 80.745C182.879 82.175 181.746 83.143 180.019 83.143C179.282 83.143 178.589 82.956 177.962 82.571V80.921C178.589 81.416 179.227 81.658 179.887 81.658C180.69 81.658 181.251 81.295 181.251 80.657C181.251 80.096 180.723 79.711 179.942 79.711H179.227V78.435H179.909C180.547 78.435 180.987 78.083 180.987 77.621C180.987 77.093 180.47 76.785 179.854 76.785C179.249 76.785 178.699 77.016 178.116 77.489V75.872C178.666 75.498 179.315 75.311 179.986 75.311C181.482 75.311 182.582 76.103 182.582 77.423C182.582 78.127 182.219 78.655 181.647 78.974C182.428 79.293 182.879 79.92 182.879 80.745ZM183.6 81.449V80.327L186.856 75.454H188.814V80.096H189.87V81.449H188.814V83H187.263V81.449H183.6ZM185.349 80.096H187.274V77.181L185.349 80.096ZM190.647 82.56V80.899C191.296 81.405 191.956 81.647 192.616 81.647C193.419 81.647 194.079 81.251 194.079 80.503C194.079 79.788 193.43 79.403 192.55 79.403C191.945 79.403 191.362 79.557 190.823 79.81L191.043 75.443H195.278V76.851H192.374L192.308 78.149C192.473 78.094 192.759 78.05 193.056 78.05C194.574 78.05 195.718 79.018 195.718 80.492C195.718 82.153 194.442 83.132 192.715 83.143C191.967 83.143 191.274 82.945 190.647 82.56ZM202.319 80.36C202.319 81.944 201.076 83.143 199.448 83.143C197.809 83.143 196.577 81.966 196.577 80.382C196.577 79.7 196.841 78.93 197.336 78.16L199.085 75.443H200.955L199.261 77.896C199.437 77.819 199.657 77.797 199.811 77.797C201.263 77.797 202.319 78.941 202.319 80.36ZM200.724 80.415C200.724 79.711 200.152 79.161 199.448 79.161C198.733 79.161 198.172 79.711 198.172 80.404C198.172 81.108 198.722 81.669 199.437 81.669C200.152 81.669 200.724 81.108 200.724 80.415Z" fill="#0056CF"/>
</svg>
