<svg width="362" height="159" viewBox="0 0 362 159" fill="none" xmlns="http://www.w3.org/2000/svg">
<rect x="146" y="68" width="70.7778" height="22" rx="11" fill="#687887" fill-opacity="0.1"/>
<path d="M158.144 80.439V84.5H155.881V76.843H158.144V77.8195C158.609 77.0755 159.384 76.6415 160.407 76.6415C162.158 76.6415 163.228 77.835 163.228 79.7725V84.5H160.965V80.2995C160.965 79.292 160.469 78.7185 159.585 78.7185C158.717 78.7185 158.144 79.3695 158.144 80.439ZM171.906 81.9425V83.9885C171.162 84.4225 170.17 84.7015 168.961 84.7015C166.342 84.7015 164.73 83.012 164.73 80.6405C164.73 78.3465 166.342 76.6415 168.62 76.6415C170.961 76.6415 172.371 78.2535 172.371 80.625C172.371 80.8575 172.34 81.121 172.325 81.307H166.962C167.132 82.1905 167.923 82.8105 169.209 82.8105C170.124 82.8105 170.992 82.547 171.906 81.9425ZM166.931 79.819H170.201C170.124 78.9665 169.488 78.393 168.605 78.393C167.721 78.393 167.039 79.044 166.931 79.819ZM178.818 80.8885V76.843H181.081V84.5H178.818V83.5235C178.368 84.252 177.593 84.7015 176.586 84.7015C174.85 84.7015 173.78 83.4925 173.78 81.5705V76.843H176.043V81.028C176.043 82.0355 176.539 82.6245 177.392 82.6245C178.26 82.6245 178.818 81.9735 178.818 80.8885ZM183.544 78.703H182.149V78.4085L185.73 74.673H185.792V76.843H187.729V78.703H185.792V81.5085C185.792 82.33 186.148 82.6555 186.861 82.6555C187.171 82.6555 187.497 82.547 187.729 82.3765V84.3605C187.373 84.5465 186.815 84.686 186.102 84.686C184.474 84.686 183.544 83.756 183.544 82.051V78.703ZM193.975 76.719V79.044C193.851 78.982 193.634 78.951 193.401 78.951C192.146 78.951 191.402 79.881 191.402 81.3845V84.5H189.154V76.843H191.386V78.0985C191.789 77.215 192.595 76.6725 193.587 76.6725C193.758 76.6725 193.928 76.7035 193.975 76.719ZM201.798 84.5H199.705L199.674 83.539C199.225 84.3295 198.341 84.7015 197.427 84.7015C196.001 84.7015 195.024 83.8025 195.024 82.454C195.024 81.0435 195.97 80.1755 197.876 79.8965L199.612 79.6485V79.5555C199.612 78.92 199.101 78.548 198.062 78.548C197.07 78.548 196.187 78.9355 195.489 79.571V77.4165C196.156 76.967 197.117 76.6415 198.295 76.6415C200.511 76.6415 201.798 77.711 201.798 79.695V84.5ZM197.163 82.268C197.179 82.702 197.535 82.981 198.047 82.981C198.992 82.981 199.612 82.299 199.612 81.431V81.1675L198.264 81.3845C197.535 81.493 197.163 81.8185 197.163 82.268ZM203.771 73.65H206.034V84.5H203.771V73.65Z" fill="#687887"/>
</svg>
