<svg width="362" height="159" viewBox="0 0 362 159" fill="none" xmlns="http://www.w3.org/2000/svg">
<rect x="144.777" y="49" width="72.7778" height="22" rx="11" fill="#687887" fill-opacity="0.1"/>
<path d="M162.238 54.65H164.501V65.5H162.176L157.076 58.339V65.5H154.813V54.65H157.185L162.238 61.842V54.65ZM173.423 62.9425V64.9885C172.679 65.4225 171.687 65.7015 170.478 65.7015C167.859 65.7015 166.247 64.012 166.247 61.6405C166.247 59.3465 167.859 57.6415 170.137 57.6415C172.478 57.6415 173.888 59.2535 173.888 61.625C173.888 61.8575 173.857 62.121 173.842 62.307H168.479C168.649 63.1905 169.44 63.8105 170.726 63.8105C171.641 63.8105 172.509 63.547 173.423 62.9425ZM168.448 60.819H171.718C171.641 59.9665 171.005 59.393 170.122 59.393C169.238 59.393 168.556 60.044 168.448 60.819ZM180.335 61.8885V57.843H182.598V65.5H180.335V64.5235C179.885 65.252 179.11 65.7015 178.103 65.7015C176.367 65.7015 175.297 64.4925 175.297 62.5705V57.843H177.56V62.028C177.56 63.0355 178.056 63.6245 178.909 63.6245C179.777 63.6245 180.335 62.9735 180.335 61.8885ZM185.061 59.703H183.666V59.4085L187.247 55.673H187.309V57.843H189.246V59.703H187.309V62.5085C187.309 63.33 187.665 63.6555 188.378 63.6555C188.688 63.6555 189.014 63.547 189.246 63.3765V65.3605C188.89 65.5465 188.332 65.686 187.619 65.686C185.991 65.686 185.061 64.756 185.061 63.051V59.703ZM195.492 57.719V60.044C195.368 59.982 195.151 59.951 194.918 59.951C193.663 59.951 192.919 60.881 192.919 62.3845V65.5H190.671V57.843H192.903V59.0985C193.306 58.215 194.112 57.6725 195.104 57.6725C195.275 57.6725 195.445 57.7035 195.492 57.719ZM203.315 65.5H201.223L201.192 64.539C200.742 65.3295 199.858 65.7015 198.944 65.7015C197.518 65.7015 196.542 64.8025 196.542 63.454C196.542 62.0435 197.487 61.1755 199.394 60.8965L201.13 60.6485V60.5555C201.13 59.92 200.618 59.548 199.58 59.548C198.588 59.548 197.704 59.9355 197.007 60.571V58.4165C197.673 57.967 198.634 57.6415 199.812 57.6415C202.029 57.6415 203.315 58.711 203.315 60.695V65.5ZM198.681 63.268C198.696 63.702 199.053 63.981 199.564 63.981C200.51 63.981 201.13 63.299 201.13 62.431V62.1675L199.781 62.3845C199.053 62.493 198.681 62.8185 198.681 63.268ZM205.288 54.65H207.551V65.5H205.288V54.65Z" fill="#687887"/>
<rect x="43" y="49" width="75.7778" height="22" rx="11" fill="#0056CF" fill-opacity="0.1"/>
<path d="M53.0357 54.65H56.7247C59.0807 54.65 60.7082 55.921 60.7082 58.153C60.7082 60.3695 59.0807 61.656 56.7247 61.656H55.3607V65.5H53.0357V54.65ZM55.3607 56.7425V59.5945H56.7712C57.7012 59.5945 58.3677 59.0675 58.3677 58.1685C58.3677 57.2695 57.7012 56.7425 56.7712 56.7425H55.3607ZM66.9089 57.719V60.044C66.7849 59.982 66.5679 59.951 66.3354 59.951C65.0799 59.951 64.3359 60.881 64.3359 62.3845V65.5H62.0884V57.843H64.3204V59.0985C64.7234 58.215 65.5294 57.6725 66.5214 57.6725C66.6919 57.6725 66.8624 57.7035 66.9089 57.719ZM70.5469 65.5H68.2839V57.843H70.5469V65.5ZM70.7329 55.6265C70.7329 56.3395 70.1439 56.944 69.4154 56.944C68.6869 56.944 68.0979 56.3395 68.0979 55.6265C68.0979 54.9135 68.6869 54.309 69.4154 54.309C70.1439 54.309 70.7329 54.9135 70.7329 55.6265ZM74.8503 61.408V65.5H72.5873V57.843H74.8503V58.804C75.2533 58.1065 75.9973 57.6415 77.0048 57.6415C78.0433 57.6415 78.8338 58.1375 79.2523 58.9745C79.7328 58.1685 80.6008 57.6415 81.7168 57.6415C83.4683 57.6415 84.4603 58.835 84.4603 60.695V65.5H82.1973V61.222C82.1973 60.2765 81.7633 59.703 80.9728 59.703C80.1978 59.703 79.6708 60.3385 79.6553 61.3615V65.5H77.3923V61.253C77.3923 60.2765 76.9583 59.703 76.1833 59.703C75.3773 59.703 74.8503 60.354 74.8503 61.408ZM92.7992 65.5H90.7067L90.6757 64.539C90.2262 65.3295 89.3427 65.7015 88.4282 65.7015C87.0022 65.7015 86.0257 64.8025 86.0257 63.454C86.0257 62.0435 86.9712 61.1755 88.8777 60.8965L90.6137 60.6485V60.5555C90.6137 59.92 90.1022 59.548 89.0637 59.548C88.0717 59.548 87.1882 59.9355 86.4907 60.571V58.4165C87.1572 57.967 88.1182 57.6415 89.2962 57.6415C91.5127 57.6415 92.7992 58.711 92.7992 60.695V65.5ZM88.1647 63.268C88.1802 63.702 88.5367 63.981 89.0482 63.981C89.9937 63.981 90.6137 63.299 90.6137 62.431V62.1675L89.2652 62.3845C88.5367 62.493 88.1647 62.8185 88.1647 63.268ZM99.5923 57.719V60.044C99.4683 59.982 99.2513 59.951 99.0188 59.951C97.7633 59.951 97.0193 60.881 97.0193 62.3845V65.5H94.7718V57.843H97.0038V59.0985C97.4068 58.215 98.2128 57.6725 99.2048 57.6725C99.3753 57.6725 99.5458 57.7035 99.5923 57.719ZM102.309 68.972C101.704 68.972 101.286 68.8325 101.022 68.693V66.802C101.286 66.926 101.58 66.988 101.89 66.988C102.557 66.988 103.006 66.7245 103.316 65.9805L103.533 65.4845L100.433 57.843H102.82L104.727 62.9735L106.664 57.843H108.989L105.564 66.1665C104.758 68.1505 103.75 68.972 102.309 68.972Z" fill="#0056CF"/>
<rect x="243.555" y="49" width="74.7778" height="22" rx="11" fill="#1CA05C" fill-opacity="0.1"/>
<path d="M253.265 64.7715V62.0125C254.303 62.9735 255.807 63.516 256.969 63.516C258.023 63.516 258.612 63.0975 258.612 62.338C258.612 61.4545 257.527 61.2685 256.318 60.943C254.83 60.5555 253.141 59.9975 253.141 57.874C253.141 55.797 254.815 54.4485 257.171 54.4485C258.457 54.4485 259.558 54.743 260.519 55.3475V57.936C259.511 57.068 258.349 56.603 257.186 56.603C256.039 56.603 255.543 57.0835 255.543 57.7345C255.543 58.4475 256.458 58.68 257.512 58.959C259.077 59.362 261.03 59.889 261.03 62.1675C261.03 64.2445 259.496 65.7015 257.016 65.7015C255.667 65.7015 254.241 65.376 253.265 64.7715ZM267.482 61.8885V57.843H269.745V65.5H267.482V64.5235C267.033 65.252 266.258 65.7015 265.25 65.7015C263.514 65.7015 262.445 64.4925 262.445 62.5705V57.843H264.708V62.028C264.708 63.0355 265.204 63.6245 266.056 63.6245C266.924 63.6245 267.482 62.9735 267.482 61.8885ZM271.326 61.6715C271.326 59.362 273.015 57.6415 275.418 57.6415C276.084 57.6415 276.782 57.7965 277.34 58.122V60.2455C276.813 59.8735 276.27 59.6875 275.681 59.6875C274.503 59.6875 273.604 60.509 273.604 61.6715C273.604 62.8185 274.488 63.6555 275.681 63.6555C276.286 63.6555 276.875 63.4075 277.355 63.0665V65.2055C276.735 65.5465 276.053 65.7015 275.387 65.7015C273.031 65.7015 271.326 64.074 271.326 61.6715ZM278.535 61.6715C278.535 59.362 280.225 57.6415 282.627 57.6415C283.294 57.6415 283.991 57.7965 284.549 58.122V60.2455C284.022 59.8735 283.48 59.6875 282.891 59.6875C281.713 59.6875 280.814 60.509 280.814 61.6715C280.814 62.8185 281.697 63.6555 282.891 63.6555C283.495 63.6555 284.084 63.4075 284.565 63.0665V65.2055C283.945 65.5465 283.263 65.7015 282.596 65.7015C280.24 65.7015 278.535 64.074 278.535 61.6715ZM292.921 62.9425V64.9885C292.177 65.4225 291.185 65.7015 289.976 65.7015C287.357 65.7015 285.745 64.012 285.745 61.6405C285.745 59.3465 287.357 57.6415 289.635 57.6415C291.976 57.6415 293.386 59.2535 293.386 61.625C293.386 61.8575 293.355 62.121 293.34 62.307H287.977C288.147 63.1905 288.938 63.8105 290.224 63.8105C291.139 63.8105 292.007 63.547 292.921 62.9425ZM287.946 60.819H291.216C291.139 59.9665 290.503 59.393 289.62 59.393C288.736 59.393 288.054 60.044 287.946 60.819ZM294.638 65.004V62.648C295.46 63.3145 296.545 63.795 297.552 63.795C298.203 63.795 298.544 63.609 298.544 63.206C298.544 62.028 294.545 63.1285 294.545 60.3075C294.545 58.742 295.723 57.6415 297.785 57.6415C298.746 57.6415 299.691 57.9205 300.404 58.277V60.5865C299.645 59.889 298.668 59.5015 297.707 59.5015C296.963 59.5015 296.715 59.765 296.715 60.075C296.715 61.129 300.776 60.168 300.776 63.0355C300.776 64.756 299.35 65.7015 297.568 65.7015C296.343 65.7015 295.382 65.4225 294.638 65.004ZM302.06 65.004V62.648C302.881 63.3145 303.966 63.795 304.974 63.795C305.625 63.795 305.966 63.609 305.966 63.206C305.966 62.028 301.967 63.1285 301.967 60.3075C301.967 58.742 303.145 57.6415 305.206 57.6415C306.167 57.6415 307.113 57.9205 307.826 58.277V60.5865C307.066 59.889 306.09 59.5015 305.129 59.5015C304.385 59.5015 304.137 59.765 304.137 60.075C304.137 61.129 308.198 60.168 308.198 63.0355C308.198 64.756 306.772 65.7015 304.989 65.7015C303.765 65.7015 302.804 65.4225 302.06 65.004Z" fill="#1CA05C"/>
<rect x="52" y="87" width="54.7778" height="22" rx="11" fill="#DA0014" fill-opacity="0.1"/>
<path d="M62.0357 103.5V92.65H68.4217V94.758H64.3607V96.959H68.0652V99.005H64.3607V101.392H68.4527V103.5H62.0357ZM75.031 95.719V98.044C74.907 97.982 74.69 97.951 74.4575 97.951C73.202 97.951 72.458 98.881 72.458 100.384V103.5H70.2105V95.843H72.4425V97.0985C72.8455 96.215 73.6515 95.6725 74.6435 95.6725C74.814 95.6725 74.9845 95.7035 75.031 95.719ZM81.2265 95.719V98.044C81.1025 97.982 80.8855 97.951 80.653 97.951C79.3975 97.951 78.6535 98.881 78.6535 100.384V103.5H76.406V95.843H78.638V97.0985C79.041 96.215 79.847 95.6725 80.839 95.6725C81.0095 95.6725 81.18 95.7035 81.2265 95.719ZM81.9855 99.6715C81.9855 97.393 83.768 95.6415 86.1395 95.6415C88.511 95.6415 90.2935 97.393 90.2935 99.6715C90.2935 101.95 88.511 103.702 86.1395 103.702C83.768 103.702 81.9855 101.95 81.9855 99.6715ZM84.2175 99.6715C84.2175 100.772 85.0855 101.64 86.1395 101.64C87.1935 101.64 88.0615 100.772 88.0615 99.6715C88.0615 98.571 87.1935 97.703 86.1395 97.703C85.0855 97.703 84.2175 98.571 84.2175 99.6715ZM96.7054 95.719V98.044C96.5814 97.982 96.3644 97.951 96.1319 97.951C94.8764 97.951 94.1324 98.881 94.1324 100.384V103.5H91.8849V95.843H94.1169V97.0985C94.5199 96.215 95.3259 95.6725 96.3179 95.6725C96.4884 95.6725 96.6589 95.7035 96.7054 95.719Z" fill="#DA0014"/>
<rect x="139.777" y="87" width="79.7778" height="22" rx="11" fill="#C69500" fill-opacity="0.1"/>
<path d="M154.401 103.5H152.51L148.79 92.65H151.224L153.487 99.8265L155.796 92.65H157.687L159.981 99.8265L162.26 92.65H164.647L160.927 103.5H159.02L156.711 96.2615L154.401 103.5ZM171.474 103.5H169.382L169.351 102.539C168.901 103.329 168.018 103.702 167.103 103.702C165.677 103.702 164.701 102.802 164.701 101.454C164.701 100.043 165.646 99.1755 167.553 98.8965L169.289 98.6485V98.5555C169.289 97.92 168.777 97.548 167.739 97.548C166.747 97.548 165.863 97.9355 165.166 98.571V96.4165C165.832 95.967 166.793 95.6415 167.971 95.6415C170.188 95.6415 171.474 96.711 171.474 98.695V103.5ZM166.84 101.268C166.855 101.702 167.212 101.981 167.723 101.981C168.669 101.981 169.289 101.299 169.289 100.431V100.167L167.94 100.384C167.212 100.493 166.84 100.818 166.84 101.268ZM178.267 95.719V98.044C178.143 97.982 177.926 97.951 177.694 97.951C176.438 97.951 175.694 98.881 175.694 100.384V103.5H173.447V95.843H175.679V97.0985C176.082 96.215 176.888 95.6725 177.88 95.6725C178.05 95.6725 178.221 95.7035 178.267 95.719ZM181.905 99.439V103.5H179.642V95.843H181.905V96.8195C182.37 96.0755 183.145 95.6415 184.168 95.6415C185.92 95.6415 186.989 96.835 186.989 98.7725V103.5H184.726V99.2995C184.726 98.292 184.23 97.7185 183.347 97.7185C182.479 97.7185 181.905 98.3695 181.905 99.439ZM191.219 103.5H188.956V95.843H191.219V103.5ZM191.405 93.6265C191.405 94.3395 190.816 94.944 190.088 94.944C189.359 94.944 188.77 94.3395 188.77 93.6265C188.77 92.9135 189.359 92.309 190.088 92.309C190.816 92.309 191.405 92.9135 191.405 93.6265ZM195.523 99.439V103.5H193.26V95.843H195.523V96.8195C195.988 96.0755 196.763 95.6415 197.786 95.6415C199.537 95.6415 200.607 96.835 200.607 98.7725V103.5H198.344V99.2995C198.344 98.292 197.848 97.7185 196.964 97.7185C196.096 97.7185 195.523 98.3695 195.523 99.439ZM202.403 98.54C202.403 96.804 203.844 95.6415 205.611 95.6415C206.045 95.6415 206.448 95.719 206.836 95.843H209.455V97.362H208.556C208.727 97.7185 208.82 98.106 208.82 98.54C208.82 100.229 207.378 101.392 205.611 101.392C205.162 101.392 204.743 101.33 204.356 101.19C204.077 101.268 203.922 101.454 203.922 101.655C203.922 101.996 204.216 102.105 204.604 102.105H206.82C208.51 102.105 209.595 102.849 209.595 104.275C209.595 106.151 207.657 106.972 205.472 106.972C203.147 106.972 201.845 106.352 201.845 104.942C201.845 104.275 202.263 103.717 202.806 103.376C202.356 103.035 202.17 102.57 202.17 102.089C202.17 101.237 202.62 100.756 203.131 100.415C202.682 99.9195 202.403 99.284 202.403 98.54ZM207.642 104.477C207.642 104.058 207.254 103.903 206.51 103.903H204.325C203.953 104.043 203.751 104.275 203.751 104.616C203.751 105.159 204.356 105.391 205.503 105.391C206.898 105.391 207.642 105.097 207.642 104.477ZM205.611 97.3775C204.96 97.3775 204.418 97.858 204.418 98.54C204.418 99.2375 204.96 99.7025 205.611 99.7025C206.262 99.7025 206.805 99.2375 206.805 98.54C206.805 97.858 206.262 97.3775 205.611 97.3775Z" fill="#C69500"/>
<rect x="257.555" y="87" width="46.7778" height="22" rx="11" fill="#00C4D7" fill-opacity="0.1"/>
<path d="M267.59 92.65H269.931V103.5H267.59V92.65ZM274.38 99.439V103.5H272.117V95.843H274.38V96.8195C274.845 96.0755 275.62 95.6415 276.643 95.6415C278.395 95.6415 279.464 96.835 279.464 98.7725V103.5H277.201V99.2995C277.201 98.292 276.705 97.7185 275.822 97.7185C274.954 97.7185 274.38 98.3695 274.38 99.439ZM283.975 95.5175V95.843H285.959V97.703H283.975V103.5H281.727V97.703H280.642V95.843H281.727V95.502C281.727 93.4405 282.952 92.2625 284.874 92.2625C285.385 92.2625 285.835 92.3555 286.129 92.5105V94.4325C285.897 94.3085 285.618 94.231 285.261 94.231C284.533 94.231 283.975 94.603 283.975 95.5175ZM286.556 99.6715C286.556 97.393 288.339 95.6415 290.71 95.6415C293.082 95.6415 294.864 97.393 294.864 99.6715C294.864 101.95 293.082 103.702 290.71 103.702C288.339 103.702 286.556 101.95 286.556 99.6715ZM288.788 99.6715C288.788 100.772 289.656 101.64 290.71 101.64C291.764 101.64 292.632 100.772 292.632 99.6715C292.632 98.571 291.764 97.703 290.71 97.703C289.656 97.703 288.788 98.571 288.788 99.6715Z" fill="#00C4D7"/>
</svg>
