<svg width="281" height="104" viewBox="0 0 281 104" fill="none" xmlns="http://www.w3.org/2000/svg">
<path fill-rule="evenodd" clip-rule="evenodd" d="M275 0C278.314 0 281 2.68629 281 6V98C281 101.21 278.479 103.832 275.309 103.992L275 104H6L5.69141 103.992C2.62344 103.837 0.163427 101.377 0.0078125 98.3086L0 98V6C0 2.68629 2.68629 4.42926e-08 6 0H275ZM6 1C3.23858 1 1 3.23858 1 6V98C1.0002 100.761 3.2387 103 6 103H275C277.761 103 280 100.761 280 98V6C280 3.23857 277.761 1 275 1H6Z" fill="#E4E8F0"/>
<path d="M44 9C45.6569 9 47 10.3431 47 12V92C47 93.6569 45.6569 95 44 95H12C10.3431 95 9 93.6569 9 92V12L9.00391 11.8457C9.08422 10.2606 10.3949 9 12 9H44Z" fill="#F3F7FB"/>
<path fill-rule="evenodd" clip-rule="evenodd" d="M44.2061 8.00488C46.3194 8.11212 48 9.85996 48 12V92L47.9951 92.2061C47.8913 94.2512 46.2512 95.8913 44.2061 95.9951L44 96H12C9.85996 96 8.11211 94.3194 8.00488 92.2061L8 92V12C8 9.79086 9.79086 8 12 8H44L44.2061 8.00488ZM12 9C10.3949 9 9.08422 10.2606 9.00391 11.8457L9 12V92C9 93.6569 10.3431 95 12 95H44C45.6569 95 47 93.6569 47 92V12C47 10.3431 45.6569 9 44 9H12Z" fill="#0056CF"/>
<path d="M29.6808 57.9999H27.3868V49.8314L25.4648 50.5754V48.3279L27.8673 47.3514H29.6808V57.9999Z" fill="#242B42"/>
<path d="M92 23.665C93.6569 23.665 95 25.0082 95 26.665V77.335C95 78.9918 93.6569 80.335 92 80.335H60C58.3431 80.335 57 78.9918 57 77.335V26.665C57 25.0082 58.3431 23.665 60 23.665H92Z" fill="#F3F7FB"/>
<path fill-rule="evenodd" clip-rule="evenodd" d="M92.2061 22.6699C94.3194 22.7772 96 24.525 96 26.665V77.335C96 79.475 94.3194 81.2228 92.2061 81.3301L92 81.335H60C57.7909 81.335 56 79.5441 56 77.335V26.665C56 24.4559 57.7909 22.665 60 22.665H92L92.2061 22.6699ZM60 23.665C58.3431 23.665 57 25.0082 57 26.665V77.335C57 78.9918 58.3431 80.335 60 80.335H92C93.6569 80.335 95 78.9918 95 77.335V26.665C95 25.0082 93.6569 23.665 92 23.665H60Z" fill="#0056CF"/>
<path d="M79.2972 45.6651H72.0742V44.0376L75.5617 40.5811C76.5537 39.6201 76.8327 39.1241 76.8327 38.4111C76.8327 37.5586 76.1042 36.9541 75.0812 36.9541C74.0892 36.9541 73.1592 37.5121 72.3222 38.4266V35.9931C73.1437 35.2491 74.2132 34.8306 75.2672 34.8306C77.4062 34.8306 79.1267 36.1326 79.1267 38.1631C79.1267 39.5736 78.5377 40.6121 77.1892 41.8521L75.2827 43.6191H79.2972V45.6651Z" fill="#242B42"/>
<path d="M140 33C141.657 33 143 34.3431 143 36V68C143 69.6569 141.657 71 140 71H108C106.343 71 105 69.6569 105 68V36C105 34.3431 106.343 33 108 33H140Z" fill="#F3F7FB"/>
<path fill-rule="evenodd" clip-rule="evenodd" d="M140.206 32.0049C142.319 32.1121 144 33.86 144 36V68L143.995 68.2061C143.891 70.2512 142.251 71.8913 140.206 71.9951L140 72H108C105.86 72 104.112 70.3194 104.005 68.2061L104 68V36C104 33.7909 105.791 32 108 32H140L140.206 32.0049ZM108 33C106.343 33 105 34.3431 105 36V68C105 69.6569 106.343 71 108 71H140C141.657 71 143 69.6569 143 68V36C143 34.3431 141.657 33 140 33H108Z" fill="#0056CF"/>
<path d="M127.05 54.3225C127.05 56.3375 125.453 57.7015 123.02 57.7015C121.981 57.7015 121.005 57.438 120.121 56.8955V54.5705C121.005 55.268 121.904 55.609 122.834 55.609C123.965 55.609 124.756 55.0975 124.756 54.1985C124.756 53.408 124.012 52.8655 122.911 52.8655H121.904V51.0675H122.865C123.764 51.0675 124.384 50.5715 124.384 49.9205C124.384 49.1765 123.655 48.7425 122.787 48.7425C121.935 48.7425 121.16 49.068 120.338 49.7345V47.456C121.113 46.929 122.028 46.6655 122.973 46.6655C125.081 46.6655 126.631 47.7815 126.631 49.6415C126.631 50.6335 126.12 51.3775 125.314 51.827C126.414 52.2765 127.05 53.16 127.05 54.3225Z" fill="#242B42"/>
</svg>
