<svg width="281" height="104" viewBox="0 0 281 104" fill="none" xmlns="http://www.w3.org/2000/svg">
<path fill-rule="evenodd" clip-rule="evenodd" d="M275 0C278.314 0 281 2.68629 281 6V98C281 101.21 278.479 103.832 275.309 103.992L275 104H6L5.69141 103.992C2.62344 103.837 0.163427 101.377 0.0078125 98.3086L0 98V6C0 2.68629 2.68629 4.42926e-08 6 0H275ZM6 1C3.23858 1 1 3.23858 1 6V98C1.0002 100.761 3.2387 103 6 103H275C277.761 103 280 100.761 280 98V6C280 3.23857 277.761 1 275 1H6Z" fill="#E4E8F0"/>
<path d="M44 9C45.6569 9 47 10.3431 47 12V92C47 93.6569 45.6569 95 44 95H12C10.3431 95 9 93.6569 9 92V12L9.00391 11.8457C9.08422 10.2606 10.3949 9 12 9H44Z" fill="#F3F7FB"/>
<path fill-rule="evenodd" clip-rule="evenodd" d="M44.2061 8.00488C46.3194 8.11212 48 9.85996 48 12V92L47.9951 92.2061C47.8913 94.2512 46.2512 95.8913 44.2061 95.9951L44 96H12C9.85996 96 8.11211 94.3194 8.00488 92.2061L8 92V12C8 9.79086 9.79086 8 12 8H44L44.2061 8.00488ZM12 9C10.3949 9 9.08422 10.2606 9.00391 11.8457L9 12V92C9 93.6569 10.3431 95 12 95H44C45.6569 95 47 93.6569 47 92V12C47 10.3431 45.6569 9 44 9H12Z" fill="#0056CF"/>
<path d="M29.6808 57.9999H27.3868V49.8314L25.4648 50.5754V48.3279L27.8673 47.3514H29.6808V57.9999Z" fill="#242B42"/>
<path d="M92 9C93.6569 9 95 10.3431 95 12V62.6699C95 64.3268 93.6569 65.6699 92 65.6699H60C58.3431 65.6699 57 64.3268 57 62.6699V12C57 10.3431 58.3431 9 60 9H92Z" fill="#F3F7FB"/>
<path fill-rule="evenodd" clip-rule="evenodd" d="M92.2061 8.00488C94.3194 8.11212 96 9.85996 96 12V62.6699C96 64.81 94.3194 66.5578 92.2061 66.665L92 66.6699H60C57.7909 66.6699 56 64.8791 56 62.6699V12C56 9.79086 57.7909 8 60 8H92L92.2061 8.00488ZM60 9C58.3431 9 57 10.3431 57 12V62.6699C57 64.3268 58.3431 65.6699 60 65.6699H92C93.6569 65.6699 95 64.3268 95 62.6699V12C95 10.3431 93.6569 9 92 9H60Z" fill="#0056CF"/>
<path d="M79.2972 31H72.0742V29.3725L75.5617 25.916C76.5537 24.955 76.8327 24.459 76.8327 23.746C76.8327 22.8935 76.1042 22.289 75.0812 22.289C74.0892 22.289 73.1592 22.847 72.3222 23.7615V21.328C73.1437 20.584 74.2132 20.1655 75.2672 20.1655C77.4062 20.1655 79.1267 21.4675 79.1267 23.498C79.1267 24.9085 78.5377 25.947 77.1892 27.187L75.2827 28.954H79.2972V31Z" fill="#242B42"/>
<path d="M140 9C141.657 9 143 10.3431 143 12V44C143 45.6569 141.657 47 140 47H108C106.343 47 105 45.6569 105 44V12C105 10.3431 106.343 9 108 9H140Z" fill="#F3F7FB"/>
<path fill-rule="evenodd" clip-rule="evenodd" d="M140.206 8.00488C142.319 8.11212 144 9.85996 144 12V44L143.995 44.2061C143.891 46.2512 142.251 47.8913 140.206 47.9951L140 48H108C105.86 48 104.112 46.3194 104.005 44.2061L104 44V12C104 9.79086 105.791 8 108 8H140L140.206 8.00488ZM108 9C106.343 9 105 10.3431 105 12V44C105 45.6569 106.343 47 108 47H140C141.657 47 143 45.6569 143 44V12C143 10.3431 141.657 9 140 9H108Z" fill="#0056CF"/>
<path d="M127.05 30.3225C127.05 32.3375 125.453 33.7015 123.02 33.7015C121.981 33.7015 121.005 33.438 120.121 32.8955V30.5705C121.005 31.268 121.904 31.609 122.834 31.609C123.965 31.609 124.756 31.0975 124.756 30.1985C124.756 29.408 124.012 28.8655 122.911 28.8655H121.904V27.0675H122.865C123.764 27.0675 124.384 26.5715 124.384 25.9205C124.384 25.1765 123.655 24.7425 122.787 24.7425C121.935 24.7425 121.16 25.068 120.338 25.7345V23.456C121.113 22.929 122.028 22.6655 122.973 22.6655C125.081 22.6655 126.631 23.7815 126.631 25.6415C126.631 26.6335 126.12 27.3775 125.314 27.827C126.414 28.2765 127.05 29.16 127.05 30.3225Z" fill="#242B42"/>
</svg>
