<svg width="362" height="159" viewBox="0 0 362 159" fill="none" xmlns="http://www.w3.org/2000/svg">
<g filter="url(#filter0_d_2274_15057)">
<path d="M109.5 50C109.5 46.6863 112.186 44 115.5 44H246.5C249.814 44 252.5 46.6863 252.5 50V108C252.5 111.314 249.814 114 246.5 114H115.5C112.186 114 109.5 111.314 109.5 108V50Z" fill="white"/>
<path d="M246.5 43.5C250.09 43.5 253 46.4101 253 50V108C253 111.59 250.09 114.5 246.5 114.5H115.5C111.91 114.5 109 111.59 109 108V50L109.009 49.665C109.183 46.2309 112.022 43.5 115.5 43.5H246.5Z" stroke="#E4E8F0"/>
<path d="M134.306 78.575C134.306 75.4285 136.74 72.964 139.855 72.964C141.002 72.964 142.072 73.305 143.033 73.9405V75.475C141.979 74.6845 140.94 74.297 139.824 74.297C137.53 74.297 135.732 76.1725 135.732 78.575C135.732 80.9465 137.53 82.8375 139.824 82.8375C140.925 82.8375 142.01 82.45 143.064 81.6905V83.225C142.04 83.8605 140.971 84.1705 139.84 84.1705C136.74 84.1705 134.306 81.706 134.306 78.575ZM149.378 79.2105V79.0245C149.378 78.079 148.711 77.5055 147.595 77.5055C146.572 77.5055 145.813 77.924 145.038 78.637V77.242C145.72 76.684 146.541 76.2965 147.626 76.2965C149.564 76.2965 150.68 77.366 150.68 79.1175V84H149.424V83.008C148.835 83.7675 147.921 84.1705 146.929 84.1705C145.596 84.1705 144.65 83.256 144.65 82.016C144.65 80.6675 145.503 79.8615 147.161 79.5825L149.378 79.2105ZM145.983 81.9385C145.983 82.574 146.479 82.9925 147.177 82.9925C148.463 82.9925 149.393 82.1555 149.393 80.993V80.3575L147.378 80.714C146.479 80.8845 145.983 81.2875 145.983 81.9385ZM157.017 76.374V77.707C157.017 77.707 156.877 77.676 156.645 77.676C155.25 77.676 154.397 78.792 154.397 80.4195V84H153.08V76.467H154.382V77.8C154.723 76.932 155.699 76.343 156.691 76.343C156.877 76.343 157.017 76.374 157.017 76.374ZM164.318 73.15H165.635V84H164.318V82.8065C163.775 83.628 162.752 84.1705 161.652 84.1705C159.513 84.1705 157.87 82.4655 157.87 80.2335C157.87 78.017 159.513 76.2965 161.652 76.2965C162.752 76.2965 163.76 76.777 164.318 77.5985V73.15ZM164.395 80.2335C164.395 78.7145 163.279 77.521 161.807 77.521C160.334 77.521 159.218 78.7145 159.218 80.2335C159.218 81.7525 160.334 82.946 161.807 82.946C163.279 82.946 164.395 81.7525 164.395 80.2335ZM171.58 78.575C171.58 75.4285 174.014 72.964 177.129 72.964C178.276 72.964 179.346 73.305 180.307 73.9405V75.475C179.253 74.6845 178.214 74.297 177.098 74.297C174.804 74.297 173.006 76.1725 173.006 78.575C173.006 80.9465 174.804 82.8375 177.098 82.8375C178.199 82.8375 179.284 82.45 180.338 81.6905V83.225C179.315 83.8605 178.245 84.1705 177.114 84.1705C174.014 84.1705 171.58 81.706 171.58 78.575ZM185.782 76.2965C188.045 76.2965 189.719 78.048 189.719 80.2335C189.719 82.419 188.045 84.1705 185.782 84.1705C183.519 84.1705 181.845 82.419 181.845 80.2335C181.845 78.048 183.519 76.2965 185.782 76.2965ZM185.782 77.521C184.31 77.521 183.194 78.73 183.194 80.2335C183.194 81.737 184.31 82.946 185.782 82.946C187.255 82.946 188.371 81.737 188.371 80.2335C188.371 78.73 187.255 77.521 185.782 77.521ZM193.034 80.063V84H191.701V76.467H193.034V77.552C193.499 76.808 194.305 76.2965 195.437 76.2965C197.359 76.2965 198.475 77.583 198.475 79.5825V84H197.142V79.7375C197.142 78.389 196.444 77.5365 195.158 77.5365C193.871 77.5365 193.034 78.5285 193.034 80.063ZM199.811 77.49L202.399 74.7H202.446V76.467H204.554V77.6605H202.446V81.644C202.446 82.5275 202.833 82.9305 203.701 82.9305C203.996 82.9305 204.321 82.853 204.554 82.698V83.938C204.29 84.0775 203.903 84.1705 203.391 84.1705C201.965 84.1705 201.113 83.287 201.113 81.83V77.6605H199.811V77.49ZM212.626 81.768V83.2095C211.789 83.814 210.766 84.1705 209.712 84.1705C207.31 84.1705 205.76 82.45 205.76 80.2335C205.76 77.986 207.31 76.2965 209.48 76.2965C211.588 76.2965 213.029 78.0325 213.029 80.1715C213.029 80.466 212.998 80.652 212.998 80.652H207.093C207.201 81.9075 208.24 82.9615 209.805 82.9615C210.766 82.9615 211.696 82.574 212.626 81.768ZM207.124 79.5515H211.681C211.572 78.358 210.689 77.459 209.449 77.459C208.193 77.459 207.217 78.5285 207.124 79.5515ZM216.268 80.063V84H214.935V76.467H216.268V77.552C216.733 76.808 217.539 76.2965 218.67 76.2965C220.592 76.2965 221.708 77.583 221.708 79.5825V84H220.375V79.7375C220.375 78.389 219.678 77.5365 218.391 77.5365C217.105 77.5365 216.268 78.5285 216.268 80.063ZM223.044 77.49L225.633 74.7H225.679V76.467H227.787V77.6605H225.679V81.644C225.679 82.5275 226.067 82.9305 226.935 82.9305C227.229 82.9305 227.555 82.853 227.787 82.698V83.938C227.524 84.0775 227.136 84.1705 226.625 84.1705C225.199 84.1705 224.346 83.287 224.346 81.83V77.6605H223.044V77.49Z" fill="#242B42"/>
</g>
<defs>
<filter id="filter0_d_2274_15057" x="80.5" y="27" width="201" height="128" filterUnits="userSpaceOnUse" color-interpolation-filters="sRGB">
<feFlood flood-opacity="0" result="BackgroundImageFix"/>
<feColorMatrix in="SourceAlpha" type="matrix" values="0 0 0 0 0 0 0 0 0 0 0 0 0 0 0 0 0 0 127 0" result="hardAlpha"/>
<feOffset dy="12"/>
<feGaussianBlur stdDeviation="14"/>
<feColorMatrix type="matrix" values="0 0 0 0 0.235294 0 0 0 0 0.415686 0 0 0 0 0.67451 0 0 0 0.18 0"/>
<feBlend mode="normal" in2="BackgroundImageFix" result="effect1_dropShadow_2274_15057"/>
<feBlend mode="normal" in="SourceGraphic" in2="effect1_dropShadow_2274_15057" result="shape"/>
</filter>
</defs>
</svg>
