<svg width="362" height="159" viewBox="0 0 362 159" fill="none" xmlns="http://www.w3.org/2000/svg">
<g filter="url(#filter0_d_2274_15060)">
<path d="M64 37.5634C64 35.5954 65.5954 34 67.5635 34H294.437C296.405 34 298 35.5954 298 37.5635V120.447C298 122.415 296.405 124.01 294.437 124.01H67.5634C65.5954 124.01 64 122.415 64 120.447V37.5634Z" fill="white"/>
<path d="M294.437 33.7031C296.569 33.7031 298.297 35.4314 298.297 37.5635V120.446C298.297 122.578 296.569 124.307 294.437 124.307H67.5635C65.4314 124.307 63.7031 122.578 63.7031 120.446V37.5635C63.7031 35.4314 65.4314 33.7031 67.5635 33.7031H294.437Z" stroke="#E4E8F0" stroke-width="0.593909"/>
<path d="M82.1203 56.376L79.8833 53.108V58.2539H79.0824V51.81H79.9201L82.2952 55.3081L84.6518 51.81H85.4711V58.2539H84.6702V53.0988L82.4332 56.376H82.1203ZM89.6435 55.4094V55.2989C89.6435 54.7374 89.2477 54.3968 88.5849 54.3968C87.9773 54.3968 87.5262 54.6453 87.0659 55.0688V54.2403C87.471 53.9089 87.9589 53.6787 88.6033 53.6787C89.754 53.6787 90.4168 54.3139 90.4168 55.3541V58.2539H89.6711V57.6647C89.3213 58.1158 88.7782 58.3552 88.189 58.3552C87.3973 58.3552 86.8358 57.812 86.8358 57.0756C86.8358 56.2747 87.3421 55.796 88.3271 55.6303L89.6435 55.4094ZM87.6275 57.0296C87.6275 57.407 87.9221 57.6555 88.3363 57.6555C89.1004 57.6555 89.6527 57.1584 89.6527 56.468V56.0906L88.456 56.3023C87.9221 56.4036 87.6275 56.6429 87.6275 57.0296ZM92.772 52.4544C92.772 52.749 92.5327 52.9883 92.2381 52.9883C91.9435 52.9883 91.7042 52.749 91.7042 52.4544C91.7042 52.1598 91.9435 51.9205 92.2381 51.9205C92.5327 51.9205 92.772 52.1598 92.772 52.4544ZM91.8423 53.78H92.634V58.2539H91.8423V53.78ZM94.9291 55.9157V58.2539H94.1374V53.78H94.9291V54.4244C95.2053 53.9825 95.6839 53.6787 96.3559 53.6787C97.4974 53.6787 98.1602 54.4428 98.1602 55.6303V58.2539H97.3686V55.7224C97.3686 54.9215 96.9543 54.4152 96.1902 54.4152C95.4262 54.4152 94.9291 55.0043 94.9291 55.9157ZM101.653 57.6924V56.7166C102.187 57.1953 102.914 57.5727 103.669 57.5727C104.332 57.5727 105.068 57.2597 105.068 56.4864C105.068 55.7592 104.396 55.5567 103.66 55.3634C102.712 55.124 101.644 54.8202 101.644 53.513C101.644 52.3439 102.666 51.6995 103.743 51.6995C104.479 51.6995 105.105 51.9205 105.667 52.3255V53.2737C105.142 52.8134 104.497 52.4728 103.743 52.4728C103.153 52.4728 102.472 52.8042 102.472 53.467C102.472 54.2403 103.218 54.4428 104.019 54.6545C104.921 54.8939 105.897 55.2713 105.897 56.4404C105.897 57.6924 104.81 58.3552 103.678 58.3552C102.951 58.3552 102.224 58.1342 101.653 57.6924ZM110.856 56.9283V57.7844C110.359 58.1434 109.751 58.3552 109.125 58.3552C107.698 58.3552 106.778 57.3333 106.778 56.0169C106.778 54.6821 107.698 53.6787 108.987 53.6787C110.239 53.6787 111.095 54.7098 111.095 55.9801C111.095 56.155 111.077 56.2655 111.077 56.2655H107.569C107.634 57.0112 108.251 57.6371 109.18 57.6371C109.751 57.6371 110.303 57.407 110.856 56.9283ZM107.588 55.6119H110.294C110.23 54.9031 109.705 54.3691 108.969 54.3691C108.223 54.3691 107.643 55.0043 107.588 55.6119ZM111.95 56.0169C111.95 54.7098 112.916 53.6787 114.288 53.6787C114.757 53.6787 115.19 53.8168 115.558 54.0654V54.8663C115.162 54.5625 114.757 54.4152 114.325 54.4152C113.413 54.4152 112.75 55.1148 112.75 56.0169C112.75 56.9099 113.413 57.6187 114.325 57.6187C114.794 57.6187 115.227 57.407 115.586 57.1769V57.9777C115.199 58.2171 114.757 58.3552 114.297 58.3552C112.889 58.3552 111.95 57.3333 111.95 56.0169ZM116.252 54.3876L117.789 52.7306H117.817V53.78H119.069V54.4888H117.817V56.8547C117.817 57.3794 118.047 57.6187 118.563 57.6187C118.737 57.6187 118.931 57.5727 119.069 57.4806V58.2171C118.912 58.2999 118.682 58.3552 118.378 58.3552C117.532 58.3552 117.025 57.8304 117.025 56.9651V54.4888H116.252V54.3876ZM121.127 52.4544C121.127 52.749 120.888 52.9883 120.593 52.9883C120.299 52.9883 120.059 52.749 120.059 52.4544C120.059 52.1598 120.299 51.9205 120.593 51.9205C120.888 51.9205 121.127 52.1598 121.127 52.4544ZM120.197 53.78H120.989V58.2539H120.197V53.78ZM124.508 53.6787C125.852 53.6787 126.847 54.719 126.847 56.0169C126.847 57.3149 125.852 58.3552 124.508 58.3552C123.164 58.3552 122.17 57.3149 122.17 56.0169C122.17 54.719 123.164 53.6787 124.508 53.6787ZM124.508 54.406C123.634 54.406 122.971 55.124 122.971 56.0169C122.971 56.9099 123.634 57.6279 124.508 57.6279C125.383 57.6279 126.046 56.9099 126.046 56.0169C126.046 55.124 125.383 54.406 124.508 54.406ZM128.816 55.9157V58.2539H128.024V53.78H128.816V54.4244C129.092 53.9825 129.57 53.6787 130.242 53.6787C131.384 53.6787 132.047 54.4428 132.047 55.6303V58.2539H131.255V55.7224C131.255 54.9215 130.841 54.4152 130.077 54.4152C129.313 54.4152 128.816 55.0043 128.816 55.9157Z" fill="#242B42"/>
<path fill-rule="evenodd" clip-rule="evenodd" d="M274.059 53.2323C274.237 53.0621 274.519 53.068 274.689 53.2455L277.808 56.4981L280.927 53.2455C281.097 53.068 281.379 53.0621 281.556 53.2323C281.734 53.4026 281.74 53.6846 281.57 53.8621L278.236 57.3382C278.003 57.582 277.613 57.582 277.379 57.3382L274.046 53.8621C273.876 53.6846 273.881 53.4026 274.059 53.2323Z" fill="#242B42"/>
<path d="M79.0824 79.0639H79.9017V84.7437H82.2031V85.5078H79.0824V79.0639ZM85.1264 80.9326C86.4705 80.9326 87.4647 81.9729 87.4647 83.2709C87.4647 84.5688 86.4705 85.6091 85.1264 85.6091C83.7824 85.6091 82.7882 84.5688 82.7882 83.2709C82.7882 81.9729 83.7824 80.9326 85.1264 80.9326ZM85.1264 81.6599C84.2519 81.6599 83.5891 82.3779 83.5891 83.2709C83.5891 84.1638 84.2519 84.8818 85.1264 84.8818C86.001 84.8818 86.6638 84.1638 86.6638 83.2709C86.6638 82.3779 86.001 81.6599 85.1264 81.6599ZM90.9801 80.9787V81.7703C90.9801 81.7703 90.8973 81.7519 90.7592 81.7519C89.9307 81.7519 89.4244 82.4147 89.4244 83.3813V85.5078H88.6419V81.0339H89.4152V81.8256C89.6177 81.3101 90.1976 80.9603 90.7868 80.9603C90.8973 80.9603 90.9801 80.9787 90.9801 80.9787ZM95.5649 84.1822V85.0383C95.0678 85.3973 94.4602 85.6091 93.8343 85.6091C92.4074 85.6091 91.4868 84.5873 91.4868 83.2709C91.4868 81.936 92.4074 80.9326 93.6962 80.9326C94.9481 80.9326 95.8043 81.9637 95.8043 83.234C95.8043 83.4089 95.7858 83.5194 95.7858 83.5194H92.2785C92.343 84.2651 92.9597 84.891 93.8895 84.891C94.4602 84.891 95.0126 84.6609 95.5649 84.1822ZM92.2969 82.8658H95.0034C94.9389 82.157 94.4142 81.6231 93.6778 81.6231C92.9321 81.6231 92.3522 82.2582 92.2969 82.8658ZM97.7276 83.1604V85.5078H96.936V81.0339H97.7184V81.6783C97.967 81.218 98.4181 80.9326 99.0348 80.9326C99.6976 80.9326 100.176 81.264 100.443 81.8072C100.664 81.4297 101.125 80.9326 101.971 80.9326C103.002 80.9326 103.619 81.6599 103.619 82.8106V85.5078H102.828V82.9487C102.828 82.157 102.487 81.6599 101.815 81.6599C101.125 81.6599 100.673 82.249 100.673 83.1604V85.5078H99.8818V82.9671C99.8818 82.1662 99.5319 81.6599 98.8691 81.6599C98.1787 81.6599 97.7276 82.249 97.7276 83.1604ZM108.272 79.7083C108.272 80.0029 108.033 80.2422 107.738 80.2422C107.444 80.2422 107.205 80.0029 107.205 79.7083C107.205 79.4137 107.444 79.1744 107.738 79.1744C108.033 79.1744 108.272 79.4137 108.272 79.7083ZM107.343 81.0339H108.134V85.5078H107.343V81.0339ZM110.42 87.4226H109.638V81.0339H110.42V81.7427C110.742 81.2548 111.35 80.9326 112.004 80.9326C113.274 80.9326 114.25 81.9453 114.25 83.2709C114.25 84.5873 113.274 85.6091 112.004 85.6091C111.35 85.6091 110.752 85.3237 110.42 84.8358V87.4226ZM113.449 83.2709C113.449 82.3687 112.786 81.6599 111.912 81.6599C111.037 81.6599 110.374 82.3687 110.374 83.2709C110.374 84.173 111.037 84.8818 111.912 84.8818C112.786 84.8818 113.449 84.173 113.449 83.2709ZM115.126 85.1488V84.2743C115.531 84.6425 116.056 84.9002 116.599 84.9002C117.05 84.9002 117.464 84.7437 117.464 84.2835C117.464 83.8232 117.032 83.6667 116.47 83.547C115.826 83.4089 115.117 83.1512 115.117 82.2859C115.117 81.3837 115.881 80.9326 116.682 80.9326C117.161 80.9326 117.639 81.0799 118.035 81.3469V82.1846C117.639 81.8624 117.179 81.6323 116.7 81.6323C116.323 81.6323 115.89 81.7796 115.89 82.1938C115.89 82.5988 116.277 82.7738 116.792 82.9026C117.621 83.1052 118.247 83.4089 118.247 84.219C118.247 85.1304 117.483 85.6091 116.59 85.6091C116.102 85.6091 115.55 85.4618 115.126 85.1488ZM122.482 83.3721V81.0339H123.274V85.5078H122.482V84.8634C122.206 85.3053 121.737 85.6091 121.065 85.6091C119.932 85.6091 119.279 84.845 119.279 83.6575V81.0339H120.07V83.5654C120.07 84.3663 120.476 84.8726 121.23 84.8726C121.985 84.8726 122.482 84.2835 122.482 83.3721ZM125.702 83.1604V85.5078H124.911V81.0339H125.693V81.6783C125.942 81.218 126.393 80.9326 127.01 80.9326C127.672 80.9326 128.151 81.264 128.418 81.8072C128.639 81.4297 129.099 80.9326 129.946 80.9326C130.977 80.9326 131.594 81.6599 131.594 82.8106V85.5078H130.802V82.9487C130.802 82.157 130.462 81.6599 129.79 81.6599C129.099 81.6599 128.648 82.249 128.648 83.1604V85.5078H127.856V82.9671C127.856 82.1662 127.507 81.6599 126.844 81.6599C126.153 81.6599 125.702 82.249 125.702 83.1604ZM138.825 79.0639H139.607V85.5078H138.825V84.799C138.503 85.2869 137.895 85.6091 137.241 85.6091C135.971 85.6091 134.995 84.5965 134.995 83.2709C134.995 81.9545 135.971 80.9326 137.241 80.9326C137.895 80.9326 138.493 81.218 138.825 81.7059V79.0639ZM138.871 83.2709C138.871 82.3687 138.208 81.6599 137.333 81.6599C136.459 81.6599 135.796 82.3687 135.796 83.2709C135.796 84.173 136.459 84.8818 137.333 84.8818C138.208 84.8818 138.871 84.173 138.871 83.2709ZM143.126 80.9326C144.47 80.9326 145.464 81.9729 145.464 83.2709C145.464 84.5688 144.47 85.6091 143.126 85.6091C141.782 85.6091 140.787 84.5688 140.787 83.2709C140.787 81.9729 141.782 80.9326 143.126 80.9326ZM143.126 81.6599C142.251 81.6599 141.588 82.3779 141.588 83.2709C141.588 84.1638 142.251 84.8818 143.126 84.8818C144 84.8818 144.663 84.1638 144.663 83.2709C144.663 82.3779 144 81.6599 143.126 81.6599ZM146.641 79.0639H147.433V85.5078H146.641V79.0639ZM150.952 80.9326C152.296 80.9326 153.29 81.9729 153.29 83.2709C153.29 84.5688 152.296 85.6091 150.952 85.6091C149.608 85.6091 148.614 84.5688 148.614 83.2709C148.614 81.9729 149.608 80.9326 150.952 80.9326ZM150.952 81.6599C150.078 81.6599 149.415 82.3779 149.415 83.2709C149.415 84.1638 150.078 84.8818 150.952 84.8818C151.827 84.8818 152.49 84.1638 152.49 83.2709C152.49 82.3779 151.827 81.6599 150.952 81.6599ZM156.806 80.9787V81.7703C156.806 81.7703 156.723 81.7519 156.585 81.7519C155.756 81.7519 155.25 82.4147 155.25 83.3813V85.5078H154.468V81.0339H155.241V81.8256C155.443 81.3101 156.023 80.9603 156.613 80.9603C156.723 80.9603 156.806 80.9787 156.806 80.9787ZM159.797 85.1488V84.2743C160.202 84.6425 160.727 84.9002 161.27 84.9002C161.721 84.9002 162.135 84.7437 162.135 84.2835C162.135 83.8232 161.702 83.6667 161.141 83.547C160.497 83.4089 159.788 83.1512 159.788 82.2859C159.788 81.3837 160.552 80.9326 161.353 80.9326C161.831 80.9326 162.31 81.0799 162.706 81.3469V82.1846C162.31 81.8624 161.85 81.6323 161.371 81.6323C160.994 81.6323 160.561 81.7796 160.561 82.1938C160.561 82.5988 160.948 82.7738 161.463 82.9026C162.292 83.1052 162.918 83.4089 162.918 84.219C162.918 85.1304 162.154 85.6091 161.261 85.6091C160.773 85.6091 160.22 85.4618 159.797 85.1488ZM164.944 79.7083C164.944 80.0029 164.704 80.2422 164.41 80.2422C164.115 80.2422 163.876 80.0029 163.876 79.7083C163.876 79.4137 164.115 79.1744 164.41 79.1744C164.704 79.1744 164.944 79.4137 164.944 79.7083ZM164.014 81.0339H164.806V85.5078H164.014V81.0339ZM165.711 81.6415L167.248 79.9845H167.276V81.0339H168.528V81.7427H167.276V84.1086C167.276 84.6333 167.506 84.8726 168.021 84.8726C168.196 84.8726 168.39 84.8266 168.528 84.7345V85.471C168.371 85.5538 168.141 85.6091 167.837 85.6091C166.99 85.6091 166.484 85.0844 166.484 84.219V81.7427H165.711V81.6415ZM174.475 82.6633V82.5528C174.475 81.9913 174.079 81.6507 173.416 81.6507C172.809 81.6507 172.358 81.8992 171.897 82.3227V81.4942C172.302 81.1628 172.79 80.9326 173.435 80.9326C174.585 80.9326 175.248 81.5678 175.248 82.6081V85.5078H174.502V84.9187C174.153 85.3697 173.61 85.6091 173.02 85.6091C172.229 85.6091 171.667 85.0659 171.667 84.3295C171.667 83.5286 172.173 83.0499 173.158 82.8842L174.475 82.6633ZM172.459 84.2835C172.459 84.6609 172.753 84.9094 173.168 84.9094C173.932 84.9094 174.484 84.4123 174.484 83.7219V83.3445L173.287 83.5562C172.753 83.6575 172.459 83.8968 172.459 84.2835ZM177.465 83.1604V85.5078H176.674V81.0339H177.456V81.6783C177.705 81.218 178.156 80.9326 178.772 80.9326C179.435 80.9326 179.914 81.264 180.181 81.8072C180.402 81.4297 180.862 80.9326 181.709 80.9326C182.74 80.9326 183.357 81.6599 183.357 82.8106V85.5078H182.565V82.9487C182.565 82.157 182.225 81.6599 181.553 81.6599C180.862 81.6599 180.411 82.249 180.411 83.1604V85.5078H179.619V82.9671C179.619 82.1662 179.27 81.6599 178.607 81.6599C177.916 81.6599 177.465 82.249 177.465 83.1604ZM188.55 84.1822V85.0383C188.053 85.3973 187.445 85.6091 186.819 85.6091C185.393 85.6091 184.472 84.5873 184.472 83.2709C184.472 81.936 185.393 80.9326 186.681 80.9326C187.933 80.9326 188.789 81.9637 188.789 83.234C188.789 83.4089 188.771 83.5194 188.771 83.5194H185.264C185.328 84.2651 185.945 84.891 186.875 84.891C187.445 84.891 187.998 84.6609 188.55 84.1822ZM185.282 82.8658H187.988C187.924 82.157 187.399 81.6231 186.663 81.6231C185.917 81.6231 185.337 82.2582 185.282 82.8658ZM189.242 81.6415L190.779 79.9845H190.807V81.0339H192.059V81.7427H190.807V84.1086C190.807 84.6333 191.037 84.8726 191.552 84.8726C191.727 84.8726 191.921 84.8266 192.059 84.7345V85.471C191.902 85.5538 191.672 85.6091 191.368 85.6091C190.521 85.6091 190.015 85.0844 190.015 84.219V81.7427H189.242V81.6415ZM193.764 86.4192H193.23L193.663 85.5078H193.644C193.396 85.5078 193.184 85.2961 193.184 85.0199C193.184 84.7069 193.442 84.4768 193.755 84.4768C194.058 84.4768 194.316 84.7161 194.316 85.0199C194.316 85.204 194.252 85.3605 194.169 85.5446L193.764 86.4192ZM197.644 83.2709C197.644 81.9637 198.611 80.9326 199.982 80.9326C200.452 80.9326 200.884 81.0707 201.253 81.3193V82.1202C200.857 81.8164 200.452 81.6691 200.019 81.6691C199.108 81.6691 198.445 82.3687 198.445 83.2709C198.445 84.1638 199.108 84.8726 200.019 84.8726C200.488 84.8726 200.921 84.6609 201.28 84.4308V85.2316C200.894 85.471 200.452 85.6091 199.991 85.6091C198.583 85.6091 197.644 84.5873 197.644 83.2709ZM204.453 80.9326C205.797 80.9326 206.791 81.9729 206.791 83.2709C206.791 84.5688 205.797 85.6091 204.453 85.6091C203.109 85.6091 202.115 84.5688 202.115 83.2709C202.115 81.9729 203.109 80.9326 204.453 80.9326ZM204.453 81.6599C203.578 81.6599 202.916 82.3779 202.916 83.2709C202.916 84.1638 203.578 84.8818 204.453 84.8818C205.327 84.8818 205.99 84.1638 205.99 83.2709C205.99 82.3779 205.327 81.6599 204.453 81.6599ZM208.76 83.1696V85.5078H207.968V81.0339H208.76V81.6783C209.036 81.2364 209.515 80.9326 210.187 80.9326C211.328 80.9326 211.991 81.6967 211.991 82.8842V85.5078H211.199V82.9763C211.199 82.1754 210.785 81.6691 210.021 81.6691C209.257 81.6691 208.76 82.2582 208.76 83.1696ZM213.097 85.1488V84.2743C213.502 84.6425 214.027 84.9002 214.57 84.9002C215.021 84.9002 215.435 84.7437 215.435 84.2835C215.435 83.8232 215.003 83.6667 214.441 83.547C213.797 83.4089 213.088 83.1512 213.088 82.2859C213.088 81.3837 213.852 80.9326 214.653 80.9326C215.132 80.9326 215.61 81.0799 216.006 81.3469V82.1846C215.61 81.8624 215.15 81.6323 214.671 81.6323C214.294 81.6323 213.861 81.7796 213.861 82.1938C213.861 82.5988 214.248 82.7738 214.763 82.9026C215.592 83.1052 216.218 83.4089 216.218 84.219C216.218 85.1304 215.454 85.6091 214.561 85.6091C214.073 85.6091 213.521 85.4618 213.097 85.1488ZM221.142 84.1822V85.0383C220.645 85.3973 220.037 85.6091 219.411 85.6091C217.984 85.6091 217.064 84.5873 217.064 83.2709C217.064 81.936 217.984 80.9326 219.273 80.9326C220.525 80.9326 221.381 81.9637 221.381 83.234C221.381 83.4089 221.363 83.5194 221.363 83.5194H217.856C217.92 84.2651 218.537 84.891 219.467 84.891C220.037 84.891 220.59 84.6609 221.142 84.1822ZM217.874 82.8658H220.58C220.516 82.157 219.991 81.6231 219.255 81.6231C218.509 81.6231 217.929 82.2582 217.874 82.8658ZM222.236 83.2709C222.236 81.9637 223.202 80.9326 224.574 80.9326C225.043 80.9326 225.476 81.0707 225.844 81.3193V82.1202C225.449 81.8164 225.043 81.6691 224.611 81.6691C223.699 81.6691 223.037 82.3687 223.037 83.2709C223.037 84.1638 223.699 84.8726 224.611 84.8726C225.08 84.8726 225.513 84.6609 225.872 84.4308V85.2316C225.485 85.471 225.043 85.6091 224.583 85.6091C223.175 85.6091 222.236 84.5873 222.236 83.2709ZM226.538 81.6415L228.076 79.9845H228.103V81.0339H229.355V81.7427H228.103V84.1086C228.103 84.6333 228.333 84.8726 228.849 84.8726C229.024 84.8726 229.217 84.8266 229.355 84.7345V85.471C229.199 85.5538 228.968 85.6091 228.665 85.6091C227.818 85.6091 227.311 85.0844 227.311 84.219V81.7427H226.538V81.6415ZM234.149 84.1822V85.0383C233.652 85.3973 233.045 85.6091 232.419 85.6091C230.992 85.6091 230.071 84.5873 230.071 83.2709C230.071 81.936 230.992 80.9326 232.281 80.9326C233.533 80.9326 234.389 81.9637 234.389 83.234C234.389 83.4089 234.37 83.5194 234.37 83.5194H230.863C230.927 84.2651 231.544 84.891 232.474 84.891C233.045 84.891 233.597 84.6609 234.149 84.1822ZM230.881 82.8658H233.588C233.523 82.157 232.999 81.6231 232.262 81.6231C231.517 81.6231 230.937 82.2582 230.881 82.8658ZM234.841 81.6415L236.379 79.9845H236.406V81.0339H237.658V81.7427H236.406V84.1086C236.406 84.6333 236.636 84.8726 237.152 84.8726C237.327 84.8726 237.52 84.8266 237.658 84.7345V85.471C237.502 85.5538 237.271 85.6091 236.968 85.6091C236.121 85.6091 235.614 85.0844 235.614 84.219V81.7427H234.841V81.6415ZM241.881 83.3721V81.0339H242.672V85.5078H241.881V84.8634C241.605 85.3053 241.135 85.6091 240.463 85.6091C239.331 85.6091 238.677 84.845 238.677 83.6575V81.0339H239.469V83.5654C239.469 84.3663 239.874 84.8726 240.629 84.8726C241.384 84.8726 241.881 84.2835 241.881 83.3721ZM246.647 80.9787V81.7703C246.647 81.7703 246.564 81.7519 246.426 81.7519C245.598 81.7519 245.091 82.4147 245.091 83.3813V85.5078H244.309V81.0339H245.082V81.8256C245.285 81.3101 245.865 80.9603 246.454 80.9603C246.564 80.9603 246.647 80.9787 246.647 80.9787ZM81.5679 95.6633V95.5528C81.5679 94.9913 81.1721 94.6507 80.5093 94.6507C79.9017 94.6507 79.4506 94.8992 78.9904 95.3227V94.4942C79.3954 94.1628 79.8833 93.9326 80.5277 93.9326C81.6784 93.9326 82.3412 94.5678 82.3412 95.6081V98.5078H81.5955V97.9187C81.2457 98.3697 80.7026 98.6091 80.1134 98.6091C79.3218 98.6091 78.7602 98.0659 78.7602 97.3295C78.7602 96.5286 79.2665 96.0499 80.2515 95.8842L81.5679 95.6633ZM79.5519 97.2835C79.5519 97.6609 79.8465 97.9094 80.2607 97.9094C81.0248 97.9094 81.5771 97.4123 81.5771 96.7219V96.3445L80.3804 96.5562C79.8465 96.6575 79.5519 96.8968 79.5519 97.2835ZM87.274 92.0639H88.0565V98.5078H87.274V97.799C86.9518 98.2869 86.3442 98.6091 85.6906 98.6091C84.4203 98.6091 83.4445 97.5965 83.4445 96.2709C83.4445 94.9545 84.4203 93.9326 85.6906 93.9326C86.3442 93.9326 86.9426 94.218 87.274 94.7059V92.0639ZM87.32 96.2709C87.32 95.3687 86.6572 94.6599 85.7827 94.6599C84.9082 94.6599 84.2454 95.3687 84.2454 96.2709C84.2454 97.173 84.9082 97.8818 85.7827 97.8818C86.6572 97.8818 87.32 97.173 87.32 96.2709ZM90.4886 92.7083C90.4886 93.0029 90.2493 93.2422 89.9547 93.2422C89.6601 93.2422 89.4208 93.0029 89.4208 92.7083C89.4208 92.4137 89.6601 92.1744 89.9547 92.1744C90.2493 92.1744 90.4886 92.4137 90.4886 92.7083ZM89.5589 94.0339H90.3505V98.5078H89.5589V94.0339ZM92.6365 100.423H91.854V94.0339H92.6365V94.7427C92.9587 94.2548 93.5662 93.9326 94.2198 93.9326C95.4902 93.9326 96.466 94.9453 96.466 96.2709C96.466 97.5873 95.4902 98.6091 94.2198 98.6091C93.5662 98.6091 92.9679 98.3237 92.6365 97.8358V100.423ZM95.6651 96.2709C95.6651 95.3687 95.0023 94.6599 94.1278 94.6599C93.2532 94.6599 92.5904 95.3687 92.5904 96.2709C92.5904 97.173 93.2532 97.8818 94.1278 97.8818C95.0023 97.8818 95.6651 97.173 95.6651 96.2709ZM98.5759 92.7083C98.5759 93.0029 98.3366 93.2422 98.042 93.2422C97.7474 93.2422 97.5081 93.0029 97.5081 92.7083C97.5081 92.4137 97.7474 92.1744 98.042 92.1744C98.3366 92.1744 98.5759 92.4137 98.5759 92.7083ZM97.6462 94.0339H98.4378V98.5078H97.6462V94.0339ZM99.6375 98.1488V97.2743C100.043 97.6425 100.567 97.9002 101.11 97.9002C101.561 97.9002 101.976 97.7437 101.976 97.2835C101.976 96.8232 101.543 96.6667 100.982 96.547C100.337 96.4089 99.6283 96.1512 99.6283 95.2859C99.6283 94.3837 100.392 93.9326 101.193 93.9326C101.672 93.9326 102.151 94.0799 102.546 94.3469V95.1846C102.151 94.8624 101.69 94.6323 101.212 94.6323C100.834 94.6323 100.402 94.7796 100.402 95.1938C100.402 95.5988 100.788 95.7738 101.304 95.9026C102.132 96.1052 102.758 96.4089 102.758 97.219C102.758 98.1304 101.994 98.6091 101.101 98.6091C100.613 98.6091 100.061 98.4618 99.6375 98.1488ZM103.604 96.2709C103.604 94.9637 104.571 93.9326 105.943 93.9326C106.412 93.9326 106.845 94.0707 107.213 94.3193V95.1202C106.817 94.8164 106.412 94.6691 105.979 94.6691C105.068 94.6691 104.405 95.3687 104.405 96.2709C104.405 97.1638 105.068 97.8726 105.979 97.8726C106.449 97.8726 106.882 97.6609 107.241 97.4308V98.2316C106.854 98.471 106.412 98.6091 105.952 98.6091C104.543 98.6091 103.604 97.5873 103.604 96.2709ZM109.372 92.7083C109.372 93.0029 109.133 93.2422 108.838 93.2422C108.543 93.2422 108.304 93.0029 108.304 92.7083C108.304 92.4137 108.543 92.1744 108.838 92.1744C109.133 92.1744 109.372 92.4137 109.372 92.7083ZM108.442 94.0339H109.234V98.5078H108.442V94.0339ZM111.529 96.1696V98.5078H110.737V94.0339H111.529V94.6783C111.805 94.2364 112.284 93.9326 112.956 93.9326C114.097 93.9326 114.76 94.6967 114.76 95.8842V98.5078H113.968V95.9763C113.968 95.1754 113.554 94.6691 112.79 94.6691C112.026 94.6691 111.529 95.2582 111.529 96.1696ZM116.022 95.5804C116.022 94.6046 116.823 93.9326 117.753 93.9326C117.964 93.9326 118.167 93.9695 118.36 94.0339H119.897V94.7151H119.235C119.391 94.9637 119.483 95.2582 119.483 95.5804C119.483 96.5654 118.682 97.219 117.753 97.219C117.476 97.219 117.219 97.1638 116.979 97.0625C116.676 97.1546 116.583 97.3295 116.583 97.4952C116.583 97.7622 116.823 97.8634 117.182 97.8634H118.425C119.382 97.8634 119.99 98.2685 119.99 99.0049C119.99 100.045 118.885 100.533 117.679 100.533C116.528 100.533 115.681 100.165 115.681 99.2719C115.681 98.8484 115.967 98.5078 116.252 98.3237C116.004 98.1488 115.893 97.891 115.893 97.6057C115.893 97.1086 116.197 96.8692 116.464 96.7035C116.188 96.4274 116.022 96.0407 116.022 95.5804ZM119.253 99.0786C119.253 98.6919 118.912 98.563 118.24 98.563H117.136C117.025 98.563 116.933 98.5538 116.841 98.5446C116.565 98.6919 116.409 98.9129 116.409 99.1798C116.409 99.6953 116.979 99.9071 117.697 99.9071C118.599 99.9071 119.253 99.6125 119.253 99.0786ZM116.749 95.5804C116.749 96.1696 117.191 96.5654 117.753 96.5654C118.314 96.5654 118.756 96.1696 118.756 95.5804C118.756 95.0097 118.314 94.5954 117.753 94.5954C117.191 94.5954 116.749 95.0097 116.749 95.5804ZM126.961 97.1822V98.0383C126.464 98.3973 125.857 98.6091 125.231 98.6091C123.804 98.6091 122.883 97.5873 122.883 96.2709C122.883 94.936 123.804 93.9326 125.092 93.9326C126.344 93.9326 127.201 94.9637 127.201 96.234C127.201 96.4089 127.182 96.5194 127.182 96.5194H123.675C123.739 97.2651 124.356 97.891 125.286 97.891C125.857 97.891 126.409 97.6609 126.961 97.1822ZM123.693 95.8658H126.4C126.335 95.157 125.811 94.6231 125.074 94.6231C124.328 94.6231 123.748 95.2582 123.693 95.8658ZM128.332 92.0639H129.124V98.5078H128.332V92.0639ZM131.557 92.7083C131.557 93.0029 131.318 93.2422 131.023 93.2422C130.729 93.2422 130.489 93.0029 130.489 92.7083C130.489 92.4137 130.729 92.1744 131.023 92.1744C131.318 92.1744 131.557 92.4137 131.557 92.7083ZM130.627 94.0339H131.419V98.5078H130.627V94.0339ZM132.324 94.6415L133.862 92.9845H133.889V94.0339H135.141V94.7427H133.889V97.1086C133.889 97.6333 134.119 97.8726 134.635 97.8726C134.81 97.8726 135.003 97.8266 135.141 97.7345V98.471C134.985 98.5538 134.754 98.6091 134.451 98.6091C133.604 98.6091 133.097 98.0844 133.097 97.219V94.7427H132.324V94.6415ZM136.846 99.4192H136.312L136.745 98.5078H136.727C136.478 98.5078 136.266 98.2961 136.266 98.0199C136.266 97.7069 136.524 97.4768 136.837 97.4768C137.141 97.4768 137.399 97.7161 137.399 98.0199C137.399 98.204 137.334 98.3605 137.251 98.5446L136.846 99.4192ZM140.745 98.1488V97.2743C141.15 97.6425 141.675 97.9002 142.218 97.9002C142.669 97.9002 143.083 97.7437 143.083 97.2835C143.083 96.8232 142.65 96.6667 142.089 96.547C141.444 96.4089 140.736 96.1512 140.736 95.2859C140.736 94.3837 141.5 93.9326 142.3 93.9326C142.779 93.9326 143.258 94.0799 143.654 94.3469V95.1846C143.258 94.8624 142.798 94.6323 142.319 94.6323C141.941 94.6323 141.509 94.7796 141.509 95.1938C141.509 95.5988 141.895 95.7738 142.411 95.9026C143.239 96.1052 143.865 96.4089 143.865 97.219C143.865 98.1304 143.101 98.6091 142.208 98.6091C141.721 98.6091 141.168 98.4618 140.745 98.1488ZM148.79 97.1822V98.0383C148.293 98.3973 147.685 98.6091 147.059 98.6091C145.632 98.6091 144.712 97.5873 144.712 96.2709C144.712 94.936 145.632 93.9326 146.921 93.9326C148.173 93.9326 149.029 94.9637 149.029 96.234C149.029 96.4089 149.011 96.5194 149.011 96.5194H145.503C145.568 97.2651 146.184 97.891 147.114 97.891C147.685 97.891 148.237 97.6609 148.79 97.1822ZM145.522 95.8658H148.228C148.164 95.157 147.639 94.6231 146.902 94.6231C146.157 94.6231 145.577 95.2582 145.522 95.8658ZM153.713 92.0639H154.495V98.5078H153.713V97.799C153.391 98.2869 152.783 98.6091 152.13 98.6091C150.859 98.6091 149.883 97.5965 149.883 96.2709C149.883 94.9545 150.859 93.9326 152.13 93.9326C152.783 93.9326 153.382 94.218 153.713 94.7059V92.0639ZM153.759 96.2709C153.759 95.3687 153.096 94.6599 152.222 94.6599C151.347 94.6599 150.684 95.3687 150.684 96.2709C150.684 97.173 151.347 97.8818 152.222 97.8818C153.096 97.8818 153.759 97.173 153.759 96.2709ZM161.791 92.0639H162.574V98.5078H161.791V97.799C161.469 98.2869 160.862 98.6091 160.208 98.6091C158.938 98.6091 157.962 97.5965 157.962 96.2709C157.962 94.9545 158.938 93.9326 160.208 93.9326C160.862 93.9326 161.46 94.218 161.791 94.7059V92.0639ZM161.837 96.2709C161.837 95.3687 161.175 94.6599 160.3 94.6599C159.425 94.6599 158.763 95.3687 158.763 96.2709C158.763 97.173 159.425 97.8818 160.3 97.8818C161.175 97.8818 161.837 97.173 161.837 96.2709ZM166.092 93.9326C167.436 93.9326 168.43 94.9729 168.43 96.2709C168.43 97.5688 167.436 98.6091 166.092 98.6091C164.748 98.6091 163.754 97.5688 163.754 96.2709C163.754 94.9729 164.748 93.9326 166.092 93.9326ZM166.092 94.6599C165.218 94.6599 164.555 95.3779 164.555 96.2709C164.555 97.1638 165.218 97.8818 166.092 97.8818C166.967 97.8818 167.629 97.1638 167.629 96.2709C167.629 95.3779 166.967 94.6599 166.092 94.6599ZM175.65 97.1822V98.0383C175.153 98.3973 174.545 98.6091 173.919 98.6091C172.492 98.6091 171.572 97.5873 171.572 96.2709C171.572 94.936 172.492 93.9326 173.781 93.9326C175.033 93.9326 175.889 94.9637 175.889 96.234C175.889 96.4089 175.871 96.5194 175.871 96.5194H172.363C172.428 97.2651 173.044 97.891 173.974 97.891C174.545 97.891 175.097 97.6609 175.65 97.1822ZM172.382 95.8658H175.088C175.024 95.157 174.499 94.6231 173.762 94.6231C173.017 94.6231 172.437 95.2582 172.382 95.8658ZM177.95 92.7083C177.95 93.0029 177.711 93.2422 177.417 93.2422C177.122 93.2422 176.883 93.0029 176.883 92.7083C176.883 92.4137 177.122 92.1744 177.417 92.1744C177.711 92.1744 177.95 92.4137 177.95 92.7083ZM177.021 94.0339H177.812V98.5078H177.021V94.0339ZM182.455 96.3721V94.0339H183.247V98.5078H182.455V97.8634C182.179 98.3053 181.709 98.6091 181.037 98.6091C179.905 98.6091 179.251 97.845 179.251 96.6575V94.0339H180.043V96.5654C180.043 97.3663 180.448 97.8726 181.203 97.8726C181.958 97.8726 182.455 97.2835 182.455 96.3721ZM184.445 98.1488V97.2743C184.85 97.6425 185.374 97.9002 185.917 97.9002C186.369 97.9002 186.783 97.7437 186.783 97.2835C186.783 96.8232 186.35 96.6667 185.789 96.547C185.144 96.4089 184.435 96.1512 184.435 95.2859C184.435 94.3837 185.199 93.9326 186 93.9326C186.479 93.9326 186.958 94.0799 187.354 94.3469V95.1846C186.958 94.8624 186.497 94.6323 186.019 94.6323C185.641 94.6323 185.209 94.7796 185.209 95.1938C185.209 95.5988 185.595 95.7738 186.111 95.9026C186.939 96.1052 187.565 96.4089 187.565 97.219C187.565 98.1304 186.801 98.6091 185.908 98.6091C185.42 98.6091 184.868 98.4618 184.445 98.1488ZM189.453 96.1604V98.5078H188.662V94.0339H189.444V94.6783C189.693 94.218 190.144 93.9326 190.761 93.9326C191.423 93.9326 191.902 94.264 192.169 94.8072C192.39 94.4297 192.85 93.9326 193.697 93.9326C194.728 93.9326 195.345 94.6599 195.345 95.8106V98.5078H194.553V95.9487C194.553 95.157 194.213 94.6599 193.541 94.6599C192.85 94.6599 192.399 95.249 192.399 96.1604V98.5078H191.607V95.9671C191.607 95.1662 191.258 94.6599 190.595 94.6599C189.904 94.6599 189.453 95.249 189.453 96.1604ZM198.798 93.9326C200.142 93.9326 201.136 94.9729 201.136 96.2709C201.136 97.5688 200.142 98.6091 198.798 98.6091C197.454 98.6091 196.46 97.5688 196.46 96.2709C196.46 94.9729 197.454 93.9326 198.798 93.9326ZM198.798 94.6599C197.924 94.6599 197.261 95.3779 197.261 96.2709C197.261 97.1638 197.924 97.8818 198.798 97.8818C199.673 97.8818 200.336 97.1638 200.336 96.2709C200.336 95.3779 199.673 94.6599 198.798 94.6599ZM205.866 92.0639H206.648V98.5078H205.866V97.799C205.544 98.2869 204.936 98.6091 204.283 98.6091C203.012 98.6091 202.036 97.5965 202.036 96.2709C202.036 94.9545 203.012 93.9326 204.283 93.9326C204.936 93.9326 205.535 94.218 205.866 94.7059V92.0639ZM205.912 96.2709C205.912 95.3687 205.249 94.6599 204.375 94.6599C203.5 94.6599 202.837 95.3687 202.837 96.2709C202.837 97.173 203.5 97.8818 204.375 97.8818C205.249 97.8818 205.912 97.173 205.912 96.2709ZM209.839 94.6415L211.376 92.9845H211.404V94.0339H212.656V94.7427H211.404V97.1086C211.404 97.6333 211.634 97.8726 212.149 97.8726C212.324 97.8726 212.517 97.8266 212.656 97.7345V98.471C212.499 98.5538 212.269 98.6091 211.965 98.6091C211.118 98.6091 210.612 98.0844 210.612 97.219V94.7427H209.839V94.6415ZM217.45 97.1822V98.0383C216.953 98.3973 216.345 98.6091 215.719 98.6091C214.292 98.6091 213.372 97.5873 213.372 96.2709C213.372 94.936 214.292 93.9326 215.581 93.9326C216.833 93.9326 217.689 94.9637 217.689 96.234C217.689 96.4089 217.671 96.5194 217.671 96.5194H214.163C214.228 97.2651 214.845 97.891 215.774 97.891C216.345 97.891 216.898 97.6609 217.45 97.1822ZM214.182 95.8658H216.888C216.824 95.157 216.299 94.6231 215.563 94.6231C214.817 94.6231 214.237 95.2582 214.182 95.8658ZM219.613 96.1604V98.5078H218.821V94.0339H219.603V94.6783C219.852 94.218 220.303 93.9326 220.92 93.9326C221.583 93.9326 222.061 94.264 222.328 94.8072C222.549 94.4297 223.009 93.9326 223.856 93.9326C224.887 93.9326 225.504 94.6599 225.504 95.8106V98.5078H224.713V95.9487C224.713 95.157 224.372 94.6599 223.7 94.6599C223.009 94.6599 222.558 95.249 222.558 96.1604V98.5078H221.767V95.9671C221.767 95.1662 221.417 94.6599 220.754 94.6599C220.064 94.6599 219.613 95.249 219.613 96.1604ZM227.724 100.423H226.941V94.0339H227.724V94.7427C228.046 94.2548 228.654 93.9326 229.307 93.9326C230.578 93.9326 231.553 94.9453 231.553 96.2709C231.553 97.5873 230.578 98.6091 229.307 98.6091C228.654 98.6091 228.055 98.3237 227.724 97.8358V100.423ZM230.753 96.2709C230.753 95.3687 230.09 94.6599 229.215 94.6599C228.341 94.6599 227.678 95.3687 227.678 96.2709C227.678 97.173 228.341 97.8818 229.215 97.8818C230.09 97.8818 230.753 97.173 230.753 96.2709ZM234.795 93.9326C236.139 93.9326 237.133 94.9729 237.133 96.2709C237.133 97.5688 236.139 98.6091 234.795 98.6091C233.451 98.6091 232.456 97.5688 232.456 96.2709C232.456 94.9729 233.451 93.9326 234.795 93.9326ZM234.795 94.6599C233.92 94.6599 233.257 95.3779 233.257 96.2709C233.257 97.1638 233.92 97.8818 234.795 97.8818C235.669 97.8818 236.332 97.1638 236.332 96.2709C236.332 95.3779 235.669 94.6599 234.795 94.6599ZM240.648 93.9787V94.7703C240.648 94.7703 240.565 94.7519 240.427 94.7519C239.599 94.7519 239.093 95.4147 239.093 96.3813V98.5078H238.31V94.0339H239.083V94.8256C239.286 94.3101 239.866 93.9603 240.455 93.9603C240.565 93.9603 240.648 93.9787 240.648 93.9787ZM79.9201 104.708C79.9201 105.003 79.6808 105.242 79.3862 105.242C79.0916 105.242 78.8523 105.003 78.8523 104.708C78.8523 104.414 79.0916 104.174 79.3862 104.174C79.6808 104.174 79.9201 104.414 79.9201 104.708ZM78.9904 106.034H79.782V110.508H78.9904V106.034ZM82.0772 108.17V110.508H81.2855V106.034H82.0772V106.678C82.3533 106.236 82.832 105.933 83.504 105.933C84.6455 105.933 85.3083 106.697 85.3083 107.884V110.508H84.5166V107.976C84.5166 107.175 84.1024 106.669 83.3383 106.669C82.5743 106.669 82.0772 107.258 82.0772 108.17ZM86.4228 108.271C86.4228 106.964 87.3894 105.933 88.7611 105.933C89.2305 105.933 89.6632 106.071 90.0314 106.319V107.12C89.6356 106.816 89.2305 106.669 88.7979 106.669C87.8865 106.669 87.2237 107.369 87.2237 108.271C87.2237 109.164 87.8865 109.873 88.7979 109.873C89.2674 109.873 89.7 109.661 90.059 109.431V110.232C89.6724 110.471 89.2305 110.609 88.7703 110.609C87.3618 110.609 86.4228 109.587 86.4228 108.271ZM92.1904 104.708C92.1904 105.003 91.9511 105.242 91.6565 105.242C91.3619 105.242 91.1226 105.003 91.1226 104.708C91.1226 104.414 91.3619 104.174 91.6565 104.174C91.9511 104.174 92.1904 104.414 92.1904 104.708ZM91.2607 106.034H92.0523V110.508H91.2607V106.034ZM97.0631 104.064H97.8456V110.508H97.0631V109.799C96.7409 110.287 96.1334 110.609 95.4798 110.609C94.2094 110.609 93.2336 109.596 93.2336 108.271C93.2336 106.954 94.2094 105.933 95.4798 105.933C96.1334 105.933 96.7317 106.218 97.0631 106.706V104.064ZM97.1091 108.271C97.1091 107.369 96.4463 106.66 95.5718 106.66C94.6973 106.66 94.0345 107.369 94.0345 108.271C94.0345 109.173 94.6973 109.882 95.5718 109.882C96.4463 109.882 97.1091 109.173 97.1091 108.271ZM100.278 104.708C100.278 105.003 100.038 105.242 99.7438 105.242C99.4492 105.242 99.2099 105.003 99.2099 104.708C99.2099 104.414 99.4492 104.174 99.7438 104.174C100.038 104.174 100.278 104.414 100.278 104.708ZM99.348 106.034H100.14V110.508H99.348V106.034ZM105.15 104.064H105.933V110.508H105.15V109.799C104.828 110.287 104.221 110.609 103.567 110.609C102.297 110.609 101.321 109.596 101.321 108.271C101.321 106.954 102.297 105.933 103.567 105.933C104.221 105.933 104.819 106.218 105.15 106.706V104.064ZM105.196 108.271C105.196 107.369 104.534 106.66 103.659 106.66C102.785 106.66 102.122 107.369 102.122 108.271C102.122 109.173 102.785 109.882 103.659 109.882C104.534 109.882 105.196 109.173 105.196 108.271ZM110.574 108.372V106.034H111.366V110.508H110.574V109.863C110.298 110.305 109.829 110.609 109.157 110.609C108.024 110.609 107.371 109.845 107.371 108.657V106.034H108.163V108.565C108.163 109.366 108.568 109.873 109.322 109.873C110.077 109.873 110.574 109.283 110.574 108.372ZM113.794 108.17V110.508H113.003V106.034H113.794V106.678C114.071 106.236 114.549 105.933 115.221 105.933C116.363 105.933 117.026 106.697 117.026 107.884V110.508H116.234V107.976C116.234 107.175 115.82 106.669 115.056 106.669C114.291 106.669 113.794 107.258 113.794 108.17ZM117.819 106.641L119.356 104.984H119.384V106.034H120.636V106.743H119.384V109.109C119.384 109.633 119.614 109.873 120.13 109.873C120.304 109.873 120.498 109.827 120.636 109.735V110.471C120.479 110.554 120.249 110.609 119.945 110.609C119.099 110.609 118.592 110.084 118.592 109.219V106.743H117.819V106.641ZM127.145 108.372V106.034H127.936V110.508H127.145V109.863C126.868 110.305 126.399 110.609 125.727 110.609C124.595 110.609 123.941 109.845 123.941 108.657V106.034H124.733V108.565C124.733 109.366 125.138 109.873 125.893 109.873C126.647 109.873 127.145 109.283 127.145 108.372ZM128.84 106.641L130.377 104.984H130.405V106.034H131.657V106.743H130.405V109.109C130.405 109.633 130.635 109.873 131.15 109.873C131.325 109.873 131.518 109.827 131.657 109.735V110.471C131.5 110.554 131.27 110.609 130.966 110.609C130.119 110.609 129.613 110.084 129.613 109.219V106.743H128.84V106.641ZM135.026 104.064H135.818V110.508H135.026V104.064ZM139.899 107.663V107.553C139.899 106.991 139.503 106.651 138.84 106.651C138.233 106.651 137.782 106.899 137.321 107.323V106.494C137.726 106.163 138.214 105.933 138.859 105.933C140.009 105.933 140.672 106.568 140.672 107.608V110.508H139.926V109.919C139.577 110.37 139.034 110.609 138.444 110.609C137.653 110.609 137.091 110.066 137.091 109.329C137.091 108.529 137.597 108.05 138.582 107.884L139.899 107.663ZM137.883 109.283C137.883 109.661 138.177 109.909 138.592 109.909C139.356 109.909 139.908 109.412 139.908 108.722V108.345L138.711 108.556C138.177 108.657 137.883 108.897 137.883 109.283ZM142.88 110.508H142.098V104.064H142.88V106.743C143.202 106.255 143.81 105.933 144.463 105.933C145.734 105.933 146.71 106.945 146.71 108.271C146.71 109.587 145.734 110.609 144.463 110.609C143.81 110.609 143.211 110.324 142.88 109.836V110.508ZM145.909 108.271C145.909 107.369 145.246 106.66 144.371 106.66C143.497 106.66 142.834 107.369 142.834 108.271C142.834 109.173 143.497 109.882 144.371 109.882C145.246 109.882 145.909 109.173 145.909 108.271ZM149.951 105.933C151.295 105.933 152.289 106.973 152.289 108.271C152.289 109.569 151.295 110.609 149.951 110.609C148.607 110.609 147.613 109.569 147.613 108.271C147.613 106.973 148.607 105.933 149.951 105.933ZM149.951 106.66C149.076 106.66 148.413 107.378 148.413 108.271C148.413 109.164 149.076 109.882 149.951 109.882C150.825 109.882 151.488 109.164 151.488 108.271C151.488 107.378 150.825 106.66 149.951 106.66ZM155.804 105.979V106.77C155.804 106.77 155.722 106.752 155.583 106.752C154.755 106.752 154.249 107.415 154.249 108.381V110.508H153.466V106.034H154.239V106.826C154.442 106.31 155.022 105.96 155.611 105.96C155.722 105.96 155.804 105.979 155.804 105.979ZM160.389 109.182V110.038C159.892 110.397 159.285 110.609 158.659 110.609C157.232 110.609 156.311 109.587 156.311 108.271C156.311 106.936 157.232 105.933 158.521 105.933C159.772 105.933 160.629 106.964 160.629 108.234C160.629 108.409 160.61 108.519 160.61 108.519H157.103C157.167 109.265 157.784 109.891 158.714 109.891C159.285 109.891 159.837 109.661 160.389 109.182ZM157.121 107.866H159.828C159.763 107.157 159.239 106.623 158.502 106.623C157.756 106.623 157.176 107.258 157.121 107.866ZM167.802 109.182V110.038C167.305 110.397 166.698 110.609 166.072 110.609C164.645 110.609 163.724 109.587 163.724 108.271C163.724 106.936 164.645 105.933 165.934 105.933C167.186 105.933 168.042 106.964 168.042 108.234C168.042 108.409 168.023 108.519 168.023 108.519H164.516C164.58 109.265 165.197 109.891 166.127 109.891C166.698 109.891 167.25 109.661 167.802 109.182ZM164.534 107.866H167.241C167.176 107.157 166.652 106.623 165.915 106.623C165.17 106.623 164.59 107.258 164.534 107.866ZM168.494 106.641L170.031 104.984H170.059V106.034H171.311V106.743H170.059V109.109C170.059 109.633 170.289 109.873 170.805 109.873C170.98 109.873 171.173 109.827 171.311 109.735V110.471C171.155 110.554 170.924 110.609 170.621 110.609C169.774 110.609 169.267 110.084 169.267 109.219V106.743H168.494V106.641ZM178.188 104.064H178.97V110.508H178.188V109.799C177.866 110.287 177.258 110.609 176.605 110.609C175.334 110.609 174.358 109.596 174.358 108.271C174.358 106.954 175.334 105.933 176.605 105.933C177.258 105.933 177.857 106.218 178.188 106.706V104.064ZM178.234 108.271C178.234 107.369 177.571 106.66 176.697 106.66C175.822 106.66 175.159 107.369 175.159 108.271C175.159 109.173 175.822 109.882 176.697 109.882C177.571 109.882 178.234 109.173 178.234 108.271ZM182.489 105.933C183.833 105.933 184.827 106.973 184.827 108.271C184.827 109.569 183.833 110.609 182.489 110.609C181.145 110.609 180.151 109.569 180.151 108.271C180.151 106.973 181.145 105.933 182.489 105.933ZM182.489 106.66C181.614 106.66 180.951 107.378 180.951 108.271C180.951 109.164 181.614 109.882 182.489 109.882C183.363 109.882 184.026 109.164 184.026 108.271C184.026 107.378 183.363 106.66 182.489 106.66ZM186.004 104.064H186.796V110.508H186.004V104.064ZM190.315 105.933C191.659 105.933 192.654 106.973 192.654 108.271C192.654 109.569 191.659 110.609 190.315 110.609C188.971 110.609 187.977 109.569 187.977 108.271C187.977 106.973 188.971 105.933 190.315 105.933ZM190.315 106.66C189.441 106.66 188.778 107.378 188.778 108.271C188.778 109.164 189.441 109.882 190.315 109.882C191.19 109.882 191.853 109.164 191.853 108.271C191.853 107.378 191.19 106.66 190.315 106.66ZM196.169 105.979V106.77C196.169 106.77 196.086 106.752 195.948 106.752C195.12 106.752 194.613 107.415 194.613 108.381V110.508H193.831V106.034H194.604V106.826C194.807 106.31 195.387 105.96 195.976 105.96C196.086 105.96 196.169 105.979 196.169 105.979ZM200.754 109.182V110.038C200.257 110.397 199.649 110.609 199.023 110.609C197.596 110.609 196.676 109.587 196.676 108.271C196.676 106.936 197.596 105.933 198.885 105.933C200.137 105.933 200.993 106.964 200.993 108.234C200.993 108.409 200.975 108.519 200.975 108.519H197.467C197.532 109.265 198.149 109.891 199.078 109.891C199.649 109.891 200.202 109.661 200.754 109.182ZM197.486 107.866H200.192C200.128 107.157 199.603 106.623 198.867 106.623C198.121 106.623 197.541 107.258 197.486 107.866ZM205.203 108.16V110.508H204.411V106.034H205.194V106.678C205.442 106.218 205.893 105.933 206.51 105.933C207.173 105.933 207.651 106.264 207.918 106.807C208.139 106.43 208.6 105.933 209.447 105.933C210.478 105.933 211.094 106.66 211.094 107.811V110.508H210.303V107.949C210.303 107.157 209.962 106.66 209.29 106.66C208.6 106.66 208.149 107.249 208.149 108.16V110.508H207.357V107.967C207.357 107.166 207.007 106.66 206.344 106.66C205.654 106.66 205.203 107.249 205.203 108.16ZM215.064 107.663V107.553C215.064 106.991 214.668 106.651 214.006 106.651C213.398 106.651 212.947 106.899 212.487 107.323V106.494C212.892 106.163 213.38 105.933 214.024 105.933C215.175 105.933 215.837 106.568 215.837 107.608V110.508H215.092V109.919C214.742 110.37 214.199 110.609 213.61 110.609C212.818 110.609 212.257 110.066 212.257 109.329C212.257 108.529 212.763 108.05 213.748 107.884L215.064 107.663ZM213.048 109.283C213.048 109.661 213.343 109.909 213.757 109.909C214.521 109.909 215.073 109.412 215.073 108.722V108.345L213.877 108.556C213.343 108.657 213.048 108.897 213.048 109.283ZM217.088 107.58C217.088 106.605 217.889 105.933 218.819 105.933C219.03 105.933 219.233 105.969 219.426 106.034H220.964V106.715H220.301C220.457 106.964 220.549 107.258 220.549 107.58C220.549 108.565 219.748 109.219 218.819 109.219C218.543 109.219 218.285 109.164 218.045 109.063C217.742 109.155 217.65 109.329 217.65 109.495C217.65 109.762 217.889 109.863 218.248 109.863H219.491C220.448 109.863 221.056 110.268 221.056 111.005C221.056 112.045 219.951 112.533 218.745 112.533C217.594 112.533 216.747 112.165 216.747 111.272C216.747 110.848 217.033 110.508 217.318 110.324C217.07 110.149 216.959 109.891 216.959 109.606C216.959 109.109 217.263 108.869 217.53 108.704C217.254 108.427 217.088 108.041 217.088 107.58ZM220.319 111.079C220.319 110.692 219.979 110.563 219.307 110.563H218.202C218.091 110.563 217.999 110.554 217.907 110.545C217.631 110.692 217.475 110.913 217.475 111.18C217.475 111.695 218.045 111.907 218.763 111.907C219.666 111.907 220.319 111.612 220.319 111.079ZM217.815 107.58C217.815 108.17 218.257 108.565 218.819 108.565C219.38 108.565 219.822 108.17 219.822 107.58C219.822 107.01 219.38 106.595 218.819 106.595C218.257 106.595 217.815 107.01 217.815 107.58ZM222.777 108.17V110.508H221.985V106.034H222.777V106.678C223.053 106.236 223.532 105.933 224.204 105.933C225.345 105.933 226.008 106.697 226.008 107.884V110.508H225.217V107.976C225.217 107.175 224.802 106.669 224.038 106.669C223.274 106.669 222.777 107.258 222.777 108.17ZM229.978 107.663V107.553C229.978 106.991 229.582 106.651 228.919 106.651C228.311 106.651 227.86 106.899 227.4 107.323V106.494C227.805 106.163 228.293 105.933 228.937 105.933C230.088 105.933 230.751 106.568 230.751 107.608V110.508H230.005V109.919C229.655 110.37 229.112 110.609 228.523 110.609C227.731 110.609 227.17 110.066 227.17 109.329C227.17 108.529 227.676 108.05 228.661 107.884L229.978 107.663ZM227.962 109.283C227.962 109.661 228.256 109.909 228.67 109.909C229.434 109.909 229.987 109.412 229.987 108.722V108.345L228.79 108.556C228.256 108.657 227.962 108.897 227.962 109.283ZM237.04 107.663V107.553C237.04 106.991 236.644 106.651 235.981 106.651C235.374 106.651 234.923 106.899 234.462 107.323V106.494C234.867 106.163 235.355 105.933 236 105.933C237.15 105.933 237.813 106.568 237.813 107.608V110.508H237.068V109.919C236.718 110.37 236.175 110.609 235.586 110.609C234.794 110.609 234.232 110.066 234.232 109.329C234.232 108.529 234.739 108.05 235.724 107.884L237.04 107.663ZM235.024 109.283C235.024 109.661 235.319 109.909 235.733 109.909C236.497 109.909 237.049 109.412 237.049 108.722V108.345L235.852 108.556C235.319 108.657 235.024 108.897 235.024 109.283ZM239.239 104.064H240.03V110.508H239.239V104.064ZM242.464 104.708C242.464 105.003 242.224 105.242 241.93 105.242C241.635 105.242 241.396 105.003 241.396 104.708C241.396 104.414 241.635 104.174 241.93 104.174C242.224 104.174 242.464 104.414 242.464 104.708ZM241.534 106.034H242.326V110.508H241.534V106.034ZM247.336 106.034H248.119V112.423H247.336V109.799C247.014 110.287 246.407 110.609 245.753 110.609C244.483 110.609 243.507 109.596 243.507 108.271C243.507 106.954 244.483 105.933 245.753 105.933C246.407 105.933 247.005 106.218 247.336 106.706V106.034ZM247.382 108.271C247.382 107.369 246.72 106.66 245.845 106.66C244.97 106.66 244.308 107.369 244.308 108.271C244.308 109.173 244.97 109.882 245.845 109.882C246.72 109.882 247.382 109.173 247.382 108.271ZM252.76 108.372V106.034H253.552V110.508H252.76V109.863C252.484 110.305 252.015 110.609 251.343 110.609C250.21 110.609 249.557 109.845 249.557 108.657V106.034H250.348V108.565C250.348 109.366 250.753 109.873 251.508 109.873C252.263 109.873 252.76 109.283 252.76 108.372ZM257.631 107.663V107.553C257.631 106.991 257.235 106.651 256.573 106.651C255.965 106.651 255.514 106.899 255.054 107.323V106.494C255.459 106.163 255.947 105.933 256.591 105.933C257.742 105.933 258.405 106.568 258.405 107.608V110.508H257.659V109.919C257.309 110.37 256.766 110.609 256.177 110.609C255.385 110.609 254.824 110.066 254.824 109.329C254.824 108.529 255.33 108.05 256.315 107.884L257.631 107.663ZM255.615 109.283C255.615 109.661 255.91 109.909 256.324 109.909C257.088 109.909 257.641 109.412 257.641 108.722V108.345L256.444 108.556C255.91 108.657 255.615 108.897 255.615 109.283ZM260.815 110.029C260.815 110.342 260.567 110.591 260.254 110.591C259.941 110.591 259.692 110.342 259.692 110.029C259.692 109.725 259.941 109.477 260.254 109.477C260.567 109.477 260.815 109.725 260.815 110.029Z" fill="#242B42"/>
</g>
<defs>
<filter id="filter0_d_2274_15060" x="46.7768" y="23.9037" width="268.446" height="124.456" filterUnits="userSpaceOnUse" color-interpolation-filters="sRGB">
<feFlood flood-opacity="0" result="BackgroundImageFix"/>
<feColorMatrix in="SourceAlpha" type="matrix" values="0 0 0 0 0 0 0 0 0 0 0 0 0 0 0 0 0 0 127 0" result="hardAlpha"/>
<feOffset dy="7.1269"/>
<feGaussianBlur stdDeviation="8.31472"/>
<feColorMatrix type="matrix" values="0 0 0 0 0.235294 0 0 0 0 0.415686 0 0 0 0 0.67451 0 0 0 0.18 0"/>
<feBlend mode="normal" in2="BackgroundImageFix" result="effect1_dropShadow_2274_15060"/>
<feBlend mode="normal" in="SourceGraphic" in2="effect1_dropShadow_2274_15060" result="shape"/>
</filter>
</defs>
</svg>
