<svg width="362" height="159" viewBox="0 0 362 159" fill="none" xmlns="http://www.w3.org/2000/svg">
<g clip-path="url(#clip0_2274_15055)">
<g filter="url(#filter0_d_2274_15055)">
<g clip-path="url(#clip1_2274_15055)">
<mask id="path-1-inside-1_2274_15055" fill="white">
<path d="M73 17.3618C73 15.5052 74.5052 14 76.3618 14H285.357C287.213 14 288.719 15.5052 288.719 17.3618V51.3165C288.719 53.1732 287.213 54.6784 285.357 54.6784H76.3618C74.5051 54.6784 73 53.1732 73 51.3165V17.3618Z"/>
</mask>
<path d="M73 17.3618C73 15.5052 74.5052 14 76.3618 14H285.357C287.213 14 288.719 15.5052 288.719 17.3618V51.3165C288.719 53.1732 287.213 54.6784 285.357 54.6784H76.3618C74.5051 54.6784 73 53.1732 73 51.3165V17.3618Z" fill="white"/>
<rect width="2.24123" height="39.5577" transform="translate(73.5596 14.5605)" fill="#0056CF"/>
<path d="M81.2488 33.0285C81.2001 33.0294 81.1519 33.0166 81.1068 32.9907C81.0618 32.9649 81.0209 32.9265 80.9865 32.878C80.9521 32.8294 80.9249 32.7716 80.9066 32.7079C80.8883 32.6443 80.8793 32.5761 80.8799 32.5074C80.8799 32.2309 81.0412 31.9863 81.2488 31.9863C81.4448 31.9863 81.6176 32.2309 81.6176 32.5074C81.6176 32.8006 81.4448 33.0285 81.2488 33.0285ZM81.2488 35.6339C81.2001 35.6349 81.1519 35.622 81.1068 35.5962C81.0618 35.5703 81.0209 35.532 80.9865 35.4834C80.9521 35.4348 80.9249 35.377 80.9066 35.3134C80.8883 35.2497 80.8793 35.1815 80.8799 35.1128C80.8799 34.8363 81.0412 34.5918 81.2488 34.5918C81.4448 34.5918 81.6176 34.8363 81.6176 35.1128C81.6176 35.406 81.4448 35.6339 81.2488 35.6339ZM81.6176 37.7183C81.6176 38.0115 81.4448 38.2394 81.2488 38.2394C81.2001 38.2403 81.1519 38.2275 81.1068 38.2016C81.0618 38.1757 81.0209 38.1374 80.9865 38.0888C80.9521 38.0403 80.9249 37.9824 80.9066 37.9188C80.8883 37.8551 80.8793 37.787 80.8799 37.7183C80.8799 37.4418 81.0412 37.1972 81.2488 37.1972C81.4448 37.1972 81.6176 37.4418 81.6176 37.7183ZM82.7242 33.0285C82.6756 33.0294 82.6273 33.0166 82.5822 32.9907C82.5372 32.9649 82.4963 32.9265 82.4619 32.878C82.4275 32.8294 82.4004 32.7716 82.3821 32.7079C82.3637 32.6443 82.3547 32.5761 82.3553 32.5074C82.3553 32.2309 82.5169 31.9863 82.7242 31.9863C82.9202 31.9863 83.093 32.2309 83.093 32.5074C83.093 32.8006 82.9202 33.0285 82.7242 33.0285ZM83.093 35.1128C83.093 35.406 82.9202 35.6339 82.7242 35.6339C82.6756 35.6349 82.6273 35.622 82.5822 35.5962C82.5372 35.5703 82.4963 35.532 82.4619 35.4834C82.4275 35.4348 82.4004 35.377 82.3821 35.3134C82.3637 35.2497 82.3547 35.1815 82.3553 35.1128C82.3553 34.8363 82.5169 34.5918 82.7242 34.5918C82.9202 34.5918 83.093 34.8363 83.093 35.1128ZM82.7242 38.2394C82.6756 38.2403 82.6273 38.2275 82.5822 38.2016C82.5372 38.1757 82.4963 38.1374 82.4619 38.0888C82.4275 38.0403 82.4004 37.9824 82.3821 37.9188C82.3637 37.8551 82.3547 37.787 82.3553 37.7183C82.3553 37.4418 82.5169 37.1972 82.7242 37.1972C82.9202 37.1972 83.093 37.4418 83.093 37.7183C83.093 38.0115 82.9202 38.2394 82.7242 38.2394Z" fill="#687887"/>
<path d="M94.8979 26.6227C94.4723 26.6227 93.9947 26.5445 93.6299 26.3274V24.9465C93.9773 25.207 94.4202 25.3721 94.8023 25.3721C95.3668 25.3721 95.6361 25.0334 95.6361 24.4602V20.4304H96.9562V24.5644C96.9562 25.8324 96.1832 26.6227 94.8979 26.6227ZM97.8556 24.3646C97.8556 23.088 98.8543 22.1066 100.183 22.1066C101.512 22.1066 102.511 23.088 102.511 24.3646C102.511 25.6413 101.512 26.6227 100.183 26.6227C98.8543 26.6227 97.8556 25.6413 97.8556 24.3646ZM99.1062 24.3646C99.1062 24.9812 99.5925 25.4676 100.183 25.4676C100.774 25.4676 101.26 24.9812 101.26 24.3646C101.26 23.748 100.774 23.2617 100.183 23.2617C99.5925 23.2617 99.1062 23.748 99.1062 24.3646ZM107.203 25.0768V26.2232C106.787 26.4663 106.231 26.6227 105.553 26.6227C104.086 26.6227 103.182 25.676 103.182 24.3473C103.182 23.0619 104.086 22.1066 105.362 22.1066C106.674 22.1066 107.464 23.0098 107.464 24.3386C107.464 24.4688 107.447 24.6165 107.438 24.7207H104.433C104.529 25.2157 104.971 25.5631 105.692 25.5631C106.205 25.5631 106.691 25.4155 107.203 25.0768ZM104.416 23.887H106.248C106.205 23.4093 105.849 23.088 105.354 23.088C104.859 23.088 104.476 23.4527 104.416 23.887ZM110.426 26.5098V20.4304H112.649C113.77 20.4304 114.577 21.0384 114.577 22.0718C114.577 22.6103 114.308 23.0359 113.865 23.2617C114.56 23.5048 114.942 24.0259 114.942 24.7294C114.942 25.841 114.108 26.5098 112.78 26.5098H110.426ZM111.703 25.4155H112.701C113.257 25.4155 113.622 25.1549 113.622 24.6599C113.622 24.1736 113.249 23.9043 112.701 23.9043H111.703V25.4155ZM111.703 22.8535H112.519C112.971 22.8535 113.301 22.619 113.301 22.1847C113.301 21.7418 112.971 21.516 112.519 21.516H111.703V22.8535ZM115.853 20.4304H117.121V26.5098H115.853V20.4304ZM121.875 26.5098H120.702L120.685 25.9713C120.433 26.4142 119.938 26.6227 119.426 26.6227C118.627 26.6227 118.079 26.119 118.079 25.3634C118.079 24.5731 118.609 24.0867 119.677 23.9304L120.65 23.7914V23.7393C120.65 23.3832 120.364 23.1748 119.782 23.1748C119.226 23.1748 118.731 23.3919 118.34 23.748V22.5408C118.713 22.289 119.252 22.1066 119.912 22.1066C121.154 22.1066 121.875 22.7058 121.875 23.8175V26.5098ZM119.278 25.2592C119.287 25.5023 119.486 25.6587 119.773 25.6587C120.303 25.6587 120.65 25.2765 120.65 24.7902V24.6425L119.895 24.7641C119.486 24.8249 119.278 25.0073 119.278 25.2592ZM122.718 24.3646C122.718 23.0706 123.664 22.1066 125.01 22.1066C125.384 22.1066 125.775 22.1934 126.087 22.3758V23.5656C125.792 23.3572 125.488 23.253 125.158 23.253C124.498 23.253 123.994 23.7133 123.994 24.3646C123.994 25.0073 124.489 25.4763 125.158 25.4763C125.497 25.4763 125.827 25.3373 126.096 25.1463V26.3448C125.749 26.5358 125.367 26.6227 124.993 26.6227C123.673 26.6227 122.718 25.7108 122.718 24.3646ZM129.691 22.2195H131.202L129.43 24.1215L131.315 26.5098H129.795L128.484 24.7989L128.267 25.016V26.5098H127.007V20.4304H128.267V23.748L129.691 22.2195Z" fill="#242B42"/>
<path d="M135.886 21.2822C135.886 20.0444 136.889 19.041 138.127 19.041H163.173C164.411 19.041 165.414 20.0444 165.414 21.2822V26.0449C165.414 27.2827 164.411 28.2861 163.173 28.2861H138.127C136.889 28.2861 135.886 27.2827 135.886 26.0449V21.2822Z" fill="#0056CF" fill-opacity="0.1"/>
<path d="M141.129 24.7775C141.129 25.5788 140.494 26.1211 139.526 26.1211C139.113 26.1211 138.725 26.0164 138.373 25.8006V24.8761C138.725 25.1535 139.082 25.2891 139.452 25.2891C139.902 25.2891 140.216 25.0857 140.216 24.7282C140.216 24.4139 139.92 24.1982 139.483 24.1982H139.082V23.4832H139.464C139.822 23.4832 140.068 23.286 140.068 23.0271C140.068 22.7313 139.779 22.5587 139.434 22.5587C139.095 22.5587 138.786 22.6881 138.46 22.9532V22.0471C138.768 21.8376 139.132 21.7328 139.508 21.7328C140.346 21.7328 140.962 22.1766 140.962 22.9162C140.962 23.3106 140.759 23.6065 140.438 23.7852C140.876 23.964 141.129 24.3153 141.129 24.7775ZM141.645 25.7945V24.8638C142.009 25.1473 142.378 25.2829 142.748 25.2829C143.198 25.2829 143.568 25.061 143.568 24.6419C143.568 24.2413 143.204 24.0256 142.711 24.0256C142.372 24.0256 142.046 24.1119 141.744 24.2536L141.867 21.8068H144.24V22.5957H142.613L142.576 23.323C142.668 23.2921 142.828 23.2675 142.995 23.2675C143.845 23.2675 144.486 23.8099 144.486 24.6358C144.486 25.5664 143.771 26.115 142.804 26.1211C142.385 26.1211 141.996 26.0102 141.645 25.7945ZM145.091 24.8022V23.9948H147.044V24.8022H145.091ZM148.896 26.041H147.984V22.7929L147.22 23.0888V22.1951L148.175 21.8068H148.896V26.041ZM152.484 26.041H149.612V25.3939L150.999 24.0194C151.394 23.6373 151.504 23.4401 151.504 23.1565C151.504 22.8176 151.215 22.5772 150.808 22.5772C150.414 22.5772 150.044 22.7991 149.711 23.1627V22.1951C150.038 21.8992 150.463 21.7328 150.882 21.7328C151.733 21.7328 152.417 22.2505 152.417 23.0579C152.417 23.6188 152.182 24.0318 151.646 24.5248L150.888 25.2274H152.484V26.041ZM155.758 24.7775C155.758 25.5788 155.124 26.1211 154.156 26.1211C153.743 26.1211 153.355 26.0164 153.003 25.8006V24.8761C153.355 25.1535 153.712 25.2891 154.082 25.2891C154.532 25.2891 154.846 25.0857 154.846 24.7282C154.846 24.4139 154.55 24.1982 154.113 24.1982H153.712V23.4832H154.094C154.452 23.4832 154.698 23.286 154.698 23.0271C154.698 22.7313 154.409 22.5587 154.063 22.5587C153.724 22.5587 153.416 22.6881 153.09 22.9532V22.0471C153.398 21.8376 153.761 21.7328 154.137 21.7328C154.976 21.7328 155.592 22.1766 155.592 22.9162C155.592 23.3106 155.389 23.6065 155.068 23.7852C155.506 23.964 155.758 24.3153 155.758 24.7775ZM156.163 25.172V24.5433L157.987 21.8129H159.084V24.4139H159.676V25.172H159.084V26.041H158.215V25.172H156.163ZM157.143 24.4139H158.221V22.7806L157.143 24.4139ZM160.111 25.7945V24.8638C160.474 25.1473 160.844 25.2829 161.214 25.2829C161.664 25.2829 162.034 25.061 162.034 24.6419C162.034 24.2413 161.67 24.0256 161.177 24.0256C160.838 24.0256 160.511 24.1119 160.209 24.2536L160.333 21.8068H162.706V22.5957H161.078L161.041 23.323C161.134 23.2921 161.294 23.2675 161.461 23.2675C162.311 23.2675 162.952 23.8099 162.952 24.6358C162.952 25.5664 162.237 26.115 161.27 26.1211C160.85 26.1211 160.462 26.0102 160.111 25.7945Z" fill="#0056CF"/>
<path d="M95.2492 31.7698C96.0022 31.7698 96.6612 32.2471 96.6612 32.9867C96.6612 33.491 96.3451 33.8541 95.9955 33.9818C96.3788 34.1163 96.8427 34.4996 96.8427 35.1518C96.8427 36.0124 96.0762 36.5369 95.2492 36.5369C94.4222 36.5369 93.6557 36.0124 93.6557 35.1518C93.6557 34.4996 94.1196 34.1163 94.5029 33.9818C94.1532 33.8541 93.8372 33.491 93.8372 32.9867C93.8372 32.2471 94.4961 31.7698 95.2492 31.7698ZM96.251 35.1249C96.251 34.6139 95.8005 34.271 95.2492 34.271C94.6978 34.271 94.2474 34.6139 94.2474 35.1249C94.2474 35.6426 94.7113 35.9855 95.2492 35.9855C95.7871 35.9855 96.251 35.6426 96.251 35.1249ZM95.2492 32.3144C94.8121 32.3144 94.4154 32.5968 94.4154 33.0271C94.4154 33.4574 94.8121 33.7398 95.2492 33.7398C95.6862 33.7398 96.0829 33.4574 96.0829 33.0271C96.0829 32.5968 95.6862 32.3144 95.2492 32.3144ZM98.3931 33.6793C98.3931 33.9079 98.2115 34.0894 97.9829 34.0894C97.7543 34.0894 97.5728 33.9079 97.5728 33.6793C97.5728 33.4574 97.7543 33.2759 97.9829 33.2759C98.2115 33.2759 98.3931 33.4574 98.3931 33.6793ZM98.3931 36.1133C98.3931 36.3419 98.2115 36.5234 97.9829 36.5234C97.7543 36.5234 97.5728 36.3419 97.5728 36.1133C97.5728 35.8914 97.7543 35.7098 97.9829 35.7098C98.2115 35.7098 98.3931 35.8914 98.3931 36.1133ZM101.095 36.5369C99.8375 36.5369 99.2324 35.4005 99.2324 34.1567C99.2324 32.9061 99.8375 31.7698 101.095 31.7698C102.352 31.7698 102.957 32.9061 102.957 34.1567C102.957 35.4005 102.352 36.5369 101.095 36.5369ZM101.095 35.9788C101.969 35.9788 102.359 35.098 102.359 34.1567C102.359 33.2153 101.969 32.3278 101.095 32.3278C100.221 32.3278 99.8308 33.2153 99.8308 34.1567C99.8308 35.098 100.221 35.9788 101.095 35.9788ZM105.599 36.5369C104.342 36.5369 103.737 35.4005 103.737 34.1567C103.737 32.9061 104.342 31.7698 105.599 31.7698C106.856 31.7698 107.461 32.9061 107.461 34.1567C107.461 35.4005 106.856 36.5369 105.599 36.5369ZM105.599 35.9788C106.473 35.9788 106.863 35.098 106.863 34.1567C106.863 33.2153 106.473 32.3278 105.599 32.3278C104.725 32.3278 104.335 33.2153 104.335 34.1567C104.335 35.098 104.725 35.9788 105.599 35.9788ZM109.888 31.7563H110.359L112.295 36.4629H111.663L111.112 35.098H109.115L108.563 36.4629H107.945L109.888 31.7563ZM110.11 32.5968L109.33 34.5534H110.897L110.11 32.5968ZM114.445 34.6946C114.445 34.3785 114.721 34.1096 115.037 34.1096C115.359 34.1096 115.628 34.3785 115.628 34.6946C115.628 35.0038 115.359 35.2728 115.037 35.2728C114.721 35.2728 114.445 35.0038 114.445 34.6946ZM117.834 32.3076V31.7563H121.182V32.3076H119.811V36.4629H119.205V32.3076H117.834ZM122.815 33.1212C123.797 33.1212 124.523 33.881 124.523 34.829C124.523 35.7771 123.797 36.5369 122.815 36.5369C121.834 36.5369 121.107 35.7771 121.107 34.829C121.107 33.881 121.834 33.1212 122.815 33.1212ZM122.815 33.6524C122.177 33.6524 121.692 34.1768 121.692 34.829C121.692 35.4812 122.177 36.0057 122.815 36.0057C123.454 36.0057 123.938 35.4812 123.938 34.829C123.938 34.1768 123.454 33.6524 122.815 33.6524ZM128.757 36.4629H128.314L127.453 34.0424L126.592 36.4629H126.149L124.932 33.1952H125.53L126.384 35.6426L127.251 33.1952H127.668L128.536 35.6426L129.389 33.1952H129.974L128.757 36.4629ZM131.264 34.7551V36.4629H130.686V33.1952H131.264V33.6658C131.466 33.3431 131.816 33.1212 132.306 33.1212C133.14 33.1212 133.624 33.6793 133.624 34.5466V36.4629H133.046V34.6139C133.046 34.0289 132.743 33.6591 132.185 33.6591C131.627 33.6591 131.264 34.0894 131.264 34.7551ZM134.436 36.2007V35.5619C134.732 35.8309 135.115 36.0191 135.512 36.0191C135.842 36.0191 136.144 35.9048 136.144 35.5686C136.144 35.2325 135.828 35.1182 135.418 35.0307C134.947 34.9299 134.43 34.7416 134.43 34.1096C134.43 33.4507 134.988 33.1212 135.573 33.1212C135.922 33.1212 136.272 33.2288 136.561 33.4238V34.0356C136.272 33.8003 135.936 33.6322 135.586 33.6322C135.31 33.6322 134.994 33.7398 134.994 34.0424C134.994 34.3382 135.277 34.466 135.653 34.5601C136.258 34.708 136.716 34.9299 136.716 35.5216C136.716 36.1872 136.158 36.5369 135.505 36.5369C135.149 36.5369 134.746 36.4293 134.436 36.2007ZM138.099 34.7551V36.4629H137.521V31.7563H138.099V33.6658C138.301 33.3431 138.65 33.1212 139.141 33.1212C139.975 33.1212 140.459 33.6793 140.459 34.5466V36.4629H139.881V34.6139C139.881 34.0289 139.578 33.6591 139.02 33.6591C138.462 33.6591 138.099 34.0894 138.099 34.7551ZM142.192 32.227C142.192 32.4421 142.017 32.6169 141.802 32.6169C141.587 32.6169 141.412 32.4421 141.412 32.227C141.412 32.0118 141.587 31.837 141.802 31.837C142.017 31.837 142.192 32.0118 142.192 32.227ZM141.513 33.1952H142.091V36.4629H141.513V33.1952ZM143.765 37.8614H143.194V33.1952H143.765V33.7129C144 33.3565 144.444 33.1212 144.922 33.1212C145.849 33.1212 146.562 33.8608 146.562 34.829C146.562 35.7905 145.849 36.5369 144.922 36.5369C144.444 36.5369 144.007 36.3284 143.765 35.9721V37.8614ZM145.977 34.829C145.977 34.1701 145.493 33.6524 144.854 33.6524C144.216 33.6524 143.731 34.1701 143.731 34.829C143.731 35.488 144.216 36.0057 144.854 36.0057C145.493 36.0057 145.977 35.488 145.977 34.829ZM152.592 31.7563H153.17V36.4629H152.606L149.748 32.664V36.4629H149.17V31.7563H149.782L152.592 35.5081V31.7563ZM156.225 34.3853V34.3046C156.225 33.8944 155.936 33.6457 155.452 33.6457C155.008 33.6457 154.678 33.8272 154.342 34.1365V33.5314C154.638 33.2893 154.994 33.1212 155.465 33.1212C156.305 33.1212 156.79 33.5851 156.79 34.3449V36.4629H156.245V36.0326C155.989 36.362 155.593 36.5369 155.162 36.5369C154.584 36.5369 154.174 36.1402 154.174 35.6023C154.174 35.0173 154.544 34.6677 155.263 34.5466L156.225 34.3853ZM154.752 35.5686C154.752 35.8443 154.967 36.0259 155.27 36.0259C155.828 36.0259 156.232 35.6628 156.232 35.1585V34.8828L155.357 35.0375C154.967 35.1114 154.752 35.2862 154.752 35.5686ZM158.413 34.7483V36.4629H157.835V33.1952H158.407V33.6658C158.588 33.3296 158.918 33.1212 159.368 33.1212C159.852 33.1212 160.202 33.3633 160.397 33.76C160.558 33.4843 160.894 33.1212 161.513 33.1212C162.266 33.1212 162.717 33.6524 162.717 34.4928V36.4629H162.138V34.5937C162.138 34.0155 161.89 33.6524 161.399 33.6524C160.894 33.6524 160.565 34.0827 160.565 34.7483V36.4629H159.987V34.6072C159.987 34.0222 159.731 33.6524 159.247 33.6524C158.743 33.6524 158.413 34.0827 158.413 34.7483ZM166.514 35.4947V36.12C166.151 36.3822 165.707 36.5369 165.25 36.5369C164.208 36.5369 163.535 35.7905 163.535 34.829C163.535 33.8541 164.208 33.1212 165.149 33.1212C166.063 33.1212 166.689 33.8743 166.689 34.8021C166.689 34.9299 166.675 35.0106 166.675 35.0106H164.114C164.161 35.5552 164.611 36.0124 165.29 36.0124C165.707 36.0124 166.111 35.8443 166.514 35.4947ZM164.127 34.5332H166.104C166.057 34.0155 165.673 33.6255 165.136 33.6255C164.591 33.6255 164.167 34.0894 164.127 34.5332ZM169.026 34.6946C169.026 34.3785 169.301 34.1096 169.617 34.1096C169.94 34.1096 170.209 34.3785 170.209 34.6946C170.209 35.0038 169.94 35.2728 169.617 35.2728C169.301 35.2728 169.026 35.0038 169.026 34.6946ZM172.556 33.4036C172.556 32.4892 173.289 31.7698 174.223 31.7698C175.185 31.7698 175.897 32.4757 175.897 33.4103C175.897 33.8003 175.756 34.2306 175.38 34.7954L174.277 36.4629H173.564L174.667 34.829C174.532 34.9097 174.358 34.9635 174.116 34.9635C173.221 34.9635 172.556 34.2642 172.556 33.4036ZM173.154 33.3767C173.154 33.9818 173.632 34.4323 174.223 34.4323C174.828 34.4323 175.299 33.9818 175.299 33.3834C175.299 32.7985 174.835 32.3278 174.23 32.3278C173.632 32.3278 173.154 32.7985 173.154 33.3767ZM178.445 36.5369C177.188 36.5369 176.583 35.4005 176.583 34.1567C176.583 32.9061 177.188 31.7698 178.445 31.7698C179.703 31.7698 180.308 32.9061 180.308 34.1567C180.308 35.4005 179.703 36.5369 178.445 36.5369ZM178.445 35.9788C179.319 35.9788 179.709 35.098 179.709 34.1567C179.709 33.2153 179.319 32.3278 178.445 32.3278C177.571 32.3278 177.181 33.2153 177.181 34.1567C177.181 35.098 177.571 35.9788 178.445 35.9788ZM180.855 36.4629V36.0527L182.576 34.2306C182.973 33.8138 183.094 33.5246 183.094 33.1683C183.094 32.6909 182.677 32.3278 182.139 32.3278C181.715 32.3278 181.278 32.6102 180.909 33.0674V32.3614C181.231 31.9984 181.709 31.7698 182.146 31.7698C183.033 31.7698 183.686 32.3413 183.686 33.1414C183.686 33.6927 183.47 34.0961 182.973 34.6206L181.742 35.9115H183.746V36.4629H180.855ZM185.733 36.4629H185.142V32.5094L184.308 32.8523V32.2471L185.249 31.8437H185.733V36.4629ZM188.609 36.5369C187.352 36.5369 186.747 35.4005 186.747 34.1567C186.747 32.9061 187.352 31.7698 188.609 31.7698C189.866 31.7698 190.472 32.9061 190.472 34.1567C190.472 35.4005 189.866 36.5369 188.609 36.5369ZM188.609 35.9788C189.483 35.9788 189.873 35.098 189.873 34.1567C189.873 33.2153 189.483 32.3278 188.609 32.3278C187.735 32.3278 187.345 33.2153 187.345 34.1567C187.345 35.098 187.735 35.9788 188.609 35.9788Z" fill="#4B546B"/>
<path d="M97.3748 41.0818L100.186 43.4646C100.062 43.4396 99.935 43.4269 99.808 43.4267C99.6189 43.4267 99.4549 43.452 99.2784 43.4897L97.1858 41.7122L94.9669 43.5905V46.4527C94.9669 46.6796 95.1434 46.8561 95.3704 46.8561H95.9755V44.9398C95.9746 44.8734 95.987 44.8074 96.012 44.7458C96.0371 44.6842 96.0742 44.6282 96.1212 44.5812C96.1682 44.5342 96.2241 44.4971 96.2857 44.4721C96.3473 44.4471 96.4133 44.4346 96.4798 44.4355H97.8917C97.9044 44.4355 97.917 44.4355 97.9423 44.4482C97.8159 44.6246 97.728 44.8263 97.6648 45.0407H96.5806V46.8561H97.9423C98.0935 47.0954 98.2952 47.3101 98.5222 47.4612H95.3704C94.8029 47.4612 94.3618 47.0201 94.3618 46.4527V44.1074L94.0466 44.3723C93.9837 44.4217 93.9044 44.4453 93.8247 44.4382C93.7451 44.4312 93.6711 44.3941 93.6179 44.3344C93.5685 44.2715 93.545 44.1922 93.552 44.1126C93.559 44.0329 93.5962 43.959 93.6558 43.9057L96.984 41.0818C97.0401 41.0389 97.1088 41.0156 97.1794 41.0156C97.2501 41.0156 97.3187 41.0389 97.3748 41.0818ZM99.808 47.4612C99.4885 47.4629 99.1742 47.3798 98.8973 47.2203C98.6204 47.0608 98.3908 46.8307 98.232 46.5535C97.9044 45.9987 97.9044 45.3056 98.232 44.7381C98.5601 44.1833 99.1523 43.8304 99.808 43.8304C100.451 43.8304 101.044 44.1835 101.371 44.7381C101.699 45.3056 101.699 45.9989 101.371 46.5535C101.214 46.8292 100.986 47.0584 100.712 47.2178C100.437 47.3772 100.125 47.4612 99.808 47.4612ZM99.808 46.2509C99.7681 46.2504 99.7285 46.2579 99.6916 46.2729C99.6546 46.2879 99.621 46.3102 99.5928 46.3384C99.5646 46.3666 99.5424 46.4001 99.5274 46.4371C99.5123 46.474 99.5049 46.5136 99.5054 46.5535C99.5054 46.7299 99.6316 46.8561 99.808 46.8561C99.8479 46.8566 99.8875 46.8492 99.9244 46.8342C99.9614 46.8191 99.9949 46.7969 100.023 46.7687C100.051 46.7405 100.074 46.7069 100.089 46.6699C100.104 46.633 100.111 46.5934 100.111 46.5535C100.11 46.4736 100.077 46.3972 100.021 46.3407C99.9643 46.2842 99.8879 46.252 99.808 46.2509ZM99.808 44.4355C99.6945 44.4355 99.6063 44.5364 99.6063 44.6373V45.6458C99.6063 45.7593 99.6945 45.8475 99.808 45.8475C99.9089 45.8475 100.01 45.7593 100.01 45.6458V44.6373C100.01 44.5364 99.9089 44.4355 99.808 44.4355Z" fill="#DA0014"/>
<path d="M105.41 46.7988H108.184C108.332 47.0352 108.525 47.2407 108.751 47.404H105.41C104.956 47.404 104.604 47.0508 104.604 46.5971V41.7561C104.604 41.315 104.957 40.9492 105.41 40.9492H107.49C107.705 40.9492 107.906 41.0374 108.058 41.1886L109.205 42.3359C109.356 42.4873 109.445 42.689 109.445 42.9034V43.458C109.218 43.5212 109.016 43.6094 108.839 43.7352V42.9663H107.831C107.778 42.9671 107.725 42.9571 107.676 42.9371C107.626 42.9171 107.582 42.8874 107.544 42.8498C107.506 42.8122 107.477 42.7674 107.457 42.7181C107.437 42.6689 107.427 42.6161 107.427 42.5629V41.5544H105.41C105.297 41.5544 105.209 41.6552 105.209 41.7561V46.5971C105.209 46.7106 105.297 46.7988 105.41 46.7988ZM108.234 45.5886C108.234 45.2711 108.318 44.9592 108.478 44.6847C108.637 44.4101 108.866 44.1826 109.142 44.0252C109.697 43.6976 110.39 43.6976 110.957 44.0252C111.512 44.3533 111.865 44.9455 111.865 45.5886C111.865 46.2443 111.512 46.8365 110.957 47.1646C110.39 47.4922 109.697 47.4922 109.142 47.1646C108.865 47.0057 108.635 46.7761 108.475 46.4992C108.316 46.2223 108.233 45.9081 108.234 45.5886ZM110.894 45.0464C110.819 44.9711 110.68 44.9711 110.604 45.0464L109.848 45.8156L109.482 45.4498C109.407 45.3745 109.268 45.3745 109.192 45.4498C109.117 45.5256 109.117 45.6641 109.192 45.7397L109.697 46.244C109.772 46.3198 109.911 46.3198 109.987 46.244L110.894 45.3363C110.97 45.261 110.97 45.1222 110.894 45.0464H110.894Z" fill="#158149"/>
<path d="M209.959 44.0313C209.959 41.5557 211.966 39.5488 214.441 39.5488H247.275C249.751 39.5488 251.758 41.5557 251.758 44.0313V44.0313C251.758 46.5069 249.751 48.5138 247.275 48.5138H214.441C211.966 48.5138 209.959 46.5069 209.959 44.0313V44.0313Z" fill="#F9BB00" fill-opacity="0.1"/>
<path d="M212.527 46.1185V45.0214C212.94 45.4036 213.538 45.6193 214 45.6193C214.419 45.6193 214.653 45.4529 214.653 45.1509C214.653 44.7996 214.222 44.7256 213.741 44.5962C213.149 44.4421 212.478 44.2202 212.478 43.3758C212.478 42.5499 213.143 42.0137 214.08 42.0137C214.592 42.0137 215.029 42.1308 215.411 42.3712V43.4005C215.011 43.0553 214.548 42.8704 214.086 42.8704C213.63 42.8704 213.433 43.0615 213.433 43.3203C213.433 43.6039 213.797 43.6963 214.216 43.8073C214.838 43.9675 215.615 44.1771 215.615 45.0831C215.615 45.909 215.005 46.4883 214.018 46.4883C213.482 46.4883 212.915 46.3589 212.527 46.1185ZM216.114 44.8858C216.114 43.9675 216.785 43.2834 217.741 43.2834C218.006 43.2834 218.283 43.345 218.505 43.4744V44.3188C218.295 44.1709 218.08 44.0969 217.845 44.0969C217.377 44.0969 217.02 44.4236 217.02 44.8858C217.02 45.3419 217.371 45.6748 217.845 45.6748C218.086 45.6748 218.32 45.5761 218.511 45.4406V46.2911C218.265 46.4267 217.993 46.4883 217.728 46.4883C216.791 46.4883 216.114 45.8412 216.114 44.8858ZM220.065 44.7934V46.4082H219.165V42.0938H220.065V43.7518C220.25 43.4559 220.558 43.2834 220.965 43.2834C221.661 43.2834 222.087 43.7579 222.087 44.5284V46.4082H221.187V44.7318C221.187 44.3373 220.99 44.1093 220.644 44.1093C220.293 44.1093 220.065 44.3743 220.065 44.7934ZM225.544 45.3912V46.2048C225.248 46.3774 224.853 46.4883 224.373 46.4883C223.331 46.4883 222.69 45.8165 222.69 44.8735C222.69 43.9613 223.331 43.2834 224.237 43.2834C225.168 43.2834 225.729 43.9244 225.729 44.8674C225.729 44.9598 225.716 45.0646 225.71 45.1385H223.578C223.645 45.4899 223.96 45.7364 224.471 45.7364C224.835 45.7364 225.18 45.6316 225.544 45.3912ZM223.565 44.5469H224.866C224.835 44.2079 224.582 43.9798 224.231 43.9798C223.88 43.9798 223.608 44.2387 223.565 44.5469ZM228.599 42.0938H229.493V46.4082H228.599V46.0014C228.39 46.3096 228.014 46.4822 227.613 46.4822C226.794 46.4822 226.171 45.7919 226.171 44.8858C226.171 43.986 226.794 43.2895 227.613 43.2895C228.014 43.2895 228.39 43.4436 228.599 43.7579V42.0938ZM227.065 44.8858C227.065 45.3234 227.41 45.6748 227.848 45.6748C228.285 45.6748 228.63 45.3234 228.63 44.8858C228.63 44.4482 228.285 44.0969 227.848 44.0969C227.41 44.0969 227.065 44.4482 227.065 44.8858ZM232.285 44.9721V43.3635H233.185V46.4082H232.285V46.0199C232.106 46.3096 231.798 46.4883 231.397 46.4883C230.707 46.4883 230.282 46.0076 230.282 45.2433V43.3635H231.181V45.0276C231.181 45.4282 231.379 45.6624 231.718 45.6624C232.063 45.6624 232.285 45.4036 232.285 44.9721ZM233.998 42.0938H234.898V46.4082H233.998V42.0938ZM238.39 45.3912V46.2048C238.094 46.3774 237.7 46.4883 237.219 46.4883C236.177 46.4883 235.536 45.8165 235.536 44.8735C235.536 43.9613 236.177 43.2834 237.083 43.2834C238.014 43.2834 238.575 43.9244 238.575 44.8674C238.575 44.9598 238.563 45.0646 238.557 45.1385H236.424C236.492 45.4899 236.806 45.7364 237.318 45.7364C237.681 45.7364 238.026 45.6316 238.39 45.3912ZM236.412 44.5469H237.712C237.681 44.2079 237.429 43.9798 237.077 43.9798C236.726 43.9798 236.455 44.2387 236.412 44.5469ZM245 45.9521L244.495 46.5315L244.008 46.1124C243.644 46.3527 243.213 46.4883 242.745 46.4883C241.493 46.4883 240.489 45.496 240.489 44.251C240.489 43.006 241.493 42.0137 242.745 42.0137C243.996 42.0137 245 43.006 245 44.251C245 44.7503 244.84 45.2063 244.563 45.5761L245 45.9521ZM244.07 44.251C244.07 43.4929 243.49 42.8951 242.745 42.8951C241.999 42.8951 241.42 43.4929 241.42 44.251C241.42 45.0091 241.999 45.607 242.745 45.607C242.942 45.607 243.127 45.57 243.293 45.4899L242.856 45.1077L243.361 44.5345L243.873 44.9783C243.996 44.7687 244.07 44.5222 244.07 44.251ZM246.865 42.0938H247.684L249.416 46.4082H248.449L248.085 45.4775H246.439L246.076 46.4082H245.127L246.865 42.0938ZM247.259 43.271L246.723 44.6825H247.808L247.259 43.271Z" fill="#C69500"/>
<path d="M251.758 44.0313C251.758 41.5557 253.765 39.5488 256.24 39.5488H263.45C265.925 39.5488 267.932 41.5557 267.932 44.0313V44.0313C267.932 46.5069 265.925 48.5138 263.45 48.5138H256.24C253.765 48.5138 251.758 46.5069 251.758 44.0313V44.0313Z" fill="#0056CF" fill-opacity="0.1"/>
<path d="M255.38 44.6516V46.4082H254.455V42.0938H256.927V42.9321H255.38V43.8073H256.803V44.6516H255.38ZM257.573 42.0938H258.473V46.4082H257.573V42.0938ZM261.966 45.3912V46.2048C261.67 46.3774 261.275 46.4883 260.795 46.4883C259.753 46.4883 259.112 45.8165 259.112 44.8735C259.112 43.9613 259.753 43.2834 260.659 43.2834C261.59 43.2834 262.151 43.9244 262.151 44.8674C262.151 44.9598 262.138 45.0646 262.132 45.1385H260C260.067 45.4899 260.382 45.7364 260.893 45.7364C261.257 45.7364 261.602 45.6316 261.966 45.3912ZM259.987 44.5469H261.288C261.257 44.2079 261.004 43.9798 260.653 43.9798C260.302 43.9798 260.03 44.2387 259.987 44.5469ZM264.563 46.4082L263.922 45.496L263.287 46.4082H262.288L263.416 44.8674L262.338 43.3635H263.367L263.946 44.214L264.544 43.3635H265.543L264.464 44.8427L265.586 46.4082H264.563Z" fill="#0056CF"/>
<path d="M267.933 44.0313C267.933 41.5557 269.939 39.5488 272.415 39.5488H279.195C281.67 39.5488 283.677 41.5557 283.677 44.0313V44.0313C283.677 46.5069 281.67 48.5138 279.195 48.5138H272.415C269.939 48.5138 267.933 46.5069 267.933 44.0313V44.0313Z" fill="#0056CF" fill-opacity="0.1"/>
<path d="M271.548 44.8304V46.4082H270.63V42.0938H272.066C272.997 42.0938 273.644 42.5931 273.644 43.4744C273.644 44.0908 273.274 44.5222 272.756 44.7194L273.946 46.4082H272.855L271.795 44.8304H271.548ZM271.548 42.9259V44.0661H272.072C272.442 44.0661 272.713 43.8504 272.713 43.4929C272.713 43.1293 272.442 42.9259 272.072 42.9259H271.548ZM274.243 43.6593C274.243 42.7718 274.94 42.1 275.852 42.1C276.77 42.1 277.461 42.7595 277.461 43.647C277.461 44.0291 277.294 44.3866 277.036 44.8304L276.111 46.4082H275.088L275.908 45.0584C275.815 45.0892 275.723 45.0954 275.649 45.0954C274.835 45.0954 274.243 44.4544 274.243 43.6593ZM275.137 43.6285C275.137 44.023 275.458 44.3311 275.852 44.3311C276.253 44.3311 276.567 44.023 276.567 43.6347C276.567 43.2402 276.259 42.9259 275.858 42.9259C275.458 42.9259 275.137 43.2402 275.137 43.6285ZM277.935 43.6593C277.935 42.7718 278.632 42.1 279.544 42.1C280.462 42.1 281.152 42.7595 281.152 43.647C281.152 44.0291 280.986 44.3866 280.727 44.8304L279.803 46.4082H278.779L279.599 45.0584C279.507 45.0892 279.414 45.0954 279.34 45.0954C278.527 45.0954 277.935 44.4544 277.935 43.6593ZM278.829 43.6285C278.829 44.023 279.149 44.3311 279.544 44.3311C279.944 44.3311 280.259 44.023 280.259 43.6347C280.259 43.2402 279.951 42.9259 279.55 42.9259C279.149 42.9259 278.829 43.2402 278.829 43.6285Z" fill="#0056CF"/>
</g>
<path d="M76.3618 14V14.5603H285.357V14V13.4397H76.3618V14ZM288.719 17.3618H288.158V51.3165H288.719H289.279V17.3618H288.719ZM285.357 54.6784V54.118H76.3618V54.6784V55.2387H285.357V54.6784ZM73 51.3165H73.5603V17.3618H73H72.4397V51.3165H73ZM76.3618 54.6784V54.118C74.8146 54.118 73.5603 52.8638 73.5603 51.3165H73H72.4397C72.4397 53.4827 74.1957 55.2387 76.3618 55.2387V54.6784ZM288.719 51.3165H288.158C288.158 52.8638 286.904 54.118 285.357 54.118V54.6784V55.2387C287.523 55.2387 289.279 53.4827 289.279 51.3165H288.719ZM285.357 14V14.5603C286.904 14.5603 288.158 15.8146 288.158 17.3618H288.719H289.279C289.279 15.1957 287.523 13.4397 285.357 13.4397V14ZM76.3618 14V13.4397C74.1957 13.4397 72.4397 15.1957 72.4397 17.3618H73H73.5603C73.5603 15.8146 74.8146 14.5603 76.3618 14.5603V14Z" fill="#E4E8F0" mask="url(#path-1-inside-1_2274_15055)"/>
<g clip-path="url(#clip2_2274_15055)">
<mask id="path-16-inside-2_2274_15055" fill="white">
<path d="M73 62.522C73 60.6653 74.5052 59.1602 76.3618 59.1602H285.357C287.213 59.1602 288.719 60.6653 288.719 62.522V96.4767C288.719 98.3334 287.213 99.8385 285.357 99.8385H76.3618C74.5051 99.8385 73 98.3334 73 96.4767V62.522Z"/>
</mask>
<path d="M73 62.522C73 60.6653 74.5052 59.1602 76.3618 59.1602H285.357C287.213 59.1602 288.719 60.6653 288.719 62.522V96.4767C288.719 98.3334 287.213 99.8385 285.357 99.8385H76.3618C74.5051 99.8385 73 98.3334 73 96.4767V62.522Z" fill="white"/>
<rect width="2.24123" height="39.5577" transform="translate(73.5596 59.7207)" fill="#0056CF"/>
<path d="M81.2488 78.1887C81.2001 78.1896 81.1519 78.1768 81.1068 78.1509C81.0618 78.125 81.0209 78.0867 80.9865 78.0381C80.9521 77.9895 80.9249 77.9317 80.9066 77.8681C80.8883 77.8044 80.8793 77.7363 80.8799 77.6676C80.8799 77.391 81.0412 77.1465 81.2488 77.1465C81.4448 77.1465 81.6176 77.391 81.6176 77.6676C81.6176 77.9608 81.4448 78.1887 81.2488 78.1887ZM81.2488 80.7941C81.2001 80.795 81.1519 80.7822 81.1068 80.7563C81.0618 80.7305 81.0209 80.6921 80.9865 80.6435C80.9521 80.595 80.9249 80.5372 80.9066 80.4735C80.8883 80.4099 80.8793 80.3417 80.8799 80.273C80.8799 79.9965 81.0412 79.7519 81.2488 79.7519C81.4448 79.7519 81.6176 79.9965 81.6176 80.273C81.6176 80.5662 81.4448 80.7941 81.2488 80.7941ZM81.6176 82.8784C81.6176 83.1716 81.4448 83.3995 81.2488 83.3995C81.2001 83.4005 81.1519 83.3876 81.1068 83.3618C81.0618 83.3359 81.0209 83.2976 80.9865 83.249C80.9521 83.2004 80.9249 83.1426 80.9066 83.0789C80.8883 83.0153 80.8793 82.9471 80.8799 82.8784C80.8799 82.6019 81.0412 82.3573 81.2488 82.3573C81.4448 82.3573 81.6176 82.6019 81.6176 82.8784ZM82.7242 78.1887C82.6756 78.1896 82.6273 78.1768 82.5822 78.1509C82.5372 78.125 82.4963 78.0867 82.4619 78.0381C82.4275 77.9895 82.4004 77.9317 82.3821 77.8681C82.3637 77.8044 82.3547 77.7363 82.3553 77.6676C82.3553 77.391 82.5169 77.1465 82.7242 77.1465C82.9202 77.1465 83.093 77.391 83.093 77.6676C83.093 77.9608 82.9202 78.1887 82.7242 78.1887ZM83.093 80.273C83.093 80.5662 82.9202 80.7941 82.7242 80.7941C82.6756 80.795 82.6273 80.7822 82.5822 80.7563C82.5372 80.7305 82.4963 80.6921 82.4619 80.6435C82.4275 80.595 82.4004 80.5372 82.3821 80.4735C82.3637 80.4099 82.3547 80.3417 82.3553 80.273C82.3553 79.9965 82.5169 79.7519 82.7242 79.7519C82.9202 79.7519 83.093 79.9965 83.093 80.273ZM82.7242 83.3995C82.6756 83.4005 82.6273 83.3876 82.5822 83.3618C82.5372 83.3359 82.4963 83.2976 82.4619 83.249C82.4275 83.2004 82.4004 83.1426 82.3821 83.0789C82.3637 83.0153 82.3547 82.9471 82.3553 82.8784C82.3553 82.6019 82.5169 82.3573 82.7242 82.3573C82.9202 82.3573 83.093 82.6019 83.093 82.8784C83.093 83.1716 82.9202 83.3995 82.7242 83.3995Z" fill="#687887"/>
<path d="M98.1894 65.5925H99.4574V71.6719H98.1547L95.2974 67.6595V71.6719H94.0294V65.5925H95.3582L98.1894 69.6223V65.5925ZM104.299 71.6719H103.126L103.109 71.1334C102.857 71.5763 102.362 71.7848 101.849 71.7848C101.05 71.7848 100.503 71.2811 100.503 70.5255C100.503 69.7352 101.033 69.2488 102.101 69.0925L103.074 68.9535V68.9014C103.074 68.5454 102.787 68.3369 102.206 68.3369C101.65 68.3369 101.155 68.554 100.764 68.9101V67.7029C101.137 67.4511 101.676 67.2687 102.336 67.2687C103.578 67.2687 104.299 67.8679 104.299 68.9796V71.6719ZM101.702 70.4213C101.711 70.6644 101.91 70.8208 102.197 70.8208C102.727 70.8208 103.074 70.4386 103.074 69.9523V69.8046L102.318 69.9262C101.91 69.987 101.702 70.1694 101.702 70.4213ZM106.67 69.3965V71.6719H105.402V67.3816H106.67V67.9287C106.93 67.5119 107.365 67.2687 107.938 67.2687C108.919 67.2687 109.518 67.9374 109.518 69.023V71.6719H108.251V69.3183C108.251 68.7538 107.973 68.4325 107.478 68.4325C106.991 68.4325 106.67 68.7972 106.67 69.3965ZM110.358 69.5267C110.358 68.2327 111.305 67.2687 112.651 67.2687C113.024 67.2687 113.415 67.3555 113.728 67.5379V68.7277C113.433 68.5193 113.129 68.4151 112.799 68.4151C112.139 68.4151 111.635 68.8754 111.635 69.5267C111.635 70.1694 112.13 70.6384 112.799 70.6384C113.137 70.6384 113.467 70.4994 113.736 70.3084V71.5069C113.389 71.6979 113.007 71.7848 112.634 71.7848C111.313 71.7848 110.358 70.8729 110.358 69.5267ZM115.272 73.6173C114.933 73.6173 114.699 73.5391 114.551 73.4609V72.4014C114.699 72.4709 114.864 72.5056 115.037 72.5056C115.411 72.5056 115.663 72.358 115.836 71.9411L115.958 71.6632L114.221 67.3816H115.559L116.627 70.2563L117.712 67.3816H119.015L117.096 72.0453C116.644 73.157 116.08 73.6173 115.272 73.6173ZM124.388 71.6719H123.329L121.244 65.5925H122.608L123.876 69.6136L125.17 65.5925H126.229L127.515 69.6136L128.791 65.5925H130.129L128.045 71.6719H126.976L125.682 67.6161L124.388 71.6719ZM132.049 69.3965V71.6719H130.781V65.5925H132.049V67.9287C132.309 67.5119 132.744 67.2687 133.317 67.2687C134.298 67.2687 134.897 67.9374 134.897 69.023V71.6719H133.629V69.3096C133.629 68.7538 133.351 68.4325 132.865 68.4325C132.37 68.4325 132.049 68.8059 132.049 69.3965ZM137.265 71.6719H135.997V67.3816H137.265V71.6719ZM137.37 66.1397C137.37 66.5392 137.04 66.8779 136.631 66.8779C136.223 66.8779 135.893 66.5392 135.893 66.1397C135.893 65.7402 136.223 65.4015 136.631 65.4015C137.04 65.4015 137.37 65.7402 137.37 66.1397ZM138.65 68.4238H137.868V68.2588L139.874 66.1657H139.909V67.3816H140.995V68.4238H139.909V69.9957C139.909 70.456 140.109 70.6384 140.508 70.6384C140.682 70.6384 140.864 70.5776 140.995 70.4821V71.5937C140.795 71.6979 140.482 71.7761 140.083 71.7761C139.171 71.7761 138.65 71.255 138.65 70.2997V68.4238ZM145.518 70.2389V71.3853C145.101 71.6285 144.545 71.7848 143.868 71.7848C142.4 71.7848 141.497 70.8381 141.497 69.5094C141.497 68.224 142.4 67.2687 143.677 67.2687C144.988 67.2687 145.779 68.1719 145.779 69.5007C145.779 69.631 145.761 69.7786 145.753 69.8828H142.748C142.843 70.3778 143.286 70.7252 144.007 70.7252C144.519 70.7252 145.006 70.5776 145.518 70.2389ZM142.73 69.0491H144.563C144.519 68.5714 144.163 68.2501 143.668 68.2501C143.173 68.2501 142.791 68.6148 142.73 69.0491Z" fill="#242B42"/>
<path d="M150.538 66.4444C150.538 65.2066 151.542 64.2031 152.779 64.2031H177.825C179.063 64.2031 180.066 65.2066 180.066 66.4444V71.207C180.066 72.4448 179.063 73.4482 177.825 73.4482H152.779C151.542 73.4482 150.538 72.4448 150.538 71.207V66.4444Z" fill="#0056CF" fill-opacity="0.1"/>
<path d="M155.781 69.9396C155.781 70.7409 155.146 71.2832 154.178 71.2832C153.765 71.2832 153.377 71.1785 153.026 70.9628V70.0382C153.377 70.3156 153.735 70.4512 154.104 70.4512C154.554 70.4512 154.869 70.2478 154.869 69.8903C154.869 69.576 154.573 69.3603 154.135 69.3603H153.735V68.6453H154.117C154.474 68.6453 154.721 68.4481 154.721 68.1892C154.721 67.8934 154.431 67.7208 154.086 67.7208C153.747 67.7208 153.439 67.8502 153.112 68.1153V67.2092C153.42 66.9997 153.784 66.8949 154.16 66.8949C154.998 66.8949 155.614 67.3387 155.614 68.0783C155.614 68.4727 155.411 68.7686 155.091 68.9473C155.528 69.1261 155.781 69.4774 155.781 69.9396ZM156.297 70.9566V70.0259C156.661 70.3094 157.031 70.445 157.4 70.445C157.85 70.445 158.22 70.2231 158.22 69.804C158.22 69.4034 157.857 69.1877 157.364 69.1877C157.025 69.1877 156.698 69.274 156.396 69.4157L156.519 66.9689H158.892V67.7578H157.265L157.228 68.4851C157.32 68.4543 157.481 68.4296 157.647 68.4296C158.498 68.4296 159.139 68.972 159.139 69.7979C159.139 70.7285 158.424 71.2771 157.456 71.2832C157.037 71.2832 156.649 71.1723 156.297 70.9566ZM159.743 69.9643V69.1569H161.697V69.9643H159.743ZM163.549 71.2031H162.636V67.955L161.872 68.2509V67.3572L162.827 66.9689H163.549V71.2031ZM167.137 71.2031H164.265V70.556L165.651 69.1815C166.046 68.7994 166.157 68.6022 166.157 68.3187C166.157 67.9797 165.867 67.7393 165.46 67.7393C165.066 67.7393 164.696 67.9612 164.363 68.3248V67.3572C164.69 67.0613 165.115 66.8949 165.534 66.8949C166.385 66.8949 167.069 67.4126 167.069 68.22C167.069 68.7809 166.835 69.1939 166.299 69.6869L165.54 70.3896H167.137V71.2031ZM170.411 69.9396C170.411 70.7409 169.776 71.2832 168.808 71.2832C168.395 71.2832 168.007 71.1785 167.656 70.9628V70.0382C168.007 70.3156 168.365 70.4512 168.734 70.4512C169.184 70.4512 169.499 70.2478 169.499 69.8903C169.499 69.576 169.203 69.3603 168.765 69.3603H168.365V68.6453H168.747C169.104 68.6453 169.351 68.4481 169.351 68.1892C169.351 67.8934 169.061 67.7208 168.716 67.7208C168.377 67.7208 168.069 67.8502 167.742 68.1153V67.2092C168.05 66.9997 168.414 66.8949 168.79 66.8949C169.628 66.8949 170.244 67.3387 170.244 68.0783C170.244 68.4727 170.041 68.7686 169.72 68.9473C170.158 69.1261 170.411 69.4774 170.411 69.9396ZM170.815 70.3341V69.7054L172.639 66.975H173.736V69.576H174.328V70.3341H173.736V71.2031H172.867V70.3341H170.815ZM171.795 69.576H172.874V67.9427L171.795 69.576ZM174.763 70.9566V70.0259C175.127 70.3094 175.497 70.445 175.866 70.445C176.316 70.445 176.686 70.2231 176.686 69.804C176.686 69.4034 176.323 69.1877 175.829 69.1877C175.49 69.1877 175.164 69.274 174.862 69.4157L174.985 66.9689H177.358V67.7578H175.731L175.694 68.4851C175.786 68.4543 175.947 68.4296 176.113 68.4296C176.963 68.4296 177.604 68.972 177.604 69.7979C177.604 70.7285 176.89 71.2771 175.922 71.2832C175.503 71.2832 175.114 71.1723 174.763 70.9566Z" fill="#0056CF"/>
<path d="M95.2492 76.9319C96.0022 76.9319 96.6612 77.4092 96.6612 78.1488C96.6612 78.6531 96.3451 79.0162 95.9955 79.144C96.3788 79.2784 96.8427 79.6617 96.8427 80.3139C96.8427 81.1745 96.0762 81.699 95.2492 81.699C94.4222 81.699 93.6557 81.1745 93.6557 80.3139C93.6557 79.6617 94.1196 79.2784 94.5029 79.144C94.1532 79.0162 93.8372 78.6531 93.8372 78.1488C93.8372 77.4092 94.4961 76.9319 95.2492 76.9319ZM96.251 80.287C96.251 79.776 95.8005 79.4331 95.2492 79.4331C94.6978 79.4331 94.2474 79.776 94.2474 80.287C94.2474 80.8047 94.7113 81.1476 95.2492 81.1476C95.7871 81.1476 96.251 80.8047 96.251 80.287ZM95.2492 77.4765C94.8121 77.4765 94.4154 77.7589 94.4154 78.1892C94.4154 78.6195 94.8121 78.9019 95.2492 78.9019C95.6862 78.9019 96.0829 78.6195 96.0829 78.1892C96.0829 77.7589 95.6862 77.4765 95.2492 77.4765ZM98.3931 78.8414C98.3931 79.07 98.2115 79.2515 97.9829 79.2515C97.7543 79.2515 97.5728 79.07 97.5728 78.8414C97.5728 78.6195 97.7543 78.438 97.9829 78.438C98.2115 78.438 98.3931 78.6195 98.3931 78.8414ZM98.3931 81.2754C98.3931 81.504 98.2115 81.6855 97.9829 81.6855C97.7543 81.6855 97.5728 81.504 97.5728 81.2754C97.5728 81.0535 97.7543 80.8719 97.9829 80.8719C98.2115 80.8719 98.3931 81.0535 98.3931 81.2754ZM101.095 81.699C99.8375 81.699 99.2324 80.5627 99.2324 79.3188C99.2324 78.0682 99.8375 76.9319 101.095 76.9319C102.352 76.9319 102.957 78.0682 102.957 79.3188C102.957 80.5627 102.352 81.699 101.095 81.699ZM101.095 81.1409C101.969 81.1409 102.359 80.2601 102.359 79.3188C102.359 78.3775 101.969 77.4899 101.095 77.4899C100.221 77.4899 99.8308 78.3775 99.8308 79.3188C99.8308 80.2601 100.221 81.1409 101.095 81.1409ZM105.599 81.699C104.342 81.699 103.737 80.5627 103.737 79.3188C103.737 78.0682 104.342 76.9319 105.599 76.9319C106.856 76.9319 107.461 78.0682 107.461 79.3188C107.461 80.5627 106.856 81.699 105.599 81.699ZM105.599 81.1409C106.473 81.1409 106.863 80.2601 106.863 79.3188C106.863 78.3775 106.473 77.4899 105.599 77.4899C104.725 77.4899 104.335 78.3775 104.335 79.3188C104.335 80.2601 104.725 81.1409 105.599 81.1409ZM109.888 76.9184H110.359L112.295 81.625H111.663L111.112 80.2601H109.115L108.563 81.625H107.945L109.888 76.9184ZM110.11 77.7589L109.33 79.7155H110.897L110.11 77.7589ZM114.445 79.8567C114.445 79.5407 114.721 79.2717 115.037 79.2717C115.359 79.2717 115.628 79.5407 115.628 79.8567C115.628 80.166 115.359 80.4349 115.037 80.4349C114.721 80.4349 114.445 80.166 114.445 79.8567ZM117.834 77.4698V76.9184H121.182V77.4698H119.811V81.625H119.205V77.4698H117.834ZM122.815 78.2833C123.797 78.2833 124.523 79.0431 124.523 79.9911C124.523 80.9392 123.797 81.699 122.815 81.699C121.834 81.699 121.107 80.9392 121.107 79.9911C121.107 79.0431 121.834 78.2833 122.815 78.2833ZM122.815 78.8145C122.177 78.8145 121.692 79.3389 121.692 79.9911C121.692 80.6433 122.177 81.1678 122.815 81.1678C123.454 81.1678 123.938 80.6433 123.938 79.9911C123.938 79.3389 123.454 78.8145 122.815 78.8145ZM128.757 81.625H128.314L127.453 79.2045L126.592 81.625H126.149L124.932 78.3573H125.53L126.384 80.8047L127.251 78.3573H127.668L128.536 80.8047L129.389 78.3573H129.974L128.757 81.625ZM131.264 79.9172V81.625H130.686V78.3573H131.264V78.8279C131.466 78.5052 131.816 78.2833 132.306 78.2833C133.14 78.2833 133.624 78.8414 133.624 79.7087V81.625H133.046V79.776C133.046 79.191 132.743 78.8212 132.185 78.8212C131.627 78.8212 131.264 79.2515 131.264 79.9172ZM134.436 81.3628V80.724C134.732 80.993 135.115 81.1812 135.512 81.1812C135.842 81.1812 136.144 81.0669 136.144 80.7307C136.144 80.3946 135.828 80.2803 135.418 80.1929C134.947 80.092 134.43 79.9037 134.43 79.2717C134.43 78.6128 134.988 78.2833 135.573 78.2833C135.922 78.2833 136.272 78.3909 136.561 78.5859V79.1977C136.272 78.9624 135.936 78.7943 135.586 78.7943C135.31 78.7943 134.994 78.9019 134.994 79.2045C134.994 79.5003 135.277 79.6281 135.653 79.7222C136.258 79.8701 136.716 80.092 136.716 80.6837C136.716 81.3493 136.158 81.699 135.505 81.699C135.149 81.699 134.746 81.5914 134.436 81.3628ZM138.099 79.9172V81.625H137.521V76.9184H138.099V78.8279C138.301 78.5052 138.65 78.2833 139.141 78.2833C139.975 78.2833 140.459 78.8414 140.459 79.7087V81.625H139.881V79.776C139.881 79.191 139.578 78.8212 139.02 78.8212C138.462 78.8212 138.099 79.2515 138.099 79.9172ZM142.192 77.3891C142.192 77.6042 142.017 77.779 141.802 77.779C141.587 77.779 141.412 77.6042 141.412 77.3891C141.412 77.1739 141.587 76.9991 141.802 76.9991C142.017 76.9991 142.192 77.1739 142.192 77.3891ZM141.513 78.3573H142.091V81.625H141.513V78.3573ZM143.765 83.0235H143.194V78.3573H143.765V78.875C144 78.5187 144.444 78.2833 144.922 78.2833C145.849 78.2833 146.562 79.0229 146.562 79.9911C146.562 80.9526 145.849 81.699 144.922 81.699C144.444 81.699 144.007 81.4905 143.765 81.1342V83.0235ZM145.977 79.9911C145.977 79.3322 145.493 78.8145 144.854 78.8145C144.216 78.8145 143.731 79.3322 143.731 79.9911C143.731 80.6501 144.216 81.1678 144.854 81.1678C145.493 81.1678 145.977 80.6501 145.977 79.9911ZM152.592 76.9184H153.17V81.625H152.606L149.748 77.8261V81.625H149.17V76.9184H149.782L152.592 80.6702V76.9184ZM156.225 79.5474V79.4667C156.225 79.0565 155.936 78.8078 155.452 78.8078C155.008 78.8078 154.678 78.9893 154.342 79.2986V78.6935C154.638 78.4514 154.994 78.2833 155.465 78.2833C156.305 78.2833 156.79 78.7473 156.79 79.507V81.625H156.245V81.1947C155.989 81.5241 155.593 81.699 155.162 81.699C154.584 81.699 154.174 81.3023 154.174 80.7644C154.174 80.1794 154.544 79.8298 155.263 79.7087L156.225 79.5474ZM154.752 80.7307C154.752 81.0064 154.967 81.188 155.27 81.188C155.828 81.188 156.232 80.8249 156.232 80.3206V80.0449L155.357 80.1996C154.967 80.2735 154.752 80.4484 154.752 80.7307ZM158.413 79.9105V81.625H157.835V78.3573H158.407V78.8279C158.588 78.4918 158.918 78.2833 159.368 78.2833C159.852 78.2833 160.202 78.5254 160.397 78.9221C160.558 78.6464 160.894 78.2833 161.513 78.2833C162.266 78.2833 162.717 78.8145 162.717 79.655V81.625H162.138V79.7558C162.138 79.1776 161.89 78.8145 161.399 78.8145C160.894 78.8145 160.565 79.2448 160.565 79.9105V81.625H159.987V79.7693C159.987 79.1843 159.731 78.8145 159.247 78.8145C158.743 78.8145 158.413 79.2448 158.413 79.9105ZM166.514 80.6568V81.2821C166.151 81.5443 165.707 81.699 165.25 81.699C164.208 81.699 163.535 80.9526 163.535 79.9911C163.535 79.0162 164.208 78.2833 165.149 78.2833C166.063 78.2833 166.689 79.0364 166.689 79.9642C166.689 80.092 166.675 80.1727 166.675 80.1727H164.114C164.161 80.7173 164.611 81.1745 165.29 81.1745C165.707 81.1745 166.111 81.0064 166.514 80.6568ZM164.127 79.6953H166.104C166.057 79.1776 165.673 78.7876 165.136 78.7876C164.591 78.7876 164.167 79.2515 164.127 79.6953ZM169.026 79.8567C169.026 79.5407 169.301 79.2717 169.617 79.2717C169.94 79.2717 170.209 79.5407 170.209 79.8567C170.209 80.166 169.94 80.4349 169.617 80.4349C169.301 80.4349 169.026 80.166 169.026 79.8567ZM172.556 78.5657C172.556 77.6513 173.289 76.9319 174.223 76.9319C175.185 76.9319 175.897 77.6378 175.897 78.5724C175.897 78.9624 175.756 79.3927 175.38 79.9575L174.277 81.625H173.564L174.667 79.9911C174.532 80.0718 174.358 80.1256 174.116 80.1256C173.221 80.1256 172.556 79.4264 172.556 78.5657ZM173.154 78.5388C173.154 79.144 173.632 79.5944 174.223 79.5944C174.828 79.5944 175.299 79.144 175.299 78.5455C175.299 77.9606 174.835 77.4899 174.23 77.4899C173.632 77.4899 173.154 77.9606 173.154 78.5388ZM178.445 81.699C177.188 81.699 176.583 80.5627 176.583 79.3188C176.583 78.0682 177.188 76.9319 178.445 76.9319C179.703 76.9319 180.308 78.0682 180.308 79.3188C180.308 80.5627 179.703 81.699 178.445 81.699ZM178.445 81.1409C179.319 81.1409 179.709 80.2601 179.709 79.3188C179.709 78.3775 179.319 77.4899 178.445 77.4899C177.571 77.4899 177.181 78.3775 177.181 79.3188C177.181 80.2601 177.571 81.1409 178.445 81.1409ZM180.855 81.625V81.2149L182.576 79.3927C182.973 78.9759 183.094 78.6867 183.094 78.3304C183.094 77.853 182.677 77.4899 182.139 77.4899C181.715 77.4899 181.278 77.7723 180.909 78.2295V77.5235C181.231 77.1605 181.709 76.9319 182.146 76.9319C183.033 76.9319 183.686 77.5034 183.686 78.3035C183.686 78.8548 183.47 79.2583 182.973 79.7827L181.742 81.0737H183.746V81.625H180.855ZM185.733 81.625H185.142V77.6715L184.308 78.0144V77.4092L185.249 77.0058H185.733V81.625ZM188.609 81.699C187.352 81.699 186.747 80.5627 186.747 79.3188C186.747 78.0682 187.352 76.9319 188.609 76.9319C189.866 76.9319 190.472 78.0682 190.472 79.3188C190.472 80.5627 189.866 81.699 188.609 81.699ZM188.609 81.1409C189.483 81.1409 189.873 80.2601 189.873 79.3188C189.873 78.3775 189.483 77.4899 188.609 77.4899C187.735 77.4899 187.345 78.3775 187.345 79.3188C187.345 80.2601 187.735 81.1409 188.609 81.1409Z" fill="#4B546B"/>
<path d="M97.3748 86.24L100.186 88.6229C100.062 88.5978 99.935 88.5851 99.808 88.5849C99.6189 88.5849 99.4549 88.6102 99.2784 88.6479L97.1858 86.8704L94.9669 88.7487V91.6109C94.9669 91.8379 95.1434 92.0143 95.3704 92.0143H95.9755V90.098C95.9746 90.0316 95.987 89.9656 96.012 89.904C96.0371 89.8424 96.0742 89.7864 96.1212 89.7394C96.1682 89.6924 96.2241 89.6553 96.2857 89.6303C96.3473 89.6053 96.4133 89.5928 96.4798 89.5938H97.8917C97.9044 89.5938 97.917 89.5938 97.9423 89.6064C97.8159 89.7828 97.728 89.9845 97.6648 90.1989H96.5806V92.0143H97.9423C98.0935 92.2536 98.2952 92.4683 98.5222 92.6194H95.3704C94.8029 92.6194 94.3618 92.1783 94.3618 91.6109V89.2656L94.0466 89.5305C93.9837 89.5799 93.9044 89.6035 93.8247 89.5964C93.7451 89.5894 93.6711 89.5523 93.6179 89.4926C93.5685 89.4297 93.545 89.3504 93.552 89.2708C93.559 89.1911 93.5962 89.1172 93.6558 89.0639L96.984 86.24C97.0401 86.1971 97.1088 86.1738 97.1794 86.1738C97.2501 86.1738 97.3187 86.1971 97.3748 86.24ZM99.808 92.6194C99.4885 92.6211 99.1742 92.538 98.8973 92.3785C98.6204 92.219 98.3908 91.9889 98.232 91.7117C97.9044 91.1569 97.9044 90.4638 98.232 89.8963C98.5601 89.3415 99.1523 88.9886 99.808 88.9886C100.451 88.9886 101.044 89.3417 101.371 89.8963C101.699 90.4638 101.699 91.1571 101.371 91.7117C101.214 91.9874 100.986 92.2166 100.712 92.376C100.437 92.5354 100.125 92.6194 99.808 92.6194ZM99.808 91.4091C99.7681 91.4086 99.7285 91.4161 99.6916 91.4311C99.6546 91.4461 99.621 91.4684 99.5928 91.4966C99.5646 91.5248 99.5424 91.5583 99.5274 91.5953C99.5123 91.6322 99.5049 91.6718 99.5054 91.7117C99.5054 91.8881 99.6316 92.0143 99.808 92.0143C99.8479 92.0148 99.8875 92.0074 99.9244 91.9924C99.9614 91.9773 99.9949 91.9551 100.023 91.9269C100.051 91.8987 100.074 91.8651 100.089 91.8281C100.104 91.7912 100.111 91.7516 100.111 91.7117C100.11 91.6318 100.077 91.5554 100.021 91.4989C99.9643 91.4424 99.8879 91.4102 99.808 91.4091ZM99.808 89.5938C99.6945 89.5938 99.6063 89.6946 99.6063 89.7955V90.804C99.6063 90.9175 99.6945 91.0057 99.808 91.0057C99.9089 91.0057 100.01 90.9175 100.01 90.804V89.7955C100.01 89.6946 99.9089 89.5938 99.808 89.5938Z" fill="#DA0014"/>
<path d="M105.41 91.959H108.184C108.332 92.1954 108.525 92.4009 108.751 92.5641H105.41C104.956 92.5641 104.604 92.211 104.604 91.7573V86.9162C104.604 86.4751 104.957 86.1094 105.41 86.1094H107.49C107.705 86.1094 107.906 86.1976 108.058 86.3487L109.205 87.4961C109.356 87.6475 109.445 87.8492 109.445 88.0635V88.6181C109.218 88.6813 109.016 88.7695 108.839 88.8954V88.1265H107.831C107.778 88.1272 107.725 88.1173 107.676 88.0972C107.626 88.0772 107.582 88.0475 107.544 88.0099C107.506 87.9723 107.477 87.9276 107.457 87.8783C107.437 87.829 107.427 87.7762 107.427 87.7231V86.7145H105.41C105.297 86.7145 105.209 86.8154 105.209 86.9162V91.7573C105.209 91.8708 105.297 91.959 105.41 91.959ZM108.234 90.7487C108.234 90.4312 108.318 90.1194 108.478 89.8448C108.637 89.5703 108.866 89.3427 109.142 89.1853C109.697 88.8578 110.39 88.8578 110.957 89.1853C111.512 89.5134 111.865 90.1057 111.865 90.7487C111.865 91.4044 111.512 91.9966 110.957 92.3248C110.39 92.6523 109.697 92.6523 109.142 92.3248C108.865 92.1659 108.635 91.9363 108.475 91.6594C108.316 91.3825 108.233 91.0682 108.234 90.7487ZM110.894 90.2065C110.819 90.1312 110.68 90.1312 110.604 90.2065L109.848 90.9757L109.482 90.6099C109.407 90.5346 109.268 90.5346 109.192 90.6099C109.117 90.6858 109.117 90.8243 109.192 90.8999L109.697 91.4042C109.772 91.48 109.911 91.48 109.987 91.4042L110.894 90.4965C110.97 90.4211 110.97 90.2824 110.894 90.2065H110.894Z" fill="#158149"/>
<path d="M209.959 89.1914C209.959 86.7159 211.966 84.709 214.441 84.709H247.275C249.751 84.709 251.758 86.7159 251.758 89.1914V89.1914C251.758 91.667 249.751 93.6739 247.275 93.6739H214.441C211.966 93.6739 209.959 91.667 209.959 89.1914V89.1914Z" fill="#F9BB00" fill-opacity="0.1"/>
<path d="M212.527 91.2787V90.1816C212.94 90.5637 213.538 90.7794 214 90.7794C214.419 90.7794 214.653 90.613 214.653 90.311C214.653 89.9597 214.222 89.8858 213.741 89.7563C213.149 89.6022 212.478 89.3804 212.478 88.536C212.478 87.7101 213.143 87.1739 214.08 87.1739C214.592 87.1739 215.029 87.291 215.411 87.5313V88.5606C215.011 88.2155 214.548 88.0306 214.086 88.0306C213.63 88.0306 213.433 88.2216 213.433 88.4805C213.433 88.764 213.797 88.8565 214.216 88.9674C214.838 89.1277 215.615 89.3372 215.615 90.2432C215.615 91.0691 215.005 91.6485 214.018 91.6485C213.482 91.6485 212.915 91.5191 212.527 91.2787ZM216.114 90.046C216.114 89.1277 216.785 88.4435 217.741 88.4435C218.006 88.4435 218.283 88.5052 218.505 88.6346V89.479C218.295 89.331 218.08 89.2571 217.845 89.2571C217.377 89.2571 217.02 89.5837 217.02 90.046C217.02 90.5021 217.371 90.8349 217.845 90.8349C218.086 90.8349 218.32 90.7363 218.511 90.6007V91.4513C218.265 91.5868 217.993 91.6485 217.728 91.6485C216.791 91.6485 216.114 91.0013 216.114 90.046ZM220.065 89.9536V91.5684H219.165V87.254H220.065V88.9119C220.25 88.6161 220.558 88.4435 220.965 88.4435C221.661 88.4435 222.087 88.9181 222.087 89.6885V91.5684H221.187V89.8919C221.187 89.4975 220.99 89.2694 220.644 89.2694C220.293 89.2694 220.065 89.5344 220.065 89.9536ZM225.544 90.5514V91.365C225.248 91.5375 224.853 91.6485 224.373 91.6485C223.331 91.6485 222.69 90.9767 222.69 90.0337C222.69 89.1215 223.331 88.4435 224.237 88.4435C225.168 88.4435 225.729 89.0845 225.729 90.0275C225.729 90.12 225.716 90.2247 225.71 90.2987H223.578C223.645 90.65 223.96 90.8966 224.471 90.8966C224.835 90.8966 225.18 90.7918 225.544 90.5514ZM223.565 89.707H224.866C224.835 89.368 224.582 89.14 224.231 89.14C223.88 89.14 223.608 89.3988 223.565 89.707ZM228.599 87.254H229.493V91.5684H228.599V91.1616C228.39 91.4697 228.014 91.6423 227.613 91.6423C226.794 91.6423 226.171 90.952 226.171 90.046C226.171 89.1461 226.794 88.4497 227.613 88.4497C228.014 88.4497 228.39 88.6038 228.599 88.9181V87.254ZM227.065 90.046C227.065 90.4836 227.41 90.8349 227.848 90.8349C228.285 90.8349 228.63 90.4836 228.63 90.046C228.63 89.6084 228.285 89.2571 227.848 89.2571C227.41 89.2571 227.065 89.6084 227.065 90.046ZM232.285 90.1323V88.5236H233.185V91.5684H232.285V91.1801C232.106 91.4697 231.798 91.6485 231.397 91.6485C230.707 91.6485 230.282 91.1677 230.282 90.4035V88.5236H231.181V90.1878C231.181 90.5884 231.379 90.8226 231.718 90.8226C232.063 90.8226 232.285 90.5637 232.285 90.1323ZM233.998 87.254H234.898V91.5684H233.998V87.254ZM238.39 90.5514V91.365C238.094 91.5375 237.7 91.6485 237.219 91.6485C236.177 91.6485 235.536 90.9767 235.536 90.0337C235.536 89.1215 236.177 88.4435 237.083 88.4435C238.014 88.4435 238.575 89.0845 238.575 90.0275C238.575 90.12 238.563 90.2247 238.557 90.2987H236.424C236.492 90.65 236.806 90.8966 237.318 90.8966C237.681 90.8966 238.026 90.7918 238.39 90.5514ZM236.412 89.707H237.712C237.681 89.368 237.429 89.14 237.077 89.14C236.726 89.14 236.455 89.3988 236.412 89.707ZM245 91.1123L244.495 91.6916L244.008 91.2725C243.644 91.5129 243.213 91.6485 242.745 91.6485C241.493 91.6485 240.489 90.6562 240.489 89.4112C240.489 88.1662 241.493 87.1739 242.745 87.1739C243.996 87.1739 245 88.1662 245 89.4112C245 89.9104 244.84 90.3665 244.563 90.7363L245 91.1123ZM244.07 89.4112C244.07 88.6531 243.49 88.0552 242.745 88.0552C241.999 88.0552 241.42 88.6531 241.42 89.4112C241.42 90.1693 241.999 90.7671 242.745 90.7671C242.942 90.7671 243.127 90.7301 243.293 90.65L242.856 90.2679L243.361 89.6947L243.873 90.1385C243.996 89.9289 244.07 89.6824 244.07 89.4112ZM246.865 87.254H247.684L249.416 91.5684H248.449L248.085 90.6377H246.439L246.076 91.5684H245.127L246.865 87.254ZM247.259 88.4312L246.723 89.8426H247.808L247.259 88.4312Z" fill="#C69500"/>
<path d="M251.758 89.1914C251.758 86.7159 253.765 84.709 256.24 84.709H263.45C265.925 84.709 267.932 86.7159 267.932 89.1914V89.1914C267.932 91.667 265.925 93.6739 263.45 93.6739H256.24C253.765 93.6739 251.758 91.667 251.758 89.1914V89.1914Z" fill="#0056CF" fill-opacity="0.1"/>
<path d="M255.38 89.8118V91.5684H254.455V87.254H256.927V88.0922H255.38V88.9674H256.803V89.8118H255.38ZM257.573 87.254H258.473V91.5684H257.573V87.254ZM261.966 90.5514V91.365C261.67 91.5375 261.275 91.6485 260.795 91.6485C259.753 91.6485 259.112 90.9767 259.112 90.0337C259.112 89.1215 259.753 88.4435 260.659 88.4435C261.59 88.4435 262.151 89.0845 262.151 90.0275C262.151 90.12 262.138 90.2247 262.132 90.2987H260C260.067 90.65 260.382 90.8966 260.893 90.8966C261.257 90.8966 261.602 90.7918 261.966 90.5514ZM259.987 89.707H261.288C261.257 89.368 261.004 89.14 260.653 89.14C260.302 89.14 260.03 89.3988 259.987 89.707ZM264.563 91.5684L263.922 90.6562L263.287 91.5684H262.288L263.416 90.0275L262.338 88.5236H263.367L263.946 89.3742L264.544 88.5236H265.543L264.464 90.0029L265.586 91.5684H264.563Z" fill="#0056CF"/>
<path d="M267.933 89.1914C267.933 86.7159 269.939 84.709 272.415 84.709H279.195C281.67 84.709 283.677 86.7159 283.677 89.1914V89.1914C283.677 91.667 281.67 93.6739 279.195 93.6739H272.415C269.939 93.6739 267.933 91.667 267.933 89.1914V89.1914Z" fill="#0056CF" fill-opacity="0.1"/>
<path d="M271.548 89.9905V91.5684H270.63V87.254H272.066C272.997 87.254 273.644 87.7532 273.644 88.6346C273.644 89.2509 273.274 89.6824 272.756 89.8796L273.946 91.5684H272.855L271.795 89.9905H271.548ZM271.548 88.086V89.2263H272.072C272.442 89.2263 272.713 89.0106 272.713 88.6531C272.713 88.2894 272.442 88.086 272.072 88.086H271.548ZM274.243 88.8195C274.243 87.932 274.94 87.2602 275.852 87.2602C276.77 87.2602 277.461 87.9196 277.461 88.8072C277.461 89.1893 277.294 89.5468 277.036 89.9905L276.111 91.5684H275.088L275.908 90.2186C275.815 90.2494 275.723 90.2556 275.649 90.2556C274.835 90.2556 274.243 89.6146 274.243 88.8195ZM275.137 88.7887C275.137 89.1831 275.458 89.4913 275.852 89.4913C276.253 89.4913 276.567 89.1831 276.567 88.7948C276.567 88.4004 276.259 88.086 275.858 88.086C275.458 88.086 275.137 88.4004 275.137 88.7887ZM277.935 88.8195C277.935 87.932 278.632 87.2602 279.544 87.2602C280.462 87.2602 281.152 87.9196 281.152 88.8072C281.152 89.1893 280.986 89.5468 280.727 89.9905L279.803 91.5684H278.779L279.599 90.2186C279.507 90.2494 279.414 90.2556 279.34 90.2556C278.527 90.2556 277.935 89.6146 277.935 88.8195ZM278.829 88.7887C278.829 89.1831 279.149 89.4913 279.544 89.4913C279.944 89.4913 280.259 89.1831 280.259 88.7948C280.259 88.4004 279.951 88.086 279.55 88.086C279.149 88.086 278.829 88.4004 278.829 88.7887Z" fill="#0056CF"/>
</g>
<path d="M76.3618 59.1602V59.7205H285.357V59.1602V58.5998H76.3618V59.1602ZM288.719 62.522H288.158V96.4767H288.719H289.279V62.522H288.719ZM285.357 99.8385V99.2782H76.3618V99.8385V100.399H285.357V99.8385ZM73 96.4767H73.5603V62.522H73H72.4397V96.4767H73ZM76.3618 99.8385V99.2782C74.8146 99.2782 73.5603 98.0239 73.5603 96.4767H73H72.4397C72.4397 98.6428 74.1957 100.399 76.3618 100.399V99.8385ZM288.719 96.4767H288.158C288.158 98.0239 286.904 99.2782 285.357 99.2782V99.8385V100.399C287.523 100.399 289.279 98.6428 289.279 96.4767H288.719ZM285.357 59.1602V59.7205C286.904 59.7205 288.158 60.9748 288.158 62.522H288.719H289.279C289.279 60.3559 287.523 58.5998 285.357 58.5998V59.1602ZM76.3618 59.1602V58.5998C74.1957 58.5998 72.4397 60.3559 72.4397 62.522H73H73.5603C73.5603 60.9748 74.8146 59.7205 76.3618 59.7205V59.1602Z" fill="#E4E8F0" mask="url(#path-16-inside-2_2274_15055)"/>
<g clip-path="url(#clip3_2274_15055)">
<mask id="path-31-inside-3_2274_15055" fill="white">
<path d="M73 107.684C73 105.827 74.5052 104.322 76.3618 104.322H285.357C287.213 104.322 288.719 105.827 288.719 107.684V141.639C288.719 143.495 287.213 145.001 285.357 145.001H76.3618C74.5051 145.001 73 143.495 73 141.639V107.684Z"/>
</mask>
<path d="M73 107.684C73 105.827 74.5052 104.322 76.3618 104.322H285.357C287.213 104.322 288.719 105.827 288.719 107.684V141.639C288.719 143.495 287.213 145.001 285.357 145.001H76.3618C74.5051 145.001 73 143.495 73 141.639V107.684Z" fill="white"/>
<rect width="2.24123" height="39.5577" transform="translate(73.5596 104.883)" fill="#0056CF"/>
<path d="M81.2488 123.349C81.2001 123.35 81.1519 123.337 81.1068 123.311C81.0618 123.285 81.0209 123.247 80.9865 123.198C80.9521 123.15 80.9249 123.092 80.9066 123.028C80.8883 122.965 80.8793 122.896 80.8799 122.828C80.8799 122.551 81.0412 122.307 81.2488 122.307C81.4448 122.307 81.6176 122.551 81.6176 122.828C81.6176 123.121 81.4448 123.349 81.2488 123.349ZM81.2488 125.954C81.2001 125.955 81.1519 125.942 81.1068 125.916C81.0618 125.891 81.0209 125.852 80.9865 125.804C80.9521 125.755 80.9249 125.697 80.9066 125.634C80.8883 125.57 80.8793 125.502 80.8799 125.433C80.8799 125.157 81.0412 124.912 81.2488 124.912C81.4448 124.912 81.6176 125.157 81.6176 125.433C81.6176 125.726 81.4448 125.954 81.2488 125.954ZM81.6176 128.039C81.6176 128.332 81.4448 128.56 81.2488 128.56C81.2001 128.561 81.1519 128.548 81.1068 128.522C81.0618 128.496 81.0209 128.458 80.9865 128.409C80.9521 128.361 80.9249 128.303 80.9066 128.239C80.8883 128.175 80.8793 128.107 80.8799 128.039C80.8799 127.762 81.0412 127.518 81.2488 127.518C81.4448 127.518 81.6176 127.762 81.6176 128.039ZM82.7242 123.349C82.6756 123.35 82.6273 123.337 82.5822 123.311C82.5372 123.285 82.4963 123.247 82.4619 123.198C82.4275 123.15 82.4004 123.092 82.3821 123.028C82.3637 122.965 82.3547 122.896 82.3553 122.828C82.3553 122.551 82.5169 122.307 82.7242 122.307C82.9202 122.307 83.093 122.551 83.093 122.828C83.093 123.121 82.9202 123.349 82.7242 123.349ZM83.093 125.433C83.093 125.726 82.9202 125.954 82.7242 125.954C82.6756 125.955 82.6273 125.942 82.5822 125.916C82.5372 125.891 82.4963 125.852 82.4619 125.804C82.4275 125.755 82.4004 125.697 82.3821 125.634C82.3637 125.57 82.3547 125.502 82.3553 125.433C82.3553 125.157 82.5169 124.912 82.7242 124.912C82.9202 124.912 83.093 125.157 83.093 125.433ZM82.7242 128.56C82.6756 128.561 82.6273 128.548 82.5822 128.522C82.5372 128.496 82.4963 128.458 82.4619 128.409C82.4275 128.361 82.4004 128.303 82.3821 128.239C82.3637 128.175 82.3547 128.107 82.3553 128.039C82.3553 127.762 82.5169 127.518 82.7242 127.518C82.9202 127.518 83.093 127.762 83.093 128.039C83.093 128.332 82.9202 128.56 82.7242 128.56Z" fill="#687887"/>
<path d="M94.0294 116.832V110.753H96.2527C97.373 110.753 98.1807 111.361 98.1807 112.394C98.1807 112.933 97.9115 113.358 97.4686 113.584C98.1633 113.827 98.5455 114.348 98.5455 115.052C98.5455 116.163 97.7117 116.832 96.383 116.832H94.0294ZM95.3061 115.738H96.3048C96.8606 115.738 97.2254 115.477 97.2254 114.982C97.2254 114.496 96.8519 114.227 96.3048 114.227H95.3061V115.738ZM95.3061 113.176H96.1224C96.574 113.176 96.9041 112.941 96.9041 112.507C96.9041 112.064 96.574 111.838 96.1224 111.838H95.3061V113.176ZM100.724 116.832H99.456V112.542H100.724V116.832ZM100.828 111.3C100.828 111.699 100.498 112.038 100.09 112.038C99.6818 112.038 99.3517 111.699 99.3517 111.3C99.3517 110.9 99.6818 110.562 100.09 110.562C100.498 110.562 100.828 110.9 100.828 111.3ZM101.865 110.753H103.133V116.832H101.865V110.753ZM104.275 110.753H105.542V116.832H104.275V110.753ZM112.749 115.538V114.539H111.394V113.419H113.974V116.294C113.401 116.693 112.671 116.945 111.803 116.945C109.909 116.945 108.537 115.746 108.537 113.827C108.537 112.029 109.901 110.64 111.889 110.64C112.541 110.64 113.322 110.813 113.852 111.144V112.576C113.322 112.168 112.688 111.873 111.898 111.873C110.648 111.873 109.857 112.707 109.857 113.827C109.857 114.991 110.7 115.729 111.82 115.729C112.202 115.729 112.532 115.642 112.749 115.538ZM117.757 112.472V113.775C117.687 113.74 117.566 113.723 117.436 113.723C116.732 113.723 116.315 114.244 116.315 115.086V116.832H115.056V112.542H116.307V113.245C116.532 112.75 116.984 112.446 117.54 112.446C117.635 112.446 117.731 112.464 117.757 112.472ZM122.201 115.399V116.545C121.784 116.789 121.229 116.945 120.551 116.945C119.083 116.945 118.18 115.998 118.18 114.67C118.18 113.384 119.083 112.429 120.36 112.429C121.672 112.429 122.462 113.332 122.462 114.661C122.462 114.791 122.444 114.939 122.436 115.043H119.431C119.526 115.538 119.969 115.885 120.69 115.885C121.203 115.885 121.689 115.738 122.201 115.399ZM119.413 114.209H121.246C121.203 113.732 120.846 113.41 120.351 113.41C119.856 113.41 119.474 113.775 119.413 114.209ZM127.096 115.399V116.545C126.679 116.789 126.123 116.945 125.445 116.945C123.978 116.945 123.075 115.998 123.075 114.67C123.075 113.384 123.978 112.429 125.254 112.429C126.566 112.429 127.356 113.332 127.356 114.661C127.356 114.791 127.339 114.939 127.33 115.043H124.325C124.421 115.538 124.864 115.885 125.584 115.885C126.097 115.885 126.583 115.738 127.096 115.399ZM124.308 114.209H126.14C126.097 113.732 125.741 113.41 125.246 113.41C124.751 113.41 124.369 113.775 124.308 114.209ZM129.446 114.557V116.832H128.178V112.542H129.446V113.089C129.707 112.672 130.141 112.429 130.714 112.429C131.696 112.429 132.295 113.098 132.295 114.183V116.832H131.027V114.478C131.027 113.914 130.749 113.593 130.254 113.593C129.768 113.593 129.446 113.957 129.446 114.557Z" fill="#242B42"/>
<path d="M137.343 111.605C137.343 110.367 138.346 109.363 139.584 109.363H164.63C165.868 109.363 166.871 110.367 166.871 111.605V116.367C166.871 117.605 165.868 118.608 164.63 118.608H139.584C138.346 118.608 137.343 117.605 137.343 116.367V111.605Z" fill="#0056CF" fill-opacity="0.1"/>
<path d="M142.586 115.1C142.586 115.901 141.951 116.443 140.983 116.443C140.57 116.443 140.182 116.339 139.831 116.123V115.198C140.182 115.476 140.539 115.611 140.909 115.611C141.359 115.611 141.673 115.408 141.673 115.05C141.673 114.736 141.378 114.52 140.94 114.52H140.539V113.805H140.921C141.279 113.805 141.525 113.608 141.525 113.349C141.525 113.054 141.236 112.881 140.891 112.881C140.552 112.881 140.243 113.01 139.917 113.275V112.369C140.225 112.16 140.589 112.055 140.965 112.055C141.803 112.055 142.419 112.499 142.419 113.238C142.419 113.633 142.216 113.929 141.895 114.107C142.333 114.286 142.586 114.638 142.586 115.1ZM143.102 116.117V115.186C143.466 115.47 143.835 115.605 144.205 115.605C144.655 115.605 145.025 115.383 145.025 114.964C145.025 114.564 144.661 114.348 144.168 114.348C143.829 114.348 143.503 114.434 143.201 114.576L143.324 112.129H145.697V112.918H144.07L144.033 113.645C144.125 113.614 144.285 113.59 144.452 113.59C145.302 113.59 145.943 114.132 145.943 114.958C145.943 115.889 145.228 116.437 144.261 116.443C143.842 116.443 143.453 116.332 143.102 116.117ZM146.548 115.124V114.317H148.501V115.124H146.548ZM150.353 116.363H149.441V113.115L148.677 113.411V112.517L149.632 112.129H150.353V116.363ZM153.941 116.363H151.069V115.716L152.456 114.342C152.851 113.96 152.961 113.762 152.961 113.479C152.961 113.14 152.672 112.899 152.265 112.899C151.871 112.899 151.501 113.121 151.168 113.485V112.517C151.495 112.221 151.92 112.055 152.339 112.055C153.19 112.055 153.874 112.573 153.874 113.38C153.874 113.941 153.639 114.354 153.103 114.847L152.345 115.55H153.941V116.363ZM157.215 115.1C157.215 115.901 156.581 116.443 155.613 116.443C155.2 116.443 154.812 116.339 154.46 116.123V115.198C154.812 115.476 155.169 115.611 155.539 115.611C155.989 115.611 156.303 115.408 156.303 115.05C156.303 114.736 156.007 114.52 155.57 114.52H155.169V113.805H155.551C155.909 113.805 156.155 113.608 156.155 113.349C156.155 113.054 155.866 112.881 155.521 112.881C155.182 112.881 154.873 113.01 154.547 113.275V112.369C154.855 112.16 155.218 112.055 155.594 112.055C156.433 112.055 157.049 112.499 157.049 113.238C157.049 113.633 156.846 113.929 156.525 114.107C156.963 114.286 157.215 114.638 157.215 115.1ZM157.62 115.494V114.866L159.444 112.135H160.541V114.736H161.133V115.494H160.541V116.363H159.672V115.494H157.62ZM158.6 114.736H159.678V113.103L158.6 114.736ZM161.568 116.117V115.186C161.931 115.47 162.301 115.605 162.671 115.605C163.121 115.605 163.491 115.383 163.491 114.964C163.491 114.564 163.127 114.348 162.634 114.348C162.295 114.348 161.968 114.434 161.666 114.576L161.79 112.129H164.163V112.918H162.536L162.499 113.645C162.591 113.614 162.751 113.59 162.918 113.59C163.768 113.59 164.409 114.132 164.409 114.958C164.409 115.889 163.694 116.437 162.727 116.443C162.307 116.443 161.919 116.332 161.568 116.117Z" fill="#0056CF"/>
<path d="M95.2492 122.092C96.0022 122.092 96.6612 122.569 96.6612 123.309C96.6612 123.813 96.3451 124.176 95.9955 124.304C96.3788 124.439 96.8427 124.822 96.8427 125.474C96.8427 126.335 96.0762 126.859 95.2492 126.859C94.4222 126.859 93.6557 126.335 93.6557 125.474C93.6557 124.822 94.1196 124.439 94.5029 124.304C94.1532 124.176 93.8372 123.813 93.8372 123.309C93.8372 122.569 94.4961 122.092 95.2492 122.092ZM96.251 125.447C96.251 124.936 95.8005 124.593 95.2492 124.593C94.6978 124.593 94.2474 124.936 94.2474 125.447C94.2474 125.965 94.7113 126.308 95.2492 126.308C95.7871 126.308 96.251 125.965 96.251 125.447ZM95.2492 122.637C94.8121 122.637 94.4154 122.919 94.4154 123.349C94.4154 123.78 94.8121 124.062 95.2492 124.062C95.6862 124.062 96.0829 123.78 96.0829 123.349C96.0829 122.919 95.6862 122.637 95.2492 122.637ZM98.3931 124.002C98.3931 124.23 98.2115 124.412 97.9829 124.412C97.7543 124.412 97.5728 124.23 97.5728 124.002C97.5728 123.78 97.7543 123.598 97.9829 123.598C98.2115 123.598 98.3931 123.78 98.3931 124.002ZM98.3931 126.436C98.3931 126.664 98.2115 126.846 97.9829 126.846C97.7543 126.846 97.5728 126.664 97.5728 126.436C97.5728 126.214 97.7543 126.032 97.9829 126.032C98.2115 126.032 98.3931 126.214 98.3931 126.436ZM101.095 126.859C99.8375 126.859 99.2324 125.723 99.2324 124.479C99.2324 123.228 99.8375 122.092 101.095 122.092C102.352 122.092 102.957 123.228 102.957 124.479C102.957 125.723 102.352 126.859 101.095 126.859ZM101.095 126.301C101.969 126.301 102.359 125.42 102.359 124.479C102.359 123.538 101.969 122.65 101.095 122.65C100.221 122.65 99.8308 123.538 99.8308 124.479C99.8308 125.42 100.221 126.301 101.095 126.301ZM105.599 126.859C104.342 126.859 103.737 125.723 103.737 124.479C103.737 123.228 104.342 122.092 105.599 122.092C106.856 122.092 107.461 123.228 107.461 124.479C107.461 125.723 106.856 126.859 105.599 126.859ZM105.599 126.301C106.473 126.301 106.863 125.42 106.863 124.479C106.863 123.538 106.473 122.65 105.599 122.65C104.725 122.65 104.335 123.538 104.335 124.479C104.335 125.42 104.725 126.301 105.599 126.301ZM109.888 122.079H110.359L112.295 126.785H111.663L111.112 125.42H109.115L108.563 126.785H107.945L109.888 122.079ZM110.11 122.919L109.33 124.876H110.897L110.11 122.919ZM114.445 125.017C114.445 124.701 114.721 124.432 115.037 124.432C115.359 124.432 115.628 124.701 115.628 125.017C115.628 125.326 115.359 125.595 115.037 125.595C114.721 125.595 114.445 125.326 114.445 125.017ZM117.834 122.63V122.079H121.182V122.63H119.811V126.785H119.205V122.63H117.834ZM122.815 123.443C123.797 123.443 124.523 124.203 124.523 125.151C124.523 126.099 123.797 126.859 122.815 126.859C121.834 126.859 121.107 126.099 121.107 125.151C121.107 124.203 121.834 123.443 122.815 123.443ZM122.815 123.975C122.177 123.975 121.692 124.499 121.692 125.151C121.692 125.803 122.177 126.328 122.815 126.328C123.454 126.328 123.938 125.803 123.938 125.151C123.938 124.499 123.454 123.975 122.815 123.975ZM128.757 126.785H128.314L127.453 124.365L126.592 126.785H126.149L124.932 123.517H125.53L126.384 125.965L127.251 123.517H127.668L128.536 125.965L129.389 123.517H129.974L128.757 126.785ZM131.264 125.077V126.785H130.686V123.517H131.264V123.988C131.466 123.665 131.816 123.443 132.306 123.443C133.14 123.443 133.624 124.002 133.624 124.869V126.785H133.046V124.936C133.046 124.351 132.743 123.981 132.185 123.981C131.627 123.981 131.264 124.412 131.264 125.077ZM134.436 126.523V125.884C134.732 126.153 135.115 126.341 135.512 126.341C135.842 126.341 136.144 126.227 136.144 125.891C136.144 125.555 135.828 125.44 135.418 125.353C134.947 125.252 134.43 125.064 134.43 124.432C134.43 123.773 134.988 123.443 135.573 123.443C135.922 123.443 136.272 123.551 136.561 123.746V124.358C136.272 124.123 135.936 123.954 135.586 123.954C135.31 123.954 134.994 124.062 134.994 124.365C134.994 124.66 135.277 124.788 135.653 124.882C136.258 125.03 136.716 125.252 136.716 125.844C136.716 126.509 136.158 126.859 135.505 126.859C135.149 126.859 134.746 126.752 134.436 126.523ZM138.099 125.077V126.785H137.521V122.079H138.099V123.988C138.301 123.665 138.65 123.443 139.141 123.443C139.975 123.443 140.459 124.002 140.459 124.869V126.785H139.881V124.936C139.881 124.351 139.578 123.981 139.02 123.981C138.462 123.981 138.099 124.412 138.099 125.077ZM142.192 122.549C142.192 122.764 142.017 122.939 141.802 122.939C141.587 122.939 141.412 122.764 141.412 122.549C141.412 122.334 141.587 122.159 141.802 122.159C142.017 122.159 142.192 122.334 142.192 122.549ZM141.513 123.517H142.091V126.785H141.513V123.517ZM143.765 128.184H143.194V123.517H143.765V124.035C144 123.679 144.444 123.443 144.922 123.443C145.849 123.443 146.562 124.183 146.562 125.151C146.562 126.113 145.849 126.859 144.922 126.859C144.444 126.859 144.007 126.651 143.765 126.294V128.184ZM145.977 125.151C145.977 124.492 145.493 123.975 144.854 123.975C144.216 123.975 143.731 124.492 143.731 125.151C143.731 125.81 144.216 126.328 144.854 126.328C145.493 126.328 145.977 125.81 145.977 125.151ZM152.592 122.079H153.17V126.785H152.606L149.748 122.986V126.785H149.17V122.079H149.782L152.592 125.83V122.079ZM156.225 124.708V124.627C156.225 124.217 155.936 123.968 155.452 123.968C155.008 123.968 154.678 124.149 154.342 124.459V123.854C154.638 123.612 154.994 123.443 155.465 123.443C156.305 123.443 156.79 123.907 156.79 124.667V126.785H156.245V126.355C155.989 126.684 155.593 126.859 155.162 126.859C154.584 126.859 154.174 126.462 154.174 125.925C154.174 125.34 154.544 124.99 155.263 124.869L156.225 124.708ZM154.752 125.891C154.752 126.167 154.967 126.348 155.27 126.348C155.828 126.348 156.232 125.985 156.232 125.481V125.205L155.357 125.36C154.967 125.434 154.752 125.609 154.752 125.891ZM158.413 125.071V126.785H157.835V123.517H158.407V123.988C158.588 123.652 158.918 123.443 159.368 123.443C159.852 123.443 160.202 123.686 160.397 124.082C160.558 123.807 160.894 123.443 161.513 123.443C162.266 123.443 162.717 123.975 162.717 124.815V126.785H162.138V124.916C162.138 124.338 161.89 123.975 161.399 123.975C160.894 123.975 160.565 124.405 160.565 125.071V126.785H159.987V124.929C159.987 124.344 159.731 123.975 159.247 123.975C158.743 123.975 158.413 124.405 158.413 125.071ZM166.514 125.817V126.442C166.151 126.704 165.707 126.859 165.25 126.859C164.208 126.859 163.535 126.113 163.535 125.151C163.535 124.176 164.208 123.443 165.149 123.443C166.063 123.443 166.689 124.197 166.689 125.124C166.689 125.252 166.675 125.333 166.675 125.333H164.114C164.161 125.877 164.611 126.335 165.29 126.335C165.707 126.335 166.111 126.167 166.514 125.817ZM164.127 124.855H166.104C166.057 124.338 165.673 123.948 165.136 123.948C164.591 123.948 164.167 124.412 164.127 124.855ZM169.026 125.017C169.026 124.701 169.301 124.432 169.617 124.432C169.94 124.432 170.209 124.701 170.209 125.017C170.209 125.326 169.94 125.595 169.617 125.595C169.301 125.595 169.026 125.326 169.026 125.017ZM172.556 123.726C172.556 122.811 173.289 122.092 174.223 122.092C175.185 122.092 175.897 122.798 175.897 123.733C175.897 124.123 175.756 124.553 175.38 125.118L174.277 126.785H173.564L174.667 125.151C174.532 125.232 174.358 125.286 174.116 125.286C173.221 125.286 172.556 124.587 172.556 123.726ZM173.154 123.699C173.154 124.304 173.632 124.755 174.223 124.755C174.828 124.755 175.299 124.304 175.299 123.706C175.299 123.121 174.835 122.65 174.23 122.65C173.632 122.65 173.154 123.121 173.154 123.699ZM178.445 126.859C177.188 126.859 176.583 125.723 176.583 124.479C176.583 123.228 177.188 122.092 178.445 122.092C179.703 122.092 180.308 123.228 180.308 124.479C180.308 125.723 179.703 126.859 178.445 126.859ZM178.445 126.301C179.319 126.301 179.709 125.42 179.709 124.479C179.709 123.538 179.319 122.65 178.445 122.65C177.571 122.65 177.181 123.538 177.181 124.479C177.181 125.42 177.571 126.301 178.445 126.301ZM180.855 126.785V126.375L182.576 124.553C182.973 124.136 183.094 123.847 183.094 123.491C183.094 123.013 182.677 122.65 182.139 122.65C181.715 122.65 181.278 122.932 180.909 123.39V122.684C181.231 122.321 181.709 122.092 182.146 122.092C183.033 122.092 183.686 122.664 183.686 123.464C183.686 124.015 183.47 124.418 182.973 124.943L181.742 126.234H183.746V126.785H180.855ZM185.733 126.785H185.142V122.832L184.308 123.175V122.569L185.249 122.166H185.733V126.785ZM188.609 126.859C187.352 126.859 186.747 125.723 186.747 124.479C186.747 123.228 187.352 122.092 188.609 122.092C189.866 122.092 190.472 123.228 190.472 124.479C190.472 125.723 189.866 126.859 188.609 126.859ZM188.609 126.301C189.483 126.301 189.873 125.42 189.873 124.479C189.873 123.538 189.483 122.65 188.609 122.65C187.735 122.65 187.345 123.538 187.345 124.479C187.345 125.42 187.735 126.301 188.609 126.301Z" fill="#4B546B"/>
<path d="M97.3748 131.402L100.186 133.785C100.062 133.76 99.935 133.747 99.808 133.747C99.6189 133.747 99.4549 133.772 99.2784 133.81L97.1858 132.032L94.9669 133.911V136.773C94.9669 137 95.1434 137.176 95.3704 137.176H95.9755V135.26C95.9746 135.194 95.987 135.128 96.012 135.066C96.0371 135.005 96.0742 134.949 96.1212 134.902C96.1682 134.855 96.2241 134.817 96.2857 134.792C96.3473 134.767 96.4133 134.755 96.4798 134.756H97.8917C97.9044 134.756 97.917 134.756 97.9423 134.769C97.8159 134.945 97.728 135.147 97.6648 135.361H96.5806V137.176H97.9423C98.0935 137.416 98.2952 137.63 98.5222 137.782H95.3704C94.8029 137.782 94.3618 137.34 94.3618 136.773V134.428L94.0466 134.693C93.9837 134.742 93.9044 134.766 93.8247 134.759C93.7451 134.752 93.6711 134.714 93.6179 134.655C93.5685 134.592 93.545 134.513 93.552 134.433C93.559 134.353 93.5962 134.279 93.6558 134.226L96.984 131.402C97.0401 131.359 97.1088 131.336 97.1794 131.336C97.2501 131.336 97.3187 131.359 97.3748 131.402ZM99.808 137.782C99.4885 137.783 99.1742 137.7 98.8973 137.541C98.6204 137.381 98.3908 137.151 98.232 136.874C97.9044 136.319 97.9044 135.626 98.232 135.058C98.5601 134.504 99.1523 134.151 99.808 134.151C100.451 134.151 101.044 134.504 101.371 135.058C101.699 135.626 101.699 136.319 101.371 136.874C101.214 137.15 100.986 137.379 100.712 137.538C100.437 137.698 100.125 137.782 99.808 137.782ZM99.808 136.571C99.7681 136.571 99.7285 136.578 99.6916 136.593C99.6546 136.608 99.621 136.63 99.5928 136.659C99.5646 136.687 99.5424 136.72 99.5274 136.757C99.5123 136.794 99.5049 136.834 99.5054 136.874C99.5054 137.05 99.6316 137.176 99.808 137.176C99.8479 137.177 99.8875 137.169 99.9244 137.154C99.9614 137.139 99.9949 137.117 100.023 137.089C100.051 137.061 100.074 137.027 100.089 136.99C100.104 136.953 100.111 136.914 100.111 136.874C100.11 136.794 100.077 136.718 100.021 136.661C99.9643 136.605 99.8879 136.572 99.808 136.571ZM99.808 134.756C99.6945 134.756 99.6063 134.857 99.6063 134.958V135.966C99.6063 136.08 99.6945 136.168 99.808 136.168C99.9089 136.168 100.01 136.08 100.01 135.966V134.958C100.01 134.857 99.9089 134.756 99.808 134.756Z" fill="#DA0014"/>
<path d="M105.41 137.121H108.184C108.332 137.357 108.525 137.563 108.751 137.726H105.41C104.956 137.726 104.604 137.373 104.604 136.919V132.078C104.604 131.637 104.957 131.271 105.41 131.271H107.49C107.705 131.271 107.906 131.36 108.058 131.511L109.205 132.658C109.356 132.81 109.445 133.011 109.445 133.226V133.78C109.218 133.843 109.016 133.932 108.839 134.058V133.289H107.831C107.778 133.289 107.725 133.279 107.676 133.259C107.626 133.239 107.582 133.21 107.544 133.172C107.506 133.134 107.477 133.09 107.457 133.04C107.437 132.991 107.427 132.938 107.427 132.885V131.877H105.41C105.297 131.877 105.209 131.977 105.209 132.078V136.919C105.209 137.033 105.297 137.121 105.41 137.121ZM108.234 135.911C108.234 135.593 108.318 135.282 108.478 135.007C108.637 134.732 108.866 134.505 109.142 134.347C109.697 134.02 110.39 134.02 110.957 134.347C111.512 134.676 111.865 135.268 111.865 135.911C111.865 136.567 111.512 137.159 110.957 137.487C110.39 137.814 109.697 137.814 109.142 137.487C108.865 137.328 108.635 137.098 108.475 136.821C108.316 136.545 108.233 136.23 108.234 135.911ZM110.894 135.369C110.819 135.293 110.68 135.293 110.604 135.369L109.848 136.138L109.482 135.772C109.407 135.697 109.268 135.697 109.192 135.772C109.117 135.848 109.117 135.986 109.192 136.062L109.697 136.566C109.772 136.642 109.911 136.642 109.987 136.566L110.894 135.659C110.97 135.583 110.97 135.444 110.894 135.369H110.894Z" fill="#158149"/>
<path d="M209.959 134.354C209.959 131.878 211.966 129.871 214.441 129.871H247.275C249.751 129.871 251.758 131.878 251.758 134.354V134.354C251.758 136.829 249.751 138.836 247.275 138.836H214.441C211.966 138.836 209.959 136.829 209.959 134.354V134.354Z" fill="#F9BB00" fill-opacity="0.1"/>
<path d="M212.527 136.441V135.344C212.94 135.726 213.538 135.942 214 135.942C214.419 135.942 214.653 135.775 214.653 135.473C214.653 135.122 214.222 135.048 213.741 134.918C213.149 134.764 212.478 134.542 212.478 133.698C212.478 132.872 213.143 132.336 214.08 132.336C214.592 132.336 215.029 132.453 215.411 132.693V133.723C215.011 133.378 214.548 133.193 214.086 133.193C213.63 133.193 213.433 133.384 213.433 133.643C213.433 133.926 213.797 134.019 214.216 134.13C214.838 134.29 215.615 134.499 215.615 135.405C215.615 136.231 215.005 136.811 214.018 136.811C213.482 136.811 212.915 136.681 212.527 136.441ZM216.114 135.208C216.114 134.29 216.785 133.606 217.741 133.606C218.006 133.606 218.283 133.667 218.505 133.797V134.641C218.295 134.493 218.08 134.419 217.845 134.419C217.377 134.419 217.02 134.746 217.02 135.208C217.02 135.664 217.371 135.997 217.845 135.997C218.086 135.997 218.32 135.898 218.511 135.763V136.613C218.265 136.749 217.993 136.811 217.728 136.811C216.791 136.811 216.114 136.163 216.114 135.208ZM220.065 135.116V136.73H219.165V132.416H220.065V134.074C220.25 133.778 220.558 133.606 220.965 133.606C221.661 133.606 222.087 134.08 222.087 134.851V136.73H221.187V135.054C221.187 134.66 220.99 134.432 220.644 134.432C220.293 134.432 220.065 134.697 220.065 135.116ZM225.544 135.714V136.527C225.248 136.7 224.853 136.811 224.373 136.811C223.331 136.811 222.69 136.139 222.69 135.196C222.69 134.284 223.331 133.606 224.237 133.606C225.168 133.606 225.729 134.247 225.729 135.19C225.729 135.282 225.716 135.387 225.71 135.461H223.578C223.645 135.812 223.96 136.059 224.471 136.059C224.835 136.059 225.18 135.954 225.544 135.714ZM223.565 134.869H224.866C224.835 134.53 224.582 134.302 224.231 134.302C223.88 134.302 223.608 134.561 223.565 134.869ZM228.599 132.416H229.493V136.73H228.599V136.324C228.39 136.632 228.014 136.804 227.613 136.804C226.794 136.804 226.171 136.114 226.171 135.208C226.171 134.308 226.794 133.612 227.613 133.612C228.014 133.612 228.39 133.766 228.599 134.08V132.416ZM227.065 135.208C227.065 135.646 227.41 135.997 227.848 135.997C228.285 135.997 228.63 135.646 228.63 135.208C228.63 134.771 228.285 134.419 227.848 134.419C227.41 134.419 227.065 134.771 227.065 135.208ZM232.285 135.294V133.686H233.185V136.73H232.285V136.342C232.106 136.632 231.798 136.811 231.397 136.811C230.707 136.811 230.282 136.33 230.282 135.566V133.686H231.181V135.35C231.181 135.75 231.379 135.985 231.718 135.985C232.063 135.985 232.285 135.726 232.285 135.294ZM233.998 132.416H234.898V136.73H233.998V132.416ZM238.39 135.714V136.527C238.094 136.7 237.7 136.811 237.219 136.811C236.177 136.811 235.536 136.139 235.536 135.196C235.536 134.284 236.177 133.606 237.083 133.606C238.014 133.606 238.575 134.247 238.575 135.19C238.575 135.282 238.563 135.387 238.557 135.461H236.424C236.492 135.812 236.806 136.059 237.318 136.059C237.681 136.059 238.026 135.954 238.39 135.714ZM236.412 134.869H237.712C237.681 134.53 237.429 134.302 237.077 134.302C236.726 134.302 236.455 134.561 236.412 134.869ZM245 136.274L244.495 136.854L244.008 136.435C243.644 136.675 243.213 136.811 242.745 136.811C241.493 136.811 240.489 135.818 240.489 134.573C240.489 133.328 241.493 132.336 242.745 132.336C243.996 132.336 245 133.328 245 134.573C245 135.073 244.84 135.529 244.563 135.898L245 136.274ZM244.07 134.573C244.07 133.815 243.49 133.217 242.745 133.217C241.999 133.217 241.42 133.815 241.42 134.573C241.42 135.331 241.999 135.929 242.745 135.929C242.942 135.929 243.127 135.892 243.293 135.812L242.856 135.43L243.361 134.857L243.873 135.301C243.996 135.091 244.07 134.844 244.07 134.573ZM246.865 132.416H247.684L249.416 136.73H248.449L248.085 135.8H246.439L246.076 136.73H245.127L246.865 132.416ZM247.259 133.593L246.723 135.005H247.808L247.259 133.593Z" fill="#C69500"/>
<path d="M251.758 134.354C251.758 131.878 253.765 129.871 256.24 129.871H263.45C265.925 129.871 267.932 131.878 267.932 134.354V134.354C267.932 136.829 265.925 138.836 263.45 138.836H256.24C253.765 138.836 251.758 136.829 251.758 134.354V134.354Z" fill="#0056CF" fill-opacity="0.1"/>
<path d="M255.38 134.974V136.73H254.455V132.416H256.927V133.254H255.38V134.13H256.803V134.974H255.38ZM257.573 132.416H258.473V136.73H257.573V132.416ZM261.966 135.714V136.527C261.67 136.7 261.275 136.811 260.795 136.811C259.753 136.811 259.112 136.139 259.112 135.196C259.112 134.284 259.753 133.606 260.659 133.606C261.59 133.606 262.151 134.247 262.151 135.19C262.151 135.282 262.138 135.387 262.132 135.461H260C260.067 135.812 260.382 136.059 260.893 136.059C261.257 136.059 261.602 135.954 261.966 135.714ZM259.987 134.869H261.288C261.257 134.53 261.004 134.302 260.653 134.302C260.302 134.302 260.03 134.561 259.987 134.869ZM264.563 136.73L263.922 135.818L263.287 136.73H262.288L263.416 135.19L262.338 133.686H263.367L263.946 134.536L264.544 133.686H265.543L264.464 135.165L265.586 136.73H264.563Z" fill="#0056CF"/>
<path d="M267.933 134.354C267.933 131.878 269.939 129.871 272.415 129.871H279.195C281.67 129.871 283.677 131.878 283.677 134.354V134.354C283.677 136.829 281.67 138.836 279.195 138.836H272.415C269.939 138.836 267.933 136.829 267.933 134.354V134.354Z" fill="#0056CF" fill-opacity="0.1"/>
<path d="M271.548 135.153V136.73H270.63V132.416H272.066C272.997 132.416 273.644 132.915 273.644 133.797C273.644 134.413 273.274 134.844 272.756 135.042L273.946 136.73H272.855L271.795 135.153H271.548ZM271.548 133.248V134.388H272.072C272.442 134.388 272.713 134.173 272.713 133.815C272.713 133.452 272.442 133.248 272.072 133.248H271.548ZM274.243 133.982C274.243 133.094 274.94 132.422 275.852 132.422C276.77 132.422 277.461 133.082 277.461 133.969C277.461 134.351 277.294 134.709 277.036 135.153L276.111 136.73H275.088L275.908 135.381C275.815 135.412 275.723 135.418 275.649 135.418C274.835 135.418 274.243 134.777 274.243 133.982ZM275.137 133.951C275.137 134.345 275.458 134.653 275.852 134.653C276.253 134.653 276.567 134.345 276.567 133.957C276.567 133.562 276.259 133.248 275.858 133.248C275.458 133.248 275.137 133.562 275.137 133.951ZM277.935 133.982C277.935 133.094 278.632 132.422 279.544 132.422C280.462 132.422 281.152 133.082 281.152 133.969C281.152 134.351 280.986 134.709 280.727 135.153L279.803 136.73H278.779L279.599 135.381C279.507 135.412 279.414 135.418 279.34 135.418C278.527 135.418 277.935 134.777 277.935 133.982ZM278.829 133.951C278.829 134.345 279.149 134.653 279.544 134.653C279.944 134.653 280.259 134.345 280.259 133.957C280.259 133.562 279.951 133.248 279.55 133.248C279.149 133.248 278.829 133.562 278.829 133.951Z" fill="#0056CF"/>
</g>
<path d="M76.3618 104.322V104.883H285.357V104.322V103.762H76.3618V104.322ZM288.719 107.684H288.158V141.639H288.719H289.279V107.684H288.719ZM285.357 145.001V144.44H76.3618V145.001V145.561H285.357V145.001ZM73 141.639H73.5603V107.684H73H72.4397V141.639H73ZM76.3618 145.001V144.44C74.8146 144.44 73.5603 143.186 73.5603 141.639H73H72.4397C72.4397 143.805 74.1957 145.561 76.3618 145.561V145.001ZM288.719 141.639H288.158C288.158 143.186 286.904 144.44 285.357 144.44V145.001V145.561C287.523 145.561 289.279 143.805 289.279 141.639H288.719ZM285.357 104.322V104.883C286.904 104.883 288.158 106.137 288.158 107.684H288.719H289.279C289.279 105.518 287.523 103.762 285.357 103.762V104.322ZM76.3618 104.322V103.762C74.1957 103.762 72.4397 105.518 72.4397 107.684H73H73.5603C73.5603 106.137 74.8146 104.883 76.3618 104.883V104.322Z" fill="#E4E8F0" mask="url(#path-31-inside-3_2274_15055)"/>
</g>
</g>
<defs>
<filter id="filter0_d_2274_15055" x="63" y="8" width="235.719" height="151" filterUnits="userSpaceOnUse" color-interpolation-filters="sRGB">
<feFlood flood-opacity="0" result="BackgroundImageFix"/>
<feColorMatrix in="SourceAlpha" type="matrix" values="0 0 0 0 0 0 0 0 0 0 0 0 0 0 0 0 0 0 127 0" result="hardAlpha"/>
<feOffset dy="4"/>
<feGaussianBlur stdDeviation="5"/>
<feColorMatrix type="matrix" values="0 0 0 0 0.235294 0 0 0 0 0.415686 0 0 0 0 0.67451 0 0 0 0.16 0"/>
<feBlend mode="normal" in2="BackgroundImageFix" result="effect1_dropShadow_2274_15055"/>
<feBlend mode="normal" in="SourceGraphic" in2="effect1_dropShadow_2274_15055" result="shape"/>
</filter>
<clipPath id="clip0_2274_15055">
<rect width="362" height="158.375" fill="white"/>
</clipPath>
<clipPath id="clip1_2274_15055">
<path d="M73 17.3618C73 15.5052 74.5052 14 76.3618 14H285.357C287.213 14 288.719 15.5052 288.719 17.3618V51.3165C288.719 53.1732 287.213 54.6784 285.357 54.6784H76.3618C74.5051 54.6784 73 53.1732 73 51.3165V17.3618Z" fill="white"/>
</clipPath>
<clipPath id="clip2_2274_15055">
<path d="M73 62.522C73 60.6653 74.5052 59.1602 76.3618 59.1602H285.357C287.213 59.1602 288.719 60.6653 288.719 62.522V96.4767C288.719 98.3334 287.213 99.8385 285.357 99.8385H76.3618C74.5051 99.8385 73 98.3334 73 96.4767V62.522Z" fill="white"/>
</clipPath>
<clipPath id="clip3_2274_15055">
<path d="M73 107.684C73 105.827 74.5052 104.322 76.3618 104.322H285.357C287.213 104.322 288.719 105.827 288.719 107.684V141.639C288.719 143.495 287.213 145.001 285.357 145.001H76.3618C74.5051 145.001 73 143.495 73 141.639V107.684Z" fill="white"/>
</clipPath>
</defs>
</svg>
