<svg width="362" height="159" viewBox="0 0 362 159" fill="none" xmlns="http://www.w3.org/2000/svg">
<g filter="url(#filter0_d_2274_15058)">
<path d="M57 89C57 85.6863 59.6863 83 63 83H299C302.314 83 305 85.6863 305 89V133C305 136.314 302.314 139 299 139H63C59.6863 139 57 136.314 57 133V89Z" fill="white"/>
<path d="M63 83.5H299C302.038 83.5 304.5 85.9624 304.5 89V133C304.5 136.038 302.038 138.5 299 138.5H63C59.9624 138.5 57.5 136.038 57.5 133V89C57.5 85.9624 59.9624 83.5 63 83.5Z" stroke="#E4E8F0"/>
<rect x="65.5" y="91.5" width="135" height="39" rx="3.5" fill="#F3F7FB"/>
<rect x="65.5" y="91.5" width="135" height="39" rx="3.5" stroke="#0056CF"/>
<path d="M134.681 116.5H132.387V108.331L130.465 109.075V106.828L132.868 105.851H134.681V116.5Z" fill="#242B42"/>
<rect x="209.5" y="91.5" width="39" height="39" rx="3.5" fill="#F3F7FB"/>
<rect x="209.5" y="91.5" width="39" height="39" rx="3.5" stroke="#E4E8F0"/>
<path d="M232.297 116.5H225.074V114.872L228.561 111.416C229.553 110.455 229.832 109.959 229.832 109.246C229.832 108.393 229.104 107.789 228.081 107.789C227.089 107.789 226.159 108.347 225.322 109.261V106.828C226.143 106.084 227.213 105.665 228.267 105.665C230.406 105.665 232.126 106.967 232.126 108.998C232.126 110.408 231.537 111.447 230.189 112.687L228.282 114.454H232.297V116.5Z" fill="#242B42"/>
<rect x="257.5" y="91.5" width="39" height="39" rx="3.5" fill="#F3F7FB"/>
<rect x="257.5" y="91.5" width="39" height="39" rx="3.5" stroke="#E4E8F0"/>
<path d="M280.049 113.322C280.049 115.337 278.452 116.702 276.019 116.702C274.98 116.702 274.004 116.438 273.12 115.895V113.57C274.004 114.268 274.903 114.609 275.833 114.609C276.964 114.609 277.755 114.097 277.755 113.198C277.755 112.408 277.011 111.865 275.91 111.865H274.903V110.067H275.864C276.763 110.067 277.383 109.571 277.383 108.92C277.383 108.176 276.654 107.743 275.786 107.743C274.934 107.743 274.159 108.068 273.337 108.734V106.456C274.112 105.929 275.027 105.665 275.972 105.665C278.08 105.665 279.63 106.781 279.63 108.641C279.63 109.633 279.119 110.377 278.313 110.827C279.413 111.276 280.049 112.16 280.049 113.322Z" fill="#242B42"/>
</g>
<g filter="url(#filter1_d_2274_15058)">
<rect x="57.5" y="19.5" width="247" height="55" rx="5.5" fill="white"/>
<rect x="57.5" y="19.5" width="247" height="55" rx="5.5" stroke="#0056CF"/>
<rect x="65.5" y="27.5" width="39" height="39" rx="3.5" fill="#F3F7FB"/>
<rect x="65.5" y="27.5" width="39" height="39" rx="3.5" stroke="#E4E8F0"/>
<path d="M86.681 52.5H84.387V44.3315L82.465 45.0755V42.828L84.8675 41.8515H86.681V52.5Z" fill="#242B42"/>
<rect x="161.5" y="27.5" width="39" height="39" rx="3.5" fill="#F3F7FB"/>
<rect x="161.5" y="27.5" width="39" height="39" rx="3.5" stroke="#E4E8F0"/>
<path d="M184.297 52.5H177.074V50.8725L180.561 47.416C181.553 46.455 181.832 45.959 181.832 45.246C181.832 44.3935 181.104 43.789 180.081 43.789C179.089 43.789 178.159 44.347 177.322 45.2615V42.828C178.143 42.084 179.213 41.6655 180.267 41.6655C182.406 41.6655 184.126 42.9675 184.126 44.998C184.126 46.4085 183.537 47.447 182.189 48.687L180.282 50.454H184.297V52.5Z" fill="#242B42"/>
<rect x="257.5" y="27.5" width="39" height="39" rx="3.5" fill="#F3F7FB"/>
<rect x="257.5" y="27.5" width="39" height="39" rx="3.5" stroke="#E4E8F0"/>
<path d="M280.049 49.3225C280.049 51.3375 278.452 52.7015 276.019 52.7015C274.98 52.7015 274.004 52.438 273.12 51.8955V49.5705C274.004 50.268 274.903 50.609 275.833 50.609C276.964 50.609 277.755 50.0975 277.755 49.1985C277.755 48.408 277.011 47.8655 275.91 47.8655H274.903V46.0675H275.864C276.763 46.0675 277.383 45.5715 277.383 44.9205C277.383 44.1765 276.654 43.7425 275.786 43.7425C274.934 43.7425 274.159 44.068 273.337 44.7345V42.456C274.112 41.929 275.027 41.6655 275.972 41.6655C278.08 41.6655 279.63 42.7815 279.63 44.6415C279.63 45.6335 279.119 46.3775 278.313 46.827C279.413 47.2765 280.049 48.16 280.049 49.3225Z" fill="#242B42"/>
</g>
<defs>
<filter id="filter0_d_2274_15058" x="47" y="77" width="268" height="76" filterUnits="userSpaceOnUse" color-interpolation-filters="sRGB">
<feFlood flood-opacity="0" result="BackgroundImageFix"/>
<feColorMatrix in="SourceAlpha" type="matrix" values="0 0 0 0 0 0 0 0 0 0 0 0 0 0 0 0 0 0 127 0" result="hardAlpha"/>
<feOffset dy="4"/>
<feGaussianBlur stdDeviation="5"/>
<feColorMatrix type="matrix" values="0 0 0 0 0.235294 0 0 0 0 0.415686 0 0 0 0 0.67451 0 0 0 0.16 0"/>
<feBlend mode="normal" in2="BackgroundImageFix" result="effect1_dropShadow_2274_15058"/>
<feBlend mode="normal" in="SourceGraphic" in2="effect1_dropShadow_2274_15058" result="shape"/>
</filter>
<filter id="filter1_d_2274_15058" x="47" y="13" width="268" height="76" filterUnits="userSpaceOnUse" color-interpolation-filters="sRGB">
<feFlood flood-opacity="0" result="BackgroundImageFix"/>
<feColorMatrix in="SourceAlpha" type="matrix" values="0 0 0 0 0 0 0 0 0 0 0 0 0 0 0 0 0 0 127 0" result="hardAlpha"/>
<feOffset dy="4"/>
<feGaussianBlur stdDeviation="5"/>
<feColorMatrix type="matrix" values="0 0 0 0 0.235294 0 0 0 0 0.415686 0 0 0 0 0.67451 0 0 0 0.16 0"/>
<feBlend mode="normal" in2="BackgroundImageFix" result="effect1_dropShadow_2274_15058"/>
<feBlend mode="normal" in="SourceGraphic" in2="effect1_dropShadow_2274_15058" result="shape"/>
</filter>
</defs>
</svg>
