<svg width="362" height="159" viewBox="0 0 362 159" fill="none" xmlns="http://www.w3.org/2000/svg">
<g filter="url(#filter0_d_2274_15061)">
<mask id="path-1-inside-1_2274_15061" fill="white">
<path d="M35 17.2646C35 16.0139 36.0139 15 37.2646 15H103.995C105.246 15 106.26 16.0139 106.26 17.2646V141.441C106.26 142.692 105.246 143.706 103.995 143.706H37.2646C36.0139 143.706 35 142.692 35 141.441V17.2646Z"/>
</mask>
<path d="M35 17.2646C35 16.0139 36.0139 15 37.2646 15H103.995C105.246 15 106.26 16.0139 106.26 17.2646V141.441C106.26 142.692 105.246 143.706 103.995 143.706H37.2646C36.0139 143.706 35 142.692 35 141.441V17.2646Z" fill="white"/>
<path d="M37.2646 15V15.3774H103.995V15V14.6226H37.2646V15ZM106.26 17.2646H105.882V141.441H106.26H106.637V17.2646H106.26ZM103.995 143.706V143.328H37.2646V143.706V144.083H103.995V143.706ZM35 141.441H35.3774V17.2646H35H34.6226V141.441H35ZM37.2646 143.706V143.328C36.2224 143.328 35.3774 142.483 35.3774 141.441H35H34.6226C34.6226 142.9 35.8054 144.083 37.2646 144.083V143.706ZM106.26 141.441H105.882C105.882 142.483 105.038 143.328 103.995 143.328V143.706V144.083C105.454 144.083 106.637 142.9 106.637 141.441H106.26ZM103.995 15V15.3774C105.038 15.3774 105.882 16.2224 105.882 17.2646H106.26H106.637C106.637 15.8055 105.454 14.6226 103.995 14.6226V15ZM37.2646 15V14.6226C35.8055 14.6226 34.6226 15.8054 34.6226 17.2646H35H35.3774C35.3774 16.2224 36.2224 15.3774 37.2646 15.3774V15Z" fill="#E4E8F0" mask="url(#path-1-inside-1_2274_15061)"/>
<path d="M43.2196 25.5826L42.4134 24.3145V26.416H41.7522V23.2456H42.4632L43.4189 24.7538L44.3701 23.2456H45.063V26.416H44.4018V24.3054L43.591 25.5826H43.2196ZM46.1858 26.416V23.2456H48.0519V23.8615H46.8652V24.5047H47.9477V25.1025H46.8652V25.8H48.0609V26.416H46.1858ZM51.2277 23.2456H51.889V26.416H51.2096L49.7195 24.3235V26.416H49.0582V23.2456H49.7512L51.2277 25.3471V23.2456ZM54.2461 26.4749C53.4535 26.4749 52.9734 25.9586 52.9734 25.1569V23.2456H53.6619V25.1207C53.6619 25.5464 53.8702 25.8136 54.2461 25.8136C54.6221 25.8136 54.8304 25.5464 54.8304 25.1207V23.2456H55.5189V25.1569C55.5189 25.9586 55.0388 26.4749 54.2461 26.4749Z" fill="#4B546B"/>
<path d="M43.213 41.9536C43.9911 41.9536 44.5352 42.3866 44.5352 43.1354C44.5352 43.8842 43.9911 44.3113 43.213 44.3113H42.4642V46.0488H41.9435V41.9536H43.213ZM42.4642 42.4334V43.8316H43.213C43.681 43.8316 44.0087 43.5742 44.0087 43.1354C44.0087 42.6849 43.681 42.4334 43.213 42.4334H42.4642ZM45.6736 44.5629V46.0488H45.1705V41.9536H45.6736V43.6151C45.8491 43.3343 46.1533 43.1413 46.5804 43.1413C47.3058 43.1413 47.727 43.6268 47.727 44.3815V46.0488H47.2239V44.44C47.2239 43.931 46.9607 43.6093 46.4751 43.6093C45.9895 43.6093 45.6736 43.9837 45.6736 44.5629ZM49.92 43.1413C50.7741 43.1413 51.4059 43.8023 51.4059 44.6272C51.4059 45.4521 50.7741 46.1132 49.92 46.1132C49.0658 46.1132 48.434 45.4521 48.434 44.6272C48.434 43.8023 49.0658 43.1413 49.92 43.1413ZM49.92 43.6034C49.3642 43.6034 48.943 44.0597 48.943 44.6272C48.943 45.1947 49.3642 45.651 49.92 45.651C50.4757 45.651 50.897 45.1947 50.897 44.6272C50.897 44.0597 50.4757 43.6034 49.92 43.6034ZM51.7154 43.5917L52.6924 42.5387H52.7099V43.2056H53.5055V43.6561H52.7099V45.1596C52.7099 45.4931 52.8562 45.6452 53.1838 45.6452C53.2949 45.6452 53.4178 45.6159 53.5055 45.5574V46.0254C53.4061 46.0781 53.2598 46.1132 53.0668 46.1132C52.5285 46.1132 52.2068 45.7797 52.2068 45.2298V43.6561H51.7154V43.5917ZM55.4454 43.1413C56.2995 43.1413 56.9314 43.8023 56.9314 44.6272C56.9314 45.4521 56.2995 46.1132 55.4454 46.1132C54.5913 46.1132 53.9594 45.4521 53.9594 44.6272C53.9594 43.8023 54.5913 43.1413 55.4454 43.1413ZM55.4454 43.6034C54.8896 43.6034 54.4684 44.0597 54.4684 44.6272C54.4684 45.1947 54.8896 45.651 55.4454 45.651C56.0012 45.651 56.4224 45.1947 56.4224 44.6272C56.4224 44.0597 56.0012 43.6034 55.4454 43.6034ZM57.4851 45.8207V45.2649C57.7425 45.4989 58.076 45.6627 58.4212 45.6627C58.7078 45.6627 58.9711 45.5633 58.9711 45.2707C58.9711 44.9782 58.6961 44.8788 58.3393 44.8027C57.9298 44.715 57.4793 44.5512 57.4793 44.0012C57.4793 43.4279 57.9649 43.1413 58.4738 43.1413C58.778 43.1413 59.0823 43.2349 59.3338 43.4045V43.9369C59.0823 43.7321 58.7897 43.5859 58.4855 43.5859C58.2457 43.5859 57.9707 43.6795 57.9707 43.9427C57.9707 44.2001 58.2164 44.3113 58.544 44.3932C59.0706 44.5219 59.4684 44.715 59.4684 45.2298C59.4684 45.809 58.9828 46.1132 58.4153 46.1132C58.1053 46.1132 57.7542 46.0196 57.4851 45.8207Z" fill="#242B42"/>
<path d="M43.8741 66.0858L42.4525 64.009V67.2793H41.9435V63.1841H42.4759L43.9853 65.4072L45.4829 63.1841H46.0036V67.2793H45.4946V64.0032L44.073 66.0858H43.8741ZM49.0108 65.922V64.4361H49.5139V67.2793H49.0108V66.8698C48.8353 67.1506 48.5369 67.3436 48.1098 67.3436C47.3902 67.3436 46.9749 66.8581 46.9749 66.1034V64.4361H47.478V66.0449C47.478 66.5539 47.7354 66.8756 48.2151 66.8756C48.6948 66.8756 49.0108 66.5012 49.0108 65.922ZM50.2739 67.0511V66.4954C50.5313 66.7294 50.8648 66.8932 51.21 66.8932C51.4966 66.8932 51.7599 66.7937 51.7599 66.5012C51.7599 66.2087 51.4849 66.1092 51.1281 66.0332C50.7185 65.9454 50.2681 65.7816 50.2681 65.2317C50.2681 64.6584 50.7536 64.3717 51.2626 64.3717C51.5668 64.3717 51.871 64.4653 52.1226 64.635V65.1674C51.871 64.9626 51.5785 64.8163 51.2743 64.8163C51.0344 64.8163 50.7595 64.9099 50.7595 65.1732C50.7595 65.4306 51.0052 65.5418 51.3328 65.6237C51.8593 65.7524 52.2572 65.9454 52.2572 66.4603C52.2572 67.0394 51.7716 67.3436 51.2041 67.3436C50.894 67.3436 50.543 67.25 50.2739 67.0511ZM53.5435 63.5936C53.5435 63.7808 53.3914 63.933 53.2042 63.933C53.017 63.933 52.8648 63.7808 52.8648 63.5936C52.8648 63.4064 53.017 63.2543 53.2042 63.2543C53.3914 63.2543 53.5435 63.4064 53.5435 63.5936ZM52.9526 64.4361H53.4557V67.2793H52.9526V64.4361ZM54.2051 65.8577C54.2051 65.0269 54.8194 64.3717 55.6911 64.3717C55.9894 64.3717 56.2644 64.4595 56.4984 64.6174V65.1264C56.2468 64.9333 55.9894 64.8397 55.7145 64.8397C55.1353 64.8397 54.7141 65.2844 54.7141 65.8577C54.7141 66.4252 55.1353 66.8756 55.7145 66.8756C56.0128 66.8756 56.2878 66.7411 56.516 66.5948V67.1038C56.2702 67.2559 55.9894 67.3436 55.6969 67.3436C54.8018 67.3436 54.2051 66.6943 54.2051 65.8577Z" fill="#242B42"/>
<mask id="path-6-inside-2_2274_15061" fill="white">
<path d="M35.3779 76.709H105.883V97.9398H35.3779V76.709Z"/>
</mask>
<path d="M35.3779 76.709H105.883V97.9398H35.3779V76.709Z" fill="#F7FBFF"/>
<path d="M35.3779 97.9398H34.2456V98.3172H35.3779V97.9398ZM105.883 97.9398V97.5623H35.3779V97.9398V98.3172H105.883V97.9398ZM35.3779 97.9398H36.5102V76.709H35.3779H34.2456V97.9398H35.3779Z" fill="#0056CF" mask="url(#path-6-inside-2_2274_15061)"/>
<path d="M43.7512 88.5098H43.0258L41.4521 84.4146H42.394L43.4061 87.1701L44.4182 84.4146H45.3308L43.7512 88.5098ZM46.6109 88.5098H45.7567V85.6197H46.6109V88.5098ZM46.6811 84.7832C46.6811 85.0523 46.4588 85.2804 46.1838 85.2804C45.9088 85.2804 45.6865 85.0523 45.6865 84.7832C45.6865 84.514 45.9088 84.2859 46.1838 84.2859C46.4588 84.2859 46.6811 84.514 46.6811 84.7832ZM49.515 84.4146H50.3633V88.5098H49.515V88.1236C49.3161 88.4162 48.9593 88.58 48.579 88.58C47.8009 88.58 47.21 87.9247 47.21 87.0648C47.21 86.2106 47.8009 85.5495 48.579 85.5495C48.9593 85.5495 49.3161 85.6958 49.515 85.9942V84.4146ZM48.0583 87.0648C48.0583 87.4801 48.3859 87.8136 48.8013 87.8136C49.2167 87.8136 49.5443 87.4801 49.5443 87.0648C49.5443 86.6494 49.2167 86.3159 48.8013 86.3159C48.3859 86.3159 48.0583 86.6494 48.0583 87.0648ZM53.6669 87.5445V88.3167C53.3861 88.4805 53.0117 88.5858 52.5554 88.5858C51.5667 88.5858 50.9583 87.9481 50.9583 87.0531C50.9583 86.1872 51.5667 85.5437 52.4267 85.5437C53.3101 85.5437 53.8424 86.1521 53.8424 87.0472C53.8424 87.135 53.8307 87.2344 53.8249 87.3046H51.8007C51.865 87.6381 52.1634 87.8721 52.649 87.8721C52.9941 87.8721 53.3218 87.7726 53.6669 87.5445ZM51.789 86.743H53.0234C52.9941 86.4212 52.7543 86.2048 52.4208 86.2048C52.0874 86.2048 51.8299 86.4505 51.789 86.743ZM54.2552 87.0648C54.2552 86.2048 54.9279 85.5437 55.823 85.5437C56.7181 85.5437 57.3909 86.2048 57.3909 87.0648C57.3909 87.9247 56.7181 88.5858 55.823 88.5858C54.9279 88.5858 54.2552 87.9247 54.2552 87.0648ZM55.0976 87.0648C55.0976 87.4801 55.4252 87.8077 55.823 87.8077C56.2208 87.8077 56.5485 87.4801 56.5485 87.0648C56.5485 86.6494 56.2208 86.3218 55.823 86.3218C55.4252 86.3218 55.0976 86.6494 55.0976 87.0648Z" fill="#0056CF"/>
<path d="M42.4642 107.851V109.74H41.9435V105.645H44.1725V106.125H42.4642V107.377H44.0789V107.851H42.4642ZM45.51 106.055C45.51 106.242 45.3579 106.394 45.1707 106.394C44.9835 106.394 44.8313 106.242 44.8313 106.055C44.8313 105.867 44.9835 105.715 45.1707 105.715C45.3579 105.715 45.51 105.867 45.51 106.055ZM44.9191 106.897H45.4222V109.74H44.9191V106.897ZM46.3764 105.645H46.8795V109.74H46.3764V105.645ZM50.2205 108.898V109.442C49.9046 109.67 49.5185 109.805 49.1207 109.805C48.2139 109.805 47.6289 109.155 47.6289 108.319C47.6289 107.47 48.2139 106.833 49.0329 106.833C49.8286 106.833 50.3726 107.488 50.3726 108.295C50.3726 108.406 50.3609 108.477 50.3609 108.477H48.132C48.1729 108.95 48.5649 109.348 49.1558 109.348C49.5185 109.348 49.8695 109.202 50.2205 108.898ZM48.1437 108.061H49.8637C49.8227 107.611 49.4892 107.271 49.0212 107.271C48.5474 107.271 48.1788 107.675 48.1437 108.061ZM50.926 109.512V108.956C51.1834 109.19 51.5169 109.354 51.8621 109.354C52.1487 109.354 52.412 109.255 52.412 108.962C52.412 108.67 52.137 108.57 51.7802 108.494C51.3707 108.406 50.9202 108.243 50.9202 107.693C50.9202 107.119 51.4058 106.833 51.9147 106.833C52.2189 106.833 52.5232 106.926 52.7747 107.096V107.628C52.5232 107.424 52.2306 107.277 51.9264 107.277C51.6866 107.277 51.4116 107.371 51.4116 107.634C51.4116 107.892 51.6573 108.003 51.9849 108.085C52.5115 108.213 52.9093 108.406 52.9093 108.921C52.9093 109.5 52.4237 109.805 51.8562 109.805C51.5462 109.805 51.1951 109.711 50.926 109.512Z" fill="#242B42"/>
</g>
<g filter="url(#filter1_d_2274_15061)">
<mask id="path-10-inside-3_2274_15061" fill="white">
<path d="M121.357 17.2646C121.357 16.0139 122.371 15 123.622 15H183.559C184.81 15 185.823 16.0139 185.823 17.2646V40.3826C185.823 41.6333 184.81 42.6472 183.559 42.6472H123.622C122.371 42.6472 121.357 41.6333 121.357 40.3826V17.2646Z"/>
</mask>
<path d="M121.357 17.2646C121.357 16.0139 122.371 15 123.622 15H183.559C184.81 15 185.823 16.0139 185.823 17.2646V40.3826C185.823 41.6333 184.81 42.6472 183.559 42.6472H123.622C122.371 42.6472 121.357 41.6333 121.357 40.3826V17.2646Z" fill="white"/>
<path d="M123.622 15V15.3774H183.559V15V14.6226H123.622V15ZM185.823 17.2646H185.446V40.3826H185.823H186.201V17.2646H185.823ZM183.559 42.6472V42.2697H123.622V42.6472V43.0246H183.559V42.6472ZM121.357 40.3826H121.735V17.2646H121.357H120.98V40.3826H121.357ZM123.622 42.6472V42.2697C122.58 42.2697 121.735 41.4248 121.735 40.3826H121.357H120.98C120.98 41.8417 122.163 43.0246 123.622 43.0246V42.6472ZM185.823 40.3826H185.446C185.446 41.4248 184.601 42.2697 183.559 42.2697V42.6472V43.0246C185.018 43.0246 186.201 41.8417 186.201 40.3826H185.823ZM183.559 15V15.3774C184.601 15.3774 185.446 16.2224 185.446 17.2646H185.823H186.201C186.201 15.8055 185.018 14.6226 183.559 14.6226V15ZM123.622 15V14.6226C122.163 14.6226 120.98 15.8055 120.98 17.2646H121.357H121.735C121.735 16.2224 122.58 15.3774 123.622 15.3774V15Z" fill="#E4E8F0" mask="url(#path-10-inside-3_2274_15061)"/>
<path d="M131.097 28.388C131.097 27.2004 132.016 26.2702 133.192 26.2702C133.624 26.2702 134.028 26.3989 134.391 26.6387V27.2179C133.993 26.9195 133.601 26.7733 133.18 26.7733C132.314 26.7733 131.635 27.4812 131.635 28.388C131.635 29.283 132.314 29.9968 133.18 29.9968C133.595 29.9968 134.005 29.8505 134.403 29.5639V30.143C134.016 30.3829 133.613 30.4999 133.186 30.4999C132.016 30.4999 131.097 29.5697 131.097 28.388ZM136.784 28.6278V28.5576C136.784 28.2007 136.533 27.9843 136.112 27.9843C135.726 27.9843 135.439 28.1422 135.146 28.4114V27.8848C135.404 27.6742 135.714 27.528 136.123 27.528C136.855 27.528 137.276 27.9316 137.276 28.5927V30.4355H136.802V30.0611C136.58 30.3478 136.234 30.4999 135.86 30.4999C135.357 30.4999 135 30.1547 135 29.6867C135 29.1777 135.322 28.8735 135.948 28.7682L136.784 28.6278ZM135.503 29.6575C135.503 29.8973 135.69 30.0553 135.954 30.0553C136.439 30.0553 136.79 29.7394 136.79 29.3006V29.0607L136.03 29.1953C135.69 29.2596 135.503 29.4118 135.503 29.6575ZM139.666 27.5572V28.0603C139.666 28.0603 139.614 28.0486 139.526 28.0486C138.999 28.0486 138.678 28.4699 138.678 29.0841V30.4355H138.18V27.5923H138.672V28.0954C138.801 27.7678 139.169 27.5455 139.544 27.5455C139.614 27.5455 139.666 27.5572 139.666 27.5572ZM142.421 26.3404H142.918V30.4355H142.421V29.9851C142.216 30.2951 141.83 30.4999 141.415 30.4999C140.607 30.4999 139.987 29.8564 139.987 29.0139C139.987 28.1773 140.607 27.528 141.415 27.528C141.83 27.528 142.21 27.7093 142.421 28.0194V26.3404ZM142.45 29.0139C142.45 28.4406 142.029 27.9901 141.473 27.9901C140.917 27.9901 140.496 28.4406 140.496 29.0139C140.496 29.5873 140.917 30.0377 141.473 30.0377C142.029 30.0377 142.45 29.5873 142.45 29.0139ZM145.118 29.0139C145.118 28.1832 145.733 27.528 146.604 27.528C146.903 27.528 147.178 27.6157 147.412 27.7737V28.2827C147.16 28.0896 146.903 27.996 146.628 27.996C146.049 27.996 145.627 28.4406 145.627 29.0139C145.627 29.5814 146.049 30.0319 146.628 30.0319C146.926 30.0319 147.201 29.8973 147.429 29.7511V30.26C147.183 30.4121 146.903 30.4999 146.61 30.4999C145.715 30.4999 145.118 29.8505 145.118 29.0139ZM149.444 27.528C150.298 27.528 150.93 28.189 150.93 29.0139C150.93 29.8388 150.298 30.4999 149.444 30.4999C148.59 30.4999 147.958 29.8388 147.958 29.0139C147.958 28.189 148.59 27.528 149.444 27.528ZM149.444 27.9901C148.888 27.9901 148.467 28.4465 148.467 29.0139C148.467 29.5814 148.888 30.0377 149.444 30.0377C150 30.0377 150.421 29.5814 150.421 29.0139C150.421 28.4465 150 27.9901 149.444 27.9901ZM152.18 28.9496V30.4355H151.677V27.5923H152.18V28.0018C152.356 27.721 152.66 27.528 153.087 27.528C153.812 27.528 154.233 28.0135 154.233 28.7682V30.4355H153.73V28.8267C153.73 28.3178 153.467 27.996 152.982 27.996C152.496 27.996 152.18 28.3704 152.18 28.9496ZM154.736 27.9784L155.713 26.9254H155.731V27.5923H156.527V28.0428H155.731V29.5463C155.731 29.8798 155.877 30.0319 156.205 30.0319C156.316 30.0319 156.439 30.0026 156.527 29.9441V30.4121C156.427 30.4648 156.281 30.4999 156.088 30.4999C155.55 30.4999 155.228 30.1664 155.228 29.6165V28.0428H154.736V27.9784ZM159.572 29.5931V30.1372C159.256 30.3653 158.87 30.4999 158.472 30.4999C157.565 30.4999 156.98 29.8505 156.98 29.0139C156.98 28.1656 157.565 27.528 158.385 27.528C159.18 27.528 159.724 28.1832 159.724 28.9905C159.724 29.1017 159.713 29.1719 159.713 29.1719H157.484C157.525 29.6458 157.916 30.0436 158.507 30.0436C158.87 30.0436 159.221 29.8973 159.572 29.5931ZM157.495 28.7565H159.215C159.174 28.3061 158.841 27.9667 158.373 27.9667C157.899 27.9667 157.53 28.3704 157.495 28.7565ZM160.945 28.9496V30.4355H160.442V27.5923H160.945V28.0018C161.121 27.721 161.425 27.528 161.852 27.528C162.577 27.528 162.999 28.0135 162.999 28.7682V30.4355H162.496V28.8267C162.496 28.3178 162.232 27.996 161.747 27.996C161.261 27.996 160.945 28.3704 160.945 28.9496ZM163.502 27.9784L164.479 26.9254H164.496V27.5923H165.292V28.0428H164.496V29.5463C164.496 29.8798 164.642 30.0319 164.97 30.0319C165.081 30.0319 165.204 30.0026 165.292 29.9441V30.4121C165.192 30.4648 165.046 30.4999 164.853 30.4999C164.315 30.4999 163.993 30.1664 163.993 29.6165V28.0428H163.502V27.9784Z" fill="#242B42"/>
</g>
<g filter="url(#filter2_d_2274_15061)">
<mask id="path-13-inside-4_2274_15061" fill="white">
<path d="M191.862 17.2646C191.862 16.0139 192.876 15 194.127 15H254.064C255.314 15 256.328 16.0139 256.328 17.2646V40.3826C256.328 41.6333 255.314 42.6472 254.064 42.6472H194.127C192.876 42.6472 191.862 41.6333 191.862 40.3826V17.2646Z"/>
</mask>
<path d="M191.862 17.2646C191.862 16.0139 192.876 15 194.127 15H254.064C255.314 15 256.328 16.0139 256.328 17.2646V40.3826C256.328 41.6333 255.314 42.6472 254.064 42.6472H194.127C192.876 42.6472 191.862 41.6333 191.862 40.3826V17.2646Z" fill="white"/>
<path d="M194.127 15V15.3774H254.064V15V14.6226H194.127V15ZM256.328 17.2646H255.951V40.3826H256.328H256.706V17.2646H256.328ZM254.064 42.6472V42.2697H194.127V42.6472V43.0246H254.064V42.6472ZM191.862 40.3826H192.24V17.2646H191.862H191.485V40.3826H191.862ZM194.127 42.6472V42.2697C193.085 42.2697 192.24 41.4248 192.24 40.3826H191.862H191.485C191.485 41.8417 192.668 43.0246 194.127 43.0246V42.6472ZM256.328 40.3826H255.951C255.951 41.4248 255.106 42.2697 254.064 42.2697V42.6472V43.0246C255.523 43.0246 256.706 41.8417 256.706 40.3826H256.328ZM254.064 15V15.3774C255.106 15.3774 255.951 16.2224 255.951 17.2646H256.328H256.706C256.706 15.8055 255.523 14.6226 254.064 14.6226V15ZM194.127 15V14.6226C192.668 14.6226 191.485 15.8055 191.485 17.2646H191.862H192.24C192.24 16.2224 193.085 15.3774 194.127 15.3774V15Z" fill="#E4E8F0" mask="url(#path-13-inside-4_2274_15061)"/>
<path d="M201.602 28.388C201.602 27.2004 202.521 26.2702 203.696 26.2702C204.129 26.2702 204.533 26.3989 204.896 26.6387V27.2179C204.498 26.9195 204.106 26.7733 203.685 26.7733C202.819 26.7733 202.14 27.4812 202.14 28.388C202.14 29.283 202.819 29.9968 203.685 29.9968C204.1 29.9968 204.51 29.8505 204.907 29.5639V30.143C204.521 30.3829 204.118 30.4999 203.691 30.4999C202.521 30.4999 201.602 29.5697 201.602 28.388ZM207.289 28.6278V28.5576C207.289 28.2007 207.038 27.9843 206.617 27.9843C206.23 27.9843 205.944 28.1422 205.651 28.4114V27.8848C205.909 27.6742 206.219 27.528 206.628 27.528C207.359 27.528 207.781 27.9316 207.781 28.5927V30.4355H207.307V30.0611C207.085 30.3478 206.739 30.4999 206.365 30.4999C205.862 30.4999 205.505 30.1547 205.505 29.6867C205.505 29.1777 205.827 28.8735 206.453 28.7682L207.289 28.6278ZM206.008 29.6575C206.008 29.8973 206.195 30.0553 206.459 30.0553C206.944 30.0553 207.295 29.7394 207.295 29.3006V29.0607L206.535 29.1953C206.195 29.2596 206.008 29.4118 206.008 29.6575ZM210.171 27.5572V28.0603C210.171 28.0603 210.119 28.0486 210.031 28.0486C209.504 28.0486 209.183 28.4699 209.183 29.0841V30.4355H208.685V27.5923H209.177V28.0954C209.305 27.7678 209.674 27.5455 210.048 27.5455C210.119 27.5455 210.171 27.5572 210.171 27.5572ZM212.926 26.3404H213.423V30.4355H212.926V29.9851C212.721 30.2951 212.335 30.4999 211.919 30.4999C211.112 30.4999 210.492 29.8564 210.492 29.0139C210.492 28.1773 211.112 27.528 211.919 27.528C212.335 27.528 212.715 27.7093 212.926 28.0194V26.3404ZM212.955 29.0139C212.955 28.4406 212.534 27.9901 211.978 27.9901C211.422 27.9901 211.001 28.4406 211.001 29.0139C211.001 29.5873 211.422 30.0377 211.978 30.0377C212.534 30.0377 212.955 29.5873 212.955 29.0139ZM215.623 29.0139C215.623 28.1832 216.237 27.528 217.109 27.528C217.408 27.528 217.683 27.6157 217.917 27.7737V28.2827C217.665 28.0896 217.408 27.996 217.133 27.996C216.553 27.996 216.132 28.4406 216.132 29.0139C216.132 29.5814 216.553 30.0319 217.133 30.0319C217.431 30.0319 217.706 29.8973 217.934 29.7511V30.26C217.688 30.4121 217.408 30.4999 217.115 30.4999C216.22 30.4999 215.623 29.8505 215.623 29.0139ZM219.949 27.528C220.803 27.528 221.435 28.189 221.435 29.0139C221.435 29.8388 220.803 30.4999 219.949 30.4999C219.095 30.4999 218.463 29.8388 218.463 29.0139C218.463 28.189 219.095 27.528 219.949 27.528ZM219.949 27.9901C219.393 27.9901 218.972 28.4465 218.972 29.0139C218.972 29.5814 219.393 30.0377 219.949 30.0377C220.505 30.0377 220.926 29.5814 220.926 29.0139C220.926 28.4465 220.505 27.9901 219.949 27.9901ZM222.685 28.9496V30.4355H222.182V27.5923H222.685V28.0018C222.86 27.721 223.165 27.528 223.592 27.528C224.317 27.528 224.738 28.0135 224.738 28.7682V30.4355H224.235V28.8267C224.235 28.3178 223.972 27.996 223.486 27.996C223.001 27.996 222.685 28.3704 222.685 28.9496ZM225.241 27.9784L226.218 26.9254H226.236V27.5923H227.031V28.0428H226.236V29.5463C226.236 29.8798 226.382 30.0319 226.71 30.0319C226.821 30.0319 226.944 30.0026 227.031 29.9441V30.4121C226.932 30.4648 226.786 30.4999 226.593 30.4999C226.054 30.4999 225.733 30.1664 225.733 29.6165V28.0428H225.241V27.9784ZM230.077 29.5931V30.1372C229.761 30.3653 229.375 30.4999 228.977 30.4999C228.07 30.4999 227.485 29.8505 227.485 29.0139C227.485 28.1656 228.07 27.528 228.889 27.528C229.685 27.528 230.229 28.1832 230.229 28.9905C230.229 29.1017 230.217 29.1719 230.217 29.1719H227.988C228.029 29.6458 228.421 30.0436 229.012 30.0436C229.375 30.0436 229.726 29.8973 230.077 29.5931ZM228 28.7565H229.72C229.679 28.3061 229.346 27.9667 228.878 27.9667C228.404 27.9667 228.035 28.3704 228 28.7565ZM231.45 28.9496V30.4355H230.947V27.5923H231.45V28.0018C231.626 27.721 231.93 27.528 232.357 27.528C233.082 27.528 233.504 28.0135 233.504 28.7682V30.4355H233V28.8267C233 28.3178 232.737 27.996 232.252 27.996C231.766 27.996 231.45 28.3704 231.45 28.9496ZM234.006 27.9784L234.983 26.9254H235.001V27.5923H235.797V28.0428H235.001V29.5463C235.001 29.8798 235.147 30.0319 235.475 30.0319C235.586 30.0319 235.709 30.0026 235.797 29.9441V30.4121C235.697 30.4648 235.551 30.4999 235.358 30.4999C234.82 30.4999 234.498 30.1664 234.498 29.6165V28.0428H234.006V27.9784Z" fill="#242B42"/>
</g>
<g filter="url(#filter3_d_2274_15061)">
<mask id="path-16-inside-5_2274_15061" fill="white">
<path d="M262.367 17.2646C262.367 16.0139 263.381 15 264.632 15H324.569C325.819 15 326.833 16.0139 326.833 17.2646V40.3826C326.833 41.6333 325.819 42.6472 324.569 42.6472H264.632C263.381 42.6472 262.367 41.6333 262.367 40.3826V17.2646Z"/>
</mask>
<path d="M262.367 17.2646C262.367 16.0139 263.381 15 264.632 15H324.569C325.819 15 326.833 16.0139 326.833 17.2646V40.3826C326.833 41.6333 325.819 42.6472 324.569 42.6472H264.632C263.381 42.6472 262.367 41.6333 262.367 40.3826V17.2646Z" fill="white"/>
<path d="M264.632 15V15.3774H324.569V15V14.6226H264.632V15ZM326.833 17.2646H326.456V40.3826H326.833H327.211V17.2646H326.833ZM324.569 42.6472V42.2697H264.632V42.6472V43.0246H324.569V42.6472ZM262.367 40.3826H262.745V17.2646H262.367H261.99V40.3826H262.367ZM264.632 42.6472V42.2697C263.59 42.2697 262.745 41.4248 262.745 40.3826H262.367H261.99C261.99 41.8417 263.173 43.0246 264.632 43.0246V42.6472ZM326.833 40.3826H326.456C326.456 41.4248 325.611 42.2697 324.569 42.2697V42.6472V43.0246C326.028 43.0246 327.211 41.8417 327.211 40.3826H326.833ZM324.569 15V15.3774C325.611 15.3774 326.456 16.2224 326.456 17.2646H326.833H327.211C327.211 15.8055 326.028 14.6226 324.569 14.6226V15ZM264.632 15V14.6226C263.173 14.6226 261.99 15.8055 261.99 17.2646H262.367H262.745C262.745 16.2224 263.59 15.3774 264.632 15.3774V15Z" fill="#E4E8F0" mask="url(#path-16-inside-5_2274_15061)"/>
<path d="M272.107 28.388C272.107 27.2004 273.025 26.2702 274.201 26.2702C274.634 26.2702 275.038 26.3989 275.401 26.6387V27.2179C275.003 26.9195 274.611 26.7733 274.19 26.7733C273.324 26.7733 272.645 27.4812 272.645 28.388C272.645 29.283 273.324 29.9968 274.19 29.9968C274.605 29.9968 275.015 29.8505 275.412 29.5639V30.143C275.026 30.3829 274.623 30.4999 274.195 30.4999C273.025 30.4999 272.107 29.5697 272.107 28.388ZM277.794 28.6278V28.5576C277.794 28.2007 277.543 27.9843 277.121 27.9843C276.735 27.9843 276.449 28.1422 276.156 28.4114V27.8848C276.414 27.6742 276.724 27.528 277.133 27.528C277.864 27.528 278.286 27.9316 278.286 28.5927V30.4355H277.812V30.0611C277.589 30.3478 277.244 30.4999 276.87 30.4999C276.367 30.4999 276.01 30.1547 276.01 29.6867C276.01 29.1777 276.332 28.8735 276.958 28.7682L277.794 28.6278ZM276.513 29.6575C276.513 29.8973 276.7 30.0553 276.963 30.0553C277.449 30.0553 277.8 29.7394 277.8 29.3006V29.0607L277.039 29.1953C276.7 29.2596 276.513 29.4118 276.513 29.6575ZM280.676 27.5572V28.0603C280.676 28.0603 280.624 28.0486 280.536 28.0486C280.009 28.0486 279.687 28.4699 279.687 29.0841V30.4355H279.19V27.5923H279.682V28.0954C279.81 27.7678 280.179 27.5455 280.553 27.5455C280.624 27.5455 280.676 27.5572 280.676 27.5572ZM283.431 26.3404H283.928V30.4355H283.431V29.9851C283.226 30.2951 282.84 30.4999 282.424 30.4999C281.617 30.4999 280.997 29.8564 280.997 29.0139C280.997 28.1773 281.617 27.528 282.424 27.528C282.84 27.528 283.22 27.7093 283.431 28.0194V26.3404ZM283.46 29.0139C283.46 28.4406 283.039 27.9901 282.483 27.9901C281.927 27.9901 281.506 28.4406 281.506 29.0139C281.506 29.5873 281.927 30.0377 282.483 30.0377C283.039 30.0377 283.46 29.5873 283.46 29.0139ZM286.128 29.0139C286.128 28.1832 286.742 27.528 287.614 27.528C287.912 27.528 288.187 27.6157 288.421 27.7737V28.2827C288.17 28.0896 287.912 27.996 287.637 27.996C287.058 27.996 286.637 28.4406 286.637 29.0139C286.637 29.5814 287.058 30.0319 287.637 30.0319C287.936 30.0319 288.211 29.8973 288.439 29.7511V30.26C288.193 30.4121 287.912 30.4999 287.62 30.4999C286.725 30.4999 286.128 29.8505 286.128 29.0139ZM290.454 27.528C291.308 27.528 291.94 28.189 291.94 29.0139C291.94 29.8388 291.308 30.4999 290.454 30.4999C289.6 30.4999 288.968 29.8388 288.968 29.0139C288.968 28.189 289.6 27.528 290.454 27.528ZM290.454 27.9901C289.898 27.9901 289.477 28.4465 289.477 29.0139C289.477 29.5814 289.898 30.0377 290.454 30.0377C291.01 30.0377 291.431 29.5814 291.431 29.0139C291.431 28.4465 291.01 27.9901 290.454 27.9901ZM293.19 28.9496V30.4355H292.687V27.5923H293.19V28.0018C293.365 27.721 293.67 27.528 294.097 27.528C294.822 27.528 295.243 28.0135 295.243 28.7682V30.4355H294.74V28.8267C294.74 28.3178 294.477 27.996 293.991 27.996C293.506 27.996 293.19 28.3704 293.19 28.9496ZM295.746 27.9784L296.723 26.9254H296.741V27.5923H297.536V28.0428H296.741V29.5463C296.741 29.8798 296.887 30.0319 297.215 30.0319C297.326 30.0319 297.449 30.0026 297.536 29.9441V30.4121C297.437 30.4648 297.291 30.4999 297.098 30.4999C296.559 30.4999 296.238 30.1664 296.238 29.6165V28.0428H295.746V27.9784ZM300.582 29.5931V30.1372C300.266 30.3653 299.88 30.4999 299.482 30.4999C298.575 30.4999 297.99 29.8505 297.99 29.0139C297.99 28.1656 298.575 27.528 299.394 27.528C300.19 27.528 300.734 28.1832 300.734 28.9905C300.734 29.1017 300.722 29.1719 300.722 29.1719H298.493C298.534 29.6458 298.926 30.0436 299.517 30.0436C299.88 30.0436 300.231 29.8973 300.582 29.5931ZM298.505 28.7565H300.225C300.184 28.3061 299.851 27.9667 299.383 27.9667C298.909 27.9667 298.54 28.3704 298.505 28.7565ZM301.955 28.9496V30.4355H301.452V27.5923H301.955V28.0018C302.131 27.721 302.435 27.528 302.862 27.528C303.587 27.528 304.008 28.0135 304.008 28.7682V30.4355H303.505V28.8267C303.505 28.3178 303.242 27.996 302.756 27.996C302.271 27.996 301.955 28.3704 301.955 28.9496ZM304.511 27.9784L305.488 26.9254H305.506V27.5923H306.302V28.0428H305.506V29.5463C305.506 29.8798 305.652 30.0319 305.98 30.0319C306.091 30.0319 306.214 30.0026 306.302 29.9441V30.4121C306.202 30.4648 306.056 30.4999 305.863 30.4999C305.325 30.4999 305.003 30.1664 305.003 29.6165V28.0428H304.511V27.9784Z" fill="#242B42"/>
</g>
<g filter="url(#filter4_d_2274_15061)">
<mask id="path-19-inside-6_2274_15061" fill="white">
<path d="M121.357 50.9502C121.357 49.6995 122.371 48.6855 123.622 48.6855H183.559C184.81 48.6855 185.823 49.6994 185.823 50.9502V74.0681C185.823 75.3188 184.81 76.3327 183.559 76.3327H123.622C122.371 76.3327 121.357 75.3188 121.357 74.0681V50.9502Z"/>
</mask>
<path d="M121.357 50.9502C121.357 49.6995 122.371 48.6855 123.622 48.6855H183.559C184.81 48.6855 185.823 49.6994 185.823 50.9502V74.0681C185.823 75.3188 184.81 76.3327 183.559 76.3327H123.622C122.371 76.3327 121.357 75.3188 121.357 74.0681V50.9502Z" fill="white"/>
<path d="M123.622 48.6855V49.063H183.559V48.6855V48.3081H123.622V48.6855ZM185.823 50.9502H185.446V74.0681H185.823H186.201V50.9502H185.823ZM183.559 76.3327V75.9553H123.622V76.3327V76.7102H183.559V76.3327ZM121.357 74.0681H121.735V50.9502H121.357H120.98V74.0681H121.357ZM123.622 76.3327V75.9553C122.58 75.9553 121.735 75.1104 121.735 74.0681H121.357H120.98C120.98 75.5273 122.163 76.7102 123.622 76.7102V76.3327ZM185.823 74.0681H185.446C185.446 75.1104 184.601 75.9553 183.559 75.9553V76.3327V76.7102C185.018 76.7102 186.201 75.5273 186.201 74.0681H185.823ZM183.559 48.6855V49.063C184.601 49.063 185.446 49.9079 185.446 50.9502H185.823H186.201C186.201 49.491 185.018 48.3081 183.559 48.3081V48.6855ZM123.622 48.6855V48.3081C122.163 48.3081 120.98 49.491 120.98 50.9502H121.357H121.735C121.735 49.9079 122.58 49.063 123.622 49.063V48.6855Z" fill="#E4E8F0" mask="url(#path-19-inside-6_2274_15061)"/>
<path d="M131.097 62.0735C131.097 60.8859 132.016 59.9557 133.192 59.9557C133.624 59.9557 134.028 60.0844 134.391 60.3243V60.9035C133.993 60.6051 133.601 60.4588 133.18 60.4588C132.314 60.4588 131.635 61.1667 131.635 62.0735C131.635 62.9686 132.314 63.6823 133.18 63.6823C133.595 63.6823 134.005 63.5361 134.403 63.2494V63.8286C134.016 64.0684 133.613 64.1854 133.186 64.1854C132.016 64.1854 131.097 63.2553 131.097 62.0735ZM136.784 62.3134V62.2432C136.784 61.8863 136.533 61.6698 136.112 61.6698C135.726 61.6698 135.439 61.8278 135.146 62.0969V61.5704C135.404 61.3598 135.714 61.2135 136.123 61.2135C136.855 61.2135 137.276 61.6172 137.276 62.2783V64.1211H136.802V63.7467C136.58 64.0333 136.234 64.1854 135.86 64.1854C135.357 64.1854 135 63.8403 135 63.3723C135 62.8633 135.322 62.5591 135.948 62.4538L136.784 62.3134ZM135.503 63.343C135.503 63.5829 135.69 63.7408 135.954 63.7408C136.439 63.7408 136.79 63.4249 136.79 62.9861V62.7463L136.03 62.8808C135.69 62.9452 135.503 63.0973 135.503 63.343ZM139.666 61.2428V61.7459C139.666 61.7459 139.614 61.7342 139.526 61.7342C138.999 61.7342 138.678 62.1554 138.678 62.7697V64.1211H138.18V61.2779H138.672V61.781C138.801 61.4534 139.169 61.2311 139.544 61.2311C139.614 61.2311 139.666 61.2428 139.666 61.2428ZM142.421 60.0259H142.918V64.1211H142.421V63.6706C142.216 63.9807 141.83 64.1854 141.415 64.1854C140.607 64.1854 139.987 63.5419 139.987 62.6995C139.987 61.8629 140.607 61.2135 141.415 61.2135C141.83 61.2135 142.21 61.3949 142.421 61.7049V60.0259ZM142.45 62.6995C142.45 62.1262 142.029 61.6757 141.473 61.6757C140.917 61.6757 140.496 62.1262 140.496 62.6995C140.496 63.2728 140.917 63.7233 141.473 63.7233C142.029 63.7233 142.45 63.2728 142.45 62.6995ZM145.118 62.6995C145.118 61.8687 145.733 61.2135 146.604 61.2135C146.903 61.2135 147.178 61.3013 147.412 61.4592V61.9682C147.16 61.7751 146.903 61.6815 146.628 61.6815C146.049 61.6815 145.627 62.1262 145.627 62.6995C145.627 63.267 146.049 63.7174 146.628 63.7174C146.926 63.7174 147.201 63.5829 147.429 63.4366V63.9456C147.183 64.0977 146.903 64.1854 146.61 64.1854C145.715 64.1854 145.118 63.5361 145.118 62.6995ZM149.444 61.2135C150.298 61.2135 150.93 61.8746 150.93 62.6995C150.93 63.5244 150.298 64.1854 149.444 64.1854C148.59 64.1854 147.958 63.5244 147.958 62.6995C147.958 61.8746 148.59 61.2135 149.444 61.2135ZM149.444 61.6757C148.888 61.6757 148.467 62.132 148.467 62.6995C148.467 63.267 148.888 63.7233 149.444 63.7233C150 63.7233 150.421 63.267 150.421 62.6995C150.421 62.132 150 61.6757 149.444 61.6757ZM152.18 62.6351V64.1211H151.677V61.2779H152.18V61.6874C152.356 61.4066 152.66 61.2135 153.087 61.2135C153.812 61.2135 154.233 61.6991 154.233 62.4538V64.1211H153.73V62.5123C153.73 62.0033 153.467 61.6815 152.982 61.6815C152.496 61.6815 152.18 62.056 152.18 62.6351ZM154.736 61.664L155.713 60.6109H155.731V61.2779H156.527V61.7283H155.731V63.2319C155.731 63.5653 155.877 63.7174 156.205 63.7174C156.316 63.7174 156.439 63.6882 156.527 63.6297V64.0977C156.427 64.1503 156.281 64.1854 156.088 64.1854C155.55 64.1854 155.228 63.852 155.228 63.3021V61.7283H154.736V61.664ZM159.572 63.2787V63.8227C159.256 64.0509 158.87 64.1854 158.472 64.1854C157.565 64.1854 156.98 63.5361 156.98 62.6995C156.98 61.8512 157.565 61.2135 158.385 61.2135C159.18 61.2135 159.724 61.8687 159.724 62.6761C159.724 62.7872 159.713 62.8574 159.713 62.8574H157.484C157.525 63.3313 157.916 63.7291 158.507 63.7291C158.87 63.7291 159.221 63.5829 159.572 63.2787ZM157.495 62.4421H159.215C159.174 61.9916 158.841 61.6523 158.373 61.6523C157.899 61.6523 157.53 62.056 157.495 62.4421ZM160.945 62.6351V64.1211H160.442V61.2779H160.945V61.6874C161.121 61.4066 161.425 61.2135 161.852 61.2135C162.577 61.2135 162.999 61.6991 162.999 62.4538V64.1211H162.496V62.5123C162.496 62.0033 162.232 61.6815 161.747 61.6815C161.261 61.6815 160.945 62.056 160.945 62.6351ZM163.502 61.664L164.479 60.6109H164.496V61.2779H165.292V61.7283H164.496V63.2319C164.496 63.5653 164.642 63.7174 164.97 63.7174C165.081 63.7174 165.204 63.6882 165.292 63.6297V64.0977C165.192 64.1503 165.046 64.1854 164.853 64.1854C164.315 64.1854 163.993 63.852 163.993 63.3021V61.7283H163.502V61.664Z" fill="#242B42"/>
</g>
<g filter="url(#filter5_d_2274_15061)">
<mask id="path-22-inside-7_2274_15061" fill="white">
<path d="M191.862 50.9502C191.862 49.6995 192.876 48.6855 194.127 48.6855H254.064C255.314 48.6855 256.328 49.6994 256.328 50.9502V74.0681C256.328 75.3188 255.314 76.3327 254.064 76.3327H194.127C192.876 76.3327 191.862 75.3188 191.862 74.0681V50.9502Z"/>
</mask>
<path d="M191.862 50.9502C191.862 49.6995 192.876 48.6855 194.127 48.6855H254.064C255.314 48.6855 256.328 49.6994 256.328 50.9502V74.0681C256.328 75.3188 255.314 76.3327 254.064 76.3327H194.127C192.876 76.3327 191.862 75.3188 191.862 74.0681V50.9502Z" fill="white"/>
<path d="M194.127 48.6855V49.063H254.064V48.6855V48.3081H194.127V48.6855ZM256.328 50.9502H255.951V74.0681H256.328H256.706V50.9502H256.328ZM254.064 76.3327V75.9553H194.127V76.3327V76.7102H254.064V76.3327ZM191.862 74.0681H192.24V50.9502H191.862H191.485V74.0681H191.862ZM194.127 76.3327V75.9553C193.085 75.9553 192.24 75.1104 192.24 74.0681H191.862H191.485C191.485 75.5273 192.668 76.7102 194.127 76.7102V76.3327ZM256.328 74.0681H255.951C255.951 75.1104 255.106 75.9553 254.064 75.9553V76.3327V76.7102C255.523 76.7102 256.706 75.5273 256.706 74.0681H256.328ZM254.064 48.6855V49.063C255.106 49.063 255.951 49.9079 255.951 50.9502H256.328H256.706C256.706 49.491 255.523 48.3081 254.064 48.3081V48.6855ZM194.127 48.6855V48.3081C192.668 48.3081 191.485 49.491 191.485 50.9502H191.862H192.24C192.24 49.9079 193.085 49.063 194.127 49.063V48.6855Z" fill="#E4E8F0" mask="url(#path-22-inside-7_2274_15061)"/>
<path d="M201.602 62.0735C201.602 60.8859 202.521 59.9557 203.696 59.9557C204.129 59.9557 204.533 60.0844 204.896 60.3243V60.9035C204.498 60.6051 204.106 60.4588 203.685 60.4588C202.819 60.4588 202.14 61.1667 202.14 62.0735C202.14 62.9686 202.819 63.6823 203.685 63.6823C204.1 63.6823 204.51 63.5361 204.907 63.2494V63.8286C204.521 64.0684 204.118 64.1854 203.691 64.1854C202.521 64.1854 201.602 63.2553 201.602 62.0735ZM207.289 62.3134V62.2432C207.289 61.8863 207.038 61.6698 206.617 61.6698C206.23 61.6698 205.944 61.8278 205.651 62.0969V61.5704C205.909 61.3598 206.219 61.2135 206.628 61.2135C207.359 61.2135 207.781 61.6172 207.781 62.2783V64.1211H207.307V63.7467C207.085 64.0333 206.739 64.1854 206.365 64.1854C205.862 64.1854 205.505 63.8403 205.505 63.3723C205.505 62.8633 205.827 62.5591 206.453 62.4538L207.289 62.3134ZM206.008 63.343C206.008 63.5829 206.195 63.7408 206.459 63.7408C206.944 63.7408 207.295 63.4249 207.295 62.9861V62.7463L206.535 62.8808C206.195 62.9452 206.008 63.0973 206.008 63.343ZM210.171 61.2428V61.7459C210.171 61.7459 210.119 61.7342 210.031 61.7342C209.504 61.7342 209.183 62.1554 209.183 62.7697V64.1211H208.685V61.2779H209.177V61.781C209.305 61.4534 209.674 61.2311 210.048 61.2311C210.119 61.2311 210.171 61.2428 210.171 61.2428ZM212.926 60.0259H213.423V64.1211H212.926V63.6706C212.721 63.9807 212.335 64.1854 211.919 64.1854C211.112 64.1854 210.492 63.5419 210.492 62.6995C210.492 61.8629 211.112 61.2135 211.919 61.2135C212.335 61.2135 212.715 61.3949 212.926 61.7049V60.0259ZM212.955 62.6995C212.955 62.1262 212.534 61.6757 211.978 61.6757C211.422 61.6757 211.001 62.1262 211.001 62.6995C211.001 63.2728 211.422 63.7233 211.978 63.7233C212.534 63.7233 212.955 63.2728 212.955 62.6995ZM215.623 62.6995C215.623 61.8687 216.237 61.2135 217.109 61.2135C217.408 61.2135 217.683 61.3013 217.917 61.4592V61.9682C217.665 61.7751 217.408 61.6815 217.133 61.6815C216.553 61.6815 216.132 62.1262 216.132 62.6995C216.132 63.267 216.553 63.7174 217.133 63.7174C217.431 63.7174 217.706 63.5829 217.934 63.4366V63.9456C217.688 64.0977 217.408 64.1854 217.115 64.1854C216.22 64.1854 215.623 63.5361 215.623 62.6995ZM219.949 61.2135C220.803 61.2135 221.435 61.8746 221.435 62.6995C221.435 63.5244 220.803 64.1854 219.949 64.1854C219.095 64.1854 218.463 63.5244 218.463 62.6995C218.463 61.8746 219.095 61.2135 219.949 61.2135ZM219.949 61.6757C219.393 61.6757 218.972 62.132 218.972 62.6995C218.972 63.267 219.393 63.7233 219.949 63.7233C220.505 63.7233 220.926 63.267 220.926 62.6995C220.926 62.132 220.505 61.6757 219.949 61.6757ZM222.685 62.6351V64.1211H222.182V61.2779H222.685V61.6874C222.86 61.4066 223.165 61.2135 223.592 61.2135C224.317 61.2135 224.738 61.6991 224.738 62.4538V64.1211H224.235V62.5123C224.235 62.0033 223.972 61.6815 223.486 61.6815C223.001 61.6815 222.685 62.056 222.685 62.6351ZM225.241 61.664L226.218 60.6109H226.236V61.2779H227.031V61.7283H226.236V63.2319C226.236 63.5653 226.382 63.7174 226.71 63.7174C226.821 63.7174 226.944 63.6882 227.031 63.6297V64.0977C226.932 64.1503 226.786 64.1854 226.593 64.1854C226.054 64.1854 225.733 63.852 225.733 63.3021V61.7283H225.241V61.664ZM230.077 63.2787V63.8227C229.761 64.0509 229.375 64.1854 228.977 64.1854C228.07 64.1854 227.485 63.5361 227.485 62.6995C227.485 61.8512 228.07 61.2135 228.889 61.2135C229.685 61.2135 230.229 61.8687 230.229 62.6761C230.229 62.7872 230.217 62.8574 230.217 62.8574H227.988C228.029 63.3313 228.421 63.7291 229.012 63.7291C229.375 63.7291 229.726 63.5829 230.077 63.2787ZM228 62.4421H229.72C229.679 61.9916 229.346 61.6523 228.878 61.6523C228.404 61.6523 228.035 62.056 228 62.4421ZM231.45 62.6351V64.1211H230.947V61.2779H231.45V61.6874C231.626 61.4066 231.93 61.2135 232.357 61.2135C233.082 61.2135 233.504 61.6991 233.504 62.4538V64.1211H233V62.5123C233 62.0033 232.737 61.6815 232.252 61.6815C231.766 61.6815 231.45 62.056 231.45 62.6351ZM234.006 61.664L234.983 60.6109H235.001V61.2779H235.797V61.7283H235.001V63.2319C235.001 63.5653 235.147 63.7174 235.475 63.7174C235.586 63.7174 235.709 63.6882 235.797 63.6297V64.0977C235.697 64.1503 235.551 64.1854 235.358 64.1854C234.82 64.1854 234.498 63.852 234.498 63.3021V61.7283H234.006V61.664Z" fill="#242B42"/>
</g>
<g filter="url(#filter6_d_2274_15061)">
<mask id="path-25-inside-8_2274_15061" fill="white">
<path d="M262.367 50.9502C262.367 49.6995 263.381 48.6855 264.632 48.6855H324.569C325.819 48.6855 326.833 49.6994 326.833 50.9502V74.0681C326.833 75.3188 325.819 76.3327 324.569 76.3327H264.632C263.381 76.3327 262.367 75.3188 262.367 74.0681V50.9502Z"/>
</mask>
<path d="M262.367 50.9502C262.367 49.6995 263.381 48.6855 264.632 48.6855H324.569C325.819 48.6855 326.833 49.6994 326.833 50.9502V74.0681C326.833 75.3188 325.819 76.3327 324.569 76.3327H264.632C263.381 76.3327 262.367 75.3188 262.367 74.0681V50.9502Z" fill="white"/>
<path d="M264.632 48.6855V49.063H324.569V48.6855V48.3081H264.632V48.6855ZM326.833 50.9502H326.456V74.0681H326.833H327.211V50.9502H326.833ZM324.569 76.3327V75.9553H264.632V76.3327V76.7102H324.569V76.3327ZM262.367 74.0681H262.745V50.9502H262.367H261.99V74.0681H262.367ZM264.632 76.3327V75.9553C263.59 75.9553 262.745 75.1104 262.745 74.0681H262.367H261.99C261.99 75.5273 263.173 76.7102 264.632 76.7102V76.3327ZM326.833 74.0681H326.456C326.456 75.1104 325.611 75.9553 324.569 75.9553V76.3327V76.7102C326.028 76.7102 327.211 75.5273 327.211 74.0681H326.833ZM324.569 48.6855V49.063C325.611 49.063 326.456 49.9079 326.456 50.9502H326.833H327.211C327.211 49.491 326.028 48.3081 324.569 48.3081V48.6855ZM264.632 48.6855V48.3081C263.173 48.3081 261.99 49.491 261.99 50.9502H262.367H262.745C262.745 49.9079 263.59 49.063 264.632 49.063V48.6855Z" fill="#E4E8F0" mask="url(#path-25-inside-8_2274_15061)"/>
<path d="M272.107 62.0735C272.107 60.8859 273.025 59.9557 274.201 59.9557C274.634 59.9557 275.038 60.0844 275.401 60.3243V60.9035C275.003 60.6051 274.611 60.4588 274.19 60.4588C273.324 60.4588 272.645 61.1667 272.645 62.0735C272.645 62.9686 273.324 63.6823 274.19 63.6823C274.605 63.6823 275.015 63.5361 275.412 63.2494V63.8286C275.026 64.0684 274.623 64.1854 274.195 64.1854C273.025 64.1854 272.107 63.2553 272.107 62.0735ZM277.794 62.3134V62.2432C277.794 61.8863 277.543 61.6698 277.121 61.6698C276.735 61.6698 276.449 61.8278 276.156 62.0969V61.5704C276.414 61.3598 276.724 61.2135 277.133 61.2135C277.864 61.2135 278.286 61.6172 278.286 62.2783V64.1211H277.812V63.7467C277.589 64.0333 277.244 64.1854 276.87 64.1854C276.367 64.1854 276.01 63.8403 276.01 63.3723C276.01 62.8633 276.332 62.5591 276.958 62.4538L277.794 62.3134ZM276.513 63.343C276.513 63.5829 276.7 63.7408 276.963 63.7408C277.449 63.7408 277.8 63.4249 277.8 62.9861V62.7463L277.039 62.8808C276.7 62.9452 276.513 63.0973 276.513 63.343ZM280.676 61.2428V61.7459C280.676 61.7459 280.624 61.7342 280.536 61.7342C280.009 61.7342 279.687 62.1554 279.687 62.7697V64.1211H279.19V61.2779H279.682V61.781C279.81 61.4534 280.179 61.2311 280.553 61.2311C280.624 61.2311 280.676 61.2428 280.676 61.2428ZM283.431 60.0259H283.928V64.1211H283.431V63.6706C283.226 63.9807 282.84 64.1854 282.424 64.1854C281.617 64.1854 280.997 63.5419 280.997 62.6995C280.997 61.8629 281.617 61.2135 282.424 61.2135C282.84 61.2135 283.22 61.3949 283.431 61.7049V60.0259ZM283.46 62.6995C283.46 62.1262 283.039 61.6757 282.483 61.6757C281.927 61.6757 281.506 62.1262 281.506 62.6995C281.506 63.2728 281.927 63.7233 282.483 63.7233C283.039 63.7233 283.46 63.2728 283.46 62.6995ZM286.128 62.6995C286.128 61.8687 286.742 61.2135 287.614 61.2135C287.912 61.2135 288.187 61.3013 288.421 61.4592V61.9682C288.17 61.7751 287.912 61.6815 287.637 61.6815C287.058 61.6815 286.637 62.1262 286.637 62.6995C286.637 63.267 287.058 63.7174 287.637 63.7174C287.936 63.7174 288.211 63.5829 288.439 63.4366V63.9456C288.193 64.0977 287.912 64.1854 287.62 64.1854C286.725 64.1854 286.128 63.5361 286.128 62.6995ZM290.454 61.2135C291.308 61.2135 291.94 61.8746 291.94 62.6995C291.94 63.5244 291.308 64.1854 290.454 64.1854C289.6 64.1854 288.968 63.5244 288.968 62.6995C288.968 61.8746 289.6 61.2135 290.454 61.2135ZM290.454 61.6757C289.898 61.6757 289.477 62.132 289.477 62.6995C289.477 63.267 289.898 63.7233 290.454 63.7233C291.01 63.7233 291.431 63.267 291.431 62.6995C291.431 62.132 291.01 61.6757 290.454 61.6757ZM293.19 62.6351V64.1211H292.687V61.2779H293.19V61.6874C293.365 61.4066 293.67 61.2135 294.097 61.2135C294.822 61.2135 295.243 61.6991 295.243 62.4538V64.1211H294.74V62.5123C294.74 62.0033 294.477 61.6815 293.991 61.6815C293.506 61.6815 293.19 62.056 293.19 62.6351ZM295.746 61.664L296.723 60.6109H296.741V61.2779H297.536V61.7283H296.741V63.2319C296.741 63.5653 296.887 63.7174 297.215 63.7174C297.326 63.7174 297.449 63.6882 297.536 63.6297V64.0977C297.437 64.1503 297.291 64.1854 297.098 64.1854C296.559 64.1854 296.238 63.852 296.238 63.3021V61.7283H295.746V61.664ZM300.582 63.2787V63.8227C300.266 64.0509 299.88 64.1854 299.482 64.1854C298.575 64.1854 297.99 63.5361 297.99 62.6995C297.99 61.8512 298.575 61.2135 299.394 61.2135C300.19 61.2135 300.734 61.8687 300.734 62.6761C300.734 62.7872 300.722 62.8574 300.722 62.8574H298.493C298.534 63.3313 298.926 63.7291 299.517 63.7291C299.88 63.7291 300.231 63.5829 300.582 63.2787ZM298.505 62.4421H300.225C300.184 61.9916 299.851 61.6523 299.383 61.6523C298.909 61.6523 298.54 62.056 298.505 62.4421ZM301.955 62.6351V64.1211H301.452V61.2779H301.955V61.6874C302.131 61.4066 302.435 61.2135 302.862 61.2135C303.587 61.2135 304.008 61.6991 304.008 62.4538V64.1211H303.505V62.5123C303.505 62.0033 303.242 61.6815 302.756 61.6815C302.271 61.6815 301.955 62.056 301.955 62.6351ZM304.511 61.664L305.488 60.6109H305.506V61.2779H306.302V61.7283H305.506V63.2319C305.506 63.5653 305.652 63.7174 305.98 63.7174C306.091 63.7174 306.214 63.6882 306.302 63.6297V64.0977C306.202 64.1503 306.056 64.1854 305.863 64.1854C305.325 64.1854 305.003 63.852 305.003 63.3021V61.7283H304.511V61.664Z" fill="#242B42"/>
</g>
<g filter="url(#filter7_d_2274_15061)">
<mask id="path-28-inside-9_2274_15061" fill="white">
<path d="M121.357 84.6357C121.357 83.385 122.371 82.3711 123.622 82.3711H183.559C184.81 82.3711 185.823 83.385 185.823 84.6357V107.754C185.823 109.004 184.81 110.018 183.559 110.018H123.622C122.371 110.018 121.357 109.004 121.357 107.754V84.6357Z"/>
</mask>
<path d="M121.357 84.6357C121.357 83.385 122.371 82.3711 123.622 82.3711H183.559C184.81 82.3711 185.823 83.385 185.823 84.6357V107.754C185.823 109.004 184.81 110.018 183.559 110.018H123.622C122.371 110.018 121.357 109.004 121.357 107.754V84.6357Z" fill="white"/>
<path d="M123.622 82.3711V82.7485H183.559V82.3711V81.9937H123.622V82.3711ZM185.823 84.6357H185.446V107.754H185.823H186.201V84.6357H185.823ZM183.559 110.018V109.641H123.622V110.018V110.396H183.559V110.018ZM121.357 107.754H121.735V84.6357H121.357H120.98V107.754H121.357ZM123.622 110.018V109.641C122.58 109.641 121.735 108.796 121.735 107.754H121.357H120.98C120.98 109.213 122.163 110.396 123.622 110.396V110.018ZM185.823 107.754H185.446C185.446 108.796 184.601 109.641 183.559 109.641V110.018V110.396C185.018 110.396 186.201 109.213 186.201 107.754H185.823ZM183.559 82.3711V82.7485C184.601 82.7485 185.446 83.5934 185.446 84.6357H185.823H186.201C186.201 83.1765 185.018 81.9937 183.559 81.9937V82.3711ZM123.622 82.3711V81.9937C122.163 81.9937 120.98 83.1765 120.98 84.6357H121.357H121.735C121.735 83.5935 122.58 82.7485 123.622 82.7485V82.3711Z" fill="#E4E8F0" mask="url(#path-28-inside-9_2274_15061)"/>
<path d="M131.097 95.7591C131.097 94.5714 132.016 93.6413 133.192 93.6413C133.624 93.6413 134.028 93.77 134.391 94.0098V94.589C133.993 94.2906 133.601 94.1444 133.18 94.1444C132.314 94.1444 131.635 94.8523 131.635 95.7591C131.635 96.6541 132.314 97.3679 133.18 97.3679C133.595 97.3679 134.005 97.2216 134.403 96.935V97.5141C134.016 97.754 133.613 97.871 133.186 97.871C132.016 97.871 131.097 96.9408 131.097 95.7591ZM136.784 95.9989V95.9287C136.784 95.5718 136.533 95.3554 136.112 95.3554C135.726 95.3554 135.439 95.5133 135.146 95.7825V95.2559C135.404 95.0453 135.714 94.8991 136.123 94.8991C136.855 94.8991 137.276 95.3027 137.276 95.9638V97.8066H136.802V97.4322C136.58 97.7189 136.234 97.871 135.86 97.871C135.357 97.871 135 97.5258 135 97.0578C135 96.5488 135.322 96.2446 135.948 96.1393L136.784 95.9989ZM135.503 97.0286C135.503 97.2684 135.69 97.4264 135.954 97.4264C136.439 97.4264 136.79 97.1105 136.79 96.6717V96.4318L136.03 96.5664C135.69 96.6307 135.503 96.7828 135.503 97.0286ZM139.666 94.9283V95.4314C139.666 95.4314 139.614 95.4197 139.526 95.4197C138.999 95.4197 138.678 95.841 138.678 96.4552V97.8066H138.18V94.9634H138.672V95.4665C138.801 95.1389 139.169 94.9166 139.544 94.9166C139.614 94.9166 139.666 94.9283 139.666 94.9283ZM142.421 93.7115H142.918V97.8066H142.421V97.3562C142.216 97.6662 141.83 97.871 141.415 97.871C140.607 97.871 139.987 97.2275 139.987 96.385C139.987 95.5484 140.607 94.8991 141.415 94.8991C141.83 94.8991 142.21 95.0804 142.421 95.3905V93.7115ZM142.45 96.385C142.45 95.8117 142.029 95.3612 141.473 95.3612C140.917 95.3612 140.496 95.8117 140.496 96.385C140.496 96.9584 140.917 97.4088 141.473 97.4088C142.029 97.4088 142.45 96.9584 142.45 96.385ZM145.118 96.385C145.118 95.5543 145.733 94.8991 146.604 94.8991C146.903 94.8991 147.178 94.9868 147.412 95.1448V95.6537C147.16 95.4607 146.903 95.3671 146.628 95.3671C146.049 95.3671 145.627 95.8117 145.627 96.385C145.627 96.9525 146.049 97.403 146.628 97.403C146.926 97.403 147.201 97.2684 147.429 97.1222V97.6311C147.183 97.7832 146.903 97.871 146.61 97.871C145.715 97.871 145.118 97.2216 145.118 96.385ZM149.444 94.8991C150.298 94.8991 150.93 95.5601 150.93 96.385C150.93 97.2099 150.298 97.871 149.444 97.871C148.59 97.871 147.958 97.2099 147.958 96.385C147.958 95.5601 148.59 94.8991 149.444 94.8991ZM149.444 95.3612C148.888 95.3612 148.467 95.8176 148.467 96.385C148.467 96.9525 148.888 97.4088 149.444 97.4088C150 97.4088 150.421 96.9525 150.421 96.385C150.421 95.8176 150 95.3612 149.444 95.3612ZM152.18 96.3207V97.8066H151.677V94.9634H152.18V95.3729C152.356 95.0921 152.66 94.8991 153.087 94.8991C153.812 94.8991 154.233 95.3846 154.233 96.1393V97.8066H153.73V96.1978C153.73 95.6888 153.467 95.3671 152.982 95.3671C152.496 95.3671 152.18 95.7415 152.18 96.3207ZM154.736 95.3495L155.713 94.2965H155.731V94.9634H156.527V95.4139H155.731V96.9174C155.731 97.2509 155.877 97.403 156.205 97.403C156.316 97.403 156.439 97.3737 156.527 97.3152V97.7832C156.427 97.8359 156.281 97.871 156.088 97.871C155.55 97.871 155.228 97.5375 155.228 96.9876V95.4139H154.736V95.3495ZM159.572 96.9642V97.5083C159.256 97.7364 158.87 97.871 158.472 97.871C157.565 97.871 156.98 97.2216 156.98 96.385C156.98 95.5367 157.565 94.8991 158.385 94.8991C159.18 94.8991 159.724 95.5543 159.724 96.3616C159.724 96.4728 159.713 96.543 159.713 96.543H157.484C157.525 97.0169 157.916 97.4147 158.507 97.4147C158.87 97.4147 159.221 97.2684 159.572 96.9642ZM157.495 96.1276H159.215C159.174 95.6771 158.841 95.3378 158.373 95.3378C157.899 95.3378 157.53 95.7415 157.495 96.1276ZM160.945 96.3207V97.8066H160.442V94.9634H160.945V95.3729C161.121 95.0921 161.425 94.8991 161.852 94.8991C162.577 94.8991 162.999 95.3846 162.999 96.1393V97.8066H162.496V96.1978C162.496 95.6888 162.232 95.3671 161.747 95.3671C161.261 95.3671 160.945 95.7415 160.945 96.3207ZM163.502 95.3495L164.479 94.2965H164.496V94.9634H165.292V95.4139H164.496V96.9174C164.496 97.2509 164.642 97.403 164.97 97.403C165.081 97.403 165.204 97.3737 165.292 97.3152V97.7832C165.192 97.8359 165.046 97.871 164.853 97.871C164.315 97.871 163.993 97.5375 163.993 96.9876V95.4139H163.502V95.3495Z" fill="#242B42"/>
</g>
<g filter="url(#filter8_d_2274_15061)">
<mask id="path-31-inside-10_2274_15061" fill="white">
<path d="M191.862 84.6357C191.862 83.385 192.876 82.3711 194.127 82.3711H254.064C255.314 82.3711 256.328 83.385 256.328 84.6357V107.754C256.328 109.004 255.314 110.018 254.064 110.018H194.127C192.876 110.018 191.862 109.004 191.862 107.754V84.6357Z"/>
</mask>
<path d="M191.862 84.6357C191.862 83.385 192.876 82.3711 194.127 82.3711H254.064C255.314 82.3711 256.328 83.385 256.328 84.6357V107.754C256.328 109.004 255.314 110.018 254.064 110.018H194.127C192.876 110.018 191.862 109.004 191.862 107.754V84.6357Z" fill="white"/>
<path d="M194.127 82.3711V82.7485H254.064V82.3711V81.9937H194.127V82.3711ZM256.328 84.6357H255.951V107.754H256.328H256.706V84.6357H256.328ZM254.064 110.018V109.641H194.127V110.018V110.396H254.064V110.018ZM191.862 107.754H192.24V84.6357H191.862H191.485V107.754H191.862ZM194.127 110.018V109.641C193.085 109.641 192.24 108.796 192.24 107.754H191.862H191.485C191.485 109.213 192.668 110.396 194.127 110.396V110.018ZM256.328 107.754H255.951C255.951 108.796 255.106 109.641 254.064 109.641V110.018V110.396C255.523 110.396 256.706 109.213 256.706 107.754H256.328ZM254.064 82.3711V82.7485C255.106 82.7485 255.951 83.5934 255.951 84.6357H256.328H256.706C256.706 83.1765 255.523 81.9937 254.064 81.9937V82.3711ZM194.127 82.3711V81.9937C192.668 81.9937 191.485 83.1765 191.485 84.6357H191.862H192.24C192.24 83.5935 193.085 82.7485 194.127 82.7485V82.3711Z" fill="#E4E8F0" mask="url(#path-31-inside-10_2274_15061)"/>
<path d="M201.602 95.7591C201.602 94.5714 202.521 93.6413 203.696 93.6413C204.129 93.6413 204.533 93.77 204.896 94.0098V94.589C204.498 94.2906 204.106 94.1444 203.685 94.1444C202.819 94.1444 202.14 94.8523 202.14 95.7591C202.14 96.6541 202.819 97.3679 203.685 97.3679C204.1 97.3679 204.51 97.2216 204.907 96.935V97.5141C204.521 97.754 204.118 97.871 203.691 97.871C202.521 97.871 201.602 96.9408 201.602 95.7591ZM207.289 95.9989V95.9287C207.289 95.5718 207.038 95.3554 206.617 95.3554C206.23 95.3554 205.944 95.5133 205.651 95.7825V95.2559C205.909 95.0453 206.219 94.8991 206.628 94.8991C207.359 94.8991 207.781 95.3027 207.781 95.9638V97.8066H207.307V97.4322C207.085 97.7189 206.739 97.871 206.365 97.871C205.862 97.871 205.505 97.5258 205.505 97.0578C205.505 96.5488 205.827 96.2446 206.453 96.1393L207.289 95.9989ZM206.008 97.0286C206.008 97.2684 206.195 97.4264 206.459 97.4264C206.944 97.4264 207.295 97.1105 207.295 96.6717V96.4318L206.535 96.5664C206.195 96.6307 206.008 96.7828 206.008 97.0286ZM210.171 94.9283V95.4314C210.171 95.4314 210.119 95.4197 210.031 95.4197C209.504 95.4197 209.183 95.841 209.183 96.4552V97.8066H208.685V94.9634H209.177V95.4665C209.305 95.1389 209.674 94.9166 210.048 94.9166C210.119 94.9166 210.171 94.9283 210.171 94.9283ZM212.926 93.7115H213.423V97.8066H212.926V97.3562C212.721 97.6662 212.335 97.871 211.919 97.871C211.112 97.871 210.492 97.2275 210.492 96.385C210.492 95.5484 211.112 94.8991 211.919 94.8991C212.335 94.8991 212.715 95.0804 212.926 95.3905V93.7115ZM212.955 96.385C212.955 95.8117 212.534 95.3612 211.978 95.3612C211.422 95.3612 211.001 95.8117 211.001 96.385C211.001 96.9584 211.422 97.4088 211.978 97.4088C212.534 97.4088 212.955 96.9584 212.955 96.385ZM215.623 96.385C215.623 95.5543 216.237 94.8991 217.109 94.8991C217.408 94.8991 217.683 94.9868 217.917 95.1448V95.6537C217.665 95.4607 217.408 95.3671 217.133 95.3671C216.553 95.3671 216.132 95.8117 216.132 96.385C216.132 96.9525 216.553 97.403 217.133 97.403C217.431 97.403 217.706 97.2684 217.934 97.1222V97.6311C217.688 97.7832 217.408 97.871 217.115 97.871C216.22 97.871 215.623 97.2216 215.623 96.385ZM219.949 94.8991C220.803 94.8991 221.435 95.5601 221.435 96.385C221.435 97.2099 220.803 97.871 219.949 97.871C219.095 97.871 218.463 97.2099 218.463 96.385C218.463 95.5601 219.095 94.8991 219.949 94.8991ZM219.949 95.3612C219.393 95.3612 218.972 95.8176 218.972 96.385C218.972 96.9525 219.393 97.4088 219.949 97.4088C220.505 97.4088 220.926 96.9525 220.926 96.385C220.926 95.8176 220.505 95.3612 219.949 95.3612ZM222.685 96.3207V97.8066H222.182V94.9634H222.685V95.3729C222.86 95.0921 223.165 94.8991 223.592 94.8991C224.317 94.8991 224.738 95.3846 224.738 96.1393V97.8066H224.235V96.1978C224.235 95.6888 223.972 95.3671 223.486 95.3671C223.001 95.3671 222.685 95.7415 222.685 96.3207ZM225.241 95.3495L226.218 94.2965H226.236V94.9634H227.031V95.4139H226.236V96.9174C226.236 97.2509 226.382 97.403 226.71 97.403C226.821 97.403 226.944 97.3737 227.031 97.3152V97.7832C226.932 97.8359 226.786 97.871 226.593 97.871C226.054 97.871 225.733 97.5375 225.733 96.9876V95.4139H225.241V95.3495ZM230.077 96.9642V97.5083C229.761 97.7364 229.375 97.871 228.977 97.871C228.07 97.871 227.485 97.2216 227.485 96.385C227.485 95.5367 228.07 94.8991 228.889 94.8991C229.685 94.8991 230.229 95.5543 230.229 96.3616C230.229 96.4728 230.217 96.543 230.217 96.543H227.988C228.029 97.0169 228.421 97.4147 229.012 97.4147C229.375 97.4147 229.726 97.2684 230.077 96.9642ZM228 96.1276H229.72C229.679 95.6771 229.346 95.3378 228.878 95.3378C228.404 95.3378 228.035 95.7415 228 96.1276ZM231.45 96.3207V97.8066H230.947V94.9634H231.45V95.3729C231.626 95.0921 231.93 94.8991 232.357 94.8991C233.082 94.8991 233.504 95.3846 233.504 96.1393V97.8066H233V96.1978C233 95.6888 232.737 95.3671 232.252 95.3671C231.766 95.3671 231.45 95.7415 231.45 96.3207ZM234.006 95.3495L234.983 94.2965H235.001V94.9634H235.797V95.4139H235.001V96.9174C235.001 97.2509 235.147 97.403 235.475 97.403C235.586 97.403 235.709 97.3737 235.797 97.3152V97.7832C235.697 97.8359 235.551 97.871 235.358 97.871C234.82 97.871 234.498 97.5375 234.498 96.9876V95.4139H234.006V95.3495Z" fill="#242B42"/>
</g>
<g filter="url(#filter9_d_2274_15061)">
<mask id="path-34-inside-11_2274_15061" fill="white">
<path d="M262.367 84.6357C262.367 83.385 263.381 82.3711 264.632 82.3711H324.569C325.819 82.3711 326.833 83.385 326.833 84.6357V107.754C326.833 109.004 325.819 110.018 324.569 110.018H264.632C263.381 110.018 262.367 109.004 262.367 107.754V84.6357Z"/>
</mask>
<path d="M262.367 84.6357C262.367 83.385 263.381 82.3711 264.632 82.3711H324.569C325.819 82.3711 326.833 83.385 326.833 84.6357V107.754C326.833 109.004 325.819 110.018 324.569 110.018H264.632C263.381 110.018 262.367 109.004 262.367 107.754V84.6357Z" fill="white"/>
<path d="M264.632 82.3711V82.7485H324.569V82.3711V81.9937H264.632V82.3711ZM326.833 84.6357H326.456V107.754H326.833H327.211V84.6357H326.833ZM324.569 110.018V109.641H264.632V110.018V110.396H324.569V110.018ZM262.367 107.754H262.745V84.6357H262.367H261.99V107.754H262.367ZM264.632 110.018V109.641C263.59 109.641 262.745 108.796 262.745 107.754H262.367H261.99C261.99 109.213 263.173 110.396 264.632 110.396V110.018ZM326.833 107.754H326.456C326.456 108.796 325.611 109.641 324.569 109.641V110.018V110.396C326.028 110.396 327.211 109.213 327.211 107.754H326.833ZM324.569 82.3711V82.7485C325.611 82.7485 326.456 83.5934 326.456 84.6357H326.833H327.211C327.211 83.1765 326.028 81.9937 324.569 81.9937V82.3711ZM264.632 82.3711V81.9937C263.173 81.9937 261.99 83.1765 261.99 84.6357H262.367H262.745C262.745 83.5935 263.59 82.7485 264.632 82.7485V82.3711Z" fill="#E4E8F0" mask="url(#path-34-inside-11_2274_15061)"/>
<path d="M272.107 95.7591C272.107 94.5714 273.025 93.6413 274.201 93.6413C274.634 93.6413 275.038 93.77 275.401 94.0098V94.589C275.003 94.2906 274.611 94.1444 274.19 94.1444C273.324 94.1444 272.645 94.8523 272.645 95.7591C272.645 96.6541 273.324 97.3679 274.19 97.3679C274.605 97.3679 275.015 97.2216 275.412 96.935V97.5141C275.026 97.754 274.623 97.871 274.195 97.871C273.025 97.871 272.107 96.9408 272.107 95.7591ZM277.794 95.9989V95.9287C277.794 95.5718 277.543 95.3554 277.121 95.3554C276.735 95.3554 276.449 95.5133 276.156 95.7825V95.2559C276.414 95.0453 276.724 94.8991 277.133 94.8991C277.864 94.8991 278.286 95.3027 278.286 95.9638V97.8066H277.812V97.4322C277.589 97.7189 277.244 97.871 276.87 97.871C276.367 97.871 276.01 97.5258 276.01 97.0578C276.01 96.5488 276.332 96.2446 276.958 96.1393L277.794 95.9989ZM276.513 97.0286C276.513 97.2684 276.7 97.4264 276.963 97.4264C277.449 97.4264 277.8 97.1105 277.8 96.6717V96.4318L277.039 96.5664C276.7 96.6307 276.513 96.7828 276.513 97.0286ZM280.676 94.9283V95.4314C280.676 95.4314 280.624 95.4197 280.536 95.4197C280.009 95.4197 279.687 95.841 279.687 96.4552V97.8066H279.19V94.9634H279.682V95.4665C279.81 95.1389 280.179 94.9166 280.553 94.9166C280.624 94.9166 280.676 94.9283 280.676 94.9283ZM283.431 93.7115H283.928V97.8066H283.431V97.3562C283.226 97.6662 282.84 97.871 282.424 97.871C281.617 97.871 280.997 97.2275 280.997 96.385C280.997 95.5484 281.617 94.8991 282.424 94.8991C282.84 94.8991 283.22 95.0804 283.431 95.3905V93.7115ZM283.46 96.385C283.46 95.8117 283.039 95.3612 282.483 95.3612C281.927 95.3612 281.506 95.8117 281.506 96.385C281.506 96.9584 281.927 97.4088 282.483 97.4088C283.039 97.4088 283.46 96.9584 283.46 96.385ZM286.128 96.385C286.128 95.5543 286.742 94.8991 287.614 94.8991C287.912 94.8991 288.187 94.9868 288.421 95.1448V95.6537C288.17 95.4607 287.912 95.3671 287.637 95.3671C287.058 95.3671 286.637 95.8117 286.637 96.385C286.637 96.9525 287.058 97.403 287.637 97.403C287.936 97.403 288.211 97.2684 288.439 97.1222V97.6311C288.193 97.7832 287.912 97.871 287.62 97.871C286.725 97.871 286.128 97.2216 286.128 96.385ZM290.454 94.8991C291.308 94.8991 291.94 95.5601 291.94 96.385C291.94 97.2099 291.308 97.871 290.454 97.871C289.6 97.871 288.968 97.2099 288.968 96.385C288.968 95.5601 289.6 94.8991 290.454 94.8991ZM290.454 95.3612C289.898 95.3612 289.477 95.8176 289.477 96.385C289.477 96.9525 289.898 97.4088 290.454 97.4088C291.01 97.4088 291.431 96.9525 291.431 96.385C291.431 95.8176 291.01 95.3612 290.454 95.3612ZM293.19 96.3207V97.8066H292.687V94.9634H293.19V95.3729C293.365 95.0921 293.67 94.8991 294.097 94.8991C294.822 94.8991 295.243 95.3846 295.243 96.1393V97.8066H294.74V96.1978C294.74 95.6888 294.477 95.3671 293.991 95.3671C293.506 95.3671 293.19 95.7415 293.19 96.3207ZM295.746 95.3495L296.723 94.2965H296.741V94.9634H297.536V95.4139H296.741V96.9174C296.741 97.2509 296.887 97.403 297.215 97.403C297.326 97.403 297.449 97.3737 297.536 97.3152V97.7832C297.437 97.8359 297.291 97.871 297.098 97.871C296.559 97.871 296.238 97.5375 296.238 96.9876V95.4139H295.746V95.3495ZM300.582 96.9642V97.5083C300.266 97.7364 299.88 97.871 299.482 97.871C298.575 97.871 297.99 97.2216 297.99 96.385C297.99 95.5367 298.575 94.8991 299.394 94.8991C300.19 94.8991 300.734 95.5543 300.734 96.3616C300.734 96.4728 300.722 96.543 300.722 96.543H298.493C298.534 97.0169 298.926 97.4147 299.517 97.4147C299.88 97.4147 300.231 97.2684 300.582 96.9642ZM298.505 96.1276H300.225C300.184 95.6771 299.851 95.3378 299.383 95.3378C298.909 95.3378 298.54 95.7415 298.505 96.1276ZM301.955 96.3207V97.8066H301.452V94.9634H301.955V95.3729C302.131 95.0921 302.435 94.8991 302.862 94.8991C303.587 94.8991 304.008 95.3846 304.008 96.1393V97.8066H303.505V96.1978C303.505 95.6888 303.242 95.3671 302.756 95.3671C302.271 95.3671 301.955 95.7415 301.955 96.3207ZM304.511 95.3495L305.488 94.2965H305.506V94.9634H306.302V95.4139H305.506V96.9174C305.506 97.2509 305.652 97.403 305.98 97.403C306.091 97.403 306.214 97.3737 306.302 97.3152V97.7832C306.202 97.8359 306.056 97.871 305.863 97.871C305.325 97.871 305.003 97.5375 305.003 96.9876V95.4139H304.511V95.3495Z" fill="#242B42"/>
</g>
<g filter="url(#filter10_d_2274_15061)">
<mask id="path-37-inside-12_2274_15061" fill="white">
<path d="M121.357 118.323C121.357 117.073 122.371 116.059 123.622 116.059H183.559C184.81 116.059 185.823 117.072 185.823 118.323V141.441C185.823 142.692 184.81 143.706 183.559 143.706H123.622C122.371 143.706 121.357 142.692 121.357 141.441V118.323Z"/>
</mask>
<path d="M121.357 118.323C121.357 117.073 122.371 116.059 123.622 116.059H183.559C184.81 116.059 185.823 117.072 185.823 118.323V141.441C185.823 142.692 184.81 143.706 183.559 143.706H123.622C122.371 143.706 121.357 142.692 121.357 141.441V118.323Z" fill="white"/>
<path d="M123.622 116.059V116.436H183.559V116.059V115.681H123.622V116.059ZM185.823 118.323H185.446V141.441H185.823H186.201V118.323H185.823ZM183.559 143.706V143.328H123.622V143.706V144.083H183.559V143.706ZM121.357 141.441H121.735V118.323H121.357H120.98V141.441H121.357ZM123.622 143.706V143.328C122.58 143.328 121.735 142.483 121.735 141.441H121.357H120.98C120.98 142.9 122.163 144.083 123.622 144.083V143.706ZM185.823 141.441H185.446C185.446 142.483 184.601 143.328 183.559 143.328V143.706V144.083C185.018 144.083 186.201 142.9 186.201 141.441H185.823ZM183.559 116.059V116.436C184.601 116.436 185.446 117.281 185.446 118.323H185.823H186.201C186.201 116.864 185.018 115.681 183.559 115.681V116.059ZM123.622 116.059V115.681C122.163 115.681 120.98 116.864 120.98 118.323H121.357H121.735C121.735 117.281 122.58 116.436 123.622 116.436V116.059Z" fill="#E4E8F0" mask="url(#path-37-inside-12_2274_15061)"/>
<path d="M131.097 129.447C131.097 128.259 132.016 127.329 133.192 127.329C133.624 127.329 134.028 127.457 134.391 127.697V128.276C133.993 127.978 133.601 127.832 133.18 127.832C132.314 127.832 131.635 128.54 131.635 129.447C131.635 130.342 132.314 131.055 133.18 131.055C133.595 131.055 134.005 130.909 134.403 130.622V131.202C134.016 131.441 133.613 131.558 133.186 131.558C132.016 131.558 131.097 130.628 131.097 129.447ZM136.784 129.686V129.616C136.784 129.259 136.533 129.043 136.112 129.043C135.726 129.043 135.439 129.201 135.146 129.47V128.943C135.404 128.733 135.714 128.587 136.123 128.587C136.855 128.587 137.276 128.99 137.276 129.651V131.494H136.802V131.12C136.58 131.406 136.234 131.558 135.86 131.558C135.357 131.558 135 131.213 135 130.745C135 130.236 135.322 129.932 135.948 129.827L136.784 129.686ZM135.503 130.716C135.503 130.956 135.69 131.114 135.954 131.114C136.439 131.114 136.79 130.798 136.79 130.359V130.119L136.03 130.254C135.69 130.318 135.503 130.47 135.503 130.716ZM139.666 128.616V129.119C139.666 129.119 139.614 129.107 139.526 129.107C138.999 129.107 138.678 129.528 138.678 130.143V131.494H138.18V128.651H138.672V129.154C138.801 128.826 139.169 128.604 139.544 128.604C139.614 128.604 139.666 128.616 139.666 128.616ZM142.421 127.399H142.918V131.494H142.421V131.044C142.216 131.354 141.83 131.558 141.415 131.558C140.607 131.558 139.987 130.915 139.987 130.073C139.987 129.236 140.607 128.587 141.415 128.587C141.83 128.587 142.21 128.768 142.421 129.078V127.399ZM142.45 130.073C142.45 129.499 142.029 129.049 141.473 129.049C140.917 129.049 140.496 129.499 140.496 130.073C140.496 130.646 140.917 131.096 141.473 131.096C142.029 131.096 142.45 130.646 142.45 130.073ZM145.118 130.073C145.118 129.242 145.733 128.587 146.604 128.587C146.903 128.587 147.178 128.674 147.412 128.832V129.341C147.16 129.148 146.903 129.055 146.628 129.055C146.049 129.055 145.627 129.499 145.627 130.073C145.627 130.64 146.049 131.09 146.628 131.09C146.926 131.09 147.201 130.956 147.429 130.81V131.319C147.183 131.471 146.903 131.558 146.61 131.558C145.715 131.558 145.118 130.909 145.118 130.073ZM149.444 128.587C150.298 128.587 150.93 129.248 150.93 130.073C150.93 130.897 150.298 131.558 149.444 131.558C148.59 131.558 147.958 130.897 147.958 130.073C147.958 129.248 148.59 128.587 149.444 128.587ZM149.444 129.049C148.888 129.049 148.467 129.505 148.467 130.073C148.467 130.64 148.888 131.096 149.444 131.096C150 131.096 150.421 130.64 150.421 130.073C150.421 129.505 150 129.049 149.444 129.049ZM152.18 130.008V131.494H151.677V128.651H152.18V129.06C152.356 128.78 152.66 128.587 153.087 128.587C153.812 128.587 154.233 129.072 154.233 129.827V131.494H153.73V129.885C153.73 129.376 153.467 129.055 152.982 129.055C152.496 129.055 152.18 129.429 152.18 130.008ZM154.736 129.037L155.713 127.984H155.731V128.651H156.527V129.101H155.731V130.605C155.731 130.938 155.877 131.09 156.205 131.09C156.316 131.09 156.439 131.061 156.527 131.003V131.471C156.427 131.523 156.281 131.558 156.088 131.558C155.55 131.558 155.228 131.225 155.228 130.675V129.101H154.736V129.037ZM159.572 130.652V131.196C159.256 131.424 158.87 131.558 158.472 131.558C157.565 131.558 156.98 130.909 156.98 130.073C156.98 129.224 157.565 128.587 158.385 128.587C159.18 128.587 159.724 129.242 159.724 130.049C159.724 130.16 159.713 130.23 159.713 130.23H157.484C157.525 130.704 157.916 131.102 158.507 131.102C158.87 131.102 159.221 130.956 159.572 130.652ZM157.495 129.815H159.215C159.174 129.365 158.841 129.025 158.373 129.025C157.899 129.025 157.53 129.429 157.495 129.815ZM160.945 130.008V131.494H160.442V128.651H160.945V129.06C161.121 128.78 161.425 128.587 161.852 128.587C162.577 128.587 162.999 129.072 162.999 129.827V131.494H162.496V129.885C162.496 129.376 162.232 129.055 161.747 129.055C161.261 129.055 160.945 129.429 160.945 130.008ZM163.502 129.037L164.479 127.984H164.496V128.651H165.292V129.101H164.496V130.605C164.496 130.938 164.642 131.09 164.97 131.09C165.081 131.09 165.204 131.061 165.292 131.003V131.471C165.192 131.523 165.046 131.558 164.853 131.558C164.315 131.558 163.993 131.225 163.993 130.675V129.101H163.502V129.037Z" fill="#242B42"/>
</g>
<g filter="url(#filter11_d_2274_15061)">
<mask id="path-40-inside-13_2274_15061" fill="white">
<path d="M191.862 118.323C191.862 117.073 192.876 116.059 194.127 116.059H254.064C255.314 116.059 256.328 117.072 256.328 118.323V141.441C256.328 142.692 255.314 143.706 254.064 143.706H194.127C192.876 143.706 191.862 142.692 191.862 141.441V118.323Z"/>
</mask>
<path d="M191.862 118.323C191.862 117.073 192.876 116.059 194.127 116.059H254.064C255.314 116.059 256.328 117.072 256.328 118.323V141.441C256.328 142.692 255.314 143.706 254.064 143.706H194.127C192.876 143.706 191.862 142.692 191.862 141.441V118.323Z" fill="white"/>
<path d="M194.127 116.059V116.436H254.064V116.059V115.681H194.127V116.059ZM256.328 118.323H255.951V141.441H256.328H256.706V118.323H256.328ZM254.064 143.706V143.328H194.127V143.706V144.083H254.064V143.706ZM191.862 141.441H192.24V118.323H191.862H191.485V141.441H191.862ZM194.127 143.706V143.328C193.085 143.328 192.24 142.483 192.24 141.441H191.862H191.485C191.485 142.9 192.668 144.083 194.127 144.083V143.706ZM256.328 141.441H255.951C255.951 142.483 255.106 143.328 254.064 143.328V143.706V144.083C255.523 144.083 256.706 142.9 256.706 141.441H256.328ZM254.064 116.059V116.436C255.106 116.436 255.951 117.281 255.951 118.323H256.328H256.706C256.706 116.864 255.523 115.681 254.064 115.681V116.059ZM194.127 116.059V115.681C192.668 115.681 191.485 116.864 191.485 118.323H191.862H192.24C192.24 117.281 193.085 116.436 194.127 116.436V116.059Z" fill="#E4E8F0" mask="url(#path-40-inside-13_2274_15061)"/>
<path d="M201.602 129.447C201.602 128.259 202.521 127.329 203.696 127.329C204.129 127.329 204.533 127.457 204.896 127.697V128.276C204.498 127.978 204.106 127.832 203.685 127.832C202.819 127.832 202.14 128.54 202.14 129.447C202.14 130.342 202.819 131.055 203.685 131.055C204.1 131.055 204.51 130.909 204.907 130.622V131.202C204.521 131.441 204.118 131.558 203.691 131.558C202.521 131.558 201.602 130.628 201.602 129.447ZM207.289 129.686V129.616C207.289 129.259 207.038 129.043 206.617 129.043C206.23 129.043 205.944 129.201 205.651 129.47V128.943C205.909 128.733 206.219 128.587 206.628 128.587C207.359 128.587 207.781 128.99 207.781 129.651V131.494H207.307V131.12C207.085 131.406 206.739 131.558 206.365 131.558C205.862 131.558 205.505 131.213 205.505 130.745C205.505 130.236 205.827 129.932 206.453 129.827L207.289 129.686ZM206.008 130.716C206.008 130.956 206.195 131.114 206.459 131.114C206.944 131.114 207.295 130.798 207.295 130.359V130.119L206.535 130.254C206.195 130.318 206.008 130.47 206.008 130.716ZM210.171 128.616V129.119C210.171 129.119 210.119 129.107 210.031 129.107C209.504 129.107 209.183 129.528 209.183 130.143V131.494H208.685V128.651H209.177V129.154C209.305 128.826 209.674 128.604 210.048 128.604C210.119 128.604 210.171 128.616 210.171 128.616ZM212.926 127.399H213.423V131.494H212.926V131.044C212.721 131.354 212.335 131.558 211.919 131.558C211.112 131.558 210.492 130.915 210.492 130.073C210.492 129.236 211.112 128.587 211.919 128.587C212.335 128.587 212.715 128.768 212.926 129.078V127.399ZM212.955 130.073C212.955 129.499 212.534 129.049 211.978 129.049C211.422 129.049 211.001 129.499 211.001 130.073C211.001 130.646 211.422 131.096 211.978 131.096C212.534 131.096 212.955 130.646 212.955 130.073ZM215.623 130.073C215.623 129.242 216.237 128.587 217.109 128.587C217.408 128.587 217.683 128.674 217.917 128.832V129.341C217.665 129.148 217.408 129.055 217.133 129.055C216.553 129.055 216.132 129.499 216.132 130.073C216.132 130.64 216.553 131.09 217.133 131.09C217.431 131.09 217.706 130.956 217.934 130.81V131.319C217.688 131.471 217.408 131.558 217.115 131.558C216.22 131.558 215.623 130.909 215.623 130.073ZM219.949 128.587C220.803 128.587 221.435 129.248 221.435 130.073C221.435 130.897 220.803 131.558 219.949 131.558C219.095 131.558 218.463 130.897 218.463 130.073C218.463 129.248 219.095 128.587 219.949 128.587ZM219.949 129.049C219.393 129.049 218.972 129.505 218.972 130.073C218.972 130.64 219.393 131.096 219.949 131.096C220.505 131.096 220.926 130.64 220.926 130.073C220.926 129.505 220.505 129.049 219.949 129.049ZM222.685 130.008V131.494H222.182V128.651H222.685V129.06C222.86 128.78 223.165 128.587 223.592 128.587C224.317 128.587 224.738 129.072 224.738 129.827V131.494H224.235V129.885C224.235 129.376 223.972 129.055 223.486 129.055C223.001 129.055 222.685 129.429 222.685 130.008ZM225.241 129.037L226.218 127.984H226.236V128.651H227.031V129.101H226.236V130.605C226.236 130.938 226.382 131.09 226.71 131.09C226.821 131.09 226.944 131.061 227.031 131.003V131.471C226.932 131.523 226.786 131.558 226.593 131.558C226.054 131.558 225.733 131.225 225.733 130.675V129.101H225.241V129.037ZM230.077 130.652V131.196C229.761 131.424 229.375 131.558 228.977 131.558C228.07 131.558 227.485 130.909 227.485 130.073C227.485 129.224 228.07 128.587 228.889 128.587C229.685 128.587 230.229 129.242 230.229 130.049C230.229 130.16 230.217 130.23 230.217 130.23H227.988C228.029 130.704 228.421 131.102 229.012 131.102C229.375 131.102 229.726 130.956 230.077 130.652ZM228 129.815H229.72C229.679 129.365 229.346 129.025 228.878 129.025C228.404 129.025 228.035 129.429 228 129.815ZM231.45 130.008V131.494H230.947V128.651H231.45V129.06C231.626 128.78 231.93 128.587 232.357 128.587C233.082 128.587 233.504 129.072 233.504 129.827V131.494H233V129.885C233 129.376 232.737 129.055 232.252 129.055C231.766 129.055 231.45 129.429 231.45 130.008ZM234.006 129.037L234.983 127.984H235.001V128.651H235.797V129.101H235.001V130.605C235.001 130.938 235.147 131.09 235.475 131.09C235.586 131.09 235.709 131.061 235.797 131.003V131.471C235.697 131.523 235.551 131.558 235.358 131.558C234.82 131.558 234.498 131.225 234.498 130.675V129.101H234.006V129.037Z" fill="#242B42"/>
</g>
<g filter="url(#filter12_d_2274_15061)">
<mask id="path-43-inside-14_2274_15061" fill="white">
<path d="M262.367 118.323C262.367 117.073 263.381 116.059 264.632 116.059H324.569C325.819 116.059 326.833 117.072 326.833 118.323V141.441C326.833 142.692 325.819 143.706 324.569 143.706H264.632C263.381 143.706 262.367 142.692 262.367 141.441V118.323Z"/>
</mask>
<path d="M262.367 118.323C262.367 117.073 263.381 116.059 264.632 116.059H324.569C325.819 116.059 326.833 117.072 326.833 118.323V141.441C326.833 142.692 325.819 143.706 324.569 143.706H264.632C263.381 143.706 262.367 142.692 262.367 141.441V118.323Z" fill="white"/>
<path d="M264.632 116.059V116.436H324.569V116.059V115.681H264.632V116.059ZM326.833 118.323H326.456V141.441H326.833H327.211V118.323H326.833ZM324.569 143.706V143.328H264.632V143.706V144.083H324.569V143.706ZM262.367 141.441H262.745V118.323H262.367H261.99V141.441H262.367ZM264.632 143.706V143.328C263.59 143.328 262.745 142.483 262.745 141.441H262.367H261.99C261.99 142.9 263.173 144.083 264.632 144.083V143.706ZM326.833 141.441H326.456C326.456 142.483 325.611 143.328 324.569 143.328V143.706V144.083C326.028 144.083 327.211 142.9 327.211 141.441H326.833ZM324.569 116.059V116.436C325.611 116.436 326.456 117.281 326.456 118.323H326.833H327.211C327.211 116.864 326.028 115.681 324.569 115.681V116.059ZM264.632 116.059V115.681C263.173 115.681 261.99 116.864 261.99 118.323H262.367H262.745C262.745 117.281 263.59 116.436 264.632 116.436V116.059Z" fill="#E4E8F0" mask="url(#path-43-inside-14_2274_15061)"/>
<path d="M272.107 129.447C272.107 128.259 273.025 127.329 274.201 127.329C274.634 127.329 275.038 127.457 275.401 127.697V128.276C275.003 127.978 274.611 127.832 274.19 127.832C273.324 127.832 272.645 128.54 272.645 129.447C272.645 130.342 273.324 131.055 274.19 131.055C274.605 131.055 275.015 130.909 275.412 130.622V131.202C275.026 131.441 274.623 131.558 274.195 131.558C273.025 131.558 272.107 130.628 272.107 129.447ZM277.794 129.686V129.616C277.794 129.259 277.543 129.043 277.121 129.043C276.735 129.043 276.449 129.201 276.156 129.47V128.943C276.414 128.733 276.724 128.587 277.133 128.587C277.864 128.587 278.286 128.99 278.286 129.651V131.494H277.812V131.12C277.589 131.406 277.244 131.558 276.87 131.558C276.367 131.558 276.01 131.213 276.01 130.745C276.01 130.236 276.332 129.932 276.958 129.827L277.794 129.686ZM276.513 130.716C276.513 130.956 276.7 131.114 276.963 131.114C277.449 131.114 277.8 130.798 277.8 130.359V130.119L277.039 130.254C276.7 130.318 276.513 130.47 276.513 130.716ZM280.676 128.616V129.119C280.676 129.119 280.624 129.107 280.536 129.107C280.009 129.107 279.687 129.528 279.687 130.143V131.494H279.19V128.651H279.682V129.154C279.81 128.826 280.179 128.604 280.553 128.604C280.624 128.604 280.676 128.616 280.676 128.616ZM283.431 127.399H283.928V131.494H283.431V131.044C283.226 131.354 282.84 131.558 282.424 131.558C281.617 131.558 280.997 130.915 280.997 130.073C280.997 129.236 281.617 128.587 282.424 128.587C282.84 128.587 283.22 128.768 283.431 129.078V127.399ZM283.46 130.073C283.46 129.499 283.039 129.049 282.483 129.049C281.927 129.049 281.506 129.499 281.506 130.073C281.506 130.646 281.927 131.096 282.483 131.096C283.039 131.096 283.46 130.646 283.46 130.073ZM286.128 130.073C286.128 129.242 286.742 128.587 287.614 128.587C287.912 128.587 288.187 128.674 288.421 128.832V129.341C288.17 129.148 287.912 129.055 287.637 129.055C287.058 129.055 286.637 129.499 286.637 130.073C286.637 130.64 287.058 131.09 287.637 131.09C287.936 131.09 288.211 130.956 288.439 130.81V131.319C288.193 131.471 287.912 131.558 287.62 131.558C286.725 131.558 286.128 130.909 286.128 130.073ZM290.454 128.587C291.308 128.587 291.94 129.248 291.94 130.073C291.94 130.897 291.308 131.558 290.454 131.558C289.6 131.558 288.968 130.897 288.968 130.073C288.968 129.248 289.6 128.587 290.454 128.587ZM290.454 129.049C289.898 129.049 289.477 129.505 289.477 130.073C289.477 130.64 289.898 131.096 290.454 131.096C291.01 131.096 291.431 130.64 291.431 130.073C291.431 129.505 291.01 129.049 290.454 129.049ZM293.19 130.008V131.494H292.687V128.651H293.19V129.06C293.365 128.78 293.67 128.587 294.097 128.587C294.822 128.587 295.243 129.072 295.243 129.827V131.494H294.74V129.885C294.74 129.376 294.477 129.055 293.991 129.055C293.506 129.055 293.19 129.429 293.19 130.008ZM295.746 129.037L296.723 127.984H296.741V128.651H297.536V129.101H296.741V130.605C296.741 130.938 296.887 131.09 297.215 131.09C297.326 131.09 297.449 131.061 297.536 131.003V131.471C297.437 131.523 297.291 131.558 297.098 131.558C296.559 131.558 296.238 131.225 296.238 130.675V129.101H295.746V129.037ZM300.582 130.652V131.196C300.266 131.424 299.88 131.558 299.482 131.558C298.575 131.558 297.99 130.909 297.99 130.073C297.99 129.224 298.575 128.587 299.394 128.587C300.19 128.587 300.734 129.242 300.734 130.049C300.734 130.16 300.722 130.23 300.722 130.23H298.493C298.534 130.704 298.926 131.102 299.517 131.102C299.88 131.102 300.231 130.956 300.582 130.652ZM298.505 129.815H300.225C300.184 129.365 299.851 129.025 299.383 129.025C298.909 129.025 298.54 129.429 298.505 129.815ZM301.955 130.008V131.494H301.452V128.651H301.955V129.06C302.131 128.78 302.435 128.587 302.862 128.587C303.587 128.587 304.008 129.072 304.008 129.827V131.494H303.505V129.885C303.505 129.376 303.242 129.055 302.756 129.055C302.271 129.055 301.955 129.429 301.955 130.008ZM304.511 129.037L305.488 127.984H305.506V128.651H306.302V129.101H305.506V130.605C305.506 130.938 305.652 131.09 305.98 131.09C306.091 131.09 306.214 131.061 306.302 131.003V131.471C306.202 131.523 306.056 131.558 305.863 131.558C305.325 131.558 305.003 131.225 305.003 130.675V129.101H304.511V129.037Z" fill="#242B42"/>
</g>
<defs>
<filter id="filter0_d_2274_15061" x="25" y="9" width="91.2598" height="148.705" filterUnits="userSpaceOnUse" color-interpolation-filters="sRGB">
<feFlood flood-opacity="0" result="BackgroundImageFix"/>
<feColorMatrix in="SourceAlpha" type="matrix" values="0 0 0 0 0 0 0 0 0 0 0 0 0 0 0 0 0 0 127 0" result="hardAlpha"/>
<feOffset dy="4"/>
<feGaussianBlur stdDeviation="5"/>
<feColorMatrix type="matrix" values="0 0 0 0 0.235294 0 0 0 0 0.415686 0 0 0 0 0.67451 0 0 0 0.16 0"/>
<feBlend mode="normal" in2="BackgroundImageFix" result="effect1_dropShadow_2274_15061"/>
<feBlend mode="normal" in="SourceGraphic" in2="effect1_dropShadow_2274_15061" result="shape"/>
</filter>
<filter id="filter1_d_2274_15061" x="111.357" y="9" width="84.4658" height="47.6465" filterUnits="userSpaceOnUse" color-interpolation-filters="sRGB">
<feFlood flood-opacity="0" result="BackgroundImageFix"/>
<feColorMatrix in="SourceAlpha" type="matrix" values="0 0 0 0 0 0 0 0 0 0 0 0 0 0 0 0 0 0 127 0" result="hardAlpha"/>
<feOffset dy="4"/>
<feGaussianBlur stdDeviation="5"/>
<feColorMatrix type="matrix" values="0 0 0 0 0.235294 0 0 0 0 0.415686 0 0 0 0 0.67451 0 0 0 0.16 0"/>
<feBlend mode="normal" in2="BackgroundImageFix" result="effect1_dropShadow_2274_15061"/>
<feBlend mode="normal" in="SourceGraphic" in2="effect1_dropShadow_2274_15061" result="shape"/>
</filter>
<filter id="filter2_d_2274_15061" x="181.862" y="9" width="84.4658" height="47.6465" filterUnits="userSpaceOnUse" color-interpolation-filters="sRGB">
<feFlood flood-opacity="0" result="BackgroundImageFix"/>
<feColorMatrix in="SourceAlpha" type="matrix" values="0 0 0 0 0 0 0 0 0 0 0 0 0 0 0 0 0 0 127 0" result="hardAlpha"/>
<feOffset dy="4"/>
<feGaussianBlur stdDeviation="5"/>
<feColorMatrix type="matrix" values="0 0 0 0 0.235294 0 0 0 0 0.415686 0 0 0 0 0.67451 0 0 0 0.16 0"/>
<feBlend mode="normal" in2="BackgroundImageFix" result="effect1_dropShadow_2274_15061"/>
<feBlend mode="normal" in="SourceGraphic" in2="effect1_dropShadow_2274_15061" result="shape"/>
</filter>
<filter id="filter3_d_2274_15061" x="252.367" y="9" width="84.4658" height="47.6465" filterUnits="userSpaceOnUse" color-interpolation-filters="sRGB">
<feFlood flood-opacity="0" result="BackgroundImageFix"/>
<feColorMatrix in="SourceAlpha" type="matrix" values="0 0 0 0 0 0 0 0 0 0 0 0 0 0 0 0 0 0 127 0" result="hardAlpha"/>
<feOffset dy="4"/>
<feGaussianBlur stdDeviation="5"/>
<feColorMatrix type="matrix" values="0 0 0 0 0.235294 0 0 0 0 0.415686 0 0 0 0 0.67451 0 0 0 0.16 0"/>
<feBlend mode="normal" in2="BackgroundImageFix" result="effect1_dropShadow_2274_15061"/>
<feBlend mode="normal" in="SourceGraphic" in2="effect1_dropShadow_2274_15061" result="shape"/>
</filter>
<filter id="filter4_d_2274_15061" x="111.357" y="42.6855" width="84.4658" height="47.6465" filterUnits="userSpaceOnUse" color-interpolation-filters="sRGB">
<feFlood flood-opacity="0" result="BackgroundImageFix"/>
<feColorMatrix in="SourceAlpha" type="matrix" values="0 0 0 0 0 0 0 0 0 0 0 0 0 0 0 0 0 0 127 0" result="hardAlpha"/>
<feOffset dy="4"/>
<feGaussianBlur stdDeviation="5"/>
<feColorMatrix type="matrix" values="0 0 0 0 0.235294 0 0 0 0 0.415686 0 0 0 0 0.67451 0 0 0 0.16 0"/>
<feBlend mode="normal" in2="BackgroundImageFix" result="effect1_dropShadow_2274_15061"/>
<feBlend mode="normal" in="SourceGraphic" in2="effect1_dropShadow_2274_15061" result="shape"/>
</filter>
<filter id="filter5_d_2274_15061" x="181.862" y="42.6855" width="84.4658" height="47.6465" filterUnits="userSpaceOnUse" color-interpolation-filters="sRGB">
<feFlood flood-opacity="0" result="BackgroundImageFix"/>
<feColorMatrix in="SourceAlpha" type="matrix" values="0 0 0 0 0 0 0 0 0 0 0 0 0 0 0 0 0 0 127 0" result="hardAlpha"/>
<feOffset dy="4"/>
<feGaussianBlur stdDeviation="5"/>
<feColorMatrix type="matrix" values="0 0 0 0 0.235294 0 0 0 0 0.415686 0 0 0 0 0.67451 0 0 0 0.16 0"/>
<feBlend mode="normal" in2="BackgroundImageFix" result="effect1_dropShadow_2274_15061"/>
<feBlend mode="normal" in="SourceGraphic" in2="effect1_dropShadow_2274_15061" result="shape"/>
</filter>
<filter id="filter6_d_2274_15061" x="252.367" y="42.6855" width="84.4658" height="47.6465" filterUnits="userSpaceOnUse" color-interpolation-filters="sRGB">
<feFlood flood-opacity="0" result="BackgroundImageFix"/>
<feColorMatrix in="SourceAlpha" type="matrix" values="0 0 0 0 0 0 0 0 0 0 0 0 0 0 0 0 0 0 127 0" result="hardAlpha"/>
<feOffset dy="4"/>
<feGaussianBlur stdDeviation="5"/>
<feColorMatrix type="matrix" values="0 0 0 0 0.235294 0 0 0 0 0.415686 0 0 0 0 0.67451 0 0 0 0.16 0"/>
<feBlend mode="normal" in2="BackgroundImageFix" result="effect1_dropShadow_2274_15061"/>
<feBlend mode="normal" in="SourceGraphic" in2="effect1_dropShadow_2274_15061" result="shape"/>
</filter>
<filter id="filter7_d_2274_15061" x="111.357" y="76.3711" width="84.4658" height="47.6465" filterUnits="userSpaceOnUse" color-interpolation-filters="sRGB">
<feFlood flood-opacity="0" result="BackgroundImageFix"/>
<feColorMatrix in="SourceAlpha" type="matrix" values="0 0 0 0 0 0 0 0 0 0 0 0 0 0 0 0 0 0 127 0" result="hardAlpha"/>
<feOffset dy="4"/>
<feGaussianBlur stdDeviation="5"/>
<feColorMatrix type="matrix" values="0 0 0 0 0.235294 0 0 0 0 0.415686 0 0 0 0 0.67451 0 0 0 0.16 0"/>
<feBlend mode="normal" in2="BackgroundImageFix" result="effect1_dropShadow_2274_15061"/>
<feBlend mode="normal" in="SourceGraphic" in2="effect1_dropShadow_2274_15061" result="shape"/>
</filter>
<filter id="filter8_d_2274_15061" x="181.862" y="76.3711" width="84.4658" height="47.6465" filterUnits="userSpaceOnUse" color-interpolation-filters="sRGB">
<feFlood flood-opacity="0" result="BackgroundImageFix"/>
<feColorMatrix in="SourceAlpha" type="matrix" values="0 0 0 0 0 0 0 0 0 0 0 0 0 0 0 0 0 0 127 0" result="hardAlpha"/>
<feOffset dy="4"/>
<feGaussianBlur stdDeviation="5"/>
<feColorMatrix type="matrix" values="0 0 0 0 0.235294 0 0 0 0 0.415686 0 0 0 0 0.67451 0 0 0 0.16 0"/>
<feBlend mode="normal" in2="BackgroundImageFix" result="effect1_dropShadow_2274_15061"/>
<feBlend mode="normal" in="SourceGraphic" in2="effect1_dropShadow_2274_15061" result="shape"/>
</filter>
<filter id="filter9_d_2274_15061" x="252.367" y="76.3711" width="84.4658" height="47.6465" filterUnits="userSpaceOnUse" color-interpolation-filters="sRGB">
<feFlood flood-opacity="0" result="BackgroundImageFix"/>
<feColorMatrix in="SourceAlpha" type="matrix" values="0 0 0 0 0 0 0 0 0 0 0 0 0 0 0 0 0 0 127 0" result="hardAlpha"/>
<feOffset dy="4"/>
<feGaussianBlur stdDeviation="5"/>
<feColorMatrix type="matrix" values="0 0 0 0 0.235294 0 0 0 0 0.415686 0 0 0 0 0.67451 0 0 0 0.16 0"/>
<feBlend mode="normal" in2="BackgroundImageFix" result="effect1_dropShadow_2274_15061"/>
<feBlend mode="normal" in="SourceGraphic" in2="effect1_dropShadow_2274_15061" result="shape"/>
</filter>
<filter id="filter10_d_2274_15061" x="111.357" y="110.059" width="84.4658" height="47.6465" filterUnits="userSpaceOnUse" color-interpolation-filters="sRGB">
<feFlood flood-opacity="0" result="BackgroundImageFix"/>
<feColorMatrix in="SourceAlpha" type="matrix" values="0 0 0 0 0 0 0 0 0 0 0 0 0 0 0 0 0 0 127 0" result="hardAlpha"/>
<feOffset dy="4"/>
<feGaussianBlur stdDeviation="5"/>
<feColorMatrix type="matrix" values="0 0 0 0 0.235294 0 0 0 0 0.415686 0 0 0 0 0.67451 0 0 0 0.16 0"/>
<feBlend mode="normal" in2="BackgroundImageFix" result="effect1_dropShadow_2274_15061"/>
<feBlend mode="normal" in="SourceGraphic" in2="effect1_dropShadow_2274_15061" result="shape"/>
</filter>
<filter id="filter11_d_2274_15061" x="181.862" y="110.059" width="84.4658" height="47.6465" filterUnits="userSpaceOnUse" color-interpolation-filters="sRGB">
<feFlood flood-opacity="0" result="BackgroundImageFix"/>
<feColorMatrix in="SourceAlpha" type="matrix" values="0 0 0 0 0 0 0 0 0 0 0 0 0 0 0 0 0 0 127 0" result="hardAlpha"/>
<feOffset dy="4"/>
<feGaussianBlur stdDeviation="5"/>
<feColorMatrix type="matrix" values="0 0 0 0 0.235294 0 0 0 0 0.415686 0 0 0 0 0.67451 0 0 0 0.16 0"/>
<feBlend mode="normal" in2="BackgroundImageFix" result="effect1_dropShadow_2274_15061"/>
<feBlend mode="normal" in="SourceGraphic" in2="effect1_dropShadow_2274_15061" result="shape"/>
</filter>
<filter id="filter12_d_2274_15061" x="252.367" y="110.059" width="84.4658" height="47.6465" filterUnits="userSpaceOnUse" color-interpolation-filters="sRGB">
<feFlood flood-opacity="0" result="BackgroundImageFix"/>
<feColorMatrix in="SourceAlpha" type="matrix" values="0 0 0 0 0 0 0 0 0 0 0 0 0 0 0 0 0 0 127 0" result="hardAlpha"/>
<feOffset dy="4"/>
<feGaussianBlur stdDeviation="5"/>
<feColorMatrix type="matrix" values="0 0 0 0 0.235294 0 0 0 0 0.415686 0 0 0 0 0.67451 0 0 0 0.16 0"/>
<feBlend mode="normal" in2="BackgroundImageFix" result="effect1_dropShadow_2274_15061"/>
<feBlend mode="normal" in="SourceGraphic" in2="effect1_dropShadow_2274_15061" result="shape"/>
</filter>
</defs>
</svg>
