<svg width="362" height="159" viewBox="0 0 362 159" fill="none" xmlns="http://www.w3.org/2000/svg">
<rect width="103" height="1" transform="matrix(1 0 0 -1 0 79.5)" fill="#E4E8F0"/>
<path d="M112.13 82.436V80.3C112.934 81.044 114.098 81.464 114.998 81.464C115.814 81.464 116.27 81.14 116.27 80.552C116.27 79.868 115.43 79.724 114.494 79.472C113.342 79.172 112.034 78.74 112.034 77.096C112.034 75.488 113.33 74.444 115.154 74.444C116.15 74.444 117.002 74.672 117.746 75.14V77.144C116.966 76.472 116.066 76.112 115.166 76.112C114.278 76.112 113.894 76.484 113.894 76.988C113.894 77.54 114.602 77.72 115.418 77.936C116.63 78.248 118.142 78.656 118.142 80.42C118.142 82.028 116.954 83.156 115.034 83.156C113.99 83.156 112.886 82.904 112.13 82.436ZM120.566 83V74.6H125.51V76.232H122.366V77.936H125.234V79.52H122.366V81.368H125.534V83H120.566ZM127.663 78.8C127.663 76.34 129.583 74.444 132.007 74.444C132.739 74.444 133.483 74.636 134.143 75.008V76.952C133.507 76.472 132.847 76.208 132.067 76.208C130.603 76.208 129.523 77.348 129.523 78.8C129.523 80.228 130.555 81.38 132.067 81.38C132.835 81.38 133.495 81.128 134.155 80.66V82.592C133.423 83 132.655 83.156 131.983 83.156C129.439 83.156 127.663 81.296 127.663 78.8ZM136.263 76.28V74.6H142.503V76.28H140.295V83H138.483V76.28H136.263ZM144.803 74.6H146.615V83H144.803V74.6ZM157.977 78.8C157.977 81.224 156.021 83.156 153.585 83.156C151.149 83.156 149.193 81.224 149.193 78.8C149.193 76.376 151.149 74.444 153.585 74.444C156.021 74.444 157.977 76.376 157.977 78.8ZM156.129 78.8C156.129 77.348 155.013 76.196 153.585 76.196C152.157 76.196 151.041 77.348 151.041 78.8C151.041 80.252 152.157 81.404 153.585 81.404C155.013 81.404 156.129 80.252 156.129 78.8ZM166.31 74.6H168.062V83H166.262L162.314 77.456V83H160.562V74.6H162.398L166.31 80.168V74.6ZM174.792 82.436V80.3C175.596 81.044 176.76 81.464 177.66 81.464C178.476 81.464 178.932 81.14 178.932 80.552C178.932 79.868 178.092 79.724 177.156 79.472C176.004 79.172 174.696 78.74 174.696 77.096C174.696 75.488 175.992 74.444 177.816 74.444C178.812 74.444 179.664 74.672 180.408 75.14V77.144C179.628 76.472 178.728 76.112 177.828 76.112C176.94 76.112 176.556 76.484 176.556 76.988C176.556 77.54 177.264 77.72 178.08 77.936C179.292 78.248 180.804 78.656 180.804 80.42C180.804 82.028 179.616 83.156 177.696 83.156C176.652 83.156 175.548 82.904 174.792 82.436ZM183.229 83V74.6H188.173V76.232H185.029V77.936H187.897V79.52H185.029V81.368H188.197V83H183.229ZM190.839 74.6H193.695C195.519 74.6 196.779 75.584 196.779 77.312C196.779 79.028 195.519 80.024 193.695 80.024H192.639V83H190.839V74.6ZM192.639 76.22V78.428H193.731C194.451 78.428 194.967 78.02 194.967 77.324C194.967 76.628 194.451 76.22 193.731 76.22H192.639ZM200.842 74.6H202.438L205.81 83H203.926L203.218 81.188H200.014L199.306 83H197.458L200.842 74.6ZM201.61 76.892L200.566 79.64H202.678L201.61 76.892ZM209.781 79.928V83H207.993V74.6H210.789C212.601 74.6 213.861 75.572 213.861 77.288C213.861 78.488 213.141 79.328 212.133 79.712L214.449 83H212.325L210.261 79.928H209.781ZM209.781 76.22V78.44H210.801C211.521 78.44 212.049 78.02 212.049 77.324C212.049 76.616 211.521 76.22 210.801 76.22H209.781ZM219.425 74.6H221.021L224.393 83H222.509L221.801 81.188H218.597L217.889 83H216.041L219.425 74.6ZM220.193 76.892L219.149 79.64H221.261L220.193 76.892ZM224.896 76.28V74.6H231.136V76.28H228.928V83H227.116V76.28H224.896ZM241.344 78.8C241.344 81.224 239.388 83.156 236.952 83.156C234.516 83.156 232.56 81.224 232.56 78.8C232.56 76.376 234.516 74.444 236.952 74.444C239.388 74.444 241.344 76.376 241.344 78.8ZM239.496 78.8C239.496 77.348 238.38 76.196 236.952 76.196C235.524 76.196 234.408 77.348 234.408 78.8C234.408 80.252 235.524 81.404 236.952 81.404C238.38 81.404 239.496 80.252 239.496 78.8ZM245.717 79.928V83H243.929V74.6H246.725C248.537 74.6 249.797 75.572 249.797 77.288C249.797 78.488 249.077 79.328 248.069 79.712L250.385 83H248.261L246.197 79.928H245.717ZM245.717 76.22V78.44H246.737C247.457 78.44 247.985 78.02 247.985 77.324C247.985 76.616 247.457 76.22 246.737 76.22H245.717Z" fill="#4B546B"/>
<rect width="103" height="1" transform="matrix(1 0 0 -1 259 79.5)" fill="#E4E8F0"/>
</svg>
