<svg width="362" height="159" viewBox="0 0 362 159" fill="none" xmlns="http://www.w3.org/2000/svg">
<rect x="111" y="69" width="20" height="20" rx="3" stroke="#828EA7" stroke-width="2"/>
<path d="M140.806 78.575C140.806 75.4285 143.24 72.964 146.355 72.964C147.502 72.964 148.572 73.305 149.533 73.9405V75.475C148.479 74.6845 147.44 74.297 146.324 74.297C144.03 74.297 142.232 76.1725 142.232 78.575C142.232 80.9465 144.03 82.8375 146.324 82.8375C147.425 82.8375 148.51 82.45 149.564 81.6905V83.225C148.54 83.8605 147.471 84.1705 146.34 84.1705C143.24 84.1705 140.806 81.706 140.806 78.575ZM152.871 80.063V84H151.538V73.15H152.871V77.552C153.336 76.808 154.142 76.2965 155.273 76.2965C157.195 76.2965 158.311 77.583 158.311 79.5825V84H156.978V79.7375C156.978 78.389 156.281 77.5365 154.994 77.5365C153.708 77.5365 152.871 78.5285 152.871 80.063ZM167.054 81.768V83.2095C166.217 83.814 165.194 84.1705 164.14 84.1705C161.738 84.1705 160.188 82.45 160.188 80.2335C160.188 77.986 161.738 76.2965 163.908 76.2965C166.016 76.2965 167.457 78.0325 167.457 80.1715C167.457 80.466 167.426 80.652 167.426 80.652H161.521C161.629 81.9075 162.668 82.9615 164.233 82.9615C165.194 82.9615 166.124 82.574 167.054 81.768ZM161.552 79.5515H166.109C166 78.358 165.117 77.459 163.877 77.459C162.621 77.459 161.645 78.5285 161.552 79.5515ZM168.896 80.2335C168.896 78.0325 170.523 76.2965 172.833 76.2965C173.623 76.2965 174.352 76.529 174.972 76.9475V78.296C174.305 77.7845 173.623 77.5365 172.895 77.5365C171.36 77.5365 170.244 78.7145 170.244 80.2335C170.244 81.737 171.36 82.9305 172.895 82.9305C173.685 82.9305 174.414 82.574 175.018 82.1865V83.535C174.367 83.938 173.623 84.1705 172.848 84.1705C170.477 84.1705 168.896 82.45 168.896 80.2335ZM178.283 73.15V79.4585L181.445 76.467H183.15L179.725 79.6755L183.445 84H181.755L178.795 80.497L178.283 80.9775V84H176.966V73.15H178.283ZM186.204 84H184.887V73.15H186.204V77.6605C186.747 76.839 187.77 76.2965 188.87 76.2965C191.009 76.2965 192.652 78.0015 192.652 80.2335C192.652 82.45 191.009 84.1705 188.87 84.1705C187.77 84.1705 186.762 83.69 186.204 82.8685V84ZM191.304 80.2335C191.304 78.7145 190.188 77.521 188.715 77.521C187.243 77.521 186.127 78.7145 186.127 80.2335C186.127 81.7525 187.243 82.946 188.715 82.946C190.188 82.946 191.304 81.7525 191.304 80.2335ZM198.11 76.2965C200.373 76.2965 202.047 78.048 202.047 80.2335C202.047 82.419 200.373 84.1705 198.11 84.1705C195.847 84.1705 194.173 82.419 194.173 80.2335C194.173 78.048 195.847 76.2965 198.11 76.2965ZM198.11 77.521C196.637 77.521 195.521 78.73 195.521 80.2335C195.521 81.737 196.637 82.946 198.11 82.946C199.582 82.946 200.698 81.737 200.698 80.2335C200.698 78.73 199.582 77.521 198.11 77.521ZM208.241 84L206.179 81.086L204.102 84H202.599L205.404 80.156L202.723 76.467H204.273L206.21 79.195L208.163 76.467H209.682L207.001 80.125L209.806 84H208.241ZM215.379 73.15H216.759V82.7135H220.634V84H215.379V73.15ZM226.577 79.2105V79.0245C226.577 78.079 225.911 77.5055 224.795 77.5055C223.772 77.5055 223.012 77.924 222.237 78.637V77.242C222.919 76.684 223.741 76.2965 224.826 76.2965C226.763 76.2965 227.879 77.366 227.879 79.1175V84H226.624V83.008C226.035 83.7675 225.12 84.1705 224.128 84.1705C222.795 84.1705 221.85 83.256 221.85 82.016C221.85 80.6675 222.702 79.8615 224.361 79.5825L226.577 79.2105ZM223.183 81.9385C223.183 82.574 223.679 82.9925 224.376 82.9925C225.663 82.9925 226.593 82.1555 226.593 80.993V80.3575L224.578 80.714C223.679 80.8845 223.183 81.2875 223.183 81.9385ZM231.597 84H230.279V73.15H231.597V77.6605C232.139 76.839 233.162 76.2965 234.263 76.2965C236.402 76.2965 238.045 78.0015 238.045 80.2335C238.045 82.45 236.402 84.1705 234.263 84.1705C233.162 84.1705 232.155 83.69 231.597 82.8685V84ZM236.696 80.2335C236.696 78.7145 235.58 77.521 234.108 77.521C232.635 77.521 231.519 78.7145 231.519 80.2335C231.519 81.7525 232.635 82.946 234.108 82.946C235.58 82.946 236.696 81.7525 236.696 80.2335ZM246.432 81.768V83.2095C245.595 83.814 244.572 84.1705 243.518 84.1705C241.115 84.1705 239.565 82.45 239.565 80.2335C239.565 77.986 241.115 76.2965 243.285 76.2965C245.393 76.2965 246.835 78.0325 246.835 80.1715C246.835 80.466 246.804 80.652 246.804 80.652H240.898C241.007 81.9075 242.045 82.9615 243.611 82.9615C244.572 82.9615 245.502 82.574 246.432 81.768ZM240.929 79.5515H245.486C245.378 78.358 244.494 77.459 243.254 77.459C241.999 77.459 241.022 78.5285 240.929 79.5515ZM248.74 73.15H250.073V84H248.74V73.15Z" fill="#242B42"/>
</svg>
