<svg width="362" height="159" viewBox="0 0 362 159" fill="none" xmlns="http://www.w3.org/2000/svg">
<path d="M69.004 44.8C69.004 47.164 67.084 49 64.732 49H61.888V40.6H64.732C67.084 40.6 69.004 42.436 69.004 44.8ZM67.156 44.8C67.156 43.408 66.076 42.292 64.684 42.292H63.688V47.308H64.684C66.076 47.308 67.156 46.192 67.156 44.8ZM73.7777 40.6H75.3737L78.7457 49H76.8617L76.1537 47.188H72.9497L72.2417 49H70.3937L73.7777 40.6ZM74.5457 42.892L73.5017 45.64H75.6137L74.5457 42.892ZM79.2488 42.28V40.6H85.4888V42.28H83.2808V49H81.4688V42.28H79.2488ZM87.7888 49V40.6H92.7328V42.232H89.5888V43.936H92.4568V45.52H89.5888V47.368H92.7568V49H87.7888ZM99.3997 40.6H102.256C104.08 40.6 105.34 41.584 105.34 43.312C105.34 45.028 104.08 46.024 102.256 46.024H101.2V49H99.3997V40.6ZM101.2 42.22V44.428H102.292C103.012 44.428 103.528 44.02 103.528 43.324C103.528 42.628 103.012 42.22 102.292 42.22H101.2ZM107.69 40.6H109.502V49H107.69V40.6ZM112.08 44.8C112.08 42.34 114 40.444 116.424 40.444C117.156 40.444 117.9 40.636 118.56 41.008V42.952C117.924 42.472 117.264 42.208 116.484 42.208C115.02 42.208 113.94 43.348 113.94 44.8C113.94 46.228 114.972 47.38 116.484 47.38C117.252 47.38 117.912 47.128 118.572 46.66V48.592C117.84 49 117.072 49.156 116.4 49.156C113.856 49.156 112.08 47.296 112.08 44.8ZM122.987 40.6V43.924L125.819 40.6H127.979L124.523 44.56L128.219 49H125.951L123.371 45.772L122.987 46.204V49H121.175V40.6H122.987ZM130.379 49V40.6H135.323V42.232H132.179V43.936H135.047V45.52H132.179V47.368H135.347V49H130.379ZM139.778 45.928V49H137.99V40.6H140.786C142.598 40.6 143.858 41.572 143.858 43.288C143.858 44.488 143.138 45.328 142.13 45.712L144.446 49H142.322L140.258 45.928H139.778ZM139.778 42.22V44.44H140.798C141.518 44.44 142.046 44.02 142.046 43.324C142.046 42.616 141.518 42.22 140.798 42.22H139.778Z" fill="#617290"/>
<g filter="url(#filter0_d_2274_7616)">
<g clip-path="url(#clip0_2274_7616)">
<path d="M61 68C61 64.6863 63.6863 62 67 62H295C298.314 62 301 64.6863 301 68V101C301 104.314 298.314 107 295 107H67C63.6863 107 61 104.314 61 101V68Z" fill="white"/>
<path d="M77.8525 88.5545V86.9115C78.7515 87.7175 79.976 88.353 81.247 88.353C82.363 88.353 83.603 87.826 83.603 86.524C83.603 85.2995 82.4715 84.9585 81.2315 84.633C79.635 84.23 77.837 83.7185 77.837 81.5175C77.837 79.549 79.5575 78.464 81.371 78.464C82.611 78.464 83.665 78.836 84.6105 79.518V81.1145C83.727 80.3395 82.642 79.766 81.371 79.766C80.379 79.766 79.232 80.324 79.232 81.44C79.232 82.742 80.4875 83.083 81.836 83.4395C83.355 83.8425 84.998 84.478 84.998 86.4465C84.998 88.5545 83.169 89.6705 81.2625 89.6705C80.038 89.6705 78.8135 89.2985 77.8525 88.5545ZM93.3479 87.268V88.7095C92.5109 89.314 91.4879 89.6705 90.4339 89.6705C88.0314 89.6705 86.4814 87.95 86.4814 85.7335C86.4814 83.486 88.0314 81.7965 90.2014 81.7965C92.3094 81.7965 93.7509 83.5325 93.7509 85.6715C93.7509 85.966 93.7199 86.152 93.7199 86.152H87.8144C87.9229 87.4075 88.9614 88.4615 90.5269 88.4615C91.4879 88.4615 92.4179 88.074 93.3479 87.268ZM87.8454 85.0515H92.4024C92.2939 83.858 91.4104 82.959 90.1704 82.959C88.9149 82.959 87.9384 84.0285 87.8454 85.0515ZM95.6564 78.65H96.9894V89.5H95.6564V78.65ZM105.845 87.268V88.7095C105.008 89.314 103.985 89.6705 102.931 89.6705C100.528 89.6705 98.9784 87.95 98.9784 85.7335C98.9784 83.486 100.528 81.7965 102.698 81.7965C104.806 81.7965 106.248 83.5325 106.248 85.6715C106.248 85.966 106.217 86.152 106.217 86.152H100.311C100.42 87.4075 101.458 88.4615 103.024 88.4615C103.985 88.4615 104.915 88.074 105.845 87.268ZM100.342 85.0515H104.899C104.791 83.858 103.907 82.959 102.667 82.959C101.412 82.959 100.435 84.0285 100.342 85.0515ZM107.687 85.7335C107.687 83.5325 109.314 81.7965 111.624 81.7965C112.414 81.7965 113.143 82.029 113.763 82.4475V83.796C113.096 83.2845 112.414 83.0365 111.686 83.0365C110.151 83.0365 109.035 84.2145 109.035 85.7335C109.035 87.237 110.151 88.4305 111.686 88.4305C112.476 88.4305 113.205 88.074 113.809 87.6865V89.035C113.158 89.438 112.414 89.6705 111.639 89.6705C109.268 89.6705 107.687 87.95 107.687 85.7335ZM114.931 82.99L117.519 80.2H117.566V81.967H119.674V83.1605H117.566V87.144C117.566 88.0275 117.953 88.4305 118.821 88.4305C119.116 88.4305 119.441 88.353 119.674 88.198V89.438C119.41 89.5775 119.023 89.6705 118.511 89.6705C117.085 89.6705 116.233 88.787 116.233 87.33V83.1605H114.931V82.99ZM134.322 84.075C134.322 87.1595 131.935 89.5 128.928 89.5H125.502V78.65H128.928C131.935 78.65 134.322 80.9905 134.322 84.075ZM132.896 84.075C132.896 81.75 131.206 79.9365 128.897 79.9365H126.882V88.2135H128.897C131.206 88.2135 132.896 86.4 132.896 84.075ZM140.636 84.7105V84.5245C140.636 83.579 139.969 83.0055 138.853 83.0055C137.83 83.0055 137.071 83.424 136.296 84.137V82.742C136.978 82.184 137.799 81.7965 138.884 81.7965C140.822 81.7965 141.938 82.866 141.938 84.6175V89.5H140.682V88.508C140.093 89.2675 139.179 89.6705 138.187 89.6705C136.854 89.6705 135.908 88.756 135.908 87.516C135.908 86.1675 136.761 85.3615 138.419 85.0825L140.636 84.7105ZM137.241 87.4385C137.241 88.074 137.737 88.4925 138.435 88.4925C139.721 88.4925 140.651 87.6555 140.651 86.493V85.8575L138.636 86.214C137.737 86.3845 137.241 86.7875 137.241 87.4385ZM143.255 82.99L145.843 80.2H145.89V81.967H147.998V83.1605H145.89V87.144C145.89 88.0275 146.277 88.4305 147.145 88.4305C147.44 88.4305 147.765 88.353 147.998 88.198V89.438C147.734 89.5775 147.347 89.6705 146.835 89.6705C145.409 89.6705 144.557 88.787 144.557 87.33V83.1605H143.255V82.99ZM156.07 87.268V88.7095C155.233 89.314 154.21 89.6705 153.156 89.6705C150.754 89.6705 149.204 87.95 149.204 85.7335C149.204 83.486 150.754 81.7965 152.924 81.7965C155.032 81.7965 156.473 83.5325 156.473 85.6715C156.473 85.966 156.442 86.152 156.442 86.152H150.537C150.645 87.4075 151.684 88.4615 153.249 88.4615C154.21 88.4615 155.14 88.074 156.07 87.268ZM150.568 85.0515H155.125C155.016 83.858 154.133 82.959 152.893 82.959C151.637 82.959 150.661 84.0285 150.568 85.0515Z" fill="#617290"/>
<mask id="path-6-inside-1_2274_7616" fill="white">
<path d="M253 62H301V107H253V62Z"/>
</mask>
<path d="M253 107H254V62H253H252V107H253Z" fill="#828EA7" mask="url(#path-6-inside-1_2274_7616)"/>
<g clip-path="url(#clip1_2274_7616)">
<path fill-rule="evenodd" clip-rule="evenodd" d="M273.75 76.5166C274.164 76.5166 274.5 76.8524 274.5 77.2666V78.5107H279V77.2666C279 76.8524 279.336 76.5166 279.75 76.5166C280.164 76.5166 280.5 76.8524 280.5 77.2666V78.5107H282.274C283.24 78.5107 284.024 79.2942 284.024 80.2607V90.7474C284.024 91.7139 283.24 92.4974 282.274 92.4974H271.726C270.759 92.4974 269.976 91.7139 269.976 90.7474V80.2607C269.976 79.2942 270.759 78.5107 271.726 78.5107H273V77.2666C273 76.8524 273.336 76.5166 273.75 76.5166ZM271.476 82.472V84.3138H274.148V82.472H271.476ZM271.476 85.8138H274.148V87.6556H271.476V85.8138ZM275.648 85.8138V87.6556H278.351V85.8138H275.648ZM279.851 85.8138V87.6556H282.524V85.8138H279.851ZM278.351 89.1556H275.648V90.9974H278.351V89.1556ZM279.851 90.9974V89.1556H282.524V90.7474C282.524 90.8854 282.412 90.9974 282.274 90.9974H279.851ZM279.851 84.3138V82.472H282.524V84.3138H279.851ZM278.351 82.472V84.3138H275.648V82.472H278.351ZM271.476 89.1556H274.148V90.9974H271.726C271.588 90.9974 271.476 90.8854 271.476 90.7474V89.1556Z" fill="#617290"/>
</g>
</g>
<path d="M67 62.5H295C298.038 62.5 300.5 64.9624 300.5 68V101C300.5 104.038 298.038 106.5 295 106.5H67C63.9624 106.5 61.5 104.038 61.5 101V68C61.5 64.9624 63.9624 62.5 67 62.5Z" stroke="#828EA7"/>
</g>
<defs>
<filter id="filter0_d_2274_7616" x="33" y="46" width="296" height="101" filterUnits="userSpaceOnUse" color-interpolation-filters="sRGB">
<feFlood flood-opacity="0" result="BackgroundImageFix"/>
<feColorMatrix in="SourceAlpha" type="matrix" values="0 0 0 0 0 0 0 0 0 0 0 0 0 0 0 0 0 0 127 0" result="hardAlpha"/>
<feOffset dy="12"/>
<feGaussianBlur stdDeviation="14"/>
<feColorMatrix type="matrix" values="0 0 0 0 0.235294 0 0 0 0 0.415686 0 0 0 0 0.67451 0 0 0 0.18 0"/>
<feBlend mode="normal" in2="BackgroundImageFix" result="effect1_dropShadow_2274_7616"/>
<feBlend mode="normal" in="SourceGraphic" in2="effect1_dropShadow_2274_7616" result="shape"/>
</filter>
<clipPath id="clip0_2274_7616">
<path d="M61 68C61 64.6863 63.6863 62 67 62H295C298.314 62 301 64.6863 301 68V101C301 104.314 298.314 107 295 107H67C63.6863 107 61 104.314 61 101V68Z" fill="white"/>
</clipPath>
<clipPath id="clip1_2274_7616">
<rect width="20" height="16" fill="white" transform="translate(267 76.5)"/>
</clipPath>
</defs>
</svg>
