<svg width="362" height="159" viewBox="0 0 362 159" fill="none" xmlns="http://www.w3.org/2000/svg">
<path d="M69.004 43.8C69.004 46.164 67.084 48 64.732 48H61.888V39.6H64.732C67.084 39.6 69.004 41.436 69.004 43.8ZM67.156 43.8C67.156 42.408 66.076 41.292 64.684 41.292H63.688V46.308H64.684C66.076 46.308 67.156 45.192 67.156 43.8ZM73.3721 44.928V48H71.5841V39.6H74.3801C76.1921 39.6 77.4521 40.572 77.4521 42.288C77.4521 43.488 76.7321 44.328 75.7241 44.712L78.0401 48H75.9161L73.8521 44.928H73.3721ZM73.3721 41.22V43.44H74.3921C75.1121 43.44 75.6401 43.02 75.6401 42.324C75.6401 41.616 75.1121 41.22 74.3921 41.22H73.3721ZM88.4612 43.8C88.4612 46.224 86.5052 48.156 84.0692 48.156C81.6332 48.156 79.6772 46.224 79.6772 43.8C79.6772 41.376 81.6332 39.444 84.0692 39.444C86.5052 39.444 88.4612 41.376 88.4612 43.8ZM86.6132 43.8C86.6132 42.348 85.4972 41.196 84.0692 41.196C82.6412 41.196 81.5252 42.348 81.5252 43.8C81.5252 45.252 82.6412 46.404 84.0692 46.404C85.4972 46.404 86.6132 45.252 86.6132 43.8ZM91.0466 39.6H93.9026C95.7266 39.6 96.9866 40.584 96.9866 42.312C96.9866 44.028 95.7266 45.024 93.9026 45.024H92.8466V48H91.0466V39.6ZM92.8466 41.22V43.428H93.9386C94.6586 43.428 95.1746 43.02 95.1746 42.324C95.1746 41.628 94.6586 41.22 93.9386 41.22H92.8466ZM106.452 43.8C106.452 46.164 104.532 48 102.18 48H99.3364V39.6H102.18C104.532 39.6 106.452 41.436 106.452 43.8ZM104.604 43.8C104.604 42.408 103.524 41.292 102.132 41.292H101.136V46.308H102.132C103.524 46.308 104.604 45.192 104.604 43.8ZM117.479 43.8C117.479 46.224 115.523 48.156 113.087 48.156C110.651 48.156 108.695 46.224 108.695 43.8C108.695 41.376 110.651 39.444 113.087 39.444C115.523 39.444 117.479 41.376 117.479 43.8ZM115.631 43.8C115.631 42.348 114.515 41.196 113.087 41.196C111.659 41.196 110.543 42.348 110.543 43.8C110.543 45.252 111.659 46.404 113.087 46.404C114.515 46.404 115.631 45.252 115.631 43.8ZM123.324 48H121.86L118.98 39.6H120.864L122.616 45.156L124.404 39.6H125.868L127.644 45.156L129.408 39.6H131.256L128.376 48H126.9L125.112 42.396L123.324 48ZM139.188 39.6H140.94V48H139.14L135.192 42.456V48H133.44V39.6H135.276L139.188 45.168V39.6Z" fill="#617290"/>
<g filter="url(#filter0_d_2274_7618)">
<g filter="url(#filter1_i_2274_7618)">
<path d="M61 67C61 63.6863 63.6863 61 67 61H295C298.314 61 301 63.6863 301 67V101C301 104.314 298.314 107 295 107H67C63.6863 107 61 104.314 61 101V67Z" fill="white"/>
<path d="M67 61.5H295C298.038 61.5 300.5 63.9624 300.5 67V101C300.5 104.038 298.038 106.5 295 106.5H67C63.9624 106.5 61.5 104.038 61.5 101V67C61.5 63.9624 63.9624 61.5 67 61.5Z" stroke="#828EA7"/>
<path d="M77.8525 88.0545V86.4115C78.7515 87.2175 79.976 87.853 81.247 87.853C82.363 87.853 83.603 87.326 83.603 86.024C83.603 84.7995 82.4715 84.4585 81.2315 84.133C79.635 83.73 77.837 83.2185 77.837 81.0175C77.837 79.049 79.5575 77.964 81.371 77.964C82.611 77.964 83.665 78.336 84.6105 79.018V80.6145C83.727 79.8395 82.642 79.266 81.371 79.266C80.379 79.266 79.232 79.824 79.232 80.94C79.232 82.242 80.4875 82.583 81.836 82.9395C83.355 83.3425 84.998 83.978 84.998 85.9465C84.998 88.0545 83.169 89.1705 81.2625 89.1705C80.038 89.1705 78.8135 88.7985 77.8525 88.0545ZM93.3479 86.768V88.2095C92.5109 88.814 91.4879 89.1705 90.4339 89.1705C88.0314 89.1705 86.4814 87.45 86.4814 85.2335C86.4814 82.986 88.0314 81.2965 90.2014 81.2965C92.3094 81.2965 93.7509 83.0325 93.7509 85.1715C93.7509 85.466 93.7199 85.652 93.7199 85.652H87.8144C87.9229 86.9075 88.9614 87.9615 90.5269 87.9615C91.4879 87.9615 92.4179 87.574 93.3479 86.768ZM87.8454 84.5515H92.4024C92.2939 83.358 91.4104 82.459 90.1704 82.459C88.9149 82.459 87.9384 83.5285 87.8454 84.5515ZM95.6564 78.15H96.9894V89H95.6564V78.15ZM105.845 86.768V88.2095C105.008 88.814 103.985 89.1705 102.931 89.1705C100.528 89.1705 98.9784 87.45 98.9784 85.2335C98.9784 82.986 100.528 81.2965 102.698 81.2965C104.806 81.2965 106.248 83.0325 106.248 85.1715C106.248 85.466 106.217 85.652 106.217 85.652H100.311C100.42 86.9075 101.458 87.9615 103.024 87.9615C103.985 87.9615 104.915 87.574 105.845 86.768ZM100.342 84.5515H104.899C104.791 83.358 103.907 82.459 102.667 82.459C101.412 82.459 100.435 83.5285 100.342 84.5515ZM107.687 85.2335C107.687 83.0325 109.314 81.2965 111.624 81.2965C112.414 81.2965 113.143 81.529 113.763 81.9475V83.296C113.096 82.7845 112.414 82.5365 111.686 82.5365C110.151 82.5365 109.035 83.7145 109.035 85.2335C109.035 86.737 110.151 87.9305 111.686 87.9305C112.476 87.9305 113.205 87.574 113.809 87.1865V88.535C113.158 88.938 112.414 89.1705 111.639 89.1705C109.268 89.1705 107.687 87.45 107.687 85.2335ZM114.931 82.49L117.519 79.7H117.566V81.467H119.674V82.6605H117.566V86.644C117.566 87.5275 117.953 87.9305 118.821 87.9305C119.116 87.9305 119.441 87.853 119.674 87.698V88.938C119.41 89.0775 119.023 89.1705 118.511 89.1705C117.085 89.1705 116.233 88.287 116.233 86.83V82.6605H114.931V82.49ZM123.459 88.194C123.459 88.721 123.041 89.1395 122.514 89.1395C121.987 89.1395 121.568 88.721 121.568 88.194C121.568 87.6825 121.987 87.264 122.514 87.264C123.041 87.264 123.459 87.6825 123.459 88.194ZM127.415 88.194C127.415 88.721 126.996 89.1395 126.469 89.1395C125.942 89.1395 125.524 88.721 125.524 88.194C125.524 87.6825 125.942 87.264 126.469 87.264C126.996 87.264 127.415 87.6825 127.415 88.194ZM131.37 88.194C131.37 88.721 130.951 89.1395 130.424 89.1395C129.897 89.1395 129.479 88.721 129.479 88.194C129.479 87.6825 129.897 87.264 130.424 87.264C130.951 87.264 131.37 87.6825 131.37 88.194Z" fill="#242B42"/>
<path d="M275.785 87.7148L270.535 82.4648C270.262 82.2188 270.262 81.8086 270.535 81.5352C270.781 81.2891 271.191 81.2891 271.465 81.5352L276.25 86.3477L281.035 81.5625C281.281 81.2891 281.691 81.2891 281.965 81.5625C282.211 81.8086 282.211 82.2188 281.965 82.4648L276.688 87.7148C276.441 87.9883 276.031 87.9883 275.785 87.7148Z" fill="#242B42"/>
</g>
</g>
<defs>
<filter id="filter0_d_2274_7618" x="33" y="45" width="296" height="102" filterUnits="userSpaceOnUse" color-interpolation-filters="sRGB">
<feFlood flood-opacity="0" result="BackgroundImageFix"/>
<feColorMatrix in="SourceAlpha" type="matrix" values="0 0 0 0 0 0 0 0 0 0 0 0 0 0 0 0 0 0 127 0" result="hardAlpha"/>
<feOffset dy="12"/>
<feGaussianBlur stdDeviation="14"/>
<feColorMatrix type="matrix" values="0 0 0 0 0.235294 0 0 0 0 0.415686 0 0 0 0 0.67451 0 0 0 0.18 0"/>
<feBlend mode="normal" in2="BackgroundImageFix" result="effect1_dropShadow_2274_7618"/>
<feBlend mode="normal" in="SourceGraphic" in2="effect1_dropShadow_2274_7618" result="shape"/>
</filter>
<filter id="filter1_i_2274_7618" x="61" y="50" width="240" height="57" filterUnits="userSpaceOnUse" color-interpolation-filters="sRGB">
<feFlood flood-opacity="0" result="BackgroundImageFix"/>
<feBlend mode="normal" in="SourceGraphic" in2="BackgroundImageFix" result="shape"/>
<feColorMatrix in="SourceAlpha" type="matrix" values="0 0 0 0 0 0 0 0 0 0 0 0 0 0 0 0 0 0 127 0" result="hardAlpha"/>
<feOffset dy="-11"/>
<feGaussianBlur stdDeviation="10"/>
<feComposite in2="hardAlpha" operator="arithmetic" k2="-1" k3="1"/>
<feColorMatrix type="matrix" values="0 0 0 0 0 0 0 0 0 0.337255 0 0 0 0 0.811765 0 0 0 0.05 0"/>
<feBlend mode="normal" in2="shape" result="effect1_innerShadow_2274_7618"/>
</filter>
</defs>
</svg>
