<svg width="362" height="159" viewBox="0 0 362 159" fill="none" xmlns="http://www.w3.org/2000/svg">
<path d="M65.776 47.792L63.64 44.432V50H61.888V41.6H63.772L66.304 45.596L68.824 41.6H70.66V50H68.908V44.408L66.76 47.792H65.776ZM76.8989 50.156C74.7989 50.156 73.5269 48.788 73.5269 46.664V41.6H75.3509V46.568C75.3509 47.696 75.9029 48.404 76.8989 48.404C77.8949 48.404 78.4469 47.696 78.4469 46.568V41.6H80.2709V46.664C80.2709 48.788 78.9989 50.156 76.8989 50.156ZM83.1435 41.6H84.9435V48.308H87.8715V50H83.1435V41.6ZM88.6051 43.28V41.6H94.8451V43.28H92.6371V50H90.8251V43.28H88.6051ZM97.145 41.6H98.957V50H97.145V41.6ZM105.932 41.6H107.732V48.308H110.66V50H105.932V41.6ZM113.003 50V41.6H117.947V43.232H114.803V44.936H117.671V46.52H114.803V48.368H117.971V50H113.003ZM124.63 50H123.142L119.914 41.6H121.846L123.922 47.252L125.998 41.6H127.87L124.63 50ZM130.028 50V41.6H134.972V43.232H131.828V44.936H134.696V46.52H131.828V48.368H134.996V50H130.028ZM137.638 41.6H139.438V48.308H142.366V50H137.638V41.6ZM148.458 49.436V47.3C149.262 48.044 150.426 48.464 151.326 48.464C152.142 48.464 152.598 48.14 152.598 47.552C152.598 46.868 151.758 46.724 150.822 46.472C149.67 46.172 148.362 45.74 148.362 44.096C148.362 42.488 149.658 41.444 151.482 41.444C152.478 41.444 153.33 41.672 154.074 42.14V44.144C153.294 43.472 152.394 43.112 151.494 43.112C150.606 43.112 150.222 43.484 150.222 43.988C150.222 44.54 150.93 44.72 151.746 44.936C152.958 45.248 154.47 45.656 154.47 47.42C154.47 49.028 153.282 50.156 151.362 50.156C150.318 50.156 149.214 49.904 148.458 49.436ZM156.894 50V41.6H161.838V43.232H158.694V44.936H161.562V46.52H158.694V48.368H161.862V50H156.894ZM164.504 41.6H166.304V48.308H169.232V50H164.504V41.6ZM171.576 50V41.6H176.52V43.232H173.376V44.936H176.244V46.52H173.376V48.368H176.544V50H171.576ZM178.672 45.8C178.672 43.34 180.592 41.444 183.016 41.444C183.748 41.444 184.492 41.636 185.152 42.008V43.952C184.516 43.472 183.856 43.208 183.076 43.208C181.612 43.208 180.532 44.348 180.532 45.8C180.532 47.228 181.564 48.38 183.076 48.38C183.844 48.38 184.504 48.128 185.164 47.66V49.592C184.432 50 183.664 50.156 182.992 50.156C180.448 50.156 178.672 48.296 178.672 45.8ZM187.272 43.28V41.6H193.512V43.28H191.304V50H189.492V43.28H187.272Z" fill="#617290"/>
<g filter="url(#filter0_d_2274_7613)">
<path d="M61 69C61 65.6863 63.6863 63 67 63H295C298.314 63 301 65.6863 301 69V99C301 102.314 298.314 105 295 105H67C63.6863 105 61 102.314 61 99V69Z" fill="white"/>
<path d="M67 63.5H295C298.038 63.5 300.5 65.9624 300.5 69V99C300.5 102.038 298.038 104.5 295 104.5H67C63.9624 104.5 61.5 102.038 61.5 99V69L61.5068 68.7168C61.6542 65.8108 64.0574 63.5 67 63.5Z" stroke="#828EA7"/>
<g opacity="0.55">
<path d="M78.8525 88.0545V86.4115C79.7515 87.2175 80.976 87.853 82.247 87.853C83.363 87.853 84.603 87.326 84.603 86.024C84.603 84.7995 83.4715 84.4585 82.2315 84.133C80.635 83.73 78.837 83.2185 78.837 81.0175C78.837 79.049 80.5575 77.964 82.371 77.964C83.611 77.964 84.665 78.336 85.6105 79.018V80.6145C84.727 79.8395 83.642 79.266 82.371 79.266C81.379 79.266 80.232 79.824 80.232 80.94C80.232 82.242 81.4875 82.583 82.836 82.9395C84.355 83.3425 85.998 83.978 85.998 85.9465C85.998 88.0545 84.169 89.1705 82.2625 89.1705C81.038 89.1705 79.8135 88.7985 78.8525 88.0545ZM86.7893 82.49L89.3778 79.7H89.4243V81.467H91.5323V82.6605H89.4243V86.644C89.4243 87.5275 89.8118 87.9305 90.6798 87.9305C90.9743 87.9305 91.2998 87.853 91.5323 87.698V88.938C91.2688 89.0775 90.8813 89.1705 90.3698 89.1705C88.9438 89.1705 88.0913 88.287 88.0913 86.83V82.6605H86.7893V82.49ZM97.6966 84.2105V84.0245C97.6966 83.079 97.0301 82.5055 95.9141 82.5055C94.8911 82.5055 94.1316 82.924 93.3566 83.637V82.242C94.0386 81.684 94.8601 81.2965 95.9451 81.2965C97.8826 81.2965 98.9986 82.366 98.9986 84.1175V89H97.7431V88.008C97.1541 88.7675 96.2396 89.1705 95.2476 89.1705C93.9146 89.1705 92.9691 88.256 92.9691 87.016C92.9691 85.6675 93.8216 84.8615 95.4801 84.5825L97.6966 84.2105ZM94.3021 86.9385C94.3021 87.574 94.7981 87.9925 95.4956 87.9925C96.7821 87.9925 97.7121 87.1555 97.7121 85.993V85.3575L95.6971 85.714C94.7981 85.8845 94.3021 86.2875 94.3021 86.9385ZM105.336 81.374V82.707C105.336 82.707 105.196 82.676 104.964 82.676C103.569 82.676 102.716 83.792 102.716 85.4195V89H101.399V81.467H102.701V82.8C103.042 81.932 104.018 81.343 105.01 81.343C105.196 81.343 105.336 81.374 105.336 81.374ZM106.269 82.49L108.857 79.7H108.904V81.467H111.012V82.6605H108.904V86.644C108.904 87.5275 109.291 87.9305 110.159 87.9305C110.454 87.9305 110.779 87.853 111.012 87.698V88.938C110.748 89.0775 110.361 89.1705 109.849 89.1705C108.423 89.1705 107.571 88.287 107.571 86.83V82.6605H106.269V82.49ZM115.678 82.49L118.267 79.7H118.313V81.467H120.421V82.6605H118.313V86.644C118.313 87.5275 118.701 87.9305 119.569 87.9305C119.863 87.9305 120.189 87.853 120.421 87.698V88.938C120.158 89.0775 119.77 89.1705 119.259 89.1705C117.833 89.1705 116.98 88.287 116.98 86.83V82.6605H115.678V82.49ZM128.829 81.467L125.202 90.147C124.52 91.7745 123.854 92.41 122.722 92.41C122.397 92.41 122.118 92.348 121.901 92.255V91.077C122.071 91.139 122.335 91.201 122.614 91.201C123.218 91.201 123.575 90.8445 123.978 89.8835L124.427 88.7985L121.436 81.467H122.862L125.125 87.2795L127.45 81.467H128.829ZM131.711 92.224H130.393V81.467H131.711V82.6605C132.253 81.839 133.276 81.2965 134.377 81.2965C136.516 81.2965 138.159 83.0015 138.159 85.2335C138.159 87.45 136.516 89.1705 134.377 89.1705C133.276 89.1705 132.269 88.69 131.711 87.8685V92.224ZM136.81 85.2335C136.81 83.7145 135.694 82.521 134.222 82.521C132.749 82.521 131.633 83.7145 131.633 85.2335C131.633 86.7525 132.749 87.946 134.222 87.946C135.694 87.946 136.81 86.7525 136.81 85.2335ZM141.712 79.235C141.712 79.731 141.309 80.134 140.813 80.134C140.317 80.134 139.914 79.731 139.914 79.235C139.914 78.739 140.317 78.336 140.813 78.336C141.309 78.336 141.712 78.739 141.712 79.235ZM140.146 81.467H141.479V89H140.146V81.467ZM145.344 85.063V89H144.011V81.467H145.344V82.552C145.809 81.808 146.615 81.2965 147.746 81.2965C149.668 81.2965 150.784 82.583 150.784 84.5825V89H149.451V84.7375C149.451 83.389 148.754 82.5365 147.467 82.5365C146.181 82.5365 145.344 83.5285 145.344 85.063ZM152.909 84.071C152.909 82.428 154.257 81.2965 155.823 81.2965C156.179 81.2965 156.52 81.3585 156.846 81.467H159.434V82.614H158.318C158.582 83.0325 158.737 83.5285 158.737 84.071C158.737 85.7295 157.388 86.83 155.823 86.83C155.358 86.83 154.924 86.737 154.521 86.5665C154.009 86.7215 153.854 87.016 153.854 87.295C153.854 87.7445 154.257 87.915 154.862 87.915H156.954C158.566 87.915 159.589 88.597 159.589 89.837C159.589 91.5885 157.729 92.41 155.699 92.41C153.761 92.41 152.335 91.79 152.335 90.2865C152.335 89.5735 152.816 89 153.296 88.69C152.878 88.3955 152.692 87.9615 152.692 87.481C152.692 86.644 153.203 86.241 153.653 85.962C153.188 85.497 152.909 84.846 152.909 84.071ZM158.349 89.961C158.349 89.31 157.776 89.093 156.644 89.093H154.784C154.598 89.093 154.443 89.0775 154.288 89.062C153.823 89.31 153.56 89.682 153.56 90.1315C153.56 90.9995 154.521 91.356 155.73 91.356C157.249 91.356 158.349 90.86 158.349 89.961ZM154.133 84.071C154.133 85.063 154.877 85.7295 155.823 85.7295C156.768 85.7295 157.512 85.063 157.512 84.071C157.512 83.11 156.768 82.4125 155.823 82.4125C154.877 82.4125 154.133 83.11 154.133 84.071ZM162.964 88.194C162.964 88.721 162.546 89.1395 162.019 89.1395C161.492 89.1395 161.073 88.721 161.073 88.194C161.073 87.6825 161.492 87.264 162.019 87.264C162.546 87.264 162.964 87.6825 162.964 88.194ZM166.92 88.194C166.92 88.721 166.501 89.1395 165.974 89.1395C165.447 89.1395 165.029 88.721 165.029 88.194C165.029 87.6825 165.447 87.264 165.974 87.264C166.501 87.264 166.92 87.6825 166.92 88.194ZM170.875 88.194C170.875 88.721 170.456 89.1395 169.929 89.1395C169.402 89.1395 168.984 88.721 168.984 88.194C168.984 87.6825 169.402 87.264 169.929 87.264C170.456 87.264 170.875 87.6825 170.875 88.194Z" fill="#242B42"/>
</g>
<path d="M277.102 87.8984L272.602 83.3984C272.367 83.1875 272.367 82.8359 272.602 82.6016C272.812 82.3906 273.164 82.3906 273.398 82.6016L277.5 86.7266L281.602 82.625C281.812 82.3906 282.164 82.3906 282.398 82.625C282.609 82.8359 282.609 83.1875 282.398 83.3984L277.875 87.8984C277.664 88.1328 277.312 88.1328 277.102 87.8984Z" fill="#242B42"/>
</g>
<defs>
<filter id="filter0_d_2274_7613" x="33" y="47" width="296" height="98" filterUnits="userSpaceOnUse" color-interpolation-filters="sRGB">
<feFlood flood-opacity="0" result="BackgroundImageFix"/>
<feColorMatrix in="SourceAlpha" type="matrix" values="0 0 0 0 0 0 0 0 0 0 0 0 0 0 0 0 0 0 127 0" result="hardAlpha"/>
<feOffset dy="12"/>
<feGaussianBlur stdDeviation="14"/>
<feColorMatrix type="matrix" values="0 0 0 0 0.235294 0 0 0 0 0.415686 0 0 0 0 0.67451 0 0 0 0.18 0"/>
<feBlend mode="normal" in2="BackgroundImageFix" result="effect1_dropShadow_2274_7613"/>
<feBlend mode="normal" in="SourceGraphic" in2="effect1_dropShadow_2274_7613" result="shape"/>
</filter>
</defs>
</svg>
