<svg width="362" height="159" viewBox="0 0 362 159" fill="none" xmlns="http://www.w3.org/2000/svg">
<rect x="126" y="69.2002" width="20" height="20" rx="10" fill="white" stroke="#828EA7" stroke-width="2"/>
<path d="M157.775 79.5967V84.2002H156.395V73.3502H159.573C161.619 73.3502 163.06 74.4817 163.06 76.4812C163.06 78.1552 161.944 79.2557 160.363 79.5347L163.773 84.2002H162.146L158.829 79.5967H157.775ZM157.775 74.6212V78.3722H159.557C160.797 78.3722 161.665 77.6747 161.665 76.4812C161.665 75.2722 160.797 74.6212 159.557 74.6212H157.775ZM169.742 79.4107V79.2247C169.742 78.2792 169.076 77.7057 167.96 77.7057C166.937 77.7057 166.177 78.1242 165.402 78.8372V77.4422C166.084 76.8842 166.906 76.4967 167.991 76.4967C169.928 76.4967 171.044 77.5662 171.044 79.3177V84.2002H169.789V83.2082C169.2 83.9677 168.285 84.3707 167.293 84.3707C165.96 84.3707 165.015 83.4562 165.015 82.2162C165.015 80.8677 165.867 80.0617 167.526 79.7827L169.742 79.4107ZM166.348 82.1387C166.348 82.7742 166.844 83.1927 167.541 83.1927C168.828 83.1927 169.758 82.3557 169.758 81.1932V80.5577L167.743 80.9142C166.844 81.0847 166.348 81.4877 166.348 82.1387ZM179.35 73.3502H180.667V84.2002H179.35V83.0067C178.807 83.8282 177.784 84.3707 176.684 84.3707C174.545 84.3707 172.902 82.6657 172.902 80.4337C172.902 78.2172 174.545 76.4967 176.684 76.4967C177.784 76.4967 178.792 76.9772 179.35 77.7987V73.3502ZM179.427 80.4337C179.427 78.9147 178.311 77.7212 176.839 77.7212C175.366 77.7212 174.25 78.9147 174.25 80.4337C174.25 81.9527 175.366 83.1462 176.839 83.1462C178.311 83.1462 179.427 81.9527 179.427 80.4337ZM184.763 74.4352C184.763 74.9312 184.36 75.3342 183.864 75.3342C183.368 75.3342 182.965 74.9312 182.965 74.4352C182.965 73.9392 183.368 73.5362 183.864 73.5362C184.36 73.5362 184.763 73.9392 184.763 74.4352ZM183.197 76.6672H184.53V84.2002H183.197V76.6672ZM190.456 76.4967C192.719 76.4967 194.393 78.2482 194.393 80.4337C194.393 82.6192 192.719 84.3707 190.456 84.3707C188.193 84.3707 186.519 82.6192 186.519 80.4337C186.519 78.2482 188.193 76.4967 190.456 76.4967ZM190.456 77.7212C188.984 77.7212 187.868 78.9302 187.868 80.4337C187.868 81.9372 188.984 83.1462 190.456 83.1462C191.929 83.1462 193.045 81.9372 193.045 80.4337C193.045 78.9302 191.929 77.7212 190.456 77.7212ZM200.38 73.3502H201.759V82.9137H205.634V84.2002H200.38V73.3502ZM211.577 79.4107V79.2247C211.577 78.2792 210.911 77.7057 209.795 77.7057C208.772 77.7057 208.012 78.1242 207.237 78.8372V77.4422C207.919 76.8842 208.741 76.4967 209.826 76.4967C211.763 76.4967 212.879 77.5662 212.879 79.3177V84.2002H211.624V83.2082C211.035 83.9677 210.12 84.3707 209.128 84.3707C207.795 84.3707 206.85 83.4562 206.85 82.2162C206.85 80.8677 207.702 80.0617 209.361 79.7827L211.577 79.4107ZM208.183 82.1387C208.183 82.7742 208.679 83.1927 209.376 83.1927C210.663 83.1927 211.593 82.3557 211.593 81.1932V80.5577L209.578 80.9142C208.679 81.0847 208.183 81.4877 208.183 82.1387ZM216.597 84.2002H215.28V73.3502H216.597V77.8607C217.14 77.0392 218.163 76.4967 219.263 76.4967C221.402 76.4967 223.045 78.2017 223.045 80.4337C223.045 82.6502 221.402 84.3707 219.263 84.3707C218.163 84.3707 217.155 83.8902 216.597 83.0687V84.2002ZM221.697 80.4337C221.697 78.9147 220.581 77.7212 219.108 77.7212C217.636 77.7212 216.52 78.9147 216.52 80.4337C216.52 81.9527 217.636 83.1462 219.108 83.1462C220.581 83.1462 221.697 81.9527 221.697 80.4337ZM231.432 81.9682V83.4097C230.595 84.0142 229.572 84.3707 228.518 84.3707C226.115 84.3707 224.565 82.6502 224.565 80.4337C224.565 78.1862 226.115 76.4967 228.285 76.4967C230.393 76.4967 231.835 78.2327 231.835 80.3717C231.835 80.6662 231.804 80.8522 231.804 80.8522H225.898C226.007 82.1077 227.045 83.1617 228.611 83.1617C229.572 83.1617 230.502 82.7742 231.432 81.9682ZM225.929 79.7517H230.486C230.378 78.5582 229.494 77.6592 228.254 77.6592C226.999 77.6592 226.022 78.7287 225.929 79.7517ZM233.74 73.3502H235.073V84.2002H233.74V73.3502Z" fill="#242B42"/>
</svg>
