<svg width="362" height="159" viewBox="0 0 362 159" fill="none" xmlns="http://www.w3.org/2000/svg">
<path d="M61.636 48.436V46.3C62.44 47.044 63.604 47.464 64.504 47.464C65.32 47.464 65.776 47.14 65.776 46.552C65.776 45.868 64.936 45.724 64 45.472C62.848 45.172 61.54 44.74 61.54 43.096C61.54 41.488 62.836 40.444 64.66 40.444C65.656 40.444 66.508 40.672 67.252 41.14V43.144C66.472 42.472 65.572 42.112 64.672 42.112C63.784 42.112 63.4 42.484 63.4 42.988C63.4 43.54 64.108 43.72 64.924 43.936C66.136 44.248 67.648 44.656 67.648 46.42C67.648 48.028 66.46 49.156 64.54 49.156C63.496 49.156 62.392 48.904 61.636 48.436ZM70.0724 49V40.6H75.0164V42.232H71.8724V43.936H74.7404V45.52H71.8724V47.368H75.0404V49H70.0724ZM77.6825 40.6H79.4825V47.308H82.4105V49H77.6825V40.6ZM84.7536 49V40.6H89.6976V42.232H86.5536V43.936H89.4216V45.52H86.5536V47.368H89.7216V49H84.7536ZM91.8506 44.8C91.8506 42.34 93.7706 40.444 96.1946 40.444C96.9266 40.444 97.6706 40.636 98.3306 41.008V42.952C97.6946 42.472 97.0346 42.208 96.2546 42.208C94.7906 42.208 93.7106 43.348 93.7106 44.8C93.7106 46.228 94.7426 47.38 96.2546 47.38C97.0226 47.38 97.6826 47.128 98.3426 46.66V48.592C97.6106 49 96.8426 49.156 96.1706 49.156C93.6266 49.156 91.8506 47.296 91.8506 44.8ZM100.45 42.28V40.6H106.69V42.28H104.482V49H102.67V42.28H100.45Z" fill="#617290"/>
<g filter="url(#filter0_d_2274_7617)">
<rect x="61" y="62" width="240" height="45" rx="6" fill="white"/>
<rect x="61.5" y="62.5" width="239" height="44" rx="5.5" stroke="#828EA7"/>
<path opacity="0.8" d="M77.8525 88.5545V86.9115C78.7515 87.7175 79.976 88.353 81.247 88.353C82.363 88.353 83.603 87.826 83.603 86.524C83.603 85.2995 82.4715 84.9585 81.2315 84.633C79.635 84.23 77.837 83.7185 77.837 81.5175C77.837 79.549 79.5575 78.464 81.371 78.464C82.611 78.464 83.665 78.836 84.6105 79.518V81.1145C83.727 80.3395 82.642 79.766 81.371 79.766C80.379 79.766 79.232 80.324 79.232 81.44C79.232 82.742 80.4875 83.083 81.836 83.4395C83.355 83.8425 84.998 84.478 84.998 86.4465C84.998 88.5545 83.169 89.6705 81.2625 89.6705C80.038 89.6705 78.8135 89.2985 77.8525 88.5545ZM93.3479 87.268V88.7095C92.5109 89.314 91.4879 89.6705 90.4339 89.6705C88.0314 89.6705 86.4814 87.95 86.4814 85.7335C86.4814 83.486 88.0314 81.7965 90.2014 81.7965C92.3094 81.7965 93.7509 83.5325 93.7509 85.6715C93.7509 85.966 93.7199 86.152 93.7199 86.152H87.8144C87.9229 87.4075 88.9614 88.4615 90.5269 88.4615C91.4879 88.4615 92.4179 88.074 93.3479 87.268ZM87.8454 85.0515H92.4024C92.2939 83.858 91.4104 82.959 90.1704 82.959C88.9149 82.959 87.9384 84.0285 87.8454 85.0515ZM95.6564 78.65H96.9894V89.5H95.6564V78.65ZM105.845 87.268V88.7095C105.008 89.314 103.985 89.6705 102.931 89.6705C100.528 89.6705 98.9784 87.95 98.9784 85.7335C98.9784 83.486 100.528 81.7965 102.698 81.7965C104.806 81.7965 106.248 83.5325 106.248 85.6715C106.248 85.966 106.217 86.152 106.217 86.152H100.311C100.42 87.4075 101.458 88.4615 103.024 88.4615C103.985 88.4615 104.915 88.074 105.845 87.268ZM100.342 85.0515H104.899C104.791 83.858 103.907 82.959 102.667 82.959C101.412 82.959 100.435 84.0285 100.342 85.0515ZM107.687 85.7335C107.687 83.5325 109.314 81.7965 111.624 81.7965C112.414 81.7965 113.143 82.029 113.763 82.4475V83.796C113.096 83.2845 112.414 83.0365 111.686 83.0365C110.151 83.0365 109.035 84.2145 109.035 85.7335C109.035 87.237 110.151 88.4305 111.686 88.4305C112.476 88.4305 113.205 88.074 113.809 87.6865V89.035C113.158 89.438 112.414 89.6705 111.639 89.6705C109.268 89.6705 107.687 87.95 107.687 85.7335ZM114.931 82.99L117.519 80.2H117.566V81.967H119.674V83.1605H117.566V87.144C117.566 88.0275 117.953 88.4305 118.821 88.4305C119.116 88.4305 119.441 88.353 119.674 88.198V89.438C119.41 89.5775 119.023 89.6705 118.511 89.6705C117.085 89.6705 116.233 88.787 116.233 87.33V83.1605H114.931V82.99ZM123.459 88.694C123.459 89.221 123.041 89.6395 122.514 89.6395C121.987 89.6395 121.568 89.221 121.568 88.694C121.568 88.1825 121.987 87.764 122.514 87.764C123.041 87.764 123.459 88.1825 123.459 88.694ZM127.415 88.694C127.415 89.221 126.996 89.6395 126.469 89.6395C125.942 89.6395 125.524 89.221 125.524 88.694C125.524 88.1825 125.942 87.764 126.469 87.764C126.996 87.764 127.415 88.1825 127.415 88.694ZM131.37 88.694C131.37 89.221 130.951 89.6395 130.424 89.6395C129.897 89.6395 129.479 89.221 129.479 88.694C129.479 88.1825 129.897 87.764 130.424 87.764C130.951 87.764 131.37 88.1825 131.37 88.694Z" fill="#242B42"/>
<path d="M272.468 89.0312L266.468 83.0312C266.155 82.75 266.155 82.2812 266.468 81.9688C266.749 81.6875 267.218 81.6875 267.53 81.9688L272.999 87.4688L278.468 82C278.749 81.6875 279.218 81.6875 279.53 82C279.812 82.2812 279.812 82.75 279.53 83.0312L273.499 89.0312C273.218 89.3438 272.749 89.3438 272.468 89.0312Z" fill="#242B42"/>
</g>
<defs>
<filter id="filter0_d_2274_7617" x="33" y="46" width="296" height="101" filterUnits="userSpaceOnUse" color-interpolation-filters="sRGB">
<feFlood flood-opacity="0" result="BackgroundImageFix"/>
<feColorMatrix in="SourceAlpha" type="matrix" values="0 0 0 0 0 0 0 0 0 0 0 0 0 0 0 0 0 0 127 0" result="hardAlpha"/>
<feOffset dy="12"/>
<feGaussianBlur stdDeviation="14"/>
<feColorMatrix type="matrix" values="0 0 0 0 0.235294 0 0 0 0 0.415686 0 0 0 0 0.67451 0 0 0 0.18 0"/>
<feBlend mode="normal" in2="BackgroundImageFix" result="effect1_dropShadow_2274_7617"/>
<feBlend mode="normal" in="SourceGraphic" in2="effect1_dropShadow_2274_7617" result="shape"/>
</filter>
</defs>
</svg>
