<svg width="362" height="159" viewBox="0 0 362 159" fill="none" xmlns="http://www.w3.org/2000/svg">
<g clip-path="url(#clip0_2274_14184)">
<g filter="url(#filter0_d_2274_14184)">
<rect x="102.422" y="18.6885" width="157.321" height="120.354" rx="5.23922" fill="white"/>
<mask id="path-2-inside-1_2274_14184" fill="white">
<path d="M112.216 28.4824H249.948V62.071H112.216V28.4824Z"/>
</mask>
<path d="M249.948 62.071V61.4588H112.216V62.071V62.6831H249.948V62.071Z" fill="#828EA7" mask="url(#path-2-inside-1_2274_14184)"/>
<rect x="117.725" y="39.1551" width="12.2429" height="12.2429" rx="1.83643" fill="#0056CF" stroke="#0056CF" stroke-width="1.22429"/>
<g clip-path="url(#clip1_2274_14184)">
<path fill-rule="evenodd" clip-rule="evenodd" d="M119.523 44.68C119.702 44.5011 119.993 44.5017 120.172 44.6814L122.68 47.201L127.523 42.38C127.703 42.2011 127.993 42.2017 128.172 42.3814C128.351 42.5611 128.35 42.8518 128.171 43.0307L123.111 48.0677C122.872 48.3062 122.484 48.3054 122.246 48.0658L119.521 45.3293C119.342 45.1496 119.343 44.8589 119.523 44.68Z" fill="white"/>
</g>
<path d="M136.331 41.6346H137.176V48.2764H136.331V41.6346ZM138.199 44.2913L139.783 42.5834H139.812V43.6651H141.102V44.3957H139.812V46.8342C139.812 47.375 140.049 47.6217 140.58 47.6217C140.76 47.6217 140.96 47.5742 141.102 47.4794V48.2384C140.941 48.3238 140.703 48.3807 140.39 48.3807C139.517 48.3807 138.996 47.8399 138.996 46.948V44.3957H138.199V44.2913ZM146.044 46.9101V47.7925C145.531 48.1625 144.905 48.3807 144.26 48.3807C142.789 48.3807 141.84 47.3275 141.84 45.9707C141.84 44.5949 142.789 43.5607 144.117 43.5607C145.408 43.5607 146.29 44.6234 146.29 45.9328C146.29 46.1131 146.271 46.2269 146.271 46.2269H142.656C142.723 46.9955 143.358 47.6407 144.317 47.6407C144.905 47.6407 145.474 47.4035 146.044 46.9101ZM142.675 45.5533H145.465C145.398 44.8227 144.858 44.2723 144.098 44.2723C143.33 44.2723 142.732 44.927 142.675 45.5533ZM148.273 45.8569V48.2764H147.457V43.6651H148.263V44.3293C148.519 43.8549 148.984 43.5607 149.62 43.5607C150.303 43.5607 150.797 43.9023 151.072 44.4621C151.299 44.0731 151.774 43.5607 152.647 43.5607C153.709 43.5607 154.345 44.3103 154.345 45.4963V48.2764H153.529V45.6386C153.529 44.8227 153.178 44.3103 152.485 44.3103C151.774 44.3103 151.309 44.9175 151.309 45.8569V48.2764H150.493V45.6576C150.493 44.8321 150.132 44.3103 149.449 44.3103C148.738 44.3103 148.273 44.9175 148.273 45.8569ZM159.796 48.2764H158.961V42.6973L157.784 43.1812V42.3273L159.113 41.758H159.796V48.2764Z" fill="#242B42"/>
<mask id="path-7-inside-2_2274_14184" fill="white">
<path d="M112.216 62.0713H249.948V95.6599H112.216V62.0713Z"/>
</mask>
<path d="M249.948 95.6599V95.0477H112.216V95.6599V96.272H249.948V95.6599Z" fill="#828EA7" mask="url(#path-7-inside-2_2274_14184)"/>
<rect x="117.725" y="72.744" width="12.2429" height="12.2429" rx="1.83643" stroke="#828EA7" stroke-width="1.22429"/>
<path d="M136.331 75.2235H137.176V81.8652H136.331V75.2235ZM138.199 77.8802L139.783 76.1723H139.812V77.254H141.102V77.9846H139.812V80.423C139.812 80.9639 140.049 81.2105 140.58 81.2105C140.76 81.2105 140.96 81.1631 141.102 81.0682V81.8273C140.941 81.9127 140.703 81.9696 140.39 81.9696C139.517 81.9696 138.996 81.4288 138.996 80.5369V77.9846H138.199V77.8802ZM146.044 80.4989V81.3813C145.531 81.7514 144.905 81.9696 144.26 81.9696C142.789 81.9696 141.84 80.9164 141.84 79.5596C141.84 78.1838 142.789 77.1496 144.117 77.1496C145.408 77.1496 146.29 78.2123 146.29 79.5216C146.29 79.7019 146.271 79.8158 146.271 79.8158H142.656C142.723 80.5843 143.358 81.2295 144.317 81.2295C144.905 81.2295 145.474 80.9923 146.044 80.4989ZM142.675 79.1421H145.465C145.398 78.4115 144.858 77.8612 144.098 77.8612C143.33 77.8612 142.732 78.5159 142.675 79.1421ZM148.273 79.4457V81.8652H147.457V77.254H148.263V77.9181C148.519 77.4437 148.984 77.1496 149.62 77.1496C150.303 77.1496 150.797 77.4912 151.072 78.051C151.299 77.662 151.774 77.1496 152.647 77.1496C153.709 77.1496 154.345 77.8992 154.345 79.0852V81.8652H153.529V79.2275C153.529 78.4115 153.178 77.8992 152.485 77.8992C151.774 77.8992 151.309 78.5064 151.309 79.4457V81.8652H150.493V79.2465C150.493 78.421 150.132 77.8992 149.449 77.8992C148.738 77.8992 148.273 78.5064 148.273 79.4457ZM157.813 81.8652V81.2865L160.242 78.7151C160.802 78.1269 160.972 77.7189 160.972 77.216C160.972 76.5423 160.384 76.03 159.625 76.03C159.027 76.03 158.411 76.4285 157.889 77.0737V76.0774C158.344 75.5651 159.018 75.2425 159.635 75.2425C160.887 75.2425 161.807 76.049 161.807 77.1781C161.807 77.9561 161.504 78.5254 160.802 79.2655L159.065 81.0872H161.893V81.8652H157.813Z" fill="#242B42"/>
<rect x="117.725" y="106.332" width="12.2429" height="12.2429" rx="1.83643" stroke="#828EA7" stroke-width="1.22429"/>
<path d="M136.331 108.811H137.176V115.453H136.331V108.811ZM138.199 111.468L139.783 109.76H139.812V110.842H141.102V111.572H139.812V114.011C139.812 114.552 140.049 114.798 140.58 114.798C140.76 114.798 140.96 114.751 141.102 114.656V115.415C140.941 115.501 140.703 115.557 140.39 115.557C139.517 115.557 138.996 115.017 138.996 114.125V111.572H138.199V111.468ZM146.044 114.087V114.969C145.531 115.339 144.905 115.557 144.26 115.557C142.789 115.557 141.84 114.504 141.84 113.147C141.84 111.772 142.789 110.737 144.117 110.737C145.408 110.737 146.29 111.8 146.29 113.11C146.29 113.29 146.271 113.404 146.271 113.404H142.656C142.723 114.172 143.358 114.817 144.317 114.817C144.905 114.817 145.474 114.58 146.044 114.087ZM142.675 112.73H145.465C145.398 111.999 144.858 111.449 144.098 111.449C143.33 111.449 142.732 112.104 142.675 112.73ZM148.273 113.034V115.453H147.457V110.842H148.263V111.506C148.519 111.032 148.984 110.737 149.62 110.737C150.303 110.737 150.797 111.079 151.072 111.639C151.299 111.25 151.774 110.737 152.647 110.737C153.709 110.737 154.345 111.487 154.345 112.673V115.453H153.529V112.815C153.529 111.999 153.178 111.487 152.485 111.487C151.774 111.487 151.309 112.094 151.309 113.034V115.453H150.493V112.834C150.493 112.009 150.132 111.487 149.449 111.487C148.738 111.487 148.273 112.094 148.273 113.034ZM159.616 114.77C160.422 114.77 161.048 114.286 161.048 113.574C161.048 112.882 160.432 112.407 159.644 112.407H159.027V111.648H159.644C160.242 111.648 160.792 111.174 160.792 110.633C160.792 110.045 160.27 109.608 159.597 109.608C159.046 109.608 158.534 109.865 158.012 110.32V109.39C158.486 109.03 159.046 108.83 159.606 108.83C160.783 108.83 161.618 109.57 161.618 110.557C161.618 111.174 161.286 111.705 160.707 111.98C161.428 112.218 161.893 112.844 161.893 113.584C161.893 114.742 160.925 115.557 159.625 115.557C158.999 115.557 158.411 115.396 157.841 115.045V114.134C158.42 114.561 159.008 114.77 159.616 114.77Z" fill="#242B42"/>
</g>
</g>
<defs>
<filter id="filter0_d_2274_14184" x="77.9722" y="4.71722" width="206.22" height="169.254" filterUnits="userSpaceOnUse" color-interpolation-filters="sRGB">
<feFlood flood-opacity="0" result="BackgroundImageFix"/>
<feColorMatrix in="SourceAlpha" type="matrix" values="0 0 0 0 0 0 0 0 0 0 0 0 0 0 0 0 0 0 127 0" result="hardAlpha"/>
<feOffset dy="10.4784"/>
<feGaussianBlur stdDeviation="12.2248"/>
<feColorMatrix type="matrix" values="0 0 0 0 0.235294 0 0 0 0 0.415686 0 0 0 0 0.67451 0 0 0 0.18 0"/>
<feBlend mode="normal" in2="BackgroundImageFix" result="effect1_dropShadow_2274_14184"/>
<feBlend mode="normal" in="SourceGraphic" in2="effect1_dropShadow_2274_14184" result="shape"/>
</filter>
<clipPath id="clip0_2274_14184">
<rect width="362" height="158.375" fill="white"/>
</clipPath>
<clipPath id="clip1_2274_14184">
<rect width="12.2429" height="9.79428" fill="white" transform="translate(117.726 40.3799)"/>
</clipPath>
</defs>
</svg>
