<svg width="362" height="159" viewBox="0 0 362 159" fill="none" xmlns="http://www.w3.org/2000/svg">
<path d="M125.5 50.5V53.625C127.188 53.8125 128.75 54.125 129.938 54.375C130.75 54.5625 131.25 55.375 131.062 56.1875C130.875 57 130.062 57.5 129.25 57.3125C127.312 56.875 124.5 56.3125 122.125 56.5625C120.938 56.625 120 56.875 119.312 57.3125C118.688 57.75 118.25 58.3125 118.062 59.25C117.875 59.9375 118 60.4375 118.188 60.75C118.312 61.125 118.688 61.4375 119.25 61.8125C120.438 62.5625 122.25 63 124.312 63.5625L124.5 63.625C126.438 64.125 128.625 64.6875 130.312 65.6875C131.188 66.1875 131.938 66.9375 132.438 67.9375C133 68.9375 133.062 70.125 132.875 71.375C132.438 73.625 130.812 75.0625 128.812 75.8125C127.812 76.1875 126.688 76.4375 125.5 76.5V79.5C125.5 80.375 124.812 81 124 81C123.125 81 122.5 80.375 122.5 79.5V76.4375C122.25 76.375 122.062 76.375 121.875 76.3125C120.312 76.125 117.562 75.5 115.875 74.75C115.125 74.375 114.75 73.5 115.125 72.75C115.438 72 116.312 71.6875 117.062 72C118.438 72.5625 120.875 73.1875 122.25 73.375C124.5 73.6875 126.375 73.5 127.75 73C129.062 72.5 129.75 71.75 129.875 70.8125C130.062 70.125 129.938 69.625 129.75 69.3125C129.625 68.9375 129.25 68.5625 128.688 68.25C127.5 67.5 125.75 67 123.625 66.5L123.438 66.4375C121.5 65.9375 119.312 65.375 117.625 64.375C116.812 63.8125 116 63.125 115.5 62.125C115 61.0625 114.875 59.9375 115.125 58.6875C115.438 56.875 116.375 55.625 117.688 54.8125C118.938 54 120.438 53.6875 121.875 53.5625C122.062 53.5 122.25 53.5 122.5 53.5V50.5C122.5 49.6875 123.125 49 124 49C124.812 49 125.5 49.6875 125.5 50.5Z" fill="#0056CF"/>
<path d="M95.7563 104.202C93.0438 104.202 91.4008 102.434 91.4008 99.691V93.15H93.7568V99.567C93.7568 101.024 94.4698 101.938 95.7563 101.938C97.0428 101.938 97.7558 101.024 97.7558 99.567V93.15H100.112V99.691C100.112 102.434 98.4688 104.202 95.7563 104.202ZM101.997 103.271V100.512C103.035 101.473 104.539 102.016 105.701 102.016C106.755 102.016 107.344 101.597 107.344 100.838C107.344 99.9545 106.259 99.7685 105.05 99.443C103.562 99.0555 101.873 98.4975 101.873 96.374C101.873 94.297 103.547 92.9485 105.903 92.9485C107.189 92.9485 108.29 93.243 109.251 93.8475V96.436C108.243 95.568 107.081 95.103 105.918 95.103C104.771 95.103 104.275 95.5835 104.275 96.2345C104.275 96.9475 105.19 97.18 106.244 97.459C107.809 97.862 109.762 98.389 109.762 100.667C109.762 102.744 108.228 104.202 105.748 104.202C104.399 104.202 102.973 103.876 101.997 103.271ZM124.253 98.575C124.253 101.628 121.773 104 118.735 104H115.061V93.15H118.735C121.773 93.15 124.253 95.5215 124.253 98.575ZM121.866 98.575C121.866 96.777 120.471 95.3355 118.673 95.3355H117.386V101.814H118.673C120.471 101.814 121.866 100.373 121.866 98.575ZM125.526 100.171C125.526 97.893 127.309 96.1415 129.68 96.1415C132.052 96.1415 133.834 97.893 133.834 100.171C133.834 102.45 132.052 104.202 129.68 104.202C127.309 104.202 125.526 102.45 125.526 100.171ZM127.758 100.171C127.758 101.272 128.626 102.14 129.68 102.14C130.734 102.14 131.602 101.272 131.602 100.171C131.602 99.071 130.734 98.203 129.68 98.203C128.626 98.203 127.758 99.071 127.758 100.171ZM135.426 93.15H137.689V104H135.426V93.15ZM139.729 93.15H141.992V104H139.729V93.15ZM150.481 104H148.388L148.357 103.039C147.908 103.829 147.024 104.202 146.11 104.202C144.684 104.202 143.707 103.302 143.707 101.954C143.707 100.543 144.653 99.6755 146.559 99.3965L148.295 99.1485V99.0555C148.295 98.42 147.784 98.048 146.745 98.048C145.753 98.048 144.87 98.4355 144.172 99.071V96.9165C144.839 96.467 145.8 96.1415 146.978 96.1415C149.194 96.1415 150.481 97.211 150.481 99.195V104ZM145.846 101.768C145.862 102.202 146.218 102.481 146.73 102.481C147.675 102.481 148.295 101.799 148.295 100.931V100.667L146.947 100.884C146.218 100.993 145.846 101.318 145.846 101.768ZM157.274 96.219V98.544C157.15 98.482 156.933 98.451 156.7 98.451C155.445 98.451 154.701 99.381 154.701 100.884V104H152.453V96.343H154.685V97.5985C155.088 96.715 155.894 96.1725 156.886 96.1725C157.057 96.1725 157.227 96.2035 157.274 96.219Z" fill="#0056CF"/>
<path d="M244.688 51.6875L252 62.375L259.25 51.6875C259.688 51 260.625 50.8125 261.312 51.3125C262 51.75 262.188 52.6875 261.688 53.375L255.125 63H259.5C260.312 63 261 63.6875 261 64.5C261 65.375 260.312 66 259.5 66H253.5V69H259.5C260.312 69 261 69.6875 261 70.5C261 71.375 260.312 72 259.5 72H253.5V77.5C253.5 78.375 252.812 79 252 79C251.125 79 250.5 78.375 250.5 77.5V72H244.5C243.625 72 243 71.375 243 70.5C243 69.6875 243.625 69 244.5 69H250.5V66H244.5C243.625 66 243 65.375 243 64.5C243 63.6875 243.625 63 244.5 63H248.812L242.25 53.375C241.75 52.6875 241.938 51.75 242.625 51.3125C243.312 50.8125 244.25 51 244.688 51.6875Z" fill="#C1CDD6"/>
<path d="M244.998 99.288V104H242.658V99.288L238.783 93.15H241.449L243.851 97.118L246.254 93.15H248.873L244.998 99.288ZM255.072 101.442V103.489C254.328 103.922 253.336 104.202 252.127 104.202C249.508 104.202 247.896 102.512 247.896 100.14C247.896 97.8465 249.508 96.1415 251.786 96.1415C254.127 96.1415 255.537 97.7535 255.537 100.125C255.537 100.357 255.506 100.621 255.491 100.807H250.128C250.298 101.69 251.089 102.31 252.375 102.31C253.29 102.31 254.158 102.047 255.072 101.442ZM250.097 99.319H253.367C253.29 98.4665 252.654 97.893 251.771 97.893C250.887 97.893 250.205 98.544 250.097 99.319ZM259.271 99.939V104H257.008V96.343H259.271V97.3195C259.736 96.5755 260.511 96.1415 261.534 96.1415C263.285 96.1415 264.355 97.335 264.355 99.2725V104H262.092V99.7995C262.092 98.792 261.596 98.2185 260.712 98.2185C259.844 98.2185 259.271 98.8695 259.271 99.939Z" fill="#242B42"/>
</svg>
