<svg width="362" height="159" viewBox="0 0 362 159" fill="none" xmlns="http://www.w3.org/2000/svg">
<g filter="url(#filter0_d_2274_14183)">
<rect x="186" y="51" width="127" height="56" rx="6" fill="white"/>
<rect x="186.5" y="51.5" width="126" height="55" rx="5.5" stroke="#828EA7"/>
<path d="M212.285 73.15H213.618V84H212.316L205.728 75.2425V84H204.395V73.15H205.806L212.285 81.799V73.15ZM219.703 76.2965C221.966 76.2965 223.64 78.048 223.64 80.2335C223.64 82.419 221.966 84.1705 219.703 84.1705C217.44 84.1705 215.766 82.419 215.766 80.2335C215.766 78.048 217.44 76.2965 219.703 76.2965ZM219.703 77.521C218.231 77.521 217.115 78.73 217.115 80.2335C217.115 81.737 218.231 82.946 219.703 82.946C221.176 82.946 222.292 81.737 222.292 80.2335C222.292 78.73 221.176 77.521 219.703 77.521ZM224.463 77.49L227.052 74.7H227.098V76.467H229.206V77.6605H227.098V81.644C227.098 82.5275 227.486 82.9305 228.354 82.9305C228.648 82.9305 228.974 82.853 229.206 82.698V83.938C228.943 84.0775 228.555 84.1705 228.044 84.1705C226.618 84.1705 225.765 83.287 225.765 81.83V77.6605H224.463V77.49ZM234.492 83.0545V81.4115C235.391 82.2175 236.616 82.853 237.887 82.853C239.003 82.853 240.243 82.326 240.243 81.024C240.243 79.7995 239.111 79.4585 237.871 79.133C236.275 78.73 234.477 78.2185 234.477 76.0175C234.477 74.049 236.197 72.964 238.011 72.964C239.251 72.964 240.305 73.336 241.25 74.018V75.6145C240.367 74.8395 239.282 74.266 238.011 74.266C237.019 74.266 235.872 74.824 235.872 75.94C235.872 77.242 237.127 77.583 238.476 77.9395C239.995 78.3425 241.638 78.978 241.638 80.9465C241.638 83.0545 239.809 84.1705 237.902 84.1705C236.678 84.1705 235.453 83.7985 234.492 83.0545ZM249.988 81.768V83.2095C249.151 83.814 248.128 84.1705 247.074 84.1705C244.671 84.1705 243.121 82.45 243.121 80.2335C243.121 77.986 244.671 76.2965 246.841 76.2965C248.949 76.2965 250.391 78.0325 250.391 80.1715C250.391 80.466 250.36 80.652 250.36 80.652H244.454C244.563 81.9075 245.601 82.9615 247.167 82.9615C248.128 82.9615 249.058 82.574 249.988 81.768ZM244.485 79.5515H249.042C248.934 78.358 248.05 77.459 246.81 77.459C245.555 77.459 244.578 78.5285 244.485 79.5515ZM252.296 73.15H253.629V84H252.296V73.15ZM262.485 81.768V83.2095C261.648 83.814 260.625 84.1705 259.571 84.1705C257.168 84.1705 255.618 82.45 255.618 80.2335C255.618 77.986 257.168 76.2965 259.338 76.2965C261.446 76.2965 262.888 78.0325 262.888 80.1715C262.888 80.466 262.857 80.652 262.857 80.652H256.951C257.06 81.9075 258.098 82.9615 259.664 82.9615C260.625 82.9615 261.555 82.574 262.485 81.768ZM256.982 79.5515H261.539C261.431 78.358 260.547 77.459 259.307 77.459C258.052 77.459 257.075 78.5285 256.982 79.5515ZM264.327 80.2335C264.327 78.0325 265.954 76.2965 268.264 76.2965C269.054 76.2965 269.783 76.529 270.403 76.9475V78.296C269.736 77.7845 269.054 77.5365 268.326 77.5365C266.791 77.5365 265.675 78.7145 265.675 80.2335C265.675 81.737 266.791 82.9305 268.326 82.9305C269.116 82.9305 269.845 82.574 270.449 82.1865V83.535C269.798 83.938 269.054 84.1705 268.279 84.1705C265.908 84.1705 264.327 82.45 264.327 80.2335ZM271.571 77.49L274.159 74.7H274.206V76.467H276.314V77.6605H274.206V81.644C274.206 82.5275 274.593 82.9305 275.461 82.9305C275.756 82.9305 276.081 82.853 276.314 82.698V83.938C276.05 84.0775 275.663 84.1705 275.151 84.1705C273.725 84.1705 272.873 83.287 272.873 81.83V77.6605H271.571V77.49ZM284.386 81.768V83.2095C283.549 83.814 282.526 84.1705 281.472 84.1705C279.07 84.1705 277.52 82.45 277.52 80.2335C277.52 77.986 279.07 76.2965 281.24 76.2965C283.348 76.2965 284.789 78.0325 284.789 80.1715C284.789 80.466 284.758 80.652 284.758 80.652H278.853C278.961 81.9075 280 82.9615 281.565 82.9615C282.526 82.9615 283.456 82.574 284.386 81.768ZM278.884 79.5515H283.441C283.332 78.358 282.449 77.459 281.209 77.459C279.953 77.459 278.977 78.5285 278.884 79.5515ZM292.676 73.15H293.993V84H292.676V82.8065C292.133 83.628 291.11 84.1705 290.01 84.1705C287.871 84.1705 286.228 82.4655 286.228 80.2335C286.228 78.017 287.871 76.2965 290.01 76.2965C291.11 76.2965 292.118 76.777 292.676 77.5985V73.15ZM292.753 80.2335C292.753 78.7145 291.637 77.521 290.165 77.521C288.692 77.521 287.576 78.7145 287.576 80.2335C287.576 81.7525 288.692 82.946 290.165 82.946C291.637 82.946 292.753 81.7525 292.753 80.2335Z" fill="#242B42"/>
</g>
<g filter="url(#filter1_d_2274_14183)">
<rect x="50" y="51" width="96" height="56" rx="6" fill="white"/>
<rect x="51" y="52" width="94" height="54" rx="5" stroke="#0056CF" stroke-width="2"/>
<path d="M67.8525 83.0545V81.4115C68.7515 82.2175 69.976 82.853 71.247 82.853C72.363 82.853 73.603 82.326 73.603 81.024C73.603 79.7995 72.4715 79.4585 71.2315 79.133C69.635 78.73 67.837 78.2185 67.837 76.0175C67.837 74.049 69.5575 72.964 71.371 72.964C72.611 72.964 73.665 73.336 74.6105 74.018V75.6145C73.727 74.8395 72.642 74.266 71.371 74.266C70.379 74.266 69.232 74.824 69.232 75.94C69.232 77.242 70.4875 77.583 71.836 77.9395C73.355 78.3425 74.998 78.978 74.998 80.9465C74.998 83.0545 73.169 84.1705 71.2625 84.1705C70.038 84.1705 68.8135 83.7985 67.8525 83.0545ZM83.3479 81.768V83.2095C82.5109 83.814 81.4879 84.1705 80.4339 84.1705C78.0314 84.1705 76.4814 82.45 76.4814 80.2335C76.4814 77.986 78.0314 76.2965 80.2014 76.2965C82.3094 76.2965 83.7509 78.0325 83.7509 80.1715C83.7509 80.466 83.7199 80.652 83.7199 80.652H77.8144C77.9229 81.9075 78.9614 82.9615 80.5269 82.9615C81.4879 82.9615 82.4179 82.574 83.3479 81.768ZM77.8454 79.5515H82.4024C82.2939 78.358 81.4104 77.459 80.1704 77.459C78.9149 77.459 77.9384 78.5285 77.8454 79.5515ZM85.6564 73.15H86.9894V84H85.6564V73.15ZM95.8449 81.768V83.2095C95.0079 83.814 93.9849 84.1705 92.9309 84.1705C90.5284 84.1705 88.9784 82.45 88.9784 80.2335C88.9784 77.986 90.5284 76.2965 92.6984 76.2965C94.8064 76.2965 96.2479 78.0325 96.2479 80.1715C96.2479 80.466 96.2169 80.652 96.2169 80.652H90.3114C90.4199 81.9075 91.4584 82.9615 93.0239 82.9615C93.9849 82.9615 94.9149 82.574 95.8449 81.768ZM90.3424 79.5515H94.8994C94.7909 78.358 93.9074 77.459 92.6674 77.459C91.4119 77.459 90.4354 78.5285 90.3424 79.5515ZM97.6866 80.2335C97.6866 78.0325 99.3141 76.2965 101.624 76.2965C102.414 76.2965 103.143 76.529 103.763 76.9475V78.296C103.096 77.7845 102.414 77.5365 101.686 77.5365C100.151 77.5365 99.0351 78.7145 99.0351 80.2335C99.0351 81.737 100.151 82.9305 101.686 82.9305C102.476 82.9305 103.205 82.574 103.809 82.1865V83.535C103.158 83.938 102.414 84.1705 101.639 84.1705C99.2676 84.1705 97.6866 82.45 97.6866 80.2335ZM104.931 77.49L107.519 74.7H107.566V76.467H109.674V77.6605H107.566V81.644C107.566 82.5275 107.953 82.9305 108.821 82.9305C109.116 82.9305 109.441 82.853 109.674 82.698V83.938C109.41 84.0775 109.023 84.1705 108.511 84.1705C107.085 84.1705 106.233 83.287 106.233 81.83V77.6605H104.931V77.49ZM117.746 81.768V83.2095C116.909 83.814 115.886 84.1705 114.832 84.1705C112.43 84.1705 110.88 82.45 110.88 80.2335C110.88 77.986 112.43 76.2965 114.6 76.2965C116.708 76.2965 118.149 78.0325 118.149 80.1715C118.149 80.466 118.118 80.652 118.118 80.652H112.213C112.321 81.9075 113.36 82.9615 114.925 82.9615C115.886 82.9615 116.816 82.574 117.746 81.768ZM112.244 79.5515H116.801C116.692 78.358 115.809 77.459 114.569 77.459C113.313 77.459 112.337 78.5285 112.244 79.5515ZM126.036 73.15H127.354V84H126.036V82.8065C125.494 83.628 124.471 84.1705 123.37 84.1705C121.231 84.1705 119.588 82.4655 119.588 80.2335C119.588 78.017 121.231 76.2965 123.37 76.2965C124.471 76.2965 125.478 76.777 126.036 77.5985V73.15ZM126.114 80.2335C126.114 78.7145 124.998 77.521 123.525 77.521C122.053 77.521 120.937 78.7145 120.937 80.2335C120.937 81.7525 122.053 82.946 123.525 82.946C124.998 82.946 126.114 81.7525 126.114 80.2335Z" fill="#242B42"/>
<g clip-path="url(#clip0_2274_14183)">
<circle cx="146" cy="51" r="10" fill="#0056CF" stroke="white" stroke-width="2"/>
<path d="M143.326 55.0727C143.863 55.6097 144.734 55.6097 145.27 55.0727L151.59 48.753C151.859 48.4845 151.859 48.0492 151.59 47.7807C151.322 47.5122 150.886 47.5122 150.618 47.7807L144.298 54.1005L141.381 51.1836C141.113 50.9152 140.678 50.9152 140.409 51.1836C140.141 51.4521 140.141 51.8874 140.409 52.1559L143.326 55.0727Z" fill="white"/>
</g>
</g>
<defs>
<filter id="filter0_d_2274_14183" x="158" y="35" width="183" height="112" filterUnits="userSpaceOnUse" color-interpolation-filters="sRGB">
<feFlood flood-opacity="0" result="BackgroundImageFix"/>
<feColorMatrix in="SourceAlpha" type="matrix" values="0 0 0 0 0 0 0 0 0 0 0 0 0 0 0 0 0 0 127 0" result="hardAlpha"/>
<feOffset dy="12"/>
<feGaussianBlur stdDeviation="14"/>
<feColorMatrix type="matrix" values="0 0 0 0 0.235294 0 0 0 0 0.415686 0 0 0 0 0.67451 0 0 0 0.18 0"/>
<feBlend mode="normal" in2="BackgroundImageFix" result="effect1_dropShadow_2274_14183"/>
<feBlend mode="normal" in="SourceGraphic" in2="effect1_dropShadow_2274_14183" result="shape"/>
</filter>
<filter id="filter1_d_2274_14183" x="22" y="24" width="163" height="123" filterUnits="userSpaceOnUse" color-interpolation-filters="sRGB">
<feFlood flood-opacity="0" result="BackgroundImageFix"/>
<feColorMatrix in="SourceAlpha" type="matrix" values="0 0 0 0 0 0 0 0 0 0 0 0 0 0 0 0 0 0 127 0" result="hardAlpha"/>
<feOffset dy="12"/>
<feGaussianBlur stdDeviation="14"/>
<feColorMatrix type="matrix" values="0 0 0 0 0.235294 0 0 0 0 0.415686 0 0 0 0 0.67451 0 0 0 0.18 0"/>
<feBlend mode="normal" in2="BackgroundImageFix" result="effect1_dropShadow_2274_14183"/>
<feBlend mode="normal" in="SourceGraphic" in2="effect1_dropShadow_2274_14183" result="shape"/>
</filter>
<clipPath id="clip0_2274_14183">
<rect width="22" height="22" fill="white" transform="translate(135 40)"/>
</clipPath>
</defs>
</svg>
