<svg width="362" height="159" viewBox="0 0 362 159" fill="none" xmlns="http://www.w3.org/2000/svg">
<g clip-path="url(#clip0_2274_14185)">
<g filter="url(#filter0_d_2274_14185)">
<rect x="73" y="33" width="102" height="93" rx="6" fill="white"/>
<rect x="74" y="34" width="100" height="91" rx="5" stroke="#0056CF" stroke-width="2"/>
<path d="M125.5 51.5V54.625C127.188 54.8125 128.75 55.125 129.938 55.375C130.75 55.5625 131.25 56.375 131.062 57.1875C130.875 58 130.062 58.5 129.25 58.3125C127.312 57.875 124.5 57.3125 122.125 57.5625C120.938 57.625 120 57.875 119.312 58.3125C118.688 58.75 118.25 59.3125 118.062 60.25C117.875 60.9375 118 61.4375 118.188 61.75C118.312 62.125 118.688 62.4375 119.25 62.8125C120.438 63.5625 122.25 64 124.312 64.5625L124.5 64.625C126.438 65.125 128.625 65.6875 130.312 66.6875C131.188 67.1875 131.938 67.9375 132.438 68.9375C133 69.9375 133.062 71.125 132.875 72.375C132.438 74.625 130.812 76.0625 128.812 76.8125C127.812 77.1875 126.688 77.4375 125.5 77.5V80.5C125.5 81.375 124.812 82 124 82C123.125 82 122.5 81.375 122.5 80.5V77.4375C122.25 77.375 122.062 77.375 121.875 77.3125C120.312 77.125 117.562 76.5 115.875 75.75C115.125 75.375 114.75 74.5 115.125 73.75C115.438 73 116.312 72.6875 117.062 73C118.438 73.5625 120.875 74.1875 122.25 74.375C124.5 74.6875 126.375 74.5 127.75 74C129.062 73.5 129.75 72.75 129.875 71.8125C130.062 71.125 129.938 70.625 129.75 70.3125C129.625 69.9375 129.25 69.5625 128.688 69.25C127.5 68.5 125.75 68 123.625 67.5L123.438 67.4375C121.5 66.9375 119.312 66.375 117.625 65.375C116.812 64.8125 116 64.125 115.5 63.125C115 62.0625 114.875 60.9375 115.125 59.6875C115.438 57.875 116.375 56.625 117.688 55.8125C118.938 55 120.438 54.6875 121.875 54.5625C122.062 54.5 122.25 54.5 122.5 54.5V51.5C122.5 50.6875 123.125 50 124 50C124.812 50 125.5 50.6875 125.5 51.5Z" fill="#0056CF"/>
<path d="M95.7563 105.202C93.0438 105.202 91.4008 103.434 91.4008 100.691V94.15H93.7568V100.567C93.7568 102.024 94.4698 102.938 95.7563 102.938C97.0428 102.938 97.7558 102.024 97.7558 100.567V94.15H100.112V100.691C100.112 103.434 98.4688 105.202 95.7563 105.202ZM101.997 104.271V101.512C103.035 102.473 104.539 103.016 105.701 103.016C106.755 103.016 107.344 102.597 107.344 101.838C107.344 100.954 106.259 100.768 105.05 100.443C103.562 100.055 101.873 99.4975 101.873 97.374C101.873 95.297 103.547 93.9485 105.903 93.9485C107.189 93.9485 108.29 94.243 109.251 94.8475V97.436C108.243 96.568 107.081 96.103 105.918 96.103C104.771 96.103 104.275 96.5835 104.275 97.2345C104.275 97.9475 105.19 98.18 106.244 98.459C107.809 98.862 109.762 99.389 109.762 101.667C109.762 103.744 108.228 105.202 105.748 105.202C104.399 105.202 102.973 104.876 101.997 104.271ZM124.253 99.575C124.253 102.628 121.773 105 118.735 105H115.061V94.15H118.735C121.773 94.15 124.253 96.5215 124.253 99.575ZM121.866 99.575C121.866 97.777 120.471 96.3355 118.673 96.3355H117.386V102.814H118.673C120.471 102.814 121.866 101.373 121.866 99.575ZM125.526 101.171C125.526 98.893 127.309 97.1415 129.68 97.1415C132.052 97.1415 133.834 98.893 133.834 101.171C133.834 103.45 132.052 105.202 129.68 105.202C127.309 105.202 125.526 103.45 125.526 101.171ZM127.758 101.171C127.758 102.272 128.626 103.14 129.68 103.14C130.734 103.14 131.602 102.272 131.602 101.171C131.602 100.071 130.734 99.203 129.68 99.203C128.626 99.203 127.758 100.071 127.758 101.171ZM135.426 94.15H137.689V105H135.426V94.15ZM139.729 94.15H141.992V105H139.729V94.15ZM150.481 105H148.388L148.357 104.039C147.908 104.829 147.024 105.202 146.11 105.202C144.684 105.202 143.707 104.302 143.707 102.954C143.707 101.543 144.653 100.675 146.559 100.396L148.295 100.148V100.055C148.295 99.42 147.784 99.048 146.745 99.048C145.753 99.048 144.87 99.4355 144.172 100.071V97.9165C144.839 97.467 145.8 97.1415 146.978 97.1415C149.194 97.1415 150.481 98.211 150.481 100.195V105ZM145.846 102.768C145.862 103.202 146.218 103.481 146.73 103.481C147.675 103.481 148.295 102.799 148.295 101.931V101.667L146.947 101.884C146.218 101.993 145.846 102.318 145.846 102.768ZM157.274 97.219V99.544C157.15 99.482 156.933 99.451 156.7 99.451C155.445 99.451 154.701 100.381 154.701 101.884V105H152.453V97.343H154.685V98.5985C155.088 97.715 155.894 97.1725 156.886 97.1725C157.057 97.1725 157.227 97.2035 157.274 97.219Z" fill="#0056CF"/>
<g clip-path="url(#clip1_2274_14185)">
<circle cx="175" cy="33" r="10" fill="#0056CF" stroke="white" stroke-width="2"/>
<path d="M172.326 37.0727C172.863 37.6097 173.734 37.6097 174.27 37.0727L180.59 30.753C180.859 30.4845 180.859 30.0492 180.59 29.7807C180.322 29.5122 179.886 29.5122 179.618 29.7807L173.298 36.1005L170.381 33.1836C170.113 32.9152 169.678 32.9152 169.409 33.1836C169.141 33.4521 169.141 33.8874 169.409 34.1559L172.326 37.0727Z" fill="white"/>
</g>
</g>
<g filter="url(#filter1_d_2274_14185)">
<rect x="215" y="33" width="74" height="93" rx="6" fill="white"/>
<rect x="215.5" y="33.5" width="73" height="92" rx="5.5" stroke="#828EA7"/>
<path d="M244.688 52.6875L252 63.375L259.25 52.6875C259.688 52 260.625 51.8125 261.312 52.3125C262 52.75 262.188 53.6875 261.688 54.375L255.125 64H259.5C260.312 64 261 64.6875 261 65.5C261 66.375 260.312 67 259.5 67H253.5V70H259.5C260.312 70 261 70.6875 261 71.5C261 72.375 260.312 73 259.5 73H253.5V78.5C253.5 79.375 252.812 80 252 80C251.125 80 250.5 79.375 250.5 78.5V73H244.5C243.625 73 243 72.375 243 71.5C243 70.6875 243.625 70 244.5 70H250.5V67H244.5C243.625 67 243 66.375 243 65.5C243 64.6875 243.625 64 244.5 64H248.812L242.25 54.375C241.75 53.6875 241.938 52.75 242.625 52.3125C243.312 51.8125 244.25 52 244.688 52.6875Z" fill="#C1CDD6"/>
<path d="M244.998 100.288V105H242.658V100.288L238.783 94.15H241.449L243.851 98.118L246.254 94.15H248.873L244.998 100.288ZM255.072 102.442V104.489C254.328 104.922 253.336 105.202 252.127 105.202C249.508 105.202 247.896 103.512 247.896 101.14C247.896 98.8465 249.508 97.1415 251.786 97.1415C254.127 97.1415 255.537 98.7535 255.537 101.125C255.537 101.357 255.506 101.621 255.491 101.807H250.128C250.298 102.69 251.089 103.31 252.375 103.31C253.29 103.31 254.158 103.047 255.072 102.442ZM250.097 100.319H253.367C253.29 99.4665 252.654 98.893 251.771 98.893C250.887 98.893 250.205 99.544 250.097 100.319ZM259.271 100.939V105H257.008V97.343H259.271V98.3195C259.736 97.5755 260.511 97.1415 261.534 97.1415C263.285 97.1415 264.355 98.335 264.355 100.272V105H262.092V100.799C262.092 99.792 261.596 99.2185 260.712 99.2185C259.844 99.2185 259.271 99.8695 259.271 100.939Z" fill="#242B42"/>
</g>
</g>
<defs>
<filter id="filter0_d_2274_14185" x="45" y="6" width="169" height="160" filterUnits="userSpaceOnUse" color-interpolation-filters="sRGB">
<feFlood flood-opacity="0" result="BackgroundImageFix"/>
<feColorMatrix in="SourceAlpha" type="matrix" values="0 0 0 0 0 0 0 0 0 0 0 0 0 0 0 0 0 0 127 0" result="hardAlpha"/>
<feOffset dy="12"/>
<feGaussianBlur stdDeviation="14"/>
<feColorMatrix type="matrix" values="0 0 0 0 0.235294 0 0 0 0 0.415686 0 0 0 0 0.67451 0 0 0 0.18 0"/>
<feBlend mode="normal" in2="BackgroundImageFix" result="effect1_dropShadow_2274_14185"/>
<feBlend mode="normal" in="SourceGraphic" in2="effect1_dropShadow_2274_14185" result="shape"/>
</filter>
<filter id="filter1_d_2274_14185" x="187" y="17" width="130" height="149" filterUnits="userSpaceOnUse" color-interpolation-filters="sRGB">
<feFlood flood-opacity="0" result="BackgroundImageFix"/>
<feColorMatrix in="SourceAlpha" type="matrix" values="0 0 0 0 0 0 0 0 0 0 0 0 0 0 0 0 0 0 127 0" result="hardAlpha"/>
<feOffset dy="12"/>
<feGaussianBlur stdDeviation="14"/>
<feColorMatrix type="matrix" values="0 0 0 0 0.235294 0 0 0 0 0.415686 0 0 0 0 0.67451 0 0 0 0.18 0"/>
<feBlend mode="normal" in2="BackgroundImageFix" result="effect1_dropShadow_2274_14185"/>
<feBlend mode="normal" in="SourceGraphic" in2="effect1_dropShadow_2274_14185" result="shape"/>
</filter>
<clipPath id="clip0_2274_14185">
<rect width="362" height="158.375" fill="white"/>
</clipPath>
<clipPath id="clip1_2274_14185">
<rect width="22" height="22" fill="white" transform="translate(164 22)"/>
</clipPath>
</defs>
</svg>
