<svg width="362" height="159" viewBox="0 0 362 159" fill="none" xmlns="http://www.w3.org/2000/svg">
<g filter="url(#filter0_d_2274_5652)">
<rect width="303" height="36.9512" transform="translate(30 61.0244)" fill="white"/>
<path d="M30 64.309C30 62.495 31.4705 61.0244 33.2846 61.0244H144.959V97.9756H33.2846C31.4705 97.9756 30 96.5051 30 94.6911V64.309Z" fill="#0056CF" fill-opacity="0.05"/>
<path d="M59.6345 83.6494C57.6227 83.6494 56.4041 82.3389 56.4041 80.3041V75.4528H58.1515V80.2122C58.1515 81.2928 58.6803 81.971 59.6345 81.971C60.5886 81.971 61.1174 81.2928 61.1174 80.2122V75.4528H62.8648V80.3041C62.8648 82.3389 61.6462 83.6494 59.6345 83.6494ZM66.364 85.8912H64.6971V77.821H66.364V78.5797C66.7663 77.9934 67.4561 77.6831 68.2033 77.6831C69.7323 77.6831 70.8934 78.9706 70.8934 80.6605C70.8934 82.3389 69.7323 83.638 68.2033 83.638C67.4561 83.638 66.7663 83.362 66.364 82.7643V85.8912ZM69.2265 80.6605C69.2265 79.8443 68.5827 79.189 67.7665 79.189C66.9503 79.189 66.3065 79.8443 66.3065 80.6605C66.3065 81.4767 66.9503 82.132 67.7665 82.132C68.5827 82.132 69.2265 81.4767 69.2265 80.6605ZM72.3728 75.4528H74.0513V83.5H72.3728V75.4528ZM75.539 80.6605C75.539 78.9706 76.861 77.6716 78.6199 77.6716C80.3788 77.6716 81.7008 78.9706 81.7008 80.6605C81.7008 82.3504 80.3788 83.6494 78.6199 83.6494C76.861 83.6494 75.539 82.3504 75.539 80.6605ZM77.1944 80.6605C77.1944 81.4767 77.8382 82.1205 78.6199 82.1205C79.4016 82.1205 80.0454 81.4767 80.0454 80.6605C80.0454 79.8443 79.4016 79.2005 78.6199 79.2005C77.8382 79.2005 77.1944 79.8443 77.1944 80.6605ZM87.96 83.5H86.408L86.385 82.7873C86.0517 83.3735 85.3964 83.6494 84.7181 83.6494C83.6605 83.6494 82.9363 82.9827 82.9363 81.9825C82.9363 80.9364 83.6375 80.2926 85.0515 80.0857L86.3391 79.9018V79.8328C86.3391 79.3615 85.9597 79.0856 85.1895 79.0856C84.4537 79.0856 83.7985 79.373 83.2811 79.8443V78.2464C83.7755 77.913 84.4882 77.6716 85.3619 77.6716C87.0058 77.6716 87.96 78.4648 87.96 79.9363V83.5ZM84.5227 81.8446C84.5342 82.1665 84.7986 82.3734 85.178 82.3734C85.8792 82.3734 86.3391 81.8676 86.3391 81.2238V81.0284L85.3389 81.1893C84.7986 81.2698 84.5227 81.5112 84.5227 81.8446ZM93.9156 75.4528H95.5825V83.5H93.9156V82.7413C93.5247 83.3161 92.8235 83.638 92.0762 83.638C90.5473 83.638 89.3862 82.3504 89.3862 80.6605C89.3862 78.9821 90.5473 77.6831 92.0762 77.6831C92.8235 77.6831 93.5247 77.9705 93.9156 78.5567V75.4528ZM91.0531 80.6605C91.0531 81.4767 91.6969 82.132 92.5131 82.132C93.3293 82.132 93.9731 81.4767 93.9731 80.6605C93.9731 79.8443 93.3293 79.189 92.5131 79.189C91.6969 79.189 91.0531 79.8443 91.0531 80.6605ZM102.263 80.2237V83.5H100.538V75.4528H105.148V77.0163H102.263V78.6487H104.918V80.2237H102.263ZM108.329 83.5H106.651V77.821H108.329V83.5ZM108.467 76.1771C108.467 76.7059 108.03 77.1542 107.49 77.1542C106.95 77.1542 106.513 76.7059 106.513 76.1771C106.513 75.6483 106.95 75.1999 107.49 75.1999C108.03 75.1999 108.467 75.6483 108.467 76.1771ZM110.15 75.4528H111.829V83.5H110.15V75.4528ZM118.639 81.6032V83.1206C118.087 83.4425 117.352 83.6494 116.455 83.6494C114.512 83.6494 113.317 82.3964 113.317 80.6375C113.317 78.9361 114.512 77.6716 116.202 77.6716C117.938 77.6716 118.984 78.8671 118.984 80.626C118.984 80.7985 118.961 80.9939 118.95 81.1318H114.972C115.098 81.7871 115.685 82.2469 116.639 82.2469C117.317 82.2469 117.961 82.0515 118.639 81.6032ZM114.949 80.0282H117.375C117.317 79.396 116.846 78.9706 116.191 78.9706C115.535 78.9706 115.029 79.4534 114.949 80.0282Z" fill="#0056CF"/>
<path d="M328.073 61.4346C330.567 61.4348 332.589 63.4571 332.589 65.9512V93.0488C332.589 95.5429 330.567 97.5652 328.073 97.5654H145.369V61.4346H328.073Z" fill="white"/>
<path d="M328.073 61.4346C330.567 61.4348 332.589 63.4571 332.589 65.9512V93.0488C332.589 95.5429 330.567 97.5652 328.073 97.5654H145.369V61.4346H328.073Z" stroke="#E4E8F0" stroke-width="0.821138"/>
<path opacity="0.8" d="M160.21 80.6451V83.8779H159.116V77.6923H160.21V78.5832C160.592 77.9723 161.254 77.5523 162.183 77.5523C163.761 77.5523 164.678 78.6087 164.678 80.2506V83.8779H163.583V80.3778C163.583 79.2705 163.011 78.5705 161.954 78.5705C160.898 78.5705 160.21 79.3851 160.21 80.6451ZM170.166 79.9451V79.7924C170.166 79.016 169.619 78.545 168.702 78.545C167.862 78.545 167.238 78.8887 166.602 79.4742V78.3287C167.162 77.8705 167.837 77.5523 168.728 77.5523C170.319 77.5523 171.235 78.4305 171.235 79.8687V83.8779H170.204V83.0634C169.72 83.687 168.969 84.0179 168.155 84.0179C167.06 84.0179 166.284 83.267 166.284 82.2488C166.284 81.1415 166.984 80.4796 168.346 80.2506L170.166 79.9451ZM167.378 82.1852C167.378 82.707 167.786 83.0506 168.359 83.0506C169.415 83.0506 170.179 82.3633 170.179 81.4088V80.8869L168.524 81.1797C167.786 81.3197 167.378 81.6506 167.378 82.1852ZM174.3 80.6324V83.8779H173.206V77.6923H174.288V78.5832C174.631 77.9468 175.255 77.5523 176.108 77.5523C177.024 77.5523 177.686 78.0105 178.055 78.7614C178.361 78.2396 178.997 77.5523 180.168 77.5523C181.593 77.5523 182.446 78.5578 182.446 80.1487V83.8779H181.352V80.3396C181.352 79.2451 180.881 78.5578 179.951 78.5578C178.997 78.5578 178.373 79.3723 178.373 80.6324V83.8779H177.279V80.3651C177.279 79.2578 176.795 78.5578 175.879 78.5578C174.924 78.5578 174.3 79.3723 174.3 80.6324ZM189.626 82.0451V83.2288C188.939 83.7252 188.099 84.0179 187.233 84.0179C185.261 84.0179 183.988 82.6052 183.988 80.7851C183.988 78.9396 185.261 77.5523 187.042 77.5523C188.773 77.5523 189.957 78.9778 189.957 80.7342C189.957 80.976 189.932 81.1288 189.932 81.1288H185.082C185.172 82.1597 186.024 83.0252 187.31 83.0252C188.099 83.0252 188.863 82.707 189.626 82.0451ZM185.108 80.2251H188.85C188.761 79.2451 188.035 78.5069 187.017 78.5069C185.986 78.5069 185.184 79.3851 185.108 80.2251ZM190.557 85.3289V84.4507H196.387V85.3289H190.557ZM199.968 77.5523C201.827 77.5523 203.201 78.9905 203.201 80.7851C203.201 82.5797 201.827 84.0179 199.968 84.0179C198.11 84.0179 196.735 82.5797 196.735 80.7851C196.735 78.9905 198.11 77.5523 199.968 77.5523ZM199.968 78.5578C198.759 78.5578 197.843 79.5505 197.843 80.7851C197.843 82.0197 198.759 83.0124 199.968 83.0124C201.177 83.0124 202.094 82.0197 202.094 80.7851C202.094 79.5505 201.177 78.5578 199.968 78.5578ZM206.017 83.8779H204.922V78.6723H203.968V77.6923H204.922V77.1577C204.922 75.5795 205.826 74.8158 207.048 74.8158C207.493 74.8158 207.786 74.8922 207.977 74.9686V75.9486C207.786 75.8722 207.544 75.8213 207.226 75.8213C206.539 75.8213 206.017 76.165 206.017 77.1323V77.6923H207.748V78.6723H206.017V83.8779ZM207.92 85.3289V84.4507H213.749V85.3289H207.92ZM216.366 83.8779H215.271V78.6723H214.316V77.6923H215.271V77.1577C215.271 75.5795 216.175 74.8158 217.397 74.8158C217.842 74.8158 218.135 74.8922 218.326 74.9686V75.9486C218.135 75.8722 217.893 75.8213 217.575 75.8213C216.887 75.8213 216.366 76.165 216.366 77.1323V77.6923H218.097V78.6723H216.366V83.8779ZM220.718 75.8595C220.718 76.2668 220.387 76.5977 219.979 76.5977C219.572 76.5977 219.241 76.2668 219.241 75.8595C219.241 75.4522 219.572 75.1213 219.979 75.1213C220.387 75.1213 220.718 75.4522 220.718 75.8595ZM219.432 77.6923H220.527V83.8779H219.432V77.6923ZM222.605 74.9686H223.7V83.8779H222.605V74.9686ZM230.971 82.0451V83.2288C230.284 83.7252 229.444 84.0179 228.579 84.0179C226.606 84.0179 225.333 82.6052 225.333 80.7851C225.333 78.9396 226.606 77.5523 228.388 77.5523C230.119 77.5523 231.302 78.9778 231.302 80.7342C231.302 80.976 231.277 81.1288 231.277 81.1288H226.428C226.517 82.1597 227.37 83.0252 228.655 83.0252C229.444 83.0252 230.208 82.707 230.971 82.0451ZM226.453 80.2251H230.195C230.106 79.2451 229.381 78.5069 228.362 78.5069C227.331 78.5069 226.53 79.3851 226.453 80.2251ZM231.903 85.3289V84.4507H237.732V85.3289H231.903ZM242.928 80.9251V77.6923H244.023V83.8779H242.928V82.987C242.547 83.5979 241.898 84.0179 240.968 84.0179C239.403 84.0179 238.499 82.9615 238.499 81.3197V77.6923H239.594V81.1924C239.594 82.2997 240.154 82.9997 241.198 82.9997C242.241 82.9997 242.928 82.1852 242.928 80.9251ZM247.368 86.5253H246.286V77.6923H247.368V78.6723C247.813 77.9978 248.653 77.5523 249.557 77.5523C251.313 77.5523 252.662 78.9523 252.662 80.7851C252.662 82.6052 251.313 84.0179 249.557 84.0179C248.653 84.0179 247.826 83.6234 247.368 82.9488V86.5253ZM251.555 80.7851C251.555 79.5378 250.639 78.5578 249.43 78.5578C248.22 78.5578 247.304 79.5378 247.304 80.7851C247.304 82.0324 248.22 83.0124 249.43 83.0124C250.639 83.0124 251.555 82.0324 251.555 80.7851ZM254.294 74.9686H255.389V83.8779H254.294V74.9686ZM260.255 77.5523C262.113 77.5523 263.488 78.9905 263.488 80.7851C263.488 82.5797 262.113 84.0179 260.255 84.0179C258.396 84.0179 257.022 82.5797 257.022 80.7851C257.022 78.9905 258.396 77.5523 260.255 77.5523ZM260.255 78.5578C259.046 78.5578 258.129 79.5505 258.129 80.7851C258.129 82.0197 259.046 83.0124 260.255 83.0124C261.464 83.0124 262.38 82.0197 262.38 80.7851C262.38 79.5505 261.464 78.5578 260.255 78.5578ZM268.642 79.9451V79.7924C268.642 79.016 268.094 78.545 267.178 78.545C266.338 78.545 265.714 78.8887 265.078 79.4742V78.3287C265.638 77.8705 266.312 77.5523 267.203 77.5523C268.794 77.5523 269.711 78.4305 269.711 79.8687V83.8779H268.68V83.0634C268.196 83.687 267.445 84.0179 266.631 84.0179C265.536 84.0179 264.76 83.267 264.76 82.2488C264.76 81.1415 265.46 80.4796 266.822 80.2506L268.642 79.9451ZM265.854 82.1852C265.854 82.707 266.262 83.0506 266.834 83.0506C267.891 83.0506 268.654 82.3633 268.654 81.4088V80.8869L267 81.1797C266.262 81.3197 265.854 81.6506 265.854 82.1852ZM276.531 74.9686H277.613V83.8779H276.531V82.8979C276.085 83.5725 275.245 84.0179 274.342 84.0179C272.585 84.0179 271.236 82.6179 271.236 80.7851C271.236 78.9651 272.585 77.5523 274.342 77.5523C275.245 77.5523 276.073 77.9468 276.531 78.6214V74.9686ZM276.595 80.7851C276.595 79.5378 275.678 78.5578 274.469 78.5578C273.26 78.5578 272.343 79.5378 272.343 80.7851C272.343 82.0324 273.26 83.0124 274.469 83.0124C275.678 83.0124 276.595 82.0324 276.595 80.7851ZM284.883 82.0451V83.2288C284.195 83.7252 283.355 84.0179 282.49 84.0179C280.517 84.0179 279.244 82.6052 279.244 80.7851C279.244 78.9396 280.517 77.5523 282.299 77.5523C284.03 77.5523 285.214 78.9778 285.214 80.7342C285.214 80.976 285.188 81.1288 285.188 81.1288H280.339C280.428 82.1597 281.281 83.0252 282.566 83.0252C283.355 83.0252 284.119 82.707 284.883 82.0451ZM280.364 80.2251H284.106C284.017 79.2451 283.292 78.5069 282.274 78.5069C281.243 78.5069 280.441 79.3851 280.364 80.2251ZM291.69 74.9686H292.772V83.8779H291.69V82.8979C291.244 83.5725 290.404 84.0179 289.501 84.0179C287.744 84.0179 286.395 82.6179 286.395 80.7851C286.395 78.9651 287.744 77.5523 289.501 77.5523C290.404 77.5523 291.232 77.9468 291.69 78.6214V74.9686ZM291.753 80.7851C291.753 79.5378 290.837 78.5578 289.628 78.5578C288.419 78.5578 287.502 79.5378 287.502 80.7851C287.502 82.0324 288.419 83.0124 289.628 83.0124C290.837 83.0124 291.753 82.0324 291.753 80.7851ZM296.211 83.2161C296.211 83.6488 295.867 83.9925 295.434 83.9925C295.002 83.9925 294.658 83.6488 294.658 83.2161C294.658 82.7961 295.002 82.4524 295.434 82.4524C295.867 82.4524 296.211 82.7961 296.211 83.2161ZM299.178 86.5253H298.097V77.6923H299.178V78.6723C299.624 77.9978 300.464 77.5523 301.368 77.5523C303.124 77.5523 304.473 78.9523 304.473 80.7851C304.473 82.6052 303.124 84.0179 301.368 84.0179C300.464 84.0179 299.637 83.6234 299.178 82.9488V86.5253ZM303.366 80.7851C303.366 79.5378 302.449 78.5578 301.24 78.5578C300.031 78.5578 299.115 79.5378 299.115 80.7851C299.115 82.0324 300.031 83.0124 301.24 83.0124C302.449 83.0124 303.366 82.0324 303.366 80.7851ZM307.199 80.6451V83.8779H306.105V77.6923H307.199V78.5832C307.581 77.9723 308.243 77.5523 309.172 77.5523C310.75 77.5523 311.667 78.6087 311.667 80.2506V83.8779H310.572V80.3778C310.572 79.2705 310 78.5705 308.943 78.5705C307.887 78.5705 307.199 79.3851 307.199 80.6451ZM313.411 79.8305C313.411 78.4814 314.519 77.5523 315.804 77.5523C316.097 77.5523 316.377 77.6032 316.644 77.6923H318.77V78.6341H317.853C318.07 78.9778 318.197 79.3851 318.197 79.8305C318.197 81.1924 317.09 82.0961 315.804 82.0961C315.422 82.0961 315.066 82.0197 314.735 81.8797C314.315 82.007 314.188 82.2488 314.188 82.4779C314.188 82.847 314.519 82.987 315.015 82.987H316.733C318.057 82.987 318.897 83.547 318.897 84.5652C318.897 86.0034 317.37 86.678 315.702 86.678C314.111 86.678 312.941 86.1689 312.941 84.9343C312.941 84.3489 313.335 83.8779 313.73 83.6234C313.386 83.3816 313.233 83.0252 313.233 82.6306C313.233 81.9433 313.653 81.6124 314.022 81.3833C313.641 81.0015 313.411 80.4669 313.411 79.8305ZM317.879 84.667C317.879 84.1325 317.408 83.9543 316.479 83.9543H314.951C314.799 83.9543 314.671 83.9416 314.544 83.9288C314.162 84.1325 313.946 84.4379 313.946 84.807C313.946 85.5198 314.735 85.8125 315.728 85.8125C316.975 85.8125 317.879 85.4052 317.879 84.667ZM314.417 79.8305C314.417 80.6451 315.028 81.1924 315.804 81.1924C316.581 81.1924 317.192 80.6451 317.192 79.8305C317.192 79.0414 316.581 78.4687 315.804 78.4687C315.028 78.4687 314.417 79.0414 314.417 79.8305Z" fill="#242B42"/>
</g>
<defs>
<filter id="filter0_d_2274_5652" x="7.00813" y="47.8862" width="348.984" height="82.9349" filterUnits="userSpaceOnUse" color-interpolation-filters="sRGB">
<feFlood flood-opacity="0" result="BackgroundImageFix"/>
<feColorMatrix in="SourceAlpha" type="matrix" values="0 0 0 0 0 0 0 0 0 0 0 0 0 0 0 0 0 0 127 0" result="hardAlpha"/>
<feOffset dy="9.85366"/>
<feGaussianBlur stdDeviation="11.4959"/>
<feColorMatrix type="matrix" values="0 0 0 0 0.235294 0 0 0 0 0.415686 0 0 0 0 0.67451 0 0 0 0.18 0"/>
<feBlend mode="normal" in2="BackgroundImageFix" result="effect1_dropShadow_2274_5652"/>
<feBlend mode="normal" in="SourceGraphic" in2="effect1_dropShadow_2274_5652" result="shape"/>
</filter>
</defs>
</svg>
