<svg width="362" height="159" viewBox="0 0 362 159" fill="none" xmlns="http://www.w3.org/2000/svg">
<g filter="url(#filter0_d_2274_5653)">
<path d="M35.6254 53.0837H36.8932V57.8083H38.9555V59H35.6254V53.0837ZM42.5717 53.0837H43.6958L46.0708 59H44.7439L44.2452 57.7238H41.9886L41.4899 59H40.1883L42.5717 53.0837ZM43.1127 54.698L42.3773 56.6335H43.8649L43.1127 54.698ZM47.6084 59V53.0837H49.772C50.8623 53.0837 51.6484 53.6753 51.6484 54.6811C51.6484 55.2051 51.3864 55.6192 50.9553 55.839C51.6315 56.0756 52.0034 56.5827 52.0034 57.2674C52.0034 58.3492 51.192 59 49.8988 59H47.6084ZM48.8508 57.9351H49.8228C50.3637 57.9351 50.7187 57.6815 50.7187 57.1997C50.7187 56.7264 50.3552 56.4644 49.8228 56.4644H48.8508V57.9351ZM48.8508 55.4417H49.6453C50.0848 55.4417 50.4059 55.2135 50.4059 54.7909C50.4059 54.3599 50.0848 54.1401 49.6453 54.1401H48.8508V55.4417ZM53.7938 59V53.0837H57.276V54.2331H55.0616V55.4333H57.0816V56.5489H55.0616V57.8505H57.2929V59H53.7938ZM59.1538 53.0837H60.4216V57.8083H62.4839V59H59.1538V53.0837Z" fill="#617290"/>
<g clip-path="url(#clip0_2274_5653)">
<mask id="path-2-inside-1_2274_5653" fill="white">
<path d="M35 72.8607C35 70.5268 36.892 68.6348 39.226 68.6348H132.667V100.329H39.226C36.892 100.329 35 98.4374 35 96.1035V72.8607Z"/>
</mask>
<path d="M35 72.8607C35 70.5268 36.892 68.6348 39.226 68.6348H132.667V100.329H39.226C36.892 100.329 35 98.4374 35 96.1035V72.8607Z" fill="white"/>
<path d="M47.2521 79.8405H48.2237V87.4824H47.2521V79.8405ZM51.0488 84.7095V87.4824H50.1099V82.1767H51.0488V82.9409C51.3763 82.4169 51.944 82.0566 52.741 82.0566C54.0947 82.0566 54.8807 82.9628 54.8807 84.3711V87.4824H53.9418V84.4802C53.9418 83.5304 53.4506 82.93 52.5444 82.93C51.6383 82.93 51.0488 83.6287 51.0488 84.7095ZM57.5125 89.7532H56.5845V82.1767H57.5125V83.0173C57.8946 82.4387 58.6151 82.0566 59.3902 82.0566C60.8968 82.0566 62.054 83.2575 62.054 84.8296C62.054 86.3907 60.8968 87.6025 59.3902 87.6025C58.6151 87.6025 57.9055 87.2641 57.5125 86.6855V89.7532ZM61.1042 84.8296C61.1042 83.7597 60.3182 82.9191 59.281 82.9191C58.2439 82.9191 57.4579 83.7597 57.4579 84.8296C57.4579 85.8994 58.2439 86.7401 59.281 86.7401C60.3182 86.7401 61.1042 85.8994 61.1042 84.8296ZM67.1443 84.9497V82.1767H68.0832V87.4824H67.1443V86.7182C66.8168 87.2422 66.26 87.6025 65.4631 87.6025C64.1203 87.6025 63.3452 86.6964 63.3452 85.2881V82.1767H64.284V85.1789C64.284 86.1287 64.7644 86.7291 65.6596 86.7291C66.5548 86.7291 67.1443 86.0305 67.1443 84.9497ZM69.1546 82.8973L70.9777 80.9322H71.0105V82.1767H72.4952V83.0173H71.0105V85.823C71.0105 86.4453 71.2834 86.7291 71.8948 86.7291C72.1022 86.7291 72.3314 86.6746 72.4952 86.5654V87.4388C72.3096 87.537 72.0367 87.6025 71.6764 87.6025C70.672 87.6025 70.0716 86.9802 70.0716 85.954V83.0173H69.1546V82.8973Z" fill="#617290"/>
</g>
<path d="M34.2957 72.8607C34.2957 70.1378 36.503 67.9304 39.226 67.9304H133.019L132.314 69.3391H39.226C37.281 69.3391 35.7043 70.9158 35.7043 72.8607H34.2957ZM133.019 101.034H39.226C36.503 101.034 34.2957 98.8264 34.2957 96.1035H35.7043C35.7043 98.0485 37.281 99.6252 39.226 99.6252H132.314L133.019 101.034ZM39.226 101.034C36.503 101.034 34.2957 98.8264 34.2957 96.1035V72.8607C34.2957 70.1378 36.503 67.9304 39.226 67.9304V69.3391C37.281 69.3391 35.7043 70.9158 35.7043 72.8607V96.1035C35.7043 98.0485 37.281 99.6252 39.226 99.6252V101.034ZM133.019 67.9304V101.034L132.314 99.6252V69.3391L133.019 67.9304Z" fill="#828EA7" mask="url(#path-2-inside-1_2274_5653)"/>
<path d="M133.292 53.0837H134.56V57.8083H136.622V59H133.292V53.0837ZM140.239 53.0837H141.363L143.738 59H142.411L141.912 57.7238H139.656L139.157 59H137.855L140.239 53.0837ZM140.78 54.698L140.044 56.6335H141.532L140.78 54.698ZM145.275 59V53.0837H147.439C148.529 53.0837 149.315 53.6753 149.315 54.6811C149.315 55.2051 149.053 55.6192 148.622 55.839C149.298 56.0756 149.67 56.5827 149.67 57.2674C149.67 58.3492 148.859 59 147.566 59H145.275ZM146.518 57.9351H147.49C148.031 57.9351 148.386 57.6815 148.386 57.1997C148.386 56.7264 148.022 56.4644 147.49 56.4644H146.518V57.9351ZM146.518 55.4417H147.312C147.752 55.4417 148.073 55.2135 148.073 54.7909C148.073 54.3599 147.752 54.1401 147.312 54.1401H146.518V55.4417ZM151.461 59V53.0837H154.943V54.2331H152.729V55.4333H154.749V56.5489H152.729V57.8505H154.96V59H151.461ZM156.821 53.0837H158.089V57.8083H160.151V59H156.821V53.0837Z" fill="#617290"/>
<g clip-path="url(#clip1_2274_5653)">
<mask id="path-8-inside-2_2274_5653" fill="white">
<path d="M132.667 68.6348H230.334V100.329H132.667V68.6348Z"/>
</mask>
<path d="M132.667 68.6348H230.334V100.329H132.667V68.6348Z" fill="white"/>
<path d="M144.919 79.8405H145.891V87.4824H144.919V79.8405ZM148.716 84.7095V87.4824H147.777V82.1767H148.716V82.9409C149.043 82.4169 149.611 82.0566 150.408 82.0566C151.762 82.0566 152.548 82.9628 152.548 84.3711V87.4824H151.609V84.4802C151.609 83.5304 151.118 82.93 150.211 82.93C149.305 82.93 148.716 83.6287 148.716 84.7095ZM155.179 89.7532H154.252V82.1767H155.179V83.0173C155.562 82.4387 156.282 82.0566 157.057 82.0566C158.564 82.0566 159.721 83.2575 159.721 84.8296C159.721 86.3907 158.564 87.6025 157.057 87.6025C156.282 87.6025 155.572 87.2641 155.179 86.6855V89.7532ZM158.771 84.8296C158.771 83.7597 157.985 82.9191 156.948 82.9191C155.911 82.9191 155.125 83.7597 155.125 84.8296C155.125 85.8994 155.911 86.7401 156.948 86.7401C157.985 86.7401 158.771 85.8994 158.771 84.8296ZM164.811 84.9497V82.1767H165.75V87.4824H164.811V86.7182C164.484 87.2422 163.927 87.6025 163.13 87.6025C161.787 87.6025 161.012 86.6964 161.012 85.2881V82.1767H161.951V85.1789C161.951 86.1287 162.431 86.7291 163.327 86.7291C164.222 86.7291 164.811 86.0305 164.811 84.9497ZM166.822 82.8973L168.645 80.9322H168.677V82.1767H170.162V83.0173H168.677V85.823C168.677 86.4453 168.95 86.7291 169.562 86.7291C169.769 86.7291 169.998 86.6746 170.162 86.5654V87.4388C169.977 87.537 169.704 87.6025 169.343 87.6025C168.339 87.6025 167.739 86.9802 167.739 85.954V83.0173H166.822V82.8973Z" fill="#617290"/>
</g>
<path d="M132.667 68.6348V67.9304H132.315V68.6348H132.667ZM230.334 68.6348H230.686V67.9304H230.334V68.6348ZM230.334 100.329V101.034H230.686V100.329H230.334ZM132.667 100.329H132.315V101.034H132.667V100.329ZM132.667 68.6348V69.3391H230.334V68.6348V67.9304H132.667V68.6348ZM230.334 68.6348H229.981V100.329H230.334H230.686V68.6348H230.334ZM230.334 100.329V99.6252H132.667V100.329V101.034H230.334V100.329ZM132.667 100.329H133.019V68.6348H132.667H132.315V100.329H132.667Z" fill="#828EA7" mask="url(#path-8-inside-2_2274_5653)"/>
<path d="M230.958 53.0837H232.226V57.8083H234.289V59H230.958V53.0837ZM237.905 53.0837H239.029L241.404 59H240.077L239.578 57.7238H237.322L236.823 59H235.521L237.905 53.0837ZM238.446 54.698L237.71 56.6335H239.198L238.446 54.698ZM242.941 59V53.0837H245.105C246.195 53.0837 246.981 53.6753 246.981 54.6811C246.981 55.2051 246.719 55.6192 246.288 55.839C246.964 56.0756 247.336 56.5827 247.336 57.2674C247.336 58.3492 246.525 59 245.232 59H242.941ZM244.184 57.9351H245.156C245.697 57.9351 246.052 57.6815 246.052 57.1997C246.052 56.7264 245.688 56.4644 245.156 56.4644H244.184V57.9351ZM244.184 55.4417H244.978C245.418 55.4417 245.739 55.2135 245.739 54.7909C245.739 54.3599 245.418 54.1401 244.978 54.1401H244.184V55.4417ZM249.127 59V53.0837H252.609V54.2331H250.395V55.4333H252.415V56.5489H250.395V57.8505H252.626V59H249.127ZM254.487 53.0837H255.755V57.8083H257.817V59H254.487V53.0837Z" fill="#617290"/>
<g clip-path="url(#clip2_2274_5653)">
<mask id="path-14-inside-3_2274_5653" fill="white">
<path d="M230.333 68.6348H323.774C326.108 68.6348 328 70.5268 328 72.8607V96.1035C328 98.4374 326.108 100.329 323.774 100.329H230.333V68.6348Z"/>
</mask>
<path d="M230.333 68.6348H323.774C326.108 68.6348 328 70.5268 328 72.8607V96.1035C328 98.4374 326.108 100.329 323.774 100.329H230.333V68.6348Z" fill="white"/>
<path d="M242.585 79.8405H243.557V87.4824H242.585V79.8405ZM246.382 84.7095V87.4824H245.443V82.1767H246.382V82.9409C246.709 82.4169 247.277 82.0566 248.074 82.0566C249.428 82.0566 250.214 82.9628 250.214 84.3711V87.4824H249.275V84.4802C249.275 83.5304 248.784 82.93 247.877 82.93C246.971 82.93 246.382 83.6287 246.382 84.7095ZM252.845 89.7532H251.918V82.1767H252.845V83.0173C253.228 82.4387 253.948 82.0566 254.723 82.0566C256.23 82.0566 257.387 83.2575 257.387 84.8296C257.387 86.3907 256.23 87.6025 254.723 87.6025C253.948 87.6025 253.238 87.2641 252.845 86.6855V89.7532ZM256.437 84.8296C256.437 83.7597 255.651 82.9191 254.614 82.9191C253.577 82.9191 252.791 83.7597 252.791 84.8296C252.791 85.8994 253.577 86.7401 254.614 86.7401C255.651 86.7401 256.437 85.8994 256.437 84.8296ZM262.477 84.9497V82.1767H263.416V87.4824H262.477V86.7182C262.15 87.2422 261.593 87.6025 260.796 87.6025C259.453 87.6025 258.678 86.6964 258.678 85.2881V82.1767H259.617V85.1789C259.617 86.1287 260.097 86.7291 260.993 86.7291C261.888 86.7291 262.477 86.0305 262.477 84.9497ZM264.488 82.8973L266.311 80.9322H266.343V82.1767H267.828V83.0173H266.343V85.823C266.343 86.4453 266.616 86.7291 267.228 86.7291C267.435 86.7291 267.664 86.6746 267.828 86.5654V87.4388C267.643 87.537 267.37 87.6025 267.009 87.6025C266.005 87.6025 265.405 86.9802 265.405 85.954V83.0173H264.488V82.8973Z" fill="#617290"/>
</g>
<path d="M229.981 67.9304H323.774C326.497 67.9304 328.704 70.1378 328.704 72.8607H327.295C327.295 70.9158 325.719 69.3391 323.774 69.3391H230.685L229.981 67.9304ZM328.704 96.1035C328.704 98.8264 326.497 101.034 323.774 101.034H229.981L230.685 99.6252H323.774C325.719 99.6252 327.295 98.0485 327.295 96.1035H328.704ZM229.981 101.034V67.9304L230.685 69.3391V99.6252L229.981 101.034ZM323.774 67.9304C326.497 67.9304 328.704 70.1378 328.704 72.8607V96.1035C328.704 98.8264 326.497 101.034 323.774 101.034V99.6252C325.719 99.6252 327.295 98.0485 327.295 96.1035V72.8607C327.295 70.9158 325.719 69.3391 323.774 69.3391V67.9304Z" fill="#828EA7" mask="url(#path-14-inside-3_2274_5653)"/>
</g>
<defs>
<filter id="filter0_d_2274_5653" x="15.2788" y="38.7308" width="332.442" height="89.7714" filterUnits="userSpaceOnUse" color-interpolation-filters="sRGB">
<feFlood flood-opacity="0" result="BackgroundImageFix"/>
<feColorMatrix in="SourceAlpha" type="matrix" values="0 0 0 0 0 0 0 0 0 0 0 0 0 0 0 0 0 0 127 0" result="hardAlpha"/>
<feOffset dy="8.45192"/>
<feGaussianBlur stdDeviation="9.86058"/>
<feColorMatrix type="matrix" values="0 0 0 0 0.235294 0 0 0 0 0.415686 0 0 0 0 0.67451 0 0 0 0.18 0"/>
<feBlend mode="normal" in2="BackgroundImageFix" result="effect1_dropShadow_2274_5653"/>
<feBlend mode="normal" in="SourceGraphic" in2="effect1_dropShadow_2274_5653" result="shape"/>
</filter>
<clipPath id="clip0_2274_5653">
<path d="M35 72.8607C35 70.5268 36.892 68.6348 39.226 68.6348H132.667V100.329H39.226C36.892 100.329 35 98.4374 35 96.1035V72.8607Z" fill="white"/>
</clipPath>
<clipPath id="clip1_2274_5653">
<path d="M132.667 68.6348H230.334V100.329H132.667V68.6348Z" fill="white"/>
</clipPath>
<clipPath id="clip2_2274_5653">
<path d="M230.333 68.6348H323.774C326.108 68.6348 328 70.5268 328 72.8607V96.1035C328 98.4374 326.108 100.329 323.774 100.329H230.333V68.6348Z" fill="white"/>
</clipPath>
</defs>
</svg>
