<svg width="95" height="94" viewBox="0 0 95 94" fill="none" xmlns="http://www.w3.org/2000/svg">
<path d="M0.839844 54.86C0.839844 52.6509 2.6307 50.86 4.83984 50.86H90.5537C92.7628 50.86 94.5537 52.6508 94.5537 54.86V89.72C94.5537 91.9291 92.7628 93.72 90.5537 93.72H4.83984C2.63071 93.72 0.839844 91.9291 0.839844 89.72V54.86Z" fill="#F3F7FB"/>
<path d="M47.6973 89.79L44.8105 84.79H47.1973V54.79H48.1973V84.79H50.584L47.6973 89.79Z" fill="#0056CF"/>
<path d="M3.69141 61.2525C4.04374 61.3986 4.43123 61.48 4.83984 61.48V62.48L4.63379 62.4751C4.16624 62.4514 3.72026 62.3461 3.30859 62.1753L3.69141 61.2525ZM6.37012 61.48V62.48H4.83984V61.48H6.37012ZM12.4932 61.48V62.48H9.43164V61.48H12.4932ZM18.6152 61.48V62.48H15.5537V61.48H18.6152ZM24.7373 61.48V62.48H21.6768V61.48H24.7373ZM30.8604 61.48V62.48H27.7988V61.48H30.8604ZM36.9824 61.48V62.48H33.9209V61.48H36.9824ZM43.1045 61.48V62.48H40.0439V61.48H43.1045ZM49.2275 61.48V62.48H46.166V61.48H49.2275ZM55.3496 61.48V62.48H52.2891V61.48H55.3496ZM61.4727 61.48V62.48H58.4111V61.48H61.4727ZM67.5947 61.48V62.48H64.5332V61.48H67.5947ZM73.7168 61.48V62.48H70.6562V61.48H73.7168ZM79.8398 61.48V62.48H76.7783V61.48H79.8398ZM85.9619 61.48V62.48H82.9004V61.48H85.9619ZM90.5537 61.48V62.48H89.0234V61.48H90.5537ZM92.084 62.1753C91.6725 62.3459 91.227 62.4514 90.7598 62.4751L90.5537 62.48V61.48C90.9623 61.48 91.3498 61.3986 91.7021 61.2525L92.084 62.1753ZM0.839844 58.48V57.5748H1.83984V58.48C1.83986 58.8886 1.92129 59.2762 2.06738 59.6285L1.14355 60.0103C0.973053 59.5989 0.868441 59.1532 0.844727 58.6861L0.839844 58.48ZM94.5488 58.6861C94.5251 59.1533 94.4196 59.5988 94.249 60.0103L93.3262 59.6285C93.4723 59.2762 93.5537 58.8886 93.5537 58.48V57.5748H94.5537V58.48L94.5488 58.6861ZM0.839844 54.86C0.839844 54.3176 0.947938 53.8004 1.14355 53.3287L2.06738 53.7115C1.92128 54.0638 1.83984 54.4513 1.83984 54.8599V55.7652H0.839844V54.86ZM94.5537 55.7652H93.5537V54.8599C93.5537 54.4513 93.4723 54.0638 93.3262 53.7115L94.249 53.3287C94.4447 53.8005 94.5537 54.3174 94.5537 54.86V55.7652ZM6.37012 50.86V51.86H4.83984C4.43123 51.86 4.04374 51.9414 3.69141 52.0875L3.30859 51.1637C3.72018 50.993 4.16636 50.8886 4.63379 50.8649L4.83984 50.86H6.37012ZM90.7598 50.8649C91.2269 50.8886 91.6726 50.9932 92.084 51.1637L91.7021 52.0875C91.3498 51.9414 90.9623 51.86 90.5537 51.86H89.0234V50.86H90.5537L90.7598 50.8649ZM12.4932 50.86V51.86H9.43164V50.86H12.4932ZM18.6152 50.86V51.86H15.5537V50.86H18.6152ZM24.7373 50.86V51.86H21.6768V50.86H24.7373ZM30.8604 50.86V51.86H27.7988V50.86H30.8604ZM36.9824 50.86V51.86H33.9209V50.86H36.9824ZM43.1045 50.86V51.86H40.0439V50.86H43.1045ZM49.2275 50.86V51.86H46.166V50.86H49.2275ZM55.3496 50.86V51.86H52.2891V50.86H55.3496ZM61.4727 50.86V51.86H58.4111V50.86H61.4727ZM67.5947 50.86V51.86H64.5332V50.86H67.5947ZM73.7168 50.86V51.86H70.6562V50.86H73.7168ZM79.8398 50.86V51.86H76.7783V50.86H79.8398ZM85.9619 50.86V51.86H82.9004V50.86H85.9619Z" fill="#0056CF"/>
<path d="M3.69141 76.8725C4.04374 77.0186 4.43123 77.1 4.83984 77.1V78.1L4.63379 78.0951C4.16624 78.0714 3.72026 77.9661 3.30859 77.7953L3.69141 76.8725ZM6.37012 77.1V78.1H4.83984V77.1H6.37012ZM12.4932 77.1V78.1H9.43164V77.1H12.4932ZM18.6152 77.1V78.1H15.5537V77.1H18.6152ZM24.7373 77.1V78.1H21.6768V77.1H24.7373ZM30.8604 77.1V78.1H27.7988V77.1H30.8604ZM36.9824 77.1V78.1H33.9209V77.1H36.9824ZM43.1045 77.1V78.1H40.0439V77.1H43.1045ZM49.2275 77.1V78.1H46.166V77.1H49.2275ZM55.3496 77.1V78.1H52.2891V77.1H55.3496ZM61.4727 77.1V78.1H58.4111V77.1H61.4727ZM67.5947 77.1V78.1H64.5332V77.1H67.5947ZM73.7168 77.1V78.1H70.6562V77.1H73.7168ZM79.8398 77.1V78.1H76.7783V77.1H79.8398ZM85.9619 77.1V78.1H82.9004V77.1H85.9619ZM90.5537 77.1V78.1H89.0234V77.1H90.5537ZM92.084 77.7953C91.6725 77.9659 91.227 78.0714 90.7598 78.0951L90.5537 78.1V77.1C90.9623 77.1 91.3498 77.0186 91.7021 76.8725L92.084 77.7953ZM0.839844 74.1V73.1948H1.83984V74.1C1.83986 74.5086 1.92129 74.8961 2.06738 75.2484L1.14355 75.6303C0.973053 75.2189 0.868441 74.7732 0.844727 74.3061L0.839844 74.1ZM94.5488 74.3061C94.5251 74.7733 94.4196 75.2188 94.249 75.6303L93.3262 75.2484C93.4723 74.8961 93.5537 74.5086 93.5537 74.1V73.1948H94.5537V74.1L94.5488 74.3061ZM0.839844 70.4799C0.839844 69.9375 0.947938 69.4204 1.14355 68.9487L2.06738 69.3315C1.92128 69.6838 1.83984 70.0713 1.83984 70.4799V71.3852H0.839844V70.4799ZM94.5537 71.3852H93.5537V70.4799C93.5537 70.0713 93.4723 69.6838 93.3262 69.3315L94.249 68.9487C94.4447 69.4205 94.5537 69.9374 94.5537 70.4799V71.3852ZM6.37012 66.48V67.48H4.83984C4.43123 67.48 4.04374 67.5614 3.69141 67.7075L3.30859 66.7837C3.72018 66.613 4.16636 66.5086 4.63379 66.4849L4.83984 66.48H6.37012ZM90.7598 66.4849C91.2269 66.5086 91.6726 66.6132 92.084 66.7837L91.7021 67.7075C91.3498 67.5614 90.9623 67.48 90.5537 67.48H89.0234V66.48H90.5537L90.7598 66.4849ZM12.4932 66.48V67.48H9.43164V66.48H12.4932ZM18.6152 66.48V67.48H15.5537V66.48H18.6152ZM24.7373 66.48V67.48H21.6768V66.48H24.7373ZM30.8604 66.48V67.48H27.7988V66.48H30.8604ZM36.9824 66.48V67.48H33.9209V66.48H36.9824ZM43.1045 66.48V67.48H40.0439V66.48H43.1045ZM49.2275 66.48V67.48H46.166V66.48H49.2275ZM55.3496 66.48V67.48H52.2891V66.48H55.3496ZM61.4727 66.48V67.48H58.4111V66.48H61.4727ZM67.5947 66.48V67.48H64.5332V66.48H67.5947ZM73.7168 66.48V67.48H70.6562V66.48H73.7168ZM79.8398 66.48V67.48H76.7783V66.48H79.8398ZM85.9619 66.48V67.48H82.9004V66.48H85.9619Z" fill="#0056CF"/>
<path d="M3.69141 92.4924C4.04374 92.6386 4.43123 92.72 4.83984 92.72L4.83984 93.72L4.63379 93.7151C4.16624 93.6914 3.72026 93.5861 3.30859 93.4153L3.69141 92.4924ZM6.37012 92.72V93.72L4.83984 93.72L4.83984 92.72H6.37012ZM12.4932 92.72V93.72H9.43164V92.72H12.4932ZM18.6152 92.72V93.72H15.5537V92.72H18.6152ZM24.7373 92.72V93.72H21.6768V92.72H24.7373ZM30.8604 92.72V93.72H27.7988V92.72H30.8604ZM36.9824 92.72V93.72H33.9209V92.72H36.9824ZM43.1045 92.72V93.72H40.0439V92.72H43.1045ZM49.2275 92.72V93.72H46.166V92.72H49.2275ZM55.3496 92.72V93.72H52.2891V92.72H55.3496ZM61.4727 92.72V93.72H58.4111V92.72H61.4727ZM67.5947 92.72V93.72H64.5332V92.72H67.5947ZM73.7168 92.72V93.72H70.6562V92.72H73.7168ZM79.8398 92.72V93.72H76.7783V92.72H79.8398ZM85.9619 92.72V93.72H82.9004V92.72H85.9619ZM90.5537 92.72V93.72L89.0234 93.72V92.72H90.5537ZM92.084 93.4153C91.6725 93.5859 91.227 93.6914 90.7598 93.7151L90.5537 93.72V92.72C90.9623 92.72 91.3498 92.6386 91.7021 92.4924L92.084 93.4153ZM0.839844 89.72V88.8148H1.83984V89.72C1.83986 90.1286 1.92129 90.5161 2.06738 90.8684L1.14355 91.2503C0.973053 90.8389 0.868441 90.3932 0.844727 89.9261L0.839844 89.72ZM94.5488 89.9261C94.5251 90.3933 94.4196 90.8388 94.249 91.2503L93.3262 90.8684C93.4723 90.5161 93.5537 90.1286 93.5537 89.72V88.8148H94.5537V89.72L94.5488 89.9261ZM0.839844 86.0999C0.839844 85.5575 0.947938 85.0404 1.14355 84.5687L2.06738 84.9515C1.92128 85.3038 1.83984 85.6913 1.83984 86.0999V87.0052H0.839844V86.0999ZM94.5537 87.0052H93.5537V86.0999C93.5537 85.6913 93.4723 85.3038 93.3262 84.9515L94.249 84.5687C94.4447 85.0405 94.5537 85.5574 94.5537 86.0999V87.0052ZM6.37012 82.1V83.1H4.83984C4.43123 83.1 4.04374 83.1814 3.69141 83.3275L3.30859 82.4037C3.72018 82.233 4.16636 82.1286 4.63379 82.1049L4.83984 82.1H6.37012ZM90.7598 82.1049C91.2269 82.1286 91.6726 82.2332 92.084 82.4037L91.7021 83.3275C91.3498 83.1814 90.9623 83.1 90.5537 83.1H89.0234V82.1H90.5537L90.7598 82.1049ZM12.4932 82.1V83.1H9.43164V82.1H12.4932ZM18.6152 82.1V83.1H15.5537V82.1H18.6152ZM24.7373 82.1V83.1H21.6768V82.1H24.7373ZM30.8604 82.1V83.1H27.7988V82.1H30.8604ZM36.9824 82.1V83.1H33.9209V82.1H36.9824ZM43.1045 82.1V83.1H40.0439V82.1H43.1045ZM49.2275 82.1V83.1H46.166V82.1H49.2275ZM55.3496 82.1V83.1H52.2891V82.1H55.3496ZM61.4727 82.1V83.1H58.4111V82.1H61.4727ZM67.5947 82.1V83.1H64.5332V82.1H67.5947ZM73.7168 82.1V83.1H70.6562V82.1H73.7168ZM79.8398 82.1V83.1H76.7783V82.1H79.8398ZM85.9619 82.1V83.1H82.9004V82.1H85.9619Z" fill="#0056CF"/>
<path d="M0.839844 4C0.839844 1.79086 2.6307 0 4.83984 0H90.5498C92.759 0 94.5498 1.79086 94.5498 4V38.86C94.5498 41.0691 92.759 42.86 90.5498 42.86H4.83985C2.63071 42.86 0.839844 41.0691 0.839844 38.86V4Z" fill="#F3F7FB"/>
<path d="M3.69141 41.6328C4.04374 41.7789 4.43123 41.8604 4.83984 41.8604L4.83985 42.86L4.63379 42.8545C4.16629 42.8308 3.72023 42.7264 3.30859 42.5557L3.69141 41.6328ZM6.55469 41.8604V42.8604L4.83985 42.86L4.83984 41.8604H6.55469ZM13.4141 41.8604V42.8604H9.98438V41.8604H13.4141ZM20.2734 41.8604V42.8604H16.8438V41.8604H20.2734ZM25.418 41.8604V42.8604H23.7031V41.8604H25.418ZM26.9482 42.5557C26.5368 42.7262 26.0912 42.8308 25.624 42.8545L25.418 42.8604V41.8604C25.8266 41.8604 26.2141 41.7789 26.5664 41.6328L26.9482 42.5557ZM0.839844 38.86V37.4072H1.83984V38.8604L1.84375 39.0117C1.86123 39.3645 1.93952 39.6994 2.06738 40.0078L1.14355 40.3906C0.972914 39.979 0.868372 39.5329 0.844727 39.0654L0.839844 38.86ZM29.4131 39.0654C29.3894 39.533 29.284 39.9789 29.1133 40.3906L28.1914 40.0078C28.3374 39.6557 28.4179 39.2687 28.418 38.8604V37.4072H29.418V38.8604L29.4131 39.0654ZM1.83984 31.5977V34.5029H0.839844V31.5977H1.83984ZM29.418 31.5977V34.5029H28.418V31.5977H29.418ZM1.83984 25.7871V28.6924H0.839844V25.7871H1.83984ZM29.418 25.7871V28.6924H28.418V25.7871H29.418ZM1.83984 19.9775V22.8828H0.839844V19.9775H1.83984ZM29.418 19.9775V22.8828H28.418V19.9775H29.418ZM1.83984 14.168V17.0723H0.839844V14.168H1.83984ZM29.418 14.168V17.0723H28.418V14.168H29.418ZM1.83984 8.35742V11.2627H0.839844V8.35742H1.83984ZM29.418 8.35742V11.2627H28.418V8.35742H29.418ZM0.839844 4C0.839844 3.45758 0.947937 2.94042 1.14355 2.46875L2.06738 2.85156C1.92128 3.2039 1.83984 3.59138 1.83984 4V5.45215H0.839844V4ZM29.418 5.45215H28.418V4C28.418 3.59138 28.3375 3.2039 28.1914 2.85156L29.1133 2.46875C29.309 2.94053 29.418 3.45742 29.418 4V5.45215ZM6.55469 0V1H4.83984C4.43123 1 4.04374 1.08143 3.69141 1.22754L3.30859 0.303711C3.72018 0.133015 4.16636 0.0285998 4.63379 0.00488281L4.83984 0H6.55469ZM25.418 0C25.96 0 26.4768 0.108356 26.9482 0.303711L26.5664 1.22754C26.2141 1.08143 25.8266 1 25.418 1H23.7031V0H25.418ZM13.4141 0V1H9.98438V0H13.4141ZM20.2734 0V1H16.8438V0H20.2734Z" fill="#0056CF"/>
<path d="M36.2577 41.6328C36.6101 41.7789 36.9975 41.8604 37.4062 41.8604V42.8604L37.2001 42.8545C36.7326 42.8308 36.2866 42.7264 35.8749 42.5557L36.2577 41.6328ZM39.121 41.8604V42.8604H37.4062V41.8604H39.121ZM45.9804 41.8604V42.8604H42.5507V41.8604H45.9804ZM52.8398 41.8604V42.8604H49.4101V41.8604H52.8398ZM57.9843 41.8604V42.8604H56.2694V41.8604H57.9843ZM59.5146 42.5557C59.1031 42.7262 58.6575 42.8308 58.1903 42.8545L57.9843 42.8604V41.8604C58.3929 41.8604 58.7804 41.7789 59.1327 41.6328L59.5146 42.5557ZM33.4062 38.8604V37.4072H34.4062V38.8604L34.4101 39.0117C34.4276 39.3645 34.5058 39.6994 34.6337 40.0078L33.7099 40.3906C33.5392 39.979 33.4347 39.5329 33.411 39.0654L33.4062 38.8604ZM61.9794 39.0654C61.9558 39.533 61.8503 39.9789 61.6796 40.3906L60.7577 40.0078C60.9037 39.6557 60.9842 39.2687 60.9843 38.8604V37.4072H61.9843V38.8604L61.9794 39.0654ZM34.4062 31.5977V34.5029H33.4062V31.5977H34.4062ZM61.9843 31.5977V34.5029H60.9843V31.5977H61.9843ZM34.4062 25.7871V28.6924H33.4062V25.7871H34.4062ZM61.9843 25.7871V28.6924H60.9843V25.7871H61.9843ZM34.4062 19.9775V22.8828H33.4062V19.9775H34.4062ZM61.9843 19.9775V22.8828H60.9843V19.9775H61.9843ZM34.4062 14.168V17.0723H33.4062V14.168H34.4062ZM61.9843 14.168V17.0723H60.9843V14.168H61.9843ZM34.4062 8.35742V11.2627H33.4062V8.35742H34.4062ZM61.9843 8.35742V11.2627H60.9843V8.35742H61.9843ZM33.4062 4C33.4062 3.45758 33.5143 2.94042 33.7099 2.46875L34.6337 2.85156C34.4876 3.2039 34.4062 3.59138 34.4062 4V5.45215H33.4062V4ZM61.9843 5.45215H60.9843V4C60.9843 3.59138 60.9038 3.2039 60.7577 2.85156L61.6796 2.46875C61.8753 2.94053 61.9843 3.45742 61.9843 4V5.45215ZM39.121 0V1H37.4062C36.9975 1 36.6101 1.08143 36.2577 1.22754L35.8749 0.303711C36.2865 0.133015 36.7327 0.0285998 37.2001 0.00488281L37.4062 0H39.121ZM57.9843 0C58.5263 0 59.0432 0.108357 59.5146 0.303711L59.1327 1.22754C58.8244 1.09969 58.4893 1.02143 58.1366 1.00391L57.9843 1H56.2694V0H57.9843ZM45.9804 0V1H42.5507V0H45.9804ZM52.8398 0V1H49.4101V0H52.8398Z" fill="#0056CF"/>
<path d="M68.8231 41.6328C69.1754 41.7789 69.5629 41.8604 69.9715 41.8604V42.8604L69.7655 42.8545C69.298 42.8308 68.8519 42.7264 68.4403 42.5557L68.8231 41.6328ZM71.6864 41.8604V42.8604H69.9715V41.8604H71.6864ZM78.5457 41.8604V42.8604H75.116V41.8604H78.5457ZM85.4051 41.8604V42.8604H81.9754V41.8604H85.4051ZM90.5496 41.8604L90.5498 42.86L88.8348 42.8604V41.8604H90.5496ZM92.0799 42.5557C91.6685 42.7262 91.2229 42.8308 90.7557 42.8545L90.5498 42.86L90.5496 41.8604C90.9583 41.8604 91.3457 41.7789 91.6981 41.6328L92.0799 42.5557ZM65.9715 38.8604V37.4072H66.9715V38.8604L66.9754 39.0117C66.9929 39.3645 67.0712 39.6994 67.1991 40.0078L66.2752 40.3906C66.1046 39.979 66 39.5329 65.9764 39.0654L65.9715 38.8604ZM94.5448 39.0654C94.5211 39.533 94.4157 39.9789 94.2449 40.3906L93.3231 40.0078C93.469 39.6557 93.5496 39.2687 93.5496 38.8604V37.4072H94.5496L94.5498 38.86L94.5448 39.0654ZM66.9715 31.5977V34.5029H65.9715V31.5977H66.9715ZM94.5496 31.5977V34.5029H93.5496V31.5977H94.5496ZM66.9715 25.7871V28.6924H65.9715V25.7871H66.9715ZM94.5496 25.7871V28.6924H93.5496V25.7871H94.5496ZM66.9715 19.9775V22.8828H65.9715V19.9775H66.9715ZM94.5496 19.9775V22.8828H93.5496V19.9775H94.5496ZM66.9715 14.168V17.0723H65.9715V14.168H66.9715ZM94.5496 14.168V17.0723H93.5496V14.168H94.5496ZM66.9715 8.35742V11.2627H65.9715V8.35742H66.9715ZM94.5496 8.35742V11.2627H93.5496V8.35742H94.5496ZM65.9715 4C65.9715 3.45758 66.0796 2.94042 66.2752 2.46875L67.1991 2.85156C67.0529 3.2039 66.9715 3.59138 66.9715 4V5.45215H65.9715V4ZM94.5496 5.45215H93.5496V4C93.5496 3.59138 93.4692 3.2039 93.3231 2.85156L94.2449 2.46875C94.4407 2.94053 94.5498 3.45742 94.5498 4L94.5496 5.45215ZM71.6864 0V1H69.9715C69.5629 1 69.1754 1.08143 68.8231 1.22754L68.4403 0.303711C68.8518 0.133015 69.298 0.0285998 69.7655 0.00488281L69.9715 0H71.6864ZM90.5498 0C91.0919 0 91.6085 0.108357 92.0799 0.303711L91.6981 1.22754C91.3898 1.09969 91.0547 1.02143 90.702 1.00391L90.5496 1H88.8348V0L90.5498 0ZM78.5457 0V1H75.116V0H78.5457ZM85.4051 0V1H81.9754V0H85.4051Z" fill="#0056CF"/>
<path d="M90.4194 21.43L85.4348 24.3167V21.93H4.6844V20.93H85.4348V18.5433L90.4194 21.43Z" fill="#0056CF"/>
</svg>
