<svg width="95" height="94" viewBox="0 0 95 94" fill="none" xmlns="http://www.w3.org/2000/svg">
<g clip-path="url(#clip0_1485_22463)">
<path d="M0.549805 4C0.549805 1.79086 2.34067 0 4.5498 0H90.2637C92.4728 0 94.2637 1.79086 94.2637 4V89.7143C94.2637 91.9234 92.4728 93.7143 90.2637 93.7143H4.54981C2.34067 93.7143 0.549805 91.9234 0.549805 89.7143V4Z" fill="#F3F7FB"/>
<path d="M3.40137 14.7725C3.7537 14.9186 4.14119 15 4.5498 15H6.0498V16H4.5498C4.00725 16 3.49032 15.891 3.01855 15.6953L3.40137 14.7725Z" fill="#0056CF"/>
<path d="M12.0498 16H9.0498V15H12.0498V16Z" fill="#0056CF"/>
<path d="M18.0498 16H15.0498V15H18.0498V16Z" fill="#0056CF"/>
<path d="M24.0498 16H21.0498V15H24.0498V16Z" fill="#0056CF"/>
<path d="M30.0801 15.6953C29.6085 15.8908 29.092 16 28.5498 16H27.0498V15H28.5498C28.9584 15 29.3459 14.9186 29.6982 14.7725L30.0801 15.6953Z" fill="#0056CF"/>
<path d="M1.5498 12C1.5498 12.4086 1.63124 12.7961 1.77734 13.1484L0.853516 13.5303C0.658117 13.0588 0.549805 12.5421 0.549805 12V10H1.5498V12Z" fill="#0056CF"/>
<path d="M32.5498 12L32.5449 12.2061C32.5212 12.6733 32.4157 13.1188 32.2451 13.5303L31.3223 13.1484C31.4684 12.7961 31.5498 12.4086 31.5498 12V10H32.5498V12Z" fill="#0056CF"/>
<path d="M8.5498 4C10.7589 4 12.5498 5.79086 12.5498 8C12.5498 10.2091 10.7589 12 8.5498 12C6.34067 12 4.5498 10.2091 4.5498 8C4.5498 5.79086 6.34067 4 8.5498 4Z" fill="#0056CF"/>
<path d="M20.5498 4C22.7589 4 24.5498 5.79086 24.5498 8C24.5498 10.2091 22.7589 12 20.5498 12C18.3407 12 16.5498 10.2091 16.5498 8C16.5498 5.79086 18.3407 4 20.5498 4Z" fill="#0056CF"/>
<path d="M1.77734 2.85156C1.63124 3.2039 1.5498 3.59138 1.5498 4V6H0.549805V4C0.549805 3.45757 0.657899 2.94042 0.853516 2.46875L1.77734 2.85156Z" fill="#0056CF"/>
<path d="M32.2451 2.46875C32.4408 2.94051 32.5498 3.45744 32.5498 4V6H31.5498V4C31.5498 3.59138 31.4684 3.2039 31.3223 2.85156L32.2451 2.46875Z" fill="#0056CF"/>
<path d="M6.0498 1H4.5498C4.14119 1 3.7537 1.08143 3.40137 1.22754L3.01855 0.303711C3.49023 0.108094 4.00738 0 4.5498 0H6.0498V1Z" fill="#0056CF"/>
<path d="M28.5498 0C29.0919 0 29.6086 0.108312 30.0801 0.303711L29.6982 1.22754C29.3459 1.08143 28.9584 1 28.5498 1H27.0498V0H28.5498Z" fill="#0056CF"/>
<path d="M12.0498 1H9.0498V0H12.0498V1Z" fill="#0056CF"/>
<path d="M18.0498 1H15.0498V0H18.0498V1Z" fill="#0056CF"/>
<path d="M24.0498 1H21.0498V0H24.0498V1Z" fill="#0056CF"/>
<path d="M39.3974 14.7725C39.7498 14.9186 40.1373 15 40.5459 15H42.0459V16H40.5459C40.0033 16 39.4864 15.891 39.0146 15.6953L39.3974 14.7725Z" fill="#0056CF"/>
<path d="M48.0459 16H45.0459V15H48.0459V16Z" fill="#0056CF"/>
<path d="M54.0459 16H51.0459V15H54.0459V16Z" fill="#0056CF"/>
<path d="M60.0459 16H57.0459V15H60.0459V16Z" fill="#0056CF"/>
<path d="M66.0762 15.6953C65.6046 15.8908 65.0881 16 64.5459 16H63.0459V15H64.5459C64.9545 15 65.342 14.9186 65.6943 14.7725L66.0762 15.6953Z" fill="#0056CF"/>
<path d="M37.5459 12C37.5459 12.4086 37.6273 12.7961 37.7734 13.1484L36.8496 13.5303C36.6542 13.0588 36.5459 12.5421 36.5459 12V10H37.5459V12Z" fill="#0056CF"/>
<path d="M68.5459 12L68.541 12.2061C68.5173 12.6733 68.4118 13.1188 68.2412 13.5303L67.3183 13.1484C67.4645 12.7961 67.5459 12.4086 67.5459 12V10H68.5459V12Z" fill="#0056CF"/>
<path d="M44.5459 4C46.755 4 48.5459 5.79086 48.5459 8C48.5459 10.2091 46.755 12 44.5459 12C42.3367 12 40.5459 10.2091 40.5459 8C40.5459 5.79086 42.3367 4 44.5459 4Z" fill="#0056CF"/>
<path d="M56.5459 4C58.755 4 60.5459 5.79086 60.5459 8C60.5459 10.2091 58.755 12 56.5459 12C54.3367 12 52.5459 10.2091 52.5459 8C52.5459 5.79086 54.3367 4 56.5459 4Z" fill="#0056CF"/>
<path d="M37.7734 2.85156C37.6273 3.2039 37.5459 3.59138 37.5459 4V6H36.5459V4C36.5459 3.45758 36.654 2.94042 36.8496 2.46875L37.7734 2.85156Z" fill="#0056CF"/>
<path d="M68.2412 2.46875C68.4369 2.94051 68.5459 3.45744 68.5459 4V6H67.5459V4C67.5459 3.59138 67.4645 3.2039 67.3183 2.85156L68.2412 2.46875Z" fill="#0056CF"/>
<path d="M42.0459 1H40.5459C40.1373 1 39.7498 1.08143 39.3974 1.22754L39.0146 0.303711C39.4863 0.108094 40.0035 0 40.5459 0H42.0459V1Z" fill="#0056CF"/>
<path d="M64.5459 0C65.088 0 65.6047 0.108312 66.0762 0.303711L65.6943 1.22754C65.342 1.08143 64.9545 1 64.5459 1H63.0459V0H64.5459Z" fill="#0056CF"/>
<path d="M48.0459 1H45.0459V0H48.0459V1Z" fill="#0056CF"/>
<path d="M54.0459 1H51.0459V0H54.0459V1Z" fill="#0056CF"/>
<path d="M60.0459 1H57.0459V0H60.0459V1Z" fill="#0056CF"/>
</g>
<defs>
<clipPath id="clip0_1485_22463">
<rect x="0.549805" width="93.71" height="93.71" rx="4" fill="white"/>
</clipPath>
</defs>
</svg>
