<svg width="95" height="94" viewBox="0 0 95 94" fill="none" xmlns="http://www.w3.org/2000/svg">
<g clip-path="url(#clip0_1485_22564)">
<rect x="0.419922" width="93.71" height="93.71" rx="4" fill="#F3F7FB"/>
<path d="M12.4219 38.8571C12.4219 36.648 14.2127 34.8571 16.4219 34.8571H28.9919C31.201 34.8571 32.9919 36.648 32.9919 38.8571V54.8571C32.9919 57.0663 31.201 58.8571 28.9919 58.8571H16.4219C14.2127 58.8571 12.4219 57.0663 12.4219 54.8571V38.8571Z" fill="#0056CF"/>
<path d="M36.9922 38.8571C36.9922 36.648 38.783 34.8571 40.9922 34.8571H53.5622C55.7713 34.8571 57.5622 36.648 57.5622 38.8571V54.8571C57.5622 57.0663 55.7713 58.8571 53.5622 58.8571H40.9922C38.783 58.8571 36.9922 57.0663 36.9922 54.8571V38.8571Z" fill="#0056CF"/>
<path d="M61.5625 38.8571C61.5625 36.648 63.3534 34.8571 65.5625 34.8571H78.1325C80.3416 34.8571 82.1325 36.648 82.1325 38.8571V54.8571C82.1325 57.0663 80.3416 58.8571 78.1325 58.8571H65.5625C63.3534 58.8571 61.5625 57.0663 61.5625 54.8571V38.8571Z" fill="#0056CF"/>
<path d="M3.27344 57.6296C3.62577 57.7757 4.01326 57.8572 4.42188 57.8572V58.8572C3.87932 58.8572 3.36239 58.7482 2.89063 58.5525L3.27344 57.6296ZM6.37012 57.8572V58.8572H4.42188V57.8572H6.37012ZM14.1621 57.8572V58.8572H10.2656V57.8572H14.1621ZM21.9531 57.8572V58.8572H18.0576V57.8572H21.9531ZM29.7451 57.8572V58.8572H25.8496V57.8572H29.7451ZM37.5371 57.8572V58.8572H33.6416V57.8572H37.5371ZM45.3291 57.8572V58.8572H41.4326V57.8572H45.3291ZM53.1211 57.8572V58.8572H49.2246V57.8572H53.1211ZM60.9121 57.8572V58.8572H57.0166V57.8572H60.9121ZM68.7041 57.8572V58.8572H64.8086V57.8572H68.7041ZM76.4961 57.8572V58.8572H72.6006V57.8572H76.4961ZM84.2881 57.8572V58.8572H80.3926V57.8572H84.2881ZM90.1319 57.8572V58.8572H88.1836V57.8572H90.1319ZM91.6621 58.5525C91.1906 58.748 90.6741 58.8572 90.1319 58.8572V57.8572C90.5405 57.8572 90.928 57.7757 91.2803 57.6296L91.6621 58.5525ZM0.421875 54.8572V52.8572H1.42188V54.8572L1.42578 55.0095C1.44332 55.3621 1.52159 55.6973 1.64941 56.0056L0.725586 56.3874C0.555095 55.9761 0.450459 55.5303 0.426758 55.0632L0.421875 54.8572ZM94.127 55.0632C94.1033 55.5305 93.9978 55.976 93.8272 56.3874L92.9043 56.0056C93.0504 55.6533 93.1319 55.2658 93.1319 54.8572V52.8572H94.1319V54.8572L94.127 55.0632ZM1.42188 44.8572V48.8572H0.421875V44.8572H1.42188ZM94.1319 44.8572V48.8572H93.1319V44.8572H94.1319ZM0.421875 38.8572C0.421875 38.3147 0.529969 37.7976 0.725586 37.3259L1.64941 37.7087C1.50331 38.0611 1.42188 38.4485 1.42188 38.8572V40.8572H0.421875V38.8572ZM94.1319 40.8572H93.1319V38.8572C93.1319 38.4485 93.0504 38.0611 92.9043 37.7087L93.8272 37.3259C94.0229 37.7977 94.1319 38.3146 94.1319 38.8572V40.8572ZM6.37012 34.8572V35.8572H4.42188C4.01326 35.8572 3.62577 35.9386 3.27344 36.0847L2.89063 35.1609C3.30221 34.9902 3.74839 34.8858 4.21582 34.862L4.42188 34.8572H6.37012ZM90.1319 34.8572C90.674 34.8572 91.1907 34.9655 91.6621 35.1609L91.2803 36.0847C90.928 35.9386 90.5405 35.8572 90.1319 35.8572H88.1836V34.8572H90.1319ZM14.1621 34.8572V35.8572H10.2656V34.8572H14.1621ZM21.9531 34.8572V35.8572H18.0576V34.8572H21.9531ZM29.7451 34.8572V35.8572H25.8496V34.8572H29.7451ZM37.5371 34.8572V35.8572H33.6416V34.8572H37.5371ZM45.3291 34.8572V35.8572H41.4326V34.8572H45.3291ZM53.1211 34.8572V35.8572H49.2246V34.8572H53.1211ZM60.9121 34.8572V35.8572H57.0166V34.8572H60.9121ZM68.7041 34.8572V35.8572H64.8086V34.8572H68.7041ZM76.4961 34.8572V35.8572H72.6006V34.8572H76.4961ZM84.2881 34.8572V35.8572H80.3926V34.8572H84.2881Z" fill="#0056CF"/>
</g>
<defs>
<clipPath id="clip0_1485_22564">
<rect x="0.419922" width="93.71" height="93.71" rx="4" fill="white"/>
</clipPath>
</defs>
</svg>
