<svg width="164" height="164" viewBox="0 0 164 164" fill="none" xmlns="http://www.w3.org/2000/svg">
<g clip-path="url(#clip0_1663_178826)">
<rect x="1" width="163.2" height="163.2" fill="white"/>
<rect x="8.5" y="8" width="147" height="88" fill="#F3F7FB"/>
<path d="M156 50.2861L158.887 55.2861L156.5 55.2861L156.5 150.286L158.887 150.286L156 155.286L153.113 150.286L155.5 150.286L155.5 55.2861L153.113 55.2861L156 50.2861Z" fill="#0056CF"/>
<rect x="8.5" y="8" width="147" height="34" rx="4" fill="#0056CF"/>
<path fill-rule="evenodd" clip-rule="evenodd" d="M72.6191 23.0361C74.2511 23.0361 75.3672 24.3801 75.3672 26.0361C75.3672 26.2641 75.3428 26.4082 75.3428 26.4082H70.7715C70.8556 27.3801 71.6593 28.1962 72.8711 28.1963C73.6151 28.1963 74.3357 27.8965 75.0557 27.2725V28.3877C74.4077 28.8557 73.6148 29.1318 72.7988 29.1318C70.9391 29.1316 69.7393 27.7999 69.7393 26.084C69.7393 24.344 70.9392 23.0362 72.6191 23.0361ZM72.5957 23.9355C71.6238 23.9355 70.8671 24.7638 70.7949 25.5557H74.3232C74.2391 24.632 73.5553 23.9358 72.5957 23.9355Z" fill="white"/>
<path fill-rule="evenodd" clip-rule="evenodd" d="M89.8105 23.0361C91.4425 23.0361 92.5586 24.3801 92.5586 26.0361C92.5586 26.2641 92.5342 26.4082 92.5342 26.4082H87.9629C88.047 27.3801 88.8507 28.1962 90.0625 28.1963C90.8065 28.1963 91.5271 27.8965 92.2471 27.2725V28.3877C91.5991 28.8557 90.8062 29.1318 89.9902 29.1318C88.1305 29.1316 86.9307 27.7999 86.9307 26.084C86.9307 24.344 88.1306 23.0362 89.8105 23.0361ZM89.7871 23.9355C88.8152 23.9355 88.0585 24.7638 87.9863 25.5557H91.5146C91.4305 24.632 90.7468 23.9358 89.7871 23.9355Z" fill="white"/>
<path d="M102.274 23.168H103.906V24.0918H102.274V27.1758C102.274 27.8597 102.574 28.1718 103.246 28.1719C103.474 28.1719 103.726 28.1121 103.906 27.9922V28.9521C103.702 29.0601 103.403 29.1318 103.007 29.1318C101.903 29.1318 101.242 28.4481 101.242 27.3203V24.0918H100.234V23.96L102.238 21.7998H102.274V23.168Z" fill="white"/>
<path d="M65.5605 21.584H61.9609V24.1523H65.3086V25.124H61.9609V28.0156H65.585V29H60.8926V20.5996H65.5605V21.584Z" fill="white"/>
<path d="M68.2383 29H67.2061V20.5996H68.2383V29Z" fill="white"/>
<path d="M83.3682 23.0361C84.7119 23.0363 85.5156 23.9845 85.5156 25.4844V29H84.4834V25.6641C84.4834 24.6322 84.0398 23.9845 83.1641 23.9844C82.2641 23.9844 81.6758 24.7524 81.6758 25.9404V29H80.6436V25.6885C80.6436 24.6445 80.1872 23.9844 79.3232 23.9844C78.4235 23.9846 77.8359 24.7526 77.8359 25.9404V29H76.8037V23.168H77.8232V24.0078C78.1472 23.4078 78.736 23.0361 79.54 23.0361C80.4038 23.0362 81.028 23.4679 81.376 24.1758C81.664 23.6838 82.2644 23.0361 83.3682 23.0361Z" fill="white"/>
<path d="M96.8867 23.0361C98.3747 23.0361 99.2393 24.0321 99.2393 25.5801V29H98.207V25.7002C98.207 24.6562 97.6669 23.9961 96.6709 23.9961C95.675 23.9962 95.0273 24.7642 95.0273 25.9521V29H93.9951V23.168H95.0273V24.0078C95.3873 23.432 96.0111 23.0363 96.8867 23.0361Z" fill="white"/>
</g>
<defs>
<clipPath id="clip0_1663_178826">
<rect width="163.2" height="163.2" fill="white" transform="translate(0.799805)"/>
</clipPath>
</defs>
</svg>
