<svg width="281" height="56" viewBox="0 0 281 56" fill="none" xmlns="http://www.w3.org/2000/svg">
<path d="M275 1C277.761 1 280 3.23857 280 6V50C280 52.7614 277.761 55 275 55H6C3.23858 55 1 52.7614 1 50V6C1 3.23858 3.23858 1 6 1H275Z" fill="white"/>
<path fill-rule="evenodd" clip-rule="evenodd" d="M275 0C278.314 0 281 2.68629 281 6V50L280.992 50.3086C280.837 53.3767 278.377 55.8367 275.309 55.9922L275 56H6L5.69141 55.9922C2.62332 55.8368 0.16325 53.3767 0.0078125 50.3086L0 50V6C2.57711e-07 2.68629 2.68629 4.42926e-08 6 0H275ZM6 1C3.23858 1 1 3.23858 1 6V50C1 52.7614 3.23858 55 6 55H275C277.761 55 280 52.7614 280 50V6C280 3.23857 277.761 1 275 1H6Z" fill="#0056CF"/>
<path d="M62.832 9C64.4889 9 65.832 10.3431 65.832 12V44C65.832 45.6569 64.4889 47 62.832 47H30.832C29.1752 47 27.832 45.6569 27.832 44V12C27.832 10.3431 29.1752 9 30.832 9H62.832Z" fill="#F3F7FB"/>
<path fill-rule="evenodd" clip-rule="evenodd" d="M63.0381 8.00488C65.1515 8.11212 66.832 9.85996 66.832 12V44L66.8271 44.2061C66.7234 46.2512 65.0832 47.8913 63.0381 47.9951L62.832 48H30.832C28.692 48 26.9441 46.3194 26.8369 44.2061L26.832 44V12C26.832 9.79086 28.6229 8 30.832 8H62.832L63.0381 8.00488ZM30.832 9C29.1752 9 27.832 10.3431 27.832 12V44C27.832 45.6569 29.1752 47 30.832 47H62.832C64.4889 47 65.832 45.6569 65.832 44V12C65.832 10.3431 64.4889 9 62.832 9H30.832Z" fill="#E4E8F0"/>
<path d="M48.5129 32.9999H46.2189V24.8314L44.2969 25.5754V23.3279L46.6994 22.3514H48.5129V32.9999Z" fill="#242B42"/>
<path d="M157 9C158.657 9 160 10.3431 160 12V44C160 45.6569 158.657 47 157 47H125C123.343 47 122 45.6569 122 44V12C122 10.3431 123.343 9 125 9H157Z" fill="#F3F7FB"/>
<path fill-rule="evenodd" clip-rule="evenodd" d="M157.206 8.00488C159.319 8.11212 161 9.85996 161 12V44L160.995 44.2061C160.891 46.2512 159.251 47.8913 157.206 47.9951L157 48H125C122.86 48 121.112 46.3194 121.005 44.2061L121 44V12C121 9.79086 122.791 8 125 8H157L157.206 8.00488ZM125 9C123.343 9 122 10.3431 122 12V44C122 45.6569 123.343 47 125 47H157C158.657 47 160 45.6569 160 44V12C160 10.3431 158.657 9 157 9H125Z" fill="#E4E8F0"/>
<path d="M144.797 33H137.574V31.3725L141.062 27.916C142.054 26.955 142.333 26.459 142.333 25.746C142.333 24.8935 141.604 24.289 140.581 24.289C139.589 24.289 138.659 24.847 137.822 25.7615V23.328C138.644 22.584 139.713 22.1655 140.767 22.1655C142.906 22.1655 144.627 23.4675 144.627 25.498C144.627 26.9085 144.038 27.947 142.689 29.187L140.783 30.954H144.797V33Z" fill="#242B42"/>
<path d="M250.164 9C251.821 9 253.164 10.3431 253.164 12V44C253.164 45.6569 251.821 47 250.164 47H218.164C216.507 47 215.164 45.6569 215.164 44V12C215.164 10.3431 216.507 9 218.164 9H250.164Z" fill="#F3F7FB"/>
<path fill-rule="evenodd" clip-rule="evenodd" d="M250.37 8.00488C252.484 8.11212 254.164 9.85996 254.164 12V44L254.159 44.2061C254.055 46.2512 252.415 47.8913 250.37 47.9951L250.164 48H218.164C216.024 48 214.276 46.3194 214.169 44.2061L214.164 44V12C214.164 9.79086 215.955 8 218.164 8H250.164L250.37 8.00488ZM218.164 9C216.507 9 215.164 10.3431 215.164 12V44C215.164 45.6569 216.507 47 218.164 47H250.164C251.821 47 253.164 45.6569 253.164 44V12C253.164 10.3431 251.821 9 250.164 9H218.164Z" fill="#E4E8F0"/>
<path d="M237.714 29.8225C237.714 31.8375 236.117 33.2015 233.684 33.2015C232.645 33.2015 231.669 32.938 230.785 32.3955V30.0705C231.669 30.768 232.568 31.109 233.498 31.109C234.629 31.109 235.42 30.5975 235.42 29.6985C235.42 28.908 234.676 28.3655 233.575 28.3655H232.568V26.5675H233.529C234.428 26.5675 235.048 26.0715 235.048 25.4205C235.048 24.6765 234.319 24.2425 233.451 24.2425C232.599 24.2425 231.824 24.568 231.002 25.2345V22.956C231.777 22.429 232.692 22.1655 233.637 22.1655C235.745 22.1655 237.295 23.2815 237.295 25.1415C237.295 26.1335 236.784 26.8775 235.978 27.327C237.078 27.7765 237.714 28.66 237.714 29.8225Z" fill="#242B42"/>
</svg>
