<svg width="281" height="56" viewBox="0 0 281 56" fill="none" xmlns="http://www.w3.org/2000/svg">
<path d="M275 1C277.761 1 280 3.23857 280 6V50C280 52.7614 277.761 55 275 55H6C3.23858 55 1 52.7614 1 50V6C1 3.23858 3.23858 1 6 1H275Z" fill="white"/>
<path fill-rule="evenodd" clip-rule="evenodd" d="M275 0C278.314 0 281 2.68629 281 6V50L280.992 50.3086C280.837 53.3767 278.377 55.8367 275.309 55.9922L275 56H6L5.69141 55.9922C2.62332 55.8368 0.16325 53.3767 0.0078125 50.3086L0 50V6C2.57711e-07 2.68629 2.68629 4.42926e-08 6 0H275ZM6 1C3.23858 1 1 3.23858 1 6V50C1 52.7614 3.23858 55 6 55H275C277.761 55 280 52.7614 280 50V6C280 3.23857 277.761 1 275 1H6Z" fill="#0056CF"/>
<path d="M109 9C110.657 9 112 10.3431 112 12V44C112 45.6569 110.657 47 109 47H77C75.3431 47 74 45.6569 74 44V12C74 10.3431 75.3431 9 77 9H109Z" fill="#F3F7FB"/>
<path fill-rule="evenodd" clip-rule="evenodd" d="M109.206 8.00488C111.319 8.11212 113 9.85996 113 12V44L112.995 44.2061C112.891 46.2512 111.251 47.8913 109.206 47.9951L109 48H77C74.86 48 73.1121 46.3194 73.0049 44.2061L73 44V12C73 9.79086 74.7909 8 77 8H109L109.206 8.00488ZM77 9C75.3431 9 74 10.3431 74 12V44C74 45.6569 75.3431 47 77 47H109C110.657 47 112 45.6569 112 44V12C112 10.3431 110.657 9 109 9H77Z" fill="#E4E8F0"/>
<path d="M94.6808 32.9999H92.3868V24.8314L90.4648 25.5754V23.3279L92.8673 22.3514H94.6808V32.9999Z" fill="#242B42"/>
<path d="M157 9C158.657 9 160 10.3431 160 12V44C160 45.6569 158.657 47 157 47H125C123.343 47 122 45.6569 122 44V12C122 10.3431 123.343 9 125 9H157Z" fill="#F3F7FB"/>
<path fill-rule="evenodd" clip-rule="evenodd" d="M157.206 8.00488C159.319 8.11212 161 9.85996 161 12V44L160.995 44.2061C160.891 46.2512 159.251 47.8913 157.206 47.9951L157 48H125C122.86 48 121.112 46.3194 121.005 44.2061L121 44V12C121 9.79086 122.791 8 125 8H157L157.206 8.00488ZM125 9C123.343 9 122 10.3431 122 12V44C122 45.6569 123.343 47 125 47H157C158.657 47 160 45.6569 160 44V12C160 10.3431 158.657 9 157 9H125Z" fill="#E4E8F0"/>
<path d="M144.797 33H137.574V31.3725L141.062 27.916C142.054 26.955 142.333 26.459 142.333 25.746C142.333 24.8935 141.604 24.289 140.581 24.289C139.589 24.289 138.659 24.847 137.822 25.7615V23.328C138.644 22.584 139.713 22.1655 140.767 22.1655C142.906 22.1655 144.627 23.4675 144.627 25.498C144.627 26.9085 144.038 27.947 142.689 29.187L140.783 30.954H144.797V33Z" fill="#242B42"/>
<path d="M205 9C206.657 9 208 10.3431 208 12V44C208 45.6569 206.657 47 205 47H173C171.343 47 170 45.6569 170 44V12C170 10.3431 171.343 9 173 9H205Z" fill="#F3F7FB"/>
<path fill-rule="evenodd" clip-rule="evenodd" d="M205.206 8.00488C207.319 8.11212 209 9.85996 209 12V44L208.995 44.2061C208.891 46.2512 207.251 47.8913 205.206 47.9951L205 48H173C170.86 48 169.112 46.3194 169.005 44.2061L169 44V12C169 9.79086 170.791 8 173 8H205L205.206 8.00488ZM173 9C171.343 9 170 10.3431 170 12V44C170 45.6569 171.343 47 173 47H205C206.657 47 208 45.6569 208 44V12C208 10.3431 206.657 9 205 9H173Z" fill="#E4E8F0"/>
<path d="M192.55 29.8225C192.55 31.8375 190.953 33.2015 188.52 33.2015C187.481 33.2015 186.505 32.938 185.621 32.3955V30.0705C186.505 30.768 187.404 31.109 188.334 31.109C189.465 31.109 190.256 30.5975 190.256 29.6985C190.256 28.908 189.512 28.3655 188.411 28.3655H187.404V26.5675H188.365C189.264 26.5675 189.884 26.0715 189.884 25.4205C189.884 24.6765 189.155 24.2425 188.287 24.2425C187.435 24.2425 186.66 24.568 185.838 25.2345V22.956C186.613 22.429 187.528 22.1655 188.473 22.1655C190.581 22.1655 192.131 23.2815 192.131 25.1415C192.131 26.1335 191.62 26.8775 190.814 27.327C191.914 27.7765 192.55 28.66 192.55 29.8225Z" fill="#242B42"/>
</svg>
