<svg width="281" height="56" viewBox="0 0 281 56" fill="none" xmlns="http://www.w3.org/2000/svg">
<path d="M275 1C277.761 1 280 3.23857 280 6V50C280 52.7614 277.761 55 275 55H6C3.23858 55 1 52.7614 1 50V6C1 3.23858 3.23858 1 6 1H275Z" fill="white"/>
<path fill-rule="evenodd" clip-rule="evenodd" d="M275 0C278.314 0 281 2.68629 281 6V50L280.992 50.3086C280.837 53.3767 278.377 55.8367 275.309 55.9922L275 56H6L5.69141 55.9922C2.62332 55.8368 0.16325 53.3767 0.0078125 50.3086L0 50V6C2.57711e-07 2.68629 2.68629 4.42926e-08 6 0H275ZM6 1C3.23858 1 1 3.23858 1 6V50C1 52.7614 3.23858 55 6 55H275C277.761 55 280 52.7614 280 50V6C280 3.23857 277.761 1 275 1H6Z" fill="#0056CF"/>
<path d="M44 9C45.6569 9 47 10.3431 47 12V44C47 45.6569 45.6569 47 44 47H12C10.3431 47 9 45.6569 9 44V12C9 10.3431 10.3431 9 12 9H44Z" fill="#F3F7FB"/>
<path fill-rule="evenodd" clip-rule="evenodd" d="M44.2061 8.00488C46.3194 8.11212 48 9.85996 48 12V44L47.9951 44.2061C47.8913 46.2512 46.2512 47.8913 44.2061 47.9951L44 48H12C9.85996 48 8.11211 46.3194 8.00488 44.2061L8 44V12C8 9.79086 9.79086 8 12 8H44L44.2061 8.00488ZM12 9C10.3431 9 9 10.3431 9 12V44C9 45.6569 10.3431 47 12 47H44C45.6569 47 47 45.6569 47 44V12C47 10.3431 45.6569 9 44 9H12Z" fill="#E4E8F0"/>
<path d="M29.6808 32.9999H27.3868V24.8314L25.4648 25.5754V23.3279L27.8673 22.3514H29.6808V32.9999Z" fill="#242B42"/>
<path d="M92 9C93.6569 9 95 10.3431 95 12V44C95 45.6569 93.6569 47 92 47H60C58.3431 47 57 45.6569 57 44V12C57 10.3431 58.3431 9 60 9H92Z" fill="#F3F7FB"/>
<path fill-rule="evenodd" clip-rule="evenodd" d="M92.2061 8.00488C94.3194 8.11212 96 9.85996 96 12V44L95.9951 44.2061C95.8913 46.2512 94.2512 47.8913 92.2061 47.9951L92 48H60C57.86 48 56.1121 46.3194 56.0049 44.2061L56 44V12C56 9.79086 57.7909 8 60 8H92L92.2061 8.00488ZM60 9C58.3431 9 57 10.3431 57 12V44C57 45.6569 58.3431 47 60 47H92C93.6569 47 95 45.6569 95 44V12C95 10.3431 93.6569 9 92 9H60Z" fill="#E4E8F0"/>
<path d="M79.7972 33H72.5742V31.3725L76.0617 27.916C77.0537 26.955 77.3327 26.459 77.3327 25.746C77.3327 24.8935 76.6042 24.289 75.5812 24.289C74.5892 24.289 73.6592 24.847 72.8222 25.7615V23.328C73.6437 22.584 74.7132 22.1655 75.7672 22.1655C77.9062 22.1655 79.6267 23.4675 79.6267 25.498C79.6267 26.9085 79.0377 27.947 77.6892 29.187L75.7827 30.954H79.7972V33Z" fill="#242B42"/>
<path d="M140 9C141.657 9 143 10.3431 143 12V44C143 45.6569 141.657 47 140 47H108C106.343 47 105 45.6569 105 44V12C105 10.3431 106.343 9 108 9H140Z" fill="#F3F7FB"/>
<path fill-rule="evenodd" clip-rule="evenodd" d="M140.206 8.00488C142.319 8.11212 144 9.85996 144 12V44L143.995 44.2061C143.891 46.2512 142.251 47.8913 140.206 47.9951L140 48H108C105.86 48 104.112 46.3194 104.005 44.2061L104 44V12C104 9.79086 105.791 8 108 8H140L140.206 8.00488ZM108 9C106.343 9 105 10.3431 105 12V44C105 45.6569 106.343 47 108 47H140C141.657 47 143 45.6569 143 44V12C143 10.3431 141.657 9 140 9H108Z" fill="#E4E8F0"/>
<path d="M127.55 29.8225C127.55 31.8375 125.953 33.2015 123.52 33.2015C122.481 33.2015 121.505 32.938 120.621 32.3955V30.0705C121.505 30.768 122.404 31.109 123.334 31.109C124.465 31.109 125.256 30.5975 125.256 29.6985C125.256 28.908 124.512 28.3655 123.411 28.3655H122.404V26.5675H123.365C124.264 26.5675 124.884 26.0715 124.884 25.4205C124.884 24.6765 124.155 24.2425 123.287 24.2425C122.435 24.2425 121.66 24.568 120.838 25.2345V22.956C121.613 22.429 122.528 22.1655 123.473 22.1655C125.581 22.1655 127.131 23.2815 127.131 25.1415C127.131 26.1335 126.62 26.8775 125.814 27.327C126.914 27.7765 127.55 28.66 127.55 29.8225Z" fill="#242B42"/>
</svg>
