<svg width="281" height="56" viewBox="0 0 281 56" fill="none" xmlns="http://www.w3.org/2000/svg">
<path d="M275 1C277.761 1 280 3.23857 280 6V50C280 52.7614 277.761 55 275 55H6C3.23858 55 1 52.7614 1 50V6C1 3.23858 3.23858 1 6 1H275Z" fill="white"/>
<path fill-rule="evenodd" clip-rule="evenodd" d="M275 0C278.314 0 281 2.68629 281 6V50L280.992 50.3086C280.837 53.3767 278.377 55.8367 275.309 55.9922L275 56H6L5.69141 55.9922C2.62332 55.8368 0.16325 53.3767 0.0078125 50.3086L0 50V6C2.57711e-07 2.68629 2.68629 4.42926e-08 6 0H275ZM6 1C3.23858 1 1 3.23858 1 6V50C1 52.7614 3.23858 55 6 55H275C277.761 55 280 52.7614 280 50V6C280 3.23857 277.761 1 275 1H6Z" fill="#0056CF"/>
<path d="M173 9C174.657 9 176 10.3431 176 12V44C176 45.6569 174.657 47 173 47H141C139.343 47 138 45.6569 138 44V12C138 10.3431 139.343 9 141 9H173Z" fill="#F3F7FB"/>
<path fill-rule="evenodd" clip-rule="evenodd" d="M173.206 8.00488C175.319 8.11212 177 9.85996 177 12V44L176.995 44.2061C176.891 46.2512 175.251 47.8913 173.206 47.9951L173 48H141C138.86 48 137.112 46.3194 137.005 44.2061L137 44V12C137 9.79086 138.791 8 141 8H173L173.206 8.00488ZM141 9C139.343 9 138 10.3431 138 12V44C138 45.6569 139.343 47 141 47H173C174.657 47 176 45.6569 176 44V12C176 10.3431 174.657 9 173 9H141Z" fill="#E4E8F0"/>
<path d="M158.681 32.9999H156.387V24.8314L154.465 25.5754V23.3279L156.867 22.3514H158.681V32.9999Z" fill="#242B42"/>
<path d="M221 9C222.657 9 224 10.3431 224 12V44C224 45.6569 222.657 47 221 47H189C187.343 47 186 45.6569 186 44V12C186 10.3431 187.343 9 189 9H221Z" fill="#F3F7FB"/>
<path fill-rule="evenodd" clip-rule="evenodd" d="M221.206 8.00488C223.319 8.11212 225 9.85996 225 12V44L224.995 44.2061C224.891 46.2512 223.251 47.8913 221.206 47.9951L221 48H189C186.86 48 185.112 46.3194 185.005 44.2061L185 44V12C185 9.79086 186.791 8 189 8H221L221.206 8.00488ZM189 9C187.343 9 186 10.3431 186 12V44C186 45.6569 187.343 47 189 47H221C222.657 47 224 45.6569 224 44V12C224 10.3431 222.657 9 221 9H189Z" fill="#E4E8F0"/>
<path d="M208.797 33H201.574V31.3725L205.062 27.916C206.054 26.955 206.333 26.459 206.333 25.746C206.333 24.8935 205.604 24.289 204.581 24.289C203.589 24.289 202.659 24.847 201.822 25.7615V23.328C202.644 22.584 203.713 22.1655 204.767 22.1655C206.906 22.1655 208.627 23.4675 208.627 25.498C208.627 26.9085 208.038 27.947 206.689 29.187L204.783 30.954H208.797V33Z" fill="#242B42"/>
<path d="M269 9C270.657 9 272 10.3431 272 12V44C272 45.6569 270.657 47 269 47H237C235.343 47 234 45.6569 234 44V12C234 10.3431 235.343 9 237 9H269Z" fill="#F3F7FB"/>
<path fill-rule="evenodd" clip-rule="evenodd" d="M269.206 8.00488C271.319 8.11212 273 9.85996 273 12V44L272.995 44.2061C272.891 46.2512 271.251 47.8913 269.206 47.9951L269 48H237C234.86 48 233.112 46.3194 233.005 44.2061L233 44V12C233 9.79086 234.791 8 237 8H269L269.206 8.00488ZM237 9C235.343 9 234 10.3431 234 12V44C234 45.6569 235.343 47 237 47H269C270.657 47 272 45.6569 272 44V12C272 10.3431 270.657 9 269 9H237Z" fill="#E4E8F0"/>
<path d="M256.55 29.8225C256.55 31.8375 254.953 33.2015 252.52 33.2015C251.481 33.2015 250.505 32.938 249.621 32.3955V30.0705C250.505 30.768 251.404 31.109 252.334 31.109C253.465 31.109 254.256 30.5975 254.256 29.6985C254.256 28.908 253.512 28.3655 252.411 28.3655H251.404V26.5675H252.365C253.264 26.5675 253.884 26.0715 253.884 25.4205C253.884 24.6765 253.155 24.2425 252.287 24.2425C251.435 24.2425 250.66 24.568 249.838 25.2345V22.956C250.613 22.429 251.528 22.1655 252.473 22.1655C254.581 22.1655 256.131 23.2815 256.131 25.1415C256.131 26.1335 255.62 26.8775 254.814 27.327C255.914 27.7765 256.55 28.66 256.55 29.8225Z" fill="#242B42"/>
</svg>
