<svg width="281" height="56" viewBox="0 0 281 56" fill="none" xmlns="http://www.w3.org/2000/svg">
<path d="M275 1C277.761 1 280 3.23857 280 6V50C280 52.7614 277.761 55 275 55H6C3.23858 55 1 52.7614 1 50V6C1 3.23858 3.23858 1 6 1H275Z" fill="white"/>
<path fill-rule="evenodd" clip-rule="evenodd" d="M275 0C278.314 0 281 2.68629 281 6V50L280.992 50.3086C280.837 53.3767 278.377 55.8367 275.309 55.9922L275 56H6L5.69141 55.9922C2.62332 55.8368 0.16325 53.3767 0.0078125 50.3086L0 50V6C2.57711e-07 2.68629 2.68629 4.42926e-08 6 0H275ZM6 1C3.23858 1 1 3.23858 1 6V50C1 52.7614 3.23858 55 6 55H275C277.761 55 280 52.7614 280 50V6C280 3.23857 277.761 1 275 1H6Z" fill="#0056CF"/>
<path d="M76.25 9C77.9069 9 79.25 10.3431 79.25 12V44C79.25 45.6569 77.9069 47 76.25 47H44.25C42.5931 47 41.25 45.6569 41.25 44V12C41.25 10.3431 42.5931 9 44.25 9H76.25Z" fill="#F3F7FB"/>
<path fill-rule="evenodd" clip-rule="evenodd" d="M76.4561 8.00488C78.5694 8.11212 80.25 9.85996 80.25 12V44L80.2451 44.2061C80.1413 46.2512 78.5012 47.8913 76.4561 47.9951L76.25 48H44.25C42.11 48 40.3621 46.3194 40.2549 44.2061L40.25 44V12C40.25 9.79086 42.0409 8 44.25 8H76.25L76.4561 8.00488ZM44.25 9C42.5931 9 41.25 10.3431 41.25 12V44C41.25 45.6569 42.5931 47 44.25 47H76.25C77.9069 47 79.25 45.6569 79.25 44V12C79.25 10.3431 77.9069 9 76.25 9H44.25Z" fill="#E4E8F0"/>
<path d="M61.9308 32.9999H59.6368V24.8314L57.7148 25.5754V23.3279L60.1173 22.3514H61.9308V32.9999Z" fill="#242B42"/>
<path d="M157 9C158.657 9 160 10.3431 160 12V44C160 45.6569 158.657 47 157 47H125C123.343 47 122 45.6569 122 44V12C122 10.3431 123.343 9 125 9H157Z" fill="#F3F7FB"/>
<path fill-rule="evenodd" clip-rule="evenodd" d="M157.206 8.00488C159.319 8.11212 161 9.85996 161 12V44L160.995 44.2061C160.891 46.2512 159.251 47.8913 157.206 47.9951L157 48H125C122.86 48 121.112 46.3194 121.005 44.2061L121 44V12C121 9.79086 122.791 8 125 8H157L157.206 8.00488ZM125 9C123.343 9 122 10.3431 122 12V44C122 45.6569 123.343 47 125 47H157C158.657 47 160 45.6569 160 44V12C160 10.3431 158.657 9 157 9H125Z" fill="#E4E8F0"/>
<path d="M144.797 33H137.574V31.3725L141.062 27.916C142.054 26.955 142.333 26.459 142.333 25.746C142.333 24.8935 141.604 24.289 140.581 24.289C139.589 24.289 138.659 24.847 137.822 25.7615V23.328C138.644 22.584 139.713 22.1655 140.767 22.1655C142.906 22.1655 144.627 23.4675 144.627 25.498C144.627 26.9085 144.038 27.947 142.689 29.187L140.783 30.954H144.797V33Z" fill="#242B42"/>
<path d="M236.75 9C238.407 9 239.75 10.3431 239.75 12V44C239.75 45.6569 238.407 47 236.75 47H204.75C203.093 47 201.75 45.6569 201.75 44V12C201.75 10.3431 203.093 9 204.75 9H236.75Z" fill="#F3F7FB"/>
<path fill-rule="evenodd" clip-rule="evenodd" d="M236.956 8.00488C239.069 8.11212 240.75 9.85996 240.75 12V44L240.745 44.2061C240.641 46.2512 239.001 47.8913 236.956 47.9951L236.75 48H204.75C202.61 48 200.862 46.3194 200.755 44.2061L200.75 44V12C200.75 9.79086 202.541 8 204.75 8H236.75L236.956 8.00488ZM204.75 9C203.093 9 201.75 10.3431 201.75 12V44C201.75 45.6569 203.093 47 204.75 47H236.75C238.407 47 239.75 45.6569 239.75 44V12C239.75 10.3431 238.407 9 236.75 9H204.75Z" fill="#E4E8F0"/>
<path d="M224.3 29.8225C224.3 31.8375 222.703 33.2015 220.27 33.2015C219.231 33.2015 218.255 32.938 217.371 32.3955V30.0705C218.255 30.768 219.154 31.109 220.084 31.109C221.215 31.109 222.006 30.5975 222.006 29.6985C222.006 28.908 221.262 28.3655 220.161 28.3655H219.154V26.5675H220.115C221.014 26.5675 221.634 26.0715 221.634 25.4205C221.634 24.6765 220.905 24.2425 220.037 24.2425C219.185 24.2425 218.41 24.568 217.588 25.2345V22.956C218.363 22.429 219.278 22.1655 220.223 22.1655C222.331 22.1655 223.881 23.2815 223.881 25.1415C223.881 26.1335 223.37 26.8775 222.564 27.327C223.664 27.7765 224.3 28.66 224.3 29.8225Z" fill="#242B42"/>
</svg>
