<svg width="362" height="159" viewBox="0 0 362 159" fill="none" xmlns="http://www.w3.org/2000/svg">
<path d="M54.4997 71.1875C54.7809 70.9688 55.1872 70.9688 55.4684 71.1875L63.7184 78.1875C64.0309 78.4688 64.0934 78.9375 63.8122 79.25C63.5309 79.5625 63.0622 79.5938 62.7497 79.3438L61.9997 78.6875V84.5C61.9997 85.9062 60.8747 87 59.4997 87H50.4997C49.0934 87 47.9997 85.9062 47.9997 84.5V78.6875L47.2184 79.3438C46.9059 79.5938 46.4372 79.5625 46.1559 79.25C45.9059 78.9375 45.9372 78.4688 46.2497 78.1875L54.4997 71.1875ZM54.9997 72.75L49.4997 77.4062V84.5C49.4997 85.0625 49.9372 85.5 50.4997 85.5H51.9997V80.75C51.9997 80.0625 52.5309 79.5 53.2497 79.5H56.7497C57.4372 79.5 57.9997 80.0625 57.9997 80.75V85.5H59.4997C60.0309 85.5 60.4997 85.0625 60.4997 84.5V77.4062L54.9997 72.75ZM53.4997 85.5H56.4997V81H53.4997V85.5Z" fill="#0056CF"/>
<path d="M72.6355 79.075C72.6355 75.8975 75.1155 73.4485 78.2465 73.4485C79.192 73.4485 80.153 73.6965 81.0055 74.177V76.688C80.184 76.068 79.3315 75.727 78.324 75.727C76.433 75.727 75.038 77.1995 75.038 79.075C75.038 80.9195 76.371 82.4075 78.324 82.4075C79.316 82.4075 80.1685 82.082 81.021 81.4775V83.973C80.0755 84.5 79.0835 84.7015 78.2155 84.7015C74.9295 84.7015 72.6355 82.299 72.6355 79.075ZM87.55 76.719V79.044C87.426 78.982 87.209 78.951 86.9765 78.951C85.721 78.951 84.977 79.881 84.977 81.3845V84.5H82.7295V76.843H84.9615V78.0985C85.3645 77.215 86.1705 76.6725 87.1625 76.6725C87.333 76.6725 87.5035 76.7035 87.55 76.719ZM93.9005 80.8885V76.843H96.1635V84.5H93.9005V83.5235C93.451 84.252 92.676 84.7015 91.6685 84.7015C89.9325 84.7015 88.863 83.4925 88.863 81.5705V76.843H91.126V81.028C91.126 82.0355 91.622 82.6245 92.4745 82.6245C93.3425 82.6245 93.9005 81.9735 93.9005 80.8885ZM100.547 80.408V84.5H98.2841V76.843H100.547V77.804C100.95 77.1065 101.694 76.6415 102.702 76.6415C103.74 76.6415 104.531 77.1375 104.949 77.9745C105.43 77.1685 106.298 76.6415 107.414 76.6415C109.165 76.6415 110.157 77.835 110.157 79.695V84.5H107.894V80.222C107.894 79.2765 107.46 78.703 106.67 78.703C105.895 78.703 105.368 79.3385 105.352 80.3615V84.5H103.089V80.253C103.089 79.2765 102.655 78.703 101.88 78.703C101.074 78.703 100.547 79.354 100.547 80.408ZM114.371 84.5H112.124V73.65H114.371V77.866C114.914 77.0755 115.844 76.657 116.851 76.657C118.913 76.657 120.478 78.393 120.478 80.6715C120.478 82.9345 118.913 84.686 116.851 84.686C115.844 84.686 114.914 84.314 114.371 83.508V84.5ZM118.231 80.6715C118.231 79.571 117.363 78.6875 116.262 78.6875C115.162 78.6875 114.294 79.571 114.294 80.6715C114.294 81.772 115.162 82.6555 116.262 82.6555C117.363 82.6555 118.231 81.772 118.231 80.6715Z" fill="#0056CF"/>
<path d="M131.077 84.32H130.133L133.925 73.008H134.869L131.077 84.32Z" fill="#242B42"/>
<path d="M151.5 71.1875C151.781 70.9688 152.187 70.9688 152.468 71.1875L160.718 78.1875C161.031 78.4688 161.093 78.9375 160.812 79.25C160.531 79.5625 160.062 79.5938 159.75 79.3438L159 78.6875V84.5C159 85.9062 157.875 87 156.5 87H147.5C146.093 87 145 85.9062 145 84.5V78.6875L144.218 79.3438C143.906 79.5938 143.437 79.5625 143.156 79.25C142.906 78.9375 142.937 78.4688 143.25 78.1875L151.5 71.1875ZM152 72.75L146.5 77.4062V84.5C146.5 85.0625 146.937 85.5 147.5 85.5H149V80.75C149 80.0625 149.531 79.5 150.25 79.5H153.75C154.437 79.5 155 80.0625 155 80.75V85.5H156.5C157.031 85.5 157.5 85.0625 157.5 84.5V77.4062L152 72.75ZM150.5 85.5H153.5V81H150.5V85.5Z" fill="#0056CF"/>
<path d="M169.636 79.075C169.636 75.8975 172.116 73.4485 175.247 73.4485C176.192 73.4485 177.153 73.6965 178.006 74.177V76.688C177.184 76.068 176.332 75.727 175.324 75.727C173.433 75.727 172.038 77.1995 172.038 79.075C172.038 80.9195 173.371 82.4075 175.324 82.4075C176.316 82.4075 177.169 82.082 178.021 81.4775V83.973C177.076 84.5 176.084 84.7015 175.216 84.7015C171.93 84.7015 169.636 82.299 169.636 79.075ZM184.55 76.719V79.044C184.426 78.982 184.209 78.951 183.977 78.951C182.721 78.951 181.977 79.881 181.977 81.3845V84.5H179.73V76.843H181.962V78.0985C182.365 77.215 183.171 76.6725 184.163 76.6725C184.333 76.6725 184.504 76.7035 184.55 76.719ZM190.901 80.8885V76.843H193.164V84.5H190.901V83.5235C190.451 84.252 189.676 84.7015 188.669 84.7015C186.933 84.7015 185.863 83.4925 185.863 81.5705V76.843H188.126V81.028C188.126 82.0355 188.622 82.6245 189.475 82.6245C190.343 82.6245 190.901 81.9735 190.901 80.8885ZM197.547 80.408V84.5H195.284V76.843H197.547V77.804C197.95 77.1065 198.694 76.6415 199.702 76.6415C200.74 76.6415 201.531 77.1375 201.949 77.9745C202.43 77.1685 203.298 76.6415 204.414 76.6415C206.165 76.6415 207.157 77.835 207.157 79.695V84.5H204.894V80.222C204.894 79.2765 204.46 78.703 203.67 78.703C202.895 78.703 202.368 79.3385 202.352 80.3615V84.5H200.089V80.253C200.089 79.2765 199.655 78.703 198.88 78.703C198.074 78.703 197.547 79.354 197.547 80.408ZM211.371 84.5H209.124V73.65H211.371V77.866C211.914 77.0755 212.844 76.657 213.851 76.657C215.913 76.657 217.478 78.393 217.478 80.6715C217.478 82.9345 215.913 84.686 213.851 84.686C212.844 84.686 211.914 84.314 211.371 83.508V84.5ZM215.231 80.6715C215.231 79.571 214.363 78.6875 213.262 78.6875C212.162 78.6875 211.294 79.571 211.294 80.6715C211.294 81.772 212.162 82.6555 213.262 82.6555C214.363 82.6555 215.231 81.772 215.231 80.6715Z" fill="#0056CF"/>
<path d="M228.077 84.32H227.133L230.925 73.008H231.869L228.077 84.32Z" fill="#242B42"/>
<path d="M248.5 71.1875C248.781 70.9688 249.187 70.9688 249.468 71.1875L257.718 78.1875C258.031 78.4688 258.093 78.9375 257.812 79.25C257.531 79.5625 257.062 79.5938 256.75 79.3438L256 78.6875V84.5C256 85.9062 254.875 87 253.5 87H244.5C243.093 87 242 85.9062 242 84.5V78.6875L241.218 79.3438C240.906 79.5938 240.437 79.5625 240.156 79.25C239.906 78.9375 239.937 78.4688 240.25 78.1875L248.5 71.1875ZM249 72.75L243.5 77.4062V84.5C243.5 85.0625 243.937 85.5 244.5 85.5H246V80.75C246 80.0625 246.531 79.5 247.25 79.5H250.75C251.437 79.5 252 80.0625 252 80.75V85.5H253.5C254.031 85.5 254.5 85.0625 254.5 84.5V77.4062L249 72.75ZM247.5 85.5H250.5V81H247.5V85.5Z" fill="#242B42"/>
<path d="M266.636 79.075C266.636 75.8975 269.116 73.4485 272.247 73.4485C273.192 73.4485 274.153 73.6965 275.006 74.177V76.688C274.184 76.068 273.332 75.727 272.324 75.727C270.433 75.727 269.038 77.1995 269.038 79.075C269.038 80.9195 270.371 82.4075 272.324 82.4075C273.316 82.4075 274.169 82.082 275.021 81.4775V83.973C274.076 84.5 273.084 84.7015 272.216 84.7015C268.93 84.7015 266.636 82.299 266.636 79.075ZM281.55 76.719V79.044C281.426 78.982 281.209 78.951 280.977 78.951C279.721 78.951 278.977 79.881 278.977 81.3845V84.5H276.73V76.843H278.962V78.0985C279.365 77.215 280.171 76.6725 281.163 76.6725C281.333 76.6725 281.504 76.7035 281.55 76.719ZM287.901 80.8885V76.843H290.164V84.5H287.901V83.5235C287.451 84.252 286.676 84.7015 285.669 84.7015C283.933 84.7015 282.863 83.4925 282.863 81.5705V76.843H285.126V81.028C285.126 82.0355 285.622 82.6245 286.475 82.6245C287.343 82.6245 287.901 81.9735 287.901 80.8885ZM294.547 80.408V84.5H292.284V76.843H294.547V77.804C294.95 77.1065 295.694 76.6415 296.702 76.6415C297.74 76.6415 298.531 77.1375 298.949 77.9745C299.43 77.1685 300.298 76.6415 301.414 76.6415C303.165 76.6415 304.157 77.835 304.157 79.695V84.5H301.894V80.222C301.894 79.2765 301.46 78.703 300.67 78.703C299.895 78.703 299.368 79.3385 299.352 80.3615V84.5H297.089V80.253C297.089 79.2765 296.655 78.703 295.88 78.703C295.074 78.703 294.547 79.354 294.547 80.408ZM308.371 84.5H306.124V73.65H308.371V77.866C308.914 77.0755 309.844 76.657 310.851 76.657C312.913 76.657 314.478 78.393 314.478 80.6715C314.478 82.9345 312.913 84.686 310.851 84.686C309.844 84.686 308.914 84.314 308.371 83.508V84.5ZM312.231 80.6715C312.231 79.571 311.363 78.6875 310.262 78.6875C309.162 78.6875 308.294 79.571 308.294 80.6715C308.294 81.772 309.162 82.6555 310.262 82.6555C311.363 82.6555 312.231 81.772 312.231 80.6715Z" fill="#242B42"/>
</svg>
