<svg width="362" height="159" viewBox="0 0 362 159" fill="none" xmlns="http://www.w3.org/2000/svg">
<mask id="path-1-inside-1_2274_15067" fill="white">
<path d="M53 49H138.392V97.392H53V49Z"/>
</mask>
<path d="M138.392 97.392V94.824H53V97.392V99.96H138.392V97.392Z" fill="#0056CF" mask="url(#path-1-inside-1_2274_15067)"/>
<path d="M74.2702 68.1081H76.2698V77.6953H74.2154L69.7094 71.3678V77.6953H67.7098V68.1081H69.8053L74.2702 74.4631V68.1081ZM83.8634 77.6953H82.0144L81.987 76.8462C81.5898 77.5447 80.8092 77.8734 80.0011 77.8734C78.7411 77.8734 77.8782 77.079 77.8782 75.8874C77.8782 74.6411 78.7137 73.8741 80.3983 73.6276L81.9322 73.4085V73.3263C81.9322 72.7648 81.4803 72.436 80.5626 72.436C79.6861 72.436 78.9054 72.7784 78.2891 73.34V71.4362C78.878 71.0391 79.7272 70.7514 80.7681 70.7514C82.7266 70.7514 83.8634 71.6965 83.8634 73.4496V77.6953ZM79.7683 75.7231C79.782 76.1066 80.097 76.3531 80.5489 76.3531C81.3844 76.3531 81.9322 75.7505 81.9322 74.9835V74.7507L80.7407 74.9424C80.097 75.0383 79.7683 75.3259 79.7683 75.7231ZM87.308 77.6953L84.5551 70.9295H86.6643L88.253 75.2026L89.8418 70.9295H91.8962L89.1433 77.6953H87.308ZM96.2387 68.1081H98.3068V77.6953H96.2387V68.1081ZM100.578 72.573H99.3453V72.3128L102.509 69.012H102.564V70.9295H104.276V72.573H102.564V75.052C102.564 75.7779 102.879 76.0655 103.509 76.0655C103.783 76.0655 104.07 75.9696 104.276 75.819V77.572C103.961 77.7364 103.468 77.8597 102.838 77.8597C101.4 77.8597 100.578 77.0379 100.578 75.5313V72.573ZM111.368 75.4355V77.2433C110.711 77.6268 109.834 77.8734 108.766 77.8734C106.451 77.8734 105.027 76.3805 105.027 74.285C105.027 72.258 106.451 70.7514 108.465 70.7514C110.533 70.7514 111.779 72.1758 111.779 74.2713C111.779 74.4768 111.752 74.7096 111.738 74.8739H106.999C107.15 75.6546 107.848 76.2024 108.985 76.2024C109.793 76.2024 110.56 75.9696 111.368 75.4355ZM106.972 73.5591H109.862C109.793 72.8058 109.232 72.2991 108.451 72.2991C107.67 72.2991 107.068 72.8743 106.972 73.5591ZM115.034 74.0796V77.6953H113.034V70.9295H115.034V71.7786C115.39 71.1623 116.048 70.7514 116.938 70.7514C117.855 70.7514 118.554 71.1897 118.924 71.9293C119.348 71.2171 120.115 70.7514 121.101 70.7514C122.649 70.7514 123.526 71.806 123.526 73.4496V77.6953H121.526V73.9152C121.526 73.0798 121.142 72.573 120.444 72.573C119.759 72.573 119.294 73.1345 119.28 74.0385V77.6953H117.28V73.9426C117.28 73.0798 116.897 72.573 116.212 72.573C115.5 72.573 115.034 73.1482 115.034 74.0796Z" fill="#242B42"/>
<mask id="path-4-inside-2_2274_15067" fill="white">
<path d="M138.392 49H223.784V97.392H138.392V49Z"/>
</mask>
<path d="M223.784 97.392V94.824H138.392V97.392V99.96H223.784V97.392Z" fill="#E4E8F0" mask="url(#path-4-inside-2_2274_15067)"/>
<path d="M159.662 68.1081H161.661V77.6953H159.607L155.101 71.3678V77.6953H153.101V68.1081H155.197L159.662 74.4631V68.1081ZM169.255 77.6953H167.406L167.379 76.8462C166.981 77.5447 166.201 77.8734 165.393 77.8734C164.133 77.8734 163.27 77.079 163.27 75.8874C163.27 74.6411 164.105 73.8741 165.79 73.6276L167.324 73.4085V73.3263C167.324 72.7648 166.872 72.436 165.954 72.436C165.078 72.436 164.297 72.7784 163.681 73.34V71.4362C164.27 71.0391 165.119 70.7514 166.16 70.7514C168.118 70.7514 169.255 71.6965 169.255 73.4496V77.6953ZM165.16 75.7231C165.174 76.1066 165.489 76.3531 165.941 76.3531C166.776 76.3531 167.324 75.7505 167.324 74.9835V74.7507L166.132 74.9424C165.489 75.0383 165.16 75.3259 165.16 75.7231ZM172.7 77.6953L169.947 70.9295H172.056L173.645 75.2026L175.233 70.9295H177.288L174.535 77.6953H172.7ZM181.63 68.1081H183.698V77.6953H181.63V68.1081ZM185.97 72.573H184.737V72.3128L187.901 69.012H187.955V70.9295H189.667V72.573H187.955V75.052C187.955 75.7779 188.27 76.0655 188.9 76.0655C189.174 76.0655 189.462 75.9696 189.667 75.819V77.572C189.352 77.7364 188.859 77.8597 188.229 77.8597C186.791 77.8597 185.97 77.0379 185.97 75.5313V72.573ZM196.76 75.4355V77.2433C196.102 77.6268 195.226 77.8734 194.158 77.8734C191.843 77.8734 190.419 76.3805 190.419 74.285C190.419 72.258 191.843 70.7514 193.856 70.7514C195.924 70.7514 197.171 72.1758 197.171 74.2713C197.171 74.4768 197.143 74.7096 197.13 74.8739H192.391C192.541 75.6546 193.24 76.2024 194.377 76.2024C195.185 76.2024 195.952 75.9696 196.76 75.4355ZM192.363 73.5591H195.253C195.185 72.8058 194.623 72.2991 193.843 72.2991C193.062 72.2991 192.459 72.8743 192.363 73.5591ZM200.426 74.0796V77.6953H198.426V70.9295H200.426V71.7786C200.782 71.1623 201.439 70.7514 202.329 70.7514C203.247 70.7514 203.946 71.1897 204.315 71.9293C204.74 71.2171 205.507 70.7514 206.493 70.7514C208.041 70.7514 208.917 71.806 208.917 73.4496V77.6953H206.918V73.9152C206.918 73.0798 206.534 72.573 205.836 72.573C205.151 72.573 204.685 73.1345 204.671 74.0385V77.6953H202.672V73.9426C202.672 73.0798 202.288 72.573 201.604 72.573C200.891 72.573 200.426 73.1482 200.426 74.0796Z" fill="#242B42"/>
<mask id="path-7-inside-3_2274_15067" fill="white">
<path d="M223.784 49H309.176V97.392H223.784V49Z"/>
</mask>
<path d="M309.176 97.392V94.824H223.784V97.392V99.96H309.176V97.392Z" fill="#E4E8F0" mask="url(#path-7-inside-3_2274_15067)"/>
<path d="M245.054 68.1081H247.054V77.6953H245L240.494 71.3678V77.6953H238.494V68.1081H240.589L245.054 74.4631V68.1081ZM254.648 77.6953H252.799L252.771 76.8462C252.374 77.5447 251.593 77.8734 250.785 77.8734C249.525 77.8734 248.662 77.079 248.662 75.8874C248.662 74.6411 249.498 73.8741 251.182 73.6276L252.716 73.4085V73.3263C252.716 72.7648 252.264 72.436 251.347 72.436C250.47 72.436 249.69 72.7784 249.073 73.34V71.4362C249.662 71.0391 250.511 70.7514 251.552 70.7514C253.511 70.7514 254.648 71.6965 254.648 73.4496V77.6953ZM250.552 75.7231C250.566 76.1066 250.881 76.3531 251.333 76.3531C252.169 76.3531 252.716 75.7505 252.716 74.9835V74.7507L251.525 74.9424C250.881 75.0383 250.552 75.3259 250.552 75.7231ZM258.092 77.6953L255.339 70.9295H257.448L259.037 75.2026L260.626 70.9295H262.68L259.927 77.6953H258.092ZM267.023 68.1081H269.091V77.6953H267.023V68.1081ZM271.362 72.573H270.129V72.3128L273.293 69.012H273.348V70.9295H275.06V72.573H273.348V75.052C273.348 75.7779 273.663 76.0655 274.293 76.0655C274.567 76.0655 274.855 75.9696 275.06 75.819V77.572C274.745 77.7364 274.252 77.8597 273.622 77.8597C272.184 77.8597 271.362 77.0379 271.362 75.5313V72.573ZM282.152 75.4355V77.2433C281.495 77.6268 280.618 77.8734 279.55 77.8734C277.235 77.8734 275.811 76.3805 275.811 74.285C275.811 72.258 277.235 70.7514 279.249 70.7514C281.317 70.7514 282.563 72.1758 282.563 74.2713C282.563 74.4768 282.536 74.7096 282.522 74.8739H277.783C277.934 75.6546 278.632 76.2024 279.769 76.2024C280.577 76.2024 281.344 75.9696 282.152 75.4355ZM277.756 73.5591H280.646C280.577 72.8058 280.016 72.2991 279.235 72.2991C278.454 72.2991 277.852 72.8743 277.756 73.5591ZM285.818 74.0796V77.6953H283.819V70.9295H285.818V71.7786C286.174 71.1623 286.832 70.7514 287.722 70.7514C288.64 70.7514 289.338 71.1897 289.708 71.9293C290.132 71.2171 290.899 70.7514 291.886 70.7514C293.433 70.7514 294.31 71.806 294.31 73.4496V77.6953H292.31V73.9152C292.31 73.0798 291.927 72.573 291.228 72.573C290.543 72.573 290.078 73.1345 290.064 74.0385V77.6953H288.064V73.9426C288.064 73.0798 287.681 72.573 286.996 72.573C286.284 72.573 285.818 73.1482 285.818 74.0796Z" fill="#242B42"/>
</svg>
