<svg width="164" height="164" viewBox="0 0 164 164" fill="none" xmlns="http://www.w3.org/2000/svg">
<g clip-path="url(#clip0_1663_178802)">
<rect x="-0.400391" width="163.2" height="163.2" fill="white"/>
<rect x="8.09961" y="34" width="147" height="121.1" fill="#F3F7FB"/>
<path d="M16 94.5996C16 92.3905 17.7909 90.5996 20 90.5996H143.2C145.409 90.5996 147.2 92.3905 147.2 94.5996V143.2C147.2 145.409 145.409 147.2 143.2 147.2H20C17.7909 147.2 16 145.409 16 143.2V94.5996Z" fill="white"/>
<path d="M143.2 146.199V147.199H20V146.199H143.2ZM146.2 143.199V94.5996C146.2 92.9945 144.94 91.6838 143.354 91.6035L143.2 91.5996H20C18.3431 91.5996 17 92.9428 17 94.5996V143.199C17 144.856 18.3431 146.199 20 146.199V147.199C17.7909 147.199 16 145.408 16 143.199V94.5996C16 92.4596 17.6806 90.7117 19.7939 90.6045L20 90.5996H143.2L143.406 90.6045C145.52 90.7117 147.2 92.4596 147.2 94.5996V143.199C147.2 145.408 145.409 147.199 143.2 147.199V146.199C144.857 146.199 146.2 144.856 146.2 143.199Z" fill="#E4E8F0"/>
<path fill-rule="evenodd" clip-rule="evenodd" d="M32.5283 101.036C34.0282 101.036 34.8925 101.864 34.8926 103.22V107H33.9209V106.232C33.4649 106.82 32.7562 107.132 31.9883 107.132C30.9565 107.132 30.2246 106.424 30.2246 105.464C30.2247 104.42 30.885 103.796 32.1689 103.58L33.8848 103.292V103.148C33.8848 102.417 33.3687 101.972 32.5049 101.972C31.7129 101.972 31.1244 102.296 30.5244 102.848V101.768C31.0523 101.336 31.6885 101.036 32.5283 101.036ZM32.3369 104.456C31.6409 104.588 31.2568 104.9 31.2568 105.404C31.257 105.896 31.6408 106.22 32.1807 106.22C33.1766 106.22 33.8965 105.572 33.8965 104.672V104.18L32.3369 104.456Z" fill="#687887"/>
<path fill-rule="evenodd" clip-rule="evenodd" d="M43.2617 101.036C44.8937 101.036 46.0098 102.38 46.0098 104.036C46.0098 104.264 45.9854 104.408 45.9854 104.408H41.4141C41.4982 105.38 42.3019 106.196 43.5137 106.196C44.2577 106.196 44.9782 105.896 45.6982 105.272V106.388C45.0502 106.856 44.2574 107.132 43.4414 107.132C41.5817 107.132 40.3818 105.8 40.3818 104.084C40.3818 102.344 41.5818 101.036 43.2617 101.036ZM43.2383 101.936C42.2664 101.936 41.5097 102.764 41.4375 103.556H44.9658C44.8817 102.632 44.1979 101.936 43.2383 101.936Z" fill="#687887"/>
<path d="M55.7256 101.168H57.3574V102.092H55.7256V105.176C55.7256 105.86 56.0255 106.172 56.6973 106.172C56.9252 106.172 57.1774 106.112 57.3574 105.992V106.952C57.1535 107.06 56.8537 107.132 56.458 107.132C55.3541 107.132 54.6935 106.448 54.6934 105.32V102.092H53.6855V101.96L55.6895 99.7998H55.7256V101.168Z" fill="#687887"/>
<path fill-rule="evenodd" clip-rule="evenodd" d="M26.6035 98.5996C28.1995 98.5996 29.3164 99.4884 29.3164 101.024C29.3162 102.56 28.1994 103.436 26.6035 103.436H25.0684V107H24V98.5996H26.6035ZM25.0684 102.452H26.6035C27.5634 102.452 28.2361 101.924 28.2363 101.024C28.2363 100.1 27.5635 99.584 26.6035 99.584H25.0684V102.452Z" fill="#687887"/>
<path d="M39.5078 101.072C39.6482 101.072 39.7545 101.095 39.7598 101.096V102.128C39.7552 102.127 39.6478 102.104 39.4717 102.104C38.3919 102.104 37.7316 102.968 37.7314 104.228V107H36.7119V101.168H37.7197V102.2C37.9837 101.528 38.7398 101.072 39.5078 101.072Z" fill="#687887"/>
<path d="M50.3379 101.036C51.8259 101.036 52.6904 102.032 52.6904 103.58V107H51.6582V103.7C51.6582 102.656 51.1181 101.996 50.1221 101.996C49.1262 101.996 48.4785 102.764 48.4785 103.952V107H47.4463V101.168H48.4785V102.008C48.8385 101.432 49.4622 101.036 50.3379 101.036Z" fill="#687887"/>
<path d="M65.6162 131.543C65.8051 131.58 66.0015 131.6 66.2031 131.6H67.2178V132.6H66.2031C65.936 132.6 65.6753 132.572 65.4229 132.522L65.6162 131.543Z" fill="#0056CF"/>
<path d="M71.2764 132.6H69.2471V131.6H71.2764V132.6Z" fill="#0056CF"/>
<path d="M75.3359 132.6H73.3057V131.6H75.3359V132.6Z" fill="#0056CF"/>
<path d="M79.3945 132.6H77.3652V131.6H79.3945V132.6Z" fill="#0056CF"/>
<path d="M83.4531 132.6H81.4238V131.6H83.4531V132.6Z" fill="#0056CF"/>
<path d="M87.5117 132.6H85.4824V131.6H87.5117V132.6Z" fill="#0056CF"/>
<path d="M91.5703 132.6H89.541V131.6H91.5703V132.6Z" fill="#0056CF"/>
<path d="M95.6299 132.6H93.6006V131.6H95.6299V132.6Z" fill="#0056CF"/>
<path d="M99.6885 132.6H97.6592V131.6H99.6885V132.6Z" fill="#0056CF"/>
<path d="M103.747 132.6H101.718V131.6H103.747V132.6Z" fill="#0056CF"/>
<path d="M107.806 132.6H105.776V131.6H107.806V132.6Z" fill="#0056CF"/>
<path d="M111.865 132.6H109.836V131.6H111.865V132.6Z" fill="#0056CF"/>
<path d="M115.924 132.6H113.895V131.6H115.924V132.6Z" fill="#0056CF"/>
<path d="M119.982 132.6H117.953V131.6H119.982V132.6Z" fill="#0056CF"/>
<path d="M124.041 132.6H122.012V131.6H124.041V132.6Z" fill="#0056CF"/>
<path d="M128.101 132.6H126.07V131.6H128.101V132.6Z" fill="#0056CF"/>
<path d="M132.159 132.6H130.13V131.6H132.159V132.6Z" fill="#0056CF"/>
<path d="M135.887 132.033L135.982 132.522C135.73 132.572 135.47 132.6 135.203 132.6H134.188V131.6H135.203C135.405 131.6 135.601 131.58 135.79 131.543L135.887 132.033Z" fill="#0056CF"/>
<path d="M63.708 130.266C63.9273 130.593 64.2095 130.875 64.5371 131.095L64.2578 131.51L64.2588 131.511L63.9805 131.925C63.5444 131.633 63.1689 131.257 62.877 130.821L63.708 130.266Z" fill="#0056CF"/>
<path d="M138.113 130.544L138.528 130.821C138.236 131.258 137.861 131.633 137.425 131.925L137.266 131.687L137.147 131.511L136.869 131.095C137.197 130.875 137.479 130.593 137.698 130.266L138.113 130.544Z" fill="#0056CF"/>
<path d="M63.2031 128.6C63.2031 128.801 63.2224 128.998 63.2598 129.187L62.7695 129.283L62.2793 129.379C62.2295 129.127 62.2031 128.866 62.2031 128.6V127.671H63.2031V128.6Z" fill="#0056CF"/>
<path d="M139.203 128.6C139.203 128.866 139.176 129.127 139.126 129.379L138.637 129.283L138.146 129.187C138.184 128.998 138.203 128.801 138.203 128.6V127.671H139.203V128.6Z" fill="#0056CF"/>
<path d="M63.2031 125.813H62.2031V123.957H63.2031V125.813Z" fill="#0056CF"/>
<path d="M139.203 125.813H138.203V123.957H139.203V125.813Z" fill="#0056CF"/>
<path d="M63.2031 122.1H62.2031V120.242H63.2031V122.1Z" fill="#0056CF"/>
<path d="M139.203 122.1H138.203V120.242H139.203V122.1Z" fill="#0056CF"/>
<path d="M63.2031 118.386H62.2031V116.528H63.2031V118.386Z" fill="#0056CF"/>
<path d="M139.203 118.386H138.203V116.528H139.203V118.386Z" fill="#0056CF"/>
<path d="M63.2031 114.671H62.2031V112.813H63.2031V114.671Z" fill="#0056CF"/>
<path d="M139.203 114.671H138.203V112.813H139.203V114.671Z" fill="#0056CF"/>
<path d="M63.2031 110.957H62.2031V109.1H63.2031V110.957Z" fill="#0056CF"/>
<path d="M139.203 110.957H138.203V109.1H139.203V110.957Z" fill="#0056CF"/>
<path d="M63.2031 107.242H62.2031V105.386H63.2031V107.242Z" fill="#0056CF"/>
<path d="M139.203 107.242H138.203V105.386H139.203V107.242Z" fill="#0056CF"/>
<path d="M63.2598 102.013C63.2224 102.202 63.2031 102.398 63.2031 102.6V103.528H62.2031V102.6C62.2031 102.392 62.2187 102.189 62.249 101.99L62.2793 101.819L63.2598 102.013Z" fill="#0056CF"/>
<path d="M139.126 101.819C139.176 102.072 139.203 102.333 139.203 102.6V103.528H138.203V102.6C138.203 102.398 138.184 102.202 138.146 102.013L139.126 101.819Z" fill="#0056CF"/>
<path d="M64.1836 99.5771L64.5371 100.104C64.2095 100.324 63.9273 100.606 63.708 100.934L63.082 100.515L62.877 100.377C63.1689 99.9409 63.5444 99.5654 63.9805 99.2734L64.1836 99.5771Z" fill="#0056CF"/>
<path d="M137.425 99.2734C137.861 99.5654 138.236 99.9408 138.528 100.377L138.324 100.515L137.698 100.934C137.479 100.606 137.197 100.324 136.869 100.104L137.223 99.5771L137.425 99.2734Z" fill="#0056CF"/>
<path d="M67.2178 99.5996H66.2031C66.0015 99.5996 65.8051 99.6189 65.6162 99.6562L65.4229 98.6758C65.6752 98.6259 65.9361 98.5996 66.2031 98.5996H67.2178V99.5996Z" fill="#0056CF"/>
<path d="M135.203 98.5996C135.47 98.5996 135.73 98.626 135.982 98.6758L135.79 99.6562C135.601 99.6189 135.405 99.5996 135.203 99.5996H134.188V98.5996H135.203Z" fill="#0056CF"/>
<path d="M71.2764 99.5996H69.2471V98.5996H71.2764V99.5996Z" fill="#0056CF"/>
<path d="M75.3359 99.5996H73.3057V98.5996H75.3359V99.5996Z" fill="#0056CF"/>
<path d="M79.3945 99.5996H77.3652V98.5996H79.3945V99.5996Z" fill="#0056CF"/>
<path d="M83.4531 99.5996H81.4238V98.5996H83.4531V99.5996Z" fill="#0056CF"/>
<path d="M87.5117 99.5996H85.4824V98.5996H87.5117V99.5996Z" fill="#0056CF"/>
<path d="M91.5703 99.5996H89.541V98.5996H91.5703V99.5996Z" fill="#0056CF"/>
<path d="M95.6299 99.5996H93.6006V98.5996H95.6299V99.5996Z" fill="#0056CF"/>
<path d="M99.6885 99.5996H97.6592V98.5996H99.6885V99.5996Z" fill="#0056CF"/>
<path d="M103.747 99.5996H101.718V98.5996H103.747V99.5996Z" fill="#0056CF"/>
<path d="M107.806 99.5996H105.776V98.5996H107.806V99.5996Z" fill="#0056CF"/>
<path d="M111.865 99.5996H109.836V98.5996H111.865V99.5996Z" fill="#0056CF"/>
<path d="M115.924 99.5996H113.895V98.5996H115.924V99.5996Z" fill="#0056CF"/>
<path d="M119.982 99.5996H117.953V98.5996H119.982V99.5996Z" fill="#0056CF"/>
<path d="M124.041 99.5996H122.012V98.5996H124.041V99.5996Z" fill="#0056CF"/>
<path d="M128.101 99.5996H126.07V98.5996H128.101V99.5996Z" fill="#0056CF"/>
<path d="M132.159 99.5996H130.13V98.5996H132.159V99.5996Z" fill="#0056CF"/>
<path fill-rule="evenodd" clip-rule="evenodd" d="M90.9229 113.636C92.5549 113.636 93.6709 114.98 93.6709 116.636C93.6709 116.864 93.6465 117.008 93.6465 117.008H89.0752C89.1593 117.98 89.963 118.796 91.1748 118.796C91.9188 118.796 92.6394 118.496 93.3594 117.872V118.987C92.7114 119.455 91.9185 119.731 91.1025 119.731C89.2428 119.731 88.043 118.399 88.043 116.684C88.043 114.944 89.2429 113.636 90.9229 113.636ZM90.8994 114.535C89.9275 114.535 89.1708 115.363 89.0986 116.155H92.627C92.5428 115.232 91.8591 114.535 90.8994 114.535Z" fill="#C1CDD6"/>
<path fill-rule="evenodd" clip-rule="evenodd" d="M108.114 113.636C109.746 113.636 110.862 114.98 110.862 116.636C110.862 116.864 110.838 117.008 110.838 117.008H106.267C106.351 117.98 107.154 118.796 108.366 118.796C109.11 118.796 109.831 118.496 110.551 117.872V118.987C109.903 119.455 109.11 119.731 108.294 119.731C106.434 119.731 105.234 118.399 105.234 116.684C105.234 114.944 106.434 113.636 108.114 113.636ZM108.091 114.535C107.119 114.535 106.362 115.363 106.29 116.155H109.818C109.734 115.232 109.05 114.535 108.091 114.535Z" fill="#C1CDD6"/>
<path d="M120.578 113.768H122.21V114.691H120.578V117.775C120.578 118.459 120.878 118.771 121.55 118.771C121.778 118.771 122.03 118.712 122.21 118.592V119.552C122.006 119.66 121.706 119.731 121.311 119.731C120.207 119.731 119.546 119.048 119.546 117.92V114.691H118.538V114.56L120.542 112.399H120.578V113.768Z" fill="#C1CDD6"/>
<path d="M83.8643 112.184H80.2646V114.752H83.6123V115.724H80.2646V118.615H83.8887V119.6H79.1963V111.199H83.8643V112.184Z" fill="#C1CDD6"/>
<path d="M86.542 119.6H85.5098V111.199H86.542V119.6Z" fill="#C1CDD6"/>
<path d="M101.672 113.636C103.016 113.636 103.819 114.584 103.819 116.084V119.6H102.787V116.264C102.787 115.232 102.344 114.584 101.468 114.584C100.568 114.584 99.9795 115.352 99.9795 116.54V119.6H98.9473V116.288C98.9473 115.244 98.491 114.584 97.627 114.584C96.7272 114.584 96.1396 115.352 96.1396 116.54V119.6H95.1074V113.768H96.127V114.607C96.451 114.007 97.0397 113.636 97.8438 113.636C98.7075 113.636 99.3317 114.068 99.6797 114.775C99.9678 114.283 100.568 113.636 101.672 113.636Z" fill="#C1CDD6"/>
<path d="M115.19 113.636C116.678 113.636 117.543 114.632 117.543 116.18V119.6H116.511V116.3C116.511 115.256 115.971 114.596 114.975 114.596C113.979 114.596 113.331 115.364 113.331 116.552V119.6H112.299V113.768H113.331V114.607C113.691 114.032 114.315 113.636 115.19 113.636Z" fill="#C1CDD6"/>
<path fill-rule="evenodd" clip-rule="evenodd" d="M38.2686 15.0361C39.9245 15.0361 41.1963 16.356 41.1963 18.084C41.1963 19.8 39.9246 21.1318 38.2686 21.1318C37.4166 21.1318 36.6361 20.76 36.2041 20.124V23.4961H35.1846V15.168H36.2041V16.0918C36.6241 15.4558 37.4166 15.0361 38.2686 15.0361ZM38.1484 15.9844C37.0085 15.9844 36.1445 16.908 36.1445 18.084C36.1445 19.2599 37.0085 20.1835 38.1484 20.1836C39.2884 20.1836 40.1523 19.26 40.1523 18.084C40.1523 16.908 39.2884 15.9844 38.1484 15.9844Z" fill="#687887"/>
<path fill-rule="evenodd" clip-rule="evenodd" d="M21.5195 15.0361C23.1515 15.0361 24.2676 16.3801 24.2676 18.0361C24.2676 18.2641 24.2432 18.4082 24.2432 18.4082H19.6719C19.756 19.3801 20.5597 20.1962 21.7715 20.1963C22.5155 20.1963 23.2361 19.8965 23.9561 19.2725V20.3877C23.3081 20.8557 22.5152 21.1318 21.6992 21.1318C19.8395 21.1316 18.6396 19.7999 18.6396 18.084C18.6397 16.344 19.8396 15.0362 21.5195 15.0361ZM21.4961 15.9355C20.5242 15.9355 19.7675 16.7638 19.6953 17.5557H23.2236C23.1395 16.632 22.4557 15.9358 21.4961 15.9355Z" fill="#687887"/>
<path fill-rule="evenodd" clip-rule="evenodd" d="M45.3828 15.0361C47.1348 15.0361 48.4306 16.392 48.4307 18.084C48.4307 19.776 47.1348 21.1318 45.3828 21.1318C43.6309 21.1318 42.335 19.7759 42.335 18.084C42.335 16.392 43.6309 15.0362 45.3828 15.0361ZM45.3828 15.9844C44.2429 15.9845 43.3789 16.92 43.3789 18.084C43.3789 19.2479 44.2429 20.1835 45.3828 20.1836C46.5228 20.1836 47.3867 19.248 47.3867 18.084C47.3867 16.92 46.5228 15.9844 45.3828 15.9844Z" fill="#687887"/>
<path d="M55.6982 15.168H57.3301V16.0918H55.6982V19.1758C55.6982 19.8597 55.9981 20.1718 56.6699 20.1719C56.8978 20.1719 57.1501 20.1121 57.3301 19.9922V20.9521C57.1262 21.0601 56.8263 21.1318 56.4307 21.1318C55.3268 21.1318 54.6661 20.4481 54.666 19.3203V16.0918H53.6582V15.96L55.6621 13.7998H55.6982V15.168Z" fill="#687887"/>
<path d="M11.3916 19.2119L13.8994 12.5996H15.0029L11.7393 21H11.0195L7.74316 12.5996H8.87109L11.3916 19.2119Z" fill="#687887"/>
<path d="M17.1387 21H16.1064V15.168H17.1387V21Z" fill="#687887"/>
<path d="M27.5527 19.5361L29.1006 15.168H29.8447L31.3926 19.5361L32.917 15.168H33.9609L31.7891 21H30.9971L29.4609 16.6797L27.9248 21H27.1328L24.9609 15.168H26.0293L27.5527 19.5361Z" fill="#687887"/>
<path d="M52.7227 15.0723C52.8631 15.0723 52.9694 15.0946 52.9746 15.0957V16.1279C52.97 16.1269 52.8626 16.1035 52.6865 16.1035C51.6068 16.1036 50.9464 16.9679 50.9463 18.2275V21H49.9268V15.168H50.9346V16.2002C51.1986 15.5282 51.9547 15.0723 52.7227 15.0723Z" fill="#687887"/>
<path d="M16.623 12.7441C17.0069 12.7443 17.3184 13.0565 17.3184 13.4404C17.3181 13.8241 17.0068 14.1356 16.623 14.1357C16.2392 14.1357 15.927 13.8242 15.9268 13.4404C15.9268 13.0564 16.239 12.7441 16.623 12.7441Z" fill="#687887"/>
<rect x="16" y="42.0479" width="77" height="34" rx="4" fill="#0056CF"/>
<path fill-rule="evenodd" clip-rule="evenodd" d="M44.8066 57.084C46.4386 57.084 47.5547 58.428 47.5547 60.084C47.5547 60.3119 47.5303 60.4561 47.5303 60.4561H42.959C43.0431 61.4279 43.8468 62.2441 45.0586 62.2441C45.8026 62.2441 46.5232 61.9443 47.2432 61.3203V62.4355C46.5952 62.9035 45.8023 63.1797 44.9863 63.1797C43.1266 63.1795 41.9268 61.8477 41.9268 60.1318C41.9268 58.3919 43.1267 57.084 44.8066 57.084ZM44.7832 57.9834C43.8113 57.9834 43.0546 58.8116 42.9824 59.6035H46.5107C46.4266 58.6798 45.7428 57.9836 44.7832 57.9834Z" fill="white"/>
<path fill-rule="evenodd" clip-rule="evenodd" d="M61.998 57.084C63.63 57.084 64.7461 58.428 64.7461 60.084C64.7461 60.3119 64.7217 60.4561 64.7217 60.4561H60.1504C60.2345 61.4279 61.0382 62.2441 62.25 62.2441C62.994 62.2441 63.7146 61.9443 64.4346 61.3203V62.4355C63.7866 62.9035 62.9937 63.1797 62.1777 63.1797C60.318 63.1795 59.1182 61.8477 59.1182 60.1318C59.1182 58.3919 60.3181 57.084 61.998 57.084ZM61.9746 57.9834C61.0027 57.9834 60.246 58.8116 60.1738 59.6035H63.7021C63.618 58.6798 62.9343 57.9836 61.9746 57.9834Z" fill="white"/>
<path d="M74.4619 57.2158H76.0938V58.1396H74.4619V61.2236C74.4619 61.9075 74.7618 62.2196 75.4336 62.2197C75.6615 62.2197 75.9138 62.16 76.0938 62.04V63C75.8898 63.1079 75.59 63.1796 75.1943 63.1797C74.0904 63.1797 73.4298 62.496 73.4297 61.3682V58.1396H72.4219V58.0078L74.4258 55.8477H74.4619V57.2158Z" fill="white"/>
<path d="M37.748 55.6318H34.1484V58.2002H37.4961V59.1719H34.1484V62.0635H37.7725V63.0479H33.0801V54.6475H37.748V55.6318Z" fill="white"/>
<path d="M40.4258 63.0479H39.3936V54.6475H40.4258V63.0479Z" fill="white"/>
<path d="M55.5557 57.084C56.8994 57.0842 57.7031 58.0324 57.7031 59.5322V63.0479H56.6709V59.7119C56.6709 58.6801 56.2273 58.0324 55.3516 58.0322C54.4516 58.0322 53.8633 58.8003 53.8633 59.9883V63.0479H52.8311V59.7363C52.8311 58.6923 52.3747 58.0322 51.5107 58.0322C50.611 58.0325 50.0234 58.8005 50.0234 59.9883V63.0479H48.9912V57.2158H50.0107V58.0557C50.3347 57.4557 50.9235 57.084 51.7275 57.084C52.5913 57.0841 53.2155 57.5158 53.5635 58.2236C53.8515 57.7317 54.4519 57.084 55.5557 57.084Z" fill="white"/>
<path d="M69.0742 57.084C70.5622 57.084 71.4268 58.0799 71.4268 59.6279V63.0479H70.3945V59.748C70.3945 58.704 69.8544 58.0439 68.8584 58.0439C67.8625 58.0441 67.2148 58.8121 67.2148 60V63.0479H66.1826V57.2158H67.2148V58.0557C67.5748 57.4799 68.1986 57.0841 69.0742 57.084Z" fill="white"/>
</g>
<defs>
<clipPath id="clip0_1663_178802">
<rect width="163.2" height="163.2" fill="white"/>
</clipPath>
</defs>
</svg>
