<svg width="164" height="164" viewBox="0 0 164 164" fill="none" xmlns="http://www.w3.org/2000/svg">
<g clip-path="url(#clip0_1663_178814)">
<rect x="0.400391" width="163.2" height="163.2" fill="white"/>
<rect x="7.90039" y="8" width="147" height="147.1" fill="#F3F7FB"/>
<rect x="7.90039" y="8" width="77" height="34" rx="4" fill="#0056CF"/>
<path fill-rule="evenodd" clip-rule="evenodd" d="M36.707 23.0361C38.339 23.0361 39.4551 24.3801 39.4551 26.0361C39.4551 26.2641 39.4307 26.4082 39.4307 26.4082H34.8594C34.9435 27.3801 35.7472 28.1962 36.959 28.1963C37.703 28.1963 38.4236 27.8965 39.1436 27.2725V28.3877C38.4956 28.8557 37.7027 29.1318 36.8867 29.1318C35.027 29.1316 33.8271 27.7999 33.8271 26.084C33.8272 24.344 35.0271 23.0362 36.707 23.0361ZM36.6836 23.9355C35.7117 23.9355 34.955 24.7638 34.8828 25.5557H38.4111C38.327 24.632 37.6432 23.9358 36.6836 23.9355Z" fill="white"/>
<path fill-rule="evenodd" clip-rule="evenodd" d="M53.8984 23.0361C55.5304 23.0361 56.6465 24.3801 56.6465 26.0361C56.6465 26.2641 56.6221 26.4082 56.6221 26.4082H52.0508C52.1349 27.3801 52.9386 28.1962 54.1504 28.1963C54.8944 28.1963 55.615 27.8965 56.335 27.2725V28.3877C55.687 28.8557 54.8941 29.1318 54.0781 29.1318C52.2184 29.1316 51.0186 27.7999 51.0186 26.084C51.0186 24.344 52.2185 23.0362 53.8984 23.0361ZM53.875 23.9355C52.9031 23.9355 52.1464 24.7638 52.0742 25.5557H55.6025C55.5184 24.632 54.8346 23.9358 53.875 23.9355Z" fill="white"/>
<path d="M66.3623 23.168H67.9941V24.0918H66.3623V27.1758C66.3623 27.8597 66.6622 28.1718 67.334 28.1719C67.5619 28.1719 67.8142 28.1121 67.9941 27.9922V28.9521C67.7902 29.0601 67.4904 29.1318 67.0947 29.1318C65.9908 29.1318 65.3302 28.4481 65.3301 27.3203V24.0918H64.3223V23.96L66.3262 21.7998H66.3623V23.168Z" fill="white"/>
<path d="M29.6484 21.584H26.0488V24.1523H29.3965V25.124H26.0488V28.0156H29.6729V29H24.9805V20.5996H29.6484V21.584Z" fill="white"/>
<path d="M32.3262 29H31.2939V20.5996H32.3262V29Z" fill="white"/>
<path d="M47.4561 23.0361C48.7998 23.0363 49.6035 23.9845 49.6035 25.4844V29H48.5713V25.6641C48.5713 24.6322 48.1277 23.9845 47.252 23.9844C46.352 23.9844 45.7637 24.7524 45.7637 25.9404V29H44.7314V25.6885C44.7314 24.6445 44.2751 23.9844 43.4111 23.9844C42.5114 23.9846 41.9238 24.7526 41.9238 25.9404V29H40.8916V23.168H41.9111V24.0078C42.2351 23.4078 42.8239 23.0361 43.6279 23.0361C44.4917 23.0362 45.1159 23.4679 45.4639 24.1758C45.7519 23.6838 46.3523 23.0361 47.4561 23.0361Z" fill="white"/>
<path d="M60.9746 23.0361C62.4626 23.0361 63.3271 24.0321 63.3271 25.5801V29H62.2949V25.7002C62.2949 24.6562 61.7548 23.9961 60.7588 23.9961C59.7629 23.9962 59.1152 24.7642 59.1152 25.9521V29H58.083V23.168H59.1152V24.0078C59.4752 23.432 60.0989 23.0363 60.9746 23.0361Z" fill="white"/>
<path d="M15.8008 57.3C15.8008 55.0909 17.5916 53.3 19.8008 53.3H143.001C145.21 53.3 147.001 55.0908 147.001 57.3V105.9C147.001 108.109 145.21 109.9 143.001 109.9H19.8008C17.5916 109.9 15.8008 108.109 15.8008 105.9V57.3Z" fill="white"/>
<path d="M143.001 108.9V109.9H19.8008V108.9H143.001ZM146.001 105.9V57.3C146.001 55.6949 144.74 54.3842 143.155 54.3039L143.001 54.3H19.8008C18.1439 54.3 16.8008 55.6431 16.8008 57.3V105.9C16.8008 107.556 18.1439 108.9 19.8008 108.9V109.9C17.5916 109.9 15.8008 108.109 15.8008 105.9V57.3C15.8008 55.16 17.4813 53.4121 19.5947 53.3049L19.8008 53.3H143.001L143.207 53.3049C145.32 53.4121 147.001 55.16 147.001 57.3V105.9C147.001 108.109 145.21 109.9 143.001 109.9V108.9C144.658 108.9 146.001 107.556 146.001 105.9Z" fill="#E4E8F0"/>
<path fill-rule="evenodd" clip-rule="evenodd" d="M32.3291 63.7365C33.829 63.7365 34.6932 64.5643 34.6934 65.9201V69.7004H33.7217V68.9328C33.2657 69.5207 32.557 69.8322 31.7891 69.8322C30.7572 69.8321 30.0254 69.1241 30.0254 68.1642C30.0254 67.1203 30.6858 66.4964 31.9697 66.2805L33.6855 65.9924V65.8488C33.6855 65.1169 33.1695 64.6722 32.3057 64.6721C31.5137 64.6721 30.9252 64.9961 30.3252 65.548V64.468C30.8531 64.036 31.4893 63.7366 32.3291 63.7365ZM32.1377 67.1564C31.4417 67.2884 31.0576 67.6007 31.0576 68.1047C31.0578 68.5965 31.4416 68.9201 31.9814 68.9201C32.9774 68.9201 33.6973 68.2722 33.6973 67.3723V66.8801L32.1377 67.1564Z" fill="#687887"/>
<path fill-rule="evenodd" clip-rule="evenodd" d="M43.0625 63.7365C44.6945 63.7365 45.8105 65.0805 45.8105 66.7365C45.8105 66.9644 45.7861 67.1086 45.7861 67.1086H41.2148C41.2989 68.0804 42.1026 68.8966 43.3145 68.8967C44.0585 68.8967 44.779 68.5968 45.499 67.9728V69.0881C44.851 69.5561 44.0582 69.8322 43.2422 69.8322C41.3824 69.832 40.1826 68.5002 40.1826 66.7844C40.1826 65.0444 41.3826 63.7366 43.0625 63.7365ZM43.0391 64.6359C42.0672 64.6359 41.3104 65.4641 41.2383 66.256H44.7666C44.6825 65.3323 43.9987 64.6361 43.0391 64.6359Z" fill="#687887"/>
<path d="M55.5264 63.8683H57.1582V64.7922H55.5264V67.8762C55.5264 68.5601 55.8262 68.8722 56.498 68.8723C56.726 68.8723 56.9782 68.8125 57.1582 68.6926V69.6525C56.9543 69.7604 56.6545 69.8322 56.2588 69.8322C55.1549 69.8322 54.4943 69.1485 54.4941 68.0207V64.7922H53.4863V64.6603L55.4902 62.5002H55.5264V63.8683Z" fill="#687887"/>
<path fill-rule="evenodd" clip-rule="evenodd" d="M26.4043 61.3C28.0003 61.3 29.1172 62.1888 29.1172 63.7248C29.117 65.2605 28.0002 66.1359 26.4043 66.1359H24.8691V69.7004H23.8008V61.3H26.4043ZM24.8691 65.1525H26.4043C27.3642 65.1525 28.0369 64.6245 28.0371 63.7248C28.0371 62.8008 27.3643 62.2844 26.4043 62.2844H24.8691V65.1525Z" fill="#687887"/>
<path d="M39.3086 63.7726C39.449 63.7726 39.5553 63.7949 39.5605 63.7961V64.8283C39.556 64.8273 39.4485 64.8039 39.2725 64.8039C38.1927 64.804 37.5324 65.6683 37.5322 66.9279V69.7004H36.5127V63.8683H37.5205V64.9006C37.7845 64.2286 38.5406 63.7727 39.3086 63.7726Z" fill="#687887"/>
<path d="M50.1387 63.7365C51.6267 63.7365 52.4912 64.7325 52.4912 66.2805V69.7004H51.459V66.4006C51.459 65.3566 50.9189 64.6965 49.9229 64.6965C48.927 64.6966 48.2793 65.4646 48.2793 66.6525V69.7004H47.2471V63.8683H48.2793V64.7082C48.6393 64.1324 49.263 63.7366 50.1387 63.7365Z" fill="#687887"/>
<path d="M65.417 94.2432C65.6059 94.2805 65.8023 94.2998 66.0039 94.2998H67.0186V95.2998H66.0039C65.7368 95.2998 65.4761 95.2726 65.2236 95.2227L65.417 94.2432Z" fill="#0056CF"/>
<path d="M71.0771 95.2998H69.0479V94.2998H71.0771V95.2998Z" fill="#0056CF"/>
<path d="M75.1367 95.2998H73.1064V94.2998H75.1367V95.2998Z" fill="#0056CF"/>
<path d="M79.1953 95.2998H77.166V94.2998H79.1953V95.2998Z" fill="#0056CF"/>
<path d="M83.2539 95.2998H81.2246V94.2998H83.2539V95.2998Z" fill="#0056CF"/>
<path d="M87.3125 95.2998H85.2832V94.2998H87.3125V95.2998Z" fill="#0056CF"/>
<path d="M91.3711 95.2998H89.3418V94.2998H91.3711V95.2998Z" fill="#0056CF"/>
<path d="M95.4307 95.2998H93.4014V94.2998H95.4307V95.2998Z" fill="#0056CF"/>
<path d="M99.4893 95.2998H97.46V94.2998H99.4893V95.2998Z" fill="#0056CF"/>
<path d="M103.548 95.2998H101.519V94.2998H103.548V95.2998Z" fill="#0056CF"/>
<path d="M107.606 95.2998H105.577V94.2998H107.606V95.2998Z" fill="#0056CF"/>
<path d="M111.666 95.2998H109.637V94.2998H111.666V95.2998Z" fill="#0056CF"/>
<path d="M115.725 95.2998H113.695V94.2998H115.725V95.2998Z" fill="#0056CF"/>
<path d="M119.783 95.2998H117.754V94.2998H119.783V95.2998Z" fill="#0056CF"/>
<path d="M123.842 95.2998H121.812V94.2998H123.842V95.2998Z" fill="#0056CF"/>
<path d="M127.901 95.2998H125.871V94.2998H127.901V95.2998Z" fill="#0056CF"/>
<path d="M131.96 95.2998H129.931V94.2998H131.96V95.2998Z" fill="#0056CF"/>
<path d="M135.688 94.7334L135.783 95.2227C135.531 95.2725 135.271 95.2998 135.004 95.2998H133.989V94.2998H135.004C135.206 94.2998 135.402 94.2805 135.591 94.2432L135.688 94.7334Z" fill="#0056CF"/>
<path d="M63.5088 92.9658C63.7281 93.2934 64.0103 93.5756 64.3379 93.7949L64.0586 94.21L64.0596 94.2109L63.7812 94.625C63.3452 94.3329 62.9697 93.9577 62.6777 93.5215L63.5088 92.9658Z" fill="#0056CF"/>
<path d="M137.914 93.2441L138.329 93.5215C138.037 93.9577 137.662 94.333 137.226 94.625L137.066 94.3867L136.948 94.2109L136.67 93.7949C136.997 93.5756 137.28 93.2934 137.499 92.9658L137.914 93.2441Z" fill="#0056CF"/>
<path d="M63.0039 91.2998C63.0039 91.5014 63.0232 91.6979 63.0605 91.8867L62.5703 91.9834L62.0801 92.0791C62.0303 91.8271 62.0039 91.5664 62.0039 91.2998V90.3711H63.0039V91.2998Z" fill="#0056CF"/>
<path d="M139.004 91.2998C139.004 91.5665 138.977 91.827 138.927 92.0791L138.438 91.9834L137.947 91.8867C137.985 91.6979 138.004 91.5014 138.004 91.2998V90.3711H139.004V91.2998Z" fill="#0056CF"/>
<path d="M63.0039 88.5137H62.0039V86.6572H63.0039V88.5137Z" fill="#0056CF"/>
<path d="M139.004 88.5137H138.004V86.6572H139.004V88.5137Z" fill="#0056CF"/>
<path d="M63.0039 84.7998H62.0039V82.9424H63.0039V84.7998Z" fill="#0056CF"/>
<path d="M139.004 84.7998H138.004V82.9424H139.004V84.7998Z" fill="#0056CF"/>
<path d="M63.0039 81.0859H62.0039V79.2285H63.0039V81.0859Z" fill="#0056CF"/>
<path d="M139.004 81.0859H138.004V79.2285H139.004V81.0859Z" fill="#0056CF"/>
<path d="M63.0039 77.3711H62.0039V75.5137H63.0039V77.3711Z" fill="#0056CF"/>
<path d="M139.004 77.3711H138.004V75.5137H139.004V77.3711Z" fill="#0056CF"/>
<path d="M63.0039 73.6572H62.0039V71.7998H63.0039V73.6572Z" fill="#0056CF"/>
<path d="M139.004 73.6572H138.004V71.7998H139.004V73.6572Z" fill="#0056CF"/>
<path d="M63.0039 69.9424H62.0039V68.0859H63.0039V69.9424Z" fill="#0056CF"/>
<path d="M139.004 69.9424H138.004V68.0859H139.004V69.9424Z" fill="#0056CF"/>
<path d="M63.0605 64.7129C63.0232 64.9017 63.0039 65.0982 63.0039 65.2998V66.2285H62.0039V65.2998C62.0039 65.0927 62.0194 64.8891 62.0498 64.6904L62.0801 64.5195L63.0605 64.7129Z" fill="#0056CF"/>
<path d="M138.927 64.5195C138.977 64.7719 139.004 65.0328 139.004 65.2998V66.2285H138.004V65.2998C138.004 65.0982 137.985 64.9017 137.947 64.7129L138.927 64.5195Z" fill="#0056CF"/>
<path d="M63.9844 62.2773L64.3379 62.8047C64.0103 63.024 63.7281 63.3063 63.5088 63.6338L62.8828 63.2148L62.6777 63.0771C62.9697 62.6411 63.3452 62.2656 63.7812 61.9736L63.9844 62.2773Z" fill="#0056CF"/>
<path d="M137.226 61.9736C137.662 62.2655 138.037 62.6411 138.329 63.0771L138.125 63.2148L137.499 63.6338C137.28 63.3063 136.997 63.024 136.67 62.8047L137.023 62.2773L137.226 61.9736Z" fill="#0056CF"/>
<path d="M67.0186 62.2998H66.0039C65.8023 62.2998 65.6059 62.3191 65.417 62.3564L65.2236 61.376C65.476 61.3261 65.7369 61.2998 66.0039 61.2998H67.0186V62.2998Z" fill="#0056CF"/>
<path d="M135.004 61.2998C135.271 61.2998 135.531 61.3262 135.783 61.376L135.591 62.3564C135.402 62.3191 135.206 62.2998 135.004 62.2998H133.989V61.2998H135.004Z" fill="#0056CF"/>
<path d="M71.0771 62.2998H69.0479V61.2998H71.0771V62.2998Z" fill="#0056CF"/>
<path d="M75.1367 62.2998H73.1064V61.2998H75.1367V62.2998Z" fill="#0056CF"/>
<path d="M79.1953 62.2998H77.166V61.2998H79.1953V62.2998Z" fill="#0056CF"/>
<path d="M83.2539 62.2998H81.2246V61.2998H83.2539V62.2998Z" fill="#0056CF"/>
<path d="M87.3125 62.2998H85.2832V61.2998H87.3125V62.2998Z" fill="#0056CF"/>
<path d="M91.3711 62.2998H89.3418V61.2998H91.3711V62.2998Z" fill="#0056CF"/>
<path d="M95.4307 62.2998H93.4014V61.2998H95.4307V62.2998Z" fill="#0056CF"/>
<path d="M99.4893 62.2998H97.46V61.2998H99.4893V62.2998Z" fill="#0056CF"/>
<path d="M103.548 62.2998H101.519V61.2998H103.548V62.2998Z" fill="#0056CF"/>
<path d="M107.606 62.2998H105.577V61.2998H107.606V62.2998Z" fill="#0056CF"/>
<path d="M111.666 62.2998H109.637V61.2998H111.666V62.2998Z" fill="#0056CF"/>
<path d="M115.725 62.2998H113.695V61.2998H115.725V62.2998Z" fill="#0056CF"/>
<path d="M119.783 62.2998H117.754V61.2998H119.783V62.2998Z" fill="#0056CF"/>
<path d="M123.842 62.2998H121.812V61.2998H123.842V62.2998Z" fill="#0056CF"/>
<path d="M127.901 62.2998H125.871V61.2998H127.901V62.2998Z" fill="#0056CF"/>
<path d="M131.96 62.2998H129.931V61.2998H131.96V62.2998Z" fill="#0056CF"/>
<path fill-rule="evenodd" clip-rule="evenodd" d="M90.7236 76.3361C92.3556 76.3361 93.4717 77.6801 93.4717 79.3361C93.4717 79.5641 93.4473 79.7082 93.4473 79.7082H88.876C88.9601 80.6801 89.7638 81.4962 90.9756 81.4963C91.7196 81.4963 92.4402 81.1964 93.1602 80.5724V81.6877C92.5122 82.1557 91.7193 82.4318 90.9033 82.4318C89.0436 82.4316 87.8438 81.0998 87.8438 79.384C87.8438 77.644 89.0437 76.3362 90.7236 76.3361ZM90.7002 77.2355C89.7283 77.2355 88.9716 78.0637 88.8994 78.8557H92.4277C92.3436 77.932 91.6598 77.2357 90.7002 77.2355Z" fill="#C1CDD6"/>
<path fill-rule="evenodd" clip-rule="evenodd" d="M107.915 76.3361C109.547 76.3361 110.663 77.6801 110.663 79.3361C110.663 79.5641 110.639 79.7082 110.639 79.7082H106.067C106.151 80.6801 106.955 81.4962 108.167 81.4963C108.911 81.4963 109.632 81.1964 110.352 80.5724V81.6877C109.704 82.1557 108.911 82.4318 108.095 82.4318C106.235 82.4316 105.035 81.0998 105.035 79.384C105.035 77.644 106.235 76.3362 107.915 76.3361ZM107.892 77.2355C106.92 77.2355 106.163 78.0637 106.091 78.8557H109.619C109.535 77.932 108.851 77.2358 107.892 77.2355Z" fill="#C1CDD6"/>
<path d="M120.379 76.468H122.011V77.3918H120.379V80.4758C120.379 81.1597 120.679 81.4718 121.351 81.4719C121.579 81.4719 121.831 81.4121 122.011 81.2922V82.2521C121.807 82.36 121.507 82.4318 121.111 82.4318C120.007 82.4318 119.347 81.7481 119.347 80.6203V77.3918H118.339V77.2599L120.343 75.0998H120.379V76.468Z" fill="#C1CDD6"/>
<path d="M83.665 74.884H80.0654V77.4523H83.4131V78.424H80.0654V81.3156H83.6895V82.3H78.9971V73.8996H83.665V74.884Z" fill="#C1CDD6"/>
<path d="M86.3428 82.3H85.3105V73.8996H86.3428V82.3Z" fill="#C1CDD6"/>
<path d="M101.473 76.3361C102.816 76.3363 103.62 77.2845 103.62 78.7844V82.3H102.588V78.9641C102.588 77.9322 102.144 77.2845 101.269 77.2844C100.369 77.2844 99.7803 78.0524 99.7803 79.2404V82.3H98.748V78.9885C98.748 77.9445 98.2917 77.2844 97.4277 77.2844C96.528 77.2846 95.9404 78.0526 95.9404 79.2404V82.3H94.9082V76.468H95.9277V77.3078C96.2517 76.7078 96.8405 76.3361 97.6445 76.3361C98.5083 76.3362 99.1325 76.7679 99.4805 77.4758C99.7685 76.9838 100.369 76.3361 101.473 76.3361Z" fill="#C1CDD6"/>
<path d="M114.991 76.3361C116.479 76.3361 117.344 77.3321 117.344 78.8801V82.3H116.312V79.0002C116.312 77.9562 115.771 77.2961 114.775 77.2961C113.78 77.2962 113.132 78.0642 113.132 79.2521V82.3H112.1V76.468H113.132V77.3078C113.492 76.732 114.116 76.3362 114.991 76.3361Z" fill="#C1CDD6"/>
</g>
<defs>
<clipPath id="clip0_1663_178814">
<rect width="163.2" height="163.2" fill="white"/>
</clipPath>
</defs>
</svg>
