<svg width="164" height="164" viewBox="0 0 164 164" fill="none" xmlns="http://www.w3.org/2000/svg">
<rect width="163.2" height="163.2" fill="white"/>
<path d="M8 24H155.2V140H8V24Z" fill="#F3F7FB"/>
<path d="M16 36C16 33.7909 17.7909 32 20 32H143.2C145.409 32 147.2 33.7909 147.2 36V128C147.2 130.209 145.409 132 143.2 132H20C17.7909 132 16 130.209 16 128V36Z" fill="#0056CF"/>
<path d="M99.3422 81.36L101.346 79.2H101.382V80.568H103.014V81.492H101.382V84.576C101.382 85.26 101.682 85.572 102.354 85.572C102.582 85.572 102.834 85.512 103.014 85.392V86.352C102.81 86.46 102.51 86.532 102.114 86.532C101.01 86.532 100.35 85.848 100.35 84.72V81.492H99.3422V81.36Z" fill="white"/>
<path d="M94.1347 83.352V86.4H93.1027V80.568H94.1347V81.408C94.4947 80.832 95.1187 80.436 95.9947 80.436C97.4827 80.436 98.3467 81.432 98.3467 82.98V86.4H97.3147V83.1C97.3147 82.056 96.7747 81.396 95.7787 81.396C94.7827 81.396 94.1347 82.164 94.1347 83.352Z" fill="white"/>
<path d="M91.3541 84.672V85.788C90.7061 86.256 89.9141 86.532 89.0981 86.532C87.2381 86.532 86.0381 85.2 86.0381 83.484C86.0381 81.744 87.2381 80.436 88.9181 80.436C90.5501 80.436 91.6661 81.78 91.6661 83.436C91.6661 83.664 91.6421 83.808 91.6421 83.808H87.0701C87.1541 84.78 87.9581 85.596 89.1701 85.596C89.9141 85.596 90.6341 85.296 91.3541 84.672ZM87.0941 82.956H90.6221C90.5381 82.032 89.8541 81.336 88.8941 81.336C87.9221 81.336 87.1661 82.164 87.0941 82.956Z" fill="white"/>
<path d="M76.9432 83.34V86.4H75.9112V80.568H76.9312V81.408C77.2552 80.808 77.8432 80.436 78.6472 80.436C79.5112 80.436 80.1352 80.868 80.4832 81.576C80.7712 81.084 81.3712 80.436 82.4752 80.436C83.8192 80.436 84.6232 81.384 84.6232 82.884V86.4H83.5912V83.064C83.5912 82.032 83.1472 81.384 82.2712 81.384C81.3712 81.384 80.7832 82.152 80.7832 83.34V86.4H79.7512V83.088C79.7512 82.044 79.2952 81.384 78.4312 81.384C77.5312 81.384 76.9432 82.152 76.9432 83.34Z" fill="white"/>
<path d="M74.1627 84.672V85.788C73.5147 86.256 72.7227 86.532 71.9067 86.532C70.0467 86.532 68.8467 85.2 68.8467 83.484C68.8467 81.744 70.0467 80.436 71.7267 80.436C73.3587 80.436 74.4747 81.78 74.4747 83.436C74.4747 83.664 74.4507 83.808 74.4507 83.808H69.8787C69.9627 84.78 70.7667 85.596 71.9787 85.596C72.7227 85.596 73.4427 85.296 74.1627 84.672ZM69.9027 82.956H73.4307C73.3467 82.032 72.6627 81.336 71.7027 81.336C70.7307 81.336 69.9747 82.164 69.9027 82.956Z" fill="white"/>
<path d="M66.3136 78H67.3456V86.4H66.3136V78Z" fill="white"/>
<path d="M60 86.4V78H64.668V78.984H61.068V81.552H64.416V82.524H61.068V85.416H64.692V86.4H60Z" fill="white"/>
</svg>
