<svg width="164" height="164" viewBox="0 0 164 164" fill="none" xmlns="http://www.w3.org/2000/svg">
<g clip-path="url(#clip0_1663_178826)">
<rect x="0.200195" width="163.2" height="163.2" fill="white"/>
<rect x="7.7002" y="8" width="147" height="88" fill="#F3F7FB"/>
<path d="M155.2 50.2861L158.087 55.2861L155.7 55.2861L155.7 150.286L158.087 150.286L155.2 155.286L152.313 150.286L154.7 150.286L154.7 55.2861L152.313 55.2861L155.2 50.2861Z" fill="#0056CF"/>
<rect x="7.7002" y="8" width="147" height="34" rx="4" fill="#0056CF"/>
<path fill-rule="evenodd" clip-rule="evenodd" d="M71.8193 23.0361C73.4513 23.0361 74.5674 24.3801 74.5674 26.0361C74.5674 26.2641 74.543 26.4082 74.543 26.4082H69.9717C70.0558 27.3801 70.8595 28.1962 72.0713 28.1963C72.8153 28.1963 73.5359 27.8965 74.2559 27.2725V28.3877C73.6079 28.8557 72.815 29.1318 71.999 29.1318C70.1393 29.1316 68.9395 27.7999 68.9395 26.084C68.9395 24.344 70.1394 23.0362 71.8193 23.0361ZM71.7959 23.9355C70.824 23.9355 70.0673 24.7638 69.9951 25.5557H73.5234C73.4393 24.632 72.7555 23.9358 71.7959 23.9355Z" fill="white"/>
<path fill-rule="evenodd" clip-rule="evenodd" d="M89.0107 23.0361C90.6427 23.0361 91.7588 24.3801 91.7588 26.0361C91.7588 26.2641 91.7344 26.4082 91.7344 26.4082H87.1631C87.2472 27.3801 88.0509 28.1962 89.2627 28.1963C90.0067 28.1963 90.7273 27.8965 91.4473 27.2725V28.3877C90.7993 28.8557 90.0064 29.1318 89.1904 29.1318C87.3307 29.1316 86.1309 27.7999 86.1309 26.084C86.1309 24.344 87.3308 23.0362 89.0107 23.0361ZM88.9873 23.9355C88.0154 23.9355 87.2587 24.7638 87.1865 25.5557H90.7148C90.6307 24.632 89.947 23.9358 88.9873 23.9355Z" fill="white"/>
<path d="M101.475 23.168H103.106V24.0918H101.475V27.1758C101.475 27.8597 101.774 28.1718 102.446 28.1719C102.674 28.1719 102.926 28.1121 103.106 27.9922V28.9521C102.903 29.0601 102.603 29.1318 102.207 29.1318C101.103 29.1318 100.443 28.4481 100.442 27.3203V24.0918H99.4346V23.96L101.438 21.7998H101.475V23.168Z" fill="white"/>
<path d="M64.7607 21.584H61.1611V24.1523H64.5088V25.124H61.1611V28.0156H64.7852V29H60.0928V20.5996H64.7607V21.584Z" fill="white"/>
<path d="M67.4385 29H66.4062V20.5996H67.4385V29Z" fill="white"/>
<path d="M82.5684 23.0361C83.9121 23.0363 84.7158 23.9845 84.7158 25.4844V29H83.6836V25.6641C83.6836 24.6322 83.24 23.9845 82.3643 23.9844C81.4643 23.9844 80.876 24.7524 80.876 25.9404V29H79.8438V25.6885C79.8438 24.6445 79.3874 23.9844 78.5234 23.9844C77.6237 23.9846 77.0361 24.7526 77.0361 25.9404V29H76.0039V23.168H77.0234V24.0078C77.3474 23.4078 77.9362 23.0361 78.7402 23.0361C79.604 23.0362 80.2282 23.4679 80.5762 24.1758C80.8642 23.6838 81.4646 23.0361 82.5684 23.0361Z" fill="white"/>
<path d="M96.0869 23.0361C97.5749 23.0361 98.4395 24.0321 98.4395 25.5801V29H97.4072V25.7002C97.4072 24.6562 96.8671 23.9961 95.8711 23.9961C94.8752 23.9962 94.2275 24.7642 94.2275 25.9521V29H93.1953V23.168H94.2275V24.0078C94.5875 23.432 95.2112 23.0363 96.0869 23.0361Z" fill="white"/>
</g>
<defs>
<clipPath id="clip0_1663_178826">
<rect width="163.2" height="163.2" fill="white"/>
</clipPath>
</defs>
</svg>
