<svg width="164" height="164" viewBox="0 0 164 164" fill="none" xmlns="http://www.w3.org/2000/svg">
<rect width="163.2" height="163.2" fill="white"/>
<path d="M8 24H155.2V140H8V24Z" fill="#F3F7FB"/>
<path d="M16 36C16 33.7909 17.7909 32 20 32H89C91.2091 32 93 33.7909 93 36V128C93 130.209 91.2091 132 89 132H20C17.7909 132 16 130.209 16 128V36Z" fill="#0056CF"/>
<path d="M72.4223 81.36L74.4263 79.2H74.4623V80.568H76.0943V81.492H74.4623V84.576C74.4623 85.26 74.7623 85.572 75.4343 85.572C75.6623 85.572 75.9143 85.512 76.0943 85.392V86.352C75.8903 86.46 75.5903 86.532 75.1943 86.532C74.0903 86.532 73.4303 85.848 73.4303 84.72V81.492H72.4223V81.36Z" fill="white"/>
<path d="M67.2147 83.352V86.4H66.1827V80.568H67.2147V81.408C67.5747 80.832 68.1987 80.436 69.0747 80.436C70.5627 80.436 71.4267 81.432 71.4267 82.98V86.4H70.3947V83.1C70.3947 82.056 69.8547 81.396 68.8587 81.396C67.8627 81.396 67.2147 82.164 67.2147 83.352Z" fill="white"/>
<path d="M64.4342 84.672V85.788C63.7862 86.256 62.9942 86.532 62.1782 86.532C60.3182 86.532 59.1182 85.2 59.1182 83.484C59.1182 81.744 60.3182 80.436 61.9982 80.436C63.6302 80.436 64.7462 81.78 64.7462 83.436C64.7462 83.664 64.7222 83.808 64.7222 83.808H60.1502C60.2342 84.78 61.0382 85.596 62.2502 85.596C62.9942 85.596 63.7142 85.296 64.4342 84.672ZM60.1742 82.956H63.7022C63.6182 82.032 62.9342 81.336 61.9742 81.336C61.0022 81.336 60.2462 82.164 60.1742 82.956Z" fill="white"/>
<path d="M50.0233 83.34V86.4H48.9913V80.568H50.0113V81.408C50.3353 80.808 50.9233 80.436 51.7273 80.436C52.5913 80.436 53.2153 80.868 53.5633 81.576C53.8513 81.084 54.4513 80.436 55.5553 80.436C56.8993 80.436 57.7033 81.384 57.7033 82.884V86.4H56.6713V83.064C56.6713 82.032 56.2273 81.384 55.3513 81.384C54.4513 81.384 53.8633 82.152 53.8633 83.34V86.4H52.8313V83.088C52.8313 82.044 52.3753 81.384 51.5113 81.384C50.6113 81.384 50.0233 82.152 50.0233 83.34Z" fill="white"/>
<path d="M47.2428 84.672V85.788C46.5948 86.256 45.8028 86.532 44.9868 86.532C43.1268 86.532 41.9268 85.2 41.9268 83.484C41.9268 81.744 43.1268 80.436 44.8068 80.436C46.4388 80.436 47.5548 81.78 47.5548 83.436C47.5548 83.664 47.5308 83.808 47.5308 83.808H42.9588C43.0428 84.78 43.8468 85.596 45.0588 85.596C45.8028 85.596 46.5228 85.296 47.2428 84.672ZM42.9828 82.956H46.5108C46.4268 82.032 45.7428 81.336 44.7828 81.336C43.8108 81.336 43.0548 82.164 42.9828 82.956Z" fill="white"/>
<path d="M39.3937 78H40.4257V86.4H39.3937V78Z" fill="white"/>
<path d="M33.0801 86.4V78H37.7481V78.984H34.1481V81.552H37.4961V82.524H34.1481V85.416H37.7721V86.4H33.0801Z" fill="white"/>
</svg>
