<svg width="281" height="56" viewBox="0 0 281 56" fill="none" xmlns="http://www.w3.org/2000/svg">
<path d="M275 1C277.761 1 280 3.23857 280 6V50C280 52.7614 277.761 55 275 55H6C3.23858 55 1 52.7614 1 50V6C1 3.23858 3.23858 1 6 1H275Z" fill="white"/>
<path fill-rule="evenodd" clip-rule="evenodd" d="M275 0C278.314 0 281 2.68629 281 6V50L280.992 50.3086C280.837 53.3767 278.377 55.8367 275.309 55.9922L275 56H6L5.69141 55.9922C2.62332 55.8368 0.16325 53.3767 0.0078125 50.3086L0 50V6C2.57711e-07 2.68629 2.68629 4.42926e-08 6 0H275ZM6 1C3.23858 1 1 3.23858 1 6V50C1 52.7614 3.23858 55 6 55H275C277.761 55 280 52.7614 280 50V6C280 3.23857 277.761 1 275 1H6Z" fill="#0056CF"/>
<path d="M44 9C45.6569 9 47 10.3431 47 12V44C47 45.6569 45.6569 47 44 47H12C10.3431 47 9 45.6569 9 44V12C9 10.3431 10.3431 9 12 9H44Z" fill="#F3F7FB"/>
<path fill-rule="evenodd" clip-rule="evenodd" d="M44.2061 8.00488C46.3194 8.11212 48 9.85996 48 12V44L47.9951 44.2061C47.8913 46.2512 46.2512 47.8913 44.2061 47.9951L44 48H12C9.85996 48 8.11211 46.3194 8.00488 44.2061L8 44V12C8 9.79086 9.79086 8 12 8H44L44.2061 8.00488ZM12 9C10.3431 9 9 10.3431 9 12V44C9 45.6569 10.3431 47 12 47H44C45.6569 47 47 45.6569 47 44V12C47 10.3431 45.6569 9 44 9H12Z" fill="#E4E8F0"/>
<path d="M29.6808 32.9999H27.3868V24.8314L25.4648 25.5754V23.3279L27.8673 22.3514H29.6808V32.9999Z" fill="#242B42"/>
<path d="M157 9C158.657 9 160 10.3431 160 12V44C160 45.6569 158.657 47 157 47H125C123.343 47 122 45.6569 122 44V12C122 10.3431 123.343 9 125 9H157Z" fill="#F3F7FB"/>
<path fill-rule="evenodd" clip-rule="evenodd" d="M157.206 8.00488C159.319 8.11212 161 9.85996 161 12V44L160.995 44.2061C160.891 46.2512 159.251 47.8913 157.206 47.9951L157 48H125C122.86 48 121.112 46.3194 121.005 44.2061L121 44V12C121 9.79086 122.791 8 125 8H157L157.206 8.00488ZM125 9C123.343 9 122 10.3431 122 12V44C122 45.6569 123.343 47 125 47H157C158.657 47 160 45.6569 160 44V12C160 10.3431 158.657 9 157 9H125Z" fill="#E4E8F0"/>
<path d="M144.797 33H137.574V31.3725L141.062 27.916C142.054 26.955 142.333 26.459 142.333 25.746C142.333 24.8935 141.604 24.289 140.581 24.289C139.589 24.289 138.659 24.847 137.822 25.7615V23.328C138.644 22.584 139.713 22.1655 140.767 22.1655C142.906 22.1655 144.627 23.4675 144.627 25.498C144.627 26.9085 144.038 27.947 142.689 29.187L140.783 30.954H144.797V33Z" fill="#242B42"/>
<path d="M269 9C270.657 9 272 10.3431 272 12V44C272 45.6569 270.657 47 269 47H237C235.343 47 234 45.6569 234 44V12C234 10.3431 235.343 9 237 9H269Z" fill="#F3F7FB"/>
<path fill-rule="evenodd" clip-rule="evenodd" d="M269.206 8.00488C271.319 8.11212 273 9.85996 273 12V44L272.995 44.2061C272.891 46.2512 271.251 47.8913 269.206 47.9951L269 48H237C234.86 48 233.112 46.3194 233.005 44.2061L233 44V12C233 9.79086 234.791 8 237 8H269L269.206 8.00488ZM237 9C235.343 9 234 10.3431 234 12V44C234 45.6569 235.343 47 237 47H269C270.657 47 272 45.6569 272 44V12C272 10.3431 270.657 9 269 9H237Z" fill="#E4E8F0"/>
<path d="M256.55 29.8225C256.55 31.8375 254.953 33.2015 252.52 33.2015C251.481 33.2015 250.505 32.938 249.621 32.3955V30.0705C250.505 30.768 251.404 31.109 252.334 31.109C253.465 31.109 254.256 30.5975 254.256 29.6985C254.256 28.908 253.512 28.3655 252.411 28.3655H251.404V26.5675H252.365C253.264 26.5675 253.884 26.0715 253.884 25.4205C253.884 24.6765 253.155 24.2425 252.287 24.2425C251.435 24.2425 250.66 24.568 249.838 25.2345V22.956C250.613 22.429 251.528 22.1655 252.473 22.1655C254.581 22.1655 256.131 23.2815 256.131 25.1415C256.131 26.1335 255.62 26.8775 254.814 27.327C255.914 27.7765 256.55 28.66 256.55 29.8225Z" fill="#242B42"/>
</svg>
