<svg width="362" height="159" viewBox="0 0 362 159" fill="none" xmlns="http://www.w3.org/2000/svg">
<g filter="url(#filter0_d_2268_4263)">
<path d="M339.776 55.7314C341.705 55.7316 343.268 57.295 343.269 59.2236V99.7764C343.268 101.705 341.705 103.268 339.776 103.269H22.2236C20.2949 103.268 18.7316 101.705 18.7314 99.7764V59.2236C18.7316 57.295 20.295 55.7316 22.2236 55.7314H339.776Z" fill="white"/>
<path d="M339.776 55.7314C341.705 55.7316 343.268 57.295 343.269 59.2236V99.7764C343.268 101.705 341.705 103.268 339.776 103.269H22.2236C20.2949 103.268 18.7316 101.705 18.7314 99.7764V59.2236C18.7316 57.295 20.295 55.7316 22.2236 55.7314H339.776Z" stroke="#E4E8F0" stroke-width="0.537313"/>
<rect x="27.5967" y="68.8955" width="21.4925" height="21.4925" rx="10.7463" fill="#0056CF" fill-opacity="0.05"/>
<path d="M34.5819 77.386C34.5819 77.0481 34.8464 76.7689 35.1843 76.7689H41.4872C41.8251 76.7689 42.1043 77.0481 42.1043 77.386C42.1043 77.5329 42.0455 77.6651 41.9574 77.768L39.5185 80.7799V82.8809C39.5185 83.1453 39.2981 83.351 39.0336 83.351C38.9308 83.351 38.8279 83.3216 38.7398 83.2482L37.3881 82.1756C37.2412 82.0581 37.1677 81.8965 37.1677 81.7202V80.7799L34.7141 77.768C34.626 77.6651 34.5819 77.5329 34.5819 77.386ZM35.39 77.4741L37.7848 80.4273C37.8436 80.5007 37.8729 80.5742 37.8729 80.6477V81.6614L38.8132 82.4107V80.6477C38.8132 80.5742 38.8279 80.5007 38.8867 80.4273L41.2962 77.4741H35.39Z" fill="#0056CF"/>
<path d="M62.6752 76.8118H63.3914V82.6416H62.6919L59.1523 77.9361V82.6416H58.4361V76.8118H59.194L62.6752 81.459V76.8118ZM66.6613 78.5024C67.8772 78.5024 68.7767 79.4435 68.7767 80.6178C68.7767 81.7921 67.8772 82.7332 66.6613 82.7332C65.4454 82.7332 64.5459 81.7921 64.5459 80.6178C64.5459 79.4435 65.4454 78.5024 66.6613 78.5024ZM66.6613 79.1603C65.8701 79.1603 65.2705 79.81 65.2705 80.6178C65.2705 81.4257 65.8701 82.0753 66.6613 82.0753C67.4525 82.0753 68.0521 81.4257 68.0521 80.6178C68.0521 79.81 67.4525 79.1603 66.6613 79.1603ZM72.7345 79.9515V82.6416H71.9933V76.8118H75.1664V77.4947H72.7345V79.2769H75.0332V79.9515H72.7345ZM77.0724 77.3947C77.0724 77.6612 76.8558 77.8778 76.5893 77.8778C76.3228 77.8778 76.1063 77.6612 76.1063 77.3947C76.1063 77.1282 76.3228 76.9117 76.5893 76.9117C76.8558 76.9117 77.0724 77.1282 77.0724 77.3947ZM76.2312 78.594H76.9475V82.6416H76.2312V78.594ZM78.3076 76.8118H79.0239V82.6416H78.3076V76.8118ZM79.8427 79.1437L81.2336 77.6446H81.2585V78.594H82.3912V79.2353H81.2585V81.3757C81.2585 81.8504 81.4667 82.0669 81.9331 82.0669C82.0914 82.0669 82.2663 82.0253 82.3912 81.942V82.6083C82.2496 82.6832 82.0414 82.7332 81.7666 82.7332C81.0004 82.7332 80.5423 82.2585 80.5423 81.4756V79.2353H79.8427V79.1437ZM86.7287 81.4423V82.2169C86.279 82.5417 85.7293 82.7332 85.163 82.7332C83.8721 82.7332 83.0392 81.8088 83.0392 80.6178C83.0392 79.4102 83.8721 78.5024 85.038 78.5024C86.1707 78.5024 86.9452 79.4352 86.9452 80.5845C86.9452 80.7427 86.9286 80.8427 86.9286 80.8427H83.7555C83.8138 81.5173 84.3718 82.0836 85.2129 82.0836C85.7293 82.0836 86.229 81.8754 86.7287 81.4423ZM83.7721 80.2514H86.2207C86.1624 79.6101 85.6877 79.127 85.0214 79.127C84.3468 79.127 83.8221 79.7017 83.7721 80.2514ZM90.0845 78.544V79.2603C90.0845 79.2603 90.0095 79.2436 89.8846 79.2436C89.1351 79.2436 88.677 79.8433 88.677 80.7178V82.6416H87.9691V78.594H88.6687V79.3103C88.8519 78.8439 89.3766 78.5274 89.9096 78.5274C90.0095 78.5274 90.0845 78.544 90.0845 78.544ZM92.8572 82.1336V81.2508C93.3402 81.6838 93.9982 82.0253 94.6811 82.0253C95.2807 82.0253 95.947 81.7421 95.947 81.0426C95.947 80.3846 95.339 80.2014 94.6728 80.0265C93.8149 79.81 92.8489 79.5351 92.8489 78.3525C92.8489 77.2948 93.7733 76.7118 94.7477 76.7118C95.414 76.7118 95.9803 76.9117 96.4883 77.2781V78.136C96.0136 77.7195 95.4306 77.4114 94.7477 77.4114C94.2147 77.4114 93.5984 77.7112 93.5984 78.3109C93.5984 79.0104 94.273 79.1937 94.9976 79.3852C95.8138 79.6018 96.6966 79.9432 96.6966 81.0009C96.6966 82.1336 95.7138 82.7332 94.6894 82.7332C94.0315 82.7332 93.3735 82.5333 92.8572 82.1336ZM101.183 81.4423V82.2169C100.733 82.5417 100.184 82.7332 99.6173 82.7332C98.3264 82.7332 97.4936 81.8088 97.4936 80.6178C97.4936 79.4102 98.3264 78.5024 99.4924 78.5024C100.625 78.5024 101.4 79.4352 101.4 80.5845C101.4 80.7427 101.383 80.8427 101.383 80.8427H98.2098C98.2681 81.5173 98.8261 82.0836 99.6673 82.0836C100.184 82.0836 100.683 81.8754 101.183 81.4423ZM98.2265 80.2514H100.675C100.617 79.6101 100.142 79.127 99.4757 79.127C98.8012 79.127 98.2765 79.7017 98.2265 80.2514ZM102.423 76.8118H103.14V82.6416H102.423V76.8118ZM107.898 81.4423V82.2169C107.448 82.5417 106.898 82.7332 106.332 82.7332C105.041 82.7332 104.208 81.8088 104.208 80.6178C104.208 79.4102 105.041 78.5024 106.207 78.5024C107.34 78.5024 108.114 79.4352 108.114 80.5845C108.114 80.7427 108.098 80.8427 108.098 80.8427H104.925C104.983 81.5173 105.541 82.0836 106.382 82.0836C106.898 82.0836 107.398 81.8754 107.898 81.4423ZM104.941 80.2514H107.39C107.332 79.6101 106.857 79.127 106.191 79.127C105.516 79.127 104.991 79.7017 104.941 80.2514ZM108.887 80.6178C108.887 79.4352 109.762 78.5024 111.003 78.5024C111.428 78.5024 111.819 78.6273 112.152 78.8522V79.5768C111.794 79.3019 111.428 79.1687 111.036 79.1687C110.212 79.1687 109.612 79.8016 109.612 80.6178C109.612 81.4257 110.212 82.0669 111.036 82.0669C111.461 82.0669 111.852 81.8754 112.177 81.6672V82.3918C111.827 82.6083 111.428 82.7332 111.011 82.7332C109.737 82.7332 108.887 81.8088 108.887 80.6178ZM112.78 79.1437L114.171 77.6446H114.196V78.594H115.328V79.2353H114.196V81.3757C114.196 81.8504 114.404 82.0669 114.87 82.0669C115.028 82.0669 115.203 82.0253 115.328 81.942V82.6083C115.187 82.6832 114.979 82.7332 114.704 82.7332C113.937 82.7332 113.479 82.2585 113.479 81.4756V79.2353H112.78V79.1437ZM119.666 81.4423V82.2169C119.216 82.5417 118.666 82.7332 118.1 82.7332C116.809 82.7332 115.976 81.8088 115.976 80.6178C115.976 79.4102 116.809 78.5024 117.975 78.5024C119.108 78.5024 119.882 79.4352 119.882 80.5845C119.882 80.7427 119.866 80.8427 119.866 80.8427H116.693C116.751 81.5173 117.309 82.0836 118.15 82.0836C118.666 82.0836 119.166 81.8754 119.666 81.4423ZM116.709 80.2514H119.158C119.099 79.6101 118.625 79.127 117.958 79.127C117.284 79.127 116.759 79.7017 116.709 80.2514ZM124.12 76.8118H124.828V82.6416H124.12V82.0003C123.828 82.4417 123.279 82.7332 122.687 82.7332C121.538 82.7332 120.655 81.8171 120.655 80.6178C120.655 79.4269 121.538 78.5024 122.687 78.5024C123.279 78.5024 123.82 78.7606 124.12 79.202V76.8118ZM124.162 80.6178C124.162 79.8016 123.562 79.1603 122.771 79.1603C121.98 79.1603 121.38 79.8016 121.38 80.6178C121.38 81.434 121.98 82.0753 122.771 82.0753C123.562 82.0753 124.162 81.434 124.162 80.6178Z" fill="#687887"/>
<path d="M226.85 81.6416H226.283V77.8503L225.483 78.1792V77.5989L226.386 77.212H226.85V81.6416ZM229.61 81.7125C228.404 81.7125 227.824 80.6229 227.824 79.43C227.824 78.2307 228.404 77.1411 229.61 77.1411C230.816 77.1411 231.396 78.2307 231.396 79.43C231.396 80.6229 230.816 81.7125 229.61 81.7125ZM229.61 81.1774C230.448 81.1774 230.822 80.3327 230.822 79.43C230.822 78.5273 230.448 77.6762 229.61 77.6762C228.772 77.6762 228.398 78.5273 228.398 79.43C228.398 80.3327 228.772 81.1774 229.61 81.1774Z" fill="#687887"/>
<path d="M235 79.7266V81.6416H234.426V77.1282H235.748C236.599 77.1282 237.198 77.5989 237.198 78.4306C237.198 79.127 236.734 79.5848 236.077 79.7008L237.495 81.6416H236.818L235.438 79.7266H235ZM235 77.6569V79.2172H235.741C236.257 79.2172 236.618 78.9271 236.618 78.4306C236.618 77.9277 236.257 77.6569 235.741 77.6569H235ZM240.614 80.7131V81.3128C240.266 81.5642 239.841 81.7125 239.402 81.7125C238.403 81.7125 237.758 80.9968 237.758 80.0748C237.758 79.1399 238.403 78.4371 239.305 78.4371C240.182 78.4371 240.782 79.1592 240.782 80.049C240.782 80.1715 240.769 80.2489 240.769 80.2489H238.313C238.358 80.7712 238.79 81.2096 239.441 81.2096C239.841 81.2096 240.227 81.0484 240.614 80.7131ZM238.325 79.7911H240.221C240.176 79.2946 239.808 78.9206 239.293 78.9206C238.77 78.9206 238.364 79.3655 238.325 79.7911ZM241.399 81.3901V80.7776C241.683 81.0355 242.051 81.216 242.431 81.216C242.747 81.216 243.037 81.1064 243.037 80.784C243.037 80.4617 242.734 80.352 242.341 80.2682C241.889 80.1715 241.393 79.991 241.393 79.3849C241.393 78.753 241.928 78.4371 242.489 78.4371C242.824 78.4371 243.16 78.5402 243.437 78.7272V79.314C243.16 79.0883 242.837 78.9271 242.502 78.9271C242.238 78.9271 241.935 79.0303 241.935 79.3204C241.935 79.6041 242.205 79.7266 242.566 79.8169C243.147 79.9587 243.585 80.1715 243.585 80.7389C243.585 81.3772 243.05 81.7125 242.425 81.7125C242.083 81.7125 241.696 81.6094 241.399 81.3901ZM246.558 80.1457V78.508H247.112V81.6416H246.558V81.1903C246.364 81.4998 246.036 81.7125 245.565 81.7125C244.772 81.7125 244.314 81.1774 244.314 80.3456V78.508H244.869V80.2811C244.869 80.8421 245.152 81.1967 245.681 81.1967C246.21 81.1967 246.558 80.784 246.558 80.1457ZM248.17 77.1282H248.725V81.6416H248.17V77.1282ZM249.365 78.9335L250.442 77.7729H250.461V78.508H251.338V79.0045H250.461V80.6615C250.461 81.0291 250.622 81.1967 250.983 81.1967C251.106 81.1967 251.241 81.1645 251.338 81.1V81.6158C251.228 81.6738 251.067 81.7125 250.854 81.7125C250.261 81.7125 249.907 81.345 249.907 80.7389V79.0045H249.365V78.9335ZM251.985 81.3901V80.7776C252.268 81.0355 252.636 81.216 253.016 81.216C253.332 81.216 253.622 81.1064 253.622 80.784C253.622 80.4617 253.319 80.352 252.926 80.2682C252.475 80.1715 251.978 79.991 251.978 79.3849C251.978 78.753 252.513 78.4371 253.074 78.4371C253.409 78.4371 253.745 78.5402 254.022 78.7272V79.314C253.745 79.0883 253.422 78.9271 253.087 78.9271C252.823 78.9271 252.52 79.0303 252.52 79.3204C252.52 79.6041 252.79 79.7266 253.152 79.8169C253.732 79.9587 254.17 80.1715 254.17 80.7389C254.17 81.3772 253.635 81.7125 253.01 81.7125C252.668 81.7125 252.281 81.6094 251.985 81.3901Z" fill="#687887"/>
<path d="M274.267 76.3759H276.058C277.201 76.3759 277.991 76.9928 277.991 78.076C277.991 79.1517 277.201 79.776 276.058 79.776H275.396V81.6416H274.267V76.3759ZM275.396 77.3915V78.7756H276.08C276.531 78.7756 276.855 78.5198 276.855 78.0835C276.855 77.6472 276.531 77.3915 276.08 77.3915H275.396ZM278.497 79.7836C278.497 78.6778 279.362 77.8278 280.513 77.8278C281.664 77.8278 282.529 78.6778 282.529 79.7836C282.529 80.8894 281.664 81.7394 280.513 81.7394C279.362 81.7394 278.497 80.8894 278.497 79.7836ZM279.58 79.7836C279.58 80.3177 280.001 80.7389 280.513 80.7389C281.025 80.7389 281.446 80.3177 281.446 79.7836C281.446 79.2495 281.025 78.8282 280.513 78.8282C280.001 78.8282 279.58 79.2495 279.58 79.7836ZM284.593 83.2063H283.503V77.9255H284.593V78.422C284.857 78.0384 285.308 77.8353 285.797 77.8353C286.798 77.8353 287.557 78.6778 287.557 79.7836C287.557 80.8818 286.798 81.7319 285.797 81.7319C285.308 81.7319 284.857 81.5513 284.593 81.1602V83.2063ZM286.467 79.7836C286.467 79.2495 286.045 78.8207 285.511 78.8207C284.977 78.8207 284.556 79.2495 284.556 79.7836C284.556 80.3177 284.977 80.7464 285.511 80.7464C286.045 80.7464 286.467 80.3177 286.467 79.7836ZM290.918 79.8889V77.9255H292.016V81.6416H290.918V81.1677C290.7 81.5212 290.324 81.7394 289.835 81.7394C288.992 81.7394 288.473 81.1526 288.473 80.2199V77.9255H289.572V79.9566C289.572 80.4455 289.812 80.7314 290.226 80.7314C290.647 80.7314 290.918 80.4155 290.918 79.8889ZM293.203 76.3759H294.301V81.6416H293.203V76.3759ZM298.622 81.6416H297.607L297.591 81.1752C297.373 81.5589 296.945 81.7394 296.501 81.7394C295.809 81.7394 295.335 81.3031 295.335 80.6486C295.335 79.9641 295.794 79.5429 296.719 79.4075L297.561 79.2871V79.242C297.561 78.9335 297.313 78.753 296.809 78.753C296.328 78.753 295.899 78.9411 295.56 79.2495V78.2039C295.884 77.9857 296.35 77.8278 296.922 77.8278C297.998 77.8278 298.622 78.3468 298.622 79.3097V81.6416ZM296.373 80.5584C296.38 80.769 296.553 80.9044 296.802 80.9044C297.26 80.9044 297.561 80.5734 297.561 80.1522V80.0243L296.907 80.1296C296.553 80.1823 296.373 80.3402 296.373 80.5584ZM302.12 77.8654V78.9937C302.06 78.9636 301.955 78.9486 301.842 78.9486C301.233 78.9486 300.872 79.3999 300.872 80.1296V81.6416H299.781V77.9255H300.864V78.5349C301.06 78.1061 301.451 77.8428 301.932 77.8428C302.015 77.8428 302.098 77.8578 302.12 77.8654ZM304.087 81.6416H302.989V77.9255H304.087V81.6416ZM304.177 76.8498C304.177 77.1959 303.892 77.4892 303.538 77.4892C303.185 77.4892 302.899 77.1959 302.899 76.8498C302.899 76.5038 303.185 76.2104 303.538 76.2104C303.892 76.2104 304.177 76.5038 304.177 76.8498ZM305.49 78.8282H304.812V78.6853L306.55 76.8724H306.58V77.9255H307.521V78.8282H306.58V80.1898C306.58 80.5885 306.753 80.7464 307.099 80.7464C307.25 80.7464 307.408 80.6938 307.521 80.611V81.5739C307.348 81.6642 307.077 81.7319 306.731 81.7319C305.941 81.7319 305.49 81.2805 305.49 80.4531V78.8282ZM308.991 83.3266C308.698 83.3266 308.495 83.2589 308.367 83.1912V82.2735C308.495 82.3337 308.638 82.3638 308.788 82.3638C309.111 82.3638 309.33 82.2359 309.48 81.8748L309.585 81.6341L308.081 77.9255H309.239L310.165 80.4155L311.105 77.9255H312.233L310.571 81.9651C310.18 82.9279 309.691 83.3266 308.991 83.3266Z" fill="#0056CF"/>
<path d="M317.295 80.5985C317.148 80.4662 317.148 80.2458 317.295 80.0989C317.427 79.9667 317.647 79.9667 317.794 80.0989L318.602 80.9217V75.8823C318.602 75.6913 318.749 75.5297 318.955 75.5297C319.146 75.5297 319.308 75.6913 319.308 75.8823V80.9217L320.116 80.1136C320.248 79.9667 320.468 79.9667 320.6 80.1136C320.747 80.2458 320.747 80.4662 320.6 80.5985L319.19 82.0089C319.058 82.1558 318.837 82.1558 318.705 82.0089L317.295 80.5985ZM321.658 82.1118C321.453 82.1118 321.306 81.9648 321.306 81.7591C321.306 81.5681 321.453 81.4065 321.658 81.4065H322.364C322.554 81.4065 322.716 81.5681 322.716 81.7591C322.716 81.9648 322.554 82.1118 322.364 82.1118H321.658ZM321.658 80.2312C321.453 80.2312 321.306 80.0842 321.306 79.8785C321.306 79.6875 321.453 79.5259 321.658 79.5259H323.304C323.495 79.5259 323.656 79.6875 323.656 79.8785C323.656 80.0842 323.495 80.2312 323.304 80.2312H321.658ZM321.658 78.3506C321.453 78.3506 321.306 78.2036 321.306 77.9979C321.306 77.8069 321.453 77.6453 321.658 77.6453H324.244C324.435 77.6453 324.597 77.8069 324.597 77.9979C324.597 78.2036 324.435 78.3506 324.244 78.3506H321.658ZM321.658 76.47C321.453 76.47 321.306 76.323 321.306 76.1173C321.306 75.9263 321.453 75.7647 321.658 75.7647H325.184C325.375 75.7647 325.537 75.9263 325.537 76.1173C325.537 76.323 325.375 76.47 325.184 76.47H321.658Z" fill="#0056CF"/>
</g>
<defs>
<filter id="filter0_d_2268_4263" x="3.41811" y="46.8659" width="355.164" height="78.1638" filterUnits="userSpaceOnUse" color-interpolation-filters="sRGB">
<feFlood flood-opacity="0" result="BackgroundImageFix"/>
<feColorMatrix in="SourceAlpha" type="matrix" values="0 0 0 0 0 0 0 0 0 0 0 0 0 0 0 0 0 0 127 0" result="hardAlpha"/>
<feOffset dy="6.44776"/>
<feGaussianBlur stdDeviation="7.52239"/>
<feColorMatrix type="matrix" values="0 0 0 0 0.235294 0 0 0 0 0.415686 0 0 0 0 0.67451 0 0 0 0.18 0"/>
<feBlend mode="normal" in2="BackgroundImageFix" result="effect1_dropShadow_2268_4263"/>
<feBlend mode="normal" in="SourceGraphic" in2="effect1_dropShadow_2268_4263" result="shape"/>
</filter>
</defs>
</svg>
