<svg width="362" height="159" viewBox="0 0 362 159" fill="none" xmlns="http://www.w3.org/2000/svg">
<circle cx="135" cy="79" r="5" fill="#0056CF"/>
<path d="M148.681 84H146.387V75.8315L144.465 76.5755V74.328L146.868 73.3515H148.681V84ZM150.575 78.6835C150.575 75.785 152.125 73.1655 155.132 73.1655C158.139 73.1655 159.689 75.785 159.689 78.6835C159.689 81.582 158.139 84.2015 155.132 84.2015C152.125 84.2015 150.575 81.582 150.575 78.6835ZM157.379 78.6835C157.379 76.9785 156.697 75.32 155.132 75.32C153.566 75.32 152.884 76.9785 152.884 78.6835C152.884 80.3885 153.566 82.047 155.132 82.047C156.697 82.047 157.379 80.3885 157.379 78.6835Z" fill="#242B42"/>
<path d="M169.774 84H168.891L165.217 73.15H166.643L169.371 81.427L172.223 73.15H173.076L175.928 81.427L178.671 73.15H180.066L176.377 84H175.494L172.626 75.7385L169.774 84ZM183.144 74.235C183.144 74.731 182.741 75.134 182.245 75.134C181.749 75.134 181.346 74.731 181.346 74.235C181.346 73.739 181.749 73.336 182.245 73.336C182.741 73.336 183.144 73.739 183.144 74.235ZM181.578 76.467H182.911V84H181.578V76.467ZM186.776 80.063V84H185.443V76.467H186.776V77.552C187.241 76.808 188.047 76.2965 189.178 76.2965C191.1 76.2965 192.216 77.583 192.216 79.5825V84H190.883V79.7375C190.883 78.389 190.186 77.5365 188.899 77.5365C187.613 77.5365 186.776 78.5285 186.776 80.063ZM200.541 73.15H201.858V84H200.541V82.8065C199.998 83.628 198.975 84.1705 197.875 84.1705C195.736 84.1705 194.093 82.4655 194.093 80.2335C194.093 78.017 195.736 76.2965 197.875 76.2965C198.975 76.2965 199.983 76.777 200.541 77.5985V73.15ZM200.618 80.2335C200.618 78.7145 199.502 77.521 198.03 77.521C196.557 77.521 195.441 78.7145 195.441 80.2335C195.441 81.7525 196.557 82.946 198.03 82.946C199.502 82.946 200.618 81.7525 200.618 80.2335ZM207.782 76.2965C210.045 76.2965 211.719 78.048 211.719 80.2335C211.719 82.419 210.045 84.1705 207.782 84.1705C205.519 84.1705 203.845 82.419 203.845 80.2335C203.845 78.048 205.519 76.2965 207.782 76.2965ZM207.782 77.521C206.31 77.521 205.194 78.73 205.194 80.2335C205.194 81.737 206.31 82.946 207.782 82.946C209.255 82.946 210.371 81.737 210.371 80.2335C210.371 78.73 209.255 77.521 207.782 77.521ZM221.471 84H220.448L218.464 78.42L216.48 84H215.457L212.651 76.467H214.031L215.999 82.109L217.999 76.467H218.96L220.959 82.109L222.928 76.467H224.276L221.471 84ZM225.319 83.3955V81.923C226.001 82.543 226.885 82.977 227.799 82.977C228.559 82.977 229.256 82.7135 229.256 81.9385C229.256 81.1635 228.528 80.9 227.582 80.6985C226.497 80.466 225.304 80.032 225.304 78.575C225.304 77.056 226.59 76.2965 227.939 76.2965C228.745 76.2965 229.551 76.5445 230.217 76.994V78.4045C229.551 77.862 228.776 77.4745 227.97 77.4745C227.334 77.4745 226.606 77.7225 226.606 78.42C226.606 79.102 227.257 79.3965 228.125 79.6135C229.52 79.9545 230.574 80.466 230.574 81.83C230.574 83.3645 229.287 84.1705 227.784 84.1705C226.962 84.1705 226.032 83.9225 225.319 83.3955Z" fill="#687887"/>
</svg>
