<svg width="362" height="159" viewBox="0 0 362 159" fill="none" xmlns="http://www.w3.org/2000/svg">
<g clip-path="url(#clip0_2268_4265)">
<g filter="url(#filter0_d_2268_4265)">
<rect width="157.495" height="112.163" transform="translate(102.151 24.4521)" fill="white"/>
<path d="M111.866 45.2636H112.636V51.3232H111.866V45.2636ZM113.569 47.6875L115.015 46.1293H115.041V47.1161H116.218V47.7827H115.041V50.0074C115.041 50.5009 115.258 50.7259 115.742 50.7259C115.907 50.7259 116.089 50.6827 116.218 50.5961V51.2886C116.071 51.3665 115.855 51.4185 115.569 51.4185C114.773 51.4185 114.297 50.925 114.297 50.1113V47.7827H113.569V47.6875ZM120.727 50.0767V50.8818C120.259 51.2194 119.688 51.4185 119.099 51.4185C117.758 51.4185 116.892 50.4576 116.892 49.2197C116.892 47.9645 117.758 47.0209 118.97 47.0209C120.147 47.0209 120.952 47.9904 120.952 49.1851C120.952 49.3495 120.935 49.4534 120.935 49.4534H117.636C117.697 50.1546 118.277 50.7432 119.151 50.7432C119.688 50.7432 120.207 50.5268 120.727 50.0767ZM117.654 48.8388H120.199C120.138 48.1722 119.645 47.6701 118.952 47.6701C118.251 47.6701 117.706 48.2674 117.654 48.8388ZM122.761 49.1158V51.3232H122.016V47.1161H122.752V47.7221C122.986 47.2892 123.41 47.0209 123.99 47.0209C124.613 47.0209 125.063 47.3325 125.314 47.8433C125.522 47.4883 125.955 47.0209 126.751 47.0209C127.721 47.0209 128.301 47.7048 128.301 48.7868V51.3232H127.556V48.9167C127.556 48.1722 127.236 47.7048 126.604 47.7048C125.955 47.7048 125.531 48.2588 125.531 49.1158V51.3232H124.786V48.934C124.786 48.1809 124.457 47.7048 123.834 47.7048C123.185 47.7048 122.761 48.2588 122.761 49.1158ZM133.274 51.3232H132.512V46.2331L131.439 46.6746V45.8955L132.651 45.3761H133.274V51.3232Z" fill="#242B42"/>
<rect width="69.8117" height="0.558493" transform="matrix(1 0 0 -1 111.087 64.8184)" fill="#E4E8F0"/>
<rect width="69.8117" height="0.558493" transform="matrix(1 0 0 -1 180.898 64.8184)" fill="#E4E8F0"/>
<path d="M111.866 76.6943H112.636V82.7539H111.866V76.6943ZM113.569 79.1181L115.015 77.5599H115.041V78.5468H116.218V79.2133H115.041V81.4381C115.041 81.9315 115.258 82.1566 115.742 82.1566C115.907 82.1566 116.089 82.1133 116.218 82.0267V82.7193C116.071 82.7972 115.855 82.8491 115.569 82.8491C114.773 82.8491 114.297 82.3557 114.297 81.542V79.2133H113.569V79.1181ZM120.727 81.5073V82.3124C120.259 82.65 119.688 82.8491 119.099 82.8491C117.758 82.8491 116.892 81.8882 116.892 80.6503C116.892 79.3951 117.758 78.4516 118.97 78.4516C120.147 78.4516 120.952 79.4211 120.952 80.6157C120.952 80.7802 120.935 80.8841 120.935 80.8841H117.636C117.697 81.5853 118.277 82.1739 119.151 82.1739C119.688 82.1739 120.207 81.9575 120.727 81.5073ZM117.654 80.2694H120.199C120.138 79.6029 119.645 79.1008 118.952 79.1008C118.251 79.1008 117.706 79.6981 117.654 80.2694ZM122.761 80.5465V82.7539H122.016V78.5468H122.752V79.1527C122.986 78.7199 123.41 78.4516 123.99 78.4516C124.613 78.4516 125.063 78.7632 125.314 79.2739C125.522 78.919 125.955 78.4516 126.751 78.4516C127.721 78.4516 128.301 79.1354 128.301 80.2175V82.7539H127.556V80.3474C127.556 79.6029 127.236 79.1354 126.604 79.1354C125.955 79.1354 125.531 79.6895 125.531 80.5465V82.7539H124.786V80.3647C124.786 79.6115 124.457 79.1354 123.834 79.1354C123.185 79.1354 122.761 79.6895 122.761 80.5465ZM131.465 82.7539V82.2259L133.681 79.8799C134.192 79.3432 134.347 78.971 134.347 78.5121C134.347 77.8975 133.811 77.4301 133.118 77.4301C132.573 77.4301 132.01 77.7936 131.534 78.3823V77.4734C131.949 77.0059 132.564 76.7116 133.127 76.7116C134.269 76.7116 135.109 77.4474 135.109 78.4775C135.109 79.1874 134.832 79.7068 134.192 80.382L132.607 82.0441H135.187V82.7539H131.465Z" fill="#242B42"/>
<rect width="69.8117" height="0.558493" transform="matrix(1 0 0 -1 111.087 96.249)" fill="#E4E8F0"/>
<rect width="69.8117" height="0.558493" transform="matrix(1 0 0 -1 180.898 96.249)" fill="#E4E8F0"/>
<path d="M111.866 108.125H112.636V114.185H111.866V108.125ZM113.569 110.549L115.015 108.991H115.041V109.977H116.218V110.644H115.041V112.869C115.041 113.362 115.258 113.587 115.742 113.587C115.907 113.587 116.089 113.544 116.218 113.457V114.15C116.071 114.228 115.855 114.28 115.569 114.28C114.773 114.28 114.297 113.786 114.297 112.973V110.644H113.569V110.549ZM120.727 112.938V113.743C120.259 114.081 119.688 114.28 119.099 114.28C117.758 114.28 116.892 113.319 116.892 112.081C116.892 110.826 117.758 109.882 118.97 109.882C120.147 109.882 120.952 110.852 120.952 112.046C120.952 112.211 120.935 112.315 120.935 112.315H117.636C117.697 113.016 118.277 113.605 119.151 113.605C119.688 113.605 120.207 113.388 120.727 112.938ZM117.654 111.7H120.199C120.138 111.034 119.645 110.531 118.952 110.531C118.251 110.531 117.706 111.129 117.654 111.7ZM122.761 111.977V114.185H122.016V109.977H122.752V110.583C122.986 110.151 123.41 109.882 123.99 109.882C124.613 109.882 125.063 110.194 125.314 110.705C125.522 110.35 125.955 109.882 126.751 109.882C127.721 109.882 128.301 110.566 128.301 111.648V114.185H127.556V111.778C127.556 111.034 127.236 110.566 126.604 110.566C125.955 110.566 125.531 111.12 125.531 111.977V114.185H124.786V111.795C124.786 111.042 124.457 110.566 123.834 110.566C123.185 110.566 122.761 111.12 122.761 111.977ZM133.109 113.561C133.845 113.561 134.417 113.12 134.417 112.471C134.417 111.839 133.854 111.406 133.135 111.406H132.573V110.713H133.135C133.681 110.713 134.183 110.28 134.183 109.787C134.183 109.25 133.707 108.852 133.092 108.852C132.59 108.852 132.123 109.086 131.646 109.501V108.653C132.079 108.324 132.59 108.142 133.101 108.142C134.174 108.142 134.936 108.817 134.936 109.718C134.936 110.28 134.633 110.765 134.105 111.016C134.763 111.233 135.187 111.804 135.187 112.479C135.187 113.535 134.304 114.28 133.118 114.28C132.547 114.28 132.01 114.133 131.491 113.812V112.981C132.019 113.371 132.555 113.561 133.109 113.561Z" fill="#242B42"/>
<rect width="69.8117" height="0.558493" transform="matrix(1 0 0 -1 111.087 127.68)" fill="#E4E8F0"/>
<rect width="69.8117" height="0.558493" transform="matrix(1 0 0 -1 180.898 127.68)" fill="#E4E8F0"/>
</g>
</g>
<defs>
<filter id="filter0_d_2268_4265" x="77.8943" y="10.591" width="206.009" height="160.677" filterUnits="userSpaceOnUse" color-interpolation-filters="sRGB">
<feFlood flood-opacity="0" result="BackgroundImageFix"/>
<feColorMatrix in="SourceAlpha" type="matrix" values="0 0 0 0 0 0 0 0 0 0 0 0 0 0 0 0 0 0 127 0" result="hardAlpha"/>
<feOffset dy="10.3959"/>
<feGaussianBlur stdDeviation="12.1285"/>
<feColorMatrix type="matrix" values="0 0 0 0 0.235294 0 0 0 0 0.415686 0 0 0 0 0.67451 0 0 0 0.18 0"/>
<feBlend mode="normal" in2="BackgroundImageFix" result="effect1_dropShadow_2268_4265"/>
<feBlend mode="normal" in="SourceGraphic" in2="effect1_dropShadow_2268_4265" result="shape"/>
</filter>
<clipPath id="clip0_2268_4265">
<rect width="362" height="158.375" fill="white"/>
</clipPath>
</defs>
</svg>
