<svg width="362" height="159" viewBox="0 0 362 159" fill="none" xmlns="http://www.w3.org/2000/svg">
<g filter="url(#filter0_d_2268_4268)">
<g clip-path="url(#clip0_2268_4268)">
<rect x="34" y="41" width="299" height="75.1295" rx="1.88942" fill="white"/>
<mask id="path-3-inside-1_2268_4268" fill="white">
<path d="M34 41H93.8V65.1153H34V41Z"/>
</mask>
<path d="M93.8 65.1153V64.643H34V65.1153V65.5877H93.8V65.1153Z" fill="#E4E8F0" mask="url(#path-3-inside-1_2268_4268)"/>
<path d="M49.3476 52.5737C49.3476 51.4117 50.2546 50.5162 51.3995 50.5162C51.7453 50.5162 52.0967 50.6068 52.4085 50.7826V51.7008C52.1081 51.4741 51.7963 51.3494 51.4279 51.3494C50.7364 51.3494 50.2262 51.8879 50.2262 52.5737C50.2262 53.2483 50.7137 53.7924 51.4279 53.7924C51.7906 53.7924 52.1024 53.6734 52.4142 53.4523V54.3649C52.0684 54.5576 51.7056 54.6313 51.3882 54.6313C50.1865 54.6313 49.3476 53.7527 49.3476 52.5737ZM57.5288 52.5737C57.5288 53.7187 56.6048 54.6313 55.4542 54.6313C54.3035 54.6313 53.3796 53.7187 53.3796 52.5737C53.3796 51.4287 54.3035 50.5162 55.4542 50.5162C56.6048 50.5162 57.5288 51.4287 57.5288 52.5737ZM56.6559 52.5737C56.6559 51.8879 56.1287 51.3437 55.4542 51.3437C54.7797 51.3437 54.2525 51.8879 54.2525 52.5737C54.2525 53.2596 54.7797 53.8037 55.4542 53.8037C56.1287 53.8037 56.6559 53.2596 56.6559 52.5737ZM58.75 50.5898H59.6002V53.7584H60.9833V54.5576H58.75V50.5898ZM63.5211 54.6313C62.5292 54.6313 61.9283 53.9851 61.9283 52.9818V50.5898H62.7899V52.9365C62.7899 53.4693 63.0507 53.8037 63.5211 53.8037C63.9916 53.8037 64.2523 53.4693 64.2523 52.9365V50.5898H65.1139V52.9818C65.1139 53.9851 64.5131 54.6313 63.5211 54.6313ZM68.3073 53.5147L67.2983 51.9276V54.5576H66.4708V50.5898H67.3607L68.5567 52.4774L69.747 50.5898H70.6143V54.5576H69.7867V51.9162L68.7721 53.5147H68.3073ZM74.7346 50.5898H75.5621V54.5576H74.7119L72.847 51.9389V54.5576H72.0195V50.5898H72.8867L74.7346 53.2199V50.5898ZM80.1525 54.5576H79.3136V51.5705L78.6107 51.8425V51.0206L79.4893 50.6635H80.1525V54.5576Z" fill="#4B546B"/>
<mask id="path-6-inside-2_2268_4268" fill="white">
<path d="M93.7998 41H153.6V65.1153H93.7998V41Z"/>
</mask>
<path d="M153.6 65.1153V64.643H93.7998V65.1153V65.5877H153.6V65.1153Z" fill="#E4E8F0" mask="url(#path-6-inside-2_2268_4268)"/>
<path d="M97.8115 52.5737C97.8115 51.4117 98.7184 50.5162 99.8634 50.5162C100.209 50.5162 100.561 50.6068 100.872 50.7826V51.7008C100.572 51.4741 100.26 51.3494 99.8917 51.3494C99.2002 51.3494 98.6901 51.8879 98.6901 52.5737C98.6901 53.2483 99.1775 53.7924 99.8917 53.7924C100.255 53.7924 100.566 53.6734 100.878 53.4523V54.3649C100.532 54.5576 100.169 54.6313 99.8521 54.6313C98.6504 54.6313 97.8115 53.7527 97.8115 52.5737ZM105.993 52.5737C105.993 53.7187 105.069 54.6313 103.918 54.6313C102.767 54.6313 101.843 53.7187 101.843 52.5737C101.843 51.4287 102.767 50.5162 103.918 50.5162C105.069 50.5162 105.993 51.4287 105.993 52.5737ZM105.12 52.5737C105.12 51.8879 104.593 51.3437 103.918 51.3437C103.244 51.3437 102.716 51.8879 102.716 52.5737C102.716 53.2596 103.244 53.8037 103.918 53.8037C104.593 53.8037 105.12 53.2596 105.12 52.5737ZM107.214 50.5898H108.064V53.7584H109.447V54.5576H107.214V50.5898ZM111.985 54.6313C110.993 54.6313 110.392 53.9851 110.392 52.9818V50.5898H111.254V52.9365C111.254 53.4693 111.515 53.8037 111.985 53.8037C112.455 53.8037 112.716 53.4693 112.716 52.9365V50.5898H113.578V52.9818C113.578 53.9851 112.977 54.6313 111.985 54.6313ZM116.771 53.5147L115.762 51.9276V54.5576H114.935V50.5898H115.825L117.021 52.4774L118.211 50.5898H119.078V54.5576H118.251V51.9162L117.236 53.5147H116.771ZM123.198 50.5898H124.026V54.5576H123.176L121.311 51.9389V54.5576H120.483V50.5898H121.351L123.198 53.2199V50.5898ZM129.756 54.5576H127.114V53.9625L128.39 52.6984C128.752 52.347 128.854 52.1656 128.854 51.9049C128.854 51.5931 128.588 51.3721 128.214 51.3721C127.851 51.3721 127.511 51.5761 127.205 51.9105V51.0206C127.505 50.7486 127.896 50.5955 128.282 50.5955C129.064 50.5955 129.693 51.0716 129.693 51.8142C129.693 52.33 129.478 52.7098 128.985 53.1632L128.288 53.8094H129.756V54.5576Z" fill="#4B546B"/>
<mask id="path-9-inside-3_2268_4268" fill="white">
<path d="M153.6 41H213.4V65.1153H153.6V41Z"/>
</mask>
<path d="M213.4 65.1153V64.643H153.6V65.1153V65.5877H213.4V65.1153Z" fill="#E4E8F0" mask="url(#path-9-inside-3_2268_4268)"/>
<path d="M157.611 52.5737C157.611 51.4117 158.518 50.5162 159.663 50.5162C160.009 50.5162 160.36 50.6068 160.672 50.7826V51.7008C160.372 51.4741 160.06 51.3494 159.692 51.3494C159 51.3494 158.49 51.8879 158.49 52.5737C158.49 53.2483 158.977 53.7924 159.692 53.7924C160.054 53.7924 160.366 53.6734 160.678 53.4523V54.3649C160.332 54.5576 159.969 54.6313 159.652 54.6313C158.45 54.6313 157.611 53.7527 157.611 52.5737ZM165.792 52.5737C165.792 53.7187 164.869 54.6313 163.718 54.6313C162.567 54.6313 161.643 53.7187 161.643 52.5737C161.643 51.4287 162.567 50.5162 163.718 50.5162C164.869 50.5162 165.792 51.4287 165.792 52.5737ZM164.92 52.5737C164.92 51.8879 164.392 51.3437 163.718 51.3437C163.043 51.3437 162.516 51.8879 162.516 52.5737C162.516 53.2596 163.043 53.8037 163.718 53.8037C164.392 53.8037 164.92 53.2596 164.92 52.5737ZM167.014 50.5898H167.864V53.7584H169.247V54.5576H167.014V50.5898ZM171.785 54.6313C170.793 54.6313 170.192 53.9851 170.192 52.9818V50.5898H171.054V52.9365C171.054 53.4693 171.314 53.8037 171.785 53.8037C172.255 53.8037 172.516 53.4693 172.516 52.9365V50.5898H173.378V52.9818C173.378 53.9851 172.777 54.6313 171.785 54.6313ZM176.571 53.5147L175.562 51.9276V54.5576H174.734V50.5898H175.624L176.82 52.4774L178.011 50.5898H178.878V54.5576H178.05V51.9162L177.036 53.5147H176.571ZM182.998 50.5898H183.826V54.5576H182.976L181.111 51.9389V54.5576H180.283V50.5898H181.15L182.998 53.2199V50.5898ZM189.465 53.3956C189.465 54.1325 188.881 54.6313 187.991 54.6313C187.611 54.6313 187.254 54.5349 186.931 54.3366V53.4863C187.254 53.7414 187.583 53.8661 187.923 53.8661C188.337 53.8661 188.626 53.679 188.626 53.3503C188.626 53.0612 188.354 52.8628 187.951 52.8628H187.583V52.2053H187.934C188.263 52.2053 188.49 52.0239 188.49 51.7858C188.49 51.5138 188.223 51.3551 187.906 51.3551C187.594 51.3551 187.311 51.4741 187.01 51.7178V50.8846C187.294 50.6919 187.628 50.5955 187.974 50.5955C188.745 50.5955 189.312 51.0036 189.312 51.6838C189.312 52.0466 189.125 52.3187 188.83 52.483C189.232 52.6474 189.465 52.9705 189.465 53.3956Z" fill="#4B546B"/>
<mask id="path-12-inside-4_2268_4268" fill="white">
<path d="M213.4 41H273.2V65.1153H213.4V41Z"/>
</mask>
<path d="M273.2 65.1153V64.643H213.4V65.1153V65.5877H273.2V65.1153Z" fill="#E4E8F0" mask="url(#path-12-inside-4_2268_4268)"/>
<path d="M217.412 52.5737C217.412 51.4117 218.319 50.5162 219.464 50.5162C219.81 50.5162 220.161 50.6068 220.473 50.7826V51.7008C220.173 51.4741 219.861 51.3494 219.492 51.3494C218.801 51.3494 218.291 51.8879 218.291 52.5737C218.291 53.2483 218.778 53.7924 219.492 53.7924C219.855 53.7924 220.167 53.6734 220.479 53.4523V54.3649C220.133 54.5576 219.77 54.6313 219.453 54.6313C218.251 54.6313 217.412 53.7527 217.412 52.5737ZM225.593 52.5737C225.593 53.7187 224.669 54.6313 223.519 54.6313C222.368 54.6313 221.444 53.7187 221.444 52.5737C221.444 51.4287 222.368 50.5162 223.519 50.5162C224.669 50.5162 225.593 51.4287 225.593 52.5737ZM224.72 52.5737C224.72 51.8879 224.193 51.3437 223.519 51.3437C222.844 51.3437 222.317 51.8879 222.317 52.5737C222.317 53.2596 222.844 53.8037 223.519 53.8037C224.193 53.8037 224.72 53.2596 224.72 52.5737ZM226.814 50.5898H227.665V53.7584H229.048V54.5576H226.814V50.5898ZM231.586 54.6313C230.594 54.6313 229.993 53.9851 229.993 52.9818V50.5898H230.854V52.9365C230.854 53.4693 231.115 53.8037 231.586 53.8037C232.056 53.8037 232.317 53.4693 232.317 52.9365V50.5898H233.178V52.9818C233.178 53.9851 232.578 54.6313 231.586 54.6313ZM236.372 53.5147L235.363 51.9276V54.5576H234.535V50.5898H235.425L236.621 52.4774L237.811 50.5898H238.679V54.5576H237.851V51.9162L236.837 53.5147H236.372ZM242.799 50.5898H243.627V54.5576H242.776L240.911 51.9389V54.5576H240.084V50.5898H240.951L242.799 53.2199V50.5898ZM246.63 53.7584V53.1802L248.308 50.6692H249.317V53.0612H249.861V53.7584H249.317V54.5576H248.517V53.7584H246.63ZM247.531 53.0612H248.523V51.5591L247.531 53.0612Z" fill="#4B546B"/>
<mask id="path-15-inside-5_2268_4268" fill="white">
<path d="M273.2 41H333V65.1153H273.2V41Z"/>
</mask>
<path d="M333 65.1153V64.643H273.2V65.1153V65.5877H333V65.1153Z" fill="#E4E8F0" mask="url(#path-15-inside-5_2268_4268)"/>
<path d="M277.212 52.5737C277.212 51.4117 278.119 50.5162 279.264 50.5162C279.61 50.5162 279.961 50.6068 280.273 50.7826V51.7008C279.972 51.4741 279.661 51.3494 279.292 51.3494C278.601 51.3494 278.09 51.8879 278.09 52.5737C278.09 53.2483 278.578 53.7924 279.292 53.7924C279.655 53.7924 279.967 53.6734 280.278 53.4523V54.3649C279.933 54.5576 279.57 54.6313 279.252 54.6313C278.051 54.6313 277.212 53.7527 277.212 52.5737ZM285.393 52.5737C285.393 53.7187 284.469 54.6313 283.318 54.6313C282.168 54.6313 281.244 53.7187 281.244 52.5737C281.244 51.4287 282.168 50.5162 283.318 50.5162C284.469 50.5162 285.393 51.4287 285.393 52.5737ZM284.52 52.5737C284.52 51.8879 283.993 51.3437 283.318 51.3437C282.644 51.3437 282.117 51.8879 282.117 52.5737C282.117 53.2596 282.644 53.8037 283.318 53.8037C283.993 53.8037 284.52 53.2596 284.52 52.5737ZM286.614 50.5898H287.465V53.7584H288.848V54.5576H286.614V50.5898ZM291.385 54.6313C290.393 54.6313 289.793 53.9851 289.793 52.9818V50.5898H290.654V52.9365C290.654 53.4693 290.915 53.8037 291.385 53.8037C291.856 53.8037 292.117 53.4693 292.117 52.9365V50.5898H292.978V52.9818C292.978 53.9851 292.377 54.6313 291.385 54.6313ZM296.172 53.5147L295.163 51.9276V54.5576H294.335V50.5898H295.225L296.421 52.4774L297.611 50.5898H298.479V54.5576H297.651V51.9162L296.636 53.5147H296.172ZM302.599 50.5898H303.426V54.5576H302.576L300.711 51.9389V54.5576H299.884V50.5898H300.751L302.599 53.2199V50.5898ZM306.577 54.3309V53.475C306.911 53.7357 307.252 53.8604 307.592 53.8604C308.005 53.8604 308.345 53.6564 308.345 53.2709C308.345 52.9025 308.011 52.7041 307.558 52.7041C307.246 52.7041 306.945 52.7835 306.668 52.9138L306.781 50.6635H308.963V51.3891H307.467L307.433 52.0579C307.518 52.0296 307.665 52.0069 307.818 52.0069C308.601 52.0069 309.19 52.5057 309.19 53.2653C309.19 54.1212 308.533 54.6256 307.643 54.6313C307.257 54.6313 306.9 54.5293 306.577 54.3309Z" fill="#4B546B"/>
<mask id="path-18-inside-6_2268_4268" fill="white">
<path d="M34 65.1152H93.8V82.12H34V65.1152Z"/>
</mask>
<path d="M93.8 82.12V81.6476H34V82.12V82.5923H93.8V82.12Z" fill="#E4E8F0" mask="url(#path-18-inside-6_2268_4268)"/>
<path d="M51.3967 75.8945H50.9999L49.1946 71.2655H49.8162L51.2049 74.9092L52.587 71.2655H53.1954L51.3967 75.8945ZM55.3233 73.8511V73.7718C55.3233 73.3684 55.0389 73.1237 54.5628 73.1237C54.1263 73.1237 53.8023 73.3023 53.4716 73.6064V73.0113C53.7626 72.7732 54.1131 72.6079 54.576 72.6079C55.4026 72.6079 55.8787 73.0642 55.8787 73.8115V75.8945H55.3431V75.4713C55.0918 75.7953 54.7016 75.9673 54.2784 75.9673C53.7097 75.9673 53.3063 75.5771 53.3063 75.0481C53.3063 74.4727 53.67 74.1289 54.3776 74.0098L55.3233 73.8511ZM53.875 75.015C53.875 75.2861 54.0866 75.4647 54.3842 75.4647C54.9331 75.4647 55.3299 75.1076 55.3299 74.6116V74.3405L54.4702 74.4926C54.0866 74.5653 53.875 74.7373 53.875 75.015ZM56.9051 71.2655H57.4738V75.8945H56.9051V71.2655ZM60.8111 74.3603V72.6806H61.3798V75.8945H60.8111V75.4316C60.6127 75.749 60.2754 75.9673 59.7927 75.9673C58.9793 75.9673 58.5098 75.4184 58.5098 74.5653V72.6806H59.0785V74.4992C59.0785 75.0745 59.3695 75.4382 59.9117 75.4382C60.454 75.4382 60.8111 75.015 60.8111 74.3603ZM65.159 74.9423V75.5573C64.8019 75.8152 64.3655 75.9673 63.9158 75.9673C62.8908 75.9673 62.2295 75.2332 62.2295 74.2876C62.2295 73.3287 62.8908 72.6079 63.8166 72.6079C64.7159 72.6079 65.331 73.3485 65.331 74.2611C65.331 74.3868 65.3177 74.4661 65.3177 74.4661H62.7982C62.8445 75.0018 63.2875 75.4515 63.9555 75.4515C64.3655 75.4515 64.7622 75.2861 65.159 74.9423ZM62.8114 73.9966H64.7556C64.7093 73.4874 64.3324 73.1039 63.8034 73.1039C63.2677 73.1039 62.8511 73.5602 62.8114 73.9966ZM68.915 75.8945H68.333V72.0061L67.513 72.3434V71.7482L68.4388 71.3514H68.915V75.8945Z" fill="#242B42"/>
<mask id="path-21-inside-7_2268_4268" fill="white">
<path d="M93.7998 65.1152H153.6V82.12H93.7998V65.1152Z"/>
</mask>
<path d="M153.6 82.12V81.6476H93.7998V82.12V82.5923H153.6V82.12Z" fill="#E4E8F0" mask="url(#path-21-inside-7_2268_4268)"/>
<path d="M99.8606 75.8945H99.4638L97.6585 71.2655H98.2801L99.6688 74.9092L101.051 71.2655H101.659L99.8606 75.8945ZM103.787 73.8511V73.7718C103.787 73.3684 103.503 73.1237 103.027 73.1237C102.59 73.1237 102.266 73.3023 101.935 73.6064V73.0113C102.226 72.7732 102.577 72.6079 103.04 72.6079C103.866 72.6079 104.343 73.0642 104.343 73.8115V75.8945H103.807V75.4713C103.556 75.7953 103.166 75.9673 102.742 75.9673C102.174 75.9673 101.77 75.5771 101.77 75.0481C101.77 74.4727 102.134 74.1289 102.841 74.0098L103.787 73.8511ZM102.339 75.015C102.339 75.2861 102.551 75.4647 102.848 75.4647C103.397 75.4647 103.794 75.1076 103.794 74.6116V74.3405L102.934 74.4926C102.551 74.5653 102.339 74.7373 102.339 75.015ZM105.369 71.2655H105.938V75.8945H105.369V71.2655ZM109.275 74.3603V72.6806H109.844V75.8945H109.275V75.4316C109.077 75.749 108.739 75.9673 108.257 75.9673C107.443 75.9673 106.974 75.4184 106.974 74.5653V72.6806H107.542V74.4992C107.542 75.0745 107.833 75.4382 108.376 75.4382C108.918 75.4382 109.275 75.015 109.275 74.3603ZM113.623 74.9423V75.5573C113.266 75.8152 112.829 75.9673 112.38 75.9673C111.355 75.9673 110.693 75.2332 110.693 74.2876C110.693 73.3287 111.355 72.6079 112.28 72.6079C113.18 72.6079 113.795 73.3485 113.795 74.2611C113.795 74.3868 113.782 74.4661 113.782 74.4661H111.262C111.308 75.0018 111.751 75.4515 112.419 75.4515C112.829 75.4515 113.226 75.2861 113.623 74.9423ZM111.275 73.9966H113.219C113.173 73.4874 112.796 73.1039 112.267 73.1039C111.732 73.1039 111.315 73.5602 111.275 73.9966ZM115.997 75.8945V75.4911L117.69 73.699C118.08 73.289 118.199 73.0047 118.199 72.6542C118.199 72.1847 117.789 71.8276 117.26 71.8276C116.843 71.8276 116.413 72.1053 116.05 72.555V71.8606C116.367 71.5035 116.837 71.2787 117.266 71.2787C118.139 71.2787 118.781 71.8408 118.781 72.6277C118.781 73.17 118.569 73.5668 118.08 74.0826L116.87 75.3523H118.84V75.8945H115.997Z" fill="#242B42"/>
<mask id="path-24-inside-8_2268_4268" fill="white">
<path d="M153.6 65.1152H213.4V82.12H153.6V65.1152Z"/>
</mask>
<path d="M213.4 82.12V81.6476H153.6V82.12V82.5923H213.4V82.12Z" fill="#E4E8F0" mask="url(#path-24-inside-8_2268_4268)"/>
<path d="M159.66 75.8945H159.264L157.458 71.2655H158.08L159.469 74.9092L160.851 71.2655H161.459L159.66 75.8945ZM163.587 73.8511V73.7718C163.587 73.3684 163.303 73.1237 162.826 73.1237C162.39 73.1237 162.066 73.3023 161.735 73.6064V73.0113C162.026 72.7732 162.377 72.6079 162.84 72.6079C163.666 72.6079 164.142 73.0642 164.142 73.8115V75.8945H163.607V75.4713C163.355 75.7953 162.965 75.9673 162.542 75.9673C161.973 75.9673 161.57 75.5771 161.57 75.0481C161.57 74.4727 161.934 74.1289 162.641 74.0098L163.587 73.8511ZM162.139 75.015C162.139 75.2861 162.35 75.4647 162.648 75.4647C163.197 75.4647 163.594 75.1076 163.594 74.6116V74.3405L162.734 74.4926C162.35 74.5653 162.139 74.7373 162.139 75.015ZM165.169 71.2655H165.737V75.8945H165.169V71.2655ZM169.075 74.3603V72.6806H169.643V75.8945H169.075V75.4316C168.876 75.749 168.539 75.9673 168.056 75.9673C167.243 75.9673 166.773 75.4184 166.773 74.5653V72.6806H167.342V74.4992C167.342 75.0745 167.633 75.4382 168.175 75.4382C168.718 75.4382 169.075 75.015 169.075 74.3603ZM173.423 74.9423V75.5573C173.066 75.8152 172.629 75.9673 172.179 75.9673C171.154 75.9673 170.493 75.2332 170.493 74.2876C170.493 73.3287 171.154 72.6079 172.08 72.6079C172.98 72.6079 173.595 73.3485 173.595 74.2611C173.595 74.3868 173.581 74.4661 173.581 74.4661H171.062C171.108 75.0018 171.551 75.4515 172.219 75.4515C172.629 75.4515 173.026 75.2861 173.423 74.9423ZM171.075 73.9966H173.019C172.973 73.4874 172.596 73.1039 172.067 73.1039C171.531 73.1039 171.115 73.5602 171.075 73.9966ZM177.053 75.4184C177.615 75.4184 178.052 75.0811 178.052 74.5852C178.052 74.1024 177.622 73.7718 177.073 73.7718H176.643V73.2427H177.073C177.489 73.2427 177.873 72.9121 177.873 72.5352C177.873 72.1251 177.509 71.821 177.04 71.821C176.656 71.821 176.299 71.9995 175.935 72.3169V71.6689C176.266 71.4176 176.656 71.2787 177.046 71.2787C177.866 71.2787 178.448 71.7945 178.448 72.4822C178.448 72.9121 178.217 73.2824 177.813 73.4742C178.316 73.6395 178.64 74.076 178.64 74.5918C178.64 75.3986 177.966 75.9673 177.06 75.9673C176.623 75.9673 176.213 75.8549 175.816 75.6102V74.9753C176.22 75.2729 176.63 75.4184 177.053 75.4184Z" fill="#242B42"/>
<mask id="path-27-inside-9_2268_4268" fill="white">
<path d="M213.4 65.1152H273.2V82.12H213.4V65.1152Z"/>
</mask>
<path d="M273.2 82.12V81.6476H213.4V82.12V82.5923H273.2V82.12Z" fill="#E4E8F0" mask="url(#path-27-inside-9_2268_4268)"/>
<path d="M219.461 75.8945H219.064L217.259 71.2655H217.881L219.269 74.9092L220.651 71.2655H221.26L219.461 75.8945ZM223.388 73.8511V73.7718C223.388 73.3684 223.103 73.1237 222.627 73.1237C222.191 73.1237 221.867 73.3023 221.536 73.6064V73.0113C221.827 72.7732 222.178 72.6079 222.64 72.6079C223.467 72.6079 223.943 73.0642 223.943 73.8115V75.8945H223.408V75.4713C223.156 75.7953 222.766 75.9673 222.343 75.9673C221.774 75.9673 221.371 75.5771 221.371 75.0481C221.371 74.4727 221.734 74.1289 222.442 74.0098L223.388 73.8511ZM221.939 75.015C221.939 75.2861 222.151 75.4647 222.449 75.4647C222.998 75.4647 223.394 75.1076 223.394 74.6116V74.3405L222.535 74.4926C222.151 74.5653 221.939 74.7373 221.939 75.015ZM224.97 71.2655H225.538V75.8945H224.97V71.2655ZM228.876 74.3603V72.6806H229.444V75.8945H228.876V75.4316C228.677 75.749 228.34 75.9673 227.857 75.9673C227.044 75.9673 226.574 75.4184 226.574 74.5653V72.6806H227.143V74.4992C227.143 75.0745 227.434 75.4382 227.976 75.4382C228.518 75.4382 228.876 75.015 228.876 74.3603ZM233.223 74.9423V75.5573C232.866 75.8152 232.43 75.9673 231.98 75.9673C230.955 75.9673 230.294 75.2332 230.294 74.2876C230.294 73.3287 230.955 72.6079 231.881 72.6079C232.78 72.6079 233.395 73.3485 233.395 74.2611C233.395 74.3868 233.382 74.4661 233.382 74.4661H230.863C230.909 75.0018 231.352 75.4515 232.02 75.4515C232.43 75.4515 232.827 75.2861 233.223 74.9423ZM230.876 73.9966H232.82C232.774 73.4874 232.397 73.1039 231.868 73.1039C231.332 73.1039 230.916 73.5602 230.876 73.9966ZM235.498 74.8298V74.3868L237.753 71.358H238.414V74.314H239.049V74.8298H238.414V75.8945H237.839V74.8298H235.498ZM236.186 74.314H237.839V72.1053L236.186 74.314Z" fill="#242B42"/>
<mask id="path-30-inside-10_2268_4268" fill="white">
<path d="M273.2 65.1152H333V82.12H273.2V65.1152Z"/>
</mask>
<path d="M333 82.12V81.6476H273.2V82.12V82.5923H333V82.12Z" fill="#E4E8F0" mask="url(#path-30-inside-10_2268_4268)"/>
<path d="M279.261 75.8945H278.864L277.059 71.2655H277.68L279.069 74.9092L280.451 71.2655H281.06L279.261 75.8945ZM283.188 73.8511V73.7718C283.188 73.3684 282.903 73.1237 282.427 73.1237C281.991 73.1237 281.667 73.3023 281.336 73.6064V73.0113C281.627 72.7732 281.977 72.6079 282.44 72.6079C283.267 72.6079 283.743 73.0642 283.743 73.8115V75.8945H283.207V75.4713C282.956 75.7953 282.566 75.9673 282.143 75.9673C281.574 75.9673 281.171 75.5771 281.171 75.0481C281.171 74.4727 281.534 74.1289 282.242 74.0098L283.188 73.8511ZM281.739 75.015C281.739 75.2861 281.951 75.4647 282.248 75.4647C282.797 75.4647 283.194 75.1076 283.194 74.6116V74.3405L282.334 74.4926C281.951 74.5653 281.739 74.7373 281.739 75.015ZM284.769 71.2655H285.338V75.8945H284.769V71.2655ZM288.675 74.3603V72.6806H289.244V75.8945H288.675V75.4316C288.477 75.749 288.14 75.9673 287.657 75.9673C286.844 75.9673 286.374 75.4184 286.374 74.5653V72.6806H286.943V74.4992C286.943 75.0745 287.234 75.4382 287.776 75.4382C288.318 75.4382 288.675 75.015 288.675 74.3603ZM293.023 74.9423V75.5573C292.666 75.8152 292.23 75.9673 291.78 75.9673C290.755 75.9673 290.094 75.2332 290.094 74.2876C290.094 73.3287 290.755 72.6079 291.681 72.6079C292.58 72.6079 293.195 73.3485 293.195 74.2611C293.195 74.3868 293.182 74.4661 293.182 74.4661H290.662C290.709 75.0018 291.152 75.4515 291.82 75.4515C292.23 75.4515 292.626 75.2861 293.023 74.9423ZM290.676 73.9966H292.62C292.574 73.4874 292.197 73.1039 291.668 73.1039C291.132 73.1039 290.715 73.5602 290.676 73.9966ZM296.654 75.4184C297.222 75.4184 297.732 75.0613 297.732 74.4661C297.732 73.8842 297.242 73.5469 296.627 73.5469C296.224 73.5469 295.9 73.6461 295.622 73.7916L295.781 71.3514H298.108V71.8871H296.283L296.197 73.1039C296.303 73.051 296.548 73.0179 296.753 73.0179C297.626 73.0179 298.333 73.5998 298.333 74.4397C298.333 75.4118 297.593 75.9607 296.673 75.9673C296.263 75.9673 295.873 75.8615 295.496 75.6234V74.9753C295.873 75.2729 296.257 75.4184 296.654 75.4184Z" fill="#242B42"/>
<mask id="path-33-inside-11_2268_4268" fill="white">
<path d="M34 82.1201H93.8V99.1249H34V82.1201Z"/>
</mask>
<path d="M93.8 99.1249V98.6525H34V99.1249V99.5972H93.8V99.1249Z" fill="#E4E8F0" mask="url(#path-33-inside-11_2268_4268)"/>
<path d="M51.3967 92.8994H50.9999L49.1946 88.2703H49.8162L51.2049 91.9141L52.587 88.2703H53.1954L51.3967 92.8994ZM55.3233 90.856V90.7767C55.3233 90.3733 55.0389 90.1286 54.5628 90.1286C54.1263 90.1286 53.8023 90.3071 53.4716 90.6113V90.0162C53.7626 89.7781 54.1131 89.6128 54.576 89.6128C55.4026 89.6128 55.8787 90.0691 55.8787 90.8163V92.8994H55.3431V92.4762C55.0918 92.8002 54.7016 92.9722 54.2784 92.9722C53.7097 92.9722 53.3063 92.582 53.3063 92.053C53.3063 91.4776 53.67 91.1338 54.3776 91.0147L55.3233 90.856ZM53.875 92.0199C53.875 92.291 54.0866 92.4696 54.3842 92.4696C54.9331 92.4696 55.3299 92.1125 55.3299 91.6165V91.3454L54.4702 91.4975C54.0866 91.5702 53.875 91.7421 53.875 92.0199ZM56.9051 88.2703H57.4738V92.8994H56.9051V88.2703ZM60.8111 91.3652V89.6855H61.3798V92.8994H60.8111V92.4365C60.6127 92.7539 60.2754 92.9722 59.7927 92.9722C58.9793 92.9722 58.5098 92.4233 58.5098 91.5702V89.6855H59.0785V91.5041C59.0785 92.0794 59.3695 92.4431 59.9117 92.4431C60.454 92.4431 60.8111 92.0199 60.8111 91.3652ZM65.159 91.9471V92.5622C64.8019 92.8201 64.3655 92.9722 63.9158 92.9722C62.8908 92.9722 62.2295 92.2381 62.2295 91.2925C62.2295 90.3336 62.8908 89.6128 63.8166 89.6128C64.7159 89.6128 65.331 90.3534 65.331 91.266C65.331 91.3917 65.3177 91.471 65.3177 91.471H62.7982C62.8445 92.0067 63.2875 92.4563 63.9555 92.4563C64.3655 92.4563 64.7622 92.291 65.159 91.9471ZM62.8114 91.0015H64.7556C64.7093 90.4923 64.3324 90.1087 63.8034 90.1087C63.2677 90.1087 62.8511 90.565 62.8114 91.0015ZM68.915 92.8994H68.333V89.011L67.513 89.3483V88.7531L68.4388 88.3563H68.915V92.8994Z" fill="#242B42"/>
<mask id="path-36-inside-12_2268_4268" fill="white">
<path d="M93.7998 82.1201H153.6V99.1249H93.7998V82.1201Z"/>
</mask>
<path d="M153.6 99.1249V98.6525H93.7998V99.1249V99.5972H153.6V99.1249Z" fill="#E4E8F0" mask="url(#path-36-inside-12_2268_4268)"/>
<path d="M99.8606 92.8994H99.4638L97.6585 88.2703H98.2801L99.6688 91.9141L101.051 88.2703H101.659L99.8606 92.8994ZM103.787 90.856V90.7767C103.787 90.3733 103.503 90.1286 103.027 90.1286C102.59 90.1286 102.266 90.3071 101.935 90.6113V90.0162C102.226 89.7781 102.577 89.6128 103.04 89.6128C103.866 89.6128 104.343 90.0691 104.343 90.8163V92.8994H103.807V92.4762C103.556 92.8002 103.166 92.9722 102.742 92.9722C102.174 92.9722 101.77 92.582 101.77 92.053C101.77 91.4776 102.134 91.1338 102.841 91.0147L103.787 90.856ZM102.339 92.0199C102.339 92.291 102.551 92.4696 102.848 92.4696C103.397 92.4696 103.794 92.1125 103.794 91.6165V91.3454L102.934 91.4975C102.551 91.5702 102.339 91.7421 102.339 92.0199ZM105.369 88.2703H105.938V92.8994H105.369V88.2703ZM109.275 91.3652V89.6855H109.844V92.8994H109.275V92.4365C109.077 92.7539 108.739 92.9722 108.257 92.9722C107.443 92.9722 106.974 92.4233 106.974 91.5702V89.6855H107.542V91.5041C107.542 92.0794 107.833 92.4431 108.376 92.4431C108.918 92.4431 109.275 92.0199 109.275 91.3652ZM113.623 91.9471V92.5622C113.266 92.8201 112.829 92.9722 112.38 92.9722C111.355 92.9722 110.693 92.2381 110.693 91.2925C110.693 90.3336 111.355 89.6128 112.28 89.6128C113.18 89.6128 113.795 90.3534 113.795 91.266C113.795 91.3917 113.782 91.471 113.782 91.471H111.262C111.308 92.0067 111.751 92.4563 112.419 92.4563C112.829 92.4563 113.226 92.291 113.623 91.9471ZM111.275 91.0015H113.219C113.173 90.4923 112.796 90.1087 112.267 90.1087C111.732 90.1087 111.315 90.565 111.275 91.0015ZM115.997 92.8994V92.496L117.69 90.7039C118.08 90.2939 118.199 90.0096 118.199 89.6591C118.199 89.1895 117.789 88.8324 117.26 88.8324C116.843 88.8324 116.413 89.1102 116.05 89.5599V88.8655C116.367 88.5084 116.837 88.2836 117.266 88.2836C118.139 88.2836 118.781 88.8457 118.781 89.6326C118.781 90.1749 118.569 90.5717 118.08 91.0875L116.87 92.3572H118.84V92.8994H115.997Z" fill="#242B42"/>
<mask id="path-39-inside-13_2268_4268" fill="white">
<path d="M153.6 82.1201H213.4V99.1249H153.6V82.1201Z"/>
</mask>
<path d="M213.4 99.1249V98.6525H153.6V99.1249V99.5972H213.4V99.1249Z" fill="#E4E8F0" mask="url(#path-39-inside-13_2268_4268)"/>
<path d="M159.66 92.8994H159.264L157.458 88.2703H158.08L159.469 91.9141L160.851 88.2703H161.459L159.66 92.8994ZM163.587 90.856V90.7767C163.587 90.3733 163.303 90.1286 162.826 90.1286C162.39 90.1286 162.066 90.3071 161.735 90.6113V90.0162C162.026 89.7781 162.377 89.6128 162.84 89.6128C163.666 89.6128 164.142 90.0691 164.142 90.8163V92.8994H163.607V92.4762C163.355 92.8002 162.965 92.9722 162.542 92.9722C161.973 92.9722 161.57 92.582 161.57 92.053C161.57 91.4776 161.934 91.1338 162.641 91.0147L163.587 90.856ZM162.139 92.0199C162.139 92.291 162.35 92.4696 162.648 92.4696C163.197 92.4696 163.594 92.1125 163.594 91.6165V91.3454L162.734 91.4975C162.35 91.5702 162.139 91.7421 162.139 92.0199ZM165.169 88.2703H165.737V92.8994H165.169V88.2703ZM169.075 91.3652V89.6855H169.643V92.8994H169.075V92.4365C168.876 92.7539 168.539 92.9722 168.056 92.9722C167.243 92.9722 166.773 92.4233 166.773 91.5702V89.6855H167.342V91.5041C167.342 92.0794 167.633 92.4431 168.175 92.4431C168.718 92.4431 169.075 92.0199 169.075 91.3652ZM173.423 91.9471V92.5622C173.066 92.8201 172.629 92.9722 172.179 92.9722C171.154 92.9722 170.493 92.2381 170.493 91.2925C170.493 90.3336 171.154 89.6128 172.08 89.6128C172.98 89.6128 173.595 90.3534 173.595 91.266C173.595 91.3917 173.581 91.471 173.581 91.471H171.062C171.108 92.0067 171.551 92.4563 172.219 92.4563C172.629 92.4563 173.026 92.291 173.423 91.9471ZM171.075 91.0015H173.019C172.973 90.4923 172.596 90.1087 172.067 90.1087C171.531 90.1087 171.115 90.565 171.075 91.0015ZM177.053 92.4233C177.615 92.4233 178.052 92.086 178.052 91.59C178.052 91.1073 177.622 90.7767 177.073 90.7767H176.643V90.2476H177.073C177.489 90.2476 177.873 89.917 177.873 89.54C177.873 89.13 177.509 88.8258 177.04 88.8258C176.656 88.8258 176.299 89.0044 175.935 89.3218V88.6737C176.266 88.4224 176.656 88.2836 177.046 88.2836C177.866 88.2836 178.448 88.7994 178.448 89.4871C178.448 89.917 178.217 90.2873 177.813 90.4791C178.316 90.6444 178.64 91.0809 178.64 91.5967C178.64 92.4034 177.966 92.9722 177.06 92.9722C176.623 92.9722 176.213 92.8597 175.816 92.6151V91.9802C176.22 92.2778 176.63 92.4233 177.053 92.4233Z" fill="#242B42"/>
<mask id="path-42-inside-14_2268_4268" fill="white">
<path d="M213.4 82.1201H273.2V99.1249H213.4V82.1201Z"/>
</mask>
<path d="M273.2 99.1249V98.6525H213.4V99.1249V99.5972H273.2V99.1249Z" fill="#E4E8F0" mask="url(#path-42-inside-14_2268_4268)"/>
<path d="M219.461 92.8994H219.064L217.259 88.2703H217.881L219.269 91.9141L220.651 88.2703H221.26L219.461 92.8994ZM223.388 90.856V90.7767C223.388 90.3733 223.103 90.1286 222.627 90.1286C222.191 90.1286 221.867 90.3071 221.536 90.6113V90.0162C221.827 89.7781 222.178 89.6128 222.64 89.6128C223.467 89.6128 223.943 90.0691 223.943 90.8163V92.8994H223.408V92.4762C223.156 92.8002 222.766 92.9722 222.343 92.9722C221.774 92.9722 221.371 92.582 221.371 92.053C221.371 91.4776 221.734 91.1338 222.442 91.0147L223.388 90.856ZM221.939 92.0199C221.939 92.291 222.151 92.4696 222.449 92.4696C222.998 92.4696 223.394 92.1125 223.394 91.6165V91.3454L222.535 91.4975C222.151 91.5702 221.939 91.7421 221.939 92.0199ZM224.97 88.2703H225.538V92.8994H224.97V88.2703ZM228.876 91.3652V89.6855H229.444V92.8994H228.876V92.4365C228.677 92.7539 228.34 92.9722 227.857 92.9722C227.044 92.9722 226.574 92.4233 226.574 91.5702V89.6855H227.143V91.5041C227.143 92.0794 227.434 92.4431 227.976 92.4431C228.518 92.4431 228.876 92.0199 228.876 91.3652ZM233.223 91.9471V92.5622C232.866 92.8201 232.43 92.9722 231.98 92.9722C230.955 92.9722 230.294 92.2381 230.294 91.2925C230.294 90.3336 230.955 89.6128 231.881 89.6128C232.78 89.6128 233.395 90.3534 233.395 91.266C233.395 91.3917 233.382 91.471 233.382 91.471H230.863C230.909 92.0067 231.352 92.4563 232.02 92.4563C232.43 92.4563 232.827 92.291 233.223 91.9471ZM230.876 91.0015H232.82C232.774 90.4923 232.397 90.1087 231.868 90.1087C231.332 90.1087 230.916 90.565 230.876 91.0015ZM235.498 91.8347V91.3917L237.753 88.3629H238.414V91.3189H239.049V91.8347H238.414V92.8994H237.839V91.8347H235.498ZM236.186 91.3189H237.839V89.1102L236.186 91.3189Z" fill="#242B42"/>
<mask id="path-45-inside-15_2268_4268" fill="white">
<path d="M273.2 82.1201H333V99.1249H273.2V82.1201Z"/>
</mask>
<path d="M333 99.1249V98.6525H273.2V99.1249V99.5972H333V99.1249Z" fill="#E4E8F0" mask="url(#path-45-inside-15_2268_4268)"/>
<path d="M279.261 92.8994H278.864L277.059 88.2703H277.68L279.069 91.9141L280.451 88.2703H281.06L279.261 92.8994ZM283.188 90.856V90.7767C283.188 90.3733 282.903 90.1286 282.427 90.1286C281.991 90.1286 281.667 90.3071 281.336 90.6113V90.0162C281.627 89.7781 281.977 89.6128 282.44 89.6128C283.267 89.6128 283.743 90.0691 283.743 90.8163V92.8994H283.207V92.4762C282.956 92.8002 282.566 92.9722 282.143 92.9722C281.574 92.9722 281.171 92.582 281.171 92.053C281.171 91.4776 281.534 91.1338 282.242 91.0147L283.188 90.856ZM281.739 92.0199C281.739 92.291 281.951 92.4696 282.248 92.4696C282.797 92.4696 283.194 92.1125 283.194 91.6165V91.3454L282.334 91.4975C281.951 91.5702 281.739 91.7421 281.739 92.0199ZM284.769 88.2703H285.338V92.8994H284.769V88.2703ZM288.675 91.3652V89.6855H289.244V92.8994H288.675V92.4365C288.477 92.7539 288.14 92.9722 287.657 92.9722C286.844 92.9722 286.374 92.4233 286.374 91.5702V89.6855H286.943V91.5041C286.943 92.0794 287.234 92.4431 287.776 92.4431C288.318 92.4431 288.675 92.0199 288.675 91.3652ZM293.023 91.9471V92.5622C292.666 92.8201 292.23 92.9722 291.78 92.9722C290.755 92.9722 290.094 92.2381 290.094 91.2925C290.094 90.3336 290.755 89.6128 291.681 89.6128C292.58 89.6128 293.195 90.3534 293.195 91.266C293.195 91.3917 293.182 91.471 293.182 91.471H290.662C290.709 92.0067 291.152 92.4563 291.82 92.4563C292.23 92.4563 292.626 92.291 293.023 91.9471ZM290.676 91.0015H292.62C292.574 90.4923 292.197 90.1087 291.668 90.1087C291.132 90.1087 290.715 90.565 290.676 91.0015ZM296.654 92.4233C297.222 92.4233 297.732 92.0662 297.732 91.471C297.732 90.8891 297.242 90.5518 296.627 90.5518C296.224 90.5518 295.9 90.651 295.622 90.7965L295.781 88.3563H298.108V88.892H296.283L296.197 90.1087C296.303 90.0558 296.548 90.0228 296.753 90.0228C297.626 90.0228 298.333 90.6047 298.333 91.4446C298.333 92.4167 297.593 92.9655 296.673 92.9722C296.263 92.9722 295.873 92.8663 295.496 92.6283V91.9802C295.873 92.2778 296.257 92.4233 296.654 92.4233Z" fill="#242B42"/>
<mask id="path-48-inside-16_2268_4268" fill="white">
<path d="M34 99.125H93.8V116.13H34V99.125Z"/>
</mask>
<path d="M93.8 116.13V115.657H34V116.13V116.602H93.8V116.13Z" fill="#E4E8F0" mask="url(#path-48-inside-16_2268_4268)"/>
<path d="M51.3967 109.904H50.9999L49.1946 105.275H49.8162L51.2049 108.919L52.587 105.275H53.1954L51.3967 109.904ZM55.3233 107.861V107.782C55.3233 107.378 55.0389 107.133 54.5628 107.133C54.1263 107.133 53.8023 107.312 53.4716 107.616V107.021C53.7626 106.783 54.1131 106.618 54.576 106.618C55.4026 106.618 55.8787 107.074 55.8787 107.821V109.904H55.3431V109.481C55.0918 109.805 54.7016 109.977 54.2784 109.977C53.7097 109.977 53.3063 109.587 53.3063 109.058C53.3063 108.483 53.67 108.139 54.3776 108.02L55.3233 107.861ZM53.875 109.025C53.875 109.296 54.0866 109.474 54.3842 109.474C54.9331 109.474 55.3299 109.117 55.3299 108.621V108.35L54.4702 108.502C54.0866 108.575 53.875 108.747 53.875 109.025ZM56.9051 105.275H57.4738V109.904H56.9051V105.275ZM60.8111 108.37V106.69H61.3798V109.904H60.8111V109.441C60.6127 109.759 60.2754 109.977 59.7927 109.977C58.9793 109.977 58.5098 109.428 58.5098 108.575V106.69H59.0785V108.509C59.0785 109.084 59.3695 109.448 59.9117 109.448C60.454 109.448 60.8111 109.025 60.8111 108.37ZM65.159 108.952V109.567C64.8019 109.825 64.3655 109.977 63.9158 109.977C62.8908 109.977 62.2295 109.243 62.2295 108.297C62.2295 107.338 62.8908 106.618 63.8166 106.618C64.7159 106.618 65.331 107.358 65.331 108.271C65.331 108.397 65.3177 108.476 65.3177 108.476H62.7982C62.8445 109.012 63.2875 109.461 63.9555 109.461C64.3655 109.461 64.7622 109.296 65.159 108.952ZM62.8114 108.006H64.7556C64.7093 107.497 64.3324 107.114 63.8034 107.114C63.2677 107.114 62.8511 107.57 62.8114 108.006ZM68.915 109.904H68.333V106.016L67.513 106.353V105.758L68.4388 105.361H68.915V109.904Z" fill="#242B42"/>
<mask id="path-51-inside-17_2268_4268" fill="white">
<path d="M93.7998 99.125H153.6V116.13H93.7998V99.125Z"/>
</mask>
<path d="M153.6 116.13V115.657H93.7998V116.13V116.602H153.6V116.13Z" fill="#E4E8F0" mask="url(#path-51-inside-17_2268_4268)"/>
<path d="M99.8606 109.904H99.4638L97.6585 105.275H98.2801L99.6688 108.919L101.051 105.275H101.659L99.8606 109.904ZM103.787 107.861V107.782C103.787 107.378 103.503 107.133 103.027 107.133C102.59 107.133 102.266 107.312 101.935 107.616V107.021C102.226 106.783 102.577 106.618 103.04 106.618C103.866 106.618 104.343 107.074 104.343 107.821V109.904H103.807V109.481C103.556 109.805 103.166 109.977 102.742 109.977C102.174 109.977 101.77 109.587 101.77 109.058C101.77 108.483 102.134 108.139 102.841 108.02L103.787 107.861ZM102.339 109.025C102.339 109.296 102.551 109.474 102.848 109.474C103.397 109.474 103.794 109.117 103.794 108.621V108.35L102.934 108.502C102.551 108.575 102.339 108.747 102.339 109.025ZM105.369 105.275H105.938V109.904H105.369V105.275ZM109.275 108.37V106.69H109.844V109.904H109.275V109.441C109.077 109.759 108.739 109.977 108.257 109.977C107.443 109.977 106.974 109.428 106.974 108.575V106.69H107.542V108.509C107.542 109.084 107.833 109.448 108.376 109.448C108.918 109.448 109.275 109.025 109.275 108.37ZM113.623 108.952V109.567C113.266 109.825 112.829 109.977 112.38 109.977C111.355 109.977 110.693 109.243 110.693 108.297C110.693 107.338 111.355 106.618 112.28 106.618C113.18 106.618 113.795 107.358 113.795 108.271C113.795 108.397 113.782 108.476 113.782 108.476H111.262C111.308 109.012 111.751 109.461 112.419 109.461C112.829 109.461 113.226 109.296 113.623 108.952ZM111.275 108.006H113.219C113.173 107.497 112.796 107.114 112.267 107.114C111.732 107.114 111.315 107.57 111.275 108.006ZM115.997 109.904V109.501L117.69 107.709C118.08 107.299 118.199 107.014 118.199 106.664C118.199 106.194 117.789 105.837 117.26 105.837C116.843 105.837 116.413 106.115 116.05 106.565V105.87C116.367 105.513 116.837 105.288 117.266 105.288C118.139 105.288 118.781 105.851 118.781 106.637C118.781 107.18 118.569 107.577 118.08 108.092L116.87 109.362H118.84V109.904H115.997Z" fill="#242B42"/>
<mask id="path-54-inside-18_2268_4268" fill="white">
<path d="M153.6 99.125H213.4V116.13H153.6V99.125Z"/>
</mask>
<path d="M213.4 116.13V115.657H153.6V116.13V116.602H213.4V116.13Z" fill="#E4E8F0" mask="url(#path-54-inside-18_2268_4268)"/>
<path d="M159.66 109.904H159.264L157.458 105.275H158.08L159.469 108.919L160.851 105.275H161.459L159.66 109.904ZM163.587 107.861V107.782C163.587 107.378 163.303 107.133 162.826 107.133C162.39 107.133 162.066 107.312 161.735 107.616V107.021C162.026 106.783 162.377 106.618 162.84 106.618C163.666 106.618 164.142 107.074 164.142 107.821V109.904H163.607V109.481C163.355 109.805 162.965 109.977 162.542 109.977C161.973 109.977 161.57 109.587 161.57 109.058C161.57 108.483 161.934 108.139 162.641 108.02L163.587 107.861ZM162.139 109.025C162.139 109.296 162.35 109.474 162.648 109.474C163.197 109.474 163.594 109.117 163.594 108.621V108.35L162.734 108.502C162.35 108.575 162.139 108.747 162.139 109.025ZM165.169 105.275H165.737V109.904H165.169V105.275ZM169.075 108.37V106.69H169.643V109.904H169.075V109.441C168.876 109.759 168.539 109.977 168.056 109.977C167.243 109.977 166.773 109.428 166.773 108.575V106.69H167.342V108.509C167.342 109.084 167.633 109.448 168.175 109.448C168.718 109.448 169.075 109.025 169.075 108.37ZM173.423 108.952V109.567C173.066 109.825 172.629 109.977 172.179 109.977C171.154 109.977 170.493 109.243 170.493 108.297C170.493 107.338 171.154 106.618 172.08 106.618C172.98 106.618 173.595 107.358 173.595 108.271C173.595 108.397 173.581 108.476 173.581 108.476H171.062C171.108 109.012 171.551 109.461 172.219 109.461C172.629 109.461 173.026 109.296 173.423 108.952ZM171.075 108.006H173.019C172.973 107.497 172.596 107.114 172.067 107.114C171.531 107.114 171.115 107.57 171.075 108.006ZM177.053 109.428C177.615 109.428 178.052 109.091 178.052 108.595C178.052 108.112 177.622 107.782 177.073 107.782H176.643V107.253H177.073C177.489 107.253 177.873 106.922 177.873 106.545C177.873 106.135 177.509 105.831 177.04 105.831C176.656 105.831 176.299 106.009 175.935 106.327V105.679C176.266 105.427 176.656 105.288 177.046 105.288C177.866 105.288 178.448 105.804 178.448 106.492C178.448 106.922 178.217 107.292 177.813 107.484C178.316 107.649 178.64 108.086 178.64 108.602C178.64 109.408 177.966 109.977 177.06 109.977C176.623 109.977 176.213 109.865 175.816 109.62V108.985C176.22 109.283 176.63 109.428 177.053 109.428Z" fill="#242B42"/>
<mask id="path-57-inside-19_2268_4268" fill="white">
<path d="M213.4 99.125H273.2V116.13H213.4V99.125Z"/>
</mask>
<path d="M273.2 116.13V115.657H213.4V116.13V116.602H273.2V116.13Z" fill="#E4E8F0" mask="url(#path-57-inside-19_2268_4268)"/>
<path d="M219.461 109.904H219.064L217.259 105.275H217.881L219.269 108.919L220.651 105.275H221.26L219.461 109.904ZM223.388 107.861V107.782C223.388 107.378 223.103 107.133 222.627 107.133C222.191 107.133 221.867 107.312 221.536 107.616V107.021C221.827 106.783 222.178 106.618 222.64 106.618C223.467 106.618 223.943 107.074 223.943 107.821V109.904H223.408V109.481C223.156 109.805 222.766 109.977 222.343 109.977C221.774 109.977 221.371 109.587 221.371 109.058C221.371 108.483 221.734 108.139 222.442 108.02L223.388 107.861ZM221.939 109.025C221.939 109.296 222.151 109.474 222.449 109.474C222.998 109.474 223.394 109.117 223.394 108.621V108.35L222.535 108.502C222.151 108.575 221.939 108.747 221.939 109.025ZM224.97 105.275H225.538V109.904H224.97V105.275ZM228.876 108.37V106.69H229.444V109.904H228.876V109.441C228.677 109.759 228.34 109.977 227.857 109.977C227.044 109.977 226.574 109.428 226.574 108.575V106.69H227.143V108.509C227.143 109.084 227.434 109.448 227.976 109.448C228.518 109.448 228.876 109.025 228.876 108.37ZM233.223 108.952V109.567C232.866 109.825 232.43 109.977 231.98 109.977C230.955 109.977 230.294 109.243 230.294 108.297C230.294 107.338 230.955 106.618 231.881 106.618C232.78 106.618 233.395 107.358 233.395 108.271C233.395 108.397 233.382 108.476 233.382 108.476H230.863C230.909 109.012 231.352 109.461 232.02 109.461C232.43 109.461 232.827 109.296 233.223 108.952ZM230.876 108.006H232.82C232.774 107.497 232.397 107.114 231.868 107.114C231.332 107.114 230.916 107.57 230.876 108.006ZM235.498 108.84V108.397L237.753 105.368H238.414V108.324H239.049V108.84H238.414V109.904H237.839V108.84H235.498ZM236.186 108.324H237.839V106.115L236.186 108.324Z" fill="#242B42"/>
<mask id="path-60-inside-20_2268_4268" fill="white">
<path d="M273.2 99.125H333V116.13H273.2V99.125Z"/>
</mask>
<path d="M333 116.13V115.657H273.2V116.13V116.602H333V116.13Z" fill="#E4E8F0" mask="url(#path-60-inside-20_2268_4268)"/>
<path d="M279.261 109.904H278.864L277.059 105.275H277.68L279.069 108.919L280.451 105.275H281.06L279.261 109.904ZM283.188 107.861V107.782C283.188 107.378 282.903 107.133 282.427 107.133C281.991 107.133 281.667 107.312 281.336 107.616V107.021C281.627 106.783 281.977 106.618 282.44 106.618C283.267 106.618 283.743 107.074 283.743 107.821V109.904H283.207V109.481C282.956 109.805 282.566 109.977 282.143 109.977C281.574 109.977 281.171 109.587 281.171 109.058C281.171 108.483 281.534 108.139 282.242 108.02L283.188 107.861ZM281.739 109.025C281.739 109.296 281.951 109.474 282.248 109.474C282.797 109.474 283.194 109.117 283.194 108.621V108.35L282.334 108.502C281.951 108.575 281.739 108.747 281.739 109.025ZM284.769 105.275H285.338V109.904H284.769V105.275ZM288.675 108.37V106.69H289.244V109.904H288.675V109.441C288.477 109.759 288.14 109.977 287.657 109.977C286.844 109.977 286.374 109.428 286.374 108.575V106.69H286.943V108.509C286.943 109.084 287.234 109.448 287.776 109.448C288.318 109.448 288.675 109.025 288.675 108.37ZM293.023 108.952V109.567C292.666 109.825 292.23 109.977 291.78 109.977C290.755 109.977 290.094 109.243 290.094 108.297C290.094 107.338 290.755 106.618 291.681 106.618C292.58 106.618 293.195 107.358 293.195 108.271C293.195 108.397 293.182 108.476 293.182 108.476H290.662C290.709 109.012 291.152 109.461 291.82 109.461C292.23 109.461 292.626 109.296 293.023 108.952ZM290.676 108.006H292.62C292.574 107.497 292.197 107.114 291.668 107.114C291.132 107.114 290.715 107.57 290.676 108.006ZM296.654 109.428C297.222 109.428 297.732 109.071 297.732 108.476C297.732 107.894 297.242 107.557 296.627 107.557C296.224 107.557 295.9 107.656 295.622 107.801L295.781 105.361H298.108V105.897H296.283L296.197 107.114C296.303 107.061 296.548 107.028 296.753 107.028C297.626 107.028 298.333 107.61 298.333 108.449C298.333 109.422 297.593 109.97 296.673 109.977C296.263 109.977 295.873 109.871 295.496 109.633V108.985C295.873 109.283 296.257 109.428 296.654 109.428Z" fill="#242B42"/>
</g>
<rect x="34.2362" y="41.2362" width="298.528" height="74.6572" rx="1.65324" stroke="#E4E8F0" stroke-width="0.472354"/>
</g>
<defs>
<filter id="filter0_d_2268_4268" x="6" y="25" width="355" height="131.13" filterUnits="userSpaceOnUse" color-interpolation-filters="sRGB">
<feFlood flood-opacity="0" result="BackgroundImageFix"/>
<feColorMatrix in="SourceAlpha" type="matrix" values="0 0 0 0 0 0 0 0 0 0 0 0 0 0 0 0 0 0 127 0" result="hardAlpha"/>
<feOffset dy="12"/>
<feGaussianBlur stdDeviation="14"/>
<feColorMatrix type="matrix" values="0 0 0 0 0.235294 0 0 0 0 0.415686 0 0 0 0 0.67451 0 0 0 0.18 0"/>
<feBlend mode="normal" in2="BackgroundImageFix" result="effect1_dropShadow_2268_4268"/>
<feBlend mode="normal" in="SourceGraphic" in2="effect1_dropShadow_2268_4268" result="shape"/>
</filter>
<clipPath id="clip0_2268_4268">
<rect x="34" y="41" width="299" height="75.1295" rx="1.88942" fill="white"/>
</clipPath>
</defs>
</svg>
