<svg width="164" height="164" viewBox="0 0 164 164" fill="none" xmlns="http://www.w3.org/2000/svg">
<g clip-path="url(#clip0_1663_178802)">
<rect width="163.2" height="163.2" fill="white"/>
<rect x="8.5" y="34" width="147" height="121.1" fill="#F3F7FB"/>
<path d="M16.4004 94.5996C16.4004 92.3905 18.1913 90.5996 20.4004 90.5996H143.601C145.81 90.5996 147.601 92.3905 147.601 94.5996V143.2C147.601 145.409 145.81 147.2 143.601 147.2H20.4004C18.1913 147.2 16.4004 145.409 16.4004 143.2V94.5996Z" fill="white"/>
<path d="M143.601 146.199V147.199H20.4004V146.199H143.601ZM146.601 143.199V94.5996C146.601 92.9945 145.34 91.6838 143.755 91.6035L143.601 91.5996H20.4004C18.7435 91.5996 17.4004 92.9428 17.4004 94.5996V143.199C17.4004 144.856 18.7435 146.199 20.4004 146.199V147.199C18.1913 147.199 16.4004 145.408 16.4004 143.199V94.5996C16.4004 92.4596 18.081 90.7117 20.1943 90.6045L20.4004 90.5996H143.601L143.807 90.6045C145.92 90.7117 147.601 92.4596 147.601 94.5996V143.199C147.601 145.408 145.81 147.199 143.601 147.199V146.199C145.257 146.199 146.601 144.856 146.601 143.199Z" fill="#E4E8F0"/>
<path fill-rule="evenodd" clip-rule="evenodd" d="M32.9287 101.036C34.4286 101.036 35.2929 101.864 35.293 103.22V107H34.3213V106.232C33.8653 106.82 33.1566 107.132 32.3887 107.132C31.3568 107.132 30.625 106.424 30.625 105.464C30.6251 104.42 31.2854 103.796 32.5693 103.58L34.2852 103.292V103.148C34.2852 102.417 33.7691 101.972 32.9053 101.972C32.1133 101.972 31.5248 102.296 30.9248 102.848V101.768C31.4527 101.336 32.0889 101.036 32.9287 101.036ZM32.7373 104.456C32.0413 104.588 31.6572 104.9 31.6572 105.404C31.6574 105.896 32.0412 106.22 32.5811 106.22C33.577 106.22 34.2969 105.572 34.2969 104.672V104.18L32.7373 104.456Z" fill="#687887"/>
<path fill-rule="evenodd" clip-rule="evenodd" d="M43.6621 101.036C45.2941 101.036 46.4102 102.38 46.4102 104.036C46.4101 104.264 46.3857 104.408 46.3857 104.408H41.8145C41.8986 105.38 42.7022 106.196 43.9141 106.196C44.6581 106.196 45.3786 105.896 46.0986 105.272V106.388C45.4506 106.856 44.6578 107.132 43.8418 107.132C41.982 107.132 40.7822 105.8 40.7822 104.084C40.7822 102.344 41.9822 101.036 43.6621 101.036ZM43.6387 101.936C42.6668 101.936 41.9101 102.764 41.8379 103.556H45.3662C45.2821 102.632 44.5983 101.936 43.6387 101.936Z" fill="#687887"/>
<path d="M56.126 101.168H57.7578V102.092H56.126V105.176C56.126 105.86 56.4259 106.172 57.0977 106.172C57.3256 106.172 57.5778 106.112 57.7578 105.992V106.952C57.5539 107.06 57.2541 107.132 56.8584 107.132C55.7545 107.132 55.0939 106.448 55.0938 105.32V102.092H54.0859V101.96L56.0898 99.7998H56.126V101.168Z" fill="#687887"/>
<path fill-rule="evenodd" clip-rule="evenodd" d="M27.0039 98.5996C28.5999 98.5996 29.7168 99.4884 29.7168 101.024C29.7166 102.56 28.5998 103.436 27.0039 103.436H25.4688V107H24.4004V98.5996H27.0039ZM25.4688 102.452H27.0039C27.9638 102.452 28.6365 101.924 28.6367 101.024C28.6367 100.1 27.9639 99.584 27.0039 99.584H25.4688V102.452Z" fill="#687887"/>
<path d="M39.9082 101.072C40.0486 101.072 40.1549 101.095 40.1602 101.096V102.128C40.1556 102.127 40.0481 102.104 39.8721 102.104C38.7923 102.104 38.132 102.968 38.1318 104.228V107H37.1123V101.168H38.1201V102.2C38.3841 101.528 39.1402 101.072 39.9082 101.072Z" fill="#687887"/>
<path d="M50.7383 101.036C52.2263 101.036 53.0908 102.032 53.0908 103.58V107H52.0586V103.7C52.0586 102.656 51.5185 101.996 50.5225 101.996C49.5266 101.996 48.8789 102.764 48.8789 103.952V107H47.8467V101.168H48.8789V102.008C49.2389 101.432 49.8626 101.036 50.7383 101.036Z" fill="#687887"/>
<path d="M134.589 98.5996V99.0996H135.604C135.838 99.0996 136.066 99.1224 136.287 99.166L136.383 98.6758C136.908 98.7795 137.396 98.9861 137.825 99.2734L137.548 99.6885C137.93 99.9441 138.259 100.273 138.515 100.655L138.929 100.377C139.216 100.806 139.423 101.294 139.526 101.819H139.527L139.037 101.916C139.081 102.137 139.104 102.365 139.104 102.6V103.528H139.604V105.386H139.104V107.242H139.604V109.1H139.104V110.957H139.604V112.813H139.104V114.671H139.604V116.528H139.104V118.386H139.604V120.242H139.104V122.1H139.604V123.957H139.104V125.813H139.604V127.671H139.104V128.6C139.104 128.834 139.081 129.063 139.037 129.283L139.526 129.379C139.423 129.904 139.216 130.392 138.929 130.821L138.515 130.544C138.259 130.926 137.93 131.255 137.548 131.511L137.825 131.925C137.396 132.212 136.908 132.419 136.383 132.522L136.287 132.033C136.066 132.077 135.838 132.1 135.604 132.1H134.589V132.6H132.56V132.1H130.53V132.6H128.501V132.1H126.471V132.6H124.441V132.1H122.412V132.6H120.383V132.1H118.354V132.6H116.324V132.1H114.295V132.6H112.266V132.1H110.236V132.6H108.206V132.1H106.177V132.6H104.147V132.1H102.118V132.6H100.089V132.1H98.0596V132.6H96.0303V132.1H94.001V132.6H91.9707V132.1H89.9414V132.6H87.9121V132.1H85.8828V132.6H83.8535V132.1H81.8242V132.6H79.7949V132.1H77.7656V132.6H75.7363V132.1H73.7061V132.6H71.6768V132.1H69.6475V132.6H67.6182V132.1H66.6035C66.3691 132.1 66.1406 132.077 65.9199 132.033L65.8232 132.522C65.2981 132.419 64.8102 132.212 64.3809 131.925L64.6592 131.511C64.2773 131.255 63.9481 130.926 63.6924 130.544L63.2773 130.821C62.99 130.392 62.7834 129.904 62.6797 129.379L63.1699 129.283C63.1372 129.118 63.1159 128.948 63.1074 128.774L63.1035 128.6V127.671H62.6035V125.813H63.1035V123.957H62.6035V122.1H63.1035V120.242H62.6035V118.386H63.1035V116.528H62.6035V114.671H63.1035V112.813H62.6035V110.957H63.1035V109.1H62.6035V107.242H63.1035V105.386H62.6035V103.528H63.1035V102.6C63.1035 102.365 63.1263 102.137 63.1699 101.916L62.6797 101.819C62.7835 101.294 62.9899 100.806 63.2773 100.377L63.6924 100.655C63.9481 100.273 64.2773 99.9441 64.6592 99.6885L64.3809 99.2734C64.8102 98.986 65.2983 98.7796 65.8232 98.6758L65.9199 99.166C66.1406 99.1224 66.3691 99.0996 66.6035 99.0996H67.6182V98.5996H69.6475V99.0996H71.6768V98.5996H73.7061V99.0996H75.7363V98.5996H77.7656V99.0996H79.7949V98.5996H81.8242V99.0996H83.8535V98.5996H85.8828V99.0996H87.9121V98.5996H89.9414V99.0996H91.9707V98.5996H94.001V99.0996H96.0303V98.5996H98.0596V99.0996H100.089V98.5996H102.118V99.0996H104.147V98.5996H106.177V99.0996H108.206V98.5996H110.236V99.0996H112.266V98.5996H114.295V99.0996H116.324V98.5996H118.354V99.0996H120.383V98.5996H122.412V99.0996H124.441V98.5996H126.471V99.0996H128.501V98.5996H130.53V99.0996H132.56V98.5996H134.589Z" stroke="#0056CF" stroke-dasharray="2 2"/>
<path fill-rule="evenodd" clip-rule="evenodd" d="M91.3232 113.636C92.9552 113.636 94.0713 114.98 94.0713 116.636C94.0713 116.864 94.0469 117.008 94.0469 117.008H89.4756C89.5597 117.98 90.3634 118.796 91.5752 118.796C92.3192 118.796 93.0398 118.496 93.7598 117.872V118.987C93.1118 119.455 92.3189 119.731 91.5029 119.731C89.6432 119.731 88.4434 118.399 88.4434 116.684C88.4434 114.944 89.6433 113.636 91.3232 113.636ZM91.2998 114.535C90.3279 114.535 89.5712 115.363 89.499 116.155H93.0273C92.9432 115.232 92.2595 114.535 91.2998 114.535Z" fill="#C1CDD6"/>
<path fill-rule="evenodd" clip-rule="evenodd" d="M108.515 113.636C110.147 113.636 111.263 114.98 111.263 116.636C111.263 116.864 111.238 117.008 111.238 117.008H106.667C106.751 117.98 107.555 118.796 108.767 118.796C109.511 118.796 110.231 118.496 110.951 117.872V118.987C110.303 119.455 109.51 119.731 108.694 119.731C106.835 119.731 105.635 118.399 105.635 116.684C105.635 114.944 106.835 113.636 108.515 113.636ZM108.491 114.535C107.519 114.535 106.763 115.363 106.69 116.155H110.219C110.135 115.232 109.451 114.535 108.491 114.535Z" fill="#C1CDD6"/>
<path d="M120.979 113.768H122.61V114.691H120.979V117.775C120.979 118.459 121.278 118.771 121.95 118.771C122.178 118.771 122.43 118.712 122.61 118.592V119.552C122.406 119.66 122.107 119.731 121.711 119.731C120.607 119.731 119.946 119.048 119.946 117.92V114.691H118.938V114.56L120.942 112.399H120.979V113.768Z" fill="#C1CDD6"/>
<path d="M84.2646 112.184H80.665V114.752H84.0127V115.724H80.665V118.615H84.2891V119.6H79.5967V111.199H84.2646V112.184Z" fill="#C1CDD6"/>
<path d="M86.9424 119.6H85.9102V111.199H86.9424V119.6Z" fill="#C1CDD6"/>
<path d="M102.072 113.636C103.416 113.636 104.22 114.584 104.22 116.084V119.6H103.188V116.264C103.188 115.232 102.744 114.584 101.868 114.584C100.968 114.584 100.38 115.352 100.38 116.54V119.6H99.3477V116.288C99.3477 115.244 98.8913 114.584 98.0273 114.584C97.1276 114.584 96.54 115.352 96.54 116.54V119.6H95.5078V113.768H96.5273V114.607C96.8513 114.007 97.4401 113.636 98.2441 113.636C99.1079 113.636 99.7321 114.068 100.08 114.775C100.368 114.283 100.968 113.636 102.072 113.636Z" fill="#C1CDD6"/>
<path d="M115.591 113.636C117.079 113.636 117.943 114.632 117.943 116.18V119.6H116.911V116.3C116.911 115.256 116.371 114.596 115.375 114.596C114.379 114.596 113.731 115.364 113.731 116.552V119.6H112.699V113.768H113.731V114.607C114.091 114.032 114.715 113.636 115.591 113.636Z" fill="#C1CDD6"/>
<path fill-rule="evenodd" clip-rule="evenodd" d="M38.6689 15.0361C40.3249 15.0361 41.5967 16.356 41.5967 18.084C41.5967 19.8 40.3249 21.1318 38.6689 21.1318C37.817 21.1318 37.0365 20.76 36.6045 20.124V23.4961H35.585V15.168H36.6045V16.0918C37.0245 15.4558 37.817 15.0361 38.6689 15.0361ZM38.5488 15.9844C37.4089 15.9844 36.5449 16.908 36.5449 18.084C36.5449 19.2599 37.4089 20.1835 38.5488 20.1836C39.6888 20.1836 40.5527 19.26 40.5527 18.084C40.5527 16.908 39.6888 15.9844 38.5488 15.9844Z" fill="#687887"/>
<path fill-rule="evenodd" clip-rule="evenodd" d="M21.9199 15.0361C23.5519 15.0361 24.668 16.3801 24.668 18.0361C24.668 18.2641 24.6436 18.4082 24.6436 18.4082H20.0723C20.1564 19.3801 20.9601 20.1962 22.1719 20.1963C22.9159 20.1963 23.6364 19.8965 24.3564 19.2725V20.3877C23.7084 20.8557 22.9156 21.1318 22.0996 21.1318C20.2399 21.1316 19.04 19.7999 19.04 18.084C19.0401 16.344 20.24 15.0362 21.9199 15.0361ZM21.8965 15.9355C20.9246 15.9355 20.1679 16.7638 20.0957 17.5557H23.624C23.5399 16.632 22.8561 15.9358 21.8965 15.9355Z" fill="#687887"/>
<path fill-rule="evenodd" clip-rule="evenodd" d="M45.7832 15.0361C47.5352 15.0361 48.831 16.392 48.8311 18.084C48.8311 19.776 47.5352 21.1318 45.7832 21.1318C44.0313 21.1318 42.7354 19.7759 42.7354 18.084C42.7354 16.392 44.0313 15.0362 45.7832 15.0361ZM45.7832 15.9844C44.6433 15.9845 43.7793 16.92 43.7793 18.084C43.7793 19.2479 44.6433 20.1835 45.7832 20.1836C46.9232 20.1836 47.7871 19.248 47.7871 18.084C47.7871 16.92 46.9232 15.9844 45.7832 15.9844Z" fill="#687887"/>
<path d="M56.0986 15.168H57.7305V16.0918H56.0986V19.1758C56.0986 19.8597 56.3985 20.1718 57.0703 20.1719C57.2982 20.1719 57.5505 20.1121 57.7305 19.9922V20.9521C57.5266 21.0601 57.2267 21.1318 56.8311 21.1318C55.7272 21.1318 55.0665 20.4481 55.0664 19.3203V16.0918H54.0586V15.96L56.0625 13.7998H56.0986V15.168Z" fill="#687887"/>
<path d="M11.792 19.2119L14.2998 12.5996H15.4033L12.1396 21H11.4199L8.14355 12.5996H9.27148L11.792 19.2119Z" fill="#687887"/>
<path d="M17.5391 21H16.5068V15.168H17.5391V21Z" fill="#687887"/>
<path d="M27.9531 19.5361L29.501 15.168H30.2451L31.793 19.5361L33.3174 15.168H34.3613L32.1895 21H31.3975L29.8613 16.6797L28.3252 21H27.5332L25.3613 15.168H26.4297L27.9531 19.5361Z" fill="#687887"/>
<path d="M53.123 15.0723C53.2634 15.0723 53.3698 15.0946 53.375 15.0957V16.1279C53.3704 16.1269 53.263 16.1035 53.0869 16.1035C52.0072 16.1036 51.3468 16.9679 51.3467 18.2275V21H50.3271V15.168H51.335V16.2002C51.5989 15.5282 52.3551 15.0723 53.123 15.0723Z" fill="#687887"/>
<path d="M17.0234 12.7441C17.4073 12.7443 17.7188 13.0565 17.7188 13.4404C17.7185 13.8241 17.4072 14.1356 17.0234 14.1357C16.6396 14.1357 16.3274 13.8242 16.3271 13.4404C16.3271 13.0564 16.6394 12.7441 17.0234 12.7441Z" fill="#687887"/>
<rect x="16.4004" y="42.0479" width="77" height="34" rx="4" fill="#0056CF"/>
<path fill-rule="evenodd" clip-rule="evenodd" d="M45.207 57.084C46.839 57.084 47.9551 58.428 47.9551 60.084C47.9551 60.3119 47.9307 60.4561 47.9307 60.4561H43.3594C43.4435 61.4279 44.2472 62.2441 45.459 62.2441C46.203 62.2441 46.9236 61.9443 47.6436 61.3203V62.4355C46.9956 62.9035 46.2027 63.1797 45.3867 63.1797C43.527 63.1795 42.3271 61.8477 42.3271 60.1318C42.3272 58.3919 43.5271 57.084 45.207 57.084ZM45.1836 57.9834C44.2117 57.9834 43.455 58.8116 43.3828 59.6035H46.9111C46.827 58.6798 46.1432 57.9836 45.1836 57.9834Z" fill="white"/>
<path fill-rule="evenodd" clip-rule="evenodd" d="M62.3984 57.084C64.0304 57.084 65.1465 58.428 65.1465 60.084C65.1465 60.3119 65.1221 60.4561 65.1221 60.4561H60.5508C60.6349 61.4279 61.4386 62.2441 62.6504 62.2441C63.3944 62.2441 64.115 61.9443 64.835 61.3203V62.4355C64.187 62.9035 63.3941 63.1797 62.5781 63.1797C60.7184 63.1795 59.5186 61.8477 59.5186 60.1318C59.5186 58.3919 60.7185 57.084 62.3984 57.084ZM62.375 57.9834C61.4031 57.9834 60.6464 58.8116 60.5742 59.6035H64.1025C64.0184 58.6798 63.3346 57.9836 62.375 57.9834Z" fill="white"/>
<path d="M74.8623 57.2158H76.4941V58.1396H74.8623V61.2236C74.8623 61.9075 75.1622 62.2196 75.834 62.2197C76.0619 62.2197 76.3142 62.16 76.4941 62.04V63C76.2902 63.1079 75.9904 63.1796 75.5947 63.1797C74.4908 63.1797 73.8302 62.496 73.8301 61.3682V58.1396H72.8223V58.0078L74.8262 55.8477H74.8623V57.2158Z" fill="white"/>
<path d="M38.1484 55.6318H34.5488V58.2002H37.8965V59.1719H34.5488V62.0635H38.1729V63.0479H33.4805V54.6475H38.1484V55.6318Z" fill="white"/>
<path d="M40.8262 63.0479H39.7939V54.6475H40.8262V63.0479Z" fill="white"/>
<path d="M55.9561 57.084C57.2998 57.0842 58.1035 58.0324 58.1035 59.5322V63.0479H57.0713V59.7119C57.0713 58.6801 56.6277 58.0324 55.752 58.0322C54.852 58.0322 54.2637 58.8003 54.2637 59.9883V63.0479H53.2314V59.7363C53.2314 58.6923 52.7751 58.0322 51.9111 58.0322C51.0114 58.0325 50.4238 58.8005 50.4238 59.9883V63.0479H49.3916V57.2158H50.4111V58.0557C50.7351 57.4557 51.3239 57.084 52.1279 57.084C52.9917 57.0841 53.6159 57.5158 53.9639 58.2236C54.2519 57.7317 54.8523 57.084 55.9561 57.084Z" fill="white"/>
<path d="M69.4746 57.084C70.9626 57.084 71.8271 58.0799 71.8271 59.6279V63.0479H70.7949V59.748C70.7949 58.704 70.2548 58.0439 69.2588 58.0439C68.2629 58.0441 67.6152 58.8121 67.6152 60V63.0479H66.583V57.2158H67.6152V58.0557C67.9752 57.4799 68.5989 57.0841 69.4746 57.084Z" fill="white"/>
</g>
<defs>
<clipPath id="clip0_1663_178802">
<rect width="163.2" height="163.2" fill="white" transform="translate(0.400391)"/>
</clipPath>
</defs>
</svg>
