<svg width="164" height="164" viewBox="0 0 164 164" fill="none" xmlns="http://www.w3.org/2000/svg">
<g clip-path="url(#clip0_1663_178814)">
<rect x="1" width="163.2" height="163.2" fill="white"/>
<rect x="8.5" y="8" width="147" height="147.1" fill="#F3F7FB"/>
<rect x="8.5" y="8" width="77" height="34" rx="4" fill="#0056CF"/>
<path fill-rule="evenodd" clip-rule="evenodd" d="M37.3066 23.0361C38.9386 23.0361 40.0547 24.3801 40.0547 26.0361C40.0547 26.2641 40.0303 26.4082 40.0303 26.4082H35.459C35.5431 27.3801 36.3468 28.1962 37.5586 28.1963C38.3026 28.1963 39.0232 27.8965 39.7432 27.2725V28.3877C39.0952 28.8557 38.3023 29.1318 37.4863 29.1318C35.6266 29.1316 34.4268 27.7999 34.4268 26.084C34.4268 24.344 35.6267 23.0362 37.3066 23.0361ZM37.2832 23.9355C36.3113 23.9355 35.5546 24.7638 35.4824 25.5557H39.0107C38.9266 24.632 38.2428 23.9358 37.2832 23.9355Z" fill="white"/>
<path fill-rule="evenodd" clip-rule="evenodd" d="M54.498 23.0361C56.13 23.0361 57.2461 24.3801 57.2461 26.0361C57.2461 26.2641 57.2217 26.4082 57.2217 26.4082H52.6504C52.7345 27.3801 53.5382 28.1962 54.75 28.1963C55.494 28.1963 56.2146 27.8965 56.9346 27.2725V28.3877C56.2866 28.8557 55.4937 29.1318 54.6777 29.1318C52.818 29.1316 51.6182 27.7999 51.6182 26.084C51.6182 24.344 52.8181 23.0362 54.498 23.0361ZM54.4746 23.9355C53.5027 23.9355 52.746 24.7638 52.6738 25.5557H56.2021C56.118 24.632 55.4343 23.9358 54.4746 23.9355Z" fill="white"/>
<path d="M66.9619 23.168H68.5938V24.0918H66.9619V27.1758C66.9619 27.8597 67.2618 28.1718 67.9336 28.1719C68.1615 28.1719 68.4138 28.1121 68.5938 27.9922V28.9521C68.3898 29.0601 68.09 29.1318 67.6943 29.1318C66.5904 29.1318 65.9298 28.4481 65.9297 27.3203V24.0918H64.9219V23.96L66.9258 21.7998H66.9619V23.168Z" fill="white"/>
<path d="M30.248 21.584H26.6484V24.1523H29.9961V25.124H26.6484V28.0156H30.2725V29H25.5801V20.5996H30.248V21.584Z" fill="white"/>
<path d="M32.9258 29H31.8936V20.5996H32.9258V29Z" fill="white"/>
<path d="M48.0557 23.0361C49.3994 23.0363 50.2031 23.9845 50.2031 25.4844V29H49.1709V25.6641C49.1709 24.6322 48.7273 23.9845 47.8516 23.9844C46.9516 23.9844 46.3633 24.7524 46.3633 25.9404V29H45.3311V25.6885C45.3311 24.6445 44.8747 23.9844 44.0107 23.9844C43.111 23.9846 42.5234 24.7526 42.5234 25.9404V29H41.4912V23.168H42.5107V24.0078C42.8347 23.4078 43.4235 23.0361 44.2275 23.0361C45.0913 23.0362 45.7155 23.4679 46.0635 24.1758C46.3515 23.6838 46.9519 23.0361 48.0557 23.0361Z" fill="white"/>
<path d="M61.5742 23.0361C63.0622 23.0361 63.9268 24.0321 63.9268 25.5801V29H62.8945V25.7002C62.8945 24.6562 62.3544 23.9961 61.3584 23.9961C60.3625 23.9962 59.7148 24.7642 59.7148 25.9521V29H58.6826V23.168H59.7148V24.0078C60.0748 23.432 60.6986 23.0363 61.5742 23.0361Z" fill="white"/>
<path d="M16.4004 57.3C16.4004 55.0909 18.1913 53.3 20.4004 53.3H143.601C145.81 53.3 147.601 55.0908 147.601 57.3V105.9C147.601 108.109 145.81 109.9 143.601 109.9H20.4004C18.1913 109.9 16.4004 108.109 16.4004 105.9V57.3Z" fill="white"/>
<path d="M143.601 108.9V109.9H20.4004V108.9H143.601ZM146.601 105.9V57.3C146.601 55.6949 145.34 54.3842 143.755 54.3039L143.601 54.3H20.4004C18.7435 54.3 17.4004 55.6431 17.4004 57.3V105.9C17.4004 107.556 18.7435 108.9 20.4004 108.9V109.9C18.1913 109.9 16.4004 108.109 16.4004 105.9V57.3C16.4004 55.16 18.081 53.4121 20.1943 53.3049L20.4004 53.3H143.601L143.807 53.3049C145.92 53.4121 147.601 55.16 147.601 57.3V105.9C147.601 108.109 145.81 109.9 143.601 109.9V108.9C145.257 108.9 146.601 107.556 146.601 105.9Z" fill="#E4E8F0"/>
<path fill-rule="evenodd" clip-rule="evenodd" d="M32.9287 63.7365C34.4286 63.7365 35.2929 64.5643 35.293 65.9201V69.7004H34.3213V68.9328C33.8653 69.5207 33.1566 69.8322 32.3887 69.8322C31.3568 69.8321 30.625 69.1241 30.625 68.1642C30.6251 67.1203 31.2854 66.4964 32.5693 66.2805L34.2852 65.9924V65.8488C34.2852 65.1169 33.7691 64.6722 32.9053 64.6721C32.1133 64.6721 31.5248 64.9961 30.9248 65.548V64.468C31.4527 64.036 32.0889 63.7366 32.9287 63.7365ZM32.7373 67.1564C32.0413 67.2884 31.6572 67.6007 31.6572 68.1047C31.6574 68.5965 32.0412 68.9201 32.5811 68.9201C33.577 68.9201 34.2969 68.2722 34.2969 67.3723V66.8801L32.7373 67.1564Z" fill="#687887"/>
<path fill-rule="evenodd" clip-rule="evenodd" d="M43.6621 63.7365C45.2941 63.7365 46.4102 65.0805 46.4102 66.7365C46.4101 66.9644 46.3857 67.1086 46.3857 67.1086H41.8145C41.8986 68.0804 42.7022 68.8966 43.9141 68.8967C44.6581 68.8967 45.3786 68.5968 46.0986 67.9728V69.0881C45.4506 69.5561 44.6578 69.8322 43.8418 69.8322C41.982 69.832 40.7822 68.5002 40.7822 66.7844C40.7822 65.0444 41.9822 63.7366 43.6621 63.7365ZM43.6387 64.6359C42.6668 64.6359 41.9101 65.4641 41.8379 66.256H45.3662C45.2821 65.3323 44.5983 64.6361 43.6387 64.6359Z" fill="#687887"/>
<path d="M56.126 63.8683H57.7578V64.7922H56.126V67.8762C56.126 68.5601 56.4259 68.8722 57.0977 68.8723C57.3256 68.8723 57.5778 68.8125 57.7578 68.6926V69.6525C57.5539 69.7604 57.2541 69.8322 56.8584 69.8322C55.7545 69.8322 55.0939 69.1485 55.0938 68.0207V64.7922H54.0859V64.6603L56.0898 62.5002H56.126V63.8683Z" fill="#687887"/>
<path fill-rule="evenodd" clip-rule="evenodd" d="M27.0039 61.3C28.5999 61.3 29.7168 62.1888 29.7168 63.7248C29.7166 65.2605 28.5998 66.1359 27.0039 66.1359H25.4688V69.7004H24.4004V61.3H27.0039ZM25.4688 65.1525H27.0039C27.9638 65.1525 28.6365 64.6245 28.6367 63.7248C28.6367 62.8008 27.9639 62.2844 27.0039 62.2844H25.4688V65.1525Z" fill="#687887"/>
<path d="M39.9082 63.7726C40.0486 63.7726 40.1549 63.7949 40.1602 63.7961V64.8283C40.1556 64.8273 40.0481 64.8039 39.8721 64.8039C38.7923 64.804 38.132 65.6683 38.1318 66.9279V69.7004H37.1123V63.8683H38.1201V64.9006C38.3841 64.2286 39.1402 63.7727 39.9082 63.7726Z" fill="#687887"/>
<path d="M50.7383 63.7365C52.2263 63.7365 53.0908 64.7325 53.0908 66.2805V69.7004H52.0586V66.4006C52.0586 65.3566 51.5185 64.6965 50.5225 64.6965C49.5266 64.6966 48.8789 65.4646 48.8789 66.6525V69.7004H47.8467V63.8683H48.8789V64.7082C49.2389 64.1324 49.8626 63.7366 50.7383 63.7365Z" fill="#687887"/>
<path d="M134.589 61.3V61.8H135.604C135.838 61.8 136.066 61.8227 136.287 61.8664L136.383 61.3762C136.908 61.4799 137.396 61.6864 137.825 61.9738L137.548 62.3889C137.93 62.6445 138.259 62.9738 138.515 63.3557L138.929 63.0773C139.216 63.5067 139.423 63.9946 139.526 64.5197H139.527L139.037 64.6164C139.081 64.8371 139.104 65.0656 139.104 65.3V66.2287H139.604V68.0861H139.104V69.9426H139.604V71.8H139.104V73.6574H139.604V75.5139H139.104V77.3713H139.604V79.2287H139.104V81.0861H139.604V82.9426H139.104V84.8H139.604V86.6574H139.104V88.5139H139.604V90.3713H139.104V91.3C139.104 91.5344 139.081 91.7629 139.037 91.9836L139.526 92.0793C139.423 92.6045 139.216 93.0922 138.929 93.5217L138.515 93.2443C138.259 93.6262 137.93 93.9554 137.548 94.2111L137.825 94.6252C137.396 94.9127 136.908 95.1191 136.383 95.2228L136.287 94.7336C136.066 94.7772 135.838 94.8 135.604 94.8H134.589V95.3H132.56V94.8H130.53V95.3H128.501V94.8H126.471V95.3H124.441V94.8H122.412V95.3H120.383V94.8H118.354V95.3H116.324V94.8H114.295V95.3H112.266V94.8H110.236V95.3H108.206V94.8H106.177V95.3H104.147V94.8H102.118V95.3H100.089V94.8H98.0596V95.3H96.0303V94.8H94.001V95.3H91.9707V94.8H89.9414V95.3H87.9121V94.8H85.8828V95.3H83.8535V94.8H81.8242V95.3H79.7949V94.8H77.7656V95.3H75.7363V94.8H73.7061V95.3H71.6768V94.8H69.6475V95.3H67.6182V94.8H66.6035C66.3691 94.8 66.1406 94.7772 65.9199 94.7336L65.8232 95.2228C65.2981 95.119 64.8102 94.9128 64.3809 94.6252L64.6592 94.2111C64.2773 93.9554 63.9481 93.6262 63.6924 93.2443L63.2773 93.5217C62.99 93.0923 62.7834 92.6044 62.6797 92.0793L63.1699 91.9836C63.1372 91.8181 63.1159 91.6482 63.1074 91.4748L63.1035 91.3V90.3713H62.6035V88.5139H63.1035V86.6574H62.6035V84.8H63.1035V82.9426H62.6035V81.0861H63.1035V79.2287H62.6035V77.3713H63.1035V75.5139H62.6035V73.6574H63.1035V71.8H62.6035V69.9426H63.1035V68.0861H62.6035V66.2287H63.1035V65.3C63.1035 65.0656 63.1263 64.8371 63.1699 64.6164L62.6797 64.5197C62.7835 63.9947 62.9899 63.5066 63.2773 63.0773L63.6924 63.3557C63.9481 62.9738 64.2773 62.6445 64.6592 62.3889L64.3809 61.9738C64.8102 61.6864 65.2983 61.48 65.8232 61.3762L65.9199 61.8664C66.1406 61.8227 66.3691 61.8 66.6035 61.8H67.6182V61.3H69.6475V61.8H71.6768V61.3H73.7061V61.8H75.7363V61.3H77.7656V61.8H79.7949V61.3H81.8242V61.8H83.8535V61.3H85.8828V61.8H87.9121V61.3H89.9414V61.8H91.9707V61.3H94.001V61.8H96.0303V61.3H98.0596V61.8H100.089V61.3H102.118V61.8H104.147V61.3H106.177V61.8H108.206V61.3H110.236V61.8H112.266V61.3H114.295V61.8H116.324V61.3H118.354V61.8H120.383V61.3H122.412V61.8H124.441V61.3H126.471V61.8H128.501V61.3H130.53V61.8H132.56V61.3H134.589Z" stroke="#0056CF" stroke-dasharray="2 2"/>
<path fill-rule="evenodd" clip-rule="evenodd" d="M91.3232 76.3361C92.9552 76.3361 94.0713 77.6801 94.0713 79.3361C94.0713 79.5641 94.0469 79.7082 94.0469 79.7082H89.4756C89.5597 80.6801 90.3634 81.4962 91.5752 81.4963C92.3192 81.4963 93.0398 81.1964 93.7598 80.5724V81.6877C93.1118 82.1557 92.3189 82.4318 91.5029 82.4318C89.6432 82.4316 88.4434 81.0998 88.4434 79.384C88.4434 77.644 89.6433 76.3362 91.3232 76.3361ZM91.2998 77.2355C90.3279 77.2355 89.5712 78.0637 89.499 78.8557H93.0273C92.9432 77.932 92.2595 77.2357 91.2998 77.2355Z" fill="#C1CDD6"/>
<path fill-rule="evenodd" clip-rule="evenodd" d="M108.515 76.3361C110.147 76.3361 111.263 77.6801 111.263 79.3361C111.263 79.5641 111.238 79.7082 111.238 79.7082H106.667C106.751 80.6801 107.555 81.4962 108.767 81.4963C109.511 81.4963 110.231 81.1964 110.951 80.5724V81.6877C110.303 82.1557 109.51 82.4318 108.694 82.4318C106.835 82.4316 105.635 81.0998 105.635 79.384C105.635 77.644 106.835 76.3362 108.515 76.3361ZM108.491 77.2355C107.519 77.2355 106.763 78.0637 106.69 78.8557H110.219C110.135 77.932 109.451 77.2358 108.491 77.2355Z" fill="#C1CDD6"/>
<path d="M120.979 76.468H122.61V77.3918H120.979V80.4758C120.979 81.1597 121.278 81.4718 121.95 81.4719C122.178 81.4719 122.43 81.4121 122.61 81.2922V82.2521C122.406 82.36 122.107 82.4318 121.711 82.4318C120.607 82.4318 119.946 81.7481 119.946 80.6203V77.3918H118.938V77.2599L120.942 75.0998H120.979V76.468Z" fill="#C1CDD6"/>
<path d="M84.2646 74.884H80.665V77.4523H84.0127V78.424H80.665V81.3156H84.2891V82.3H79.5967V73.8996H84.2646V74.884Z" fill="#C1CDD6"/>
<path d="M86.9424 82.3H85.9102V73.8996H86.9424V82.3Z" fill="#C1CDD6"/>
<path d="M102.072 76.3361C103.416 76.3363 104.22 77.2845 104.22 78.7844V82.3H103.188V78.9641C103.188 77.9322 102.744 77.2845 101.868 77.2844C100.968 77.2844 100.38 78.0524 100.38 79.2404V82.3H99.3477V78.9885C99.3477 77.9445 98.8913 77.2844 98.0273 77.2844C97.1276 77.2846 96.54 78.0526 96.54 79.2404V82.3H95.5078V76.468H96.5273V77.3078C96.8513 76.7078 97.4401 76.3361 98.2441 76.3361C99.1079 76.3362 99.7321 76.7679 100.08 77.4758C100.368 76.9838 100.968 76.3361 102.072 76.3361Z" fill="#C1CDD6"/>
<path d="M115.591 76.3361C117.079 76.3361 117.943 77.3321 117.943 78.8801V82.3H116.911V79.0002C116.911 77.9562 116.371 77.2961 115.375 77.2961C114.379 77.2962 113.731 78.0642 113.731 79.2521V82.3H112.699V76.468H113.731V77.3078C114.091 76.732 114.715 76.3362 115.591 76.3361Z" fill="#C1CDD6"/>
</g>
<defs>
<clipPath id="clip0_1663_178814">
<rect width="163.2" height="163.2" fill="white" transform="translate(0.599609)"/>
</clipPath>
</defs>
</svg>
