<svg width="164" height="164" viewBox="0 0 164 164" fill="none" xmlns="http://www.w3.org/2000/svg">
<rect width="163.2" height="163.2" fill="white"/>
<rect width="147.2" height="116" transform="translate(7.6001 24)" fill="#F3F7FB"/>
<path d="M141.806 32V32.5H142.8C143.035 32.5 143.263 32.5228 143.484 32.5664L143.58 32.0762C144.105 32.1799 144.593 32.3864 145.022 32.6738L144.745 33.0889C145.126 33.3445 145.455 33.6739 145.71 34.0557L146.125 33.7773C146.413 34.2067 146.619 34.6947 146.723 35.2197H146.724L146.234 35.3164C146.278 35.5371 146.3 35.7656 146.3 36V37H146.8V39H146.3V41H146.8V43H146.3V45H146.8V47H146.3V49H146.8V51H146.3V53H146.8V55H146.3V57H146.8V59H146.3V61H146.8V63H146.3V65H146.8V67H146.3V69H146.8V71H146.3V73H146.8V75H146.3V77H146.8V79H146.3V81H146.8V83H146.3V85H146.8V87H146.3V89H146.8V91H146.3V93H146.8V95H146.3V97H146.8V99H146.3V101H146.8V103H146.3V105H146.8V107H146.3V109H146.8V111H146.3V113H146.8V115H146.3V117H146.8V119H146.3V121H146.8V123H146.3V125H146.8V127H146.3V128C146.3 128.234 146.278 128.463 146.234 128.684L146.723 128.779C146.619 129.304 146.413 129.792 146.125 130.222L145.71 129.944C145.455 130.326 145.126 130.656 144.745 130.911L145.022 131.325C144.593 131.613 144.105 131.819 143.58 131.923L143.484 131.434C143.263 131.477 143.035 131.5 142.8 131.5H141.806V132H139.82V131.5H137.833V132H135.845V131.5H133.858V132H131.871V131.5H129.884V132H127.897V131.5H125.91V132H123.922V131.5H121.936V132H119.949V131.5H117.961V132H115.974V131.5H113.987V132H112V131.5H110.013V132H108.026V131.5H106.039V132H104.051V131.5H102.065V132H100.078V131.5H98.0903V132H96.103V131.5H94.1167V132H92.1294V131.5H90.1421V132H88.1548V131.5H86.1675V132H84.1812V131.5H82.1938V132H80.2065V131.5H78.2192V132H76.2319V131.5H74.2456V132H72.2583V131.5H70.271V132H68.2837V131.5H66.2974V132H64.3101V131.5H62.3228V132H60.3354V131.5H58.3481V132H56.3618V131.5H54.3745V132H52.3872V131.5H50.3999V132H48.4126V131.5H46.4263V132H44.439V131.5H42.4517V132H40.4644V131.5H38.4771V132H36.4907V131.5H34.5034V132H32.5161V131.5H30.5288V132H28.5425V131.5H26.5552V132H24.5679V131.5H22.5806V132H20.5933V131.5H19.6001C19.3657 131.5 19.1372 131.477 18.9165 131.434L18.8198 131.923C18.2947 131.819 17.8068 131.613 17.3774 131.325L17.6558 130.911C17.2739 130.655 16.9446 130.326 16.689 129.944L16.2739 130.222C15.9865 129.792 15.78 129.304 15.6763 128.779L16.1665 128.684C16.1229 128.463 16.1001 128.234 16.1001 128V127H15.6001V125H16.1001V123H15.6001V121H16.1001V119H15.6001V117H16.1001V115H15.6001V113H16.1001V111H15.6001V109H16.1001V107H15.6001V105H16.1001V103H15.6001V101H16.1001V99H15.6001V97H16.1001V95H15.6001V93H16.1001V91H15.6001V89H16.1001V87H15.6001V85H16.1001V83H15.6001V81H16.1001V79H15.6001V77H16.1001V75H15.6001V73H16.1001V71H15.6001V69H16.1001V67H15.6001V65H16.1001V63H15.6001V61H16.1001V59H15.6001V57H16.1001V55H15.6001V53H16.1001V51H15.6001V49H16.1001V47H15.6001V45H16.1001V43H15.6001V41H16.1001V39H15.6001V37H16.1001V36C16.1001 35.7656 16.1229 35.5371 16.1665 35.3164L15.6763 35.2197C15.7801 34.6947 15.9865 34.2066 16.2739 33.7773L16.689 34.0557C16.9446 33.6738 17.2739 33.3445 17.6558 33.0889L17.3774 32.6738C17.8067 32.3864 18.2948 32.18 18.8198 32.0762L18.9165 32.5664C19.1372 32.5228 19.3657 32.5 19.6001 32.5H20.5933V32H22.5806V32.5H24.5679V32H26.5552V32.5H28.5425V32H30.5288V32.5H32.5161V32H34.5034V32.5H36.4907V32H38.4771V32.5H40.4644V32H42.4517V32.5H44.439V32H46.4263V32.5H48.4126V32H50.3999V32.5H52.3872V32H54.3745V32.5H56.3618V32H58.3481V32.5H60.3354V32H62.3228V32.5H64.3101V32H66.2964V32.5H68.2837V32H70.271V32.5H72.2583V32H74.2456V32.5H76.2319V32H78.2192V32.5H80.2065V32H82.1938V32.5H84.1812V32H86.1675V32.5H88.1548V32H90.1421V32.5H92.1294V32H94.1157V32.5H96.103V32H98.0903V32.5H100.078V32H102.065V32.5H104.051V32H106.039V32.5H108.026V32H110.013V32.5H112V32H113.987V32.5H115.974V32H117.961V32.5H119.949V32H121.936V32.5H123.922V32H125.91V32.5H127.897V32H129.884V32.5H131.871V32H133.858V32.5H135.845V32H137.833V32.5H139.82V32H141.806Z" fill="#0056CF"/>
<path d="M141.806 32V32.5H142.8C143.035 32.5 143.263 32.5228 143.484 32.5664L143.58 32.0762C144.105 32.1799 144.593 32.3864 145.022 32.6738L144.745 33.0889C145.126 33.3445 145.455 33.6739 145.71 34.0557L146.125 33.7773C146.413 34.2067 146.619 34.6947 146.723 35.2197H146.724L146.234 35.3164C146.278 35.5371 146.3 35.7656 146.3 36V37H146.8V39H146.3V41H146.8V43H146.3V45H146.8V47H146.3V49H146.8V51H146.3V53H146.8V55H146.3V57H146.8V59H146.3V61H146.8V63H146.3V65H146.8V67H146.3V69H146.8V71H146.3V73H146.8V75H146.3V77H146.8V79H146.3V81H146.8V83H146.3V85H146.8V87H146.3V89H146.8V91H146.3V93H146.8V95H146.3V97H146.8V99H146.3V101H146.8V103H146.3V105H146.8V107H146.3V109H146.8V111H146.3V113H146.8V115H146.3V117H146.8V119H146.3V121H146.8V123H146.3V125H146.8V127H146.3V128C146.3 128.234 146.278 128.463 146.234 128.684L146.723 128.779C146.619 129.304 146.413 129.792 146.125 130.222L145.71 129.944C145.455 130.326 145.126 130.656 144.745 130.911L145.022 131.325C144.593 131.613 144.105 131.819 143.58 131.923L143.484 131.434C143.263 131.477 143.035 131.5 142.8 131.5H141.806V132H139.82V131.5H137.833V132H135.845V131.5H133.858V132H131.871V131.5H129.884V132H127.897V131.5H125.91V132H123.922V131.5H121.936V132H119.949V131.5H117.961V132H115.974V131.5H113.987V132H112V131.5H110.013V132H108.026V131.5H106.039V132H104.051V131.5H102.065V132H100.078V131.5H98.0903V132H96.103V131.5H94.1167V132H92.1294V131.5H90.1421V132H88.1548V131.5H86.1675V132H84.1812V131.5H82.1938V132H80.2065V131.5H78.2192V132H76.2319V131.5H74.2456V132H72.2583V131.5H70.271V132H68.2837V131.5H66.2974V132H64.3101V131.5H62.3228V132H60.3354V131.5H58.3481V132H56.3618V131.5H54.3745V132H52.3872V131.5H50.3999V132H48.4126V131.5H46.4263V132H44.439V131.5H42.4517V132H40.4644V131.5H38.4771V132H36.4907V131.5H34.5034V132H32.5161V131.5H30.5288V132H28.5425V131.5H26.5552V132H24.5679V131.5H22.5806V132H20.5933V131.5H19.6001C19.3657 131.5 19.1372 131.477 18.9165 131.434L18.8198 131.923C18.2947 131.819 17.8068 131.613 17.3774 131.325L17.6558 130.911C17.2739 130.655 16.9446 130.326 16.689 129.944L16.2739 130.222C15.9865 129.792 15.78 129.304 15.6763 128.779L16.1665 128.684C16.1229 128.463 16.1001 128.234 16.1001 128V127H15.6001V125H16.1001V123H15.6001V121H16.1001V119H15.6001V117H16.1001V115H15.6001V113H16.1001V111H15.6001V109H16.1001V107H15.6001V105H16.1001V103H15.6001V101H16.1001V99H15.6001V97H16.1001V95H15.6001V93H16.1001V91H15.6001V89H16.1001V87H15.6001V85H16.1001V83H15.6001V81H16.1001V79H15.6001V77H16.1001V75H15.6001V73H16.1001V71H15.6001V69H16.1001V67H15.6001V65H16.1001V63H15.6001V61H16.1001V59H15.6001V57H16.1001V55H15.6001V53H16.1001V51H15.6001V49H16.1001V47H15.6001V45H16.1001V43H15.6001V41H16.1001V39H15.6001V37H16.1001V36C16.1001 35.7656 16.1229 35.5371 16.1665 35.3164L15.6763 35.2197C15.7801 34.6947 15.9865 34.2066 16.2739 33.7773L16.689 34.0557C16.9446 33.6738 17.2739 33.3445 17.6558 33.0889L17.3774 32.6738C17.8067 32.3864 18.2948 32.18 18.8198 32.0762L18.9165 32.5664C19.1372 32.5228 19.3657 32.5 19.6001 32.5H20.5933V32H22.5806V32.5H24.5679V32H26.5552V32.5H28.5425V32H30.5288V32.5H32.5161V32H34.5034V32.5H36.4907V32H38.4771V32.5H40.4644V32H42.4517V32.5H44.439V32H46.4263V32.5H48.4126V32H50.3999V32.5H52.3872V32H54.3745V32.5H56.3618V32H58.3481V32.5H60.3354V32H62.3228V32.5H64.3101V32H66.2964V32.5H68.2837V32H70.271V32.5H72.2583V32H74.2456V32.5H76.2319V32H78.2192V32.5H80.2065V32H82.1938V32.5H84.1812V32H86.1675V32.5H88.1548V32H90.1421V32.5H92.1294V32H94.1157V32.5H96.103V32H98.0903V32.5H100.078V32H102.065V32.5H104.051V32H106.039V32.5H108.026V32H110.013V32.5H112V32H113.987V32.5H115.974V32H117.961V32.5H119.949V32H121.936V32.5H123.922V32H125.91V32.5H127.897V32H129.884V32.5H131.871V32H133.858V32.5H135.845V32H137.833V32.5H139.82V32H141.806Z" stroke="#0056CF" stroke-dasharray="2 2"/>
<path d="M99.0352 81.0941L101.039 78.9341H101.075V80.3021H102.707V81.2261H101.075V84.3101C101.075 84.9941 101.375 85.3061 102.047 85.3061C102.275 85.3061 102.527 85.2461 102.707 85.1261V86.0861C102.503 86.1941 102.203 86.2661 101.807 86.2661C100.703 86.2661 100.043 85.5821 100.043 84.4541V81.2261H99.0352V81.0941Z" fill="white"/>
<path d="M93.8277 83.086V86.134H92.7957V80.302H93.8277V81.142C94.1877 80.566 94.8117 80.17 95.6877 80.17C97.1757 80.17 98.0397 81.166 98.0397 82.714V86.134H97.0077V82.834C97.0077 81.79 96.4677 81.13 95.4717 81.13C94.4757 81.13 93.8277 81.898 93.8277 83.086Z" fill="white"/>
<path d="M91.047 84.406V85.522C90.399 85.99 89.607 86.266 88.791 86.266C86.931 86.266 85.731 84.934 85.731 83.218C85.731 81.478 86.931 80.17 88.611 80.17C90.243 80.17 91.359 81.514 91.359 83.17C91.359 83.398 91.335 83.542 91.335 83.542H86.763C86.847 84.514 87.651 85.33 88.863 85.33C89.607 85.33 90.327 85.03 91.047 84.406ZM86.787 82.69H90.315C90.231 81.766 89.547 81.07 88.587 81.07C87.615 81.07 86.859 81.898 86.787 82.69Z" fill="white"/>
<path d="M76.6362 83.074V86.134H75.6042V80.302H76.6242V81.142C76.9482 80.542 77.5362 80.17 78.3402 80.17C79.2042 80.17 79.8282 80.602 80.1762 81.31C80.4642 80.818 81.0642 80.17 82.1682 80.17C83.5122 80.17 84.3162 81.118 84.3162 82.618V86.134H83.2842V82.798C83.2842 81.766 82.8402 81.118 81.9642 81.118C81.0642 81.118 80.4762 81.886 80.4762 83.074V86.134H79.4442V82.822C79.4442 81.778 78.9882 81.118 78.1242 81.118C77.2242 81.118 76.6362 81.886 76.6362 83.074Z" fill="white"/>
<path d="M73.8556 84.406V85.522C73.2076 85.99 72.4156 86.266 71.5996 86.266C69.7396 86.266 68.5396 84.934 68.5396 83.218C68.5396 81.478 69.7396 80.17 71.4196 80.17C73.0516 80.17 74.1676 81.514 74.1676 83.17C74.1676 83.398 74.1436 83.542 74.1436 83.542H69.5716C69.6556 84.514 70.4596 85.33 71.6716 85.33C72.4156 85.33 73.1356 85.03 73.8556 84.406ZM69.5956 82.69H73.1236C73.0396 81.766 72.3556 81.07 71.3956 81.07C70.4236 81.07 69.6676 81.898 69.5956 82.69Z" fill="white"/>
<path d="M66.0066 77.734H67.0386V86.134H66.0066V77.734Z" fill="white"/>
<path d="M59.6929 86.134V77.734H64.3609V78.718H60.7609V81.286H64.1089V82.258H60.7609V85.15H64.3849V86.134H59.6929Z" fill="white"/>
</svg>
