<svg width="164" height="164" viewBox="0 0 164 164" fill="none" xmlns="http://www.w3.org/2000/svg">
<g clip-path="url(#clip0_1663_178791)">
<rect width="163.2" height="163.2" fill="white"/>
<path fill-rule="evenodd" clip-rule="evenodd" d="M38.6689 15.0361C40.3249 15.0361 41.5967 16.356 41.5967 18.084C41.5967 19.8 40.3249 21.1318 38.6689 21.1318C37.817 21.1318 37.0365 20.76 36.6045 20.124V23.4961H35.585V15.168H36.6045V16.0918C37.0245 15.4558 37.817 15.0361 38.6689 15.0361ZM38.5488 15.9844C37.4089 15.9844 36.5449 16.908 36.5449 18.084C36.5449 19.2599 37.4089 20.1835 38.5488 20.1836C39.6888 20.1836 40.5527 19.26 40.5527 18.084C40.5527 16.908 39.6888 15.9844 38.5488 15.9844Z" fill="#687887"/>
<path fill-rule="evenodd" clip-rule="evenodd" d="M21.9199 15.0361C23.5519 15.0361 24.668 16.3801 24.668 18.0361C24.668 18.2641 24.6436 18.4082 24.6436 18.4082H20.0723C20.1564 19.3801 20.9601 20.1962 22.1719 20.1963C22.9159 20.1963 23.6364 19.8965 24.3564 19.2725V20.3877C23.7084 20.8557 22.9156 21.1318 22.0996 21.1318C20.2399 21.1316 19.04 19.7999 19.04 18.084C19.0401 16.344 20.24 15.0362 21.9199 15.0361ZM21.8965 15.9355C20.9246 15.9355 20.1679 16.7638 20.0957 17.5557H23.624C23.5399 16.632 22.8561 15.9358 21.8965 15.9355Z" fill="#687887"/>
<path fill-rule="evenodd" clip-rule="evenodd" d="M45.7832 15.0361C47.5352 15.0361 48.831 16.392 48.8311 18.084C48.8311 19.776 47.5352 21.1318 45.7832 21.1318C44.0313 21.1318 42.7354 19.7759 42.7354 18.084C42.7354 16.392 44.0313 15.0362 45.7832 15.0361ZM45.7832 15.9844C44.6433 15.9845 43.7793 16.92 43.7793 18.084C43.7793 19.2479 44.6433 20.1835 45.7832 20.1836C46.9232 20.1836 47.7871 19.248 47.7871 18.084C47.7871 16.92 46.9232 15.9844 45.7832 15.9844Z" fill="#687887"/>
<path d="M56.0986 15.168H57.7305V16.0918H56.0986V19.1758C56.0986 19.8597 56.3985 20.1718 57.0703 20.1719C57.2982 20.1719 57.5505 20.1121 57.7305 19.9922V20.9521C57.5266 21.0601 57.2267 21.1318 56.8311 21.1318C55.7272 21.1318 55.0665 20.4481 55.0664 19.3203V16.0918H54.0586V15.96L56.0625 13.7998H56.0986V15.168Z" fill="#687887"/>
<path d="M11.792 19.2119L14.2998 12.5996H15.4033L12.1396 21H11.4199L8.14355 12.5996H9.27148L11.792 19.2119Z" fill="#687887"/>
<path d="M17.5391 21H16.5068V15.168H17.5391V21Z" fill="#687887"/>
<path d="M27.9531 19.5361L29.501 15.168H30.2451L31.793 19.5361L33.3174 15.168H34.3613L32.1895 21H31.3975L29.8613 16.6797L28.3252 21H27.5332L25.3613 15.168H26.4297L27.9531 19.5361Z" fill="#687887"/>
<path d="M53.123 15.0723C53.2634 15.0723 53.3698 15.0946 53.375 15.0957V16.1279C53.3704 16.1269 53.263 16.1035 53.0869 16.1035C52.0072 16.1036 51.3468 16.9679 51.3467 18.2275V21H50.3271V15.168H51.335V16.2002C51.5989 15.5282 52.3551 15.0723 53.123 15.0723Z" fill="#687887"/>
<path d="M17.0234 12.7441C17.4073 12.7443 17.7188 13.0565 17.7188 13.4404C17.7185 13.8241 17.4072 14.1356 17.0234 14.1357C16.6396 14.1357 16.3274 13.8242 16.3271 13.4404C16.3271 13.0564 16.6394 12.7441 17.0234 12.7441Z" fill="#687887"/>
<rect x="8.2998" y="34" width="147" height="88" fill="#F3F7FB"/>
<path fill-rule="evenodd" clip-rule="evenodd" d="M25.6084 49.0361C27.1083 49.0361 27.9725 49.8639 27.9727 51.2197V55H27.001V54.2324C26.545 54.8203 25.8363 55.1318 25.0684 55.1318C24.0365 55.1317 23.3047 54.4238 23.3047 53.4639C23.3047 52.4199 23.9651 51.7961 25.249 51.5801L26.9648 51.292V51.1484C26.9648 50.4165 26.4488 49.9718 25.585 49.9717C24.793 49.9717 24.2045 50.2957 23.6045 50.8477V49.7676C24.1324 49.3357 24.7686 49.0362 25.6084 49.0361ZM25.417 52.4561C24.721 52.5881 24.3369 52.9003 24.3369 53.4043C24.3371 53.8961 24.7209 54.2197 25.2607 54.2197C26.2567 54.2197 26.9766 53.5719 26.9766 52.6719V52.1797L25.417 52.4561Z" fill="#687887"/>
<path fill-rule="evenodd" clip-rule="evenodd" d="M36.3418 49.0361C37.9738 49.0361 39.0898 50.3801 39.0898 52.0361C39.0898 52.2641 39.0654 52.4082 39.0654 52.4082H34.4941C34.5782 53.3801 35.3819 54.1962 36.5938 54.1963C37.3378 54.1963 38.0583 53.8965 38.7783 53.2725V54.3877C38.1303 54.8557 37.3375 55.1318 36.5215 55.1318C34.6617 55.1316 33.4619 53.7999 33.4619 52.084C33.4619 50.344 34.6619 49.0362 36.3418 49.0361ZM36.3184 49.9355C35.3465 49.9355 34.5897 50.7638 34.5176 51.5557H38.0459C37.9618 50.632 37.278 49.9358 36.3184 49.9355Z" fill="#687887"/>
<path d="M48.8057 49.168H50.4375V50.0918H48.8057V53.1758C48.8057 53.8597 49.1055 54.1718 49.7773 54.1719C50.0053 54.1719 50.2575 54.1121 50.4375 53.9922V54.9521C50.2336 55.0601 49.9338 55.1318 49.5381 55.1318C48.4342 55.1318 47.7736 54.4481 47.7734 53.3203V50.0918H46.7656V49.96L48.7695 47.7998H48.8057V49.168Z" fill="#687887"/>
<path fill-rule="evenodd" clip-rule="evenodd" d="M19.6836 46.5996C21.2796 46.5996 22.3965 47.4884 22.3965 49.0244C22.3963 50.5602 21.2795 51.4355 19.6836 51.4355H18.1484V55H17.0801V46.5996H19.6836ZM18.1484 50.4521H19.6836C20.6434 50.4521 21.3162 49.9242 21.3164 49.0244C21.3164 48.1004 20.6436 47.584 19.6836 47.584H18.1484V50.4521Z" fill="#687887"/>
<path d="M32.5879 49.0723C32.7283 49.0723 32.8346 49.0946 32.8398 49.0957V50.1279C32.8352 50.1269 32.7278 50.1035 32.5518 50.1035C31.472 50.1036 30.8117 50.9679 30.8115 52.2275V55H29.792V49.168H30.7998V50.2002C31.0638 49.5282 31.8199 49.0723 32.5879 49.0723Z" fill="#687887"/>
<path d="M43.418 49.0361C44.906 49.0361 45.7705 50.0321 45.7705 51.5801V55H44.7383V51.7002C44.7383 50.6562 44.1981 49.9961 43.2021 49.9961C42.2063 49.9962 41.5586 50.7642 41.5586 51.9521V55H40.5264V49.168H41.5586V50.0078C41.9186 49.432 42.5423 49.0363 43.418 49.0361Z" fill="#687887"/>
<path d="M56.7148 122.009V105.371H57.7148V122.009C57.7151 123.942 59.282 125.509 61.2148 125.509H75.4658L73.1377 123.18C72.9424 122.984 72.9424 122.668 73.1377 122.473C73.333 122.278 73.6496 122.277 73.8447 122.473L77.0264 125.655C77.2214 125.851 77.2216 126.167 77.0264 126.362L73.8447 129.544C73.6495 129.739 73.333 129.739 73.1377 129.544C72.9424 129.349 72.9424 129.032 73.1377 128.837L75.4658 126.509H61.2148C58.7297 126.509 56.7151 124.494 56.7148 122.009Z" fill="black"/>
<path d="M115.285 68V68.5H116.3C116.534 68.5 116.763 68.5228 116.983 68.5664L117.079 68.0762C117.604 68.1799 118.092 68.3864 118.521 68.6738L118.244 69.0889C118.626 69.3445 118.955 69.6738 119.211 70.0557L119.625 69.7773C119.913 70.2067 120.119 70.6946 120.223 71.2197H120.224L119.733 71.3164C119.777 71.5371 119.8 71.7656 119.8 72V72.9287H120.3V74.7861H119.8V76.6426H120.3V78.5H119.8V80.3574H120.3V82.2139H119.8V84.0713H120.3V85.9287H119.8V87.7861H120.3V89.6426H119.8V91.5H120.3V93.3574H119.8V95.2139H120.3V97.0713H119.8V98C119.8 98.2344 119.777 98.4629 119.733 98.6836L120.223 98.7793C120.119 99.3045 119.913 99.7922 119.625 100.222L119.211 99.9443C118.955 100.326 118.626 100.655 118.244 100.911L118.521 101.325C118.092 101.613 117.604 101.819 117.079 101.923L116.983 101.434C116.763 101.477 116.534 101.5 116.3 101.5H115.285V102H113.256V101.5H111.227V102H109.197V101.5H107.167V102H105.138V101.5H103.108V102H101.079V101.5H99.0498V102H97.0205V101.5H94.9912V102H92.9619V101.5H90.9326V102H88.9023V101.5H86.873V102H84.8438V101.5H82.8145V102H80.7852V101.5H78.7559V102H76.7266V101.5H74.6973V102H72.667V101.5H70.6377V102H68.6084V101.5H66.5791V102H64.5498V101.5H62.5205V102H60.4912V101.5H58.4619V102H56.4326V101.5H54.4023V102H52.373V101.5H50.3438V102H48.3145V101.5H47.2998C47.0654 101.5 46.8369 101.477 46.6162 101.434L46.5195 101.923C45.9944 101.819 45.5065 101.613 45.0771 101.325L45.3555 100.911C44.9736 100.655 44.6443 100.326 44.3887 99.9443L43.9736 100.222C43.6863 99.7923 43.4797 99.3044 43.376 98.7793L43.8662 98.6836C43.8335 98.5181 43.8122 98.3482 43.8037 98.1748L43.7998 98V97.0713H43.2998V95.2139H43.7998V93.3574H43.2998V91.5H43.7998V89.6426H43.2998V87.7861H43.7998V85.9287H43.2998V84.0713H43.7998V82.2139H43.2998V80.3574H43.7998V78.5H43.2998V76.6426H43.7998V74.7861H43.2998V72.9287H43.7998V72C43.7998 71.7656 43.8226 71.5371 43.8662 71.3164L43.376 71.2197C43.4798 70.6947 43.6862 70.2066 43.9736 69.7773L44.3887 70.0557C44.6443 69.6738 44.9736 69.3445 45.3555 69.0889L45.0771 68.6738C45.5065 68.3864 45.9945 68.18 46.5195 68.0762L46.6162 68.5664C46.8369 68.5228 47.0654 68.5 47.2998 68.5H48.3145V68H50.3438V68.5H52.373V68H54.4023V68.5H56.4326V68H58.4619V68.5H60.4912V68H62.5205V68.5H64.5498V68H66.5791V68.5H68.6084V68H70.6377V68.5H72.667V68H74.6973V68.5H76.7266V68H78.7559V68.5H80.7852V68H82.8145V68.5H84.8438V68H86.873V68.5H88.9023V68H90.9326V68.5H92.9619V68H94.9912V68.5H97.0205V68H99.0498V68.5H101.079V68H103.108V68.5H105.138V68H107.167V68.5H109.197V68H111.227V68.5H113.256V68H115.285Z" stroke="#0056CF" stroke-dasharray="2 2"/>
<path fill-rule="evenodd" clip-rule="evenodd" d="M72.0195 83.0361C73.6515 83.0361 74.7676 84.3801 74.7676 86.0361C74.7676 86.2641 74.7432 86.4082 74.7432 86.4082H70.1719C70.256 87.3801 71.0597 88.1962 72.2715 88.1963C73.0155 88.1963 73.7361 87.8965 74.4561 87.2725V88.3877C73.8081 88.8557 73.0152 89.1318 72.1992 89.1318C70.3395 89.1316 69.1396 87.7999 69.1396 86.084C69.1397 84.344 70.3396 83.0362 72.0195 83.0361ZM71.9961 83.9355C71.0242 83.9355 70.2675 84.7638 70.1953 85.5557H73.7236C73.6395 84.632 72.9557 83.9358 71.9961 83.9355Z" fill="#C1CDD6"/>
<path fill-rule="evenodd" clip-rule="evenodd" d="M89.2109 83.0361C90.8429 83.0361 91.959 84.3801 91.959 86.0361C91.959 86.2641 91.9346 86.4082 91.9346 86.4082H87.3633C87.4474 87.3801 88.2511 88.1962 89.4629 88.1963C90.2069 88.1963 90.9275 87.8965 91.6475 87.2725V88.3877C90.9995 88.8557 90.2066 89.1318 89.3906 89.1318C87.5309 89.1316 86.3311 87.7999 86.3311 86.084C86.3311 84.344 87.531 83.0362 89.2109 83.0361ZM89.1875 83.9355C88.2156 83.9355 87.4589 84.7638 87.3867 85.5557H90.915C90.8309 84.632 90.1471 83.9358 89.1875 83.9355Z" fill="#C1CDD6"/>
<path d="M101.675 83.168H103.307V84.0918H101.675V87.1758C101.675 87.8597 101.975 88.1718 102.646 88.1719C102.874 88.1719 103.127 88.1121 103.307 87.9922V88.9521C103.103 89.0601 102.803 89.1318 102.407 89.1318C101.303 89.1318 100.643 88.4481 100.643 87.3203V84.0918H99.6348V83.96L101.639 81.7998H101.675V83.168Z" fill="#C1CDD6"/>
<path d="M64.9609 81.584H61.3613V84.1523H64.709V85.124H61.3613V88.0156H64.9854V89H60.293V80.5996H64.9609V81.584Z" fill="#C1CDD6"/>
<path d="M67.6387 89H66.6064V80.5996H67.6387V89Z" fill="#C1CDD6"/>
<path d="M82.7686 83.0361C84.1123 83.0363 84.916 83.9845 84.916 85.4844V89H83.8838V85.6641C83.8838 84.6322 83.4402 83.9845 82.5645 83.9844C81.6645 83.9844 81.0762 84.7524 81.0762 85.9404V89H80.0439V85.6885C80.0439 84.6445 79.5876 83.9844 78.7236 83.9844C77.8239 83.9846 77.2363 84.7526 77.2363 85.9404V89H76.2041V83.168H77.2236V84.0078C77.5476 83.4078 78.1364 83.0361 78.9404 83.0361C79.8042 83.0362 80.4284 83.4679 80.7764 84.1758C81.0644 83.6838 81.6648 83.0361 82.7686 83.0361Z" fill="#C1CDD6"/>
<path d="M96.2871 83.0361C97.7751 83.0361 98.6396 84.0321 98.6396 85.5801V89H97.6074V85.7002C97.6074 84.6562 97.0673 83.9961 96.0713 83.9961C95.0754 83.9962 94.4277 84.7642 94.4277 85.9521V89H93.3955V83.168H94.4277V84.0078C94.7877 83.432 95.4114 83.0363 96.2871 83.0361Z" fill="#C1CDD6"/>
<rect x="78.4004" y="108" width="77" height="34" rx="4" fill="#0056CF"/>
<path fill-rule="evenodd" clip-rule="evenodd" d="M107.207 123.036C108.839 123.036 109.955 124.38 109.955 126.036C109.955 126.264 109.931 126.408 109.931 126.408H105.359C105.443 127.38 106.247 128.196 107.459 128.196C108.203 128.196 108.924 127.896 109.644 127.272V128.388C108.996 128.856 108.203 129.132 107.387 129.132C105.527 129.132 104.327 127.8 104.327 126.084C104.327 124.344 105.527 123.036 107.207 123.036ZM107.184 123.936C106.212 123.936 105.455 124.764 105.383 125.556H108.911C108.827 124.632 108.143 123.936 107.184 123.936Z" fill="white"/>
<path fill-rule="evenodd" clip-rule="evenodd" d="M124.398 123.036C126.03 123.036 127.146 124.38 127.146 126.036C127.146 126.264 127.122 126.408 127.122 126.408H122.551C122.635 127.38 123.439 128.196 124.65 128.196C125.394 128.196 126.115 127.896 126.835 127.272V128.388C126.187 128.856 125.394 129.132 124.578 129.132C122.718 129.132 121.519 127.8 121.519 126.084C121.519 124.344 122.719 123.036 124.398 123.036ZM124.375 123.936C123.403 123.936 122.646 124.764 122.574 125.556H126.103C126.018 124.632 125.335 123.936 124.375 123.936Z" fill="white"/>
<path d="M136.862 123.168H138.494V124.092H136.862V127.176C136.862 127.86 137.162 128.172 137.834 128.172C138.062 128.172 138.314 128.112 138.494 127.992V128.952C138.29 129.06 137.99 129.132 137.595 129.132C136.491 129.132 135.83 128.448 135.83 127.32V124.092H134.822V123.96L136.826 121.8H136.862V123.168Z" fill="white"/>
<path d="M100.148 121.584H96.5488V124.152H99.8965V125.124H96.5488V128.016H100.173V129H95.4805V120.6H100.148V121.584Z" fill="white"/>
<path d="M102.826 129H101.794V120.6H102.826V129Z" fill="white"/>
<path d="M117.956 123.036C119.3 123.036 120.104 123.985 120.104 125.484V129H119.071V125.664C119.071 124.632 118.628 123.985 117.752 123.984C116.852 123.984 116.264 124.752 116.264 125.94V129H115.231V125.688C115.231 124.644 114.775 123.984 113.911 123.984C113.011 123.985 112.424 124.753 112.424 125.94V129H111.392V123.168H112.411V124.008C112.735 123.408 113.324 123.036 114.128 123.036C114.992 123.036 115.616 123.468 115.964 124.176C116.252 123.684 116.852 123.036 117.956 123.036Z" fill="white"/>
<path d="M131.475 123.036C132.963 123.036 133.827 124.032 133.827 125.58V129H132.795V125.7C132.795 124.656 132.255 123.996 131.259 123.996C130.263 123.996 129.615 124.764 129.615 125.952V129H128.583V123.168H129.615V124.008C129.975 123.432 130.599 123.036 131.475 123.036Z" fill="white"/>
</g>
<defs>
<clipPath id="clip0_1663_178791">
<rect width="163.2" height="163.2" fill="white" transform="translate(0.200195)"/>
</clipPath>
</defs>
</svg>
