<svg width="164" height="164" viewBox="0 0 164 164" fill="none" xmlns="http://www.w3.org/2000/svg">
<g clip-path="url(#clip0_1663_178791)">
<rect x="-0.200195" width="163.2" height="163.2" fill="white"/>
<path fill-rule="evenodd" clip-rule="evenodd" d="M38.4688 15.0361C40.1247 15.0361 41.3965 16.356 41.3965 18.084C41.3965 19.8 40.1247 21.1318 38.4688 21.1318C37.6168 21.1318 36.8363 20.76 36.4043 20.124V23.4961H35.3848V15.168H36.4043V16.0918C36.8243 15.4558 37.6168 15.0361 38.4688 15.0361ZM38.3486 15.9844C37.2087 15.9844 36.3447 16.908 36.3447 18.084C36.3447 19.2599 37.2087 20.1835 38.3486 20.1836C39.4886 20.1836 40.3525 19.26 40.3525 18.084C40.3525 16.908 39.4886 15.9844 38.3486 15.9844Z" fill="#687887"/>
<path fill-rule="evenodd" clip-rule="evenodd" d="M21.7197 15.0361C23.3517 15.0361 24.4678 16.3801 24.4678 18.0361C24.4678 18.2641 24.4434 18.4082 24.4434 18.4082H19.8721C19.9562 19.3801 20.7599 20.1962 21.9717 20.1963C22.7157 20.1963 23.4362 19.8965 24.1562 19.2725V20.3877C23.5082 20.8557 22.7154 21.1318 21.8994 21.1318C20.0397 21.1316 18.8398 19.7999 18.8398 18.084C18.8399 16.344 20.0398 15.0362 21.7197 15.0361ZM21.6963 15.9355C20.7244 15.9355 19.9677 16.7638 19.8955 17.5557H23.4238C23.3397 16.632 22.6559 15.9358 21.6963 15.9355Z" fill="#687887"/>
<path fill-rule="evenodd" clip-rule="evenodd" d="M45.583 15.0361C47.335 15.0361 48.6308 16.392 48.6309 18.084C48.6309 19.776 47.335 21.1318 45.583 21.1318C43.8311 21.1318 42.5352 19.7759 42.5352 18.084C42.5352 16.392 43.8311 15.0362 45.583 15.0361ZM45.583 15.9844C44.4431 15.9845 43.5791 16.92 43.5791 18.084C43.5791 19.2479 44.4431 20.1835 45.583 20.1836C46.723 20.1836 47.5869 19.248 47.5869 18.084C47.5869 16.92 46.723 15.9844 45.583 15.9844Z" fill="#687887"/>
<path d="M55.8984 15.168H57.5303V16.0918H55.8984V19.1758C55.8984 19.8597 56.1983 20.1718 56.8701 20.1719C57.098 20.1719 57.3503 20.1121 57.5303 19.9922V20.9521C57.3264 21.0601 57.0265 21.1318 56.6309 21.1318C55.527 21.1318 54.8663 20.4481 54.8662 19.3203V16.0918H53.8584V15.96L55.8623 13.7998H55.8984V15.168Z" fill="#687887"/>
<path d="M11.5918 19.2119L14.0996 12.5996H15.2031L11.9395 21H11.2197L7.94336 12.5996H9.07129L11.5918 19.2119Z" fill="#687887"/>
<path d="M17.3389 21H16.3066V15.168H17.3389V21Z" fill="#687887"/>
<path d="M27.7529 19.5361L29.3008 15.168H30.0449L31.5928 19.5361L33.1172 15.168H34.1611L31.9893 21H31.1973L29.6611 16.6797L28.125 21H27.333L25.1611 15.168H26.2295L27.7529 19.5361Z" fill="#687887"/>
<path d="M52.9229 15.0723C53.0632 15.0723 53.1696 15.0946 53.1748 15.0957V16.1279C53.1702 16.1269 53.0628 16.1035 52.8867 16.1035C51.807 16.1036 51.1466 16.9679 51.1465 18.2275V21H50.127V15.168H51.1348V16.2002C51.3988 15.5282 52.1549 15.0723 52.9229 15.0723Z" fill="#687887"/>
<path d="M16.8232 12.7441C17.2071 12.7443 17.5186 13.0565 17.5186 13.4404C17.5183 13.8241 17.207 14.1356 16.8232 14.1357C16.4394 14.1357 16.1272 13.8242 16.127 13.4404C16.127 13.0564 16.4392 12.7441 16.8232 12.7441Z" fill="#687887"/>
<rect x="8.09961" y="34" width="147" height="88" fill="#F3F7FB"/>
<path fill-rule="evenodd" clip-rule="evenodd" d="M25.4082 49.0361C26.9081 49.0361 27.7723 49.8639 27.7725 51.2197V55H26.8008V54.2324C26.3448 54.8203 25.6361 55.1318 24.8682 55.1318C23.8363 55.1317 23.1045 54.4238 23.1045 53.4639C23.1045 52.4199 23.7649 51.7961 25.0488 51.5801L26.7646 51.292V51.1484C26.7646 50.4165 26.2486 49.9718 25.3848 49.9717C24.5928 49.9717 24.0043 50.2957 23.4043 50.8477V49.7676C23.9322 49.3357 24.5684 49.0362 25.4082 49.0361ZM25.2168 52.4561C24.5208 52.5881 24.1367 52.9003 24.1367 53.4043C24.1369 53.8961 24.5207 54.2197 25.0605 54.2197C26.0565 54.2197 26.7764 53.5719 26.7764 52.6719V52.1797L25.2168 52.4561Z" fill="#687887"/>
<path fill-rule="evenodd" clip-rule="evenodd" d="M36.1416 49.0361C37.7736 49.0361 38.8896 50.3801 38.8896 52.0361C38.8896 52.2641 38.8652 52.4082 38.8652 52.4082H34.2939C34.378 53.3801 35.1817 54.1962 36.3936 54.1963C37.1376 54.1963 37.8581 53.8965 38.5781 53.2725V54.3877C37.9301 54.8557 37.1373 55.1318 36.3213 55.1318C34.4615 55.1316 33.2617 53.7999 33.2617 52.084C33.2617 50.344 34.4617 49.0362 36.1416 49.0361ZM36.1182 49.9355C35.1463 49.9355 34.3895 50.7638 34.3174 51.5557H37.8457C37.7616 50.632 37.0778 49.9358 36.1182 49.9355Z" fill="#687887"/>
<path d="M48.6055 49.168H50.2373V50.0918H48.6055V53.1758C48.6055 53.8597 48.9053 54.1718 49.5771 54.1719C49.8051 54.1719 50.0573 54.1121 50.2373 53.9922V54.9521C50.0334 55.0601 49.7336 55.1318 49.3379 55.1318C48.234 55.1318 47.5734 54.4481 47.5732 53.3203V50.0918H46.5654V49.96L48.5693 47.7998H48.6055V49.168Z" fill="#687887"/>
<path fill-rule="evenodd" clip-rule="evenodd" d="M19.4834 46.5996C21.0794 46.5996 22.1963 47.4884 22.1963 49.0244C22.1961 50.5602 21.0793 51.4355 19.4834 51.4355H17.9482V55H16.8799V46.5996H19.4834ZM17.9482 50.4521H19.4834C20.4433 50.4521 21.116 49.9242 21.1162 49.0244C21.1162 48.1004 20.4434 47.584 19.4834 47.584H17.9482V50.4521Z" fill="#687887"/>
<path d="M32.3877 49.0723C32.5281 49.0723 32.6344 49.0946 32.6396 49.0957V50.1279C32.6351 50.1269 32.5276 50.1035 32.3516 50.1035C31.2718 50.1036 30.6115 50.9679 30.6113 52.2275V55H29.5918V49.168H30.5996V50.2002C30.8636 49.5282 31.6197 49.0723 32.3877 49.0723Z" fill="#687887"/>
<path d="M43.2178 49.0361C44.7058 49.0361 45.5703 50.0321 45.5703 51.5801V55H44.5381V51.7002C44.5381 50.6562 43.998 49.9961 43.002 49.9961C42.0061 49.9962 41.3584 50.7642 41.3584 51.9521V55H40.3262V49.168H41.3584V50.0078C41.7184 49.432 42.3421 49.0363 43.2178 49.0361Z" fill="#687887"/>
<path d="M56.5146 122.009V105.371H57.5146V122.009C57.5149 123.942 59.0818 125.509 61.0146 125.509H75.2656L72.9375 123.18C72.7422 122.984 72.7422 122.668 72.9375 122.473C73.1328 122.278 73.4494 122.277 73.6445 122.473L76.8262 125.655C77.0212 125.851 77.0214 126.167 76.8262 126.362L73.6445 129.544C73.4493 129.739 73.1328 129.739 72.9375 129.544C72.7422 129.349 72.7422 129.032 72.9375 128.837L75.2656 126.509H61.0146C58.5295 126.509 56.5149 124.494 56.5146 122.009Z" fill="black"/>
<path d="M46.5127 100.943C46.7016 100.981 46.898 101 47.0996 101H48.1143V102H47.0996C46.8325 102 46.5718 101.973 46.3193 101.923L46.5127 100.943Z" fill="#0056CF"/>
<path d="M52.1729 102H50.1436V101H52.1729V102Z" fill="#0056CF"/>
<path d="M56.2324 102H54.2021V101H56.2324V102Z" fill="#0056CF"/>
<path d="M60.291 102H58.2617V101H60.291V102Z" fill="#0056CF"/>
<path d="M64.3496 102H62.3203V101H64.3496V102Z" fill="#0056CF"/>
<path d="M68.4082 102H66.3789V101H68.4082V102Z" fill="#0056CF"/>
<path d="M72.4668 102H70.4375V101H72.4668V102Z" fill="#0056CF"/>
<path d="M76.5264 102H74.4971V101H76.5264V102Z" fill="#0056CF"/>
<path d="M80.585 102H78.5557V101H80.585V102Z" fill="#0056CF"/>
<path d="M84.6436 102H82.6143V101H84.6436V102Z" fill="#0056CF"/>
<path d="M88.7021 102H86.6729V101H88.7021V102Z" fill="#0056CF"/>
<path d="M92.7617 102H90.7324V101H92.7617V102Z" fill="#0056CF"/>
<path d="M96.8203 102H94.791V101H96.8203V102Z" fill="#0056CF"/>
<path d="M100.879 102H98.8496V101H100.879V102Z" fill="#0056CF"/>
<path d="M104.938 102H102.908V101H104.938V102Z" fill="#0056CF"/>
<path d="M108.997 102H106.967V101H108.997V102Z" fill="#0056CF"/>
<path d="M113.056 102H111.026V101H113.056V102Z" fill="#0056CF"/>
<path d="M116.783 101.434L116.879 101.923C116.627 101.973 116.366 102 116.1 102H115.085V101H116.1C116.301 101 116.498 100.981 116.687 100.943L116.783 101.434Z" fill="#0056CF"/>
<path d="M44.6045 99.666C44.8238 99.9936 45.106 100.276 45.4336 100.495L45.1543 100.91L45.1553 100.911L44.877 101.325C44.4408 101.033 44.0654 100.658 43.7734 100.222L44.6045 99.666Z" fill="#0056CF"/>
<path d="M119.01 99.9443L119.425 100.222C119.133 100.658 118.758 101.033 118.321 101.325L118.162 101.087L118.044 100.911L117.766 100.495C118.093 100.276 118.375 99.9936 118.595 99.666L119.01 99.9443Z" fill="#0056CF"/>
<path d="M44.0996 98C44.0996 98.2016 44.1189 98.398 44.1562 98.5869L43.666 98.6836L43.1758 98.7793C43.126 98.5272 43.0996 98.2667 43.0996 98V97.0713H44.0996V98Z" fill="#0056CF"/>
<path d="M120.1 98C120.1 98.2668 120.072 98.5272 120.022 98.7793L119.533 98.6836L119.043 98.5869C119.08 98.398 119.1 98.2016 119.1 98V97.0713H120.1V98Z" fill="#0056CF"/>
<path d="M44.0996 95.2139H43.0996V93.3574H44.0996V95.2139Z" fill="#0056CF"/>
<path d="M120.1 95.2139H119.1V93.3574H120.1V95.2139Z" fill="#0056CF"/>
<path d="M44.0996 91.5H43.0996V89.6426H44.0996V91.5Z" fill="#0056CF"/>
<path d="M120.1 91.5H119.1V89.6426H120.1V91.5Z" fill="#0056CF"/>
<path d="M44.0996 87.7861H43.0996V85.9287H44.0996V87.7861Z" fill="#0056CF"/>
<path d="M120.1 87.7861H119.1V85.9287H120.1V87.7861Z" fill="#0056CF"/>
<path d="M44.0996 84.0713H43.0996V82.2139H44.0996V84.0713Z" fill="#0056CF"/>
<path d="M120.1 84.0713H119.1V82.2139H120.1V84.0713Z" fill="#0056CF"/>
<path d="M44.0996 80.3574H43.0996V78.5H44.0996V80.3574Z" fill="#0056CF"/>
<path d="M120.1 80.3574H119.1V78.5H120.1V80.3574Z" fill="#0056CF"/>
<path d="M44.0996 76.6426H43.0996V74.7861H44.0996V76.6426Z" fill="#0056CF"/>
<path d="M120.1 76.6426H119.1V74.7861H120.1V76.6426Z" fill="#0056CF"/>
<path d="M44.1562 71.4131C44.1189 71.602 44.0996 71.7984 44.0996 72V72.9287H43.0996V72C43.0996 71.7928 43.1151 71.5893 43.1455 71.3906L43.1758 71.2197L44.1562 71.4131Z" fill="#0056CF"/>
<path d="M120.022 71.2197C120.072 71.4722 120.1 71.7329 120.1 72V72.9287H119.1V72C119.1 71.7984 119.08 71.602 119.043 71.4131L120.022 71.2197Z" fill="#0056CF"/>
<path d="M45.0801 68.9775L45.4336 69.5049C45.106 69.7242 44.8238 70.0064 44.6045 70.334L43.9785 69.915L43.7734 69.7773C44.0654 69.3413 44.4409 68.9658 44.877 68.6738L45.0801 68.9775Z" fill="#0056CF"/>
<path d="M118.321 68.6738C118.757 68.9658 119.133 69.3412 119.425 69.7773L119.221 69.915L118.595 70.334C118.375 70.0064 118.093 69.7242 117.766 69.5049L118.119 68.9775L118.321 68.6738Z" fill="#0056CF"/>
<path d="M48.1143 69H47.0996C46.898 69 46.7016 69.0193 46.5127 69.0566L46.3193 68.0762C46.5717 68.0263 46.8326 68 47.0996 68H48.1143V69Z" fill="#0056CF"/>
<path d="M116.1 68C116.366 68 116.627 68.0264 116.879 68.0762L116.687 69.0566C116.498 69.0193 116.301 69 116.1 69H115.085V68H116.1Z" fill="#0056CF"/>
<path d="M52.1729 69H50.1436V68H52.1729V69Z" fill="#0056CF"/>
<path d="M56.2324 69H54.2021V68H56.2324V69Z" fill="#0056CF"/>
<path d="M60.291 69H58.2617V68H60.291V69Z" fill="#0056CF"/>
<path d="M64.3496 69H62.3203V68H64.3496V69Z" fill="#0056CF"/>
<path d="M68.4082 69H66.3789V68H68.4082V69Z" fill="#0056CF"/>
<path d="M72.4668 69H70.4375V68H72.4668V69Z" fill="#0056CF"/>
<path d="M76.5264 69H74.4971V68H76.5264V69Z" fill="#0056CF"/>
<path d="M80.585 69H78.5557V68H80.585V69Z" fill="#0056CF"/>
<path d="M84.6436 69H82.6143V68H84.6436V69Z" fill="#0056CF"/>
<path d="M88.7021 69H86.6729V68H88.7021V69Z" fill="#0056CF"/>
<path d="M92.7617 69H90.7324V68H92.7617V69Z" fill="#0056CF"/>
<path d="M96.8203 69H94.791V68H96.8203V69Z" fill="#0056CF"/>
<path d="M100.879 69H98.8496V68H100.879V69Z" fill="#0056CF"/>
<path d="M104.938 69H102.908V68H104.938V69Z" fill="#0056CF"/>
<path d="M108.997 69H106.967V68H108.997V69Z" fill="#0056CF"/>
<path d="M113.056 69H111.026V68H113.056V69Z" fill="#0056CF"/>
<path fill-rule="evenodd" clip-rule="evenodd" d="M71.8193 83.0361C73.4513 83.0361 74.5674 84.3801 74.5674 86.0361C74.5674 86.2641 74.543 86.4082 74.543 86.4082H69.9717C70.0558 87.3801 70.8595 88.1962 72.0713 88.1963C72.8153 88.1963 73.5359 87.8965 74.2559 87.2725V88.3877C73.6079 88.8557 72.815 89.1318 71.999 89.1318C70.1393 89.1316 68.9395 87.7999 68.9395 86.084C68.9395 84.344 70.1394 83.0362 71.8193 83.0361ZM71.7959 83.9355C70.824 83.9355 70.0673 84.7638 69.9951 85.5557H73.5234C73.4393 84.632 72.7555 83.9358 71.7959 83.9355Z" fill="#C1CDD6"/>
<path fill-rule="evenodd" clip-rule="evenodd" d="M89.0107 83.0361C90.6427 83.0361 91.7588 84.3801 91.7588 86.0361C91.7588 86.2641 91.7344 86.4082 91.7344 86.4082H87.1631C87.2472 87.3801 88.0509 88.1962 89.2627 88.1963C90.0067 88.1963 90.7273 87.8965 91.4473 87.2725V88.3877C90.7993 88.8557 90.0064 89.1318 89.1904 89.1318C87.3307 89.1316 86.1309 87.7999 86.1309 86.084C86.1309 84.344 87.3308 83.0362 89.0107 83.0361ZM88.9873 83.9355C88.0154 83.9355 87.2587 84.7638 87.1865 85.5557H90.7148C90.6307 84.632 89.947 83.9358 88.9873 83.9355Z" fill="#C1CDD6"/>
<path d="M101.475 83.168H103.106V84.0918H101.475V87.1758C101.475 87.8597 101.774 88.1718 102.446 88.1719C102.674 88.1719 102.926 88.1121 103.106 87.9922V88.9521C102.903 89.0601 102.603 89.1318 102.207 89.1318C101.103 89.1318 100.443 88.4481 100.442 87.3203V84.0918H99.4346V83.96L101.438 81.7998H101.475V83.168Z" fill="#C1CDD6"/>
<path d="M64.7607 81.584H61.1611V84.1523H64.5088V85.124H61.1611V88.0156H64.7852V89H60.0928V80.5996H64.7607V81.584Z" fill="#C1CDD6"/>
<path d="M67.4385 89H66.4062V80.5996H67.4385V89Z" fill="#C1CDD6"/>
<path d="M82.5684 83.0361C83.9121 83.0363 84.7158 83.9845 84.7158 85.4844V89H83.6836V85.6641C83.6836 84.6322 83.24 83.9845 82.3643 83.9844C81.4643 83.9844 80.876 84.7524 80.876 85.9404V89H79.8438V85.6885C79.8438 84.6445 79.3874 83.9844 78.5234 83.9844C77.6237 83.9846 77.0361 84.7526 77.0361 85.9404V89H76.0039V83.168H77.0234V84.0078C77.3474 83.4078 77.9362 83.0361 78.7402 83.0361C79.604 83.0362 80.2282 83.4679 80.5762 84.1758C80.8642 83.6838 81.4646 83.0361 82.5684 83.0361Z" fill="#C1CDD6"/>
<path d="M96.0869 83.0361C97.5749 83.0361 98.4395 84.0321 98.4395 85.5801V89H97.4072V85.7002C97.4072 84.6562 96.8671 83.9961 95.8711 83.9961C94.8752 83.9962 94.2275 84.7642 94.2275 85.9521V89H93.1953V83.168H94.2275V84.0078C94.5875 83.432 95.2112 83.0363 96.0869 83.0361Z" fill="#C1CDD6"/>
<rect x="78.2002" y="108" width="77" height="34" rx="4" fill="#0056CF"/>
<path fill-rule="evenodd" clip-rule="evenodd" d="M107.007 123.036C108.639 123.036 109.755 124.38 109.755 126.036C109.755 126.264 109.73 126.408 109.73 126.408H105.159C105.243 127.38 106.047 128.196 107.259 128.196C108.003 128.196 108.723 127.896 109.443 127.272V128.388C108.795 128.856 108.003 129.132 107.187 129.132C105.327 129.132 104.127 127.8 104.127 126.084C104.127 124.344 105.327 123.036 107.007 123.036ZM106.983 123.936C106.012 123.936 105.255 124.764 105.183 125.556H108.711C108.627 124.632 107.943 123.936 106.983 123.936Z" fill="white"/>
<path fill-rule="evenodd" clip-rule="evenodd" d="M124.198 123.036C125.83 123.036 126.946 124.38 126.946 126.036C126.946 126.264 126.922 126.408 126.922 126.408H122.351C122.435 127.38 123.238 128.196 124.45 128.196C125.194 128.196 125.915 127.896 126.635 127.272V128.388C125.987 128.856 125.194 129.132 124.378 129.132C122.518 129.132 121.318 127.8 121.318 126.084C121.318 124.344 122.518 123.036 124.198 123.036ZM124.175 123.936C123.203 123.936 122.446 124.764 122.374 125.556H125.902C125.818 124.632 125.134 123.936 124.175 123.936Z" fill="white"/>
<path d="M136.662 123.168H138.294V124.092H136.662V127.176C136.662 127.86 136.962 128.172 137.634 128.172C137.862 128.172 138.114 128.112 138.294 127.992V128.952C138.09 129.06 137.79 129.132 137.395 129.132C136.291 129.132 135.63 128.448 135.63 127.32V124.092H134.622V123.96L136.626 121.8H136.662V123.168Z" fill="white"/>
<path d="M99.9482 121.584H96.3486V124.152H99.6963V125.124H96.3486V128.016H99.9727V129H95.2803V120.6H99.9482V121.584Z" fill="white"/>
<path d="M102.626 129H101.594V120.6H102.626V129Z" fill="white"/>
<path d="M117.756 123.036C119.1 123.036 119.903 123.985 119.903 125.484V129H118.871V125.664C118.871 124.632 118.428 123.985 117.552 123.984C116.652 123.984 116.063 124.752 116.063 125.94V129H115.031V125.688C115.031 124.644 114.575 123.984 113.711 123.984C112.811 123.985 112.224 124.753 112.224 125.94V129H111.191V123.168H112.211V124.008C112.535 123.408 113.124 123.036 113.928 123.036C114.792 123.036 115.416 123.468 115.764 124.176C116.052 123.684 116.652 123.036 117.756 123.036Z" fill="white"/>
<path d="M131.274 123.036C132.762 123.036 133.627 124.032 133.627 125.58V129H132.595V125.7C132.595 124.656 132.055 123.996 131.059 123.996C130.063 123.996 129.415 124.764 129.415 125.952V129H128.383V123.168H129.415V124.008C129.775 123.432 130.399 123.036 131.274 123.036Z" fill="white"/>
</g>
<defs>
<clipPath id="clip0_1663_178791">
<rect width="163.2" height="163.2" fill="white"/>
</clipPath>
</defs>
</svg>
