<svg width="164" height="164" viewBox="0 0 164 164" fill="none" xmlns="http://www.w3.org/2000/svg">
<g clip-path="url(#clip0_1663_178783)">
<rect width="163.2" height="163.2" fill="white"/>
<path fill-rule="evenodd" clip-rule="evenodd" d="M38.6689 15.0361C40.3249 15.0361 41.5967 16.356 41.5967 18.084C41.5967 19.8 40.3249 21.1318 38.6689 21.1318C37.817 21.1318 37.0365 20.76 36.6045 20.124V23.4961H35.585V15.168H36.6045V16.0918C37.0245 15.4558 37.817 15.0361 38.6689 15.0361ZM38.5488 15.9844C37.4089 15.9844 36.5449 16.908 36.5449 18.084C36.5449 19.2599 37.4089 20.1835 38.5488 20.1836C39.6888 20.1836 40.5527 19.26 40.5527 18.084C40.5527 16.908 39.6888 15.9844 38.5488 15.9844Z" fill="#687887"/>
<path fill-rule="evenodd" clip-rule="evenodd" d="M21.9199 15.0361C23.5519 15.0361 24.668 16.3801 24.668 18.0361C24.668 18.2641 24.6436 18.4082 24.6436 18.4082H20.0723C20.1564 19.3801 20.9601 20.1962 22.1719 20.1963C22.9159 20.1963 23.6364 19.8965 24.3564 19.2725V20.3877C23.7084 20.8557 22.9156 21.1318 22.0996 21.1318C20.2399 21.1316 19.04 19.7999 19.04 18.084C19.0401 16.344 20.24 15.0362 21.9199 15.0361ZM21.8965 15.9355C20.9246 15.9355 20.1679 16.7638 20.0957 17.5557H23.624C23.5399 16.632 22.8561 15.9358 21.8965 15.9355Z" fill="#687887"/>
<path fill-rule="evenodd" clip-rule="evenodd" d="M45.7832 15.0361C47.5352 15.0361 48.831 16.392 48.8311 18.084C48.8311 19.776 47.5352 21.1318 45.7832 21.1318C44.0313 21.1318 42.7354 19.7759 42.7354 18.084C42.7354 16.392 44.0313 15.0362 45.7832 15.0361ZM45.7832 15.9844C44.6433 15.9845 43.7793 16.92 43.7793 18.084C43.7793 19.2479 44.6433 20.1835 45.7832 20.1836C46.9232 20.1836 47.7871 19.248 47.7871 18.084C47.7871 16.92 46.9232 15.9844 45.7832 15.9844Z" fill="#687887"/>
<path d="M56.0986 15.168H57.7305V16.0918H56.0986V19.1758C56.0986 19.8597 56.3985 20.1718 57.0703 20.1719C57.2982 20.1719 57.5505 20.1121 57.7305 19.9922V20.9521C57.5266 21.0601 57.2267 21.1318 56.8311 21.1318C55.7272 21.1318 55.0665 20.4481 55.0664 19.3203V16.0918H54.0586V15.96L56.0625 13.7998H56.0986V15.168Z" fill="#687887"/>
<path d="M11.792 19.2119L14.2998 12.5996H15.4033L12.1396 21H11.4199L8.14355 12.5996H9.27148L11.792 19.2119Z" fill="#687887"/>
<path d="M17.5391 21H16.5068V15.168H17.5391V21Z" fill="#687887"/>
<path d="M27.9531 19.5361L29.501 15.168H30.2451L31.793 19.5361L33.3174 15.168H34.3613L32.1895 21H31.3975L29.8613 16.6797L28.3252 21H27.5332L25.3613 15.168H26.4297L27.9531 19.5361Z" fill="#687887"/>
<path d="M53.123 15.0723C53.2634 15.0723 53.3698 15.0946 53.375 15.0957V16.1279C53.3704 16.1269 53.263 16.1035 53.0869 16.1035C52.0072 16.1036 51.3468 16.9679 51.3467 18.2275V21H50.3271V15.168H51.335V16.2002C51.5989 15.5282 52.3551 15.0723 53.123 15.0723Z" fill="#687887"/>
<path d="M17.0234 12.7441C17.4073 12.7443 17.7188 13.0565 17.7188 13.4404C17.7185 13.8241 17.4072 14.1356 17.0234 14.1357C16.6396 14.1357 16.3274 13.8242 16.3271 13.4404C16.3271 13.0564 16.6394 12.7441 17.0234 12.7441Z" fill="#687887"/>
<rect x="8.09961" y="34" width="147" height="88" fill="#F3F7FB"/>
<rect x="41.5" y="68" width="77" height="34" rx="4" fill="#0056CF"/>
<path fill-rule="evenodd" clip-rule="evenodd" d="M70.3066 83.0361C71.9386 83.0361 73.0547 84.3801 73.0547 86.0361C73.0547 86.2641 73.0303 86.4082 73.0303 86.4082H68.459C68.5431 87.3801 69.3468 88.1962 70.5586 88.1963C71.3026 88.1963 72.0232 87.8965 72.7432 87.2725V88.3877C72.0952 88.8557 71.3023 89.1318 70.4863 89.1318C68.6266 89.1316 67.4268 87.7999 67.4268 86.084C67.4268 84.344 68.6267 83.0362 70.3066 83.0361ZM70.2832 83.9355C69.3113 83.9355 68.5546 84.7638 68.4824 85.5557H72.0107C71.9266 84.632 71.2428 83.9358 70.2832 83.9355Z" fill="white"/>
<path fill-rule="evenodd" clip-rule="evenodd" d="M87.498 83.0361C89.13 83.0361 90.2461 84.3801 90.2461 86.0361C90.2461 86.2641 90.2217 86.4082 90.2217 86.4082H85.6504C85.7345 87.3801 86.5382 88.1962 87.75 88.1963C88.494 88.1963 89.2146 87.8965 89.9346 87.2725V88.3877C89.2866 88.8557 88.4937 89.1318 87.6777 89.1318C85.818 89.1316 84.6182 87.7999 84.6182 86.084C84.6182 84.344 85.8181 83.0362 87.498 83.0361ZM87.4746 83.9355C86.5027 83.9355 85.746 84.7638 85.6738 85.5557H89.2021C89.118 84.632 88.4343 83.9358 87.4746 83.9355Z" fill="white"/>
<path d="M99.9619 83.168H101.594V84.0918H99.9619V87.1758C99.9619 87.8597 100.262 88.1718 100.934 88.1719C101.162 88.1719 101.414 88.1121 101.594 87.9922V88.9521C101.39 89.0601 101.09 89.1318 100.694 89.1318C99.5904 89.1318 98.9298 88.4481 98.9297 87.3203V84.0918H97.9219V83.96L99.9258 81.7998H99.9619V83.168Z" fill="white"/>
<path d="M63.248 81.584H59.6484V84.1523H62.9961V85.124H59.6484V88.0156H63.2725V89H58.5801V80.5996H63.248V81.584Z" fill="white"/>
<path d="M65.9258 89H64.8936V80.5996H65.9258V89Z" fill="white"/>
<path d="M81.0557 83.0361C82.3994 83.0363 83.2031 83.9845 83.2031 85.4844V89H82.1709V85.6641C82.1709 84.6322 81.7273 83.9845 80.8516 83.9844C79.9516 83.9844 79.3633 84.7524 79.3633 85.9404V89H78.3311V85.6885C78.3311 84.6445 77.8747 83.9844 77.0107 83.9844C76.111 83.9846 75.5234 84.7526 75.5234 85.9404V89H74.4912V83.168H75.5107V84.0078C75.8347 83.4078 76.4235 83.0361 77.2275 83.0361C78.0913 83.0362 78.7155 83.4679 79.0635 84.1758C79.3515 83.6838 79.9519 83.0361 81.0557 83.0361Z" fill="white"/>
<path d="M94.5742 83.0361C96.0622 83.0361 96.9268 84.0321 96.9268 85.5801V89H95.8945V85.7002C95.8945 84.6562 95.3544 83.9961 94.3584 83.9961C93.3625 83.9962 92.7148 84.7642 92.7148 85.9521V89H91.6826V83.168H92.7148V84.0078C93.0748 83.432 93.6986 83.0363 94.5742 83.0361Z" fill="white"/>
<path fill-rule="evenodd" clip-rule="evenodd" d="M25.6084 49.0361C27.1083 49.0361 27.9725 49.8639 27.9727 51.2197V55H27.001V54.2324C26.545 54.8203 25.8363 55.1318 25.0684 55.1318C24.0365 55.1317 23.3047 54.4238 23.3047 53.4639C23.3047 52.4199 23.9651 51.7961 25.249 51.5801L26.9648 51.292V51.1484C26.9648 50.4165 26.4488 49.9718 25.585 49.9717C24.793 49.9717 24.2045 50.2957 23.6045 50.8477V49.7676C24.1324 49.3357 24.7686 49.0362 25.6084 49.0361ZM25.417 52.4561C24.721 52.5881 24.3369 52.9003 24.3369 53.4043C24.3371 53.8961 24.7209 54.2197 25.2607 54.2197C26.2567 54.2197 26.9766 53.5719 26.9766 52.6719V52.1797L25.417 52.4561Z" fill="#687887"/>
<path fill-rule="evenodd" clip-rule="evenodd" d="M36.3418 49.0361C37.9738 49.0361 39.0898 50.3801 39.0898 52.0361C39.0898 52.2641 39.0654 52.4082 39.0654 52.4082H34.4941C34.5782 53.3801 35.3819 54.1962 36.5938 54.1963C37.3378 54.1963 38.0583 53.8965 38.7783 53.2725V54.3877C38.1303 54.8557 37.3375 55.1318 36.5215 55.1318C34.6617 55.1316 33.4619 53.7999 33.4619 52.084C33.4619 50.344 34.6619 49.0362 36.3418 49.0361ZM36.3184 49.9355C35.3465 49.9355 34.5897 50.7638 34.5176 51.5557H38.0459C37.9618 50.632 37.278 49.9358 36.3184 49.9355Z" fill="#687887"/>
<path d="M48.8057 49.168H50.4375V50.0918H48.8057V53.1758C48.8057 53.8597 49.1055 54.1718 49.7773 54.1719C50.0053 54.1719 50.2575 54.1121 50.4375 53.9922V54.9521C50.2336 55.0601 49.9338 55.1318 49.5381 55.1318C48.4342 55.1318 47.7736 54.4481 47.7734 53.3203V50.0918H46.7656V49.96L48.7695 47.7998H48.8057V49.168Z" fill="#687887"/>
<path fill-rule="evenodd" clip-rule="evenodd" d="M19.6836 46.5996C21.2796 46.5996 22.3965 47.4884 22.3965 49.0244C22.3963 50.5602 21.2795 51.4355 19.6836 51.4355H18.1484V55H17.0801V46.5996H19.6836ZM18.1484 50.4521H19.6836C20.6434 50.4521 21.3162 49.9242 21.3164 49.0244C21.3164 48.1004 20.6436 47.584 19.6836 47.584H18.1484V50.4521Z" fill="#687887"/>
<path d="M32.5879 49.0723C32.7283 49.0723 32.8346 49.0946 32.8398 49.0957V50.1279C32.8352 50.1269 32.7278 50.1035 32.5518 50.1035C31.472 50.1036 30.8117 50.9679 30.8115 52.2275V55H29.792V49.168H30.7998V50.2002C31.0638 49.5282 31.8199 49.0723 32.5879 49.0723Z" fill="#687887"/>
<path d="M43.418 49.0361C44.906 49.0361 45.7705 50.0321 45.7705 51.5801V55H44.7383V51.7002C44.7383 50.6562 44.1981 49.9961 43.2021 49.9961C42.2063 49.9962 41.5586 50.7642 41.5586 51.9521V55H40.5264V49.168H41.5586V50.0078C41.9186 49.432 42.5423 49.0363 43.418 49.0361Z" fill="#687887"/>
</g>
<defs>
<clipPath id="clip0_1663_178783">
<rect width="163.2" height="163.2" fill="white"/>
</clipPath>
</defs>
</svg>
