<svg width="164" height="164" viewBox="0 0 164 164" fill="none" xmlns="http://www.w3.org/2000/svg">
<rect width="163.2" height="163.2" fill="white"/>
<rect width="147.2" height="116" transform="translate(8.40002 24)" fill="#F3F7FB"/>
<path d="M115.385 16V16.5H116.4C116.634 16.5 116.863 16.5228 117.084 16.5664L117.179 16.0762C117.704 16.1799 118.192 16.3864 118.622 16.6738L118.344 17.0889C118.726 17.3445 119.055 17.6738 119.311 18.0557L119.725 17.7773C120.013 18.2067 120.219 18.6946 120.323 19.2197H120.324L119.834 19.3164C119.877 19.5371 119.9 19.7656 119.9 20V20.9287H120.4V22.7861H119.9V24.6426H120.4V26.5H119.9V28.3574H120.4V30.2139H119.9V32.0713H120.4V33.9287H119.9V35.7861H120.4V37.6426H119.9V39.5H120.4V41.3574H119.9V43.2139H120.4V45.0713H119.9V46C119.9 46.2344 119.877 46.4629 119.834 46.6836L120.323 46.7793C120.219 47.3045 120.013 47.7922 119.725 48.2217L119.311 47.9443C119.055 48.3262 118.726 48.6555 118.344 48.9111L118.622 49.3252C118.192 49.6127 117.705 49.8191 117.179 49.9229L117.084 49.4336C116.863 49.4772 116.634 49.5 116.4 49.5H115.385V50H113.356V49.5H111.327V50H109.297V49.5H107.267V50H105.238V49.5H103.209V50H101.179V49.5H99.15V50H97.1207V49.5H95.0914V50H93.0621V49.5H91.0328V50H89.0026V49.5H86.9733V50H84.944V49.5H82.9147V50H80.8854V49.5H78.8561V50H76.8268V49.5H74.7975V50H72.7672V49.5H70.7379V50H68.7086V49.5H66.6793V50H64.65V49.5H62.6207V50H60.5914V49.5H58.5621V50H56.5328V49.5H54.5026V50H52.4733V49.5H50.444V50H48.4147V49.5H47.4C47.1657 49.5 46.9371 49.4772 46.7164 49.4336L46.6198 49.9229C46.0947 49.819 45.6067 49.6128 45.1774 49.3252L45.4557 48.9111C45.0738 48.6555 44.7446 48.3262 44.4889 47.9443L44.0739 48.2217C43.7865 47.7923 43.5799 47.3044 43.4762 46.7793L43.9664 46.6836C43.9337 46.5181 43.9124 46.3482 43.9039 46.1748L43.9 46V45.0713H43.4V43.2139H43.9V41.3574H43.4V39.5H43.9V37.6426H43.4V35.7861H43.9V33.9287H43.4V32.0713H43.9V30.2139H43.4V28.3574H43.9V26.5H43.4V24.6426H43.9V22.7861H43.4V20.9287H43.9V20C43.9 19.7656 43.9228 19.5371 43.9664 19.3164L43.4762 19.2197C43.58 18.6947 43.7864 18.2066 44.0739 17.7773L44.4889 18.0557C44.7446 17.6738 45.0738 17.3445 45.4557 17.0889L45.1774 16.6738C45.6067 16.3864 46.0948 16.18 46.6198 16.0762L46.7164 16.5664C46.9371 16.5228 47.1657 16.5 47.4 16.5H48.4147V16H50.444V16.5H52.4733V16H54.5026V16.5H56.5328V16H58.5621V16.5H60.5914V16H62.6207V16.5H64.65V16H66.6793V16.5H68.7086V16H70.7379V16.5H72.7672V16H74.7975V16.5H76.8268V16H78.8561V16.5H80.8854V16H82.9147V16.5H84.944V16H86.9733V16.5H89.0026V16H91.0328V16.5H93.0621V16H95.0914V16.5H97.1207V16H99.15V16.5H101.179V16H103.209V16.5H105.238V16H107.267V16.5H109.297V16H111.327V16.5H113.356V16H115.385Z" fill="#0056CF"/>
<path d="M115.385 16V16.5H116.4C116.634 16.5 116.863 16.5228 117.084 16.5664L117.179 16.0762C117.704 16.1799 118.192 16.3864 118.622 16.6738L118.344 17.0889C118.726 17.3445 119.055 17.6738 119.311 18.0557L119.725 17.7773C120.013 18.2067 120.219 18.6946 120.323 19.2197H120.324L119.834 19.3164C119.877 19.5371 119.9 19.7656 119.9 20V20.9287H120.4V22.7861H119.9V24.6426H120.4V26.5H119.9V28.3574H120.4V30.2139H119.9V32.0713H120.4V33.9287H119.9V35.7861H120.4V37.6426H119.9V39.5H120.4V41.3574H119.9V43.2139H120.4V45.0713H119.9V46C119.9 46.2344 119.877 46.4629 119.834 46.6836L120.323 46.7793C120.219 47.3045 120.013 47.7922 119.725 48.2217L119.311 47.9443C119.055 48.3262 118.726 48.6555 118.344 48.9111L118.622 49.3252C118.192 49.6127 117.705 49.8191 117.179 49.9229L117.084 49.4336C116.863 49.4772 116.634 49.5 116.4 49.5H115.385V50H113.356V49.5H111.327V50H109.297V49.5H107.267V50H105.238V49.5H103.209V50H101.179V49.5H99.15V50H97.1207V49.5H95.0914V50H93.0621V49.5H91.0328V50H89.0026V49.5H86.9733V50H84.944V49.5H82.9147V50H80.8854V49.5H78.8561V50H76.8268V49.5H74.7975V50H72.7672V49.5H70.7379V50H68.7086V49.5H66.6793V50H64.65V49.5H62.6207V50H60.5914V49.5H58.5621V50H56.5328V49.5H54.5026V50H52.4733V49.5H50.444V50H48.4147V49.5H47.4C47.1657 49.5 46.9371 49.4772 46.7164 49.4336L46.6198 49.9229C46.0947 49.819 45.6067 49.6128 45.1774 49.3252L45.4557 48.9111C45.0738 48.6555 44.7446 48.3262 44.4889 47.9443L44.0739 48.2217C43.7865 47.7923 43.5799 47.3044 43.4762 46.7793L43.9664 46.6836C43.9337 46.5181 43.9124 46.3482 43.9039 46.1748L43.9 46V45.0713H43.4V43.2139H43.9V41.3574H43.4V39.5H43.9V37.6426H43.4V35.7861H43.9V33.9287H43.4V32.0713H43.9V30.2139H43.4V28.3574H43.9V26.5H43.4V24.6426H43.9V22.7861H43.4V20.9287H43.9V20C43.9 19.7656 43.9228 19.5371 43.9664 19.3164L43.4762 19.2197C43.58 18.6947 43.7864 18.2066 44.0739 17.7773L44.4889 18.0557C44.7446 17.6738 45.0738 17.3445 45.4557 17.0889L45.1774 16.6738C45.6067 16.3864 46.0948 16.18 46.6198 16.0762L46.7164 16.5664C46.9371 16.5228 47.1657 16.5 47.4 16.5H48.4147V16H50.444V16.5H52.4733V16H54.5026V16.5H56.5328V16H58.5621V16.5H60.5914V16H62.6207V16.5H64.65V16H66.6793V16.5H68.7086V16H70.7379V16.5H72.7672V16H74.7975V16.5H76.8268V16H78.8561V16.5H80.8854V16H82.9147V16.5H84.944V16H86.9733V16.5H89.0026V16H91.0328V16.5H93.0621V16H95.0914V16.5H97.1207V16H99.15V16.5H101.179V16H103.209V16.5H105.238V16H107.267V16.5H109.297V16H111.327V16.5H113.356V16H115.385Z" stroke="#0056CF" stroke-dasharray="2 2"/>
<path d="M99.7423 32.36L101.746 30.2H101.782V31.568H103.414V32.492H101.782V35.576C101.782 36.26 102.082 36.572 102.754 36.572C102.982 36.572 103.234 36.512 103.414 36.392V37.352C103.21 37.46 102.91 37.532 102.514 37.532C101.41 37.532 100.75 36.848 100.75 35.72V32.492H99.7423V32.36Z" fill="white"/>
<path d="M94.5347 34.352V37.4H93.5027V31.568H94.5347V32.408C94.8947 31.832 95.5187 31.436 96.3947 31.436C97.8827 31.436 98.7467 32.432 98.7467 33.98V37.4H97.7147V34.1C97.7147 33.056 97.1747 32.396 96.1787 32.396C95.1827 32.396 94.5347 33.164 94.5347 34.352Z" fill="white"/>
<path d="M91.7542 35.672V36.788C91.1062 37.256 90.3142 37.532 89.4982 37.532C87.6382 37.532 86.4382 36.2 86.4382 34.484C86.4382 32.744 87.6382 31.436 89.3182 31.436C90.9502 31.436 92.0662 32.78 92.0662 34.436C92.0662 34.664 92.0422 34.808 92.0422 34.808H87.4702C87.5542 35.78 88.3582 36.596 89.5702 36.596C90.3142 36.596 91.0342 36.296 91.7542 35.672ZM87.4942 33.956H91.0222C90.9382 33.032 90.2542 32.336 89.2942 32.336C88.3222 32.336 87.5662 33.164 87.4942 33.956Z" fill="white"/>
<path d="M77.3433 34.34V37.4H76.3113V31.568H77.3313V32.408C77.6553 31.808 78.2433 31.436 79.0473 31.436C79.9113 31.436 80.5353 31.868 80.8833 32.576C81.1713 32.084 81.7713 31.436 82.8753 31.436C84.2193 31.436 85.0233 32.384 85.0233 33.884V37.4H83.9913V34.064C83.9913 33.032 83.5473 32.384 82.6713 32.384C81.7713 32.384 81.1833 33.152 81.1833 34.34V37.4H80.1513V34.088C80.1513 33.044 79.6953 32.384 78.8313 32.384C77.9313 32.384 77.3433 33.152 77.3433 34.34Z" fill="white"/>
<path d="M74.5628 35.672V36.788C73.9148 37.256 73.1228 37.532 72.3068 37.532C70.4468 37.532 69.2468 36.2 69.2468 34.484C69.2468 32.744 70.4468 31.436 72.1268 31.436C73.7588 31.436 74.8748 32.78 74.8748 34.436C74.8748 34.664 74.8508 34.808 74.8508 34.808H70.2788C70.3628 35.78 71.1668 36.596 72.3788 36.596C73.1228 36.596 73.8428 36.296 74.5628 35.672ZM70.3028 33.956H73.8308C73.7468 33.032 73.0628 32.336 72.1028 32.336C71.1308 32.336 70.3748 33.164 70.3028 33.956Z" fill="white"/>
<path d="M66.7136 29H67.7456V37.4H66.7136V29Z" fill="white"/>
<path d="M60.4 37.4V29H65.068V29.984H61.468V32.552H64.816V33.524H61.468V36.416H65.092V37.4H60.4Z" fill="white"/>
<path d="M115.385 65V65.5H116.4C116.634 65.5 116.863 65.5228 117.084 65.5664L117.179 65.0762C117.704 65.1799 118.192 65.3864 118.622 65.6738L118.344 66.0889C118.726 66.3445 119.055 66.6738 119.311 67.0557L119.725 66.7773C120.013 67.2067 120.219 67.6946 120.323 68.2197H120.324L119.834 68.3164C119.877 68.5371 119.9 68.7656 119.9 69V69.9287H120.4V71.7861H119.9V73.6426H120.4V75.5H119.9V77.3574H120.4V79.2139H119.9V81.0713H120.4V82.9287H119.9V84.7861H120.4V86.6426H119.9V88.5H120.4V90.3574H119.9V92.2139H120.4V94.0713H119.9V95C119.9 95.2344 119.877 95.4629 119.834 95.6836L120.323 95.7793C120.219 96.3045 120.013 96.7922 119.725 97.2217L119.311 96.9443C119.055 97.3262 118.726 97.6555 118.344 97.9111L118.622 98.3252C118.192 98.6127 117.705 98.8191 117.179 98.9229L117.084 98.4336C116.863 98.4772 116.634 98.5 116.4 98.5H115.385V99H113.356V98.5H111.327V99H109.297V98.5H107.267V99H105.238V98.5H103.209V99H101.179V98.5H99.15V99H97.1207V98.5H95.0914V99H93.0621V98.5H91.0328V99H89.0026V98.5H86.9733V99H84.944V98.5H82.9147V99H80.8854V98.5H78.8561V99H76.8268V98.5H74.7975V99H72.7672V98.5H70.7379V99H68.7086V98.5H66.6793V99H64.65V98.5H62.6207V99H60.5914V98.5H58.5621V99H56.5328V98.5H54.5026V99H52.4733V98.5H50.444V99H48.4147V98.5H47.4C47.1657 98.5 46.9371 98.4772 46.7164 98.4336L46.6198 98.9229C46.0947 98.819 45.6067 98.6128 45.1774 98.3252L45.4557 97.9111C45.0738 97.6555 44.7446 97.3262 44.4889 96.9443L44.0739 97.2217C43.7865 96.7923 43.5799 96.3044 43.4762 95.7793L43.9664 95.6836C43.9337 95.5181 43.9124 95.3482 43.9039 95.1748L43.9 95V94.0713H43.4V92.2139H43.9V90.3574H43.4V88.5H43.9V86.6426H43.4V84.7861H43.9V82.9287H43.4V81.0713H43.9V79.2139H43.4V77.3574H43.9V75.5H43.4V73.6426H43.9V71.7861H43.4V69.9287H43.9V69C43.9 68.7656 43.9228 68.5371 43.9664 68.3164L43.4762 68.2197C43.58 67.6947 43.7864 67.2066 44.0739 66.7773L44.4889 67.0557C44.7446 66.6738 45.0738 66.3445 45.4557 66.0889L45.1774 65.6738C45.6067 65.3864 46.0948 65.18 46.6198 65.0762L46.7164 65.5664C46.9371 65.5228 47.1657 65.5 47.4 65.5H48.4147V65H50.444V65.5H52.4733V65H54.5026V65.5H56.5328V65H58.5621V65.5H60.5914V65H62.6207V65.5H64.65V65H66.6793V65.5H68.7086V65H70.7379V65.5H72.7672V65H74.7975V65.5H76.8268V65H78.8561V65.5H80.8854V65H82.9147V65.5H84.944V65H86.9733V65.5H89.0026V65H91.0328V65.5H93.0621V65H95.0914V65.5H97.1207V65H99.15V65.5H101.179V65H103.209V65.5H105.238V65H107.267V65.5H109.297V65H111.327V65.5H113.356V65H115.385Z" stroke="#0056CF" stroke-dasharray="2 2"/>
<path d="M99.7423 81.3601L101.746 79.2001H101.782V80.5681H103.414V81.4921H101.782V84.5761C101.782 85.2601 102.082 85.5721 102.754 85.5721C102.982 85.5721 103.234 85.5121 103.414 85.3921V86.3521C103.21 86.4601 102.91 86.5321 102.514 86.5321C101.41 86.5321 100.75 85.8481 100.75 84.7201V81.4921H99.7423V81.3601Z" fill="#C1CDD6"/>
<path d="M94.5347 83.352V86.4H93.5027V80.568H94.5347V81.408C94.8947 80.832 95.5187 80.436 96.3947 80.436C97.8827 80.436 98.7467 81.432 98.7467 82.98V86.4H97.7147V83.1C97.7147 82.056 97.1747 81.396 96.1787 81.396C95.1827 81.396 94.5347 82.164 94.5347 83.352Z" fill="#C1CDD6"/>
<path d="M91.7542 84.672V85.788C91.1062 86.256 90.3142 86.532 89.4982 86.532C87.6382 86.532 86.4382 85.2 86.4382 83.484C86.4382 81.744 87.6382 80.436 89.3182 80.436C90.9502 80.436 92.0662 81.78 92.0662 83.436C92.0662 83.664 92.0422 83.808 92.0422 83.808H87.4702C87.5542 84.78 88.3582 85.596 89.5702 85.596C90.3142 85.596 91.0342 85.296 91.7542 84.672ZM87.4942 82.956H91.0222C90.9382 82.032 90.2542 81.336 89.2942 81.336C88.3222 81.336 87.5662 82.164 87.4942 82.956Z" fill="#C1CDD6"/>
<path d="M77.3433 83.34V86.4H76.3113V80.568H77.3313V81.408C77.6553 80.808 78.2433 80.436 79.0473 80.436C79.9113 80.436 80.5353 80.868 80.8833 81.576C81.1713 81.084 81.7713 80.436 82.8753 80.436C84.2193 80.436 85.0233 81.384 85.0233 82.884V86.4H83.9913V83.064C83.9913 82.032 83.5473 81.384 82.6713 81.384C81.7713 81.384 81.1833 82.152 81.1833 83.34V86.4H80.1513V83.088C80.1513 82.044 79.6953 81.384 78.8313 81.384C77.9313 81.384 77.3433 82.152 77.3433 83.34Z" fill="#C1CDD6"/>
<path d="M74.5628 84.672V85.788C73.9148 86.256 73.1228 86.532 72.3068 86.532C70.4468 86.532 69.2468 85.2 69.2468 83.484C69.2468 81.744 70.4468 80.436 72.1268 80.436C73.7588 80.436 74.8748 81.78 74.8748 83.436C74.8748 83.664 74.8508 83.808 74.8508 83.808H70.2788C70.3628 84.78 71.1668 85.596 72.3788 85.596C73.1228 85.596 73.8428 85.296 74.5628 84.672ZM70.3028 82.956H73.8308C73.7468 82.032 73.0628 81.336 72.1028 81.336C71.1308 81.336 70.3748 82.164 70.3028 82.956Z" fill="#C1CDD6"/>
<path d="M66.7136 78H67.7456V86.4H66.7136V78Z" fill="#C1CDD6"/>
<path d="M60.4 86.4V78H65.068V78.984H61.468V81.552H64.816V82.524H61.468V85.416H65.092V86.4H60.4Z" fill="#C1CDD6"/>
</svg>
