<svg width="164" height="164" viewBox="0 0 164 164" fill="none" xmlns="http://www.w3.org/2000/svg">
<rect width="163.2" height="163.2" fill="white"/>
<rect width="147.2" height="116" transform="translate(7.80005 24)" fill="#F3F7FB"/>
<path d="M87.7854 32V32.5H88.8C89.0344 32.5 89.263 32.5228 89.4836 32.5664L89.5793 32.0762C90.1044 32.1799 90.5923 32.3864 91.0217 32.6738L90.7444 33.0889C91.1263 33.3445 91.4555 33.6738 91.7112 34.0557L92.1252 33.7773C92.4128 34.2067 92.619 34.6946 92.7229 35.2197H92.7239L92.2336 35.3164C92.2773 35.5371 92.3 35.7656 92.3 36V37H92.8V39H92.3V41H92.8V43H92.3V45H92.8V47H92.3V49H92.8V51H92.3V53H92.8V55H92.3V57H92.8V59H92.3V61H92.8V63H92.3V65H92.8V67H92.3V69H92.8V71H92.3V73H92.8V75H92.3V77H92.8V79H92.3V81H92.8V83H92.3V85H92.8V87H92.3V89H92.8V91H92.3V93H92.8V95H92.3V97H92.8V99H92.3V101H92.8V103H92.3V105H92.8V107H92.3V109H92.8V111H92.3V113H92.8V115H92.3V117H92.8V119H92.3V121H92.8V123H92.3V125H92.8V127H92.3V128C92.3 128.234 92.2773 128.463 92.2336 128.684L92.7229 128.779C92.6192 129.304 92.4127 129.792 92.1252 130.222L91.7112 129.944C91.4555 130.326 91.1263 130.655 90.7444 130.911L91.0217 131.325C90.5923 131.613 90.1045 131.819 89.5793 131.923L89.4836 131.434C89.263 131.477 89.0344 131.5 88.8 131.5H87.7854V132H85.7561V131.5H83.7268V132H81.6975V131.5H79.6672V132H77.6379V131.5H75.6086V132H73.5793V131.5H71.55V132H69.5208V131.5H67.4915V132H65.4622V131.5H63.4329V132H61.4026V131.5H59.3733V132H57.344V131.5H55.3147V132H53.2854V131.5H51.2561V132H49.2268V131.5H47.1975V132H45.1672V131.5H43.1379V132H41.1086V131.5H39.0793V132H37.05V131.5H35.0208V132H32.9915V131.5H30.9622V132H28.9329V131.5H26.9026V132H24.8733V131.5H22.844V132H20.8147V131.5H19.8C19.5657 131.5 19.3371 131.477 19.1165 131.434L19.0198 131.923C18.4947 131.819 18.0068 131.613 17.5774 131.325L17.8557 130.911C17.4738 130.655 17.1446 130.326 16.8889 129.944L16.4739 130.222C16.1865 129.792 15.9799 129.304 15.8762 128.779L16.3665 128.684C16.3228 128.463 16.3 128.234 16.3 128V127H15.8V125H16.3V123H15.8V121H16.3V119H15.8V117H16.3V115H15.8V113H16.3V111H15.8V109H16.3V107H15.8V105H16.3V103H15.8V101H16.3V99H15.8V97H16.3V95H15.8V93H16.3V91H15.8V89H16.3V87H15.8V85H16.3V83H15.8V81H16.3V79H15.8V77H16.3V75H15.8V73H16.3V71H15.8V69H16.3V67H15.8V65H16.3V63H15.8V61H16.3V59H15.8V57H16.3V55H15.8V53H16.3V51H15.8V49H16.3V47H15.8V45H16.3V43H15.8V41H16.3V39H15.8V37H16.3V36C16.3 35.7656 16.3228 35.5371 16.3665 35.3164L15.8762 35.2197C15.98 34.6947 16.1864 34.2066 16.4739 33.7773L16.8889 34.0557C17.1446 33.6738 17.4738 33.3445 17.8557 33.0889L17.5774 32.6738C18.0067 32.3864 18.4948 32.18 19.0198 32.0762L19.1165 32.5664C19.3371 32.5228 19.5657 32.5 19.8 32.5H20.8147V32H22.844V32.5H24.8733V32H26.9026V32.5H28.9329V32H30.9622V32.5H32.9915V32H35.0208V32.5H37.05V32H39.0793V32.5H41.1086V32H43.1379V32.5H45.1672V32H47.1975V32.5H49.2268V32H51.2561V32.5H53.2854V32H55.3147V32.5H57.344V32H59.3733V32.5H61.4026V32H63.4329V32.5H65.4622V32H67.4915V32.5H69.5208V32H71.55V32.5H73.5793V32H75.6086V32.5H77.6379V32H79.6672V32.5H81.6975V32H83.7268V32.5H85.7561V32H87.7854Z" fill="#0056CF"/>
<path d="M87.7854 32V32.5H88.8C89.0344 32.5 89.263 32.5228 89.4836 32.5664L89.5793 32.0762C90.1044 32.1799 90.5923 32.3864 91.0217 32.6738L90.7444 33.0889C91.1263 33.3445 91.4555 33.6738 91.7112 34.0557L92.1252 33.7773C92.4128 34.2067 92.619 34.6946 92.7229 35.2197H92.7239L92.2336 35.3164C92.2773 35.5371 92.3 35.7656 92.3 36V37H92.8V39H92.3V41H92.8V43H92.3V45H92.8V47H92.3V49H92.8V51H92.3V53H92.8V55H92.3V57H92.8V59H92.3V61H92.8V63H92.3V65H92.8V67H92.3V69H92.8V71H92.3V73H92.8V75H92.3V77H92.8V79H92.3V81H92.8V83H92.3V85H92.8V87H92.3V89H92.8V91H92.3V93H92.8V95H92.3V97H92.8V99H92.3V101H92.8V103H92.3V105H92.8V107H92.3V109H92.8V111H92.3V113H92.8V115H92.3V117H92.8V119H92.3V121H92.8V123H92.3V125H92.8V127H92.3V128C92.3 128.234 92.2773 128.463 92.2336 128.684L92.7229 128.779C92.6192 129.304 92.4127 129.792 92.1252 130.222L91.7112 129.944C91.4555 130.326 91.1263 130.655 90.7444 130.911L91.0217 131.325C90.5923 131.613 90.1045 131.819 89.5793 131.923L89.4836 131.434C89.263 131.477 89.0344 131.5 88.8 131.5H87.7854V132H85.7561V131.5H83.7268V132H81.6975V131.5H79.6672V132H77.6379V131.5H75.6086V132H73.5793V131.5H71.55V132H69.5208V131.5H67.4915V132H65.4622V131.5H63.4329V132H61.4026V131.5H59.3733V132H57.344V131.5H55.3147V132H53.2854V131.5H51.2561V132H49.2268V131.5H47.1975V132H45.1672V131.5H43.1379V132H41.1086V131.5H39.0793V132H37.05V131.5H35.0208V132H32.9915V131.5H30.9622V132H28.9329V131.5H26.9026V132H24.8733V131.5H22.844V132H20.8147V131.5H19.8C19.5657 131.5 19.3371 131.477 19.1165 131.434L19.0198 131.923C18.4947 131.819 18.0068 131.613 17.5774 131.325L17.8557 130.911C17.4738 130.655 17.1446 130.326 16.8889 129.944L16.4739 130.222C16.1865 129.792 15.9799 129.304 15.8762 128.779L16.3665 128.684C16.3228 128.463 16.3 128.234 16.3 128V127H15.8V125H16.3V123H15.8V121H16.3V119H15.8V117H16.3V115H15.8V113H16.3V111H15.8V109H16.3V107H15.8V105H16.3V103H15.8V101H16.3V99H15.8V97H16.3V95H15.8V93H16.3V91H15.8V89H16.3V87H15.8V85H16.3V83H15.8V81H16.3V79H15.8V77H16.3V75H15.8V73H16.3V71H15.8V69H16.3V67H15.8V65H16.3V63H15.8V61H16.3V59H15.8V57H16.3V55H15.8V53H16.3V51H15.8V49H16.3V47H15.8V45H16.3V43H15.8V41H16.3V39H15.8V37H16.3V36C16.3 35.7656 16.3228 35.5371 16.3665 35.3164L15.8762 35.2197C15.98 34.6947 16.1864 34.2066 16.4739 33.7773L16.8889 34.0557C17.1446 33.6738 17.4738 33.3445 17.8557 33.0889L17.5774 32.6738C18.0067 32.3864 18.4948 32.18 19.0198 32.0762L19.1165 32.5664C19.3371 32.5228 19.5657 32.5 19.8 32.5H20.8147V32H22.844V32.5H24.8733V32H26.9026V32.5H28.9329V32H30.9622V32.5H32.9915V32H35.0208V32.5H37.05V32H39.0793V32.5H41.1086V32H43.1379V32.5H45.1672V32H47.1975V32.5H49.2268V32H51.2561V32.5H53.2854V32H55.3147V32.5H57.344V32H59.3733V32.5H61.4026V32H63.4329V32.5H65.4622V32H67.4915V32.5H69.5208V32H71.55V32.5H73.5793V32H75.6086V32.5H77.6379V32H79.6672V32.5H81.6975V32H83.7268V32.5H85.7561V32H87.7854Z" stroke="#0056CF" stroke-dasharray="2 2"/>
<path d="M72.135 81.0941L74.139 78.9341H74.175V80.3021H75.807V81.2261H74.175V84.3101C74.175 84.9941 74.475 85.3061 75.147 85.3061C75.375 85.3061 75.627 85.2461 75.807 85.1261V86.0861C75.603 86.1941 75.303 86.2661 74.907 86.2661C73.803 86.2661 73.143 85.5821 73.143 84.4541V81.2261H72.135V81.0941Z" fill="white"/>
<path d="M66.9275 83.086V86.134H65.8955V80.302H66.9275V81.142C67.2875 80.566 67.9115 80.17 68.7875 80.17C70.2755 80.17 71.1395 81.166 71.1395 82.714V86.134H70.1075V82.834C70.1075 81.79 69.5675 81.13 68.5715 81.13C67.5755 81.13 66.9275 81.898 66.9275 83.086Z" fill="white"/>
<path d="M64.1471 84.406V85.522C63.4991 85.99 62.7071 86.266 61.8911 86.266C60.0311 86.266 58.8311 84.934 58.8311 83.218C58.8311 81.478 60.0311 80.17 61.7111 80.17C63.3431 80.17 64.4591 81.514 64.4591 83.17C64.4591 83.398 64.4351 83.542 64.4351 83.542H59.8631C59.9471 84.514 60.7511 85.33 61.9631 85.33C62.7071 85.33 63.4271 85.03 64.1471 84.406ZM59.8871 82.69H63.4151C63.3311 81.766 62.6471 81.07 61.6871 81.07C60.7151 81.07 59.9591 81.898 59.8871 82.69Z" fill="white"/>
<path d="M49.7361 83.074V86.134H48.7041V80.302H49.7241V81.142C50.0481 80.542 50.6361 80.17 51.4401 80.17C52.3041 80.17 52.9281 80.602 53.2761 81.31C53.5641 80.818 54.1641 80.17 55.2681 80.17C56.6121 80.17 57.4161 81.118 57.4161 82.618V86.134H56.3841V82.798C56.3841 81.766 55.9401 81.118 55.0641 81.118C54.1641 81.118 53.5761 81.886 53.5761 83.074V86.134H52.5441V82.822C52.5441 81.778 52.0881 81.118 51.2241 81.118C50.3241 81.118 49.7361 81.886 49.7361 83.074Z" fill="white"/>
<path d="M46.9556 84.406V85.522C46.3076 85.99 45.5156 86.266 44.6996 86.266C42.8396 86.266 41.6396 84.934 41.6396 83.218C41.6396 81.478 42.8396 80.17 44.5196 80.17C46.1516 80.17 47.2676 81.514 47.2676 83.17C47.2676 83.398 47.2436 83.542 47.2436 83.542H42.6716C42.7556 84.514 43.5596 85.33 44.7716 85.33C45.5156 85.33 46.2356 85.03 46.9556 84.406ZM42.6956 82.69H46.2236C46.1396 81.766 45.4556 81.07 44.4956 81.07C43.5236 81.07 42.7676 81.898 42.6956 82.69Z" fill="white"/>
<path d="M39.1064 77.734H40.1384V86.134H39.1064V77.734Z" fill="white"/>
<path d="M32.793 86.134V77.734H37.461V78.718H33.861V81.286H37.209V82.258H33.861V85.15H37.485V86.134H32.793Z" fill="white"/>
</svg>
