<svg width="164" height="164" viewBox="0 0 164 164" fill="none" xmlns="http://www.w3.org/2000/svg">
<rect width="163.2" height="163.2" fill="white"/>
<rect width="147.2" height="116" transform="translate(8 24)" fill="#F3F7FB"/>
<path d="M114.985 32V32.5H116C116.234 32.5 116.463 32.5228 116.684 32.5664L116.779 32.0762C117.304 32.1799 117.792 32.3864 118.222 32.6738L117.944 33.0889C118.326 33.3445 118.655 33.6738 118.911 34.0557L119.325 33.7773C119.613 34.2067 119.819 34.6946 119.923 35.2197H119.924L119.434 35.3164C119.477 35.5371 119.5 35.7656 119.5 36V37H120V39H119.5V41H120V43H119.5V45H120V47H119.5V49H120V51H119.5V53H120V55H119.5V57H120V59H119.5V61H120V63H119.5V65H120V67H119.5V69H120V71H119.5V73H120V75H119.5V77H120V79H119.5V81H120V83H119.5V85H120V87H119.5V89H120V91H119.5V93H120V95H119.5V97H120V99H119.5V101H120V103H119.5V105H120V107H119.5V109H120V111H119.5V113H120V115H119.5V117H120V119H119.5V121H120V123H119.5V125H120V127H119.5V128C119.5 128.234 119.477 128.463 119.434 128.684L119.923 128.779C119.819 129.304 119.613 129.792 119.325 130.222L118.911 129.944C118.655 130.326 118.326 130.655 117.944 130.911L118.222 131.325C117.792 131.613 117.304 131.819 116.779 131.923L116.684 131.434C116.463 131.477 116.234 131.5 116 131.5H114.985V132H112.956V131.5H110.927V132H108.897V131.5H106.867V132H104.838V131.5H102.809V132H100.779V131.5H98.75V132H96.7207V131.5H94.6914V132H92.6621V131.5H90.6328V132H88.6025V131.5H86.5732V132H84.5439V131.5H82.5146V132H80.4854V131.5H78.4561V132H76.4268V131.5H74.3975V132H72.3672V131.5H70.3379V132H68.3086V131.5H66.2793V132H64.25V131.5H62.2207V132H60.1914V131.5H58.1621V132H56.1328V131.5H54.1025V132H52.0732V131.5H50.0439V132H48.0146V131.5H47C46.7656 131.5 46.5371 131.477 46.3164 131.434L46.2197 131.923C45.6946 131.819 45.2067 131.613 44.7773 131.325L45.0557 130.911C44.6738 130.655 44.3445 130.326 44.0889 129.944L43.6738 130.222C43.3864 129.792 43.1799 129.304 43.0762 128.779L43.5664 128.684C43.5228 128.463 43.5 128.234 43.5 128V127H43V125H43.5V123H43V121H43.5V119H43V117H43.5V115H43V113H43.5V111H43V109H43.5V107H43V105H43.5V103H43V101H43.5V99H43V97H43.5V95H43V93H43.5V91H43V89H43.5V87H43V85H43.5V83H43V81H43.5V79H43V77H43.5V75H43V73H43.5V71H43V69H43.5V67H43V65H43.5V63H43V61H43.5V59H43V57H43.5V55H43V53H43.5V51H43V49H43.5V47H43V45H43.5V43H43V41H43.5V39H43V37H43.5V36C43.5 35.7656 43.5228 35.5371 43.5664 35.3164L43.0762 35.2197C43.18 34.6947 43.3864 34.2066 43.6738 33.7773L44.0889 34.0557C44.3445 33.6738 44.6738 33.3445 45.0557 33.0889L44.7773 32.6738C45.2066 32.3864 45.6947 32.18 46.2197 32.0762L46.3164 32.5664C46.5371 32.5228 46.7656 32.5 47 32.5H48.0146V32H50.0439V32.5H52.0732V32H54.1025V32.5H56.1328V32H58.1621V32.5H60.1914V32H62.2207V32.5H64.25V32H66.2793V32.5H68.3086V32H70.3379V32.5H72.3672V32H74.3975V32.5H76.4268V32H78.4561V32.5H80.4854V32H82.5146V32.5H84.5439V32H86.5732V32.5H88.6025V32H90.6328V32.5H92.6621V32H94.6914V32.5H96.7207V32H98.75V32.5H100.779V32H102.809V32.5H104.838V32H106.867V32.5H108.897V32H110.927V32.5H112.956V32H114.985Z" fill="#0056CF"/>
<path d="M114.985 32V32.5H116C116.234 32.5 116.463 32.5228 116.684 32.5664L116.779 32.0762C117.304 32.1799 117.792 32.3864 118.222 32.6738L117.944 33.0889C118.326 33.3445 118.655 33.6738 118.911 34.0557L119.325 33.7773C119.613 34.2067 119.819 34.6946 119.923 35.2197H119.924L119.434 35.3164C119.477 35.5371 119.5 35.7656 119.5 36V37H120V39H119.5V41H120V43H119.5V45H120V47H119.5V49H120V51H119.5V53H120V55H119.5V57H120V59H119.5V61H120V63H119.5V65H120V67H119.5V69H120V71H119.5V73H120V75H119.5V77H120V79H119.5V81H120V83H119.5V85H120V87H119.5V89H120V91H119.5V93H120V95H119.5V97H120V99H119.5V101H120V103H119.5V105H120V107H119.5V109H120V111H119.5V113H120V115H119.5V117H120V119H119.5V121H120V123H119.5V125H120V127H119.5V128C119.5 128.234 119.477 128.463 119.434 128.684L119.923 128.779C119.819 129.304 119.613 129.792 119.325 130.222L118.911 129.944C118.655 130.326 118.326 130.655 117.944 130.911L118.222 131.325C117.792 131.613 117.304 131.819 116.779 131.923L116.684 131.434C116.463 131.477 116.234 131.5 116 131.5H114.985V132H112.956V131.5H110.927V132H108.897V131.5H106.867V132H104.838V131.5H102.809V132H100.779V131.5H98.75V132H96.7207V131.5H94.6914V132H92.6621V131.5H90.6328V132H88.6025V131.5H86.5732V132H84.5439V131.5H82.5146V132H80.4854V131.5H78.4561V132H76.4268V131.5H74.3975V132H72.3672V131.5H70.3379V132H68.3086V131.5H66.2793V132H64.25V131.5H62.2207V132H60.1914V131.5H58.1621V132H56.1328V131.5H54.1025V132H52.0732V131.5H50.0439V132H48.0146V131.5H47C46.7656 131.5 46.5371 131.477 46.3164 131.434L46.2197 131.923C45.6946 131.819 45.2067 131.613 44.7773 131.325L45.0557 130.911C44.6738 130.655 44.3445 130.326 44.0889 129.944L43.6738 130.222C43.3864 129.792 43.1799 129.304 43.0762 128.779L43.5664 128.684C43.5228 128.463 43.5 128.234 43.5 128V127H43V125H43.5V123H43V121H43.5V119H43V117H43.5V115H43V113H43.5V111H43V109H43.5V107H43V105H43.5V103H43V101H43.5V99H43V97H43.5V95H43V93H43.5V91H43V89H43.5V87H43V85H43.5V83H43V81H43.5V79H43V77H43.5V75H43V73H43.5V71H43V69H43.5V67H43V65H43.5V63H43V61H43.5V59H43V57H43.5V55H43V53H43.5V51H43V49H43.5V47H43V45H43.5V43H43V41H43.5V39H43V37H43.5V36C43.5 35.7656 43.5228 35.5371 43.5664 35.3164L43.0762 35.2197C43.18 34.6947 43.3864 34.2066 43.6738 33.7773L44.0889 34.0557C44.3445 33.6738 44.6738 33.3445 45.0557 33.0889L44.7773 32.6738C45.2066 32.3864 45.6947 32.18 46.2197 32.0762L46.3164 32.5664C46.5371 32.5228 46.7656 32.5 47 32.5H48.0146V32H50.0439V32.5H52.0732V32H54.1025V32.5H56.1328V32H58.1621V32.5H60.1914V32H62.2207V32.5H64.25V32H66.2793V32.5H68.3086V32H70.3379V32.5H72.3672V32H74.3975V32.5H76.4268V32H78.4561V32.5H80.4854V32H82.5146V32.5H84.5439V32H86.5732V32.5H88.6025V32H90.6328V32.5H92.6621V32H94.6914V32.5H96.7207V32H98.75V32.5H100.779V32H102.809V32.5H104.838V32H106.867V32.5H108.897V32H110.927V32.5H112.956V32H114.985Z" stroke="#0056CF" stroke-dasharray="2 2"/>
<path d="M99.335 81.0941L101.339 78.9341H101.375V80.3021H103.007V81.2261H101.375V84.3101C101.375 84.9941 101.675 85.3061 102.347 85.3061C102.575 85.3061 102.827 85.2461 103.007 85.1261V86.0861C102.803 86.1941 102.503 86.2661 102.107 86.2661C101.003 86.2661 100.343 85.5821 100.343 84.4541V81.2261H99.335V81.0941Z" fill="white"/>
<path d="M94.1275 83.086V86.134H93.0955V80.302H94.1275V81.142C94.4875 80.566 95.1115 80.17 95.9875 80.17C97.4755 80.17 98.3395 81.166 98.3395 82.714V86.134H97.3075V82.834C97.3075 81.79 96.7675 81.13 95.7715 81.13C94.7755 81.13 94.1275 81.898 94.1275 83.086Z" fill="white"/>
<path d="M91.347 84.406V85.522C90.699 85.99 89.907 86.266 89.091 86.266C87.231 86.266 86.031 84.934 86.031 83.218C86.031 81.478 87.231 80.17 88.911 80.17C90.543 80.17 91.659 81.514 91.659 83.17C91.659 83.398 91.635 83.542 91.635 83.542H87.063C87.147 84.514 87.951 85.33 89.163 85.33C89.907 85.33 90.627 85.03 91.347 84.406ZM87.087 82.69H90.615C90.531 81.766 89.847 81.07 88.887 81.07C87.915 81.07 87.159 81.898 87.087 82.69Z" fill="white"/>
<path d="M76.9361 83.074V86.134H75.9041V80.302H76.9241V81.142C77.2481 80.542 77.8361 80.17 78.6401 80.17C79.5041 80.17 80.1281 80.602 80.4761 81.31C80.7641 80.818 81.3641 80.17 82.4681 80.17C83.8121 80.17 84.6161 81.118 84.6161 82.618V86.134H83.5841V82.798C83.5841 81.766 83.1401 81.118 82.2641 81.118C81.3641 81.118 80.7761 81.886 80.7761 83.074V86.134H79.7441V82.822C79.7441 81.778 79.2881 81.118 78.4241 81.118C77.5241 81.118 76.9361 81.886 76.9361 83.074Z" fill="white"/>
<path d="M74.1556 84.406V85.522C73.5076 85.99 72.7156 86.266 71.8996 86.266C70.0396 86.266 68.8396 84.934 68.8396 83.218C68.8396 81.478 70.0396 80.17 71.7196 80.17C73.3516 80.17 74.4676 81.514 74.4676 83.17C74.4676 83.398 74.4436 83.542 74.4436 83.542H69.8716C69.9556 84.514 70.7596 85.33 71.9716 85.33C72.7156 85.33 73.4356 85.03 74.1556 84.406ZM69.8956 82.69H73.4236C73.3396 81.766 72.6556 81.07 71.6956 81.07C70.7236 81.07 69.9676 81.898 69.8956 82.69Z" fill="white"/>
<path d="M66.3064 77.734H67.3384V86.134H66.3064V77.734Z" fill="white"/>
<path d="M59.9929 86.134V77.734H64.6609V78.718H61.0609V81.286H64.4089V82.258H61.0609V85.15H64.6849V86.134H59.9929Z" fill="white"/>
</svg>
