<svg width="164" height="164" viewBox="0 0 164 164" fill="none" xmlns="http://www.w3.org/2000/svg">
<rect width="163.2" height="163.2" fill="white"/>
<path d="M8 24H155.2V140H8V24Z" fill="#F3F7FB"/>
<path d="M43 36C43 33.7909 44.7909 32 47 32H116C118.209 32 120 33.7909 120 36V128C120 130.209 118.209 132 116 132H47C44.7909 132 43 130.209 43 128V36Z" fill="#0056CF"/>
<path d="M99.4221 81.36L101.426 79.2H101.462V80.568H103.094V81.492H101.462V84.576C101.462 85.26 101.762 85.572 102.434 85.572C102.662 85.572 102.914 85.512 103.094 85.392V86.352C102.89 86.46 102.59 86.532 102.194 86.532C101.09 86.532 100.43 85.848 100.43 84.72V81.492H99.4221V81.36Z" fill="white"/>
<path d="M94.2146 83.352V86.4H93.1826V80.568H94.2146V81.408C94.5746 80.832 95.1986 80.436 96.0746 80.436C97.5626 80.436 98.4266 81.432 98.4266 82.98V86.4H97.3946V83.1C97.3946 82.056 96.8546 81.396 95.8586 81.396C94.8626 81.396 94.2146 82.164 94.2146 83.352Z" fill="white"/>
<path d="M91.4341 84.672V85.788C90.7861 86.256 89.9941 86.532 89.1781 86.532C87.3181 86.532 86.1181 85.2 86.1181 83.484C86.1181 81.744 87.3181 80.436 88.9981 80.436C90.6301 80.436 91.7461 81.78 91.7461 83.436C91.7461 83.664 91.7221 83.808 91.7221 83.808H87.1501C87.2341 84.78 88.0381 85.596 89.2501 85.596C89.9941 85.596 90.7141 85.296 91.4341 84.672ZM87.1741 82.956H90.7021C90.6181 82.032 89.9341 81.336 88.9741 81.336C88.0021 81.336 87.2461 82.164 87.1741 82.956Z" fill="white"/>
<path d="M77.0232 83.34V86.4H75.9912V80.568H77.0112V81.408C77.3352 80.808 77.9232 80.436 78.7272 80.436C79.5912 80.436 80.2152 80.868 80.5632 81.576C80.8512 81.084 81.4512 80.436 82.5552 80.436C83.8992 80.436 84.7032 81.384 84.7032 82.884V86.4H83.6712V83.064C83.6712 82.032 83.2272 81.384 82.3512 81.384C81.4512 81.384 80.8632 82.152 80.8632 83.34V86.4H79.8312V83.088C79.8312 82.044 79.3752 81.384 78.5112 81.384C77.6112 81.384 77.0232 82.152 77.0232 83.34Z" fill="white"/>
<path d="M74.2427 84.672V85.788C73.5947 86.256 72.8027 86.532 71.9867 86.532C70.1267 86.532 68.9267 85.2 68.9267 83.484C68.9267 81.744 70.1267 80.436 71.8067 80.436C73.4387 80.436 74.5547 81.78 74.5547 83.436C74.5547 83.664 74.5307 83.808 74.5307 83.808H69.9587C70.0427 84.78 70.8467 85.596 72.0587 85.596C72.8027 85.596 73.5227 85.296 74.2427 84.672ZM69.9827 82.956H73.5107C73.4267 82.032 72.7427 81.336 71.7827 81.336C70.8107 81.336 70.0547 82.164 69.9827 82.956Z" fill="white"/>
<path d="M66.3935 78H67.4255V86.4H66.3935V78Z" fill="white"/>
<path d="M60.08 86.4V78H64.748V78.984H61.148V81.552H64.496V82.524H61.148V85.416H64.772V86.4H60.08Z" fill="white"/>
</svg>
