<svg width="164" height="164" viewBox="0 0 164 164" fill="none" xmlns="http://www.w3.org/2000/svg">
<rect width="163.2" height="163.2" fill="white"/>
<rect width="147.2" height="116" transform="translate(8.19995 24)" fill="#F3F7FB"/>
<path d="M115.185 32V32.5H116.2C116.434 32.5 116.663 32.5228 116.884 32.5664L116.979 32.0762C117.504 32.1799 117.992 32.3864 118.422 32.6738L118.144 33.0889C118.526 33.3445 118.855 33.6738 119.111 34.0557L119.525 33.7773C119.813 34.2067 120.019 34.6946 120.123 35.2197H120.124L119.634 35.3164C119.677 35.5371 119.7 35.7656 119.7 36V36.9287H120.2V38.7861H119.7V40.6426H120.2V42.5H119.7V44.3574H120.2V46.2139H119.7V48.0713H120.2V49.9287H119.7V51.7861H120.2V53.6426H119.7V55.5H120.2V57.3574H119.7V59.2139H120.2V61.0713H119.7V62C119.7 62.2344 119.677 62.4629 119.634 62.6836L120.123 62.7793C120.019 63.3045 119.813 63.7922 119.525 64.2217L119.111 63.9443C118.855 64.3262 118.526 64.6555 118.144 64.9111L118.422 65.3252C117.992 65.6127 117.504 65.8191 116.979 65.9229L116.884 65.4336C116.663 65.4772 116.434 65.5 116.2 65.5H115.185V66H113.156V65.5H111.127V66H109.097V65.5H107.067V66H105.038V65.5H103.009V66H100.979V65.5H98.95V66H96.9207V65.5H94.8914V66H92.8621V65.5H90.8328V66H88.8025V65.5H86.7732V66H84.7439V65.5H82.7146V66H80.6853V65.5H78.656V66H76.6267V65.5H74.5974V66H72.5671V65.5H70.5378V66H68.5085V65.5H66.4792V66H64.45V65.5H62.4207V66H60.3914V65.5H58.3621V66H56.3328V65.5H54.3025V66H52.2732V65.5H50.2439V66H48.2146V65.5H47.2C46.9656 65.5 46.737 65.4772 46.5164 65.4336L46.4197 65.9229C45.8946 65.819 45.4067 65.6128 44.9773 65.3252L45.2556 64.9111C44.8737 64.6555 44.5445 64.3262 44.2888 63.9443L43.8738 64.2217C43.5864 63.7923 43.3798 63.3044 43.2761 62.7793L43.7664 62.6836C43.7336 62.5181 43.7124 62.3482 43.7039 62.1748L43.7 62V61.0713H43.2V59.2139H43.7V57.3574H43.2V55.5H43.7V53.6426H43.2V51.7861H43.7V49.9287H43.2V48.0713H43.7V46.2139H43.2V44.3574H43.7V42.5H43.2V40.6426H43.7V38.7861H43.2V36.9287H43.7V36C43.7 35.7656 43.7227 35.5371 43.7664 35.3164L43.2761 35.2197C43.3799 34.6947 43.5863 34.2066 43.8738 33.7773L44.2888 34.0557C44.5445 33.6738 44.8737 33.3445 45.2556 33.0889L44.9773 32.6738C45.4066 32.3864 45.8947 32.18 46.4197 32.0762L46.5164 32.5664C46.737 32.5228 46.9656 32.5 47.2 32.5H48.2146V32H50.2439V32.5H52.2732V32H54.3025V32.5H56.3328V32H58.3621V32.5H60.3914V32H62.4207V32.5H64.45V32H66.4792V32.5H68.5085V32H70.5378V32.5H72.5671V32H74.5974V32.5H76.6267V32H78.656V32.5H80.6853V32H82.7146V32.5H84.7439V32H86.7732V32.5H88.8025V32H90.8328V32.5H92.8621V32H94.8914V32.5H96.9207V32H98.95V32.5H100.979V32H103.009V32.5H105.038V32H107.067V32.5H109.097V32H111.127V32.5H113.156V32H115.185Z" fill="#0056CF"/>
<path d="M115.185 32V32.5H116.2C116.434 32.5 116.663 32.5228 116.884 32.5664L116.979 32.0762C117.504 32.1799 117.992 32.3864 118.422 32.6738L118.144 33.0889C118.526 33.3445 118.855 33.6738 119.111 34.0557L119.525 33.7773C119.813 34.2067 120.019 34.6946 120.123 35.2197H120.124L119.634 35.3164C119.677 35.5371 119.7 35.7656 119.7 36V36.9287H120.2V38.7861H119.7V40.6426H120.2V42.5H119.7V44.3574H120.2V46.2139H119.7V48.0713H120.2V49.9287H119.7V51.7861H120.2V53.6426H119.7V55.5H120.2V57.3574H119.7V59.2139H120.2V61.0713H119.7V62C119.7 62.2344 119.677 62.4629 119.634 62.6836L120.123 62.7793C120.019 63.3045 119.813 63.7922 119.525 64.2217L119.111 63.9443C118.855 64.3262 118.526 64.6555 118.144 64.9111L118.422 65.3252C117.992 65.6127 117.504 65.8191 116.979 65.9229L116.884 65.4336C116.663 65.4772 116.434 65.5 116.2 65.5H115.185V66H113.156V65.5H111.127V66H109.097V65.5H107.067V66H105.038V65.5H103.009V66H100.979V65.5H98.95V66H96.9207V65.5H94.8914V66H92.8621V65.5H90.8328V66H88.8025V65.5H86.7732V66H84.7439V65.5H82.7146V66H80.6853V65.5H78.656V66H76.6267V65.5H74.5974V66H72.5671V65.5H70.5378V66H68.5085V65.5H66.4792V66H64.45V65.5H62.4207V66H60.3914V65.5H58.3621V66H56.3328V65.5H54.3025V66H52.2732V65.5H50.2439V66H48.2146V65.5H47.2C46.9656 65.5 46.737 65.4772 46.5164 65.4336L46.4197 65.9229C45.8946 65.819 45.4067 65.6128 44.9773 65.3252L45.2556 64.9111C44.8737 64.6555 44.5445 64.3262 44.2888 63.9443L43.8738 64.2217C43.5864 63.7923 43.3798 63.3044 43.2761 62.7793L43.7664 62.6836C43.7336 62.5181 43.7124 62.3482 43.7039 62.1748L43.7 62V61.0713H43.2V59.2139H43.7V57.3574H43.2V55.5H43.7V53.6426H43.2V51.7861H43.7V49.9287H43.2V48.0713H43.7V46.2139H43.2V44.3574H43.7V42.5H43.2V40.6426H43.7V38.7861H43.2V36.9287H43.7V36C43.7 35.7656 43.7227 35.5371 43.7664 35.3164L43.2761 35.2197C43.3799 34.6947 43.5863 34.2066 43.8738 33.7773L44.2888 34.0557C44.5445 33.6738 44.8737 33.3445 45.2556 33.0889L44.9773 32.6738C45.4066 32.3864 45.8947 32.18 46.4197 32.0762L46.5164 32.5664C46.737 32.5228 46.9656 32.5 47.2 32.5H48.2146V32H50.2439V32.5H52.2732V32H54.3025V32.5H56.3328V32H58.3621V32.5H60.3914V32H62.4207V32.5H64.45V32H66.4792V32.5H68.5085V32H70.5378V32.5H72.5671V32H74.5974V32.5H76.6267V32H78.656V32.5H80.6853V32H82.7146V32.5H84.7439V32H86.7732V32.5H88.8025V32H90.8328V32.5H92.8621V32H94.8914V32.5H96.9207V32H98.95V32.5H100.979V32H103.009V32.5H105.038V32H107.067V32.5H109.097V32H111.127V32.5H113.156V32H115.185Z" stroke="#0056CF" stroke-dasharray="2 2"/>
<path d="M99.5422 48.36L101.546 46.2H101.582V47.568H103.214V48.492H101.582V51.576C101.582 52.26 101.882 52.572 102.554 52.572C102.782 52.572 103.034 52.512 103.214 52.392V53.352C103.01 53.46 102.71 53.532 102.314 53.532C101.21 53.532 100.55 52.848 100.55 51.72V48.492H99.5422V48.36Z" fill="white"/>
<path d="M94.3346 50.352V53.4H93.3026V47.568H94.3346V48.408C94.6946 47.832 95.3186 47.436 96.1946 47.436C97.6826 47.436 98.5466 48.432 98.5466 49.98V53.4H97.5146V50.1C97.5146 49.056 96.9746 48.396 95.9786 48.396C94.9826 48.396 94.3346 49.164 94.3346 50.352Z" fill="white"/>
<path d="M91.5542 51.672V52.788C90.9062 53.256 90.1142 53.532 89.2982 53.532C87.4382 53.532 86.2382 52.2 86.2382 50.484C86.2382 48.744 87.4382 47.436 89.1182 47.436C90.7502 47.436 91.8662 48.78 91.8662 50.436C91.8662 50.664 91.8422 50.808 91.8422 50.808H87.2702C87.3542 51.78 88.1582 52.596 89.3702 52.596C90.1142 52.596 90.8342 52.296 91.5542 51.672ZM87.2942 49.956H90.8222C90.7382 49.032 90.0542 48.336 89.0942 48.336C88.1222 48.336 87.3662 49.164 87.2942 49.956Z" fill="white"/>
<path d="M77.1432 50.34V53.4H76.1112V47.568H77.1312V48.408C77.4552 47.808 78.0432 47.436 78.8472 47.436C79.7112 47.436 80.3352 47.868 80.6832 48.576C80.9712 48.084 81.5712 47.436 82.6752 47.436C84.0192 47.436 84.8232 48.384 84.8232 49.884V53.4H83.7912V50.064C83.7912 49.032 83.3472 48.384 82.4712 48.384C81.5712 48.384 80.9832 49.152 80.9832 50.34V53.4H79.9512V50.088C79.9512 49.044 79.4952 48.384 78.6312 48.384C77.7312 48.384 77.1432 49.152 77.1432 50.34Z" fill="white"/>
<path d="M74.3628 51.672V52.788C73.7148 53.256 72.9228 53.532 72.1068 53.532C70.2468 53.532 69.0468 52.2 69.0468 50.484C69.0468 48.744 70.2468 47.436 71.9268 47.436C73.5588 47.436 74.6748 48.78 74.6748 50.436C74.6748 50.664 74.6508 50.808 74.6508 50.808H70.0788C70.1628 51.78 70.9668 52.596 72.1788 52.596C72.9228 52.596 73.6428 52.296 74.3628 51.672ZM70.1028 49.956H73.6308C73.5468 49.032 72.8628 48.336 71.9028 48.336C70.9308 48.336 70.1748 49.164 70.1028 49.956Z" fill="white"/>
<path d="M66.5135 45H67.5456V53.4H66.5135V45Z" fill="white"/>
<path d="M60.2 53.4V45H64.868V45.984H61.268V48.552H64.616V49.524H61.268V52.416H64.892V53.4H60.2Z" fill="white"/>
<path d="M115.185 65V65.5H116.2C116.434 65.5 116.663 65.5228 116.884 65.5664L116.979 65.0762C117.504 65.1799 117.992 65.3864 118.422 65.6738L118.144 66.0889C118.526 66.3445 118.855 66.6738 119.111 67.0557L119.525 66.7773C119.813 67.2067 120.019 67.6946 120.123 68.2197H120.124L119.634 68.3164C119.677 68.5371 119.7 68.7656 119.7 69V69.9287H120.2V71.7861H119.7V73.6426H120.2V75.5H119.7V77.3574H120.2V79.2139H119.7V81.0713H120.2V82.9287H119.7V84.7861H120.2V86.6426H119.7V88.5H120.2V90.3574H119.7V92.2139H120.2V94.0713H119.7V95C119.7 95.2344 119.677 95.4629 119.634 95.6836L120.123 95.7793C120.019 96.3045 119.813 96.7922 119.525 97.2217L119.111 96.9443C118.855 97.3262 118.526 97.6555 118.144 97.9111L118.422 98.3252C117.992 98.6127 117.504 98.8191 116.979 98.9229L116.884 98.4336C116.663 98.4772 116.434 98.5 116.2 98.5H115.185V99H113.156V98.5H111.127V99H109.097V98.5H107.067V99H105.038V98.5H103.009V99H100.979V98.5H98.95V99H96.9207V98.5H94.8914V99H92.8621V98.5H90.8328V99H88.8025V98.5H86.7732V99H84.7439V98.5H82.7146V99H80.6853V98.5H78.656V99H76.6267V98.5H74.5974V99H72.5671V98.5H70.5378V99H68.5085V98.5H66.4792V99H64.45V98.5H62.4207V99H60.3914V98.5H58.3621V99H56.3328V98.5H54.3025V99H52.2732V98.5H50.2439V99H48.2146V98.5H47.2C46.9656 98.5 46.737 98.4772 46.5164 98.4336L46.4197 98.9229C45.8946 98.819 45.4067 98.6128 44.9773 98.3252L45.2556 97.9111C44.8737 97.6555 44.5445 97.3262 44.2888 96.9443L43.8738 97.2217C43.5864 96.7923 43.3798 96.3044 43.2761 95.7793L43.7664 95.6836C43.7336 95.5181 43.7124 95.3482 43.7039 95.1748L43.7 95V94.0713H43.2V92.2139H43.7V90.3574H43.2V88.5H43.7V86.6426H43.2V84.7861H43.7V82.9287H43.2V81.0713H43.7V79.2139H43.2V77.3574H43.7V75.5H43.2V73.6426H43.7V71.7861H43.2V69.9287H43.7V69C43.7 68.7656 43.7227 68.5371 43.7664 68.3164L43.2761 68.2197C43.3799 67.6947 43.5863 67.2066 43.8738 66.7773L44.2888 67.0557C44.5445 66.6738 44.8737 66.3445 45.2556 66.0889L44.9773 65.6738C45.4066 65.3864 45.8947 65.18 46.4197 65.0762L46.5164 65.5664C46.737 65.5228 46.9656 65.5 47.2 65.5H48.2146V65H50.2439V65.5H52.2732V65H54.3025V65.5H56.3328V65H58.3621V65.5H60.3914V65H62.4207V65.5H64.45V65H66.4792V65.5H68.5085V65H70.5378V65.5H72.5671V65H74.5974V65.5H76.6267V65H78.656V65.5H80.6853V65H82.7146V65.5H84.7439V65H86.7732V65.5H88.8025V65H90.8328V65.5H92.8621V65H94.8914V65.5H96.9207V65H98.95V65.5H100.979V65H103.009V65.5H105.038V65H107.067V65.5H109.097V65H111.127V65.5H113.156V65H115.185Z" stroke="#0056CF" stroke-dasharray="2 2"/>
<path d="M99.5422 81.3601L101.546 79.2001H101.582V80.5681H103.214V81.4921H101.582V84.5761C101.582 85.2601 101.882 85.5721 102.554 85.5721C102.782 85.5721 103.034 85.5121 103.214 85.3921V86.3521C103.01 86.4601 102.71 86.5321 102.314 86.5321C101.21 86.5321 100.55 85.8481 100.55 84.7201V81.4921H99.5422V81.3601Z" fill="#C1CDD6"/>
<path d="M94.3346 83.352V86.4H93.3026V80.568H94.3346V81.408C94.6946 80.832 95.3186 80.436 96.1946 80.436C97.6826 80.436 98.5466 81.432 98.5466 82.98V86.4H97.5146V83.1C97.5146 82.056 96.9746 81.396 95.9786 81.396C94.9826 81.396 94.3346 82.164 94.3346 83.352Z" fill="#C1CDD6"/>
<path d="M91.5542 84.672V85.788C90.9062 86.256 90.1142 86.532 89.2982 86.532C87.4382 86.532 86.2382 85.2 86.2382 83.484C86.2382 81.744 87.4382 80.436 89.1182 80.436C90.7502 80.436 91.8662 81.78 91.8662 83.436C91.8662 83.664 91.8422 83.808 91.8422 83.808H87.2702C87.3542 84.78 88.1582 85.596 89.3702 85.596C90.1142 85.596 90.8342 85.296 91.5542 84.672ZM87.2942 82.956H90.8222C90.7382 82.032 90.0542 81.336 89.0942 81.336C88.1222 81.336 87.3662 82.164 87.2942 82.956Z" fill="#C1CDD6"/>
<path d="M77.1432 83.34V86.4H76.1112V80.568H77.1312V81.408C77.4552 80.808 78.0432 80.436 78.8472 80.436C79.7112 80.436 80.3352 80.868 80.6832 81.576C80.9712 81.084 81.5712 80.436 82.6752 80.436C84.0192 80.436 84.8232 81.384 84.8232 82.884V86.4H83.7912V83.064C83.7912 82.032 83.3472 81.384 82.4712 81.384C81.5712 81.384 80.9832 82.152 80.9832 83.34V86.4H79.9512V83.088C79.9512 82.044 79.4952 81.384 78.6312 81.384C77.7312 81.384 77.1432 82.152 77.1432 83.34Z" fill="#C1CDD6"/>
<path d="M74.3628 84.672V85.788C73.7148 86.256 72.9228 86.532 72.1068 86.532C70.2468 86.532 69.0468 85.2 69.0468 83.484C69.0468 81.744 70.2468 80.436 71.9268 80.436C73.5588 80.436 74.6748 81.78 74.6748 83.436C74.6748 83.664 74.6508 83.808 74.6508 83.808H70.0788C70.1628 84.78 70.9668 85.596 72.1788 85.596C72.9228 85.596 73.6428 85.296 74.3628 84.672ZM70.1028 82.956H73.6308C73.5468 82.032 72.8628 81.336 71.9028 81.336C70.9308 81.336 70.1748 82.164 70.1028 82.956Z" fill="#C1CDD6"/>
<path d="M66.5135 78H67.5456V86.4H66.5135V78Z" fill="#C1CDD6"/>
<path d="M60.2 86.4V78H64.868V78.984H61.268V81.552H64.616V82.524H61.268V85.416H64.892V86.4H60.2Z" fill="#C1CDD6"/>
</svg>
