<svg width="164" height="164" viewBox="0 0 164 164" fill="none" xmlns="http://www.w3.org/2000/svg">
<rect width="163.2" height="163.2" fill="white"/>
<path d="M8 24H155.2V140H8V24Z" fill="#F3F7FB"/>
<rect x="43" y="32" width="77" height="34" rx="4" fill="#0056CF"/>
<path d="M99.4221 47.96L101.426 45.8H101.462V47.168H103.094V48.092H101.462V51.176C101.462 51.86 101.762 52.172 102.434 52.172C102.662 52.172 102.914 52.112 103.094 51.992V52.952C102.89 53.06 102.59 53.132 102.194 53.132C101.09 53.132 100.43 52.448 100.43 51.32V48.092H99.4221V47.96Z" fill="white"/>
<path d="M94.2146 49.952V53H93.1826V47.168H94.2146V48.008C94.5746 47.432 95.1986 47.036 96.0746 47.036C97.5626 47.036 98.4266 48.032 98.4266 49.58V53H97.3946V49.7C97.3946 48.656 96.8546 47.996 95.8586 47.996C94.8626 47.996 94.2146 48.764 94.2146 49.952Z" fill="white"/>
<path d="M91.4341 51.272V52.388C90.7861 52.856 89.9941 53.132 89.1781 53.132C87.3181 53.132 86.1181 51.8 86.1181 50.084C86.1181 48.344 87.3181 47.036 88.9981 47.036C90.6301 47.036 91.7461 48.38 91.7461 50.036C91.7461 50.264 91.7221 50.408 91.7221 50.408H87.1501C87.2341 51.38 88.0381 52.196 89.2501 52.196C89.9941 52.196 90.7141 51.896 91.4341 51.272ZM87.1741 49.556H90.7021C90.6181 48.632 89.9341 47.936 88.9741 47.936C88.0021 47.936 87.2461 48.764 87.1741 49.556Z" fill="white"/>
<path d="M77.0232 49.94V53H75.9912V47.168H77.0112V48.008C77.3352 47.408 77.9232 47.036 78.7272 47.036C79.5912 47.036 80.2152 47.468 80.5632 48.176C80.8512 47.684 81.4512 47.036 82.5552 47.036C83.8992 47.036 84.7032 47.984 84.7032 49.484V53H83.6712V49.664C83.6712 48.632 83.2272 47.984 82.3512 47.984C81.4512 47.984 80.8632 48.752 80.8632 49.94V53H79.8312V49.688C79.8312 48.644 79.3752 47.984 78.5112 47.984C77.6112 47.984 77.0232 48.752 77.0232 49.94Z" fill="white"/>
<path d="M74.2427 51.272V52.388C73.5947 52.856 72.8027 53.132 71.9867 53.132C70.1267 53.132 68.9267 51.8 68.9267 50.084C68.9267 48.344 70.1267 47.036 71.8067 47.036C73.4387 47.036 74.5547 48.38 74.5547 50.036C74.5547 50.264 74.5307 50.408 74.5307 50.408H69.9587C70.0427 51.38 70.8467 52.196 72.0587 52.196C72.8027 52.196 73.5227 51.896 74.2427 51.272ZM69.9827 49.556H73.5107C73.4267 48.632 72.7427 47.936 71.7827 47.936C70.8107 47.936 70.0547 48.764 69.9827 49.556Z" fill="white"/>
<path d="M66.3935 44.6H67.4255V53H66.3935V44.6Z" fill="white"/>
<path d="M60.08 53V44.6H64.748V45.584H61.148V48.152H64.496V49.124H61.148V52.016H64.772V53H60.08Z" fill="white"/>
<path d="M99.3422 81.36L101.346 79.2H101.382V80.568H103.014V81.492H101.382V84.576C101.382 85.26 101.682 85.572 102.354 85.572C102.582 85.572 102.834 85.512 103.014 85.392V86.352C102.81 86.46 102.51 86.532 102.114 86.532C101.01 86.532 100.35 85.848 100.35 84.72V81.492H99.3422V81.36Z" fill="#C1CDD6"/>
<path d="M94.1347 83.352V86.4H93.1027V80.568H94.1347V81.408C94.4947 80.832 95.1187 80.436 95.9947 80.436C97.4827 80.436 98.3467 81.432 98.3467 82.98V86.4H97.3147V83.1C97.3147 82.056 96.7747 81.396 95.7787 81.396C94.7827 81.396 94.1347 82.164 94.1347 83.352Z" fill="#C1CDD6"/>
<path d="M91.3541 84.672V85.788C90.7061 86.256 89.9141 86.532 89.0981 86.532C87.2381 86.532 86.0381 85.2 86.0381 83.484C86.0381 81.744 87.2381 80.436 88.9181 80.436C90.5501 80.436 91.6661 81.78 91.6661 83.436C91.6661 83.664 91.6421 83.808 91.6421 83.808H87.0701C87.1541 84.78 87.9581 85.596 89.1701 85.596C89.9141 85.596 90.6341 85.296 91.3541 84.672ZM87.0941 82.956H90.6221C90.5381 82.032 89.8541 81.336 88.8941 81.336C87.9221 81.336 87.1661 82.164 87.0941 82.956Z" fill="#C1CDD6"/>
<path d="M76.9432 83.34V86.4H75.9112V80.568H76.9312V81.408C77.2552 80.808 77.8432 80.436 78.6472 80.436C79.5112 80.436 80.1352 80.868 80.4832 81.576C80.7712 81.084 81.3712 80.436 82.4752 80.436C83.8192 80.436 84.6232 81.384 84.6232 82.884V86.4H83.5912V83.064C83.5912 82.032 83.1472 81.384 82.2712 81.384C81.3712 81.384 80.7832 82.152 80.7832 83.34V86.4H79.7512V83.088C79.7512 82.044 79.2952 81.384 78.4312 81.384C77.5312 81.384 76.9432 82.152 76.9432 83.34Z" fill="#C1CDD6"/>
<path d="M74.1627 84.672V85.788C73.5147 86.256 72.7227 86.532 71.9067 86.532C70.0467 86.532 68.8467 85.2 68.8467 83.484C68.8467 81.744 70.0467 80.436 71.7267 80.436C73.3587 80.436 74.4747 81.78 74.4747 83.436C74.4747 83.664 74.4507 83.808 74.4507 83.808H69.8787C69.9627 84.78 70.7667 85.596 71.9787 85.596C72.7227 85.596 73.4427 85.296 74.1627 84.672ZM69.9027 82.956H73.4307C73.3467 82.032 72.6627 81.336 71.7027 81.336C70.7307 81.336 69.9747 82.164 69.9027 82.956Z" fill="#C1CDD6"/>
<path d="M66.3136 78H67.3456V86.4H66.3136V78Z" fill="#C1CDD6"/>
<path d="M60 86.4V78H64.668V78.984H61.068V81.552H64.416V82.524H61.068V85.416H64.692V86.4H60Z" fill="#C1CDD6"/>
<path d="M46.4131 97.9434C46.602 97.9807 46.7984 98 47 98V99C46.7329 99 46.4722 98.9728 46.2197 98.9229L46.4131 97.9434ZM48.0146 98V99H47V98H48.0146ZM52.0732 98V99H50.0439V98H52.0732ZM56.1328 98V99H54.1025V98H56.1328ZM60.1914 98V99H58.1621V98H60.1914ZM64.25 98V99H62.2207V98H64.25ZM68.3086 98V99H66.2793V98H68.3086ZM72.3672 98V99H70.3379V98H72.3672ZM76.4268 98V99H74.3975V98H76.4268ZM80.4854 98V99H78.4561V98H80.4854ZM84.5439 98V99H82.5146V98H84.5439ZM88.6025 98V99H86.5732V98H88.6025ZM92.6621 98V99H90.6328V98H92.6621ZM96.7207 98V99H94.6914V98H96.7207ZM100.779 98V99H98.75V98H100.779ZM104.838 98V99H102.809V98H104.838ZM108.897 98V99H106.867V98H108.897ZM112.956 98V99H110.927V98H112.956ZM116 98V99H114.985V98H116ZM116.684 98.4336L116.779 98.9229C116.527 98.9727 116.267 99 116 99V98C116.202 98 116.398 97.9807 116.587 97.9434L116.684 98.4336ZM44.5049 96.666C44.7242 96.9936 45.0064 97.2758 45.334 97.4951L45.0547 97.9102L45.0557 97.9111L44.7773 98.3252C44.3412 98.0331 43.9658 97.6579 43.6738 97.2217L44.5049 96.666ZM118.91 96.9443L119.325 97.2217C119.033 97.6579 118.658 98.0331 118.222 98.3252L118.062 98.0869L117.944 97.9111L117.666 97.4951C117.994 97.2758 118.276 96.9936 118.495 96.666L118.91 96.9443ZM43 95V94.0713H44V95C44 95.2016 44.0193 95.398 44.0566 95.5869L43.5664 95.6836L43.0762 95.7793C43.0393 95.5925 43.0148 95.4012 43.0049 95.2061L43 95ZM120 95C120 95.2668 119.973 95.5272 119.923 95.7793L119.434 95.6836L118.943 95.5869C118.981 95.398 119 95.2016 119 95V94.0713H120V95ZM44 90.3574V92.2139H43V90.3574H44ZM120 90.3574V92.2139H119V90.3574H120ZM44 86.6426V88.5H43V86.6426H44ZM120 86.6426V88.5H119V86.6426H120ZM44 82.9287V84.7861H43V82.9287H44ZM120 82.9287V84.7861H119V82.9287H120ZM44 79.2139V81.0713H43V79.2139H44ZM120 79.2139V81.0713H119V79.2139H120ZM44 75.5V77.3574H43V75.5H44ZM120 75.5V77.3574H119V75.5H120ZM44 71.7861V73.6426H43V71.7861H44ZM120 71.7861V73.6426H119V71.7861H120ZM43 69C43 68.7928 43.0155 68.5893 43.0459 68.3906L43.0762 68.2197L44.0566 68.4131C44.0193 68.602 44 68.7984 44 69V69.9287H43V69ZM119.923 68.2197C119.973 68.4722 120 68.7329 120 69V69.9287H119V69C119 68.7984 118.981 68.602 118.943 68.4131L119.923 68.2197ZM44.9805 65.9775L45.334 66.5049C45.0064 66.7242 44.7242 67.0064 44.5049 67.334L43.8789 66.915L43.6738 66.7773C43.9658 66.3413 44.3413 65.9658 44.7773 65.6738L44.9805 65.9775ZM118.222 65.6738C118.658 65.9658 119.033 66.3412 119.325 66.7773L119.121 66.915L118.495 67.334C118.276 67.0064 117.994 66.7242 117.666 66.5049L118.02 65.9775L118.222 65.6738ZM48.0146 65V66H47C46.7984 66 46.602 66.0193 46.4131 66.0566L46.2197 65.0762C46.4068 65.0392 46.5985 65.0148 46.7939 65.0049L47 65H48.0146ZM116.206 65.0049C116.401 65.0148 116.593 65.0393 116.779 65.0762L116.587 66.0566C116.398 66.0193 116.202 66 116 66H114.985V65H116L116.206 65.0049ZM52.0732 65V66H50.0439V65H52.0732ZM56.1328 65V66H54.1025V65H56.1328ZM60.1914 65V66H58.1621V65H60.1914ZM64.25 65V66H62.2207V65H64.25ZM68.3086 65V66H66.2793V65H68.3086ZM72.3672 65V66H70.3379V65H72.3672ZM76.4268 65V66H74.3975V65H76.4268ZM80.4854 65V66H78.4561V65H80.4854ZM84.5439 65V66H82.5146V65H84.5439ZM88.6025 65V66H86.5732V65H88.6025ZM92.6621 65V66H90.6328V65H92.6621ZM96.7207 65V66H94.6914V65H96.7207ZM100.779 65V66H98.75V65H100.779ZM104.838 65V66H102.809V65H104.838ZM108.897 65V66H106.867V65H108.897ZM112.956 65V66H110.927V65H112.956Z" fill="#0056CF"/>
</svg>
