<svg width="30" height="25" viewBox="0 0 30 25" fill="none" xmlns="http://www.w3.org/2000/svg">
  <path fill-rule="evenodd" clip-rule="evenodd" d="M5.62488 6.28574C5.62488 6.07863 5.79277 5.91074 5.99988 5.91074H23.9999C24.207 5.91074 24.3749 6.07863 24.3749 6.28574V7.92165L14.9999 13.9502L5.62488 7.92163V6.28574ZM3.37488 8.5181C3.37472 8.52916 3.37472 8.54021 3.37488 8.55126V18.2857C3.37488 19.7355 4.55013 20.9107 5.99988 20.9107H23.9999C25.4496 20.9107 26.6249 19.7355 26.6249 18.2857V8.55315C26.6251 8.54084 26.6251 8.52853 26.6249 8.51621V6.28574C26.6249 4.83599 25.4496 3.66074 23.9999 3.66074H5.99988C4.55013 3.66074 3.37488 4.83599 3.37488 6.28574V8.5181ZM24.3749 10.5967V18.2857C24.3749 18.4928 24.207 18.6607 23.9999 18.6607H5.99988C5.79277 18.6607 5.62488 18.4928 5.62488 18.2857V10.5967L14.1886 16.1036C14.6828 16.4214 15.317 16.4214 15.8112 16.1036L24.3749 10.5967Z" fill="black"/>
</svg>
