<svg width="31" height="24" viewBox="0 0 31 24" fill="none" xmlns="http://www.w3.org/2000/svg">
    <path d="M4.12196 12.2345L25.122 0.234469C25.5907 -0.0467808 26.247 -0.0467808 26.7157 0.281344C27.1845 0.609469 27.4188 1.17197 27.3251 1.73447L24.3251 21.2345C24.1845 22.172 23.1532 22.7813 22.2626 22.4063L16.4501 19.9688L13.5438 23.4845C13.2626 23.8126 12.8407 24.0001 12.372 24.0001C11.5282 24.0001 10.872 23.3438 10.872 22.5001V17.6251L4.26259 14.9063C3.13759 14.4376 3.04384 12.8438 4.12196 12.2345ZM6.55946 13.4063L12.3251 15.797L12.2782 15.7501L22.5438 4.26572L6.55946 13.4063ZM22.2626 19.9688L24.4657 5.48447L14.4345 16.6876L22.2626 19.9688Z" fill="#242B42"/>
</svg>