<svg width="31" height="25" viewBox="0 0 31 25" fill="none" xmlns="http://www.w3.org/2000/svg">
  <path d="M17.4043 1.85547C17.4043 2.69922 16.7012 3.35547 15.9043 3.35547C15.0605 3.35547 14.4043 2.69922 14.4043 1.85547C14.4043 1.05859 15.0605 0.355469 15.9043 0.355469C16.7012 0.355469 17.4043 1.05859 17.4043 1.85547ZM17.4043 22.8555C17.4043 23.6992 16.7012 24.3555 15.9043 24.3555C15.0605 24.3555 14.4043 23.6992 14.4043 22.8555C14.4043 22.0586 15.0605 21.3555 15.9043 21.3555C16.7012 21.3555 17.4043 22.0586 17.4043 22.8555ZM24.9043 12.3555C24.9043 11.5586 25.5605 10.8555 26.4043 10.8555C27.2012 10.8555 27.9043 11.5586 27.9043 12.3555C27.9043 13.1992 27.2012 13.8555 26.4043 13.8555C25.5605 13.8555 24.9043 13.1992 24.9043 12.3555ZM5.4043 13.8555C4.56055 13.8555 3.9043 13.1992 3.9043 12.3555C3.9043 11.5586 4.56055 10.8555 5.4043 10.8555C6.20117 10.8555 6.9043 11.5586 6.9043 12.3555C6.9043 13.1992 6.20117 13.8555 5.4043 13.8555ZM7.41992 20.8398C6.81055 20.2773 6.81055 19.3398 7.41992 18.7305C7.98242 18.168 8.91992 18.168 9.5293 18.7305C10.0918 19.3398 10.0918 20.2773 9.5293 20.8398C8.91992 21.4492 7.98242 21.4492 7.41992 20.8398ZM22.2324 20.8398C21.8574 20.5117 21.6699 19.9023 21.8105 19.3867C21.9512 18.8711 22.373 18.4492 22.8887 18.3086C23.4043 18.168 24.0137 18.3555 24.3887 18.7305C24.7637 19.1055 24.9512 19.668 24.8105 20.2305C24.6699 20.7461 24.248 21.168 23.7324 21.3086C23.1699 21.4492 22.6074 21.2617 22.2324 20.8398ZM7.41992 3.87109C7.98242 3.30859 8.91992 3.30859 9.5293 3.87109C10.0918 4.48047 10.0918 5.41797 9.5293 6.02734C8.91992 6.58984 7.98242 6.58984 7.41992 6.02734C6.81055 5.41797 6.81055 4.48047 7.41992 3.87109Z" fill="#242B42"/>
</svg>
