<svg width="362" height="159" viewBox="0 0 362 159" fill="none" xmlns="http://www.w3.org/2000/svg">
<g clip-path="url(#clip0_2266_14398)">
<g clip-path="url(#clip1_2266_14398)">
<rect x="-149.682" y="-115" width="661" height="388" fill="#0A0527" fill-opacity="0.4"/>
<g filter="url(#filter0_dd_2266_14398)">
<g clip-path="url(#clip2_2266_14398)">
<path d="M43.5342 26.072C43.5342 24.2456 45.0147 22.7651 46.841 22.7651H315.796C317.622 22.7651 319.102 24.2456 319.102 26.072V130.964C319.102 132.79 317.622 134.271 315.796 134.271H46.841C45.0147 134.271 43.5342 132.79 43.5342 130.964V26.072Z" fill="white"/>
<path d="M53.1214 40.5835V34.6037H53.8817V37.1237H57.0937V34.6037H57.854V40.5835H57.0937V37.8413H53.8817V40.5835H53.1214ZM62.8224 39.3534V40.1478C62.3611 40.481 61.7973 40.6775 61.2164 40.6775C59.8923 40.6775 59.038 39.7292 59.038 38.5076C59.038 37.269 59.8923 36.3378 61.0882 36.3378C62.25 36.3378 63.0445 37.2946 63.0445 38.4735C63.0445 38.6358 63.0274 38.7383 63.0274 38.7383H59.7727C59.8325 39.4302 60.4048 40.0111 61.2676 40.0111C61.7973 40.0111 62.3098 39.7976 62.8224 39.3534ZM59.7897 38.1318H62.3013C62.2415 37.474 61.7545 36.9785 61.0711 36.9785C60.3792 36.9785 59.841 37.568 59.7897 38.1318ZM66.4616 37.9438V37.8413C66.4616 37.3202 66.0943 37.0041 65.4792 37.0041C64.9154 37.0041 64.4968 37.2348 64.0697 37.6278V36.8589C64.4455 36.5514 64.8983 36.3378 65.4963 36.3378C66.5641 36.3378 67.1792 36.9273 67.1792 37.8926V40.5835H66.4872V40.0368C66.1626 40.4554 65.6586 40.6775 65.1119 40.6775C64.3772 40.6775 63.8561 40.1735 63.8561 39.49C63.8561 38.7468 64.3259 38.3026 65.24 38.1489L66.4616 37.9438ZM64.5908 39.4473C64.5908 39.7976 64.8641 40.0282 65.2485 40.0282C65.9576 40.0282 66.4701 39.5669 66.4701 38.9262V38.576L65.3596 38.7725C64.8641 38.8664 64.5908 39.0885 64.5908 39.4473ZM71.7567 34.6037H72.4829V40.5835H71.7567V39.9257C71.4577 40.3785 70.8939 40.6775 70.2874 40.6775C69.1085 40.6775 68.203 39.7378 68.203 38.5076C68.203 37.286 69.1085 36.3378 70.2874 36.3378C70.8939 36.3378 71.4492 36.6026 71.7567 37.0554V34.6037ZM71.7994 38.5076C71.7994 37.6705 71.1844 37.0127 70.3728 37.0127C69.5613 37.0127 68.9462 37.6705 68.9462 38.5076C68.9462 39.3448 69.5613 40.0026 70.3728 40.0026C71.1844 40.0026 71.7994 39.3448 71.7994 38.5076ZM77.3624 39.3534V40.1478C76.9011 40.481 76.3373 40.6775 75.7564 40.6775C74.4323 40.6775 73.578 39.7292 73.578 38.5076C73.578 37.269 74.4323 36.3378 75.6283 36.3378C76.7901 36.3378 77.5845 37.2946 77.5845 38.4735C77.5845 38.6358 77.5674 38.7383 77.5674 38.7383H74.3127C74.3725 39.4302 74.9449 40.0111 75.8077 40.0111C76.3373 40.0111 76.8499 39.7976 77.3624 39.3534ZM74.3298 38.1318H76.8413C76.7815 37.474 76.2946 36.9785 75.6112 36.9785C74.9192 36.9785 74.381 37.568 74.3298 38.1318ZM80.8046 36.3805V37.1152C80.8046 37.1152 80.7277 37.0981 80.5995 37.0981C79.8307 37.0981 79.3608 37.7132 79.3608 38.6102V40.5835H78.6347V36.4318H79.3523V37.1665C79.5402 36.6881 80.0784 36.3634 80.6252 36.3634C80.7277 36.3634 80.8046 36.3805 80.8046 36.3805ZM83.3069 36.9956L84.7335 35.4579H84.7591V36.4318H85.9209V37.0896H84.7591V39.285C84.7591 39.7719 84.9727 39.9941 85.4511 39.9941C85.6134 39.9941 85.7928 39.9513 85.9209 39.8659V40.5493C85.7757 40.6262 85.5621 40.6775 85.2802 40.6775C84.4943 40.6775 84.0244 40.1905 84.0244 39.3875V37.0896H83.3069V36.9956ZM90.37 39.3534V40.1478C89.9087 40.481 89.3449 40.6775 88.764 40.6775C87.4399 40.6775 86.5856 39.7292 86.5856 38.5076C86.5856 37.269 87.4399 36.3378 88.6358 36.3378C89.7976 36.3378 90.5921 37.2946 90.5921 38.4735C90.5921 38.6358 90.575 38.7383 90.575 38.7383H87.3203C87.3801 39.4302 87.9524 40.0111 88.8152 40.0111C89.3449 40.0111 89.8574 39.7976 90.37 39.3534ZM87.3374 38.1318H89.8489C89.7891 37.474 89.3022 36.9785 88.6188 36.9785C87.9268 36.9785 87.3886 37.568 87.3374 38.1318ZM94.0303 40.5835L92.8941 38.9775L91.7494 40.5835H90.9208L92.467 38.4649L90.9891 36.4318H91.8434L92.9112 37.9353L93.9876 36.4318H94.8248L93.3469 38.4478L94.8931 40.5835H94.0303ZM95.2024 36.9956L96.629 35.4579H96.6546V36.4318H97.8164V37.0896H96.6546V39.285C96.6546 39.7719 96.8682 39.9941 97.3466 39.9941C97.5089 39.9941 97.6883 39.9513 97.8164 39.8659V40.5493C97.6712 40.6262 97.4576 40.6775 97.1757 40.6775C96.3898 40.6775 95.9199 40.1905 95.9199 39.3875V37.0896H95.2024V36.9956Z" fill="#242B42"/>
<path d="M307.408 34.1363L305.341 36.2031L307.391 38.2526C307.563 38.4076 307.563 38.666 307.391 38.821C307.236 38.9932 306.978 38.9932 306.823 38.821L304.756 36.7714L302.706 38.821C302.551 38.9932 302.293 38.9932 302.138 38.821C301.966 38.666 301.966 38.4076 302.138 38.2354L304.187 36.1859L302.138 34.1363C301.966 33.9813 301.966 33.723 302.138 33.5507C302.293 33.3957 302.551 33.3957 302.723 33.5507L304.773 35.6175L306.823 33.568C306.978 33.3957 307.236 33.3957 307.408 33.568C307.563 33.723 307.563 33.9813 307.408 34.1363Z" fill="#242B42"/>
<rect width="137.784" height="0.551136" transform="matrix(1 0 0 -1 43.5342 52.9526)" fill="#E4E8F0"/>
<rect width="137.784" height="0.551136" transform="matrix(1 0 0 -1 181.318 52.9526)" fill="#E4E8F0"/>
<path d="M54.9239 64.7912H55.5218L57.9821 70.771H57.1791L56.4786 69.0368H53.9415L53.241 70.771H52.4551L54.9239 64.7912ZM55.2058 65.859L54.2148 68.3449H56.2053L55.2058 65.859ZM62.0495 64.7912H62.7756V70.771H62.0495V70.1132C61.7505 70.566 61.1867 70.865 60.5801 70.865C59.4013 70.865 58.4957 69.9253 58.4957 68.6951C58.4957 67.4735 59.4013 66.5253 60.5801 66.5253C61.1867 66.5253 61.7419 66.7901 62.0495 67.2429V64.7912ZM62.0922 68.6951C62.0922 67.858 61.4771 67.2002 60.6656 67.2002C59.854 67.2002 59.2389 67.858 59.2389 68.6951C59.2389 69.5323 59.854 70.1901 60.6656 70.1901C61.4771 70.1901 62.0922 69.5323 62.0922 68.6951ZM67.4245 64.7912H68.1506V70.771H67.4245V70.1132C67.1255 70.566 66.5617 70.865 65.9552 70.865C64.7763 70.865 63.8708 69.9253 63.8708 68.6951C63.8708 67.4735 64.7763 66.5253 65.9552 66.5253C66.5617 66.5253 67.117 66.7901 67.4245 67.2429V64.7912ZM67.4672 68.6951C67.4672 67.858 66.8521 67.2002 66.0406 67.2002C65.229 67.2002 64.614 67.858 64.614 68.6951C64.614 69.5323 65.229 70.1901 66.0406 70.1901C66.8521 70.1901 67.4672 69.5323 67.4672 68.6951ZM75.2115 66.6193L73.2125 71.4031C72.8366 72.3001 72.4693 72.6504 71.8457 72.6504C71.6663 72.6504 71.5125 72.6162 71.3929 72.5649V71.9157C71.4869 71.9499 71.6321 71.984 71.7859 71.984C72.1191 71.984 72.3155 71.7876 72.5376 71.2579L72.7854 70.6599L71.1367 66.6193H71.9226L73.1698 69.8228L74.4512 66.6193H75.2115ZM77.8193 66.5253C79.0665 66.5253 79.9891 67.4906 79.9891 68.6951C79.9891 69.8996 79.0665 70.865 77.8193 70.865C76.5721 70.865 75.6495 69.8996 75.6495 68.6951C75.6495 67.4906 76.5721 66.5253 77.8193 66.5253ZM77.8193 67.2002C77.0078 67.2002 76.3927 67.8665 76.3927 68.6951C76.3927 69.5238 77.0078 70.1901 77.8193 70.1901C78.6309 70.1901 79.2459 69.5238 79.2459 68.6951C79.2459 67.8665 78.6309 67.2002 77.8193 67.2002ZM83.9696 68.7891V66.6193H84.7042V70.771H83.9696V70.173C83.7133 70.5831 83.2776 70.865 82.654 70.865C81.6033 70.865 80.9968 70.1559 80.9968 69.0539V66.6193H81.7314V68.9685C81.7314 69.7117 82.1073 70.1816 82.8078 70.1816C83.5083 70.1816 83.9696 69.6348 83.9696 68.7891ZM88.3928 66.568V67.3027C88.3928 67.3027 88.316 67.2856 88.1878 67.2856C87.419 67.2856 86.9491 67.9007 86.9491 68.7977V70.771H86.223V66.6193H86.9406V67.354C87.1285 66.8756 87.6667 66.5509 88.2135 66.5509C88.316 66.5509 88.3928 66.568 88.3928 66.568ZM91.1514 68.6951C91.1514 67.4821 92.0484 66.5253 93.3213 66.5253C93.7569 66.5253 94.1584 66.6535 94.5001 66.8841V67.6273C94.1328 67.3454 93.7569 67.2087 93.3554 67.2087C92.5097 67.2087 91.8946 67.858 91.8946 68.6951C91.8946 69.5238 92.5097 70.1816 93.3554 70.1816C93.7911 70.1816 94.1926 69.9851 94.5258 69.7715V70.5147C94.167 70.7368 93.7569 70.865 93.3298 70.865C92.0228 70.865 91.1514 69.9167 91.1514 68.6951ZM97.47 66.5253C98.7172 66.5253 99.6398 67.4906 99.6398 68.6951C99.6398 69.8996 98.7172 70.865 97.47 70.865C96.2227 70.865 95.3001 69.8996 95.3001 68.6951C95.3001 67.4906 96.2227 66.5253 97.47 66.5253ZM97.47 67.2002C96.6584 67.2002 96.0433 67.8665 96.0433 68.6951C96.0433 69.5238 96.6584 70.1901 97.47 70.1901C98.2815 70.1901 98.8966 69.5238 98.8966 68.6951C98.8966 67.8665 98.2815 67.2002 97.47 67.2002ZM101.467 68.6012V70.771H100.732V66.6193H101.467V67.2173C101.723 66.8072 102.167 66.5253 102.791 66.5253C103.85 66.5253 104.465 67.2344 104.465 68.3364V70.771H103.731V68.4218C103.731 67.6786 103.346 67.2087 102.637 67.2087C101.928 67.2087 101.467 67.7555 101.467 68.6012ZM105.202 67.1831L106.628 65.6454H106.654V66.6193H107.816V67.2771H106.654V69.4725C106.654 69.9594 106.867 70.1816 107.346 70.1816C107.508 70.1816 107.688 70.1388 107.816 70.0534V70.7368C107.67 70.8137 107.457 70.865 107.175 70.865C106.389 70.865 105.919 70.378 105.919 69.575V67.2771H105.202V67.1831ZM112.265 69.5409V70.3353C111.803 70.6685 111.24 70.865 110.659 70.865C109.335 70.865 108.48 69.9167 108.48 68.6951C108.48 67.4565 109.335 66.5253 110.531 66.5253C111.692 66.5253 112.487 67.4821 112.487 68.661C112.487 68.8233 112.47 68.9258 112.47 68.9258H109.215C109.275 69.6177 109.847 70.1986 110.71 70.1986C111.24 70.1986 111.752 69.9851 112.265 69.5409ZM109.232 68.3193H111.744C111.684 67.6615 111.197 67.166 110.514 67.166C109.822 67.166 109.283 67.7555 109.232 68.3193ZM114.272 68.6012V70.771H113.537V66.6193H114.272V67.2173C114.528 66.8072 114.972 66.5253 115.596 66.5253C116.655 66.5253 117.27 67.2344 117.27 68.3364V70.771H116.536V68.4218C116.536 67.6786 116.151 67.2087 115.442 67.2087C114.733 67.2087 114.272 67.7555 114.272 68.6012ZM118.006 67.1831L119.433 65.6454H119.459V66.6193H120.62V67.2771H119.459V69.4725C119.459 69.9594 119.672 70.1816 120.151 70.1816C120.313 70.1816 120.492 70.1388 120.62 70.0534V70.7368C120.475 70.8137 120.262 70.865 119.98 70.865C119.194 70.865 118.724 70.378 118.724 69.575V67.2771H118.006V67.1831ZM124.482 68.6012V70.771H123.747V64.7912H124.482V67.2173C124.738 66.8072 125.183 66.5253 125.806 66.5253C126.865 66.5253 127.481 67.2344 127.481 68.3364V70.771H126.746V68.4218C126.746 67.6786 126.361 67.2087 125.652 67.2087C124.943 67.2087 124.482 67.7555 124.482 68.6012ZM132.299 69.5409V70.3353C131.838 70.6685 131.274 70.865 130.693 70.865C129.369 70.865 128.515 69.9167 128.515 68.6951C128.515 67.4565 129.369 66.5253 130.565 66.5253C131.727 66.5253 132.521 67.4821 132.521 68.661C132.521 68.8233 132.504 68.9258 132.504 68.9258H129.249C129.309 69.6177 129.882 70.1986 130.744 70.1986C131.274 70.1986 131.787 69.9851 132.299 69.5409ZM129.267 68.3193H131.778C131.718 67.6615 131.231 67.166 130.548 67.166C129.856 67.166 129.318 67.7555 129.267 68.3193ZM135.741 66.568V67.3027C135.741 67.3027 135.664 67.2856 135.536 67.2856C134.767 67.2856 134.298 67.9007 134.298 68.7977V70.771H133.571V66.6193H134.289V67.354C134.477 66.8756 135.015 66.5509 135.562 66.5509C135.664 66.5509 135.741 66.568 135.741 66.568ZM139.996 69.5409V70.3353C139.535 70.6685 138.971 70.865 138.39 70.865C137.066 70.865 136.212 69.9167 136.212 68.6951C136.212 67.4565 137.066 66.5253 138.262 66.5253C139.424 66.5253 140.218 67.4821 140.218 68.661C140.218 68.8233 140.201 68.9258 140.201 68.9258H136.946C137.006 69.6177 137.578 70.1986 138.441 70.1986C138.971 70.1986 139.483 69.9851 139.996 69.5409ZM136.963 68.3193H139.475C139.415 67.6615 138.928 67.166 138.245 67.166C137.553 67.166 137.015 67.7555 136.963 68.3193ZM142.224 70.3268C142.224 70.6172 141.993 70.8479 141.703 70.8479C141.412 70.8479 141.182 70.6172 141.182 70.3268C141.182 70.0449 141.412 69.8142 141.703 69.8142C141.993 69.8142 142.224 70.0449 142.224 70.3268ZM147.217 68.1057L145.03 64.7912H145.919L147.602 67.4052L149.285 64.7912H150.156L147.978 68.1057V70.771H147.217V68.1057ZM152.073 66.5253C153.32 66.5253 154.243 67.4906 154.243 68.6951C154.243 69.8996 153.32 70.865 152.073 70.865C150.826 70.865 149.903 69.8996 149.903 68.6951C149.903 67.4906 150.826 66.5253 152.073 66.5253ZM152.073 67.2002C151.261 67.2002 150.646 67.8665 150.646 68.6951C150.646 69.5238 151.261 70.1901 152.073 70.1901C152.885 70.1901 153.5 69.5238 153.5 68.6951C153.5 67.8665 152.885 67.2002 152.073 67.2002ZM158.223 68.7891V66.6193H158.958V70.771H158.223V70.173C157.967 70.5831 157.531 70.865 156.908 70.865C155.857 70.865 155.25 70.1559 155.25 69.0539V66.6193H155.985V68.9685C155.985 69.7117 156.361 70.1816 157.061 70.1816C157.762 70.1816 158.223 69.6348 158.223 68.7891ZM162.174 68.6951C162.174 67.4821 163.071 66.5253 164.344 66.5253C164.78 66.5253 165.181 66.6535 165.523 66.8841V67.6273C165.155 67.3454 164.78 67.2087 164.378 67.2087C163.532 67.2087 162.917 67.858 162.917 68.6951C162.917 69.5238 163.532 70.1816 164.378 70.1816C164.814 70.1816 165.215 69.9851 165.548 69.7715V70.5147C165.19 70.7368 164.78 70.865 164.352 70.865C163.045 70.865 162.174 69.9167 162.174 68.6951ZM169.08 68.1313V68.0288C169.08 67.5077 168.713 67.1916 168.098 67.1916C167.534 67.1916 167.116 67.4223 166.689 67.8153V67.0464C167.064 66.7389 167.517 66.5253 168.115 66.5253C169.183 66.5253 169.798 67.1148 169.798 68.0801V70.771H169.106V70.2243C168.781 70.6429 168.277 70.865 167.731 70.865C166.996 70.865 166.475 70.361 166.475 69.6775C166.475 68.9343 166.945 68.4901 167.859 68.3364L169.08 68.1313ZM167.21 69.6348C167.21 69.9851 167.483 70.2157 167.867 70.2157C168.576 70.2157 169.089 69.7544 169.089 69.1137V68.7635L167.978 68.96C167.483 69.0539 167.21 69.276 167.21 69.6348ZM171.856 68.6012V70.771H171.121V66.6193H171.856V67.2173C172.112 66.8072 172.556 66.5253 173.18 66.5253C174.239 66.5253 174.854 67.2344 174.854 68.3364V70.771H174.119V68.4218C174.119 67.6786 173.735 67.2087 173.026 67.2087C172.317 67.2087 171.856 67.7555 171.856 68.6012ZM179.172 65.3891C179.172 65.6625 178.949 65.8846 178.676 65.8846C178.403 65.8846 178.181 65.6625 178.181 65.3891C178.181 65.1158 178.403 64.8937 178.676 64.8937C178.949 64.8937 179.172 65.1158 179.172 65.3891ZM178.309 66.6193H179.043V70.771H178.309V66.6193ZM181.173 68.6012V70.771H180.439V66.6193H181.173V67.2173C181.429 66.8072 181.874 66.5253 182.497 66.5253C183.557 66.5253 184.172 67.2344 184.172 68.3364V70.771H183.437V68.4218C183.437 67.6786 183.053 67.2087 182.344 67.2087C181.635 67.2087 181.173 67.7555 181.173 68.6012ZM185.198 70.4378V69.6263C185.574 69.968 186.061 70.2072 186.565 70.2072C186.983 70.2072 187.368 70.062 187.368 69.6348C187.368 69.2077 186.966 69.0625 186.445 68.9514C185.847 68.8233 185.189 68.5841 185.189 67.7811C185.189 66.9439 185.898 66.5253 186.642 66.5253C187.086 66.5253 187.53 66.662 187.897 66.9097V67.6871C187.53 67.3881 187.103 67.1746 186.659 67.1746C186.309 67.1746 185.907 67.3112 185.907 67.6957C185.907 68.0715 186.266 68.2338 186.744 68.3534C187.513 68.5414 188.094 68.8233 188.094 69.575C188.094 70.4207 187.385 70.865 186.556 70.865C186.103 70.865 185.591 70.7283 185.198 70.4378ZM188.556 67.1831L189.983 65.6454H190.008V66.6193H191.17V67.2771H190.008V69.4725C190.008 69.9594 190.222 70.1816 190.7 70.1816C190.863 70.1816 191.042 70.1388 191.17 70.0534V70.7368C191.025 70.8137 190.811 70.865 190.529 70.865C189.744 70.865 189.274 70.378 189.274 69.575V67.2771H188.556V67.1831ZM194.567 68.1313V68.0288C194.567 67.5077 194.2 67.1916 193.585 67.1916C193.021 67.1916 192.603 67.4223 192.176 67.8153V67.0464C192.551 66.7389 193.004 66.5253 193.602 66.5253C194.67 66.5253 195.285 67.1148 195.285 68.0801V70.771H194.593V70.2243C194.268 70.6429 193.764 70.865 193.218 70.865C192.483 70.865 191.962 70.361 191.962 69.6775C191.962 68.9343 192.432 68.4901 193.346 68.3364L194.567 68.1313ZM192.697 69.6348C192.697 69.9851 192.97 70.2157 193.354 70.2157C194.063 70.2157 194.576 69.7544 194.576 69.1137V68.7635L193.465 68.96C192.97 69.0539 192.697 69.276 192.697 69.6348ZM197.343 68.6012V70.771H196.608V66.6193H197.343V67.2173C197.599 66.8072 198.043 66.5253 198.667 66.5253C199.726 66.5253 200.341 67.2344 200.341 68.3364V70.771H199.606V68.4218C199.606 67.6786 199.222 67.2087 198.513 67.2087C197.804 67.2087 197.343 67.7555 197.343 68.6012ZM201.375 68.6951C201.375 67.4821 202.272 66.5253 203.545 66.5253C203.981 66.5253 204.382 66.6535 204.724 66.8841V67.6273C204.357 67.3454 203.981 67.2087 203.579 67.2087C202.734 67.2087 202.118 67.858 202.118 68.6951C202.118 69.5238 202.734 70.1816 203.579 70.1816C204.015 70.1816 204.416 69.9851 204.75 69.7715V70.5147C204.391 70.7368 203.981 70.865 203.554 70.865C202.247 70.865 201.375 69.9167 201.375 68.6951ZM209.308 69.5409V70.3353C208.847 70.6685 208.283 70.865 207.702 70.865C206.378 70.865 205.524 69.9167 205.524 68.6951C205.524 67.4565 206.378 66.5253 207.574 66.5253C208.736 66.5253 209.53 67.4821 209.53 68.661C209.53 68.8233 209.513 68.9258 209.513 68.9258H206.259C206.318 69.6177 206.891 70.1986 207.754 70.1986C208.283 70.1986 208.796 69.9851 209.308 69.5409ZM206.276 68.3193H208.787C208.727 67.6615 208.241 67.166 207.557 67.166C206.865 67.166 206.327 67.7555 206.276 68.3193ZM212.42 70.4378V69.6263C212.796 69.968 213.283 70.2072 213.787 70.2072C214.206 70.2072 214.59 70.062 214.59 69.6348C214.59 69.2077 214.189 69.0625 213.667 68.9514C213.069 68.8233 212.412 68.5841 212.412 67.7811C212.412 66.9439 213.121 66.5253 213.864 66.5253C214.308 66.5253 214.752 66.662 215.12 66.9097V67.6871C214.752 67.3881 214.325 67.1746 213.881 67.1746C213.531 67.1746 213.129 67.3112 213.129 67.6957C213.129 68.0715 213.488 68.2338 213.966 68.3534C214.735 68.5414 215.316 68.8233 215.316 69.575C215.316 70.4207 214.607 70.865 213.779 70.865C213.326 70.865 212.813 70.7283 212.42 70.4378ZM220.699 70.771H220.135L219.042 67.6957L217.948 70.771H217.384L215.838 66.6193H216.598L217.683 69.7288L218.785 66.6193H219.315L220.417 69.7288L221.502 66.6193H222.245L220.699 70.771ZM225.494 68.1313V68.0288C225.494 67.5077 225.126 67.1916 224.511 67.1916C223.948 67.1916 223.529 67.4223 223.102 67.8153V67.0464C223.478 66.7389 223.93 66.5253 224.528 66.5253C225.596 66.5253 226.211 67.1148 226.211 68.0801V70.771H225.519V70.2243C225.195 70.6429 224.691 70.865 224.144 70.865C223.409 70.865 222.888 70.361 222.888 69.6775C222.888 68.9343 223.358 68.4901 224.272 68.3364L225.494 68.1313ZM223.623 69.6348C223.623 69.9851 223.896 70.2157 224.281 70.2157C224.99 70.2157 225.502 69.7544 225.502 69.1137V68.7635L224.392 68.96C223.896 69.0539 223.623 69.276 223.623 69.6348ZM228.26 72.5479H227.534V66.6193H228.26V67.2771C228.559 66.8243 229.123 66.5253 229.73 66.5253C230.909 66.5253 231.814 67.465 231.814 68.6951C231.814 69.9167 230.909 70.865 229.73 70.865C229.123 70.865 228.568 70.6001 228.26 70.1474V72.5479ZM231.071 68.6951C231.071 67.858 230.456 67.2002 229.644 67.2002C228.833 67.2002 228.218 67.858 228.218 68.6951C228.218 69.5323 228.833 70.1901 229.644 70.1901C230.456 70.1901 231.071 69.5323 231.071 68.6951ZM236.902 66.5253C238.149 66.5253 239.071 67.4906 239.071 68.6951C239.071 69.8996 238.149 70.865 236.902 70.865C235.654 70.865 234.732 69.8996 234.732 68.6951C234.732 67.4906 235.654 66.5253 236.902 66.5253ZM236.902 67.2002C236.09 67.2002 235.475 67.8665 235.475 68.6951C235.475 69.5238 236.09 70.1901 236.902 70.1901C237.713 70.1901 238.328 69.5238 238.328 68.6951C238.328 67.8665 237.713 67.2002 236.902 67.2002ZM243.052 68.7891V66.6193H243.786V70.771H243.052V70.173C242.796 70.5831 242.36 70.865 241.736 70.865C240.686 70.865 240.079 70.1559 240.079 69.0539V66.6193H240.814V68.9685C240.814 69.7117 241.19 70.1816 241.89 70.1816C242.591 70.1816 243.052 69.6348 243.052 68.7891ZM244.625 67.1831L246.051 65.6454H246.077V66.6193H247.239V67.2771H246.077V69.4725C246.077 69.9594 246.291 70.1816 246.769 70.1816C246.931 70.1816 247.111 70.1388 247.239 70.0534V70.7368C247.094 70.8137 246.88 70.865 246.598 70.865C245.812 70.865 245.342 70.378 245.342 69.575V67.2771H244.625V67.1831ZM249.811 67.1831L251.237 65.6454H251.263V66.6193H252.425V67.2771H251.263V69.4725C251.263 69.9594 251.476 70.1816 251.955 70.1816C252.117 70.1816 252.296 70.1388 252.425 70.0534V70.7368C252.279 70.8137 252.066 70.865 251.784 70.865C250.998 70.865 250.528 70.378 250.528 69.575V67.2771H249.811V67.1831ZM254.165 68.6012V70.771H253.43V64.7912H254.165V67.2173C254.421 66.8072 254.865 66.5253 255.489 66.5253C256.548 66.5253 257.163 67.2344 257.163 68.3364V70.771H256.428V68.4218C256.428 67.6786 256.044 67.2087 255.335 67.2087C254.626 67.2087 254.165 67.7555 254.165 68.6012ZM259.359 65.3891C259.359 65.6625 259.137 65.8846 258.864 65.8846C258.59 65.8846 258.368 65.6625 258.368 65.3891C258.368 65.1158 258.59 64.8937 258.864 64.8937C259.137 64.8937 259.359 65.1158 259.359 65.3891ZM258.496 66.6193H259.231V70.771H258.496V66.6193ZM260.344 70.4378V69.6263C260.72 69.968 261.207 70.2072 261.711 70.2072C262.13 70.2072 262.514 70.062 262.514 69.6348C262.514 69.2077 262.113 69.0625 261.592 68.9514C260.994 68.8233 260.336 68.5841 260.336 67.7811C260.336 66.9439 261.045 66.5253 261.788 66.5253C262.232 66.5253 262.676 66.662 263.044 66.9097V67.6871C262.676 67.3881 262.249 67.1746 261.805 67.1746C261.455 67.1746 261.053 67.3112 261.053 67.6957C261.053 68.0715 261.412 68.2338 261.891 68.3534C262.659 68.5414 263.24 68.8233 263.24 69.575C263.24 70.4207 262.531 70.865 261.703 70.865C261.25 70.865 260.737 70.7283 260.344 70.4378ZM266.465 70.771V64.7912H268.327C269.429 64.7912 270.189 65.3891 270.189 66.3715C270.189 66.9354 269.941 67.371 269.472 67.5931C270.164 67.8238 270.548 68.3534 270.548 69.071C270.548 70.1388 269.745 70.771 268.506 70.771H266.465ZM267.225 70.0961H268.498C269.275 70.0961 269.779 69.7117 269.779 69.0454C269.779 68.4047 269.258 68.0032 268.481 68.0032H267.225V70.0961ZM267.225 67.3454H268.318C268.985 67.3454 269.437 66.9952 269.437 66.4057C269.437 65.8077 268.985 65.466 268.31 65.466H267.225V67.3454ZM273.608 66.5253C274.856 66.5253 275.778 67.4906 275.778 68.6951C275.778 69.8996 274.856 70.865 273.608 70.865C272.361 70.865 271.439 69.8996 271.439 68.6951C271.439 67.4906 272.361 66.5253 273.608 66.5253ZM273.608 67.2002C272.797 67.2002 272.182 67.8665 272.182 68.6951C272.182 69.5238 272.797 70.1901 273.608 70.1901C274.42 70.1901 275.035 69.5238 275.035 68.6951C275.035 67.8665 274.42 67.2002 273.608 67.2002ZM280.167 64.7912H280.893V70.771H280.167V70.1132C279.868 70.566 279.304 70.865 278.698 70.865C277.519 70.865 276.613 69.9253 276.613 68.6951C276.613 67.4735 277.519 66.5253 278.698 66.5253C279.304 66.5253 279.86 66.7901 280.167 67.2429V64.7912ZM280.21 68.6951C280.21 67.858 279.595 67.2002 278.783 67.2002C277.972 67.2002 277.357 67.858 277.357 68.6951C277.357 69.5323 277.972 70.1901 278.783 70.1901C279.595 70.1901 280.21 69.5323 280.21 68.6951ZM285.833 66.6193L283.834 71.4031C283.458 72.3001 283.09 72.6504 282.467 72.6504C282.287 72.6504 282.134 72.6162 282.014 72.5649V71.9157C282.108 71.9499 282.253 71.984 282.407 71.984C282.74 71.984 282.937 71.7876 283.159 71.2579L283.406 70.6599L281.758 66.6193H282.544L283.791 69.8228L285.072 66.6193H285.833ZM52.737 80.6951C52.737 79.4821 53.6339 78.5253 54.9068 78.5253C55.3425 78.5253 55.744 78.6535 56.0857 78.8841V79.6273C55.7183 79.3454 55.3425 79.2087 54.941 79.2087C54.0952 79.2087 53.4802 79.858 53.4802 80.6951C53.4802 81.5238 54.0952 82.1816 54.941 82.1816C55.3766 82.1816 55.7781 81.9851 56.1113 81.7715V82.5147C55.7525 82.7368 55.3425 82.865 54.9153 82.865C53.6083 82.865 52.737 81.9167 52.737 80.6951ZM59.0555 78.5253C60.3027 78.5253 61.2253 79.4906 61.2253 80.6951C61.2253 81.8996 60.3027 82.865 59.0555 82.865C57.8083 82.865 56.8857 81.8996 56.8857 80.6951C56.8857 79.4906 57.8083 78.5253 59.0555 78.5253ZM59.0555 79.2002C58.2439 79.2002 57.6289 79.8665 57.6289 80.6951C57.6289 81.5238 58.2439 82.1901 59.0555 82.1901C59.867 82.1901 60.4821 81.5238 60.4821 80.6951C60.4821 79.8665 59.867 79.2002 59.0555 79.2002ZM63.0524 80.5926V82.771H62.3178V78.6193H63.0439V79.2173C63.2745 78.7901 63.6931 78.5253 64.2655 78.5253C64.8805 78.5253 65.3248 78.8329 65.5725 79.3369C65.7775 78.9866 66.2046 78.5253 66.9906 78.5253C67.9473 78.5253 68.5197 79.2002 68.5197 80.268V82.771H67.785V80.3961C67.785 79.6615 67.4689 79.2002 66.8453 79.2002C66.2046 79.2002 65.7861 79.7469 65.7861 80.5926V82.771H65.0514V80.4132C65.0514 79.67 64.7268 79.2002 64.1117 79.2002C63.471 79.2002 63.0524 79.7469 63.0524 80.5926ZM70.5796 84.5479H69.8535V78.6193H70.5796V79.2771C70.8786 78.8243 71.4424 78.5253 72.0489 78.5253C73.2278 78.5253 74.1333 79.465 74.1333 80.6951C74.1333 81.9167 73.2278 82.865 72.0489 82.865C71.4424 82.865 70.8871 82.6001 70.5796 82.1474V84.5479ZM73.3901 80.6951C73.3901 79.858 72.775 79.2002 71.9635 79.2002C71.1519 79.2002 70.5369 79.858 70.5369 80.6951C70.5369 81.5323 71.1519 82.1901 71.9635 82.1901C72.775 82.1901 73.3901 81.5323 73.3901 80.6951ZM77.141 78.5253C78.3883 78.5253 79.3109 79.4906 79.3109 80.6951C79.3109 81.8996 78.3883 82.865 77.141 82.865C75.8938 82.865 74.9712 81.8996 74.9712 80.6951C74.9712 79.4906 75.8938 78.5253 77.141 78.5253ZM77.141 79.2002C76.3295 79.2002 75.7144 79.8665 75.7144 80.6951C75.7144 81.5238 76.3295 82.1901 77.141 82.1901C77.9526 82.1901 78.5677 81.5238 78.5677 80.6951C78.5677 79.8665 77.9526 79.2002 77.141 79.2002ZM81.138 80.6012V82.771H80.4033V78.6193H81.138V79.2173C81.3943 78.8072 81.8385 78.5253 82.4621 78.5253C83.5214 78.5253 84.1364 79.2344 84.1364 80.3364V82.771H83.4018V80.4218C83.4018 79.6786 83.0174 79.2087 82.3083 79.2087C81.5993 79.2087 81.138 79.7555 81.138 80.6012ZM88.9551 81.5409V82.3353C88.4938 82.6685 87.93 82.865 87.3491 82.865C86.0249 82.865 85.1707 81.9167 85.1707 80.6951C85.1707 79.4565 86.0249 78.5253 87.2209 78.5253C88.3827 78.5253 89.1772 79.4821 89.1772 80.661C89.1772 80.8233 89.1601 80.9258 89.1601 80.9258H85.9054C85.9652 81.6177 86.5375 82.1986 87.4003 82.1986C87.93 82.1986 88.4425 81.9851 88.9551 81.5409ZM85.9224 80.3193H88.434C88.3742 79.6615 87.8872 79.166 87.2038 79.166C86.5119 79.166 85.9737 79.7555 85.9224 80.3193ZM90.962 80.6012V82.771H90.2274V78.6193H90.962V79.2173C91.2183 78.8072 91.6625 78.5253 92.2861 78.5253C93.3454 78.5253 93.9605 79.2344 93.9605 80.3364V82.771H93.2258V80.4218C93.2258 79.6786 92.8414 79.2087 92.1324 79.2087C91.4233 79.2087 90.962 79.7555 90.962 80.6012ZM94.6968 79.1831L96.1234 77.6454H96.149V78.6193H97.3108V79.2771H96.149V81.4725C96.149 81.9594 96.3626 82.1816 96.841 82.1816C97.0033 82.1816 97.1827 82.1388 97.3108 82.0534V82.7368C97.1656 82.8137 96.952 82.865 96.6701 82.865C95.8842 82.865 95.4143 82.378 95.4143 81.575V79.2771H94.6968V79.1831ZM104.803 82.771H104.239L103.146 79.6957L102.052 82.771H101.488L99.9422 78.6193H100.703L101.787 81.7288L102.889 78.6193H103.419L104.521 81.7288L105.606 78.6193H106.349L104.803 82.771ZM108.11 77.3891C108.11 77.6625 107.888 77.8846 107.615 77.8846C107.342 77.8846 107.119 77.6625 107.119 77.3891C107.119 77.1158 107.342 76.8937 107.615 76.8937C107.888 76.8937 108.11 77.1158 108.11 77.3891ZM107.248 78.6193H107.982V82.771H107.248V78.6193ZM108.822 79.1831L110.249 77.6454H110.274V78.6193H111.436V79.2771H110.274V81.4725C110.274 81.9594 110.488 82.1816 110.966 82.1816C111.129 82.1816 111.308 82.1388 111.436 82.0534V82.7368C111.291 82.8137 111.077 82.865 110.796 82.865C110.01 82.865 109.54 82.378 109.54 81.575V79.2771H108.822V79.1831ZM113.176 80.6012V82.771H112.442V76.7912H113.176V79.2173C113.433 78.8072 113.877 78.5253 114.5 78.5253C115.56 78.5253 116.175 79.2344 116.175 80.3364V82.771H115.44V80.4218C115.44 79.6786 115.056 79.2087 114.347 79.2087C113.638 79.2087 113.176 79.7555 113.176 80.6012ZM122.021 80.1313V80.0288C122.021 79.5077 121.654 79.1916 121.039 79.1916C120.475 79.1916 120.057 79.4223 119.63 79.8153V79.0464C120.005 78.7389 120.458 78.5253 121.056 78.5253C122.124 78.5253 122.739 79.1148 122.739 80.0801V82.771H122.047V82.2243C121.722 82.6429 121.218 82.865 120.672 82.865C119.937 82.865 119.416 82.361 119.416 81.6775C119.416 80.9343 119.886 80.4901 120.8 80.3364L122.021 80.1313ZM120.151 81.6348C120.151 81.9851 120.424 82.2157 120.808 82.2157C121.517 82.2157 122.03 81.7544 122.03 81.1137V80.7635L120.919 80.96C120.424 81.0539 120.151 81.276 120.151 81.6348ZM124.797 80.6012V82.771H124.062V78.6193H124.797V79.2173C125.053 78.8072 125.497 78.5253 126.121 78.5253C127.18 78.5253 127.795 79.2344 127.795 80.3364V82.771H127.06V80.4218C127.06 79.6786 126.676 79.2087 125.967 79.2087C125.258 79.2087 124.797 79.7555 124.797 80.6012ZM132.507 78.6193L130.508 83.4031C130.132 84.3001 129.764 84.6504 129.141 84.6504C128.961 84.6504 128.808 84.6162 128.688 84.5649V83.9157C128.782 83.9499 128.927 83.984 129.081 83.984C129.414 83.984 129.611 83.7876 129.833 83.2579L130.08 82.6599L128.432 78.6193H129.218L130.465 81.8228L131.746 78.6193H132.507ZM137.361 78.5253C138.608 78.5253 139.531 79.4906 139.531 80.6951C139.531 81.8996 138.608 82.865 137.361 82.865C136.114 82.865 135.191 81.8996 135.191 80.6951C135.191 79.4906 136.114 78.5253 137.361 78.5253ZM137.361 79.2002C136.549 79.2002 135.934 79.8665 135.934 80.6951C135.934 81.5238 136.549 82.1901 137.361 82.1901C138.173 82.1901 138.788 81.5238 138.788 80.6951C138.788 79.8665 138.173 79.2002 137.361 79.2002ZM139.985 79.1831L141.411 77.6454H141.437V78.6193H142.599V79.2771H141.437V81.4725C141.437 81.9594 141.65 82.1816 142.129 82.1816C142.291 82.1816 142.471 82.1388 142.599 82.0534V82.7368C142.453 82.8137 142.24 82.865 141.958 82.865C141.172 82.865 140.702 82.378 140.702 81.575V79.2771H139.985V79.1831ZM144.339 80.6012V82.771H143.604V76.7912H144.339V79.2173C144.595 78.8072 145.039 78.5253 145.663 78.5253C146.722 78.5253 147.337 79.2344 147.337 80.3364V82.771H146.603V80.4218C146.603 79.6786 146.218 79.2087 145.509 79.2087C144.8 79.2087 144.339 79.7555 144.339 80.6012ZM152.156 81.5409V82.3353C151.695 82.6685 151.131 82.865 150.55 82.865C149.226 82.865 148.371 81.9167 148.371 80.6951C148.371 79.4565 149.226 78.5253 150.422 78.5253C151.583 78.5253 152.378 79.4821 152.378 80.661C152.378 80.8233 152.361 80.9258 152.361 80.9258H149.106C149.166 81.6177 149.738 82.1986 150.601 82.1986C151.131 82.1986 151.643 81.9851 152.156 81.5409ZM149.123 80.3193H151.635C151.575 79.6615 151.088 79.166 150.405 79.166C149.713 79.166 149.174 79.7555 149.123 80.3193ZM155.598 78.568V79.3027C155.598 79.3027 155.521 79.2856 155.393 79.2856C154.624 79.2856 154.154 79.9007 154.154 80.7977V82.771H153.428V78.6193H154.146V79.354C154.334 78.8756 154.872 78.5509 155.419 78.5509C155.521 78.5509 155.598 78.568 155.598 78.568ZM158.357 80.6951C158.357 79.4821 159.254 78.5253 160.526 78.5253C160.962 78.5253 161.364 78.6535 161.705 78.8841V79.6273C161.338 79.3454 160.962 79.2087 160.561 79.2087C159.715 79.2087 159.1 79.858 159.1 80.6951C159.1 81.5238 159.715 82.1816 160.561 82.1816C160.996 82.1816 161.398 81.9851 161.731 81.7715V82.5147C161.372 82.7368 160.962 82.865 160.535 82.865C159.228 82.865 158.357 81.9167 158.357 80.6951ZM164.675 78.5253C165.922 78.5253 166.845 79.4906 166.845 80.6951C166.845 81.8996 165.922 82.865 164.675 82.865C163.428 82.865 162.505 81.8996 162.505 80.6951C162.505 79.4906 163.428 78.5253 164.675 78.5253ZM164.675 79.2002C163.864 79.2002 163.248 79.8665 163.248 80.6951C163.248 81.5238 163.864 82.1901 164.675 82.1901C165.487 82.1901 166.102 81.5238 166.102 80.6951C166.102 79.8665 165.487 79.2002 164.675 79.2002ZM168.672 80.5926V82.771H167.937V78.6193H168.663V79.2173C168.894 78.7901 169.313 78.5253 169.885 78.5253C170.5 78.5253 170.944 78.8329 171.192 79.3369C171.397 78.9866 171.824 78.5253 172.61 78.5253C173.567 78.5253 174.139 79.2002 174.139 80.268V82.771H173.405V80.3961C173.405 79.6615 173.089 79.2002 172.465 79.2002C171.824 79.2002 171.406 79.7469 171.406 80.5926V82.771H170.671V80.4132C170.671 79.67 170.346 79.2002 169.731 79.2002C169.091 79.2002 168.672 79.7469 168.672 80.5926ZM176.199 84.5479H175.473V78.6193H176.199V79.2771C176.498 78.8243 177.062 78.5253 177.669 78.5253C178.847 78.5253 179.753 79.465 179.753 80.6951C179.753 81.9167 178.847 82.865 177.669 82.865C177.062 82.865 176.507 82.6001 176.199 82.1474V84.5479ZM179.01 80.6951C179.01 79.858 178.395 79.2002 177.583 79.2002C176.772 79.2002 176.156 79.858 176.156 80.6951C176.156 81.5323 176.772 82.1901 177.583 82.1901C178.395 82.1901 179.01 81.5323 179.01 80.6951ZM182.761 78.5253C184.008 78.5253 184.93 79.4906 184.93 80.6951C184.93 81.8996 184.008 82.865 182.761 82.865C181.513 82.865 180.591 81.8996 180.591 80.6951C180.591 79.4906 181.513 78.5253 182.761 78.5253ZM182.761 79.2002C181.949 79.2002 181.334 79.8665 181.334 80.6951C181.334 81.5238 181.949 82.1901 182.761 82.1901C183.572 82.1901 184.187 81.5238 184.187 80.6951C184.187 79.8665 183.572 79.2002 182.761 79.2002ZM186.758 80.6012V82.771H186.023V78.6193H186.758V79.2173C187.014 78.8072 187.458 78.5253 188.082 78.5253C189.141 78.5253 189.756 79.2344 189.756 80.3364V82.771H189.021V80.4218C189.021 79.6786 188.637 79.2087 187.928 79.2087C187.219 79.2087 186.758 79.7555 186.758 80.6012ZM194.575 81.5409V82.3353C194.113 82.6685 193.55 82.865 192.969 82.865C191.645 82.865 190.79 81.9167 190.79 80.6951C190.79 79.4565 191.645 78.5253 192.84 78.5253C194.002 78.5253 194.797 79.4821 194.797 80.661C194.797 80.8233 194.78 80.9258 194.78 80.9258H191.525C191.585 81.6177 192.157 82.1986 193.02 82.1986C193.55 82.1986 194.062 81.9851 194.575 81.5409ZM191.542 80.3193H194.054C193.994 79.6615 193.507 79.166 192.823 79.166C192.131 79.166 191.593 79.7555 191.542 80.3193ZM196.582 80.6012V82.771H195.847V78.6193H196.582V79.2173C196.838 78.8072 197.282 78.5253 197.906 78.5253C198.965 78.5253 199.58 79.2344 199.58 80.3364V82.771H198.845V80.4218C198.845 79.6786 198.461 79.2087 197.752 79.2087C197.043 79.2087 196.582 79.7555 196.582 80.6012ZM200.316 79.1831L201.743 77.6454H201.769V78.6193H202.93V79.2771H201.769V81.4725C201.769 81.9594 201.982 82.1816 202.461 82.1816C202.623 82.1816 202.802 82.1388 202.93 82.0534V82.7368C202.785 82.8137 202.572 82.865 202.29 82.865C201.504 82.865 201.034 82.378 201.034 81.575V79.2771H200.316V79.1831ZM205.017 82.3268C205.017 82.6172 204.786 82.8479 204.496 82.8479C204.205 82.8479 203.975 82.6172 203.975 82.3268C203.975 82.0449 204.205 81.8142 204.496 81.8142C204.786 81.8142 205.017 82.0449 205.017 82.3268Z" fill="#242B42"/>
<rect x="52.3525" y="103.407" width="68.4773" height="22.0455" rx="2.20455" fill="#0056CF"/>
<path d="M71.6701 113.73C71.6701 112.148 72.9046 110.929 74.4632 110.929C74.9339 110.929 75.4123 111.052 75.8367 111.291V112.541C75.4277 112.233 75.0033 112.063 74.5018 112.063C73.5605 112.063 72.866 112.796 72.866 113.73C72.866 114.648 73.5296 115.389 74.5018 115.389C74.9956 115.389 75.42 115.226 75.8444 114.926V116.168C75.3737 116.43 74.8799 116.53 74.4478 116.53C72.812 116.53 71.6701 115.335 71.6701 113.73ZM76.7154 114.524C76.7154 113.39 77.6027 112.518 78.7832 112.518C79.9638 112.518 80.8511 113.39 80.8511 114.524C80.8511 115.659 79.9638 116.53 78.7832 116.53C77.6027 116.53 76.7154 115.659 76.7154 114.524ZM77.8265 114.524C77.8265 115.072 78.2585 115.504 78.7832 115.504C79.3079 115.504 79.74 115.072 79.74 114.524C79.74 113.977 79.3079 113.544 78.7832 113.544C78.2585 113.544 77.8265 113.977 77.8265 114.524ZM82.9764 114.409V116.43H81.8499V112.619H82.9764V113.105C83.2079 112.734 83.5937 112.518 84.1029 112.518C84.9748 112.518 85.5072 113.112 85.5072 114.077V116.43H84.3807V114.339C84.3807 113.838 84.1338 113.552 83.694 113.552C83.2619 113.552 82.9764 113.876 82.9764 114.409ZM87.9591 112.456V112.619H88.9468V113.544H87.9591V116.43H86.8403V113.544H86.3002V112.619H86.8403V112.449C86.8403 111.423 87.4499 110.836 88.4067 110.836C88.6613 110.836 88.885 110.882 89.0316 110.96V111.916C88.9159 111.855 88.777 111.816 88.5995 111.816C88.2369 111.816 87.9591 112.001 87.9591 112.456ZM90.9443 116.43H89.8178V112.619H90.9443V116.43ZM91.0369 111.515C91.0369 111.87 90.7437 112.171 90.381 112.171C90.0184 112.171 89.7252 111.87 89.7252 111.515C89.7252 111.16 90.0184 110.859 90.381 110.859C90.7437 110.859 91.0369 111.16 91.0369 111.515ZM94.5662 112.557V113.714C94.5045 113.683 94.3965 113.668 94.2807 113.668C93.6558 113.668 93.2854 114.131 93.2854 114.879V116.43H92.1666V112.619H93.2777V113.244C93.4783 112.804 93.8795 112.534 94.3733 112.534C94.4582 112.534 94.5431 112.549 94.5662 112.557ZM96.5838 114.393V116.43H95.4573V112.619H96.5838V113.097C96.7844 112.75 97.1548 112.518 97.6563 112.518C98.1733 112.518 98.5668 112.765 98.7751 113.182C99.0143 112.781 99.4464 112.518 100.002 112.518C100.874 112.518 101.368 113.112 101.368 114.038V116.43H100.241V114.301C100.241 113.83 100.025 113.544 99.6316 113.544C99.2458 113.544 98.9835 113.861 98.9758 114.37V116.43H97.8492V114.316C97.8492 113.83 97.6332 113.544 97.2474 113.544C96.8462 113.544 96.5838 113.868 96.5838 114.393Z" fill="white"/>
<path d="M267.002 113.73C267.002 112.148 268.236 110.929 269.795 110.929C270.265 110.929 270.744 111.052 271.168 111.291V112.541C270.759 112.233 270.335 112.063 269.833 112.063C268.892 112.063 268.197 112.796 268.197 113.73C268.197 114.648 268.861 115.389 269.833 115.389C270.327 115.389 270.751 115.226 271.176 114.926V116.168C270.705 116.43 270.211 116.53 269.779 116.53C268.143 116.53 267.002 115.335 267.002 113.73ZM275.443 116.43H274.401L274.386 115.952C274.162 116.345 273.722 116.53 273.267 116.53C272.557 116.53 272.071 116.083 272.071 115.412C272.071 114.71 272.542 114.277 273.491 114.139L274.355 114.015V113.969C274.355 113.652 274.1 113.467 273.583 113.467C273.089 113.467 272.65 113.66 272.302 113.977V112.904C272.634 112.68 273.113 112.518 273.699 112.518C274.802 112.518 275.443 113.051 275.443 114.038V116.43ZM273.136 115.319C273.143 115.535 273.321 115.674 273.575 115.674C274.046 115.674 274.355 115.335 274.355 114.902V114.771L273.683 114.879C273.321 114.933 273.136 115.095 273.136 115.319ZM277.758 114.409V116.43H276.631V112.619H277.758V113.105C277.989 112.734 278.375 112.518 278.884 112.518C279.756 112.518 280.289 113.112 280.289 114.077V116.43H279.162V114.339C279.162 113.838 278.915 113.552 278.475 113.552C278.043 113.552 277.758 113.876 277.758 114.409ZM281.243 114.524C281.243 113.375 282.084 112.518 283.28 112.518C283.612 112.518 283.959 112.595 284.237 112.757V113.814C283.974 113.629 283.704 113.537 283.411 113.537C282.825 113.537 282.377 113.946 282.377 114.524C282.377 115.095 282.817 115.512 283.411 115.512C283.712 115.512 284.005 115.389 284.244 115.219V116.284C283.936 116.453 283.596 116.53 283.264 116.53C282.092 116.53 281.243 115.72 281.243 114.524ZM288.611 115.157V116.176C288.241 116.392 287.747 116.53 287.145 116.53C285.841 116.53 285.038 115.689 285.038 114.509C285.038 113.367 285.841 112.518 286.975 112.518C288.14 112.518 288.842 113.321 288.842 114.501C288.842 114.617 288.827 114.748 288.819 114.841H286.15C286.234 115.281 286.628 115.589 287.268 115.589C287.724 115.589 288.156 115.458 288.611 115.157ZM286.134 114.1H287.762C287.724 113.676 287.407 113.39 286.967 113.39C286.528 113.39 286.188 113.714 286.134 114.1ZM289.781 111.029H290.908V116.43H289.781V111.029Z" fill="#0056CF"/>
</g>
</g>
</g>
</g>
<defs>
<filter id="filter0_dd_2266_14398" x="20.3865" y="13.947" width="321.864" height="160.006" filterUnits="userSpaceOnUse" color-interpolation-filters="sRGB">
<feFlood flood-opacity="0" result="BackgroundImageFix"/>
<feColorMatrix in="SourceAlpha" type="matrix" values="0 0 0 0 0 0 0 0 0 0 0 0 0 0 0 0 0 0 127 0" result="hardAlpha"/>
<feMorphology radius="2.20455" operator="dilate" in="SourceAlpha" result="effect1_dropShadow_2266_14398"/>
<feOffset dy="16.5341"/>
<feGaussianBlur stdDeviation="10.4716"/>
<feColorMatrix type="matrix" values="0 0 0 0 0.235294 0 0 0 0 0.415686 0 0 0 0 0.67451 0 0 0 0.2 0"/>
<feBlend mode="normal" in2="BackgroundImageFix" result="effect1_dropShadow_2266_14398"/>
<feColorMatrix in="SourceAlpha" type="matrix" values="0 0 0 0 0 0 0 0 0 0 0 0 0 0 0 0 0 0 127 0" result="hardAlpha"/>
<feMorphology radius="2.20455" operator="dilate" in="SourceAlpha" result="effect2_dropShadow_2266_14398"/>
<feOffset dy="1.10227"/>
<feGaussianBlur stdDeviation="3.85795"/>
<feColorMatrix type="matrix" values="0 0 0 0 0.235294 0 0 0 0 0.415686 0 0 0 0 0.67451 0 0 0 0.1 0"/>
<feBlend mode="normal" in2="effect1_dropShadow_2266_14398" result="effect2_dropShadow_2266_14398"/>
<feBlend mode="normal" in="SourceGraphic" in2="effect2_dropShadow_2266_14398" result="shape"/>
</filter>
<clipPath id="clip0_2266_14398">
<rect width="362" height="158.375" fill="white"/>
</clipPath>
<clipPath id="clip1_2266_14398">
<rect width="661.364" height="388" fill="white" transform="translate(-149.682 -115)"/>
</clipPath>
<clipPath id="clip2_2266_14398">
<path d="M43.5342 26.072C43.5342 24.2456 45.0147 22.7651 46.841 22.7651H315.796C317.622 22.7651 319.102 24.2456 319.102 26.072V130.964C319.102 132.79 317.622 134.271 315.796 134.271H46.841C45.0147 134.271 43.5342 132.79 43.5342 130.964V26.072Z" fill="white"/>
</clipPath>
</defs>
</svg>
