<svg width="362" height="159" viewBox="0 0 362 159" fill="none" xmlns="http://www.w3.org/2000/svg">
<g filter="url(#filter0_d_2266_14444)">
<rect x="52" y="62" width="259" height="35" rx="17.5" fill="#1CA05C"/>
<g clip-path="url(#clip0_2266_14444)">
<path fill-rule="evenodd" clip-rule="evenodd" d="M78.9358 78.5246C79.2293 78.2323 79.7042 78.2334 79.9965 78.5269L84.0943 82.643L92.0051 74.7672C92.2986 74.475 92.7735 74.476 93.0657 74.7696C93.358 75.0631 93.3569 75.538 93.0634 75.8302L84.7983 84.0587C84.4069 84.4484 83.7737 84.447 83.3841 84.0556L78.9334 79.5852C78.6412 79.2917 78.6423 78.8168 78.9358 78.5246Z" fill="white"/>
</g>
<path d="M121.069 84.2715V81.5125C122.107 82.4735 123.611 83.016 124.773 83.016C125.827 83.016 126.416 82.5975 126.416 81.838C126.416 80.9545 125.331 80.7685 124.122 80.443C122.634 80.0555 120.945 79.4975 120.945 77.374C120.945 75.297 122.619 73.9485 124.975 73.9485C126.261 73.9485 127.362 74.243 128.323 74.8475V77.436C127.315 76.568 126.153 76.103 124.99 76.103C123.843 76.103 123.347 76.5835 123.347 77.2345C123.347 77.9475 124.262 78.18 125.316 78.459C126.881 78.862 128.834 79.389 128.834 81.6675C128.834 83.7445 127.3 85.2015 124.82 85.2015C123.471 85.2015 122.045 84.876 121.069 84.2715ZM135.286 81.3885V77.343H137.549V85H135.286V84.0235C134.837 84.752 134.062 85.2015 133.054 85.2015C131.318 85.2015 130.249 83.9925 130.249 82.0705V77.343H132.512V81.528C132.512 82.5355 133.008 83.1245 133.86 83.1245C134.728 83.1245 135.286 82.4735 135.286 81.3885ZM139.13 81.1715C139.13 78.862 140.819 77.1415 143.222 77.1415C143.888 77.1415 144.586 77.2965 145.144 77.622V79.7455C144.617 79.3735 144.074 79.1875 143.485 79.1875C142.307 79.1875 141.408 80.009 141.408 81.1715C141.408 82.3185 142.292 83.1555 143.485 83.1555C144.09 83.1555 144.679 82.9075 145.159 82.5665V84.7055C144.539 85.0465 143.857 85.2015 143.191 85.2015C140.835 85.2015 139.13 83.574 139.13 81.1715ZM146.339 81.1715C146.339 78.862 148.029 77.1415 150.431 77.1415C151.098 77.1415 151.795 77.2965 152.353 77.622V79.7455C151.826 79.3735 151.284 79.1875 150.695 79.1875C149.517 79.1875 148.618 80.009 148.618 81.1715C148.618 82.3185 149.501 83.1555 150.695 83.1555C151.299 83.1555 151.888 82.9075 152.369 82.5665V84.7055C151.749 85.0465 151.067 85.2015 150.4 85.2015C148.044 85.2015 146.339 83.574 146.339 81.1715ZM160.725 82.4425V84.4885C159.981 84.9225 158.989 85.2015 157.78 85.2015C155.161 85.2015 153.549 83.512 153.549 81.1405C153.549 78.8465 155.161 77.1415 157.439 77.1415C159.78 77.1415 161.19 78.7535 161.19 81.125C161.19 81.3575 161.159 81.621 161.144 81.807H155.781C155.951 82.6905 156.742 83.3105 158.028 83.3105C158.943 83.3105 159.811 83.047 160.725 82.4425ZM155.75 80.319H159.02C158.943 79.4665 158.307 78.893 157.424 78.893C156.54 78.893 155.858 79.544 155.75 80.319ZM162.442 84.504V82.148C163.264 82.8145 164.349 83.295 165.356 83.295C166.007 83.295 166.348 83.109 166.348 82.706C166.348 81.528 162.349 82.6285 162.349 79.8075C162.349 78.242 163.527 77.1415 165.589 77.1415C166.55 77.1415 167.495 77.4205 168.208 77.777V80.0865C167.449 79.389 166.472 79.0015 165.511 79.0015C164.767 79.0015 164.519 79.265 164.519 79.575C164.519 80.629 168.58 79.668 168.58 82.5355C168.58 84.256 167.154 85.2015 165.372 85.2015C164.147 85.2015 163.186 84.9225 162.442 84.504ZM169.864 84.504V82.148C170.686 82.8145 171.771 83.295 172.778 83.295C173.429 83.295 173.77 83.109 173.77 82.706C173.77 81.528 169.771 82.6285 169.771 79.8075C169.771 78.242 170.949 77.1415 173.011 77.1415C173.972 77.1415 174.917 77.4205 175.63 77.777V80.0865C174.871 79.389 173.894 79.0015 172.933 79.0015C172.189 79.0015 171.941 79.265 171.941 79.575C171.941 80.629 176.002 79.668 176.002 82.5355C176.002 84.256 174.576 85.2015 172.794 85.2015C171.569 85.2015 170.608 84.9225 169.864 84.504ZM183.435 80.908V85H181.172V77.343H183.435V78.304C183.838 77.6065 184.582 77.1415 185.59 77.1415C186.628 77.1415 187.419 77.6375 187.837 78.4745C188.318 77.6685 189.186 77.1415 190.302 77.1415C192.053 77.1415 193.045 78.335 193.045 80.195V85H190.782V80.722C190.782 79.7765 190.348 79.203 189.558 79.203C188.783 79.203 188.256 79.8385 188.24 80.8615V85H185.977V80.753C185.977 79.7765 185.543 79.203 184.768 79.203C183.962 79.203 183.435 79.854 183.435 80.908ZM201.724 82.4425V84.4885C200.98 84.9225 199.988 85.2015 198.779 85.2015C196.159 85.2015 194.547 83.512 194.547 81.1405C194.547 78.8465 196.159 77.1415 198.438 77.1415C200.778 77.1415 202.189 78.7535 202.189 81.125C202.189 81.3575 202.158 81.621 202.142 81.807H196.779C196.95 82.6905 197.74 83.3105 199.027 83.3105C199.941 83.3105 200.809 83.047 201.724 82.4425ZM196.748 80.319H200.019C199.941 79.4665 199.306 78.893 198.422 78.893C197.539 78.893 196.857 79.544 196.748 80.319ZM203.441 84.504V82.148C204.262 82.8145 205.347 83.295 206.355 83.295C207.006 83.295 207.347 83.109 207.347 82.706C207.347 81.528 203.348 82.6285 203.348 79.8075C203.348 78.242 204.526 77.1415 206.587 77.1415C207.548 77.1415 208.494 77.4205 209.207 77.777V80.0865C208.447 79.389 207.471 79.0015 206.51 79.0015C205.766 79.0015 205.518 79.265 205.518 79.575C205.518 80.629 209.579 79.668 209.579 82.5355C209.579 84.256 208.153 85.2015 206.37 85.2015C205.146 85.2015 204.185 84.9225 203.441 84.504ZM210.862 84.504V82.148C211.684 82.8145 212.769 83.295 213.776 83.295C214.427 83.295 214.768 83.109 214.768 82.706C214.768 81.528 210.769 82.6285 210.769 79.8075C210.769 78.242 211.947 77.1415 214.009 77.1415C214.97 77.1415 215.915 77.4205 216.628 77.777V80.0865C215.869 79.389 214.892 79.0015 213.931 79.0015C213.187 79.0015 212.939 79.265 212.939 79.575C212.939 80.629 217 79.668 217 82.5355C217 84.256 215.574 85.2015 213.792 85.2015C212.567 85.2015 211.606 84.9225 210.862 84.504ZM225.041 85H222.949L222.918 84.039C222.468 84.8295 221.585 85.2015 220.67 85.2015C219.244 85.2015 218.268 84.3025 218.268 82.954C218.268 81.5435 219.213 80.6755 221.12 80.3965L222.856 80.1485V80.0555C222.856 79.42 222.344 79.048 221.306 79.048C220.314 79.048 219.43 79.4355 218.733 80.071V77.9165C219.399 77.467 220.36 77.1415 221.538 77.1415C223.755 77.1415 225.041 78.211 225.041 80.195V85ZM220.407 82.768C220.422 83.202 220.779 83.481 221.29 83.481C222.236 83.481 222.856 82.799 222.856 81.931V81.6675L221.507 81.8845C220.779 81.993 220.407 82.3185 220.407 82.768ZM226.843 80.04C226.843 78.304 228.285 77.1415 230.052 77.1415C230.486 77.1415 230.889 77.219 231.276 77.343H233.896V78.862H232.997C233.167 79.2185 233.26 79.606 233.26 80.04C233.26 81.7295 231.819 82.892 230.052 82.892C229.602 82.892 229.184 82.83 228.796 82.6905C228.517 82.768 228.362 82.954 228.362 83.1555C228.362 83.4965 228.657 83.605 229.044 83.605H231.261C232.95 83.605 234.035 84.349 234.035 85.775C234.035 87.6505 232.098 88.472 229.912 88.472C227.587 88.472 226.285 87.852 226.285 86.4415C226.285 85.775 226.704 85.217 227.246 84.876C226.797 84.535 226.611 84.07 226.611 83.5895C226.611 82.737 227.06 82.2565 227.572 81.9155C227.122 81.4195 226.843 80.784 226.843 80.04ZM232.082 85.9765C232.082 85.558 231.695 85.403 230.951 85.403H228.765C228.393 85.5425 228.192 85.775 228.192 86.116C228.192 86.6585 228.796 86.891 229.943 86.891C231.338 86.891 232.082 86.5965 232.082 85.9765ZM230.052 78.8775C229.401 78.8775 228.858 79.358 228.858 80.04C228.858 80.7375 229.401 81.2025 230.052 81.2025C230.703 81.2025 231.245 80.7375 231.245 80.04C231.245 79.358 230.703 78.8775 230.052 78.8775ZM241.859 82.4425V84.4885C241.115 84.9225 240.123 85.2015 238.914 85.2015C236.294 85.2015 234.682 83.512 234.682 81.1405C234.682 78.8465 236.294 77.1415 238.573 77.1415C240.913 77.1415 242.324 78.7535 242.324 81.125C242.324 81.3575 242.293 81.621 242.277 81.807H236.914C237.085 82.6905 237.875 83.3105 239.162 83.3105C240.076 83.3105 240.944 83.047 241.859 82.4425ZM236.883 80.319H240.154C240.076 79.4665 239.441 78.893 238.557 78.893C237.674 78.893 236.992 79.544 236.883 80.319Z" fill="white"/>
<path fill-rule="evenodd" clip-rule="evenodd" d="M272.504 74.727C272.211 75.0199 272.211 75.4948 272.504 75.7877L280.989 84.2729C281.282 84.5658 281.757 84.5658 282.05 84.2729C282.343 83.98 282.343 83.5052 282.05 83.2123L273.565 74.727C273.272 74.4341 272.797 74.4341 272.504 74.727Z" fill="white"/>
<path fill-rule="evenodd" clip-rule="evenodd" d="M272.504 84.273C272.797 84.5659 273.272 84.5659 273.565 84.273L282.05 75.7877C282.343 75.4948 282.343 75.02 282.05 74.7271C281.757 74.4342 281.282 74.4342 280.989 74.7271L272.504 83.2123C272.211 83.5052 272.211 83.9801 272.504 84.273Z" fill="white"/>
</g>
<defs>
<filter id="filter0_d_2266_14444" x="24" y="46" width="315" height="91" filterUnits="userSpaceOnUse" color-interpolation-filters="sRGB">
<feFlood flood-opacity="0" result="BackgroundImageFix"/>
<feColorMatrix in="SourceAlpha" type="matrix" values="0 0 0 0 0 0 0 0 0 0 0 0 0 0 0 0 0 0 127 0" result="hardAlpha"/>
<feOffset dy="12"/>
<feGaussianBlur stdDeviation="14"/>
<feColorMatrix type="matrix" values="0 0 0 0 0.235294 0 0 0 0 0.415686 0 0 0 0 0.67451 0 0 0 0.18 0"/>
<feBlend mode="normal" in2="BackgroundImageFix" result="effect1_dropShadow_2266_14444"/>
<feBlend mode="normal" in="SourceGraphic" in2="effect1_dropShadow_2266_14444" result="shape"/>
</filter>
<clipPath id="clip0_2266_14444">
<rect width="20" height="16" fill="white" transform="translate(76 71.5)"/>
</clipPath>
</defs>
</svg>
