<svg width="362" height="159" viewBox="0 0 362 159" fill="none" xmlns="http://www.w3.org/2000/svg">
<g filter="url(#filter0_d_2266_14445)">
<path d="M74.5 47C74.5 43.6863 77.1863 41 80.5 41H281.5C284.814 41 287.5 43.6863 287.5 47V111C287.5 114.314 284.814 117 281.5 117H80.5C77.1863 117 74.5 114.314 74.5 111V47Z" fill="white"/>
<path d="M91.895 62.15H93.2745V73H91.895V62.15ZM96.2936 65.2035H95.4101L96.1231 63.6845H96.1076C95.6891 63.6845 95.3326 63.328 95.3326 62.863C95.3326 62.3515 95.7356 61.964 96.2781 61.964C96.8051 61.964 97.2236 62.367 97.2236 62.863C97.2236 63.173 97.1151 63.4365 96.9756 63.7465L96.2936 65.2035ZM100.318 69.0475V73H98.9845V65.467H100.302V66.552C100.721 65.777 101.48 65.2965 102.519 65.2965C103.635 65.2965 104.441 65.8545 104.89 66.769C105.262 66.1335 106.037 65.2965 107.463 65.2965C109.199 65.2965 110.238 66.521 110.238 68.4585V73H108.905V68.691C108.905 67.358 108.331 66.521 107.2 66.521C106.037 66.521 105.278 67.513 105.278 69.0475V73H103.945V68.722C103.945 67.3735 103.356 66.521 102.24 66.521C101.077 66.521 100.318 67.513 100.318 69.0475ZM120.847 68.2105V68.0245C120.847 67.079 120.18 66.5055 119.064 66.5055C118.041 66.5055 117.282 66.924 116.507 67.637V66.242C117.189 65.684 118.01 65.2965 119.095 65.2965C121.033 65.2965 122.149 66.366 122.149 68.1175V73H120.893V72.008C120.304 72.7675 119.39 73.1705 118.398 73.1705C117.065 73.1705 116.119 72.256 116.119 71.016C116.119 69.6675 116.972 68.8615 118.63 68.5825L120.847 68.2105ZM117.452 70.9385C117.452 71.574 117.948 71.9925 118.646 71.9925C119.932 71.9925 120.862 71.1555 120.862 69.993V69.3575L118.847 69.714C117.948 69.8845 117.452 70.2875 117.452 70.9385ZM131.917 62.15C133.978 62.15 135.42 63.297 135.42 65.281C135.42 67.265 133.978 68.3965 131.917 68.3965H129.933V73H128.553V62.15H131.917ZM129.933 63.421V67.1255H131.917C133.157 67.1255 134.025 66.4435 134.025 65.281C134.025 64.0875 133.157 63.421 131.917 63.421H129.933ZM140.198 65.2965C142.461 65.2965 144.135 67.048 144.135 69.2335C144.135 71.419 142.461 73.1705 140.198 73.1705C137.935 73.1705 136.261 71.419 136.261 69.2335C136.261 67.048 137.935 65.2965 140.198 65.2965ZM140.198 66.521C138.726 66.521 137.61 67.73 137.61 69.2335C137.61 70.737 138.726 71.946 140.198 71.946C141.671 71.946 142.787 70.737 142.787 69.2335C142.787 67.73 141.671 66.521 140.198 66.521ZM147.435 76.224H146.118V65.467H147.435V66.6605C147.978 65.839 149.001 65.2965 150.101 65.2965C152.24 65.2965 153.883 67.0015 153.883 69.2335C153.883 71.45 152.24 73.1705 150.101 73.1705C149.001 73.1705 147.993 72.69 147.435 71.8685V76.224ZM152.535 69.2335C152.535 67.7145 151.419 66.521 149.946 66.521C148.474 66.521 147.358 67.7145 147.358 69.2335C147.358 70.7525 148.474 71.946 149.946 71.946C151.419 71.946 152.535 70.7525 152.535 69.2335ZM159.34 65.2965C161.603 65.2965 163.277 67.048 163.277 69.2335C163.277 71.419 161.603 73.1705 159.34 73.1705C157.077 73.1705 155.403 71.419 155.403 69.2335C155.403 67.048 157.077 65.2965 159.34 65.2965ZM159.34 66.521C157.868 66.521 156.752 67.73 156.752 69.2335C156.752 70.737 157.868 71.946 159.34 71.946C160.813 71.946 161.929 70.737 161.929 69.2335C161.929 67.73 160.813 66.521 159.34 66.521ZM168.303 73H167.218L164.071 65.467H165.497L167.776 71.171L170.054 65.467H171.449L168.303 73ZM179.111 70.768V72.2095C178.274 72.814 177.251 73.1705 176.197 73.1705C173.795 73.1705 172.245 71.45 172.245 69.2335C172.245 66.986 173.795 65.2965 175.965 65.2965C178.073 65.2965 179.514 67.0325 179.514 69.1715C179.514 69.466 179.483 69.652 179.483 69.652H173.578C173.686 70.9075 174.725 71.9615 176.29 71.9615C177.251 71.9615 178.181 71.574 179.111 70.768ZM173.609 68.5515H178.166C178.057 67.358 177.174 66.459 175.934 66.459C174.678 66.459 173.702 67.5285 173.609 68.5515ZM185.357 65.374V66.707C185.357 66.707 185.217 66.676 184.985 66.676C183.59 66.676 182.737 67.792 182.737 69.4195V73H181.42V65.467H182.722V66.8C183.063 65.932 184.039 65.343 185.031 65.343C185.217 65.343 185.357 65.374 185.357 65.374ZM187.76 72.194C187.76 72.721 187.341 73.1395 186.814 73.1395C186.287 73.1395 185.869 72.721 185.869 72.194C185.869 71.6825 186.287 71.264 186.814 71.264C187.341 71.264 187.76 71.6825 187.76 72.194ZM194.061 62.15H195.441V73H194.061V62.15ZM201.425 69.2335C201.425 67.0325 203.053 65.2965 205.362 65.2965C206.153 65.2965 206.881 65.529 207.501 65.9475V67.296C206.835 66.7845 206.153 66.5365 205.424 66.5365C203.89 66.5365 202.774 67.7145 202.774 69.2335C202.774 70.737 203.89 71.9305 205.424 71.9305C206.215 71.9305 206.943 71.574 207.548 71.1865V72.535C206.897 72.938 206.153 73.1705 205.378 73.1705C203.006 73.1705 201.425 71.45 201.425 69.2335ZM213.957 68.2105V68.0245C213.957 67.079 213.29 66.5055 212.174 66.5055C211.151 66.5055 210.392 66.924 209.617 67.637V66.242C210.299 65.684 211.12 65.2965 212.205 65.2965C214.143 65.2965 215.259 66.366 215.259 68.1175V73H214.003V72.008C213.414 72.7675 212.5 73.1705 211.508 73.1705C210.175 73.1705 209.229 72.256 209.229 71.016C209.229 69.6675 210.082 68.8615 211.74 68.5825L213.957 68.2105ZM210.562 70.9385C210.562 71.574 211.058 71.9925 211.756 71.9925C213.042 71.9925 213.972 71.1555 213.972 69.993V69.3575L211.957 69.714C211.058 69.8845 210.562 70.2875 210.562 70.9385ZM218.992 69.063V73H217.659V65.467H218.992V66.552C219.457 65.808 220.263 65.2965 221.394 65.2965C223.316 65.2965 224.432 66.583 224.432 68.5825V73H223.099V68.7375C223.099 67.389 222.402 66.5365 221.115 66.5365C219.829 66.5365 218.992 67.5285 218.992 69.063ZM230.189 72.3955V70.923C230.871 71.543 231.755 71.977 232.669 71.977C233.429 71.977 234.126 71.7135 234.126 70.9385C234.126 70.1635 233.398 69.9 232.452 69.6985C231.367 69.466 230.174 69.032 230.174 67.575C230.174 66.056 231.46 65.2965 232.809 65.2965C233.615 65.2965 234.421 65.5445 235.087 65.994V67.4045C234.421 66.862 233.646 66.4745 232.84 66.4745C232.204 66.4745 231.476 66.7225 231.476 67.42C231.476 68.102 232.127 68.3965 232.995 68.6135C234.39 68.9545 235.444 69.466 235.444 70.83C235.444 72.3645 234.157 73.1705 232.654 73.1705C231.832 73.1705 230.902 72.9225 230.189 72.3955ZM238.623 69.063V73H237.29V62.15H238.623V66.552C239.088 65.808 239.894 65.2965 241.025 65.2965C242.947 65.2965 244.063 66.583 244.063 68.5825V73H242.73V68.7375C242.73 67.389 242.033 66.5365 240.746 66.5365C239.46 66.5365 238.623 67.5285 238.623 69.063ZM249.877 65.2965C252.14 65.2965 253.814 67.048 253.814 69.2335C253.814 71.419 252.14 73.1705 249.877 73.1705C247.614 73.1705 245.94 71.419 245.94 69.2335C245.94 67.048 247.614 65.2965 249.877 65.2965ZM249.877 66.521C248.404 66.521 247.288 67.73 247.288 69.2335C247.288 70.737 248.404 71.946 249.877 71.946C251.349 71.946 252.465 70.737 252.465 69.2335C252.465 67.73 251.349 66.521 249.877 66.521ZM263.565 73H262.542L260.558 67.42L258.574 73H257.551L254.746 65.467H256.125L258.094 71.109L260.093 65.467H261.054L263.054 71.109L265.022 65.467H266.371L263.565 73ZM91.1975 91.2335C91.1975 89.0325 92.825 87.2965 95.1345 87.2965C95.925 87.2965 96.6535 87.529 97.2735 87.9475V89.296C96.607 88.7845 95.925 88.5365 95.1965 88.5365C93.662 88.5365 92.546 89.7145 92.546 91.2335C92.546 92.737 93.662 93.9305 95.1965 93.9305C95.987 93.9305 96.7155 93.574 97.32 93.1865V94.535C96.669 94.938 95.925 95.1705 95.15 95.1705C92.7785 95.1705 91.1975 93.45 91.1975 91.2335ZM102.662 87.2965C104.925 87.2965 106.599 89.048 106.599 91.2335C106.599 93.419 104.925 95.1705 102.662 95.1705C100.399 95.1705 98.725 93.419 98.725 91.2335C98.725 89.048 100.399 87.2965 102.662 87.2965ZM102.662 88.521C101.19 88.521 100.074 89.73 100.074 91.2335C100.074 92.737 101.19 93.946 102.662 93.946C104.135 93.946 105.251 92.737 105.251 91.2335C105.251 89.73 104.135 88.521 102.662 88.521ZM109.914 91.063V95H108.581V87.467H109.914V88.552C110.379 87.808 111.185 87.2965 112.317 87.2965C114.239 87.2965 115.355 88.583 115.355 90.5825V95H114.022V90.7375C114.022 89.389 113.324 88.5365 112.038 88.5365C110.751 88.5365 109.914 89.5285 109.914 91.063ZM116.691 88.49L119.279 85.7H119.326V87.467H121.434V88.6605H119.326V92.644C119.326 93.5275 119.713 93.9305 120.581 93.9305C120.876 93.9305 121.201 93.853 121.434 93.698V94.938C121.17 95.0775 120.783 95.1705 120.271 95.1705C118.845 95.1705 117.993 94.287 117.993 92.83V88.6605H116.691V88.49ZM129.506 92.768V94.2095C128.669 94.814 127.646 95.1705 126.592 95.1705C124.19 95.1705 122.64 93.45 122.64 91.2335C122.64 88.986 124.19 87.2965 126.36 87.2965C128.468 87.2965 129.909 89.0325 129.909 91.1715C129.909 91.466 129.878 91.652 129.878 91.652H123.973C124.081 92.9075 125.12 93.9615 126.685 93.9615C127.646 93.9615 128.576 93.574 129.506 92.768ZM124.004 90.5515H128.561C128.452 89.358 127.569 88.459 126.329 88.459C125.073 88.459 124.097 89.5285 124.004 90.5515ZM133.148 91.063V95H131.815V87.467H133.148V88.552C133.613 87.808 134.419 87.2965 135.55 87.2965C137.472 87.2965 138.588 88.583 138.588 90.5825V95H137.255V90.7375C137.255 89.389 136.558 88.5365 135.271 88.5365C133.985 88.5365 133.148 89.5285 133.148 91.063ZM139.924 88.49L142.513 85.7H142.559V87.467H144.667V88.6605H142.559V92.644C142.559 93.5275 142.947 93.9305 143.815 93.9305C144.109 93.9305 144.435 93.853 144.667 93.698V94.938C144.404 95.0775 144.016 95.1705 143.505 95.1705C142.079 95.1705 141.226 94.287 141.226 92.83V88.6605H139.924V88.49ZM153.735 87.2965C155.998 87.2965 157.672 89.048 157.672 91.2335C157.672 93.419 155.998 95.1705 153.735 95.1705C151.472 95.1705 149.798 93.419 149.798 91.2335C149.798 89.048 151.472 87.2965 153.735 87.2965ZM153.735 88.521C152.263 88.521 151.147 89.73 151.147 91.2335C151.147 92.737 152.263 93.946 153.735 93.946C155.208 93.946 156.324 92.737 156.324 91.2335C156.324 89.73 155.208 88.521 153.735 88.521ZM161.101 95H159.768V88.6605H158.606V87.467H159.768V86.816C159.768 84.894 160.869 83.964 162.357 83.964C162.899 83.964 163.256 84.057 163.488 84.15V85.3435C163.256 85.2505 162.961 85.1885 162.574 85.1885C161.737 85.1885 161.101 85.607 161.101 86.785V87.467H163.209V88.6605H161.101V95ZM173.025 90.2105V90.0245C173.025 89.079 172.359 88.5055 171.243 88.5055C170.22 88.5055 169.46 88.924 168.685 89.637V88.242C169.367 87.684 170.189 87.2965 171.274 87.2965C173.211 87.2965 174.327 88.366 174.327 90.1175V95H173.072V94.008C172.483 94.7675 171.568 95.1705 170.576 95.1705C169.243 95.1705 168.298 94.256 168.298 93.016C168.298 91.6675 169.15 90.8615 170.809 90.5825L173.025 90.2105ZM169.631 92.9385C169.631 93.574 170.127 93.9925 170.824 93.9925C172.111 93.9925 173.041 93.1555 173.041 91.993V91.3575L171.026 91.714C170.127 91.8845 169.631 92.2875 169.631 92.9385ZM178.06 91.063V95H176.727V87.467H178.06V88.552C178.525 87.808 179.331 87.2965 180.463 87.2965C182.385 87.2965 183.501 88.583 183.501 90.5825V95H182.168V90.7375C182.168 89.389 181.47 88.5365 180.184 88.5365C178.897 88.5365 178.06 89.5285 178.06 91.063ZM192.05 87.467L188.423 96.147C187.741 97.7745 187.074 98.41 185.943 98.41C185.617 98.41 185.338 98.348 185.121 98.255V97.077C185.292 97.139 185.555 97.201 185.834 97.201C186.439 97.201 186.795 96.8445 187.198 95.8835L187.648 94.7985L184.656 87.467H186.082L188.345 93.2795L190.67 87.467H192.05ZM196.952 94.3955V92.923C197.634 93.543 198.517 93.977 199.432 93.977C200.191 93.977 200.889 93.7135 200.889 92.9385C200.889 92.1635 200.16 91.9 199.215 91.6985C198.13 91.466 196.936 91.032 196.936 89.575C196.936 88.056 198.223 87.2965 199.571 87.2965C200.377 87.2965 201.183 87.5445 201.85 87.994V89.4045C201.183 88.862 200.408 88.4745 199.602 88.4745C198.967 88.4745 198.238 88.7225 198.238 89.42C198.238 90.102 198.889 90.3965 199.757 90.6135C201.152 90.9545 202.206 91.466 202.206 92.83C202.206 94.3645 200.92 95.1705 199.416 95.1705C198.595 95.1705 197.665 94.9225 196.952 94.3955ZM205.618 85.235C205.618 85.731 205.215 86.134 204.719 86.134C204.223 86.134 203.82 85.731 203.82 85.235C203.82 84.739 204.223 84.336 204.719 84.336C205.215 84.336 205.618 84.739 205.618 85.235ZM204.052 87.467H205.385V95H204.052V87.467ZM207.359 88.6295V87.467H213.187V88.2575L208.831 93.8375H213.249V95H207.08V94.1785L211.404 88.6295H207.359ZM221.117 92.768V94.2095C220.28 94.814 219.257 95.1705 218.203 95.1705C215.801 95.1705 214.251 93.45 214.251 91.2335C214.251 88.986 215.801 87.2965 217.971 87.2965C220.079 87.2965 221.52 89.0325 221.52 91.1715C221.52 91.466 221.489 91.652 221.489 91.652H215.584C215.692 92.9075 216.731 93.9615 218.296 93.9615C219.257 93.9615 220.187 93.574 221.117 92.768ZM215.615 90.5515H220.172C220.063 89.358 219.18 88.459 217.94 88.459C216.684 88.459 215.708 89.5285 215.615 90.5515ZM225.16 94.194C225.16 94.721 224.742 95.1395 224.215 95.1395C223.688 95.1395 223.269 94.721 223.269 94.194C223.269 93.6825 223.688 93.264 224.215 93.264C224.742 93.264 225.16 93.6825 225.16 94.194Z" fill="#242B42"/>
</g>
<defs>
<filter id="filter0_d_2266_14445" x="46.5" y="25" width="269" height="132" filterUnits="userSpaceOnUse" color-interpolation-filters="sRGB">
<feFlood flood-opacity="0" result="BackgroundImageFix"/>
<feColorMatrix in="SourceAlpha" type="matrix" values="0 0 0 0 0 0 0 0 0 0 0 0 0 0 0 0 0 0 127 0" result="hardAlpha"/>
<feOffset dy="12"/>
<feGaussianBlur stdDeviation="14"/>
<feColorMatrix type="matrix" values="0 0 0 0 0.235294 0 0 0 0 0.415686 0 0 0 0 0.67451 0 0 0 0.18 0"/>
<feBlend mode="normal" in2="BackgroundImageFix" result="effect1_dropShadow_2266_14445"/>
<feBlend mode="normal" in="SourceGraphic" in2="effect1_dropShadow_2266_14445" result="shape"/>
</filter>
</defs>
</svg>
