<svg width="362" height="159" viewBox="0 0 362 159" fill="none" xmlns="http://www.w3.org/2000/svg">
<g filter="url(#filter0_d_2266_14447)">
<path d="M95 64C95 61.7909 96.7909 60 99 60H263C265.209 60 267 61.7909 267 64V94C267 96.2091 265.209 98 263 98H99C96.7909 98 95 96.2091 95 94V64Z" fill="black" fill-opacity="0.9"/>
<path d="M115.774 84H114.891L111.217 73.15H112.643L115.371 81.427L118.223 73.15H119.076L121.928 81.427L124.671 73.15H126.066L122.377 84H121.494L118.626 75.7385L115.774 84ZM128.911 80.063V84H127.578V73.15H128.911V77.552C129.376 76.808 130.182 76.2965 131.314 76.2965C133.236 76.2965 134.352 77.583 134.352 79.5825V84H133.019V79.7375C133.019 78.389 132.321 77.5365 131.035 77.5365C129.748 77.5365 128.911 78.5285 128.911 80.063ZM140.165 76.2965C142.428 76.2965 144.102 78.048 144.102 80.2335C144.102 82.419 142.428 84.1705 140.165 84.1705C137.902 84.1705 136.228 82.419 136.228 80.2335C136.228 78.048 137.902 76.2965 140.165 76.2965ZM140.165 77.521C138.693 77.521 137.577 78.73 137.577 80.2335C137.577 81.737 138.693 82.946 140.165 82.946C141.638 82.946 142.754 81.737 142.754 80.2335C142.754 78.73 141.638 77.521 140.165 77.521ZM150.379 79.2105V79.0245C150.379 78.079 149.712 77.5055 148.596 77.5055C147.573 77.5055 146.814 77.924 146.039 78.637V77.242C146.721 76.684 147.542 76.2965 148.627 76.2965C150.565 76.2965 151.681 77.366 151.681 79.1175V84H150.425V83.008C149.836 83.7675 148.922 84.1705 147.93 84.1705C146.597 84.1705 145.651 83.256 145.651 82.016C145.651 80.6675 146.504 79.8615 148.162 79.5825L150.379 79.2105ZM146.984 81.9385C146.984 82.574 147.48 82.9925 148.178 82.9925C149.464 82.9925 150.394 82.1555 150.394 80.993V80.3575L148.379 80.714C147.48 80.8845 146.984 81.2875 146.984 81.9385ZM154.143 73.15H155.6L155.476 80.9465H154.267L154.143 73.15ZM155.817 83.194C155.817 83.7055 155.414 84.1395 154.872 84.1395C154.345 84.1395 153.926 83.721 153.926 83.194C153.926 82.667 154.345 82.264 154.872 82.264C155.414 82.264 155.817 82.6825 155.817 83.194ZM162.192 73.15H163.572V84H162.192V73.15ZM166.591 76.2035H165.707L166.42 74.6845H166.405C165.986 74.6845 165.63 74.328 165.63 73.863C165.63 73.3515 166.033 72.964 166.575 72.964C167.102 72.964 167.521 73.367 167.521 73.863C167.521 74.173 167.412 74.4365 167.273 74.7465L166.591 76.2035ZM170.615 80.0475V84H169.282V76.467H170.599V77.552C171.018 76.777 171.777 76.2965 172.816 76.2965C173.932 76.2965 174.738 76.8545 175.187 77.769C175.559 77.1335 176.334 76.2965 177.76 76.2965C179.496 76.2965 180.535 77.521 180.535 79.4585V84H179.202V79.691C179.202 78.358 178.628 77.521 177.497 77.521C176.334 77.521 175.575 78.513 175.575 80.0475V84H174.242V79.722C174.242 78.3735 173.653 77.521 172.537 77.521C171.374 77.521 170.615 78.513 170.615 80.0475ZM191.144 79.2105V79.0245C191.144 78.079 190.477 77.5055 189.361 77.5055C188.338 77.5055 187.579 77.924 186.804 78.637V77.242C187.486 76.684 188.307 76.2965 189.392 76.2965C191.33 76.2965 192.446 77.366 192.446 79.1175V84H191.19V83.008C190.601 83.7675 189.687 84.1705 188.695 84.1705C187.362 84.1705 186.416 83.256 186.416 82.016C186.416 80.6675 187.269 79.8615 188.927 79.5825L191.144 79.2105ZM187.749 81.9385C187.749 82.574 188.245 82.9925 188.943 82.9925C190.229 82.9925 191.159 82.1555 191.159 80.993V80.3575L189.144 80.714C188.245 80.8845 187.749 81.2875 187.749 81.9385ZM197.765 74.421V73.15H205.484V74.421H202.322V84H200.927V74.421H197.765ZM209.239 76.2965C211.502 76.2965 213.176 78.048 213.176 80.2335C213.176 82.419 211.502 84.1705 209.239 84.1705C206.976 84.1705 205.302 82.419 205.302 80.2335C205.302 78.048 206.976 76.2965 209.239 76.2965ZM209.239 77.521C207.767 77.521 206.651 78.73 206.651 80.2335C206.651 81.737 207.767 82.946 209.239 82.946C210.712 82.946 211.828 81.737 211.828 80.2335C211.828 78.73 210.712 77.521 209.239 77.521ZM218.628 76.2965C220.891 76.2965 222.565 78.048 222.565 80.2335C222.565 82.419 220.891 84.1705 218.628 84.1705C216.365 84.1705 214.691 82.419 214.691 80.2335C214.691 78.048 216.365 76.2965 218.628 76.2965ZM218.628 77.521C217.156 77.521 216.04 78.73 216.04 80.2335C216.04 81.737 217.156 82.946 218.628 82.946C220.101 82.946 221.217 81.737 221.217 80.2335C221.217 78.73 220.101 77.521 218.628 77.521ZM224.548 73.15H225.881V84H224.548V73.15ZM227.405 77.49L229.993 74.7H230.04V76.467H232.148V77.6605H230.04V81.644C230.04 82.5275 230.427 82.9305 231.295 82.9305C231.59 82.9305 231.915 82.853 232.148 82.698V83.938C231.884 84.0775 231.497 84.1705 230.985 84.1705C229.559 84.1705 228.707 83.287 228.707 81.83V77.6605H227.405V77.49ZM235.613 74.235C235.613 74.731 235.21 75.134 234.714 75.134C234.218 75.134 233.815 74.731 233.815 74.235C233.815 73.739 234.218 73.336 234.714 73.336C235.21 73.336 235.613 73.739 235.613 74.235ZM234.048 76.467H235.381V84H234.048V76.467ZM239.229 87.224H237.912V76.467H239.229V77.6605C239.772 76.839 240.795 76.2965 241.895 76.2965C244.034 76.2965 245.677 78.0015 245.677 80.2335C245.677 82.45 244.034 84.1705 241.895 84.1705C240.795 84.1705 239.787 83.69 239.229 82.8685V87.224ZM244.329 80.2335C244.329 78.7145 243.213 77.521 241.74 77.521C240.268 77.521 239.152 78.7145 239.152 80.2335C239.152 81.7525 240.268 82.946 241.74 82.946C243.213 82.946 244.329 81.7525 244.329 80.2335ZM247.727 73.15H249.184L249.06 80.9465H247.851L247.727 73.15ZM249.401 83.194C249.401 83.7055 248.998 84.1395 248.455 84.1395C247.928 84.1395 247.51 83.721 247.51 83.194C247.51 82.667 247.928 82.264 248.455 82.264C248.998 82.264 249.401 82.6825 249.401 83.194Z" fill="white"/>
<rect x="173.929" y="60.0015" width="10" height="10" transform="rotate(-45 173.929 60.0015)" fill="black" fill-opacity="0.9"/>
</g>
<defs>
<filter id="filter0_d_2266_14447" x="67" y="36.9302" width="228" height="101.07" filterUnits="userSpaceOnUse" color-interpolation-filters="sRGB">
<feFlood flood-opacity="0" result="BackgroundImageFix"/>
<feColorMatrix in="SourceAlpha" type="matrix" values="0 0 0 0 0 0 0 0 0 0 0 0 0 0 0 0 0 0 127 0" result="hardAlpha"/>
<feOffset dy="12"/>
<feGaussianBlur stdDeviation="14"/>
<feColorMatrix type="matrix" values="0 0 0 0 0.235294 0 0 0 0 0.415686 0 0 0 0 0.67451 0 0 0 0.18 0"/>
<feBlend mode="normal" in2="BackgroundImageFix" result="effect1_dropShadow_2266_14447"/>
<feBlend mode="normal" in="SourceGraphic" in2="effect1_dropShadow_2266_14447" result="shape"/>
</filter>
</defs>
</svg>
