<svg width="362" height="159" viewBox="0 0 362 159" fill="none" xmlns="http://www.w3.org/2000/svg">
<g filter="url(#filter0_d_2266_14447)">
<path d="M95 57C95 54.7909 96.7909 53 99 53H263C265.209 53 267 54.7909 267 57V87C267 89.2091 265.209 91 263 91H99C96.7909 91 95 89.2091 95 87V57Z" fill="black" fill-opacity="0.9"/>
<path d="M115.774 77H114.891L111.217 66.15H112.643L115.371 74.427L118.223 66.15H119.076L121.928 74.427L124.671 66.15H126.066L122.377 77H121.494L118.626 68.7385L115.774 77ZM128.911 73.063V77H127.578V66.15H128.911V70.552C129.376 69.808 130.182 69.2965 131.314 69.2965C133.236 69.2965 134.352 70.583 134.352 72.5825V77H133.019V72.7375C133.019 71.389 132.321 70.5365 131.035 70.5365C129.748 70.5365 128.911 71.5285 128.911 73.063ZM140.165 69.2965C142.428 69.2965 144.102 71.048 144.102 73.2335C144.102 75.419 142.428 77.1705 140.165 77.1705C137.902 77.1705 136.228 75.419 136.228 73.2335C136.228 71.048 137.902 69.2965 140.165 69.2965ZM140.165 70.521C138.693 70.521 137.577 71.73 137.577 73.2335C137.577 74.737 138.693 75.946 140.165 75.946C141.638 75.946 142.754 74.737 142.754 73.2335C142.754 71.73 141.638 70.521 140.165 70.521ZM150.379 72.2105V72.0245C150.379 71.079 149.712 70.5055 148.596 70.5055C147.573 70.5055 146.814 70.924 146.039 71.637V70.242C146.721 69.684 147.542 69.2965 148.627 69.2965C150.565 69.2965 151.681 70.366 151.681 72.1175V77H150.425V76.008C149.836 76.7675 148.922 77.1705 147.93 77.1705C146.597 77.1705 145.651 76.256 145.651 75.016C145.651 73.6675 146.504 72.8615 148.162 72.5825L150.379 72.2105ZM146.984 74.9385C146.984 75.574 147.48 75.9925 148.178 75.9925C149.464 75.9925 150.394 75.1555 150.394 73.993V73.3575L148.379 73.714C147.48 73.8845 146.984 74.2875 146.984 74.9385ZM154.143 66.15H155.6L155.476 73.9465H154.267L154.143 66.15ZM155.817 76.194C155.817 76.7055 155.414 77.1395 154.872 77.1395C154.345 77.1395 153.926 76.721 153.926 76.194C153.926 75.667 154.345 75.264 154.872 75.264C155.414 75.264 155.817 75.6825 155.817 76.194ZM162.192 66.15H163.572V77H162.192V66.15ZM166.591 69.2035H165.707L166.42 67.6845H166.405C165.986 67.6845 165.63 67.328 165.63 66.863C165.63 66.3515 166.033 65.964 166.575 65.964C167.102 65.964 167.521 66.367 167.521 66.863C167.521 67.173 167.412 67.4365 167.273 67.7465L166.591 69.2035ZM170.615 73.0475V77H169.282V69.467H170.599V70.552C171.018 69.777 171.777 69.2965 172.816 69.2965C173.932 69.2965 174.738 69.8545 175.187 70.769C175.559 70.1335 176.334 69.2965 177.76 69.2965C179.496 69.2965 180.535 70.521 180.535 72.4585V77H179.202V72.691C179.202 71.358 178.628 70.521 177.497 70.521C176.334 70.521 175.575 71.513 175.575 73.0475V77H174.242V72.722C174.242 71.3735 173.653 70.521 172.537 70.521C171.374 70.521 170.615 71.513 170.615 73.0475ZM191.144 72.2105V72.0245C191.144 71.079 190.477 70.5055 189.361 70.5055C188.338 70.5055 187.579 70.924 186.804 71.637V70.242C187.486 69.684 188.307 69.2965 189.392 69.2965C191.33 69.2965 192.446 70.366 192.446 72.1175V77H191.19V76.008C190.601 76.7675 189.687 77.1705 188.695 77.1705C187.362 77.1705 186.416 76.256 186.416 75.016C186.416 73.6675 187.269 72.8615 188.927 72.5825L191.144 72.2105ZM187.749 74.9385C187.749 75.574 188.245 75.9925 188.943 75.9925C190.229 75.9925 191.159 75.1555 191.159 73.993V73.3575L189.144 73.714C188.245 73.8845 187.749 74.2875 187.749 74.9385ZM197.765 67.421V66.15H205.484V67.421H202.322V77H200.927V67.421H197.765ZM209.239 69.2965C211.502 69.2965 213.176 71.048 213.176 73.2335C213.176 75.419 211.502 77.1705 209.239 77.1705C206.976 77.1705 205.302 75.419 205.302 73.2335C205.302 71.048 206.976 69.2965 209.239 69.2965ZM209.239 70.521C207.767 70.521 206.651 71.73 206.651 73.2335C206.651 74.737 207.767 75.946 209.239 75.946C210.712 75.946 211.828 74.737 211.828 73.2335C211.828 71.73 210.712 70.521 209.239 70.521ZM218.628 69.2965C220.891 69.2965 222.565 71.048 222.565 73.2335C222.565 75.419 220.891 77.1705 218.628 77.1705C216.365 77.1705 214.691 75.419 214.691 73.2335C214.691 71.048 216.365 69.2965 218.628 69.2965ZM218.628 70.521C217.156 70.521 216.04 71.73 216.04 73.2335C216.04 74.737 217.156 75.946 218.628 75.946C220.101 75.946 221.217 74.737 221.217 73.2335C221.217 71.73 220.101 70.521 218.628 70.521ZM224.548 66.15H225.881V77H224.548V66.15ZM227.405 70.49L229.993 67.7H230.04V69.467H232.148V70.6605H230.04V74.644C230.04 75.5275 230.427 75.9305 231.295 75.9305C231.59 75.9305 231.915 75.853 232.148 75.698V76.938C231.884 77.0775 231.497 77.1705 230.985 77.1705C229.559 77.1705 228.707 76.287 228.707 74.83V70.6605H227.405V70.49ZM235.613 67.235C235.613 67.731 235.21 68.134 234.714 68.134C234.218 68.134 233.815 67.731 233.815 67.235C233.815 66.739 234.218 66.336 234.714 66.336C235.21 66.336 235.613 66.739 235.613 67.235ZM234.048 69.467H235.381V77H234.048V69.467ZM239.229 80.224H237.912V69.467H239.229V70.6605C239.772 69.839 240.795 69.2965 241.895 69.2965C244.034 69.2965 245.677 71.0015 245.677 73.2335C245.677 75.45 244.034 77.1705 241.895 77.1705C240.795 77.1705 239.787 76.69 239.229 75.8685V80.224ZM244.329 73.2335C244.329 71.7145 243.213 70.521 241.74 70.521C240.268 70.521 239.152 71.7145 239.152 73.2335C239.152 74.7525 240.268 75.946 241.74 75.946C243.213 75.946 244.329 74.7525 244.329 73.2335ZM247.727 66.15H249.184L249.06 73.9465H247.851L247.727 66.15ZM249.401 76.194C249.401 76.7055 248.998 77.1395 248.455 77.1395C247.928 77.1395 247.51 76.721 247.51 76.194C247.51 75.667 247.928 75.264 248.455 75.264C248.998 75.264 249.401 75.6825 249.401 76.194Z" fill="white"/>
<rect x="173.929" y="91.001" width="10" height="10" transform="rotate(-45 173.929 91.001)" fill="black" fill-opacity="0.9"/>
</g>
<defs>
<filter id="filter0_d_2266_14447" x="67" y="37" width="228" height="101.072" filterUnits="userSpaceOnUse" color-interpolation-filters="sRGB">
<feFlood flood-opacity="0" result="BackgroundImageFix"/>
<feColorMatrix in="SourceAlpha" type="matrix" values="0 0 0 0 0 0 0 0 0 0 0 0 0 0 0 0 0 0 127 0" result="hardAlpha"/>
<feOffset dy="12"/>
<feGaussianBlur stdDeviation="14"/>
<feColorMatrix type="matrix" values="0 0 0 0 0.235294 0 0 0 0 0.415686 0 0 0 0 0.67451 0 0 0 0.18 0"/>
<feBlend mode="normal" in2="BackgroundImageFix" result="effect1_dropShadow_2266_14447"/>
<feBlend mode="normal" in="SourceGraphic" in2="effect1_dropShadow_2266_14447" result="shape"/>
</filter>
</defs>
</svg>
