<svg width="17" height="16" viewBox="0 0 17 16" fill="none" xmlns="http://www.w3.org/2000/svg">
  <path d="M5.91323 5.33377L6.17269 5.29477L6.28801 5.0591L8.44116 0.659187C8.49971 0.543364 8.59517 0.5 8.64884 0.5C8.74499 0.5 8.83506 0.555009 8.88775 0.659235L11.0409 5.0591L11.1562 5.29477L11.4157 5.33377L16.1925 6.05186L16.2021 6.0533L16.2117 6.05436C16.2359 6.05706 16.2671 6.06847 16.3024 6.09973C16.3374 6.13062 16.3686 6.17476 16.3886 6.22412C16.4186 6.32162 16.401 6.40181 16.3198 6.48332C16.3196 6.48353 16.3194 6.48374 16.3192 6.48395L12.8552 9.91671L12.6712 10.0991L12.7141 10.3546L13.5258 15.1939L13.528 15.2068L13.5308 15.2196C13.5488 15.3004 13.5074 15.402 13.4567 15.4462C13.3391 15.5132 13.2227 15.5096 13.1546 15.4781L8.88646 13.1726L8.64884 13.0443L8.41121 13.1726L4.14274 15.4782C4.07877 15.5083 3.99031 15.5147 3.87267 15.4466C3.82302 15.4033 3.76655 15.2914 3.77463 15.1781L4.61431 10.3577L4.65911 10.1005L4.47368 9.91671L1.0097 6.48394C1.00947 6.48372 1.00925 6.4835 1.00903 6.48327C0.927878 6.40178 0.91031 6.3216 0.94026 6.22412C0.960274 6.17476 0.99154 6.13062 1.02646 6.09973C1.0618 6.06847 1.09296 6.05706 1.11724 6.05436L1.12682 6.0533L1.13635 6.05186L5.91323 5.33377Z" stroke="#C1CDD6"/>
</svg>
