<svg width="281" height="104" viewBox="0 0 281 104" fill="none" xmlns="http://www.w3.org/2000/svg">
<path fill-rule="evenodd" clip-rule="evenodd" d="M275 0C278.314 0 281 2.68629 281 6V98C281 101.21 278.479 103.832 275.309 103.992L275 104H6L5.69141 103.992C2.62344 103.837 0.163427 101.377 0.0078125 98.3086L0 98V6C0 2.68629 2.68629 4.42926e-08 6 0H275ZM6 1C3.23858 1 1 3.23858 1 6V98C1.0002 100.761 3.2387 103 6 103H275C277.761 103 280 100.761 280 98V6C280 3.23857 277.761 1 275 1H6Z" fill="#E4E8F0"/>
<path d="M140 9C141.657 9 143 10.3431 143 12V92C143 93.6569 141.657 95 140 95H108C106.343 95 105 93.6569 105 92V12L105.004 11.8457C105.084 10.2606 106.395 9 108 9H140Z" fill="#F3F7FB"/>
<path fill-rule="evenodd" clip-rule="evenodd" d="M140.206 8.00488C142.319 8.11212 144 9.85996 144 12V92L143.995 92.2061C143.891 94.2512 142.251 95.8913 140.206 95.9951L140 96H108C105.86 96 104.112 94.3194 104.005 92.2061L104 92V12C104 9.79086 105.791 8 108 8H140L140.206 8.00488ZM108 9C106.395 9 105.084 10.2606 105.004 11.8457L105 12V92C105 93.6569 106.343 95 108 95H140C141.657 95 143 93.6569 143 92V12C143 10.3431 141.657 9 140 9H108Z" fill="#E4E8F0"/>
<path d="M127.049 54.016C127.049 56.031 125.452 57.395 123.019 57.395C121.98 57.395 121.004 57.1315 120.12 56.589V54.264C121.004 54.9615 121.903 55.3025 122.833 55.3025C123.964 55.3025 124.755 54.791 124.755 53.892C124.755 53.1015 124.011 52.559 122.91 52.559H121.903V50.761H122.864C123.763 50.761 124.383 50.265 124.383 49.614C124.383 48.87 123.654 48.436 122.786 48.436C121.934 48.436 121.159 48.7615 120.337 49.428V47.1495C121.112 46.6225 122.027 46.359 122.972 46.359C125.08 46.359 126.63 47.475 126.63 49.335C126.63 50.327 126.119 51.071 125.313 51.5205C126.413 51.97 127.049 52.8535 127.049 54.016Z" fill="#242B42"/>
<path d="M92 9C93.6569 9 95 10.3431 95 12V92C95 93.6569 93.6569 95 92 95H60C58.3431 95 57 93.6569 57 92V12L57.0039 11.8457C57.0842 10.2606 58.3949 9 60 9H92Z" fill="#F3F7FB"/>
<path fill-rule="evenodd" clip-rule="evenodd" d="M92.2061 8.00488C94.3194 8.11212 96 9.85996 96 12V92L95.9951 92.2061C95.8913 94.2512 94.2512 95.8913 92.2061 95.9951L92 96H60C57.86 96 56.1121 94.3194 56.0049 92.2061L56 92V12C56 9.79086 57.7909 8 60 8H92L92.2061 8.00488ZM60 9C58.3949 9 57.0842 10.2606 57.0039 11.8457L57 12V92C57 93.6569 58.3431 95 60 95H92C93.6569 95 95 93.6569 95 92V12C95 10.3431 93.6569 9 92 9H60Z" fill="#E4E8F0"/>
<path d="M79.2965 57.5H72.0735V55.8725L75.561 52.416C76.553 51.455 76.832 50.959 76.832 50.246C76.832 49.3935 76.1035 48.789 75.0805 48.789C74.0885 48.789 73.1585 49.347 72.3215 50.2615V47.828C73.143 47.084 74.2125 46.6655 75.2665 46.6655C77.4055 46.6655 79.126 47.9675 79.126 49.998C79.126 51.4085 78.537 52.447 77.1885 53.687L75.282 55.454H79.2965V57.5Z" fill="#242B42"/>
<path d="M44 9C45.6569 9 47 10.3431 47 12V44C47 45.6569 45.6569 47 44 47H12C10.3431 47 9 45.6569 9 44V12C9 10.3431 10.3431 9 12 9H44Z" fill="#F3F7FB"/>
<path fill-rule="evenodd" clip-rule="evenodd" d="M44.2061 8.00488C46.3194 8.11212 48 9.85996 48 12V44L47.9951 44.2061C47.8913 46.2512 46.2512 47.8913 44.2061 47.9951L44 48H12C9.85996 48 8.11211 46.3194 8.00488 44.2061L8 44V12C8 9.79086 9.79086 8 12 8H44L44.2061 8.00488ZM12 9C10.3431 9 9 10.3431 9 12V44C9 45.6569 10.3431 47 12 47H44C45.6569 47 47 45.6569 47 44V12C47 10.3431 45.6569 9 44 9H12Z" fill="#0056CF"/>
<path d="M29.681 33.5H27.387V25.3315L25.465 26.0755V23.828L27.8675 22.8515H29.681V33.5Z" fill="#242B42"/>
</svg>
