<svg width="281" height="104" viewBox="0 0 281 104" fill="none" xmlns="http://www.w3.org/2000/svg">
<path fill-rule="evenodd" clip-rule="evenodd" d="M275 0C278.314 0 281 2.68629 281 6V98C281 101.21 278.479 103.832 275.309 103.992L275 104H6L5.69141 103.992C2.62344 103.837 0.163427 101.377 0.0078125 98.3086L0 98V6C0 2.68629 2.68629 4.42926e-08 6 0H275ZM6 1C3.23858 1 1 3.23858 1 6V98C1.0002 100.761 3.2387 103 6 103H275C277.761 103 280 100.761 280 98V6C280 3.23857 277.761 1 275 1H6Z" fill="#E4E8F0"/>
<path d="M44 33C45.6569 33 47 34.3431 47 36V68C47 69.6569 45.6569 71 44 71H12C10.3431 71 9 69.6569 9 68V36C9 34.3431 10.3431 33 12 33H44Z" fill="#F3F7FB"/>
<path fill-rule="evenodd" clip-rule="evenodd" d="M44.2061 32.0049C46.3194 32.1121 48 33.86 48 36V68L47.9951 68.2061C47.8913 70.2512 46.2512 71.8913 44.2061 71.9951L44 72H12C9.85996 72 8.11211 70.3194 8.00488 68.2061L8 68V36C8 33.7909 9.79086 32 12 32H44L44.2061 32.0049ZM12 33C10.3431 33 9 34.3431 9 36V68C9 69.6569 10.3431 71 12 71H44C45.6569 71 47 69.6569 47 68V36C47 34.3431 45.6569 33 44 33H12Z" fill="#0056CF"/>
<path d="M29.681 57.5H27.387V49.3315L25.465 50.0755V47.828L27.8675 46.8515H29.681V57.5Z" fill="#242B42"/>
<path d="M140 9C141.657 9 143 10.3431 143 12V44C143 45.6569 141.657 47 140 47H108C106.343 47 105 45.6569 105 44V12C105 10.3431 106.343 9 108 9H140Z" fill="#F3F7FB"/>
<path fill-rule="evenodd" clip-rule="evenodd" d="M140.206 8.00488C142.319 8.11212 144 9.85996 144 12V44L143.995 44.2061C143.891 46.2512 142.251 47.8913 140.206 47.9951L140 48H108C105.86 48 104.112 46.3194 104.005 44.2061L104 44V12C104 9.79086 105.791 8 108 8H140L140.206 8.00488ZM108 9C106.343 9 105 10.3431 105 12V44C105 45.6569 106.343 47 108 47H140C141.657 47 143 45.6569 143 44V12C143 10.3431 141.657 9 140 9H108Z" fill="#E4E8F0"/>
<path d="M127.05 30.3225C127.05 32.3375 125.453 33.7015 123.02 33.7015C121.981 33.7015 121.005 33.438 120.121 32.8955V30.5705C121.005 31.268 121.904 31.609 122.834 31.609C123.965 31.609 124.756 31.0975 124.756 30.1985C124.756 29.408 124.012 28.8655 122.911 28.8655H121.904V27.0675H122.865C123.764 27.0675 124.384 26.5715 124.384 25.9205C124.384 25.1765 123.655 24.7425 122.787 24.7425C121.935 24.7425 121.16 25.068 120.338 25.7345V23.456C121.113 22.929 122.028 22.6655 122.973 22.6655C125.081 22.6655 126.631 23.7815 126.631 25.6415C126.631 26.6335 126.12 27.3775 125.314 27.827C126.414 28.2765 127.05 29.16 127.05 30.3225Z" fill="#242B42"/>
<path d="M92 9C93.6569 9 95 10.3431 95 12V44C95 45.6569 93.6569 47 92 47H60C58.3431 47 57 45.6569 57 44V12C57 10.3431 58.3431 9 60 9H92Z" fill="#F3F7FB"/>
<path fill-rule="evenodd" clip-rule="evenodd" d="M92.2061 8.00488C94.3194 8.11212 96 9.85996 96 12V44L95.9951 44.2061C95.8913 46.2512 94.2512 47.8913 92.2061 47.9951L92 48H60C57.86 48 56.1121 46.3194 56.0049 44.2061L56 44V12C56 9.79086 57.7909 8 60 8H92L92.2061 8.00488ZM60 9C58.3431 9 57 10.3431 57 12V44C57 45.6569 58.3431 47 60 47H92C93.6569 47 95 45.6569 95 44V12C95 10.3431 93.6569 9 92 9H60Z" fill="#E4E8F0"/>
<path d="M79.2965 33.5H72.0735V31.8725L75.561 28.416C76.553 27.455 76.832 26.959 76.832 26.246C76.832 25.3935 76.1035 24.789 75.0805 24.789C74.0885 24.789 73.1585 25.347 72.3215 26.2615V23.828C73.143 23.084 74.2125 22.6655 75.2665 22.6655C77.4055 22.6655 79.126 23.9675 79.126 25.998C79.126 27.4085 78.537 28.447 77.1885 29.687L75.282 31.454H79.2965V33.5Z" fill="#242B42"/>
</svg>
