<svg width="120" height="40" viewBox="0 0 120 40" fill="none" xmlns="http://www.w3.org/2000/svg">
<path d="M34 1C36.7614 1 39 3.23858 39 6V34C39 36.7614 36.7614 39 34 39H6C3.23858 39 1 36.7614 1 34V6C1 3.23858 3.23858 1 6 1H34Z" fill="#F3F7FB"/>
<path fill-rule="evenodd" clip-rule="evenodd" d="M34 0C37.3137 0 40 2.68629 40 6V34C40 37.2102 37.4789 39.8316 34.3086 39.9922L34 40H6L5.69141 39.9922C2.62332 39.8367 0.163251 37.3767 0.0078125 34.3086L0 34V6C0 2.68629 2.68629 1.28851e-07 6 0H34ZM6 1C3.23858 1 1 3.23858 1 6V34C1 36.7614 3.23858 39 6 39H34C36.7614 39 39 36.7614 39 34V6C39 3.23858 36.7614 1 34 1H6Z" fill="#E4E8F0"/>
<rect x="40" width="4" height="40" fill="#0056CF"/>
<path d="M78 1C80.7614 1 83 3.23858 83 6V34C83 36.7614 80.7614 39 78 39H50C47.2386 39 45 36.7614 45 34V6C45 3.23858 47.2386 1 50 1H78Z" fill="#F3F7FB"/>
<path fill-rule="evenodd" clip-rule="evenodd" d="M78 0C81.3137 0 84 2.68629 84 6V34C84 37.2102 81.4789 39.8316 78.3086 39.9922L78 40H50L49.6914 39.9922C46.6233 39.8367 44.1633 37.3767 44.0078 34.3086L44 34V6C44 2.68629 46.6863 1.28851e-07 50 0H78ZM50 1C47.2386 1 45 3.23858 45 6V34C45 36.7614 47.2386 39 50 39H78C80.7614 39 83 36.7614 83 34V6C83 3.23858 80.7614 1 78 1H50Z" fill="#E4E8F0"/>
</svg>
