<svg width="94" height="94" viewBox="0 0 94 94" fill="none" xmlns="http://www.w3.org/2000/svg">
<path fill-rule="evenodd" clip-rule="evenodd" d="M89.7139 0C91.923 0 93.7139 1.79086 93.7139 4V38.8574C93.7137 41.0664 91.9229 42.8574 89.7139 42.8574H4C1.79095 42.8574 0.000148486 41.0664 0 38.8574V4C0 1.79086 1.79086 3.89471e-08 4 0H89.7139ZM85 21.3867H4V22.3867H85V24.7734L90 21.8867L85 19V21.3867Z" fill="#0056CF"/>
<path d="M90 21.8867L85 24.7734V22.3867H4V21.3867H85V19L90 21.8867Z" fill="white"/>
<path d="M0 54.8574C0 52.6483 1.79086 50.8574 4 50.8574H89.71C91.9191 50.8574 93.71 52.6483 93.71 54.8574V89.7174C93.71 91.9266 91.9191 93.7174 89.71 93.7174H4C1.79086 93.7174 0 91.9266 0 89.7174V54.8574Z" fill="#F3F7FB"/>
<path d="M2.85156 92.4873C3.2039 92.6334 3.59138 92.7139 4 92.7139V93.7139L3.79395 93.709C3.32647 93.6853 2.88037 93.5809 2.46875 93.4102L2.85156 92.4873ZM5.84277 92.7139V93.7139H4V92.7139H5.84277ZM51.709 92.4873C52.0613 92.6334 52.4488 92.7139 52.8574 92.7139V93.7139L52.6514 93.709C52.1839 93.6853 51.7378 93.5809 51.3262 93.4102L51.709 92.4873ZM54.7002 92.7139V93.7139H52.8574V92.7139H54.7002ZM62.0713 92.7139V93.7139H58.3857V92.7139H62.0713ZM69.4434 92.7139V93.7139H65.7578V92.7139H69.4434ZM76.8145 92.7139V93.7139H73.1289V92.7139H76.8145ZM84.1855 92.7139V93.7139H80.5V92.7139H84.1855ZM89.7148 92.7139V93.7139H87.8721V92.7139H89.7148ZM91.2451 93.4102C90.8335 93.5808 90.3874 93.6853 89.9199 93.709L89.7148 93.7139V92.7139C90.1232 92.7138 90.5102 92.6333 90.8623 92.4873L91.2451 93.4102ZM13.2139 92.7139V93.7139H9.52832V92.7139H13.2139ZM20.5859 92.7139V93.7139H16.9004V92.7139H20.5859ZM27.957 92.7139V93.7139H24.2715V92.7139H27.957ZM35.3281 92.7139V93.7139H31.6426V92.7139H35.3281ZM40.8574 92.7139V93.7139H39.0146V92.7139H40.8574ZM42.3877 93.4102C41.976 93.5808 41.53 93.6853 41.0625 93.709L40.8574 93.7139V92.7139C41.2658 92.7138 41.6527 92.6333 42.0049 92.4873L42.3877 93.4102ZM0 89.7139V87.5361H1V89.7139C1 90.1225 1.08143 90.51 1.22754 90.8623L0.303711 91.2441C0.108408 90.7728 0 90.2558 0 89.7139ZM44.8516 89.9199C44.8279 90.3871 44.7232 90.8327 44.5527 91.2441L43.6299 90.8623C43.776 90.51 43.8574 90.1225 43.8574 89.7139V87.5361H44.8574V89.7139L44.8516 89.9199ZM48.8574 89.7139V87.5361H49.8574V89.7139C49.8574 90.1225 49.9389 90.51 50.085 90.8623L49.1611 91.2441C48.9658 90.7728 48.8574 90.2558 48.8574 89.7139ZM93.709 89.9199C93.6853 90.3871 93.5807 90.8327 93.4102 91.2441L92.4873 90.8623C92.6334 90.51 92.7148 90.1225 92.7148 89.7139V87.5361H93.7148V89.7139L93.709 89.9199ZM1 78.8213V83.1787H0V78.8213H1ZM49.8574 78.8213V83.1787H48.8574V78.8213H49.8574ZM93.7148 78.8213V83.1787H92.7148V78.8213H93.7148ZM44.8574 78.8213V83.1787H43.8574V78.8213H44.8574ZM1 70.1074V74.4648H0V70.1074H1ZM49.8574 70.1074V74.4648H48.8574V70.1074H49.8574ZM93.7148 70.1074V74.4648H92.7148V70.1074H93.7148ZM44.8574 70.1074V74.4648H43.8574V70.1074H44.8574ZM1 61.3936V65.75H0V61.3936H1ZM49.8574 61.3936V65.75H48.8574V61.3936H49.8574ZM93.7148 61.3936V65.75H92.7148V61.3936H93.7148ZM44.8574 61.3936V65.75H43.8574V61.3936H44.8574ZM0 54.8574C0 54.315 0.108095 53.7978 0.303711 53.3262L1.22754 53.709C1.08143 54.0613 1 54.4488 1 54.8574V57.0361H0V54.8574ZM48.8574 54.8574C48.8574 54.315 48.9655 53.7978 49.1611 53.3262L50.085 53.709C49.9389 54.0613 49.8574 54.4488 49.8574 54.8574V57.0361H48.8574V54.8574ZM93.7148 57.0361H92.7148V54.8574C92.7148 54.4488 92.6334 54.0613 92.4873 53.709L93.4102 53.3262C93.6058 53.7979 93.7148 54.3149 93.7148 54.8574V57.0361ZM44.8574 57.0361H43.8574V54.8574C43.8574 54.4488 43.776 54.0613 43.6299 53.709L44.5527 53.3262C44.7484 53.7979 44.8574 54.3149 44.8574 54.8574V57.0361ZM5.84277 50.8574V51.8574H4C3.59138 51.8574 3.2039 51.9389 2.85156 52.085L2.46875 51.1611C2.94042 50.9655 3.45758 50.8574 4 50.8574H5.84277ZM41.0625 50.8623C41.53 50.8859 41.9761 50.9905 42.3877 51.1611L42.0049 52.085C41.6527 51.9389 41.2659 51.8575 40.8574 51.8574H39.0146V50.8574H40.8574L41.0625 50.8623ZM54.7002 50.8574V51.8574H52.8574C52.4488 51.8574 52.0613 51.9389 51.709 52.085L51.3262 51.1611C51.7978 50.9655 52.315 50.8574 52.8574 50.8574H54.7002ZM89.9199 50.8623C90.3874 50.8859 90.8335 50.9905 91.2451 51.1611L90.8623 52.085C90.5101 51.9389 90.1233 51.8575 89.7148 51.8574H87.8721V50.8574H89.7148L89.9199 50.8623ZM13.2139 50.8574V51.8574H9.52832V50.8574H13.2139ZM20.5859 50.8574V51.8574H16.9004V50.8574H20.5859ZM27.957 50.8574V51.8574H24.2715V50.8574H27.957ZM35.3281 50.8574V51.8574H31.6426V50.8574H35.3281ZM62.0713 50.8574V51.8574H58.3857V50.8574H62.0713ZM69.4434 50.8574V51.8574H65.7578V50.8574H69.4434ZM76.8145 50.8574V51.8574H73.1289V50.8574H76.8145ZM84.1855 50.8574V51.8574H80.5V50.8574H84.1855Z" fill="#0056CF"/>
</svg>
