<svg width="94" height="94" viewBox="0 0 94 94" fill="none" xmlns="http://www.w3.org/2000/svg">
<g clip-path="url(#clip0_1485_22471)">
<rect x="0.259766" width="93.71" height="93.71" rx="4" fill="#F3F7FB"/>
<path d="M0.259766 4C0.259766 1.79086 2.05063 0 4.25977 0H89.9736C92.1828 0 93.9736 1.79086 93.9736 4V89.7143C93.9736 91.9234 92.1828 93.7143 89.9736 93.7143H4.25977C2.05063 93.7143 0.259766 91.9234 0.259766 89.7143V4Z" fill="#F3F7FB"/>
<path d="M3.11131 19.201C3.46364 19.3471 3.85112 19.4286 4.25974 19.4286V20.4286L4.05368 20.4237C3.58615 20.4 3.14016 20.2947 2.7285 20.1239L3.11131 19.201ZM5.81344 19.4286V20.4286H4.25974V19.4286H5.81344ZM12.0273 19.4286V20.4286H8.92084V19.4286H12.0273ZM16.6884 19.4286V20.4286H15.1347V19.4286H16.6884ZM18.2186 20.1239C17.8072 20.2945 17.3616 20.4 16.8944 20.4237L16.6884 20.4286V19.4286C17.0969 19.4286 17.4845 19.3471 17.8368 19.201L18.2186 20.1239ZM0.259766 16.4286V14.8749H1.25976V16.4286C1.25978 16.8372 1.34121 17.2247 1.4873 17.577L0.563474 17.9589C0.392972 17.5475 0.288365 17.1018 0.264648 16.6346L0.259766 16.4286ZM20.6835 16.6346C20.6597 17.1019 20.5542 17.5474 20.3836 17.9589L19.4608 17.577C19.6069 17.2247 19.6883 16.8372 19.6883 16.4286V14.8749H20.6883V16.4286L20.6835 16.6346ZM1.25976 8.66107V11.7675H0.259766V8.66107H1.25976ZM20.6883 8.66107V11.7675H19.6883V8.66107H20.6883ZM0.259766 4C0.259766 3.45758 0.36786 2.9404 0.563474 2.46873L1.4873 2.85154C1.34119 3.20388 1.25976 3.59136 1.25976 3.99997V5.55367H0.259766V4ZM20.6883 5.55367H19.6883V3.99997C19.6883 3.59136 19.6069 3.20388 19.4608 2.85154L20.3836 2.46873C20.5793 2.94048 20.6883 3.45744 20.6883 3.99997V5.55367ZM5.81344 0V0.999993H4.25974C3.85112 0.999993 3.46364 1.08142 3.11131 1.22753L2.7285 0.303709C3.14008 0.133014 3.58626 0.0285995 4.05368 0.00488278L4.25977 0H5.81344ZM16.8944 0.00488278C17.3615 0.0285991 17.8073 0.133207 18.2186 0.303709L17.8368 1.22753C17.4845 1.08144 17.0969 1.00001 16.6884 0.999993H15.1347V0H16.6884L16.8944 0.00488278ZM12.0273 0V0.999993H8.92084V0H12.0273Z" fill="#0056CF"/>
<path d="M27.5399 19.201C27.8922 19.3471 28.2797 19.4286 28.6883 19.4286V20.4286L28.4823 20.4237C28.0147 20.4 27.5687 20.2947 27.1571 20.1239L27.5399 19.201ZM30.242 19.4286V20.4286H28.6883V19.4286H30.242ZM36.4558 19.4286V20.4286H33.3494V19.4286H36.4558ZM41.1169 19.4286V20.4286H39.5632V19.4286H41.1169ZM42.6472 20.1239C42.2358 20.2945 41.7902 20.4 41.323 20.4237L41.1169 20.4286V19.4286C41.5255 19.4286 41.9131 19.3471 42.2654 19.201L42.6472 20.1239ZM24.6883 16.4286V14.8749H25.6883V16.4286C25.6883 16.8372 25.7698 17.2247 25.9159 17.577L24.992 17.9589C24.8215 17.5475 24.7169 17.1018 24.6932 16.6346L24.6883 16.4286ZM45.112 16.6346C45.0883 17.1019 44.9828 17.5474 44.8122 17.9589L43.8894 17.577C44.0355 17.2247 44.1169 16.8372 44.1169 16.4286V14.8749H45.1169V16.4286L45.112 16.6346ZM25.6883 8.66107V11.7675H24.6883V8.66107H25.6883ZM45.1169 8.66107V11.7675H44.1169V8.66107H45.1169ZM24.6883 3.99997C24.6883 3.45755 24.7964 2.9404 24.992 2.46873L25.9159 2.85154C25.7698 3.20388 25.6883 3.59136 25.6883 3.99997V5.55367H24.6883V3.99997ZM45.1169 5.55367H44.1169V3.99997C44.1169 3.59136 44.0355 3.20388 43.8894 2.85154L44.8122 2.46873C45.0079 2.94048 45.1169 3.45744 45.1169 3.99997V5.55367ZM30.242 0V0.999993H28.6883C28.2797 0.999993 27.8922 1.08142 27.5399 1.22753L27.1571 0.303709C27.5686 0.133014 28.0148 0.0285995 28.4823 0.00488278L28.6883 0H30.242ZM41.323 0.00488278C41.7901 0.0285991 42.2359 0.133207 42.6472 0.303709L42.2654 1.22753C41.9131 1.08144 41.5255 1.00001 41.1169 0.999993H39.5632V0H41.1169L41.323 0.00488278ZM36.4558 0V0.999993H33.3494V0H36.4558Z" fill="#0056CF"/>
<path d="M51.9688 43.6299C52.3211 43.776 52.7086 43.8574 53.1172 43.8574V44.8574L52.9111 44.8516C52.4436 44.8278 51.9976 44.7235 51.5859 44.5527L51.9688 43.6299ZM54.6533 43.8574V44.8574H53.1172V43.8574H54.6533ZM60.7959 43.8574V44.8574H57.7246V43.8574H60.7959ZM66.9385 43.8574V44.8574H63.8672V43.8574H66.9385ZM73.0811 43.8574V44.8574H70.0098V43.8574H73.0811ZM79.2236 43.8574V44.8574H76.1523V43.8574H79.2236ZM85.3662 43.8574V44.8574H82.2949V43.8574H85.3662ZM89.9736 43.8574V44.8574H88.4375V43.8574H89.9736ZM91.5039 44.5527C91.0925 44.7233 90.6469 44.8279 90.1797 44.8516L89.9736 44.8574V43.8574C90.3823 43.8574 90.7697 43.776 91.1221 43.6299L91.5039 44.5527ZM49.1172 40.8574V39.3213H50.1172V40.8574L50.1211 41.0098C50.1387 41.3622 50.217 41.6968 50.3447 42.0049L49.4209 42.3877C49.2503 41.9761 49.1457 41.53 49.1221 41.0625L49.1172 40.8574ZM93.9688 41.0635C93.945 41.5307 93.8395 41.9763 93.6689 42.3877L92.7461 42.0049C92.8921 41.6527 92.9736 41.2659 92.9736 40.8574V39.3213H93.9736V40.8574L93.9688 41.0635ZM50.1172 33.1787V36.25H49.1172V33.1787H50.1172ZM93.9736 33.1787V36.25H92.9736V33.1787H93.9736ZM50.1172 27.0361V30.1074H49.1172V27.0361H50.1172ZM93.9736 27.0361V30.1074H92.9736V27.0361H93.9736ZM50.1172 20.8926V23.9639H49.1172V20.8926H50.1172ZM93.9736 20.8926V23.9639H92.9736V20.8926H93.9736ZM50.1172 14.75V17.8213H49.1172V14.75H50.1172ZM93.9736 14.75V17.8213H92.9736V14.75H93.9736ZM50.1172 8.60742V11.6787H49.1172V8.60742H50.1172ZM93.9736 8.60742V11.6787H92.9736V8.60742H93.9736ZM49.1172 4C49.1172 3.45758 49.2253 2.94042 49.4209 2.46875L50.3447 2.85156C50.1986 3.2039 50.1172 3.59138 50.1172 4V5.53613H49.1172V4ZM93.9736 5.53613H92.9736V4C92.9736 3.59138 92.8922 3.2039 92.7461 2.85156L93.6689 2.46875C93.8647 2.94051 93.9736 3.45744 93.9736 4V5.53613ZM54.6533 0V1H53.1172C52.7086 1 52.3211 1.08143 51.9688 1.22754L51.5859 0.303711C52.0576 0.108094 52.5748 2.73249e-09 53.1172 0H54.6533ZM90.1797 0.00488281C90.6468 0.0285838 91.0926 0.13322 91.5039 0.303711L91.1221 1.22754C90.7697 1.08143 90.3823 1 89.9736 1H88.4375V0L89.9736 0L90.1797 0.00488281ZM60.7959 0V1H57.7246V0H60.7959ZM66.9385 0V1H63.8672V0H66.9385ZM73.0811 0V1H70.0098V0H73.0811ZM79.2236 0V1H76.1523V0H79.2236ZM85.3662 0V1H82.2949V0H85.3662Z" fill="#0056CF"/>
<path d="M3.11168 43.6296C3.46401 43.7757 3.8515 43.8572 4.26011 43.8572V44.8571L4.05406 44.8523C3.58651 44.8285 3.14053 44.7232 2.72886 44.5525L3.11168 43.6296ZM5.79625 43.8572V44.8571H4.26011V43.8572H5.79625ZM11.9388 43.8572V44.8571H8.86753V43.8572H11.9388ZM18.0814 43.8572V44.8571H15.0101V43.8572H18.0814ZM24.224 43.8572V44.8571H21.1527V43.8572H24.224ZM30.3666 43.8572V44.8571H27.2953V43.8572H30.3666ZM36.5091 43.8572V44.8571H33.4378V43.8572H36.5091ZM41.1166 43.8572V44.8571H39.5804V43.8572H41.1166ZM42.6468 44.5525C42.2354 44.723 41.7898 44.8286 41.3226 44.8523L41.1166 44.8571V43.8572C41.5252 43.8572 41.9127 43.7757 42.265 43.6296L42.6468 44.5525ZM0.260113 40.8572V39.3035H1.26011V40.8572C1.26013 41.2657 1.34156 41.6533 1.48765 42.0056L0.563824 42.3874C0.393322 41.9761 0.28871 41.5303 0.264996 41.0632L0.260113 40.8572ZM45.1117 41.0632C45.088 41.5305 44.9825 41.976 44.8119 42.3874L43.889 42.0056C44.0351 41.6533 44.1165 41.2657 44.1166 40.8572V39.3035H45.1166V40.8572L45.1117 41.0632ZM1.26011 33.0896V36.1961H0.260113V33.0896H1.26011ZM45.1166 33.0896V36.1961H44.1166V33.0896H45.1166ZM0.260113 28.4285C0.260113 27.8861 0.368207 27.369 0.563824 26.8973L1.48765 27.2801C1.34154 27.6324 1.26011 28.0199 1.26011 28.4285V29.9822H0.260113V28.4285ZM45.1166 29.9822H44.1166V28.4285C44.1166 28.0199 44.0351 27.6324 43.889 27.2801L44.8119 26.8973C45.0076 27.3691 45.1166 27.886 45.1166 28.4285V29.9822ZM5.79625 24.4286V25.4286H4.26011C3.8515 25.4286 3.46401 25.51 3.11168 25.6561L2.72886 24.7323C3.20053 24.5367 3.71769 24.4286 4.26011 24.4286H5.79625ZM41.3226 24.4334C41.7897 24.4571 42.2355 24.5618 42.6468 24.7323L42.265 25.6561C41.9127 25.51 41.5252 25.4286 41.1166 25.4286H39.5804V24.4286H41.1166L41.3226 24.4334ZM11.9388 24.4286V25.4286H8.86753V24.4286H11.9388ZM18.0814 24.4286V25.4286H15.0101V24.4286H18.0814ZM24.224 24.4286V25.4286H21.1527V24.4286H24.224ZM30.3666 24.4286V25.4286H27.2953V24.4286H30.3666ZM36.5091 24.4286V25.4286H33.4378V24.4286H36.5091Z" fill="#0056CF"/>
<path d="M3.11133 68.0582C3.46366 68.2043 3.85115 68.2857 4.25977 68.2857V69.2857L4.05371 69.2808C3.58617 69.2571 3.14018 69.1518 2.72852 68.981L3.11133 68.0582ZM5.79199 68.2857V69.2857H4.25977V68.2857H5.79199ZM11.9209 68.2857V69.2857H8.85645V68.2857H11.9209ZM18.0488 68.2857V69.2857H14.9844V68.2857H18.0488ZM24.1777 68.2857V69.2857H21.1133V68.2857H24.1777ZM30.3066 68.2857V69.2857H27.2422V68.2857H30.3066ZM36.4346 68.2857V69.2857H33.3711V68.2857H36.4346ZM42.5635 68.2857V69.2857H39.499V68.2857H42.5635ZM48.6924 68.2857V69.2857H45.6279V68.2857H48.6924ZM54.8213 68.2857V69.2857H51.7568V68.2857H54.8213ZM60.9492 68.2857V69.2857H57.8848V68.2857H60.9492ZM65.5459 68.2857V69.2857H64.0137V68.2857H65.5459ZM67.0762 68.981C66.6647 69.1516 66.2192 69.2571 65.752 69.2808L65.5459 69.2857V68.2857C65.9545 68.2857 66.342 68.2043 66.6943 68.0582L67.0762 68.981ZM0.259766 65.2857V63.732H1.25977V65.2857C1.25978 65.6943 1.34121 66.0819 1.4873 66.4342L0.563477 66.816C0.392975 66.4047 0.288363 65.9589 0.264648 65.4918L0.259766 65.2857ZM69.541 65.4918C69.5173 65.959 69.4118 66.4046 69.2412 66.816L68.3184 66.4342C68.4645 66.0819 68.5459 65.6943 68.5459 65.2857V63.732H69.5459V65.2857L69.541 65.4918ZM1.25977 57.5182V60.6246H0.259766V57.5182H1.25977ZM69.5459 57.5182V60.6246H68.5459V57.5182H69.5459ZM0.259766 52.8571C0.259766 52.3147 0.36786 51.7975 0.563477 51.3259L1.4873 51.7087C1.3412 52.061 1.25977 52.4485 1.25977 52.8571V54.4108H0.259766V52.8571ZM69.5459 54.4108H68.5459V52.8571C68.5459 52.4485 68.4645 52.061 68.3184 51.7087L69.2412 51.3259C69.4369 51.7976 69.5459 52.3145 69.5459 52.8571V54.4108ZM5.79199 48.8571V49.8571H4.25977C3.85115 49.8571 3.46366 49.9385 3.11133 50.0846L2.72852 49.1608C3.1401 48.9901 3.58628 48.8857 4.05371 48.862L4.25977 48.8571H5.79199ZM65.752 48.862C66.2191 48.8857 66.6648 48.9903 67.0762 49.1608L66.6943 50.0846C66.342 49.9385 65.9545 49.8571 65.5459 49.8571H64.0137V48.8571H65.5459L65.752 48.862ZM11.9209 48.8571V49.8571H8.85645V48.8571H11.9209ZM18.0488 48.8571V49.8571H14.9844V48.8571H18.0488ZM24.1777 48.8571V49.8571H21.1133V48.8571H24.1777ZM30.3066 48.8571V49.8571H27.2422V48.8571H30.3066ZM36.4346 48.8571V49.8571H33.3711V48.8571H36.4346ZM42.5635 48.8571V49.8571H39.499V48.8571H42.5635ZM48.6924 48.8571V49.8571H45.6279V48.8571H48.6924ZM54.8213 48.8571V49.8571H51.7568V48.8571H54.8213ZM60.9492 48.8571V49.8571H57.8848V48.8571H60.9492Z" fill="#0056CF"/>
<path d="M76.397 68.0582C76.7493 68.2043 77.1368 68.2857 77.5454 68.2857V69.2857L77.3394 69.2808C76.8719 69.2571 76.4259 69.1518 76.0142 68.981L76.397 68.0582ZM79.0991 68.2857V69.2857H77.5454V68.2857H79.0991ZM85.313 68.2857V69.2857H82.2065V68.2857H85.313ZM89.9741 68.2857V69.2857H88.4204V68.2857H89.9741ZM91.5043 68.981C91.0929 69.1516 90.6473 69.2571 90.1801 69.2808L89.9741 69.2857V68.2857C90.3826 68.2857 90.7702 68.2043 91.1225 68.0582L91.5043 68.981ZM73.5455 65.2857V63.732H74.5455V65.2857C74.5455 65.6943 74.6269 66.0819 74.773 66.4342L73.8492 66.816C73.6787 66.4047 73.5741 65.9589 73.5504 65.4918L73.5455 65.2857ZM93.9692 65.4918C93.9454 65.959 93.8399 66.4046 93.6694 66.816L92.7465 66.4342C92.8926 66.0819 92.974 65.6943 92.974 65.2857V63.732H93.974V65.2857L93.9692 65.4918ZM74.5455 57.5182V60.6246H73.5455V57.5182H74.5455ZM93.974 57.5182V60.6246H92.974V57.5182H93.974ZM73.5455 52.8571C73.5455 52.3147 73.6536 51.7975 73.8492 51.3259L74.773 51.7087C74.6269 52.061 74.5455 52.4485 74.5455 52.8571V54.4108H73.5455V52.8571ZM93.974 54.4108H92.974V52.8571C92.974 52.4485 92.8926 52.061 92.7465 51.7087L93.6694 51.3259C93.8651 51.7976 93.974 52.3146 93.974 52.8571V54.4108ZM79.0991 48.8571V49.8571H77.5454C77.1368 49.8571 76.7493 49.9385 76.397 50.0847L76.0142 49.1608C76.4258 48.9901 76.872 48.8857 77.3394 48.862L77.5454 48.8571H79.0991ZM90.1801 48.862C90.6472 48.8857 91.093 48.9903 91.5043 49.1608L91.1225 50.0847C90.7702 49.9386 90.3826 49.8571 89.9741 49.8571H88.4204V48.8571H89.9741L90.1801 48.862ZM85.313 48.8571V49.8571H82.2065V48.8571H85.313Z" fill="#0056CF"/>
<path d="M3.11153 92.4867C3.46387 92.6329 3.85135 92.7143 4.25997 92.7143L4.25977 93.7143L4.05392 93.7094C3.58637 93.6857 3.14039 93.5804 2.72872 93.4096L3.11153 92.4867ZM5.79025 92.7143V93.7143L4.25977 93.7143L4.25997 92.7143H5.79025ZM11.9133 92.7143V93.7143H8.85177V92.7143H11.9133ZM18.0354 92.7143V93.7143H14.9738V92.7143H18.0354ZM24.1574 92.7143V93.7143H21.0969V92.7143H24.1574ZM30.2805 92.7143V93.7143H27.219V92.7143H30.2805ZM36.4025 92.7143V93.7143H33.341V92.7143H36.4025ZM42.5246 92.7143V93.7143H39.4641V92.7143H42.5246ZM48.6477 92.7143V93.7143H45.5861V92.7143H48.6477ZM54.7697 92.7143V93.7143H51.7092V92.7143H54.7697ZM60.8928 92.7143V93.7143H57.8313V92.7143H60.8928ZM67.0149 92.7143V93.7143H63.9533V92.7143H67.0149ZM73.1369 92.7143V93.7143H70.0764V92.7143H73.1369ZM79.26 92.7143V93.7143H76.1984V92.7143H79.26ZM85.382 92.7143V93.7143H82.3205V92.7143H85.382ZM89.9738 92.7143L89.9736 93.7143L88.4436 93.7143V92.7143H89.9738ZM91.5041 93.4096C91.0927 93.5802 90.6471 93.6857 90.1799 93.7094L89.9736 93.7143L89.9738 92.7143C90.3825 92.7143 90.7699 92.6329 91.1223 92.4867L91.5041 93.4096ZM0.259766 89.7143L0.259972 88.1606H1.25997V89.7143C1.25999 90.1229 1.34142 90.5104 1.48751 90.8627L0.563683 91.2446C0.393181 90.8332 0.288569 90.3875 0.264854 89.9204L0.259766 89.7143ZM93.969 89.9204C93.9452 90.3876 93.8397 90.8331 93.6692 91.2446L92.7463 90.8627C92.8924 90.5104 92.9738 90.1229 92.9738 89.7143V88.1606H93.9738L93.9736 89.7143L93.969 89.9204ZM1.25997 81.9468V85.0532H0.259972V81.9468H1.25997ZM93.9738 81.9468V85.0532H92.9738V81.9468H93.9738ZM0.259972 77.2857C0.259972 76.7432 0.368066 76.2261 0.563683 75.7544L1.48751 76.1372C1.3414 76.4896 1.25997 76.8771 1.25997 77.2857V78.8394H0.259972V77.2857ZM93.9738 78.8394H92.9738V77.2857C92.9738 76.8771 92.8924 76.4896 92.7463 76.1372L93.6692 75.7544C93.8649 76.2262 93.9738 76.7431 93.9738 77.2857V78.8394ZM5.79025 73.2857V74.2857H4.25997C3.85135 74.2857 3.46387 74.3671 3.11153 74.5132L2.72872 73.5894C3.1403 73.4187 3.58649 73.3143 4.05392 73.2906L4.25997 73.2857H5.79025ZM90.1799 73.2906C90.647 73.3143 91.0928 73.4189 91.5041 73.5894L91.1223 74.5132C90.7699 74.3671 90.3825 74.2857 89.9738 74.2857H88.4436V73.2857H89.9738L90.1799 73.2906ZM11.9133 73.2857V74.2857H8.85177V73.2857H11.9133ZM18.0354 73.2857V74.2857H14.9738V73.2857H18.0354ZM24.1574 73.2857V74.2857H21.0969V73.2857H24.1574ZM30.2805 73.2857V74.2857H27.219V73.2857H30.2805ZM36.4025 73.2857V74.2857H33.341V73.2857H36.4025ZM42.5246 73.2857V74.2857H39.4641V73.2857H42.5246ZM48.6477 73.2857V74.2857H45.5861V73.2857H48.6477ZM54.7697 73.2857V74.2857H51.7092V73.2857H54.7697ZM60.8928 73.2857V74.2857H57.8313V73.2857H60.8928ZM67.0149 73.2857V74.2857H63.9533V73.2857H67.0149ZM73.1369 73.2857V74.2857H70.0764V73.2857H73.1369ZM79.26 73.2857V74.2857H76.1984V73.2857H79.26ZM85.382 73.2857V74.2857H82.3205V73.2857H85.382Z" fill="#0056CF"/>
</g>
<defs>
<clipPath id="clip0_1485_22471">
<rect x="0.259766" width="93.71" height="93.71" rx="4" fill="white"/>
</clipPath>
</defs>
</svg>
