<svg width="95" height="94" viewBox="0 0 95 94" fill="none" xmlns="http://www.w3.org/2000/svg">
<g clip-path="url(#clip0_1485_22435)">
<rect x="0.709961" width="93.71" height="93.71" rx="4" fill="#F3F7FB"/>
<path d="M12.7121 26.8571C12.7121 24.648 14.503 22.8571 16.7121 22.8571H29.2821C31.4912 22.8571 33.2821 24.648 33.2821 26.8571V66.8571C33.2821 69.0663 31.4912 70.8571 29.2821 70.8571H16.7121C14.503 70.8571 12.7121 69.0663 12.7121 66.8571V26.8571Z" fill="#0056CF"/>
<path d="M37.2821 26.8571C37.2821 24.648 39.073 22.8571 41.2821 22.8571H53.8521C56.0612 22.8571 57.8521 24.648 57.8521 26.8571V66.8571C57.8521 69.0663 56.0612 70.8571 53.8521 70.8571H41.2821C39.073 70.8571 37.2821 69.0663 37.2821 66.8571V26.8571Z" fill="#0056CF"/>
<path d="M61.8521 26.8571C61.8521 24.648 63.643 22.8571 65.8521 22.8571H78.4221C80.6312 22.8571 82.4221 24.648 82.4221 26.8571V66.8571C82.4221 69.0663 80.6312 70.8571 78.4221 70.8571H65.8521C63.643 70.8571 61.8521 69.0663 61.8521 66.8571V26.8571Z" fill="#0056CF"/>
<path d="M3.56348 57.6296C3.91581 57.7757 4.3033 57.8572 4.71192 57.8572V58.8572C4.16936 58.8572 3.65243 58.7482 3.18067 58.5525L3.56348 57.6296ZM6.66016 57.8572V58.8572H4.71192V57.8572H6.66016ZM14.4522 57.8572V58.8572H10.5557V57.8572H14.4522ZM22.2432 57.8572V58.8572H18.3477V57.8572H22.2432ZM30.0352 57.8572V58.8572H26.1397V57.8572H30.0352ZM37.8272 57.8572V58.8572H33.9317V57.8572H37.8272ZM45.6192 57.8572V58.8572H41.7227V57.8572H45.6192ZM53.4112 57.8572V58.8572H49.5147V57.8572H53.4112ZM61.2022 57.8572V58.8572H57.3067V57.8572H61.2022ZM68.9942 57.8572V58.8572H65.0987V57.8572H68.9942ZM76.7862 57.8572V58.8572H72.8906V57.8572H76.7862ZM84.5782 57.8572V58.8572H80.6826V57.8572H84.5782ZM90.4219 57.8572V58.8572H88.4737V57.8572H90.4219ZM91.9522 58.5525C91.4806 58.748 90.9641 58.8572 90.4219 58.8572V57.8572C90.8305 57.8572 91.218 57.7757 91.5703 57.6296L91.9522 58.5525ZM0.711914 54.8572V52.8572H1.71191V54.8572L1.71582 55.0095C1.73336 55.3621 1.81163 55.6973 1.93945 56.0056L1.01563 56.3874C0.845134 55.9761 0.740498 55.5303 0.716797 55.0632L0.711914 54.8572ZM94.417 55.0632C94.3933 55.5305 94.2878 55.976 94.1172 56.3874L93.1944 56.0056C93.3405 55.6533 93.4219 55.2658 93.4219 54.8572V52.8572H94.4219V54.8572L94.417 55.0632ZM1.71191 44.8572V48.8572H0.711914V44.8572H1.71191ZM94.4219 44.8572V48.8572H93.4219V44.8572H94.4219ZM0.711914 38.8572C0.711914 38.3147 0.820008 37.7976 1.01563 37.3259L1.93945 37.7087C1.79335 38.0611 1.71191 38.4485 1.71191 38.8572V40.8572H0.711914V38.8572ZM94.4219 40.8572H93.4219V38.8572C93.4219 38.4485 93.3405 38.0611 93.1944 37.7087L94.1172 37.3259C94.3129 37.7977 94.4219 38.3146 94.4219 38.8572V40.8572ZM6.66016 34.8572V35.8572H4.71192C4.3033 35.8572 3.91581 35.9386 3.56348 36.0847L3.18067 35.1609C3.59225 34.9902 4.03843 34.8858 4.50586 34.862L4.71192 34.8572H6.66016ZM90.4219 34.8572C90.964 34.8572 91.4807 34.9655 91.9522 35.1609L91.5703 36.0847C91.218 35.9386 90.8305 35.8572 90.4219 35.8572H88.4737V34.8572H90.4219ZM14.4522 34.8572V35.8572H10.5557V34.8572H14.4522ZM22.2432 34.8572V35.8572H18.3477V34.8572H22.2432ZM30.0352 34.8572V35.8572H26.1397V34.8572H30.0352ZM37.8272 34.8572V35.8572H33.9317V34.8572H37.8272ZM45.6192 34.8572V35.8572H41.7227V34.8572H45.6192ZM53.4112 34.8572V35.8572H49.5147V34.8572H53.4112ZM61.2022 34.8572V35.8572H57.3067V34.8572H61.2022ZM68.9942 34.8572V35.8572H65.0987V34.8572H68.9942ZM76.7862 34.8572V35.8572H72.8906V34.8572H76.7862ZM84.5782 34.8572V35.8572H80.6826V34.8572H84.5782Z" fill="#0056CF"/>
</g>
<defs>
<clipPath id="clip0_1485_22435">
<rect x="0.709961" width="93.71" height="93.71" rx="4" fill="white"/>
</clipPath>
</defs>
</svg>
