<svg width="94" height="94" viewBox="0 0 94 94" fill="none" xmlns="http://www.w3.org/2000/svg">
<rect x="0.129883" width="93.71" height="93.71" rx="4" fill="#F3F7FB"/>
<path d="M6.55664 46.3571C6.83278 46.3571 7.05664 46.581 7.05664 46.8571C7.05664 47.1333 6.83278 47.3571 6.55664 47.3571H4.63184C4.35569 47.3571 4.13184 47.1333 4.13184 46.8571C4.13184 46.581 4.35569 46.3571 4.63184 46.3571H6.55664ZM14.2578 46.3571C14.534 46.3571 14.7578 46.581 14.7578 46.8571C14.7578 47.1333 14.534 47.3571 14.2578 47.3571H10.4072C10.1312 47.357 9.90723 47.1332 9.90723 46.8571C9.90723 46.5811 10.1312 46.3573 10.4072 46.3571H14.2578ZM21.959 46.3571C22.2351 46.3572 22.459 46.581 22.459 46.8571C22.459 47.1332 22.2351 47.3571 21.959 47.3571H18.1084C17.8323 47.3571 17.6084 47.1333 17.6084 46.8571C17.6084 46.581 17.8323 46.3571 18.1084 46.3571H21.959ZM29.6602 46.3571C29.9361 46.3573 30.1602 46.5811 30.1602 46.8571C30.1602 47.1332 29.9361 47.3569 29.6602 47.3571H25.8096C25.5334 47.3571 25.3096 47.1333 25.3096 46.8571C25.3096 46.581 25.5334 46.3571 25.8096 46.3571H29.6602ZM37.3604 46.3571C37.6365 46.3571 37.8604 46.581 37.8604 46.8571C37.8604 47.1333 37.6365 47.3571 37.3604 47.3571H33.5098C33.2338 47.3569 33.0098 47.1331 33.0098 46.8571C33.0098 46.5811 33.2338 46.3574 33.5098 46.3571H37.3604ZM45.0615 46.3571C45.3377 46.3571 45.5615 46.581 45.5615 46.8571C45.5615 47.1333 45.3377 47.3571 45.0615 47.3571H41.2109C40.9349 47.357 40.7109 47.1332 40.7109 46.8571C40.7109 46.5811 40.9349 46.3572 41.2109 46.3571H45.0615ZM52.7627 46.3571C53.0388 46.3572 53.2627 46.581 53.2627 46.8571C53.2627 47.1332 53.0388 47.357 52.7627 47.3571H48.9121C48.636 47.3571 48.4121 47.1333 48.4121 46.8571C48.4121 46.581 48.636 46.3571 48.9121 46.3571H52.7627ZM60.4639 46.3571C60.7398 46.3574 60.9639 46.5811 60.9639 46.8571C60.9639 47.1331 60.7398 47.3569 60.4639 47.3571H56.6133C56.3371 47.3571 56.1133 47.1333 56.1133 46.8571C56.1133 46.581 56.3371 46.3571 56.6133 46.3571H60.4639ZM68.1641 46.3571C68.4402 46.3571 68.6641 46.581 68.6641 46.8571C68.6641 47.1333 68.4402 47.3571 68.1641 47.3571H64.3135C64.0375 47.3569 63.8135 47.1331 63.8135 46.8571C63.8135 46.5811 64.0375 46.3574 64.3135 46.3571H68.1641ZM75.8652 46.3571C76.1414 46.3571 76.3652 46.581 76.3652 46.8571C76.3652 47.1333 76.1414 47.3571 75.8652 47.3571H72.0146C71.7386 47.357 71.5146 47.1332 71.5146 46.8571C71.5146 46.581 71.7386 46.3572 72.0146 46.3571H75.8652ZM83.5664 46.3571C83.8424 46.3573 84.0664 46.5811 84.0664 46.8571C84.0664 47.1332 83.8424 47.357 83.5664 47.3571H79.7158C79.4397 47.3571 79.2158 47.1333 79.2158 46.8571C79.2158 46.581 79.4397 46.3571 79.7158 46.3571H83.5664ZM89.3418 46.3571C89.6179 46.3571 89.8418 46.581 89.8418 46.8571C89.8418 47.1333 89.6179 47.3571 89.3418 47.3571H87.417C87.1408 47.3571 86.917 47.1333 86.917 46.8571C86.917 46.581 87.1408 46.3571 87.417 46.3571H89.3418Z" fill="#0056CF"/>
<path d="M46.487 87.2873C46.487 87.0112 46.7109 86.7873 46.987 86.7873C47.2632 86.7873 47.487 87.0112 47.487 87.2873V89.2121C47.487 89.4882 47.2632 89.7121 46.987 89.7121C46.7109 89.7121 46.487 89.4882 46.487 89.2121V87.2873ZM46.487 79.5861C46.487 79.31 46.7109 79.0861 46.987 79.0861C47.2632 79.0861 47.487 79.31 47.487 79.5861V83.4367C47.4869 83.7127 47.2631 83.9367 46.987 83.9367C46.711 83.9367 46.4872 83.7127 46.487 83.4367V79.5861ZM46.487 71.8849C46.4871 71.6089 46.7109 71.3849 46.987 71.3849C47.2631 71.3849 47.487 71.6089 47.487 71.8849V75.7355C47.487 76.0117 47.2632 76.2355 46.987 76.2355C46.7109 76.2355 46.4871 76.0117 46.487 75.7355V71.8849ZM46.487 64.1838C46.4872 63.9078 46.711 63.6838 46.987 63.6838C47.2631 63.6838 47.4868 63.9078 47.487 64.1838V68.0344C47.487 68.3105 47.2632 68.5344 46.987 68.5344C46.7109 68.5344 46.487 68.3105 46.487 68.0344V64.1838ZM46.487 56.4836C46.487 56.2074 46.7109 55.9836 46.987 55.9836C47.2632 55.9836 47.487 56.2074 47.487 56.4836V60.3342C47.4868 60.6101 47.263 60.8342 46.987 60.8342C46.7111 60.8342 46.4873 60.6101 46.487 60.3342V56.4836ZM46.487 48.7824C46.487 48.5063 46.7109 48.2824 46.987 48.2824C47.2632 48.2824 47.487 48.5063 47.487 48.7824V52.633C47.4869 52.909 47.2631 53.133 46.987 53.133C46.711 53.133 46.4872 52.909 46.487 52.633V48.7824ZM46.487 41.0812C46.4871 40.8052 46.711 40.5812 46.987 40.5812C47.2631 40.5812 47.4869 40.8052 47.487 41.0812V44.9318C47.487 45.208 47.2632 45.4318 46.987 45.4318C46.7109 45.4318 46.487 45.208 46.487 44.9318V41.0812ZM46.487 33.3801C46.4873 33.1041 46.711 32.8801 46.987 32.8801C47.263 32.8801 47.4868 33.1041 47.487 33.3801V37.2307C47.487 37.5068 47.2632 37.7307 46.987 37.7307C46.7109 37.7307 46.487 37.5068 46.487 37.2307V33.3801ZM46.487 25.6799C46.487 25.4037 46.7109 25.1799 46.987 25.1799C47.2632 25.1799 47.487 25.4037 47.487 25.6799V29.5305C47.4868 29.8064 47.263 30.0305 46.987 30.0305C46.711 30.0305 46.4873 29.8064 46.487 29.5305V25.6799ZM46.487 17.9787C46.487 17.7026 46.7109 17.4787 46.987 17.4787C47.2632 17.4787 47.487 17.7026 47.487 17.9787V21.8293C47.487 22.1054 47.2631 22.3293 46.987 22.3293C46.7109 22.3293 46.4871 22.1054 46.487 21.8293V17.9787ZM46.487 10.2775C46.4872 10.0015 46.711 9.77753 46.987 9.77753C47.2631 9.77753 47.4869 10.0015 47.487 10.2775V14.1281C47.487 14.4043 47.2632 14.6281 46.987 14.6281C46.7109 14.6281 46.487 14.4043 46.487 14.1281V10.2775ZM46.487 4.50214C46.487 4.22599 46.7109 4.00214 46.987 4.00214C47.2632 4.00214 47.487 4.22599 47.487 4.50214V6.42694C47.487 6.70308 47.2632 6.92694 46.987 6.92694C46.7109 6.92694 46.487 6.70308 46.487 6.42694V4.50214Z" fill="#0056CF"/>
</svg>
