<svg width="281" height="104" viewBox="0 0 281 104" fill="none" xmlns="http://www.w3.org/2000/svg">
<path fill-rule="evenodd" clip-rule="evenodd" d="M275 0C278.314 0 281 2.68629 281 6V98C281 101.21 278.479 103.832 275.309 103.992L275 104H6L5.69141 103.992C2.62344 103.837 0.163427 101.377 0.0078125 98.3086L0 98V6C0 2.68629 2.68629 4.42926e-08 6 0H275ZM6 1C3.23858 1 1 3.23858 1 6V98C1.0002 100.761 3.2387 103 6 103H275C277.761 103 280 100.761 280 98V6C280 3.23857 277.761 1 275 1H6Z" fill="#E4E8F0"/>
<path d="M44 9C45.6569 9 47 10.3431 47 12V92C47 93.6569 45.6569 95 44 95H12C10.3431 95 9 93.6569 9 92V12L9.00391 11.8457C9.08422 10.2606 10.3949 9 12 9H44Z" fill="#F3F7FB"/>
<path fill-rule="evenodd" clip-rule="evenodd" d="M44.2061 8.00488C46.3194 8.11212 48 9.85996 48 12V92L47.9951 92.2061C47.8913 94.2512 46.2512 95.8913 44.2061 95.9951L44 96H12C9.85996 96 8.11211 94.3194 8.00488 92.2061L8 92V12C8 9.79086 9.79086 8 12 8H44L44.2061 8.00488ZM12 9C10.3949 9 9.08422 10.2606 9.00391 11.8457L9 12V92C9 93.6569 10.3431 95 12 95H44C45.6569 95 47 93.6569 47 92V12C47 10.3431 45.6569 9 44 9H12Z" fill="#0056CF"/>
<path d="M29.6808 57.9999H27.3868V49.8314L25.4648 50.5754V48.3279L27.8673 47.3514H29.6808V57.9999Z" fill="#242B42"/>
<path d="M92 38.3301C93.6569 38.3301 95 39.6732 95 41.3301V92C95 93.6569 93.6569 95 92 95H60C58.3431 95 57 93.6569 57 92V41.3301C57 39.6732 58.3431 38.3301 60 38.3301H92Z" fill="#F3F7FB"/>
<path fill-rule="evenodd" clip-rule="evenodd" d="M92.2061 37.335C94.3194 37.4422 96 39.19 96 41.3301V92C96 94.14 94.3194 95.8879 92.2061 95.9951L92 96H60C57.7909 96 56 94.2091 56 92V41.3301C56 39.1209 57.7909 37.3301 60 37.3301H92L92.2061 37.335ZM60 38.3301C58.3431 38.3301 57 39.6732 57 41.3301V92C57 93.6569 58.3431 95 60 95H92C93.6569 95 95 93.6569 95 92V41.3301C95 39.6732 93.6569 38.3301 92 38.3301H60Z" fill="#0056CF"/>
<path d="M79.2972 60.3301H72.0742V58.7026L75.5617 55.2461C76.5537 54.2851 76.8327 53.7891 76.8327 53.0761C76.8327 52.2236 76.1042 51.6191 75.0812 51.6191C74.0892 51.6191 73.1592 52.1771 72.3222 53.0916V50.6581C73.1437 49.9141 74.2132 49.4956 75.2672 49.4956C77.4062 49.4956 79.1267 50.7976 79.1267 52.8281C79.1267 54.2386 78.5377 55.2771 77.1892 56.5171L75.2827 58.2841H79.2972V60.3301Z" fill="#242B42"/>
<path d="M140 57C141.657 57 143 58.3431 143 60V92C143 93.6569 141.657 95 140 95H108C106.343 95 105 93.6569 105 92V60C105 58.3431 106.343 57 108 57H140Z" fill="#F3F7FB"/>
<path fill-rule="evenodd" clip-rule="evenodd" d="M140.206 56.0049C142.319 56.1121 144 57.86 144 60V92L143.995 92.2061C143.891 94.2512 142.251 95.8913 140.206 95.9951L140 96H108C105.86 96 104.112 94.3194 104.005 92.2061L104 92V60C104 57.7909 105.791 56 108 56H140L140.206 56.0049ZM108 57C106.343 57 105 58.3431 105 60V92C105 93.6569 106.343 95 108 95H140C141.657 95 143 93.6569 143 92V60C143 58.3431 141.657 57 140 57H108Z" fill="#0056CF"/>
<path d="M127.05 78.3225C127.05 80.3375 125.453 81.7015 123.02 81.7015C121.981 81.7015 121.005 81.438 120.121 80.8955V78.5705C121.005 79.268 121.904 79.609 122.834 79.609C123.965 79.609 124.756 79.0975 124.756 78.1985C124.756 77.408 124.012 76.8655 122.911 76.8655H121.904V75.0675H122.865C123.764 75.0675 124.384 74.5715 124.384 73.9205C124.384 73.1765 123.655 72.7425 122.787 72.7425C121.935 72.7425 121.16 73.068 120.338 73.7345V71.456C121.113 70.929 122.028 70.6655 122.973 70.6655C125.081 70.6655 126.631 71.7815 126.631 73.6415C126.631 74.6335 126.12 75.3775 125.314 75.827C126.414 76.2765 127.05 77.16 127.05 78.3225Z" fill="#242B42"/>
</svg>
